<svg width="1084" height="800" viewBox="0 0 1084 800" fill="none" xmlns="http://www.w3.org/2000/svg">
<path d="M290.827 10.1875H791.264C831.838 10.1875 864.78 43.0806 864.78 83.6164V583.495C864.78 624.031 831.852 656.924 791.264 656.924H290.827C250.253 656.924 217.312 624.031 217.312 583.495V83.6164C217.312 43.0806 250.24 10.1875 290.827 10.1875Z" fill="#343433"/>
<path d="M792.763 19.2957C827.889 19.2957 856.61 47.9894 856.61 83.07V582.948C856.61 618.043 827.889 646.723 792.763 646.723H292.339C257.213 646.723 228.492 618.029 228.492 582.948V83.0835C228.492 47.9894 257.213 19.3092 292.339 19.3092H792.776L792.763 19.2957ZM792.763 0H292.339C246.493 0 209.169 37.2816 209.169 83.0835V582.962C209.169 628.764 246.493 666.045 292.339 666.045H792.776C838.623 666.045 875.947 628.764 875.947 582.962V83.0835C875.947 37.2951 838.623 0 792.776 0H792.763Z" fill="white"/>
<path d="M575.038 491.987C489.884 492.147 420.547 423.368 420.387 338.281C420.227 253.193 489.043 183.894 574.197 183.734C615.602 183.574 655.306 200.223 684.418 229.64C626.875 150.595 516.133 133.106 436.865 190.618C357.598 248.13 340.279 358.792 397.822 437.996C455.386 517.201 566.108 534.531 645.375 477.018C649.239 474.157 653.124 471.135 656.648 468.113C632.421 483.922 603.97 492.167 575.038 491.987Z" fill="url(#paint0_linear_749_2571)"/>
<path d="M627.534 208.45C687.28 243.269 707.302 319.772 672.624 379.305C637.785 438.999 561.221 459.01 501.655 424.371C467.498 404.52 444.773 369.54 440.408 330.358V337.582C440.408 414.265 502.496 476.32 579.241 476.32C655.985 476.32 718.074 414.265 718.074 337.582C717.233 280.07 681.393 228.781 627.534 208.43V208.45Z" fill="url(#paint1_linear_749_2571)"/>
<path d="M561.062 218.032C515.452 217.872 475.407 247.969 462.613 291.693C483.316 246.288 536.995 226.276 582.425 246.968C627.855 267.66 647.877 321.31 627.195 366.715C612.559 399.013 580.243 419.525 544.904 419.525C536.995 419.365 529.087 418.344 521.338 416.503C533.952 421.886 547.427 424.568 561.222 424.408C618.265 424.067 664.035 377.481 663.715 320.469C663.034 264.138 617.444 218.552 561.062 218.052V218.032Z" fill="url(#paint2_linear_749_2571)"/>
<path d="M0 688C0 665.909 17.9086 648 40 648H1044C1066.09 648 1084 665.909 1084 688V760C1084 782.091 1066.09 800 1044 800H40C17.9086 800 0 782.091 0 760V688Z" fill="white"/>
<g clip-path="url(#clip0_749_2571)">
<path d="M58.8282 700.666C63.101 692.933 69.0471 686.905 76.699 682.584C84.3347 678.262 92.9939 676.102 102.677 676.102C114.536 676.102 124.69 679.237 133.138 685.492C141.586 691.763 147.224 700.292 150.083 711.112H123.325C121.327 706.937 118.5 703.753 114.861 701.576C111.206 699.399 107.047 698.31 102.4 698.31C94.8947 698.31 88.8349 700.926 84.1885 706.141C79.5421 711.356 77.2189 718.342 77.2189 727.066C77.2189 735.79 79.5421 742.776 84.1885 747.991C88.8349 753.206 94.9109 755.822 102.4 755.822C107.047 755.822 111.206 754.733 114.861 752.556C118.517 750.379 121.343 747.195 123.325 743.02H150.083C147.24 753.839 141.586 762.352 133.138 768.575C124.69 774.797 114.536 777.9 102.677 777.9C92.9939 777.9 84.3347 775.739 76.699 771.418C69.0633 767.096 63.101 761.102 58.8282 753.417C54.5555 745.733 52.4272 736.96 52.4272 727.082C52.4272 717.204 54.5555 708.415 58.8282 700.682V700.666Z" fill="#343433"/>
<path d="M186.442 771.631C178.611 767.261 172.405 761.169 167.791 753.338C163.193 745.507 160.886 736.702 160.886 726.938C160.886 717.174 163.193 708.385 167.791 700.603C172.389 692.821 178.611 686.745 186.442 682.391C194.272 678.021 202.883 675.844 212.273 675.844C221.663 675.844 230.274 678.021 238.104 682.391C245.935 686.761 252.109 692.837 256.609 700.603C261.109 708.385 263.367 717.158 263.367 726.938C263.367 736.718 261.093 745.507 256.528 753.338C251.962 761.169 245.805 767.261 238.023 771.631C230.241 776.001 221.647 778.178 212.257 778.178C202.867 778.178 194.256 776.001 186.425 771.631H186.442ZM231.427 747.993C236.22 742.68 238.608 735.662 238.608 726.922C238.608 718.181 236.204 711.049 231.427 705.785C226.635 700.522 220.25 697.89 212.273 697.89C204.296 697.89 197.781 700.505 192.989 705.72C188.196 710.935 185.808 718.019 185.808 726.922C185.808 735.825 188.196 742.794 192.989 748.058C197.781 753.322 204.215 755.954 212.273 755.954C220.331 755.954 226.618 753.305 231.427 747.977V747.993Z" fill="#343433"/>
<path d="M366.287 777.172H341.95L301.237 715.534V777.172H276.901V677.258H301.237L341.95 739.172V677.258H366.287V777.188V777.172Z" fill="#343433"/>
<path d="M455.818 677.258V696.753H429.337V777.172H405.001V696.753H378.519V677.258H455.818Z" fill="#343433"/>
<path d="M492.405 696.753V716.963H524.995V735.76H492.405V757.676H529.268V777.172H468.069V677.258H529.268V696.753H492.405Z" fill="#343433"/>
<path d="M634.463 777.172H610.126L569.413 715.534V777.172H545.076V677.258H569.413L610.126 739.172V677.258H634.463V777.188V777.172Z" fill="#343433"/>
<path d="M723.995 677.258V696.753H697.514V777.172H673.177V696.753H646.696V677.258H723.995Z" fill="#343433"/>
<path d="M810.683 734.542C814.192 739.058 815.947 744.192 815.947 749.992C815.947 758.342 813.023 764.955 807.19 769.845C801.358 774.735 793.219 777.172 782.772 777.172H736.227V677.258H781.213C791.366 677.258 799.311 679.581 805.062 684.227C810.797 688.874 813.672 695.194 813.672 703.154C813.672 709.035 812.129 713.925 809.042 717.808C805.956 721.707 801.862 724.404 796.728 725.915C802.511 727.15 807.158 730.025 810.683 734.526V734.542ZM760.58 717.678H776.518C780.498 717.678 783.568 716.801 785.697 715.046C787.825 713.292 788.897 710.709 788.897 707.281C788.897 703.853 787.825 701.253 785.697 699.45C783.568 697.647 780.498 696.753 776.518 696.753H760.58V717.678ZM787.971 754.752C790.197 752.9 791.318 750.219 791.318 746.71C791.318 743.201 790.148 740.439 787.825 738.457C785.502 736.459 782.301 735.468 778.223 735.468H760.58V757.53H778.516C782.594 757.53 785.745 756.604 787.987 754.752H787.971Z" fill="#343433"/>
<path d="M851.461 771.631C843.63 767.261 837.424 761.169 832.81 753.338C828.212 745.507 825.906 736.702 825.906 726.938C825.906 717.174 828.212 708.385 832.81 700.603C837.408 692.821 843.63 686.745 851.461 682.391C859.291 678.021 867.902 675.844 877.292 675.844C886.682 675.844 895.293 678.021 903.123 682.391C910.954 686.761 917.128 692.837 921.628 700.603C926.128 708.385 928.386 717.158 928.386 726.938C928.386 736.718 926.112 745.507 921.547 753.338C916.981 761.169 910.824 767.261 903.042 771.631C895.26 776.001 886.666 778.178 877.276 778.178C867.886 778.178 859.275 776.001 851.444 771.631H851.461ZM896.446 747.993C901.239 742.68 903.627 735.662 903.627 726.922C903.627 718.181 901.223 711.049 896.446 705.785C891.654 700.522 885.269 697.89 877.292 697.89C869.315 697.89 862.8 700.505 858.008 705.72C853.215 710.935 850.827 718.019 850.827 726.922C850.827 735.825 853.215 742.794 858.008 748.058C862.8 753.322 869.234 755.954 877.292 755.954C885.35 755.954 891.637 753.305 896.446 747.977V747.993Z" fill="#343433"/>
<path d="M1003.12 777.172L982.764 746.565L964.828 777.172H937.209L969.231 726.354L936.495 677.242H964.828L984.892 707.428L1002.54 677.242H1030.15L998.409 727.638L1031.44 777.172H1003.1H1003.12Z" fill="#343433"/>
</g>
<defs>
<linearGradient id="paint0_linear_749_2571" x1="648.99" y1="192.162" x2="423.359" y2="458.386" gradientUnits="userSpaceOnUse">
<stop offset="0.278846" stop-color="#7DFF6B"/>
<stop offset="1" stop-color="#0B826F"/>
</linearGradient>
<linearGradient id="paint1_linear_749_2571" x1="687.384" y1="235.219" x2="521.949" y2="458.784" gradientUnits="userSpaceOnUse">
<stop offset="0.278846" stop-color="#7DFF6B"/>
<stop offset="1" stop-color="#0B826F"/>
</linearGradient>
<linearGradient id="paint2_linear_749_2571" x1="641.489" y1="238.67" x2="511.945" y2="403.249" gradientUnits="userSpaceOnUse">
<stop offset="0.278846" stop-color="#7DFF6B"/>
<stop offset="1" stop-color="#0B826F"/>
</linearGradient>
<clipPath id="clip0_749_2571">
<rect width="979.026" height="102.351" fill="white" transform="translate(52.4272 675.828)"/>
</clipPath>
</defs>
</svg>
