<svg width="204" height="150" viewBox="0 0 204 150" fill="none" xmlns="http://www.w3.org/2000/svg">
<path d="M54.53 1.91016H148.362C155.97 1.91016 162.146 8.07762 162.146 15.6781V109.405C162.146 117.006 155.972 123.173 148.362 123.173H54.53C46.9224 123.173 40.7458 117.006 40.7458 109.405V15.6781C40.7458 8.07762 46.9199 1.91016 54.53 1.91016Z" fill="#343433"/>
<path d="M148.643 3.61794C155.229 3.61794 160.615 8.99801 160.615 15.5756V109.303C160.615 115.883 155.229 121.261 148.643 121.261H54.8137C48.2275 121.261 42.8423 115.88 42.8423 109.303V15.5782C42.8423 8.99801 48.2275 3.62047 54.8137 3.62047H148.646L148.643 3.61794ZM148.643 0H54.8137C46.2175 0 39.2192 6.9903 39.2192 15.5782V109.305C39.2192 117.893 46.2175 124.884 54.8137 124.884H148.646C157.242 124.884 164.24 117.893 164.24 109.305V15.5782C164.24 6.99283 157.242 0 148.646 0H148.643Z" fill="white"/>
<path d="M107.819 92.249C91.8531 92.279 78.8525 79.383 78.8225 63.4291C78.7925 47.4751 91.6954 34.4816 107.662 34.4516C115.425 34.4216 122.87 37.5433 128.328 43.0589C117.539 28.2381 96.7748 24.9588 81.9121 35.7423C67.0495 46.5258 63.8022 67.275 74.5916 82.1258C85.3847 96.9766 106.145 100.226 121.008 89.4424C121.732 88.9058 122.461 88.3393 123.121 87.7727C118.579 90.7369 113.244 92.2827 107.819 92.249Z" fill="url(#paint0_linear_749_2591)"/>
<path d="M117.662 39.0858C128.865 45.6144 132.619 59.9587 126.117 71.1212C119.585 82.3138 105.229 86.0659 94.0602 79.571C87.6556 75.8489 83.3947 69.2902 82.5763 61.9436V63.2981C82.5763 77.6762 94.2179 89.3114 108.607 89.3114C122.997 89.3114 134.639 77.6762 134.639 63.2981C134.481 52.5146 127.761 42.8979 117.662 39.082V39.0858Z" fill="url(#paint1_linear_749_2591)"/>
<path d="M105.199 40.8829C96.647 40.8529 89.1388 46.4961 86.7399 54.6944C90.6216 46.1809 100.686 42.4288 109.205 46.3085C117.723 50.1881 121.477 60.2475 117.599 68.7611C114.855 74.8169 108.795 78.6629 102.169 78.6629C100.686 78.6328 99.2036 78.4415 97.7508 78.0963C100.116 79.1056 102.642 79.6084 105.229 79.5784C115.925 79.5146 124.506 70.7797 124.446 60.0899C124.319 49.5278 115.771 40.9805 105.199 40.8867V40.8829Z" fill="url(#paint2_linear_749_2591)"/>
<path d="M0 129C0 124.858 3.35786 121.5 7.5 121.5H195.75C199.892 121.5 203.25 124.858 203.25 129V142.5C203.25 146.642 199.892 150 195.75 150H7.49999C3.35786 150 0 146.642 0 142.5V129Z" fill="white"/>
<g clip-path="url(#clip0_749_2591)">
<path d="M11.0303 131.375C11.8314 129.925 12.9463 128.795 14.381 127.985C15.8127 127.175 17.4363 126.77 19.2518 126.77C21.4755 126.77 23.3794 127.357 24.9634 128.53C26.5474 129.706 27.6044 131.305 28.1405 133.334H23.1235C22.7488 132.551 22.2188 131.954 21.5364 131.546C20.8511 131.138 20.0712 130.934 19.2 130.934C17.7927 130.934 16.6565 131.424 15.7853 132.402C14.9141 133.38 14.4785 134.69 14.4785 136.325C14.4785 137.961 14.9141 139.271 15.7853 140.249C16.6565 141.227 17.7958 141.717 19.2 141.717C20.0712 141.717 20.8511 141.513 21.5364 141.105C22.2218 140.697 22.7519 140.1 23.1235 139.317H28.1405C27.6074 141.345 26.5474 142.942 24.9634 144.108C23.3794 145.275 21.4755 145.857 19.2518 145.857C17.4363 145.857 15.8127 145.452 14.381 144.641C12.9493 143.831 11.8314 142.707 11.0303 141.266C10.2291 139.825 9.83008 138.18 9.83008 136.328C9.83008 134.476 10.2291 132.828 11.0303 131.378V131.375Z" fill="#343433"/>
<path d="M34.9577 144.679C33.4895 143.859 32.3259 142.717 31.4608 141.249C30.5987 139.781 30.1661 138.13 30.1661 136.299C30.1661 134.468 30.5987 132.82 31.4608 131.361C32.3228 129.902 33.4895 128.763 34.9577 127.946C36.426 127.127 38.0404 126.719 39.8011 126.719C41.5618 126.719 43.1763 127.127 44.6445 127.946C46.1128 128.766 47.2703 129.905 48.1141 131.361C48.9579 132.82 49.3813 134.465 49.3813 136.299C49.3813 138.133 48.9548 139.781 48.0988 141.249C47.2429 142.717 46.0884 143.859 44.6293 144.679C43.1702 145.498 41.5588 145.906 39.7981 145.906C38.0374 145.906 36.4229 145.498 34.9547 144.679H34.9577ZM43.3925 140.247C44.2912 139.251 44.7389 137.935 44.7389 136.296C44.7389 134.657 44.2881 133.32 43.3925 132.333C42.4939 131.346 41.2968 130.852 39.8011 130.852C38.3055 130.852 37.084 131.343 36.1853 132.321C35.2867 133.298 34.8389 134.627 34.8389 136.296C34.8389 137.965 35.2867 139.272 36.1853 140.259C37.084 141.246 38.2902 141.739 39.8011 141.739C41.312 141.739 42.4909 141.243 43.3925 140.244V140.247Z" fill="#343433"/>
<path d="M68.6788 145.718H64.1156L56.482 134.161V145.718H51.9188V126.984H56.482L64.1156 138.593V126.984H68.6788V145.721V145.718Z" fill="#343433"/>
<path d="M85.4659 126.984V130.64H80.5007V145.718H75.9375V130.64H70.9723V126.984H85.4659Z" fill="#343433"/>
<path d="M92.326 130.64V134.429H98.4365V137.954H92.326V142.063H99.2377V145.718H87.7628V126.984H99.2377V130.64H92.326Z" fill="#343433"/>
<path d="M118.962 145.718H114.399L106.765 134.161V145.718H102.202V126.984H106.765L114.399 138.593V126.984H118.962V145.721V145.718Z" fill="#343433"/>
<path d="M135.749 126.984V130.64H130.784V145.718H126.221V130.64H121.255V126.984H135.749Z" fill="#343433"/>
<path d="M152.003 137.725C152.661 138.572 152.99 139.535 152.99 140.622C152.99 142.188 152.442 143.428 151.348 144.344C150.255 145.261 148.729 145.718 146.77 145.718H138.043V126.984H146.477C148.381 126.984 149.871 127.42 150.949 128.291C152.024 129.162 152.564 130.347 152.564 131.84C152.564 132.943 152.274 133.86 151.695 134.588C151.117 135.319 150.349 135.824 149.386 136.108C150.471 136.339 151.342 136.878 152.003 137.722V137.725ZM142.609 134.563H145.597C146.343 134.563 146.919 134.399 147.318 134.07C147.717 133.741 147.918 133.256 147.918 132.614C147.918 131.971 147.717 131.484 147.318 131.145C146.919 130.807 146.343 130.64 145.597 130.64H142.609V134.563ZM147.745 141.515C148.162 141.167 148.372 140.665 148.372 140.007C148.372 139.349 148.153 138.831 147.717 138.459C147.282 138.085 146.681 137.899 145.917 137.899H142.609V142.035H145.972C146.736 142.035 147.327 141.862 147.748 141.515H147.745Z" fill="#343433"/>
<path d="M159.649 144.679C158.181 143.859 157.017 142.717 156.152 141.249C155.29 139.781 154.857 138.13 154.857 136.299C154.857 134.468 155.29 132.82 156.152 131.361C157.014 129.902 158.181 128.763 159.649 127.946C161.117 127.127 162.732 126.719 164.492 126.719C166.253 126.719 167.867 127.127 169.336 127.946C170.804 128.766 171.961 129.905 172.805 131.361C173.649 132.82 174.072 134.465 174.072 136.299C174.072 138.133 173.646 139.781 172.79 141.249C171.934 142.717 170.78 143.859 169.32 144.679C167.861 145.498 166.25 145.906 164.489 145.906C162.729 145.906 161.114 145.498 159.646 144.679H159.649ZM168.084 140.247C168.982 139.251 169.43 137.935 169.43 136.296C169.43 134.657 168.979 133.32 168.084 132.333C167.185 131.346 165.988 130.852 164.492 130.852C162.997 130.852 161.775 131.343 160.876 132.321C159.978 133.298 159.53 134.627 159.53 136.296C159.53 137.965 159.978 139.272 160.876 140.259C161.775 141.246 162.981 141.739 164.492 141.739C166.003 141.739 167.182 141.243 168.084 140.244V140.247Z" fill="#343433"/>
<path d="M188.085 145.721L184.268 139.982L180.905 145.721H175.727L181.731 136.193L175.593 126.984H180.905L184.667 132.644L187.975 126.984H193.154L187.202 136.434L193.394 145.721H188.082H188.085Z" fill="#343433"/>
</g>
<defs>
<linearGradient id="paint0_linear_749_2591" x1="121.685" y1="36.0318" x2="79.3796" y2="85.9489" gradientUnits="userSpaceOnUse">
<stop offset="0.278846" stop-color="#7DFF6B"/>
<stop offset="1" stop-color="#0B826F"/>
</linearGradient>
<linearGradient id="paint1_linear_749_2591" x1="128.884" y1="44.105" x2="97.8653" y2="86.0234" gradientUnits="userSpaceOnUse">
<stop offset="0.278846" stop-color="#7DFF6B"/>
<stop offset="1" stop-color="#0B826F"/>
</linearGradient>
<linearGradient id="paint2_linear_749_2591" x1="120.279" y1="44.7525" x2="95.9895" y2="75.6111" gradientUnits="userSpaceOnUse">
<stop offset="0.278846" stop-color="#7DFF6B"/>
<stop offset="1" stop-color="#0B826F"/>
</linearGradient>
<clipPath id="clip0_749_2591">
<rect width="183.567" height="19.1908" fill="white" transform="translate(9.83008 126.719)"/>
</clipPath>
</defs>
</svg>
