<svg width="542" height="400" viewBox="0 0 542 400" fill="none" xmlns="http://www.w3.org/2000/svg">
<path d="M145.414 5.09375H395.632C415.919 5.09375 432.39 21.5403 432.39 41.8082V291.747C432.39 312.015 415.926 328.462 395.632 328.462H145.414C125.127 328.462 108.656 312.015 108.656 291.747V41.8082C108.656 21.5403 125.12 5.09375 145.414 5.09375Z" fill="#343433"/>
<path d="M396.381 9.64784C413.945 9.64784 428.305 23.9947 428.305 41.535V291.474C428.305 309.021 413.945 323.361 396.381 323.361H146.17C128.606 323.361 114.246 309.015 114.246 291.474V41.5418C114.246 23.9947 128.606 9.65459 146.17 9.65459H396.388L396.381 9.64784ZM396.381 0H146.17C123.247 0 104.584 18.6408 104.584 41.5418V291.481C104.584 314.382 123.247 333.023 146.17 333.023H396.388C419.311 333.023 437.973 314.382 437.973 291.481V41.5418C437.973 18.6475 419.311 0 396.388 0H396.381Z" fill="white"/>
<path d="M287.519 245.993C244.942 246.073 210.274 211.684 210.194 169.14C210.114 126.596 244.521 91.947 287.098 91.867C307.801 91.7869 327.653 100.112 342.209 114.82C313.437 75.2977 258.066 66.5528 218.433 95.3089C178.799 124.065 170.139 179.396 198.911 218.998C227.693 258.6 283.054 267.265 322.688 238.509C324.62 237.078 326.562 235.568 328.324 234.057C316.21 241.961 301.985 246.083 287.519 245.993Z" fill="url(#paint0_linear_749_2530)"/>
<path d="M313.767 104.225C343.64 121.635 353.651 159.886 336.312 189.653C318.893 219.499 280.61 229.505 250.828 212.185C233.749 202.26 222.386 184.77 220.204 165.179V168.791C220.204 207.133 251.248 238.16 289.62 238.16C327.993 238.16 359.037 207.133 359.037 168.791C358.616 140.035 340.697 114.391 313.767 104.215V104.225Z" fill="url(#paint1_linear_749_2530)"/>
<path d="M280.531 109.016C257.726 108.936 237.704 123.984 231.307 145.847C241.658 123.144 268.498 113.138 291.213 123.484C313.928 133.83 323.939 160.655 313.597 183.358C306.279 199.507 290.121 209.762 272.452 209.762C268.498 209.682 264.543 209.172 260.669 208.252C266.976 210.943 273.713 212.284 280.611 212.204C309.132 212.034 332.018 188.741 331.857 160.235C331.517 132.069 308.722 109.276 280.531 109.026V109.016Z" fill="url(#paint2_linear_749_2530)"/>
<path d="M0 344C0 332.954 8.95431 324 20 324H522C533.046 324 542 332.954 542 344V380C542 391.046 533.046 400 522 400H20C8.95429 400 0 391.046 0 380V344Z" fill="white"/>
<g clip-path="url(#clip0_749_2530)">
<path d="M29.4141 350.333C31.5505 346.466 34.5235 343.453 38.3495 341.292C42.1673 339.131 46.4969 338.051 51.3383 338.051C57.2681 338.051 62.3451 339.619 66.5691 342.746C70.7931 345.881 73.6118 350.146 75.0414 355.556H61.6627C60.6636 353.468 59.2502 351.876 57.4306 350.788C55.6029 349.699 53.5234 349.155 51.2002 349.155C47.4473 349.155 44.4174 350.463 42.0942 353.07C39.771 355.678 38.6094 359.171 38.6094 363.533C38.6094 367.895 39.771 371.388 42.0942 373.995C44.4174 376.603 47.4555 377.911 51.2002 377.911C53.5234 377.911 55.6029 377.367 57.4306 376.278C59.2583 375.19 60.6717 373.597 61.6627 371.51H75.0414C73.6199 376.92 70.7931 381.176 66.5691 384.287C62.3451 387.399 57.2681 388.95 51.3383 388.95C46.4969 388.95 42.1673 387.87 38.3495 385.709C34.5317 383.548 31.5505 380.551 29.4141 376.709C27.2777 372.866 26.2136 368.48 26.2136 363.541C26.2136 358.602 27.2777 354.208 29.4141 350.341V350.333Z" fill="#343433"/>
<path d="M93.2207 385.816C89.3054 383.63 86.2024 380.584 83.8954 376.669C81.5966 372.754 80.4431 368.351 80.4431 363.469C80.4431 358.587 81.5966 354.192 83.8954 350.301C86.1943 346.41 89.3054 343.372 93.2207 341.195C97.136 339.01 101.441 337.922 106.136 337.922C110.832 337.922 115.137 339.01 119.052 341.195C122.967 343.381 126.054 346.419 128.304 350.301C130.554 354.192 131.683 358.579 131.683 363.469C131.683 368.359 130.546 372.754 128.264 376.669C125.981 380.584 122.902 383.63 119.011 385.816C115.121 388.001 110.823 389.089 106.128 389.089C101.433 389.089 97.1279 388.001 93.2126 385.816H93.2207ZM115.714 373.996C118.11 371.34 119.304 367.831 119.304 363.461C119.304 359.091 118.102 355.525 115.714 352.893C113.317 350.261 110.125 348.945 106.136 348.945C102.148 348.945 98.8906 350.253 96.4943 352.86C94.098 355.468 92.9039 359.009 92.9039 363.461C92.9039 367.912 94.098 371.397 96.4943 374.029C98.8906 376.661 102.107 377.977 106.136 377.977C110.165 377.977 113.309 376.653 115.714 373.988V373.996Z" fill="#343433"/>
<path d="M183.143 388.586H170.975L150.619 357.767V388.586H138.45V338.629H150.619L170.975 369.586V338.629H183.143V388.594V388.586Z" fill="#343433"/>
<path d="M227.909 338.629V348.377H214.669V388.586H202.5V348.377H189.26V338.629H227.909Z" fill="#343433"/>
<path d="M246.203 348.377V358.482H262.497V367.88H246.203V378.838H264.634V388.586H234.034V338.629H264.634V348.377H246.203Z" fill="#343433"/>
<path d="M317.231 388.586H305.063L284.706 357.767V388.586H272.538V338.629H284.706L305.063 369.586V338.629H317.231V388.594V388.586Z" fill="#343433"/>
<path d="M361.997 338.629V348.377H348.757V388.586H336.589V348.377H323.348V338.629H361.997Z" fill="#343433"/>
<path d="M405.342 367.271C407.096 369.529 407.973 372.096 407.973 374.996C407.973 379.171 406.511 382.477 403.595 384.922C400.679 387.367 396.609 388.586 391.386 388.586H368.114V338.629H390.606C395.683 338.629 399.655 339.791 402.531 342.114C405.398 344.437 406.836 347.597 406.836 351.577C406.836 354.518 406.065 356.963 404.521 358.904C402.978 360.854 400.931 362.202 398.364 362.958C401.256 363.575 403.579 365.013 405.342 367.263V367.271ZM380.29 358.839H388.259C390.249 358.839 391.784 358.4 392.848 357.523C393.912 356.646 394.449 355.354 394.449 353.64C394.449 351.926 393.912 350.627 392.848 349.725C391.784 348.823 390.249 348.377 388.259 348.377H380.29V358.839ZM393.986 377.376C395.098 376.45 395.659 375.11 395.659 373.355C395.659 371.601 395.074 370.22 393.912 369.229C392.751 368.229 391.151 367.734 389.112 367.734H380.29V378.765H389.258C391.297 378.765 392.873 378.302 393.994 377.376H393.986Z" fill="#343433"/>
<path d="M425.73 385.816C421.815 383.63 418.712 380.584 416.405 376.669C414.106 372.754 412.953 368.351 412.953 363.469C412.953 358.587 414.106 354.192 416.405 350.301C418.704 346.41 421.815 343.372 425.73 341.195C429.646 339.01 433.951 337.922 438.646 337.922C443.341 337.922 447.647 339.01 451.562 341.195C455.477 343.381 458.564 346.419 460.814 350.301C463.064 354.192 464.193 358.579 464.193 363.469C464.193 368.359 463.056 372.754 460.773 376.669C458.491 380.584 455.412 383.63 451.521 385.816C447.63 388.001 443.333 389.089 438.638 389.089C433.943 389.089 429.638 388.001 425.722 385.816H425.73ZM448.223 373.996C450.62 371.34 451.814 367.831 451.814 363.461C451.814 359.091 450.611 355.525 448.223 352.893C445.827 350.261 442.635 348.945 438.646 348.945C434.658 348.945 431.4 350.253 429.004 352.86C426.608 355.468 425.414 359.009 425.414 363.461C425.414 367.912 426.608 371.397 429.004 374.029C431.4 376.661 434.617 377.977 438.646 377.977C442.675 377.977 445.819 376.653 448.223 373.988V373.996Z" fill="#343433"/>
<path d="M501.56 388.586L491.382 373.282L482.414 388.586H468.605L484.615 363.177L468.247 338.621H482.414L492.446 353.714L501.268 338.621H515.077L499.204 363.819L515.719 388.586H501.552H501.56Z" fill="#343433"/>
</g>
<defs>
<linearGradient id="paint0_linear_749_2530" x1="324.495" y1="96.081" x2="211.679" y2="229.193" gradientUnits="userSpaceOnUse">
<stop offset="0.278846" stop-color="#7DFF6B"/>
<stop offset="1" stop-color="#0B826F"/>
</linearGradient>
<linearGradient id="paint1_linear_749_2530" x1="343.692" y1="117.609" x2="260.975" y2="229.392" gradientUnits="userSpaceOnUse">
<stop offset="0.278846" stop-color="#7DFF6B"/>
<stop offset="1" stop-color="#0B826F"/>
</linearGradient>
<linearGradient id="paint2_linear_749_2530" x1="320.745" y1="119.335" x2="255.972" y2="201.624" gradientUnits="userSpaceOnUse">
<stop offset="0.278846" stop-color="#7DFF6B"/>
<stop offset="1" stop-color="#0B826F"/>
</linearGradient>
<clipPath id="clip0_749_2530">
<rect width="489.513" height="51.1754" fill="white" transform="translate(26.2136 337.914)"/>
</clipPath>
</defs>
</svg>
