<svg width="1028" height="800" viewBox="0 0 1028 800" fill="none" xmlns="http://www.w3.org/2000/svg">
<path d="M262.828 10.1875H763.268C803.842 10.1875 836.783 43.0807 836.783 83.6166V583.497C836.783 624.033 803.855 656.926 763.268 656.926H262.828C222.254 656.926 189.312 624.033 189.312 583.497V83.6166C189.312 43.0807 222.241 10.1875 262.828 10.1875Z" fill="#343433"/>
<path d="M764.765 19.2957C799.891 19.2957 828.613 47.9896 828.613 83.0703V582.95C828.613 618.044 799.891 646.725 764.765 646.725H264.339C229.213 646.725 200.492 618.031 200.492 582.95V83.0838C200.492 47.9896 229.213 19.3092 264.339 19.3092H764.779L764.765 19.2957ZM764.765 0H264.339C218.493 0 181.169 37.2817 181.169 83.0838V582.964C181.169 628.766 218.493 666.047 264.339 666.047H764.779C810.625 666.047 847.949 628.766 847.949 582.964V83.0838C847.949 37.2952 810.625 0 764.779 0H764.765Z" fill="white"/>
<path d="M547.04 491.98C461.886 492.14 392.55 423.361 392.389 338.273C392.229 253.185 461.045 183.886 546.2 183.726C587.605 183.566 627.309 200.215 656.421 229.632C598.878 150.588 488.135 133.098 408.868 190.61C329.6 248.122 312.281 358.785 369.824 437.989C427.388 517.194 538.111 534.524 617.378 477.011C621.242 474.15 625.127 471.128 628.651 468.106C604.424 483.915 575.972 492.16 547.04 491.98Z" fill="url(#paint0_linear_751_3216)"/>
<path d="M599.537 208.45C659.283 243.269 679.305 319.772 644.627 379.306C609.788 439 533.224 459.011 473.658 424.371C439.5 404.52 416.775 369.541 412.41 330.358V337.582C412.41 414.266 474.499 476.321 551.244 476.321C627.989 476.321 690.077 414.266 690.077 337.582C689.236 280.07 653.397 228.781 599.537 208.43V208.45Z" fill="url(#paint1_linear_751_3216)"/>
<path d="M533.065 218.032C487.455 217.872 447.41 247.969 434.616 291.693C455.319 246.288 508.998 226.277 554.429 246.968C599.859 267.66 619.881 321.31 599.198 366.716C584.562 399.014 552.246 419.525 516.907 419.525C508.998 419.365 501.09 418.345 493.341 416.504C505.955 421.887 519.43 424.568 533.225 424.408C590.268 424.068 636.039 377.482 635.719 320.47C635.038 264.138 589.447 218.552 533.065 218.052V218.032Z" fill="url(#paint2_linear_751_3216)"/>
<path d="M0 687.328C0 665.237 17.9086 647.328 40 647.328H987.99C1010.08 647.328 1027.99 665.237 1027.99 687.328V760C1027.99 782.091 1010.08 800 987.99 800H40C17.9086 800 0 782.091 0 760V687.328Z" fill="white"/>
<g clip-path="url(#clip0_751_3216)">
<path d="M32.3756 700.666C36.6484 692.933 42.5945 686.905 50.2465 682.584C57.8822 678.262 66.5414 676.102 76.2242 676.102C88.0839 676.102 98.2378 679.237 106.686 685.492C115.134 691.763 120.771 700.292 123.631 711.112H96.8731C94.8748 706.937 92.048 703.753 88.4088 701.576C84.7534 699.399 80.5944 698.31 75.948 698.31C68.4422 698.31 62.3824 700.926 57.736 706.141C53.0895 711.356 50.7663 718.342 50.7663 727.066C50.7663 735.79 53.0895 742.776 57.736 747.991C62.3824 753.206 68.4585 755.822 75.948 755.822C80.5944 755.822 84.7534 754.733 88.4088 752.556C92.0642 750.379 94.8911 747.195 96.8731 743.02H123.631C120.788 753.84 115.134 762.353 106.686 768.575C98.2378 774.797 88.0839 777.9 76.2242 777.9C66.5414 777.9 57.8822 775.74 50.2465 771.418C42.6107 767.097 36.6484 761.102 32.3756 753.417C28.1029 745.733 25.9746 736.96 25.9746 727.082C25.9746 717.204 28.1029 708.415 32.3756 700.682V700.666Z" fill="#343433"/>
<path d="M159.989 771.631C152.159 767.261 145.953 761.169 141.339 753.338C136.741 745.508 134.434 736.702 134.434 726.938C134.434 717.174 136.741 708.385 141.339 700.603C145.936 692.821 152.159 686.745 159.989 682.391C167.82 678.021 176.431 675.844 185.821 675.844C195.211 675.844 203.822 678.021 211.652 682.391C219.483 686.761 225.657 692.837 230.157 700.603C234.657 708.385 236.915 717.158 236.915 726.938C236.915 736.718 234.641 745.508 230.076 753.338C225.51 761.169 219.353 767.261 211.571 771.631C203.789 776.002 195.195 778.179 185.805 778.179C176.414 778.179 167.804 776.002 159.973 771.631H159.989ZM204.975 747.993C209.768 742.681 212.156 735.662 212.156 726.922C212.156 718.181 209.752 711.049 204.975 705.786C200.183 700.522 193.798 697.89 185.821 697.89C177.844 697.89 171.329 700.506 166.537 705.721C161.744 710.936 159.356 718.019 159.356 726.922C159.356 735.825 161.744 742.794 166.537 748.058C171.329 753.322 177.763 755.954 185.821 755.954C193.879 755.954 200.166 753.306 204.975 747.977V747.993Z" fill="#343433"/>
<path d="M339.835 777.172H315.499L274.786 715.534V777.172H250.449V677.258H274.786L315.499 739.172V677.258H339.835V777.188V777.172Z" fill="#343433"/>
<path d="M429.367 677.258V696.753H402.886V777.172H378.549V696.753H352.068V677.258H429.367Z" fill="#343433"/>
<path d="M465.954 696.753V716.964H498.544V735.76H465.954V757.677H502.817V777.172H441.617V677.258H502.817V696.753H465.954Z" fill="#343433"/>
<path d="M608.012 777.172H583.675L542.962 715.534V777.172H518.625V677.258H542.962L583.675 739.172V677.258H608.012V777.188V777.172Z" fill="#343433"/>
<path d="M697.545 677.258V696.753H671.064V777.172H646.727V696.753H620.246V677.258H697.545Z" fill="#343433"/>
<path d="M784.234 734.542C787.743 739.058 789.497 744.192 789.497 749.992C789.497 758.343 786.573 764.955 780.741 769.845C774.908 774.735 766.769 777.172 756.322 777.172H709.777V677.258H754.763C764.917 677.258 772.861 679.581 778.612 684.227C784.347 688.874 787.223 695.194 787.223 703.154C787.223 709.035 785.679 713.926 782.593 717.808C779.506 721.707 775.412 724.404 770.278 725.915C776.062 727.15 780.708 730.026 784.234 734.526V734.542ZM734.13 717.678H750.068C754.048 717.678 757.119 716.801 759.247 715.047C761.375 713.292 762.447 710.709 762.447 707.281C762.447 703.853 761.375 701.253 759.247 699.45C757.119 697.647 754.048 696.753 750.068 696.753H734.13V717.678ZM761.521 754.752C763.747 752.9 764.868 750.22 764.868 746.71C764.868 743.201 763.698 740.439 761.375 738.457C759.052 736.459 755.851 735.468 751.774 735.468H734.13V757.53H752.066C756.144 757.53 759.296 756.604 761.538 754.752H761.521Z" fill="#343433"/>
<path d="M963.684 777.173L943.328 746.565L925.392 777.173H897.773L929.795 726.354L897.059 677.242H925.392L945.456 707.428L963.099 677.242H990.718L958.973 727.638L992.001 777.173H963.668H963.684Z" fill="#343433"/>
<path d="M861.121 772.181C836.559 772.227 816.559 752.35 816.512 727.759C816.466 703.168 836.316 683.14 860.879 683.094C872.822 683.047 884.274 687.859 892.672 696.361C876.073 673.516 844.13 668.462 821.266 685.083C798.401 701.705 793.405 733.687 810.004 756.577C826.608 779.468 858.545 784.476 881.41 767.855C882.524 767.028 883.645 766.154 884.661 765.281C877.673 769.85 869.466 772.233 861.121 772.181Z" fill="#343433"/>
<path d="M876.264 690.236C893.498 700.299 899.273 722.409 889.27 739.615C879.221 756.866 857.136 762.65 839.955 752.639C830.102 746.902 823.547 736.792 822.288 725.469V727.556C822.288 749.718 840.197 767.652 862.334 767.652C884.471 767.652 902.38 749.718 902.38 727.556C902.138 710.935 891.8 696.112 876.264 690.23V690.236Z" fill="#343433"/>
<path d="M857.09 693.008C843.934 692.962 832.383 701.66 828.693 714.297C834.665 701.174 850.148 695.391 863.252 701.371C876.357 707.351 882.132 722.856 876.166 735.978C871.944 745.313 862.623 751.241 852.429 751.241C850.148 751.194 847.867 750.899 845.632 750.367C849.27 751.923 853.157 752.698 857.136 752.652C873.59 752.554 886.793 739.09 886.7 722.613C886.504 706.333 873.353 693.158 857.09 693.014V693.008Z" fill="#343433"/>
</g>
<defs>
<linearGradient id="paint0_linear_751_3216" x1="620.993" y1="192.154" x2="395.361" y2="458.38" gradientUnits="userSpaceOnUse">
<stop offset="0.278846" stop-color="#7DFF6B"/>
<stop offset="1" stop-color="#0B826F"/>
</linearGradient>
<linearGradient id="paint1_linear_751_3216" x1="659.388" y1="235.219" x2="493.952" y2="458.785" gradientUnits="userSpaceOnUse">
<stop offset="0.278846" stop-color="#7DFF6B"/>
<stop offset="1" stop-color="#0B826F"/>
</linearGradient>
<linearGradient id="paint2_linear_751_3216" x1="613.493" y1="238.67" x2="483.948" y2="403.249" gradientUnits="userSpaceOnUse">
<stop offset="0.278846" stop-color="#7DFF6B"/>
<stop offset="1" stop-color="#0B826F"/>
</linearGradient>
<clipPath id="clip0_751_3216">
<rect width="979.029" height="102.351" fill="white" transform="translate(25.9746 675.828)"/>
</clipPath>
</defs>
</svg>
