<svg width="193" height="150" viewBox="0 0 193 150" fill="none" xmlns="http://www.w3.org/2000/svg">
<path d="M49.2803 1.91016H143.113C150.72 1.91016 156.897 8.07776 156.897 15.6784V109.408C156.897 117.008 150.723 123.176 143.113 123.176H49.2803C41.6727 123.176 35.4961 117.008 35.4961 109.408V15.6784C35.4961 8.07776 41.6702 1.91016 49.2803 1.91016Z" fill="#343433"/>
<path d="M143.394 3.61802C149.98 3.61802 155.365 8.99822 155.365 15.576V109.305C155.365 115.886 149.98 121.263 143.394 121.263H49.5638C42.9776 121.263 37.5924 115.883 37.5924 109.305V15.5785C37.5924 8.99822 42.9776 3.62056 49.5638 3.62056H143.396L143.394 3.61802ZM143.394 0H49.5638C40.9677 0 33.9694 6.99046 33.9694 15.5785V109.308C33.9694 117.896 40.9677 124.886 49.5638 124.886H143.396C151.992 124.886 158.991 117.896 158.991 109.308V15.5785C158.991 6.99299 151.992 0 143.396 0H143.394Z" fill="white"/>
<path d="M102.57 92.2504C86.6037 92.2804 73.603 79.3842 73.573 63.4298C73.543 47.4755 86.446 34.4817 102.412 34.4517C110.176 34.4217 117.62 37.5435 123.079 43.0592C112.29 28.2381 91.5254 24.9586 76.6627 35.7424C61.8 46.5262 58.5527 67.2758 69.3421 82.127C80.1353 96.9782 100.896 100.228 115.758 89.4438C116.483 88.9072 117.211 88.3406 117.872 87.7741C113.329 90.7383 107.995 92.2842 102.57 92.2504Z" fill="url(#paint0_linear_751_3287)"/>
<path d="M112.413 39.0858C123.616 45.6146 127.37 59.9592 120.868 71.122C114.335 82.3148 99.9795 86.0669 88.8109 79.5719C82.4063 75.8497 78.1453 69.2909 77.3269 61.9441V63.2987C77.3269 77.6771 88.9685 89.3126 103.358 89.3126C117.748 89.3126 129.389 77.6771 129.389 63.2987C129.232 52.5149 122.512 42.898 112.413 39.082V39.0858Z" fill="url(#paint1_linear_751_3287)"/>
<path d="M99.9499 40.8868C91.3979 40.8568 83.8896 46.5001 81.4907 54.6986C85.3725 46.1849 95.4374 42.4327 103.956 46.3125C112.474 50.1923 116.228 60.2519 112.35 68.7656C109.606 74.8216 103.546 78.6676 96.9203 78.6676C95.4374 78.6376 93.9545 78.4462 92.5017 78.101C94.8668 79.1104 97.3933 79.6132 99.9799 79.5832C110.675 79.5194 119.257 70.7843 119.197 60.0943C119.07 49.5319 110.522 40.9844 99.9499 40.8906V40.8868Z" fill="url(#paint2_linear_751_3287)"/>
<path d="M0 128.875C0 124.733 3.35787 121.375 7.5 121.375H185.248C189.39 121.375 192.748 124.733 192.748 128.875V142.501C192.748 146.644 189.39 150.002 185.248 150.002H7.5C3.35786 150.002 0 146.644 0 142.501V128.875Z" fill="white"/>
<g clip-path="url(#clip0_751_3287)">
<path d="M6.07043 131.375C6.87157 129.925 7.98647 128.795 9.42121 127.985C10.8529 127.175 12.4765 126.77 14.292 126.77C16.5157 126.77 18.4196 127.357 20.0036 128.53C21.5876 129.706 22.6446 131.305 23.1807 133.334H18.1637C17.789 132.551 17.259 131.954 16.5767 131.546C15.8913 131.138 15.1114 130.934 14.2402 130.934C12.8329 130.934 11.6967 131.424 10.8255 132.402C9.95429 133.38 9.51869 134.69 9.51869 136.326C9.51869 137.961 9.95429 139.271 10.8255 140.249C11.6967 141.227 12.836 141.717 14.2402 141.717C15.1114 141.717 15.8913 141.513 16.5767 141.105C17.262 140.697 17.7921 140.1 18.1637 139.317H23.1807C22.6477 141.346 21.5876 142.942 20.0036 144.109C18.4196 145.275 16.5157 145.857 14.292 145.857C12.4765 145.857 10.8529 145.452 9.42121 144.642C7.98951 143.831 6.87157 142.707 6.07043 141.267C5.26929 139.826 4.87024 138.181 4.87024 136.329C4.87024 134.476 5.26929 132.828 6.07043 131.378V131.375Z" fill="#343433"/>
<path d="M29.998 144.679C28.5298 143.86 27.3662 142.718 26.501 141.249C25.639 139.781 25.2064 138.13 25.2064 136.299C25.2064 134.468 25.639 132.82 26.501 131.361C27.3631 129.902 28.5298 128.763 29.998 127.946C31.4663 127.127 33.0808 126.719 34.8414 126.719C36.6021 126.719 38.2166 127.127 39.6848 127.946C41.1531 128.766 42.3106 129.905 43.1544 131.361C43.9982 132.82 44.4216 134.465 44.4216 136.299C44.4216 138.133 43.9952 139.781 43.1392 141.249C42.2832 142.718 41.1287 143.86 39.6696 144.679C38.2105 145.499 36.5991 145.907 34.8384 145.907C33.0777 145.907 31.4632 145.499 29.995 144.679H29.998ZM38.4329 140.247C39.3315 139.251 39.7793 137.935 39.7793 136.296C39.7793 134.657 39.3284 133.32 38.4329 132.333C37.5343 131.346 36.3371 130.852 34.8414 130.852C33.3458 130.852 32.1243 131.343 31.2256 132.321C30.327 133.299 29.8792 134.627 29.8792 136.296C29.8792 137.965 30.327 139.272 31.2256 140.259C32.1243 141.246 33.3305 141.74 34.8414 141.74C36.3523 141.74 37.5312 141.243 38.4329 140.244V140.247Z" fill="#343433"/>
<path d="M63.7191 145.719H59.156L51.5223 134.161V145.719H46.9591V126.984H51.5223L59.156 138.594V126.984H63.7191V145.722V145.719Z" fill="#343433"/>
<path d="M80.5064 126.984V130.64H75.5411V145.719H70.9779V130.64H66.0127V126.984H80.5064Z" fill="#343433"/>
<path d="M87.3665 130.64V134.429H93.4771V137.954H87.3665V142.063H94.2783V145.719H82.8033V126.984H94.2783V130.64H87.3665Z" fill="#343433"/>
<path d="M114.002 145.719H109.439L101.805 134.161V145.719H97.2423V126.984H101.805L109.439 138.594V126.984H114.002V145.722V145.719Z" fill="#343433"/>
<path d="M130.79 126.984V130.64H125.824V145.719H121.261V130.64H116.296V126.984H130.79Z" fill="#343433"/>
<path d="M147.044 137.725C147.702 138.572 148.031 139.535 148.031 140.622C148.031 142.188 147.482 143.428 146.389 144.345C145.295 145.262 143.769 145.719 141.811 145.719H133.083V126.984H141.518C143.422 126.984 144.912 127.42 145.99 128.291C147.065 129.162 147.604 130.347 147.604 131.84C147.604 132.943 147.315 133.86 146.736 134.588C146.157 135.319 145.39 135.825 144.427 136.108C145.512 136.339 146.383 136.879 147.044 137.722V137.725ZM137.649 134.563H140.638C141.384 134.563 141.96 134.399 142.359 134.07C142.758 133.741 142.959 133.257 142.959 132.614C142.959 131.971 142.758 131.484 142.359 131.146C141.96 130.807 141.384 130.64 140.638 130.64H137.649V134.563ZM142.785 141.515C143.203 141.168 143.413 140.665 143.413 140.007C143.413 139.349 143.193 138.831 142.758 138.46C142.322 138.085 141.722 137.899 140.958 137.899H137.649V142.036H141.012C141.777 142.036 142.368 141.862 142.788 141.515H142.785Z" fill="#343433"/>
<path d="M180.691 145.722L176.874 139.983L173.511 145.722H168.333L174.337 136.193L168.198 126.984H173.511L177.273 132.644L180.581 126.984H185.76L179.807 136.434L186 145.722H180.688H180.691Z" fill="#343433"/>
<path d="M161.46 144.784C156.855 144.793 153.105 141.066 153.096 136.455C153.087 131.844 156.809 128.089 161.415 128.08C163.654 128.071 165.801 128.973 167.376 130.567C164.264 126.284 158.274 125.336 153.987 128.453C149.7 131.569 148.764 137.566 151.876 141.858C154.989 146.15 160.977 147.089 165.264 143.973C165.473 143.818 165.683 143.654 165.874 143.49C164.564 144.347 163.025 144.794 161.46 144.784Z" fill="#343433"/>
<path d="M164.3 129.423C167.531 131.31 168.614 135.455 166.738 138.682C164.854 141.916 160.713 143.001 157.492 141.124C155.644 140.048 154.415 138.152 154.179 136.029V136.421C154.179 140.576 157.537 143.939 161.688 143.939C165.838 143.939 169.196 140.576 169.196 136.421C169.151 133.304 167.213 130.525 164.3 129.422V129.423Z" fill="#343433"/>
<path d="M160.704 129.941C158.238 129.933 156.072 131.564 155.38 133.933C156.5 131.473 159.403 130.388 161.86 131.509C164.317 132.631 165.4 135.538 164.281 137.999C163.49 139.749 161.742 140.86 159.83 140.86C159.403 140.852 158.975 140.796 158.556 140.697C159.238 140.988 159.967 141.134 160.713 141.125C163.798 141.106 166.274 138.582 166.256 135.492C166.219 132.44 163.754 129.97 160.704 129.943V129.941Z" fill="#343433"/>
</g>
<defs>
<linearGradient id="paint0_linear_751_3287" x1="116.436" y1="36.032" x2="74.1292" y2="85.9494" gradientUnits="userSpaceOnUse">
<stop offset="0.278846" stop-color="#7DFF6B"/>
<stop offset="1" stop-color="#0B826F"/>
</linearGradient>
<linearGradient id="paint1_linear_751_3287" x1="123.635" y1="44.1051" x2="92.6152" y2="86.0239" gradientUnits="userSpaceOnUse">
<stop offset="0.278846" stop-color="#7DFF6B"/>
<stop offset="1" stop-color="#0B826F"/>
</linearGradient>
<linearGradient id="paint2_linear_751_3287" x1="115.03" y1="44.7565" x2="90.7398" y2="75.6154" gradientUnits="userSpaceOnUse">
<stop offset="0.278846" stop-color="#7DFF6B"/>
<stop offset="1" stop-color="#0B826F"/>
</linearGradient>
<clipPath id="clip0_751_3287">
<rect width="183.568" height="19.1912" fill="white" transform="translate(4.87024 126.719)"/>
</clipPath>
</defs>
</svg>
