<svg width="75" height="75" viewBox="0 0 75 75" fill="none" xmlns="http://www.w3.org/2000/svg">
<mask id="mask0_749_2058" style="mask-type:alpha" maskUnits="userSpaceOnUse" x="0" y="0" width="76" height="75">
<path d="M44.7008 70.9527C26.6027 70.9527 11.9324 56.3355 11.9324 38.3028C11.9324 20.2701 26.6027 5.65287 44.7008 5.65287C53.8283 5.65287 62.0791 9.37314 68.0211 15.3754C61.1765 6.05798 50.1206 0 37.6399 0C16.8523 0 7.62939e-06 16.7877 7.62939e-06 37.5C7.62939e-06 58.2123 16.8523 75 37.6361 75C47.0135 75 55.5851 71.5733 62.1798 65.9167C57.1182 69.1056 51.1277 70.9564 44.7008 70.9564" fill="url(#paint0_linear_749_2058)"/>
<path d="M55.9657 10.8984C63.8435 15.4958 69.1402 24.0141 69.1402 33.7664C69.1402 48.3947 57.2376 60.2505 42.5599 60.2542C28.9005 60.2542 17.6544 49.9891 16.1549 36.7805C16.1288 37.3008 16.1102 37.8211 16.1102 38.3452C16.1102 54.5493 29.2959 67.6836 45.5551 67.6836C61.8144 67.6836 75.0001 54.5456 75.0001 38.3452C75.0001 25.7944 67.0887 15.0907 55.9657 10.8984Z" fill="url(#paint1_linear_749_2058)"/>
<path d="M41.7695 12.9297C31.8887 12.9297 23.5446 19.4782 20.8627 28.4574C23.8579 21.7974 30.5682 17.1591 38.3677 17.1591C48.9611 17.1591 57.5476 25.7146 57.5476 36.2696C57.5476 46.8246 48.9611 55.3801 38.3677 55.3801C36.637 55.3801 34.9585 55.146 33.362 54.7186C35.9469 55.7964 38.7892 56.391 41.7695 56.3948C53.8176 56.3948 63.5791 46.6611 63.5791 34.6604C63.5791 22.6559 53.8139 12.9297 41.7695 12.9297Z" fill="url(#paint2_linear_749_2058)"/>
</mask>
<g mask="url(#mask0_749_2058)">
<rect x="-2.14285" y="-2.14062" width="78.2143" height="78.2143" fill="url(#paint3_linear_749_2058)"/>
</g>
<defs>
<linearGradient id="paint0_linear_749_2058" x1="60.503" y1="7.5" x2="12.7435" y2="63.9744" gradientUnits="userSpaceOnUse">
<stop offset="0.278846" stop-color="#7DFF6B"/>
<stop offset="1" stop-color="#0B826F"/>
</linearGradient>
<linearGradient id="paint1_linear_749_2058" x1="68.4912" y1="16.577" x2="33.4293" y2="63.985" gradientUnits="userSpaceOnUse">
<stop offset="0.278846" stop-color="#7DFF6B"/>
<stop offset="1" stop-color="#0B826F"/>
</linearGradient>
<linearGradient id="paint2_linear_749_2058" x1="58.8578" y1="17.2762" x2="31.6308" y2="52.1633" gradientUnits="userSpaceOnUse">
<stop offset="0.278846" stop-color="#7DFF6B"/>
<stop offset="1" stop-color="#0B826F"/>
</linearGradient>
<linearGradient id="paint3_linear_749_2058" x1="67.4267" y1="5.6808" x2="18.6457" y2="69.2814" gradientUnits="userSpaceOnUse">
<stop offset="0.278846" stop-color="#7DFF6B"/>
<stop offset="1" stop-color="#0B826F"/>
</linearGradient>
</defs>
</svg>
