<svg width="514" height="400" viewBox="0 0 514 400" fill="none" xmlns="http://www.w3.org/2000/svg">
<path d="M131.414 5.09375H381.634C401.921 5.09375 418.392 21.5404 418.392 41.8083V291.748C418.392 312.016 401.928 328.463 381.634 328.463H131.414C111.127 328.463 94.6562 312.016 94.6562 291.748V41.8083C94.6562 21.5404 111.12 5.09375 131.414 5.09375Z" fill="#343433"/>
<path d="M382.383 9.64787C399.946 9.64787 414.306 23.9948 414.306 41.5351V291.475C414.306 309.022 399.946 323.362 382.383 323.362H132.17C114.607 323.362 100.246 309.016 100.246 291.475V41.5419C100.246 23.9948 114.607 9.65463 132.17 9.65463H382.389L382.383 9.64787ZM382.383 0H132.17C109.247 0 90.5845 18.6409 90.5845 41.5419V291.482C90.5845 314.383 109.247 333.024 132.17 333.024H382.389C405.312 333.024 423.975 314.383 423.975 291.482V41.5419C423.975 18.6476 405.312 0 382.389 0H382.383Z" fill="white"/>
<path d="M273.52 245.99C230.943 246.07 196.275 211.681 196.195 169.137C196.115 126.593 230.523 91.9431 273.1 91.8631C293.803 91.7831 313.655 100.108 328.211 114.816C299.439 75.2937 244.068 66.5488 204.434 95.305C164.8 124.061 156.14 179.392 184.912 218.995C213.694 258.597 269.055 267.262 308.689 238.506C310.621 237.075 312.563 235.564 314.325 234.053C302.212 241.958 287.986 246.08 273.52 245.99Z" fill="url(#paint0_linear_751_3264)"/>
<path d="M299.769 104.225C329.642 121.635 339.653 159.886 322.313 189.653C304.894 219.5 266.612 229.505 236.829 212.186C219.75 202.26 208.387 184.77 206.205 165.179V168.791C206.205 207.133 237.249 238.16 275.622 238.16C313.994 238.16 345.039 207.133 345.039 168.791C344.618 140.035 326.698 114.391 299.769 104.215V104.225Z" fill="url(#paint1_linear_751_3264)"/>
<path d="M266.533 109.016C243.727 108.936 223.705 123.984 217.308 145.847C227.66 123.144 254.499 113.138 277.214 123.484C299.929 133.83 309.941 160.655 299.599 183.358C292.281 199.507 276.123 209.763 258.454 209.763C254.499 209.683 250.545 209.172 246.671 208.252C252.978 210.943 259.715 212.284 266.613 212.204C295.134 212.034 318.019 188.741 317.859 160.235C317.519 132.069 294.724 109.276 266.533 109.026V109.016Z" fill="url(#paint2_linear_751_3264)"/>
<path d="M0 343.664C0 332.618 8.95431 323.664 20 323.664H493.995C505.041 323.664 513.995 332.618 513.995 343.664V380C513.995 391.046 505.041 400 493.995 400H20C8.95429 400 0 391.046 0 380V343.664Z" fill="white"/>
<g clip-path="url(#clip0_751_3264)">
<path d="M16.1878 350.333C18.3242 346.466 21.2972 343.453 25.1232 341.292C28.9411 339.131 33.2707 338.051 38.1121 338.051C44.0419 338.051 49.1189 339.619 53.3429 342.746C57.5669 345.881 60.3856 350.146 61.8153 355.556H48.4365C47.4374 353.468 46.024 351.876 44.2044 350.788C42.3767 349.699 40.2972 349.155 37.974 349.155C34.2211 349.155 31.1912 350.463 28.868 353.07C26.5448 355.678 25.3832 359.171 25.3832 363.533C25.3832 367.895 26.5448 371.388 28.868 373.996C31.1912 376.603 34.2292 377.911 37.974 377.911C40.2972 377.911 42.3767 377.367 44.2044 376.278C46.0321 375.19 47.4455 373.598 48.4365 371.51H61.8153C60.3938 376.92 57.5669 381.176 53.3429 384.288C49.1189 387.399 44.0419 388.95 38.1121 388.95C33.2707 388.95 28.9411 387.87 25.1232 385.709C21.3054 383.548 18.3242 380.551 16.1878 376.709C14.0514 372.866 12.9873 368.48 12.9873 363.541C12.9873 358.602 14.0514 354.208 16.1878 350.341V350.333Z" fill="#343433"/>
<path d="M79.9947 385.816C76.0793 383.631 72.9763 380.584 70.6694 376.669C68.3705 372.754 67.217 368.351 67.217 363.469C67.217 358.587 68.3705 354.192 70.6694 350.301C72.9682 346.411 76.0793 343.372 79.9947 341.195C83.91 339.01 88.2153 337.922 92.9104 337.922C97.6056 337.922 101.911 339.01 105.826 341.195C109.742 343.381 112.828 346.419 115.078 350.301C117.328 354.192 118.458 358.579 118.458 363.469C118.458 368.359 117.32 372.754 115.038 376.669C112.755 380.584 109.677 383.631 105.786 385.816C101.895 388.001 97.5975 389.089 92.9023 389.089C88.2071 389.089 83.9019 388.001 79.9866 385.816H79.9947ZM102.488 373.997C104.884 371.34 106.078 367.831 106.078 363.461C106.078 359.091 104.876 355.525 102.488 352.893C100.091 350.261 96.8989 348.945 92.9104 348.945C88.922 348.945 85.6646 350.253 83.2683 352.86C80.872 355.468 79.6779 359.009 79.6779 363.461C79.6779 367.912 80.872 371.397 83.2683 374.029C85.6646 376.661 88.8814 377.977 92.9104 377.977C96.9395 377.977 100.083 376.653 102.488 373.988V373.997Z" fill="#343433"/>
<path d="M169.918 388.586H157.749L137.393 357.767V388.586H125.224V338.629H137.393L157.749 369.586V338.629H169.918V388.594V388.586Z" fill="#343433"/>
<path d="M214.684 338.629V348.377H201.443V388.586H189.275V348.377H176.034V338.629H214.684Z" fill="#343433"/>
<path d="M232.977 348.377V358.482H249.272V367.88H232.977V378.838H251.409V388.586H220.809V338.629H251.409V348.377H232.977Z" fill="#343433"/>
<path d="M304.006 388.586H291.838L271.481 357.767V388.586H259.313V338.629H271.481L291.838 369.586V338.629H304.006V388.594V388.586Z" fill="#343433"/>
<path d="M348.773 338.629V348.377H335.532V388.586H323.363V348.377H310.123V338.629H348.773Z" fill="#343433"/>
<path d="M392.117 367.271C393.871 369.529 394.749 372.096 394.749 374.996C394.749 379.171 393.287 382.477 390.37 384.923C387.454 387.368 383.385 388.586 378.161 388.586H354.889V338.629H377.382C382.459 338.629 386.431 339.791 389.306 342.114C392.174 344.437 393.612 347.597 393.612 351.577C393.612 354.518 392.84 356.963 391.296 358.904C389.753 360.854 387.706 362.202 385.139 362.958C388.031 363.575 390.354 365.013 392.117 367.263V367.271ZM367.065 358.839H375.034C377.024 358.839 378.559 358.401 379.624 357.523C380.688 356.646 381.224 355.354 381.224 353.64C381.224 351.926 380.688 350.627 379.624 349.725C378.559 348.823 377.024 348.377 375.034 348.377H367.065V358.839ZM380.761 377.376C381.874 376.45 382.434 375.11 382.434 373.355C382.434 371.601 381.849 370.22 380.688 369.229C379.526 368.23 377.926 367.734 375.887 367.734H367.065V378.765H376.033C378.072 378.765 379.648 378.302 380.769 377.376H380.761Z" fill="#343433"/>
<path d="M481.842 388.586L471.664 373.282L462.696 388.586H448.887L464.897 363.177L448.529 338.621H462.696L472.728 353.714L481.55 338.621H495.359L479.486 363.819L496.001 388.586H481.834H481.842Z" fill="#343433"/>
<path d="M430.561 386.092C418.279 386.115 408.279 376.177 408.256 363.881C408.233 351.586 418.158 341.572 430.439 341.549C436.411 341.526 442.137 343.932 446.336 348.182C438.037 336.76 422.065 334.233 410.633 342.544C399.201 350.854 396.703 366.845 405.002 378.291C413.304 389.736 429.273 392.24 440.705 383.929C441.262 383.516 441.823 383.079 442.331 382.643C438.837 384.927 434.733 386.118 430.561 386.092Z" fill="#343433"/>
<path d="M438.132 345.12C446.749 350.152 449.637 361.207 444.635 369.809C439.611 378.435 428.568 381.327 419.977 376.321C415.051 373.453 411.774 368.398 411.144 362.736V363.78C411.144 374.861 420.099 383.828 431.167 383.828C442.236 383.828 451.19 374.861 451.19 363.78C451.069 355.469 445.9 348.058 438.132 345.117V345.12Z" fill="#343433"/>
<path d="M428.545 346.504C421.967 346.481 416.192 350.83 414.346 357.148C417.332 350.587 425.074 347.695 431.626 350.685C438.178 353.675 441.066 361.428 438.083 367.989C435.972 372.656 431.311 375.62 426.215 375.62C425.074 375.597 423.933 375.45 422.816 375.184C424.635 375.962 426.579 376.349 428.568 376.326C436.795 376.277 443.396 369.545 443.35 361.307C443.252 353.166 436.677 346.579 428.545 346.507V346.504Z" fill="#343433"/>
</g>
<defs>
<linearGradient id="paint0_linear_751_3264" x1="310.496" y1="96.0771" x2="197.68" y2="229.19" gradientUnits="userSpaceOnUse">
<stop offset="0.278846" stop-color="#7DFF6B"/>
<stop offset="1" stop-color="#0B826F"/>
</linearGradient>
<linearGradient id="paint1_linear_751_3264" x1="329.694" y1="117.609" x2="246.976" y2="229.392" gradientUnits="userSpaceOnUse">
<stop offset="0.278846" stop-color="#7DFF6B"/>
<stop offset="1" stop-color="#0B826F"/>
</linearGradient>
<linearGradient id="paint2_linear_751_3264" x1="306.746" y1="119.335" x2="241.974" y2="201.625" gradientUnits="userSpaceOnUse">
<stop offset="0.278846" stop-color="#7DFF6B"/>
<stop offset="1" stop-color="#0B826F"/>
</linearGradient>
<clipPath id="clip0_751_3264">
<rect width="489.515" height="51.1756" fill="white" transform="translate(12.9873 337.914)"/>
</clipPath>
</defs>
</svg>
