<svg width="250" height="250" viewBox="0 0 250 250" fill="none" xmlns="http://www.w3.org/2000/svg">
<mask id="mask0_749_2051" style="mask-type:alpha" maskUnits="userSpaceOnUse" x="0" y="0" width="251" height="250">
<path d="M149.003 236.509C88.6756 236.509 39.7747 187.785 39.7747 127.676C39.7747 67.5669 88.6756 18.8429 149.003 18.8429C179.428 18.8429 206.93 31.2438 226.737 51.2512C203.921 20.1933 167.069 0 125.466 0C56.1744 0 0 55.9589 0 125C0 194.041 56.1745 250 125.454 250C156.712 250 185.284 238.578 207.266 219.722C190.394 230.352 170.426 236.521 149.003 236.521" fill="url(#paint0_linear_749_2051)"/>
<path d="M186.552 36.332C212.812 51.6566 230.467 80.0511 230.467 112.558C230.467 161.32 190.792 200.839 141.866 200.851C96.335 200.851 58.8481 166.634 53.8498 122.606C53.7628 124.34 53.7006 126.074 53.7006 127.821C53.7006 181.835 97.653 225.616 151.85 225.616C206.048 225.616 250 181.823 250 127.821C250 85.9851 223.629 50.3063 186.552 36.332Z" fill="url(#paint1_linear_749_2051)"/>
<path d="M139.232 43.0977C106.296 43.0977 78.4818 64.9262 69.5422 94.8568C79.5263 72.6566 101.894 57.1958 127.892 57.1958C163.204 57.1958 191.825 85.7141 191.825 120.897C191.825 156.081 163.204 184.599 127.892 184.599C122.123 184.599 116.528 183.819 111.207 182.394C119.823 185.987 129.297 187.969 139.232 187.981C179.392 187.981 211.93 155.536 211.93 115.533C211.93 75.5184 179.38 43.0977 139.232 43.0977Z" fill="url(#paint2_linear_749_2051)"/>
</mask>
<g mask="url(#mask0_749_2051)">
<rect x="-7.14282" y="-7.13672" width="260.714" height="260.714" fill="white"/>
</g>
<defs>
<linearGradient id="paint0_linear_749_2051" x1="201.677" y1="25" x2="42.4783" y2="213.248" gradientUnits="userSpaceOnUse">
<stop offset="0.278846" stop-color="#7DFF6B"/>
<stop offset="1" stop-color="#0B826F"/>
</linearGradient>
<linearGradient id="paint1_linear_749_2051" x1="228.304" y1="55.2604" x2="111.431" y2="213.287" gradientUnits="userSpaceOnUse">
<stop offset="0.278846" stop-color="#7DFF6B"/>
<stop offset="1" stop-color="#0B826F"/>
</linearGradient>
<linearGradient id="paint2_linear_749_2051" x1="196.193" y1="57.586" x2="105.436" y2="173.876" gradientUnits="userSpaceOnUse">
<stop offset="0.278846" stop-color="#7DFF6B"/>
<stop offset="1" stop-color="#0B826F"/>
</linearGradient>
</defs>
</svg>
