<svg width="190" height="200" viewBox="0 0 190 200" fill="none" xmlns="http://www.w3.org/2000/svg">
<g clip-path="url(#clip0_1054_11103)">
<path d="M181.098 85.9524C181.098 38.4822 142.549 0 94.9961 0C47.4435 0 8.89453 38.4822 8.89453 85.9524C8.89453 133.423 47.4435 171.905 94.9961 171.905C142.549 171.905 181.098 133.423 181.098 85.9524Z" fill="url(#paint0_linear_1054_11103)"/>
<g opacity="0.4">
<path d="M80.928 32.9164L94.6668 21.4062H94.7042C95.1909 21.481 95.6701 21.5632 96.1567 21.6529C125.656 27.5201 144.763 56.1833 138.878 85.5865C133.053 114.751 104.857 133.727 75.7095 128.383C81.9986 126.956 88.0407 124.071 93.3266 119.661C111.019 104.84 113.34 78.4936 98.4777 60.8173C89.9574 50.6899 77.6636 45.6224 65.3848 45.9214L80.928 32.9014V32.9164Z" fill="url(#paint1_linear_1054_11103)"/>
<path d="M111.161 160.995C86.4085 165.958 62.038 158.499 44.5332 142.93C45.5514 142.489 46.5323 141.914 47.4307 141.152C49.2576 139.619 50.5004 137.624 51.1069 135.494C54.9328 137.691 58.9908 139.56 63.2584 141.024C99.6906 153.529 139.342 134.156 151.831 97.8017C164.357 61.4326 144.95 21.8496 108.533 9.38281C140.248 14.5923 165.405 38.8458 171.664 70.2446C180.065 111.988 152.976 152.602 111.161 160.988V160.995Z" fill="url(#paint2_linear_1054_11103)"/>
</g>
<path d="M174.786 169.503H168.751V163.471C168.751 162.641 168.078 161.969 167.247 161.969C166.415 161.969 165.742 162.649 165.742 163.471V169.503H159.707C158.876 169.503 158.202 170.183 158.202 171.005C158.202 171.827 158.876 172.507 159.707 172.507H165.742V178.539C165.742 179.369 166.415 180.041 167.247 180.041C168.078 180.041 168.751 179.361 168.751 178.539V172.507H174.786C175.617 172.507 176.291 171.827 176.291 171.005C176.291 170.183 175.617 169.503 174.786 169.503Z" fill="#00DBFF"/>
<path d="M188.487 162.768H182.453V156.737C182.453 155.907 181.779 155.234 180.948 155.234C180.117 155.234 179.443 155.915 179.443 156.737V162.768H173.408C172.577 162.768 171.903 163.448 171.903 164.271C171.903 165.093 172.577 165.773 173.408 165.773H179.443V171.804C179.443 172.634 180.117 173.307 180.948 173.307C181.779 173.307 182.453 172.627 182.453 171.804V165.773H188.487C189.318 165.773 189.992 165.093 189.992 164.271C189.992 163.448 189.318 162.768 188.487 162.768Z" fill="#00FF78"/>
<path d="M4.09544 186.32V189.713H9.58348V192.868H4.09544V196.552H10.3022V199.826H0V183.039H10.3022V186.313H4.09544V186.32Z" fill="#303446"/>
<path d="M17.0554 196.672H22.4236V199.826H12.96V183.039H17.0554V196.664V196.672Z" fill="#303446"/>
<path d="M34.8452 196.867H28.571L27.5678 199.834H23.2852L29.3647 183.047H34.104L40.1835 199.834H35.8485L34.8452 196.867ZM33.797 193.712L31.7156 187.569L29.6567 193.712H33.797Z" fill="#303446"/>
<path d="M44.8106 199.397C43.8373 199.001 43.0586 198.411 42.4746 197.626C41.8906 196.841 41.5837 195.907 41.5537 194.808H45.9112C45.9711 195.428 46.1882 195.907 46.5551 196.228C46.922 196.557 47.4011 196.721 47.9926 196.721C48.5841 196.721 49.0782 196.579 49.4301 196.303C49.782 196.026 49.9542 195.638 49.9542 195.144C49.9542 194.733 49.812 194.39 49.535 194.113C49.2579 193.844 48.9135 193.62 48.5092 193.44C48.1049 193.261 47.5209 193.067 46.7722 192.842C45.6866 192.506 44.8031 192.17 44.1143 191.841C43.4255 191.512 42.834 191.011 42.3399 190.361C41.8457 189.711 41.5986 188.859 41.5986 187.805C41.5986 186.243 42.1602 185.017 43.2982 184.135C44.4362 183.253 45.9112 182.805 47.7306 182.805C49.5499 182.805 51.0773 183.246 52.2078 184.135C53.3384 185.025 53.9449 186.25 54.0272 187.827H49.5948C49.5649 187.289 49.3628 186.863 48.9959 186.549C48.629 186.235 48.1573 186.086 47.5808 186.086C47.0867 186.086 46.6899 186.22 46.3829 186.482C46.0834 186.744 45.9262 187.125 45.9262 187.618C45.9262 188.156 46.1807 188.582 46.6899 188.881C47.199 189.188 48.0001 189.509 49.0857 189.86C50.1714 190.226 51.0548 190.578 51.7362 190.914C52.4175 191.25 53.0015 191.736 53.4956 192.372C53.9898 193.007 54.2369 193.829 54.2369 194.838C54.2369 195.847 53.9898 196.662 53.5031 197.446C53.0165 198.231 52.3052 198.852 51.3843 199.315C50.4559 199.778 49.3628 200.01 48.1049 200.01C46.8471 200.01 45.7764 199.808 44.7956 199.412L44.8106 199.397Z" fill="#303446"/>
<path d="M68.8586 183.047V186.321H64.4038V199.826H60.3083V186.321H55.8535V183.047H68.8586Z" fill="#303446"/>
<path d="M75.0134 183.047V199.834H70.918V183.047H75.0134Z" fill="#303446"/>
<path d="M78.3604 186.977C79.0791 185.677 80.0824 184.668 81.3702 183.943C82.658 183.218 84.1105 182.852 85.7426 182.852C87.7417 182.852 89.4488 183.375 90.8713 184.429C92.2939 185.482 93.2447 186.91 93.7239 188.734H89.2241C88.8872 188.031 88.4155 187.5 87.8016 187.134C87.1876 186.768 86.4914 186.581 85.7052 186.581C84.4399 186.581 83.4216 187.022 82.643 187.897C81.8568 188.771 81.4675 189.945 81.4675 191.409C81.4675 192.874 81.8568 194.048 82.643 194.922C83.4216 195.797 84.4474 196.238 85.7052 196.238C86.4839 196.238 87.1876 196.058 87.8016 195.685C88.4155 195.318 88.8947 194.78 89.2241 194.085H93.7239C93.2447 195.901 92.2939 197.329 90.8713 198.375C89.4488 199.422 87.7417 199.937 85.7426 199.937C84.1179 199.937 82.658 199.579 81.3702 198.846C80.0824 198.121 79.0791 197.112 78.3604 195.819C77.6416 194.526 77.2822 193.054 77.2822 191.394C77.2822 189.735 77.6416 188.255 78.3604 186.955V186.977Z" fill="#303446"/>
<path d="M99.0098 199.397C98.0365 199.001 97.2578 198.411 96.6738 197.626C96.0898 196.841 95.7829 195.907 95.7529 194.808H100.11C100.17 195.428 100.387 195.907 100.754 196.228C101.121 196.557 101.6 196.721 102.192 196.721C102.783 196.721 103.277 196.579 103.629 196.303C103.981 196.026 104.153 195.638 104.153 195.144C104.153 194.733 104.011 194.39 103.734 194.113C103.457 193.844 103.113 193.62 102.708 193.44C102.304 193.261 101.72 193.067 100.971 192.842C99.8858 192.506 99.0023 192.17 98.3135 191.841C97.6247 191.512 97.0332 191.011 96.5391 190.361C96.0449 189.711 95.7979 188.859 95.7979 187.805C95.7979 186.243 96.3594 185.017 97.4974 184.135C98.6355 183.253 100.11 182.805 101.93 182.805C103.749 182.805 105.277 183.246 106.407 184.135C107.538 185.025 108.144 186.25 108.226 187.827H103.794C103.764 187.289 103.562 186.863 103.195 186.549C102.828 186.235 102.357 186.086 101.78 186.086C101.286 186.086 100.889 186.22 100.582 186.482C100.283 186.744 100.125 187.125 100.125 187.618C100.125 188.156 100.38 188.582 100.889 188.881C101.398 189.188 102.199 189.509 103.285 189.86C104.371 190.226 105.254 190.578 105.935 190.914C106.617 191.25 107.201 191.736 107.695 192.372C108.189 193.007 108.436 193.829 108.436 194.838C108.436 195.847 108.189 196.662 107.702 197.446C107.216 198.231 106.504 198.852 105.583 199.315C104.655 199.778 103.562 200.01 102.304 200.01C101.046 200.01 99.9757 199.808 98.9948 199.412L99.0098 199.397Z" fill="#303446"/>
<path d="M115.054 186.32V189.713H120.542V192.868H115.054V196.552H121.261V199.826H110.959V183.039H121.261V186.313H115.054V186.32Z" fill="#303446"/>
<path d="M134.386 196.867H128.112L127.109 199.834H122.826L128.906 183.047H133.645L139.725 199.834H135.39L134.386 196.867ZM133.331 193.712L131.249 187.569L129.19 193.712H133.331Z" fill="#303446"/>
<path d="M150.146 199.834L146.649 193.496H145.669V199.834H141.573V183.047H148.446C149.772 183.047 150.902 183.279 151.831 183.742C152.766 184.205 153.463 184.841 153.927 185.64C154.391 186.448 154.623 187.344 154.623 188.331C154.623 189.445 154.309 190.446 153.672 191.321C153.043 192.195 152.115 192.823 150.88 193.189L154.758 199.834H150.138H150.146ZM145.661 190.603H148.199C148.948 190.603 149.51 190.424 149.884 190.05C150.258 189.684 150.445 189.168 150.445 188.496C150.445 187.86 150.258 187.359 149.884 186.993C149.51 186.627 148.948 186.448 148.199 186.448H145.661V190.611V190.603Z" fill="#303446"/>
<path d="M157.565 186.977C158.284 185.677 159.287 184.668 160.575 183.943C161.863 183.218 163.316 182.852 164.948 182.852C166.947 182.852 168.654 183.375 170.076 184.429C171.499 185.482 172.45 186.91 172.929 188.734H168.429C168.092 188.031 167.621 187.5 167.007 187.134C166.393 186.768 165.696 186.581 164.91 186.581C163.645 186.581 162.627 187.022 161.848 187.897C161.062 188.771 160.673 189.945 160.673 191.409C160.673 192.874 161.062 194.048 161.848 194.922C162.627 195.797 163.652 196.238 164.91 196.238C165.689 196.238 166.393 196.058 167.007 195.685C167.621 195.318 168.1 194.78 168.429 194.085H172.929C172.45 195.901 171.499 197.329 170.076 198.375C168.654 199.422 166.947 199.937 164.948 199.937C163.323 199.937 161.863 199.579 160.575 198.846C159.287 198.121 158.284 197.112 157.565 195.819C156.847 194.526 156.487 193.054 156.487 191.394C156.487 189.735 156.847 188.255 157.565 186.955V186.977Z" fill="#303446"/>
<path d="M190 183.047V199.834H185.904V192.928H179.533V199.834H175.438V183.047H179.533V189.624H185.904V183.047H190Z" fill="#303446"/>
<path d="M148.964 88.4765C148.964 79.373 143.363 71.6148 134.963 68.4608C135.322 66.5698 135.502 64.5817 135.502 62.6907C135.502 45.9188 121.868 32.2188 104.977 32.2188C95.2212 32.2188 86.0121 36.905 80.3219 44.9322C77.5217 42.7647 74.0926 41.5988 70.4764 41.5988C61.5368 41.5988 54.2219 48.8113 54.2219 57.8251C54.2219 59.716 54.5813 61.7042 55.2177 63.4157C46.7273 66.3007 41.0371 74.4176 41.0371 83.4314C41.0371 92.4452 46.6375 100.383 55.1278 103.537C54.7684 105.338 54.5888 107.326 54.5888 109.307C54.5888 125.989 68.2227 139.689 85.0238 139.689C94.8693 139.689 103.989 134.913 109.679 126.976C112.479 129.143 115.998 130.399 119.614 130.399C128.554 130.399 135.869 123.186 135.869 114.172C135.869 112.282 135.509 110.293 134.873 108.582C143.094 105.517 148.964 97.4006 148.964 88.4765Z" fill="white"/>
<path d="M83.1218 78.3814L107.148 89.3833L131.444 68.1045C131.803 66.3032 131.983 64.4945 131.983 62.6932C131.983 47.73 119.794 35.5547 104.797 35.5547C95.7675 35.5547 87.4568 39.9719 82.3956 47.3638L78.3301 68.2839L83.1143 78.3814H83.1218Z" fill="#F4BD19"/>
<path d="M58.1973 103.802C57.8379 105.604 57.6582 107.412 57.6582 109.303C57.6582 124.266 69.9445 136.531 84.9337 136.531C94.053 136.531 102.364 132.025 107.515 124.633L111.49 103.713L106.07 93.5253L81.9538 82.5234L58.1973 103.802Z" fill="#3CBEB1"/>
<path d="M58.0177 62.1457L74.5417 66.0248L78.2478 47.2722C75.9867 45.4709 73.1865 44.6562 70.2965 44.6562C63.1613 44.6562 57.2914 50.4263 57.2914 57.6388C57.2016 59.171 57.4711 60.7032 58.0177 62.1457Z" fill="#E9478C"/>
<path d="M56.6623 66.1172C49.2576 68.4641 44.1064 75.5869 44.1064 83.3376C44.1064 91.0882 48.8009 97.6729 55.8462 100.289L79.0562 79.3688L74.811 70.2653L56.6548 66.1172H56.6623Z" fill="#2C458F"/>
<path d="M111.753 124.452C114.014 126.253 116.814 127.158 119.607 127.158C126.742 127.158 132.612 121.388 132.612 114.175C132.612 112.553 132.342 111.111 131.796 109.668L115.272 105.789L111.753 124.452Z" fill="#95C63D"/>
<path d="M115.092 101.457L133.248 105.695C140.653 103.259 145.804 96.2254 145.804 88.4747C145.804 80.7241 141.11 74.2291 134.064 71.5234L110.218 92.2567L115.092 101.45V101.457Z" fill="#176655"/>
</g>
<defs>
<linearGradient id="paint0_linear_1054_11103" x1="8.89453" y1="85.9524" x2="181.098" y2="85.9524" gradientUnits="userSpaceOnUse">
<stop stop-color="#003A44"/>
<stop offset="0.67" stop-color="#19857C"/>
<stop offset="1" stop-color="#01634E"/>
</linearGradient>
<linearGradient id="paint1_linear_1054_11103" x1="65.3923" y1="75.3395" x2="139.949" y2="75.3395" gradientUnits="userSpaceOnUse">
<stop stop-color="#003A44" stop-opacity="0"/>
<stop offset="0.47" stop-color="#00FF78"/>
</linearGradient>
<linearGradient id="paint2_linear_1054_11103" x1="44.5407" y1="85.9552" x2="173.191" y2="85.9552" gradientUnits="userSpaceOnUse">
<stop stop-color="#003A44" stop-opacity="0"/>
<stop offset="0.47" stop-color="#00FF78"/>
</linearGradient>
<clipPath id="clip0_1054_11103">
<rect width="190" height="200" fill="white"/>
</clipPath>
</defs>
</svg>
