<svg width="569" height="600" viewBox="0 0 569 600" fill="none" xmlns="http://www.w3.org/2000/svg">
<g clip-path="url(#clip0_1054_11007)">
<path d="M284.489 13.4534C349.49 13.4534 410.791 38.9476 457.092 85.2498C503.394 131.552 528.887 192.855 528.887 257.857C528.887 322.86 503.394 384.162 457.092 430.465C410.791 476.767 349.49 502.261 284.489 502.261C219.488 502.261 158.186 476.767 111.885 430.465C65.584 384.162 40.0903 322.86 40.0903 257.857C40.0903 192.855 65.584 131.552 111.885 85.2498C158.209 38.9476 219.488 13.4534 284.489 13.4534ZM284.489 0C142.67 0 26.6372 116.036 26.6372 257.857C26.6372 399.679 142.67 515.714 284.489 515.714C426.307 515.714 542.34 399.679 542.34 257.857C542.34 116.036 426.307 0 284.489 0Z" fill="#303446"/>
<g opacity="0.2">
<path d="M242.358 98.7492L283.502 64.2188H283.614C285.072 64.443 286.507 64.6896 287.964 64.9587C376.306 82.5602 433.527 168.55 415.903 256.76C398.459 344.252 314.018 401.182 226.73 385.15C245.564 380.867 263.659 372.212 279.489 358.983C332.471 314.52 339.422 235.481 294.915 182.452C269.399 152.07 232.582 136.867 195.81 137.764L242.358 98.7043V98.7492Z" fill="url(#paint0_linear_1054_11007)"/>
<path d="M332.898 482.978C258.771 497.867 185.788 475.489 133.365 428.783C136.415 427.46 139.352 425.734 142.042 423.447C147.513 418.85 151.235 412.864 153.052 406.473C164.509 413.065 176.662 418.671 189.442 423.066C298.547 460.578 417.293 402.46 454.693 293.397C492.205 184.29 434.087 65.5411 325.027 28.1406C420.007 43.769 495.344 116.53 514.089 210.726C539.246 335.955 458.124 457.798 332.898 482.956V482.978Z" fill="url(#paint1_linear_1054_11007)"/>
</g>
<path d="M523.439 508.516H505.367V490.421C505.367 487.932 503.349 485.914 500.86 485.914C498.371 485.914 496.353 487.954 496.353 490.421V508.516H478.281C475.792 508.516 473.774 510.556 473.774 513.023C473.774 515.489 475.792 517.53 478.281 517.53H496.353V535.624C496.353 538.113 498.371 540.131 500.86 540.131C503.349 540.131 505.367 538.091 505.367 535.624V517.53H523.439C525.928 517.53 527.946 515.489 527.946 513.023C527.946 510.556 525.928 508.516 523.439 508.516Z" fill="#303446"/>
<path d="M564.471 488.313H546.399V470.218C546.399 467.729 544.381 465.711 541.892 465.711C539.403 465.711 537.385 467.751 537.385 470.218V488.313H519.313C516.825 488.313 514.807 490.353 514.807 492.82C514.807 495.286 516.825 497.326 519.313 497.326H537.385V515.421C537.385 517.91 539.403 519.928 541.892 519.928C544.381 519.928 546.399 517.888 546.399 515.421V497.326H564.471C566.96 497.326 568.978 495.286 568.978 492.82C568.978 490.353 566.96 488.313 564.471 488.313Z" fill="#303446"/>
<path d="M12.2648 558.968V569.148H28.7V578.61H12.2648V589.665H30.8525V599.486H0V549.125H30.8525V558.946H12.2648V558.968Z" fill="#303446"/>
<path d="M51.0773 590.023H67.1538V599.486H38.8125V549.125H51.0773V590.001V590.023Z" fill="#303446"/>
<path d="M104.351 590.607H85.5618L82.5572 599.509H69.7319L87.9385 549.148H102.132L120.338 599.509H107.356L104.351 590.607ZM101.212 581.145L94.979 562.714L88.813 581.145H101.212Z" fill="#303446"/>
<path d="M134.195 598.207C131.28 597.019 128.948 595.248 127.199 592.893C125.45 590.539 124.531 587.736 124.441 584.44H137.491C137.67 586.301 138.321 587.736 139.419 588.7C140.518 589.687 141.953 590.18 143.724 590.18C145.496 590.18 146.975 589.754 148.029 588.924C149.083 588.095 149.599 586.929 149.599 585.449C149.599 584.216 149.173 583.184 148.343 582.355C147.514 581.548 146.482 580.875 145.271 580.337C144.061 579.799 142.312 579.216 140.069 578.543C136.818 577.534 134.172 576.525 132.11 575.538C130.047 574.552 128.276 573.049 126.796 571.099C125.316 569.148 124.576 566.592 124.576 563.43C124.576 558.744 126.258 555.067 129.666 552.421C133.074 549.775 137.491 548.43 142.939 548.43C148.388 548.43 152.962 549.753 156.348 552.421C159.733 555.089 161.55 558.766 161.796 563.498H148.522C148.433 561.883 147.827 560.605 146.729 559.663C145.63 558.722 144.218 558.273 142.491 558.273C141.011 558.273 139.823 558.677 138.904 559.461C138.007 560.246 137.536 561.39 137.536 562.87C137.536 564.484 138.298 565.762 139.823 566.659C141.348 567.578 143.747 568.543 146.998 569.596C150.249 570.695 152.895 571.749 154.935 572.758C156.976 573.767 158.724 575.224 160.204 577.13C161.684 579.036 162.424 581.503 162.424 584.53C162.424 587.557 161.684 590.001 160.227 592.355C158.769 594.709 156.639 596.57 153.881 597.961C151.101 599.351 147.827 600.046 144.061 600.046C140.294 600.046 137.087 599.441 134.15 598.252L134.195 598.207Z" fill="#303446"/>
<path d="M206.214 549.148V558.969H192.873V599.487H180.608V558.969H167.267V549.148H206.214Z" fill="#303446"/>
<path d="M224.645 549.148V599.509H212.38V549.148H224.645Z" fill="#303446"/>
<path d="M234.667 560.94C236.82 557.038 239.824 554.011 243.681 551.836C247.537 549.661 251.887 548.562 256.775 548.562C262.762 548.562 267.874 550.132 272.134 553.294C276.394 556.455 279.242 560.738 280.677 566.209H267.201C266.192 564.101 264.78 562.509 262.941 561.411C261.103 560.312 259.017 559.751 256.663 559.751C252.874 559.751 249.824 561.074 247.493 563.698C245.138 566.321 243.972 569.841 243.972 574.236C243.972 578.631 245.138 582.151 247.493 584.775C249.824 587.398 252.896 588.721 256.663 588.721C258.995 588.721 261.103 588.183 262.941 587.062C264.78 585.963 266.215 584.349 267.201 582.263H280.677C279.242 587.712 276.394 591.995 272.134 595.134C267.874 598.273 262.762 599.82 256.775 599.82C251.91 599.82 247.537 598.744 243.681 596.546C239.824 594.371 236.82 591.344 234.667 587.465C232.515 583.586 231.438 579.169 231.438 574.191C231.438 569.213 232.515 564.774 234.667 560.872V560.94Z" fill="#303446"/>
<path d="M296.507 598.207C293.592 597.019 291.26 595.248 289.511 592.893C287.762 590.539 286.843 587.736 286.753 584.44H299.803C299.982 586.301 300.633 587.736 301.731 588.7C302.83 589.687 304.265 590.18 306.036 590.18C307.808 590.18 309.287 589.754 310.341 588.924C311.395 588.095 311.911 586.929 311.911 585.449C311.911 584.216 311.485 583.184 310.655 582.355C309.826 581.548 308.794 580.875 307.583 580.337C306.373 579.799 304.624 579.216 302.381 578.543C299.13 577.534 296.485 576.525 294.422 575.538C292.359 574.552 290.588 573.049 289.108 571.099C287.628 569.148 286.888 566.592 286.888 563.43C286.888 558.744 288.57 555.067 291.978 552.421C295.386 549.775 299.803 548.43 305.251 548.43C310.7 548.43 315.274 549.753 318.66 552.421C322.045 555.089 323.862 558.766 324.108 563.498H310.835C310.745 561.883 310.139 560.605 309.041 559.663C307.942 558.722 306.53 558.273 304.803 558.273C303.323 558.273 302.135 558.677 301.216 559.461C300.319 560.246 299.848 561.39 299.848 562.87C299.848 564.484 300.61 565.762 302.135 566.659C303.66 567.578 306.059 568.543 309.31 569.596C312.561 570.695 315.207 571.749 317.247 572.758C319.288 573.767 321.036 575.224 322.516 577.13C323.996 579.036 324.736 581.503 324.736 584.53C324.736 587.557 323.996 590.001 322.539 592.355C321.081 594.709 318.951 596.57 316.193 597.961C313.413 599.351 310.139 600.046 306.373 600.046C302.606 600.046 299.399 599.441 296.462 598.252L296.507 598.207Z" fill="#303446"/>
<path d="M344.557 558.968V569.148H360.992V578.61H344.557V589.665H363.145V599.486H332.292V549.125H363.145V558.946H344.557V558.968Z" fill="#303446"/>
<path d="M402.45 590.607H383.661L380.656 599.509H367.831L386.038 549.148H400.231L418.437 599.509H405.455L402.45 590.607ZM399.289 581.145L393.056 562.714L386.89 581.145H399.289Z" fill="#303446"/>
<path d="M449.648 599.509L439.177 580.495H436.24V599.509H423.975V549.148H444.558C448.527 549.148 451.913 549.844 454.693 551.234C457.496 552.624 459.581 554.53 460.971 556.929C462.361 559.351 463.056 562.041 463.056 565.001C463.056 568.342 462.115 571.347 460.209 573.97C458.325 576.593 455.545 578.477 451.846 579.576L463.46 599.509H449.626H449.648ZM436.217 571.817H443.818C446.061 571.817 447.742 571.279 448.863 570.158C449.984 569.059 450.545 567.512 450.545 565.494C450.545 563.588 449.984 562.086 448.863 560.987C447.742 559.889 446.061 559.351 443.818 559.351H436.217V571.84V571.817Z" fill="#303446"/>
<path d="M471.868 560.94C474.021 557.038 477.025 554.011 480.882 551.836C484.739 549.661 489.088 548.562 493.976 548.562C499.963 548.562 505.075 550.132 509.335 553.294C513.596 556.455 516.443 560.738 517.878 566.209H504.403C503.394 564.101 501.981 562.509 500.142 561.411C498.304 560.312 496.219 559.751 493.864 559.751C490.075 559.751 487.026 561.074 484.694 563.698C482.339 566.321 481.174 569.841 481.174 574.236C481.174 578.631 482.339 582.151 484.694 584.775C487.026 587.398 490.097 588.721 493.864 588.721C496.196 588.721 498.304 588.183 500.142 587.062C501.981 585.963 503.416 584.349 504.403 582.263H517.878C516.443 587.712 513.596 591.995 509.335 595.134C505.075 598.273 499.963 599.82 493.976 599.82C489.111 599.82 484.739 598.744 480.882 596.546C477.025 594.371 474.021 591.344 471.868 587.465C469.716 583.586 468.64 579.169 468.64 574.191C468.64 569.213 469.716 564.774 471.868 560.872V560.94Z" fill="#303446"/>
<path d="M569 549.148V599.509H556.735V578.791H537.654V599.509H525.39V549.148H537.654V568.88H556.735V549.148H569Z" fill="#303446"/>
<path d="M249.062 234.871L321.014 267.876L393.773 204.04C394.849 198.636 395.387 193.21 395.387 187.806C395.387 142.917 358.884 106.391 313.973 106.391C286.932 106.391 262.044 119.642 246.887 141.818L234.712 204.578L249.039 234.871H249.062Z" fill="#303446"/>
<path d="M174.42 311.126C173.343 316.529 172.805 321.956 172.805 327.628C172.805 372.518 209.599 409.313 254.488 409.313C281.798 409.313 306.686 395.792 322.112 373.617L334.018 310.856L317.785 280.295L245.564 247.289L174.42 311.126Z" fill="#303446"/>
<path d="M173.882 186.171L223.367 197.809L234.466 141.551C227.694 136.147 219.308 133.703 210.653 133.703C189.285 133.703 171.707 151.013 171.707 172.651C171.438 177.247 172.245 181.844 173.882 186.171Z" fill="#303446"/>
<path d="M169.823 198.078C147.648 205.119 132.222 226.487 132.222 249.739C132.222 272.991 146.28 292.745 167.379 300.593L236.887 237.833L224.174 210.523L169.801 198.078H169.823Z" fill="#303446"/>
<path d="M334.803 373.082C341.575 378.486 349.96 381.199 358.324 381.199C379.692 381.199 397.271 363.889 397.271 342.252C397.271 337.386 396.463 333.058 394.827 328.731L345.341 317.094L334.803 373.082Z" fill="#303446"/>
<path d="M344.804 304.114L399.177 316.828C421.352 309.518 436.778 288.418 436.778 265.166C436.778 241.914 422.72 222.429 401.621 214.312L330.207 276.512L344.804 304.092V304.114Z" fill="#303446"/>
</g>
<defs>
<linearGradient id="paint0_linear_1054_11007" x1="195.832" y1="226.019" x2="419.11" y2="226.019" gradientUnits="userSpaceOnUse">
<stop stop-color="#303446" stop-opacity="0"/>
<stop offset="0.52" stop-color="#303446"/>
</linearGradient>
<linearGradient id="paint1_linear_1054_11007" x1="133.388" y1="257.858" x2="518.663" y2="257.858" gradientUnits="userSpaceOnUse">
<stop stop-color="#303446" stop-opacity="0"/>
<stop offset="0.52" stop-color="#303446"/>
</linearGradient>
<clipPath id="clip0_1054_11007">
<rect width="569" height="600" fill="white"/>
</clipPath>
</defs>
</svg>
