<svg width="190" height="200" viewBox="0 0 190 200" fill="none" xmlns="http://www.w3.org/2000/svg">
<g clip-path="url(#clip0_1054_11136)">
<path d="M94.9961 4.48447C116.701 4.48447 137.171 12.9825 152.632 28.4166C168.093 43.8507 176.605 64.2849 176.605 85.9524C176.605 107.62 168.093 128.054 152.632 143.488C137.171 158.922 116.701 167.42 94.9961 167.42C73.291 167.42 52.8213 158.922 37.3605 143.488C21.8996 128.054 13.3868 107.62 13.3868 85.9524C13.3868 64.2849 21.8996 43.8507 37.3605 28.4166C52.8288 12.9825 73.291 4.48447 94.9961 4.48447ZM94.9961 0C47.6402 0 8.89453 38.6786 8.89453 85.9524C8.89453 133.226 47.6402 171.905 94.9961 171.905C142.352 171.905 181.098 133.226 181.098 85.9524C181.098 38.6786 142.352 0 94.9961 0Z" fill="#303446"/>
<g opacity="0.2">
<path d="M80.928 32.9164L94.6668 21.4062H94.7042C95.1909 21.481 95.6701 21.5632 96.1567 21.6529C125.656 27.5201 144.763 56.1833 138.878 85.5865C133.053 114.751 104.857 133.727 75.7095 128.383C81.9986 126.956 88.0407 124.071 93.3266 119.661C111.019 104.84 113.34 78.4936 98.4777 60.8173C89.9574 50.6899 77.6636 45.6224 65.3848 45.9214L80.928 32.9014V32.9164Z" fill="url(#paint0_linear_1054_11136)"/>
<path d="M111.161 160.995C86.4085 165.958 62.038 158.499 44.5332 142.93C45.5514 142.489 46.5323 141.914 47.4307 141.152C49.2576 139.619 50.5004 137.624 51.1069 135.494C54.9328 137.691 58.9908 139.56 63.2584 141.024C99.6906 153.529 139.342 134.156 151.831 97.8017C164.357 61.4326 144.95 21.8496 108.533 9.38281C140.248 14.5923 165.405 38.8458 171.664 70.2446C180.065 111.988 152.976 152.602 111.161 160.988V160.995Z" fill="url(#paint1_linear_1054_11136)"/>
</g>
<path d="M174.786 169.503H168.751V163.471C168.751 162.641 168.078 161.969 167.247 161.969C166.415 161.969 165.742 162.649 165.742 163.471V169.503H159.707C158.876 169.503 158.202 170.183 158.202 171.005C158.202 171.827 158.876 172.507 159.707 172.507H165.742V178.539C165.742 179.369 166.415 180.041 167.247 180.041C168.078 180.041 168.751 179.361 168.751 178.539V172.507H174.786C175.617 172.507 176.291 171.827 176.291 171.005C176.291 170.183 175.617 169.503 174.786 169.503Z" fill="#303446"/>
<path d="M188.487 162.768H182.453V156.737C182.453 155.907 181.779 155.234 180.948 155.234C180.117 155.234 179.443 155.915 179.443 156.737V162.768H173.408C172.577 162.768 171.903 163.448 171.903 164.271C171.903 165.093 172.577 165.773 173.408 165.773H179.443V171.804C179.443 172.634 180.117 173.307 180.948 173.307C181.779 173.307 182.453 172.627 182.453 171.804V165.773H188.487C189.318 165.773 189.992 165.093 189.992 164.271C189.992 163.448 189.318 162.768 188.487 162.768Z" fill="#303446"/>
<path d="M4.09544 186.32V189.713H9.58348V192.868H4.09544V196.552H10.3022V199.826H0V183.039H10.3022V186.313H4.09544V186.32Z" fill="#303446"/>
<path d="M17.0554 196.672H22.4236V199.826H12.96V183.039H17.0554V196.664V196.672Z" fill="#303446"/>
<path d="M34.8452 196.867H28.571L27.5678 199.834H23.2852L29.3647 183.047H34.104L40.1835 199.834H35.8485L34.8452 196.867ZM33.797 193.712L31.7156 187.569L29.6567 193.712H33.797Z" fill="#303446"/>
<path d="M44.8106 199.397C43.8373 199.001 43.0586 198.411 42.4746 197.626C41.8906 196.841 41.5837 195.907 41.5537 194.808H45.9112C45.9711 195.428 46.1882 195.907 46.5551 196.228C46.922 196.557 47.4011 196.721 47.9926 196.721C48.5841 196.721 49.0782 196.579 49.4301 196.303C49.782 196.026 49.9542 195.638 49.9542 195.144C49.9542 194.733 49.812 194.39 49.535 194.113C49.2579 193.844 48.9135 193.62 48.5092 193.44C48.1049 193.261 47.5209 193.067 46.7722 192.842C45.6866 192.506 44.8031 192.17 44.1143 191.841C43.4255 191.512 42.834 191.011 42.3399 190.361C41.8457 189.711 41.5986 188.859 41.5986 187.805C41.5986 186.243 42.1602 185.017 43.2982 184.135C44.4362 183.253 45.9112 182.805 47.7306 182.805C49.5499 182.805 51.0773 183.246 52.2078 184.135C53.3384 185.025 53.9449 186.25 54.0272 187.827H49.5948C49.5649 187.289 49.3628 186.863 48.9959 186.549C48.629 186.235 48.1573 186.086 47.5808 186.086C47.0867 186.086 46.6899 186.22 46.3829 186.482C46.0834 186.744 45.9262 187.125 45.9262 187.618C45.9262 188.156 46.1807 188.582 46.6899 188.881C47.199 189.188 48.0001 189.509 49.0857 189.86C50.1714 190.226 51.0548 190.578 51.7362 190.914C52.4175 191.25 53.0015 191.736 53.4956 192.372C53.9898 193.007 54.2369 193.829 54.2369 194.838C54.2369 195.847 53.9898 196.662 53.5031 197.446C53.0165 198.231 52.3052 198.852 51.3843 199.315C50.4559 199.778 49.3628 200.01 48.1049 200.01C46.8471 200.01 45.7764 199.808 44.7956 199.412L44.8106 199.397Z" fill="#303446"/>
<path d="M68.8586 183.047V186.321H64.4038V199.826H60.3083V186.321H55.8535V183.047H68.8586Z" fill="#303446"/>
<path d="M75.0134 183.047V199.834H70.918V183.047H75.0134Z" fill="#303446"/>
<path d="M78.3604 186.977C79.0791 185.677 80.0824 184.668 81.3702 183.943C82.658 183.218 84.1105 182.852 85.7426 182.852C87.7417 182.852 89.4488 183.375 90.8713 184.429C92.2939 185.482 93.2447 186.91 93.7239 188.734H89.2241C88.8872 188.031 88.4155 187.5 87.8016 187.134C87.1876 186.768 86.4914 186.581 85.7052 186.581C84.4399 186.581 83.4216 187.022 82.643 187.897C81.8568 188.771 81.4675 189.945 81.4675 191.409C81.4675 192.874 81.8568 194.048 82.643 194.922C83.4216 195.797 84.4474 196.238 85.7052 196.238C86.4839 196.238 87.1876 196.058 87.8016 195.685C88.4155 195.318 88.8947 194.78 89.2241 194.085H93.7239C93.2447 195.901 92.2939 197.329 90.8713 198.375C89.4488 199.422 87.7417 199.937 85.7426 199.937C84.1179 199.937 82.658 199.579 81.3702 198.846C80.0824 198.121 79.0791 197.112 78.3604 195.819C77.6416 194.526 77.2822 193.054 77.2822 191.394C77.2822 189.735 77.6416 188.255 78.3604 186.955V186.977Z" fill="#303446"/>
<path d="M99.0098 199.397C98.0365 199.001 97.2578 198.411 96.6738 197.626C96.0898 196.841 95.7829 195.907 95.7529 194.808H100.11C100.17 195.428 100.387 195.907 100.754 196.228C101.121 196.557 101.6 196.721 102.192 196.721C102.783 196.721 103.277 196.579 103.629 196.303C103.981 196.026 104.153 195.638 104.153 195.144C104.153 194.733 104.011 194.39 103.734 194.113C103.457 193.844 103.113 193.62 102.708 193.44C102.304 193.261 101.72 193.067 100.971 192.842C99.8858 192.506 99.0023 192.17 98.3135 191.841C97.6247 191.512 97.0332 191.011 96.5391 190.361C96.0449 189.711 95.7979 188.859 95.7979 187.805C95.7979 186.243 96.3594 185.017 97.4974 184.135C98.6355 183.253 100.11 182.805 101.93 182.805C103.749 182.805 105.277 183.246 106.407 184.135C107.538 185.025 108.144 186.25 108.226 187.827H103.794C103.764 187.289 103.562 186.863 103.195 186.549C102.828 186.235 102.357 186.086 101.78 186.086C101.286 186.086 100.889 186.22 100.582 186.482C100.283 186.744 100.125 187.125 100.125 187.618C100.125 188.156 100.38 188.582 100.889 188.881C101.398 189.188 102.199 189.509 103.285 189.86C104.371 190.226 105.254 190.578 105.935 190.914C106.617 191.25 107.201 191.736 107.695 192.372C108.189 193.007 108.436 193.829 108.436 194.838C108.436 195.847 108.189 196.662 107.702 197.446C107.216 198.231 106.504 198.852 105.583 199.315C104.655 199.778 103.562 200.01 102.304 200.01C101.046 200.01 99.9757 199.808 98.9948 199.412L99.0098 199.397Z" fill="#303446"/>
<path d="M115.054 186.32V189.713H120.542V192.868H115.054V196.552H121.261V199.826H110.959V183.039H121.261V186.313H115.054V186.32Z" fill="#303446"/>
<path d="M134.386 196.867H128.112L127.109 199.834H122.826L128.906 183.047H133.645L139.725 199.834H135.39L134.386 196.867ZM133.331 193.712L131.249 187.569L129.19 193.712H133.331Z" fill="#303446"/>
<path d="M150.146 199.834L146.649 193.496H145.669V199.834H141.573V183.047H148.446C149.772 183.047 150.902 183.279 151.831 183.742C152.766 184.205 153.463 184.841 153.927 185.64C154.391 186.448 154.623 187.344 154.623 188.331C154.623 189.445 154.309 190.446 153.672 191.321C153.043 192.195 152.115 192.823 150.88 193.189L154.758 199.834H150.138H150.146ZM145.661 190.603H148.199C148.948 190.603 149.51 190.424 149.884 190.05C150.258 189.684 150.445 189.168 150.445 188.496C150.445 187.86 150.258 187.359 149.884 186.993C149.51 186.627 148.948 186.448 148.199 186.448H145.661V190.611V190.603Z" fill="#303446"/>
<path d="M157.565 186.977C158.284 185.677 159.287 184.668 160.575 183.943C161.863 183.218 163.316 182.852 164.948 182.852C166.947 182.852 168.654 183.375 170.076 184.429C171.499 185.482 172.45 186.91 172.929 188.734H168.429C168.092 188.031 167.621 187.5 167.007 187.134C166.393 186.768 165.696 186.581 164.91 186.581C163.645 186.581 162.627 187.022 161.848 187.897C161.062 188.771 160.673 189.945 160.673 191.409C160.673 192.874 161.062 194.048 161.848 194.922C162.627 195.797 163.652 196.238 164.91 196.238C165.689 196.238 166.393 196.058 167.007 195.685C167.621 195.318 168.1 194.78 168.429 194.085H172.929C172.45 195.901 171.499 197.329 170.076 198.375C168.654 199.422 166.947 199.937 164.948 199.937C163.323 199.937 161.863 199.579 160.575 198.846C159.287 198.121 158.284 197.112 157.565 195.819C156.847 194.526 156.487 193.054 156.487 191.394C156.487 189.735 156.847 188.255 157.565 186.955V186.977Z" fill="#303446"/>
<path d="M190 183.047V199.834H185.904V192.928H179.533V199.834H175.438V183.047H179.533V189.624H185.904V183.047H190Z" fill="#303446"/>
<path d="M83.1667 78.2876L107.193 89.2896L131.488 68.0107C131.848 66.2095 132.028 64.4007 132.028 62.5995C132.028 47.6363 119.839 35.4609 104.842 35.4609C95.8124 35.4609 87.5018 39.8781 82.4405 47.27L78.375 68.1901L83.1593 78.2876H83.1667Z" fill="#303446"/>
<path d="M58.2422 103.709C57.8828 105.51 57.7031 107.319 57.7031 109.209C57.7031 124.173 69.9894 136.438 84.9786 136.438C94.0979 136.438 102.409 131.931 107.56 124.539L111.535 103.619L106.115 93.4316L81.9987 82.4297L58.2422 103.709Z" fill="#303446"/>
<path d="M58.0626 62.0519L74.5866 65.931L78.2927 47.1784C76.0316 45.3772 73.2314 44.5625 70.3414 44.5625C63.2062 44.5625 57.3363 50.3325 57.3363 57.545C57.2465 59.0772 57.516 60.6094 58.0626 62.0519Z" fill="#303446"/>
<path d="M56.7072 66.0234C49.3025 68.3703 44.1514 75.4931 44.1514 83.2438C44.1514 90.9945 48.8458 97.5792 55.8911 100.195L79.1011 79.2751L74.8559 70.1716L56.6997 66.0234H56.7072Z" fill="#303446"/>
<path d="M111.797 124.358C114.058 126.159 116.858 127.064 119.651 127.064C126.786 127.064 132.656 121.294 132.656 114.081C132.656 112.459 132.386 111.017 131.84 109.574L115.316 105.695L111.797 124.358Z" fill="#303446"/>
<path d="M115.137 101.371L133.293 105.609C140.698 103.173 145.849 96.1395 145.849 88.3888C145.849 80.6381 141.154 74.1431 134.109 71.4375L110.263 92.1707L115.137 101.364V101.371Z" fill="#303446"/>
</g>
<defs>
<linearGradient id="paint0_linear_1054_11136" x1="65.3923" y1="75.3395" x2="139.949" y2="75.3395" gradientUnits="userSpaceOnUse">
<stop stop-color="#303446" stop-opacity="0"/>
<stop offset="0.52" stop-color="#303446"/>
</linearGradient>
<linearGradient id="paint1_linear_1054_11136" x1="44.5407" y1="85.9552" x2="173.191" y2="85.9552" gradientUnits="userSpaceOnUse">
<stop stop-color="#303446" stop-opacity="0"/>
<stop offset="0.52" stop-color="#303446"/>
</linearGradient>
<clipPath id="clip0_1054_11136">
<rect width="190" height="200" fill="white"/>
</clipPath>
</defs>
</svg>
