<svg width="569" height="600" viewBox="0 0 569 600" fill="none" xmlns="http://www.w3.org/2000/svg">
<g clip-path="url(#clip0_1054_11167)">
<path d="M542.34 257.857C542.34 115.447 426.896 0 284.488 0C142.081 0 26.6367 115.447 26.6367 257.857C26.6367 400.268 142.081 515.714 284.488 515.714C426.896 515.714 542.34 400.268 542.34 257.857Z" fill="url(#paint0_linear_1054_11167)"/>
<g opacity="0.4">
<path d="M242.357 98.7492L283.502 64.2188H283.614C285.071 64.443 286.506 64.6896 287.963 64.9587C376.306 82.5602 433.526 168.55 415.903 256.76C398.459 344.252 314.018 401.182 226.729 385.15C245.564 380.867 263.658 372.212 279.488 358.983C332.471 314.52 339.422 235.481 294.914 182.452C269.398 152.07 232.581 136.867 195.81 137.764L242.357 98.7043V98.7492Z" fill="url(#paint1_linear_1054_11167)"/>
<path d="M332.897 482.978C258.77 497.867 185.787 475.489 133.364 428.783C136.414 427.46 139.351 425.734 142.042 423.447C147.512 418.85 151.234 412.864 153.051 406.473C164.508 413.065 176.661 418.671 189.441 423.066C298.546 460.578 417.292 402.46 454.692 293.397C492.204 184.29 434.086 65.5411 325.026 28.1406C420.006 43.769 495.343 116.53 514.088 210.726C539.245 335.955 458.123 457.798 332.897 482.956V482.978Z" fill="url(#paint2_linear_1054_11167)"/>
</g>
<path d="M523.439 508.516H505.367V490.421C505.367 487.932 503.349 485.914 500.86 485.914C498.371 485.914 496.353 487.954 496.353 490.421V508.516H478.281C475.792 508.516 473.774 510.556 473.774 513.023C473.774 515.489 475.792 517.53 478.281 517.53H496.353V535.624C496.353 538.113 498.371 540.131 500.86 540.131C503.349 540.131 505.367 538.091 505.367 535.624V517.53H523.439C525.928 517.53 527.946 515.489 527.946 513.023C527.946 510.556 525.928 508.516 523.439 508.516Z" fill="#00DBFF"/>
<path d="M564.471 488.313H546.399V470.218C546.399 467.729 544.381 465.711 541.892 465.711C539.403 465.711 537.385 467.751 537.385 470.218V488.313H519.313C516.825 488.313 514.807 490.353 514.807 492.82C514.807 495.286 516.825 497.326 519.313 497.326H537.385V515.421C537.385 517.91 539.403 519.928 541.892 519.928C544.381 519.928 546.399 517.888 546.399 515.421V497.326H564.471C566.96 497.326 568.978 495.286 568.978 492.82C568.978 490.353 566.96 488.313 564.471 488.313Z" fill="#00FF78"/>
<path d="M12.2648 558.968V569.148H28.7V578.61H12.2648V589.665H30.8525V599.486H0V549.125H30.8525V558.946H12.2648V558.968Z" fill="white"/>
<path d="M51.0773 590.023H67.1538V599.486H38.8125V549.125H51.0773V590.001V590.023Z" fill="white"/>
<path d="M104.352 590.607H85.5623L82.5577 599.509H69.7324L87.939 549.148H102.132L120.339 599.509H107.356L104.352 590.607ZM101.213 581.145L94.9795 562.714L88.8134 581.145H101.213Z" fill="white"/>
<path d="M134.195 598.207C131.28 597.019 128.948 595.248 127.199 592.893C125.45 590.539 124.531 587.736 124.441 584.44H137.491C137.67 586.301 138.321 587.736 139.419 588.7C140.518 589.687 141.953 590.18 143.724 590.18C145.496 590.18 146.975 589.754 148.029 588.924C149.083 588.095 149.599 586.929 149.599 585.449C149.599 584.216 149.173 583.184 148.343 582.355C147.514 581.548 146.482 580.875 145.271 580.337C144.061 579.799 142.312 579.216 140.069 578.543C136.818 577.534 134.172 576.525 132.11 575.538C130.047 574.552 128.276 573.049 126.796 571.099C125.316 569.148 124.576 566.592 124.576 563.43C124.576 558.744 126.258 555.067 129.666 552.421C133.074 549.775 137.491 548.43 142.939 548.43C148.388 548.43 152.962 549.753 156.348 552.421C159.733 555.089 161.55 558.766 161.796 563.498H148.522C148.433 561.883 147.827 560.605 146.729 559.663C145.63 558.722 144.218 558.273 142.491 558.273C141.011 558.273 139.823 558.677 138.904 559.461C138.007 560.246 137.536 561.39 137.536 562.87C137.536 564.484 138.298 565.762 139.823 566.659C141.348 567.578 143.747 568.543 146.998 569.596C150.249 570.695 152.895 571.749 154.935 572.758C156.976 573.767 158.724 575.224 160.204 577.13C161.684 579.036 162.424 581.503 162.424 584.53C162.424 587.557 161.684 590.001 160.227 592.355C158.769 594.709 156.639 596.57 153.881 597.961C151.101 599.351 147.827 600.046 144.061 600.046C140.294 600.046 137.087 599.441 134.15 598.252L134.195 598.207Z" fill="white"/>
<path d="M206.214 549.148V558.969H192.873V599.487H180.609V558.969H167.268V549.148H206.214Z" fill="white"/>
<path d="M224.645 549.148V599.509H212.38V549.148H224.645Z" fill="white"/>
<path d="M234.667 560.94C236.82 557.038 239.824 554.011 243.681 551.836C247.537 549.661 251.887 548.562 256.775 548.562C262.762 548.562 267.874 550.132 272.134 553.294C276.394 556.455 279.242 560.738 280.677 566.209H267.201C266.192 564.101 264.78 562.509 262.941 561.411C261.103 560.312 259.017 559.751 256.663 559.751C252.874 559.751 249.824 561.074 247.493 563.698C245.138 566.321 243.972 569.841 243.972 574.236C243.972 578.631 245.138 582.151 247.493 584.775C249.824 587.398 252.896 588.721 256.663 588.721C258.995 588.721 261.103 588.183 262.941 587.062C264.78 585.963 266.215 584.349 267.201 582.263H280.677C279.242 587.712 276.394 591.995 272.134 595.134C267.874 598.273 262.762 599.82 256.775 599.82C251.91 599.82 247.537 598.744 243.681 596.546C239.824 594.371 236.82 591.344 234.667 587.465C232.515 583.586 231.438 579.169 231.438 574.191C231.438 569.213 232.515 564.774 234.667 560.872V560.94Z" fill="white"/>
<path d="M296.506 598.207C293.592 597.019 291.26 595.248 289.511 592.893C287.762 590.539 286.843 587.736 286.753 584.44H299.802C299.982 586.301 300.632 587.736 301.731 588.7C302.829 589.687 304.264 590.18 306.036 590.18C307.807 590.18 309.287 589.754 310.341 588.924C311.395 588.095 311.91 586.929 311.91 585.449C311.91 584.216 311.484 583.184 310.655 582.355C309.825 581.548 308.794 580.875 307.583 580.337C306.372 579.799 304.623 579.216 302.381 578.543C299.13 577.534 296.484 576.525 294.421 575.538C292.358 574.552 290.587 573.049 289.107 571.099C287.627 569.148 286.887 566.592 286.887 563.43C286.887 558.744 288.569 555.067 291.977 552.421C295.385 549.775 299.802 548.43 305.251 548.43C310.699 548.43 315.274 549.753 318.659 552.421C322.045 555.089 323.861 558.766 324.108 563.498H310.834C310.744 561.883 310.139 560.605 309.04 559.663C307.942 558.722 306.529 558.273 304.803 558.273C303.323 558.273 302.134 558.677 301.215 559.461C300.318 560.246 299.847 561.39 299.847 562.87C299.847 564.484 300.61 565.762 302.134 566.659C303.659 567.578 306.058 568.543 309.309 569.596C312.561 570.695 315.206 571.749 317.247 572.758C319.287 573.767 321.036 575.224 322.516 577.13C323.996 579.036 324.736 581.503 324.736 584.53C324.736 587.557 323.996 590.001 322.538 592.355C321.081 594.709 318.951 596.57 316.193 597.961C313.413 599.351 310.139 600.046 306.372 600.046C302.605 600.046 299.399 599.441 296.462 598.252L296.506 598.207Z" fill="white"/>
<path d="M344.557 558.968V569.148H360.992V578.61H344.557V589.665H363.145V599.486H332.292V549.125H363.145V558.946H344.557V558.968Z" fill="white"/>
<path d="M402.45 590.607H383.661L380.656 599.509H367.831L386.038 549.148H400.231L418.437 599.509H405.455L402.45 590.607ZM399.289 581.145L393.056 562.714L386.89 581.145H399.289Z" fill="white"/>
<path d="M449.649 599.509L439.178 580.495H436.24V599.509H423.976V549.148H444.559C448.528 549.148 451.913 549.844 454.694 551.234C457.496 552.624 459.582 554.53 460.972 556.929C462.362 559.351 463.057 562.041 463.057 565.001C463.057 568.342 462.115 571.347 460.209 573.97C458.326 576.593 455.546 578.477 451.846 579.576L463.461 599.509H449.626H449.649ZM436.218 571.817H443.819C446.061 571.817 447.743 571.279 448.864 570.158C449.985 569.059 450.546 567.512 450.546 565.494C450.546 563.588 449.985 562.086 448.864 560.987C447.743 559.889 446.061 559.351 443.819 559.351H436.218V571.84V571.817Z" fill="white"/>
<path d="M471.868 560.94C474.021 557.038 477.025 554.011 480.882 551.836C484.739 549.661 489.088 548.562 493.976 548.562C499.963 548.562 505.075 550.132 509.335 553.294C513.596 556.455 516.443 560.738 517.878 566.209H504.403C503.394 564.101 501.981 562.509 500.142 561.411C498.304 560.312 496.219 559.751 493.864 559.751C490.075 559.751 487.026 561.074 484.694 563.698C482.339 566.321 481.174 569.841 481.174 574.236C481.174 578.631 482.339 582.151 484.694 584.775C487.026 587.398 490.097 588.721 493.864 588.721C496.196 588.721 498.304 588.183 500.142 587.062C501.981 585.963 503.416 584.349 504.403 582.263H517.878C516.443 587.712 513.596 591.995 509.335 595.134C505.075 598.273 499.963 599.82 493.976 599.82C489.111 599.82 484.739 598.744 480.882 596.546C477.025 594.371 474.021 591.344 471.868 587.465C469.716 583.586 468.64 579.169 468.64 574.191C468.64 569.213 469.716 564.774 471.868 560.872V560.94Z" fill="white"/>
<path d="M569 549.148V599.509H556.735V578.791H537.654V599.509H525.39V549.148H537.654V568.88H556.735V549.148H569Z" fill="white"/>
<path d="M446.106 265.437C446.106 238.127 429.334 214.852 404.177 205.39C405.253 199.717 405.791 193.753 405.791 188.08C405.791 137.764 364.961 96.6641 314.377 96.6641C285.162 96.6641 257.583 110.723 240.542 134.804C232.156 128.302 221.887 124.804 211.057 124.804C184.286 124.804 162.379 146.442 162.379 173.483C162.379 179.156 163.456 185.12 165.362 190.255C139.935 198.91 122.895 223.261 122.895 250.302C122.895 277.343 139.666 301.156 165.092 310.618C164.016 316.022 163.478 321.986 163.478 327.928C163.478 377.975 204.308 419.075 254.623 419.075C284.108 419.075 311.418 404.747 328.458 380.935C336.844 387.437 347.382 391.204 358.212 391.204C384.984 391.204 406.89 369.567 406.89 342.525C406.89 336.852 405.814 330.888 403.908 325.753C428.527 316.56 446.106 292.209 446.106 265.437Z" fill="white"/>
<path d="M248.928 235.144L320.88 268.15L393.639 204.313C394.715 198.91 395.253 193.483 395.253 188.08C395.253 143.19 358.75 106.664 313.839 106.664C286.799 106.664 261.91 119.916 246.753 142.091L234.578 204.852L248.906 235.144H248.928Z" fill="#F4BD19"/>
<path d="M174.285 311.407C173.209 316.811 172.671 322.237 172.671 327.91C172.671 372.799 209.465 409.594 254.354 409.594C281.664 409.594 306.552 396.074 321.978 373.898L333.884 311.138L317.651 280.576L245.43 247.57L174.285 311.407Z" fill="#3CBEB1"/>
<path d="M173.747 186.445L223.232 198.082L234.331 141.824C227.56 136.421 219.174 133.977 210.519 133.977C189.151 133.977 171.572 151.287 171.572 172.924C171.303 177.521 172.111 182.117 173.747 186.445Z" fill="#E9478C"/>
<path d="M169.689 198.352C147.514 205.392 132.088 226.761 132.088 250.013C132.088 273.265 146.146 293.019 167.245 300.867L236.753 238.106L224.04 210.796L169.667 198.352H169.689Z" fill="#2C458F"/>
<path d="M334.669 373.356C341.44 378.76 349.826 381.473 358.19 381.473C379.558 381.473 397.136 364.163 397.136 342.525C397.136 337.659 396.329 333.332 394.692 329.004L345.207 317.367L334.669 373.356Z" fill="#95C63D"/>
<path d="M344.669 304.388L399.042 317.101C421.217 309.791 436.643 288.692 436.643 265.44C436.643 242.188 422.585 222.703 401.486 214.586L330.072 276.786L344.669 304.365V304.388Z" fill="#176655"/>
</g>
<defs>
<linearGradient id="paint0_linear_1054_11167" x1="26.6367" y1="257.857" x2="542.34" y2="257.857" gradientUnits="userSpaceOnUse">
<stop stop-color="#003A44"/>
<stop offset="0.67" stop-color="#19857C"/>
<stop offset="1" stop-color="#01634E"/>
</linearGradient>
<linearGradient id="paint1_linear_1054_11167" x1="195.832" y1="226.019" x2="419.109" y2="226.019" gradientUnits="userSpaceOnUse">
<stop stop-color="#003A44" stop-opacity="0"/>
<stop offset="0.47" stop-color="#00FF78"/>
</linearGradient>
<linearGradient id="paint2_linear_1054_11167" x1="133.387" y1="257.858" x2="518.662" y2="257.858" gradientUnits="userSpaceOnUse">
<stop stop-color="#003A44" stop-opacity="0"/>
<stop offset="0.47" stop-color="#00FF78"/>
</linearGradient>
<clipPath id="clip0_1054_11167">
<rect width="569" height="600" fill="white"/>
</clipPath>
</defs>
</svg>
