<svg width="347" height="366" viewBox="0 0 347 366" fill="none" xmlns="http://www.w3.org/2000/svg">
<g clip-path="url(#clip0_1054_11200)">
<path d="M330.742 157.293C330.742 70.4224 260.339 0 173.493 0C86.6468 0 16.2441 70.4224 16.2441 157.293C16.2441 244.163 86.6468 314.586 173.493 314.586C260.339 314.586 330.742 244.163 330.742 157.293Z" fill="url(#paint0_linear_1054_11200)"/>
<g opacity="0.4">
<path d="M147.8 60.2354L172.891 39.1719H172.96C173.848 39.3087 174.724 39.4591 175.612 39.6232C229.487 50.3602 264.383 102.814 253.635 156.622C242.997 209.992 191.501 244.719 138.269 234.94C149.755 232.328 160.79 227.048 170.444 218.978C202.755 191.855 206.994 143.642 179.851 111.294C164.29 92.7609 141.838 83.4874 119.413 84.0345L147.8 60.2081V60.2354Z" fill="url(#paint1_linear_1054_11200)"/>
<path d="M203.014 294.615C157.809 303.697 113.3 290.047 81.3311 261.556C83.1907 260.749 84.982 259.696 86.6228 258.301C89.9592 255.497 92.2291 251.845 93.3367 247.947C100.324 251.968 107.735 255.388 115.529 258.068C182.066 280.951 254.482 245.499 277.29 178.971C300.167 112.415 264.724 39.9784 198.215 17.1641C256.137 26.6974 302.081 71.0813 313.512 128.541C328.854 204.931 279.382 279.255 203.014 294.601V294.615Z" fill="url(#paint2_linear_1054_11200)"/>
</g>
<path d="M319.215 310.193H308.194V299.155C308.194 297.637 306.963 296.406 305.446 296.406C303.928 296.406 302.697 297.651 302.697 299.155V310.193H291.676C290.158 310.193 288.928 311.438 288.928 312.943C288.928 314.447 290.158 315.692 291.676 315.692H302.697V326.73C302.697 328.248 303.928 329.479 305.446 329.479C306.963 329.479 308.194 328.234 308.194 326.73V315.692H319.215C320.733 315.692 321.964 314.447 321.964 312.943C321.964 311.438 320.733 310.193 319.215 310.193Z" fill="#00DBFF"/>
<path d="M344.239 297.873H333.218V286.835C333.218 285.317 331.987 284.086 330.469 284.086C328.951 284.086 327.721 285.331 327.721 286.835V297.873H316.7C315.182 297.873 313.951 299.118 313.951 300.622C313.951 302.127 315.182 303.371 316.7 303.371H327.721V314.409C327.721 315.927 328.951 317.158 330.469 317.158C331.987 317.158 333.218 315.914 333.218 314.409V303.371H344.239C345.756 303.371 346.987 302.127 346.987 300.622C346.987 299.118 345.756 297.873 344.239 297.873Z" fill="#00FF78"/>
<path d="M7.47957 340.965V347.175H17.5025V352.947H7.47957V359.69H18.8151V365.681H0V334.961H18.8151V340.952H7.47957V340.965Z" fill="white"/>
<path d="M31.1485 359.909H40.9526V365.681H23.6689V334.961H31.1485V359.895V359.909Z" fill="white"/>
<path d="M63.6377 360.267H52.1791L50.3468 365.697H42.5254L53.6285 334.977H62.284L73.3872 365.697H65.47L63.6377 360.267ZM61.7234 354.495L57.9221 343.252L54.1618 354.495H61.7234Z" fill="white"/>
<path d="M81.8377 364.903C80.0602 364.179 78.6381 363.098 77.5715 361.662C76.505 360.226 75.9443 358.516 75.8896 356.505H83.8478C83.9572 357.641 84.3537 358.516 85.0237 359.104C85.6938 359.706 86.5689 360.007 87.6491 360.007C88.7293 360.007 89.6318 359.747 90.2745 359.241C90.9171 358.735 91.2317 358.024 91.2317 357.121C91.2317 356.369 90.9719 355.739 90.4659 355.233C89.96 354.741 89.331 354.331 88.5926 354.002C87.8542 353.674 86.7877 353.318 85.4203 352.908C83.4376 352.293 81.8241 351.677 80.5661 351.075C79.3081 350.474 78.2279 349.557 77.3254 348.367C76.4229 347.177 75.9717 345.618 75.9717 343.689C75.9717 340.831 76.9972 338.588 79.0756 336.974C81.1541 335.36 83.8478 334.539 87.1705 334.539C90.4933 334.539 93.2827 335.346 95.3475 336.974C97.4122 338.601 98.5198 340.844 98.6702 343.73H90.5753C90.5206 342.746 90.1514 341.966 89.4814 341.392C88.8114 340.817 87.9499 340.544 86.8971 340.544C85.9946 340.544 85.2699 340.79 84.7092 341.268C84.1623 341.747 83.8751 342.445 83.8751 343.347C83.8751 344.332 84.3401 345.112 85.2699 345.659C86.1997 346.22 87.6628 346.808 89.6455 347.451C91.6282 348.121 93.2417 348.764 94.486 349.379C95.7303 349.995 96.7969 350.884 97.6994 352.046C98.6018 353.209 99.0531 354.714 99.0531 356.56C99.0531 358.407 98.6018 359.897 97.713 361.334C96.8242 362.77 95.5252 363.905 93.8433 364.753C92.1478 365.601 90.1514 366.025 87.8542 366.025C85.557 366.025 83.6017 365.656 81.8104 364.931L81.8377 364.903Z" fill="white"/>
<path d="M125.758 334.977V340.967H117.622V365.683H110.143V340.967H102.007V334.977H125.758Z" fill="white"/>
<path d="M136.998 334.977V365.697H129.519V334.977H136.998Z" fill="white"/>
<path d="M143.11 342.175C144.422 339.795 146.255 337.949 148.607 336.622C150.958 335.295 153.611 334.625 156.592 334.625C160.243 334.625 163.361 335.582 165.959 337.511C168.557 339.44 170.293 342.052 171.168 345.389H162.95C162.335 344.104 161.474 343.133 160.352 342.462C159.231 341.792 157.959 341.45 156.524 341.45C154.213 341.45 152.353 342.257 150.931 343.857C149.495 345.458 148.784 347.605 148.784 350.286C148.784 352.967 149.495 355.114 150.931 356.714C152.353 358.315 154.226 359.122 156.524 359.122C157.946 359.122 159.231 358.793 160.352 358.11C161.474 357.439 162.349 356.455 162.95 355.182H171.168C170.293 358.506 168.557 361.119 165.959 363.033C163.361 364.948 160.243 365.892 156.592 365.892C153.625 365.892 150.958 365.236 148.607 363.895C146.255 362.568 144.422 360.722 143.11 358.356C141.797 355.989 141.141 353.295 141.141 350.259C141.141 347.222 141.797 344.514 143.11 342.134V342.175Z" fill="white"/>
<path d="M180.822 364.903C179.045 364.179 177.622 363.098 176.556 361.662C175.489 360.226 174.929 358.516 174.874 356.505H182.832C182.942 357.641 183.338 358.516 184.008 359.104C184.678 359.706 185.553 360.007 186.633 360.007C187.714 360.007 188.616 359.747 189.259 359.241C189.902 358.735 190.216 358.024 190.216 357.121C190.216 356.369 189.956 355.739 189.45 355.233C188.944 354.741 188.315 354.331 187.577 354.002C186.839 353.674 185.772 353.318 184.405 352.908C182.422 352.293 180.808 351.677 179.55 351.075C178.292 350.474 177.212 349.557 176.31 348.367C175.407 347.177 174.956 345.618 174.956 343.689C174.956 340.831 175.982 338.588 178.06 336.974C180.138 335.36 182.832 334.539 186.155 334.539C189.478 334.539 192.267 335.346 194.332 336.974C196.397 338.601 197.504 340.844 197.655 343.73H189.56C189.505 342.746 189.136 341.966 188.466 341.392C187.796 340.817 186.934 340.544 185.881 340.544C184.979 340.544 184.254 340.79 183.694 341.268C183.147 341.747 182.86 342.445 182.86 343.347C182.86 344.332 183.324 345.112 184.254 345.659C185.184 346.22 186.647 346.808 188.63 347.451C190.613 348.121 192.226 348.764 193.47 349.379C194.715 349.995 195.781 350.884 196.684 352.046C197.586 353.209 198.037 354.714 198.037 356.56C198.037 358.407 197.586 359.897 196.697 361.334C195.809 362.77 194.51 363.905 192.828 364.753C191.132 365.601 189.136 366.025 186.839 366.025C184.541 366.025 182.586 365.656 180.795 364.931L180.822 364.903Z" fill="white"/>
<path d="M210.125 340.965V347.175H220.148V352.947H210.125V359.69H221.461V365.681H202.646V334.961H221.461V340.952H210.125V340.965Z" fill="white"/>
<path d="M245.431 360.267H233.972L232.14 365.697H224.318L235.421 334.977H244.077L255.18 365.697H247.263L245.431 360.267ZM243.503 354.495L239.701 343.252L235.941 354.495H243.503Z" fill="white"/>
<path d="M274.214 365.697L267.828 354.098H266.037V365.697H258.558V334.977H271.11C273.53 334.977 275.595 335.401 277.291 336.249C279 337.097 280.272 338.259 281.119 339.723C281.967 341.2 282.391 342.841 282.391 344.647C282.391 346.685 281.817 348.517 280.654 350.118C279.506 351.718 277.81 352.867 275.554 353.537L282.637 365.697H274.2H274.214ZM266.024 348.805H270.659C272.026 348.805 273.052 348.476 273.736 347.793C274.419 347.122 274.761 346.179 274.761 344.948C274.761 343.785 274.419 342.869 273.736 342.198C273.052 341.528 272.026 341.2 270.659 341.2H266.024V348.818V348.805Z" fill="white"/>
<path d="M287.765 342.175C289.078 339.795 290.91 337.949 293.262 336.622C295.614 335.295 298.266 334.625 301.247 334.625C304.898 334.625 308.016 335.582 310.614 337.511C313.212 339.44 314.948 342.052 315.824 345.389H307.606C306.99 344.104 306.129 343.133 305.008 342.462C303.886 341.792 302.615 341.45 301.179 341.45C298.868 341.45 297.008 342.257 295.586 343.857C294.151 345.458 293.44 347.605 293.44 350.286C293.44 352.967 294.151 355.114 295.586 356.714C297.008 358.315 298.882 359.122 301.179 359.122C302.601 359.122 303.886 358.793 305.008 358.11C306.129 357.439 307.004 356.455 307.606 355.182H315.824C314.948 358.506 313.212 361.119 310.614 363.033C308.016 364.948 304.898 365.892 301.247 365.892C298.28 365.892 295.614 365.236 293.262 363.895C290.91 362.568 289.078 360.722 287.765 358.356C286.452 355.989 285.796 353.295 285.796 350.259C285.796 347.222 286.452 344.514 287.765 342.134V342.175Z" fill="white"/>
<path d="M347 334.977V365.697H339.52V353.058H327.884V365.697H320.404V334.977H327.884V347.013H339.52V334.977H347Z" fill="white"/>
<path d="M272.054 161.913C272.054 145.253 261.826 131.056 246.484 125.284C247.14 121.823 247.469 118.185 247.469 114.725C247.469 84.032 222.569 58.9609 191.721 58.9609C173.904 58.9609 157.085 67.5368 146.693 82.2266C141.579 78.2601 135.316 76.1264 128.712 76.1264C112.385 76.1264 99.0258 89.3253 99.0258 105.821C99.0258 109.281 99.6822 112.919 100.844 116.051C85.3384 121.331 74.9463 136.185 74.9463 152.68C74.9463 169.175 85.1743 183.701 100.68 189.473C100.024 192.769 99.6959 196.408 99.6959 200.032C99.6959 230.561 124.596 255.632 155.28 255.632C173.261 255.632 189.916 246.892 200.308 232.366C205.422 236.333 211.848 238.63 218.453 238.63C234.779 238.63 248.139 225.432 248.139 208.936C248.139 205.476 247.482 201.838 246.32 198.705C261.334 193.098 272.054 178.244 272.054 161.913Z" fill="white"/>
<path d="M151.807 143.435L195.686 163.569L240.058 124.629C240.714 121.332 241.042 118.022 241.042 114.726C241.042 87.3434 218.781 65.0625 191.393 65.0625C174.902 65.0625 159.724 73.146 150.481 86.6732L143.056 124.957L151.793 143.435H151.807Z" fill="#F4BD19"/>
<path d="M106.286 189.948C105.63 193.244 105.302 196.554 105.302 200.015C105.302 227.397 127.74 249.842 155.115 249.842C171.77 249.842 186.948 241.595 196.356 228.068L203.616 189.784L193.717 171.141L149.673 151.008L106.286 189.948Z" fill="#3CBEB1"/>
<path d="M105.958 113.724L136.136 120.823L142.905 86.5059C138.775 83.2096 133.661 81.7188 128.383 81.7188C115.352 81.7188 104.632 92.2779 104.632 105.477C104.468 108.281 104.96 111.085 105.958 113.724Z" fill="#E9478C"/>
<path d="M103.484 120.992C89.9603 125.287 80.5527 138.322 80.5527 152.505C80.5527 166.689 89.1262 178.739 101.993 183.526L144.382 145.243L136.629 128.583L103.47 120.992H103.484Z" fill="#2C458F"/>
<path d="M204.096 227.747C208.225 231.043 213.339 232.698 218.44 232.698C231.471 232.698 242.191 222.139 242.191 208.94C242.191 205.972 241.699 203.332 240.7 200.692L210.522 193.594L204.096 227.747Z" fill="#95C63D"/>
<path d="M210.194 185.67L243.353 193.425C256.876 188.966 266.284 176.095 266.284 161.912C266.284 147.728 257.71 135.842 244.843 130.891L201.292 168.832L210.194 185.656V185.67Z" fill="#176655"/>
</g>
<defs>
<linearGradient id="paint0_linear_1054_11200" x1="16.2441" y1="157.293" x2="330.742" y2="157.293" gradientUnits="userSpaceOnUse">
<stop stop-color="#003A44"/>
<stop offset="0.67" stop-color="#19857C"/>
<stop offset="1" stop-color="#01634E"/>
</linearGradient>
<linearGradient id="paint1_linear_1054_11200" x1="119.427" y1="137.87" x2="255.59" y2="137.87" gradientUnits="userSpaceOnUse">
<stop stop-color="#003A44" stop-opacity="0"/>
<stop offset="0.47" stop-color="#00FF78"/>
</linearGradient>
<linearGradient id="paint2_linear_1054_11200" x1="81.3447" y1="157.291" x2="316.302" y2="157.291" gradientUnits="userSpaceOnUse">
<stop stop-color="#003A44" stop-opacity="0"/>
<stop offset="0.47" stop-color="#00FF78"/>
</linearGradient>
<clipPath id="clip0_1054_11200">
<rect width="347" height="366" fill="white"/>
</clipPath>
</defs>
</svg>
