<svg width="504" height="500" viewBox="0 0 504 500" fill="none" xmlns="http://www.w3.org/2000/svg">
<g clip-path="url(#clip0_912_1304)">
<path d="M329.193 65.9755C316.402 48.0819 303.058 34.8109 294.35 27.009C288.791 22.0283 280.398 22.0283 274.839 27.009C272.201 29.3745 269.139 32.2392 265.795 35.5814C258.097 43.2748 248.911 53.4966 239.997 65.9755C140.205 86.571 65.1895 174.889 65.1895 280.72C65.1895 401.83 163.418 500 284.6 500C405.782 500 504.011 401.83 504.011 280.72C504.011 174.889 428.996 86.571 329.203 65.9755H329.193ZM284.589 101.763C295.718 101.763 306.174 106.092 314.046 113.959C321.918 121.826 326.25 132.276 326.25 143.399C326.25 154.879 321.581 165.285 314.035 172.827C306.489 180.368 296.077 185.034 284.589 185.034C273.102 185.034 263.005 180.705 255.133 172.838C247.261 164.971 242.929 154.521 242.929 143.399C242.929 120.448 261.615 101.763 284.589 101.763ZM297.879 456.042C299.801 464.105 301.81 471.668 303.851 478.765C303.265 478.819 302.667 478.862 302.07 478.917C299.519 465.667 297.879 456.042 297.879 456.042ZM283.319 479.676C281.441 479.665 279.562 479.622 277.695 479.557C280.442 460.958 282.917 438.908 283.938 415.502C283.938 415.502 284.253 448.533 283.319 479.665V479.676ZM261.191 478.331C259.791 478.168 258.401 477.983 257.011 477.799C261.365 464.973 265.871 449.879 269.997 432.615C269.997 432.615 266.197 454.892 261.191 478.331ZM425.369 421.416C405.315 441.458 381.743 456.693 356.033 466.546C346.358 454.425 335.143 439.049 323.405 420.277C323.405 420.277 336.912 445.386 350.908 468.423C348.107 469.411 345.294 470.333 342.45 471.191C332.689 456.368 318.704 432.582 304.719 400.083C304.719 400.083 321.049 446.113 334.1 473.502C331.712 474.109 329.312 474.674 326.891 475.195C303.547 428.849 295.599 389.308 292.928 369.179V333.034C292.928 328.433 289.204 324.711 284.6 324.711C279.997 324.711 276.273 328.443 276.273 333.034V372.206C273.222 393.127 264.948 431.117 242.69 475.281C239.943 474.695 237.218 474.055 234.503 473.361C246.468 446.103 259.204 410.185 259.204 410.185C247.988 436.271 236.751 456.737 227.706 471.473C224.753 470.594 221.822 469.65 218.912 468.641C230.573 448.848 240.508 430.368 240.508 430.368C231.604 444.605 223.005 456.889 215.144 467.284C188.673 457.453 164.385 441.968 143.82 421.405C106.22 383.828 85.5041 333.858 85.5041 280.709C85.5041 227.56 106.21 177.601 143.82 140.013C166.795 117.052 194.406 100.406 224.536 90.9223C219.509 100.439 215.014 110.791 211.474 121.913C201.507 153.208 197.956 203.742 212.875 250.565C213.211 250.521 213.548 250.5 213.895 250.5H355.283C355.631 250.5 355.967 250.532 356.304 250.565C371.222 203.742 367.672 153.208 357.705 121.913C354.165 110.791 349.659 100.45 344.632 90.9223C374.773 100.406 402.384 117.052 425.359 140.024C462.959 177.601 483.675 227.571 483.675 280.72C483.675 333.869 462.969 383.828 425.359 421.416H425.369Z" fill="#343433"/>
<path d="M82.6588 138.103C85.5903 93.2663 98.0114 80.8417 142.875 77.9228C98.0114 74.9929 85.5795 62.5792 82.6588 17.7422C79.7272 62.5792 67.3061 75.0038 22.4424 77.9228C67.3061 80.8526 79.7381 93.2663 82.6588 138.103Z" fill="#343433"/>
<path d="M154.178 154.141C152.756 175.973 146.697 182.017 124.852 183.45C146.697 184.871 152.745 190.926 154.178 212.759C155.6 190.926 161.659 184.882 183.504 183.45C161.659 182.028 155.611 175.973 154.178 154.141Z" fill="#343433"/>
<path d="M163.841 77.9231C165.741 48.8962 173.776 40.8555 202.82 38.9674C173.776 37.0684 165.73 29.0386 163.841 0.0117188C161.941 29.0386 153.906 37.0793 124.862 38.9674C153.906 40.8664 161.952 48.8962 163.841 77.9231Z" fill="#343433"/>
<path d="M44.1905 118.418C42.0407 151.319 32.9203 160.434 0 162.582C32.9203 164.731 42.0407 173.846 44.1905 206.746C46.3403 173.846 55.4607 164.731 88.381 162.582C55.4607 160.434 46.3403 151.319 44.1905 118.418Z" fill="#343433"/>
<path d="M172.875 239.668C168.402 244.887 166.621 251.745 168 258.473L178.293 308.92C179.336 314.031 182.864 318.198 187.729 320.075C192.593 321.952 198.011 321.236 202.213 318.165L220.638 304.688C204.569 281.163 193.744 252.494 188.955 220.906L172.875 239.668Z" fill="#343433"/>
<path d="M380.224 220.918C375.435 252.506 364.61 281.174 348.541 304.7L366.966 318.177C371.168 321.248 376.586 321.964 381.45 320.087C383.47 319.306 385.261 318.123 386.738 316.647C388.812 314.574 390.267 311.905 390.875 308.932L401.168 258.485C402.547 251.757 400.766 244.899 396.293 239.68L380.213 220.918H380.224Z" fill="#343433"/>
<path d="M219.031 267.156C223.602 277.834 229.259 288.164 236.165 297.843C238.89 301.663 243.32 303.887 248.01 303.887H321.18C325.078 303.887 328.791 302.347 331.495 299.645C332.048 299.091 332.559 298.494 333.025 297.843C339.931 288.164 345.599 277.834 350.159 267.156H219.031Z" fill="#343433"/>
<path d="M284.589 168.377C298.367 168.377 309.583 157.167 309.583 143.397C309.583 136.724 306.988 130.452 302.265 125.732C297.542 121.011 291.266 118.418 284.589 118.418C277.912 118.418 271.451 121.218 266.924 125.743C262.396 130.267 259.595 136.507 259.595 143.397C259.595 150.071 262.19 156.343 266.913 161.063C271.636 165.783 277.912 168.377 284.589 168.377Z" fill="#343433"/>
<path d="M249.335 324.722C244.731 324.722 241.007 328.455 241.007 333.045V371.49C241.007 376.091 244.742 379.813 249.335 379.813C251.636 379.813 253.721 378.88 255.23 377.372C256.74 375.863 257.673 373.78 257.673 371.479V333.034C257.673 328.433 253.938 324.711 249.345 324.711L249.335 324.722Z" fill="#343433"/>
<path d="M319.843 324.722C315.24 324.722 311.516 328.455 311.516 333.045V371.49C311.516 376.091 315.251 379.813 319.843 379.813C322.145 379.813 324.23 378.88 325.739 377.372C327.248 375.863 328.182 373.78 328.182 371.479V333.034C328.182 328.433 324.447 324.711 319.854 324.711L319.843 324.722Z" fill="#343433"/>
</g>
<defs>
<clipPath id="clip0_912_1304">
<rect width="504" height="500" fill="white"/>
</clipPath>
</defs>
</svg>
