<svg width="76" height="75" viewBox="0 0 76 75" fill="none" xmlns="http://www.w3.org/2000/svg">
<g clip-path="url(#clip0_912_1491)">
<path d="M42.9146 73.4754C25.5154 73.4754 11.3613 59.4041 11.3613 42.1068C11.3613 24.8095 25.5154 10.7383 42.9146 10.7383C60.3138 10.7383 74.4679 24.8095 74.4679 42.1068C74.4679 59.4041 60.3138 73.4754 42.9146 73.4754Z" fill="#0D87C5"/>
<path opacity="0.1" d="M13.1403 52.4925C17.461 64.7017 29.1756 73.4765 42.9139 73.4765C56.6521 73.4765 68.3684 64.7 72.6891 52.4908C68.6254 40.0001 56.8322 30.9648 42.9139 30.9648C28.9955 30.9648 17.2024 40.0001 13.1387 52.4908L13.1403 52.4925Z" fill="#33CFFF"/>
<path opacity="0.2" d="M18.1836 61.5662C23.968 68.8174 32.9042 73.4758 42.9144 73.4758C52.9246 73.4758 61.8608 68.8158 67.6452 61.5645C67.3751 48.216 56.4071 37.4766 42.9144 37.4766C29.4217 37.4766 18.4537 48.216 18.1836 61.5645V61.5662Z" fill="#33CFFF"/>
<path opacity="0.4" d="M42.914 42.1094C31.8232 42.1094 22.833 51.0469 22.833 62.0728C22.833 63.6761 23.0246 65.2354 23.3831 66.7296C28.7599 70.9534 35.5447 73.4779 42.914 73.4779C50.2833 73.4779 57.0681 70.9534 62.4449 66.7296C62.8034 65.2354 62.995 63.6761 62.995 62.0728C62.995 51.0469 54.0048 42.1094 42.914 42.1094Z" fill="#33CFFF"/>
<path d="M42.9139 12.2619C50.9332 12.2619 58.4711 15.3658 64.1426 21.0041C69.8124 26.6407 72.9363 34.1362 72.9363 42.1085C72.9363 50.0809 69.8141 57.5747 64.1426 63.213C58.4728 68.8496 50.9332 71.9552 42.9139 71.9552C34.8946 71.9552 27.3566 68.8512 21.6852 63.213C16.0153 57.5763 12.8914 50.0809 12.8914 42.1085C12.8914 34.1362 16.0137 26.6424 21.6852 21.0041C27.355 15.3675 34.8946 12.2619 42.9139 12.2619ZM42.9139 9.21484C24.6404 9.21484 9.82812 23.9404 9.82812 42.1069C9.82812 60.2734 24.6404 74.9989 42.9139 74.9989C61.1874 74.9989 75.9997 60.2734 75.9997 42.1069C75.9997 23.9404 61.1874 9.21484 42.9139 9.21484Z" fill="white"/>
<path d="M12.464 2.66016C12.022 9.38571 10.1489 11.2494 3.38379 11.6872C10.1489 12.1267 12.0236 13.9888 12.464 20.7143C12.9061 13.9888 14.7791 12.1251 21.5443 11.6872C14.7791 11.2478 12.9045 9.38571 12.464 2.66016Z" fill="white"/>
<path d="M23.2494 23.1211C23.0349 26.396 22.1213 27.3026 18.8271 27.5174C22.1213 27.7307 23.0333 28.6389 23.2494 31.9138C23.4639 28.6389 24.3775 27.7323 27.6716 27.5174C24.3775 27.3042 23.4655 26.396 23.2494 23.1211Z" fill="#33CFFF"/>
<path d="M24.7059 0C24.4194 4.35403 23.2078 5.56014 18.8281 5.84335C23.2078 6.1282 24.421 7.33268 24.7059 11.6867C24.9924 7.33268 26.204 6.12657 30.5837 5.84335C26.204 5.55851 24.9908 4.35403 24.7059 0Z" fill="#33CFFF"/>
<path d="M6.66365 17.7617C6.33947 22.6968 4.96417 24.0641 0 24.3864C4.96417 24.7086 6.33947 26.0759 6.66365 31.011C6.98783 26.0759 8.36313 24.7086 13.3273 24.3864C8.36313 24.0641 6.98783 22.6968 6.66365 17.7617Z" fill="#33CFFF"/>
<path d="M28.4934 33.1367L26.0686 35.951C25.394 36.7339 25.1255 37.7626 25.3335 38.7717L26.8856 46.3388C27.0428 47.1054 27.5749 47.7305 28.3084 48.012C29.0419 48.2936 29.8588 48.1862 30.4925 47.7256L33.2709 45.704C30.8478 42.1752 29.2154 37.8749 28.4934 33.1367Z" fill="white"/>
<path d="M52.5573 45.704L55.3357 47.7256C55.9694 48.1878 56.7863 48.2936 57.5198 48.012C57.8244 47.8948 58.0945 47.7174 58.3172 47.4961C58.6299 47.1852 58.8493 46.7848 58.941 46.3388L60.4931 38.7717C60.701 37.7626 60.4325 36.7339 59.758 35.951L57.3332 33.1367C56.6112 37.8749 54.9788 42.1752 52.5557 45.704H52.5573Z" fill="white"/>
<path d="M49.9851 44.9475C50.0686 44.8645 50.1456 44.7749 50.216 44.6773C51.2573 43.2254 52.1119 41.6759 52.7996 40.0742H33.0264C33.7157 41.6759 34.5687 43.2254 35.61 44.6773C36.0209 45.2502 36.6889 45.5839 37.3962 45.5839H48.4297C49.0175 45.5839 49.5774 45.3528 49.9851 44.9475Z" fill="white"/>
<path d="M53.9415 18.2898C51.6837 11.2354 46.8308 6.23197 44.3864 4.05251C43.5481 3.30541 42.2825 3.30541 41.4442 4.05251C41.0464 4.40735 40.5847 4.83705 40.0804 5.33838C37.4886 7.91499 33.7802 12.383 31.8892 18.2898C30.3862 22.984 29.8508 30.5641 32.1004 37.5875C32.1512 37.581 32.2019 37.5777 32.2543 37.5777H53.5747C53.6271 37.5777 53.6779 37.5826 53.7286 37.5875C55.9782 30.5641 55.4428 22.984 53.9398 18.2898H53.9415ZM36.6323 21.511C36.6323 18.0668 39.4501 15.2656 42.9145 15.2656C44.5927 15.2656 46.1694 15.915 47.3564 17.0951C48.5434 18.2751 49.1967 19.8426 49.1967 21.511C49.1967 23.233 48.4927 24.794 47.3548 25.9252C46.2169 27.0564 44.6467 27.7563 42.9145 27.7563C41.2363 27.7563 39.6596 27.1069 38.4726 25.9268C37.2856 24.7468 36.6323 23.1793 36.6323 21.511Z" fill="white"/>
<path d="M42.9145 25.2555C44.9922 25.2555 46.6835 23.5741 46.6835 21.5086C46.6835 20.5076 46.2922 19.5668 45.5799 18.8588C44.8677 18.1507 43.9214 17.7617 42.9145 17.7617C41.8748 17.7617 40.9334 18.1817 40.2507 18.8604C39.5679 19.5391 39.1455 20.4751 39.1455 21.5086C39.1455 22.5096 39.5368 23.4504 40.249 24.1585C40.9612 24.8665 41.9076 25.2555 42.9145 25.2555Z" fill="white"/>
<path d="M51.453 73.0419C51.9098 72.814 52.3748 72.6057 52.848 72.4185C51.5349 70.6297 48.7417 66.4694 45.9502 60.0156C45.9502 60.0156 49.467 69.8761 51.453 73.0419Z" fill="white"/>
<path d="M48.7673 63.043C48.7673 63.043 51.5653 68.2141 53.9967 71.9984C54.3569 71.878 54.7187 71.7673 55.0838 71.6648C53.3663 69.6725 51.1364 66.8127 48.7656 63.043H48.7673Z" fill="white"/>
<path d="M32.8389 73.0187C32.8634 73.022 32.888 73.022 32.9125 73.0269C33.3693 73.118 33.8261 73.2092 34.2813 73.2987C36.2951 69.3516 39.085 61.5273 39.085 61.5273C36.6946 67.0549 34.3009 70.9044 32.8389 73.0171V73.0187Z" fill="white"/>
<path d="M30.8102 72.1582C31.0755 72.308 31.3227 72.4854 31.5585 72.6888C33.8523 69.0217 36.2656 64.5586 36.2656 64.5586C34.2747 67.726 32.382 70.2489 30.8086 72.1582H30.8102Z" fill="white"/>
<path d="M37.5979 56.9724C37.945 56.9724 38.2593 56.8324 38.4869 56.6061C38.7145 56.3799 38.8553 56.0674 38.8553 55.7223V49.9555C38.8553 49.2653 38.2921 48.707 37.5995 48.707C36.9053 48.707 36.3438 49.267 36.3438 49.9555V55.7223C36.3438 56.4124 36.907 56.9707 37.5995 56.9707L37.5979 56.9724Z" fill="white"/>
<path d="M44.172 49.9555C44.172 49.2653 43.6105 48.707 42.9163 48.707C42.2221 48.707 41.6605 49.267 41.6605 49.9555V55.8314C41.1677 59.1876 39.776 65.4721 35.8662 72.6859C36.6472 72.8634 37.438 73.0115 38.2402 73.1303C39.0507 70.9264 39.9299 68.1691 40.7158 64.8894C40.7158 64.8894 39.9692 69.2418 39.0572 73.241C39.9086 73.3451 40.7698 73.4135 41.6408 73.4477C42.1418 70.3795 42.6363 66.4926 42.818 62.3258C42.818 62.3258 42.877 68.4296 42.6707 73.4737C42.7525 73.4737 42.8344 73.477 42.9163 73.477C43.9052 73.477 44.8826 73.4298 45.8486 73.3403C45.3001 70.6204 44.9203 68.4068 44.9203 68.4068C45.3492 70.1956 45.806 71.8265 46.2645 73.2996C47.5415 73.1645 48.7973 72.9561 50.0252 72.6729C45.9354 65.1254 44.6043 58.5952 44.1737 55.3772V49.9555H44.172Z" fill="white"/>
<path d="M48.2307 56.9724C48.5778 56.9724 48.8922 56.8324 49.1197 56.6061C49.3473 56.3799 49.4881 56.0674 49.4881 55.7223V49.9555C49.4881 49.2653 48.9249 48.707 48.2323 48.707C47.5398 48.707 46.9766 49.267 46.9766 49.9555V55.7223C46.9766 56.4124 47.5398 56.9707 48.2323 56.9707L48.2307 56.9724Z" fill="white"/>
</g>
<defs>
<clipPath id="clip0_912_1491">
<rect width="76" height="75" fill="white"/>
</clipPath>
</defs>
</svg>
