<svg width="101" height="101" viewBox="0 0 101 101" fill="none" xmlns="http://www.w3.org/2000/svg">
<path d="M60.4213 95.17C36.2906 95.17 16.7305 75.6804 16.7305 51.6368C16.7305 27.5932 36.2906 8.10357 60.4213 8.10357C72.591 8.10357 83.5921 13.0639 91.5146 21.0669C82.3885 8.64371 67.6475 0.566406 51.0068 0.566406C23.2903 0.566406 0.820801 22.95 0.820801 50.5664C0.820801 78.1829 23.2903 100.566 51.0018 100.566C63.5048 100.566 74.9335 95.9975 83.7264 88.4554C76.9775 92.7071 68.9903 95.1749 60.4213 95.1749" fill="url(#paint0_linear_484_1220)"/>
<path d="M75.4418 15.1016C85.9455 21.2314 93.0077 32.5892 93.0077 45.5921C93.0077 65.0966 77.1378 80.9043 57.5677 80.9093C39.3553 80.9093 24.3607 67.2225 22.3614 49.611C22.3266 50.3047 22.3017 50.9985 22.3017 51.6972C22.3017 73.3027 39.8825 90.8151 61.5613 90.8151C83.24 90.8151 100.821 73.2978 100.821 51.6972C100.821 34.9628 90.2723 20.6913 75.4418 15.1016Z" fill="url(#paint1_linear_484_1220)"/>
<path d="M56.5132 17.8076C43.3388 17.8076 32.2135 26.539 28.6377 38.5113C32.6312 29.6312 41.5783 23.4469 51.9775 23.4469C66.1018 23.4469 77.5504 34.8542 77.5504 48.9275C77.5504 63.0009 66.1018 74.4082 51.9775 74.4082C49.6699 74.4082 47.4319 74.096 45.3033 73.5262C48.7498 74.9632 52.5395 75.7561 56.5132 75.7611C72.5771 75.7611 85.5923 62.7829 85.5923 46.7819C85.5923 30.7759 72.5721 17.8076 56.5132 17.8076Z" fill="url(#paint2_linear_484_1220)"/>
<defs>
<linearGradient id="paint0_linear_484_1220" x1="80.143" y1="24.0942" x2="18.9708" y2="96.0219" gradientUnits="userSpaceOnUse">
<stop offset="0.278846" stop-color="#33CFFF"/>
<stop offset="1" stop-color="#0D87C5"/>
</linearGradient>
<linearGradient id="paint1_linear_484_1220" x1="80.143" y1="24.0942" x2="18.9708" y2="96.0219" gradientUnits="userSpaceOnUse">
<stop offset="0.278846" stop-color="#33CFFF"/>
<stop offset="1" stop-color="#0D87C5"/>
</linearGradient>
<linearGradient id="paint2_linear_484_1220" x1="80.143" y1="24.0942" x2="18.9708" y2="96.0219" gradientUnits="userSpaceOnUse">
<stop offset="0.278846" stop-color="#33CFFF"/>
<stop offset="1" stop-color="#0D87C5"/>
</linearGradient>
</defs>
</svg>
