<svg width="494" height="100" viewBox="0 0 494 100" fill="none" xmlns="http://www.w3.org/2000/svg">
<path d="M60.0565 94.6036C35.9259 94.6036 16.3658 75.114 16.3658 51.0704C16.3658 27.0268 35.9259 7.53717 60.0565 7.53717C72.2263 7.53717 83.2273 12.4975 91.1499 20.5005C82.0238 8.07731 67.2828 0 50.642 0C22.9256 0 0.456055 22.3835 0.456055 50C0.456055 77.6164 22.9256 100 50.637 100C63.14 100 74.5687 95.4311 83.3616 87.889C76.6128 92.1407 68.6256 94.6085 60.0565 94.6085" fill="url(#paint0_linear_484_931)"/>
<path d="M75.0771 14.5352C85.5808 20.665 92.6429 32.0228 92.6429 45.0257C92.6429 64.5302 76.773 80.3379 57.2029 80.3429C38.9906 80.3429 23.9959 66.6561 21.9967 49.0446C21.9618 49.7383 21.937 50.4321 21.937 51.1308C21.937 72.7363 39.5177 90.2487 61.1965 90.2487C82.8753 90.2487 100.456 72.7314 100.456 51.1308C100.456 34.3964 89.9076 20.1248 75.0771 14.5352Z" fill="url(#paint1_linear_484_931)"/>
<path d="M56.1485 17.2412C42.9741 17.2412 31.8487 25.9726 28.2729 37.9449C32.2665 29.0648 41.2135 22.8805 51.6128 22.8805C65.7371 22.8805 77.1857 34.2878 77.1857 48.3611C77.1857 62.4345 65.7371 73.8418 51.6128 73.8418C49.3052 73.8418 47.0671 73.5296 44.9386 72.9598C48.3851 74.3968 52.1748 75.1897 56.1485 75.1946C72.2123 75.1946 85.2276 62.2164 85.2276 46.2155C85.2276 30.2095 72.2074 17.2412 56.1485 17.2412Z" fill="url(#paint2_linear_484_931)"/>
<path d="M490.486 21.8174C491.33 21.8174 492.117 22.1334 492.674 22.7366C492.946 23.0091 493.161 23.3542 493.318 23.7283C493.619 24.4894 493.619 25.3376 493.318 26.0842C493.175 26.4583 492.946 26.8033 492.646 27.0759C492.345 27.3775 492.031 27.5935 491.629 27.7515C491.257 27.8951 490.871 27.9821 490.47 27.9821C490.069 27.9821 489.654 27.9096 489.282 27.7385C488.909 27.5674 488.566 27.3354 488.265 27.0484C487.694 26.4742 487.379 25.7116 487.379 24.9215C487.379 24.1313 487.408 24.3749 487.479 24.1023C487.549 23.8297 487.679 23.5557 487.793 23.3412C488.408 22.393 489.41 21.8174 490.483 21.8174M490.5 22.335C490.185 22.335 489.827 22.3785 489.542 22.5075C489.241 22.6365 488.97 22.8091 488.726 23.0541C488.482 23.2991 488.283 23.6007 488.154 23.9022C487.753 24.8359 487.954 25.9566 488.698 26.6758C488.941 26.9193 489.214 27.1208 489.543 27.2499C489.843 27.3789 490.187 27.4514 490.531 27.4514C490.874 27.4514 491.203 27.3789 491.489 27.2499C491.804 27.1208 492.075 26.9338 492.334 26.7033C492.592 26.4728 492.748 26.2147 492.878 25.8841C493.006 25.5826 493.079 25.2665 493.079 24.9215C493.079 24.5764 493.035 24.2313 492.878 23.9008C492.749 23.5847 492.563 23.3122 492.334 23.0816C492.091 22.8381 491.818 22.6365 491.489 22.5075C491.174 22.422 490.831 22.335 490.502 22.335M489.227 23.1396H490.558C490.93 23.1106 491.316 23.1831 491.645 23.3832C491.888 23.5557 492.018 23.8283 492.018 24.1299C492.018 24.4314 491.945 24.546 491.817 24.704C491.674 24.8765 491.473 24.9766 491.273 25.0201L492.031 26.5569H491.115L490.471 25.1781H490.057V26.5859H489.241V23.1367H489.227V23.1396ZM490.043 23.6862V24.6779H490.457C490.629 24.7069 490.829 24.6489 491.001 24.5489C491.13 24.4764 491.173 24.3183 491.173 24.1748C491.173 24.0313 491.13 23.8732 491.001 23.7717C490.829 23.6717 490.629 23.6282 490.429 23.6427L490.043 23.6862Z" fill="#1D3366"/>
<path d="M372.123 54.6692C374.133 57.2478 375.138 60.1973 375.138 63.5088C375.138 68.2859 373.463 72.0769 370.123 74.8727C366.782 77.6684 362.12 79.0617 356.146 79.0617H329.504V21.8984H355.25C361.061 21.8984 365.606 23.2284 368.901 25.8885C372.187 28.5485 373.825 32.1585 373.825 36.7186C373.825 40.0843 372.938 42.88 371.182 45.1058C369.417 47.3315 367.063 48.8786 364.13 49.7472C367.443 50.4529 370.105 52.0996 372.114 54.6692H372.123ZM343.445 45.0243H352.57C354.851 45.0243 356.607 44.5267 357.829 43.5134C359.052 42.5091 359.658 41.0343 359.658 39.08C359.658 37.1257 359.052 35.6328 357.829 34.6014C356.607 33.57 354.851 33.0542 352.57 33.0542H343.445V45.0243ZM359.124 66.2412C360.4 65.1826 361.043 63.6535 361.043 61.6449C361.043 59.6363 360.373 58.062 359.043 56.922C357.712 55.782 355.874 55.212 353.539 55.212H343.436V67.8336H353.702C356.037 67.8336 357.839 67.3088 359.115 66.2502L359.124 66.2412Z" fill="#1D3366"/>
<path d="M468.915 79.0617L457.185 61.5545L446.849 79.0617H430.936L449.392 49.9915L430.525 21.8984H446.849L458.415 39.1614L468.587 21.8984H484.5L466.208 50.7244L485.238 79.0617H468.915Z" fill="#1D3366"/>
<path d="M412.032 75.977C398.238 75.977 387.057 64.8361 387.057 51.0919C387.057 37.3478 398.238 26.2069 412.032 26.2069C418.988 26.2069 425.277 29.0424 429.806 33.6172C424.589 26.5157 416.162 21.8984 406.65 21.8984C390.807 21.8984 377.962 34.6936 377.962 50.4801C377.962 66.2666 390.807 79.0617 406.647 79.0617C413.794 79.0617 420.327 76.45 425.354 72.1387C421.496 74.5691 416.93 75.9798 412.032 75.9798" fill="#1D3366"/>
<path d="M420.617 30.207C426.621 33.711 430.658 40.2035 430.658 47.6365C430.658 58.7858 421.587 67.8221 410.4 67.8249C399.989 67.8249 391.418 60.0011 390.275 49.9337C390.255 50.3303 390.241 50.7269 390.241 51.1263C390.241 63.4767 400.29 73.4874 412.683 73.4874C425.075 73.4874 435.124 63.4739 435.124 51.1263C435.124 41.5604 429.095 33.4023 420.617 30.207Z" fill="#1D3366"/>
<path d="M409.798 31.7539C402.267 31.7539 395.908 36.7451 393.864 43.5888C396.147 38.5127 401.261 34.9775 407.205 34.9775C415.279 34.9775 421.824 41.4983 421.824 49.5431C421.824 57.5879 415.279 64.1087 407.205 64.1087C405.886 64.1087 404.607 63.9302 403.39 63.6045C405.36 64.4259 407.527 64.8792 409.798 64.882C418.981 64.882 426.421 57.4632 426.421 48.3165C426.421 39.167 418.978 31.7539 409.798 31.7539Z" fill="#1D3366"/>
<path d="M114.034 34.8158C116.419 30.496 119.74 27.1303 124.007 24.7186C128.274 22.3069 133.115 21.0967 138.521 21.0967C145.147 21.0967 150.818 22.8458 155.535 26.344C160.253 29.8423 163.406 34.6126 164.996 40.655H150.049C148.936 38.3229 147.355 36.5473 145.323 35.3282C143.283 34.1091 140.959 33.4995 138.362 33.4995C134.175 33.4995 130.783 34.9571 128.186 37.8723C125.588 40.7876 124.29 44.6833 124.29 49.5597C124.29 54.436 125.588 58.3318 128.186 61.247C130.783 64.1622 134.175 65.6198 138.362 65.6198C140.959 65.6198 143.274 65.0102 145.323 63.7912C147.364 62.5721 148.936 60.7964 150.049 58.4643H164.996C163.406 64.5067 160.253 69.2682 155.535 72.7399C150.818 76.2117 145.147 77.952 138.521 77.952C133.115 77.952 128.274 76.7506 124.007 74.3301C119.74 71.9184 116.419 68.5703 114.034 64.277C111.649 59.9749 110.456 55.072 110.456 49.5597C110.456 44.0473 111.649 39.1356 114.034 34.8158Z" fill="#1D3366"/>
<path d="M185.307 74.4447C180.934 72.0066 177.462 68.5967 174.892 64.2239C172.321 59.8511 171.04 54.9394 171.04 49.48C171.04 44.0206 172.321 39.1178 174.892 34.7715C177.462 30.4252 180.934 27.0329 185.307 24.5948C189.679 22.1566 194.494 20.9375 199.732 20.9375C204.971 20.9375 209.794 22.1566 214.158 24.5948C218.531 27.0329 221.976 30.4252 224.494 34.7715C227.011 39.1178 228.266 44.0206 228.266 49.48C228.266 54.9394 226.994 59.8599 224.45 64.2239C221.905 68.5967 218.46 72.0066 214.114 74.4447C209.768 76.8829 204.971 78.102 199.724 78.102C194.476 78.102 189.671 76.8829 185.298 74.4447H185.307ZM210.43 61.2468C213.107 58.2786 214.441 54.3563 214.441 49.48C214.441 44.6037 213.098 40.6107 210.43 37.6778C207.754 34.7361 204.194 33.2609 199.741 33.2609C195.289 33.2609 191.641 34.7185 188.973 37.6337C186.296 40.5489 184.962 44.4976 184.962 49.48C184.962 54.4623 186.296 58.3493 188.973 61.291C191.649 64.2327 195.236 65.6991 199.741 65.6991C204.247 65.6991 207.754 64.215 210.43 61.2468Z" fill="#1D3366"/>
<path d="M249.43 67.0506H267.239V77.5453H235.835V21.7324H249.43V67.0506Z" fill="#1D3366"/>
<path d="M310.093 25.2307C314.492 27.5628 317.893 30.8402 320.305 35.054C322.717 39.2678 323.927 44.1353 323.927 49.6477C323.927 55.1601 322.717 59.9569 320.305 64.1972C317.893 68.4375 314.475 71.7237 310.049 74.0559C305.623 76.3881 300.491 77.5541 294.66 77.5541H273.75V21.7324H294.66C300.544 21.7324 305.685 22.8985 310.084 25.2307H310.093ZM305.8 61.5647C308.662 58.7555 310.093 54.7802 310.093 49.6389C310.093 44.4975 308.662 40.4957 305.8 37.6335C302.938 34.7713 298.936 33.3402 293.795 33.3402H287.355V65.7785H293.795C298.936 65.7785 302.938 64.3739 305.8 61.5647Z" fill="#1D3366"/>
<defs>
<linearGradient id="paint0_linear_484_931" x1="79.7782" y1="23.5278" x2="18.606" y2="95.4555" gradientUnits="userSpaceOnUse">
<stop offset="0.278846" stop-color="#33CFFF"/>
<stop offset="1" stop-color="#0D87C5"/>
</linearGradient>
<linearGradient id="paint1_linear_484_931" x1="79.7782" y1="23.5278" x2="18.606" y2="95.4555" gradientUnits="userSpaceOnUse">
<stop offset="0.278846" stop-color="#33CFFF"/>
<stop offset="1" stop-color="#0D87C5"/>
</linearGradient>
<linearGradient id="paint2_linear_484_931" x1="79.7782" y1="23.5278" x2="18.606" y2="95.4555" gradientUnits="userSpaceOnUse">
<stop offset="0.278846" stop-color="#33CFFF"/>
<stop offset="1" stop-color="#0D87C5"/>
</linearGradient>
</defs>
</svg>
