<svg width="1299" height="178" viewBox="0 0 1299 178" fill="none" xmlns="http://www.w3.org/2000/svg">
<path d="M96.347 152.93C57.3387 152.93 25.7188 121.424 25.7188 82.5568C25.7188 43.6896 57.3387 12.1841 96.347 12.1841C116.02 12.1841 133.804 20.2026 146.611 33.1397C131.858 13.0572 108.029 0 81.128 0C36.3231 0 0 36.1837 0 80.8265C0 125.469 36.3231 161.653 81.12 161.653C101.332 161.653 119.807 154.267 134.021 142.075C123.111 148.948 110.199 152.938 96.347 152.938" fill="#232530"/>
<path d="M120.627 23.4924C137.607 33.4014 149.023 51.7616 149.023 72.7813C149.023 104.311 123.369 129.865 91.7325 129.873C62.2914 129.873 38.0519 107.747 34.8199 79.2779C34.7636 80.3994 34.7235 81.5208 34.7235 82.6503C34.7235 117.576 63.1436 145.886 98.1884 145.886C133.233 145.886 161.653 117.568 161.653 82.6503C161.653 55.5987 144.601 32.5283 120.627 23.4924Z" fill="#232530"/>
<path d="M90.029 27.8662C68.732 27.8662 50.7473 41.9808 44.9668 61.3343C51.4226 46.9794 65.8859 36.9822 82.6968 36.9822C105.529 36.9822 124.037 55.4225 124.037 78.1725C124.037 100.922 105.529 119.363 82.6968 119.363C78.9664 119.363 75.3486 118.858 71.9076 117.937C77.4791 120.26 83.6053 121.542 90.029 121.55C115.997 121.55 137.037 100.57 137.037 74.7039C137.037 48.8298 115.989 27.8662 90.029 27.8662Z" fill="#232530"/>
<path d="M230.708 128.11L211.069 92.4573H205.557V128.11H182.541V33.6804H221.157C228.604 33.6804 234.946 34.9855 240.197 37.5804C245.448 40.1907 249.364 43.7529 251.974 48.2825C254.569 52.812 255.874 57.8637 255.874 63.422C255.874 69.702 254.108 75.3063 250.561 80.2351C247.014 85.1639 241.794 88.6647 234.884 90.7222L256.672 128.126H230.708V128.11ZM205.542 76.1816H219.806C224.029 76.1816 227.176 75.1528 229.295 73.0953C231.399 71.0378 232.458 68.1205 232.458 64.3433C232.458 60.5661 231.399 57.9251 229.295 55.8676C227.192 53.8101 224.029 52.766 219.806 52.766H205.542V76.1816Z" fill="#232530"/>
<path d="M338.189 33.6804V52.1057H313.161V128.11H290.16V52.1057H265.133V33.6804H338.189Z" fill="#232530"/>
<path d="M372.353 33.6804V90.1848C372.353 95.8353 373.75 100.181 376.529 103.236C379.308 106.292 383.393 107.812 388.767 107.812C394.141 107.812 398.271 106.292 401.143 103.236C404.014 100.181 405.442 95.8353 405.442 90.1848V33.6804H428.443V90.0466C428.443 98.4762 426.646 105.601 423.069 111.435C419.476 117.27 414.654 121.661 408.605 124.625C402.555 127.588 395.799 129.062 388.352 129.062C380.905 129.062 374.241 127.604 368.376 124.686C362.495 121.769 357.858 117.378 354.45 111.497C351.041 105.616 349.337 98.4762 349.337 90.0313V33.6804H372.353Z" fill="#232530"/>
<path d="M460.211 125.7C454.745 123.458 450.369 120.141 447.098 115.75C443.828 111.359 442.093 106.061 441.924 99.8735H466.414C466.767 103.374 467.981 106.046 470.053 107.873C472.111 109.716 474.813 110.637 478.13 110.637C481.446 110.637 484.226 109.854 486.206 108.288C488.172 106.722 489.17 104.541 489.17 101.762C489.17 99.4282 488.387 97.5089 486.82 95.9735C485.254 94.4534 483.32 93.1943 481.032 92.2116C478.744 91.2289 475.489 90.1081 471.282 88.849C465.186 86.9604 460.211 85.0872 456.342 83.1986C452.488 81.31 449.171 78.5308 446.392 74.8611C443.613 71.1913 442.216 66.3854 442.216 60.4586C442.216 51.6758 445.394 44.7817 451.766 39.8068C458.138 34.832 466.43 32.3445 476.656 32.3445C486.882 32.3445 495.45 34.832 501.806 39.8068C508.178 44.7817 511.587 51.7065 512.032 60.5968H487.143C486.959 57.5412 485.838 55.1459 483.78 53.3955C481.723 51.6451 479.066 50.7699 475.842 50.7699C473.063 50.7699 470.821 51.5069 469.117 52.9963C467.412 54.4857 466.568 56.6046 466.568 59.3838C466.568 62.4393 467.996 64.8039 470.867 66.5082C473.738 68.2126 478.222 70.0551 484.318 72.0205C490.413 74.078 495.373 76.0587 499.181 77.9473C502.989 79.8359 506.29 82.569 509.069 86.1466C511.848 89.7396 513.245 94.3459 513.245 99.9963C513.245 105.647 511.879 110.268 509.146 114.66C506.413 119.051 502.436 122.552 497.246 125.147C492.041 127.757 485.899 129.047 478.821 129.047C471.742 129.047 465.723 127.926 460.257 125.684L460.211 125.7Z" fill="#232530"/>
<path d="M571.454 125.703C565.988 123.461 561.612 120.145 558.342 115.753C555.071 111.362 553.336 106.065 553.167 99.8766H577.658C578.011 103.377 579.224 106.049 581.297 107.876C583.354 109.719 586.056 110.64 589.373 110.64C592.69 110.64 595.469 109.857 597.45 108.291C599.415 106.725 600.413 104.544 600.413 101.765C600.413 99.4314 599.63 97.5121 598.064 95.9766C596.498 94.4565 594.563 93.1974 592.275 92.2148C589.987 91.2321 586.732 90.1112 582.525 88.8521C576.429 86.9635 571.454 85.0903 567.585 83.2017C563.731 81.3131 560.415 78.5339 557.635 74.8642C554.856 71.1945 553.459 66.3885 553.459 60.4617C553.459 51.6789 556.637 44.7848 563.009 39.8099C569.382 34.8351 577.673 32.3477 587.899 32.3477C598.125 32.3477 606.693 34.8351 613.05 39.8099C619.422 44.7848 622.83 51.7096 623.276 60.5999H598.386C598.202 57.5444 597.081 55.1491 595.024 53.3986C592.966 51.6482 590.31 50.773 587.085 50.773C584.306 50.773 582.064 51.51 580.36 52.9994C578.656 54.4888 577.811 56.6077 577.811 59.3869C577.811 62.4424 579.239 64.807 582.11 66.5114C584.982 68.2157 589.465 70.0582 595.561 72.0236C601.657 74.0811 606.616 76.0618 610.424 77.9504C614.232 79.839 617.533 82.5721 620.312 86.1497C623.091 89.7427 624.489 94.349 624.489 99.9995C624.489 105.65 623.122 110.272 620.389 114.663C617.656 119.054 613.679 122.555 608.489 125.15C603.284 127.76 597.142 129.05 590.064 129.05C582.986 129.05 576.967 127.929 571.5 125.688L571.454 125.703Z" fill="#232530"/>
<path d="M658.837 122.878C651.436 118.747 645.571 112.989 641.21 105.589C636.865 98.1877 634.684 89.8655 634.684 80.6375C634.684 71.4094 636.865 63.1027 641.21 55.7479C645.555 48.3931 651.436 42.6505 658.837 38.5355C666.238 34.4052 674.376 32.3477 683.25 32.3477C692.125 32.3477 700.263 34.4052 707.664 38.5355C715.065 42.6659 720.9 48.4084 725.153 55.7479C729.406 63.1027 731.54 71.3941 731.54 80.6375C731.54 89.8809 729.391 98.1877 725.076 105.589C720.761 112.989 714.942 118.747 707.587 122.878C700.232 127.008 692.11 129.066 683.235 129.066C674.36 129.066 666.222 127.008 658.821 122.878H658.837ZM701.353 100.537C705.883 95.516 708.14 88.8828 708.14 80.6221C708.14 72.3614 705.868 65.6208 701.353 60.646C696.824 55.6711 690.789 53.1837 683.25 53.1837C675.711 53.1837 669.554 55.6557 665.025 60.5845C660.495 65.5133 658.238 72.2079 658.238 80.6221C658.238 89.0364 660.495 95.6235 665.025 100.598C669.554 105.573 675.635 108.061 683.25 108.061C690.866 108.061 696.808 105.558 701.353 100.522V100.537Z" fill="#232530"/>
<path d="M767.331 110.36H797.472V128.125H744.33V33.6797H767.331V110.36Z" fill="#232530"/>
<path d="M831.099 33.6797V90.1842C831.099 95.8346 832.496 100.18 835.275 103.235C838.054 106.291 842.138 107.811 847.512 107.811C852.886 107.811 857.017 106.291 859.888 103.235C862.759 100.18 864.187 95.8346 864.187 90.1842V33.6797H887.188V90.046C887.188 98.4756 885.392 105.6 881.814 111.435C878.221 117.269 873.4 121.661 867.35 124.624C861.301 127.588 854.545 129.062 847.098 129.062C839.651 129.062 832.987 127.603 827.122 124.686C821.241 121.768 816.604 117.377 813.195 111.496C809.787 105.615 808.082 98.4756 808.082 90.0306V33.6797H831.083H831.099Z" fill="#232530"/>
<path d="M971.285 33.6797V52.1051H946.257V128.11H923.256V52.1051H898.228V33.6797H971.285Z" fill="#232530"/>
<path d="M1005.85 33.6797V128.125H982.847V33.6797H1005.85Z" fill="#232530"/>
<path d="M1042.78 122.878C1035.37 118.747 1029.51 112.989 1025.15 105.589C1020.8 98.1877 1018.62 89.8655 1018.62 80.6375C1018.62 71.4094 1020.8 63.1027 1025.15 55.7479C1029.49 48.3931 1035.37 42.6505 1042.78 38.5355C1050.18 34.4052 1058.31 32.3477 1067.19 32.3477C1076.06 32.3477 1084.2 34.4052 1091.6 38.5355C1099 42.6659 1104.84 48.4084 1109.09 55.7479C1113.34 63.1027 1115.48 71.3941 1115.48 80.6375C1115.48 89.8809 1113.33 98.1877 1109.01 105.589C1104.7 112.989 1098.88 118.747 1091.53 122.878C1084.17 127.008 1076.05 129.066 1067.17 129.066C1058.3 129.066 1050.16 127.008 1042.76 122.878H1042.78ZM1085.29 100.537C1089.82 95.516 1092.08 88.8828 1092.08 80.6221C1092.08 72.3614 1089.81 65.6208 1085.29 60.646C1080.76 55.6711 1074.73 53.1837 1067.19 53.1837C1059.65 53.1837 1053.49 55.6557 1048.96 60.5845C1044.43 65.5133 1042.18 72.2079 1042.18 80.6221C1042.18 89.0364 1044.43 95.6235 1048.96 100.598C1053.49 105.573 1059.57 108.061 1067.19 108.061C1074.8 108.061 1080.75 105.558 1085.29 100.522V100.537Z" fill="#232530"/>
<path d="M1212.76 128.11H1189.76L1151.29 69.8548V128.11H1128.28V33.6797H1151.29L1189.76 92.1956V33.6797H1212.76V128.125V128.11Z" fill="#232530"/>
<path d="M1245.04 125.703C1239.57 123.461 1235.2 120.145 1231.93 115.753C1228.66 111.362 1226.92 106.065 1226.75 99.8766H1251.24C1251.6 103.377 1252.81 106.049 1254.88 107.876C1256.94 109.719 1259.64 110.64 1262.96 110.64C1266.28 110.64 1269.05 109.857 1271.03 108.291C1273 106.725 1274 104.544 1274 101.765C1274 99.4314 1273.22 97.5121 1271.65 95.9766C1270.08 94.4565 1268.15 93.1974 1265.86 92.2148C1263.57 91.2321 1260.32 90.1112 1256.11 88.8521C1250.01 86.9635 1245.04 85.0903 1241.17 83.2017C1237.32 81.3131 1234 78.5339 1231.22 74.8642C1228.44 71.1945 1227.04 66.3885 1227.04 60.4617C1227.04 51.6789 1230.22 44.7848 1236.59 39.8099C1242.97 34.8351 1251.26 32.3477 1261.48 32.3477C1271.71 32.3477 1280.28 34.8351 1286.64 39.8099C1293.01 44.7848 1296.42 51.7096 1296.86 60.5999H1271.97C1271.79 57.5444 1270.67 55.1491 1268.61 53.3986C1266.55 51.6482 1263.89 50.773 1260.67 50.773C1257.89 50.773 1255.65 51.51 1253.95 52.9994C1252.24 54.4888 1251.4 56.6077 1251.4 59.3869C1251.4 62.4424 1252.82 64.807 1255.7 66.5114C1258.57 68.2157 1263.05 70.0582 1269.15 72.0236C1275.24 74.0811 1280.2 76.0618 1284.01 77.9504C1287.82 79.839 1291.12 82.5721 1293.9 86.1497C1296.68 89.7427 1298.07 94.349 1298.07 99.9995C1298.07 105.65 1296.71 110.272 1293.97 114.663C1291.24 119.054 1287.26 122.555 1282.07 125.15C1276.87 127.76 1270.73 129.05 1263.65 129.05C1256.57 129.05 1250.55 127.929 1245.09 125.688L1245.04 125.703Z" fill="#232530"/>
<path d="M496.328 170.739H483.247L480.738 177.627H477.694L488.184 148.995H491.433L501.882 177.627H498.838L496.328 170.739ZM495.465 168.332L489.788 152.647L484.111 168.332H495.465Z" fill="#232530"/>
<path d="M535.562 177.918C533.67 177.918 531.997 177.586 530.544 176.922C529.118 176.258 527.993 175.331 527.17 174.141C526.348 172.952 525.909 171.624 525.854 170.158H528.898C529.035 171.569 529.652 172.814 530.749 173.892C531.846 174.944 533.451 175.469 535.562 175.469C537.509 175.469 539.045 174.971 540.169 173.975C541.321 172.952 541.897 171.666 541.897 170.116C541.897 168.872 541.582 167.876 540.951 167.129C540.32 166.354 539.539 165.787 538.606 165.427C537.674 165.04 536.385 164.625 534.74 164.182C532.82 163.657 531.298 163.145 530.173 162.647C529.049 162.149 528.089 161.375 527.294 160.323C526.499 159.272 526.101 157.847 526.101 156.049C526.101 154.555 526.485 153.228 527.253 152.066C528.021 150.876 529.104 149.949 530.502 149.286C531.901 148.622 533.505 148.29 535.315 148.29C537.976 148.29 540.115 148.954 541.733 150.281C543.378 151.582 544.324 153.269 544.571 155.344H541.445C541.253 154.154 540.608 153.103 539.511 152.19C538.414 151.25 536.933 150.779 535.069 150.779C533.341 150.779 531.901 151.25 530.749 152.19C529.598 153.103 529.022 154.362 529.022 155.966C529.022 157.184 529.337 158.166 529.968 158.913C530.598 159.659 531.38 160.227 532.312 160.614C533.272 161.001 534.561 161.416 536.179 161.859C538.044 162.384 539.552 162.91 540.704 163.436C541.856 163.934 542.83 164.708 543.625 165.759C544.42 166.811 544.818 168.221 544.818 169.992C544.818 171.347 544.461 172.634 543.748 173.851C543.035 175.068 541.979 176.05 540.581 176.797C539.182 177.544 537.509 177.918 535.562 177.918Z" fill="#232530"/>
<path d="M564.739 177.959C562.627 177.959 560.721 177.489 559.021 176.548C557.348 175.58 556.018 174.224 555.03 172.482C554.071 170.711 553.591 168.65 553.591 166.299C553.591 163.947 554.084 161.9 555.072 160.157C556.059 158.387 557.403 157.031 559.103 156.091C560.803 155.123 562.709 154.638 564.821 154.638C566.932 154.638 568.838 155.123 570.539 156.091C572.266 157.031 573.61 158.387 574.57 160.157C575.557 161.9 576.051 163.947 576.051 166.299C576.051 168.623 575.557 170.67 574.57 172.44C573.583 174.211 572.225 175.58 570.498 176.548C568.77 177.489 566.85 177.959 564.739 177.959ZM564.739 175.428C566.219 175.428 567.591 175.096 568.852 174.432C570.114 173.74 571.128 172.717 571.896 171.361C572.692 169.978 573.089 168.291 573.089 166.299C573.089 164.307 572.705 162.633 571.937 161.278C571.169 159.895 570.155 158.871 568.893 158.207C567.632 157.516 566.261 157.17 564.78 157.17C563.299 157.17 561.928 157.516 560.666 158.207C559.405 158.871 558.39 159.895 557.622 161.278C556.882 162.633 556.511 164.307 556.511 166.299C556.511 168.291 556.882 169.978 557.622 171.361C558.39 172.717 559.391 173.74 560.625 174.432C561.886 175.096 563.258 175.428 564.739 175.428Z" fill="#232530"/>
<path d="M594.669 157.419H589.445V177.627H586.565V157.419H583.439V154.97H586.565V153.394C586.565 150.932 587.182 149.12 588.417 147.958C589.678 146.796 591.707 146.215 594.505 146.215V148.705C592.64 148.705 591.323 149.064 590.556 149.783C589.815 150.503 589.445 151.706 589.445 153.394V154.97H594.669V157.419Z" fill="#232530"/>
<path d="M607.47 157.419V171.486C607.47 172.869 607.731 173.823 608.252 174.349C608.773 174.875 609.692 175.137 611.008 175.137H613.641V177.627H610.556C608.526 177.627 607.018 177.157 606.031 176.216C605.043 175.248 604.55 173.671 604.55 171.486V157.419H601.424V154.97H604.55V149.286H607.47V154.97H613.641V157.419H607.47Z" fill="#232530"/>
<path d="M652.533 154.97L645.498 177.627H642.619L636.407 158.622L630.196 177.627H627.275L620.241 154.97H623.162L628.756 174.681L635.05 154.97H637.929L644.141 174.722L649.694 154.97H652.533Z" fill="#232530"/>
<path d="M659.667 166.257C659.667 163.934 660.119 161.9 661.024 160.157C661.957 158.387 663.232 157.031 664.85 156.091C666.496 155.123 668.347 154.638 670.403 154.638C672.543 154.638 674.38 155.136 675.916 156.132C677.479 157.128 678.603 158.401 679.289 159.95V154.97H682.168V177.627H679.289V172.606C678.576 174.155 677.438 175.442 675.875 176.465C674.339 177.461 672.501 177.959 670.362 177.959C668.333 177.959 666.496 177.475 664.85 176.507C663.232 175.538 661.957 174.169 661.024 172.399C660.119 170.628 659.667 168.581 659.667 166.257ZM679.289 166.299C679.289 164.473 678.919 162.868 678.178 161.485C677.438 160.102 676.423 159.037 675.134 158.29C673.873 157.543 672.474 157.17 670.938 157.17C669.348 157.17 667.922 157.529 666.66 158.249C665.399 158.968 664.398 160.019 663.657 161.402C662.944 162.758 662.588 164.376 662.588 166.257C662.588 168.111 662.944 169.743 663.657 171.154C664.398 172.537 665.399 173.602 666.66 174.349C667.922 175.068 669.348 175.428 670.938 175.428C672.474 175.428 673.873 175.054 675.134 174.307C676.423 173.561 677.438 172.495 678.178 171.112C678.919 169.729 679.289 168.125 679.289 166.299Z" fill="#232530"/>
<path d="M696.147 158.996C696.777 157.585 697.737 156.492 699.026 155.717C700.342 154.943 701.947 154.555 703.839 154.555V157.585H703.057C700.973 157.585 699.3 158.152 698.039 159.286C696.777 160.42 696.147 162.315 696.147 164.971V177.627H693.267V154.97H696.147V158.996Z" fill="#232530"/>
<path d="M733.017 165.137C733.017 166.133 732.989 166.894 732.935 167.419H714.3C714.382 169.134 714.794 170.6 715.534 171.818C716.275 173.035 717.248 173.962 718.455 174.598C719.661 175.207 720.978 175.511 722.404 175.511C724.269 175.511 725.832 175.054 727.093 174.141C728.382 173.229 729.232 171.998 729.644 170.448H732.688C732.139 172.661 730.96 174.473 729.15 175.884C727.368 177.267 725.119 177.959 722.404 177.959C720.292 177.959 718.4 177.489 716.727 176.548C715.054 175.58 713.738 174.224 712.778 172.482C711.846 170.711 711.379 168.65 711.379 166.299C711.379 163.947 711.846 161.886 712.778 160.116C713.71 158.345 715.013 156.99 716.686 156.049C718.359 155.109 720.265 154.638 722.404 154.638C724.543 154.638 726.408 155.109 727.998 156.049C729.616 156.99 730.85 158.262 731.701 159.867C732.578 161.444 733.017 163.2 733.017 165.137ZM730.096 165.054C730.124 163.366 729.781 161.928 729.068 160.738C728.382 159.549 727.436 158.65 726.229 158.041C725.023 157.433 723.706 157.128 722.28 157.128C720.141 157.128 718.318 157.82 716.809 159.203C715.301 160.586 714.465 162.536 714.3 165.054H730.096Z" fill="#232530"/>
<path d="M773.926 177.627L766.809 165.51H761.503V177.627H758.623V148.622H767.262C770.471 148.622 772.898 149.396 774.543 150.945C776.216 152.495 777.052 154.528 777.052 157.045C777.052 159.148 776.449 160.946 775.242 162.44C774.063 163.906 772.308 164.86 769.977 165.303L777.381 177.627H773.926ZM761.503 163.145H767.303C769.552 163.145 771.238 162.592 772.363 161.485C773.515 160.379 774.091 158.899 774.091 157.045C774.091 155.136 773.542 153.67 772.445 152.647C771.348 151.595 769.62 151.07 767.262 151.07H761.503V163.145Z" fill="#232530"/>
<path d="M807.613 165.137C807.613 166.133 807.585 166.894 807.531 167.419H788.896C788.978 169.134 789.39 170.6 790.13 171.818C790.87 173.035 791.844 173.962 793.051 174.598C794.257 175.207 795.574 175.511 797 175.511C798.865 175.511 800.428 175.054 801.689 174.141C802.978 173.229 803.828 171.998 804.24 170.448H807.284C806.735 172.661 805.556 174.473 803.746 175.884C801.963 177.267 799.715 177.959 797 177.959C794.888 177.959 792.996 177.489 791.323 176.548C789.65 175.58 788.334 174.224 787.374 172.482C786.442 170.711 785.975 168.65 785.975 166.299C785.975 163.947 786.442 161.886 787.374 160.116C788.306 158.345 789.609 156.99 791.282 156.049C792.955 155.109 794.861 154.638 797 154.638C799.139 154.638 801.004 155.109 802.594 156.049C804.212 156.99 805.446 158.262 806.297 159.867C807.174 161.444 807.613 163.2 807.613 165.137ZM804.692 165.054C804.72 163.366 804.377 161.928 803.664 160.738C802.978 159.549 802.032 158.65 800.825 158.041C799.619 157.433 798.302 157.128 796.876 157.128C794.737 157.128 792.914 157.82 791.405 159.203C789.897 160.586 789.061 162.536 788.896 165.054H804.692Z" fill="#232530"/>
<path d="M825.386 174.805L832.956 154.97H836L826.991 177.627H823.741L814.732 154.97H817.817L825.386 174.805Z" fill="#232530"/>
<path d="M854.259 177.959C852.147 177.959 850.241 177.489 848.541 176.548C846.868 175.58 845.538 174.224 844.551 172.482C843.591 170.711 843.111 168.65 843.111 166.299C843.111 163.947 843.605 161.9 844.592 160.157C845.579 158.387 846.923 157.031 848.623 156.091C850.323 155.123 852.229 154.638 854.341 154.638C856.453 154.638 858.359 155.123 860.059 156.091C861.787 157.031 863.13 158.387 864.09 160.157C865.078 161.9 865.571 163.947 865.571 166.299C865.571 168.623 865.078 170.67 864.09 172.44C863.103 174.211 861.746 175.58 860.018 176.548C858.29 177.489 856.37 177.959 854.259 177.959ZM854.259 175.428C855.74 175.428 857.111 175.096 858.372 174.432C859.634 173.74 860.649 172.717 861.416 171.361C862.212 169.978 862.609 168.291 862.609 166.299C862.609 164.307 862.225 162.633 861.458 161.278C860.69 159.895 859.675 158.871 858.414 158.207C857.152 157.516 855.781 157.17 854.3 157.17C852.819 157.17 851.448 157.516 850.186 158.207C848.925 158.871 847.91 159.895 847.142 161.278C846.402 162.633 846.032 164.307 846.032 166.299C846.032 168.291 846.402 169.978 847.142 171.361C847.91 172.717 848.911 173.74 850.145 174.432C851.407 175.096 852.778 175.428 854.259 175.428Z" fill="#232530"/>
<path d="M878.225 146.92V177.627H875.345V146.92H878.225Z" fill="#232530"/>
<path d="M908.728 154.97V177.627H905.848V173.644C905.19 175.054 904.175 176.133 902.804 176.88C901.433 177.627 899.897 178.001 898.197 178.001C895.509 178.001 893.315 177.171 891.615 175.511C889.915 173.823 889.065 171.389 889.065 168.208V154.97H891.903V167.876C891.903 170.338 892.506 172.219 893.713 173.519C894.947 174.819 896.62 175.469 898.732 175.469C900.898 175.469 902.626 174.778 903.915 173.395C905.204 172.011 905.848 169.978 905.848 167.295V154.97H908.728Z" fill="#232530"/>
<path d="M923.57 157.419V171.486C923.57 172.869 923.831 173.823 924.352 174.349C924.873 174.875 925.791 175.137 927.108 175.137H929.74V177.627H926.655C924.626 177.627 923.118 177.157 922.13 176.216C921.143 175.248 920.649 173.671 920.649 171.486V157.419H917.523V154.97H920.649V149.286H923.57V154.97H929.74V157.419H923.57Z" fill="#232530"/>
<path d="M940.454 150.696C939.878 150.696 939.385 150.489 938.973 150.074C938.562 149.659 938.356 149.147 938.356 148.539C938.356 147.93 938.562 147.432 938.973 147.045C939.385 146.63 939.878 146.422 940.454 146.422C941.03 146.422 941.524 146.63 941.935 147.045C942.346 147.432 942.552 147.93 942.552 148.539C942.552 149.147 942.346 149.659 941.935 150.074C941.524 150.489 941.03 150.696 940.454 150.696ZM941.894 154.97V177.627H939.014V154.97H941.894Z" fill="#232530"/>
<path d="M962.771 177.959C960.659 177.959 958.753 177.489 957.053 176.548C955.38 175.58 954.05 174.224 953.063 172.482C952.103 170.711 951.623 168.65 951.623 166.299C951.623 163.947 952.117 161.9 953.104 160.157C954.091 158.387 955.435 157.031 957.135 156.091C958.836 155.123 960.742 154.638 962.853 154.638C964.965 154.638 966.871 155.123 968.571 156.091C970.299 157.031 971.643 158.387 972.603 160.157C973.59 161.9 974.083 163.947 974.083 166.299C974.083 168.623 973.59 170.67 972.603 172.44C971.615 174.211 970.258 175.58 968.53 176.548C966.802 177.489 964.883 177.959 962.771 177.959ZM962.771 175.428C964.252 175.428 965.623 175.096 966.885 174.432C968.146 173.74 969.161 172.717 969.929 171.361C970.724 169.978 971.122 168.291 971.122 166.299C971.122 164.307 970.738 162.633 969.97 161.278C969.202 159.895 968.187 158.871 966.926 158.207C965.664 157.516 964.293 157.17 962.812 157.17C961.331 157.17 959.96 157.516 958.699 158.207C957.437 158.871 956.422 159.895 955.654 161.278C954.914 162.633 954.544 164.307 954.544 166.299C954.544 168.291 954.914 169.978 955.654 171.361C956.422 172.717 957.423 173.74 958.657 174.432C959.919 175.096 961.29 175.428 962.771 175.428Z" fill="#232530"/>
<path d="M994.388 154.555C997.076 154.555 999.27 155.399 1000.97 157.087C1002.67 158.747 1003.52 161.167 1003.52 164.348V177.627H1000.68V164.68C1000.68 162.218 1000.06 160.337 998.831 159.037C997.624 157.737 995.965 157.087 993.853 157.087C991.687 157.087 989.959 157.778 988.67 159.162C987.381 160.545 986.737 162.578 986.737 165.261V177.627H983.857V154.97H986.737V158.83C987.45 157.446 988.478 156.395 989.822 155.676C991.166 154.929 992.688 154.555 994.388 154.555Z" fill="#232530"/>
</svg>
