<svg width="365" height="55" viewBox="0 0 365 55" fill="none" xmlns="http://www.w3.org/2000/svg">
<path d="M165.258 39.3602C163.756 38.7417 162.553 37.8268 161.654 36.6153C160.755 35.4038 160.278 33.9424 160.231 32.2353H166.963C167.06 33.2011 167.394 33.9381 167.964 34.4422C168.529 34.9505 169.272 35.2047 170.184 35.2047C171.096 35.2047 171.86 34.9887 172.404 34.5566C172.944 34.1245 173.219 33.523 173.219 32.7563C173.219 32.1124 173.003 31.5829 172.573 31.1593C172.142 30.74 171.611 30.3926 170.982 30.1215C170.353 29.8504 169.458 29.5412 168.301 29.1939C166.626 28.6728 165.258 28.156 164.195 27.635C163.135 27.114 162.223 26.3473 161.459 25.3349C160.695 24.3225 160.311 22.9966 160.311 21.3615C160.311 18.9386 161.185 17.0366 162.937 15.6642C164.688 14.2917 166.968 13.6055 169.779 13.6055C172.59 13.6055 174.945 14.2917 176.692 15.6642C178.444 17.0366 179.381 18.947 179.503 21.3997H172.662C172.611 20.5567 172.303 19.8959 171.737 19.413C171.172 18.9301 170.441 18.6886 169.555 18.6886C168.791 18.6886 168.175 18.892 167.706 19.3029C167.238 19.7137 167.006 20.2983 167.006 21.065C167.006 21.908 167.398 22.5603 168.187 23.0305C168.977 23.5007 170.209 24.009 171.885 24.5512C173.561 25.1188 174.924 25.6653 175.971 26.1863C177.017 26.7073 177.925 27.4613 178.689 28.4483C179.453 29.4395 179.837 30.7103 179.837 32.2692C179.837 33.828 179.461 35.103 178.71 36.3145C177.959 37.526 176.865 38.4918 175.439 39.2077C174.008 39.9278 172.32 40.2836 170.374 40.2836C168.428 40.2836 166.773 39.9744 165.271 39.356L165.258 39.3602Z" fill="#232530"/>
<path d="M189.279 38.5808C187.244 37.4413 185.632 35.8528 184.433 33.8111C183.239 31.7693 182.639 29.4734 182.639 26.9276C182.639 24.3818 183.239 22.0901 184.433 20.0611C185.628 18.0321 187.244 16.4478 189.279 15.3126C191.313 14.1731 193.55 13.6055 195.99 13.6055C198.43 13.6055 200.667 14.1731 202.701 15.3126C204.735 16.452 206.339 18.0363 207.508 20.0611C208.678 22.0901 209.264 24.3776 209.264 26.9276C209.264 29.4777 208.673 31.7693 207.487 33.8111C206.301 35.8528 204.702 37.4413 202.68 38.5808C200.658 39.7203 198.425 40.2879 195.986 40.2879C193.546 40.2879 191.309 39.7203 189.275 38.5808H189.279ZM200.966 32.4174C202.211 31.0323 202.832 29.2023 202.832 26.9234C202.832 24.6444 202.207 22.7848 200.966 21.4124C199.721 20.0399 198.062 19.3537 195.99 19.3537C193.917 19.3537 192.225 20.0357 190.98 21.3954C189.735 22.7552 189.114 24.6021 189.114 26.9234C189.114 29.2447 189.735 31.0619 190.98 32.4344C192.225 33.8068 193.896 34.4931 195.99 34.4931C198.083 34.4931 199.717 33.8026 200.966 32.4132V32.4174Z" fill="#232530"/>
<path d="M219.103 35.3029H227.389V40.2039H212.781V14.1484H219.103V35.3029Z" fill="#232530"/>
<path d="M236.632 14.1484V29.7368C236.632 31.2957 237.017 32.4944 237.78 33.3374C238.544 34.1804 239.667 34.5997 241.144 34.5997C242.622 34.5997 243.757 34.1804 244.546 33.3374C245.336 32.4944 245.728 31.2957 245.728 29.7368V14.1484H252.051V29.6987C252.051 32.0242 251.557 33.9897 250.574 35.5994C249.586 37.2091 248.261 38.4206 246.598 39.2381C244.935 40.0557 243.078 40.4623 241.031 40.4623C238.983 40.4623 237.152 40.0599 235.539 39.2551C233.923 38.4502 232.648 37.2387 231.711 35.6164C230.774 33.994 230.305 32.0243 230.305 29.6945V14.1484H236.628H236.632Z" fill="#232530"/>
<path d="M275.168 14.1484V19.2316H268.288V40.1997H261.966V19.2316H255.086V14.1484H275.168Z" fill="#232530"/>
<path d="M284.67 14.1484V40.2039H278.347V14.1484H284.67Z" fill="#232530"/>
<path d="M294.82 38.5808C292.786 37.4413 291.173 35.8528 289.975 33.8111C288.78 31.7693 288.181 29.4734 288.181 26.9276C288.181 24.3818 288.78 22.0901 289.975 20.0611C291.169 18.0321 292.786 16.4478 294.82 15.3126C296.855 14.1731 299.092 13.6055 301.531 13.6055C303.971 13.6055 306.208 14.1731 308.242 15.3126C310.277 16.452 311.881 18.0363 313.05 20.0611C314.219 22.0901 314.806 24.3776 314.806 26.9276C314.806 29.4777 314.215 31.7693 313.029 33.8111C311.843 35.8528 310.243 37.4413 308.221 38.5808C306.2 39.7203 303.967 40.2879 301.527 40.2879C299.088 40.2879 296.85 39.7203 294.816 38.5808H294.82ZM306.508 32.4174C307.753 31.0323 308.373 29.2023 308.373 26.9234C308.373 24.6444 307.749 22.7848 306.508 21.4124C305.263 20.0399 303.604 19.3537 301.531 19.3537C299.459 19.3537 297.766 20.0357 296.521 21.3954C295.276 22.7552 294.656 24.6021 294.656 26.9234C294.656 29.2447 295.276 31.0619 296.521 32.4344C297.766 33.8068 299.438 34.4931 301.531 34.4931C303.625 34.4931 305.258 33.8026 306.508 32.4132V32.4174Z" fill="#232530"/>
<path d="M341.549 40.1997H335.226L324.649 24.1284V40.1997H318.326V14.1484H324.649L335.226 30.2917V14.1484H341.549V40.2039V40.1997Z" fill="#232530"/>
<path d="M350.421 39.3602C348.919 38.7417 347.716 37.8268 346.817 36.6153C345.918 35.4038 345.441 33.9424 345.394 32.2353H352.127C352.224 33.2011 352.557 33.9381 353.127 34.4422C353.692 34.9505 354.435 35.2047 355.347 35.2047C356.259 35.2047 357.023 34.9887 357.567 34.5566C358.107 34.1245 358.382 33.523 358.382 32.7563C358.382 32.1124 358.166 31.5829 357.736 31.1593C357.305 30.74 356.774 30.3926 356.145 30.1215C355.516 29.8504 354.621 29.5412 353.464 29.1939C351.789 28.6728 350.421 28.156 349.358 27.635C348.298 27.114 347.387 26.3473 346.623 25.3349C345.859 24.3225 345.474 22.9966 345.474 21.3615C345.474 18.9386 346.348 17.0366 348.1 15.6642C349.851 14.2917 352.131 13.6055 354.942 13.6055C357.753 13.6055 360.108 14.2917 361.855 15.6642C363.607 17.0366 364.544 18.947 364.667 21.3997H357.825C357.774 20.5567 357.466 19.8959 356.9 19.413C356.335 18.9301 355.604 18.6886 354.718 18.6886C353.954 18.6886 353.338 18.892 352.869 19.3029C352.401 19.7137 352.169 20.2983 352.169 21.065C352.169 21.908 352.561 22.5603 353.351 23.0305C354.14 23.5007 355.372 24.009 357.048 24.5512C358.724 25.1188 360.087 25.6653 361.134 26.1863C362.18 26.7073 363.088 27.4613 363.852 28.4483C364.616 29.4395 365 30.7103 365 32.2692C365 33.828 364.624 35.103 363.873 36.3145C363.122 37.526 362.029 38.4918 360.602 39.2077C359.171 39.9278 357.483 40.2836 355.537 40.2836C353.591 40.2836 351.937 39.9744 350.434 39.356L350.421 39.3602Z" fill="#232530"/>
<path d="M71.5897 40.2026L66.1912 30.3666H64.676V40.2026H58.349V14.1513H68.9643C71.0114 14.1513 72.7546 14.5114 74.1981 15.2273C75.6417 15.9474 76.718 16.9301 77.4355 18.1798C78.1488 19.4294 78.5076 20.823 78.5076 22.3564C78.5076 24.0889 78.0222 25.6351 77.0472 26.9948C76.0722 28.3546 74.6371 29.3204 72.7377 29.888L78.7271 40.2068H71.5897V40.2026ZM64.6717 25.8765H68.5929C69.7536 25.8765 70.6189 25.5927 71.2014 25.0251C71.7796 24.4575 72.0709 23.6526 72.0709 22.6106C72.0709 21.5685 71.7796 20.8399 71.2014 20.2723C70.6231 19.7047 69.7536 19.4167 68.5929 19.4167H64.6717V25.8765Z" fill="#232530"/>
<path d="M101.135 14.1513V19.2345H94.2555V40.2026H87.9327V19.2345H81.0528V14.1513H101.135Z" fill="#232530"/>
<path d="M110.527 14.1513V29.7397C110.527 31.2986 110.911 32.4973 111.675 33.3403C112.439 34.1833 113.562 34.6026 115.039 34.6026C116.516 34.6026 117.652 34.1833 118.441 33.3403C119.23 32.4973 119.623 31.2986 119.623 29.7397V14.1513H125.945V29.7016C125.945 32.0271 125.452 33.9926 124.468 35.6023C123.48 37.212 122.155 38.4235 120.492 39.241C118.829 40.0586 116.972 40.4652 114.925 40.4652C112.878 40.4652 111.046 40.0628 109.434 39.258C107.817 38.4531 106.542 37.2416 105.605 35.6193C104.668 33.9969 104.2 32.0272 104.2 29.6974V14.1513H110.527Z" fill="#232530"/>
<path d="M134.678 39.3618C133.176 38.7433 131.973 37.8284 131.074 36.6169C130.175 35.4054 129.698 33.944 129.651 32.2369H136.384C136.481 33.2027 136.814 33.9397 137.384 34.4438C137.949 34.9521 138.692 35.2063 139.604 35.2063C140.516 35.2063 141.28 34.9903 141.824 34.5582C142.364 34.1261 142.639 33.5246 142.639 32.7579C142.639 32.114 142.424 31.5845 141.993 31.1609C141.562 30.7416 141.031 30.3942 140.402 30.1231C139.773 29.852 138.878 29.5428 137.722 29.1954C136.046 28.6744 134.678 28.1576 133.615 27.6366C132.555 27.1156 131.644 26.3489 130.88 25.3365C130.116 24.3241 129.731 22.9982 129.731 21.3631C129.731 18.9401 130.605 17.0382 132.357 15.6657C134.108 14.2933 136.388 13.6071 139.199 13.6071C142.01 13.6071 144.365 14.2933 146.113 15.6657C147.864 17.0382 148.801 18.9486 148.924 21.4012H142.082C142.031 20.5583 141.723 19.8975 141.157 19.4146C140.592 18.9317 139.861 18.6902 138.975 18.6902C138.211 18.6902 137.595 18.8936 137.126 19.3044C136.658 19.7153 136.426 20.2999 136.426 21.0666C136.426 21.9096 136.818 22.5619 137.608 23.0321C138.397 23.5023 139.629 24.0106 141.305 24.5528C142.981 25.1204 144.344 25.6669 145.391 26.1879C146.438 26.7089 147.345 27.4629 148.109 28.4499C148.873 29.4411 149.257 30.7119 149.257 32.2708C149.257 33.8296 148.881 35.1046 148.13 36.3161C147.379 37.5276 146.286 38.4934 144.859 39.2093C143.428 39.9294 141.74 40.2852 139.794 40.2852C137.848 40.2852 136.194 39.976 134.691 39.3575L134.678 39.3618Z" fill="#232530"/>
<path d="M32.332 51.5158C19.2936 51.5404 8.67714 40.9715 8.65261 27.8963C8.62809 14.8212 19.1649 4.17232 32.2033 4.14772C38.5431 4.12312 44.6224 6.68156 49.0799 11.2019C40.2691 -0.944565 23.3128 -3.63216 11.1757 5.20554C-0.961394 14.0432 -3.61322 31.0483 5.19758 43.2193C14.0114 55.3904 30.9647 58.0534 43.1018 49.2157C43.6935 48.7759 44.2882 48.3116 44.8278 47.8473C41.1183 50.2766 36.7619 51.5435 32.332 51.5158Z" fill="#232530"/>
<path d="M40.3705 7.94541C49.5185 13.296 52.5842 25.0519 47.2744 34.2002C41.9401 43.3731 30.2169 46.4481 21.0965 41.1252C15.8664 38.0748 12.3868 32.6996 11.7185 26.6786V27.7887C11.7185 39.5723 21.2252 49.108 32.976 49.108C44.7268 49.108 54.2335 39.5723 54.2335 27.7887C54.1048 18.951 48.6172 11.0697 40.3705 7.94234V7.94541Z" fill="#232530"/>
<path d="M30.1924 9.41837C23.2087 9.39377 17.0773 14.0186 15.1184 20.7376C18.2883 13.7603 26.5074 10.6853 33.4635 13.8649C40.4195 17.0445 43.4852 25.2887 40.3184 32.266C38.0773 37.2291 33.1293 40.3811 27.7184 40.3811C26.5074 40.3565 25.2965 40.1996 24.11 39.9167C26.0414 40.7439 28.1046 41.156 30.2169 41.1314C38.9511 41.0791 45.9592 33.9204 45.9102 25.1596C45.8059 16.5033 38.8254 9.49832 30.1924 9.42144V9.41837Z" fill="#232530"/>
</svg>
