<svg width="250" height="250" viewBox="0 0 250 250" fill="none" xmlns="http://www.w3.org/2000/svg">
<mask id="mask0_746_1586" style="mask-type:alpha" maskUnits="userSpaceOnUse" x="0" y="0" width="251" height="250">
<path d="M149.003 236.509C88.6756 236.509 39.7747 187.785 39.7747 127.676C39.7747 67.5669 88.6756 18.8429 149.003 18.8429C179.428 18.8429 206.93 31.2438 226.737 51.2512C203.921 20.1933 167.069 0 125.466 0C56.1744 0 0 55.9589 0 125C0 194.041 56.1745 250 125.454 250C156.712 250 185.284 238.578 207.266 219.722C190.394 230.352 170.426 236.521 149.003 236.521" fill="url(#paint0_linear_746_1586)"/>
<path d="M186.552 36.3281C212.812 51.6527 230.467 80.0472 230.467 112.555C230.467 161.316 190.792 200.835 141.866 200.847C96.335 200.847 58.8481 166.63 53.8498 122.602C53.7628 124.336 53.7006 126.07 53.7006 127.817C53.7006 181.831 97.653 225.612 151.85 225.612C206.048 225.612 250 181.819 250 127.817C250 85.9812 223.629 50.3024 186.552 36.3281Z" fill="url(#paint1_linear_746_1586)"/>
<path d="M139.232 43.0938C106.296 43.0938 78.4818 64.9223 69.5422 94.8529C79.5263 72.6527 101.894 57.1919 127.892 57.1919C163.204 57.1919 191.825 85.7102 191.825 120.894C191.825 156.077 163.204 184.595 127.892 184.595C122.123 184.595 116.528 183.815 111.207 182.39C119.823 185.983 129.297 187.965 139.232 187.977C179.392 187.977 211.93 155.532 211.93 115.529C211.93 75.5145 179.38 43.0938 139.232 43.0938Z" fill="url(#paint2_linear_746_1586)"/>
</mask>
<g mask="url(#mask0_746_1586)">
<rect x="-7.14282" y="-7.13672" width="260.714" height="260.714" fill="#232530"/>
</g>
<defs>
<linearGradient id="paint0_linear_746_1586" x1="201.677" y1="25" x2="42.4783" y2="213.248" gradientUnits="userSpaceOnUse">
<stop offset="0.278846" stop-color="#7DFF6B"/>
<stop offset="1" stop-color="#0B826F"/>
</linearGradient>
<linearGradient id="paint1_linear_746_1586" x1="228.304" y1="55.2565" x2="111.431" y2="213.283" gradientUnits="userSpaceOnUse">
<stop offset="0.278846" stop-color="#7DFF6B"/>
<stop offset="1" stop-color="#0B826F"/>
</linearGradient>
<linearGradient id="paint2_linear_746_1586" x1="196.193" y1="57.5821" x2="105.436" y2="173.872" gradientUnits="userSpaceOnUse">
<stop offset="0.278846" stop-color="#7DFF6B"/>
<stop offset="1" stop-color="#0B826F"/>
</linearGradient>
</defs>
</svg>
