<svg width="365" height="50" viewBox="0 0 365 50" fill="none" xmlns="http://www.w3.org/2000/svg">
<path d="M27.0638 42.9569C16.1064 42.9569 7.22438 34.1072 7.22438 23.1897C7.22438 12.2721 16.1064 3.42242 27.0638 3.42242C32.5899 3.42242 37.5853 5.67479 41.1828 9.30872C37.0388 3.66769 30.3451 0 22.7888 0C10.2031 0 0 10.1638 0 22.7036C0 35.2435 10.2031 45.4073 22.7865 45.4073C28.4639 45.4073 33.6536 43.3327 37.6463 39.908C34.5817 41.8386 30.9549 42.9592 27.0638 42.9592" fill="url(#paint0_linear_751_3168)"/>
<path d="M33.884 6.59885C38.6536 9.38224 41.8604 14.5395 41.8604 20.4438C41.8604 29.3002 34.6541 36.4781 25.7676 36.4804C17.4976 36.4804 10.6887 30.2655 9.78088 22.2686C9.76507 22.5837 9.75378 22.8987 9.75378 23.2159C9.75378 33.0264 17.737 40.9783 27.581 40.9783C37.425 40.9783 45.4082 33.0242 45.4082 23.2159C45.4082 15.6173 40.6183 9.13698 33.884 6.59885Z" fill="url(#paint1_linear_751_3168)"/>
<path d="M25.289 7.82743C19.3067 7.82743 14.2549 11.7921 12.6311 17.2284C14.4446 13.1962 18.5073 10.3881 23.2294 10.3881C29.6431 10.3881 34.8418 15.5678 34.8418 21.9581C34.8418 28.3485 29.6431 33.5282 23.2294 33.5282C22.1816 33.5282 21.1653 33.3865 20.1988 33.1277C21.7638 33.7802 23.4846 34.1403 25.289 34.1425C32.5834 34.1425 38.4935 28.2495 38.4935 20.9838C38.4935 13.716 32.5812 7.82743 25.289 7.82743Z" fill="url(#paint2_linear_751_3168)"/>
<path d="M64.8056 35.9854L59.2892 25.9706H57.7408V35.9854H51.2755V9.46059H62.1229C64.2147 9.46059 65.996 9.8272 67.471 10.5561C68.9461 11.2893 70.046 12.2899 70.7792 13.5622C71.5081 14.8346 71.8747 16.2535 71.8747 17.8148C71.8747 19.5788 71.3787 21.1531 70.3824 22.5375C69.386 23.922 67.9196 24.9053 65.9787 25.4833L72.099 35.9897H64.8056V35.9854ZM57.7365 21.3989H61.7433C62.9294 21.3989 63.8136 21.1099 64.4088 20.532C64.9997 19.9541 65.2973 19.1346 65.2973 18.0736C65.2973 17.0126 64.9997 16.2708 64.4088 15.6928C63.8179 15.1149 62.9294 14.8216 61.7433 14.8216H57.7365V21.3989Z" fill="url(#paint3_linear_751_3168)"/>
<path d="M94.997 9.46059V14.6362H87.9667V35.9854H81.5057V14.6362H74.4755V9.46059H94.997Z" fill="url(#paint4_linear_751_3168)"/>
<path d="M104.594 9.46059V25.3323C104.594 26.9195 104.986 28.1401 105.767 28.9984C106.547 29.8566 107.695 30.2836 109.204 30.2836C110.714 30.2836 111.874 29.8566 112.68 28.9984C113.487 28.1401 113.888 26.9195 113.888 25.3323V9.46059H120.349V25.2935C120.349 27.6613 119.844 29.6626 118.84 31.3015C117.83 32.9404 116.476 34.1739 114.777 35.0063C113.077 35.8387 111.18 36.2528 109.088 36.2528C106.996 36.2528 105.124 35.843 103.476 35.0236C101.825 34.2041 100.522 32.9706 99.5645 31.3187C98.607 29.6669 98.1282 27.6613 98.1282 25.2892V9.46059H104.594Z" fill="url(#paint5_linear_751_3168)"/>
<path d="M129.273 35.3082C127.737 34.6785 126.508 33.7469 125.589 32.5134C124.671 31.2799 124.183 29.7919 124.136 28.0538H131.015C131.114 29.0372 131.455 29.7876 132.037 30.3009C132.615 30.8184 133.375 31.0772 134.306 31.0772C135.238 31.0772 136.018 30.8572 136.575 30.4173C137.127 29.9774 137.407 29.365 137.407 28.5843C137.407 27.9287 137.187 27.3896 136.747 26.9583C136.307 26.5313 135.764 26.1777 135.121 25.9016C134.479 25.6256 133.564 25.3108 132.383 24.9571C130.67 24.4266 129.273 23.9004 128.186 23.3699C127.103 22.8394 126.172 22.0588 125.391 21.028C124.61 19.9972 124.218 18.6472 124.218 16.9824C124.218 14.5154 125.111 12.5789 126.901 11.1815C128.691 9.78407 131.02 9.08537 133.892 9.08537C136.765 9.08537 139.171 9.78407 140.957 11.1815C142.747 12.5789 143.704 14.524 143.829 17.0212H136.838C136.786 16.163 136.471 15.4901 135.893 14.9985C135.315 14.5068 134.569 14.2609 133.663 14.2609C132.883 14.2609 132.253 14.468 131.774 14.8863C131.296 15.3047 131.058 15.8999 131.058 16.6805C131.058 17.5388 131.46 18.203 132.266 18.6817C133.073 19.1605 134.332 19.678 136.044 20.2301C137.757 20.808 139.15 21.3644 140.219 21.8949C141.289 22.4254 142.216 23.1931 142.997 24.198C143.778 25.2073 144.17 26.5011 144.17 28.0883C144.17 29.6755 143.786 30.9737 143.019 32.2072C142.251 33.4407 141.134 34.4241 139.676 35.153C138.214 35.8862 136.489 36.2485 134.5 36.2485C132.512 36.2485 130.821 35.9336 129.286 35.3039L129.273 35.3082Z" fill="url(#paint6_linear_751_3168)"/>
<path d="M160.521 35.3088C158.985 34.6791 157.756 33.7475 156.838 32.514C155.919 31.2805 155.431 29.7925 155.384 28.0544H162.263C162.363 29.0377 162.703 29.7882 163.286 30.3014C163.864 30.819 164.623 31.0778 165.554 31.0778C166.486 31.0778 167.266 30.8578 167.823 30.4179C168.375 29.978 168.655 29.3655 168.655 28.5849C168.655 27.9293 168.435 27.3902 167.995 26.9589C167.555 26.5319 167.012 26.1782 166.369 25.9022C165.727 25.6262 164.812 25.3113 163.631 24.9577C161.918 24.4272 160.521 23.901 159.434 23.3705C158.351 22.84 157.42 22.0594 156.639 21.0286C155.858 19.9978 155.466 18.6478 155.466 16.983C155.466 14.516 156.359 12.5794 158.149 11.182C159.939 9.78464 162.268 9.08594 165.14 9.08594C168.013 9.08594 170.419 9.78464 172.205 11.182C173.995 12.5794 174.952 14.5246 175.077 17.0218H168.086C168.034 16.1635 167.719 15.4907 167.141 14.999C166.563 14.5073 165.817 14.2615 164.912 14.2615C164.131 14.2615 163.501 14.4685 163.022 14.8869C162.544 15.3052 162.306 15.9004 162.306 16.6811C162.306 17.5394 162.708 18.2036 163.514 18.6823C164.321 19.161 165.58 19.6786 167.292 20.2307C169.005 20.8086 170.398 21.365 171.467 21.8955C172.537 22.426 173.464 23.1937 174.245 24.1986C175.026 25.2078 175.418 26.5017 175.418 28.0889C175.418 29.6761 175.034 30.9743 174.267 32.2078C173.499 33.4413 172.382 34.4246 170.924 35.1535C169.462 35.8867 167.737 36.249 165.748 36.249C163.76 36.249 162.069 35.9342 160.534 35.3045L160.521 35.3088Z" fill="white"/>
<path d="M185.067 34.5152C182.988 33.355 181.34 31.7377 180.115 29.6588C178.895 27.58 178.282 25.2423 178.282 22.6502C178.282 20.0581 178.895 17.7248 180.115 15.6589C181.336 13.593 182.988 11.9799 185.067 10.8241C187.146 9.66388 189.431 9.08594 191.924 9.08594C194.417 9.08594 196.703 9.66388 198.782 10.8241C200.861 11.9843 202.5 13.5973 203.695 15.6589C204.889 17.7248 205.489 20.0538 205.489 22.6502C205.489 25.2466 204.885 27.58 203.673 29.6588C202.461 31.7377 200.827 33.355 198.761 34.5152C196.695 35.6754 194.413 36.2533 191.92 36.2533C189.427 36.2533 187.141 35.6754 185.062 34.5152H185.067ZM197.01 28.2398C198.282 26.8295 198.916 24.9663 198.916 22.6459C198.916 20.3255 198.278 18.4321 197.01 17.0347C195.737 15.6373 194.042 14.9386 191.924 14.9386C189.807 14.9386 188.077 15.633 186.805 17.0175C185.532 18.402 184.898 20.2824 184.898 22.6459C184.898 25.0094 185.532 26.8597 186.805 28.2571C188.077 29.6545 189.785 30.3532 191.924 30.3532C194.064 30.3532 195.733 29.6502 197.01 28.2355V28.2398Z" fill="white"/>
<path d="M215.542 30.9999H224.009V35.99H209.082V9.46094H215.542V30.9999Z" fill="white"/>
<path d="M233.455 9.46094V25.3327C233.455 26.9198 233.847 28.1404 234.628 28.9987C235.409 29.857 236.556 30.284 238.065 30.284C239.575 30.284 240.735 29.857 241.542 28.9987C242.348 28.1404 242.749 26.9198 242.749 25.3327V9.46094H249.21V25.2939C249.21 27.6617 248.706 29.6629 247.701 31.3018C246.692 32.9408 245.337 34.1743 243.638 35.0067C241.939 35.8391 240.041 36.2531 237.949 36.2531C235.857 36.2531 233.985 35.8434 232.338 35.0239C230.686 34.2045 229.383 32.9709 228.426 31.3191C227.468 29.6672 226.99 27.6617 226.99 25.2895V9.46094H233.45H233.455Z" fill="white"/>
<path d="M272.833 9.46094V14.6365H265.803V35.9857H259.342V14.6365H252.311V9.46094H272.833Z" fill="white"/>
<path d="M282.542 9.46094V35.99H276.081V9.46094H282.542Z" fill="white"/>
<path d="M292.915 34.5152C290.836 33.355 289.188 31.7377 287.963 29.6588C286.743 27.58 286.13 25.2423 286.13 22.6502C286.13 20.0581 286.743 17.7248 287.963 15.6589C289.184 13.593 290.836 11.9799 292.915 10.8241C294.993 9.66388 297.279 9.08594 299.772 9.08594C302.265 9.08594 304.551 9.66388 306.63 10.8241C308.709 11.9843 310.348 13.5973 311.543 15.6589C312.737 17.7248 313.337 20.0538 313.337 22.6502C313.337 25.2466 312.733 27.58 311.521 29.6588C310.309 31.7377 308.674 33.355 306.609 34.5152C304.543 35.6754 302.261 36.2533 299.768 36.2533C297.275 36.2533 294.989 35.6754 292.91 34.5152H292.915ZM304.857 28.2398C306.13 26.8295 306.764 24.9663 306.764 22.6459C306.764 20.3255 306.125 18.4321 304.857 17.0347C303.585 15.6373 301.89 14.9386 299.772 14.9386C297.655 14.9386 295.925 15.633 294.653 17.0175C293.38 18.402 292.746 20.2824 292.746 22.6459C292.746 25.0094 293.38 26.8597 294.653 28.2571C295.925 29.6545 297.633 30.3532 299.772 30.3532C301.912 30.3532 303.581 29.6502 304.857 28.2355V28.2398Z" fill="white"/>
<path d="M340.664 35.9857H334.203L323.395 19.6223V35.9857H316.934V9.46094H323.395L334.203 25.8977V9.46094H340.664V35.99V35.9857Z" fill="white"/>
<path d="M349.73 35.3088C348.195 34.6791 346.966 33.7475 346.047 32.514C345.128 31.2805 344.641 29.7925 344.594 28.0544H351.473C351.572 29.0377 351.913 29.7882 352.495 30.3014C353.073 30.819 353.832 31.0778 354.764 31.0778C355.695 31.0778 356.476 30.8578 357.032 30.4179C357.584 29.978 357.865 29.3655 357.865 28.5849C357.865 27.9293 357.645 27.3902 357.205 26.9589C356.765 26.5319 356.221 26.1782 355.579 25.9022C354.936 25.6262 354.022 25.3113 352.84 24.9577C351.128 24.4272 349.73 23.901 348.643 23.3705C347.561 22.84 346.629 22.0594 345.849 21.0286C345.068 19.9978 344.675 18.6478 344.675 16.983C344.675 14.516 345.568 12.5794 347.358 11.182C349.148 9.78464 351.477 9.08594 354.35 9.08594C357.222 9.08594 359.629 9.78464 361.414 11.182C363.204 12.5794 364.162 14.5246 364.287 17.0218H357.295C357.244 16.1635 356.929 15.4907 356.351 14.999C355.773 14.5073 355.027 14.2615 354.121 14.2615C353.34 14.2615 352.711 14.4685 352.232 14.8869C351.753 15.3052 351.516 15.9004 351.516 16.6811C351.516 17.5394 351.917 18.2036 352.724 18.6823C353.53 19.161 354.79 19.6786 356.502 20.2307C358.214 20.8086 359.607 21.365 360.677 21.8955C361.747 22.426 362.674 23.1937 363.454 24.1986C364.235 25.2078 364.628 26.5017 364.628 28.0889C364.628 29.6761 364.244 30.9743 363.476 32.2078C362.708 33.4413 361.591 34.4246 360.133 35.1535C358.671 35.8867 356.946 36.249 354.958 36.249C352.969 36.249 351.279 35.9342 349.743 35.3045L349.73 35.3088Z" fill="white"/>
<path d="M139.418 47.9589H135.744L135.039 49.8938H134.184L137.13 41.8513H138.043L140.978 49.8938H140.123L139.418 47.9589ZM139.176 47.2829L137.581 42.877L135.986 47.2829H139.176Z" fill="white"/>
<path d="M150.439 49.9754C149.907 49.9754 149.438 49.8822 149.029 49.6957C148.629 49.5092 148.313 49.2489 148.082 48.9147C147.851 48.5806 147.727 48.2076 147.712 47.7958H148.567C148.606 48.1921 148.779 48.5417 149.087 48.8448C149.395 49.1401 149.846 49.2877 150.439 49.2877C150.986 49.2877 151.417 49.1478 151.733 48.8681C152.057 48.5806 152.218 48.2192 152.218 47.7841C152.218 47.4344 152.13 47.1547 151.953 46.9449C151.776 46.7273 151.556 46.568 151.294 46.467C151.032 46.3582 150.67 46.2416 150.208 46.1173C149.669 45.9697 149.241 45.8259 148.925 45.686C148.609 45.5462 148.34 45.3286 148.116 45.0333C147.893 44.738 147.781 44.3378 147.781 43.8328C147.781 43.4131 147.889 43.0402 148.105 42.7138C148.321 42.3797 148.625 42.1193 149.018 41.9328C149.411 41.7464 149.861 41.6531 150.37 41.6531C151.117 41.6531 151.718 41.8396 152.172 42.2126C152.634 42.5778 152.9 43.0518 152.97 43.6346H152.091C152.037 43.3005 151.856 43.0052 151.548 42.7488C151.24 42.4846 150.824 42.3525 150.3 42.3525C149.815 42.3525 149.411 42.4846 149.087 42.7488C148.764 43.0052 148.602 43.3587 148.602 43.8094C148.602 44.1513 148.69 44.4272 148.868 44.637C149.045 44.8468 149.264 45.0061 149.526 45.1149C149.796 45.2237 150.158 45.3402 150.612 45.4646C151.136 45.6122 151.56 45.7599 151.883 45.9075C152.207 46.0474 152.48 46.2649 152.704 46.5602C152.927 46.8555 153.039 47.2518 153.039 47.7491C153.039 48.1299 152.939 48.4912 152.738 48.8331C152.538 49.175 152.242 49.4509 151.849 49.6607C151.456 49.8705 150.986 49.9754 150.439 49.9754Z" fill="white"/>
<path d="M158.635 49.9871C158.041 49.9871 157.506 49.855 157.028 49.5908C156.559 49.3188 156.185 48.938 155.908 48.4485C155.638 47.9512 155.503 47.3723 155.503 46.7118C155.503 46.0513 155.642 45.4762 155.919 44.9867C156.196 44.4894 156.574 44.1086 157.052 43.8444C157.529 43.5724 158.065 43.4365 158.658 43.4365C159.251 43.4365 159.786 43.5724 160.264 43.8444C160.749 44.1086 161.127 44.4894 161.396 44.9867C161.674 45.4762 161.812 46.0513 161.812 46.7118C161.812 47.3645 161.674 47.9395 161.396 48.4368C161.119 48.9341 160.738 49.3188 160.252 49.5908C159.767 49.855 159.228 49.9871 158.635 49.9871ZM158.635 49.276C159.051 49.276 159.436 49.1828 159.79 48.9963C160.144 48.802 160.429 48.5145 160.645 48.1338C160.869 47.7452 160.98 47.2712 160.98 46.7118C160.98 46.1523 160.872 45.6822 160.657 45.3014C160.441 44.9129 160.156 44.6254 159.802 44.4389C159.447 44.2446 159.062 44.1475 158.646 44.1475C158.23 44.1475 157.845 44.2446 157.491 44.4389C157.136 44.6254 156.851 44.9129 156.636 45.3014C156.428 45.6822 156.324 46.1523 156.324 46.7118C156.324 47.2712 156.428 47.7452 156.636 48.1338C156.851 48.5145 157.132 48.802 157.479 48.9963C157.833 49.1828 158.219 49.276 158.635 49.276Z" fill="white"/>
<path d="M167.042 44.2174H165.575V49.8938H164.766V44.2174H163.888V43.5297H164.766V43.0868C164.766 42.3952 164.939 41.8862 165.286 41.5599C165.64 41.2335 166.21 41.0703 166.996 41.0703V41.7697C166.472 41.7697 166.102 41.8707 165.887 42.0727C165.679 42.2748 165.575 42.6128 165.575 43.0868V43.5297H167.042V44.2174Z" fill="white"/>
<path d="M170.638 44.2174V48.1687C170.638 48.5573 170.711 48.8254 170.858 48.973C171.004 49.1206 171.262 49.1945 171.632 49.1945H172.371V49.8938H171.505C170.935 49.8938 170.511 49.7617 170.234 49.4975C169.956 49.2255 169.818 48.7826 169.818 48.1687V44.2174H168.939V43.5297H169.818V41.9328H170.638V43.5297H172.371V44.2174H170.638Z" fill="white"/>
<path d="M183.296 43.5297L181.32 49.8938H180.511L178.766 44.5554L177.022 49.8938H176.201L174.225 43.5297H175.046L176.617 49.0662L178.385 43.5297H179.194L180.939 49.0779L182.499 43.5297H183.296Z" fill="white"/>
<path d="M185.3 46.7001C185.3 46.0474 185.427 45.4762 185.681 44.9867C185.943 44.4894 186.301 44.1086 186.756 43.8444C187.218 43.5724 187.738 43.4365 188.316 43.4365C188.917 43.4365 189.433 43.5763 189.864 43.8561C190.303 44.1358 190.619 44.4933 190.812 44.9284V43.5297H191.621V49.8938H190.812V48.4834C190.611 48.9186 190.292 49.2799 189.853 49.5674C189.421 49.8472 188.905 49.9871 188.304 49.9871C187.734 49.9871 187.218 49.8511 186.756 49.5791C186.301 49.3071 185.943 48.9225 185.681 48.4252C185.427 47.9279 185.3 47.3528 185.3 46.7001ZM190.812 46.7118C190.812 46.1989 190.708 45.7482 190.5 45.3597C190.292 44.9711 190.007 44.672 189.645 44.4622C189.29 44.2524 188.897 44.1475 188.466 44.1475C188.019 44.1475 187.619 44.2485 187.264 44.4505C186.91 44.6526 186.629 44.9478 186.421 45.3364C186.22 45.7171 186.12 46.1717 186.12 46.7001C186.12 47.2207 186.22 47.6792 186.421 48.0755C186.629 48.464 186.91 48.7632 187.264 48.973C187.619 49.175 188.019 49.276 188.466 49.276C188.897 49.276 189.29 49.1711 189.645 48.9613C190.007 48.7515 190.292 48.4524 190.5 48.0638C190.708 47.6753 190.812 47.2246 190.812 46.7118Z" fill="white"/>
<path d="M195.547 44.6603C195.724 44.264 195.994 43.9571 196.356 43.7395C196.726 43.5219 197.176 43.4131 197.708 43.4131V44.264H197.488C196.903 44.264 196.433 44.4233 196.078 44.7419C195.724 45.0605 195.547 45.5928 195.547 46.3388V49.8938H194.738V43.5297H195.547V44.6603Z" fill="white"/>
<path d="M205.904 46.3854C205.904 46.6651 205.896 46.8788 205.881 47.0265H200.646C200.669 47.5082 200.785 47.9201 200.993 48.262C201.201 48.6039 201.474 48.8642 201.813 49.0429C202.152 49.2139 202.522 49.2994 202.923 49.2994C203.446 49.2994 203.886 49.1711 204.24 48.9147C204.602 48.6583 204.841 48.3125 204.956 47.8773H205.811C205.657 48.499 205.326 49.008 204.818 49.4043C204.317 49.7928 203.685 49.9871 202.923 49.9871C202.329 49.9871 201.798 49.855 201.328 49.5908C200.858 49.3188 200.488 48.938 200.219 48.4485C199.957 47.9512 199.826 47.3723 199.826 46.7118C199.826 46.0513 199.957 45.4723 200.219 44.975C200.481 44.4777 200.847 44.097 201.316 43.8328C201.786 43.5686 202.322 43.4365 202.923 43.4365C203.523 43.4365 204.047 43.5686 204.494 43.8328C204.949 44.097 205.295 44.4544 205.534 44.9051C205.781 45.348 205.904 45.8415 205.904 46.3854ZM205.083 46.3621C205.091 45.8881 204.995 45.484 204.795 45.1499C204.602 44.8157 204.336 44.5632 203.997 44.3922C203.658 44.2213 203.289 44.1358 202.888 44.1358C202.287 44.1358 201.775 44.3301 201.351 44.7186C200.927 45.1071 200.692 45.655 200.646 46.3621H205.083Z" fill="white"/>
<path d="M217.395 49.8938L215.396 46.4903H213.906V49.8938H213.097V41.7464H215.523C216.425 41.7464 217.106 41.9639 217.568 42.3991C218.038 42.8342 218.273 43.4054 218.273 44.1125C218.273 44.7031 218.104 45.2081 217.765 45.6278C217.434 46.0396 216.941 46.3077 216.286 46.432L218.366 49.8938H217.395ZM213.906 45.8259H215.535C216.166 45.8259 216.64 45.6705 216.956 45.3597C217.28 45.0489 217.441 44.6331 217.441 44.1125C217.441 43.5763 217.287 43.1645 216.979 42.877C216.671 42.5817 216.186 42.434 215.523 42.434H213.906V45.8259Z" fill="white"/>
<path d="M226.858 46.3854C226.858 46.6651 226.85 46.8788 226.835 47.0265H221.6C221.623 47.5082 221.739 47.9201 221.947 48.262C222.155 48.6039 222.428 48.8642 222.767 49.0429C223.106 49.2139 223.476 49.2994 223.877 49.2994C224.4 49.2994 224.839 49.1711 225.194 48.9147C225.556 48.6583 225.795 48.3125 225.91 47.8773H226.765C226.611 48.499 226.28 49.008 225.772 49.4043C225.271 49.7928 224.639 49.9871 223.877 49.9871C223.283 49.9871 222.752 49.855 222.282 49.5908C221.812 49.3188 221.442 48.938 221.173 48.4485C220.911 47.9512 220.78 47.3723 220.78 46.7118C220.78 46.0513 220.911 45.4723 221.173 44.975C221.435 44.4777 221.8 44.097 222.27 43.8328C222.74 43.5686 223.276 43.4365 223.877 43.4365C224.477 43.4365 225.001 43.5686 225.448 43.8328C225.903 44.097 226.249 44.4544 226.488 44.9051C226.734 45.348 226.858 45.8415 226.858 46.3854ZM226.037 46.3621C226.045 45.8881 225.949 45.484 225.748 45.1499C225.556 44.8157 225.29 44.5632 224.951 44.3922C224.612 44.2213 224.242 44.1358 223.842 44.1358C223.241 44.1358 222.729 44.3301 222.305 44.7186C221.881 45.1071 221.646 45.655 221.6 46.3621H226.037Z" fill="white"/>
<path d="M231.85 49.1012L233.976 43.5297H234.832L232.301 49.8938H231.388L228.858 43.5297H229.724L231.85 49.1012Z" fill="white"/>
<path d="M239.961 49.9871C239.367 49.9871 238.832 49.855 238.354 49.5908C237.884 49.3188 237.511 48.938 237.234 48.4485C236.964 47.9512 236.829 47.3723 236.829 46.7118C236.829 46.0513 236.968 45.4762 237.245 44.9867C237.522 44.4894 237.9 44.1086 238.377 43.8444C238.855 43.5724 239.39 43.4365 239.984 43.4365C240.577 43.4365 241.112 43.5724 241.59 43.8444C242.075 44.1086 242.453 44.4894 242.722 44.9867C243 45.4762 243.138 46.0513 243.138 46.7118C243.138 47.3645 243 47.9395 242.722 48.4368C242.445 48.9341 242.064 49.3188 241.578 49.5908C241.093 49.855 240.554 49.9871 239.961 49.9871ZM239.961 49.276C240.377 49.276 240.762 49.1828 241.116 48.9963C241.47 48.802 241.755 48.5145 241.971 48.1338C242.195 47.7452 242.306 47.2712 242.306 46.7118C242.306 46.1523 242.198 45.6822 241.983 45.3014C241.767 44.9129 241.482 44.6254 241.128 44.4389C240.773 44.2446 240.388 44.1475 239.972 44.1475C239.556 44.1475 239.171 44.2446 238.817 44.4389C238.462 44.6254 238.177 44.9129 237.962 45.3014C237.754 45.6822 237.65 46.1523 237.65 46.7118C237.65 47.2712 237.754 47.7452 237.962 48.1338C238.177 48.5145 238.458 48.802 238.805 48.9963C239.159 49.1828 239.545 49.276 239.961 49.276Z" fill="white"/>
<path d="M246.693 41.2685V49.8938H245.884V41.2685H246.693Z" fill="white"/>
<path d="M255.261 43.5297V49.8938H254.452V48.7748C254.267 49.1711 253.982 49.4742 253.597 49.684C253.212 49.8938 252.78 49.9987 252.303 49.9987C251.548 49.9987 250.931 49.7656 250.454 49.2994C249.976 48.8254 249.737 48.1415 249.737 47.2479V43.5297H250.535V47.1547C250.535 47.8463 250.704 48.3747 251.043 48.7399C251.39 49.1051 251.86 49.2877 252.453 49.2877C253.061 49.2877 253.547 49.0934 253.909 48.7049C254.271 48.3164 254.452 47.7452 254.452 46.9915V43.5297H255.261Z" fill="white"/>
<path d="M259.43 44.2174V48.1687C259.43 48.5573 259.503 48.8254 259.65 48.973C259.796 49.1206 260.054 49.1945 260.424 49.1945H261.163V49.8938H260.297C259.727 49.8938 259.303 49.7617 259.026 49.4975C258.748 49.2255 258.61 48.7826 258.61 48.1687V44.2174H257.731V43.5297H258.61V41.9328H259.43V43.5297H261.163V44.2174H259.43Z" fill="white"/>
<path d="M264.173 42.3291C264.011 42.3291 263.872 42.2709 263.757 42.1543C263.641 42.0378 263.583 41.894 263.583 41.723C263.583 41.5521 263.641 41.4122 263.757 41.3034C263.872 41.1869 264.011 41.1286 264.173 41.1286C264.334 41.1286 264.473 41.1869 264.589 41.3034C264.704 41.4122 264.762 41.5521 264.762 41.723C264.762 41.894 264.704 42.0378 264.589 42.1543C264.473 42.2709 264.334 42.3291 264.173 42.3291ZM264.577 43.5297V49.8938H263.768V43.5297H264.577Z" fill="white"/>
<path d="M270.442 49.9871C269.848 49.9871 269.313 49.855 268.835 49.5908C268.365 49.3188 267.992 48.938 267.715 48.4485C267.445 47.9512 267.31 47.3723 267.31 46.7118C267.31 46.0513 267.449 45.4762 267.726 44.9867C268.003 44.4894 268.381 44.1086 268.858 43.8444C269.336 43.5724 269.871 43.4365 270.465 43.4365C271.058 43.4365 271.593 43.5724 272.071 43.8444C272.556 44.1086 272.934 44.4894 273.203 44.9867C273.48 45.4762 273.619 46.0513 273.619 46.7118C273.619 47.3645 273.48 47.9395 273.203 48.4368C272.926 48.9341 272.545 49.3188 272.059 49.5908C271.574 49.855 271.035 49.9871 270.442 49.9871ZM270.442 49.276C270.857 49.276 271.243 49.1828 271.597 48.9963C271.951 48.802 272.236 48.5145 272.452 48.1338C272.675 47.7452 272.787 47.2712 272.787 46.7118C272.787 46.1523 272.679 45.6822 272.464 45.3014C272.248 44.9129 271.963 44.6254 271.609 44.4389C271.254 44.2446 270.869 44.1475 270.453 44.1475C270.037 44.1475 269.652 44.2446 269.298 44.4389C268.943 44.6254 268.658 44.9129 268.442 45.3014C268.234 45.6822 268.131 46.1523 268.131 46.7118C268.131 47.2712 268.234 47.7452 268.442 48.1338C268.658 48.5145 268.939 48.802 269.286 48.9963C269.64 49.1828 270.026 49.276 270.442 49.276Z" fill="white"/>
<path d="M279.323 43.4131C280.078 43.4131 280.694 43.6501 281.172 44.1242C281.649 44.5904 281.888 45.2703 281.888 46.1639V49.8938H281.091V46.2572C281.091 45.5656 280.917 45.0372 280.571 44.672C280.232 44.3068 279.766 44.1242 279.173 44.1242C278.564 44.1242 278.079 44.3184 277.717 44.7069C277.355 45.0955 277.173 45.6666 277.173 46.4204V49.8938H276.365V43.5297H277.173V44.6137C277.374 44.2252 277.663 43.9299 278.04 43.7279C278.418 43.518 278.845 43.4131 279.323 43.4131Z" fill="white"/>
<defs>
<linearGradient id="paint0_linear_751_3168" x1="33.5446" y1="37.2915" x2="58.3314" y2="-26.2797" gradientUnits="userSpaceOnUse">
<stop stop-color="#A9DD2F"/>
<stop offset="0.72" stop-color="#2DBA95"/>
</linearGradient>
<linearGradient id="paint1_linear_751_3168" x1="33.5446" y1="37.2915" x2="58.3314" y2="-26.2797" gradientUnits="userSpaceOnUse">
<stop stop-color="#A9DD2F"/>
<stop offset="0.72" stop-color="#2DBA95"/>
</linearGradient>
<linearGradient id="paint2_linear_751_3168" x1="33.5446" y1="37.2915" x2="58.3314" y2="-26.2797" gradientUnits="userSpaceOnUse">
<stop stop-color="#A9DD2F"/>
<stop offset="0.72" stop-color="#2DBA95"/>
</linearGradient>
<linearGradient id="paint3_linear_751_3168" x1="33.5446" y1="37.2915" x2="58.3314" y2="-26.2797" gradientUnits="userSpaceOnUse">
<stop stop-color="#A9DD2F"/>
<stop offset="0.72" stop-color="#2DBA95"/>
</linearGradient>
<linearGradient id="paint4_linear_751_3168" x1="33.5446" y1="37.2915" x2="58.3314" y2="-26.2797" gradientUnits="userSpaceOnUse">
<stop stop-color="#A9DD2F"/>
<stop offset="0.72" stop-color="#2DBA95"/>
</linearGradient>
<linearGradient id="paint5_linear_751_3168" x1="33.5446" y1="37.2915" x2="58.3314" y2="-26.2797" gradientUnits="userSpaceOnUse">
<stop stop-color="#A9DD2F"/>
<stop offset="0.72" stop-color="#2DBA95"/>
</linearGradient>
<linearGradient id="paint6_linear_751_3168" x1="33.5446" y1="37.2915" x2="58.3314" y2="-26.2797" gradientUnits="userSpaceOnUse">
<stop stop-color="#A9DD2F"/>
<stop offset="0.72" stop-color="#2DBA95"/>
</linearGradient>
</defs>
</svg>
