<svg width="730" height="109" viewBox="0 0 730 109" fill="none" xmlns="http://www.w3.org/2000/svg">
<path d="M330.516 78.7243C327.511 77.4874 325.105 75.6574 323.307 73.2345C321.509 70.8115 320.555 67.8887 320.462 64.4745H333.927C334.121 66.4061 334.788 67.8802 335.927 68.8884C337.059 69.905 338.544 70.4133 340.368 70.4133C342.191 70.4133 343.719 69.9812 344.808 69.1171C345.889 68.253 346.437 67.0499 346.437 65.5165C346.437 64.2288 346.007 63.1698 345.146 62.3226C344.285 61.4839 343.221 60.7892 341.963 60.247C340.705 59.7048 338.916 59.0863 336.603 58.3916C333.251 57.3496 330.516 56.316 328.389 55.2739C326.27 54.2319 324.447 52.6985 322.919 50.6737C321.391 48.6489 320.623 45.9972 320.623 42.727C320.623 37.881 322.37 34.0771 325.873 31.3322C329.377 28.5873 333.935 27.2148 339.557 27.2148C345.18 27.2148 349.89 28.5873 353.385 31.3322C356.888 34.0771 358.762 37.898 359.007 42.8032H345.323C345.222 41.1173 344.606 39.7957 343.474 38.8299C342.343 37.8641 340.883 37.3812 339.11 37.3812C337.582 37.3812 336.35 37.7878 335.413 38.6096C334.476 39.4314 334.011 40.6005 334.011 42.1339C334.011 43.8199 334.796 45.1245 336.375 46.0649C337.953 47.0053 340.418 48.0219 343.77 49.1064C347.121 50.2416 349.848 51.3345 351.941 52.3765C354.035 53.4186 355.85 54.9266 357.378 56.9005C358.906 58.883 359.674 61.4246 359.674 64.5422C359.674 67.6599 358.923 70.21 357.42 72.633C355.917 75.0559 353.731 76.9875 350.878 78.4193C348.016 79.8595 344.639 80.5712 340.748 80.5712C336.856 80.5712 333.547 79.9527 330.542 78.7158L330.516 78.7243Z" fill="white"/>
<path d="M378.558 77.1655C374.489 74.8865 371.264 71.7095 368.867 67.626C366.478 63.5426 365.279 58.9508 365.279 53.8591C365.279 48.7675 366.478 44.1842 368.867 40.1261C371.255 36.068 374.489 32.8995 378.558 30.629C382.626 28.3501 387.1 27.2148 391.98 27.2148C396.859 27.2148 401.333 28.3501 405.402 30.629C409.471 32.908 412.679 36.0765 415.017 40.1261C417.355 44.1842 418.529 48.759 418.529 53.8591C418.529 58.9592 417.347 63.5426 414.975 67.626C412.603 71.7095 409.403 74.8865 405.36 77.1655C401.316 79.4444 396.851 80.5796 391.971 80.5796C387.092 80.5796 382.618 79.4444 378.549 77.1655H378.558ZM401.932 64.8388C404.423 62.0684 405.664 58.4086 405.664 53.8506C405.664 49.2927 404.414 45.5736 401.932 42.8286C399.442 40.0837 396.125 38.7113 391.98 38.7113C387.835 38.7113 384.45 40.0753 381.96 42.7948C379.469 45.5143 378.228 49.208 378.228 53.8506C378.228 58.4933 379.469 62.1277 381.96 64.8727C384.45 67.6176 387.793 68.99 391.98 68.99C396.167 68.99 399.434 67.6091 401.932 64.8303V64.8388Z" fill="white"/>
<path d="M438.206 70.6097H454.777V80.4117H425.561V28.3008H438.206V70.6097Z" fill="white"/>
<path d="M473.265 28.3008V59.4776C473.265 62.5952 474.033 64.9928 475.561 66.6787C477.089 68.3646 479.334 69.2033 482.289 69.2033C485.243 69.2033 487.514 68.3646 489.093 66.6787C490.671 64.9928 491.456 62.5952 491.456 59.4776V28.3008H504.102V59.4013C504.102 64.0524 503.114 67.9834 501.147 71.2027C499.172 74.4221 496.521 76.845 493.195 78.4801C489.869 80.1152 486.155 80.9285 482.061 80.9285C477.967 80.9285 474.303 80.1237 471.078 78.514C467.845 76.9044 465.296 74.4814 463.422 71.2366C461.548 67.9919 460.611 64.0524 460.611 59.3928V28.3008H473.256H473.265Z" fill="white"/>
<path d="M550.337 28.3008V38.4671H536.577V80.4033H523.931V38.4671H510.171V28.3008H550.337Z" fill="white"/>
<path d="M569.339 28.3008V80.4117H556.694V28.3008H569.339Z" fill="white"/>
<path d="M589.641 77.1655C585.572 74.8865 582.347 71.7095 579.95 67.626C577.561 63.5426 576.362 58.9508 576.362 53.8591C576.362 48.7675 577.561 44.1842 579.95 40.1261C582.339 36.068 585.572 32.8995 589.641 30.629C593.71 28.3501 598.184 27.2148 603.063 27.2148C607.942 27.2148 612.417 28.3501 616.485 30.629C620.554 32.908 623.762 36.0765 626.1 40.1261C628.439 44.1842 629.612 48.759 629.612 53.8591C629.612 58.9592 628.43 63.5426 626.058 67.626C623.686 71.7095 620.487 74.8865 616.443 77.1655C612.4 79.4444 607.934 80.5796 603.055 80.5796C598.176 80.5796 593.701 79.4444 589.633 77.1655H589.641ZM613.016 64.8388C615.506 62.0684 616.747 58.4086 616.747 53.8506C616.747 49.2927 615.498 45.5736 613.016 42.8286C610.526 40.0837 607.208 38.7113 603.063 38.7113C598.918 38.7113 595.533 40.0753 593.043 42.7948C590.553 45.5143 589.312 49.208 589.312 53.8506C589.312 58.4933 590.553 62.1277 593.043 64.8727C595.533 67.6176 598.876 68.99 603.063 68.99C607.25 68.99 610.517 67.6091 613.016 64.8303V64.8388Z" fill="white"/>
<path d="M683.098 80.4033H670.453L649.298 48.2607V80.4033H636.652V28.3008H649.298L670.453 60.5874V28.3008H683.098V80.4117V80.4033Z" fill="white"/>
<path d="M700.843 78.7243C697.837 77.4874 695.431 75.6574 693.633 73.2345C691.835 70.8115 690.881 67.8887 690.789 64.4745H704.253C704.447 66.4061 705.114 67.8802 706.254 68.8884C707.385 69.905 708.871 70.4133 710.694 70.4133C712.517 70.4133 714.045 69.9812 715.134 69.1171C716.215 68.253 716.764 67.0499 716.764 65.5165C716.764 64.2288 716.333 63.1698 715.472 62.3226C714.611 61.4839 713.547 60.7892 712.289 60.247C711.032 59.7048 709.242 59.0863 706.929 58.3916C703.578 57.3496 700.843 56.316 698.715 55.2739C696.596 54.2319 694.773 52.6985 693.245 50.6737C691.717 48.6489 690.949 45.9972 690.949 42.727C690.949 37.881 692.696 34.0771 696.2 31.3322C699.703 28.5873 704.261 27.2148 709.884 27.2148C715.506 27.2148 720.216 28.5873 723.711 31.3322C727.214 34.0771 729.088 37.898 729.333 42.8032H715.649C715.548 41.1173 714.932 39.7957 713.801 38.8299C712.669 37.8641 711.209 37.3812 709.436 37.3812C707.908 37.3812 706.676 37.7878 705.739 38.6096C704.802 39.4314 704.337 40.6005 704.337 42.1339C704.337 43.8199 705.122 45.1245 706.701 46.0649C708.28 47.0053 710.745 48.0219 714.096 49.1064C717.447 50.2416 720.174 51.3345 722.267 52.3765C724.361 53.4186 726.176 54.9266 727.704 56.9005C729.232 58.883 730 61.4246 730 64.5422C730 67.6599 729.249 70.21 727.746 72.633C726.243 75.0559 724.057 76.9875 721.204 78.4193C718.342 79.8595 714.965 80.5712 711.074 80.5712C707.182 80.5712 703.873 79.9527 700.868 78.7158L700.843 78.7243Z" fill="white"/>
<path d="M143.179 80.4051L132.382 60.7333H129.352V80.4051H116.698V28.3027H137.929C142.023 28.3027 145.509 29.0228 148.396 30.4545C151.283 31.8948 153.436 33.8603 154.871 36.3595C156.298 38.8587 157.015 41.646 157.015 44.7128C157.015 48.1779 156.044 51.2701 154.094 53.9896C152.144 56.7091 149.274 58.6407 145.475 59.776L157.454 80.4136H143.179V80.4051ZM129.343 51.753H137.186C139.507 51.753 141.238 51.1854 142.403 50.0502C143.559 48.9149 144.142 47.3053 144.142 45.2212C144.142 43.1371 143.559 41.6799 142.403 40.5446C141.246 39.4094 139.507 38.8333 137.186 38.8333H129.343V51.753Z" fill="url(#paint0_linear_835_774)"/>
<path d="M202.271 28.3027V38.469H188.511V80.4051H175.865V38.469H162.106V28.3027H202.271Z" fill="url(#paint1_linear_835_774)"/>
<path d="M221.054 28.3027V59.4794C221.054 62.5971 221.822 64.9947 223.35 66.6806C224.878 68.3665 227.123 69.2052 230.078 69.2052C233.032 69.2052 235.303 68.3665 236.882 66.6806C238.46 64.9947 239.245 62.5971 239.245 59.4794V28.3027H251.891V59.4032C251.891 64.0543 250.903 67.9853 248.936 71.2046C246.961 74.424 244.31 76.8469 240.984 78.482C237.658 80.1171 233.944 80.9304 229.85 80.9304C225.756 80.9304 222.092 80.1256 218.867 78.5159C215.634 76.9062 213.085 74.4833 211.211 71.2385C209.337 67.9937 208.4 64.0543 208.4 59.3947V28.3027H221.054Z" fill="url(#paint2_linear_835_774)"/>
<path d="M269.357 78.7235C266.351 77.4866 263.946 75.6567 262.147 73.2337C260.349 70.8108 259.395 67.8879 259.303 64.4737H272.767C272.961 66.4053 273.628 67.8795 274.768 68.8876C275.899 69.9043 277.385 70.4126 279.208 70.4126C281.031 70.4126 282.559 69.9805 283.648 69.1164C284.729 68.2522 285.278 67.0492 285.278 65.5158C285.278 64.228 284.847 63.1691 283.986 62.3219C283.125 61.4831 282.061 60.7884 280.803 60.2462C279.546 59.704 277.756 59.0856 275.443 58.3909C272.092 57.3488 269.357 56.3152 267.229 55.2732C265.11 54.2312 263.287 52.6977 261.759 50.6729C260.231 48.6481 259.463 45.9964 259.463 42.7262C259.463 37.8803 261.21 34.0764 264.714 31.3315C268.217 28.5866 272.775 27.2141 278.398 27.2141C284.02 27.2141 288.73 28.5866 292.225 31.3315C295.728 34.0764 297.602 37.8972 297.847 42.8025H284.163C284.062 41.1166 283.446 39.795 282.315 38.8291C281.183 37.8633 279.723 37.3804 277.95 37.3804C276.422 37.3804 275.19 37.7871 274.253 38.6089C273.316 39.4307 272.851 40.5998 272.851 42.1332C272.851 43.8191 273.637 45.1238 275.215 46.0642C276.794 47.0046 279.259 48.0212 282.61 49.1056C285.961 50.2409 288.688 51.3337 290.781 52.3758C292.875 53.4178 294.69 54.9259 296.218 56.8998C297.746 58.8822 298.514 61.4238 298.514 64.5415C298.514 67.6592 297.763 70.2092 296.26 72.6322C294.757 75.0552 292.571 76.9868 289.718 78.4186C286.856 79.8588 283.479 80.5704 279.588 80.5704C275.696 80.5704 272.387 79.952 269.382 78.7151L269.357 78.7235Z" fill="url(#paint3_linear_835_774)"/>
<path d="M64.664 103.032C38.5873 103.081 17.3543 81.9429 17.3052 55.7927C17.2562 29.6424 38.3298 8.34465 64.4065 8.29544C77.0862 8.24624 89.2448 13.3631 98.1598 22.4038C80.5382 -1.88913 46.6255 -7.26432 22.3514 10.4111C-1.92279 28.0865 -7.22644 62.0965 10.3952 86.4386C28.0229 110.781 61.9294 116.107 86.2036 98.4313C87.387 97.5518 88.5765 96.6232 89.6556 95.6945C82.2366 100.553 73.5239 103.087 64.664 103.032Z" fill="url(#paint4_linear_835_774)"/>
<path d="M80.7409 15.8908C99.037 26.592 105.168 50.1038 94.5488 68.4004C83.8802 86.7461 60.4338 92.8962 42.1929 82.2504C31.7328 76.1495 24.7737 65.3991 23.437 53.3572V55.5774C23.437 79.1446 42.4504 98.2161 65.952 98.2161C89.4536 98.2161 108.467 79.1446 108.467 55.5774C108.21 37.902 97.2344 22.1393 80.7409 15.8847V15.8908Z" fill="url(#paint5_linear_835_774)"/>
<path d="M60.3848 18.8367C46.4175 18.7875 34.1547 28.0373 30.2367 41.4752C36.5766 27.5207 53.0148 21.3706 66.9269 27.7298C80.839 34.089 86.9704 50.5774 80.6367 64.532C76.1547 74.4582 66.2586 80.7621 55.4367 80.7621C53.0148 80.7129 50.5929 80.3992 48.2201 79.8334C52.0829 81.4878 56.2093 82.3119 60.4338 82.2627C77.9021 82.1582 91.9185 67.8407 91.8204 50.3191C91.6119 33.0066 77.6507 18.9966 60.3848 18.8429V18.8367Z" fill="url(#paint6_linear_835_774)"/>
<defs>
<linearGradient id="paint0_linear_835_774" x1="69.4564" y1="89.4001" x2="135.297" y2="-56.4471" gradientUnits="userSpaceOnUse">
<stop stop-color="#A9DD2F"/>
<stop offset="0.72" stop-color="#2DBA95"/>
</linearGradient>
<linearGradient id="paint1_linear_835_774" x1="69.4564" y1="89.4001" x2="135.297" y2="-56.4471" gradientUnits="userSpaceOnUse">
<stop stop-color="#A9DD2F"/>
<stop offset="0.72" stop-color="#2DBA95"/>
</linearGradient>
<linearGradient id="paint2_linear_835_774" x1="69.4564" y1="89.4001" x2="135.297" y2="-56.4471" gradientUnits="userSpaceOnUse">
<stop stop-color="#A9DD2F"/>
<stop offset="0.72" stop-color="#2DBA95"/>
</linearGradient>
<linearGradient id="paint3_linear_835_774" x1="69.4564" y1="89.4001" x2="135.297" y2="-56.4471" gradientUnits="userSpaceOnUse">
<stop stop-color="#A9DD2F"/>
<stop offset="0.72" stop-color="#2DBA95"/>
</linearGradient>
<linearGradient id="paint4_linear_835_774" x1="69.4564" y1="89.4001" x2="135.297" y2="-56.4471" gradientUnits="userSpaceOnUse">
<stop stop-color="#A9DD2F"/>
<stop offset="0.72" stop-color="#2DBA95"/>
</linearGradient>
<linearGradient id="paint5_linear_835_774" x1="69.4564" y1="89.4001" x2="135.297" y2="-56.4471" gradientUnits="userSpaceOnUse">
<stop stop-color="#A9DD2F"/>
<stop offset="0.72" stop-color="#2DBA95"/>
</linearGradient>
<linearGradient id="paint6_linear_835_774" x1="69.4564" y1="89.4001" x2="135.297" y2="-56.4471" gradientUnits="userSpaceOnUse">
<stop stop-color="#A9DD2F"/>
<stop offset="0.72" stop-color="#2DBA95"/>
</linearGradient>
</defs>
</svg>
