<svg width="1430" height="178" viewBox="0 0 1430 178" fill="none" xmlns="http://www.w3.org/2000/svg">
<mask id="mask0_746_1491" style="mask-type:alpha" maskUnits="userSpaceOnUse" x="0" y="0" width="179" height="178">
<path d="M106.09 168.394C63.137 168.394 28.3196 133.703 28.3196 90.9053C28.3196 48.1076 63.137 13.4162 106.09 13.4162C127.752 13.4162 147.334 22.2456 161.437 36.4909C145.192 14.3776 118.953 0 89.3319 0C39.9962 0 0 39.8427 0 89C0 138.157 39.9962 178 89.3231 178C111.579 178 131.922 169.867 147.573 156.442C135.56 164.011 121.343 168.403 106.09 168.403" fill="url(#paint0_linear_746_1491)"/>
<path d="M132.825 25.8672C151.522 36.7783 164.093 56.9951 164.093 80.1404C164.093 114.858 135.844 142.996 101.009 143.005C68.5906 143.005 41.8999 118.642 38.3411 87.2939C38.2791 88.5288 38.2349 89.7637 38.2349 91.0074C38.2349 129.465 69.5289 160.637 108.118 160.637C146.706 160.637 178 129.456 178 91.0074C178 61.2202 159.224 35.8168 132.825 25.8672Z" fill="url(#paint1_linear_746_1491)"/>
<path d="M99.1332 30.6836C75.6826 30.6836 55.8792 46.2255 49.5142 67.5361C56.6228 51.7296 72.5487 40.7215 91.0596 40.7215C116.201 40.7215 136.58 61.0265 136.58 86.0771C136.58 111.128 116.201 131.433 91.0596 131.433C86.952 131.433 82.9683 130.877 79.1793 129.863C85.3142 132.421 92.0599 133.832 99.1332 133.841C127.727 133.841 150.895 110.739 150.895 82.2577C150.895 53.7671 127.718 30.6836 99.1332 30.6836Z" fill="url(#paint2_linear_746_1491)"/>
</mask>
<g mask="url(#mask0_746_1491)">
<rect x="-5.08569" y="-5.08203" width="185.629" height="185.629" fill="white"/>
</g>
<g clip-path="url(#clip0_746_1491)">
<path d="M254.178 141.065L232.554 101.807H226.484V141.065H201.14V37.0859H243.662C251.862 37.0859 258.844 38.523 264.627 41.3804C270.409 44.2546 274.72 48.177 277.594 53.1647C280.452 58.1523 281.889 63.7147 281.889 69.8351C281.889 76.7502 279.944 82.9213 276.039 88.3485C272.133 93.7757 266.385 97.6305 258.777 99.8961L282.768 141.082H254.178V141.065ZM226.467 83.885H242.174C246.823 83.885 250.289 82.7522 252.622 80.4867C254.939 78.2211 256.105 75.0087 256.105 70.8496C256.105 66.6904 254.939 63.7824 252.622 61.5168C250.306 59.2512 246.823 58.1016 242.174 58.1016H226.467V83.885Z" fill="white"/>
<path d="M372.528 37.0859V57.3745H344.969V141.065H319.642V57.3745H292.084V37.0859H372.528Z" fill="white"/>
<path d="M410.147 37.0859V99.3043C410.147 105.526 411.685 110.311 414.745 113.675C417.806 117.04 422.303 118.714 428.22 118.714C434.138 118.714 438.686 117.04 441.848 113.675C445.009 110.311 446.582 105.526 446.582 99.3043V37.0859H471.908V99.1522C471.908 108.434 469.93 116.279 465.991 122.704C462.035 129.129 456.726 133.964 450.064 137.227C443.403 140.49 435.964 142.113 427.764 142.113C419.564 142.113 412.226 140.507 405.768 137.295C399.292 134.082 394.186 129.247 390.433 122.771C386.679 116.296 384.803 108.434 384.803 99.1353V37.0859H410.13H410.147Z" fill="white"/>
<path d="M506.889 138.409C500.87 135.94 496.052 132.289 492.451 127.453C488.849 122.618 486.939 116.785 486.753 109.971H513.72C514.109 113.826 515.444 116.768 517.727 118.78C519.992 120.809 522.968 121.823 526.62 121.823C530.272 121.823 533.332 120.961 535.513 119.236C537.677 117.512 538.776 115.111 538.776 112.051C538.776 109.481 537.914 107.367 536.19 105.677C534.465 104.003 532.335 102.616 529.815 101.534C527.296 100.452 523.712 99.2181 519.079 97.8317C512.367 95.7521 506.889 93.6894 502.629 91.6098C498.385 89.5303 494.733 86.4701 491.673 82.4292C488.613 78.3884 487.074 73.0965 487.074 66.5703C487.074 56.8994 490.574 49.3081 497.59 43.8302C504.607 38.3522 513.737 35.6133 524.997 35.6133C536.257 35.6133 545.691 38.3522 552.691 43.8302C559.707 49.3081 563.461 56.9332 563.951 66.7225H536.545C536.342 63.358 535.107 60.7204 532.842 58.793C530.576 56.8656 527.651 55.9019 524.101 55.9019C521.041 55.9019 518.572 56.7134 516.696 58.3534C514.819 59.9934 513.889 62.3266 513.889 65.3868C513.889 68.7513 515.461 71.355 518.623 73.2317C521.785 75.1084 526.721 77.1373 533.434 79.3014C540.146 81.567 545.607 83.748 549.8 85.8276C553.993 87.9072 557.628 90.9167 560.688 94.856C563.748 98.8123 565.287 103.884 565.287 110.106C565.287 116.328 563.782 121.417 560.773 126.253C557.763 131.088 553.384 134.943 547.669 137.8C541.938 140.674 535.175 142.095 527.381 142.095C519.587 142.095 512.959 140.86 506.94 138.392L506.889 138.409Z" fill="white"/>
<path d="M629.382 138.409C623.363 135.94 618.544 132.289 614.943 127.453C611.342 122.618 609.431 116.785 609.245 109.971H636.212C636.601 113.826 637.937 116.768 640.219 118.78C642.485 120.809 645.461 121.823 649.113 121.823C652.765 121.823 655.825 120.961 658.006 119.236C660.17 117.512 661.269 115.111 661.269 112.051C661.269 109.481 660.407 107.367 658.682 105.677C656.958 104.003 654.827 102.616 652.308 101.534C649.789 100.452 646.205 99.2181 641.572 97.8317C634.86 95.7521 629.382 93.6894 625.121 91.6098C620.878 89.5303 617.226 86.4701 614.165 82.4292C611.105 78.3884 609.567 73.0965 609.567 66.5703C609.567 56.8994 613.066 49.3081 620.083 43.8302C627.099 38.3522 636.229 35.6133 647.489 35.6133C658.75 35.6133 668.184 38.3522 675.183 43.8302C682.2 49.3081 685.953 56.9332 686.444 66.7225H659.037C658.834 63.358 657.6 60.7204 655.334 58.793C653.069 56.8656 650.144 55.9019 646.593 55.9019C643.533 55.9019 641.065 56.7134 639.188 58.3534C637.311 59.9934 636.381 62.3266 636.381 65.3868C636.381 68.7513 637.954 71.355 641.116 73.2317C644.277 75.1084 649.214 77.1373 655.926 79.3014C662.638 81.567 668.099 83.748 672.292 85.8276C676.485 87.9072 680.12 90.9167 683.181 94.856C686.241 98.8123 687.779 103.884 687.779 110.106C687.779 116.328 686.275 121.417 683.265 126.253C680.256 131.088 675.877 134.943 670.162 137.8C664.43 140.674 657.668 142.095 649.873 142.095C642.079 142.095 635.452 140.86 629.433 138.392L629.382 138.409Z" fill="white"/>
<path d="M725.601 135.298C717.451 130.75 710.993 124.41 706.191 116.261C701.406 108.111 699.006 98.9476 699.006 88.7863C699.006 78.6251 701.406 69.4784 706.191 61.3798C710.976 53.2813 717.451 46.958 725.601 42.4269C733.75 37.8788 742.711 35.6133 752.483 35.6133C762.255 35.6133 771.216 37.8788 779.365 42.4269C787.515 46.9749 793.939 53.2982 798.623 61.3798C803.306 69.4784 805.656 78.6082 805.656 88.7863C805.656 98.9645 803.289 108.111 798.538 116.261C793.787 124.41 787.379 130.75 779.281 135.298C771.182 139.846 762.238 142.112 752.466 142.112C742.694 142.112 733.733 139.846 725.584 135.298H725.601ZM772.417 110.698C777.404 105.169 779.89 97.8655 779.89 88.7694C779.89 79.6734 777.387 72.2511 772.417 66.7732C767.429 61.2953 760.784 58.5563 752.483 58.5563C744.182 58.5563 737.402 61.2784 732.414 66.7056C727.427 72.1328 724.941 79.5043 724.941 88.7694C724.941 98.0346 727.427 105.288 732.414 110.766C737.402 116.244 744.097 118.983 752.483 118.983C760.869 118.983 767.412 116.227 772.417 110.681V110.698Z" fill="white"/>
<path d="M845.067 121.52H878.255V141.082H819.74V37.0859H845.067V121.52Z" fill="white"/>
<path d="M915.282 37.0859V99.3043C915.282 105.526 916.821 110.311 919.881 113.675C922.941 117.04 927.438 118.714 933.356 118.714C939.273 118.714 943.822 117.04 946.983 113.675C950.145 110.311 951.717 105.526 951.717 99.3043V37.0859H977.044V99.1522C977.044 108.434 975.066 116.279 971.127 122.704C967.17 129.129 961.861 133.964 955.2 137.227C948.539 140.49 941.099 142.113 932.899 142.113C924.7 142.113 917.362 140.507 910.903 137.295C904.428 134.082 899.322 129.247 895.568 122.771C891.815 116.296 889.938 108.434 889.938 99.1353V37.0859H915.265H915.282Z" fill="white"/>
<path d="M1069.64 37.0859V57.3745H1042.09V141.065H1016.76V57.3745H989.2V37.0859H1069.64Z" fill="white"/>
<path d="M1107.7 37.0859V141.082H1082.38V37.0859H1107.7Z" fill="white"/>
<path d="M1148.36 135.298C1140.22 130.75 1133.76 124.41 1128.96 116.261C1124.17 108.111 1121.77 98.9476 1121.77 88.7863C1121.77 78.6251 1124.17 69.4784 1128.96 61.3798C1133.74 53.2813 1140.22 46.958 1148.36 42.4269C1156.51 37.8788 1165.47 35.6133 1175.25 35.6133C1185.02 35.6133 1193.98 37.8788 1202.13 42.4269C1210.28 46.9749 1216.7 53.2982 1221.39 61.3798C1226.07 69.4784 1228.42 78.6082 1228.42 88.7863C1228.42 98.9645 1226.05 108.111 1221.3 116.261C1216.55 124.41 1210.14 130.75 1202.04 135.298C1193.95 139.846 1185 142.112 1175.23 142.112C1165.46 142.112 1156.5 139.846 1148.35 135.298H1148.36ZM1195.18 110.698C1200.17 105.169 1202.65 97.8655 1202.65 88.7694C1202.65 79.6734 1200.15 72.2511 1195.18 66.7732C1190.19 61.2953 1183.55 58.5563 1175.25 58.5563C1166.95 58.5563 1160.17 61.2784 1155.18 66.7056C1150.19 72.1328 1147.71 79.5043 1147.71 88.7694C1147.71 98.0346 1150.19 105.288 1155.18 110.766C1160.17 116.244 1166.86 118.983 1175.25 118.983C1183.63 118.983 1190.18 116.227 1195.18 110.681V110.698Z" fill="white"/>
<path d="M1335.54 141.065H1310.22L1267.85 76.9192V141.065H1242.52V37.0859H1267.85L1310.22 101.519V37.0859H1335.54V141.082V141.065Z" fill="white"/>
<path d="M1371.08 138.409C1365.06 135.94 1360.24 132.289 1356.64 127.453C1353.04 122.618 1351.13 116.785 1350.95 109.971H1377.91C1378.3 113.826 1379.64 116.768 1381.92 118.78C1384.19 120.809 1387.16 121.823 1390.81 121.823C1394.47 121.823 1397.53 120.961 1399.71 119.236C1401.87 117.512 1402.97 115.111 1402.97 112.051C1402.97 109.481 1402.11 107.367 1400.38 105.677C1398.66 104.003 1396.53 102.616 1394.01 101.534C1391.49 100.452 1387.91 99.2181 1383.27 97.8317C1376.56 95.7521 1371.08 93.6894 1366.82 91.6098C1362.58 89.5303 1358.93 86.4701 1355.87 82.4292C1352.81 78.3884 1351.27 73.0965 1351.27 66.5703C1351.27 56.8994 1354.77 49.3081 1361.78 43.8302C1368.8 38.3522 1377.93 35.6133 1389.19 35.6133C1400.45 35.6133 1409.88 38.3522 1416.88 43.8302C1423.9 49.3081 1427.65 56.9332 1428.14 66.7225H1400.74C1400.53 63.358 1399.3 60.7204 1397.04 58.793C1394.77 56.8656 1391.84 55.9019 1388.29 55.9019C1385.23 55.9019 1382.77 56.7134 1380.89 58.3534C1379.01 59.9934 1378.08 62.3266 1378.08 65.3868C1378.08 68.7513 1379.65 71.355 1382.82 73.2317C1385.98 75.1084 1390.91 77.1373 1397.63 79.3014C1404.34 81.567 1409.8 83.748 1413.99 85.8276C1418.19 87.9072 1421.82 90.9167 1424.88 94.856C1427.94 98.8123 1429.48 103.884 1429.48 110.106C1429.48 116.328 1427.98 121.417 1424.97 126.253C1421.96 131.088 1417.58 134.943 1411.86 137.8C1406.13 140.674 1399.37 142.095 1391.57 142.095C1383.78 142.095 1377.15 140.86 1371.13 138.392L1371.08 138.409Z" fill="white"/>
</g>
<defs>
<linearGradient id="paint0_linear_746_1491" x1="143.594" y1="17.8" x2="30.2445" y2="151.833" gradientUnits="userSpaceOnUse">
<stop offset="0.278846" stop-color="#7DFF6B"/>
<stop offset="1" stop-color="#0B826F"/>
</linearGradient>
<linearGradient id="paint1_linear_746_1491" x1="162.553" y1="39.3442" x2="79.3389" y2="151.859" gradientUnits="userSpaceOnUse">
<stop offset="0.278846" stop-color="#7DFF6B"/>
<stop offset="1" stop-color="#0B826F"/>
</linearGradient>
<linearGradient id="paint2_linear_746_1491" x1="139.689" y1="40.9993" x2="75.0706" y2="123.798" gradientUnits="userSpaceOnUse">
<stop offset="0.278846" stop-color="#7DFF6B"/>
<stop offset="1" stop-color="#0B826F"/>
</linearGradient>
<clipPath id="clip0_746_1491">
<rect width="1228.31" height="106.515" fill="white" transform="translate(201.14 35.5977)"/>
</clipPath>
</defs>
</svg>
