<svg width="730" height="113" viewBox="0 0 730 113" fill="none" xmlns="http://www.w3.org/2000/svg">
<path d="M330.488 78.7161C327.483 77.4793 325.078 75.6495 323.28 73.2267C321.482 70.8039 320.528 67.8813 320.435 64.4674H333.899C334.093 66.3989 334.76 67.8729 335.899 68.881C337.03 69.8975 338.516 70.4058 340.339 70.4058C342.162 70.4058 343.69 69.9737 344.779 69.1097C345.859 68.2456 346.408 67.0427 346.408 65.5094C346.408 64.2218 345.978 63.1629 345.117 62.3157C344.256 61.4771 343.192 60.7825 341.934 60.2403C340.677 59.6981 338.887 59.0797 336.574 58.3851C333.223 57.3431 330.488 56.3096 328.361 55.2677C326.243 54.2257 324.419 52.6924 322.892 50.6678C321.364 48.6432 320.596 45.9917 320.596 42.7218C320.596 37.8762 322.343 34.0726 325.846 31.328C329.349 28.5833 333.907 27.2109 339.529 27.2109C345.15 27.2109 349.86 28.5833 353.355 31.328C356.858 34.0726 358.732 37.8932 358.977 42.798H345.294C345.193 41.1122 344.576 39.7907 343.445 38.825C342.314 37.8593 340.854 37.3764 339.081 37.3764C337.554 37.3764 336.321 37.783 335.384 38.6048C334.447 39.4265 333.983 40.5955 333.983 42.1288C333.983 43.8146 334.768 45.1191 336.346 46.0594C337.925 46.9997 340.39 48.0163 343.741 49.1006C347.092 50.2358 349.818 51.3285 351.912 52.3705C354.005 53.4125 355.82 54.9204 357.347 56.8942C358.875 58.8764 359.643 61.4178 359.643 64.5352C359.643 67.6526 358.892 70.2025 357.39 72.6252C355.887 75.048 353.701 76.9795 350.848 78.4111C347.986 79.8512 344.61 80.5628 340.719 80.5628C336.828 80.5628 333.519 79.9444 330.514 78.7076L330.488 78.7161Z" fill="white"/>
<path d="M378.525 77.1573C374.457 74.8786 371.232 71.7019 368.835 67.6187C366.446 63.5356 365.248 58.9442 365.248 53.853C365.248 48.7618 366.446 44.1788 368.835 40.1211C371.224 36.0634 374.457 32.8951 378.525 30.6248C382.594 28.3461 387.068 27.2109 391.946 27.2109C396.825 27.2109 401.299 28.3461 405.368 30.6248C409.436 32.9036 412.644 36.0719 414.982 40.1211C417.32 44.1788 418.493 48.7533 418.493 53.853C418.493 58.9527 417.311 63.5356 414.94 67.6187C412.568 71.7019 409.369 74.8786 405.325 77.1573C401.282 79.4361 396.817 80.5713 391.938 80.5713C387.059 80.5713 382.585 79.4361 378.517 77.1573H378.525ZM401.898 64.8317C404.388 62.0616 405.629 58.402 405.629 53.8445C405.629 49.287 404.38 45.5681 401.898 42.8234C399.408 40.0787 396.091 38.7064 391.946 38.7064C387.802 38.7064 384.417 40.0703 381.927 42.7895C379.437 45.5088 378.196 49.2023 378.196 53.8445C378.196 58.4867 379.437 62.1209 381.927 64.8656C384.417 67.6103 387.76 68.9826 391.946 68.9826C396.133 68.9826 399.4 67.6018 401.898 64.8232V64.8317Z" fill="white"/>
<path d="M438.169 70.6022H454.739V80.4035H425.525V28.2969H438.169V70.6022Z" fill="white"/>
<path d="M473.224 28.2969V59.471C473.224 62.5884 473.993 64.9858 475.52 66.6716C477.048 68.3574 479.294 69.196 482.248 69.196C485.202 69.196 487.473 68.3574 489.051 66.6716C490.63 64.9858 491.415 62.5884 491.415 59.471V28.2969H504.059V59.3948C504.059 64.0455 503.072 67.9761 501.105 71.1952C499.13 74.4143 496.479 76.8371 493.154 78.472C489.828 80.107 486.114 80.9202 482.02 80.9202C477.926 80.9202 474.263 80.1154 471.038 78.5059C467.805 76.8964 465.256 74.4736 463.382 71.2291C461.508 67.9846 460.572 64.0455 460.572 59.3863V28.2969H473.216H473.224Z" fill="white"/>
<path d="M550.29 28.2969V38.4624H536.531V80.395H523.887V38.4624H510.128V28.2969H550.29Z" fill="white"/>
<path d="M569.291 28.2969V80.4035H556.646V28.2969H569.291Z" fill="white"/>
<path d="M589.591 77.1573C585.522 74.8786 582.298 71.7019 579.901 67.6187C577.512 63.5356 576.313 58.9442 576.313 53.853C576.313 48.7618 577.512 44.1788 579.901 40.1211C582.289 36.0634 585.522 32.8951 589.591 30.6248C593.659 28.3461 598.133 27.2109 603.012 27.2109C607.891 27.2109 612.364 28.3461 616.433 30.6248C620.501 32.9036 623.709 36.0719 626.047 40.1211C628.385 44.1788 629.559 48.7533 629.559 53.853C629.559 58.9527 628.377 63.5356 626.005 67.6187C623.633 71.7019 620.434 74.8786 616.391 77.1573C612.348 79.4361 607.882 80.5713 603.003 80.5713C598.125 80.5713 593.651 79.4361 589.582 77.1573H589.591ZM612.964 64.8317C615.454 62.0616 616.695 58.402 616.695 53.8445C616.695 49.287 615.445 45.5681 612.964 42.8234C610.474 40.0787 607.156 38.7064 603.012 38.7064C598.867 38.7064 595.483 40.0703 592.993 42.7895C590.502 45.5088 589.262 49.2023 589.262 53.8445C589.262 58.4867 590.502 62.1209 592.993 64.8656C595.483 67.6103 598.825 68.9826 603.012 68.9826C607.199 68.9826 610.465 67.6018 612.964 64.8232V64.8317Z" fill="white"/>
<path d="M683.04 80.395H670.396L649.243 48.2551V80.395H636.598V28.2969H649.243L670.396 60.5808V28.2969H683.04V80.4035V80.395Z" fill="white"/>
<path d="M700.783 78.7161C697.778 77.4793 695.372 75.6495 693.575 73.2267C691.777 70.8039 690.823 67.8813 690.73 64.4674H704.193C704.387 66.3989 705.054 67.8729 706.194 68.881C707.325 69.8975 708.81 70.4058 710.634 70.4058C712.457 70.4058 713.985 69.9737 715.074 69.1097C716.154 68.2456 716.703 67.0427 716.703 65.5094C716.703 64.2218 716.272 63.1629 715.411 62.3157C714.55 61.4771 713.487 60.7825 712.229 60.2403C710.971 59.6981 709.182 59.0797 706.869 58.3851C703.518 57.3431 700.783 56.3096 698.656 55.2677C696.537 54.2257 694.714 52.6924 693.186 50.6678C691.658 48.6432 690.89 45.9917 690.89 42.7218C690.89 37.8762 692.638 34.0726 696.141 31.328C699.644 28.5833 704.202 27.2109 709.823 27.2109C715.445 27.2109 720.155 28.5833 723.65 31.328C727.153 34.0726 729.026 37.8932 729.271 42.798H715.589C715.487 41.1122 714.871 39.7907 713.74 38.825C712.609 37.8593 711.149 37.3764 709.376 37.3764C707.848 37.3764 706.616 37.783 705.679 38.6048C704.742 39.4265 704.278 40.5955 704.278 42.1288C704.278 43.8146 705.063 45.1191 706.641 46.0594C708.22 46.9997 710.684 48.0163 714.035 49.1006C717.386 50.2358 720.113 51.3285 722.206 52.3705C724.3 53.4125 726.114 54.9204 727.642 56.8942C729.17 58.8764 729.938 61.4178 729.938 64.5352C729.938 67.6526 729.187 70.2025 727.684 72.6252C726.182 75.048 723.996 76.9795 721.143 78.4111C718.281 79.8512 714.905 80.5628 711.014 80.5628C707.122 80.5628 703.813 79.9444 700.808 78.7076L700.783 78.7161Z" fill="white"/>
<path d="M143.167 80.3984L132.371 60.7282H129.341V80.3984H116.688V28.3003H137.917C142.011 28.3003 145.497 29.0204 148.384 30.452C151.271 31.8921 153.423 33.8574 154.858 36.3564C156.284 38.8555 157.002 41.6425 157.002 44.7091C157.002 48.1738 156.031 51.2658 154.081 53.9851C152.131 56.7044 149.262 58.6358 145.463 59.7709L157.441 80.4069H143.167V80.3984ZM129.333 51.7487H137.174C139.495 51.7487 141.226 51.1811 142.391 50.046C143.547 48.9108 144.129 47.3013 144.129 45.2174C144.129 43.1334 143.547 41.6764 142.391 40.5412C141.234 39.4061 139.495 38.83 137.174 38.83H129.333V51.7487Z" fill="url(#paint0_linear_835_697)"/>
<path d="M202.254 28.3003V38.4658H188.495V80.3984H175.85V38.4658H162.092V28.3003H202.254Z" fill="url(#paint1_linear_835_697)"/>
<path d="M221.035 28.3003V59.4745C221.035 62.5919 221.803 64.9892 223.331 66.675C224.859 68.3608 227.104 69.1994 230.058 69.1994C233.012 69.1994 235.283 68.3608 236.862 66.675C238.44 64.9892 239.225 62.5919 239.225 59.4745V28.3003H251.87V59.3982C251.87 64.0489 250.882 67.9796 248.915 71.1986C246.94 74.4177 244.29 76.8405 240.964 78.4754C237.638 80.1104 233.924 80.9236 229.83 80.9236C225.736 80.9236 222.073 80.1189 218.849 78.5093C215.616 76.8998 213.067 74.477 211.193 71.2325C209.319 67.988 208.382 64.0489 208.382 59.3897V28.3003H221.035Z" fill="url(#paint2_linear_835_697)"/>
<path d="M269.334 78.7169C266.329 77.4801 263.923 75.6504 262.125 73.2276C260.327 70.8048 259.373 67.8822 259.281 64.4683H272.744C272.938 66.3998 273.605 67.8738 274.744 68.8818C275.875 69.8984 277.361 70.4067 279.184 70.4067C281.008 70.4067 282.535 69.9746 283.624 69.1106C284.705 68.2465 285.253 67.0436 285.253 65.5103C285.253 64.2227 284.823 63.1638 283.962 62.3166C283.101 61.478 282.037 60.7833 280.78 60.2412C279.522 59.699 277.732 59.0806 275.42 58.386C272.069 57.344 269.334 56.3105 267.207 55.2686C265.088 54.2266 263.265 52.6933 261.737 50.6687C260.209 48.6441 259.441 45.9926 259.441 42.7227C259.441 37.8771 261.188 34.0735 264.691 31.3288C268.194 28.5842 272.752 27.2118 278.374 27.2118C283.996 27.2118 288.706 28.5842 292.2 31.3288C295.703 34.0735 297.577 37.8941 297.822 42.7989H284.139C284.038 41.1131 283.422 39.7916 282.291 38.8259C281.16 37.8602 279.699 37.3773 277.927 37.3773C276.399 37.3773 275.166 37.7839 274.23 38.6056C273.293 39.4273 272.828 40.5964 272.828 42.1297C272.828 43.8155 273.613 45.12 275.192 46.0603C276.77 47.0006 279.235 48.0172 282.586 49.1015C285.937 50.2366 288.663 51.3294 290.757 52.3714C292.85 53.4134 294.665 54.9212 296.193 56.895C297.721 58.8773 298.489 61.4187 298.489 64.5361C298.489 67.6535 297.737 70.2033 296.235 72.6261C294.733 75.0489 292.546 76.9803 289.693 78.412C286.832 79.8521 283.455 80.5637 279.564 80.5637C275.673 80.5637 272.364 79.9453 269.359 78.7085L269.334 78.7169Z" fill="url(#paint3_linear_835_697)"/>
<path d="M64.6586 103.023C38.584 103.072 17.3528 81.936 17.3038 55.788C17.2547 29.64 38.3265 8.34395 64.4011 8.29475C77.0797 8.24555 89.2372 13.362 98.1515 22.4019C80.5314 -1.88897 46.6216 -7.26371 22.3495 10.4102C-1.92263 28.0841 -7.22583 62.0913 10.3943 86.4314C28.0205 110.771 61.9242 116.097 86.1963 98.4231C87.3796 97.5437 88.5689 96.6151 89.648 95.6865C82.2296 100.545 73.5177 103.078 64.6586 103.023Z" fill="url(#paint4_linear_835_697)"/>
<path d="M80.7341 15.8895C99.0286 26.5898 105.159 50.0996 94.5408 68.3946C83.8731 86.7389 60.4287 92.8884 42.1894 82.2435C31.7301 76.1431 24.7716 65.3937 23.435 53.3528V55.5728C23.435 79.138 42.4469 98.2078 65.9465 98.2078C89.4461 98.2078 108.458 79.138 108.458 55.5728C108.2 37.8989 97.2261 22.1375 80.7341 15.8833V15.8895Z" fill="url(#paint5_linear_835_697)"/>
<path d="M60.3796 18.8352C46.4135 18.786 34.1518 28.0349 30.2342 41.4718C36.5735 27.5184 53.0103 21.3688 66.9213 27.7274C80.8322 34.0861 86.9631 50.5732 80.6299 64.5266C76.1482 74.452 66.253 80.7553 55.432 80.7553C53.0103 80.7061 50.5886 80.3925 48.216 79.8267C52.0784 81.481 56.2045 82.305 60.4287 82.2558C77.8955 82.1513 91.9107 67.835 91.8126 50.3149C91.6041 33.0038 77.6442 18.995 60.3796 18.8413V18.8352Z" fill="url(#paint6_linear_835_697)"/>
<path d="M306.389 106.238H295.463L293.368 111.968H290.825L299.586 88.1524H302.3L311.027 111.968H308.485L306.389 106.238ZM305.667 104.237L300.926 91.1897L296.185 104.237H305.667Z" fill="white"/>
<path d="M339.157 112.21C337.577 112.21 336.18 111.933 334.966 111.381C333.775 110.829 332.836 110.058 332.149 109.069C331.461 108.079 331.095 106.975 331.049 105.755H333.592C333.706 106.929 334.221 107.964 335.138 108.862C336.054 109.736 337.394 110.173 339.157 110.173C340.784 110.173 342.066 109.759 343.005 108.931C343.967 108.079 344.448 107.009 344.448 105.721C344.448 104.685 344.185 103.857 343.658 103.236C343.131 102.591 342.479 102.12 341.7 101.82C340.921 101.498 339.845 101.153 338.47 100.785C336.867 100.348 335.596 99.9221 334.657 99.5079C333.717 99.0938 332.916 98.4495 332.252 97.5751C331.587 96.7007 331.255 95.5157 331.255 94.02C331.255 92.7774 331.576 91.6729 332.217 90.7065C332.859 89.7171 333.763 88.9462 334.931 88.394C336.1 87.8417 337.44 87.5656 338.951 87.5656C341.173 87.5656 342.96 88.1179 344.311 89.2224C345.685 90.3038 346.475 91.7075 346.682 93.4332H344.07C343.91 92.4438 343.372 91.5694 342.456 90.8101C341.539 90.0277 340.303 89.6365 338.745 89.6365C337.302 89.6365 336.1 90.0277 335.138 90.8101C334.176 91.5694 333.695 92.6164 333.695 93.951C333.695 94.9634 333.958 95.7803 334.485 96.4016C335.012 97.0228 335.664 97.4945 336.443 97.8167C337.245 98.1388 338.321 98.484 339.673 98.8522C341.23 99.2893 342.49 99.7265 343.452 100.164C344.414 100.578 345.227 101.222 345.891 102.097C346.556 102.971 346.888 104.145 346.888 105.617C346.888 106.745 346.59 107.815 345.994 108.827C345.399 109.84 344.517 110.656 343.349 111.278C342.181 111.899 340.784 112.21 339.157 112.21Z" fill="white"/>
<path d="M363.526 112.244C361.762 112.244 360.17 111.853 358.75 111.071C357.353 110.265 356.242 109.138 355.417 107.688C354.616 106.215 354.215 104.501 354.215 102.545C354.215 100.589 354.627 98.8867 355.452 97.437C356.276 95.9644 357.399 94.8369 358.819 94.0545C360.239 93.2492 361.831 92.8465 363.594 92.8465C365.358 92.8465 366.95 93.2492 368.37 94.0545C369.813 94.8369 370.935 95.9644 371.737 97.437C372.562 98.8867 372.974 100.589 372.974 102.545C372.974 104.478 372.562 106.181 371.737 107.654C370.913 109.126 369.779 110.265 368.336 111.071C366.893 111.853 365.289 112.244 363.526 112.244ZM363.526 110.139C364.763 110.139 365.908 109.863 366.961 109.31C368.015 108.735 368.863 107.884 369.504 106.756C370.168 105.606 370.5 104.202 370.5 102.545C370.5 100.889 370.18 99.4964 369.538 98.3689C368.897 97.2184 368.049 96.367 366.996 95.8148C365.942 95.2395 364.797 94.9519 363.56 94.9519C362.323 94.9519 361.178 95.2395 360.124 95.8148C359.071 96.367 358.223 97.2184 357.582 98.3689C356.964 99.4964 356.654 100.889 356.654 102.545C356.654 104.202 356.964 105.606 357.582 106.756C358.223 107.884 359.059 108.735 360.09 109.31C361.144 109.863 362.289 110.139 363.526 110.139Z" fill="white"/>
<path d="M388.524 95.159H384.161V111.968H381.756V95.159H379.145V93.1226H381.756V91.811C381.756 89.7631 382.271 88.2559 383.302 87.2895C384.355 86.3231 386.05 85.8398 388.387 85.8398V87.9108C386.829 87.9108 385.73 88.2099 385.088 88.8082C384.47 89.4064 384.161 90.4074 384.161 91.811V93.1226H388.524V95.159Z" fill="white"/>
<path d="M399.216 95.159V106.86C399.216 108.01 399.433 108.804 399.869 109.241C400.304 109.678 401.071 109.897 402.171 109.897H404.369V111.968H401.793C400.098 111.968 398.838 111.577 398.013 110.794C397.189 109.989 396.776 108.678 396.776 106.86V95.159H394.165V93.1226H396.776V88.394H399.216V93.1226H404.369V95.159H399.216Z" fill="white"/>
<path d="M436.852 93.1226L430.977 111.968H428.572L423.384 96.1599L418.196 111.968H415.757L409.882 93.1226H412.321L416.994 109.517L422.25 93.1226H424.655L429.843 109.552L434.482 93.1226H436.852Z" fill="white"/>
<path d="M442.811 102.511C442.811 100.578 443.189 98.8867 443.945 97.437C444.723 95.9644 445.788 94.8369 447.14 94.0545C448.514 93.2492 450.06 92.8465 451.778 92.8465C453.565 92.8465 455.099 93.2607 456.382 94.089C457.687 94.9174 458.626 95.9759 459.199 97.2644V93.1226H461.604V111.968H459.199V107.792C458.604 109.08 457.653 110.15 456.347 111.002C455.065 111.83 453.53 112.244 451.744 112.244C450.049 112.244 448.514 111.841 447.14 111.036C445.788 110.231 444.723 109.092 443.945 107.619C443.189 106.146 442.811 104.444 442.811 102.511ZM459.199 102.545C459.199 101.027 458.89 99.692 458.271 98.5415C457.653 97.391 456.806 96.5051 455.729 95.8838C454.675 95.2625 453.507 94.9519 452.225 94.9519C450.896 94.9519 449.705 95.251 448.651 95.8493C447.598 96.4476 446.762 97.322 446.143 98.4725C445.548 99.6 445.25 100.946 445.25 102.511C445.25 104.052 445.548 105.41 446.143 106.584C446.762 107.734 447.598 108.62 448.651 109.241C449.705 109.84 450.896 110.139 452.225 110.139C453.507 110.139 454.675 109.828 455.729 109.207C456.806 108.585 457.653 107.7 458.271 106.549C458.89 105.399 459.199 104.064 459.199 102.545Z" fill="white"/>
<path d="M473.279 96.4706C473.806 95.2971 474.607 94.3882 475.684 93.7439C476.783 93.0996 478.123 92.7774 479.704 92.7774V95.2971H479.051C477.31 95.2971 475.913 95.7688 474.859 96.7122C473.806 97.6556 473.279 99.2318 473.279 101.441V111.968H470.874V93.1226H473.279V96.4706Z" fill="white"/>
<path d="M504.073 101.579C504.073 102.407 504.05 103.04 504.005 103.477H488.441C488.509 104.904 488.853 106.123 489.471 107.136C490.09 108.148 490.903 108.919 491.911 109.448C492.919 109.955 494.018 110.208 495.209 110.208C496.767 110.208 498.072 109.828 499.126 109.069C500.202 108.309 500.912 107.285 501.256 105.997H503.798C503.34 107.838 502.355 109.345 500.844 110.518C499.355 111.669 497.477 112.244 495.209 112.244C493.445 112.244 491.865 111.853 490.468 111.071C489.071 110.265 487.971 109.138 487.17 107.688C486.391 106.215 486.001 104.501 486.001 102.545C486.001 100.589 486.391 98.8752 487.17 97.4025C487.948 95.9298 489.036 94.8023 490.433 94.02C491.831 93.2376 493.423 92.8465 495.209 92.8465C496.996 92.8465 498.553 93.2376 499.882 94.02C501.233 94.8023 502.264 95.8608 502.974 97.1954C503.707 98.507 504.073 99.9681 504.073 101.579ZM501.634 101.51C501.657 100.106 501.37 98.9097 500.775 97.9202C500.202 96.9308 499.412 96.183 498.404 95.6767C497.397 95.1705 496.297 94.9174 495.106 94.9174C493.319 94.9174 491.796 95.4927 490.537 96.6432C489.277 97.7937 488.578 99.4159 488.441 101.51H501.634Z" fill="white"/>
<path d="M538.241 111.968L532.297 101.89H527.865V111.968H525.46V87.8417H532.675C535.355 87.8417 537.382 88.486 538.756 89.7746C540.153 91.0632 540.852 92.7544 540.852 94.8484C540.852 96.5971 540.348 98.0928 539.34 99.3354C538.355 100.555 536.89 101.349 534.943 101.717L541.127 111.968H538.241ZM527.865 99.9221H532.709C534.588 99.9221 535.996 99.4619 536.935 98.5415C537.897 97.6211 538.378 96.3901 538.378 94.8484C538.378 93.2607 537.92 92.0411 537.004 91.1897C536.088 90.3153 534.645 89.8781 532.675 89.8781H527.865V99.9221Z" fill="white"/>
<path d="M566.376 101.579C566.376 102.407 566.354 103.04 566.308 103.477H550.744C550.813 104.904 551.156 106.123 551.775 107.136C552.393 108.148 553.206 108.919 554.214 109.448C555.222 109.955 556.321 110.208 557.512 110.208C559.07 110.208 560.375 109.828 561.429 109.069C562.506 108.309 563.216 107.285 563.559 105.997H566.102C565.644 107.838 564.659 109.345 563.147 110.518C561.658 111.669 559.78 112.244 557.512 112.244C555.749 112.244 554.168 111.853 552.771 111.071C551.374 110.265 550.274 109.138 549.473 107.688C548.694 106.215 548.305 104.501 548.305 102.545C548.305 100.589 548.694 98.8752 549.473 97.4025C550.252 95.9298 551.339 94.8023 552.737 94.02C554.134 93.2376 555.726 92.8465 557.512 92.8465C559.299 92.8465 560.856 93.2376 562.185 94.02C563.536 94.8023 564.567 95.8608 565.277 97.1954C566.01 98.507 566.376 99.9681 566.376 101.579ZM563.937 101.51C563.96 100.106 563.674 98.9097 563.078 97.9202C562.506 96.9308 561.715 96.183 560.708 95.6767C559.7 95.1705 558.6 94.9174 557.409 94.9174C555.623 94.9174 554.1 95.4927 552.84 96.6432C551.58 97.7937 550.881 99.4159 550.744 101.51H563.937Z" fill="white"/>
<path d="M581.221 109.621L587.543 93.1226H590.085L582.561 111.968H579.847L572.323 93.1226H574.899L581.221 109.621Z" fill="white"/>
<path d="M605.336 112.244C603.572 112.244 601.98 111.853 600.56 111.071C599.163 110.265 598.052 109.138 597.227 107.688C596.426 106.215 596.025 104.501 596.025 102.545C596.025 100.589 596.437 98.8867 597.262 97.437C598.086 95.9644 599.209 94.8369 600.629 94.0545C602.049 93.2492 603.641 92.8465 605.404 92.8465C607.168 92.8465 608.76 93.2492 610.18 94.0545C611.623 94.8369 612.745 95.9644 613.547 97.437C614.372 98.8867 614.784 100.589 614.784 102.545C614.784 104.478 614.372 106.181 613.547 107.654C612.722 109.126 611.589 110.265 610.146 111.071C608.703 111.853 607.099 112.244 605.336 112.244ZM605.336 110.139C606.572 110.139 607.718 109.863 608.771 109.31C609.825 108.735 610.672 107.884 611.314 106.756C611.978 105.606 612.31 104.202 612.31 102.545C612.31 100.889 611.989 99.4964 611.348 98.3689C610.707 97.2184 609.859 96.367 608.806 95.8148C607.752 95.2395 606.607 94.9519 605.37 94.9519C604.133 94.9519 602.988 95.2395 601.934 95.8148C600.881 96.367 600.033 97.2184 599.392 98.3689C598.773 99.4964 598.464 100.889 598.464 102.545C598.464 104.202 598.773 105.606 599.392 106.756C600.033 107.884 600.869 108.735 601.9 109.31C602.954 109.863 604.099 110.139 605.336 110.139Z" fill="white"/>
<path d="M625.352 86.4266V111.968H622.947V86.4266H625.352Z" fill="white"/>
<path d="M650.828 93.1226V111.968H648.423V108.655C647.874 109.828 647.026 110.725 645.881 111.347C644.736 111.968 643.453 112.279 642.033 112.279C639.788 112.279 637.956 111.588 636.536 110.208C635.116 108.804 634.406 106.779 634.406 104.133V93.1226H636.776V103.857C636.776 105.905 637.28 107.469 638.288 108.551C639.319 109.632 640.716 110.173 642.48 110.173C644.289 110.173 645.732 109.598 646.809 108.447C647.885 107.297 648.423 105.606 648.423 103.374V93.1226H650.828Z" fill="white"/>
<path d="M663.225 95.159V106.86C663.225 108.01 663.443 108.804 663.878 109.241C664.313 109.678 665.08 109.897 666.18 109.897H668.379V111.968H665.802C664.107 111.968 662.847 111.577 662.022 110.794C661.198 109.989 660.786 108.678 660.786 106.86V95.159H658.174V93.1226H660.786V88.394H663.225V93.1226H668.379V95.159H663.225Z" fill="white"/>
<path d="M677.327 89.5675C676.846 89.5675 676.433 89.3949 676.09 89.0498C675.746 88.7046 675.574 88.2789 675.574 87.7727C675.574 87.2665 675.746 86.8523 676.09 86.5302C676.433 86.185 676.846 86.0124 677.327 86.0124C677.808 86.0124 678.22 86.185 678.564 86.5302C678.907 86.8523 679.079 87.2665 679.079 87.7727C679.079 88.2789 678.907 88.7046 678.564 89.0498C678.22 89.3949 677.808 89.5675 677.327 89.5675ZM678.529 93.1226V111.968H676.124V93.1226H678.529Z" fill="white"/>
<path d="M695.966 112.244C694.202 112.244 692.61 111.853 691.19 111.071C689.793 110.265 688.682 109.138 687.858 107.688C687.056 106.215 686.655 104.501 686.655 102.545C686.655 100.589 687.067 98.8867 687.892 97.437C688.717 95.9644 689.839 94.8369 691.259 94.0545C692.679 93.2492 694.271 92.8465 696.035 92.8465C697.798 92.8465 699.39 93.2492 700.81 94.0545C702.253 94.8369 703.376 95.9644 704.177 97.437C705.002 98.8867 705.414 100.589 705.414 102.545C705.414 104.478 705.002 106.181 704.177 107.654C703.353 109.126 702.219 110.265 700.776 111.071C699.333 111.853 697.73 112.244 695.966 112.244ZM695.966 110.139C697.203 110.139 698.348 109.863 699.402 109.31C700.455 108.735 701.303 107.884 701.944 106.756C702.608 105.606 702.94 104.202 702.94 102.545C702.94 100.889 702.62 99.4964 701.978 98.3689C701.337 97.2184 700.49 96.367 699.436 95.8148C698.382 95.2395 697.237 94.9519 696 94.9519C694.763 94.9519 693.618 95.2395 692.565 95.8148C691.511 96.367 690.664 97.2184 690.022 98.3689C689.404 99.4964 689.095 100.889 689.095 102.545C689.095 104.202 689.404 105.606 690.022 106.756C690.664 107.884 691.5 108.735 692.53 109.31C693.584 109.863 694.729 110.139 695.966 110.139Z" fill="white"/>
<path d="M722.373 92.7774C724.618 92.7774 726.45 93.4793 727.87 94.8829C729.29 96.2635 730 98.2769 730 100.923V111.968H727.63V101.199C727.63 99.1513 727.114 97.5866 726.083 96.5051C725.076 95.4236 723.69 94.8829 721.926 94.8829C720.117 94.8829 718.674 95.4581 717.597 96.6086C716.521 97.7592 715.982 99.4504 715.982 101.682V111.968H713.577V93.1226H715.982V96.3325C716.578 95.182 717.437 94.3076 718.559 93.7094C719.682 93.0881 720.953 92.7774 722.373 92.7774Z" fill="white"/>
<defs>
<linearGradient id="paint0_linear_835_697" x1="69.4505" y1="89.3926" x2="135.286" y2="-56.4423" gradientUnits="userSpaceOnUse">
<stop stop-color="#A9DD2F"/>
<stop offset="0.72" stop-color="#2DBA95"/>
</linearGradient>
<linearGradient id="paint1_linear_835_697" x1="69.4505" y1="89.3926" x2="135.286" y2="-56.4423" gradientUnits="userSpaceOnUse">
<stop stop-color="#A9DD2F"/>
<stop offset="0.72" stop-color="#2DBA95"/>
</linearGradient>
<linearGradient id="paint2_linear_835_697" x1="69.4505" y1="89.3926" x2="135.286" y2="-56.4423" gradientUnits="userSpaceOnUse">
<stop stop-color="#A9DD2F"/>
<stop offset="0.72" stop-color="#2DBA95"/>
</linearGradient>
<linearGradient id="paint3_linear_835_697" x1="69.4505" y1="89.3926" x2="135.286" y2="-56.4423" gradientUnits="userSpaceOnUse">
<stop stop-color="#A9DD2F"/>
<stop offset="0.72" stop-color="#2DBA95"/>
</linearGradient>
<linearGradient id="paint4_linear_835_697" x1="69.4505" y1="89.3926" x2="135.286" y2="-56.4423" gradientUnits="userSpaceOnUse">
<stop stop-color="#A9DD2F"/>
<stop offset="0.72" stop-color="#2DBA95"/>
</linearGradient>
<linearGradient id="paint5_linear_835_697" x1="69.4505" y1="89.3926" x2="135.286" y2="-56.4423" gradientUnits="userSpaceOnUse">
<stop stop-color="#A9DD2F"/>
<stop offset="0.72" stop-color="#2DBA95"/>
</linearGradient>
<linearGradient id="paint6_linear_835_697" x1="69.4505" y1="89.3926" x2="135.286" y2="-56.4423" gradientUnits="userSpaceOnUse">
<stop stop-color="#A9DD2F"/>
<stop offset="0.72" stop-color="#2DBA95"/>
</linearGradient>
</defs>
</svg>
