<svg width="804" height="100" viewBox="0 0 804 100" fill="none" xmlns="http://www.w3.org/2000/svg">
<mask id="mask0_746_1359" style="mask-type:alpha" maskUnits="userSpaceOnUse" x="0" y="0" width="101" height="100">
<path d="M59.6011 94.6036C35.4702 94.6036 15.9099 75.114 15.9099 51.0704C15.9099 27.0268 35.4702 7.53717 59.6011 7.53717C71.771 7.53717 82.7722 12.4975 90.6948 20.5005C81.5686 8.07731 66.8275 0 50.1865 0C22.4698 0 0 22.3835 0 50C0 77.6164 22.4698 100 50.1815 100C62.6846 100 74.1135 95.4311 82.9064 87.889C76.1576 92.1407 68.1703 94.6085 59.6011 94.6085" fill="url(#paint0_linear_746_1359)"/>
<path d="M74.6209 14.5312C85.1247 20.6611 92.1869 32.0189 92.1869 45.0218C92.1869 64.5263 76.3168 80.334 56.7465 80.339C38.534 80.339 23.5392 66.6522 21.5399 49.0407C21.5051 49.7344 21.4802 50.4282 21.4802 51.1269C21.4802 72.7324 39.0612 90.2448 60.7402 90.2448C82.4192 90.2448 100 72.7275 100 51.1269C100 34.3925 89.4516 20.1209 74.6209 14.5312Z" fill="url(#paint1_linear_746_1359)"/>
<path d="M55.6928 17.2383C42.5182 17.2383 31.3928 25.9697 27.8169 37.9419C31.8105 29.0619 40.7577 22.8775 51.157 22.8775C65.2815 22.8775 76.7302 34.2849 76.7302 48.3582C76.7302 62.4315 65.2815 73.8389 51.157 73.8389C48.8494 73.8389 46.6113 73.5267 44.4827 72.9568C47.9293 74.3939 51.719 75.1868 55.6928 75.1917C71.7568 75.1917 84.7722 62.2135 84.7722 46.2125C84.7722 30.2066 71.7518 17.2383 55.6928 17.2383Z" fill="url(#paint2_linear_746_1359)"/>
</mask>
<g mask="url(#mask0_746_1359)">
<rect x="-2.85718" y="-2.85547" width="104.286" height="104.286" fill="#232530"/>
</g>
<g clip-path="url(#clip0_746_1359)">
<path d="M142.797 79.2512L130.648 57.1959H127.238V79.2512H113V20.8359H136.889C141.495 20.8359 145.418 21.6433 148.667 23.2485C151.915 24.8633 154.337 27.0669 155.952 29.8689C157.557 32.671 158.364 35.7959 158.364 39.2344C158.364 43.1192 157.272 46.5861 155.078 49.6351C152.884 52.6841 149.654 54.8497 145.38 56.1225L158.858 79.2607H142.797V79.2512ZM127.229 47.1275H136.053C138.665 47.1275 140.612 46.4911 141.923 45.2184C143.224 43.9456 143.879 42.1409 143.879 39.8043C143.879 37.4677 143.224 35.8339 141.923 34.5611C140.621 33.2884 138.665 32.6425 136.053 32.6425H127.229V47.1275Z" fill="#232530"/>
<path d="M209.285 20.8359V32.234H193.803V79.2512H179.574V32.234H164.092V20.8359H209.285Z" fill="#232530"/>
<path d="M230.419 20.8359V55.7901C230.419 59.2855 231.284 61.9736 233.003 63.8637C234.722 65.7539 237.249 66.6943 240.573 66.6943C243.898 66.6943 246.453 65.7539 248.229 63.8637C250.005 61.9736 250.888 59.2855 250.888 55.7901V20.8359H265.117V55.7046C265.117 60.9192 264.006 65.3265 261.793 68.9359C259.57 72.5453 256.587 75.2618 252.845 77.095C249.103 78.9282 244.923 79.8401 240.317 79.8401C235.71 79.8401 231.588 78.9377 227.959 77.133C224.321 75.3283 221.453 72.6118 219.344 68.9739C217.235 65.336 216.181 60.9192 216.181 55.6951V20.8359H230.41H230.419Z" fill="#232530"/>
<path d="M284.769 77.7582C281.388 76.3714 278.681 74.3197 276.658 71.6032C274.635 68.8866 273.561 65.6097 273.457 61.7818H288.607C288.825 63.9475 289.576 65.6002 290.858 66.7305C292.131 67.8703 293.802 68.4402 295.854 68.4402C297.906 68.4402 299.625 67.9558 300.85 66.987C302.066 66.0181 302.683 64.6693 302.683 62.9501C302.683 61.5064 302.199 60.3191 301.23 59.3692C300.261 58.4289 299.065 57.65 297.649 57.0421C296.234 56.4342 294.22 55.7408 291.618 54.962C287.847 53.7937 284.769 52.6349 282.376 51.4666C279.992 50.2982 277.94 48.579 276.221 46.3089C274.502 44.0388 273.637 41.0658 273.637 37.3994C273.637 31.9663 275.603 27.7015 279.545 24.624C283.487 21.5466 288.616 20.0078 294.942 20.0078C301.268 20.0078 306.568 21.5466 310.501 24.624C314.442 27.7015 316.551 31.9853 316.827 37.4849H301.43C301.316 35.5947 300.622 34.113 299.349 33.0301C298.077 31.9473 296.433 31.4059 294.439 31.4059C292.72 31.4059 291.333 31.8618 290.278 32.7832C289.224 33.7045 288.702 35.0153 288.702 36.7345C288.702 38.6247 289.585 40.0875 291.361 41.1418C293.138 42.1961 295.911 43.3359 299.682 44.5517C303.453 45.8245 306.521 47.0498 308.876 48.2181C311.232 49.3864 313.274 51.0771 314.993 53.2902C316.713 55.5129 317.577 58.3624 317.577 61.8578C317.577 65.3532 316.732 68.2123 315.041 70.9288C313.35 73.6453 310.89 75.811 307.68 77.4162C304.46 79.0309 300.66 79.8288 296.281 79.8288C291.903 79.8288 288.179 79.1354 284.798 77.7487L284.769 77.7582Z" fill="#232530"/>
<path d="M353.585 77.7582C350.204 76.3714 347.497 74.3197 345.474 71.6032C343.451 68.8866 342.377 65.6097 342.273 61.7818H357.423C357.641 63.9475 358.392 65.6002 359.674 66.7305C360.947 67.8703 362.618 68.4402 364.67 68.4402C366.722 68.4402 368.441 67.9558 369.666 66.987C370.882 66.0181 371.499 64.6693 371.499 62.9501C371.499 61.5064 371.015 60.3191 370.046 59.3692C369.077 58.4289 367.88 57.65 366.465 57.0421C365.05 56.4342 363.036 55.7408 360.434 54.962C356.663 53.7937 353.585 52.6349 351.192 51.4666C348.808 50.2982 346.756 48.579 345.037 46.3089C343.318 44.0388 342.453 41.0658 342.453 37.3994C342.453 31.9663 344.419 27.7015 348.361 24.624C352.303 21.5466 357.432 20.0078 363.758 20.0078C370.084 20.0078 375.384 21.5466 379.317 24.624C383.258 27.7015 385.367 31.9853 385.642 37.4849H370.246C370.132 35.5947 369.438 34.113 368.165 33.0301C366.893 31.9473 365.249 31.4059 363.255 31.4059C361.535 31.4059 360.149 31.8618 359.094 32.7832C358.04 33.7045 357.518 35.0153 357.518 36.7345C357.518 38.6247 358.401 40.0875 360.177 41.1418C361.953 42.1961 364.727 43.3359 368.498 44.5517C372.269 45.8245 375.337 47.0498 377.692 48.2181C380.048 49.3864 382.09 51.0771 383.809 53.2902C385.528 55.5129 386.393 58.3624 386.393 61.8578C386.393 65.3532 385.547 68.2123 383.857 70.9288C382.166 73.6453 379.706 75.811 376.495 77.4162C373.276 79.0309 369.476 79.8288 365.097 79.8288C360.719 79.8288 356.995 79.1354 353.614 77.7487L353.585 77.7582Z" fill="#232530"/>
<path d="M407.641 76.0105C403.062 73.4554 399.434 69.8935 396.737 65.3152C394.048 60.737 392.7 55.5889 392.7 49.8803C392.7 44.1718 394.048 39.0331 396.737 34.4834C399.425 29.9337 403.062 26.3812 407.641 23.8357C412.219 21.2806 417.253 20.0078 422.743 20.0078C428.233 20.0078 433.267 21.2806 437.846 23.8357C442.424 26.3907 446.033 29.9432 448.664 34.4834C451.295 39.0331 452.616 44.1623 452.616 49.8803C452.616 55.5984 451.286 60.737 448.617 65.3152C445.948 69.8935 442.348 73.4554 437.798 76.0105C433.248 78.5655 428.224 79.8383 422.734 79.8383C417.244 79.8383 412.209 78.5655 407.631 76.0105H407.641ZM433.942 62.1903C436.744 59.0843 438.14 54.981 438.14 49.8708C438.14 44.7607 436.734 40.5909 433.942 37.5134C431.14 34.4359 427.407 32.8972 422.743 32.8972C418.079 32.8972 414.271 34.4264 411.469 37.4754C408.667 40.5244 407.27 44.6657 407.27 49.8708C407.27 55.076 408.667 59.1508 411.469 62.2283C414.271 65.3057 418.032 66.8445 422.743 66.8445C427.454 66.8445 431.13 65.2962 433.942 62.1808V62.1903Z" fill="#232530"/>
<path d="M474.756 68.271H493.402V79.2607H460.528V20.8359H474.756V68.271Z" fill="#232530"/>
<path d="M514.203 20.8359V55.7901C514.203 59.2855 515.068 61.9736 516.787 63.8637C518.506 65.7539 521.033 66.6943 524.357 66.6943C527.682 66.6943 530.237 65.7539 532.013 63.8637C533.789 61.9736 534.673 59.2855 534.673 55.7901V20.8359H548.901V55.7046C548.901 60.9192 547.79 65.3265 545.577 68.9359C543.354 72.5453 540.372 75.2618 536.629 77.095C532.887 78.9282 528.708 79.8401 524.101 79.8401C519.494 79.8401 515.372 78.9377 511.743 77.133C508.105 75.3283 505.237 72.6118 503.128 68.9739C501.02 65.336 499.965 60.9192 499.965 55.6951V20.8359H514.194H514.203Z" fill="#232530"/>
<path d="M600.924 20.8359V32.234H585.442V79.2512H571.213V32.234H555.73V20.8359H600.924Z" fill="#232530"/>
<path d="M622.305 20.8359V79.2607H608.076V20.8359H622.305Z" fill="#232530"/>
<path d="M645.149 76.0105C640.57 73.4554 636.942 69.8935 634.244 65.3152C631.556 60.737 630.208 55.5889 630.208 49.8803C630.208 44.1718 631.556 39.0331 634.244 34.4834C636.932 29.9337 640.57 26.3812 645.149 23.8357C649.727 21.2806 654.761 20.0078 660.251 20.0078C665.741 20.0078 670.775 21.2806 675.353 23.8357C679.932 26.3907 683.541 29.9432 686.172 34.4834C688.803 39.0331 690.123 44.1623 690.123 49.8803C690.123 55.5984 688.794 60.737 686.125 65.3152C683.456 69.8935 679.856 73.4554 675.306 76.0105C670.756 78.5655 665.732 79.8383 660.241 79.8383C654.751 79.8383 649.717 78.5655 645.139 76.0105H645.149ZM671.45 62.1903C674.252 59.0843 675.648 54.981 675.648 49.8708C675.648 44.7607 674.242 40.5909 671.45 37.5134C668.648 34.4359 664.915 32.8972 660.251 32.8972C655.587 32.8972 651.778 34.4264 648.976 37.4754C646.174 40.5244 644.778 44.6657 644.778 49.8708C644.778 55.076 646.174 59.1508 648.976 62.2283C651.778 65.3057 655.54 66.8445 660.251 66.8445C664.962 66.8445 668.638 65.2962 671.45 62.1808V62.1903Z" fill="#232530"/>
<path d="M750.305 79.2512H736.077L712.274 43.2142V79.2512H698.045V20.8359H712.274L736.077 57.0344V20.8359H750.305V79.2607V79.2512Z" fill="#232530"/>
<path d="M770.271 77.7582C766.89 76.3714 764.183 74.3197 762.159 71.6032C760.136 68.8866 759.063 65.6097 758.958 61.7818H774.108C774.327 63.9475 775.077 65.6002 776.36 66.7305C777.632 67.8703 779.304 68.4402 781.356 68.4402C783.407 68.4402 785.127 67.9558 786.352 66.987C787.568 66.0181 788.185 64.6693 788.185 62.9501C788.185 61.5064 787.701 60.3191 786.732 59.3692C785.763 58.4289 784.566 57.65 783.151 57.0421C781.736 56.4342 779.722 55.7408 777.119 54.962C773.349 53.7937 770.271 52.6349 767.878 51.4666C765.493 50.2982 763.442 48.579 761.723 46.3089C760.003 44.0388 759.139 41.0658 759.139 37.3994C759.139 31.9663 761.105 27.7015 765.047 24.624C768.989 21.5466 774.118 20.0078 780.444 20.0078C786.77 20.0078 792.07 21.5466 796.002 24.624C799.944 27.7015 802.053 31.9853 802.328 37.4849H786.931C786.817 35.5947 786.124 34.113 784.851 33.0301C783.578 31.9473 781.935 31.4059 779.94 31.4059C778.221 31.4059 776.835 31.8618 775.78 32.7832C774.726 33.7045 774.203 35.0153 774.203 36.7345C774.203 38.6247 775.087 40.0875 776.863 41.1418C778.639 42.1961 781.413 43.3359 785.184 44.5517C788.954 45.8245 792.022 47.0498 794.378 48.2181C796.734 49.3864 798.776 51.0771 800.495 53.2902C802.214 55.5129 803.079 58.3624 803.079 61.8578C803.079 65.3532 802.233 68.2123 800.543 70.9288C798.852 73.6453 796.392 75.811 793.181 77.4162C789.961 79.0309 786.162 79.8288 781.783 79.8288C777.404 79.8288 773.681 79.1354 770.3 77.7487L770.271 77.7582Z" fill="#232530"/>
</g>
<defs>
<linearGradient id="paint0_linear_746_1359" x1="80.6706" y1="10" x2="16.9913" y2="85.2993" gradientUnits="userSpaceOnUse">
<stop offset="0.278846" stop-color="#7DFF6B"/>
<stop offset="1" stop-color="#0B826F"/>
</linearGradient>
<linearGradient id="paint1_linear_746_1359" x1="91.3216" y1="22.1026" x2="44.5724" y2="85.3133" gradientUnits="userSpaceOnUse">
<stop offset="0.278846" stop-color="#7DFF6B"/>
<stop offset="1" stop-color="#0B826F"/>
</linearGradient>
<linearGradient id="paint2_linear_746_1359" x1="78.4771" y1="23.0336" x2="42.1745" y2="69.5497" gradientUnits="userSpaceOnUse">
<stop offset="0.278846" stop-color="#7DFF6B"/>
<stop offset="1" stop-color="#0B826F"/>
</linearGradient>
<clipPath id="clip0_746_1359">
<rect width="690.06" height="59.84" fill="white" transform="translate(113 20)"/>
</clipPath>
</defs>
</svg>
