<svg width="730" height="100" viewBox="0 0 730 100" fill="none" xmlns="http://www.w3.org/2000/svg">
<path d="M54.1275 85.9152C32.2128 85.9152 14.4488 68.2155 14.4488 46.3801C14.4488 24.5446 32.2128 6.84495 54.1275 6.84495C65.1798 6.84495 75.1706 11.3498 82.3657 18.6177C74.0776 7.33549 60.6902 0 45.5775 0C20.4062 0 0 20.3279 0 45.408C0 70.4882 20.4062 90.816 45.573 90.816C56.9279 90.816 67.3071 86.6668 75.2926 79.8173C69.1635 83.6786 61.9097 85.9197 54.1275 85.9197" fill="#232530"/>
<path d="M67.768 13.1979C77.3071 18.7648 83.7208 29.0795 83.7208 40.8883C83.7208 58.6014 69.3082 72.9574 51.5351 72.9619C34.9952 72.9619 21.3774 60.5321 19.5618 44.538C19.5301 45.168 19.5076 45.7981 19.5076 46.4326C19.5076 66.0539 35.4739 81.958 55.162 81.958C74.8501 81.958 90.8165 66.0494 90.8165 46.4326C90.8165 31.2351 81.2366 18.2742 67.768 13.1979Z" fill="#232530"/>
<path d="M50.5781 15.6551C38.6135 15.6551 28.5097 23.5846 25.2622 34.4574C28.8891 26.3928 37.0146 20.7764 46.4589 20.7764C59.2862 20.7764 69.6835 31.1361 69.6835 43.917C69.6835 56.6978 59.2862 67.0575 46.4589 67.0575C44.3632 67.0575 42.3307 66.774 40.3975 66.2565C43.5276 67.5616 46.9693 68.2816 50.5781 68.2861C65.1669 68.2861 76.9869 56.4998 76.9869 41.9684C76.9869 27.4324 65.1623 15.6551 50.5781 15.6551Z" fill="#232530"/>
<path d="M129.611 71.9719L118.578 51.9421H115.482V71.9719H102.551V18.9215H124.246C128.429 18.9215 131.992 19.6547 134.942 21.1125C137.892 22.579 140.092 24.5802 141.558 27.1249C143.016 29.6696 143.749 32.5076 143.749 35.6302C143.749 39.1583 142.757 42.3068 140.765 45.0758C138.772 47.8447 135.839 49.8115 131.957 50.9674L144.198 71.9805H129.611V71.9719ZM115.473 42.7985H123.487C125.859 42.7985 127.627 42.2205 128.818 41.0646C129.999 39.9088 130.595 38.2698 130.595 36.1478C130.595 34.0258 129.999 32.5421 128.818 31.3862C127.636 30.2303 125.859 29.6437 123.487 29.6437H115.473V42.7985Z" fill="#232530"/>
<path d="M189.994 18.9215V29.2728H175.933V71.9719H163.011V29.2728H148.951V18.9215H189.994Z" fill="#232530"/>
<path d="M209.187 18.9215V50.6655C209.187 53.8399 209.972 56.2811 211.533 57.9976C213.095 59.7142 215.389 60.5682 218.408 60.5682C221.427 60.5682 223.748 59.7142 225.361 57.9976C226.974 56.2811 227.776 53.8399 227.776 50.6655V18.9215H240.698V50.5878C240.698 55.3236 239.689 59.3261 237.679 62.604C235.661 65.8819 232.952 68.3489 229.553 70.0138C226.155 71.6786 222.359 72.5067 218.175 72.5067C213.992 72.5067 210.248 71.6872 206.953 70.0483C203.649 68.4093 201.044 65.9423 199.129 62.6385C197.214 59.3347 196.256 55.3236 196.256 50.5792V18.9215H209.187Z" fill="#232530"/>
<path d="M258.546 70.6176C255.475 69.3582 253.016 67.495 251.179 65.0279C249.342 62.5608 248.367 59.5848 248.272 56.1085H262.031C262.229 58.0753 262.91 59.5762 264.075 60.6027C265.231 61.6379 266.749 62.1554 268.612 62.1554C270.475 62.1554 272.037 61.7155 273.15 60.8356C274.254 59.9558 274.814 58.7309 274.814 57.1695C274.814 55.8584 274.374 54.7801 273.495 53.9175C272.615 53.0635 271.528 52.3562 270.243 51.8041C268.957 51.2521 267.129 50.6224 264.765 49.915C261.34 48.854 258.546 47.8016 256.372 46.7406C254.207 45.6796 252.343 44.1183 250.782 42.0566C249.221 39.995 248.436 37.2951 248.436 33.9654C248.436 29.0313 250.221 25.1582 253.801 22.3633C257.381 19.5685 262.039 18.171 267.784 18.171C273.529 18.171 278.342 19.5685 281.914 22.3633C285.494 25.1582 287.409 29.0485 287.659 34.043H273.676C273.572 32.3264 272.943 30.9808 271.787 29.9974C270.631 29.014 269.138 28.5223 267.327 28.5223C265.766 28.5223 264.506 28.9364 263.549 29.7731C262.591 30.6098 262.117 31.8002 262.117 33.3616C262.117 35.0781 262.919 36.4066 264.532 37.3641C266.145 38.3216 268.664 39.3567 272.089 40.4608C275.513 41.6167 278.299 42.7295 280.439 43.7905C282.578 44.8515 284.433 46.3869 285.994 48.3968C287.555 50.4153 288.34 53.0031 288.34 56.1775C288.34 59.3519 287.572 61.9484 286.037 64.4155C284.502 66.8825 282.267 68.8493 279.352 70.3071C276.427 71.7735 272.977 72.4981 269 72.4981C265.024 72.4981 261.642 71.8684 258.571 70.609L258.546 70.6176Z" fill="#232530"/>
<path d="M321.042 70.6185C317.971 69.3591 315.512 67.4958 313.675 65.0288C311.838 62.5617 310.863 59.5857 310.768 56.1094H324.527C324.725 58.0761 325.407 59.5771 326.571 60.6036C327.727 61.6387 329.245 62.1563 331.108 62.1563C332.972 62.1563 334.533 61.7163 335.646 60.8365C336.75 59.9566 337.311 58.7317 337.311 57.1704C337.311 55.8592 336.871 54.781 335.991 53.9184C335.111 53.0644 334.024 52.357 332.739 51.805C331.453 51.2529 329.625 50.6232 327.261 49.9159C323.837 48.8549 321.042 47.8025 318.868 46.7415C316.703 45.6805 314.84 44.1191 313.278 42.0575C311.717 39.9959 310.932 37.2959 310.932 33.9662C310.932 29.0321 312.718 25.159 316.297 22.3642C319.877 19.5693 324.535 18.1719 330.28 18.1719C336.025 18.1719 340.839 19.5693 344.41 22.3642C347.99 25.159 349.905 29.0494 350.155 34.0439H336.172C336.068 32.3273 335.439 30.9816 334.283 29.9982C333.127 29.0149 331.635 28.5232 329.823 28.5232C328.262 28.5232 327.002 28.9372 326.045 29.774C325.087 30.6107 324.613 31.8011 324.613 33.3624C324.613 35.079 325.415 36.4074 327.028 37.3649C328.641 38.3224 331.16 39.3575 334.585 40.4617C338.009 41.6176 340.796 42.7303 342.935 43.7913C345.074 44.8523 346.929 46.3878 348.49 48.3977C350.051 50.4162 350.836 53.004 350.836 56.1784C350.836 59.3528 350.069 61.9492 348.533 64.4163C346.998 66.8834 344.764 68.8501 341.848 70.3079C338.924 71.7744 335.473 72.4989 331.497 72.4989C327.52 72.4989 324.139 71.8692 321.068 70.6098L321.042 70.6185Z" fill="#232530"/>
<path d="M370.133 69.0313C365.975 66.7108 362.68 63.4761 360.23 59.3183C357.789 55.1605 356.564 50.4852 356.564 45.3009C356.564 40.1166 357.789 35.4499 360.23 31.318C362.671 27.1861 365.975 23.96 370.133 21.6482C374.291 19.3278 378.863 18.1719 383.849 18.1719C388.834 18.1719 393.406 19.3278 397.564 21.6482C401.722 23.9686 405 27.1948 407.389 31.318C409.779 35.4499 410.978 40.108 410.978 45.3009C410.978 50.4938 409.77 55.1605 407.346 59.3183C404.922 63.4761 401.653 66.7108 397.521 69.0313C393.389 71.3517 388.826 72.5076 383.84 72.5076C378.854 72.5076 374.282 71.3517 370.124 69.0313H370.133ZM394.019 56.4803C396.563 53.6596 397.832 49.9331 397.832 45.2923C397.832 40.6514 396.555 36.8646 394.019 34.0697C391.474 31.2749 388.084 29.8775 383.849 29.8775C379.613 29.8775 376.154 31.2663 373.609 34.0352C371.065 36.8042 369.797 40.5652 369.797 45.2923C369.797 50.0194 371.065 53.72 373.609 56.5148C376.154 59.3097 379.57 60.7071 383.849 60.7071C388.127 60.7071 391.465 59.301 394.019 56.4717V56.4803Z" fill="#232530"/>
<path d="M431.085 62.0005H448.018V71.9809H418.163V18.9219H431.085V62.0005Z" fill="#232530"/>
<path d="M466.909 18.9219V50.6659C466.909 53.8403 467.694 56.2814 469.256 57.998C470.817 59.7146 473.111 60.5686 476.131 60.5686C479.15 60.5686 481.47 59.7146 483.083 57.998C484.696 56.2814 485.499 53.8403 485.499 50.6659V18.9219H498.42V50.5882C498.42 55.3239 497.411 59.3264 495.401 62.6044C493.383 65.8823 490.674 68.3493 487.276 70.0142C483.877 71.679 480.081 72.5071 475.898 72.5071C471.714 72.5071 467.97 71.6876 464.675 70.0487C461.371 68.4097 458.766 65.9426 456.851 62.6389C454.936 59.3351 453.979 55.3239 453.979 50.5796V18.9219H466.901H466.909Z" fill="#232530"/>
<path d="M545.666 18.9219V29.2732H531.605V71.9723H518.683V29.2732H504.623V18.9219H545.666Z" fill="#232530"/>
<path d="M565.083 18.9219V71.9809H552.161V18.9219H565.083Z" fill="#232530"/>
<path d="M585.829 69.0313C581.671 66.7108 578.376 63.4761 575.926 59.3183C573.485 55.1605 572.26 50.4852 572.26 45.3009C572.26 40.1166 573.485 35.4499 575.926 31.318C578.367 27.1861 581.671 23.96 585.829 21.6482C589.987 19.3278 594.559 18.1719 599.544 18.1719C604.53 18.1719 609.102 19.3278 613.26 21.6482C617.418 23.9686 620.696 27.1948 623.085 31.318C625.474 35.4499 626.673 40.108 626.673 45.3009C626.673 50.4938 625.466 55.1605 623.042 59.3183C620.618 63.4761 617.349 66.7108 613.217 69.0313C609.085 71.3517 604.522 72.5076 599.536 72.5076C594.55 72.5076 589.978 71.3517 585.82 69.0313H585.829ZM609.715 56.4803C612.259 53.6596 613.527 49.9331 613.527 45.2923C613.527 40.6514 612.251 36.8646 609.715 34.0697C607.17 31.2749 603.78 29.8775 599.544 29.8775C595.309 29.8775 591.85 31.2663 589.305 34.0352C586.761 36.8042 585.492 40.5652 585.492 45.2923C585.492 50.0194 586.761 53.72 589.305 56.5148C591.85 59.3097 595.266 60.7071 599.544 60.7071C603.823 60.7071 607.161 59.301 609.715 56.4717V56.4803Z" fill="#232530"/>
<path d="M681.329 71.9723H668.407L646.79 39.2449V71.9723H633.868V18.9219H646.79L668.407 51.7959V18.9219H681.329V71.9809V71.9723Z" fill="#232530"/>
<path d="M699.461 70.6185C696.39 69.3591 693.931 67.4958 692.094 65.0288C690.257 62.5617 689.282 59.5857 689.187 56.1094H702.946C703.144 58.0761 703.825 59.5771 704.99 60.6036C706.146 61.6387 707.664 62.1563 709.527 62.1563C711.391 62.1563 712.952 61.7163 714.065 60.8365C715.169 59.9566 715.729 58.7317 715.729 57.1704C715.729 55.8592 715.289 54.781 714.41 53.9184C713.53 53.0644 712.443 52.357 711.158 51.805C709.872 51.2529 708.044 50.6232 705.68 49.9159C702.255 48.8549 699.461 47.8025 697.287 46.7415C695.122 45.6805 693.258 44.1191 691.697 42.0575C690.136 39.9959 689.351 37.2959 689.351 33.9662C689.351 29.0321 691.136 25.159 694.716 22.3642C698.296 19.5693 702.954 18.1719 708.699 18.1719C714.444 18.1719 719.258 19.5693 722.829 22.3642C726.409 25.159 728.324 29.0494 728.574 34.0439H714.591C714.487 32.3273 713.858 30.9816 712.702 29.9982C711.546 29.0149 710.053 28.5232 708.242 28.5232C706.681 28.5232 705.421 28.9372 704.464 29.774C703.506 30.6107 703.032 31.8011 703.032 33.3624C703.032 35.079 703.834 36.4074 705.447 37.3649C707.06 38.3224 709.579 39.3575 713.004 40.4617C716.428 41.6176 719.214 42.7303 721.354 43.7913C723.493 44.8523 725.348 46.3878 726.909 48.3977C728.47 50.4162 729.255 53.004 729.255 56.1784C729.255 59.3528 728.487 61.9492 726.952 64.4163C725.417 66.8834 723.182 68.8501 720.267 70.3079C717.342 71.7744 713.892 72.4989 709.915 72.4989C705.939 72.4989 702.557 71.8692 699.486 70.6098L699.461 70.6185Z" fill="#232530"/>
<path d="M278.836 95.922H271.487L270.078 99.7918H268.367L274.261 83.7064H276.086L281.956 99.7918H280.246L278.836 95.922ZM278.351 94.5699L275.162 85.7579L271.973 94.5699H278.351Z" fill="#232530"/>
<path d="M300.878 99.955C299.815 99.955 298.875 99.7685 298.058 99.3955C297.257 99.0225 296.625 98.5019 296.163 97.8336C295.701 97.1653 295.455 96.4193 295.424 95.5956H297.134C297.211 96.3882 297.558 97.0876 298.174 97.6937C298.79 98.2843 299.691 98.5796 300.878 98.5796C301.972 98.5796 302.834 98.2998 303.466 97.7403C304.113 97.1653 304.437 96.4426 304.437 95.5723C304.437 94.8729 304.26 94.3135 303.905 93.8938C303.551 93.4587 303.112 93.1401 302.588 92.938C302.064 92.7205 301.34 92.4873 300.416 92.2387C299.337 91.9434 298.482 91.6559 297.85 91.3761C297.219 91.0964 296.679 90.6612 296.233 90.0707C295.786 89.4801 295.562 88.6797 295.562 87.6695C295.562 86.8303 295.778 86.0843 296.21 85.4315C296.641 84.7633 297.249 84.2426 298.035 83.8696C298.821 83.4966 299.722 83.3101 300.739 83.3101C302.234 83.3101 303.435 83.6831 304.344 84.4291C305.269 85.1596 305.8 86.1076 305.939 87.2732H304.183C304.075 86.6049 303.713 86.0143 303.096 85.5015C302.48 84.9731 301.648 84.7089 300.6 84.7089C299.63 84.7089 298.821 84.9731 298.174 85.5015C297.527 86.0143 297.203 86.7215 297.203 87.6229C297.203 88.3067 297.38 88.8584 297.735 89.278C298.089 89.6977 298.528 90.0163 299.052 90.2338C299.591 90.4514 300.315 90.6845 301.224 90.9332C302.272 91.2285 303.119 91.5238 303.767 91.8191C304.414 92.0988 304.961 92.534 305.407 93.1245C305.854 93.7151 306.078 94.5077 306.078 95.5024C306.078 96.2639 305.877 96.9866 305.477 97.6704C305.076 98.3542 304.483 98.9059 303.697 99.3256C302.911 99.7452 301.972 99.955 300.878 99.955Z" fill="#232530"/>
<path d="M317.269 99.9783C316.083 99.9783 315.012 99.7141 314.057 99.1857C313.117 98.6417 312.37 97.8802 311.815 96.9011C311.276 95.9065 311.006 94.7486 311.006 93.4276C311.006 92.1066 311.283 90.9565 311.838 89.9774C312.393 88.9828 313.148 88.2212 314.103 87.6928C315.058 87.1489 316.129 86.8769 317.315 86.8769C318.502 86.8769 319.572 87.1489 320.527 87.6928C321.498 88.2212 322.253 88.9828 322.792 89.9774C323.347 90.9565 323.624 92.1066 323.624 93.4276C323.624 94.7331 323.347 95.8831 322.792 96.8778C322.238 97.8724 321.475 98.6417 320.504 99.1857C319.534 99.7141 318.455 99.9783 317.269 99.9783ZM317.269 98.5563C318.101 98.5563 318.871 98.3698 319.58 97.9968C320.289 97.6082 320.859 97.0332 321.29 96.2717C321.737 95.4946 321.96 94.5466 321.96 93.4276C321.96 92.3086 321.745 91.3684 321.313 90.6068C320.882 89.8298 320.312 89.2547 319.603 88.8817C318.894 88.4932 318.124 88.2989 317.292 88.2989C316.46 88.2989 315.69 88.4932 314.981 88.8817C314.272 89.2547 313.702 89.8298 313.271 90.6068C312.855 91.3684 312.647 92.3086 312.647 93.4276C312.647 94.5466 312.855 95.4946 313.271 96.2717C313.702 97.0332 314.265 97.6082 314.958 97.9968C315.667 98.3698 316.437 98.5563 317.269 98.5563Z" fill="#232530"/>
<path d="M334.084 88.4388H331.149V99.7918H329.531V88.4388H327.775V87.0634H329.531V86.1775C329.531 84.7943 329.878 83.7764 330.571 83.1236C331.28 82.4709 332.42 82.1445 333.991 82.1445V83.5433C332.944 83.5433 332.204 83.7453 331.773 84.1494C331.357 84.5535 331.149 85.2295 331.149 86.1775V87.0634H334.084V88.4388Z" fill="#232530"/>
<path d="M341.276 88.4388V96.3416C341.276 97.1187 341.422 97.6549 341.715 97.9502C342.007 98.2454 342.524 98.3931 343.263 98.3931H344.742V99.7918H343.009C341.869 99.7918 341.021 99.5276 340.467 98.9992C339.912 98.4552 339.635 97.5694 339.635 96.3416V88.4388H337.878V87.0634H339.635V83.8696H341.276V87.0634H344.742V88.4388H341.276Z" fill="#232530"/>
<path d="M366.592 87.0634L362.64 99.7918H361.022L357.532 89.1149L354.043 99.7918H352.402L348.45 87.0634H350.091L353.234 98.1366L356.77 87.0634H358.387L361.877 98.16L364.997 87.0634H366.592Z" fill="#232530"/>
<path d="M370.6 93.4043C370.6 92.0988 370.854 90.9565 371.362 89.9774C371.886 88.9828 372.602 88.2212 373.511 87.6928C374.436 87.1489 375.476 86.8769 376.631 86.8769C377.833 86.8769 378.865 87.1566 379.728 87.7161C380.606 88.2756 381.238 88.9905 381.623 89.8608V87.0634H383.241V99.7918H381.623V96.971C381.222 97.8414 380.583 98.564 379.705 99.1391C378.842 99.6986 377.81 99.9783 376.608 99.9783C375.468 99.9783 374.436 99.7063 373.511 99.1624C372.602 98.6184 371.886 97.8491 371.362 96.8545C370.854 95.8598 370.6 94.7098 370.6 93.4043ZM381.623 93.4276C381.623 92.4019 381.415 91.5005 380.999 90.7234C380.583 89.9463 380.013 89.348 379.289 88.9284C378.58 88.5087 377.794 88.2989 376.932 88.2989C376.038 88.2989 375.237 88.501 374.528 88.905C373.82 89.3091 373.257 89.8997 372.841 90.6768C372.441 91.4383 372.24 92.3475 372.24 93.4043C372.24 94.4456 372.441 95.3625 372.841 96.1551C373.257 96.9322 373.82 97.5305 374.528 97.9502C375.237 98.3542 376.038 98.5563 376.932 98.5563C377.794 98.5563 378.58 98.3465 379.289 97.9268C380.013 97.5072 380.583 96.9089 380.999 96.1318C381.415 95.3547 381.623 94.4533 381.623 93.4276Z" fill="#232530"/>
<path d="M391.094 89.3247C391.448 88.5321 391.987 87.9182 392.711 87.483C393.451 87.0478 394.352 86.8303 395.415 86.8303V88.5321H394.976C393.805 88.5321 392.865 88.8507 392.157 89.4878C391.448 90.125 391.094 91.1896 391.094 92.6816V99.7918H389.476V87.0634H391.094V89.3247Z" fill="#232530"/>
<path d="M411.807 92.7749C411.807 93.3343 411.792 93.7617 411.761 94.057H401.292C401.338 95.0206 401.57 95.8443 401.986 96.5281C402.402 97.2119 402.948 97.7326 403.626 98.09C404.304 98.4319 405.044 98.6029 405.845 98.6029C406.893 98.6029 407.771 98.3465 408.48 97.8336C409.204 97.3207 409.681 96.6291 409.912 95.7588H411.622C411.314 97.0021 410.652 98.0201 409.635 98.8127C408.634 99.5898 407.37 99.9783 405.845 99.9783C404.659 99.9783 403.596 99.7141 402.656 99.1857C401.716 98.6417 400.976 97.8802 400.437 96.9011C399.913 95.9065 399.651 94.7486 399.651 93.4276C399.651 92.1066 399.913 90.9487 400.437 89.9541C400.961 88.9594 401.693 88.1979 402.633 87.6695C403.572 87.1411 404.643 86.8769 405.845 86.8769C407.047 86.8769 408.094 87.1411 408.988 87.6695C409.897 88.1979 410.59 88.9128 411.068 89.8142C411.561 90.7001 411.807 91.687 411.807 92.7749ZM410.167 92.7282C410.182 91.7802 409.989 90.9721 409.589 90.3038C409.204 89.6355 408.672 89.1304 407.994 88.7885C407.316 88.4466 406.577 88.2756 405.776 88.2756C404.574 88.2756 403.549 88.6642 402.702 89.4412C401.855 90.2183 401.385 91.314 401.292 92.7282H410.167Z" fill="#232530"/>
<path d="M434.79 99.7918L430.792 92.9847H427.811V99.7918H426.193V83.4966H431.046C432.849 83.4966 434.212 83.9318 435.137 84.8021C436.076 85.6724 436.546 86.8147 436.546 88.229C436.546 89.4101 436.207 90.4203 435.53 91.2596C434.867 92.0833 433.881 92.6194 432.571 92.8681L436.731 99.7918H434.79ZM427.811 91.6559H431.069C432.333 91.6559 433.28 91.345 433.912 90.7234C434.559 90.1017 434.882 89.2703 434.882 88.229C434.882 87.1566 434.574 86.3329 433.958 85.7579C433.342 85.1673 432.371 84.872 431.046 84.872H427.811V91.6559Z" fill="#232530"/>
<path d="M453.715 92.7749C453.715 93.3343 453.7 93.7617 453.669 94.057H443.2C443.246 95.0206 443.477 95.8443 443.893 96.5281C444.309 97.2119 444.856 97.7326 445.534 98.09C446.212 98.4319 446.952 98.6029 447.753 98.6029C448.8 98.6029 449.679 98.3465 450.387 97.8336C451.111 97.3207 451.589 96.6291 451.82 95.7588H453.53C453.222 97.0021 452.56 98.0201 451.543 98.8127C450.541 99.5898 449.278 99.9783 447.753 99.9783C446.566 99.9783 445.503 99.7141 444.564 99.1857C443.624 98.6417 442.884 97.8802 442.345 96.9011C441.821 95.9065 441.559 94.7486 441.559 93.4276C441.559 92.1066 441.821 90.9487 442.345 89.9541C442.869 88.9594 443.601 88.1979 444.54 87.6695C445.48 87.1411 446.551 86.8769 447.753 86.8769C448.955 86.8769 450.002 87.1411 450.896 87.6695C451.805 88.1979 452.498 88.9128 452.976 89.8142C453.469 90.7001 453.715 91.687 453.715 92.7749ZM452.074 92.7282C452.09 91.7802 451.897 90.9721 451.497 90.3038C451.111 89.6355 450.58 89.1304 449.902 88.7885C449.224 88.4466 448.485 88.2756 447.683 88.2756C446.482 88.2756 445.457 88.6642 444.61 89.4412C443.762 90.2183 443.293 91.314 443.2 92.7282H452.074Z" fill="#232530"/>
<path d="M463.7 98.2066L467.953 87.0634H469.663L464.602 99.7918H462.776L457.715 87.0634H459.448L463.7 98.2066Z" fill="#232530"/>
<path d="M479.921 99.9783C478.734 99.9783 477.664 99.7141 476.709 99.1857C475.769 98.6417 475.021 97.8802 474.467 96.9011C473.928 95.9065 473.658 94.7486 473.658 93.4276C473.658 92.1066 473.935 90.9565 474.49 89.9774C475.045 88.9828 475.8 88.2212 476.755 87.6928C477.71 87.1489 478.781 86.8769 479.967 86.8769C481.153 86.8769 482.224 87.1489 483.179 87.6928C484.15 88.2212 484.905 88.9828 485.444 89.9774C485.999 90.9565 486.276 92.1066 486.276 93.4276C486.276 94.7331 485.999 95.8831 485.444 96.8778C484.889 97.8724 484.127 98.6417 483.156 99.1857C482.186 99.7141 481.107 99.9783 479.921 99.9783ZM479.921 98.5563C480.753 98.5563 481.523 98.3698 482.232 97.9968C482.941 97.6082 483.511 97.0332 483.942 96.2717C484.389 95.4946 484.612 94.5466 484.612 93.4276C484.612 92.3086 484.396 91.3684 483.965 90.6068C483.534 89.8298 482.964 89.2547 482.255 88.8817C481.546 88.4932 480.776 88.2989 479.944 88.2989C479.112 88.2989 478.342 88.4932 477.633 88.8817C476.924 89.2547 476.354 89.8298 475.923 90.6068C475.507 91.3684 475.299 92.3086 475.299 93.4276C475.299 94.5466 475.507 95.4946 475.923 96.2717C476.354 97.0332 476.916 97.6082 477.61 97.9968C478.319 98.3698 479.089 98.5563 479.921 98.5563Z" fill="#232530"/>
<path d="M493.385 82.5408V99.7918H491.767V82.5408H493.385Z" fill="#232530"/>
<path d="M510.521 87.0634V99.7918H508.904V97.5538C508.534 98.3465 507.964 98.9526 507.193 99.3722C506.423 99.7918 505.56 100.002 504.605 100.002C503.095 100.002 501.863 99.5354 500.907 98.6029C499.952 97.6549 499.475 96.2872 499.475 94.5V87.0634H501.069V94.3135C501.069 95.6966 501.408 96.7535 502.086 97.4839C502.779 98.2144 503.719 98.5796 504.906 98.5796C506.123 98.5796 507.093 98.191 507.817 97.414C508.542 96.6369 508.904 95.4946 508.904 93.9871V87.0634H510.521Z" fill="#232530"/>
<path d="M518.86 88.4388V96.3416C518.86 97.1187 519.006 97.6549 519.299 97.9502C519.592 98.2454 520.108 98.3931 520.847 98.3931H522.326V99.7918H520.593C519.453 99.7918 518.606 99.5276 518.051 98.9992C517.496 98.4552 517.219 97.5694 517.219 96.3416V88.4388H515.463V87.0634H517.219V83.8696H518.86V87.0634H522.326V88.4388H518.86Z" fill="#232530"/>
<path d="M528.345 84.6622C528.022 84.6622 527.744 84.5457 527.513 84.3126C527.282 84.0794 527.167 83.7919 527.167 83.45C527.167 83.1081 527.282 82.8284 527.513 82.6108C527.744 82.3777 528.022 82.2611 528.345 82.2611C528.669 82.2611 528.946 82.3777 529.177 82.6108C529.408 82.8284 529.524 83.1081 529.524 83.45C529.524 83.7919 529.408 84.0794 529.177 84.3126C528.946 84.5457 528.669 84.6622 528.345 84.6622ZM529.154 87.0634V99.7918H527.536V87.0634H529.154Z" fill="#232530"/>
<path d="M540.883 99.9783C539.696 99.9783 538.626 99.7141 537.67 99.1857C536.731 98.6417 535.983 97.8802 535.429 96.9011C534.89 95.9065 534.62 94.7486 534.62 93.4276C534.62 92.1066 534.897 90.9565 535.452 89.9774C536.006 88.9828 536.761 88.2212 537.717 87.6928C538.672 87.1489 539.743 86.8769 540.929 86.8769C542.115 86.8769 543.186 87.1489 544.141 87.6928C545.112 88.2212 545.867 88.9828 546.406 89.9774C546.961 90.9565 547.238 92.1066 547.238 93.4276C547.238 94.7331 546.961 95.8831 546.406 96.8778C545.851 97.8724 545.089 98.6417 544.118 99.1857C543.148 99.7141 542.069 99.9783 540.883 99.9783ZM540.883 98.5563C541.715 98.5563 542.485 98.3698 543.194 97.9968C543.902 97.6082 544.473 97.0332 544.904 96.2717C545.351 95.4946 545.574 94.5466 545.574 93.4276C545.574 92.3086 545.358 91.3684 544.927 90.6068C544.496 89.8298 543.926 89.2547 543.217 88.8817C542.508 88.4932 541.738 88.2989 540.906 88.2989C540.074 88.2989 539.304 88.4932 538.595 88.8817C537.886 89.2547 537.316 89.8298 536.885 90.6068C536.469 91.3684 536.261 92.3086 536.261 93.4276C536.261 94.5466 536.469 95.4946 536.885 96.2717C537.316 97.0332 537.878 97.6082 538.572 97.9968C539.28 98.3698 540.051 98.5563 540.883 98.5563Z" fill="#232530"/>
<path d="M558.645 86.8303C560.155 86.8303 561.388 87.3043 562.343 88.2523C563.298 89.1848 563.776 90.5447 563.776 92.3319V99.7918H562.181V92.5184C562.181 91.1352 561.834 90.0784 561.141 89.348C560.463 88.6175 559.531 88.2523 558.345 88.2523C557.128 88.2523 556.157 88.6408 555.433 89.4179C554.709 90.195 554.347 91.3373 554.347 92.8448V99.7918H552.729V87.0634H554.347V89.2314C554.747 88.4543 555.325 87.8638 556.08 87.4597C556.835 87.0401 557.69 86.8303 558.645 86.8303Z" fill="#232530"/>
</svg>
