<svg width="402" height="50" viewBox="0 0 402 50" fill="none" xmlns="http://www.w3.org/2000/svg">
<mask id="mask0_746_1403" style="mask-type:alpha" maskUnits="userSpaceOnUse" x="0" y="0" width="51" height="50">
<path d="M29.8006 47.3018C17.7351 47.3018 7.95494 37.557 7.95494 25.5352C7.95494 13.5134 17.7351 3.76858 29.8006 3.76858C35.8855 3.76858 41.3861 6.24876 45.3474 10.2502C40.7843 4.03865 33.4137 0 25.0932 0C11.2349 0 0 11.1918 0 25C0 38.8082 11.2349 50 25.0908 50C31.3423 50 37.0567 47.7156 41.4532 43.9445C38.0788 46.0704 34.0851 47.3043 29.8006 47.3043" fill="url(#paint0_linear_746_1403)"/>
<path d="M37.3106 7.26562C42.5625 10.3305 46.0936 16.0094 46.0936 22.5109C46.0936 32.2631 38.1585 40.167 28.3734 40.1695C19.2671 40.1695 11.7697 33.3261 10.7701 24.5203C10.7527 24.8672 10.7402 25.2141 10.7402 25.5634C10.7402 36.3662 19.5307 45.1224 30.3702 45.1224C41.2097 45.1224 50.0002 36.3637 50.0002 25.5634C50.0002 17.1962 44.7259 10.0605 37.3106 7.26562Z" fill="url(#paint1_linear_746_1403)"/>
<path d="M27.8464 8.61719C21.2591 8.61719 15.6964 12.9829 13.9084 18.969C15.9053 14.529 20.3788 11.4368 25.5785 11.4368C32.6407 11.4368 38.3651 17.1405 38.3651 24.1771C38.3651 31.2138 32.6407 36.9175 25.5785 36.9175C24.4247 36.9175 23.3057 36.7614 22.2414 36.4765C23.9646 37.195 25.8595 37.5914 27.8464 37.5939C35.8784 37.5939 42.3861 31.1048 42.3861 23.1043C42.3861 15.1013 35.8759 8.61719 27.8464 8.61719Z" fill="url(#paint2_linear_746_1403)"/>
</mask>
<g mask="url(#mask0_746_1403)">
<rect x="-1.42871" y="-1.42969" width="52.1429" height="52.1429" fill="#232530"/>
</g>
<g clip-path="url(#clip0_746_1403)">
<path d="M71.3983 39.6256L65.324 28.5979H63.6191V39.6256H56.5V10.418H68.4443C70.7476 10.418 72.709 10.8217 74.3333 11.6243C75.9575 12.4316 77.1685 13.5334 77.9759 14.9345C78.7785 16.3355 79.1822 17.898 79.1822 19.6172C79.1822 21.5596 78.6361 23.2931 77.539 24.8176C76.4419 26.3421 74.8272 27.4249 72.69 28.0613L79.4292 39.6303H71.3983V39.6256ZM63.6143 23.5638H68.0263C69.3324 23.5638 70.3059 23.2456 70.9613 22.6092C71.612 21.9728 71.9397 21.0704 71.9397 19.9021C71.9397 18.7338 71.612 17.917 70.9613 17.2806C70.3107 16.6442 69.3324 16.3212 68.0263 16.3212H63.6143V23.5638Z" fill="#232530"/>
<path d="M104.643 10.418V16.117H96.9014V39.6256H89.7871V16.117H82.0459V10.418H104.643Z" fill="#232530"/>
<path d="M115.21 10.418V27.895C115.21 29.6428 115.642 30.9868 116.501 31.9319C117.361 32.877 118.624 33.3471 120.287 33.3471C121.949 33.3471 123.226 32.877 124.114 31.9319C125.002 30.9868 125.444 29.6428 125.444 27.895V10.418H132.558V27.8523C132.558 30.4596 132.003 32.6632 130.896 34.4679C129.785 36.2726 128.294 37.6309 126.423 38.5475C124.551 39.4641 122.462 39.92 120.158 39.92C117.855 39.92 115.794 39.4689 113.98 38.5665C112.161 37.6642 110.726 36.3059 109.672 34.4869C108.618 32.668 108.091 30.4596 108.091 27.8476V10.418H115.205H115.21Z" fill="#232530"/>
<path d="M142.385 38.8791C140.694 38.1857 139.34 37.1599 138.329 35.8016C137.317 34.4433 136.781 32.8048 136.728 30.8909H144.303C144.412 31.9737 144.788 32.8001 145.429 33.3653C146.065 33.9352 146.901 34.2201 147.927 34.2201C148.953 34.2201 149.812 33.9779 150.425 33.4935C151.033 33.0091 151.342 32.3347 151.342 31.4751C151.342 30.7532 151.099 30.1595 150.615 29.6846C150.131 29.2144 149.532 28.825 148.824 28.5211C148.117 28.2171 147.11 27.8704 145.809 27.481C143.923 26.8968 142.385 26.3174 141.188 25.7333C139.996 25.1491 138.97 24.2895 138.11 23.1545C137.251 22.0194 136.819 20.5329 136.819 18.6997C136.819 15.9832 137.802 13.8508 139.773 12.312C141.743 10.7733 144.308 10.0039 147.471 10.0039C150.634 10.0039 153.284 10.7733 155.25 12.312C157.221 13.8508 158.275 15.9927 158.413 18.7424H150.715C150.658 17.7974 150.311 17.0565 149.675 16.5151C149.038 15.9737 148.217 15.703 147.219 15.703C146.36 15.703 145.666 15.9309 145.139 16.3916C144.612 16.8523 144.351 17.5077 144.351 18.3673C144.351 19.3123 144.792 20.0437 145.681 20.5709C146.569 21.0981 147.955 21.668 149.841 22.2759C151.726 22.9122 153.26 23.5249 154.438 24.109C155.616 24.6932 156.637 25.5386 157.497 26.6451C158.356 27.7564 158.788 29.1812 158.788 30.9289C158.788 32.6766 158.366 34.1061 157.52 35.4644C156.675 36.8227 155.445 37.9055 153.84 38.7081C152.23 39.5155 150.33 39.9144 148.141 39.9144C145.951 39.9144 144.09 39.5677 142.399 38.8743L142.385 38.8791Z" fill="#232530"/>
<path d="M176.793 38.8791C175.102 38.1857 173.748 37.1599 172.737 35.8016C171.725 34.4433 171.188 32.8048 171.136 30.8909H178.711C178.82 31.9737 179.196 32.8001 179.837 33.3653C180.473 33.9352 181.309 34.2201 182.335 34.2201C183.361 34.2201 184.22 33.9779 184.833 33.4935C185.441 33.0091 185.75 32.3347 185.75 31.4751C185.75 30.7532 185.507 30.1595 185.023 29.6846C184.538 29.2144 183.94 28.825 183.232 28.5211C182.525 28.2171 181.518 27.8704 180.217 27.481C178.331 26.8968 176.793 26.3174 175.596 25.7333C174.404 25.1491 173.378 24.2895 172.518 23.1545C171.659 22.0194 171.226 20.5329 171.226 18.6997C171.226 15.9832 172.21 13.8508 174.18 12.312C176.151 10.7733 178.716 10.0039 181.879 10.0039C185.042 10.0039 187.692 10.7733 189.658 12.312C191.629 13.8508 192.683 15.9927 192.821 18.7424H185.123C185.066 17.7974 184.719 17.0565 184.083 16.5151C183.446 15.9737 182.625 15.703 181.627 15.703C180.768 15.703 180.074 15.9309 179.547 16.3916C179.02 16.8523 178.759 17.5077 178.759 18.3673C178.759 19.3123 179.2 20.0437 180.088 20.5709C180.977 21.0981 182.363 21.668 184.249 22.2759C186.134 22.9122 187.668 23.5249 188.846 24.109C190.024 24.6932 191.045 25.5386 191.904 26.6451C192.764 27.7564 193.196 29.1812 193.196 30.9289C193.196 32.6766 192.774 34.1061 191.928 35.4644C191.083 36.8227 189.853 37.9055 188.248 38.7081C186.638 39.5155 184.738 39.9144 182.549 39.9144C180.359 39.9144 178.497 39.5677 176.807 38.8743L176.793 38.8791Z" fill="#232530"/>
<path d="M203.82 38.0052C201.531 36.7277 199.717 34.9467 198.368 32.6576C197.024 30.3685 196.35 27.7944 196.35 24.9402C196.35 22.0859 197.024 19.5166 198.368 17.2417C199.712 14.9668 201.531 13.1906 203.82 11.9178C206.109 10.6403 208.627 10.0039 211.372 10.0039C214.117 10.0039 216.634 10.6403 218.923 11.9178C221.212 13.1954 223.017 14.9716 224.332 17.2417C225.648 19.5166 226.308 22.0811 226.308 24.9402C226.308 27.7992 225.643 30.3685 224.308 32.6576C222.974 34.9467 221.174 36.7277 218.899 38.0052C216.624 39.2828 214.112 39.9192 211.367 39.9192C208.622 39.9192 206.105 39.2828 203.816 38.0052H203.82ZM216.971 31.0951C218.372 29.5421 219.07 27.4905 219.07 24.9354C219.07 22.3803 218.367 20.2954 216.971 18.7567C215.57 17.218 213.703 16.4486 211.372 16.4486C209.04 16.4486 207.135 17.2132 205.734 18.7377C204.333 20.2622 203.635 22.3328 203.635 24.9354C203.635 27.538 204.333 29.5754 205.734 31.1141C207.135 32.6529 209.016 33.4222 211.372 33.4222C213.727 33.4222 215.565 32.6481 216.971 31.0904V31.0951Z" fill="#232530"/>
<path d="M237.378 34.1355H246.701V39.6303H230.264V10.418H237.378V34.1355Z" fill="#232530"/>
<path d="M257.102 10.418V27.895C257.102 29.6428 257.534 30.9868 258.394 31.9319C259.253 32.877 260.516 33.3471 262.179 33.3471C263.841 33.3471 265.118 32.877 266.006 31.9319C266.895 30.9868 267.336 29.6428 267.336 27.895V10.418H274.451V27.8523C274.451 30.4596 273.895 32.6632 272.788 34.4679C271.677 36.2726 270.186 37.6309 268.315 38.5475C266.443 39.4641 264.354 39.92 262.05 39.92C259.747 39.92 257.686 39.4689 255.872 38.5665C254.053 37.6642 252.618 36.3059 251.564 34.4869C250.51 32.668 249.983 30.4596 249.983 27.8476V10.418H257.097H257.102Z" fill="#232530"/>
<path d="M300.462 10.418V16.117H292.721V39.6256H285.606V16.117H277.865V10.418H300.462Z" fill="#232530"/>
<path d="M311.152 10.418V39.6303H304.038V10.418H311.152Z" fill="#232530"/>
<path d="M322.574 38.0052C320.285 36.7277 318.471 34.9467 317.122 32.6576C315.778 30.3685 315.104 27.7944 315.104 24.9402C315.104 22.0859 315.778 19.5166 317.122 17.2417C318.466 14.9668 320.285 13.1906 322.574 11.9178C324.863 10.6403 327.38 10.0039 330.126 10.0039C332.871 10.0039 335.388 10.6403 337.677 11.9178C339.966 13.1954 341.771 14.9716 343.086 17.2417C344.402 19.5166 345.062 22.0811 345.062 24.9402C345.062 27.7992 344.397 30.3685 343.062 32.6576C341.728 34.9467 339.928 36.7277 337.653 38.0052C335.378 39.2828 332.866 39.9192 330.121 39.9192C327.376 39.9192 324.859 39.2828 322.569 38.0052H322.574ZM335.725 31.0951C337.126 29.5421 337.824 27.4905 337.824 24.9354C337.824 22.3803 337.121 20.2954 335.725 18.7567C334.324 17.218 332.457 16.4486 330.126 16.4486C327.794 16.4486 325.889 17.2132 324.488 18.7377C323.087 20.2622 322.389 22.3328 322.389 24.9354C322.389 27.538 323.087 29.5754 324.488 31.1141C325.889 32.6529 327.77 33.4222 330.126 33.4222C332.481 33.4222 334.319 32.6481 335.725 31.0904V31.0951Z" fill="#232530"/>
<path d="M375.153 39.6256H368.038L356.137 21.6071V39.6256H349.022V10.418H356.137L368.038 28.5172V10.418H375.153V39.6303V39.6256Z" fill="#232530"/>
<path d="M385.136 38.8791C383.445 38.1857 382.091 37.1599 381.08 35.8016C380.068 34.4433 379.531 32.8048 379.479 30.8909H387.054C387.163 31.9737 387.539 32.8001 388.18 33.3653C388.816 33.9352 389.652 34.2201 390.678 34.2201C391.704 34.2201 392.563 33.9779 393.176 33.4935C393.784 33.0091 394.093 32.3347 394.093 31.4751C394.093 30.7532 393.85 30.1595 393.366 29.6846C392.882 29.2144 392.283 28.825 391.575 28.5211C390.868 28.2171 389.861 27.8704 388.56 27.481C386.674 26.8968 385.136 26.3174 383.939 25.7333C382.747 25.1491 381.721 24.2895 380.861 23.1545C380.002 22.0194 379.569 20.5329 379.569 18.6997C379.569 15.9832 380.553 13.8508 382.523 12.312C384.494 10.7733 387.059 10.0039 390.222 10.0039C393.385 10.0039 396.035 10.7733 398.001 12.312C399.972 13.8508 401.026 15.9927 401.164 18.7424H393.466C393.409 17.7974 393.062 17.0565 392.426 16.5151C391.789 15.9737 390.968 15.703 389.97 15.703C389.111 15.703 388.417 15.9309 387.89 16.3916C387.363 16.8523 387.102 17.5077 387.102 18.3673C387.102 19.3123 387.543 20.0437 388.431 20.5709C389.32 21.0981 390.706 21.668 392.592 22.2759C394.477 22.9122 396.011 23.5249 397.189 24.109C398.367 24.6932 399.388 25.5386 400.248 26.6451C401.107 27.7564 401.539 29.1812 401.539 30.9289C401.539 32.6766 401.117 34.1061 400.271 35.4644C399.426 36.8227 398.196 37.9055 396.591 38.7081C394.981 39.5155 393.081 39.9144 390.892 39.9144C388.702 39.9144 386.841 39.5677 385.15 38.8743L385.136 38.8791Z" fill="#232530"/>
</g>
<defs>
<linearGradient id="paint0_linear_746_1403" x1="40.3353" y1="5" x2="8.49566" y2="42.6496" gradientUnits="userSpaceOnUse">
<stop offset="0.278846" stop-color="#7DFF6B"/>
<stop offset="1" stop-color="#0B826F"/>
</linearGradient>
<linearGradient id="paint1_linear_746_1403" x1="45.6609" y1="11.0513" x2="22.2863" y2="42.6567" gradientUnits="userSpaceOnUse">
<stop offset="0.278846" stop-color="#7DFF6B"/>
<stop offset="1" stop-color="#0B826F"/>
</linearGradient>
<linearGradient id="paint2_linear_746_1403" x1="39.2386" y1="11.5149" x2="21.0872" y2="34.7729" gradientUnits="userSpaceOnUse">
<stop offset="0.278846" stop-color="#7DFF6B"/>
<stop offset="1" stop-color="#0B826F"/>
</linearGradient>
<clipPath id="clip0_746_1403">
<rect width="345.03" height="29.92" fill="white" transform="translate(56.5 10)"/>
</clipPath>
</defs>
</svg>
