<svg width="469" height="100" viewBox="0 0 469 100" fill="none" xmlns="http://www.w3.org/2000/svg">
<g clip-path="url(#clip0_737_7871)">
<path d="M100.001 50.7498L84.1177 28.979V38.59H75.2214L75.2323 35.4069L61.0289 27.1152V16.213H70.4411L49.1194 0L28.9722 16.213H37.21V27.8113L23.9725 35.7325V39.4883H15.8829V29.8772L0 51.6536L15.8829 71.3248V62.9151H23.9725V65.767L38.3845 74.3787V83.7876H30.1467L50.2939 100.001L71.6156 83.7876H62.2033V73.5254L75.1445 65.767V62.0113H84.1177V71.3191L100.001 50.7498ZM48.395 75.4341L27.8636 63.2576L27.8252 39.0223L48.4115 51.1652L48.395 75.4341ZM49.811 49.1554L29.2247 37.0181L49.8055 24.9426L70.3972 37.0125L49.8164 49.1554H49.811ZM71.451 63.527L50.9251 75.7036L50.9086 51.4347L71.4949 39.2918L71.451 63.527Z" fill="url(#paint0_linear_737_7871)"/>
</g>
<path d="M154.558 21.1719V32.4937H139.163V79.3H125.011V32.4937H109.547V21.1719H154.558Z" fill="#1D3366"/>
<path d="M175.821 32.4937V44.2298H194.806V55.1375H175.821V67.9091H197.291V79.2309H161.669V21.1719H197.291V32.4937H175.821Z" fill="#1D3366"/>
<path d="M216.069 77.8505C212.686 76.4698 209.994 74.3987 207.992 71.7063C205.99 69.0139 204.885 65.7693 204.816 61.9033H219.866C220.073 64.0434 220.832 65.7002 222.075 66.8048C223.317 67.9094 224.974 68.5307 227.045 68.5307C229.116 68.5307 230.773 68.0474 232.016 67.0809C233.259 66.1144 233.811 64.8028 233.811 63.0769C233.811 61.6271 233.328 60.4535 232.361 59.487C231.395 58.5205 230.221 57.7611 228.771 57.1398C227.391 56.5185 225.389 55.8281 222.765 55.0687C219.037 53.8951 215.931 52.7215 213.583 51.6169C211.236 50.4433 209.165 48.7174 207.439 46.5083C205.713 44.2991 204.885 41.2616 204.885 37.6717C204.885 32.2869 206.818 28.0067 210.753 24.9691C214.688 21.9316 219.797 20.3438 226.079 20.3438C232.361 20.3438 237.677 21.8625 241.543 24.9691C245.478 28.0067 247.549 32.2869 247.825 37.7408H232.499C232.361 35.8768 231.671 34.358 230.428 33.3225C229.186 32.2869 227.529 31.7346 225.527 31.7346C223.801 31.7346 222.42 32.2179 221.384 33.1154C220.349 34.0128 219.797 35.3245 219.797 37.0504C219.797 38.9144 220.694 40.3641 222.42 41.4687C224.215 42.5042 226.976 43.6778 230.704 44.8514C234.432 46.0941 237.539 47.3367 239.886 48.5103C242.233 49.6839 244.235 51.3408 245.961 53.5499C247.687 55.7591 248.516 58.5895 248.516 62.1104C248.516 65.6312 247.687 68.4617 245.961 71.154C244.304 73.8464 241.819 75.9865 238.643 77.6434C235.468 79.2312 231.671 80.0597 227.322 80.0597C222.972 80.0597 219.244 79.3693 215.862 77.9886L216.069 77.8505Z" fill="#1D3366"/>
<path d="M299.257 21.1719V32.4937H283.862V79.3H269.71V32.4937H254.315V21.1719H299.326H299.257Z" fill="#1D3366"/>
<path d="M349.722 54.5161C351.793 57.1395 352.76 60.108 352.76 63.4908C352.76 68.3233 351.034 72.1893 347.651 75.0197C344.268 77.8502 339.505 79.3 333.43 79.3H306.368V21.1719H332.532C338.469 21.1719 343.095 22.5526 346.408 25.245C349.722 27.9374 351.448 31.5963 351.448 36.2907C351.448 39.7425 350.551 42.5729 348.756 44.8511C346.961 47.1293 344.544 48.7171 341.576 49.5456C344.959 50.2359 347.651 51.9618 349.722 54.5852V54.5161ZM320.52 44.7131H329.771C332.118 44.7131 333.844 44.2298 335.087 43.1943C336.329 42.1587 336.95 40.6399 336.95 38.7069C336.95 36.7739 336.329 35.1861 335.087 34.1506C333.844 33.1151 332.049 32.5628 329.771 32.5628H320.52V44.7131ZM336.467 66.2522C337.779 65.1476 338.4 63.6288 338.4 61.5578C338.4 59.4867 337.71 57.8989 336.398 56.7253C335.017 55.5517 333.154 54.9994 330.806 54.9994H320.52V67.84H330.944C333.292 67.84 335.156 67.2877 336.467 66.2522Z" fill="#1D3366"/>
<path d="M452.308 79.3L440.434 61.4887L430.01 79.3H413.924L432.564 49.7527L413.579 21.1719H430.079L441.746 38.707L452.032 21.1719H468.117L449.616 50.5121L468.808 79.369H452.308V79.3Z" fill="#1D3366"/>
<path d="M393.382 76.4661C379.209 76.4661 367.719 65.0184 367.719 50.8958C367.719 36.7733 379.209 25.3256 393.382 25.3256C400.531 25.3256 406.992 28.2392 411.646 32.9399C406.285 25.6428 397.627 20.8984 387.853 20.8984C371.573 20.8984 358.375 34.0459 358.375 50.2671C358.375 66.4883 371.573 79.6358 387.85 79.6358C395.194 79.6358 401.907 76.9522 407.071 72.5221C403.107 75.0195 398.416 76.469 393.382 76.469" fill="#1D3366"/>
<path d="M402.204 29.4375C408.374 33.038 412.522 39.7093 412.522 47.3469C412.522 58.8033 403.201 68.0883 391.706 68.0912C381.008 68.0912 372.201 60.052 371.026 49.7074C371.006 50.1149 370.991 50.5224 370.991 50.9328C370.991 63.6234 381.318 73.9097 394.051 73.9097C406.785 73.9097 417.111 63.6204 417.111 50.9328C417.111 41.1035 410.916 32.7207 402.204 29.4375Z" fill="#1D3366"/>
<path d="M391.087 31.0234C383.349 31.0234 376.814 36.152 374.713 43.1842C377.059 37.9683 382.314 34.3358 388.423 34.3358C396.719 34.3358 403.444 41.0362 403.444 49.3025C403.444 57.5688 396.719 64.2692 388.423 64.2692C387.067 64.2692 385.753 64.0858 384.502 63.7511C386.527 64.5952 388.753 65.0609 391.087 65.0638C400.522 65.0638 408.167 57.4407 408.167 48.0421C408.167 38.6407 400.519 31.0234 391.087 31.0234Z" fill="#1D3366"/>
<defs>
<linearGradient id="paint0_linear_737_7871" x1="79.3227" y1="23.5279" x2="18.1501" y2="95.4561" gradientUnits="userSpaceOnUse">
<stop offset="0.278846" stop-color="#33CFFF"/>
<stop offset="1" stop-color="#0D87C5"/>
</linearGradient>
<clipPath id="clip0_737_7871">
<rect width="99.9985" height="100" fill="white"/>
</clipPath>
</defs>
</svg>
