<svg width="235" height="50" viewBox="0 0 235 50" fill="none" xmlns="http://www.w3.org/2000/svg">
<g clip-path="url(#clip0_737_7969)">
<path d="M50.0003 25.3749L42.0589 14.4895V19.295H37.6107L37.6162 17.7035L30.5144 13.5576V8.10649H35.2206L24.5597 0L14.4861 8.10649H18.605V13.9057L11.9862 17.8663V19.7441H7.94143V14.9386L0 25.8268L7.94143 35.6624V31.4576H11.9862V32.8835L19.1923 37.1894V41.8938H15.0734L25.147 50.0003L35.8078 41.8938H31.1017V36.7627L37.5723 32.8835V31.0056H42.0589V35.6596L50.0003 25.3749ZM24.1975 37.7171L13.9318 31.6288L13.9126 19.5112L24.2057 25.5826L24.1975 37.7171ZM24.9055 24.5777L14.6123 18.5091L24.9027 12.4713L35.1986 18.5063L24.9082 24.5777H24.9055ZM35.7255 31.7635L25.4625 37.8518L25.4543 25.7173L35.7474 19.6459L35.7255 31.7635Z" fill="#1D3366"/>
</g>
<path d="M77.2791 10.5859V16.2469H69.5816V39.65H62.5054V16.2469H54.7734V10.5859H77.2791Z" fill="#1D3366"/>
<path d="M87.9111 16.2469V22.1149H97.4035V27.5687H87.9111V33.9545H98.6462V39.6155H80.835V10.5859H98.6462V16.2469H87.9111Z" fill="#1D3366"/>
<path d="M108.035 38.9253C106.343 38.2349 104.997 37.1994 103.996 35.8532C102.995 34.507 102.443 32.8846 102.408 30.9516H109.933C110.037 32.0217 110.416 32.8501 111.038 33.4024C111.659 33.9547 112.487 34.2653 113.523 34.2653C114.558 34.2653 115.387 34.0237 116.008 33.5405C116.63 33.0572 116.906 32.4014 116.906 31.5384C116.906 30.8136 116.664 30.2268 116.181 29.7435C115.698 29.2603 115.111 28.8806 114.386 28.5699C113.696 28.2592 112.695 27.9141 111.383 27.5344C109.519 26.9476 107.966 26.3608 106.792 25.8085C105.618 25.2217 104.583 24.3587 103.72 23.2541C102.857 22.1496 102.443 20.6308 102.443 18.8359C102.443 16.1435 103.409 14.0034 105.377 12.4846C107.344 10.9658 109.899 10.1719 113.04 10.1719C116.181 10.1719 118.839 10.9313 120.772 12.4846C122.739 14.0034 123.775 16.1435 123.913 18.8704H116.25C116.181 17.9384 115.836 17.179 115.214 16.6612C114.593 16.1435 113.765 15.8673 112.764 15.8673C111.901 15.8673 111.21 16.1089 110.692 16.5577C110.175 17.0064 109.899 17.6623 109.899 18.5252C109.899 19.4572 110.347 20.1821 111.21 20.7343C112.108 21.2521 113.488 21.8389 115.352 22.4257C117.216 23.047 118.77 23.6684 119.943 24.2552C121.117 24.842 122.118 25.6704 122.981 26.775C123.844 27.8795 124.258 29.2948 124.258 31.0552C124.258 32.8156 123.844 34.2308 122.981 35.577C122.152 36.9232 120.91 37.9933 119.322 38.8217C117.734 39.6156 115.836 40.0298 113.661 40.0298C111.486 40.0298 109.622 39.6846 107.931 38.9943L108.035 38.9253Z" fill="#1D3366"/>
<path d="M149.628 10.5859V16.2469H141.931V39.65H134.855V16.2469H127.157V10.5859H149.663H149.628Z" fill="#1D3366"/>
<path d="M174.861 27.2581C175.896 28.5697 176.38 30.054 176.38 31.7454C176.38 34.1616 175.517 36.0946 173.825 37.5099C172.134 38.9251 169.752 39.65 166.715 39.65H153.184V10.5859H166.266C169.234 10.5859 171.547 11.2763 173.204 12.6225C174.861 13.9687 175.724 15.7981 175.724 18.1453C175.724 19.8712 175.275 21.2865 174.378 22.4256C173.48 23.5647 172.272 24.3586 170.788 24.7728C172.479 25.118 173.825 25.9809 174.861 27.2926V27.2581ZM160.26 22.3565H164.885C166.059 22.3565 166.922 22.1149 167.543 21.5971C168.164 21.0794 168.475 20.32 168.475 19.3535C168.475 18.387 168.164 17.5931 167.543 17.0753C166.922 16.5575 166.024 16.2814 164.885 16.2814H160.26V22.3565ZM168.233 33.1261C168.889 32.5738 169.2 31.8144 169.2 30.7789C169.2 29.7433 168.855 28.9494 168.199 28.3626C167.509 27.7758 166.577 27.4997 165.403 27.4997H160.26V33.92H165.472C166.646 33.92 167.578 33.6439 168.233 33.1261Z" fill="#1D3366"/>
<path d="M226.155 39.65L220.217 30.7444L215.005 39.65H206.963L216.282 24.8763L206.79 10.5859H215.04L220.873 19.3535L226.016 10.5859H234.059L224.808 25.256L234.404 39.6845H226.155V39.65Z" fill="#1D3366"/>
<path d="M196.691 38.2331C189.605 38.2331 183.86 32.5092 183.86 25.4479C183.86 18.3866 189.605 12.6628 196.691 12.6628C200.266 12.6628 203.496 14.1196 205.823 16.4699C203.143 12.8214 198.814 10.4492 193.927 10.4492C185.787 10.4492 179.188 17.023 179.188 25.1336C179.188 33.2442 185.787 39.8179 193.925 39.8179C197.597 39.8179 200.954 38.4761 203.536 36.2611C201.554 37.5098 199.208 38.2345 196.691 38.2345" fill="#1D3366"/>
<path d="M201.103 14.7188C204.188 16.519 206.262 19.8546 206.262 23.6734C206.262 29.4016 201.601 34.0442 195.853 34.0456C190.505 34.0456 186.101 30.026 185.514 24.8537C185.503 25.0575 185.496 25.2612 185.496 25.4664C185.496 31.8117 190.659 36.9548 197.026 36.9548C203.393 36.9548 208.556 31.8102 208.556 25.4664C208.556 20.5517 205.458 16.3604 201.103 14.7188Z" fill="#1D3366"/>
<path d="M195.544 15.5117C191.675 15.5117 188.408 18.076 187.357 21.5921C188.53 18.9842 191.158 17.1679 194.212 17.1679C198.36 17.1679 201.723 20.5181 201.723 24.6512C201.723 28.7844 198.36 32.1346 194.212 32.1346C193.534 32.1346 192.877 32.0429 192.252 31.8755C193.264 32.2976 194.377 32.5304 195.544 32.5319C200.262 32.5319 204.084 28.7204 204.084 24.0211C204.084 19.3203 200.26 15.5117 195.544 15.5117Z" fill="#1D3366"/>
<defs>
<clipPath id="clip0_737_7969">
<rect width="49.9992" height="50" fill="white"/>
</clipPath>
</defs>
</svg>
