<svg width="75" height="75" viewBox="0 0 75 75" fill="none" xmlns="http://www.w3.org/2000/svg">
<g clip-path="url(#clip0_737_7855)">
<path d="M75.0016 38.0623L63.0893 21.7343V28.9425H56.4169L56.4251 26.5552L45.7723 20.3364V12.1597H52.8317L36.8402 0L21.7295 12.1597H27.908V20.8585L17.9796 26.7994V29.6162H11.9123V22.4079L0 38.7402L11.9123 53.4936V47.1863H17.9796V49.3252L28.7888 55.784V62.8407H22.6104L37.721 75.0005L53.7125 62.8407H46.6532V55.1441L56.3593 49.3252V46.5085H63.0893V53.4894L75.0016 38.0623ZM36.2968 56.5756L20.898 47.4432L20.8692 29.2667L36.3092 38.3739L36.2968 56.5756ZM37.3588 36.8666L21.9189 27.7636L37.3547 18.707L52.7987 27.7594L37.3629 36.8666H37.3588ZM53.589 47.6453L38.1944 56.7777L38.182 38.576L53.622 29.4688L53.589 47.6453Z" fill="url(#paint0_linear_737_7855)"/>
</g>
<defs>
<linearGradient id="paint0_linear_737_7855" x1="59.4929" y1="17.6459" x2="13.6136" y2="71.5928" gradientUnits="userSpaceOnUse">
<stop offset="0.278846" stop-color="#33CFFF"/>
<stop offset="1" stop-color="#0D87C5"/>
</linearGradient>
<clipPath id="clip0_737_7855">
<rect width="75" height="75" fill="white"/>
</clipPath>
</defs>
</svg>
