<svg width="491" height="600" viewBox="0 0 491 600" fill="none" xmlns="http://www.w3.org/2000/svg">
<g clip-path="url(#clip0_1200_4830)">
<path d="M490.207 248.773L412.348 142.054V189.167H368.738L368.792 173.563L299.166 132.918V79.4754H345.305L240.785 0L142.023 79.4754H182.405V136.33L117.514 175.16V193.57H77.8584V146.457L0 253.204L77.8584 349.631V308.407H117.514V322.387L188.162 364.602V410.724H147.78L246.543 490.199L351.062 410.724H304.923V360.419L368.361 322.387V303.977H412.348V349.604L490.207 248.773ZM237.234 369.775L136.588 310.086L136.4 191.286L237.315 250.81L237.234 369.775ZM244.175 240.958L143.261 181.461L244.148 122.268L345.09 181.434L244.202 240.958H244.175ZM350.255 311.407L249.637 371.096L249.556 252.131L350.47 192.607L350.255 311.407Z" fill="url(#paint0_linear_1200_4830)"/>
</g>
<path d="M85.558 530.391V543.774H67.3601V599.102H50.6311V543.774H32.3516V530.391H85.558Z" fill="white"/>
<path d="M110.693 543.774V557.647H133.134V570.54H110.693V585.637H136.072V599.02H93.9639V530.391H136.072V543.774H110.693Z" fill="white"/>
<path d="M158.268 597.387C154.27 595.755 151.087 593.307 148.721 590.124C146.354 586.942 145.048 583.106 144.967 578.536H162.757C163.001 581.066 163.899 583.025 165.368 584.33C166.837 585.636 168.795 586.37 171.244 586.37C173.692 586.37 175.65 585.799 177.119 584.657C178.588 583.514 179.241 581.964 179.241 579.924C179.241 578.21 178.67 576.823 177.527 575.68C176.385 574.538 174.997 573.64 173.284 572.906C171.652 572.171 169.285 571.355 166.184 570.457C161.777 569.07 158.105 567.683 155.331 566.377C152.556 564.99 150.108 562.95 148.068 560.338C146.028 557.727 145.048 554.136 145.048 549.893C145.048 543.528 147.333 538.468 151.985 534.878C156.636 531.287 162.675 529.41 170.101 529.41C177.527 529.41 183.811 531.205 188.381 534.878C193.032 538.468 195.48 543.528 195.807 549.975H177.69C177.527 547.771 176.711 545.976 175.242 544.752C173.773 543.528 171.815 542.875 169.448 542.875C167.408 542.875 165.776 543.446 164.552 544.507C163.328 545.568 162.675 547.118 162.675 549.159C162.675 551.362 163.736 553.076 165.776 554.381C167.898 555.605 171.162 556.993 175.569 558.38C179.975 559.849 183.648 561.318 186.422 562.705C189.197 564.092 191.563 566.051 193.603 568.662C195.643 571.273 196.623 574.619 196.623 578.781C196.623 582.943 195.643 586.289 193.603 589.471C191.645 592.654 188.707 595.184 184.953 597.142C181.199 599.019 176.711 599.998 171.57 599.998C166.429 599.998 162.022 599.182 158.024 597.55L158.268 597.387Z" fill="white"/>
<path d="M256.603 530.391V543.774H238.405V599.102H221.676V543.774H203.479V530.391H256.685H256.603Z" fill="white"/>
<path d="M316.256 569.806C318.704 572.907 319.846 576.416 319.846 580.414C319.846 586.127 317.806 590.697 313.808 594.042C309.809 597.388 304.178 599.102 296.997 599.102H265.008V530.391H295.936C302.954 530.391 308.422 532.023 312.339 535.205C316.256 538.388 318.296 542.713 318.296 548.262C318.296 552.342 317.235 555.688 315.113 558.381C312.991 561.074 310.135 562.951 306.626 563.93C310.625 564.746 313.808 566.786 316.256 569.887V569.806ZM281.737 558.218H292.672C295.446 558.218 297.487 557.647 298.955 556.423C300.424 555.199 301.159 553.403 301.159 551.118C301.159 548.833 300.424 546.956 298.955 545.732C297.487 544.508 295.365 543.855 292.672 543.855H281.737V558.218ZM300.588 583.679C302.138 582.373 302.872 580.578 302.872 578.129C302.872 575.681 302.056 573.804 300.506 572.417C298.874 571.03 296.671 570.377 293.896 570.377H281.737V585.556H294.059C296.834 585.556 299.037 584.903 300.588 583.679Z" fill="white"/>
<path d="M437.519 599.102L423.483 578.048L411.16 599.102H392.146L414.18 564.175L391.738 530.391H411.242L425.033 551.118L437.192 530.391H456.206L434.336 565.073L457.022 599.184H437.519V599.102Z" fill="white"/>
<path d="M367.865 595.751C351.111 595.751 337.53 582.219 337.53 565.525C337.53 548.832 351.111 535.3 367.865 535.3C376.315 535.3 383.953 538.744 389.454 544.3C383.117 535.675 372.882 530.066 361.328 530.066C342.084 530.066 326.483 545.608 326.483 564.782C326.483 583.957 342.084 599.498 361.325 599.498C370.006 599.498 377.941 596.326 384.046 591.089C379.36 594.041 373.815 595.755 367.865 595.755" fill="white"/>
<path d="M378.294 540.156C385.587 544.412 390.49 552.298 390.49 561.326C390.49 574.869 379.471 585.844 365.883 585.848C353.238 585.848 342.827 576.345 341.439 564.117C341.415 564.598 341.397 565.08 341.397 565.565C341.397 580.566 353.604 592.725 368.656 592.725C383.708 592.725 395.915 580.563 395.915 565.565C395.915 553.946 388.591 544.037 378.294 540.156Z" fill="white"/>
<path d="M365.152 542.035C356.005 542.035 348.281 548.098 345.798 556.41C348.571 550.244 354.783 545.951 362.003 545.951C371.81 545.951 379.759 553.871 379.759 563.642C379.759 573.414 371.81 581.334 362.003 581.334C360.401 581.334 358.847 581.117 357.369 580.721C359.762 581.719 362.393 582.27 365.152 582.273C376.306 582.273 385.343 573.262 385.343 562.152C385.343 551.039 376.302 542.035 365.152 542.035Z" fill="white"/>
<defs>
<linearGradient id="paint0_linear_1200_4830" x1="388.843" y1="115.333" x2="88.9776" y2="467.927" gradientUnits="userSpaceOnUse">
<stop offset="0.278846" stop-color="#33CFFF"/>
<stop offset="1" stop-color="#0D87C5"/>
</linearGradient>
<clipPath id="clip0_1200_4830">
<rect width="490.196" height="490.196" fill="white"/>
</clipPath>
</defs>
</svg>
