<svg width="250" height="250" viewBox="0 0 250 250" fill="none" xmlns="http://www.w3.org/2000/svg">
<g clip-path="url(#clip0_737_7847)">
<path d="M250.005 126.874L210.298 72.4475V96.4751H188.056L188.084 88.5174L152.574 67.788V40.5324H176.106L122.801 0L72.4317 40.5324H93.0265V69.5283L59.9321 89.3314V98.7206H39.7078V74.6931L0 129.134L39.7078 178.312V157.288H59.9321V164.417L95.9628 185.947V209.469H75.368L125.737 250.002L179.042 209.469H155.511V183.814L187.864 164.417V155.028H210.298V178.298L250.005 126.874ZM120.989 188.585L69.6601 158.144L69.5641 97.5558L121.031 127.913L120.989 188.585ZM124.529 122.889L73.0629 92.5453L124.516 62.3565L175.996 92.5313L124.543 122.889H124.529ZM178.63 158.818L127.315 189.259L127.273 128.587L178.74 98.2294L178.63 158.818Z" fill="white"/>
</g>
<defs>
<clipPath id="clip0_737_7847">
<rect width="250" height="250" fill="white"/>
</clipPath>
</defs>
</svg>
