<svg width="250" height="167" viewBox="0 0 250 167" fill="none" xmlns="http://www.w3.org/2000/svg">
<g clip-path="url(#clip0_923_1087)">
<path d="M186.105 150.746C157.704 150.746 132.645 132.746 123.72 105.918L124.389 105.695C133.22 132.229 158.016 150.042 186.111 150.042H186.217C214.259 149.995 239.02 132.177 247.833 105.695L248.502 105.918C239.595 132.687 214.565 150.699 186.217 150.746C186.182 150.746 186.14 150.746 186.105 150.746Z" fill="#343433"/>
<path d="M184.984 148.013C158.016 148.013 133.737 131.109 124.542 105.924L125.205 105.684C134.295 130.593 158.309 147.309 184.984 147.309H185.09C211.729 147.262 235.72 130.523 244.786 105.66L245.45 105.901C236.284 131.045 212.028 147.972 185.096 148.013C185.06 148.013 185.025 148.013 184.984 148.013Z" fill="#343433"/>
<path d="M183.868 145.287C171.038 145.287 158.702 141.481 148.174 134.278C137.864 127.223 129.972 117.422 125.363 105.932L126.015 105.668C130.577 117.029 138.375 126.718 148.574 133.692C159.013 140.83 171.261 144.625 183.968 144.578C196.662 144.554 208.869 140.765 219.267 133.622C229.425 126.642 237.199 116.959 241.744 105.621L242.396 105.885C237.798 117.352 229.942 127.146 219.667 134.202C209.145 141.428 196.803 145.264 183.968 145.287C183.932 145.287 183.903 145.287 183.868 145.287Z" fill="#343433"/>
<path d="M182.752 142.56C158.244 142.56 136.05 128.202 126.191 105.95L126.837 105.662C136.578 127.657 158.52 141.851 182.752 141.851H182.852C207.067 141.809 228.991 127.575 238.708 105.586L239.354 105.867C229.519 128.114 207.342 142.513 182.852 142.554C182.817 142.554 182.782 142.554 182.752 142.554V142.56Z" fill="#343433"/>
<path d="M181.619 139.833C170.035 139.833 158.773 136.584 149.044 130.437C139.544 124.437 131.928 115.973 127.014 105.961L127.648 105.65C132.504 115.545 140.031 123.909 149.42 129.839C159.037 135.915 170.17 139.123 181.619 139.123H181.725C193.198 139.106 204.342 135.862 213.966 129.751C223.331 123.803 230.835 115.434 235.667 105.551L236.301 105.862C231.41 115.862 223.818 124.331 214.342 130.349C204.607 136.531 193.327 139.809 181.725 139.833C181.69 139.833 181.655 139.833 181.619 139.833Z" fill="#343433"/>
<path d="M180.516 137.1C158.521 137.1 138.346 125.182 127.848 105.979L128.464 105.645C138.839 124.619 158.779 136.402 180.51 136.402H180.604C202.358 136.361 222.292 124.525 232.626 105.516L233.242 105.85C222.779 125.088 202.61 137.065 180.598 137.1C180.569 137.1 180.533 137.1 180.504 137.1H180.516Z" fill="#343433"/>
<path d="M179.389 134.365C158.509 134.365 139.562 123.76 128.682 105.983L129.281 105.619C140.031 123.186 158.756 133.661 179.389 133.661H179.488C200.145 133.626 218.881 123.086 229.596 105.473L230.201 105.836C219.356 123.667 200.397 134.329 179.494 134.365C179.459 134.365 179.424 134.365 179.394 134.365H179.389Z" fill="#343433"/>
<path d="M249.318 70.1727C247.105 60.9995 242.971 52.5771 237.035 45.14C229.695 35.9493 220.001 28.9051 208.992 24.7819L209.239 24.125C220.365 28.2952 230.171 35.4097 237.587 44.706C243.588 52.2252 247.762 60.7356 249.999 70.0085L249.312 70.1727H249.318Z" fill="#343433"/>
<path d="M247.392 70.1609C245.455 61.3455 241.668 53.146 236.154 45.7969C229.126 36.436 219.731 29.1808 208.975 24.8229L209.239 24.1719C220.107 28.5766 229.607 35.914 236.712 45.3805C242.29 52.8117 246.112 61.0992 248.079 70.0143L247.392 70.1668V70.1609Z" fill="#343433"/>
<path d="M245.478 70.1511C243.799 61.67 240.364 53.6992 235.273 46.4498C228.58 36.9306 219.485 29.4642 208.957 24.86L209.239 24.2148C219.878 28.8718 229.085 36.4203 235.849 46.051C240.998 53.3825 244.474 61.4472 246.171 70.0221L245.478 70.157V70.1511Z" fill="#343433"/>
<path d="M243.564 70.1335C242.155 61.9809 239.072 54.2271 234.399 47.095C228.057 37.4233 219.256 29.7457 208.945 24.8834L209.245 24.25C219.673 29.1592 228.58 36.9306 234.992 46.7079C239.718 53.9221 242.836 61.7639 244.263 70.0162L243.57 70.1335H243.564Z" fill="#343433"/>
<path d="M241.638 70.1198C240.487 62.2545 237.751 54.7295 233.512 47.744C227.558 37.9374 219.056 30.0428 208.922 24.9166L209.239 24.2891C219.485 29.4739 228.087 37.4564 234.111 47.3745C238.397 54.4362 241.163 62.0551 242.331 70.0083L241.632 70.108L241.638 70.1198Z" fill="#343433"/>
<path d="M239.724 70.1041C238.814 62.4793 236.43 55.1713 232.631 48.3911C227.083 38.4672 218.88 30.3615 208.904 24.9479L209.239 24.332C219.332 29.8101 227.635 38.0097 233.248 48.0451C237.088 54.9074 239.501 62.2975 240.423 70.0161L239.724 70.0982V70.1041Z" fill="#343433"/>
<path d="M237.804 70.0864C237.147 62.6963 235.109 55.6111 231.751 49.0362C226.637 39.0243 218.727 30.7075 208.881 24.9889L209.233 24.3789C219.197 30.1679 227.2 38.5844 232.373 48.7195C235.773 55.3765 237.834 62.5438 238.497 70.0278L237.792 70.0923L237.804 70.0864Z" fill="#343433"/>
<path d="M86.4175 70.1068L85.7246 69.9954C88.8835 50.6812 98.8769 32.9859 113.867 20.1587C129.016 7.19074 148.386 0.029326 168.396 0H168.52C195.118 0 220.401 12.751 236.172 34.1238L235.602 34.5402C219.966 13.3492 194.895 0.703825 168.52 0.703825C168.479 0.703825 168.438 0.703825 168.396 0.703825C148.55 0.733151 129.35 7.83005 114.319 20.6866C99.4582 33.4023 89.547 50.951 86.4175 70.1009V70.1068Z" fill="#343433"/>
<path d="M90.2749 70.1128L89.582 69.9955C92.782 51.1565 102.623 33.9069 117.302 21.4258C132.139 8.80384 151.081 1.83011 170.633 1.80078H170.762C196.656 1.80078 220.489 13.5781 236.16 34.1357L235.596 34.5638C220.054 14.1881 196.427 2.51047 170.757 2.51047C170.71 2.51047 170.669 2.51047 170.627 2.51047C151.245 2.5398 132.462 9.44901 117.748 21.9654C103.198 34.3409 93.4397 51.4439 90.269 70.1187L90.2749 70.1128Z" fill="#343433"/>
<path d="M94.1264 70.113L93.4336 69.9898C100.209 31.5845 133.613 3.66608 172.864 3.60156H172.999C197.795 3.60156 220.806 14.7279 236.148 34.1417L235.596 34.5757C220.389 15.332 197.578 4.30539 172.999 4.30539C172.952 4.30539 172.911 4.30539 172.864 4.30539C133.959 4.3699 100.844 32.0478 94.1264 70.113Z" fill="#343433"/>
<path d="M97.9848 70.119L97.292 69.99C104.144 32.6228 136.872 5.461 175.108 5.40234H175.243C198.941 5.40234 221.135 15.8776 236.149 34.1536L235.603 34.5993C220.724 16.4876 198.729 6.10617 175.243 6.10617C175.196 6.10617 175.155 6.10617 175.108 6.10617C137.213 6.16482 104.778 33.0861 97.9848 70.119Z" fill="#343433"/>
<path d="M101.836 70.1172L101.144 69.9882C108.078 33.6708 140.125 7.25983 177.339 7.19531H177.456C200.074 7.19531 221.452 17.0137 236.131 34.1518L235.597 34.6093C221.059 17.6295 199.868 7.89914 177.462 7.89914C177.421 7.89914 177.386 7.89914 177.345 7.89914C140.466 7.96365 108.712 34.1283 101.842 70.1172H101.836Z" fill="#343433"/>
<path d="M105.688 70.1252L104.995 69.9903C112.006 34.7111 143.372 9.06256 179.57 9.00391H179.687C201.219 9.00391 221.775 18.1712 236.113 34.1656L235.591 34.6348C221.393 18.7871 201.025 9.70773 179.693 9.70773C179.652 9.70773 179.617 9.70773 179.576 9.70773C143.712 9.76638 112.64 35.1745 105.694 70.1311L105.688 70.1252Z" fill="#343433"/>
<path d="M109.54 70.1234L108.853 69.9827C112.264 53.519 121.353 38.5217 134.458 27.7591C147.74 16.8498 164.556 10.8262 181.813 10.7969H181.936C202.387 10.7969 222.127 19.3132 236.113 34.1697L235.596 34.6507C221.745 19.9349 202.187 11.5007 181.93 11.5007C181.889 11.5007 181.848 11.5007 181.807 11.5007C164.715 11.5242 148.057 17.4949 134.899 28.2987C121.917 38.9616 112.91 53.8123 109.534 70.1234H109.54Z" fill="#343433"/>
<path d="M113.397 70.1295L112.71 69.9828C116.162 53.9943 125.105 39.4486 137.893 29.032C150.863 18.4629 167.251 12.627 184.044 12.5977H184.173C203.819 12.5977 222.25 20.2576 236.089 34.1757L235.59 34.6743C221.886 20.8911 203.625 13.3073 184.173 13.3073C184.126 13.3073 184.085 13.3073 184.044 13.3073C167.41 13.3367 151.181 19.1139 138.334 29.5833C125.669 39.9061 116.814 54.3051 113.391 70.1412L113.397 70.1295Z" fill="#343433"/>
<path d="M168.525 167C130.959 167 97.7377 141.897 87.6914 105.903L88.3725 105.715C98.3307 141.399 131.282 166.297 168.525 166.297H168.666C188.559 166.261 207.812 159.112 222.884 146.155L223.342 146.689C208.147 159.757 188.724 166.971 168.666 167C168.619 167 168.572 167 168.525 167Z" fill="#343433"/>
<path d="M170.768 165.728C133.965 165.728 101.366 141.141 91.4551 105.903L92.1362 105.715C101.959 140.648 134.282 165.024 170.768 165.024H170.898C189.869 164.989 208.329 158.291 222.879 146.161L223.331 146.701C208.652 158.936 190.033 165.692 170.903 165.728C170.862 165.728 170.815 165.728 170.774 165.728H170.768Z" fill="#343433"/>
<path d="M172.994 164.449C136.96 164.449 104.989 140.39 95.2129 105.897L95.8881 105.703C105.576 139.891 137.271 163.739 172.988 163.739H173.117C191.178 163.71 208.84 157.469 222.861 146.161L223.301 146.707C209.157 158.115 191.331 164.414 173.111 164.437C173.07 164.437 173.023 164.437 172.982 164.437L172.994 164.449Z" fill="#343433"/>
<path d="M175.219 163.178C157.651 163.178 141.017 157.577 127.101 146.979C113.591 136.691 103.603 122.104 98.9766 105.904L99.6518 105.711C104.237 121.764 114.137 136.222 127.524 146.421C141.316 156.926 157.804 162.474 175.213 162.474H175.348C192.734 162.445 209.163 156.809 222.861 146.181L223.295 146.738C209.474 157.466 192.892 163.155 175.348 163.184C175.301 163.184 175.26 163.184 175.213 163.184L175.219 163.178Z" fill="#343433"/>
<path d="M177.45 161.905C160.258 161.905 143.97 156.433 130.337 146.069C117.102 136.011 107.302 121.746 102.74 105.904L103.415 105.711C107.937 121.412 117.648 135.541 130.759 145.512C144.27 155.776 160.411 161.202 177.444 161.202H177.579C194.049 161.172 209.703 155.982 222.861 146.187L223.284 146.75C210.002 156.639 194.202 161.876 177.579 161.905C177.532 161.905 177.491 161.905 177.444 161.905H177.45Z" fill="#343433"/>
<path d="M179.681 160.633C162.865 160.633 146.924 155.284 133.572 145.16C120.613 135.336 111.002 121.394 106.504 105.904L107.179 105.711C111.636 121.054 121.159 134.867 133.995 144.603C147.217 154.633 163.018 159.929 179.676 159.929H179.811C195.347 159.9 210.237 155.149 222.861 146.193L223.272 146.767C210.525 155.812 195.499 160.603 179.811 160.633C179.764 160.633 179.722 160.633 179.676 160.633H179.681Z" fill="#343433"/>
<path d="M181.924 159.36C165.472 159.36 149.871 154.14 136.807 144.257C124.124 134.667 114.701 121.048 110.268 105.91L110.943 105.711C115.335 120.702 124.671 134.192 137.23 143.694C150.206 153.507 165.725 158.691 182.042 158.656C196.668 158.627 210.783 154.322 222.867 146.198L223.26 146.785C211.065 154.985 196.815 159.331 182.048 159.36C182.007 159.36 181.965 159.36 181.924 159.36Z" fill="#343433"/>
<path d="M184.179 158.079C168.079 158.079 152.825 152.983 140.042 143.34C127.642 133.979 118.406 120.689 114.037 105.903L114.712 105.703C119.04 120.343 128.188 133.504 140.465 142.777C153.124 152.332 168.226 157.376 184.15 157.376H184.267C197.983 157.358 211.317 153.493 222.855 146.202L223.231 146.795C211.582 154.156 198.112 158.056 184.291 158.074C184.249 158.074 184.208 158.074 184.167 158.074L184.179 158.079Z" fill="#343433"/>
<path d="M177.768 125.733C171.238 125.733 164.915 124.483 158.967 122.014L159.237 121.363C165.097 123.791 171.332 125.023 177.768 125.023C193.069 125 207.096 117.973 216.25 105.738L216.814 106.161C207.525 118.571 193.298 125.703 177.768 125.727V125.733Z" fill="#343433"/>
<path d="M176.505 125.367C170.434 125.367 164.533 124.241 158.967 122.03L159.225 121.373C164.709 123.555 170.522 124.663 176.505 124.663C191.525 124.64 205.282 117.737 214.248 105.719L214.811 106.141C205.71 118.335 191.748 125.344 176.505 125.367Z" fill="#343433"/>
<path d="M175.231 125.009C169.612 125.009 164.14 124.012 158.955 122.047L159.208 121.391C164.31 123.326 169.706 124.306 175.237 124.306C189.757 124.282 203.591 117.326 212.246 105.695L212.809 106.118C204.025 117.924 189.98 124.986 175.237 125.009H175.231Z" fill="#343433"/>
<path d="M173.969 124.646C168.819 124.646 163.764 123.772 158.961 122.053L159.196 121.391C163.928 123.08 168.896 123.936 173.969 123.936C188.207 123.913 201.771 117.08 210.237 105.66L210.801 106.077C202.199 117.672 188.43 124.611 173.969 124.634V124.646Z" fill="#343433"/>
<path d="M172.695 124.29C167.997 124.29 163.376 123.545 158.949 122.079L159.172 121.41C163.529 122.853 168.074 123.586 172.695 123.586C186.657 123.563 199.939 116.859 208.229 105.645L208.793 106.061C200.373 117.451 186.88 124.267 172.695 124.284V124.29Z" fill="#343433"/>
<path d="M171.432 123.93C167.181 123.93 162.983 123.314 158.955 122.089L159.161 121.414C163.124 122.617 167.252 123.221 171.432 123.221C185.119 123.197 198.124 116.616 206.227 105.613L206.797 106.03C198.565 117.209 185.348 123.901 171.438 123.919L171.432 123.93Z" fill="#343433"/>
<path d="M170.093 123.573C166.342 123.573 162.595 123.08 158.961 122.112L159.143 121.432C162.748 122.394 166.459 122.898 170.164 122.869C183.575 122.845 196.304 116.388 204.219 105.602L204.789 106.018C196.745 116.992 183.804 123.555 170.17 123.573C170.146 123.573 170.123 123.573 170.099 123.573H170.093Z" fill="#343433"/>
<path d="M225.227 70.1057C223.548 58.8621 217.853 48.551 209.186 41.0612C200.432 33.495 189.211 29.3483 177.615 29.3601C167.052 29.3777 157.035 32.7384 148.65 39.0846C140.536 45.2255 134.482 53.9353 131.605 63.6129L130.93 63.4135C133.848 53.5951 139.99 44.7562 148.227 38.5215C156.741 32.0815 166.905 28.6738 177.62 28.6562H177.691C189.44 28.6562 200.79 32.8733 209.65 40.5333C218.446 48.1346 224.223 58.604 225.926 70.0118L225.227 70.1174V70.1057Z" fill="#343433"/>
<path d="M222.843 70.1041C221.058 59.2652 215.428 49.3413 206.996 42.1564C198.488 34.9129 187.637 30.9304 176.434 30.9304H176.352C155.761 30.9656 137.776 44.1036 131.593 63.623L130.924 63.4119C137.201 43.5992 155.455 30.2618 176.352 30.2266H176.434C187.808 30.2266 198.823 34.2736 207.454 41.6227C216.015 48.9131 221.728 58.9837 223.542 69.9868L222.849 70.1041H222.843Z" fill="#343433"/>
<path d="M220.46 70.1182C216.508 48.3231 197.461 32.5163 175.16 32.5163H175.09C155.355 32.5456 137.87 45.0561 131.587 63.6488L130.918 63.426C137.3 44.5459 155.05 31.8418 175.09 31.8125H175.166C197.813 31.8125 217.148 47.8538 221.164 69.9891L220.471 70.1123L220.46 70.1182Z" fill="#343433"/>
<path d="M218.076 70.1225C213.907 49.2365 195.329 34.0925 173.886 34.0925H173.816C154.927 34.1218 137.952 46.0047 131.564 63.6649L130.9 63.4244C137.383 45.4827 154.627 33.4121 173.81 33.3828H173.886C195.664 33.3828 214.529 48.7614 218.763 69.9758L218.07 70.1107L218.076 70.1225Z" fill="#343433"/>
<path d="M215.692 70.1248C211.318 50.1479 193.21 35.6667 172.624 35.6667H172.553C154.51 35.7019 138.034 46.9631 131.558 63.6907L130.9 63.4385C137.482 46.4411 154.222 34.9981 172.553 34.9688H172.624C193.538 34.9688 211.934 49.6846 216.379 69.9782L215.692 70.1307V70.1248Z" fill="#343433"/>
<path d="M213.308 70.1369C208.646 50.7641 191.407 37.2507 171.361 37.2507H171.285C153.817 37.28 138.216 47.6673 131.54 63.7145L130.889 63.4447C137.676 47.1336 153.529 36.5762 171.279 36.5469H171.356C191.724 36.5469 209.251 50.2832 213.983 69.9727L213.296 70.1369H213.308Z" fill="#343433"/>
<path d="M210.936 70.1334C206.068 51.6932 189.276 38.8249 170.093 38.8249H170.029C153.412 38.8542 138.299 48.6315 131.535 63.7286L130.889 63.4412C137.77 48.0861 153.13 38.1446 170.029 38.1211H170.093C189.599 38.1211 206.667 51.2064 211.617 69.9574L210.936 70.1392V70.1334Z" fill="#343433"/>
<path d="M89.025 46.7643C94.5854 35.2157 100.204 28.7757 100.204 28.7757C98.032 23.761 94.8026 19.233 90.5105 15.186C81.8206 6.99822 69.8719 2.89844 54.6645 2.89844C40.79 2.89844 29.223 6.43516 19.9753 13.5027C10.7217 20.5762 4.40384 34.1189 3.21191 53.8964H32.928C32.928 44.0898 35.5702 36.641 39.2105 32.9283C42.8509 29.2156 47.7596 27.3622 53.9247 27.3622C60.0899 27.3622 65.0514 29.1335 68.5919 32.6644C72.1325 36.2011 73.8998 41.2569 73.8998 47.8376C73.8998 53.7908 71.8683 59.8085 67.8051 65.8966C67.036 67.0169 65.9321 68.401 64.4994 70.0433H82.0965C82.0965 70.0433 84.0635 57.0577 89.025 46.7526V46.7643Z" fill="#343433"/>
<path d="M123.332 157.475H0C1.12147 147.117 4.48588 137.299 10.0932 128.02C13.7747 121.926 19.8342 114.518 28.2364 105.809H67.6171C58.8919 113.82 53.3257 119.181 50.9301 121.879C48.4405 124.677 46.4266 127.41 44.8882 130.067H94.9493C94.9493 130.067 103.945 145.991 123.332 157.475Z" fill="#343433"/>
<path d="M36.192 80.4297L31.1953 90.0428V95.5091H28.7175V90.0428L23.6973 80.4297H26.4569L29.9564 87.8316L33.4558 80.4297H36.192Z" fill="#343433"/>
<path d="M41.7112 82.4278V86.856H46.9252V88.8736H41.7112V93.4954H47.5769V95.5131H39.2334V80.4102H47.5769V82.4278H41.7112Z" fill="#343433"/>
<path d="M60.8059 92.4299H54.4822L53.396 95.5092H50.8125L56.2202 80.4062H59.0856L64.4933 95.5092H61.8863L60.8001 92.4299H60.8059ZM60.1072 90.4123L57.6529 83.4034L55.1751 90.4123H60.1072Z" fill="#343433"/>
<path d="M75.7722 95.513L72.2962 89.4777H70.4055V95.513H67.9277V80.4336H73.1417C74.2984 80.4336 75.2789 80.6389 76.0834 81.0436C76.8878 81.4483 77.4867 81.9937 77.8859 82.6682C78.2852 83.3486 78.4848 84.1111 78.4848 84.9498C78.4848 85.9352 78.1971 86.8267 77.6276 87.6302C77.0522 88.4337 76.1773 88.9792 74.9854 89.2666L78.7197 95.5189H75.7663L75.7722 95.513ZM70.4055 87.507H73.1417C74.0694 87.507 74.7681 87.2783 75.2378 86.8149C75.7076 86.3516 75.9424 85.7299 75.9424 84.9498C75.9424 84.1697 75.7134 83.5598 75.2496 83.114C74.7857 82.6741 74.0811 82.4512 73.1417 82.4512H70.4055V87.507Z" fill="#343433"/>
<path d="M98.5833 92.4299H92.2596L91.1733 95.5092H88.5898L93.9976 80.4062H96.8629L102.271 95.5092H99.6636L98.5774 92.4299H98.5833ZM97.8904 90.4123L95.4361 83.4034L92.9583 90.4123H97.8904Z" fill="#343433"/>
<path d="M118.113 95.5131H115.635L108.184 84.2519V95.5131H105.706V80.4102H108.184L115.635 91.6538V80.4102H118.113V95.5131Z" fill="#343433"/>
<path d="M134.864 95.5131H132.386L124.935 84.2519V95.5131H122.457V80.4102H124.935L132.386 91.6538V80.4102H134.864V95.5131Z" fill="#343433"/>
<path d="M141.687 80.4297V95.5091H139.209V80.4297H141.687Z" fill="#343433"/>
<path d="M159.043 80.4297L153.371 95.5091H150.506L144.816 80.4297H147.464L151.939 92.9754L156.436 80.4297H159.043Z" fill="#343433"/>
<path d="M164.674 82.4278V86.856H169.888V88.8736H164.674V93.4954H170.54V95.5131H162.196V80.4102H170.54V82.4278H164.674Z" fill="#343433"/>
<path d="M182.506 95.513L179.03 89.4777H177.139V95.513H174.661V80.4336H179.875C181.032 80.4336 182.012 80.6389 182.817 81.0436C183.621 81.4483 184.22 81.9937 184.619 82.6682C185.019 83.3486 185.218 84.1111 185.218 84.9498C185.218 85.9352 184.931 86.8267 184.361 87.6302C183.786 88.4337 182.911 88.9792 181.719 89.2666L185.453 95.5189H182.5H182.506V95.513ZM177.139 87.507H179.875C180.803 87.507 181.502 87.2783 181.971 86.8149C182.441 86.3516 182.676 85.7299 182.676 84.9498C182.676 84.1697 182.447 83.5598 181.983 83.114C181.519 82.6741 180.815 82.4512 179.875 82.4512H177.139V87.507Z" fill="#343433"/>
<path d="M191.718 95.132C190.908 94.7801 190.268 94.2757 189.804 93.6246C189.34 92.9736 189.111 92.2111 189.111 91.3489H191.759C191.818 92 192.076 92.5337 192.529 92.956C192.987 93.3783 193.627 93.5836 194.449 93.5836C195.271 93.5836 195.969 93.3783 196.445 92.9677C196.921 92.5572 197.161 92.0234 197.161 91.3724C197.161 90.868 197.014 90.4516 196.715 90.1348C196.416 89.8181 196.052 89.5718 195.605 89.3958C195.165 89.2199 194.554 89.0322 193.768 88.8328C192.781 88.5747 191.983 88.3108 191.366 88.041C190.75 87.7712 190.227 87.3547 189.792 86.7917C189.358 86.2286 189.141 85.4779 189.141 84.5336C189.141 83.6655 189.358 82.903 189.792 82.252C190.227 81.601 190.838 81.1024 191.619 80.7564C192.399 80.4103 193.304 80.2344 194.331 80.2344C195.793 80.2344 196.991 80.598 197.925 81.3312C198.858 82.0643 199.375 83.0614 199.481 84.3341H196.744C196.703 83.7828 196.439 83.3136 195.963 82.9206C195.488 82.5277 194.854 82.3341 194.073 82.3341C193.362 82.3341 192.781 82.5159 192.335 82.8737C191.889 83.2374 191.66 83.7535 191.66 84.4339C191.66 84.8972 191.801 85.2784 192.082 85.5717C192.364 85.8708 192.722 86.1054 193.157 86.2755C193.591 86.4515 194.184 86.6392 194.936 86.8386C195.934 87.1143 196.75 87.3899 197.379 87.6656C198.007 87.9413 198.547 88.3635 198.987 88.9383C199.428 89.5073 199.651 90.2756 199.651 91.2258C199.651 91.9941 199.445 92.7155 199.034 93.3959C198.623 94.0763 198.019 94.6217 197.232 95.0323C196.445 95.4429 195.511 95.6481 194.443 95.6481C193.374 95.6481 192.517 95.4722 191.707 95.1144L191.718 95.132Z" fill="#343433"/>
<path d="M212.791 92.4299H206.468L205.381 95.5092H202.798L208.206 80.4062H211.071L216.479 95.5092H213.872L212.785 92.4299H212.791ZM212.093 90.4123L209.638 83.4034L207.16 90.4123H212.093Z" fill="#343433"/>
<path d="M227.758 95.513L224.283 89.4777H222.392V95.513H219.914V80.4336H225.128C226.285 80.4336 227.265 80.6389 228.07 81.0436C228.874 81.4483 229.473 81.9937 229.872 82.6682C230.272 83.3486 230.471 84.1111 230.471 84.9498C230.471 85.9352 230.183 86.8267 229.614 87.6302C229.038 88.4337 228.164 88.9792 226.972 89.2666L230.706 95.5189H227.753H227.758V95.513ZM222.392 87.507H225.128C226.056 87.507 226.754 87.2783 227.224 86.8149C227.694 86.3516 227.929 85.7299 227.929 84.9498C227.929 84.1697 227.7 83.5598 227.236 83.114C226.772 82.6741 226.067 82.4512 225.128 82.4512H222.392V87.507Z" fill="#343433"/>
<path d="M245.919 80.4297L240.922 90.0428V95.5091H238.444V90.0428L233.424 80.4297H236.183L239.683 87.8316L243.182 80.4297H245.919Z" fill="#343433"/>
</g>
<defs>
<clipPath id="clip0_923_1087">
<rect width="250" height="167" fill="white"/>
</clipPath>
</defs>
</svg>
