<svg width="319" height="72" viewBox="0 0 319 72" fill="none" xmlns="http://www.w3.org/2000/svg">
<path d="M28.6866 24.0709C31.4315 24.6565 33.6365 26.0302 35.3014 28.1923C36.9664 30.3092 37.7989 32.7415 37.7989 35.4891C37.7989 39.4528 36.4039 42.6057 33.614 44.9479C30.8691 47.2451 27.0217 48.3936 22.0718 48.3936H0V0.964334H21.3294C26.1442 0.964334 29.9016 2.06786 32.6015 4.27492C35.3464 6.48199 36.7189 9.47728 36.7189 13.2608C36.7189 16.0534 35.9764 18.3731 34.4915 20.2198C33.0515 22.0665 31.1166 23.3502 28.6866 24.0709ZM11.5421 20.1523H19.1019C20.9919 20.1523 22.4318 19.7469 23.4218 18.9361C24.4568 18.0803 24.9742 16.8417 24.9742 15.2201C24.9742 13.5986 24.4568 12.36 23.4218 11.5042C22.4318 10.6484 20.9919 10.2205 19.1019 10.2205H11.5421V20.1523ZM20.0469 39.0699C21.9818 39.0699 23.4668 38.642 24.5018 37.7862C25.5817 36.8854 26.1217 35.6017 26.1217 33.9351C26.1217 32.2686 25.5592 30.9624 24.4343 30.0165C23.3543 29.0706 21.8468 28.5976 19.9119 28.5976H11.5421V39.0699H20.0469Z" fill="white"/>
<path d="M116.104 48.3936L106.452 33.8676L97.9473 48.3936H84.8527L100.04 24.2736L84.5152 0.964334H97.9473L107.465 15.2877L115.834 0.964334H128.929L113.877 24.8817L129.536 48.3936H116.104Z" fill="white"/>
<path d="M146.873 39.4753H161.992V48.3936H135.331V0.964334H146.873V39.4753Z" fill="white"/>
<path d="M196.994 40.0158H179.31L176.475 48.3936H164.393L181.537 0.964334H194.902L212.046 48.3936H199.829L196.994 40.0158ZM194.024 31.0975L188.152 13.7338L182.347 31.0975H194.024Z" fill="white"/>
<path d="M259.653 48.3936H248.111L228.806 19.1388V48.3936H217.264V0.964334H228.806L248.111 30.3543V0.964334H259.653V48.3936Z" fill="white"/>
<path d="M299.473 15.9633C298.618 14.3869 297.381 13.1933 295.761 12.3825C294.186 11.5267 292.319 11.0988 290.159 11.0988C286.424 11.0988 283.431 12.3375 281.182 14.8148C278.932 17.247 277.807 20.5126 277.807 24.6114C277.807 28.9805 278.977 32.4037 281.317 34.881C283.701 37.3133 286.964 38.5294 291.104 38.5294C293.939 38.5294 296.324 37.8087 298.258 36.3674C300.238 34.9261 301.678 32.8541 302.578 30.1516H287.931V21.6386H313.041V32.3812C312.186 35.2639 310.723 37.9439 308.653 40.4212C306.628 42.8985 304.041 44.9029 300.891 46.4343C297.741 47.9657 294.186 48.7314 290.226 48.7314C285.546 48.7314 281.362 47.718 277.672 45.6911C274.027 43.6192 271.169 40.759 269.099 37.1106C267.074 33.4622 266.062 29.2958 266.062 24.6114C266.062 19.927 267.074 15.7607 269.099 12.1122C271.169 8.4188 274.027 5.55862 277.672 3.53173C281.317 1.4598 285.479 0.423828 290.159 0.423828C295.829 0.423828 300.598 1.79761 304.468 4.54518C308.383 7.29275 310.971 11.0988 312.231 15.9633H299.473Z" fill="white"/>
<path d="M57.6793 7.31656L62.1026 3.647L62.1071 3.64258L62.116 3.64921C62.2726 3.67354 62.427 3.69788 62.5836 3.72663C72.0858 5.59791 78.2385 14.7375 76.3435 24.116C74.4686 33.4149 65.3871 39.4667 56.0013 37.7658C58.0261 37.3123 59.9726 36.3922 61.673 34.9832C67.3716 30.2541 68.1167 21.8533 63.3332 16.2195C60.5924 12.9901 56.63 11.3732 52.6743 11.4683L57.6816 7.31435L57.6793 7.31656Z" fill="url(#paint0_linear_864_421)"/>
<path d="M42.4907 40.7564C41.6087 39.644 41.7467 37.9833 42.7969 37.049C43.847 36.1148 45.4147 36.261 46.2967 37.3734C47.1786 38.4858 47.0406 40.1465 45.9905 41.0807C44.9403 42.015 43.3726 41.8688 42.4907 40.7564Z" fill="url(#paint1_linear_864_421)"/>
<path d="M67.29 48.0943C59.2418 49.6695 51.3246 47.3023 45.6362 42.3633C45.9682 42.2247 46.2866 42.0399 46.5756 41.8001C47.1718 41.3117 47.5737 40.6825 47.7702 40.0049C49.0167 40.7023 50.3333 41.2963 51.7198 41.7583C63.5617 45.7249 76.4491 39.5803 80.5071 28.0457C84.5786 16.5088 78.2715 3.95341 66.4318 0C76.7427 1.6544 84.9151 9.34342 86.9542 19.3072C89.6821 32.5491 80.882 45.4323 67.29 48.0921V48.0943Z" fill="url(#paint2_linear_864_421)"/>
<path d="M316.342 0C317.01 0 317.632 0.248197 318.073 0.721815C318.287 0.935854 318.457 1.20681 318.582 1.50055C318.819 2.09826 318.819 2.76429 318.582 3.35062C318.469 3.64435 318.287 3.91532 318.05 4.12936C317.812 4.36617 317.563 4.5358 317.246 4.6599C316.952 4.77261 316.647 4.84093 316.329 4.84093C316.012 4.84093 315.684 4.784 315.39 4.64966C315.095 4.51531 314.824 4.33315 314.586 4.10773C314.134 3.65688 313.885 3.05802 313.885 2.43754C313.885 1.81705 313.908 2.00832 313.964 1.79429C314.02 1.58025 314.123 1.36507 314.213 1.19657C314.699 0.451988 315.491 0 316.34 0M316.353 0.406447C316.104 0.406447 315.821 0.440603 315.595 0.54193C315.358 0.643257 315.143 0.778734 314.95 0.971141C314.757 1.16355 314.6 1.40036 314.498 1.63717C314.181 2.37037 314.34 3.25043 314.929 3.81513C315.12 4.0064 315.336 4.16465 315.596 4.26598C315.834 4.3673 316.106 4.42423 316.377 4.42423C316.649 4.42423 316.909 4.3673 317.135 4.26598C317.384 4.16465 317.599 4.01779 317.803 3.83676C318.008 3.65574 318.131 3.45308 318.234 3.19351C318.335 2.9567 318.392 2.7085 318.392 2.43754C318.392 2.16657 318.358 1.89561 318.234 1.63603C318.132 1.38784 317.985 1.1738 317.803 0.992773C317.611 0.801504 317.396 0.643257 317.135 0.54193C316.886 0.474758 316.615 0.406447 316.355 0.406447M315.346 1.03832H316.399C316.694 1.01555 316.998 1.07247 317.259 1.22958C317.45 1.36507 317.553 1.57911 317.553 1.81592C317.553 2.05273 317.496 2.14266 317.394 2.26676C317.281 2.40224 317.123 2.48081 316.964 2.51496L317.563 3.72177H316.84L316.331 2.63905H316.003V3.74455H315.358V1.03604H315.346V1.03832ZM315.991 1.46753V2.24627H316.319C316.455 2.26904 316.614 2.2235 316.749 2.14495C316.851 2.08802 316.885 1.96392 316.885 1.85121C316.885 1.7385 316.851 1.6144 316.749 1.5347C316.614 1.45615 316.455 1.422 316.297 1.43338L315.991 1.46753Z" fill="white"/>
<path d="M305.804 50.0977C309.735 50.0979 312.921 53.2849 312.921 57.2158V64.8809C312.921 68.8118 309.735 71.9988 305.804 71.999H258.981C255.05 71.999 251.863 68.8119 251.863 64.8809V57.2158C251.863 53.2847 255.05 50.0977 258.981 50.0977H305.804Z" fill="url(#paint3_linear_864_421)"/>
<path d="M281.476 65.4754H276.402L275.589 67.8933H272.122L277.041 54.2051H280.876L285.795 67.8933H282.29L281.476 65.4754ZM280.624 62.9016L278.939 57.8904L277.274 62.9016H280.624Z" fill="#303446"/>
<path d="M292.928 54.2051V67.8933H289.616V54.2051H292.928Z" fill="#303446"/>
<defs>
<linearGradient id="paint0_linear_864_421" x1="52.6743" y1="20.8472" x2="76.6863" y2="20.8472" gradientUnits="userSpaceOnUse">
<stop stop-color="#00DBFF"/>
<stop offset="1" stop-color="#00FF75"/>
</linearGradient>
<linearGradient id="paint1_linear_864_421" x1="41.9097" y1="39.0649" x2="46.8777" y2="39.0649" gradientUnits="userSpaceOnUse">
<stop stop-color="#00DBFF"/>
<stop offset="1" stop-color="#00FF75"/>
</linearGradient>
<linearGradient id="paint2_linear_864_421" x1="45.6362" y1="24.2889" x2="87.4501" y2="24.2889" gradientUnits="userSpaceOnUse">
<stop stop-color="#00DBFF"/>
<stop offset="1" stop-color="#00FF75"/>
</linearGradient>
<linearGradient id="paint3_linear_864_421" x1="251.863" y1="61.0482" x2="312.921" y2="61.0482" gradientUnits="userSpaceOnUse">
<stop stop-color="#00DBFF"/>
<stop offset="1" stop-color="#00FF75"/>
</linearGradient>
</defs>
</svg>
