<svg width="1328" height="235" viewBox="0 0 1328 235" fill="none" xmlns="http://www.w3.org/2000/svg">
<path d="M17.742 71.6667C13.7322 68.7296 12.8624 63.098 15.7994 59.0882C23.4856 48.5946 32.7031 39.3766 43.1968 31.6909C47.2061 28.7538 52.8377 29.6236 55.7752 33.6335C58.7123 37.6433 57.8424 43.2748 53.8326 46.2119C44.8271 52.8082 36.9163 60.7185 30.3204 69.7241C27.3753 73.7447 21.7419 74.5965 17.742 71.6667Z" fill="#303446"/>
<path d="M204.679 69.7245C198.082 60.7185 190.172 52.8078 181.166 46.2119C177.156 43.2748 176.286 37.6433 179.224 33.6335C182.16 29.6236 187.792 28.7538 191.802 31.6909C202.295 39.3766 211.513 48.5941 219.2 59.0882C222.137 63.098 221.267 68.7296 217.257 71.6667C213.264 74.5907 207.629 73.7523 204.679 69.7245Z" fill="#303446"/>
<path d="M126.52 135.515V94.2449C126.52 89.2744 122.491 85.2452 117.52 85.2452C112.55 85.2452 108.52 89.2744 108.52 94.2449V139.243C108.52 141.63 109.469 143.919 111.156 145.607L129.156 163.606C132.67 167.12 138.369 167.121 141.883 163.606C145.398 160.091 145.398 154.393 141.883 150.879L126.52 135.515Z" fill="#303446"/>
<path d="M166.968 61.9281C201.093 81.8445 212.63 125.563 192.714 159.689C172.798 193.814 129.079 205.351 94.9534 185.434C75.4013 174.019 62.4071 154.102 59.8568 131.757V136.007C59.8568 179.726 95.3177 215.187 139.037 215.187C182.756 215.187 218.217 179.726 218.217 136.007C218.217 102.975 197.814 73.465 166.847 61.8066" fill="#303446"/>
<path d="M136.082 0C141.052 0.000393451 145.082 4.02945 145.082 8.99971C145.082 13.9699 141.052 17.999 136.082 17.9994H127.082V32.8467C130.399 33.1775 133.662 33.6906 136.863 34.3744C161.114 39.0535 183.713 52.549 199.393 74.0721C182.877 57.3135 160.168 47.8404 136.609 47.8402C87.9105 47.8402 48.5622 87.4315 48.5622 136.13C48.5624 184.066 86.8074 222.943 134.453 224.147L136.609 224.052C153.246 224.052 169.518 219.316 183.605 210.451C181.662 212.273 179.477 213.973 177.292 215.552C132.115 248.463 68.844 238.625 35.8118 193.449C2.90163 148.273 12.7375 85.0033 57.9129 51.9711C73.0175 40.9674 90.1598 34.7476 107.517 33.0244C108.038 32.9632 108.56 32.8989 109.083 32.8467V17.9994H100.083C95.1128 17.9993 91.0836 13.9701 91.0835 8.99971C91.0835 4.02926 95.1128 7.71787e-05 100.083 0H136.082Z" fill="#303446"/>
<g clip-path="url(#clip0_1282_1275)">
<path d="M364.279 48.9453V75.5527H328.1V185.551H294.841V75.5527H258.499V48.9453H364.279Z" fill="#303446"/>
<path d="M414.249 48.9453V185.551H380.99V48.9453H414.249Z" fill="#303446"/>
<path d="M593.2 48.9453V185.551H559.941V103.62L529.439 185.551H502.508L471.682 103.458V185.551H438.423V48.9453H477.685L515.974 143.531L554.1 48.9453H593.2Z" fill="#303446"/>
<path d="M650.47 75.5527V103.133H695.086V128.767H650.47V158.782H700.927V185.389H617.211V48.9453H700.927V75.5527H650.47Z" fill="#303446"/>
<path d="M824.229 127.307C829.097 133.472 831.368 140.449 831.368 148.398C831.368 159.755 827.312 168.841 819.362 175.492C811.412 182.144 800.218 185.551 785.941 185.551H722.343V48.9453H783.832C797.784 48.9453 808.654 52.1901 816.442 58.5175C824.229 64.8448 828.285 73.4435 828.285 84.4758C828.285 92.5878 826.176 99.2397 821.958 104.594C817.74 109.948 812.061 113.679 805.085 115.626C813.035 117.248 819.362 121.304 824.229 127.469V127.307ZM755.764 104.269H777.504C783.02 104.269 787.076 103.133 789.997 100.7C792.917 98.2662 794.377 94.697 794.377 90.1542C794.377 85.6115 792.917 81.88 789.997 79.4464C787.076 77.0128 782.858 75.7149 777.504 75.7149H755.764V104.269ZM793.242 154.888C796.324 152.292 797.784 148.723 797.784 143.856C797.784 138.988 796.162 135.257 793.079 132.499C789.835 129.741 785.454 128.443 779.938 128.443H755.764V158.619H780.262C785.779 158.619 790.159 157.322 793.242 154.888Z" fill="#303446"/>
<path d="M1068.75 185.551L1040.84 143.693L1016.34 185.551H978.54L1022.34 116.113L977.566 48.9453H1016.34L1043.76 90.1542L1067.93 48.9453H1105.74L1062.26 117.897L1107.36 185.714H1068.58L1068.75 185.551Z" fill="#303446"/>
<path d="M929.449 179.457C895.662 179.457 868.275 152.169 868.275 118.505C868.275 84.841 895.662 57.553 929.449 57.553C946.488 57.553 961.891 64.4982 972.984 75.7034C960.206 58.3093 939.566 47 916.267 47C877.46 47 845.999 78.3399 845.999 117.006C845.999 155.673 877.46 187.013 916.26 187.013C933.766 187.013 949.768 180.616 962.079 170.056C952.63 176.009 941.447 179.464 929.449 179.464" fill="#303446"/>
<path d="M950.478 67.3516C965.185 75.9341 975.073 91.8365 975.073 110.042C975.073 137.351 952.853 159.484 925.452 159.491C899.952 159.491 878.957 140.328 876.158 115.669C876.109 116.641 876.074 117.612 876.074 118.59C876.074 148.841 900.69 173.36 931.043 173.36C961.397 173.36 986.013 148.834 986.013 118.59C986.013 95.1599 971.243 75.1779 950.478 67.3516Z" fill="#303446"/>
<path d="M923.978 71.1406C905.532 71.1406 889.955 83.3657 884.948 100.128C890.54 87.6952 903.067 79.0363 917.628 79.0363C937.404 79.0363 953.433 95.0081 953.433 114.713C953.433 134.417 937.404 150.389 917.628 150.389C914.397 150.389 911.263 149.952 908.283 149.154C913.108 151.166 918.414 152.276 923.978 152.283C946.47 152.283 964.693 134.112 964.693 111.708C964.693 89.2979 946.463 71.1406 923.978 71.1406Z" fill="#303446"/>
</g>
<path d="M1304.25 77.5469C1317.23 77.5469 1327.75 88.0682 1327.75 101.047V133.946C1327.75 146.925 1317.23 157.446 1304.25 157.446H1125.65C1112.67 157.446 1102.15 146.925 1102.15 133.946V101.047C1102.15 88.0682 1112.67 77.5469 1125.65 77.5469H1304.25ZM1141.38 96.7031V136.296H1159.82C1163.96 136.296 1167.17 135.337 1169.46 133.42C1171.8 131.465 1172.96 128.833 1172.96 125.524C1172.96 123.231 1172.27 121.2 1170.88 119.433C1169.48 117.628 1167.64 116.481 1165.35 115.992C1167.38 115.391 1168.99 114.319 1170.2 112.777C1171.44 111.236 1172.06 109.3 1172.06 106.969C1172.06 103.81 1170.91 101.309 1168.62 99.4668C1166.36 97.6247 1163.22 96.7032 1159.2 96.7031H1141.38ZM1185.32 96.7031V136.296H1194.97V112.495L1203.88 136.296H1211.66L1220.52 112.552V136.296H1230.16V96.7031H1218.82L1207.83 124.114L1196.72 96.7031H1185.32ZM1243.86 96.7031V136.296H1253.51V122.084H1259.49C1262.72 122.084 1265.43 121.501 1267.61 120.335C1269.79 119.169 1271.41 117.646 1272.46 115.767C1273.51 113.849 1274.04 111.744 1274.04 109.45C1274.04 106.969 1273.49 104.769 1272.4 102.852C1271.31 100.934 1269.68 99.4293 1267.5 98.3389C1265.32 97.2485 1262.65 96.7031 1259.49 96.7031H1243.86ZM1158.02 119.771C1159.63 119.772 1160.89 120.167 1161.79 120.956C1162.73 121.746 1163.2 122.836 1163.2 124.227C1163.2 125.618 1162.75 126.689 1161.85 127.441C1160.99 128.156 1159.74 128.513 1158.13 128.513H1151.02V119.771H1158.02ZM1258.75 104.486C1260.6 104.486 1261.97 104.919 1262.87 105.784C1263.77 106.649 1264.22 107.871 1264.22 109.45C1264.22 111.029 1263.77 112.251 1262.87 113.116C1261.97 113.981 1260.6 114.413 1258.75 114.413H1253.51V104.486H1258.75ZM1157.34 104.431C1158.92 104.431 1160.12 104.788 1160.95 105.502C1161.81 106.216 1162.25 107.25 1162.25 108.604C1162.25 109.957 1161.81 110.992 1160.95 111.706C1160.12 112.383 1158.92 112.721 1157.34 112.721H1151.02V104.431H1157.34ZM1284.5 93.9961C1281.58 93.9961 1278.85 95.5542 1277.18 98.1201C1276.87 98.7007 1276.51 99.4422 1276.32 100.18C1276.13 100.917 1276.05 100.258 1276.05 102.396C1276.05 104.535 1276.9 106.599 1278.46 108.152C1279.28 108.929 1280.22 109.557 1281.23 110.02C1282.25 110.482 1283.38 110.679 1284.47 110.679C1285.56 110.679 1286.61 110.443 1287.63 110.055C1288.72 109.627 1289.58 109.043 1290.4 108.227C1291.22 107.489 1291.84 106.555 1292.23 105.543C1293.05 103.522 1293.05 101.227 1292.23 99.167C1291.8 98.1549 1291.22 97.2209 1290.48 96.4834C1289.05 94.9535 1287.08 94.1068 1284.94 94.0068L1284.5 93.9961ZM1284.56 95.3975C1285.45 95.3975 1286.39 95.6328 1287.25 95.8643C1288.14 96.2134 1288.89 96.7589 1289.55 97.418C1290.17 98.0418 1290.68 98.7795 1291.03 99.6348C1291.46 100.529 1291.58 101.463 1291.58 102.396C1291.58 103.33 1291.38 104.186 1291.03 105.002C1290.68 105.896 1290.25 106.595 1289.55 107.219C1288.84 107.842 1288.1 108.348 1287.25 108.697C1286.47 109.046 1285.57 109.243 1284.63 109.243C1283.7 109.243 1282.76 109.046 1281.94 108.697C1281.05 108.348 1280.3 107.803 1279.64 107.144C1277.61 105.198 1277.07 102.165 1278.16 99.6387C1278.51 98.8226 1279.05 98.0058 1279.72 97.3428C1280.38 96.6798 1281.12 96.2134 1281.94 95.8643C1282.62 95.5587 1283.45 95.4296 1284.23 95.4023L1284.56 95.3975ZM1284.71 97.5742H1281.12V106.9H1283.34V103.091H1284.47L1286.23 106.822H1288.72L1286.66 102.663C1287.2 102.545 1287.75 102.275 1288.14 101.808C1288.49 101.38 1288.69 101.07 1288.69 100.254C1288.69 99.438 1288.33 98.7002 1287.67 98.2334C1286.77 97.692 1285.72 97.4958 1284.71 97.5742ZM1284.36 98.9355C1284.9 98.8963 1285.45 99.0145 1285.92 99.2852C1286.27 99.5598 1286.39 99.9876 1286.39 100.376C1286.39 100.764 1286.27 101.192 1285.92 101.388C1285.45 101.658 1284.9 101.816 1284.43 101.737H1283.3V99.0537L1284.36 98.9355ZM1281.08 97.5664V97.5742H1281.12V97.5664H1281.08Z" fill="#303446"/>
<defs>
<clipPath id="clip0_1282_1275">
<rect width="867.659" height="140.013" fill="white" transform="translate(258.499 47)"/>
</clipPath>
</defs>
</svg>
