<svg width="733" height="626" viewBox="0 0 733 626" fill="none" xmlns="http://www.w3.org/2000/svg">
<g clip-path="url(#clip0_1282_1240)">
<path d="M158.01 149.494C149.645 143.367 147.831 131.62 153.957 123.256C169.99 101.366 189.218 82.1379 211.107 66.1058C219.47 59.9792 231.218 61.7936 237.345 70.158C243.472 78.5223 241.657 90.2695 233.293 96.3961C214.508 110.156 198.006 126.656 184.248 145.441C178.104 153.828 166.353 155.605 158.01 149.494Z" fill="url(#paint0_linear_1282_1240)"/>
<path d="M547.951 145.442C534.192 126.656 517.69 110.155 498.905 96.3961C490.541 90.2695 488.726 78.5223 494.854 70.158C500.978 61.7936 512.728 59.9792 521.092 66.1058C542.979 82.1379 562.208 101.365 578.242 123.256C584.368 131.62 582.555 143.367 574.19 149.494C565.861 155.593 554.105 153.844 547.951 145.442Z" fill="url(#paint1_linear_1282_1240)"/>
<path d="M384.915 282.679V196.591C384.915 186.223 376.511 177.818 366.142 177.818C355.774 177.818 347.37 186.223 347.37 196.591V290.455C347.37 295.434 349.347 300.209 352.868 303.729L390.414 341.275C397.745 348.606 409.632 348.607 416.963 341.275C424.294 333.943 424.294 322.057 416.963 314.726L384.915 282.679Z" fill="url(#paint2_linear_1282_1240)"/>
<path d="M469.289 129.179C540.473 170.724 564.538 261.92 522.994 333.104C481.449 404.287 390.253 428.353 319.069 386.808C278.284 362.996 251.179 321.451 245.859 274.839V283.706C245.859 374.902 319.829 448.872 411.025 448.872C502.221 448.872 576.191 374.902 576.191 283.706C576.191 214.802 533.633 153.245 469.036 128.926" fill="url(#paint3_linear_1282_1240)"/>
<path d="M404.862 0C415.229 0.000820722 423.635 8.40526 423.635 18.773C423.635 29.1407 415.229 37.5452 404.862 37.546H386.089V68.5168C393.006 69.2068 399.814 70.2772 406.49 71.7035C457.077 81.4639 504.218 109.615 536.925 154.511C502.474 119.554 455.104 99.793 405.96 99.7926C304.378 99.7926 222.299 182.378 222.299 283.96C222.3 383.955 302.077 465.05 401.464 467.56L405.96 467.363C440.664 467.363 474.608 457.484 503.993 438.993C499.94 442.792 495.383 446.34 490.823 449.632C396.588 518.283 264.606 497.762 195.702 403.526C127.053 309.291 147.57 177.313 241.804 108.409C273.312 85.4563 309.07 72.4819 345.276 68.8875C346.363 68.7598 347.451 68.6257 348.543 68.5168V37.546H329.77C319.402 37.5458 310.997 29.1411 310.997 18.773C310.997 8.40486 319.402 0.000160992 329.77 0H404.862Z" fill="url(#paint4_linear_1282_1240)"/>
</g>
<g clip-path="url(#clip1_1282_1240)">
<path d="M72.4191 530.539V548.755H47.65V624.062H24.8802V548.755H0V530.539H72.4191Z" fill="#303446"/>
<path d="M106.629 530.539V624.062H83.8594V530.539H106.629Z" fill="#303446"/>
<path d="M229.142 530.539V624.062H206.372V567.97L185.49 624.062H167.052L145.949 567.859V624.062H123.179V530.539H150.058L176.271 595.294L202.373 530.539H229.142Z" fill="#303446"/>
<path d="M268.35 548.755V567.637H298.895V585.187H268.35V605.735H302.893V623.951H245.58V530.539H302.893V548.755H268.35Z" fill="#303446"/>
<path d="M387.309 584.187C390.641 588.408 392.196 593.184 392.196 598.626C392.196 606.401 389.419 612.621 383.977 617.175C378.534 621.729 370.87 624.062 361.096 624.062H317.556V530.539H359.652C369.204 530.539 376.646 532.761 381.978 537.092C387.309 541.424 390.086 547.311 390.086 554.864C390.086 560.417 388.642 564.971 385.754 568.637C382.866 572.302 378.979 574.857 374.202 576.19C379.645 577.3 383.977 580.077 387.309 584.298V584.187ZM340.437 568.415H355.32C359.097 568.415 361.873 567.637 363.873 565.971C365.872 564.305 366.872 561.861 366.872 558.751C366.872 555.641 365.872 553.087 363.873 551.421C361.873 549.755 358.986 548.866 355.32 548.866H340.437V568.415ZM366.094 603.069C368.205 601.292 369.204 598.848 369.204 595.516C369.204 592.184 368.094 589.629 365.983 587.741C363.762 585.853 360.763 584.964 356.986 584.964H340.437V605.624H357.208C360.985 605.624 363.984 604.735 366.094 603.069Z" fill="#303446"/>
<path d="M554.708 624.062L535.603 595.405L518.831 624.062H492.952L522.941 576.523L492.285 530.539H518.831L537.603 558.751L554.152 530.539H580.032L550.265 577.745L581.143 624.173H554.597L554.708 624.062Z" fill="#303446"/>
<path d="M459.344 619.886C436.213 619.886 417.463 601.204 417.463 578.157C417.463 555.11 436.213 536.428 459.344 536.428C471.009 536.428 481.555 541.183 489.149 548.854C480.401 536.946 466.271 529.203 450.319 529.203C423.751 529.203 402.213 550.659 402.213 577.131C402.213 603.603 423.751 625.058 450.315 625.058C462.3 625.058 473.255 620.679 481.683 613.449C475.214 617.525 467.558 619.89 459.344 619.89" fill="#303446"/>
<path d="M473.741 543.133C483.809 549.009 490.579 559.896 490.579 572.36C490.579 591.056 475.367 606.208 456.607 606.213C439.15 606.213 424.776 593.093 422.86 576.212C422.827 576.877 422.803 577.542 422.803 578.212C422.803 598.922 439.655 615.708 460.436 615.708C481.216 615.708 498.068 598.917 498.068 578.212C498.068 562.171 487.957 548.491 473.741 543.133Z" fill="#303446"/>
<path d="M455.598 545.727C442.97 545.727 432.306 554.096 428.878 565.572C432.706 557.06 441.282 551.132 451.251 551.132C464.79 551.132 475.764 562.067 475.764 575.557C475.764 589.047 464.79 599.981 451.251 599.981C449.039 599.981 446.893 599.682 444.853 599.136C448.157 600.513 451.789 601.273 455.598 601.278C470.997 601.278 483.473 588.838 483.473 573.5C483.473 558.157 470.992 545.727 455.598 545.727Z" fill="#303446"/>
</g>
<path d="M577.578 566.206C577.578 557.32 584.781 550.117 593.667 550.117H715.939C724.825 550.117 732.028 557.32 732.028 566.206V588.73C732.028 597.615 724.825 604.818 715.939 604.818H593.667C584.781 604.818 577.578 597.615 577.578 588.73V566.206Z" fill="url(#paint5_linear_1282_1240)"/>
<path d="M620.844 576.442C622.414 576.776 623.675 577.561 624.628 578.797C625.58 580.007 626.057 581.397 626.057 582.967C626.057 585.232 625.259 587.034 623.663 588.373C622.092 589.686 619.891 590.342 617.06 590.342H604.434V563.236H616.635C619.389 563.236 621.539 563.867 623.083 565.128C624.654 566.39 625.439 568.101 625.439 570.264C625.439 571.86 625.014 573.185 624.165 574.241C623.341 575.296 622.234 576.03 620.844 576.442ZM611.036 574.202H615.361C616.442 574.202 617.266 573.97 617.832 573.507C618.424 573.018 618.72 572.31 618.72 571.383C618.72 570.457 618.424 569.749 617.832 569.26C617.266 568.771 616.442 568.526 615.361 568.526H611.036V574.202ZM615.901 585.014C617.008 585.014 617.858 584.769 618.45 584.28C619.068 583.765 619.377 583.031 619.377 582.079C619.377 581.127 619.055 580.38 618.411 579.84C617.793 579.299 616.931 579.029 615.824 579.029H611.036V585.014H615.901Z" fill="#303446"/>
<path d="M665.216 563.236V590.342H658.614V574.086L652.552 590.342H647.223L641.122 574.048V590.342H634.52V563.236H642.319L649.926 582.002L657.455 563.236H665.216Z" fill="#303446"/>
<path d="M695.256 571.963C695.256 573.533 694.895 574.974 694.175 576.287C693.454 577.574 692.347 578.617 690.854 579.415C689.361 580.213 687.507 580.612 685.294 580.612H681.201V590.342H674.598V563.236H685.294C687.456 563.236 689.284 563.609 690.777 564.356C692.27 565.102 693.389 566.132 694.136 567.445C694.882 568.758 695.256 570.264 695.256 571.963ZM684.792 575.36C686.053 575.36 686.993 575.064 687.61 574.472C688.228 573.88 688.537 573.044 688.537 571.963C688.537 570.881 688.228 570.045 687.61 569.453C686.993 568.861 686.053 568.565 684.792 568.565H681.201V575.36H684.792Z" fill="#303446"/>
<path d="M702.426 561.383C704.002 561.383 705.47 561.968 706.51 563.086C707.016 563.591 707.417 564.23 707.711 564.923C708.271 566.333 708.271 567.905 707.711 569.288C707.444 569.981 707.016 570.62 706.456 571.125C705.895 571.684 705.308 572.084 704.56 572.377C703.865 572.643 703.146 572.804 702.397 572.804C701.648 572.804 700.875 572.67 700.18 572.353C699.485 572.036 698.844 571.606 698.284 571.074C697.218 570.01 696.63 568.598 696.63 567.134C696.63 565.67 696.684 566.121 696.816 565.616C696.948 565.111 697.191 564.603 697.403 564.206C698.551 562.449 700.42 561.383 702.421 561.383M702.453 562.342C701.866 562.342 701.198 562.422 700.665 562.661C700.105 562.9 699.598 563.22 699.143 563.674C698.688 564.128 698.316 564.687 698.077 565.245C697.328 566.975 697.702 569.052 699.092 570.384C699.545 570.835 700.054 571.208 700.668 571.447C701.228 571.687 701.869 571.821 702.51 571.821C703.151 571.821 703.765 571.687 704.298 571.447C704.885 571.208 705.392 570.862 705.874 570.435C706.356 570.008 706.647 569.53 706.889 568.917C707.129 568.359 707.264 567.773 707.264 567.134C707.264 566.494 707.183 565.855 706.889 565.243C706.65 564.657 706.302 564.152 705.874 563.725C705.421 563.274 704.912 562.9 704.298 562.661C703.711 562.503 703.07 562.342 702.456 562.342M700.078 563.832H702.561C703.256 563.779 703.975 563.913 704.589 564.284C705.042 564.603 705.284 565.108 705.284 565.667C705.284 566.226 705.149 566.438 704.91 566.731C704.643 567.05 704.269 567.236 703.894 567.316L705.308 570.164H703.601L702.4 567.609H701.627V570.217H700.105V563.827H700.078V563.832ZM701.6 564.845V566.682H702.373C702.693 566.736 703.068 566.629 703.388 566.443C703.628 566.309 703.709 566.016 703.709 565.75C703.709 565.484 703.628 565.192 703.388 565.004C703.068 564.818 702.693 564.738 702.321 564.765L701.6 564.845Z" fill="#303446"/>
<defs>
<linearGradient id="paint0_linear_1282_1240" x1="250.737" y1="402.585" x2="624.139" y2="137.052" gradientUnits="userSpaceOnUse">
<stop stop-color="#A9DD2F"/>
<stop offset="0.72" stop-color="#2DBA95"/>
</linearGradient>
<linearGradient id="paint1_linear_1282_1240" x1="250.737" y1="402.585" x2="624.139" y2="137.052" gradientUnits="userSpaceOnUse">
<stop stop-color="#A9DD2F"/>
<stop offset="0.72" stop-color="#2DBA95"/>
</linearGradient>
<linearGradient id="paint2_linear_1282_1240" x1="250.737" y1="402.585" x2="624.139" y2="137.052" gradientUnits="userSpaceOnUse">
<stop stop-color="#A9DD2F"/>
<stop offset="0.72" stop-color="#2DBA95"/>
</linearGradient>
<linearGradient id="paint3_linear_1282_1240" x1="250.737" y1="402.585" x2="624.139" y2="137.052" gradientUnits="userSpaceOnUse">
<stop stop-color="#A9DD2F"/>
<stop offset="0.72" stop-color="#2DBA95"/>
</linearGradient>
<linearGradient id="paint4_linear_1282_1240" x1="250.737" y1="402.585" x2="624.139" y2="137.052" gradientUnits="userSpaceOnUse">
<stop stop-color="#A9DD2F"/>
<stop offset="0.72" stop-color="#2DBA95"/>
</linearGradient>
<linearGradient id="paint5_linear_1282_1240" x1="613.514" y1="595.041" x2="645.959" y2="521.042" gradientUnits="userSpaceOnUse">
<stop stop-color="#A9DD2F"/>
<stop offset="0.72" stop-color="#2DBA95"/>
</linearGradient>
<clipPath id="clip0_1282_1240">
<rect width="490.2" height="490.2" fill="white" transform="translate(121)"/>
</clipPath>
<clipPath id="clip1_1282_1240">
<rect width="594.014" height="95.8553" fill="white" transform="translate(0 529.203)"/>
</clipPath>
</defs>
</svg>
