<svg width="1328" height="235" viewBox="0 0 1328 235" fill="none" xmlns="http://www.w3.org/2000/svg">
<path d="M17.742 71.6667C13.7322 68.7296 12.8624 63.098 15.7994 59.0882C23.4856 48.5946 32.7031 39.3766 43.1968 31.6909C47.2061 28.7538 52.8377 29.6236 55.7752 33.6335C58.7123 37.6433 57.8424 43.2748 53.8326 46.2119C44.8271 52.8082 36.9163 60.7185 30.3204 69.7241C27.3753 73.7447 21.7419 74.5965 17.742 71.6667Z" fill="url(#paint0_linear_1282_1224)"/>
<path d="M204.679 69.7245C198.082 60.7185 190.172 52.8078 181.166 46.2119C177.156 43.2748 176.286 37.6433 179.224 33.6335C182.16 29.6236 187.792 28.7538 191.802 31.6909C202.295 39.3766 211.513 48.5941 219.2 59.0882C222.137 63.098 221.267 68.7296 217.257 71.6667C213.264 74.5907 207.629 73.7523 204.679 69.7245Z" fill="url(#paint1_linear_1282_1224)"/>
<path d="M126.52 135.515V94.2449C126.52 89.2744 122.491 85.2452 117.52 85.2452C112.55 85.2452 108.52 89.2744 108.52 94.2449V139.243C108.52 141.63 109.469 143.919 111.156 145.607L129.156 163.606C132.67 167.12 138.369 167.121 141.883 163.606C145.398 160.091 145.398 154.393 141.883 150.879L126.52 135.515Z" fill="url(#paint2_linear_1282_1224)"/>
<path d="M166.968 61.9281C201.093 81.8445 212.63 125.563 192.714 159.689C172.798 193.814 129.079 205.351 94.9534 185.434C75.4013 174.019 62.4071 154.102 59.8568 131.757V136.007C59.8568 179.726 95.3177 215.187 139.037 215.187C182.756 215.187 218.217 179.726 218.217 136.007C218.217 102.975 197.814 73.465 166.847 61.8066" fill="url(#paint3_linear_1282_1224)"/>
<path d="M136.082 0C141.052 0.000393451 145.082 4.02945 145.082 8.99971C145.082 13.9699 141.052 17.999 136.082 17.9994H127.082V32.8467C130.399 33.1775 133.662 33.6906 136.863 34.3744C161.114 39.0535 183.713 52.549 199.393 74.0721C182.877 57.3135 160.168 47.8404 136.609 47.8402C87.9105 47.8402 48.5622 87.4315 48.5622 136.13C48.5624 184.066 86.8074 222.943 134.453 224.147L136.609 224.052C153.246 224.052 169.518 219.316 183.605 210.451C181.662 212.273 179.477 213.973 177.292 215.552C132.115 248.463 68.844 238.625 35.8118 193.449C2.90163 148.273 12.7375 85.0033 57.9129 51.9711C73.0175 40.9674 90.1598 34.7476 107.517 33.0244C108.038 32.9632 108.56 32.8989 109.083 32.8467V17.9994H100.083C95.1128 17.9993 91.0836 13.9701 91.0835 8.99971C91.0835 4.02926 95.1128 7.71787e-05 100.083 0H136.082Z" fill="url(#paint4_linear_1282_1224)"/>
<g clip-path="url(#clip0_1282_1224)">
<path d="M364.28 48.9453V75.5526H328.101V185.551H294.842V75.5526H258.5V48.9453H364.28Z" fill="#303446"/>
<path d="M414.25 48.9453V185.551H380.991V48.9453H414.25Z" fill="#303446"/>
<path d="M593.201 48.9453V185.551H559.941V103.62L529.44 185.551H502.509L471.683 103.458V185.551H438.424V48.9453H477.686L515.974 143.531L554.101 48.9453H593.201Z" fill="#303446"/>
<path d="M650.471 75.5526V103.133H695.087V128.767H650.471V158.782H700.928V185.389H617.212V48.9453H700.928V75.5526H650.471Z" fill="#303446"/>
<path d="M824.23 127.307C829.098 133.472 831.369 140.449 831.369 148.398C831.369 159.755 827.313 168.841 819.363 175.492C811.413 182.144 800.219 185.551 785.942 185.551H722.344V48.9453H783.833C797.785 48.9453 808.655 52.1901 816.443 58.5175C824.23 64.8448 828.286 73.4435 828.286 84.4758C828.286 92.5878 826.177 99.2397 821.959 104.594C817.741 109.947 812.062 113.679 805.086 115.626C813.036 117.248 819.363 121.304 824.23 127.469V127.307ZM755.765 104.269H777.505C783.021 104.269 787.077 103.133 789.998 100.7C792.918 98.2662 794.378 94.697 794.378 90.1542C794.378 85.6115 792.918 81.88 789.998 79.4464C787.077 77.0128 782.859 75.7149 777.505 75.7149H755.765V104.269ZM793.243 154.888C796.325 152.292 797.785 148.723 797.785 143.856C797.785 138.988 796.163 135.257 793.08 132.499C789.836 129.741 785.455 128.443 779.939 128.443H755.765V158.619H780.263C785.78 158.619 790.16 157.322 793.243 154.888Z" fill="#303446"/>
<path d="M1068.75 185.551L1040.84 143.693L1016.34 185.551H978.54L1022.34 116.113L977.566 48.9453H1016.34L1043.76 90.1542L1067.93 48.9453H1105.74L1062.26 117.897L1107.36 185.714H1068.58L1068.75 185.551Z" fill="#303446"/>
<path d="M929.45 179.457C895.663 179.457 868.276 152.169 868.276 118.505C868.276 84.841 895.663 57.553 929.45 57.553C946.489 57.553 961.892 64.4982 972.985 75.7034C960.207 58.3093 939.567 47 916.268 47C877.461 47 846 78.3399 846 117.006C846 155.673 877.461 187.013 916.261 187.013C933.767 187.013 949.769 180.616 962.08 170.056C952.631 176.009 941.447 179.464 929.45 179.464" fill="#303446"/>
<path d="M950.478 67.3516C965.185 75.9341 975.073 91.8365 975.073 110.042C975.073 137.351 952.853 159.484 925.452 159.491C899.952 159.491 878.957 140.328 876.158 115.669C876.109 116.641 876.074 117.612 876.074 118.59C876.074 148.841 900.69 173.36 931.043 173.36C961.397 173.36 986.013 148.834 986.013 118.59C986.013 95.1599 971.243 75.1779 950.478 67.3516Z" fill="#303446"/>
<path d="M923.979 71.1406C905.533 71.1406 889.956 83.3657 884.949 100.128C890.541 87.6952 903.068 79.0363 917.629 79.0363C937.405 79.0363 953.434 95.0081 953.434 114.713C953.434 134.417 937.405 150.389 917.629 150.389C914.397 150.389 911.264 149.952 908.284 149.154C913.109 151.166 918.415 152.276 923.979 152.283C946.471 152.283 964.694 134.112 964.694 111.708C964.694 89.2979 946.464 71.1406 923.979 71.1406Z" fill="#303446"/>
</g>
<path d="M1102.15 101.047C1102.15 88.0682 1112.67 77.5469 1125.65 77.5469H1304.25C1317.23 77.5469 1327.75 88.0682 1327.75 101.047V133.947C1327.75 146.926 1317.23 157.447 1304.25 157.447H1125.65C1112.67 157.447 1102.15 146.926 1102.15 133.947V101.047Z" fill="url(#paint5_linear_1282_1224)"/>
<path d="M1165.35 115.996C1167.64 116.485 1169.48 117.632 1170.88 119.436C1172.27 121.204 1172.96 123.234 1172.96 125.528C1172.96 128.836 1171.8 131.468 1169.47 133.424C1167.17 135.341 1163.96 136.3 1159.82 136.3H1141.38V96.7072H1159.2C1163.22 96.7072 1166.36 97.6284 1168.62 99.4708C1170.91 101.313 1172.06 103.814 1172.06 106.972C1172.06 109.303 1171.44 111.24 1170.2 112.781C1169 114.323 1167.38 115.394 1165.35 115.996ZM1151.02 112.725H1157.34C1158.92 112.725 1160.12 112.386 1160.95 111.71C1161.81 110.995 1162.25 109.961 1162.25 108.608C1162.25 107.254 1161.81 106.22 1160.95 105.506C1160.12 104.791 1158.92 104.434 1157.34 104.434H1151.02V112.725ZM1158.13 128.517C1159.75 128.517 1160.99 128.16 1161.85 127.445C1162.75 126.693 1163.21 125.622 1163.21 124.23C1163.21 122.839 1162.74 121.749 1161.8 120.959C1160.89 120.17 1159.63 119.775 1158.02 119.775H1151.02V128.517H1158.13Z" fill="#303446"/>
<path d="M1230.16 96.7072V136.3H1220.52V112.556L1211.66 136.3H1203.88L1194.97 112.499V136.3H1185.32V96.7072H1196.72L1207.83 124.118L1218.83 96.7072H1230.16Z" fill="#303446"/>
<path d="M1274.04 109.454C1274.04 111.747 1273.51 113.853 1272.46 115.77C1271.41 117.65 1269.79 119.173 1267.61 120.339C1265.43 121.504 1262.72 122.087 1259.49 122.087H1253.51V136.3H1243.87V96.7072H1259.49C1262.65 96.7072 1265.32 97.2524 1267.5 98.3428C1269.68 99.4332 1271.31 100.937 1272.4 102.855C1273.49 104.772 1274.04 106.972 1274.04 109.454ZM1258.76 114.417C1260.6 114.417 1261.97 113.984 1262.87 113.12C1263.78 112.255 1264.23 111.033 1264.23 109.454C1264.23 107.874 1263.78 106.652 1262.87 105.788C1261.97 104.923 1260.6 104.49 1258.76 104.49H1253.51V114.417H1258.76Z" fill="#303446"/>
<path d="M1284.51 94C1286.82 94 1288.96 94.8553 1290.48 96.4875C1291.22 97.2251 1291.8 98.1589 1292.23 99.1711C1293.05 101.231 1293.05 103.526 1292.23 105.547C1291.84 106.559 1291.22 107.493 1290.4 108.23C1289.58 109.046 1288.72 109.631 1287.63 110.059C1286.62 110.447 1285.56 110.683 1284.47 110.683C1283.38 110.683 1282.25 110.486 1281.23 110.023C1280.22 109.56 1279.28 108.933 1278.46 108.156C1276.91 106.602 1276.05 104.538 1276.05 102.4C1276.05 100.262 1276.13 100.921 1276.32 100.183C1276.51 99.4457 1276.87 98.7042 1277.18 98.1235C1278.85 95.5576 1281.58 94 1284.51 94M1284.55 95.4007C1283.7 95.4007 1282.72 95.5184 1281.94 95.8676C1281.12 96.2168 1280.38 96.6836 1279.72 97.3467C1279.05 98.0097 1278.51 98.8258 1278.16 99.6419C1277.07 102.169 1277.61 105.201 1279.64 107.147C1280.3 107.807 1281.05 108.352 1281.95 108.701C1282.76 109.05 1283.7 109.247 1284.64 109.247C1285.57 109.247 1286.47 109.05 1287.25 108.701C1288.11 108.352 1288.85 107.846 1289.55 107.222C1290.25 106.598 1290.68 105.9 1291.03 105.005C1291.38 104.189 1291.58 103.334 1291.58 102.4C1291.58 101.466 1291.46 100.533 1291.03 99.638C1290.68 98.7827 1290.18 98.0451 1289.55 97.4212C1288.89 96.7621 1288.15 96.2168 1287.25 95.8676C1286.39 95.6361 1285.45 95.4007 1284.56 95.4007M1281.08 97.5782H1284.71C1285.73 97.4997 1286.78 97.6959 1287.67 98.2373C1288.33 98.7042 1288.69 99.4418 1288.69 100.258C1288.69 101.074 1288.49 101.384 1288.14 101.812C1287.75 102.278 1287.21 102.549 1286.66 102.667L1288.72 106.826H1286.23L1284.47 103.095H1283.35V106.904H1281.12V97.5703H1281.08V97.5782ZM1283.31 99.0573V101.741H1284.44C1284.9 101.819 1285.45 101.663 1285.92 101.392C1286.27 101.196 1286.39 100.768 1286.39 100.38C1286.39 99.9911 1286.27 99.5634 1285.92 99.2888C1285.45 99.0181 1284.9 98.9004 1284.36 98.9396L1283.31 99.0573Z" fill="#303446"/>
<defs>
<linearGradient id="paint0_linear_1282_1224" x1="62.1951" y1="192.997" x2="241.203" y2="65.7021" gradientUnits="userSpaceOnUse">
<stop stop-color="#A9DD2F"/>
<stop offset="0.72" stop-color="#2DBA95"/>
</linearGradient>
<linearGradient id="paint1_linear_1282_1224" x1="62.1951" y1="192.997" x2="241.203" y2="65.7021" gradientUnits="userSpaceOnUse">
<stop stop-color="#A9DD2F"/>
<stop offset="0.72" stop-color="#2DBA95"/>
</linearGradient>
<linearGradient id="paint2_linear_1282_1224" x1="62.1951" y1="192.997" x2="241.203" y2="65.7021" gradientUnits="userSpaceOnUse">
<stop stop-color="#A9DD2F"/>
<stop offset="0.72" stop-color="#2DBA95"/>
</linearGradient>
<linearGradient id="paint3_linear_1282_1224" x1="62.1951" y1="192.997" x2="241.203" y2="65.7021" gradientUnits="userSpaceOnUse">
<stop stop-color="#A9DD2F"/>
<stop offset="0.72" stop-color="#2DBA95"/>
</linearGradient>
<linearGradient id="paint4_linear_1282_1224" x1="62.1951" y1="192.997" x2="241.203" y2="65.7021" gradientUnits="userSpaceOnUse">
<stop stop-color="#A9DD2F"/>
<stop offset="0.72" stop-color="#2DBA95"/>
</linearGradient>
<linearGradient id="paint5_linear_1282_1224" x1="1154.64" y1="143.166" x2="1202.03" y2="35.077" gradientUnits="userSpaceOnUse">
<stop stop-color="#A9DD2F"/>
<stop offset="0.72" stop-color="#2DBA95"/>
</linearGradient>
<clipPath id="clip0_1282_1224">
<rect width="867.659" height="140.013" fill="white" transform="translate(258.5 47)"/>
</clipPath>
</defs>
</svg>
