<svg width="500" height="500" viewBox="0 0 500 500" fill="none" xmlns="http://www.w3.org/2000/svg">
<path d="M37.75 152.482C29.2185 146.233 27.3678 134.251 33.6168 125.72C49.9705 103.393 69.5822 83.78 91.9091 67.4274C100.44 61.1783 112.422 63.029 118.672 71.5605C124.921 80.0921 123.07 92.0741 114.539 98.3232C95.3778 112.358 78.5464 129.188 64.5126 148.349C58.2464 156.904 46.2605 158.716 37.75 152.482Z" fill="url(#paint0_linear_1282_1296)"/>
<path d="M435.487 148.35C421.453 129.188 404.621 112.357 385.461 98.3232C376.929 92.0741 375.078 80.0921 381.328 71.5605C387.575 63.029 399.559 61.1783 408.091 67.4274C430.416 83.78 450.029 103.392 466.383 125.72C472.632 134.251 470.783 146.233 462.251 152.482C453.755 158.704 441.764 156.92 435.487 148.35Z" fill="url(#paint1_linear_1282_1296)"/>
<path d="M269.192 288.331V200.521C269.192 189.945 260.619 181.373 250.044 181.373C239.468 181.373 230.896 189.945 230.896 200.521V296.262C230.896 301.34 232.913 306.211 236.504 309.801L274.801 348.098C282.278 355.575 294.402 355.576 301.881 348.098C309.358 340.619 309.358 328.496 301.881 321.018L269.192 288.331Z" fill="url(#paint2_linear_1282_1296)"/>
<path d="M355.253 131.762C427.859 174.137 452.406 267.156 410.031 339.763C367.655 412.37 274.636 436.916 202.03 394.541C160.429 370.252 132.782 327.877 127.356 280.334V289.378C127.356 382.397 202.805 457.845 295.824 457.845C388.843 457.845 464.292 382.397 464.292 289.378C464.292 219.096 420.883 156.309 354.994 131.503" fill="url(#paint3_linear_1282_1296)"/>
<path d="M289.537 0C300.112 0.00083713 308.686 8.5733 308.686 19.1483C308.686 29.7233 300.112 38.2958 289.537 38.2966H270.389V69.8865C277.445 70.5904 284.388 71.6821 291.198 73.137C342.796 83.0926 390.88 111.806 424.241 157.6C389.101 121.944 340.784 101.788 290.658 101.788C187.045 101.788 103.325 186.024 103.325 289.637C103.325 391.631 184.698 474.348 286.072 476.908L290.658 476.707C326.056 476.706 360.678 466.63 390.65 447.769C386.516 451.644 381.868 455.263 377.217 458.621C281.098 528.644 146.478 507.713 76.1965 411.593C6.17473 315.474 27.1021 180.858 123.22 110.577C155.357 87.1647 191.83 73.931 228.761 70.2647C229.869 70.1344 230.979 69.9976 232.092 69.8865V38.2966H212.944C202.369 38.2965 193.796 29.7237 193.796 19.1483C193.796 8.57288 202.369 0.00016421 212.944 0H289.537Z" fill="url(#paint4_linear_1282_1296)"/>
<defs>
<linearGradient id="paint0_linear_1282_1296" x1="132.331" y1="410.633" x2="513.198" y2="139.792" gradientUnits="userSpaceOnUse">
<stop stop-color="#A9DD2F"/>
<stop offset="0.72" stop-color="#2DBA95"/>
</linearGradient>
<linearGradient id="paint1_linear_1282_1296" x1="132.331" y1="410.633" x2="513.198" y2="139.792" gradientUnits="userSpaceOnUse">
<stop stop-color="#A9DD2F"/>
<stop offset="0.72" stop-color="#2DBA95"/>
</linearGradient>
<linearGradient id="paint2_linear_1282_1296" x1="132.331" y1="410.633" x2="513.198" y2="139.792" gradientUnits="userSpaceOnUse">
<stop stop-color="#A9DD2F"/>
<stop offset="0.72" stop-color="#2DBA95"/>
</linearGradient>
<linearGradient id="paint3_linear_1282_1296" x1="132.331" y1="410.633" x2="513.198" y2="139.792" gradientUnits="userSpaceOnUse">
<stop stop-color="#A9DD2F"/>
<stop offset="0.72" stop-color="#2DBA95"/>
</linearGradient>
<linearGradient id="paint4_linear_1282_1296" x1="132.331" y1="410.633" x2="513.198" y2="139.792" gradientUnits="userSpaceOnUse">
<stop stop-color="#A9DD2F"/>
<stop offset="0.72" stop-color="#2DBA95"/>
</linearGradient>
</defs>
</svg>
