<svg width="733" height="626" viewBox="0 0 733 626" fill="none" xmlns="http://www.w3.org/2000/svg">
<g clip-path="url(#clip0_1282_1334)">
<path d="M158.01 149.494C149.645 143.367 147.831 131.62 153.957 123.256C169.99 101.366 189.218 82.1379 211.107 66.1058C219.47 59.9792 231.218 61.7936 237.345 70.158C243.472 78.5223 241.657 90.2695 233.293 96.3961C214.508 110.156 198.006 126.656 184.248 145.441C178.104 153.828 166.353 155.605 158.01 149.494Z" fill="white"/>
<path d="M547.951 145.442C534.192 126.656 517.69 110.155 498.905 96.3961C490.541 90.2695 488.726 78.5223 494.854 70.158C500.978 61.7936 512.728 59.9792 521.092 66.1058C542.979 82.1379 562.208 101.365 578.242 123.256C584.368 131.62 582.555 143.367 574.19 149.494C565.861 155.593 554.105 153.844 547.951 145.442Z" fill="white"/>
<path d="M384.915 282.679V196.591C384.915 186.223 376.511 177.818 366.142 177.818C355.774 177.818 347.37 186.223 347.37 196.591V290.455C347.37 295.434 349.347 300.209 352.868 303.729L390.414 341.275C397.745 348.606 409.632 348.607 416.963 341.275C424.294 333.943 424.294 322.057 416.963 314.726L384.915 282.679Z" fill="white"/>
<path d="M469.289 129.179C540.473 170.724 564.538 261.92 522.994 333.104C481.449 404.287 390.253 428.353 319.069 386.808C278.284 362.996 251.179 321.451 245.859 274.839V283.706C245.859 374.902 319.829 448.872 411.025 448.872C502.221 448.872 576.191 374.902 576.191 283.706C576.191 214.802 533.633 153.245 469.036 128.926" fill="white"/>
<path d="M404.862 0C415.229 0.000820722 423.635 8.40526 423.635 18.773C423.635 29.1407 415.229 37.5452 404.862 37.546H386.089V68.5168C393.006 69.2068 399.814 70.2772 406.49 71.7035C457.077 81.4639 504.218 109.615 536.925 154.511C502.474 119.554 455.104 99.793 405.96 99.7926C304.378 99.7926 222.299 182.378 222.299 283.96C222.3 383.955 302.077 465.05 401.464 467.56L405.96 467.363C440.664 467.363 474.608 457.484 503.993 438.993C499.94 442.792 495.383 446.34 490.823 449.632C396.588 518.283 264.606 497.762 195.702 403.526C127.053 309.291 147.57 177.313 241.804 108.409C273.312 85.4563 309.07 72.4819 345.276 68.8875C346.363 68.7598 347.451 68.6257 348.543 68.5168V37.546H329.77C319.402 37.5458 310.997 29.1411 310.997 18.773C310.997 8.40486 319.402 0.000160992 329.77 0H404.862Z" fill="white"/>
</g>
<g clip-path="url(#clip1_1282_1334)">
<path d="M72.4191 530.539V548.755H47.65V624.062H24.8802V548.755H0V530.539H72.4191Z" fill="white"/>
<path d="M106.629 530.539V624.062H83.8594V530.539H106.629Z" fill="white"/>
<path d="M229.142 530.539V624.062H206.372V567.97L185.49 624.062H167.052L145.949 567.859V624.062H123.179V530.539H150.058L176.271 595.294L202.373 530.539H229.142Z" fill="white"/>
<path d="M268.35 548.755V567.637H298.895V585.187H268.35V605.735H302.893V623.951H245.58V530.539H302.893V548.755H268.35Z" fill="white"/>
<path d="M387.309 584.187C390.641 588.408 392.196 593.184 392.196 598.626C392.196 606.401 389.419 612.621 383.977 617.175C378.534 621.729 370.87 624.062 361.096 624.062H317.556V530.539H359.652C369.204 530.539 376.646 532.761 381.978 537.092C387.309 541.424 390.086 547.311 390.086 554.864C390.086 560.417 388.642 564.971 385.754 568.637C382.866 572.302 378.979 574.857 374.202 576.19C379.645 577.3 383.977 580.077 387.309 584.298V584.187ZM340.437 568.415H355.32C359.097 568.415 361.873 567.637 363.873 565.971C365.872 564.305 366.872 561.861 366.872 558.751C366.872 555.641 365.872 553.087 363.873 551.421C361.873 549.755 358.986 548.866 355.32 548.866H340.437V568.415ZM366.094 603.069C368.205 601.292 369.204 598.848 369.204 595.516C369.204 592.184 368.094 589.629 365.983 587.741C363.762 585.853 360.763 584.964 356.986 584.964H340.437V605.624H357.208C360.985 605.624 363.984 604.735 366.094 603.069Z" fill="white"/>
<path d="M554.708 624.062L535.603 595.405L518.831 624.062H492.952L522.941 576.523L492.285 530.539H518.831L537.603 558.751L554.152 530.539H580.032L550.265 577.745L581.143 624.173H554.597L554.708 624.062Z" fill="white"/>
<path d="M459.344 619.886C436.213 619.886 417.463 601.204 417.463 578.157C417.463 555.11 436.213 536.428 459.344 536.428C471.009 536.428 481.555 541.183 489.149 548.854C480.401 536.946 466.271 529.203 450.319 529.203C423.751 529.203 402.213 550.659 402.213 577.131C402.213 603.603 423.751 625.058 450.315 625.058C462.3 625.058 473.255 620.679 481.683 613.449C475.214 617.525 467.558 619.89 459.344 619.89" fill="white"/>
<path d="M473.741 543.133C483.809 549.009 490.579 559.896 490.579 572.36C490.579 591.056 475.367 606.208 456.607 606.213C439.15 606.213 424.776 593.093 422.86 576.212C422.827 576.877 422.803 577.542 422.803 578.212C422.803 598.922 439.655 615.708 460.436 615.708C481.216 615.708 498.068 598.917 498.068 578.212C498.068 562.171 487.957 548.491 473.741 543.133Z" fill="white"/>
<path d="M455.598 545.727C442.97 545.727 432.306 554.096 428.878 565.572C432.706 557.06 441.282 551.132 451.251 551.132C464.79 551.132 475.764 562.067 475.764 575.557C475.764 589.047 464.79 599.981 451.251 599.981C449.039 599.981 446.893 599.682 444.853 599.136C448.157 600.513 451.789 601.273 455.598 601.278C470.997 601.278 483.473 588.838 483.473 573.5C483.473 558.157 470.992 545.727 455.598 545.727Z" fill="white"/>
</g>
<path d="M715.939 550.117C724.825 550.117 732.027 557.321 732.027 566.206V588.729C732.027 597.615 724.825 604.818 715.939 604.818H593.667C584.782 604.818 577.578 597.615 577.578 588.729V566.206C577.578 557.321 584.782 550.117 593.667 550.117H715.939ZM604.434 563.232V590.338H617.06C619.891 590.338 622.092 589.682 623.662 588.369C625.258 587.031 626.057 585.228 626.057 582.963C626.057 581.393 625.58 580.003 624.628 578.793C623.675 577.557 622.414 576.772 620.844 576.438C622.234 576.026 623.34 575.292 624.164 574.237C625.014 573.182 625.438 571.856 625.438 570.26C625.438 568.097 624.653 566.385 623.083 565.124C621.539 563.863 619.389 563.232 616.635 563.232H604.434ZM634.52 563.232V590.338H641.122V574.044L647.223 590.338H652.552L658.613 574.082V590.338H665.217V563.232H657.455L649.926 581.998L642.319 563.232H634.52ZM674.598 563.232V590.338H681.201V580.607H685.294C687.507 580.607 689.361 580.209 690.854 579.411C692.347 578.613 693.454 577.57 694.175 576.283C694.895 574.971 695.256 573.529 695.256 571.959C695.256 570.26 694.882 568.754 694.136 567.441C693.389 566.129 692.269 565.099 690.776 564.353C689.283 563.606 687.456 563.232 685.294 563.232H674.598ZM615.824 579.024C616.931 579.024 617.793 579.295 618.411 579.836C619.055 580.377 619.377 581.123 619.377 582.075C619.377 583.028 619.068 583.762 618.45 584.276C617.858 584.765 617.008 585.01 615.901 585.01H611.036V579.024H615.824ZM684.792 568.561C686.053 568.561 686.993 568.857 687.61 569.449C688.228 570.041 688.537 570.878 688.537 571.959C688.537 573.04 688.228 573.877 687.61 574.469C686.993 575.061 686.053 575.356 684.792 575.356H681.201V568.561H684.792ZM615.361 568.522C616.442 568.523 617.266 568.767 617.832 569.256C618.424 569.745 618.72 570.453 618.72 571.38C618.72 572.306 618.424 573.014 617.832 573.503C617.266 573.966 616.442 574.198 615.361 574.198H611.036V568.522H615.361ZM702.421 561.379C700.42 561.379 698.551 562.446 697.403 564.202C697.191 564.6 696.948 565.107 696.816 565.612C696.684 566.117 696.631 565.666 696.631 567.13C696.631 568.594 697.218 570.007 698.284 571.07C698.844 571.602 699.486 572.032 700.181 572.349C700.875 572.665 701.648 572.8 702.396 572.8C703.145 572.8 703.865 572.639 704.56 572.373C705.308 572.08 705.896 571.68 706.456 571.121C707.016 570.616 707.444 569.977 707.711 569.284C708.271 567.901 708.271 566.329 707.711 564.919C707.417 564.226 707.016 563.587 706.51 563.082C705.535 562.034 704.184 561.454 702.721 561.386L702.421 561.379ZM702.456 562.338C703.07 562.338 703.711 562.499 704.298 562.657C704.912 562.896 705.422 563.27 705.874 563.721C706.302 564.148 706.65 564.654 706.89 565.239C707.183 565.852 707.264 566.491 707.264 567.13C707.264 567.769 707.129 568.355 706.89 568.913C706.647 569.525 706.356 570.004 705.874 570.431C705.392 570.858 704.885 571.204 704.298 571.443C703.765 571.682 703.151 571.817 702.51 571.817C701.869 571.817 701.228 571.682 700.668 571.443C700.054 571.204 699.544 570.831 699.092 570.38C697.702 569.048 697.328 566.971 698.077 565.241C698.317 564.683 698.688 564.124 699.144 563.67C699.599 563.216 700.105 562.896 700.665 562.657C701.132 562.448 701.701 562.361 702.229 562.342L702.456 562.338ZM702.562 563.828H700.104V570.213H701.627V567.605H702.399L703.601 570.159H705.309L703.895 567.312C704.269 567.232 704.644 567.046 704.91 566.727C705.15 566.434 705.284 566.222 705.284 565.663C705.284 565.104 705.041 564.6 704.589 564.28C703.975 563.91 703.256 563.774 702.562 563.828ZM702.321 564.761C702.693 564.734 703.067 564.815 703.388 565C703.627 565.188 703.709 565.48 703.709 565.746C703.709 566.012 703.627 566.305 703.388 566.439C703.067 566.625 702.693 566.732 702.373 566.679H701.6V564.841L702.321 564.761ZM700.078 563.823V563.828H700.104V563.823H700.078Z" fill="white"/>
<defs>
<clipPath id="clip0_1282_1334">
<rect width="490.2" height="490.2" fill="white" transform="translate(121)"/>
</clipPath>
<clipPath id="clip1_1282_1334">
<rect width="594.014" height="95.8553" fill="white" transform="translate(0 529.203)"/>
</clipPath>
</defs>
</svg>
