<svg width="1165" height="263" viewBox="0 0 1165 263" fill="none" xmlns="http://www.w3.org/2000/svg">
<path d="M104.786 87.9206C114.812 90.0594 122.867 95.0776 128.948 102.975C135.03 110.708 138.071 119.592 138.071 129.629C138.071 144.107 132.975 155.624 122.784 164.18C112.758 172.571 98.7042 176.766 80.6235 176.766H0V3.51732H77.9114C95.499 3.51732 109.224 7.54827 119.086 15.6102C129.113 23.6721 134.126 34.6132 134.126 48.4337C134.126 58.6344 131.414 67.1077 125.99 73.8533C120.73 80.599 113.662 85.2881 104.786 87.9206ZM42.1609 73.6066H69.7751C76.6786 73.6066 81.9385 72.1258 85.5546 69.1643C89.3351 66.0382 91.2254 61.5137 91.2254 55.5907C91.2254 49.6676 89.3351 45.1431 85.5546 42.017C81.9385 38.891 76.6786 37.328 69.7751 37.328H42.1609V73.6066ZM73.2269 142.709C80.2948 142.709 85.719 141.146 89.4995 138.02C93.4444 134.729 95.4168 130.04 95.4168 123.952C95.4168 117.865 93.3622 113.093 89.253 109.638C85.3081 106.183 79.8017 104.456 72.7338 104.456H42.1609V142.709H73.2269Z" fill="#303446"/>
<path d="M424.103 176.766L388.846 123.706L357.78 176.766H309.948L365.423 88.6609L308.715 3.51732H357.78L392.544 55.8375L423.117 3.51732H470.949L415.967 90.8821L473.168 176.766H424.103Z" fill="#303446"/>
<path d="M536.494 144.189H591.722V176.766H494.333V3.51732H536.494V144.189Z" fill="#303446"/>
<path d="M719.576 146.164H654.979L644.624 176.766H600.49L663.115 3.51732H711.933L774.558 176.766H729.932L719.576 146.164ZM708.728 113.587L687.278 50.1612L666.074 113.587H708.728Z" fill="#303446"/>
<path d="M948.455 176.766H906.294L835.779 69.9047V176.766H793.618V3.51732H835.779L906.294 110.872V3.51732H948.455V176.766Z" fill="#303446"/>
<path d="M1093.91 58.3054C1090.79 52.5469 1086.27 48.1869 1080.35 45.2253C1074.6 42.0993 1067.78 40.5363 1059.89 40.5363C1046.24 40.5363 1035.31 45.0608 1027.09 54.1099C1018.88 62.9945 1014.77 74.9228 1014.77 89.8949C1014.77 105.854 1019.04 118.358 1027.59 127.407C1036.3 136.292 1048.22 140.734 1063.34 140.734C1073.69 140.734 1082.4 138.102 1089.47 132.837C1096.7 127.572 1101.96 120.004 1105.25 110.132H1051.75V79.036H1143.47V118.276C1140.34 128.806 1135 138.595 1127.44 147.644C1120.05 156.694 1110.59 164.015 1099.09 169.609C1087.58 175.203 1074.6 178 1060.13 178C1043.04 178 1027.75 174.298 1014.27 166.894C1000.96 159.326 990.522 148.878 982.961 135.552C975.564 122.225 971.866 107.006 971.866 89.8949C971.866 72.7839 975.564 57.565 982.961 44.2382C990.522 30.7468 1000.96 20.2992 1014.27 12.8955C1027.59 5.32713 1042.79 1.54297 1059.89 1.54297C1080.6 1.54297 1098.02 6.5611 1112.16 16.5973C1126.46 26.6336 1135.91 40.5363 1140.51 58.3054H1093.91Z" fill="#303446"/>
<path d="M210.691 26.7269L226.849 13.3228L226.865 13.3066L226.898 13.3309C227.47 13.4198 228.034 13.5086 228.606 13.6137C263.315 20.449 285.79 53.8341 278.867 88.0917C272.019 122.058 238.846 144.164 204.562 137.951C211.958 136.295 219.068 132.934 225.28 127.787C246.095 110.513 248.817 79.8262 231.344 59.2474C221.332 47.4512 206.858 41.5449 192.409 41.8924L210.7 26.7188L210.691 26.7269Z" fill="url(#paint0_linear_704_467)"/>
<path d="M155.21 148.874C151.989 144.811 152.493 138.745 156.329 135.332C160.165 131.919 165.891 132.453 169.113 136.517C172.334 140.58 171.83 146.646 167.994 150.059C164.158 153.472 158.432 152.938 155.21 148.874Z" fill="url(#paint1_linear_704_467)"/>
<path d="M245.796 175.678C216.398 181.432 187.479 172.785 166.7 154.744C167.913 154.237 169.076 153.562 170.132 152.686C172.309 150.902 173.778 148.604 174.495 146.129C179.048 148.676 183.857 150.846 188.922 152.534C232.178 167.023 279.253 144.578 294.076 102.445C308.948 60.3031 285.91 14.4409 242.662 0C280.325 6.04317 310.177 34.1295 317.626 70.5251C327.59 118.895 295.445 165.954 245.796 175.67V175.678Z" fill="url(#paint2_linear_704_467)"/>
<path d="M1155.53 0C1157.97 0 1160.24 0.90661 1161.85 2.63663C1162.63 3.41847 1163.25 4.40823 1163.71 5.48117C1164.58 7.6645 1164.58 10.0973 1163.71 12.2391C1163.3 13.312 1162.63 14.3018 1161.76 15.0836C1160.9 15.9487 1159.99 16.5683 1158.83 17.0216C1157.75 17.4333 1156.64 17.6828 1155.48 17.6828C1154.32 17.6828 1153.12 17.4749 1152.05 16.9842C1150.97 16.4934 1149.98 15.8281 1149.11 15.0046C1147.46 13.3578 1146.55 11.1703 1146.55 8.90378C1146.55 6.63729 1146.64 7.33597 1146.84 6.55413C1147.04 5.77229 1147.42 4.9863 1147.75 4.37081C1149.53 1.65101 1152.42 0 1155.52 0M1155.57 1.48466C1154.66 1.48466 1153.62 1.60942 1152.8 1.97955C1151.93 2.34967 1151.15 2.84454 1150.44 3.54736C1149.74 4.25019 1149.16 5.11521 1148.79 5.98022C1147.63 8.65843 1148.21 11.8731 1150.36 13.9358C1151.06 14.6345 1151.85 15.2125 1152.8 15.5827C1153.67 15.9528 1154.66 16.1607 1155.66 16.1607C1156.65 16.1607 1157.6 15.9528 1158.42 15.5827C1159.33 15.2125 1160.12 14.6761 1160.86 14.0149C1161.61 13.3536 1162.06 12.6134 1162.44 11.6652C1162.81 10.8002 1163.02 9.89356 1163.02 8.90378C1163.02 7.91401 1162.89 6.92425 1162.44 5.97606C1162.07 5.06946 1161.53 4.28762 1160.86 3.62638C1160.16 2.92772 1159.38 2.34967 1158.42 1.97955C1157.52 1.73419 1156.52 1.48466 1155.57 1.48466M1151.89 3.79274H1155.74C1156.81 3.70957 1157.92 3.9175 1158.87 4.4914C1159.58 4.98629 1159.95 5.76813 1159.95 6.63314C1159.95 7.49816 1159.74 7.82668 1159.37 8.27998C1158.96 8.77486 1158.38 9.06184 1157.8 9.1866L1159.99 13.5948H1157.34L1155.48 9.63988H1154.29V13.678H1151.93V3.78441H1151.89V3.79274ZM1154.25 5.36058V8.20512H1155.44C1155.94 8.2883 1156.52 8.12197 1157.02 7.83502C1157.39 7.62708 1157.51 7.17378 1157.51 6.76206C1157.51 6.35035 1157.39 5.89704 1157.02 5.60593C1156.52 5.31898 1155.94 5.19424 1155.36 5.23582L1154.25 5.36058Z" fill="#303446"/>
<path d="M1117.03 183C1131.39 183 1143.03 194.641 1143.03 209V237C1143.03 251.359 1131.39 263 1117.03 263H676.001C661.642 263 650.001 251.359 650.001 237V209C650.001 194.641 661.642 183 676.001 183H1117.03Z" fill="url(#paint3_linear_704_467)"/>
<path d="M727.787 238.977H709.46L706.522 247.648H694.001L711.768 198.557H725.618L743.385 247.648H730.725L727.787 238.977ZM724.709 229.746L718.623 211.774L712.608 229.746H724.709Z" fill="#303446"/>
<path d="M755.158 223.033C755.158 218.184 756.208 213.872 758.306 210.096C760.405 206.273 763.319 203.313 767.05 201.215C770.827 199.07 775.094 197.998 779.851 197.998C785.68 197.998 790.67 199.537 794.82 202.613C798.97 205.69 801.745 209.886 803.144 215.201H789.993C789.014 213.15 787.615 211.588 785.796 210.515C784.024 209.443 781.996 208.907 779.711 208.907C776.027 208.907 773.042 210.189 770.757 212.753C768.472 215.317 767.33 218.744 767.33 223.033C767.33 227.322 768.472 230.749 770.757 233.313C773.042 235.877 776.027 237.159 779.711 237.159C781.996 237.159 784.024 236.623 785.796 235.55C787.615 234.478 789.014 232.916 789.993 230.865H803.144C801.745 236.18 798.97 240.376 794.82 243.452C790.67 246.483 785.68 247.998 779.851 247.998C775.094 247.998 770.827 246.949 767.05 244.851C763.319 242.706 760.405 239.746 758.306 235.97C756.208 232.194 755.158 227.881 755.158 223.033Z" fill="#303446"/>
<path d="M849.431 238.977H831.104L828.166 247.648H815.645L833.412 198.557H847.262L865.03 247.648H852.369L849.431 238.977ZM846.353 229.746L840.268 211.774L834.252 229.746H846.353Z" fill="#303446"/>
<path d="M897.228 198.557C902.404 198.557 906.928 199.583 910.798 201.634C914.669 203.686 917.653 206.576 919.752 210.306C921.897 213.989 922.969 218.254 922.969 223.103C922.969 227.905 921.897 232.17 919.752 235.9C917.653 239.63 914.645 242.52 910.728 244.571C906.858 246.623 902.358 247.648 897.228 247.648H878.831V198.557H897.228ZM896.458 237.299C900.982 237.299 904.503 236.063 907.021 233.592C909.539 231.121 910.798 227.625 910.798 223.103C910.798 218.581 909.539 215.061 907.021 212.543C904.503 210.026 900.982 208.767 896.458 208.767H890.793V237.299H896.458Z" fill="#303446"/>
<path d="M950.009 208.138V218.068H966.028V227.299H950.009V238.068H968.126V247.648H938.048V198.557H968.126V208.138H950.009Z" fill="#303446"/>
<path d="M1039.9 198.557V247.648H1027.93V218.208L1016.95 247.648H1007.3L996.247 218.138V247.648H984.286V198.557H998.416L1012.2 232.543L1025.84 198.557H1039.9Z" fill="#303446"/>
<path d="M1099 198.557L1082 231.424V247.648H1070.04V231.424L1053.04 198.557H1066.61L1076.13 219.117L1085.57 198.557H1099Z" fill="#303446"/>
<defs>
<linearGradient id="paint0_linear_704_467" x1="192.409" y1="76.1515" x2="280.12" y2="76.1515" gradientUnits="userSpaceOnUse">
<stop stop-color="#00DBFF"/>
<stop offset="1" stop-color="#00FF75"/>
</linearGradient>
<linearGradient id="paint1_linear_704_467" x1="153.088" y1="142.696" x2="171.235" y2="142.696" gradientUnits="userSpaceOnUse">
<stop stop-color="#00DBFF"/>
<stop offset="1" stop-color="#00FF75"/>
</linearGradient>
<linearGradient id="paint2_linear_704_467" x1="166.7" y1="88.7221" x2="319.437" y2="88.7221" gradientUnits="userSpaceOnUse">
<stop stop-color="#00DBFF"/>
<stop offset="1" stop-color="#00FF75"/>
</linearGradient>
<linearGradient id="paint3_linear_704_467" x1="650.001" y1="223" x2="1143.03" y2="223" gradientUnits="userSpaceOnUse">
<stop stop-color="#00DBFF"/>
<stop offset="1" stop-color="#00FF75"/>
</linearGradient>
</defs>
</svg>
