<svg width="1165" height="263" viewBox="0 0 1165 263" fill="none" xmlns="http://www.w3.org/2000/svg">
<path d="M104.786 87.9199C114.812 90.0588 122.867 95.0768 128.948 102.974C135.03 110.707 138.071 119.591 138.071 129.628C138.071 144.106 132.975 155.623 122.784 164.178C112.758 172.569 98.7042 176.765 80.6235 176.765H0V3.5173H77.9114C95.499 3.5173 109.224 7.54822 119.086 15.6101C129.113 23.6719 134.126 34.613 134.126 48.4333C134.126 58.634 131.414 67.1072 125.99 73.8528C120.73 80.5984 113.662 85.2875 104.786 87.9199ZM42.1609 73.606H69.7751C76.6786 73.606 81.9385 72.1253 85.5546 69.1638C89.3351 66.0377 91.2254 61.5132 91.2254 55.5902C91.2254 49.6673 89.3351 45.1427 85.5546 42.0167C81.9385 38.8907 76.6786 37.3277 69.7751 37.3277H42.1609V73.606ZM73.2269 142.708C80.2948 142.708 85.719 141.145 89.4995 138.019C93.4444 134.728 95.4168 130.039 95.4168 123.951C95.4168 117.864 93.3622 113.093 89.2529 109.638C85.308 106.182 79.8017 104.455 72.7337 104.455H42.1609V142.708H73.2269Z" fill="white"/>
<path d="M424.103 176.765L388.846 123.705L357.78 176.765H309.948L365.423 88.6603L308.715 3.5173H357.78L392.544 55.837L423.117 3.5173H470.948L415.967 90.8814L473.167 176.765H424.103Z" fill="white"/>
<path d="M536.494 144.188H591.722V176.765H494.333V3.5173H536.494V144.188Z" fill="white"/>
<path d="M719.576 146.163H654.979L644.623 176.765H600.49L663.115 3.5173H711.933L774.558 176.765H729.931L719.576 146.163ZM708.728 113.586L687.277 50.1608L666.074 113.586H708.728Z" fill="white"/>
<path d="M948.454 176.765H906.293L835.779 69.9041V176.765H793.618V3.5173H835.779L906.293 110.871V3.5173H948.454V176.765Z" fill="white"/>
<path d="M1093.91 58.3049C1090.79 52.5465 1086.27 48.1865 1080.35 45.225C1074.6 42.099 1067.78 40.536 1059.89 40.536C1046.24 40.536 1035.31 45.0605 1027.09 54.1095C1018.88 62.994 1014.77 74.9222 1014.77 89.8942C1014.77 105.853 1019.04 118.357 1027.59 127.406C1036.3 136.291 1048.22 140.733 1063.34 140.733C1073.69 140.733 1082.4 138.101 1089.47 132.836C1096.7 127.571 1101.96 120.003 1105.25 110.131H1051.75V79.0354H1143.47V118.275C1140.34 128.805 1135 138.594 1127.44 147.643C1120.04 156.692 1110.59 164.014 1099.09 169.608C1087.58 175.202 1074.6 177.999 1060.13 177.999C1043.04 177.999 1027.75 174.297 1014.27 166.893C1000.96 159.325 990.521 148.877 982.96 135.551C975.564 122.224 971.865 107.005 971.865 89.8942C971.865 72.7834 975.564 57.5646 982.96 44.2379C990.521 30.7466 1000.96 20.2991 1014.27 12.8954C1027.59 5.3271 1042.79 1.54297 1059.89 1.54297C1080.6 1.54297 1098.02 6.56106 1112.16 16.5972C1126.46 26.6334 1135.91 40.536 1140.51 58.3049H1093.91Z" fill="white"/>
<path d="M210.691 26.7268L226.848 13.3228L226.865 13.3066L226.897 13.3309C227.469 13.4198 228.033 13.5086 228.605 13.6137C263.314 20.449 285.789 53.8338 278.867 88.0911C272.018 122.058 238.846 144.163 204.561 137.95C211.958 136.294 219.068 132.933 225.279 127.786C246.095 110.512 248.816 79.8257 231.343 59.2471C221.332 47.4509 206.858 41.5447 192.409 41.8921L210.699 26.7187L210.691 26.7268Z" fill="white"/>
<path d="M155.211 148.872C151.989 144.809 152.493 138.743 156.329 135.33C160.165 131.917 165.892 132.451 169.113 136.515C172.335 140.578 171.831 146.644 167.995 150.057C164.159 153.47 158.432 152.936 155.211 148.872Z" fill="white"/>
<path d="M245.796 175.677C216.398 181.43 187.478 172.784 166.7 154.743C167.912 154.236 169.075 153.561 170.131 152.685C172.309 150.901 173.777 148.603 174.495 146.128C179.048 148.675 183.857 150.845 188.922 152.533C232.177 167.022 279.252 144.577 294.075 102.444C308.948 60.3027 285.909 14.4408 242.661 0C280.325 6.04312 310.177 34.1292 317.625 70.5245C327.59 118.894 295.445 165.953 245.796 175.668V175.677Z" fill="white"/>
<path d="M1155.53 0C1157.97 0 1160.24 0.906603 1161.85 2.63661C1162.63 3.41844 1163.25 4.40819 1163.71 5.48113C1164.58 7.66444 1164.58 10.0973 1163.71 12.239C1163.3 13.3119 1162.63 14.3017 1161.76 15.0835C1160.9 15.9485 1159.99 16.5682 1158.83 17.0215C1157.75 17.4332 1156.64 17.6827 1155.48 17.6827C1154.32 17.6827 1153.12 17.4748 1152.05 16.984C1150.97 16.4933 1149.98 15.8279 1149.11 15.0045C1147.46 13.3577 1146.55 11.1702 1146.55 8.90372C1146.55 6.63724 1146.64 7.33591 1146.84 6.55408C1147.04 5.77225 1147.42 4.98626 1147.75 4.37077C1149.53 1.651 1152.42 0 1155.52 0M1155.57 1.48465C1154.66 1.48465 1153.62 1.60941 1152.8 1.97953C1151.93 2.34966 1151.15 2.84452 1150.44 3.54734C1149.74 4.25015 1149.16 5.11517 1148.79 5.98018C1147.63 8.65837 1148.21 11.873 1150.36 13.9357C1151.06 14.6344 1151.85 15.2124 1152.8 15.5825C1153.67 15.9527 1154.66 16.1606 1155.66 16.1606C1156.65 16.1606 1157.6 15.9527 1158.42 15.5825C1159.33 15.2124 1160.12 14.676 1160.86 14.0147C1161.61 13.3535 1162.06 12.6133 1162.44 11.6651C1162.81 10.8001 1163.02 9.89348 1163.02 8.90372C1163.02 7.91395 1162.89 6.92419 1162.44 5.97602C1162.07 5.06942 1161.53 4.28758 1160.86 3.62635C1160.16 2.9277 1159.38 2.34966 1158.42 1.97953C1157.52 1.73417 1156.52 1.48465 1155.57 1.48465M1151.89 3.79271H1155.74C1156.81 3.70954 1157.92 3.91747 1158.87 4.49137C1159.58 4.98625 1159.95 5.76809 1159.95 6.63309C1159.95 7.4981 1159.74 7.82662 1159.37 8.27991C1158.96 8.7748 1158.38 9.06177 1157.8 9.18653L1159.99 13.5947H1157.34L1155.48 9.63981H1154.29V13.6779H1151.93V3.78439H1151.89V3.79271ZM1154.25 5.36054V8.20506H1155.44C1155.94 8.28823 1156.52 8.12191 1157.02 7.83496C1157.39 7.62702 1157.51 7.17372 1157.51 6.76201C1157.51 6.3503 1157.39 5.89699 1157.02 5.60589C1156.52 5.31894 1155.94 5.1942 1155.36 5.23578L1154.25 5.36054Z" fill="white"/>
<path d="M724.708 229.747H712.607L718.623 211.774L724.708 229.747Z" fill="white"/>
<path d="M846.353 229.747H834.251L840.267 211.774L846.353 229.747Z" fill="white"/>
<path d="M896.458 208.767C900.981 208.768 904.502 210.027 907.02 212.544C909.538 215.061 910.797 218.581 910.797 223.103C910.797 227.625 909.538 231.122 907.02 233.593C904.502 236.064 900.981 237.299 896.458 237.299H890.791V208.767H896.458Z" fill="white"/>
<path fill-rule="evenodd" clip-rule="evenodd" d="M1117.03 183.002C1131.39 183.002 1143.03 194.643 1143.03 209.002V237.001C1143.03 251.36 1131.39 263.001 1117.03 263.001H676C661.641 263.001 650 251.36 650 237.001V209.002C650 194.643 661.641 183.002 676 183.002H1117.03ZM779.849 197.999C775.093 197.999 770.826 199.071 767.049 201.216C763.319 203.314 760.404 206.274 758.306 210.096C756.207 213.872 755.158 218.185 755.158 223.033C755.158 227.882 756.207 232.194 758.306 235.97C760.404 239.747 763.319 242.707 767.049 244.851C770.826 246.949 775.093 247.998 779.849 247.998C785.678 247.998 790.669 246.483 794.819 243.453C798.969 240.376 801.744 236.18 803.143 230.865H789.993C789.014 232.917 787.614 234.479 785.795 235.551C784.023 236.623 781.995 237.159 779.71 237.159C776.026 237.159 773.042 235.877 770.757 233.313C768.472 230.749 767.328 227.322 767.328 223.033C767.328 218.744 768.472 215.318 770.757 212.754C773.042 210.19 776.026 208.908 779.71 208.908C781.995 208.908 784.023 209.444 785.795 210.517C787.614 211.589 789.014 213.15 789.993 215.201H803.143C801.744 209.887 798.969 205.691 794.819 202.614C790.669 199.537 785.678 197.999 779.849 197.999ZM711.768 198.558L694 247.649H706.521L709.459 238.977H727.786L730.724 247.649H743.385L725.617 198.558H711.768ZM833.411 198.558L815.644 247.649H828.165L831.103 238.977H849.43L852.367 247.649H865.029L847.261 198.558H833.411ZM878.831 198.558V247.649H897.227C902.357 247.649 906.857 246.623 910.727 244.572C914.644 242.521 917.652 239.63 919.751 235.9C921.896 232.171 922.969 227.905 922.969 223.103C922.969 218.255 921.896 213.989 919.751 210.306C917.652 206.577 914.668 203.686 910.797 201.635C906.927 199.584 902.404 198.558 897.227 198.558H878.831ZM938.047 198.558V247.649H968.125V238.068H950.009V227.299H966.027V218.068H950.009V208.138H968.125V198.558H938.047ZM984.285 198.558V247.649H996.246V218.138L1007.3 247.649H1016.95L1027.93 218.208V247.649H1039.9V198.558H1025.84L1012.19 232.544L998.415 198.558H984.285ZM1053.04 198.558L1070.04 231.425V247.649H1082V231.425L1099 198.558H1085.57L1076.13 219.117L1066.61 198.558H1053.04Z" fill="white"/>
</svg>
