<svg width="319" height="72" viewBox="0 0 319 72" fill="none" xmlns="http://www.w3.org/2000/svg">
<path d="M28.6866 24.0709C31.4315 24.6565 33.6365 26.0303 35.3014 28.1923C36.9664 30.3093 37.7989 32.7415 37.7989 35.4891C37.7989 39.4528 36.4039 42.6058 33.614 44.9479C30.8691 47.2451 27.0217 48.3937 22.0718 48.3937H0V0.964334H21.3294C26.1442 0.964334 29.9016 2.06786 32.6015 4.27493C35.3464 6.48199 36.7189 9.47729 36.7189 13.2608C36.7189 16.0534 35.9764 18.3731 34.4914 20.2198C33.0515 22.0666 31.1165 23.3503 28.6866 24.0709ZM11.5421 20.1523H19.1019C20.9919 20.1523 22.4318 19.7469 23.4218 18.9361C24.4568 18.0803 24.9742 16.8417 24.9742 15.2202C24.9742 13.5986 24.4568 12.36 23.4218 11.5042C22.4318 10.6484 20.9919 10.2205 19.1019 10.2205H11.5421V20.1523ZM20.0469 39.0699C21.9818 39.0699 23.4668 38.642 24.5018 37.7862C25.5817 36.8854 26.1217 35.6017 26.1217 33.9351C26.1217 32.2686 25.5592 30.9624 24.4343 30.0165C23.3543 29.0706 21.8468 28.5977 19.9119 28.5977H11.5421V39.0699H20.0469Z" fill="white"/>
<path d="M116.104 48.3937L106.452 33.8676L97.9473 48.3937H84.8527L100.04 24.2736L84.5152 0.964334H97.9473L107.464 15.2877L115.834 0.964334H128.929L113.877 24.8817L129.536 48.3937H116.104Z" fill="white"/>
<path d="M146.873 39.4753H161.992V48.3937H135.331V0.964334H146.873V39.4753Z" fill="white"/>
<path d="M196.994 40.0158H179.31L176.475 48.3937H164.393L181.537 0.964334H194.902L212.046 48.3937H199.829L196.994 40.0158ZM194.024 31.0975L188.152 13.7338L182.347 31.0975H194.024Z" fill="white"/>
<path d="M259.653 48.3937H248.111L228.806 19.1388V48.3937H217.264V0.964334H228.806L248.111 30.3543V0.964334H259.653V48.3937Z" fill="white"/>
<path d="M299.473 15.9634C298.618 14.3869 297.381 13.1933 295.761 12.3825C294.186 11.5267 292.319 11.0988 290.159 11.0988C286.424 11.0988 283.431 12.3375 281.182 14.8148C278.932 17.2471 277.807 20.5126 277.807 24.6114C277.807 28.9805 278.977 32.4037 281.316 34.881C283.701 37.3133 286.964 38.5294 291.104 38.5294C293.939 38.5294 296.324 37.8088 298.258 36.3674C300.238 34.9261 301.678 32.8541 302.578 30.1516H287.931V21.6387H313.041V32.3812C312.186 35.2639 310.723 37.9439 308.653 40.4212C306.628 42.8985 304.041 44.9029 300.891 46.4343C297.741 47.9658 294.186 48.7315 290.226 48.7315C285.546 48.7315 281.361 47.718 277.672 45.6911C274.027 43.6192 271.169 40.759 269.099 37.1106C267.074 33.4622 266.062 29.2958 266.062 24.6114C266.062 19.9271 267.074 15.7607 269.099 12.1123C271.169 8.4188 274.027 5.55863 277.672 3.53173C281.316 1.4598 285.479 0.423828 290.159 0.423828C295.829 0.423828 300.598 1.79761 304.468 4.54518C308.383 7.29275 310.971 11.0988 312.231 15.9634H299.473Z" fill="white"/>
<path d="M57.6798 7.31657L62.1031 3.647L62.1076 3.64258L62.1165 3.64921C62.2731 3.67354 62.4275 3.69788 62.5841 3.72663C72.0863 5.59791 78.239 14.7375 76.344 24.1161C74.4691 33.4149 65.3876 39.4667 56.0018 37.7658C58.0266 37.3123 59.9731 36.3922 61.6735 34.9832C67.3721 30.2541 68.1172 21.8533 63.3337 16.2195C60.5929 12.9901 56.6305 11.3732 52.6748 11.4683L57.682 7.31436L57.6798 7.31657Z" fill="url(#paint0_linear_708_1781)"/>
<path d="M42.4912 40.7564C41.6092 39.644 41.7472 37.9833 42.7974 37.049C43.8475 36.1148 45.4152 36.261 46.2972 37.3734C47.1791 38.4858 47.0411 40.1465 45.9909 41.0808C44.9408 42.015 43.3731 41.8688 42.4912 40.7564Z" fill="url(#paint1_linear_708_1781)"/>
<path d="M67.2904 48.0943C59.2423 49.6695 51.3251 47.3023 45.6367 42.3633C45.9687 42.2247 46.2871 42.0399 46.5761 41.8001C47.1723 41.3117 47.5742 40.6825 47.7707 40.0049C49.0172 40.7023 50.3337 41.2963 51.7203 41.7583C63.5622 45.7249 76.4496 39.5803 80.5076 28.0457C84.5791 16.5088 78.272 3.95341 66.4323 0C76.7432 1.6544 84.9156 9.34342 86.9547 19.3073C89.6826 32.5491 80.8825 45.4323 67.2904 48.0921V48.0943Z" fill="url(#paint2_linear_708_1781)"/>
<path d="M316.341 0C317.009 0 317.631 0.248197 318.072 0.721816C318.287 0.935855 318.457 1.20682 318.581 1.50055C318.819 2.09827 318.819 2.76429 318.581 3.35062C318.468 3.64436 318.287 3.91532 318.049 4.12936C317.812 4.36617 317.563 4.53581 317.246 4.6599C316.951 4.77262 316.646 4.84093 316.329 4.84093C316.012 4.84093 315.684 4.784 315.389 4.64966C315.095 4.51532 314.823 4.33315 314.586 4.10773C314.134 3.65688 313.885 3.05802 313.885 2.43754C313.885 1.81705 313.908 2.00833 313.964 1.79429C314.019 1.58025 314.122 1.36507 314.212 1.19657C314.699 0.451988 315.491 0 316.339 0M316.353 0.406447C316.104 0.406447 315.821 0.440603 315.595 0.54193C315.357 0.643257 315.143 0.778734 314.95 0.971142C314.757 1.16355 314.599 1.40036 314.498 1.63717C314.18 2.37037 314.339 3.25043 314.928 3.81513C315.12 4.0064 315.336 4.16465 315.596 4.26598C315.833 4.3673 316.105 4.42423 316.377 4.42423C316.649 4.42423 316.909 4.3673 317.135 4.26598C317.384 4.16465 317.598 4.01779 317.803 3.83677C318.007 3.65574 318.13 3.45309 318.233 3.19351C318.335 2.9567 318.392 2.7085 318.392 2.43754C318.392 2.16657 318.358 1.89561 318.233 1.63603C318.131 1.38784 317.984 1.1738 317.803 0.992774C317.611 0.801505 317.395 0.643257 317.135 0.54193C316.886 0.474758 316.614 0.406447 316.354 0.406447M315.346 1.03832H316.399C316.693 1.01555 316.998 1.07247 317.258 1.22958C317.45 1.36507 317.553 1.57911 317.553 1.81592C317.553 2.05273 317.496 2.14266 317.394 2.26676C317.281 2.40224 317.122 2.48081 316.964 2.51496L317.563 3.72178H316.839L316.33 2.63906H316.002V3.74455H315.357V1.03604H315.346V1.03832ZM315.991 1.46754V2.24627H316.319C316.454 2.26904 316.613 2.2235 316.749 2.14495C316.851 2.08802 316.885 1.96392 316.885 1.85121C316.885 1.7385 316.851 1.6144 316.749 1.5347C316.613 1.45615 316.454 1.422 316.297 1.43338L315.991 1.46754Z" fill="white"/>
<path d="M305.804 50.0977C309.735 50.0977 312.922 53.2848 312.922 57.2158V64.8809C312.922 68.8119 309.735 71.9989 305.804 71.999H185.065C181.134 71.999 177.947 68.8119 177.947 64.8809V57.2158C177.947 53.2847 181.134 50.0977 185.065 50.0977H305.804Z" fill="url(#paint3_linear_708_1781)"/>
<path d="M199.242 65.4236H194.225L193.421 67.7975H189.993L194.857 54.3582H198.649L203.513 67.7975H200.047L199.242 65.4236ZM198.4 62.8966L196.734 57.9765L195.087 62.8966H198.4Z" fill="#303446"/>
<path d="M206.736 61.0587C206.736 59.7314 207.023 58.5508 207.598 57.517C208.172 56.4705 208.97 55.66 209.991 55.0857C211.025 54.4986 212.194 54.2051 213.496 54.2051C215.092 54.2051 216.458 54.6263 217.594 55.4686C218.73 56.3109 219.49 57.4596 219.873 58.9146H216.272C216.004 58.353 215.621 57.9255 215.123 57.6319C214.638 57.3384 214.083 57.1916 213.457 57.1916C212.449 57.1916 211.632 57.5426 211.006 58.2445C210.381 58.9465 210.068 59.8845 210.068 61.0587C210.068 62.2329 210.381 63.171 211.006 63.8729C211.632 64.5749 212.449 64.9259 213.457 64.9259C214.083 64.9259 214.638 64.7791 215.123 64.4856C215.621 64.192 216.004 63.7645 216.272 63.2029H219.873C219.49 64.6579 218.73 65.8065 217.594 66.6489C216.458 67.4784 215.092 67.8932 213.496 67.8932C212.194 67.8932 211.025 67.6061 209.991 67.0317C208.97 66.4447 208.172 65.6342 207.598 64.6004C207.023 63.5666 206.736 62.3861 206.736 61.0587Z" fill="#303446"/>
<path d="M232.544 65.4236H227.527L226.723 67.7975H223.295L228.159 54.3582H231.951L236.815 67.7975H233.349L232.544 65.4236ZM231.702 62.8966L230.036 57.9765L228.389 62.8966H231.702Z" fill="#303446"/>
<path d="M245.629 54.3582C247.046 54.3582 248.285 54.639 249.344 55.2006C250.404 55.7621 251.221 56.5534 251.796 57.5745C252.383 58.5827 252.677 59.7505 252.677 61.0779C252.677 62.3924 252.383 63.5603 251.796 64.5813C251.221 65.6023 250.398 66.3936 249.325 66.9552C248.266 67.5167 247.034 67.7975 245.629 67.7975H240.593V54.3582H245.629ZM245.419 64.9642C246.657 64.9642 247.621 64.6259 248.31 63.9495C249 63.2731 249.344 62.3159 249.344 61.0779C249.344 59.8399 249 58.8763 248.31 58.1871C247.621 57.4979 246.657 57.1533 245.419 57.1533H243.868V64.9642H245.419Z" fill="#303446"/>
<path d="M260.079 56.981V59.6995H264.464V62.2265H260.079V65.1748H265.039V67.7975H256.804V54.3582H265.039V56.981H260.079Z" fill="#303446"/>
<path d="M284.687 54.3582V67.7975H281.412V59.7378L278.406 67.7975H275.763L272.737 59.7186V67.7975H269.463V54.3582H273.331L277.103 63.6624L280.838 54.3582H284.687Z" fill="#303446"/>
<path d="M300.868 54.3582L296.214 63.356V67.7975H292.94V63.356L288.286 54.3582H292.001L294.606 59.9867L297.191 54.3582H300.868Z" fill="#303446"/>
<defs>
<linearGradient id="paint0_linear_708_1781" x1="52.6748" y1="20.8472" x2="76.6867" y2="20.8472" gradientUnits="userSpaceOnUse">
<stop stop-color="#00DBFF"/>
<stop offset="1" stop-color="#00FF75"/>
</linearGradient>
<linearGradient id="paint1_linear_708_1781" x1="41.9102" y1="39.0649" x2="46.8781" y2="39.0649" gradientUnits="userSpaceOnUse">
<stop stop-color="#00DBFF"/>
<stop offset="1" stop-color="#00FF75"/>
</linearGradient>
<linearGradient id="paint2_linear_708_1781" x1="45.6367" y1="24.2889" x2="87.4506" y2="24.2889" gradientUnits="userSpaceOnUse">
<stop stop-color="#00DBFF"/>
<stop offset="1" stop-color="#00FF75"/>
</linearGradient>
<linearGradient id="paint3_linear_708_1781" x1="177.947" y1="61.0483" x2="312.922" y2="61.0483" gradientUnits="userSpaceOnUse">
<stop stop-color="#00DBFF"/>
<stop offset="1" stop-color="#00FF75"/>
</linearGradient>
</defs>
</svg>
