<svg width="634" height="143" viewBox="0 0 634 143" fill="none" xmlns="http://www.w3.org/2000/svg">
<path d="M56.9748 47.8056C62.4266 48.9686 66.8058 51.6971 70.1126 55.9911C73.4194 60.1956 75.0728 65.0264 75.0728 70.4834C75.0728 78.3557 72.3022 84.6178 66.7611 89.2697C61.3094 93.8321 53.6681 96.1132 43.8371 96.1132H0V1.91335H42.3625C51.9253 1.91335 59.3879 4.10508 64.7502 8.48855C70.202 12.872 72.9278 18.821 72.9278 26.3355C72.9278 31.882 71.4532 36.4891 68.5039 40.1569C65.644 43.8247 61.801 46.3743 56.9748 47.8056ZM22.924 40.0227H37.9386C41.6922 40.0227 44.5521 39.2176 46.5183 37.6073C48.5739 35.9076 49.6016 33.4475 49.6016 30.227C49.6016 27.0065 48.5739 24.5464 46.5183 22.8467C44.5521 21.1469 41.6922 20.2971 37.9386 20.2971H22.924V40.0227ZM39.8154 77.5953C43.6584 77.5953 46.6077 76.7455 48.6632 75.0458C50.8082 73.2566 51.8806 70.707 51.8806 67.397C51.8806 64.0871 50.7635 61.4928 48.5292 59.6141C46.3842 57.7355 43.3903 56.7962 39.5473 56.7962H22.924V77.5953H39.8154Z" fill="white"/>
<path d="M230.596 96.1132L211.426 67.2628L194.534 96.1132H168.527L198.69 48.2082L167.857 1.91335H194.534L213.437 30.3612L230.06 1.91335H256.067L226.172 49.4159L257.274 96.1132H230.596Z" fill="white"/>
<path d="M291.706 78.4005H321.735V96.1132H268.782V1.91335H291.706V78.4005Z" fill="white"/>
<path d="M391.253 79.4739H356.129L350.499 96.1132H326.502L360.553 1.91335H387.097L421.148 96.1132H396.883L391.253 79.4739ZM385.354 61.7611L373.691 27.2749L362.162 61.7611H385.354Z" fill="white"/>
<path d="M515.7 96.1132H492.776L454.435 38.0099V96.1132H431.511V1.91335H454.435L492.776 60.2851V1.91335H515.7V96.1132Z" fill="white"/>
<path d="M594.788 31.7031C593.09 28.572 590.632 26.2014 587.415 24.5911C584.287 22.8914 580.578 22.0415 576.288 22.0415C568.87 22.0415 562.927 24.5016 558.458 29.4219C553.989 34.2526 551.755 40.7384 551.755 48.8791C551.755 57.5566 554.079 64.3554 558.726 69.2757C563.463 74.1064 569.942 76.5218 578.165 76.5218C583.795 76.5218 588.532 75.0905 592.375 72.2278C596.307 69.3651 599.167 65.25 600.955 59.8825H571.864V42.9748H621.734V64.3107C620.035 70.0361 617.131 75.3589 613.02 80.2791C608.998 85.1993 603.859 89.1802 597.603 92.2218C591.347 95.2634 584.287 96.7842 576.422 96.7842C567.127 96.7842 558.815 94.7714 551.487 90.7457C544.248 86.6306 538.573 80.95 534.462 73.7039C530.44 66.4577 528.429 58.1828 528.429 48.8791C528.429 39.5754 530.44 31.3005 534.462 24.0544C538.573 16.7187 544.248 11.0381 551.487 7.01249C558.726 2.89739 566.993 0.839844 576.288 0.839844C587.549 0.839844 597.022 3.56833 604.708 9.0253C612.484 14.4823 617.623 22.0415 620.125 31.7031H594.788Z" fill="white"/>
<path d="M114.559 14.5313L123.344 7.24316L123.353 7.23438L123.37 7.24755C123.682 7.29588 123.988 7.3442 124.299 7.40131C143.171 11.1179 155.392 29.2702 151.628 47.897C147.904 66.3656 129.867 78.3851 111.226 75.0068C115.247 74.1062 119.113 72.2787 122.491 69.4803C133.809 60.0878 135.288 43.4028 125.788 32.2136C120.344 25.7996 112.475 22.5883 104.618 22.7772L114.563 14.5269L114.559 14.5313Z" fill="url(#paint0_linear_708_1756)"/>
<path d="M84.3912 80.9469C82.6396 78.7375 82.9137 75.4392 84.9994 73.5837C87.0851 71.7281 90.1987 72.0185 91.9504 74.2279C93.702 76.4373 93.4279 79.7356 91.3422 81.5911C89.2565 83.4466 86.1429 83.1563 84.3912 80.9469Z" fill="url(#paint1_linear_708_1756)"/>
<path d="M133.645 95.5207C117.661 98.6492 101.936 93.9477 90.6387 84.1382C91.298 83.863 91.9304 83.4959 92.5044 83.0197C93.6885 82.0496 94.4868 80.8 94.877 79.4542C97.3527 80.8393 99.9675 82.019 102.721 82.9366C126.241 90.8148 151.837 78.6109 159.896 55.7018C167.983 32.7884 155.456 7.85191 131.941 0C152.42 3.28583 168.651 18.5571 172.701 38.3463C178.119 64.6461 160.641 90.2336 133.645 95.5163V95.5207Z" fill="url(#paint2_linear_708_1756)"/>
<path d="M628.29 0C629.617 0 630.852 0.492947 631.728 1.43361C632.154 1.85871 632.492 2.39687 632.739 2.98026C633.21 4.16739 633.21 5.49019 632.739 6.65471C632.514 7.2381 632.154 7.77627 631.682 8.20137C631.211 8.6717 630.716 9.00861 630.086 9.25508C629.501 9.47894 628.896 9.61462 628.265 9.61462C627.635 9.61462 626.984 9.50156 626.399 9.23474C625.814 8.96792 625.275 8.60613 624.803 8.15841C623.905 7.26297 623.411 6.07357 623.411 4.84122C623.411 3.60887 623.456 3.98876 623.568 3.56365C623.679 3.13855 623.883 2.71118 624.062 2.37652C625.028 0.897698 626.601 0 628.286 0M628.313 0.80725C627.819 0.80725 627.257 0.875086 626.808 1.07633C626.336 1.27758 625.91 1.54665 625.527 1.9288C625.143 2.31094 624.83 2.78128 624.629 3.2516C623.998 4.70782 624.314 6.45572 625.483 7.57728C625.864 7.95716 626.293 8.27146 626.81 8.4727C627.281 8.67395 627.821 8.78701 628.361 8.78701C628.9 8.78701 629.417 8.67395 629.866 8.4727C630.36 8.27146 630.787 7.97977 631.193 7.62024C631.598 7.26071 631.843 6.85821 632.047 6.34266C632.249 5.87233 632.363 5.37939 632.363 4.84122C632.363 4.30305 632.294 3.76489 632.047 3.24934C631.846 2.7564 631.553 2.33129 631.193 1.97176C630.812 1.59188 630.383 1.27758 629.866 1.07633C629.372 0.942922 628.832 0.80725 628.315 0.80725M626.313 2.06221H628.404C628.989 2.01699 629.594 2.13005 630.111 2.44209C630.492 2.71117 630.696 3.13629 630.696 3.60661C630.696 4.07694 630.583 4.25557 630.381 4.50204C630.156 4.77112 629.841 4.92716 629.526 4.99499L630.716 7.39186H629.279L628.268 5.24146H627.617V7.43709H626.336V2.05769H626.313V2.06221ZM627.594 2.91469V4.46134H628.245C628.515 4.50656 628.83 4.41613 629.1 4.2601C629.302 4.14704 629.37 3.90057 629.37 3.67671C629.37 3.45285 629.302 3.20638 629.1 3.04809C628.83 2.89207 628.515 2.82424 628.202 2.84686L627.594 2.91469Z" fill="white"/>
<path d="M607.359 99.502C615.167 99.502 621.497 105.831 621.497 113.639V128.863C621.497 136.671 615.167 143 607.359 143H367.561C359.753 143 353.423 136.671 353.423 128.863V113.639C353.423 105.831 359.753 99.502 367.561 99.502H607.359Z" fill="url(#paint3_linear_708_1756)"/>
<path d="M395.717 129.938H385.752L384.155 134.652H377.347L387.007 107.96H394.538L404.198 134.652H397.314L395.717 129.938ZM394.043 124.919L390.734 115.147L387.464 124.919H394.043Z" fill="#303446"/>
<path d="M410.6 121.268C410.6 118.632 411.17 116.287 412.311 114.234C413.452 112.156 415.037 110.546 417.065 109.405C419.119 108.239 421.439 107.656 424.025 107.656C427.195 107.656 429.908 108.493 432.165 110.166C434.421 111.839 435.93 114.12 436.691 117.01H429.54C429.008 115.894 428.247 115.045 427.258 114.462C426.295 113.879 425.192 113.588 423.949 113.588C421.946 113.588 420.323 114.285 419.081 115.679C417.839 117.073 417.217 118.936 417.217 121.268C417.217 123.6 417.839 125.464 419.081 126.858C420.323 128.252 421.946 128.949 423.949 128.949C425.192 128.949 426.295 128.657 427.258 128.074C428.247 127.491 429.008 126.642 429.54 125.527H436.691C435.93 128.417 434.421 130.698 432.165 132.371C429.908 134.019 427.195 134.842 424.025 134.842C421.439 134.842 419.119 134.272 417.065 133.131C415.037 131.965 413.452 130.356 412.311 128.303C411.17 126.249 410.6 123.905 410.6 121.268Z" fill="#303446"/>
<path d="M461.858 129.938H451.893L450.296 134.652H443.488L453.148 107.96H460.679L470.339 134.652H463.455L461.858 129.938ZM460.185 124.919L456.876 115.147L453.605 124.919H460.185Z" fill="#303446"/>
<path d="M487.846 107.96C490.661 107.96 493.12 108.518 495.225 109.633C497.33 110.749 498.952 112.32 500.093 114.348C501.26 116.351 501.843 118.67 501.843 121.306C501.843 123.917 501.26 126.237 500.093 128.265C498.952 130.292 497.317 131.864 495.187 132.979C493.082 134.095 490.636 134.652 487.846 134.652H477.844V107.96H487.846ZM487.428 129.025C489.888 129.025 491.802 128.353 493.171 127.01C494.54 125.666 495.225 123.765 495.225 121.306C495.225 118.848 494.54 116.934 493.171 115.565C491.802 114.196 489.888 113.512 487.428 113.512H484.347V129.025H487.428Z" fill="#303446"/>
<path d="M516.545 113.17V118.569H525.255V123.588H516.545V129.443H526.396V134.652H510.041V107.96H526.396V113.17H516.545Z" fill="#303446"/>
<path d="M565.419 107.96V134.652H558.915V118.645L552.944 134.652H547.695L541.686 118.607V134.652H535.182V107.96H542.865L550.358 126.439L557.774 107.96H565.419Z" fill="#303446"/>
<path d="M597.556 107.96L588.314 125.831V134.652H581.81V125.831L572.568 107.96H579.946L585.119 119.139L590.253 107.96H597.556Z" fill="#303446"/>
<defs>
<linearGradient id="paint0_linear_708_1756" x1="104.618" y1="41.4048" x2="152.309" y2="41.4048" gradientUnits="userSpaceOnUse">
<stop stop-color="#00DBFF"/>
<stop offset="1" stop-color="#00FF75"/>
</linearGradient>
<linearGradient id="paint1_linear_708_1756" x1="83.2373" y1="77.5874" x2="93.1043" y2="77.5874" gradientUnits="userSpaceOnUse">
<stop stop-color="#00DBFF"/>
<stop offset="1" stop-color="#00FF75"/>
</linearGradient>
<linearGradient id="paint2_linear_708_1756" x1="90.6387" y1="48.2405" x2="173.686" y2="48.2405" gradientUnits="userSpaceOnUse">
<stop stop-color="#00DBFF"/>
<stop offset="1" stop-color="#00FF75"/>
</linearGradient>
<linearGradient id="paint3_linear_708_1756" x1="353.423" y1="121.251" x2="621.497" y2="121.251" gradientUnits="userSpaceOnUse">
<stop stop-color="#00DBFF"/>
<stop offset="1" stop-color="#00FF75"/>
</linearGradient>
</defs>
</svg>
