<svg width="634" height="143" viewBox="0 0 634 143" fill="none" xmlns="http://www.w3.org/2000/svg">
<path d="M56.9748 47.8056C62.4266 48.9686 66.8058 51.6971 70.1126 55.9911C73.4194 60.1956 75.0728 65.0264 75.0728 70.4834C75.0728 78.3557 72.3022 84.6178 66.7611 89.2697C61.3094 93.8321 53.6681 96.1132 43.8371 96.1132H0V1.91335H42.3625C51.9253 1.91335 59.3879 4.10508 64.7502 8.48855C70.202 12.872 72.9278 18.821 72.9278 26.3355C72.9278 31.882 71.4532 36.4891 68.5039 40.1569C65.644 43.8247 61.801 46.3743 56.9748 47.8056ZM22.924 40.0227H37.9386C41.6922 40.0227 44.5521 39.2176 46.5183 37.6073C48.5739 35.9076 49.6016 33.4475 49.6016 30.227C49.6016 27.0065 48.5739 24.5464 46.5183 22.8467C44.5521 21.1469 41.6922 20.2971 37.9386 20.2971H22.924V40.0227ZM39.8154 77.5953C43.6584 77.5953 46.6077 76.7455 48.6632 75.0458C50.8082 73.2566 51.8806 70.707 51.8806 67.397C51.8806 64.0871 50.7635 61.4928 48.5292 59.6141C46.3842 57.7355 43.3903 56.7962 39.5473 56.7962H22.924V77.5953H39.8154Z" fill="white"/>
<path d="M230.596 96.1132L211.426 67.2628L194.534 96.1132H168.527L198.69 48.2082L167.857 1.91335H194.534L213.437 30.3612L230.06 1.91335H256.067L226.172 49.4159L257.274 96.1132H230.596Z" fill="white"/>
<path d="M291.706 78.4005H321.735V96.1132H268.782V1.91335H291.706V78.4005Z" fill="white"/>
<path d="M391.253 79.4739H356.129L350.499 96.1132H326.502L360.553 1.91335H387.097L421.148 96.1132H396.883L391.253 79.4739ZM385.354 61.7611L373.691 27.2749L362.162 61.7611H385.354Z" fill="white"/>
<path d="M515.7 96.1132H492.776L454.435 38.0099V96.1132H431.511V1.91335H454.435L492.776 60.2851V1.91335H515.7V96.1132Z" fill="white"/>
<path d="M594.788 31.7031C593.09 28.572 590.632 26.2014 587.415 24.5911C584.287 22.8914 580.578 22.0415 576.288 22.0415C568.87 22.0415 562.927 24.5016 558.458 29.4219C553.989 34.2526 551.755 40.7384 551.755 48.8791C551.755 57.5566 554.079 64.3554 558.726 69.2757C563.463 74.1064 569.942 76.5218 578.165 76.5218C583.795 76.5218 588.532 75.0905 592.375 72.2278C596.307 69.3651 599.167 65.25 600.955 59.8825H571.864V42.9748H621.734V64.3107C620.035 70.0361 617.131 75.3589 613.02 80.2791C608.998 85.1993 603.859 89.1802 597.603 92.2218C591.347 95.2634 584.287 96.7842 576.422 96.7842C567.127 96.7842 558.815 94.7714 551.487 90.7457C544.248 86.6306 538.573 80.95 534.462 73.7039C530.44 66.4577 528.429 58.1828 528.429 48.8791C528.429 39.5754 530.44 31.3005 534.462 24.0544C538.573 16.7187 544.248 11.0381 551.487 7.01249C558.726 2.89739 566.993 0.839844 576.288 0.839844C587.549 0.839844 597.022 3.56833 604.708 9.0253C612.484 14.4823 617.623 22.0415 620.125 31.7031H594.788Z" fill="white"/>
<path d="M114.559 14.5313L123.344 7.24316L123.353 7.23438L123.37 7.24755C123.682 7.29588 123.988 7.3442 124.299 7.40131C143.171 11.1179 155.392 29.2702 151.628 47.897C147.904 66.3656 129.867 78.3851 111.226 75.0068C115.247 74.1062 119.113 72.2787 122.491 69.4803C133.809 60.0878 135.288 43.4028 125.788 32.2136C120.344 25.7996 112.475 22.5883 104.618 22.7772L114.563 14.5269L114.559 14.5313Z" fill="white"/>
<path d="M84.3922 80.9469C82.6405 78.7375 82.9146 75.4392 85.0004 73.5837C87.0861 71.7281 90.1997 72.0185 91.9513 74.2279C93.703 76.4373 93.4289 79.7356 91.3432 81.5911C89.2575 83.4466 86.1439 83.1563 84.3922 80.9469Z" fill="white"/>
<path d="M133.646 95.5207C117.662 98.6492 101.937 93.9477 90.6396 84.1382C91.2989 83.863 91.9313 83.4959 92.5054 83.0197C93.6895 82.0496 94.4878 80.8 94.878 79.4542C97.3537 80.8393 99.9685 82.019 102.722 82.9366C126.242 90.8148 151.838 78.6109 159.897 55.7018C167.984 32.7884 155.457 7.85191 131.942 0C152.421 3.28583 168.652 18.5571 172.702 38.3463C178.12 64.6461 160.642 90.2336 133.646 95.5163V95.5207Z" fill="white"/>
<path d="M628.29 0C629.616 0 630.852 0.492947 631.727 1.43361C632.153 1.85871 632.491 2.39687 632.738 2.98026C633.21 4.16739 633.21 5.49019 632.738 6.65471C632.514 7.2381 632.153 7.77627 631.682 8.20137C631.21 8.6717 630.716 9.00861 630.086 9.25508C629.501 9.47894 628.895 9.61462 628.265 9.61462C627.635 9.61462 626.984 9.50156 626.399 9.23474C625.814 8.96792 625.274 8.60613 624.803 8.15841C623.905 7.26297 623.411 6.07357 623.411 4.84122C623.411 3.60887 623.456 3.98876 623.567 3.56365C623.678 3.13855 623.882 2.71118 624.061 2.37652C625.027 0.897698 626.601 0 628.285 0M628.313 0.80725C627.818 0.80725 627.256 0.875086 626.807 1.07633C626.335 1.27758 625.909 1.54665 625.526 1.9288C625.143 2.31094 624.83 2.78128 624.628 3.2516C623.998 4.70782 624.313 6.45572 625.483 7.57728C625.864 7.95716 626.292 8.27146 626.809 8.4727C627.281 8.67395 627.821 8.78701 628.36 8.78701C628.9 8.78701 629.417 8.67395 629.866 8.4727C630.36 8.27146 630.786 7.97977 631.192 7.62024C631.598 7.26071 631.843 6.85821 632.047 6.34266C632.249 5.87233 632.362 5.37939 632.362 4.84122C632.362 4.30305 632.294 3.76489 632.047 3.24934C631.845 2.7564 631.553 2.33129 631.192 1.97176C630.811 1.59188 630.383 1.27758 629.866 1.07633C629.371 0.942922 628.832 0.80725 628.315 0.80725M626.313 2.06221H628.403C628.988 2.01699 629.594 2.13005 630.111 2.44209C630.491 2.71117 630.696 3.13629 630.696 3.60661C630.696 4.07694 630.582 4.25557 630.38 4.50204C630.156 4.77112 629.841 4.92716 629.526 4.99499L630.716 7.39186H629.278L628.267 5.24146H627.617V7.43709H626.335V2.05769H626.313V2.06221ZM627.594 2.91469V4.46134H628.245C628.514 4.50656 628.83 4.41613 629.099 4.2601C629.301 4.14704 629.369 3.90057 629.369 3.67671C629.369 3.45285 629.301 3.20638 629.099 3.04809C628.83 2.89207 628.514 2.82424 628.201 2.84686L627.594 2.91469Z" fill="white"/>
<path d="M394.042 124.919H387.463L390.734 115.146L394.042 124.919Z" fill="white"/>
<path d="M460.184 124.919H453.604L456.875 115.146L460.184 124.919Z" fill="white"/>
<path d="M487.427 113.512C489.887 113.512 491.801 114.197 493.17 115.565C494.54 116.934 495.224 118.848 495.224 121.307C495.224 123.765 494.54 125.666 493.17 127.01C491.801 128.353 489.887 129.025 487.427 129.025H484.347V113.512H487.427Z" fill="white"/>
<path fill-rule="evenodd" clip-rule="evenodd" d="M607.359 99.502C615.166 99.502 621.496 105.831 621.497 113.639V128.863C621.497 136.671 615.166 143 607.359 143H367.56C359.752 143 353.422 136.671 353.422 128.863V113.639C353.423 105.831 359.753 99.502 367.56 99.502H607.359ZM424.025 107.656C421.439 107.656 419.119 108.239 417.065 109.405C415.036 110.546 413.452 112.156 412.311 114.234C411.17 116.288 410.599 118.632 410.599 121.269C410.599 123.905 411.17 126.25 412.311 128.303C413.452 130.356 415.037 131.966 417.065 133.132C419.119 134.272 421.439 134.843 424.025 134.843C427.194 134.843 429.907 134.019 432.164 132.371C434.42 130.698 435.929 128.417 436.69 125.527H429.54C429.007 126.642 428.246 127.491 427.257 128.074C426.294 128.657 425.191 128.949 423.949 128.949C421.946 128.949 420.323 128.252 419.081 126.857C417.838 125.463 417.217 123.6 417.217 121.269C417.217 118.936 417.838 117.073 419.081 115.679C420.323 114.285 421.946 113.588 423.949 113.588C425.191 113.588 426.294 113.879 427.257 114.462C428.246 115.045 429.007 115.894 429.54 117.01H436.69C435.929 114.12 434.42 111.839 432.164 110.166C429.907 108.493 427.194 107.656 424.025 107.656ZM387.006 107.96L377.346 134.652H384.154L385.751 129.938H395.716L397.314 134.652H404.198L394.538 107.96H387.006ZM453.148 107.96L443.488 134.652H450.295L451.893 129.938H461.858L463.455 134.652H470.339L460.678 107.96H453.148ZM477.843 107.96V134.652H487.846C490.635 134.652 493.082 134.095 495.186 132.979C497.316 131.864 498.952 130.293 500.093 128.265C501.26 126.237 501.842 123.917 501.842 121.307C501.842 118.671 501.259 116.351 500.093 114.349C498.952 112.321 497.329 110.749 495.224 109.634C493.12 108.519 490.661 107.96 487.846 107.96H477.843ZM510.041 107.96V134.652H526.395V129.443H516.544V123.588H525.254V118.568H516.544V113.17H526.395V107.96H510.041ZM535.182 107.96V134.652H541.685V118.606L547.695 134.652H552.943L558.915 118.645V134.652H565.418V107.96H557.774L550.357 126.439L542.865 107.96H535.182ZM572.568 107.96L581.809 125.831V134.652H588.313V125.831L597.555 107.96H590.253L585.119 119.139L579.946 107.96H572.568Z" fill="white"/>
</svg>
