<svg width="319" height="72" viewBox="0 0 319 72" fill="none" xmlns="http://www.w3.org/2000/svg">
<path d="M28.6866 24.0709C31.4315 24.6565 33.6365 26.0303 35.3014 28.1923C36.9664 30.3093 37.7989 32.7415 37.7989 35.4891C37.7989 39.4528 36.4039 42.6058 33.614 44.9479C30.8691 47.2451 27.0217 48.3937 22.0718 48.3937H0V0.964334H21.3294C26.1442 0.964334 29.9016 2.06786 32.6015 4.27493C35.3464 6.48199 36.7189 9.47729 36.7189 13.2608C36.7189 16.0534 35.9764 18.3731 34.4914 20.2198C33.0515 22.0666 31.1165 23.3503 28.6866 24.0709ZM11.5421 20.1523H19.1019C20.9919 20.1523 22.4318 19.7469 23.4218 18.9361C24.4568 18.0803 24.9742 16.8417 24.9742 15.2202C24.9742 13.5986 24.4568 12.36 23.4218 11.5042C22.4318 10.6484 20.9919 10.2205 19.1019 10.2205H11.5421V20.1523ZM20.0469 39.0699C21.9818 39.0699 23.4668 38.642 24.5018 37.7862C25.5817 36.8854 26.1217 35.6017 26.1217 33.9351C26.1217 32.2686 25.5592 30.9624 24.4343 30.0165C23.3543 29.0706 21.8468 28.5977 19.9119 28.5977H11.5421V39.0699H20.0469Z" fill="#303446"/>
<path d="M116.104 48.3937L106.452 33.8676L97.9473 48.3937H84.8527L100.04 24.2736L84.5152 0.964334H97.9473L107.464 15.2877L115.834 0.964334H128.929L113.877 24.8817L129.536 48.3937H116.104Z" fill="#303446"/>
<path d="M146.873 39.4753H161.992V48.3937H135.331V0.964334H146.873V39.4753Z" fill="#303446"/>
<path d="M196.994 40.0158H179.31L176.475 48.3937H164.393L181.537 0.964334H194.902L212.046 48.3937H199.829L196.994 40.0158ZM194.024 31.0975L188.152 13.7338L182.347 31.0975H194.024Z" fill="#303446"/>
<path d="M259.653 48.3937H248.111L228.806 19.1388V48.3937H217.264V0.964334H228.806L248.111 30.3543V0.964334H259.653V48.3937Z" fill="#303446"/>
<path d="M299.473 15.9634C298.618 14.3869 297.381 13.1933 295.761 12.3825C294.186 11.5267 292.319 11.0988 290.159 11.0988C286.424 11.0988 283.431 12.3375 281.182 14.8148C278.932 17.2471 277.807 20.5126 277.807 24.6114C277.807 28.9805 278.977 32.4037 281.316 34.881C283.701 37.3133 286.964 38.5294 291.104 38.5294C293.939 38.5294 296.324 37.8088 298.258 36.3674C300.238 34.9261 301.678 32.8541 302.578 30.1516H287.931V21.6387H313.041V32.3812C312.186 35.2639 310.723 37.9439 308.653 40.4212C306.628 42.8985 304.041 44.9029 300.891 46.4343C297.741 47.9658 294.186 48.7315 290.226 48.7315C285.546 48.7315 281.361 47.718 277.672 45.6911C274.027 43.6192 271.169 40.759 269.099 37.1106C267.074 33.4622 266.062 29.2958 266.062 24.6114C266.062 19.9271 267.074 15.7607 269.099 12.1123C271.169 8.4188 274.027 5.55863 277.672 3.53173C281.316 1.4598 285.479 0.423828 290.159 0.423828C295.829 0.423828 300.598 1.79761 304.468 4.54518C308.383 7.29275 310.971 11.0988 312.231 15.9634H299.473Z" fill="#303446"/>
<path d="M57.6793 7.31657L62.1026 3.647L62.1071 3.64258L62.116 3.64921C62.2726 3.67354 62.427 3.69788 62.5836 3.72663C72.0858 5.59791 78.2385 14.7375 76.3435 24.1161C74.4686 33.4149 65.3871 39.4667 56.0013 37.7658C58.0261 37.3123 59.9726 36.3922 61.673 34.9832C67.3716 30.2541 68.1167 21.8533 63.3332 16.2195C60.5924 12.9901 56.63 11.3732 52.6743 11.4683L57.6816 7.31436L57.6793 7.31657Z" fill="#303446"/>
<path d="M42.4902 40.7564C41.6082 39.644 41.7462 37.9833 42.7964 37.049C43.8465 36.1148 45.4142 36.261 46.2962 37.3734C47.1781 38.4858 47.0401 40.1465 45.99 41.0808C44.9398 42.015 43.3721 41.8688 42.4902 40.7564Z" fill="#303446"/>
<path d="M67.2895 48.0943C59.2413 49.6695 51.3241 47.3023 45.6357 42.3633C45.9677 42.2247 46.2861 42.0399 46.5751 41.8001C47.1713 41.3117 47.5733 40.6825 47.7697 40.0049C49.0162 40.7023 50.3328 41.2963 51.7193 41.7583C63.5612 45.7249 76.4487 39.5803 80.5066 28.0457C84.5781 16.5088 78.271 3.95341 66.4314 0C76.7422 1.6544 84.9146 9.34342 86.9537 19.3073C89.6816 32.5491 80.8815 45.4323 67.2895 48.0921V48.0943Z" fill="#303446"/>
<path d="M316.342 0C317.01 0 317.632 0.248197 318.073 0.721816C318.287 0.935855 318.457 1.20682 318.582 1.50055C318.819 2.09827 318.819 2.76429 318.582 3.35062C318.469 3.64436 318.287 3.91532 318.05 4.12936C317.812 4.36617 317.563 4.53581 317.246 4.6599C316.952 4.77262 316.647 4.84093 316.329 4.84093C316.012 4.84093 315.684 4.784 315.39 4.64966C315.095 4.51532 314.824 4.33315 314.586 4.10773C314.134 3.65688 313.885 3.05802 313.885 2.43754C313.885 1.81705 313.908 2.00833 313.964 1.79429C314.02 1.58025 314.123 1.36507 314.213 1.19657C314.699 0.451988 315.491 0 316.34 0M316.353 0.406447C316.104 0.406447 315.821 0.440603 315.595 0.54193C315.358 0.643257 315.143 0.778734 314.95 0.971142C314.757 1.16355 314.6 1.40036 314.498 1.63717C314.181 2.37037 314.34 3.25043 314.929 3.81513C315.12 4.0064 315.336 4.16465 315.596 4.26598C315.834 4.3673 316.106 4.42423 316.377 4.42423C316.649 4.42423 316.909 4.3673 317.135 4.26598C317.384 4.16465 317.599 4.01779 317.803 3.83677C318.008 3.65574 318.131 3.45309 318.234 3.19351C318.335 2.9567 318.392 2.7085 318.392 2.43754C318.392 2.16657 318.358 1.89561 318.234 1.63603C318.132 1.38784 317.985 1.1738 317.803 0.992774C317.611 0.801505 317.396 0.643257 317.135 0.54193C316.886 0.474758 316.615 0.406447 316.355 0.406447M315.346 1.03832H316.399C316.694 1.01555 316.998 1.07247 317.259 1.22958C317.45 1.36507 317.553 1.57911 317.553 1.81592C317.553 2.05273 317.496 2.14266 317.394 2.26676C317.281 2.40224 317.123 2.48081 316.964 2.51496L317.563 3.72178H316.84L316.331 2.63906H316.003V3.74455H315.358V1.03604H315.346V1.03832ZM315.991 1.46754V2.24627H316.319C316.455 2.26904 316.614 2.2235 316.749 2.14495C316.851 2.08802 316.885 1.96392 316.885 1.85121C316.885 1.7385 316.851 1.6144 316.749 1.5347C316.614 1.45615 316.455 1.422 316.297 1.43338L315.991 1.46754Z" fill="#303446"/>
<path d="M198.399 62.8965H195.086L196.733 57.9766L198.399 62.8965Z" fill="#303446"/>
<path d="M231.701 62.8965H228.388L230.035 57.9766L231.701 62.8965Z" fill="#303446"/>
<path d="M245.417 57.1533C246.656 57.1533 247.62 57.4983 248.309 58.1875C248.998 58.8767 249.343 59.8402 249.343 61.0781C249.343 62.316 248.998 63.2728 248.309 63.9492C247.62 64.6256 246.656 64.9639 245.417 64.9639H243.867V57.1533H245.417Z" fill="#303446"/>
<path fill-rule="evenodd" clip-rule="evenodd" d="M305.803 50.0977C309.734 50.0977 312.921 53.2848 312.921 57.2158V64.8809C312.921 68.8119 309.734 71.9989 305.803 71.999H185.065C181.134 71.999 177.947 68.8119 177.947 64.8809V57.2158C177.947 53.2847 181.134 50.0977 185.065 50.0977H305.803ZM213.495 54.2051C212.193 54.2051 211.025 54.4989 209.991 55.0859C208.969 55.6602 208.171 56.4701 207.596 57.5166C207.022 58.5504 206.735 59.7313 206.735 61.0586C206.735 62.3859 207.022 63.5668 207.596 64.6006C208.171 65.6344 208.969 66.4451 209.991 67.0322C211.025 67.6064 212.193 67.8935 213.495 67.8936C215.09 67.8936 216.457 67.478 217.593 66.6484C218.729 65.8062 219.489 64.6578 219.872 63.2031H216.271C216.003 63.7644 215.62 64.1919 215.123 64.4854C214.637 64.7789 214.082 64.9258 213.457 64.9258C212.448 64.9258 211.631 64.5749 211.005 63.873C210.38 63.1711 210.067 62.2328 210.067 61.0586C210.067 59.8845 210.38 58.9461 211.005 58.2441C211.631 57.5424 212.448 57.1914 213.457 57.1914C214.082 57.1914 214.637 57.3383 215.123 57.6318C215.62 57.9254 216.003 58.3535 216.271 58.915H219.872C219.489 57.4602 218.729 56.3111 217.593 55.4688C216.457 54.6264 215.09 54.2051 213.495 54.2051ZM194.856 54.3584L189.993 67.7979H193.42L194.224 65.4238H199.242L200.045 67.7979H203.512L198.648 54.3584H194.856ZM228.158 54.3584L223.294 67.7979H226.722L227.526 65.4238H232.543L233.347 67.7979H236.814L231.95 54.3584H228.158ZM240.592 54.3584V67.7979H245.628C247.033 67.7979 248.265 67.5166 249.325 66.9551C250.397 66.3935 251.22 65.602 251.794 64.5811C252.382 63.5601 252.675 62.3926 252.675 61.0781C252.675 59.7508 252.382 58.5825 251.794 57.5742C251.22 56.5533 250.403 55.7617 249.343 55.2002C248.284 54.6387 247.045 54.3584 245.628 54.3584H240.592ZM256.803 54.3584V67.7979H265.038V65.1748H260.078V62.2266H264.463V59.6992H260.078V56.9814H265.038V54.3584H256.803ZM269.461 54.3584V67.7979H272.737V59.7188L275.762 67.7979H278.405L281.412 59.7373V67.7979H284.686V54.3584H280.836L277.102 63.6621L273.33 54.3584H269.461ZM288.286 54.3584L292.939 63.3564V67.7979H296.213V63.3564L300.867 54.3584H297.19L294.605 59.9863L292 54.3584H288.286Z" fill="#303446"/>
</svg>
