<svg width="1121" height="253" viewBox="0 0 1121 253" fill="none" xmlns="http://www.w3.org/2000/svg">
<path d="M100.802 84.578C110.447 86.6355 118.195 91.4629 124.045 99.06C129.896 106.499 132.821 115.046 132.821 124.7C132.821 138.628 127.919 149.708 118.116 157.938C108.47 166.01 94.9512 170.046 77.558 170.046H0V3.38366H74.949C91.8678 3.38366 105.071 7.26136 114.558 15.0168C124.203 22.7722 129.026 33.2973 129.026 46.5923C129.026 56.4053 126.417 64.5564 121.199 71.0456C116.139 77.5348 109.34 82.0456 100.802 84.578ZM40.5578 70.8082H67.122C73.7631 70.8082 78.8229 69.3837 82.3016 66.5348C85.9383 63.5276 87.7567 59.1751 87.7567 53.4772C87.7567 47.7794 85.9383 43.4269 82.3016 40.4197C78.8229 37.4125 73.7631 35.9089 67.122 35.9089H40.5578V70.8082ZM70.4425 137.283C77.2417 137.283 82.4597 135.779 86.0965 132.772C89.8913 129.607 91.7888 125.096 91.7888 119.24C91.7888 113.384 89.8123 108.794 85.8593 105.47C82.0644 102.146 76.7674 100.484 69.9682 100.484H40.5578V137.283H70.4425Z" fill="#303446"/>
<path d="M407.977 170.046L374.061 119.002L344.176 170.046H298.163L351.528 85.2902L296.977 3.38366H344.176L377.618 53.7146L407.029 3.38366H453.042L400.15 87.4269L455.176 170.046H407.977Z" fill="#303446"/>
<path d="M516.094 138.708H569.223V170.046H475.537V3.38366H516.094V138.708Z" fill="#303446"/>
<path d="M692.216 140.607H630.074L620.113 170.046H577.658L637.901 3.38366H684.863L745.107 170.046H702.177L692.216 140.607ZM681.78 109.269L661.145 48.2542L640.748 109.269H681.78Z" fill="#303446"/>
<path d="M912.391 170.046H871.833L804 67.247V170.046H763.442V3.38366H804L871.833 106.657V3.38366H912.391V170.046Z" fill="#303446"/>
<path d="M1052.32 56.0887C1049.31 50.5492 1044.96 46.3549 1039.27 43.506C1033.74 40.4988 1027.18 38.9952 1019.59 38.9952C1006.46 38.9952 995.947 43.3477 988.041 52.0528C980.135 60.5995 976.181 72.0744 976.181 86.4772C976.181 101.83 980.293 113.859 988.515 122.564C996.895 131.11 1008.36 135.384 1022.91 135.384C1032.87 135.384 1041.25 132.851 1048.05 127.787C1055 122.722 1060.06 115.441 1063.23 105.945H1011.76V76.0312H1099.99V113.779C1096.99 123.909 1091.85 133.326 1084.57 142.031C1077.46 150.736 1068.37 157.779 1057.3 163.161C1046.23 168.542 1033.74 171.233 1019.82 171.233C1003.38 171.233 988.673 167.672 975.707 160.549C962.899 153.269 952.859 143.218 945.585 130.398C938.47 117.578 934.912 102.938 934.912 86.4772C934.912 70.0168 938.47 55.3765 945.585 42.5564C952.859 29.5779 962.899 19.5276 975.707 12.4052C988.515 5.12467 1003.14 1.48438 1019.59 1.48438C1039.51 1.48438 1056.27 6.31172 1069.87 15.9664C1083.62 25.6211 1092.72 38.9952 1097.14 56.0887H1052.32Z" fill="#303446"/>
<path d="M202.68 25.7108L218.223 12.8163L218.238 12.8008L218.27 12.8241C218.82 12.9096 219.363 12.9951 219.913 13.0961C253.302 19.6716 274.923 51.7874 268.264 84.7426C261.675 117.418 229.764 138.683 196.783 132.706C203.898 131.113 210.738 127.88 216.713 122.929C236.737 106.311 239.355 76.7914 222.547 56.9949C212.916 45.6472 198.993 39.9655 185.093 40.2997L202.688 25.703L202.68 25.7108Z" fill="url(#paint0_linear_704_467)"/>
<path d="M149.308 143.213C146.209 139.304 146.694 133.469 150.384 130.186C154.074 126.903 159.583 127.417 162.682 131.326C165.781 135.235 165.296 141.07 161.606 144.353C157.916 147.636 152.407 147.122 149.308 143.213Z" fill="url(#paint1_linear_704_467)"/>
<path d="M236.45 168.999C208.17 174.534 180.35 166.216 160.361 148.861C161.528 148.374 162.647 147.724 163.662 146.881C165.757 145.165 167.17 142.954 167.86 140.573C172.24 143.024 176.866 145.111 181.738 146.735C223.349 160.673 268.635 139.081 282.894 98.5497C297.201 58.0105 275.038 13.8919 233.435 0C269.666 5.81341 298.383 32.8319 305.548 67.8438C315.134 114.374 284.211 159.645 236.45 168.991V168.999Z" fill="url(#paint2_linear_704_467)"/>
<path d="M1111.59 0C1113.94 0 1116.12 0.872141 1117.67 2.53639C1118.43 3.2885 1119.02 4.24063 1119.46 5.27279C1120.29 7.3731 1120.29 9.71345 1119.46 11.7738C1119.06 12.8059 1118.43 13.7581 1117.59 14.5102C1116.76 15.3423 1115.88 15.9384 1114.77 16.3744C1113.73 16.7705 1112.66 17.0106 1111.55 17.0106C1110.43 17.0106 1109.28 16.8105 1108.24 16.3385C1107.21 15.8664 1106.25 15.2263 1105.42 14.4342C1103.83 12.8499 1102.96 10.7456 1102.96 8.56527C1102.96 6.38494 1103.04 7.05706 1103.23 6.30495C1103.43 5.55283 1103.79 4.79672 1104.11 4.20463C1105.82 1.58824 1108.6 0 1111.58 0M1111.63 1.42822C1110.76 1.42822 1109.76 1.54824 1108.97 1.90429C1108.13 2.26034 1107.38 2.7364 1106.7 3.4125C1106.02 4.0886 1105.47 4.92074 1105.11 5.75286C1104 8.32925 1104.55 11.4217 1106.62 13.406C1107.3 14.0781 1108.06 14.6342 1108.97 14.9902C1109.8 15.3463 1110.76 15.5463 1111.71 15.5463C1112.67 15.5463 1113.58 15.3463 1114.38 14.9902C1115.25 14.6342 1116.01 14.1181 1116.72 13.482C1117.44 12.8459 1117.88 12.1338 1118.24 11.2217C1118.59 10.3895 1118.79 9.51741 1118.79 8.56527C1118.79 7.61313 1118.67 6.66099 1118.24 5.74886C1117.88 4.87673 1117.36 4.1246 1116.72 3.48851C1116.05 2.81641 1115.29 2.26034 1114.38 1.90429C1113.5 1.66825 1112.55 1.42822 1111.63 1.42822M1108.09 3.64854H1111.79C1112.83 3.56853 1113.9 3.76856 1114.81 4.32064C1115.48 4.79671 1115.85 5.54883 1115.85 6.38096C1115.85 7.21308 1115.65 7.52911 1115.29 7.96518C1114.89 8.44125 1114.33 8.71731 1113.78 8.83733L1115.88 13.078H1113.34L1111.55 9.27338H1110.4V13.158H1108.13V3.64053H1108.09V3.64854ZM1110.36 5.15678V7.89317H1111.51C1111.99 7.97318 1112.54 7.81318 1113.02 7.53714C1113.38 7.33711 1113.5 6.90104 1113.5 6.50498C1113.5 6.10892 1113.38 5.67284 1113.02 5.3928C1112.54 5.11676 1111.99 4.99676 1111.43 5.03676L1110.36 5.15678Z" fill="#303446"/>
<path d="M1074.56 176.043C1088.37 176.043 1099.57 187.241 1099.57 201.055V227.989C1099.57 241.803 1088.37 253.001 1074.56 253.001H650.297C636.483 253.001 625.285 241.803 625.285 227.989V201.055C625.285 187.241 636.483 176.043 650.297 176.043H1074.56Z" fill="url(#paint3_linear_704_467)"/>
<path d="M700.113 229.892H682.483L679.657 238.233H667.612L684.704 191.009H698.027L715.119 238.233H702.94L700.113 229.892ZM697.153 221.012L691.298 203.723L685.511 221.012H697.153Z" fill="#303446"/>
<path d="M726.444 214.554C726.444 209.89 727.454 205.741 729.472 202.109C731.491 198.431 734.295 195.583 737.884 193.565C741.517 191.502 745.622 190.471 750.198 190.471C755.805 190.471 760.605 191.951 764.598 194.911C768.59 197.871 771.259 201.907 772.605 207.019H759.955C759.013 205.046 757.667 203.544 755.917 202.512C754.213 201.481 752.261 200.965 750.063 200.965C746.519 200.965 743.648 202.198 741.45 204.665C739.252 207.132 738.153 210.428 738.153 214.554C738.153 218.68 739.252 221.976 741.45 224.443C743.648 226.909 746.519 228.143 750.063 228.143C752.261 228.143 754.213 227.627 755.917 226.595C757.667 225.564 759.013 224.061 759.955 222.088H772.605C771.259 227.201 768.59 231.237 764.598 234.197C760.605 237.112 755.805 238.57 750.198 238.57C745.622 238.57 741.517 237.56 737.884 235.542C734.295 233.479 731.491 230.632 729.472 226.999C727.454 223.366 726.444 219.218 726.444 214.554Z" fill="#303446"/>
<path d="M817.132 229.892H799.502L796.676 238.233H784.631L801.723 191.009H815.046L832.138 238.233H819.958L817.132 229.892ZM814.172 221.012L808.317 203.723L802.53 221.012H814.172Z" fill="#303446"/>
<path d="M863.112 191.009C868.091 191.009 872.443 191.996 876.166 193.969C879.89 195.942 882.761 198.723 884.779 202.31C886.843 205.853 887.875 209.957 887.875 214.621C887.875 219.24 886.843 223.344 884.779 226.932C882.761 230.519 879.867 233.3 876.099 235.273C872.375 237.247 868.046 238.233 863.112 238.233H845.415V191.009H863.112ZM862.372 228.277C866.723 228.277 870.11 227.089 872.532 224.712C874.955 222.335 876.166 218.971 876.166 214.621C876.166 210.271 874.955 206.885 872.532 204.463C870.11 202.041 866.723 200.83 862.372 200.83H856.921V228.277H862.372Z" fill="#303446"/>
<path d="M913.886 200.225V209.778H929.296V218.657H913.886V229.017H931.315V238.233H902.38V191.009H931.315V200.225H913.886Z" fill="#303446"/>
<path d="M1000.36 191.009V238.233H988.849V209.912L978.284 238.233H968.998L958.366 209.845V238.233H946.86V191.009H960.452L973.708 223.703L986.83 191.009H1000.36Z" fill="#303446"/>
<path d="M1057.21 191.009L1040.86 222.626V238.233H1029.35V222.626L1013 191.009H1026.06L1035.21 210.787L1044.29 191.009H1057.21Z" fill="#303446"/>
<defs>
<linearGradient id="paint0_linear_704_467" x1="185.093" y1="73.2563" x2="269.468" y2="73.2563" gradientUnits="userSpaceOnUse">
<stop stop-color="#00DBFF"/>
<stop offset="1" stop-color="#00FF75"/>
</linearGradient>
<linearGradient id="paint1_linear_704_467" x1="147.267" y1="137.27" x2="164.724" y2="137.27" gradientUnits="userSpaceOnUse">
<stop stop-color="#00DBFF"/>
<stop offset="1" stop-color="#00FF75"/>
</linearGradient>
<linearGradient id="paint2_linear_704_467" x1="160.361" y1="85.349" x2="307.291" y2="85.349" gradientUnits="userSpaceOnUse">
<stop stop-color="#00DBFF"/>
<stop offset="1" stop-color="#00FF75"/>
</linearGradient>
<linearGradient id="paint3_linear_704_467" x1="625.285" y1="214.522" x2="1099.57" y2="214.522" gradientUnits="userSpaceOnUse">
<stop stop-color="#00DBFF"/>
<stop offset="1" stop-color="#00FF75"/>
</linearGradient>
</defs>
</svg>
