<svg width="491" height="600" viewBox="0 0 491 600" fill="none" xmlns="http://www.w3.org/2000/svg">
<path d="M245.102 490.196C199.223 490.196 154.493 477.445 115.74 453.314C112.33 451.192 111.283 446.697 113.405 443.287C115.527 439.877 120.012 438.839 123.431 440.952C159.877 463.646 201.947 475.638 245.102 475.638C372.222 475.638 475.638 372.219 475.638 245.094C475.638 198.065 461.571 152.833 434.957 114.282C432.668 110.974 433.502 106.442 436.81 104.153C440.118 101.864 444.65 102.698 446.939 106.007C475.239 147.004 490.195 195.099 490.195 245.094C490.195 380.244 380.247 490.196 245.102 490.196Z" fill="#1D3366"/>
<path d="M43.3864 378.407C40.9585 378.407 38.5863 377.193 37.2056 374.987C12.8621 336.112 0 291.196 0 245.102C0 109.952 109.949 0 245.093 0C291.853 0 337.315 13.2147 376.568 38.2169C379.96 40.3761 380.961 44.8799 378.802 48.2623C376.643 51.654 372.139 52.6548 368.757 50.4956C331.848 26.9854 289.082 14.5584 245.103 14.5584C117.983 14.5584 14.5672 117.978 14.5672 245.102C14.5672 288.462 26.6694 330.701 49.558 367.259C51.6893 370.669 50.6607 375.163 47.2506 377.295C46.0459 378.045 44.7115 378.407 43.3957 378.407H43.3864Z" fill="#1D3366"/>
<path d="M411.695 65.1066C415.893 65.1066 419.294 68.5075 419.294 72.7055C419.294 76.9034 415.893 80.3044 411.695 80.3044C407.497 80.3044 404.087 76.9034 404.087 72.7055C404.087 68.5075 407.488 65.1066 411.695 65.1066ZM411.695 50.5482C399.472 50.5482 389.529 60.4916 389.529 72.7147C389.529 84.9378 399.472 94.8813 411.695 94.8813C423.918 94.8813 433.861 84.9378 433.861 72.7147C433.861 60.4916 423.918 50.5482 411.695 50.5482Z" fill="#1D3366"/>
<path d="M77.3867 396.124C86.6718 396.124 94.1963 403.649 94.1963 412.934C94.1963 422.22 86.6718 429.744 77.3867 429.744C68.1015 429.744 60.577 422.22 60.577 412.934C60.577 403.649 68.1015 396.124 77.3867 396.124ZM77.3867 381.565C60.0951 381.565 46.0191 395.642 46.0191 412.934C46.0191 430.226 60.0951 444.303 77.3867 444.303C94.6782 444.303 108.754 430.226 108.754 412.934C108.754 395.642 94.6782 381.565 77.3867 381.565Z" fill="#1D3366"/>
<path d="M247.477 73.9159C172.883 73.9159 112.405 95.9569 112.405 123.16V163.567C112.405 190.78 172.883 212.812 247.477 212.812C322.07 212.812 382.539 190.771 382.539 163.567V123.16C382.539 95.9569 322.07 73.9159 247.477 73.9159Z" fill="#1D3366"/>
<path d="M247.474 236.375C176.258 236.375 117.536 216.272 112.402 190.767C112.172 191.996 112.402 257.524 112.402 257.524C112.402 284.737 172.881 306.768 247.474 306.768C322.068 306.768 382.537 284.717 382.537 257.524C382.537 257.524 382.69 191.996 382.441 190.767C377.307 216.272 318.7 236.375 247.484 236.375H247.474Z" fill="#1D3366"/>
<path d="M382.405 285.856C377.271 311.351 318.702 331.454 247.477 331.454C176.251 331.454 117.538 311.351 112.405 285.856V352.602C112.405 379.806 172.883 401.847 247.477 401.847C322.07 401.847 382.539 379.806 382.539 352.602L382.405 285.856Z" fill="#1D3366"/>
<path d="M245.728 596.244C228.98 596.244 215.404 582.681 215.404 565.948C215.404 549.215 228.98 535.652 245.728 535.652C254.175 535.652 261.81 539.104 267.309 544.673C260.975 536.028 250.744 530.406 239.194 530.406C219.957 530.406 204.362 545.984 204.362 565.203C204.362 584.422 219.957 600 239.191 600C247.868 600 255.8 596.82 261.903 591.571C257.219 594.53 251.676 596.248 245.728 596.248" fill="#1D3366"/>
<path d="M256.151 540.523C263.441 544.789 268.342 552.694 268.342 561.743C268.342 575.317 257.328 586.318 243.745 586.321C231.105 586.321 220.698 576.796 219.31 564.54C219.286 565.023 219.269 565.505 219.269 565.992C219.269 581.028 231.471 593.215 246.517 593.215C261.563 593.215 273.765 581.024 273.765 565.992C273.765 554.346 266.444 544.413 256.151 540.523Z" fill="#1D3366"/>
<path d="M243.016 542.404C233.872 542.404 226.151 548.481 223.669 556.813C226.441 550.633 232.65 546.329 239.868 546.329C249.671 546.329 257.617 554.268 257.617 564.062C257.617 573.856 249.671 581.795 239.868 581.795C238.266 581.795 236.713 581.577 235.236 581.181C237.628 582.181 240.258 582.733 243.016 582.736C254.165 582.736 263.199 573.704 263.199 562.568C263.199 551.429 254.162 542.404 243.016 542.404Z" fill="#1D3366"/>
<path d="M68.1847 546.428C71.1329 541.068 75.2555 536.887 80.5286 533.906C85.8017 530.902 91.7699 529.412 98.4571 529.412C106.654 529.412 113.677 531.575 119.502 535.925C125.326 540.275 129.233 546.188 131.198 553.686H112.718C111.352 550.802 109.387 548.591 106.87 547.077C104.353 545.563 101.477 544.818 98.2654 544.818C93.0881 544.818 88.8936 546.62 85.6818 550.249C82.47 553.854 80.8641 558.709 80.8641 564.741C80.8641 570.774 82.47 575.629 85.6818 579.234C88.8936 582.839 93.0881 584.665 98.2654 584.665C101.477 584.665 104.353 583.92 106.87 582.406C109.387 580.892 111.352 578.705 112.718 575.797H131.198C129.233 583.295 125.326 589.184 119.502 593.486C113.653 597.788 106.654 599.951 98.4571 599.951C91.7699 599.951 85.7777 598.461 80.5046 595.456C75.2315 592.476 71.1089 588.318 68.1608 582.983C65.2126 577.648 63.7266 571.567 63.7266 564.741C63.7266 557.916 65.2126 551.811 68.1608 546.452L68.1847 546.428Z" fill="#1D3366"/>
<path d="M192.965 569.885C195.386 573.009 196.608 576.566 196.608 580.579C196.608 586.372 194.595 590.962 190.568 594.327C186.541 597.715 180.909 599.398 173.694 599.398H141.528V530.205H172.592C179.614 530.205 185.103 531.815 189.058 535.036C193.013 538.256 195.002 542.63 195.002 548.158C195.002 552.244 193.924 555.609 191.815 558.324C189.681 561.016 186.853 562.891 183.306 563.948C187.308 564.813 190.52 566.784 192.941 569.909L192.965 569.885ZM158.354 558.204H169.38C172.136 558.204 174.246 557.603 175.732 556.378C177.218 555.152 177.937 553.373 177.937 550.994C177.937 548.615 177.194 546.812 175.732 545.563C174.269 544.313 172.136 543.688 169.38 543.688H158.354V558.18V558.204ZM177.29 583.896C178.824 582.622 179.591 580.748 179.591 578.32C179.591 575.893 178.776 573.994 177.17 572.6C175.564 571.23 173.359 570.533 170.53 570.533H158.33V585.819H170.722C173.55 585.819 175.732 585.17 177.266 583.896H177.29Z" fill="#1D3366"/>
<path d="M318.849 599.422L304.491 573.297H300.465V599.422H283.639V530.205H311.85C317.291 530.205 321.941 531.166 325.776 533.065C329.611 534.964 332.487 537.583 334.38 540.9C336.274 544.217 337.233 547.918 337.233 552.004C337.233 556.594 335.938 560.704 333.35 564.333C330.761 567.938 326.95 570.509 321.893 572.024L337.832 599.446H318.849V599.422ZM300.441 561.377H310.867C313.959 561.377 316.26 560.632 317.794 559.117C319.328 557.603 320.095 555.464 320.095 552.701C320.095 549.937 319.328 547.99 317.794 546.5C316.26 544.986 313.935 544.241 310.867 544.241H300.441V561.401V561.377Z" fill="#1D3366"/>
<path d="M426.364 530.537V599.344H409.593V558.084L394.207 599.344H380.684L365.202 557.988V599.344H348.431V530.537H368.237L387.541 578.177L406.654 530.537H426.364Z" fill="#1D3366"/>
</svg>
