<svg width="75" height="75" viewBox="0 0 75 75" fill="none" xmlns="http://www.w3.org/2000/svg">
<path d="M37.5006 75C30.4811 75 23.6374 73.049 17.7082 69.357C17.1864 69.0323 17.0262 68.3446 17.3509 67.8229C17.6756 67.3011 18.3618 67.1423 18.885 67.4656C24.4612 70.9379 30.8979 72.7726 37.5006 72.7726C56.9499 72.7726 72.7725 56.9494 72.7725 37.4994C72.7725 30.3039 70.6203 23.3834 66.5484 17.4852C66.1982 16.979 66.3258 16.2857 66.832 15.9355C67.3381 15.5852 68.0314 15.7129 68.3816 16.219C72.7116 22.4916 74.9999 29.8502 74.9999 37.4994C74.9999 58.1773 58.1777 75 37.5006 75Z" fill="white"/>
<path d="M6.63812 57.8962C6.26666 57.8962 5.9037 57.7105 5.69245 57.373C1.9679 51.4252 0 44.5529 0 37.5005C0 16.8227 16.8221 0 37.4993 0C44.6535 0 51.6092 2.02185 57.6149 5.84719C58.1339 6.17754 58.287 6.86662 57.9566 7.38413C57.6263 7.90306 56.9372 8.05619 56.4197 7.72583C50.7727 4.12876 44.2295 2.22743 37.5007 2.22743C18.0514 2.22743 2.22878 18.0506 2.22878 37.5005C2.22878 44.1346 4.08042 50.5972 7.58237 56.1906C7.90846 56.7123 7.75109 57.4 7.22934 57.7261C7.04502 57.8409 6.84086 57.8962 6.63953 57.8962H6.63812Z" fill="white"/>
<path d="M62.9893 9.9613C63.6316 9.9613 64.1519 10.4816 64.1519 11.1239C64.1519 11.7662 63.6316 12.2866 62.9893 12.2866C62.3471 12.2866 61.8253 11.7662 61.8253 11.1239C61.8253 10.4816 62.3456 9.9613 62.9893 9.9613ZM62.9893 7.73387C61.1192 7.73387 59.598 9.25521 59.598 11.1253C59.598 12.9955 61.1192 14.5168 62.9893 14.5168C64.8594 14.5168 66.3807 12.9955 66.3807 11.1253C66.3807 9.25521 64.8594 7.73387 62.9893 7.73387Z" fill="white"/>
<path d="M11.8402 60.6069C13.2608 60.6069 14.412 61.7582 14.412 63.1789C14.412 64.5996 13.2608 65.7509 11.8402 65.7509C10.4195 65.7509 9.26828 64.5996 9.26828 63.1789C9.26828 61.7582 10.4195 60.6069 11.8402 60.6069ZM11.8402 58.3795C9.19455 58.3795 7.04092 60.5332 7.04092 63.1789C7.04092 65.8246 9.19455 67.9783 11.8402 67.9783C14.4858 67.9783 16.6394 65.8246 16.6394 63.1789C16.6394 60.5332 14.4858 58.3795 11.8402 58.3795Z" fill="white"/>
<path d="M37.8639 11.3091C26.4512 11.3091 17.1979 14.6814 17.1979 18.8435V25.0258C17.1979 29.1894 26.4512 32.5602 37.8639 32.5602C49.2767 32.5602 58.5285 29.1879 58.5285 25.0258V18.8435C58.5285 14.6814 49.2767 11.3091 37.8639 11.3091Z" fill="white"/>
<path d="M37.8636 36.1654C26.9675 36.1654 17.983 33.0897 17.1975 29.1874C17.1623 29.3753 17.1975 39.4011 17.1975 39.4011C17.1975 43.5647 26.4508 46.9355 37.8636 46.9355C49.2763 46.9355 58.5281 43.5618 58.5281 39.4011C58.5281 39.4011 58.5516 29.3753 58.5134 29.1874C57.728 33.0897 48.761 36.1654 37.865 36.1654H37.8636Z" fill="white"/>
<path d="M58.5079 43.7359C57.7225 47.6367 48.7614 50.7124 37.8639 50.7124C26.9665 50.7124 17.9833 47.6367 17.1979 43.7359V53.9481C17.1979 58.1103 26.4512 61.4825 37.8639 61.4825C49.2767 61.4825 58.5285 58.1103 58.5285 53.9481L58.5079 43.7359Z" fill="white"/>
</svg>
