<svg width="741" height="178" viewBox="0 0 741 178" fill="none" xmlns="http://www.w3.org/2000/svg">
<path d="M89.0015 178C72.3418 178 56.0995 173.37 42.0274 164.607C40.7892 163.837 40.4089 162.205 41.1795 160.966C41.95 159.728 43.5787 159.351 44.8203 160.118C58.0545 168.359 73.3311 172.714 89.0015 172.714C135.161 172.714 172.713 135.16 172.713 88.9987C172.713 71.9212 167.606 55.4966 157.942 41.4981C157.11 40.2968 157.413 38.6513 158.615 37.8202C159.816 36.989 161.461 37.2918 162.292 38.4932C172.569 53.38 178 70.8444 178 88.9987C178 138.074 138.075 178 89.0015 178Z" fill="url(#paint0_linear_733_6208)"/>
<path d="M15.7545 137.407C14.8729 137.407 14.0114 136.966 13.5101 136.165C4.67048 122.049 0 105.739 0 89.0013C0 39.9259 39.9245 0 88.9983 0C105.978 0 122.486 4.79851 136.739 13.8773C137.971 14.6614 138.334 16.2968 137.55 17.525C136.766 18.7566 135.131 19.12 133.903 18.336C120.5 9.79893 104.971 5.28644 89.0016 5.28644C42.8419 5.28644 5.28963 42.84 5.28963 89.0013C5.28963 104.746 9.68419 120.084 17.9955 133.359C18.7694 134.597 18.3959 136.229 17.1576 137.003C16.7202 137.276 16.2356 137.407 15.7578 137.407H15.7545Z" fill="url(#paint1_linear_733_6208)"/>
<path d="M149.495 23.6415C151.019 23.6415 152.254 24.8764 152.254 26.4008C152.254 27.9252 151.019 29.1601 149.495 29.1601C147.97 29.1601 146.732 27.9252 146.732 26.4008C146.732 24.8764 147.967 23.6415 149.495 23.6415ZM149.495 18.355C145.056 18.355 141.446 21.9657 141.446 26.4042C141.446 30.8426 145.056 34.4533 149.495 34.4533C153.933 34.4533 157.543 30.8426 157.543 26.4042C157.543 21.9657 153.933 18.355 149.495 18.355Z" fill="#0D87C5"/>
<path d="M28.1006 143.84C31.4723 143.84 34.2046 146.573 34.2046 149.945C34.2046 153.316 31.4723 156.049 28.1006 156.049C24.729 156.049 21.9967 153.316 21.9967 149.945C21.9967 146.573 24.729 143.84 28.1006 143.84ZM28.1006 138.554C21.8217 138.554 16.7104 143.665 16.7104 149.945C16.7104 156.224 21.8217 161.335 28.1006 161.335C34.3795 161.335 39.4908 156.224 39.4908 149.945C39.4908 143.665 34.3795 138.554 28.1006 138.554Z" fill="#0D87C5"/>
<path d="M89.8637 26.8403C62.7774 26.8403 40.8164 34.8439 40.8164 44.722V59.3945C40.8164 69.2761 62.7774 77.2761 89.8637 77.2761C116.95 77.2761 138.908 69.2726 138.908 59.3945V44.722C138.908 34.8439 116.95 26.8403 89.8637 26.8403Z" fill="url(#paint2_linear_733_6208)"/>
<path d="M89.8628 85.8325C64.003 85.8325 42.6795 78.5328 40.8155 69.2714C40.7319 69.7174 40.8155 93.5119 40.8155 93.5119C40.8155 103.394 62.7765 111.394 89.8628 111.394C116.949 111.394 138.907 103.387 138.907 93.5119C138.907 93.5119 138.962 69.7174 138.872 69.2714C137.008 78.5328 115.726 85.8325 89.8663 85.8325H89.8628Z" fill="url(#paint3_linear_733_6208)"/>
<path d="M138.859 103.8C136.995 113.058 115.727 120.357 89.8637 120.357C64.0004 120.357 42.6805 113.058 40.8164 103.8V128.037C40.8164 137.915 62.7774 145.919 89.8637 145.919C116.95 145.919 138.908 137.915 138.908 128.037L138.859 103.8Z" fill="url(#paint4_linear_733_6208)"/>
<path d="M468.708 136.383C443.547 136.383 423.151 116.006 423.151 90.8671C423.151 65.7284 443.547 45.3512 468.708 45.3512C481.398 45.3512 492.869 50.5374 501.13 58.9049C491.614 45.9159 476.243 37.4707 458.891 37.4707C429.991 37.4707 406.562 60.8737 406.562 89.748C406.562 118.622 429.991 142.025 458.886 142.025C471.923 142.025 483.84 137.248 493.009 129.363C485.972 133.808 477.643 136.388 468.708 136.388" fill="#1D3366"/>
<path d="M484.368 52.6699C495.321 59.0789 502.685 70.954 502.685 84.5492C502.685 104.942 486.137 121.47 465.731 121.475C446.74 121.475 431.105 107.165 429.02 88.7511C428.984 89.4764 428.958 90.2018 428.958 90.9323C428.958 113.522 447.29 131.832 469.895 131.832C492.5 131.832 510.831 113.517 510.831 90.9323C510.831 73.4358 499.832 58.5142 484.368 52.6699Z" fill="#1D3366"/>
<path d="M464.634 55.4941C450.897 55.4941 439.296 64.6232 435.568 77.1408C439.732 67.8562 449.061 61.3902 459.905 61.3902C474.632 61.3902 486.57 73.3171 486.57 88.0314C486.57 102.746 474.632 114.673 459.905 114.673C457.499 114.673 455.165 114.346 452.945 113.75C456.539 115.253 460.491 116.082 464.634 116.087C481.384 116.087 494.956 102.518 494.956 85.788C494.956 69.0531 481.379 55.4941 464.634 55.4941Z" fill="#1D3366"/>
<path d="M201.974 61.5404C206.403 53.4885 212.596 47.2059 220.519 42.7286C228.441 38.2152 237.407 35.9766 247.454 35.9766C259.769 35.9766 270.32 39.2262 279.07 45.7616C287.821 52.297 293.69 61.1794 296.643 72.4448H268.88C266.827 68.112 263.874 64.7901 260.093 62.5153C256.312 60.2406 251.991 59.1213 247.166 59.1213C239.388 59.1213 233.086 61.8293 228.261 67.2815C223.435 72.6976 221.023 79.9912 221.023 89.0541C221.023 98.117 223.435 105.411 228.261 110.827C233.086 116.243 239.388 118.987 247.166 118.987C251.991 118.987 256.312 117.868 260.093 115.593C263.874 113.318 266.827 110.032 268.88 105.663H296.643C293.69 116.929 287.821 125.775 279.07 132.238C270.284 138.702 259.769 141.951 247.454 141.951C237.407 141.951 228.405 139.713 220.483 135.199C212.56 130.722 206.367 124.475 201.938 116.459C197.508 108.444 195.276 99.3086 195.276 89.0541C195.276 78.7997 197.508 69.6285 201.938 61.5766L201.974 61.5404Z" fill="#1D3366"/>
<path d="M389.439 96.779C393.076 101.473 394.913 106.817 394.913 112.847C394.913 121.549 391.888 128.445 385.838 133.5C379.789 138.591 371.326 141.119 360.487 141.119H312.163V37.166H358.831C369.382 37.166 377.628 39.5852 383.57 44.4236C389.511 49.2619 392.5 55.8334 392.5 64.1381C392.5 70.2763 390.88 75.3313 387.711 79.4114C384.506 83.4554 380.257 86.2718 374.927 87.8605C380.941 89.1604 385.766 92.1212 389.403 96.8151L389.439 96.779ZM337.441 79.2309H354.006C358.147 79.2309 361.316 78.3282 363.548 76.4867C365.781 74.6453 366.861 71.9733 366.861 68.3987C366.861 64.8241 365.745 62.1161 363.548 60.2385C361.352 58.3609 358.147 57.4221 354.006 57.4221H337.441V79.1948V79.2309ZM365.889 117.829C368.194 115.916 369.346 113.099 369.346 109.453C369.346 105.806 368.122 102.953 365.709 100.859C363.296 98.801 359.983 97.7539 355.734 97.7539H337.405V120.718H356.022C360.271 120.718 363.548 119.743 365.853 117.829H365.889Z" fill="#1D3366"/>
<path d="M578.563 141.155L556.993 101.906H550.943V141.155H525.665V37.166H568.048C576.222 37.166 583.208 38.6103 588.969 41.4628C594.731 44.3152 599.052 48.2509 601.897 53.2337C604.742 58.2165 606.182 63.777 606.182 69.9152C606.182 76.8117 604.238 82.986 600.348 88.4382C596.459 93.8543 590.734 97.7178 583.136 99.9925L607.082 141.191H578.563V141.155ZM550.907 83.997H566.571C571.217 83.997 574.674 82.8777 576.978 80.603C579.283 78.3282 580.435 75.1147 580.435 70.9623C580.435 66.81 579.283 63.8853 576.978 61.6467C574.674 59.3719 571.181 58.2526 566.571 58.2526H550.907V84.0331V83.997Z" fill="#1D3366"/>
<path d="M740.09 37.666V141.04H714.892V79.0514L691.777 141.04H671.461L648.202 78.9078V141.04H623.005V37.666H652.761L681.763 109.238L710.477 37.666H740.09Z" fill="#1D3366"/>
<defs>
<linearGradient id="paint0_linear_733_6208" x1="141.193" y1="41.8795" x2="32.3067" y2="169.911" gradientUnits="userSpaceOnUse">
<stop offset="0.278846" stop-color="#33CFFF"/>
<stop offset="1" stop-color="#0D87C5"/>
</linearGradient>
<linearGradient id="paint1_linear_733_6208" x1="141.193" y1="41.8795" x2="32.3067" y2="169.911" gradientUnits="userSpaceOnUse">
<stop offset="0.278846" stop-color="#33CFFF"/>
<stop offset="1" stop-color="#0D87C5"/>
</linearGradient>
<linearGradient id="paint2_linear_733_6208" x1="141.193" y1="41.8795" x2="32.3067" y2="169.911" gradientUnits="userSpaceOnUse">
<stop offset="0.278846" stop-color="#33CFFF"/>
<stop offset="1" stop-color="#0D87C5"/>
</linearGradient>
<linearGradient id="paint3_linear_733_6208" x1="141.193" y1="41.8795" x2="32.3067" y2="169.911" gradientUnits="userSpaceOnUse">
<stop offset="0.278846" stop-color="#33CFFF"/>
<stop offset="1" stop-color="#0D87C5"/>
</linearGradient>
<linearGradient id="paint4_linear_733_6208" x1="141.193" y1="41.8795" x2="32.3067" y2="169.911" gradientUnits="userSpaceOnUse">
<stop offset="0.278846" stop-color="#33CFFF"/>
<stop offset="1" stop-color="#0D87C5"/>
</linearGradient>
</defs>
</svg>
