<svg width="250" height="250" viewBox="0 0 250 250" fill="none" xmlns="http://www.w3.org/2000/svg">
<path d="M125.002 250C101.604 250 78.7914 243.497 59.0273 231.19C57.2881 230.108 56.7541 227.815 57.8364 226.076C58.9186 224.337 61.206 223.808 62.9499 224.885C81.5372 236.46 102.993 242.575 125.002 242.575C189.833 242.575 242.575 189.831 242.575 124.998C242.575 101.013 235.401 77.9446 221.828 58.2839C220.661 56.5966 221.086 54.2856 222.773 53.1182C224.46 51.9508 226.771 52.3762 227.939 54.0634C242.372 74.9719 250 99.5006 250 124.998C250 193.924 193.926 250 125.002 250Z" fill="url(#paint0_linear_733_7064)"/>
<path d="M22.1271 192.987C20.8889 192.987 19.679 192.368 18.9748 191.244C6.55967 171.417 0 148.51 0 125.002C0 56.0757 56.0738 0 124.998 0C148.845 0 172.031 6.73948 192.05 19.4906C193.78 20.5918 194.29 22.8887 193.189 24.6138C192.088 26.3435 189.791 26.854 188.066 25.7528C169.242 13.7625 147.432 7.42478 125.002 7.42478C60.1712 7.42478 7.42925 60.1686 7.42925 125.002C7.42925 147.115 13.6014 168.657 25.2746 187.302C26.3615 189.041 25.837 191.333 24.0978 192.42C23.4834 192.803 22.8029 192.987 22.1318 192.987H22.1271Z" fill="url(#paint1_linear_733_7064)"/>
<path d="M209.964 33.2043C212.105 33.2043 213.84 34.9388 213.84 37.0798C213.84 39.2207 212.105 40.9552 209.964 40.9552C207.824 40.9552 206.084 39.2207 206.084 37.0798C206.084 34.9388 207.819 33.2043 209.964 33.2043ZM209.964 25.7796C203.731 25.7796 198.66 30.8507 198.66 37.0845C198.66 43.3183 203.731 48.3894 209.964 48.3894C216.198 48.3894 221.269 43.3183 221.269 37.0845C221.269 30.8507 216.198 25.7796 209.964 25.7796Z" fill="#0D87C5"/>
<path d="M39.4672 202.023C44.2026 202.023 48.0401 205.861 48.0401 210.596C48.0401 215.332 44.2026 219.17 39.4672 219.17C34.7318 219.17 30.8943 215.332 30.8943 210.596C30.8943 205.861 34.7318 202.023 39.4672 202.023ZM39.4672 194.598C30.6485 194.598 23.4697 201.777 23.4697 210.596C23.4697 219.415 30.6485 226.594 39.4672 226.594C48.2859 226.594 55.4646 219.415 55.4646 210.596C55.4646 201.777 48.2859 194.598 39.4672 194.598Z" fill="#0D87C5"/>
<path d="M126.213 37.6971C88.1706 37.6971 57.3264 48.938 57.3264 62.8117V83.4192C57.3264 97.2979 88.1706 108.534 126.213 108.534C164.256 108.534 195.095 97.293 195.095 83.4192V62.8117C195.095 48.938 164.256 37.6971 126.213 37.6971Z" fill="url(#paint2_linear_733_7064)"/>
<path d="M126.212 120.551C89.8918 120.551 59.9432 110.299 57.3251 97.2913C57.2077 97.9177 57.3251 131.337 57.3251 131.337C57.3251 145.216 88.1693 156.452 126.212 156.452C164.254 156.452 195.094 145.206 195.094 131.337C195.094 131.337 195.172 97.9177 195.045 97.2913C192.427 110.299 162.537 120.551 126.217 120.551H126.212Z" fill="url(#paint3_linear_733_7064)"/>
<path d="M195.026 145.786C192.408 158.789 162.538 169.041 126.213 169.041C89.8882 169.041 59.9445 158.789 57.3264 145.786V179.827C57.3264 193.701 88.1706 204.942 126.213 204.942C164.256 204.942 195.095 193.701 195.095 179.827L195.026 145.786Z" fill="url(#paint4_linear_733_7064)"/>
<defs>
<linearGradient id="paint0_linear_733_7064" x1="198.305" y1="58.8195" x2="45.3745" y2="238.639" gradientUnits="userSpaceOnUse">
<stop offset="0.278846" stop-color="#33CFFF"/>
<stop offset="1" stop-color="#0D87C5"/>
</linearGradient>
<linearGradient id="paint1_linear_733_7064" x1="198.305" y1="58.8195" x2="45.3745" y2="238.639" gradientUnits="userSpaceOnUse">
<stop offset="0.278846" stop-color="#33CFFF"/>
<stop offset="1" stop-color="#0D87C5"/>
</linearGradient>
<linearGradient id="paint2_linear_733_7064" x1="198.305" y1="58.8195" x2="45.3745" y2="238.639" gradientUnits="userSpaceOnUse">
<stop offset="0.278846" stop-color="#33CFFF"/>
<stop offset="1" stop-color="#0D87C5"/>
</linearGradient>
<linearGradient id="paint3_linear_733_7064" x1="198.305" y1="58.8195" x2="45.3745" y2="238.639" gradientUnits="userSpaceOnUse">
<stop offset="0.278846" stop-color="#33CFFF"/>
<stop offset="1" stop-color="#0D87C5"/>
</linearGradient>
<linearGradient id="paint4_linear_733_7064" x1="198.305" y1="58.8195" x2="45.3745" y2="238.639" gradientUnits="userSpaceOnUse">
<stop offset="0.278846" stop-color="#33CFFF"/>
<stop offset="1" stop-color="#0D87C5"/>
</linearGradient>
</defs>
</svg>
