<svg width="500" height="500" viewBox="0 0 500 500" fill="none" xmlns="http://www.w3.org/2000/svg">
<path d="M250.004 500C203.207 500 157.583 486.994 118.055 462.38C114.576 460.215 113.508 455.631 115.673 452.152C117.837 448.674 122.412 447.615 125.9 449.771C163.074 472.919 205.986 485.15 250.004 485.15C379.666 485.15 485.15 379.663 485.15 249.996C485.15 202.026 470.802 155.889 443.656 116.568C441.321 113.193 442.172 108.571 445.546 106.236C448.921 103.902 453.543 104.752 455.877 108.127C484.744 149.944 499.999 199.001 499.999 249.996C499.999 387.849 387.852 500 250.004 500Z" fill="white"/>
<path d="M44.2541 385.975C41.7777 385.975 39.358 384.737 37.9497 382.487C13.1193 342.835 0 297.019 0 250.004C0 112.151 112.148 0 249.995 0C297.69 0 344.061 13.479 384.1 38.9813C387.559 41.1836 388.58 45.7774 386.378 49.2275C384.175 52.6871 379.582 53.7079 376.132 51.5055C338.484 27.5251 294.864 14.8496 250.005 14.8496C120.342 14.8496 14.8585 120.337 14.8585 250.004C14.8585 294.231 27.2028 337.314 50.5491 374.604C52.7231 378.082 51.6739 382.667 48.1956 384.841C46.9668 385.606 45.6057 385.975 44.2636 385.975H44.2541Z" fill="white"/>
<path d="M419.929 66.4087C424.211 66.4087 427.679 69.8777 427.679 74.1596C427.679 78.4414 424.211 81.9104 419.929 81.9104C415.647 81.9104 412.169 78.4414 412.169 74.1596C412.169 69.8777 415.638 66.4087 419.929 66.4087ZM419.929 51.5591C407.462 51.5591 397.32 61.7014 397.32 74.169C397.32 86.6366 407.462 96.7789 419.929 96.7789C432.396 96.7789 442.538 86.6366 442.538 74.169C442.538 61.7014 432.396 51.5591 419.929 51.5591Z" fill="white"/>
<path d="M78.9344 404.046C88.4053 404.046 96.0802 411.721 96.0802 421.193C96.0802 430.664 88.4053 438.339 78.9344 438.339C69.4635 438.339 61.7885 430.664 61.7885 421.193C61.7885 411.721 69.4635 404.046 78.9344 404.046ZM78.9344 389.197C61.297 389.197 46.9395 403.555 46.9395 421.193C46.9395 438.831 61.297 453.189 78.9344 453.189C96.5718 453.189 110.929 438.831 110.929 421.193C110.929 403.555 96.5718 389.197 78.9344 389.197Z" fill="white"/>
<path d="M252.426 75.3942C176.341 75.3942 114.653 97.876 114.653 125.623V166.838C114.653 194.596 176.341 217.068 252.426 217.068C328.511 217.068 390.19 194.586 390.19 166.838V125.623C390.19 97.876 328.511 75.3942 252.426 75.3942Z" fill="white"/>
<path d="M252.424 241.102C179.784 241.102 119.886 220.598 114.65 194.583C114.415 195.835 114.65 262.674 114.65 262.674C114.65 290.431 176.339 312.903 252.424 312.903C328.509 312.903 390.187 290.412 390.187 262.674C390.187 262.674 390.344 195.835 390.089 194.583C384.853 220.598 325.074 241.102 252.433 241.102H252.424Z" fill="white"/>
<path d="M390.053 291.573C384.817 317.578 325.076 338.083 252.426 338.083C179.776 338.083 119.889 317.578 114.653 291.573V359.654C114.653 387.402 176.341 409.884 252.426 409.884C328.511 409.884 390.19 387.402 390.19 359.654L390.053 291.573Z" fill="white"/>
</svg>
