<svg width="208" height="50" viewBox="0 0 208 50" fill="none" xmlns="http://www.w3.org/2000/svg">
<path d="M25.0004 50C20.3207 50 15.7583 48.6994 11.8055 46.238C11.4576 46.0215 11.3508 45.5631 11.5673 45.2152C11.7837 44.8674 12.2412 44.7615 12.59 44.977C16.3074 47.2919 20.5986 48.515 25.0004 48.515C37.9666 48.515 48.515 37.9663 48.515 24.9996C48.515 20.2026 47.0802 15.5889 44.3656 11.6568C44.1321 11.3193 44.2172 10.8571 44.5546 10.6236C44.892 10.3902 45.3542 10.4752 45.5877 10.8127C48.4743 14.9944 49.9999 19.9001 49.9999 24.9996C49.9999 38.7849 38.7851 50 25.0004 50Z" fill="#1D3366"/>
<path d="M4.42541 38.5975C4.17777 38.5975 3.9358 38.4737 3.79496 38.2487C1.31193 34.2835 0 29.7019 0 25.0004C0 11.2151 11.2148 0 24.9995 0C29.7689 0 34.4061 1.3479 38.4099 3.89812C38.7559 4.11836 38.858 4.57774 38.6377 4.92275C38.4175 5.26871 37.9581 5.37079 37.6131 5.15055C33.8484 2.75251 29.4863 1.48495 25.0004 1.48495C12.0342 1.48495 1.48585 12.0337 1.48585 25.0004C1.48585 29.4231 2.72027 33.7314 5.05491 37.4604C5.2723 37.8082 5.16739 38.2667 4.81955 38.4841C4.69668 38.5606 4.56057 38.5975 4.42635 38.5975H4.42541Z" fill="#1D3366"/>
<path d="M41.9928 6.64087C42.421 6.64087 42.7679 6.98777 42.7679 7.41596C42.7679 7.84414 42.421 8.19104 41.9928 8.19104C41.5647 8.19104 41.2168 7.84414 41.2168 7.41596C41.2168 6.98777 41.5637 6.64087 41.9928 6.64087ZM41.9928 5.15591C40.7461 5.15591 39.7319 6.17014 39.7319 7.4169C39.7319 8.66366 40.7461 9.67789 41.9928 9.67789C43.2396 9.67789 44.2537 8.66366 44.2537 7.4169C44.2537 6.17014 43.2396 5.15591 41.9928 5.15591Z" fill="#1D3366"/>
<path d="M7.89343 40.4046C8.84052 40.4046 9.60802 41.1721 9.60802 42.1193C9.60802 43.0664 8.84052 43.8339 7.89343 43.8339C6.94634 43.8339 6.17885 43.0664 6.17885 42.1193C6.17885 41.1721 6.94634 40.4046 7.89343 40.4046ZM7.89343 38.9197C6.1297 38.9197 4.69394 40.3555 4.69394 42.1193C4.69394 43.8831 6.1297 45.3189 7.89343 45.3189C9.65717 45.3189 11.0929 43.8831 11.0929 42.1193C11.0929 40.3555 9.65717 38.9197 7.89343 38.9197Z" fill="#1D3366"/>
<path d="M25.2426 7.53942C17.6341 7.53942 11.4653 9.7876 11.4653 12.5623V16.6838C11.4653 19.4596 17.6341 21.7068 25.2426 21.7068C32.8511 21.7068 39.019 19.4586 39.019 16.6838V12.5623C39.019 9.7876 32.8511 7.53942 25.2426 7.53942Z" fill="#1D3366"/>
<path d="M25.2423 24.1102C17.9783 24.1102 11.9886 22.0598 11.465 19.4583C11.4415 19.5835 11.465 26.2674 11.465 26.2674C11.465 29.0431 17.6338 31.2903 25.2423 31.2903C32.8509 31.2903 39.0187 29.0412 39.0187 26.2674C39.0187 26.2674 39.0344 19.5835 39.0089 19.4583C38.4853 22.0598 32.5073 24.1102 25.2433 24.1102H25.2423Z" fill="#1D3366"/>
<path d="M39.0053 29.1573C38.4816 31.7578 32.5076 33.8083 25.2426 33.8083C17.9776 33.8083 11.9889 31.7578 11.4653 29.1573V35.9654C11.4653 38.7402 17.6341 40.9884 25.2426 40.9884C32.8511 40.9884 39.019 38.7402 39.019 35.9654L39.0053 29.1573Z" fill="#1D3366"/>
<path d="M131.659 38.3098C124.591 38.3098 118.862 32.5858 118.862 25.5244C118.862 18.4629 124.591 12.739 131.659 12.739C135.224 12.739 138.446 14.1958 140.766 16.5462C138.093 12.8976 133.776 10.5254 128.902 10.5254C120.783 10.5254 114.202 17.0993 114.202 25.21C114.202 33.3208 120.783 39.8946 128.9 39.8946C132.562 39.8946 135.91 38.5528 138.485 36.3377C136.508 37.5864 134.169 38.3112 131.659 38.3112" fill="#1D3366"/>
<path d="M136.058 14.7949C139.134 16.5952 141.203 19.9309 141.203 23.7498C141.203 29.4781 136.555 34.1207 130.823 34.1222C125.488 34.1222 121.096 30.1024 120.511 24.9301C120.5 25.1338 120.493 25.3376 120.493 25.5428C120.493 31.8882 125.643 37.0314 131.992 37.0314C138.342 37.0314 143.491 31.8867 143.491 25.5428C143.491 20.628 140.402 16.4366 136.058 14.7949Z" fill="#1D3366"/>
<path d="M130.514 15.5879C126.656 15.5879 123.397 18.1522 122.35 21.6684C123.519 19.0604 126.14 17.2441 129.186 17.2441C133.323 17.2441 136.676 20.5943 136.676 24.7276C136.676 28.8608 133.323 32.2111 129.186 32.2111C128.51 32.2111 127.854 32.1194 127.231 31.952C128.24 32.3741 129.35 32.6069 130.514 32.6084C135.219 32.6084 139.032 28.7968 139.032 24.0974C139.032 19.3966 135.218 15.5879 130.514 15.5879Z" fill="#1D3366"/>
<path d="M56.7339 17.2863C57.9781 15.0246 59.7179 13.2598 61.9432 12.0021C64.1685 10.7343 66.6871 10.1055 69.5092 10.1055C72.9686 10.1055 75.9323 11.0183 78.3903 12.8541C80.8482 14.6899 82.497 17.1849 83.3264 20.3494H75.5277C74.9511 19.1323 74.1217 18.1992 73.0596 17.5602C71.9975 16.9212 70.7837 16.6068 69.4283 16.6068C67.2435 16.6068 65.4733 17.3675 64.1179 18.899C62.7625 20.4204 62.0848 22.4691 62.0848 25.0149C62.0848 27.5607 62.7625 29.6094 64.1179 31.1308C65.4733 32.6522 67.2435 33.423 69.4283 33.423C70.7837 33.423 71.9975 33.1086 73.0596 32.4696C74.1217 31.8306 74.9511 30.9077 75.5277 29.6804H83.3264C82.497 32.8449 80.8482 35.3298 78.3903 37.1453C75.9222 38.9608 72.9686 39.8736 69.5092 39.8736C66.6871 39.8736 64.1584 39.2448 61.9331 37.977C59.7078 36.7193 57.968 34.9647 56.7238 32.713C55.4797 30.4614 54.8525 27.8954 54.8525 25.0149C54.8525 22.1344 55.4797 19.5582 56.7238 17.2965L56.7339 17.2863Z" fill="#1D3366"/>
<path d="M109.393 27.1847C110.415 28.5032 110.931 30.0043 110.931 31.6981C110.931 34.1424 110.081 36.0796 108.382 37.4996C106.683 38.9296 104.306 39.6396 101.261 39.6396H87.6865V10.4395H100.796C103.759 10.4395 106.076 11.119 107.745 12.4781C109.414 13.8372 110.253 15.6831 110.253 18.0159C110.253 19.7401 109.798 21.16 108.908 22.3061C108.008 23.4421 106.814 24.2332 105.317 24.6795C107.006 25.0446 108.362 25.8763 109.383 27.1948L109.393 27.1847ZM94.7873 22.2554H99.4402C100.603 22.2554 101.494 22.0019 102.121 21.4846C102.748 20.9673 103.051 20.2168 103.051 19.2127C103.051 18.2086 102.738 17.4479 102.121 16.9205C101.504 16.3931 100.603 16.1294 99.4402 16.1294H94.7873V22.2453V22.2554ZM102.778 33.0977C103.426 32.5602 103.749 31.7691 103.749 30.7447C103.749 29.7203 103.405 28.919 102.728 28.3308C102.05 27.7526 101.119 27.4585 99.9257 27.4585H94.7772V33.9091H100.007C101.2 33.9091 102.121 33.6353 102.768 33.0977H102.778Z" fill="#1D3366"/>
<path d="M162.517 39.6498L156.458 28.6249H154.759V39.6498H147.658V10.4395H159.564C161.86 10.4395 163.822 10.8452 165.44 11.6464C167.059 12.4477 168.273 13.5532 169.072 14.9529C169.871 16.3525 170.275 17.9145 170.275 19.6387C170.275 21.5759 169.729 23.3102 168.637 24.8418C167.544 26.3631 165.936 27.4484 163.802 28.0873L170.528 39.6599H162.517V39.6498ZM154.749 23.5942H159.149C160.454 23.5942 161.425 23.2798 162.072 22.6408C162.72 22.0019 163.043 21.0992 163.043 19.9328C163.043 18.7664 162.72 17.9449 162.072 17.316C161.425 16.6771 160.444 16.3627 159.149 16.3627H154.749V23.6044V23.5942Z" fill="#1D3366"/>
<path d="M207.89 10.5801V39.6176H200.812V22.2052L194.319 39.6176H188.612L182.079 22.1648V39.6176H175.001V10.5801H183.359L191.506 30.6845L199.572 10.5801H207.89Z" fill="#1D3366"/>
</svg>
