<svg width="416" height="100" viewBox="0 0 416 100" fill="none" xmlns="http://www.w3.org/2000/svg">
<path d="M50.0007 100C40.6414 100 31.5165 97.3987 23.6109 92.476C22.9152 92.0431 22.7016 91.1262 23.1345 90.4305C23.5674 89.7348 24.4823 89.5231 25.1799 89.9541C32.6148 94.5838 41.1972 97.0301 50.0007 97.0301C75.9331 97.0301 97.0298 75.9326 97.0298 49.9993C97.0298 40.4052 94.1602 31.1779 88.731 23.3135C88.2641 22.6387 88.4342 21.7142 89.1091 21.2473C89.784 20.7803 90.7084 20.9505 91.1753 21.6254C96.9485 29.9888 99.9996 39.8002 99.9996 49.9993C99.9996 77.5697 77.5702 100 50.0007 100Z" fill="white"/>
<path d="M8.8508 77.195C8.35552 77.195 7.87158 76.9473 7.58991 76.4974C2.62386 68.5669 0 59.4039 0 50.0007C0 22.4303 22.4295 0 49.9989 0C59.5378 0 68.8121 2.69579 76.8198 7.79625C77.5116 8.23673 77.7158 9.15549 77.2753 9.84551C76.8349 10.5374 75.9162 10.7416 75.2262 10.3011C67.6967 5.50501 58.9726 2.96991 50.0008 2.96991C24.0684 2.96991 2.97169 24.0674 2.97169 50.0007C2.97169 58.8462 5.44054 67.4629 10.1098 74.9208C10.5446 75.6164 10.3348 76.5333 9.6391 76.9681C9.39335 77.1212 9.12113 77.195 8.85269 77.195H8.8508Z" fill="white"/>
<path d="M83.9856 13.2817C84.8419 13.2817 85.5357 13.9755 85.5357 14.8319C85.5357 15.6883 84.8419 16.3821 83.9856 16.3821C83.1292 16.3821 82.4336 15.6883 82.4336 14.8319C82.4336 13.9755 83.1273 13.2817 83.9856 13.2817ZM83.9856 10.3118C81.4922 10.3118 79.4638 12.3403 79.4638 14.8338C79.4638 17.3273 81.4922 19.3558 83.9856 19.3558C86.479 19.3558 88.5074 17.3273 88.5074 14.8338C88.5074 12.3403 86.479 10.3118 83.9856 10.3118Z" fill="white"/>
<path d="M15.7868 80.8092C17.681 80.8092 19.216 82.3443 19.216 84.2385C19.216 86.1328 17.681 87.6678 15.7868 87.6678C13.8927 87.6678 12.3577 86.1328 12.3577 84.2385C12.3577 82.3443 13.8927 80.8092 15.7868 80.8092ZM15.7868 77.8393C12.2594 77.8393 9.38787 80.7109 9.38787 84.2385C9.38787 87.7661 12.2594 90.6377 15.7868 90.6377C19.3143 90.6377 22.1858 87.7661 22.1858 84.2385C22.1858 80.7109 19.3143 77.8393 15.7868 77.8393Z" fill="white"/>
<path d="M50.4851 15.0788C35.2681 15.0788 22.9305 19.5752 22.9305 25.1247V33.3677C22.9305 38.9191 35.2681 43.4136 50.4851 43.4136C65.7021 43.4136 78.0378 38.9172 78.0378 33.3677V25.1247C78.0378 19.5752 65.7021 15.0788 50.4851 15.0788Z" fill="white"/>
<path d="M50.4846 48.2205C35.9566 48.2205 23.9772 44.1195 22.93 38.9165C22.883 39.1671 22.93 52.5348 22.93 52.5348C22.93 58.0862 35.2676 62.5807 50.4846 62.5807C65.7016 62.5807 78.0373 58.0823 78.0373 52.5348C78.0373 52.5348 78.0686 39.1671 78.0177 38.9165C76.9705 44.1195 65.0146 48.2205 50.4866 48.2205H50.4846Z" fill="white"/>
<path d="M78.0104 58.3145C76.9632 63.5156 65.0151 67.6165 50.4851 67.6165C35.9552 67.6165 23.9777 63.5156 22.9305 58.3145V71.9308C22.9305 77.4803 35.2681 81.9767 50.4851 81.9767C65.7021 81.9767 78.0378 77.4803 78.0378 71.9308L78.0104 58.3145Z" fill="white"/>
<path d="M263.318 76.6195C249.182 76.6195 237.724 65.1716 237.724 51.0488C237.724 36.9259 249.182 25.478 263.318 25.478C270.447 25.478 276.891 28.3916 281.532 33.0925C276.186 25.7953 267.551 21.0508 257.803 21.0508C241.567 21.0508 228.404 34.1985 228.404 50.42C228.404 66.6415 241.567 79.7893 257.8 79.7893C265.124 79.7893 271.819 77.1056 276.97 72.6755C273.017 75.1729 268.338 76.6224 263.318 76.6224" fill="white"/>
<path d="M272.116 29.5898C278.269 33.1904 282.406 39.8618 282.406 47.4996C282.406 58.9562 273.109 68.2414 261.645 68.2443C250.976 68.2443 242.192 60.2049 241.021 49.8602C241.001 50.2677 240.986 50.6752 240.986 51.0856C240.986 63.7763 251.285 74.0629 263.984 74.0629C276.684 74.0629 286.983 63.7734 286.983 51.0856C286.983 41.256 280.803 32.8731 272.116 29.5898Z" fill="white"/>
<path d="M261.029 31.1758C253.311 31.1758 246.794 36.3045 244.699 43.3368C247.039 38.1208 252.28 34.4882 258.372 34.4882C266.646 34.4882 273.352 41.1887 273.352 49.4552C273.352 57.7216 266.646 64.4221 258.372 64.4221C257.02 64.4221 255.709 64.2388 254.462 63.904C256.481 64.7481 258.701 65.2139 261.029 65.2168C270.439 65.2168 278.063 57.5936 278.063 48.1948C278.063 38.7932 270.436 31.1758 261.029 31.1758Z" fill="white"/>
<path d="M113.468 34.5727C115.956 30.0491 119.436 26.5196 123.886 24.0042C128.337 21.4686 133.374 20.2109 139.018 20.2109C145.937 20.2109 151.865 22.0366 156.78 25.7082C161.696 29.3797 164.994 34.3698 166.653 40.6987H151.055C149.902 38.2645 148.243 36.3983 146.119 35.1204C143.995 33.8424 141.567 33.2136 138.857 33.2136C134.487 33.2136 130.947 34.735 128.236 37.798C125.525 40.8407 124.17 44.9383 124.17 50.0298C124.17 55.1213 125.525 59.2189 128.236 62.2616C130.947 65.3043 134.487 66.846 138.857 66.846C141.567 66.846 143.995 66.2172 146.119 64.9392C148.243 63.6613 149.902 61.8153 151.055 59.3609H166.653C164.994 65.6898 161.696 70.6596 156.78 74.2906C151.844 77.9216 145.937 79.7472 139.018 79.7472C133.374 79.7472 128.317 78.4896 123.866 75.9539C119.416 73.4386 115.936 69.9293 113.448 65.4261C110.959 60.9228 109.705 55.7907 109.705 50.0298C109.705 44.2689 110.959 39.1165 113.448 34.593L113.468 34.5727Z" fill="white"/>
<path d="M218.786 54.3693C220.829 57.0064 221.861 60.0086 221.861 63.3961C221.861 68.2848 220.161 72.1592 216.763 74.9991C213.364 77.8593 208.61 79.2792 202.521 79.2792H175.372V20.8789H201.59C207.518 20.8789 212.15 22.238 215.488 24.9562C218.826 27.6744 220.505 31.3662 220.505 36.0318C220.505 39.4802 219.595 42.3201 217.815 44.6123C216.014 46.8842 213.627 48.4664 210.633 49.359C214.012 50.0892 216.722 51.7526 218.766 54.3896L218.786 54.3693ZM189.574 44.5109H198.879C201.206 44.5109 202.986 44.0037 204.24 42.9692C205.495 41.9347 206.102 40.4336 206.102 38.4254C206.102 36.4172 205.474 34.8958 204.24 33.841C203.006 32.7862 201.206 32.2588 198.879 32.2588H189.574V44.4906V44.5109ZM205.555 66.1955C206.85 65.1204 207.497 63.5381 207.497 61.4893C207.497 59.4406 206.81 57.8381 205.454 56.6615C204.099 55.5053 202.238 54.917 199.85 54.917H189.553V67.8182H200.012C202.399 67.8182 204.24 67.2706 205.535 66.1955H205.555Z" fill="white"/>
<path d="M325.034 79.2995L312.917 57.2498H309.518V79.2995H295.316V20.8789H319.127C323.719 20.8789 327.644 21.6903 330.881 23.2928C334.118 24.8953 336.545 27.1064 338.143 29.9057C339.742 32.705 340.551 35.8289 340.551 39.2773C340.551 43.1518 339.458 46.6205 337.274 49.6835C335.089 52.7263 331.872 54.8967 327.604 56.1747L341.057 79.3198H325.034V79.2995ZM309.498 47.1885H318.298C320.907 47.1885 322.85 46.5596 324.144 45.2817C325.439 44.0037 326.086 42.1984 326.086 39.8656C326.086 37.5328 325.439 35.8898 324.144 34.6321C322.85 33.3541 320.887 32.7253 318.298 32.7253H309.498V47.2088V47.1885Z" fill="white"/>
<path d="M415.779 21.1602V79.2352H401.623V44.4104L388.637 79.2352H377.224L364.157 44.3297V79.2352H350.001V21.1602H366.718L383.011 61.3691L399.143 21.1602H415.779Z" fill="white"/>
</svg>
