<svg width="250" height="250" viewBox="0 0 250 250" fill="none" xmlns="http://www.w3.org/2000/svg">
<path d="M191.433 0H58.5672C26.2641 0 0 26.2512 0 58.5416V191.458C0 223.749 26.2573 250 58.5672 250H191.535L191.433 249.898C223.736 249.898 250 223.647 250 191.357V58.5416C250 26.2512 223.743 0 191.433 0ZM230.507 191.458C230.507 213.019 213 230.52 191.426 230.52H58.5604C36.9866 230.52 19.4795 213.019 19.4795 191.458V58.6433C19.4795 37.0825 36.9866 19.5817 58.5604 19.5817V19.48H191.426C213 19.48 230.507 36.9808 230.507 58.5416V191.458Z" fill="white"/>
<path d="M165.77 76.8052C161.886 72.6706 158.124 68.3462 155.244 63.3983C149.665 53.6854 146.473 44.1013 146.975 34.7002C147.225 31.0062 142.901 28.7491 140.143 31.1892C116.522 52.1807 108.246 84.8913 108.246 123.933C108.246 126.942 105.237 128.948 102.478 127.816C90.3188 122.618 82.0498 113.467 79.7318 98.366C79.2303 94.794 74.845 93.3503 72.527 96.109C58.6189 112.153 54.4167 130.948 56.5517 151.628C58.6189 172.118 73.5912 198.816 91.3897 209.214C124.757 228.504 164.455 217.964 183.568 185.904C195.348 166.166 196.541 142.037 190.02 119.981C185.073 103.375 177.177 88.8971 165.77 76.8052ZM156.247 193.109C146.507 209.478 126.648 213.836 110.815 204.638C102.044 199.501 94.6498 186.338 93.6467 176.252C92.5826 166.038 94.6499 156.765 101.482 148.869C102.675 147.554 104.803 148.245 105.054 149.994C106.186 157.45 110.252 161.964 116.271 164.472C117.654 165.096 119.152 164.099 119.152 162.594C119.091 143.358 123.164 127.254 134.815 116.911C136.198 115.657 138.326 116.782 138.197 118.605C137.947 123.241 139.512 128.006 142.271 132.764C143.714 135.211 145.531 137.34 147.469 139.346C153.048 145.297 156.992 152.509 159.378 160.649C162.638 171.487 162.008 183.396 156.247 193.109Z" fill="white"/>
</svg>
