<svg width="379" height="100" viewBox="0 0 379 100" fill="none" xmlns="http://www.w3.org/2000/svg">
<g clip-path="url(#clip0_670_2718)">
<path d="M60.0596 20.5224C60.0596 20.5224 66.3226 18.221 66.184 21.3702C66.184 21.3702 66.108 22.1772 65.4015 22.9652C79.0714 22.1881 90.0867 30.4862 92.6218 34.9396C92.562 34.8907 92.4995 34.8445 92.4397 34.7983C92.6272 35.0265 92.812 35.2548 92.9886 35.4912C91.4507 29.8205 88.095 20.1285 82.802 18.3813C82.802 18.3813 85.9729 23.802 82.889 25.1361C82.889 25.1361 80.4082 25.1688 79.1203 21.574C79.1203 21.574 76.626 8.42032 67.904 10.7951C64.6353 11.9281 63.5538 13.841 61.3176 15.6017C59.0814 17.3624 56.0491 19.3704 51.2235 16.2864C51.2235 16.2864 54.8427 22.1636 60.0515 20.5252H60.0542L60.0596 20.5224Z" fill="#0D87C5"/>
<path d="M34.9723 50.384C37.2003 39.472 45.1942 30.7092 49.7318 28.0219C52.6744 26.2232 55.5954 24.9652 58.4483 24.15C57.5408 23.9761 44.8654 11.2654 38.6078 20.3352C36.877 23.6718 35.8418 25.6879 30.1684 25.7205C30.1684 25.7205 24.7558 25.1418 23.8402 29.7826C23.8402 29.7826 28.4348 28.6116 29.1766 31.1956C29.1766 31.1956 30.2608 36.0158 22.8321 34.1464C20.5959 33.5568 17.9766 31.1521 15.1671 37.5754C15.1671 37.5754 12.4988 43.7188 8.7519 41.7326C8.7519 41.7326 11.4745 46.8816 14.8899 43.5966C14.8899 43.5966 18.5282 39.7111 20.8731 40.1866C24.1635 40.855 25.0683 46.4088 29.7907 44.5177C32.5622 43.5205 35.8418 43.2488 35.0375 45.9333C32.698 51.1937 29.1467 45.667 24.8401 46.0203C20.0552 46.4088 20.1421 50.835 14.5476 48.7157C11.3848 47.2212 5.24408 45.3274 0 53.8972C0 53.8972 4.86368 49.5118 9.95831 53.0576C9.95831 53.0576 13.7922 56.4812 15.4089 58.1958C15.4089 58.1958 18.2918 60.9455 21.5252 58.9294C24.5928 57.4241 28.0925 56.1987 29.2283 58.731C30.3993 61.3476 28.4131 65.8391 21.3757 61.8666C20.3269 61.2743 16.6696 59.3641 13.2488 65.513C13.2488 65.513 17.1506 64.005 18.9276 67.6623C18.9276 67.6623 21.1013 72.0042 24.8238 71.4744C26.685 71.238 32.6301 67.0455 33.9126 71.2027C34.6272 75.1181 28.4484 70.5642 26.2639 73.2568C25.6661 74.3899 25.3998 74.9822 24.7042 76.012C24.7042 76.012 22.43 78.3569 18.6532 74.0992C18.6532 74.0992 20.3758 80.5823 25.6878 80.3051C28.2745 80.3105 29.5407 75.4387 33.7713 78.9058L38.1785 83.3863C38.1785 83.3863 42.8438 87.8642 47.0391 83.2722C47.0391 83.2722 47.0635 83.207 47.1097 83.0902C35.8635 74.0394 32.9154 60.9835 34.975 50.3894V50.3813L34.9723 50.384Z" fill="#0D87C5"/>
<path d="M34.9723 50.384C35.0837 49.846 35.2114 49.3105 35.3472 48.7807C34.4533 49.3404 33.2387 49.7099 31.6438 49.7833C27.6414 49.9708 26.8806 47.433 24.9596 47.5851C22.1746 47.8025 21.1366 50.9055 18.1804 50.9979C14.9062 51.1011 11.7109 48.6122 10.0045 48.6122C8.52366 48.6122 7.05097 49.2507 5.63534 50.4898C6.07824 50.4191 6.53743 50.3784 7.01293 50.3784C8.77092 50.3784 10.4447 50.9191 11.9826 51.9951L12.0451 52.0385L12.1021 52.0902C12.2597 52.2314 15.9931 55.5708 17.5418 57.2201C17.5527 57.2283 18.7021 58.1303 19.9492 58.1847C22.0333 58.2771 24.4189 55.4268 26.7394 55.4268C28.5789 55.4268 30.0298 56.3316 30.9808 58.1358C31.1112 58.4401 32.2225 61.1681 30.9074 63.1679C30.3776 63.9695 29.0353 64.8661 26.9268 64.9286C24.5874 65.0482 22.8511 63.1489 20.0878 62.4044C18.9466 62.0974 17.9141 63.0674 17.1207 63.9532C18.9955 64.1814 20.4899 65.2764 21.3757 67.1051C21.392 67.1377 22.2208 70.3276 25.1525 70.3031C27.367 70.3031 30.5923 68.2789 31.959 68.0968C35.4831 67.6322 36.1569 71.0775 36.1569 71.0775C36.1569 71.0775 36.4069 72.4931 35.7304 73.4958C33.8936 76.2156 31.2715 73.3001 29.3777 73.8599C27.0953 74.531 27.5001 78.498 24.226 77.9464C23.7125 77.8595 25.3699 79.0306 26.5818 79.0306C27.7936 79.0306 28.5843 75.9358 31.9182 76.1586C35.3635 76.3841 40.2381 84.7366 44.1019 84.0491C45.08 83.8752 46.0066 83.6714 46.8733 82.8971C35.8227 73.8517 32.929 60.9075 34.975 50.3894L34.9723 50.384Z" fill="#33CFFF"/>
<path d="M15.2241 42.7269C15.5801 42.3356 20.5062 36.8823 22.7397 38.9039C24.5575 40.6592 25.8182 43.8762 28.7935 44.0746C30.7091 44.2023 33.0975 42.4362 34.9288 42.4362C35.9939 42.4362 36.7928 42.716 37.3063 43.2622C40.6864 35.7737 46.2348 30.0922 49.7291 28.019C52.0685 26.5871 54.3944 25.5002 56.6849 24.7041C56.5572 24.6634 45.3382 15.0528 40.9282 21.1528C38.0916 25.8209 34.8527 27.6441 27.3018 28.2201H27.3371C30.4863 28.2201 31.4291 29.8558 31.728 30.9073C31.7742 31.1166 32.1465 32.9887 30.9699 34.4532C30.1738 35.445 29.2228 36.0074 27.2801 35.9504C24.7205 35.8743 22.2887 34.4097 20.2372 35.1243C18.6423 35.6786 18.3896 36.3634 17.6397 38.0833C17.4359 38.5507 15.8029 42.1318 13.0205 43.1453C13.2895 43.2975 13.5694 43.3953 13.852 43.3953C14.2976 43.3953 14.7785 43.1481 15.2241 42.7242V42.7269Z" fill="#33CFFF"/>
<path d="M60.9046 19.3079C61.0025 19.2698 63.3501 18.4167 65.3227 18.4167C66.5264 18.4167 67.4475 18.7346 68.048 19.3649C68.4012 19.7345 68.8115 20.3893 68.7599 21.4789C68.7246 21.8892 68.5778 22.4054 68.2925 22.9298C80.6039 23.3537 90.2687 30.7987 92.6245 34.9341C92.5647 34.888 92.5022 34.8363 92.4397 34.7901C92.6055 34.9912 92.7712 35.1977 92.9315 35.4042C91.6708 30.8883 89.5487 25.0628 86.7365 21.8267C86.8614 22.6418 87.288 26.3561 84.4486 26.4186C82.3374 26.4621 80.449 25.4867 79.2018 22.0006L79.1692 21.9109L79.1502 21.8185C79.1285 21.718 76.5608 11.5314 70.7869 11.9227C67.2138 12.2759 62.88 19.5497 56.9132 18.7808C57.6848 19.2155 58.557 19.5144 59.508 19.5144C59.9862 19.5144 60.4726 19.4383 60.8992 19.3052H60.9019L60.9046 19.3079Z" fill="#33CFFF"/>
<path d="M88.7911 31.0057C88.3508 29.8453 87.8725 28.7094 87.3616 27.6522C86.9024 28.0599 86.3725 28.3996 85.7855 28.6604C86.8317 29.3806 87.8345 30.1632 88.7938 31.0084L88.7911 31.0057Z" fill="#D7F0F7"/>
<path d="M32.3045 65.5268C33.6196 65.5839 34.8233 65.9806 35.845 66.6599C34.3179 61.682 34.0354 56.5845 34.7255 51.8946C33.8207 52.188 32.7963 52.3701 31.6469 52.3701C29.6606 52.3701 27.4977 51.8293 25.2234 50.7615L24.5767 50.4599C23.805 51.487 21.3514 53.5819 18.1858 53.5819C17.9684 53.5819 17.7429 53.5738 17.5201 53.5575C18.1777 54.1797 19.7183 55.5465 19.8759 55.59C19.9004 55.5682 20.5797 54.9596 20.5797 54.9596C21.0742 54.6063 23.7045 52.7804 26.7532 52.851C33.4593 53.0086 35.3233 61.2391 33.0762 64.5921C32.8914 64.8693 32.6414 65.1953 32.3126 65.5268H32.3045Z" fill="#D7F0F7"/>
<path d="M38.673 73.2376C38.5181 73.8381 38.241 74.4739 37.7682 75.0852C37.6025 75.2944 37.4231 75.49 37.2302 75.6694C37.4286 75.8324 37.6242 76.0036 37.8225 76.1883L42.1127 80.5518C42.4442 80.848 43.3707 81.4647 44.1015 81.4647C44.232 81.4647 44.4982 81.4647 44.9085 81.1686C42.3219 78.7233 40.2624 76.0443 38.6757 73.2404L38.673 73.2376Z" fill="#D7F0F7"/>
<path d="M38.4832 40.8798C41.8716 34.5759 46.6151 29.8669 49.7318 28.0219C51.0333 27.2258 52.3328 26.5356 53.6208 25.9433C53.6208 25.9433 46.8712 18.7128 42.9258 22.8728C41.771 24.0928 39.0538 28.4703 33.9128 29.386C34.0487 29.693 35.3828 33.5542 32.9835 36.0703C31.989 37.1137 30.3614 38.5348 27.2801 38.5348C26.8182 38.5348 26.3264 38.5022 25.8155 38.4397L27.7882 40.5891L27.9404 40.7738C28.1116 40.9912 28.5083 41.3254 28.7066 41.4531L29.1849 41.0782L29.7854 40.8689C30.0761 40.7657 32.6928 39.8609 34.9291 39.8609C36.5485 39.8609 37.6925 40.3228 38.4805 40.8852L38.4832 40.8798Z" fill="#D7F0F7"/>
<path d="M71.3301 21.7095C71.2948 22.1306 71.1861 22.6224 71.0041 23.1414C73.3163 23.4185 75.5143 23.9293 77.5657 24.5977C77.2559 24.0516 74.4601 14.5067 70.7867 14.5067C69.5831 14.5067 69.075 15.2267 67.7953 16.2347C68.7789 16.5852 69.4581 17.1096 69.9119 17.5824C70.6128 18.3132 71.4279 19.6065 71.3301 21.7095Z" fill="#D7F0F7"/>
<path d="M24.5928 67.2654C24.7829 67.4745 24.9541 67.6375 25.0736 67.7027L25.663 67.4474C25.5326 67.4338 24.7992 67.3441 24.7992 67.3441L24.5901 67.2654H24.5928Z" fill="#D7F0F7"/>
<path d="M72.9987 85.8775C56.8725 85.8775 43.7977 72.8053 43.7977 56.6819C43.7977 40.5584 56.8725 27.4862 72.9987 27.4862C81.1311 27.4862 88.4837 30.8147 93.7794 36.1783C87.6767 27.8476 77.8271 22.4296 66.7058 22.4323C48.1804 22.4323 33.1655 37.4445 33.1655 55.9618C33.1655 74.4791 48.1831 89.4913 66.7058 89.4913C75.0638 89.4913 82.7016 86.4264 88.5734 81.3698C84.0629 84.22 78.7237 85.8775 72.996 85.8775H72.9987Z" fill="url(#paint0_linear_670_2718)"/>
<path d="M83.0412 32.1845C90.0623 36.2928 94.7819 43.909 94.7819 52.6337C94.7819 65.714 84.1742 76.3135 71.0939 76.3135C58.9211 76.3135 48.903 67.1351 47.5635 55.3264C47.539 55.7883 47.5227 56.2584 47.5227 56.7257C47.5227 71.2162 59.2716 82.9569 73.7621 82.9569C88.2526 82.9569 100.002 71.2108 100.002 56.7257C100.002 45.5039 92.9506 35.9342 83.0385 32.1845" fill="url(#paint1_linear_670_2718)"/>
<path d="M70.3903 33.9993C61.584 33.9993 54.1472 39.8548 51.7616 47.8839C54.4325 41.9307 60.4102 37.7789 67.3607 37.7789C76.8 37.7789 84.4542 45.4276 84.4542 54.867C84.4542 64.3063 76.8027 71.955 67.3607 71.955C65.8173 71.955 64.3229 71.7485 62.8991 71.3627C65.2033 72.3246 67.7356 72.8598 70.3903 72.8626C81.1257 72.8626 89.826 64.1596 89.8287 53.4269C89.8287 42.6942 81.1284 33.9939 70.3903 33.9939" fill="url(#paint2_linear_670_2718)"/>
</g>
<g clip-path="url(#clip1_670_2718)">
<path d="M154.535 90.4995L146.962 80.3297C144.725 80.7808 142.529 81.0063 140.395 81.0063C134.834 81.0063 129.744 79.7146 125.106 77.1311C120.468 74.5477 116.795 70.9595 114.065 66.3257C111.336 61.6919 109.981 56.5044 109.981 50.7224C109.981 44.9404 111.336 39.7529 114.065 35.1601C116.795 30.5673 120.468 26.9792 125.106 24.3957C129.744 21.8122 134.834 20.5205 140.395 20.5205C145.956 20.5205 151.046 21.8122 155.684 24.3957C160.322 26.9792 163.954 30.5673 166.622 35.1601C169.29 39.7529 170.624 44.9404 170.624 50.7224C170.624 55.7663 169.598 60.3796 167.546 64.5624C165.493 68.7451 162.641 72.2102 159.008 74.9577L171.978 90.52H154.555L154.535 90.4995ZM128.985 63.1886C131.817 66.3052 135.613 67.8635 140.395 67.8635C145.177 67.8635 148.891 66.2847 151.723 63.1476C154.555 60.0106 155.971 55.8688 155.971 50.7019C155.971 45.535 154.555 41.3317 151.723 38.2152C148.891 35.0986 145.115 33.5403 140.395 33.5403C135.675 33.5403 131.817 35.0781 128.985 38.1742C126.153 41.2497 124.737 45.4325 124.737 50.7019C124.737 55.9713 126.153 60.0926 128.985 63.1886Z" fill="white"/>
<path d="M192.932 21.3408V56.6686C192.932 60.1953 193.794 62.9222 195.538 64.8291C197.282 66.7359 199.827 67.6791 203.193 67.6791C206.558 67.6791 209.144 66.7359 210.93 64.8291C212.735 62.9222 213.618 60.1953 213.618 56.6686V21.3408H228.024V56.5866C228.024 61.8561 226.896 66.3259 224.659 69.955C222.422 73.6047 219.405 76.3521 215.609 78.1975C211.812 80.0428 207.605 80.9655 202.947 80.9655C198.288 80.9655 194.122 80.0633 190.449 78.2385C186.775 76.4137 183.861 73.6662 181.727 69.996C179.592 66.3259 178.525 61.8561 178.525 56.5866V21.3408H192.932Z" fill="white"/>
<path d="M252.549 21.3408V80.3914H238.142V21.3408H252.549Z" fill="white"/>
<path d="M264.328 35.1807C266.853 30.6083 270.382 27.0407 274.897 24.4982C279.412 21.9558 284.543 20.6641 290.268 20.6641C297.287 20.6641 303.3 22.5094 308.286 26.2206C313.273 29.9317 316.618 34.9756 318.301 41.3728H302.479C301.309 38.9123 299.626 37.026 297.471 35.7343C295.317 34.4425 292.854 33.8069 290.104 33.8069C285.671 33.8069 282.08 35.3447 279.33 38.4407C276.58 41.5163 275.205 45.658 275.205 50.8044C275.205 55.9509 276.58 60.0926 279.33 63.1682C282.08 66.2437 285.671 67.802 290.104 67.802C292.854 67.802 295.317 67.1664 297.471 65.8746C299.626 64.5829 301.309 62.7171 302.479 60.2361H318.301C316.618 66.6333 313.273 71.6567 308.286 75.3268C303.279 78.997 297.287 80.8423 290.268 80.8423C284.543 80.8423 279.412 79.5711 274.897 77.0081C270.382 74.4657 266.853 70.9185 264.328 66.3667C261.804 61.8149 260.532 56.6275 260.532 50.8044C260.532 44.9814 261.804 39.7735 264.328 35.2012V35.1807Z" fill="white"/>
<path d="M361.418 80.3914L341.553 54.3107V80.3914H327.147V21.3408H341.553V47.2574L361.254 21.3408H378.185L355.282 50.2715L379.026 80.3914H361.418Z" fill="white"/>
</g>
<defs>
<linearGradient id="paint0_linear_670_2718" x1="79.3234" y1="29.0913" x2="34.0079" y2="96.5538" gradientUnits="userSpaceOnUse">
<stop offset="0.278846" stop-color="#33CFFF"/>
<stop offset="1" stop-color="#0D87C5"/>
</linearGradient>
<linearGradient id="paint1_linear_670_2718" x1="79.3234" y1="29.0913" x2="34.0079" y2="96.5538" gradientUnits="userSpaceOnUse">
<stop offset="0.278846" stop-color="#33CFFF"/>
<stop offset="1" stop-color="#0D87C5"/>
</linearGradient>
<linearGradient id="paint2_linear_670_2718" x1="79.3234" y1="29.0913" x2="34.0079" y2="96.5538" gradientUnits="userSpaceOnUse">
<stop offset="0.278846" stop-color="#33CFFF"/>
<stop offset="1" stop-color="#0D87C5"/>
</linearGradient>
<clipPath id="clip0_670_2718">
<rect width="100.002" height="100" fill="white"/>
</clipPath>
<clipPath id="clip1_670_2718">
<rect width="269.004" height="70" fill="white" transform="translate(110.002 20.5)"/>
</clipPath>
</defs>
</svg>
