<svg width="379" height="100" viewBox="0 0 379 100" fill="none" xmlns="http://www.w3.org/2000/svg">
<g clip-path="url(#clip0_670_2637)">
<path d="M60.0596 20.5227C60.0596 20.5227 66.3226 18.2213 66.184 21.3704C66.184 21.3704 66.108 22.1774 65.4015 22.9654C79.0714 22.1883 90.0867 30.4864 92.6218 34.9398C92.562 34.8909 92.4995 34.8447 92.4397 34.7985C92.6272 35.0268 92.812 35.255 92.9886 35.4914C91.4507 29.8207 88.095 20.1287 82.802 18.3816C82.802 18.3816 85.9729 23.8023 82.889 25.1364C82.889 25.1364 80.4082 25.169 79.1203 21.5742C79.1203 21.5742 76.626 8.42056 67.904 10.7953C64.6353 11.9284 63.5538 13.8413 61.3176 15.602C59.0814 17.3627 56.0491 19.3706 51.2235 16.2867C51.2235 16.2867 54.8427 22.1638 60.0515 20.5254H60.0542L60.0596 20.5227Z" fill="#0D87C5"/>
<path d="M34.9723 50.3842C37.2003 39.4722 45.1942 30.7094 49.7318 28.0222C52.6744 26.2234 55.5954 24.9654 58.4483 24.1503C57.5408 23.9764 44.8654 11.2656 38.6078 20.3354C36.877 23.672 35.8418 25.6882 30.1684 25.7208C30.1684 25.7208 24.7558 25.142 23.8402 29.7829C23.8402 29.7829 28.4348 28.6118 29.1766 31.1958C29.1766 31.1958 30.2608 36.016 22.8321 34.1466C20.5959 33.557 17.9766 31.1523 15.1671 37.5756C15.1671 37.5756 12.4988 43.7191 8.7519 41.7329C8.7519 41.7329 11.4745 46.8818 14.8899 43.5968C14.8899 43.5968 18.5282 39.7113 20.8731 40.1868C24.1635 40.8552 25.0683 46.4091 29.7907 44.5179C32.5622 43.5207 35.8418 43.249 35.0375 45.9336C32.698 51.1939 29.1467 45.6673 24.8401 46.0205C20.0552 46.4091 20.1421 50.8353 14.5476 48.7159C11.3848 47.2215 5.24408 45.3276 0 53.8975C0 53.8975 4.86368 49.512 9.95831 53.0579C9.95831 53.0579 13.7922 56.4815 15.4089 58.196C15.4089 58.196 18.2918 60.9457 21.5252 58.9296C24.5928 57.4243 28.0925 56.1989 29.2283 58.7313C30.3993 61.3479 28.4131 65.8393 21.3757 61.8669C20.3269 61.2745 16.6696 59.3644 13.2488 65.5132C13.2488 65.5132 17.1506 64.0052 18.9276 67.6625C18.9276 67.6625 21.1013 72.0045 24.8238 71.4747C26.685 71.2383 32.6301 67.0457 33.9126 71.2029C34.6272 75.1183 28.4484 70.5644 26.2639 73.2571C25.6661 74.3901 25.3998 74.9825 24.7042 76.0123C24.7042 76.0123 22.43 78.3572 18.6532 74.0994C18.6532 74.0994 20.3758 80.5825 25.6878 80.3054C28.2745 80.3108 29.5407 75.439 33.7713 78.906L38.1785 83.3866C38.1785 83.3866 42.8438 87.8644 47.0391 83.2725C47.0391 83.2725 47.0635 83.2073 47.1097 83.0904C35.8635 74.0396 32.9154 60.9838 34.975 50.3897V50.3815L34.9723 50.3842Z" fill="#0D87C5"/>
<path d="M34.9723 50.3842C35.0837 49.8462 35.2114 49.3108 35.3472 48.7809C34.4533 49.3407 33.2387 49.7102 31.6438 49.7835C27.6414 49.971 26.8806 47.4332 24.9596 47.5854C22.1746 47.8028 21.1366 50.9057 18.1804 50.9981C14.9062 51.1014 11.7109 48.6125 10.0045 48.6125C8.52366 48.6125 7.05097 49.251 5.63534 50.49C6.07824 50.4194 6.53743 50.3786 7.01293 50.3786C8.77092 50.3786 10.4447 50.9193 11.9826 51.9953L12.0451 52.0388L12.1021 52.0904C12.2597 52.2317 15.9931 55.571 17.5418 57.2203C17.5527 57.2285 18.7021 58.1306 19.9492 58.1849C22.0333 58.2773 24.4189 55.427 26.7394 55.427C28.5789 55.427 30.0298 56.3318 30.9808 58.136C31.1112 58.4403 32.2225 61.1684 30.9074 63.1682C30.3776 63.9697 29.0353 64.8664 26.9268 64.9289C24.5874 65.0484 22.8511 63.1491 20.0878 62.4046C18.9466 62.0976 17.9141 63.0676 17.1207 63.9534C18.9955 64.1817 20.4899 65.2767 21.3757 67.1053C21.392 67.1379 22.2208 70.3278 25.1525 70.3034C27.367 70.3034 30.5923 68.2791 31.959 68.0971C35.4831 67.6324 36.1569 71.0778 36.1569 71.0778C36.1569 71.0778 36.4069 72.4934 35.7304 73.496C33.8936 76.2159 31.2715 73.3004 29.3777 73.8601C27.0953 74.5312 27.5001 78.4983 24.226 77.9467C23.7125 77.8597 25.3699 79.0308 26.5818 79.0308C27.7936 79.0308 28.5843 75.936 31.9182 76.1588C35.3635 76.3843 40.2381 84.7368 44.1019 84.0494C45.08 83.8755 46.0066 83.6717 46.8733 82.8973C35.8227 73.852 32.929 60.9077 34.975 50.3897L34.9723 50.3842Z" fill="#33CFFF"/>
<path d="M15.2241 42.7271C15.5801 42.3359 20.5062 36.8826 22.7397 38.9041C24.5575 40.6594 25.8182 43.8765 28.7935 44.0748C30.7091 44.2026 33.0975 42.4364 34.9288 42.4364C35.9939 42.4364 36.7928 42.7163 37.3063 43.2624C40.6864 35.774 46.2348 30.0925 49.7291 28.0193C52.0685 26.5873 54.3944 25.5005 56.6849 24.7044C56.5572 24.6636 45.3382 15.0531 40.9282 21.1531C38.0916 25.8211 34.8527 27.6443 27.3018 28.2203H27.3371C30.4863 28.2203 31.4291 29.8561 31.728 30.9076C31.7742 31.1168 32.1465 32.9889 30.9699 34.4535C30.1738 35.4452 29.2228 36.0077 27.2801 35.9506C24.7205 35.8745 22.2887 34.41 20.2372 35.1246C18.6423 35.6789 18.3896 36.3636 17.6397 38.0836C17.4359 38.5509 15.8029 42.1321 13.0205 43.1456C13.2895 43.2977 13.5694 43.3956 13.852 43.3956C14.2976 43.3956 14.7785 43.1483 15.2241 42.7244V42.7271Z" fill="#33CFFF"/>
<path d="M60.9046 19.3081C61.0025 19.2701 63.3501 18.4169 65.3227 18.4169C66.5264 18.4169 67.4475 18.7348 68.048 19.3652C68.4012 19.7347 68.8115 20.3896 68.7599 21.4791C68.7246 21.8894 68.5778 22.4057 68.2925 22.9301C80.6039 23.354 90.2687 30.7989 92.6245 34.9344C92.5647 34.8882 92.5022 34.8366 92.4397 34.7904C92.6055 34.9914 92.7712 35.198 92.9315 35.4045C91.6708 30.8886 89.5487 25.063 86.7365 21.8269C86.8614 22.6421 87.288 26.3564 84.4486 26.4189C82.3374 26.4624 80.449 25.4869 79.2018 22.0008L79.1692 21.9111L79.1502 21.8188C79.1285 21.7182 76.5608 11.5317 70.7869 11.923C67.2138 12.2762 62.88 19.55 56.9132 18.781C57.6848 19.2157 58.557 19.5146 59.508 19.5146C59.9862 19.5146 60.4726 19.4386 60.8992 19.3054H60.9019L60.9046 19.3081Z" fill="#33CFFF"/>
<path d="M88.7911 31.0059C88.3508 29.8455 87.8725 28.7096 87.3616 27.6525C86.9024 28.0601 86.3725 28.3998 85.7855 28.6607C86.8317 29.3808 87.8345 30.1635 88.7938 31.0086L88.7911 31.0059Z" fill="#D7F0F7"/>
<path d="M32.3045 65.5271C33.6196 65.5841 34.8233 65.9809 35.845 66.6602C34.3179 61.6822 34.0354 56.5847 34.7255 51.8948C33.8207 52.1883 32.7963 52.3703 31.6469 52.3703C29.6606 52.3703 27.4977 51.8296 25.2234 50.7617L24.5767 50.4601C23.805 51.4872 21.3514 53.5822 18.1858 53.5822C17.9684 53.5822 17.7429 53.574 17.5201 53.5577C18.1777 54.18 19.7183 55.5467 19.8759 55.5902C19.9004 55.5685 20.5797 54.9598 20.5797 54.9598C21.0742 54.6066 23.7045 52.7806 26.7532 52.8513C33.4593 53.0089 35.3233 61.2393 33.0762 64.5924C32.8914 64.8695 32.6414 65.1956 32.3126 65.5271H32.3045Z" fill="#D7F0F7"/>
<path d="M38.673 73.2379C38.5181 73.8383 38.241 74.4741 37.7682 75.0854C37.6025 75.2947 37.4231 75.4903 37.2302 75.6696C37.4286 75.8326 37.6242 76.0038 37.8225 76.1886L42.1127 80.5521C42.4442 80.8482 43.3707 81.465 44.1015 81.465C44.232 81.465 44.4982 81.465 44.9085 81.1688C42.3219 78.7235 40.2624 76.0446 38.6757 73.2406L38.673 73.2379Z" fill="#D7F0F7"/>
<path d="M38.4832 40.8801C41.8716 34.5761 46.6151 29.8672 49.7318 28.0222C51.0333 27.226 52.3328 26.5359 53.6208 25.9435C53.6208 25.9435 46.8712 18.713 42.9258 22.8731C41.771 24.0931 39.0538 28.4705 33.9128 29.3862C34.0487 29.6933 35.3828 33.5544 32.9835 36.0706C31.989 37.114 30.3614 38.5351 27.2801 38.5351C26.8182 38.5351 26.3264 38.5025 25.8155 38.44L27.7882 40.5893L27.9404 40.7741C28.1116 40.9915 28.5083 41.3257 28.7066 41.4534L29.1849 41.0784L29.7854 40.8692C30.0761 40.7659 32.6928 39.8611 34.9291 39.8611C36.5485 39.8611 37.6925 40.323 38.4805 40.8855L38.4832 40.8801Z" fill="#D7F0F7"/>
<path d="M71.3301 21.7097C71.2948 22.1309 71.1861 22.6227 71.0041 23.1416C73.3163 23.4187 75.5143 23.9295 77.5657 24.5979C77.2559 24.0518 74.4601 14.5069 70.7867 14.5069C69.5831 14.5069 69.075 15.227 67.7953 16.235C68.7789 16.5855 69.4581 17.1098 69.9119 17.5826C70.6128 18.3135 71.4279 19.6068 71.3301 21.7097Z" fill="#D7F0F7"/>
<path d="M24.5928 67.2656C24.7829 67.4748 24.9541 67.6377 25.0736 67.7029L25.663 67.4476C25.5326 67.434 24.7992 67.3444 24.7992 67.3444L24.5901 67.2656H24.5928Z" fill="#D7F0F7"/>
<path d="M72.9987 85.8777C56.8725 85.8777 43.7977 72.8056 43.7977 56.6821C43.7977 40.5586 56.8725 27.4865 72.9987 27.4865C81.1311 27.4865 88.4837 30.8149 93.7794 36.1786C87.6767 27.8478 77.8271 22.4299 66.7058 22.4326C48.1804 22.4326 33.1655 37.4448 33.1655 55.9621C33.1655 74.4794 48.1831 89.4915 66.7058 89.4915C75.0638 89.4915 82.7016 86.4266 88.5734 81.37C84.0629 84.2203 78.7237 85.8777 72.996 85.8777H72.9987Z" fill="url(#paint0_linear_670_2637)"/>
<path d="M83.0412 32.1848C90.0623 36.2931 94.7819 43.9092 94.7819 52.6339C94.7819 65.7142 84.1742 76.3138 71.0939 76.3138C58.9211 76.3138 48.903 67.1353 47.5635 55.3266C47.539 55.7885 47.5227 56.2586 47.5227 56.7259C47.5227 71.2164 59.2716 82.9572 73.7621 82.9572C88.2526 82.9572 100.002 71.211 100.002 56.7259C100.002 45.5042 92.9506 35.9344 83.0385 32.1848" fill="url(#paint1_linear_670_2637)"/>
<path d="M70.3903 33.9996C61.584 33.9996 54.1472 39.855 51.7616 47.8842C54.4325 41.9309 60.4102 37.7791 67.3607 37.7791C76.8 37.7791 84.4542 45.4279 84.4542 54.8672C84.4542 64.3065 76.8027 71.9553 67.3607 71.9553C65.8173 71.9553 64.3229 71.7488 62.8991 71.3629C65.2033 72.3248 67.7356 72.8601 70.3903 72.8628C81.1257 72.8628 89.826 64.1598 89.8287 53.4271C89.8287 42.6944 81.1284 33.9941 70.3903 33.9941" fill="url(#paint2_linear_670_2637)"/>
</g>
<g clip-path="url(#clip1_670_2637)">
<path d="M154.535 90.4993L146.962 80.3294C144.725 80.7805 142.529 81.0061 140.395 81.0061C134.834 81.0061 129.744 79.7143 125.106 77.1309C120.468 74.5474 116.795 70.9593 114.065 66.3254C111.336 61.6916 109.981 56.5042 109.981 50.7222C109.981 44.9401 111.336 39.7527 114.065 35.1599C116.795 30.5671 120.468 26.9789 125.106 24.3955C129.744 21.812 134.834 20.5203 140.395 20.5203C145.956 20.5203 151.046 21.812 155.684 24.3955C160.322 26.9789 163.954 30.5671 166.622 35.1599C169.29 39.7527 170.624 44.9401 170.624 50.7222C170.624 55.7661 169.598 60.3794 167.546 64.5621C165.493 68.7449 162.641 72.21 159.008 74.9575L171.978 90.5198H154.555L154.535 90.4993ZM128.985 63.1884C131.817 66.3049 135.613 67.8632 140.395 67.8632C145.177 67.8632 148.891 66.2844 151.723 63.1474C154.555 60.0103 155.971 55.8686 155.971 50.7017C155.971 45.5347 154.555 41.3315 151.723 38.2149C148.891 35.0984 145.115 33.5401 140.395 33.5401C135.675 33.5401 131.817 35.0779 128.985 38.1739C126.153 41.2495 124.737 45.4322 124.737 50.7017C124.737 55.9711 126.153 60.0923 128.985 63.1884Z" fill="#1D3366"/>
<path d="M192.932 21.3403V56.6681C192.932 60.1948 193.794 62.9218 195.538 64.8286C197.282 66.7354 199.827 67.6786 203.193 67.6786C206.558 67.6786 209.144 66.7354 210.93 64.8286C212.735 62.9218 213.618 60.1948 213.618 56.6681V21.3403H228.024V56.5861C228.024 61.8556 226.896 66.3254 224.659 69.9545C222.422 73.6042 219.405 76.3517 215.609 78.197C211.812 80.0423 207.605 80.965 202.947 80.965C198.288 80.965 194.122 80.0628 190.449 78.238C186.775 76.4132 183.861 73.6657 181.727 69.9955C179.592 66.3254 178.525 61.8556 178.525 56.5861V21.3403H192.932Z" fill="#1D3366"/>
<path d="M252.549 21.3403V80.3909H238.142V21.3403H252.549Z" fill="#1D3366"/>
<path d="M264.328 35.1804C266.853 30.6081 270.382 27.0405 274.897 24.498C279.412 21.9555 284.543 20.6638 290.268 20.6638C297.287 20.6638 303.3 22.5091 308.286 26.2203C313.273 29.9315 316.618 34.9754 318.301 41.3725H302.479C301.309 38.9121 299.626 37.0257 297.471 35.734C295.317 34.4423 292.854 33.8067 290.104 33.8067C285.671 33.8067 282.08 35.3444 279.33 38.4405C276.58 41.516 275.205 45.6578 275.205 50.8042C275.205 55.9506 276.58 60.0924 279.33 63.1679C282.08 66.2435 285.671 67.8017 290.104 67.8017C292.854 67.8017 295.317 67.1661 297.471 65.8744C299.626 64.5827 301.309 62.7168 302.479 60.2359H318.301C316.618 66.633 313.273 71.6564 308.286 75.3266C303.279 78.9967 297.287 80.8421 290.268 80.8421C284.543 80.8421 279.412 79.5708 274.897 77.0079C270.382 74.4654 266.853 70.9183 264.328 66.3665C261.804 61.8147 260.532 56.6272 260.532 50.8042C260.532 44.9812 261.804 39.7732 264.328 35.2009V35.1804Z" fill="#1D3366"/>
<path d="M361.418 80.3909L341.553 54.3102V80.3909H327.147V21.3403H341.553V47.257L361.254 21.3403H378.185L355.282 50.271L379.026 80.3909H361.418Z" fill="#1D3366"/>
</g>
<defs>
<linearGradient id="paint0_linear_670_2637" x1="79.3234" y1="29.0915" x2="34.0079" y2="96.554" gradientUnits="userSpaceOnUse">
<stop offset="0.278846" stop-color="#33CFFF"/>
<stop offset="1" stop-color="#0D87C5"/>
</linearGradient>
<linearGradient id="paint1_linear_670_2637" x1="79.3234" y1="29.0915" x2="34.0079" y2="96.554" gradientUnits="userSpaceOnUse">
<stop offset="0.278846" stop-color="#33CFFF"/>
<stop offset="1" stop-color="#0D87C5"/>
</linearGradient>
<linearGradient id="paint2_linear_670_2637" x1="79.3234" y1="29.0915" x2="34.0079" y2="96.554" gradientUnits="userSpaceOnUse">
<stop offset="0.278846" stop-color="#33CFFF"/>
<stop offset="1" stop-color="#0D87C5"/>
</linearGradient>
<clipPath id="clip0_670_2637">
<rect width="100.002" height="100" fill="white"/>
</clipPath>
<clipPath id="clip1_670_2637">
<rect width="269.004" height="70" fill="white" transform="translate(110.002 20.4998)"/>
</clipPath>
</defs>
</svg>
