<svg width="500" height="500" viewBox="0 0 500 500" fill="none" xmlns="http://www.w3.org/2000/svg">
<path d="M415.258 160.848C450.355 181.396 473.903 219.442 473.903 263.088C473.903 328.482 420.858 381.476 355.464 381.476C294.621 381.476 244.526 335.581 237.826 276.537C237.726 278.836 237.626 281.186 237.626 283.536C237.626 355.979 296.37 414.673 368.813 414.673C441.256 414.673 500 355.929 500 283.536C500 227.442 464.754 179.596 415.208 160.848H415.258Z" fill="#1D3366"/>
<path d="M336.816 359.678C329.117 359.678 321.618 358.628 314.519 356.729C326.017 361.528 338.716 364.228 351.965 364.228C405.659 364.228 449.155 320.732 449.155 267.038C449.155 213.393 405.659 169.897 351.965 169.897C307.919 169.897 270.773 199.194 258.824 239.34C272.173 209.593 302.07 188.845 336.816 188.845C384.012 188.845 422.258 227.092 422.258 274.287C422.258 321.482 384.012 359.728 336.816 359.728V359.678Z" fill="#1D3366"/>
<path d="M219.028 283.286C219.028 202.694 284.372 137.301 365.013 137.301C403.06 137.301 437.706 151.899 463.704 175.747C464.104 176.247 464.554 176.797 464.953 177.347C464.953 177.197 464.853 176.997 464.804 176.847C466.203 178.147 467.553 179.446 468.903 180.796C467.403 178.746 465.803 176.747 464.254 174.797C456.254 146.2 439.756 100.304 414.059 91.8552C414.059 91.8552 429.907 118.952 414.509 125.602C414.509 125.602 402.11 125.752 395.66 107.804C395.66 107.804 383.212 42.0601 339.566 53.909C323.218 59.5584 317.818 69.1574 306.619 77.9566C295.42 86.7557 280.272 96.8047 256.174 81.3562C256.174 81.3562 274.273 110.753 300.32 102.554C300.32 102.554 331.617 91.0552 330.917 106.804C330.917 106.804 330.667 109.253 328.867 112.253C314.968 112.653 301.47 114.703 288.571 118.253C273.823 106.904 220.828 61.3582 193.031 101.654C184.382 118.353 179.182 128.402 150.835 128.601C150.835 128.601 123.788 125.702 119.188 148.899C119.188 148.899 142.136 143.05 145.885 155.949C145.885 155.949 151.285 180.046 114.189 170.697C102.99 167.748 89.891 155.749 75.8924 187.846C75.8924 187.846 62.5437 218.542 43.7956 208.643C43.7956 208.643 57.3943 234.391 74.4925 217.943C74.4925 217.943 92.6907 198.494 104.39 200.894C120.838 204.244 125.387 231.991 148.985 222.542C160.334 218.443 173.333 216.843 175.482 223.692C174.083 227.642 172.833 231.641 171.733 235.691C160.134 250.989 143.736 228.491 124.188 230.091C100.29 232.041 100.69 254.139 72.7427 243.59C56.9443 236.141 26.2474 226.642 0 269.487C0 269.487 24.2976 247.54 49.795 265.288C49.795 265.288 68.9431 282.386 77.0423 290.985C77.0423 290.985 91.4409 304.734 107.639 294.635C122.988 287.086 140.486 280.986 146.135 293.635C151.985 306.734 142.036 329.181 106.889 309.333C101.64 306.384 83.3417 296.835 66.2434 327.582C66.2434 327.582 85.7414 320.032 94.6405 338.331C94.6405 338.331 105.489 360.028 124.138 357.379C133.437 356.179 163.184 335.231 169.583 356.029C173.133 375.627 142.286 352.829 131.337 366.278C128.337 371.927 127.037 374.927 123.538 380.076C123.538 380.076 112.189 391.775 93.2907 370.527C93.2907 370.527 101.89 402.924 128.437 401.574C141.386 401.574 147.685 377.227 168.833 394.575L190.881 416.973C190.881 416.973 214.229 439.37 235.176 416.423C235.176 416.423 235.276 416.173 235.426 415.823C263.024 435.771 296.87 447.52 333.517 447.52C375.312 447.52 413.509 432.171 442.856 406.924C420.308 421.172 393.611 429.471 364.963 429.471C284.322 429.471 218.978 364.128 218.978 283.486L219.028 283.286ZM436.806 138.151C439.056 142.8 441.156 147.8 443.106 152.849C449.705 158.299 455.054 163.648 458.904 168.497C450.305 158.798 440.606 150.099 429.957 142.6C432.457 141.4 434.807 139.9 436.806 138.101V138.151ZM353.965 72.4571C370.563 72.4571 383.562 111.353 387.061 120.852C376.962 117.453 366.513 114.953 355.664 113.553C356.164 111.753 356.564 110.003 356.714 108.454C357.214 97.9546 353.115 91.4552 349.615 87.8056C347.365 85.4558 343.966 82.8061 339.016 81.0562C345.415 76.0067 347.965 72.4071 353.965 72.4071V72.4571ZM125.387 338.38C124.788 338.031 123.938 337.231 122.988 336.181L123.988 336.581C123.988 336.581 127.637 337.031 128.287 337.081L125.337 338.38H125.387ZM133.787 264.138C118.538 263.788 105.389 272.937 102.94 274.687C102.94 274.687 99.54 277.737 99.44 277.837C98.6401 277.637 90.9409 270.787 87.6412 267.688C88.7411 267.788 89.891 267.788 90.9909 267.788C106.839 267.788 119.088 257.339 122.938 252.189L126.187 253.689C137.536 259.038 148.385 261.738 158.284 261.738C161.334 261.738 164.234 261.488 166.933 260.988C166.233 267.138 165.883 273.337 165.883 279.686C165.883 282.036 165.983 284.386 166.083 286.736C160.834 274.587 150.285 264.488 133.837 264.138H133.787ZM161.534 327.532C163.184 325.882 164.434 324.232 165.333 322.882C167.133 320.182 168.383 316.783 169.083 313.033C170.283 318.882 171.783 324.682 173.533 330.281C169.783 328.731 165.783 327.732 161.434 327.532H161.534ZM174.683 199.194C163.484 199.194 150.435 203.694 148.985 204.244L145.985 205.294L143.586 207.144C142.586 206.494 140.636 204.844 139.736 203.744L138.986 202.844L129.137 192.095C131.687 192.395 134.137 192.595 136.436 192.595C151.835 192.595 159.984 185.496 164.933 180.296C176.932 167.698 170.283 148.4 169.583 146.9C195.28 142.3 208.879 120.452 214.629 114.353C230.827 97.3046 256.424 118.552 265.123 126.752C231.077 142 203.03 168.248 185.531 200.994C182.482 199.994 178.932 199.294 174.683 199.294V199.194ZM220.528 407.224C216.878 407.224 212.229 404.124 210.579 402.674L189.131 380.876C188.131 379.976 187.181 379.076 186.181 378.276C187.131 377.377 188.031 376.427 188.881 375.377C190.281 373.527 191.331 371.677 192.131 369.777C200.83 383.426 211.479 395.725 223.678 406.324C222.128 407.224 221.078 407.274 220.528 407.274V407.224Z" fill="#1D3366"/>
</svg>
