<svg width="75" height="75" viewBox="0 0 75 75" fill="none" xmlns="http://www.w3.org/2000/svg">
<path d="M45.044 15.3923C45.044 15.3923 49.7412 13.6663 49.6373 16.0281C49.6373 16.0281 49.5802 16.6334 49.0504 17.2243C59.3026 16.6415 67.564 22.865 69.4653 26.205C69.4204 26.1683 69.3736 26.1337 69.3287 26.099C69.4693 26.2702 69.6079 26.4414 69.7404 26.6187C68.587 22.3658 66.0703 15.0968 62.1006 13.7865C62.1006 13.7865 64.4787 17.852 62.1658 18.8526C62.1658 18.8526 60.3053 18.877 59.3393 16.181C59.3393 16.181 57.4686 6.31587 50.9272 8.09693C48.4757 8.9467 47.6646 10.3813 45.9875 11.7018C44.3104 13.0223 42.0362 14.5283 38.417 12.2154C38.417 12.2154 41.1314 16.6232 45.0379 15.3944H45.0399L45.044 15.3923Z" fill="#0D87C5"/>
<path d="M26.2288 37.7881C27.8998 29.6042 33.8951 23.0323 37.2983 21.0169C39.5052 19.6678 41.6959 18.7243 43.8356 18.113C43.155 17.9825 33.6485 8.44962 28.9554 15.2519C27.6573 17.7543 26.8809 19.2664 22.6259 19.2908C22.6259 19.2908 18.5666 18.8568 17.8799 22.3374C17.8799 22.3374 21.3258 21.4591 21.8821 23.397C21.8821 23.397 22.6952 27.0121 17.1238 25.6101C15.4467 25.1679 13.4822 23.3644 11.3751 28.1818C11.3751 28.1818 9.37398 32.7894 6.56382 31.2997C6.56382 31.2997 8.60572 35.1614 11.1673 32.6977C11.1673 32.6977 13.8959 29.7836 15.6545 30.1402C18.1223 30.6415 18.8009 34.8068 22.3427 33.3885C24.4213 32.6406 26.8809 32.4368 26.2777 34.4502C24.5231 38.3954 21.8597 34.2505 18.6298 34.5154C15.0412 34.8068 15.1064 38.1264 10.9105 36.5369C8.53847 35.4161 3.933 33.9957 0 40.423C0 40.423 3.6477 37.134 7.46862 39.7934C7.46862 39.7934 10.344 42.361 11.5565 43.6469C11.5565 43.6469 13.7186 45.7091 16.1436 44.1971C18.4443 43.0681 21.069 42.1491 21.9209 44.0483C22.7992 46.0107 21.3095 49.3793 16.0315 46.4C15.2449 45.9557 12.502 44.5231 9.93642 49.1347C9.93642 49.1347 12.8627 48.0037 14.1955 50.7466C14.1955 50.7466 15.8257 54.0031 18.6175 53.6057C20.0134 53.4284 24.4722 50.2841 25.4341 53.4019C25.97 56.3384 21.336 52.923 19.6976 54.9425C19.2493 55.7923 19.0496 56.2365 18.5279 57.0089C18.5279 57.0089 16.8222 58.7675 13.9896 55.5742C13.9896 55.5742 15.2816 60.4365 19.2656 60.2286C21.2056 60.2327 22.1552 56.5789 25.3281 59.1792L28.6334 62.5395C28.6334 62.5395 32.1324 65.8978 35.2788 62.4539C35.2788 62.4539 35.2971 62.405 35.3318 62.3174C26.8972 55.5294 24.6862 45.7377 26.2308 37.7922V37.7861L26.2288 37.7881Z" fill="#0D87C5"/>
<path d="M26.2288 37.7881C26.3124 37.3846 26.4081 36.9831 26.51 36.5857C25.8396 37.0055 24.9287 37.2826 23.7325 37.3376C20.7308 37.4782 20.1602 35.5749 18.7194 35.689C16.6307 35.8521 15.8522 38.1793 13.6351 38.2485C11.1795 38.326 8.78301 36.4593 7.50326 36.4593C6.39265 36.4593 5.28815 36.9382 4.22644 37.8675C4.55861 37.8145 4.903 37.7839 5.25962 37.7839C6.57809 37.7839 7.83339 38.1894 8.98679 38.9964L9.03366 39.029L9.07646 39.0677C9.19465 39.1737 11.9946 41.6782 13.1562 42.9151C13.1643 42.9213 14.0263 43.5978 14.9617 43.6386C16.5247 43.7079 18.3139 41.5702 20.0542 41.5702C21.4338 41.5702 22.522 42.2488 23.2352 43.6019C23.3331 43.8301 24.1665 45.8761 23.1802 47.3759C22.7828 47.9771 21.7762 48.6496 20.1948 48.6964C18.4402 48.7861 17.1381 47.3617 15.0656 46.8033C14.2097 46.573 13.4354 47.3005 12.8403 47.9649C14.2464 48.136 15.3672 48.9573 16.0315 50.3287C16.0438 50.3532 16.6653 52.7456 18.8641 52.7273C20.5249 52.7273 22.9438 51.2091 23.9689 51.0726C26.6119 50.7241 27.1173 53.308 27.1173 53.308C27.1173 53.308 27.3048 54.3697 26.7974 55.1217C25.4198 57.1616 23.4533 54.975 22.0329 55.3948C20.3212 55.8981 20.6248 58.8733 18.1692 58.4597C17.7841 58.3944 19.0271 59.2727 19.936 59.2727C20.8449 59.2727 21.4379 56.9517 23.9383 57.1188C26.5223 57.2879 30.1781 63.5522 33.0759 63.0366C33.8095 62.9062 34.5044 62.7533 35.1545 62.1726C26.8666 55.3887 24.6964 45.6806 26.2308 37.7922L26.2288 37.7881Z" fill="#33CFFF"/>
<path d="M11.4179 32.0454C11.6849 31.752 15.3794 27.6621 17.0545 29.1782C18.4178 30.4946 19.3634 32.9074 21.5948 33.0562C23.0315 33.1519 24.8227 31.8274 26.1962 31.8274C26.995 31.8274 27.5941 32.0373 27.9793 32.4469C30.5143 26.8306 34.6756 22.5695 37.2962 21.0147C39.0508 19.9407 40.7952 19.1256 42.513 18.5285C42.4173 18.498 34.0031 11.2902 30.6957 15.8651C28.5682 19.3661 26.1391 20.7335 20.476 21.1655H20.5025C22.8644 21.1655 23.5715 22.3922 23.7956 23.1809C23.8303 23.3378 24.1095 24.7419 23.2271 25.8402C22.63 26.584 21.9168 27.0059 20.4597 26.9631C18.5401 26.906 16.7163 25.8076 15.1777 26.3436C13.9815 26.7593 13.792 27.2728 13.2295 28.5628C13.0767 28.9133 11.852 31.5991 9.76524 32.3592C9.96699 32.4734 10.1769 32.5467 10.3888 32.5467C10.723 32.5467 11.0837 32.3613 11.4179 32.0434V32.0454Z" fill="#33CFFF"/>
<path d="M45.6778 14.4814C45.7511 14.4529 47.5118 13.813 48.9913 13.813C49.894 13.813 50.5848 14.0514 51.0352 14.5242C51.3001 14.8014 51.6078 15.2925 51.5691 16.1096C51.5426 16.4174 51.4326 16.8045 51.2186 17.1978C60.452 17.5157 67.7005 23.0994 69.4673 26.2009C69.4225 26.1663 69.3756 26.1276 69.3287 26.0929C69.453 26.2437 69.5773 26.3986 69.6976 26.5535C68.752 23.1666 67.1605 18.7975 65.0513 16.3705C65.1451 16.9818 65.465 19.7675 63.3355 19.8144C61.7521 19.847 60.3358 19.1154 59.4005 16.5009L59.376 16.4337L59.3617 16.3644C59.3454 16.289 57.4197 8.64918 53.0893 8.94263C50.4096 9.20754 47.1593 14.6628 42.6842 14.0861C43.263 14.4121 43.9171 14.6363 44.6303 14.6363C44.989 14.6363 45.3538 14.5792 45.6737 14.4794H45.6757L45.6778 14.4814Z" fill="#33CFFF"/>
<path d="M66.5923 23.2546C66.2621 22.3844 65.9034 21.5324 65.5202 20.7396C65.1758 21.0453 64.7783 21.3001 64.3381 21.4957C65.1228 22.0358 65.8749 22.6228 66.5943 23.2567L66.5923 23.2546Z" fill="#D7F0F7"/>
<path d="M24.228 49.1451C25.2143 49.1879 26.1171 49.4854 26.8834 49.9949C25.7381 46.2615 25.5261 42.4384 26.0437 38.921C25.3651 39.1411 24.5968 39.2777 23.7348 39.2777C22.2451 39.2777 20.623 38.8721 18.9173 38.0713L18.4323 37.845C17.8535 38.6154 16.0133 40.1866 13.6392 40.1866C13.4761 40.1866 13.307 40.1805 13.1399 40.1682C13.633 40.6349 14.7885 41.66 14.9067 41.6926C14.9251 41.6763 15.4345 41.2198 15.4345 41.2198C15.8054 40.9549 17.7781 39.5854 20.0646 39.6384C25.0941 39.7566 26.4921 45.9293 24.8067 48.4441C24.6682 48.6519 24.4807 48.8965 24.2341 49.1451H24.228Z" fill="#D7F0F7"/>
<path d="M29.0043 54.9281C28.8881 55.3785 28.6803 55.8553 28.3257 56.3138C28.2014 56.4707 28.0669 56.6174 27.9222 56.7519C28.071 56.8741 28.2177 57.0025 28.3665 57.1411L31.584 60.4137C31.8326 60.6358 32.5275 61.0983 33.0756 61.0983C33.1735 61.0983 33.3732 61.0983 33.6809 60.8762C31.7409 59.0423 30.1963 57.0331 29.0063 54.9301L29.0043 54.9281Z" fill="#D7F0F7"/>
<path d="M28.8619 30.6601C31.4032 25.9322 34.9608 22.4006 37.2983 21.0169C38.2744 20.4198 39.249 19.9021 40.215 19.4579C40.215 19.4579 35.1529 14.0351 32.1939 17.1551C31.3278 18.0701 29.2899 21.3531 25.4342 22.0399C25.5361 22.2702 26.5367 25.166 24.7373 27.0531C23.9914 27.8356 22.7707 28.9014 20.4598 28.9014C20.1133 28.9014 19.7445 28.877 19.3613 28.8301L20.8408 30.4421L20.955 30.5806C21.0834 30.7437 21.3809 30.9943 21.5297 31.0901L21.8883 30.8089L22.3387 30.652C22.5567 30.5745 24.5192 29.8959 26.1964 29.8959C27.411 29.8959 28.2689 30.2423 28.8599 30.6642L28.8619 30.6601Z" fill="#D7F0F7"/>
<path d="M53.4968 16.2826C53.4703 16.5985 53.3888 16.9673 53.2522 17.3565C54.9864 17.5643 56.6349 17.9474 58.1734 18.4487C57.9411 18.0391 55.8442 10.8806 53.0892 10.8806C52.1865 10.8806 51.8055 11.4206 50.8457 12.1766C51.5834 12.4395 52.0928 12.8327 52.4331 13.1873C52.9588 13.7354 53.5701 14.7054 53.4968 16.2826Z" fill="#D7F0F7"/>
<path d="M18.4443 50.449C18.5869 50.6058 18.7153 50.7281 18.8049 50.777L19.2469 50.5855C19.1491 50.5753 18.5991 50.5081 18.5991 50.5081L18.4423 50.449H18.4443Z" fill="#D7F0F7"/>
<path d="M54.7482 64.4079C42.6537 64.4079 32.8477 54.6039 32.8477 42.5115C32.8477 30.419 42.6537 20.6151 54.7482 20.6151C60.8474 20.6151 66.3618 23.1114 70.3335 27.1341C65.7565 20.8861 58.3694 16.8227 50.0286 16.8247C36.1347 16.8247 24.8737 28.0837 24.8737 41.9714C24.8737 55.8592 36.1368 67.1182 50.0286 67.1182C56.297 67.1182 62.0253 64.8195 66.429 61.0271C63.0462 63.1648 59.0419 64.4079 54.7462 64.4079H54.7482Z" fill="url(#paint0_linear_670_2813)"/>
<path d="M62.2799 24.1387C67.5456 27.2199 71.0854 32.9319 71.0854 39.4754C71.0854 49.2855 63.1297 57.235 53.3196 57.235C44.1902 57.235 36.6767 50.3512 35.6721 41.4949C35.6537 41.8413 35.6415 42.1938 35.6415 42.5444C35.6415 53.4121 44.453 62.2175 55.3208 62.2175C66.1885 62.2175 75 53.408 75 42.5444C75 34.1281 69.7119 26.9509 62.2779 24.1387" fill="url(#paint1_linear_670_2813)"/>
<path d="M52.7919 25.4998C46.1873 25.4998 40.6098 29.8914 38.8206 35.9131C40.8238 31.4482 45.307 28.3345 50.5197 28.3345C57.5991 28.3345 63.3397 34.0709 63.3397 41.1503C63.3397 48.2297 57.6012 53.9662 50.5197 53.9662C49.3622 53.9662 48.2414 53.8113 47.1736 53.5219C48.9017 54.2433 50.8009 54.6448 52.7919 54.6468C60.8433 54.6468 67.3684 48.1197 67.3705 40.0703C67.3705 32.0209 60.8454 25.4958 52.7919 25.4958" fill="url(#paint2_linear_670_2813)"/>
<defs>
<linearGradient id="paint0_linear_670_2813" x1="59.4916" y1="21.8188" x2="25.5055" y2="72.4149" gradientUnits="userSpaceOnUse">
<stop offset="0.278846" stop-color="#33CFFF"/>
<stop offset="1" stop-color="#0D87C5"/>
</linearGradient>
<linearGradient id="paint1_linear_670_2813" x1="59.4916" y1="21.8188" x2="25.5055" y2="72.4149" gradientUnits="userSpaceOnUse">
<stop offset="0.278846" stop-color="#33CFFF"/>
<stop offset="1" stop-color="#0D87C5"/>
</linearGradient>
<linearGradient id="paint2_linear_670_2813" x1="59.4916" y1="21.8188" x2="25.5055" y2="72.4149" gradientUnits="userSpaceOnUse">
<stop offset="0.278846" stop-color="#33CFFF"/>
<stop offset="1" stop-color="#0D87C5"/>
</linearGradient>
</defs>
</svg>
