<svg width="481" height="600" viewBox="0 0 481 600" fill="none" xmlns="http://www.w3.org/2000/svg">
<g clip-path="url(#clip0_1192_7688)">
<path d="M288.466 98.574C288.466 98.574 318.547 87.5203 317.882 102.646C317.882 102.646 317.516 106.522 314.123 110.306C379.78 106.574 432.686 146.43 444.862 167.82C444.575 167.585 444.275 167.363 443.988 167.141C444.889 168.237 445.776 169.333 446.624 170.469C439.238 143.233 423.12 96.6817 397.698 88.2903C397.698 88.2903 412.928 114.326 398.116 120.734C398.116 120.734 386.201 120.89 380.015 103.625C380.015 103.625 368.035 40.4475 326.143 51.8536C310.443 57.2956 305.249 66.4831 294.509 74.9397C283.768 83.3964 269.204 93.0407 246.026 78.2284C246.026 78.2284 263.409 106.456 288.427 98.5871H288.44L288.466 98.574Z" fill="#0D87C5"/>
<path d="M167.972 241.999C178.673 189.589 217.068 147.501 238.862 134.594C252.995 125.955 267.024 119.912 280.727 115.997C276.369 115.162 215.488 54.1122 185.433 97.6745C177.12 113.7 172.148 123.384 144.899 123.54C144.899 123.54 118.902 120.761 114.504 143.051C114.504 143.051 136.573 137.426 140.135 149.837C140.135 149.837 145.342 172.988 109.663 164.01C98.9221 161.178 86.3415 149.628 72.8474 180.479C72.8474 180.479 60.0319 209.986 42.0354 200.446C42.0354 200.446 55.1119 225.177 71.5163 209.399C71.5163 209.399 88.9908 190.737 100.253 193.021C116.057 196.231 120.403 222.906 143.085 213.823C156.396 209.034 172.148 207.729 168.285 220.622C157.049 245.888 139.992 219.343 119.307 221.04C96.3251 222.906 96.7427 244.165 69.8719 233.986C54.6812 226.808 25.1873 217.712 0 258.873C0 258.873 23.3602 237.81 47.8298 254.841C47.8298 254.841 66.2439 271.284 74.0089 279.519C74.0089 279.519 87.8554 292.726 103.385 283.043C118.119 275.813 134.928 269.927 140.383 282.09C146.008 294.657 136.468 316.23 102.668 297.15C97.6301 294.305 80.0643 285.131 63.6338 314.664C63.6338 314.664 82.3742 307.421 90.9092 324.987C90.9092 324.987 101.35 345.841 119.229 343.296C128.168 342.161 156.722 322.024 162.882 341.991C166.314 360.797 136.638 338.924 126.145 351.857C123.274 357.299 121.995 360.144 118.654 365.09C118.654 365.09 107.731 376.353 89.5911 355.903C89.5911 355.903 97.8651 387.041 123.379 385.71C135.803 385.736 141.884 362.337 162.204 378.989L183.371 400.509C183.371 400.509 205.779 422.016 225.929 399.961C225.929 399.961 226.046 399.648 226.268 399.087C172.252 355.616 158.093 292.909 167.985 242.025V241.986L167.972 241.999Z" fill="#0D87C5"/>
<path d="M167.972 241.999C168.507 239.415 169.12 236.843 169.773 234.298C165.479 236.987 159.646 238.762 151.985 239.114C132.762 240.014 129.108 227.825 119.881 228.556C106.504 229.6 101.519 244.504 87.3203 244.947C71.5946 245.443 56.2473 233.489 48.0516 233.489C40.9391 233.489 33.8658 236.556 27.0666 242.507C29.1938 242.168 31.3993 241.972 33.6831 241.972C42.1267 241.972 50.1658 244.569 57.5523 249.737L57.8525 249.946L58.1265 250.194C58.8835 250.872 76.8147 266.911 84.2535 274.833C84.3057 274.872 89.826 279.205 95.8161 279.466C105.826 279.909 117.284 266.22 128.429 266.22C137.264 266.22 144.233 270.565 148.801 279.231C149.427 280.693 154.765 293.795 148.448 303.4C145.904 307.25 139.457 311.557 129.33 311.857C118.093 312.431 109.754 303.309 96.4817 299.733C91.0005 298.258 86.0414 302.917 82.2307 307.172C91.2354 308.268 98.4132 313.527 102.668 322.31C102.746 322.467 106.726 337.788 120.808 337.671C131.444 337.671 146.935 327.948 153.499 327.074C170.425 324.842 173.662 341.39 173.662 341.39C173.662 341.39 174.862 348.189 171.613 353.005C162.791 366.068 150.197 352.065 141.101 354.754C130.139 357.977 132.083 377.031 116.357 374.381C113.891 373.964 121.852 379.589 127.672 379.589C133.493 379.589 137.29 364.724 153.303 365.794C169.851 366.877 193.264 406.994 211.821 403.693C216.519 402.857 220.97 401.879 225.133 398.159C172.057 354.714 158.158 292.543 167.985 242.025L167.972 241.999Z" fill="#33CFFF"/>
<path d="M73.1215 205.222C74.8311 203.343 98.4915 177.151 109.219 186.86C117.95 195.291 124.005 210.742 138.295 211.695C147.496 212.308 158.967 203.826 167.763 203.826C172.879 203.826 176.716 205.17 179.182 207.793C195.417 171.826 222.066 144.538 238.849 134.58C250.085 127.703 261.256 122.482 272.258 118.659C271.644 118.463 217.759 72.3035 196.578 101.602C182.954 124.022 167.398 132.779 131.131 135.546H131.3C146.426 135.546 150.954 143.402 152.39 148.453C152.612 149.458 154.399 158.449 148.749 165.483C144.925 170.247 140.357 172.948 131.026 172.674C118.733 172.309 107.053 165.275 97.1995 168.707C89.5389 171.369 88.3252 174.658 84.7233 182.919C83.7445 185.164 75.9012 202.364 62.5376 207.232C63.8296 207.963 65.1738 208.432 66.531 208.432C68.6713 208.432 70.9812 207.245 73.1215 205.209V205.222Z" fill="#33CFFF"/>
<path d="M292.525 92.7405C292.995 92.5578 304.27 88.46 313.745 88.46C319.526 88.46 323.95 89.9869 326.834 93.0146C328.531 94.7894 330.502 97.9346 330.254 103.168C330.084 105.138 329.379 107.618 328.009 110.137C387.14 112.173 433.561 147.931 444.875 167.793C444.588 167.572 444.288 167.324 443.988 167.102C444.784 168.067 445.58 169.059 446.35 170.051C440.295 148.361 430.102 120.381 416.595 104.838C417.196 108.753 419.244 126.593 405.607 126.893C395.467 127.102 386.397 122.417 380.406 105.673L380.25 105.243L380.159 104.799C380.054 104.316 367.721 55.3902 339.989 57.2695C322.828 58.966 302.013 93.902 273.354 90.2087C277.06 92.2968 281.249 93.7323 285.817 93.7323C288.114 93.7323 290.45 93.3669 292.499 92.7274H292.512L292.525 92.7405Z" fill="#33CFFF"/>
<path d="M426.464 148.925C424.349 143.352 422.052 137.896 419.598 132.818C417.392 134.776 414.847 136.408 412.028 137.661C417.053 141.12 421.869 144.879 426.477 148.938L426.464 148.925Z" fill="#D7F0F7"/>
<path d="M155.158 314.73C161.475 315.004 167.257 316.91 172.164 320.172C164.829 296.263 163.472 271.78 166.787 249.254C162.441 250.664 157.521 251.538 152 251.538C142.46 251.538 132.072 248.941 121.148 243.812L118.042 242.363C114.336 247.297 102.551 257.359 87.3465 257.359C86.3024 257.359 85.2192 257.32 84.1491 257.241C87.3074 260.23 94.7071 266.795 95.4641 267.003C95.5816 266.899 98.8443 263.976 98.8443 263.976C101.22 262.279 113.853 253.509 128.496 253.848C160.705 254.605 169.658 294.136 158.865 310.241C157.977 311.572 156.777 313.138 155.198 314.73H155.158Z" fill="#D7F0F7"/>
<path d="M185.746 351.765C185.002 354.649 183.671 357.703 181.401 360.639C180.605 361.644 179.743 362.583 178.817 363.445C179.769 364.228 180.709 365.05 181.662 365.937L202.267 386.895C203.859 388.318 208.309 391.28 211.82 391.28C212.446 391.28 213.725 391.28 215.695 389.857C203.272 378.113 193.38 365.246 185.759 351.778L185.746 351.765Z" fill="#D7F0F7"/>
<path d="M184.835 196.35C201.109 166.073 223.892 143.456 238.862 134.594C245.113 130.77 251.355 127.455 257.541 124.61C257.541 124.61 225.123 89.882 206.173 109.863C200.626 115.723 187.575 136.747 162.883 141.146C163.536 142.62 169.944 161.165 158.42 173.25C153.643 178.262 145.826 185.088 131.026 185.088C128.808 185.088 126.446 184.931 123.992 184.631L133.467 194.954L134.198 195.841C135.02 196.885 136.925 198.491 137.878 199.104L140.175 197.303L143.059 196.298C144.456 195.802 157.024 191.456 167.764 191.456C175.543 191.456 181.037 193.675 184.822 196.377L184.835 196.35Z" fill="#D7F0F7"/>
<path d="M342.599 104.275C342.429 106.298 341.907 108.66 341.033 111.153C352.138 112.484 362.695 114.937 372.548 118.147C371.06 115.524 357.632 69.6804 339.989 69.6804C334.208 69.6804 331.767 73.1386 325.621 77.9801C330.345 79.6635 333.607 82.1821 335.787 84.4528C339.154 87.9632 343.068 94.1749 342.599 104.275Z" fill="#D7F0F7"/>
<path d="M118.119 323.08C119.032 324.085 119.854 324.868 120.428 325.181L123.259 323.954C122.633 323.889 119.111 323.459 119.111 323.459L118.106 323.08H118.119Z" fill="#D7F0F7"/>
<path d="M350.613 412.474C273.159 412.474 210.36 349.689 210.36 272.248C210.36 194.806 273.159 132.021 350.613 132.021C389.673 132.021 424.987 148.008 450.422 173.769C421.111 133.757 373.803 107.734 320.388 107.747C231.41 107.747 159.294 179.851 159.294 268.789C159.294 357.728 231.424 429.831 320.388 429.831C360.531 429.831 397.216 415.111 425.418 390.824C403.754 404.514 378.11 412.474 350.6 412.474H350.613Z" fill="url(#paint0_linear_1192_7688)"/>
<path d="M398.847 154.587C432.569 174.319 455.238 210.899 455.238 252.804C455.238 315.629 404.289 366.539 341.464 366.539C282.998 366.539 234.881 322.454 228.447 265.737C228.33 267.956 228.252 270.214 228.252 272.458C228.252 342.056 284.682 398.447 354.28 398.447C423.877 398.447 480.307 342.03 480.307 272.458C480.307 218.56 446.442 172.596 398.834 154.587" fill="url(#paint1_linear_1192_7688)"/>
<path d="M338.084 163.304C295.788 163.304 260.069 191.427 248.611 229.991C261.439 201.398 290.15 181.457 323.533 181.457C368.87 181.457 405.633 218.194 405.633 263.531C405.633 308.868 368.883 345.605 323.533 345.605C316.121 345.605 308.943 344.613 302.105 342.76C313.171 347.38 325.334 349.951 338.084 349.964C389.647 349.964 431.434 308.163 431.447 256.614C431.447 205.065 389.66 163.277 338.084 163.277" fill="url(#paint2_linear_1192_7688)"/>
</g>
<g clip-path="url(#clip1_1192_7688)">
<path d="M135.274 599.999L126.483 588.193C123.886 588.716 121.336 588.978 118.859 588.978C112.402 588.978 106.493 587.479 101.109 584.479C95.7244 581.48 91.4597 577.314 88.291 571.934C85.1223 566.555 83.5498 560.532 83.5498 553.819C83.5498 547.107 85.1223 541.084 88.291 535.752C91.4597 530.42 95.7244 526.254 101.109 523.255C106.493 520.256 112.402 518.756 118.859 518.756C125.315 518.756 131.224 520.256 136.608 523.255C141.993 526.254 146.21 530.42 149.307 535.752C152.404 541.084 153.953 547.107 153.953 553.819C153.953 559.675 152.762 565.031 150.379 569.887C147.997 574.743 144.685 578.766 140.468 581.956L155.525 600.023H135.298L135.274 599.999ZM105.612 568.292C108.9 571.911 113.307 573.72 118.859 573.72C124.41 573.72 128.722 571.887 132.01 568.245C135.298 564.603 136.942 559.794 136.942 553.796C136.942 547.797 135.298 542.917 132.01 539.299C128.722 535.681 124.338 533.872 118.859 533.872C113.379 533.872 108.9 535.657 105.612 539.251C102.324 542.822 100.68 547.678 100.68 553.796C100.68 559.913 102.324 564.698 105.612 568.292Z" fill="#1D3366"/>
<path d="M179.851 519.708V560.723C179.851 564.817 180.852 567.983 182.877 570.197C184.902 572.41 187.856 573.505 191.764 573.505C195.671 573.505 198.673 572.41 200.746 570.197C202.842 567.983 203.867 564.817 203.867 560.723V519.708H220.592V560.627C220.592 566.745 219.282 571.934 216.685 576.148C214.088 580.385 210.586 583.575 206.178 585.717C201.77 587.859 196.886 588.931 191.478 588.931C186.07 588.931 181.233 587.883 176.968 585.765C172.704 583.646 169.321 580.456 166.843 576.195C164.365 571.934 163.126 566.745 163.126 560.627V519.708H179.851Z" fill="#1D3366"/>
<path d="M249.064 519.708V588.264H232.339V519.708H249.064Z" fill="#1D3366"/>
<path d="M262.74 535.776C265.67 530.467 269.768 526.325 275.01 523.374C280.251 520.422 286.207 518.922 292.855 518.922C301.003 518.922 307.984 521.065 313.773 525.373C319.562 529.682 323.446 535.538 325.4 542.965H307.031C305.672 540.108 303.719 537.918 301.217 536.418C298.716 534.919 295.857 534.181 292.664 534.181C287.518 534.181 283.348 535.966 280.156 539.561C276.963 543.131 275.367 547.94 275.367 553.914C275.367 559.889 276.963 564.698 280.156 568.268C283.348 571.839 287.518 573.648 292.664 573.648C295.857 573.648 298.716 572.91 301.217 571.411C303.719 569.911 305.672 567.745 307.031 564.864H325.4C323.446 572.291 319.562 578.123 313.773 582.384C307.96 586.645 301.003 588.788 292.855 588.788C286.207 588.788 280.251 587.312 275.01 584.336C269.768 581.385 265.67 577.266 262.74 571.982C259.809 566.697 258.332 560.675 258.332 553.914C258.332 547.154 259.809 541.108 262.74 535.8V535.776Z" fill="#1D3366"/>
<path d="M375.457 588.264L352.394 557.985V588.264H335.669V519.708H352.394V549.796L375.266 519.708H394.922L368.333 553.296L395.899 588.264H375.457Z" fill="#1D3366"/>
</g>
<defs>
<linearGradient id="paint0_linear_1192_7688" x1="380.99" y1="139.73" x2="163.34" y2="463.752" gradientUnits="userSpaceOnUse">
<stop offset="0.278846" stop-color="#33CFFF"/>
<stop offset="1" stop-color="#0D87C5"/>
</linearGradient>
<linearGradient id="paint1_linear_1192_7688" x1="380.99" y1="139.73" x2="163.34" y2="463.752" gradientUnits="userSpaceOnUse">
<stop offset="0.278846" stop-color="#33CFFF"/>
<stop offset="1" stop-color="#0D87C5"/>
</linearGradient>
<linearGradient id="paint2_linear_1192_7688" x1="380.99" y1="139.73" x2="163.34" y2="463.752" gradientUnits="userSpaceOnUse">
<stop offset="0.278846" stop-color="#33CFFF"/>
<stop offset="1" stop-color="#0D87C5"/>
</linearGradient>
<clipPath id="clip0_1192_7688">
<rect width="480.307" height="480.307" fill="white"/>
</clipPath>
<clipPath id="clip1_1192_7688">
<rect width="312.301" height="81.268" fill="white" transform="translate(83.5737 518.732)"/>
</clipPath>
</defs>
</svg>
