<svg width="190" height="50" viewBox="0 0 190 50" fill="none" xmlns="http://www.w3.org/2000/svg">
<g clip-path="url(#clip0_670_2781)">
<path d="M77.2683 44.7498L73.482 39.6648C72.3636 39.8904 71.2656 40.0032 70.1985 40.0032C67.4178 40.0032 64.873 39.3573 62.5541 38.0656C60.2351 36.7738 58.3983 34.9798 57.0336 32.6628C55.6689 30.3459 54.9917 27.7522 54.9917 24.8612C54.9917 21.9702 55.6689 19.3765 57.0336 17.0801C58.3983 14.7837 60.2351 12.9896 62.5541 11.6978C64.873 10.4061 67.4178 9.76025 70.1985 9.76025C72.9792 9.76025 75.5239 10.4061 77.8429 11.6978C80.1619 12.9896 81.9781 14.7837 83.312 17.0801C84.646 19.3765 85.3129 21.9702 85.3129 24.8612C85.3129 27.3832 84.7999 29.6898 83.7738 31.7812C82.7477 33.8726 81.3214 35.6051 79.5052 36.9789L85.9902 44.76H77.2786L77.2683 44.7498ZM64.4934 31.0943C65.9094 32.6526 67.8077 33.4317 70.1985 33.4317C72.5893 33.4317 74.4465 32.6423 75.8626 31.0738C77.2786 29.5053 77.9866 27.4344 77.9866 24.8509C77.9866 22.2675 77.2786 20.1659 75.8626 18.6076C74.4465 17.0493 72.5585 16.2702 70.1985 16.2702C67.8385 16.2702 65.9094 17.0391 64.4934 18.5871C63.0774 20.1249 62.3694 22.2162 62.3694 24.8509C62.3694 27.4857 63.0774 29.5463 64.4934 31.0943Z" fill="white"/>
<path d="M96.4666 10.1704V27.8343C96.4666 29.5976 96.8976 30.9611 97.7698 31.9145C98.642 32.868 99.9143 33.3395 101.597 33.3395C103.28 33.3395 104.573 32.868 105.466 31.9145C106.369 30.9611 106.81 29.5976 106.81 27.8343V10.1704H114.013V27.7933C114.013 30.428 113.449 32.6629 112.33 34.4775C111.212 36.3023 109.703 37.6761 107.805 38.5987C105.907 39.5214 103.803 39.9827 101.474 39.9827C99.1448 39.9827 97.0618 39.5317 95.2251 38.6192C93.3883 37.7068 91.9313 36.3331 90.8641 34.498C89.797 32.6629 89.2634 30.428 89.2634 27.7933V10.1704H96.4666Z" fill="white"/>
<path d="M126.275 10.1704V39.6957H119.072V10.1704H126.275Z" fill="white"/>
<path d="M132.165 17.0903C133.427 14.8042 135.192 13.0204 137.449 11.7491C139.706 10.4779 142.272 9.83203 145.134 9.83203C148.644 9.83203 151.65 10.7547 154.144 12.6103C156.637 14.4659 158.31 16.9878 159.151 20.1864H151.24C150.655 18.9562 149.813 18.013 148.736 17.3671C147.659 16.7213 146.427 16.4035 145.052 16.4035C142.836 16.4035 141.04 17.1723 139.665 18.7204C138.29 20.2581 137.603 22.329 137.603 24.9022C137.603 27.4754 138.29 29.5463 139.665 31.0841C141.04 32.6219 142.836 33.401 145.052 33.401C146.427 33.401 147.659 33.0832 148.736 32.4373C149.813 31.7915 150.655 30.8585 151.24 29.6181H159.151C158.31 32.8166 156.637 35.3283 154.144 37.1634C151.64 38.9985 148.644 39.9212 145.134 39.9212C142.272 39.9212 139.706 39.2855 137.449 38.0041C135.192 36.7328 133.427 34.9593 132.165 32.6834C130.902 30.4075 130.266 27.8137 130.266 24.9022C130.266 21.9907 130.902 19.3867 132.165 17.1006V17.0903Z" fill="white"/>
<path d="M180.709 39.6957L170.777 26.6554V39.6957H163.573V10.1704H170.777V23.1287L180.627 10.1704H189.093L177.641 24.6357L189.513 39.6957H180.709Z" fill="white"/>
</g>
<path d="M41.5258 16.0849C45.0355 18.1396 47.3903 21.9443 47.3903 26.3088C47.3903 32.8482 42.0858 38.1476 35.5464 38.1476C29.4621 38.1476 24.4526 33.5581 23.7826 27.6537C23.7726 27.8837 23.7626 28.1186 23.7626 28.3536C23.7626 35.5979 29.637 41.4673 36.8813 41.4673C44.1256 41.4673 50 35.5929 50 28.3536C50 22.7442 46.4754 17.9597 41.5208 16.0849H41.5258Z" fill="white"/>
<path d="M33.6816 35.9679C32.9117 35.9679 32.1618 35.8629 31.4519 35.6729C32.6017 36.1528 33.8716 36.4228 35.1965 36.4228C40.5659 36.4228 44.9155 32.0733 44.9155 26.7038C44.9155 21.3393 40.5659 16.9898 35.1965 16.9898C30.7919 16.9898 27.0773 19.9195 25.8824 23.9341C27.2173 20.9594 30.207 18.8846 33.6816 18.8846C38.4012 18.8846 42.2258 22.7092 42.2258 27.4287C42.2258 32.1482 38.4012 35.9729 33.6816 35.9729V35.9679Z" fill="white"/>
<path d="M21.9028 28.3286C21.9028 20.2694 28.4372 13.7301 36.5013 13.7301C40.306 13.7301 43.7706 15.1899 46.3704 17.5747C46.4104 17.6247 46.4554 17.6797 46.4953 17.7347C46.4953 17.7197 46.4854 17.6997 46.4804 17.6847C46.6203 17.8147 46.7553 17.9447 46.8903 18.0797C46.7403 17.8747 46.5803 17.6747 46.4254 17.4797C45.6254 14.62 43.9756 10.0305 41.4059 9.18554C41.4059 9.18554 42.9907 11.8953 41.4509 12.5602C41.4509 12.5602 40.211 12.5752 39.566 10.7804C39.566 10.7804 38.3212 4.20604 33.9566 5.39092C32.3218 5.95586 31.7818 6.91577 30.6619 7.79568C29.542 8.67559 28.0272 9.68049 25.6174 8.13565C25.6174 8.13565 27.4273 11.0754 30.032 10.2554C30.032 10.2554 33.1617 9.10555 33.0917 10.6804C33.0917 10.6804 33.0667 10.9254 32.8867 11.2253C31.4968 11.2653 30.147 11.4703 28.8571 11.8253C27.3823 10.6904 22.0828 6.13585 19.3031 10.1654C18.4382 11.8353 17.9182 12.8402 15.0835 12.8602C15.0835 12.8602 12.3788 12.5702 11.9188 14.89C11.9188 14.89 14.2136 14.305 14.5885 15.5949C14.5885 15.5949 15.1285 18.0047 11.4189 17.0698C10.299 16.7748 8.9891 15.5749 7.58924 18.7846C7.58924 18.7846 6.25437 21.8543 4.37956 20.8644C4.37956 20.8644 5.73943 23.4391 7.44926 21.7943C7.44926 21.7943 9.26907 19.8495 10.439 20.0895C12.0838 20.4244 12.5387 23.1991 14.8985 22.2542C16.0334 21.8443 17.3333 21.6843 17.5482 22.3692C17.4083 22.7642 17.2833 23.1641 17.1733 23.5691C16.0134 25.099 14.3736 22.8492 12.4188 23.0092C10.029 23.2041 10.069 25.4139 7.27427 24.359C5.69443 23.6141 2.62474 22.6642 0 26.9488C0 26.9488 2.42976 24.754 4.9795 26.5288C4.9795 26.5288 6.89431 28.2386 7.70423 29.0985C7.70423 29.0985 9.14409 30.4734 10.7639 29.4635C12.2988 28.7086 14.0486 28.0987 14.6135 29.3635C15.1985 30.6734 14.2036 32.9182 10.6889 30.9334C10.164 30.6384 8.33417 29.6835 6.62434 32.7582C6.62434 32.7582 8.57414 32.0033 9.46405 33.8331C9.46405 33.8331 10.5489 36.0029 12.4138 35.7379C13.3437 35.6179 16.3184 33.5231 16.9583 35.6029C17.3133 37.5627 14.2286 35.2829 13.1337 36.6278C12.8337 37.1927 12.7037 37.4927 12.3538 38.0077C12.3538 38.0077 11.2189 39.1775 9.32907 37.0528C9.32907 37.0528 10.189 40.2924 12.8437 40.1574C14.1386 40.1574 14.7685 37.7227 16.8833 39.4575L19.0881 41.6973C19.0881 41.6973 21.4229 43.9371 23.5176 41.6423C23.5176 41.6423 23.5276 41.6173 23.5426 41.5823C26.3024 43.5771 29.687 44.752 33.3517 44.752C37.5312 44.752 41.3509 43.2171 44.2856 40.6924C42.0308 42.1172 39.3611 42.9472 36.4963 42.9472C28.4322 42.9472 21.8978 36.4128 21.8978 28.3486L21.9028 28.3286ZM43.6806 13.8151C43.9056 14.28 44.1156 14.78 44.3106 15.2849C44.9705 15.8299 45.5054 16.3648 45.8904 16.8498C45.0305 15.8799 44.0606 15.01 42.9957 14.26C43.2457 14.14 43.4807 13.9901 43.6806 13.8101V13.8151ZM35.3965 7.24573C37.0563 7.24573 38.3562 11.1353 38.7061 12.0853C37.6962 11.7453 36.6513 11.4953 35.5664 11.3553C35.6164 11.1753 35.6564 11.0004 35.6714 10.8454C35.7214 9.79548 35.3115 9.14554 34.9615 8.78058C34.7365 8.5456 34.3966 8.28063 33.9016 8.10565C34.5415 7.6007 34.7965 7.24074 35.3965 7.24074V7.24573ZM12.5387 33.8381C12.4788 33.8031 12.3938 33.7231 12.2988 33.6181L12.3988 33.6581C12.3988 33.6581 12.7637 33.7031 12.8287 33.7081L12.5337 33.8381H12.5387ZM13.3787 26.4138C11.8538 26.3788 10.5389 27.2937 10.294 27.4687C10.294 27.4687 9.954 27.7737 9.94401 27.7837C9.86401 27.7637 9.09409 27.0788 8.76412 26.7688C8.87411 26.7788 8.9891 26.7788 9.09909 26.7788C10.6839 26.7788 11.9088 25.7339 12.2938 25.2189L12.6187 25.3689C13.7536 25.9039 14.8385 26.1738 15.8284 26.1738C16.1334 26.1738 16.4234 26.1488 16.6933 26.0988C16.6233 26.7138 16.5883 27.3337 16.5883 27.9687C16.5883 28.2036 16.5983 28.4386 16.6083 28.6736C16.0834 27.4587 15.0285 26.4488 13.3837 26.4138H13.3787ZM16.1534 32.7532C16.3184 32.5882 16.4434 32.4232 16.5333 32.2882C16.7133 32.0183 16.8383 31.6783 16.9083 31.3033C17.0283 31.8883 17.1783 32.4682 17.3533 33.0282C16.9783 32.8732 16.5783 32.7732 16.1434 32.7532H16.1534ZM17.4683 19.9195C16.3484 19.9195 15.0435 20.3694 14.8985 20.4244L14.5985 20.5294L14.3586 20.7144C14.2586 20.6494 14.0636 20.4844 13.9736 20.3744L13.8986 20.2844L12.9137 19.2095C13.1687 19.2395 13.4137 19.2595 13.6436 19.2595C15.1835 19.2595 15.9984 18.5496 16.4933 18.0297C17.6932 16.7698 17.0283 14.84 16.9583 14.69C19.528 14.23 20.8879 12.0453 21.4629 11.4353C23.0827 9.73049 25.6424 11.8553 26.5123 12.6752C23.1077 14.2 20.303 16.8248 18.5531 20.0994C18.2482 19.9995 17.8932 19.9295 17.4683 19.9295V19.9195ZM22.0528 40.7224C21.6878 40.7224 21.2229 40.4124 21.0579 40.2674L18.9131 38.0876C18.8131 37.9977 18.7181 37.9077 18.6181 37.8277C18.7131 37.7377 18.8031 37.6427 18.8881 37.5377C19.0281 37.3527 19.1331 37.1677 19.2131 36.9778C20.083 38.3426 21.1479 39.5725 22.3678 40.6324C22.2128 40.7224 22.1078 40.7274 22.0528 40.7274V40.7224Z" fill="white"/>
<defs>
<clipPath id="clip0_670_2781">
<rect width="134.501" height="35.0003" fill="white" transform="translate(55.002 9.75)"/>
</clipPath>
</defs>
</svg>
