<svg width="190" height="50" viewBox="0 0 190 50" fill="none" xmlns="http://www.w3.org/2000/svg">
<path d="M30.0298 10.2612C30.0298 10.2612 33.1613 9.11052 33.092 10.6851C33.092 10.6851 33.054 11.0886 32.7007 11.4826C39.5357 11.094 45.0433 15.2431 46.3109 17.4698C46.281 17.4453 46.2498 17.4222 46.2199 17.3991C46.3136 17.5133 46.406 17.6274 46.4943 17.7456C45.7254 14.9102 44.0475 10.0642 41.401 9.19067C41.401 9.19067 42.9865 11.901 41.4445 12.5681C41.4445 12.5681 40.2041 12.5844 39.5602 10.787C39.5602 10.787 38.313 4.21016 33.952 5.39755C32.3176 5.96407 31.7769 6.9205 30.6588 7.80086C29.5407 8.68121 28.0246 9.68519 25.6117 8.14322C25.6117 8.14322 27.4214 11.0818 30.0257 10.2626H30.0271L30.0298 10.2612Z" fill="#0D87C5"/>
<path d="M17.4861 25.192C18.6002 19.736 22.5971 15.3546 24.8659 14.011C26.3372 13.1116 27.7977 12.4826 29.2242 12.075C28.7704 11.9881 22.4327 5.63268 19.3039 10.1676C18.4385 11.8359 17.9209 12.844 15.0842 12.8603C15.0842 12.8603 12.3779 12.5709 11.9201 14.8913C11.9201 14.8913 14.2174 14.3058 14.5883 15.5978C14.5883 15.5978 15.1304 18.0079 11.4161 17.0732C10.298 16.7784 8.98829 15.576 7.58353 18.7877C7.58353 18.7877 6.24942 21.8594 4.37595 20.8663C4.37595 20.8663 5.73724 23.4408 7.44496 21.7983C7.44496 21.7983 9.26408 19.8555 10.4365 20.0933C12.0818 20.4275 12.5342 23.2044 14.8953 22.2588C16.2811 21.7602 17.9209 21.6244 17.5187 22.9667C16.349 25.5968 14.5734 22.8335 12.42 23.0101C10.0276 23.2044 10.0711 25.4175 7.27378 24.3578C5.6924 23.6106 2.62204 22.6637 0 26.9486C0 26.9486 2.43184 24.7559 4.97915 26.5288C4.97915 26.5288 6.8961 28.2406 7.70444 29.0979C7.70444 29.0979 9.14589 30.4727 10.7626 29.4647C12.2964 28.712 14.0462 28.0993 14.6141 29.3655C15.1997 30.6738 14.2066 32.9195 10.6879 30.9333C10.1635 30.6371 8.33482 29.6821 6.62438 32.7565C6.62438 32.7565 8.57529 32.0025 9.46379 33.8311C9.46379 33.8311 10.5506 36.0021 12.4119 35.7372C13.3425 35.619 16.3151 33.5227 16.9563 35.6013C17.3136 37.559 14.2242 35.2821 13.1319 36.6284C12.833 37.1949 12.6999 37.4911 12.3521 38.006C12.3521 38.006 11.215 39.1785 9.32658 37.0496C9.32658 37.0496 10.1879 40.2911 12.8439 40.1526C14.1373 40.1553 14.7704 37.7194 16.8857 39.4529L19.0893 41.6932C19.0893 41.6932 21.4219 43.9321 23.5195 41.6361C23.5195 41.6361 23.5318 41.6035 23.5549 41.5451C17.9318 37.0197 16.4577 30.4918 17.4875 25.1947V25.1906L17.4861 25.192Z" fill="#0D87C5"/>
<path d="M17.4861 25.192C17.5418 24.923 17.6057 24.6553 17.6736 24.3903C17.2267 24.6702 16.6194 24.855 15.8219 24.8917C13.8207 24.9854 13.4403 23.7165 12.4798 23.7926C11.0873 23.9013 10.5683 25.4527 9.09018 25.4989C7.45311 25.5506 5.85543 24.3061 5.00225 24.3061C4.26183 24.3061 3.52549 24.6254 2.81767 25.2449C3.03912 25.2096 3.26872 25.1892 3.50647 25.1892C4.38546 25.1892 5.22234 25.4595 5.99129 25.9975L6.02254 26.0193L6.05107 26.0451C6.12986 26.1157 7.99654 27.7854 8.77092 28.6101C8.77636 28.6141 9.35103 29.0652 9.97461 29.0923C11.0166 29.1385 12.2095 27.7134 13.3697 27.7134C14.2894 27.7134 15.0149 28.1658 15.4904 29.0679C15.5556 29.2201 16.1113 30.5841 15.4537 31.584C15.1888 31.9847 14.5177 32.4331 13.4634 32.4643C12.2937 32.5241 11.4256 31.5745 10.0439 31.2022C9.4733 31.0487 8.95704 31.5337 8.56034 31.9766C9.49776 32.0907 10.245 32.6382 10.6879 33.5525C10.696 33.5688 11.1104 35.1638 12.5763 35.1516C13.6835 35.1516 15.2961 34.1394 15.9795 34.0484C17.7416 33.8161 18.0785 35.5388 18.0785 35.5388C18.0785 35.5388 18.2035 36.2466 17.8652 36.7479C16.9468 38.1078 15.6358 36.6501 14.6888 36.9299C13.5476 37.2655 13.7501 39.249 12.113 38.9732C11.8562 38.9297 12.685 39.5153 13.2909 39.5153C13.8968 39.5153 14.2921 37.9679 15.9591 38.0793C17.6818 38.192 20.119 42.3683 22.0509 42.0246C22.54 41.9376 23.0033 41.8357 23.4367 41.4485C17.9114 36.9259 16.4645 30.4537 17.4875 25.1947L17.4861 25.192Z" fill="#33CFFF"/>
<path d="M7.61206 21.3635C7.79003 21.1678 10.2531 18.4412 11.3699 19.4519C12.2787 20.3296 12.9091 21.9381 14.3968 22.0373C15.3545 22.1012 16.5487 21.2181 17.4644 21.2181C17.997 21.2181 18.3964 21.358 18.6532 21.6311C20.3432 17.8869 23.1174 15.0461 24.8645 14.0095C26.0343 13.2936 27.1972 12.7501 28.3425 12.3521C28.2786 12.3317 22.6691 7.52642 20.4641 10.5764C19.0458 12.9104 17.4264 13.822 13.6509 14.1101H13.6686C15.2431 14.1101 15.7146 14.9279 15.864 15.4537C15.8871 15.5583 16.0732 16.4943 15.485 17.2266C15.0869 17.7225 14.6114 18.0037 13.64 17.9752C12.3603 17.9371 11.1443 17.2049 10.1186 17.5622C9.32114 17.8393 9.19479 18.1817 8.81983 19.0417C8.71794 19.2753 7.90144 21.0659 6.51026 21.5727C6.64476 21.6488 6.78469 21.6977 6.92598 21.6977C7.14879 21.6977 7.38926 21.574 7.61206 21.3621V21.3635Z" fill="#33CFFF"/>
<path d="M30.4523 9.65394C30.5012 9.63492 31.675 9.20833 32.6614 9.20833C33.2632 9.20833 33.7238 9.36729 34.024 9.68247C34.2006 9.86724 34.4058 10.1947 34.3799 10.7394C34.3623 10.9446 34.2889 11.2027 34.1463 11.4649C40.3019 11.6769 45.1344 15.3993 46.3123 17.4671C46.2824 17.444 46.2511 17.4182 46.2199 17.3951C46.3027 17.4956 46.3856 17.5989 46.4658 17.7021C45.8354 15.4442 44.7744 12.5314 43.3682 10.9133C43.4307 11.3209 43.644 13.1781 42.2243 13.2093C41.1687 13.2311 40.2245 12.7433 39.6009 11.0003L39.5846 10.9555L39.5751 10.9093C39.5642 10.859 38.2804 5.76572 35.3934 5.96135C33.6069 6.13797 31.44 9.77486 28.4566 9.39038C28.8424 9.60775 29.2785 9.7572 29.754 9.7572C29.9931 9.7572 30.2363 9.71916 30.4496 9.65259H30.451L30.4523 9.65394Z" fill="#33CFFF"/>
<path d="M44.3955 15.5028C44.1754 14.9226 43.9363 14.3547 43.6808 13.8261C43.4512 14.0299 43.1862 14.1998 42.8927 14.3302C43.4159 14.6903 43.9173 15.0816 44.3969 15.5042L44.3955 15.5028Z" fill="#D7F0F7"/>
<path d="M16.1522 32.7634C16.8098 32.7919 17.4117 32.9903 17.9225 33.33C17.159 30.841 17.0177 28.2922 17.3628 25.9473C16.9103 26.094 16.3982 26.185 15.8235 26.185C14.8303 26.185 13.7489 25.9147 12.6117 25.3807L12.2884 25.2299C11.9025 25.7435 10.6757 26.791 9.09291 26.791C8.98422 26.791 8.87146 26.7869 8.76005 26.7787C9.08884 27.0899 9.85917 27.7732 9.93797 27.795C9.95019 27.7841 10.2898 27.4798 10.2898 27.4798C10.5371 27.3032 11.8522 26.3902 13.3766 26.4255C16.7297 26.5043 17.6617 30.6195 16.5381 32.2961C16.4457 32.4346 16.3207 32.5977 16.1563 32.7634H16.1522Z" fill="#D7F0F7"/>
<path d="M19.3365 36.6188C19.259 36.9191 19.1205 37.2369 18.8841 37.5426C18.8012 37.6472 18.7116 37.745 18.6151 37.8347C18.7143 37.9162 18.8121 38.0018 18.9113 38.0942L21.0563 40.2759C21.2221 40.424 21.6853 40.7324 22.0508 40.7324C22.116 40.7324 22.2491 40.7324 22.4542 40.5843C21.161 39.3616 20.1312 38.0222 19.3378 36.6202L19.3365 36.6188Z" fill="#D7F0F7"/>
<path d="M19.2416 20.4399C20.9358 17.2879 23.3076 14.9335 24.8659 14.011C25.5167 13.6129 26.1664 13.2678 26.8104 12.9716C26.8104 12.9716 23.4356 9.35638 21.4629 11.4364C20.8855 12.0464 19.5269 14.2351 16.9564 14.693C17.0243 14.8465 17.6914 16.7771 16.4918 18.0352C15.9945 18.5569 15.1807 19.2674 13.6401 19.2674C13.4091 19.2674 13.1632 19.2511 12.9078 19.2199L13.8941 20.2945L13.9702 20.3869C14.0558 20.4956 14.2541 20.6627 14.3533 20.7266L14.5924 20.5391L14.8927 20.4345C15.0381 20.3828 16.3464 19.9304 17.4645 19.9304C18.2743 19.9304 18.8462 20.1614 19.2402 20.4426L19.2416 20.4399Z" fill="#D7F0F7"/>
<path d="M35.6651 10.8547C35.6474 11.0653 35.5931 11.3112 35.502 11.5707C36.6581 11.7092 37.7572 11.9646 38.7828 12.2988C38.628 12.0258 37.2301 7.25335 35.3934 7.25335C34.7916 7.25335 34.5375 7.61336 33.8977 8.11736C34.3894 8.29261 34.7291 8.5548 34.9559 8.79118C35.3064 9.15662 35.714 9.80327 35.6651 10.8547Z" fill="#D7F0F7"/>
<path d="M12.2964 33.6327C12.3915 33.7373 12.477 33.8187 12.5368 33.8513L12.8315 33.7237C12.7663 33.7169 12.3996 33.6721 12.3996 33.6721L12.295 33.6327H12.2964Z" fill="#D7F0F7"/>
<path d="M36.4994 42.9388C28.4363 42.9388 21.8988 36.4027 21.8988 28.3409C21.8988 20.2792 28.4363 13.7431 36.4994 13.7431C40.5656 13.7431 44.2419 15.4074 46.8897 18.0892C43.8384 13.9238 38.9135 11.2148 33.3529 11.2162C24.0902 11.2162 16.5828 18.7223 16.5828 27.9809C16.5828 37.2396 24.0916 44.7457 33.3529 44.7457C37.5319 44.7457 41.3508 43.2132 44.2867 40.6849C42.0315 42.11 39.3619 42.9388 36.498 42.9388H36.4994Z" fill="url(#paint0_linear_670_2646)"/>
<path d="M41.5206 16.0923C45.0311 18.1464 47.391 21.9545 47.391 26.3168C47.391 32.857 42.0871 38.1568 35.547 38.1568C29.4606 38.1568 24.4515 33.5675 23.7817 27.6632C23.7695 27.8941 23.7614 28.1292 23.7614 28.3629C23.7614 35.6081 29.6358 41.4785 36.8811 41.4785C44.1263 41.4785 50.0008 35.6054 50.0008 28.3629C50.0008 22.752 46.4753 17.9671 41.5192 16.0923" fill="url(#paint1_linear_670_2646)"/>
<path d="M35.1951 16.9997C30.792 16.9997 27.0736 19.9274 25.8808 23.942C27.2163 20.9653 30.2051 18.8894 33.6803 18.8894C38.4 18.8894 42.2271 22.7138 42.2271 27.4335C42.2271 32.1531 38.4014 35.9775 33.6803 35.9775C32.9087 35.9775 32.1615 35.8743 31.4496 35.6814C32.6016 36.1623 33.8678 36.4299 35.1951 36.4313C40.5628 36.4313 44.913 32.0798 44.9143 26.7134C44.9143 21.3471 40.5642 16.997 35.1951 16.997" fill="url(#paint2_linear_670_2646)"/>
<g clip-path="url(#clip0_670_2646)">
<path d="M77.2673 45.2498L73.481 40.1648C72.3626 40.3904 71.2646 40.5032 70.1975 40.5032C67.4168 40.5032 64.872 39.8573 62.553 38.5656C60.2341 37.2738 58.3973 35.4798 57.0326 33.1628C55.6679 30.8459 54.9907 28.2522 54.9907 25.3612C54.9907 22.4702 55.6679 19.8765 57.0326 17.5801C58.3973 15.2837 60.2341 13.4896 62.553 12.1978C64.872 10.9061 67.4168 10.2603 70.1975 10.2603C72.9782 10.2603 75.5229 10.9061 77.8419 12.1978C80.1609 13.4896 81.9771 15.2837 83.311 17.5801C84.645 19.8765 85.3119 22.4702 85.3119 25.3612C85.3119 27.8832 84.7989 30.1898 83.7728 32.2812C82.7467 34.3726 81.3204 36.1051 79.5042 37.4789L85.9892 45.26H77.2776L77.2673 45.2498ZM64.4924 31.5943C65.9084 33.1526 67.8067 33.9317 70.1975 33.9317C72.5883 33.9317 74.4455 33.1423 75.8616 31.5738C77.2776 30.0053 77.9856 27.9344 77.9856 25.3509C77.9856 22.7675 77.2776 20.6659 75.8616 19.1076C74.4455 17.5493 72.5575 16.7702 70.1975 16.7702C67.8375 16.7702 65.9084 17.5391 64.4924 19.0871C63.0764 20.6249 62.3683 22.7162 62.3683 25.3509C62.3683 27.9857 63.0764 30.0463 64.4924 31.5943Z" fill="#1D3366"/>
<path d="M96.4659 10.6704V28.3343C96.4659 30.0976 96.8968 31.4611 97.769 32.4145C98.6412 33.368 99.9136 33.8395 101.596 33.8395C103.279 33.8395 104.572 33.368 105.465 32.4145C106.368 31.4611 106.809 30.0976 106.809 28.3343V10.6704H114.012V28.2933C114.012 30.928 113.448 33.1629 112.329 34.9775C111.211 36.8023 109.703 38.1761 107.804 39.0987C105.906 40.0214 103.802 40.4827 101.473 40.4827C99.144 40.4827 97.061 40.0317 95.2243 39.1192C93.3876 38.2068 91.9305 36.8331 90.8634 34.998C89.7962 33.1629 89.2627 30.928 89.2627 28.2933V10.6704H96.4659Z" fill="#1D3366"/>
<path d="M126.274 10.6704V40.1957H119.071V10.6704H126.274Z" fill="#1D3366"/>
<path d="M132.164 17.5903C133.426 15.3042 135.191 13.5204 137.449 12.2491C139.706 10.9779 142.271 10.332 145.134 10.332C148.643 10.332 151.65 11.2547 154.143 13.1103C156.637 14.9659 158.309 17.4878 159.151 20.6864H151.239C150.654 19.4562 149.813 18.513 148.736 17.8671C147.658 17.2213 146.427 16.9035 145.052 16.9035C142.836 16.9035 141.04 17.6723 139.665 19.2204C138.29 20.7581 137.602 22.829 137.602 25.4022C137.602 27.9754 138.29 30.0463 139.665 31.5841C141.04 33.1219 142.836 33.901 145.052 33.901C146.427 33.901 147.658 33.5832 148.736 32.9373C149.813 32.2915 150.654 31.3585 151.239 30.1181H159.151C158.309 33.3166 156.637 35.8283 154.143 37.6634C151.64 39.4985 148.643 40.4212 145.134 40.4212C142.271 40.4212 139.706 39.7855 137.449 38.5041C135.191 37.2328 133.426 35.4593 132.164 33.1834C130.902 30.9075 130.266 28.3137 130.266 25.4022C130.266 22.4907 130.902 19.8867 132.164 17.6006V17.5903Z" fill="#1D3366"/>
<path d="M180.709 40.1957L170.777 27.1554V40.1957H163.573V10.6704H170.777V23.6287L180.627 10.6704H189.092L177.641 25.1357L189.513 40.1957H180.709Z" fill="#1D3366"/>
</g>
<defs>
<linearGradient id="paint0_linear_670_2646" x1="39.6617" y1="14.5456" x2="17.0039" y2="48.2769" gradientUnits="userSpaceOnUse">
<stop offset="0.278846" stop-color="#33CFFF"/>
<stop offset="1" stop-color="#0D87C5"/>
</linearGradient>
<linearGradient id="paint1_linear_670_2646" x1="39.6617" y1="14.5456" x2="17.0039" y2="48.2769" gradientUnits="userSpaceOnUse">
<stop offset="0.278846" stop-color="#33CFFF"/>
<stop offset="1" stop-color="#0D87C5"/>
</linearGradient>
<linearGradient id="paint2_linear_670_2646" x1="39.6617" y1="14.5456" x2="17.0039" y2="48.2769" gradientUnits="userSpaceOnUse">
<stop offset="0.278846" stop-color="#33CFFF"/>
<stop offset="1" stop-color="#0D87C5"/>
</linearGradient>
<clipPath id="clip0_670_2646">
<rect width="134.502" height="35" fill="white" transform="translate(55.001 10.25)"/>
</clipPath>
</defs>
</svg>
