<svg width="500" height="500" viewBox="0 0 500 500" fill="none" xmlns="http://www.w3.org/2000/svg">
<path d="M300.293 102.615C300.293 102.615 331.608 91.1085 330.915 106.854C330.915 106.854 330.535 110.889 327.002 114.829C395.351 110.943 450.427 152.433 463.102 174.7C462.803 174.455 462.49 174.224 462.192 173.994C463.129 175.135 464.053 176.276 464.936 177.458C457.246 149.105 440.468 100.645 414.004 91.91C414.004 91.91 429.858 119.013 414.439 125.684C414.439 125.684 402.035 125.847 395.596 107.873C395.596 107.873 383.124 42.1057 339.515 53.9794C323.171 59.6445 317.764 69.2087 306.583 78.0121C295.403 86.8155 280.241 96.8551 256.113 81.4356C256.113 81.4356 274.209 110.821 300.253 102.629H300.266L300.293 102.615Z" fill="#0D87C5"/>
<path d="M174.859 251.921C185.999 197.361 225.967 153.548 248.655 140.112C263.368 131.119 277.972 124.829 292.237 120.753C287.7 119.883 224.323 56.3306 193.036 101.679C184.382 118.362 179.206 128.442 150.84 128.605C150.84 128.605 123.777 125.712 119.199 148.916C119.199 148.916 142.172 143.06 145.881 155.98C145.881 155.98 151.301 180.081 114.159 170.734C102.978 167.786 89.8815 155.763 75.8341 187.879C75.8341 187.879 62.4932 218.596 43.7588 208.665C43.7588 208.665 57.3715 234.409 74.4484 217.984C74.4484 217.984 92.6394 198.557 104.364 200.934C120.816 204.276 125.34 232.045 148.951 222.59C162.808 217.604 179.206 216.245 175.185 229.668C163.488 255.969 145.731 228.336 124.198 230.102C100.274 232.045 100.709 254.176 72.7367 243.579C56.9232 236.107 26.22 226.638 0 269.487C0 269.487 24.318 247.56 49.7908 265.289C49.7908 265.289 68.9599 282.407 77.0433 290.979C77.0433 290.979 91.4575 304.728 107.624 294.647C122.962 287.121 140.46 280.994 146.139 293.655C151.994 306.738 142.063 329.195 106.877 309.333C101.633 306.371 83.3469 296.821 66.2428 327.565C66.2428 327.565 85.7516 320.025 94.6365 338.311C94.6365 338.311 105.505 360.02 124.117 357.371C133.423 356.189 163.148 335.227 169.56 356.013C173.133 375.589 142.24 352.82 131.317 366.283C128.328 371.948 126.997 374.91 123.519 380.059C123.519 380.059 112.148 391.783 93.2643 370.495C93.2643 370.495 101.878 402.91 128.437 401.524C141.371 401.551 147.701 377.192 168.854 394.528L190.89 416.93C190.89 416.93 214.216 439.319 235.192 416.359C235.192 416.359 235.314 416.033 235.545 415.449C179.315 370.196 164.574 304.918 174.872 251.948V251.907L174.859 251.921Z" fill="#0D87C5"/>
<path d="M174.859 251.921C175.416 249.231 176.054 246.554 176.733 243.904C172.264 246.703 166.191 248.551 158.216 248.917C138.205 249.855 134.401 237.166 124.796 237.927C110.871 239.014 105.681 254.528 90.9004 254.99C74.5299 255.506 58.5534 243.062 50.0217 243.062C42.6177 243.062 35.2543 246.255 28.1763 252.45C30.3907 252.096 32.6867 251.893 35.0641 251.893C43.8539 251.893 52.2226 254.596 59.912 259.976L60.2244 260.193L60.5097 260.451C61.2977 261.158 79.9641 277.854 87.7079 286.101C87.7622 286.142 93.5089 290.652 99.7446 290.924C110.165 291.386 122.093 277.134 133.695 277.134C142.892 277.134 150.147 281.658 154.902 290.679C155.554 292.201 161.11 305.841 154.535 315.839C151.886 319.847 145.174 324.33 134.632 324.643C122.935 325.241 114.254 315.744 100.437 312.022C94.7315 310.487 89.5691 315.337 85.6021 319.766C94.9761 320.907 102.448 326.382 106.877 335.525C106.958 335.688 111.102 351.637 125.761 351.515C136.833 351.515 152.959 341.394 159.792 340.484C177.413 338.16 180.782 355.387 180.782 355.387C180.782 355.387 182.032 362.465 178.649 367.478C169.465 381.077 156.355 366.5 146.886 369.298C135.474 372.654 137.499 392.489 121.128 389.731C118.56 389.296 126.848 395.151 132.907 395.151C138.966 395.151 142.919 379.678 159.589 380.792C176.815 381.919 201.187 423.681 220.506 420.244C225.397 419.374 230.029 418.355 234.363 414.484C179.111 369.258 164.642 304.537 174.872 251.948L174.859 251.921Z" fill="#33CFFF"/>
<path d="M76.1194 213.636C77.8991 211.68 102.53 184.414 113.697 194.521C122.786 203.297 129.089 219.383 143.965 220.374C153.543 221.013 165.485 212.182 174.641 212.182C179.967 212.182 183.961 213.582 186.529 216.312C203.429 178.871 231.171 150.463 248.641 140.098C260.339 132.938 271.968 127.504 283.42 123.523C282.782 123.32 226.687 75.2678 204.638 105.767C190.455 129.107 174.261 138.223 136.507 141.103H136.684C152.429 141.103 157.143 149.281 158.638 154.539C158.869 155.585 160.73 164.946 154.847 172.268C150.867 177.227 146.112 180.039 136.398 179.754C123.601 179.373 111.442 172.051 101.185 175.624C93.21 178.395 91.9465 181.819 88.1969 190.418C87.178 192.755 79.0131 210.661 65.1016 215.728C66.4466 216.489 67.8459 216.978 69.2588 216.978C71.4868 216.978 73.8914 215.742 76.1194 213.622V213.636Z" fill="#33CFFF"/>
<path d="M304.518 96.5427C305.008 96.3525 316.745 92.0866 326.608 92.0866C332.627 92.0866 337.232 93.6761 340.235 96.828C342.001 98.6756 344.052 101.95 343.794 107.397C343.618 109.449 342.884 112.03 341.457 114.652C403.013 116.771 451.337 153.996 463.115 174.673C462.816 174.442 462.504 174.184 462.192 173.953C463.02 174.958 463.849 175.991 464.651 177.023C458.347 154.444 447.737 125.317 433.676 109.136C434.301 113.212 436.433 131.783 422.237 132.096C411.681 132.313 402.239 127.436 396.003 110.006L395.84 109.558L395.745 109.096C395.636 108.593 382.798 57.661 353.929 59.6173C336.064 61.3835 314.395 97.7518 284.561 93.9071C288.42 96.0808 292.781 97.5752 297.536 97.5752C299.927 97.5752 302.358 97.1948 304.491 96.5291H304.505L304.518 96.5427Z" fill="#33CFFF"/>
<path d="M443.949 155.031C441.747 149.229 439.356 143.549 436.802 138.264C434.505 140.302 431.856 142 428.921 143.305C434.152 146.905 439.166 150.819 443.962 155.044L443.949 155.031Z" fill="#D7F0F7"/>
<path d="M161.52 327.634C168.095 327.919 174.114 329.903 179.222 333.299C171.587 308.41 170.174 282.923 173.625 259.474C169.101 260.941 163.979 261.851 158.232 261.851C148.301 261.851 137.487 259.147 126.115 253.808L122.882 252.3C119.023 257.436 106.755 267.91 90.9277 267.91C89.8408 267.91 88.7132 267.87 87.5992 267.788C90.887 270.899 98.5901 277.733 99.3781 277.95C99.5004 277.842 102.897 274.798 102.897 274.798C105.37 273.032 118.521 263.903 133.764 264.256C167.294 265.044 176.614 306.195 165.378 322.96C164.454 324.346 163.205 325.976 161.561 327.634H161.52Z" fill="#D7F0F7"/>
<path d="M193.362 366.187C192.587 369.19 191.202 372.368 188.838 375.425C188.009 376.471 187.113 377.449 186.148 378.346C187.14 379.161 188.118 380.017 189.11 380.94L210.56 402.758C212.218 404.238 216.85 407.322 220.504 407.322C221.156 407.322 222.488 407.322 224.539 405.841C211.606 393.615 201.309 380.22 193.375 366.201L193.362 366.187Z" fill="#D7F0F7"/>
<path d="M192.413 204.401C209.355 172.881 233.072 149.337 248.655 140.112C255.163 136.132 261.66 132.681 268.1 129.719C268.1 129.719 234.353 93.567 214.626 114.367C208.852 120.467 195.266 142.354 169.562 146.932C170.241 148.468 176.911 167.773 164.915 180.354C159.943 185.571 151.805 192.676 136.398 192.676C134.089 192.676 131.63 192.513 129.076 192.2L138.939 202.947L139.7 203.871C140.556 204.958 142.539 206.629 143.531 207.267L145.922 205.392L148.925 204.346C150.378 203.83 163.461 199.306 174.643 199.306C182.74 199.306 188.459 201.616 192.399 204.428L192.413 204.401Z" fill="#D7F0F7"/>
<path d="M356.645 108.551C356.469 110.656 355.925 113.115 355.015 115.71C366.576 117.095 377.566 119.649 387.822 122.991C386.274 120.261 372.295 72.5371 353.928 72.5371C347.91 72.5371 345.37 76.1371 338.971 81.1771C343.889 82.9295 347.285 85.5514 349.554 87.9152C353.059 91.5695 357.134 98.0359 356.645 108.551Z" fill="#D7F0F7"/>
<path d="M122.962 336.326C123.913 337.372 124.768 338.187 125.366 338.513L128.313 337.236C127.661 337.168 123.994 336.72 123.994 336.72L122.949 336.326H122.962Z" fill="#D7F0F7"/>
<path d="M364.988 429.386C284.358 429.386 218.985 364.026 218.985 283.41C218.985 202.793 284.358 137.434 364.988 137.434C405.649 137.434 442.412 154.076 468.89 180.894C438.377 139.241 389.129 112.151 333.524 112.165C240.898 112.165 165.825 187.224 165.825 279.809C165.825 372.395 240.912 447.454 333.524 447.454C375.313 447.454 413.502 432.13 442.86 406.847C420.308 421.098 393.613 429.386 364.974 429.386H364.988Z" fill="url(#paint0_linear_670_2808)"/>
<path d="M415.199 160.925C450.304 181.466 473.902 219.546 473.902 263.169C473.902 328.57 420.865 381.567 355.464 381.567C294.601 381.567 244.511 335.675 237.814 276.632C237.692 278.942 237.61 281.292 237.61 283.629C237.61 356.08 296.354 414.783 368.805 414.783C441.256 414.783 500 356.053 500 283.629C500 227.521 464.746 179.673 415.186 160.925" fill="url(#paint1_linear_670_2808)"/>
<path d="M351.946 169.999C307.915 169.999 270.732 199.276 258.804 239.421C272.158 209.655 302.046 188.896 336.798 188.896C383.994 188.896 422.264 227.139 422.264 274.335C422.264 321.531 384.008 359.774 336.798 359.774C329.082 359.774 321.61 358.742 314.491 356.813C326.011 361.622 338.673 364.298 351.946 364.312C405.622 364.312 449.123 320.798 449.136 267.135C449.136 213.472 405.636 169.972 351.946 169.972" fill="url(#paint2_linear_670_2808)"/>
<defs>
<linearGradient id="paint0_linear_670_2808" x1="396.611" y1="145.459" x2="170.037" y2="482.766" gradientUnits="userSpaceOnUse">
<stop offset="0.278846" stop-color="#33CFFF"/>
<stop offset="1" stop-color="#0D87C5"/>
</linearGradient>
<linearGradient id="paint1_linear_670_2808" x1="396.611" y1="145.459" x2="170.037" y2="482.766" gradientUnits="userSpaceOnUse">
<stop offset="0.278846" stop-color="#33CFFF"/>
<stop offset="1" stop-color="#0D87C5"/>
</linearGradient>
<linearGradient id="paint2_linear_670_2808" x1="396.611" y1="145.459" x2="170.037" y2="482.766" gradientUnits="userSpaceOnUse">
<stop offset="0.278846" stop-color="#33CFFF"/>
<stop offset="1" stop-color="#0D87C5"/>
</linearGradient>
</defs>
</svg>
