<svg width="675" height="178" viewBox="0 0 675 178" fill="none" xmlns="http://www.w3.org/2000/svg">
<g clip-path="url(#clip0_670_2799)">
<path d="M275.075 159.308L261.596 141.206C257.614 142.009 253.706 142.41 249.907 142.41C240.007 142.41 230.948 140.111 222.692 135.512C214.437 130.914 207.898 124.527 203.04 116.279C198.181 108.031 195.77 98.797 195.77 88.505C195.77 78.213 198.181 68.9793 203.04 60.8041C207.898 52.6289 214.437 46.242 222.692 41.6434C230.948 37.0449 240.007 34.7456 249.907 34.7456C259.806 34.7456 268.865 37.0449 277.121 41.6434C285.376 46.242 291.842 52.6289 296.591 60.8041C301.34 68.9793 303.714 78.213 303.714 88.505C303.714 97.4831 301.888 105.695 298.235 113.14C294.582 120.585 289.504 126.753 283.039 131.644L306.125 159.345H275.112L275.075 159.308ZM229.596 110.695C234.637 116.242 241.395 119.016 249.907 119.016C258.418 119.016 265.03 116.206 270.071 110.622C275.112 105.038 277.632 97.6656 277.632 88.4685C277.632 79.2714 275.112 71.7896 270.071 66.2421C265.03 60.6946 258.308 57.9209 249.907 57.9209C241.505 57.9209 234.637 60.6581 229.596 66.1691C224.555 71.6436 222.035 79.0889 222.035 88.4685C222.035 97.8481 224.555 105.184 229.596 110.695Z" fill="white"/>
<path d="M343.421 36.2056V99.0891C343.421 105.366 344.955 110.221 348.06 113.615C351.165 117.009 355.695 118.688 361.686 118.688C367.677 118.688 372.279 117.009 375.457 113.615C378.672 110.221 380.243 105.366 380.243 99.0891V36.2056H405.886V98.9431C405.886 108.323 403.877 116.279 399.895 122.739C395.914 129.235 390.544 134.126 383.786 137.41C377.028 140.695 369.54 142.337 361.247 142.337C352.955 142.337 345.54 140.732 339.001 137.483C332.462 134.235 327.275 129.345 323.476 122.812C319.677 116.279 317.778 108.323 317.778 98.9431V36.2056H343.421Z" fill="white"/>
<path d="M449.538 36.2056V141.316H423.895V36.2056H449.538Z" fill="white"/>
<path d="M470.506 60.8405C474.999 52.7018 481.282 46.3514 489.318 41.8258C497.355 37.3003 506.487 35.001 516.679 35.001C529.172 35.001 539.875 38.2857 548.751 44.8915C557.628 51.4974 563.582 60.4755 566.578 71.8625H538.414C536.331 67.4829 533.336 64.1252 529.501 61.8259C525.665 59.5266 521.281 58.3952 516.387 58.3952C508.496 58.3952 502.104 61.1325 497.209 66.6435C492.314 72.1179 489.866 79.4902 489.866 88.6509C489.866 97.8115 492.314 105.184 497.209 110.658C502.104 116.133 508.496 118.906 516.387 118.906C521.281 118.906 525.665 117.775 529.501 115.476C533.336 113.177 536.331 109.855 538.414 105.439H566.578C563.582 116.826 557.628 125.768 548.751 132.301C539.838 138.834 529.172 142.118 516.679 142.118C506.487 142.118 497.355 139.855 489.318 135.293C481.282 130.768 474.999 124.454 470.506 116.352C466.013 108.249 463.748 99.0159 463.748 88.6509C463.748 78.2858 466.013 69.0157 470.506 60.877V60.8405Z" fill="white"/>
<path d="M643.325 141.316L607.965 94.892V141.316H582.322V36.2056H607.965V82.3372L643.033 36.2056H673.17L632.403 87.7022L674.667 141.316H643.325Z" fill="white"/>
</g>
<path d="M147.832 57.2621C160.326 64.5772 168.709 78.1217 168.709 93.6595C168.709 116.94 149.825 135.806 126.545 135.806C104.885 135.806 87.0511 119.467 84.6662 98.4472C84.6306 99.266 84.595 100.102 84.595 100.939C84.595 126.729 105.508 147.624 131.298 147.624C157.087 147.624 178 126.711 178 100.939C178 80.9694 165.452 63.9365 147.814 57.2621H147.832Z" fill="white"/>
<path d="M119.907 128.046C117.166 128.046 114.496 127.672 111.969 126.996C116.062 128.704 120.583 129.665 125.3 129.665C144.415 129.665 159.899 114.181 159.899 95.0656C159.899 75.9681 144.415 60.4836 125.3 60.4836C109.619 60.4836 96.3952 70.9134 92.1414 85.2054C96.8935 74.6154 107.537 67.2291 119.907 67.2291C136.708 67.2291 150.324 80.8448 150.324 97.6463C150.324 114.448 136.708 128.063 119.907 128.063V128.046Z" fill="white"/>
<path d="M77.974 100.85C77.974 72.1593 101.236 48.8792 129.945 48.8792C143.489 48.8792 155.823 54.0763 165.079 62.566C165.221 62.744 165.381 62.9398 165.524 63.1356C165.524 63.0822 165.488 63.011 165.47 62.9576C165.968 63.4203 166.449 63.8831 166.93 64.3636C166.396 63.6339 165.826 62.922 165.274 62.2278C162.427 52.0473 156.553 35.7085 147.405 32.7006C147.405 32.7006 153.047 42.3472 147.565 44.7144C147.565 44.7144 143.151 44.7678 140.855 38.3782C140.855 38.3782 136.423 14.9736 120.886 19.1917C115.066 21.2029 113.143 24.6202 109.157 27.7527C105.17 30.8852 99.7769 34.4626 91.1981 28.963C91.1981 28.963 97.6411 39.4283 106.914 36.5094C106.914 36.5094 118.056 32.4158 117.806 38.0223C117.806 38.0223 117.717 38.8944 117.077 39.9623C112.129 40.1047 107.323 40.8344 102.731 42.0981C97.4809 38.0579 78.6148 21.8437 68.7189 36.189C65.6399 42.1336 63.7888 45.7111 53.6972 45.7823C53.6972 45.7823 44.0684 44.75 42.431 53.0084C42.431 53.0084 50.6004 50.926 51.9352 55.5179C51.9352 55.5179 53.8574 64.0967 40.6511 60.7684C36.6643 59.7183 32.0012 55.4467 27.0177 66.8732C27.0177 66.8732 22.2656 77.8013 15.5912 74.2772C15.5912 74.2772 20.4324 83.4433 26.5194 77.5877C26.5194 77.5877 32.9979 70.6642 37.1627 71.5185C43.0183 72.711 44.638 82.589 53.0387 79.2252C57.0789 77.7657 61.7064 77.1962 62.4718 79.6345C61.9734 81.0406 61.5285 82.4644 61.1369 83.9061C57.0077 89.3523 51.1699 81.3431 44.2108 81.9127C35.7032 82.6068 35.8456 90.4736 25.8964 86.7182C20.2722 84.0663 9.34407 80.6846 0 95.9377C0 95.9377 8.64994 88.1243 17.727 94.4426C17.727 94.4426 24.5438 100.53 27.4271 103.591C27.4271 103.591 32.553 108.485 38.3196 104.89C43.7836 102.203 50.013 100.031 52.0242 104.534C54.1066 109.197 50.5648 117.189 38.0526 110.123C36.1838 109.073 29.6696 105.673 23.5826 116.619C23.5826 116.619 30.524 113.932 33.692 120.446C33.692 120.446 37.5543 128.17 44.193 127.227C47.5035 126.8 58.0934 119.342 60.3716 126.746C61.6353 133.723 50.6538 125.607 46.7559 130.395C45.688 132.406 45.2253 133.474 43.9794 135.307C43.9794 135.307 39.9392 139.472 33.2115 131.908C33.2115 131.908 36.2728 143.441 45.7236 142.961C50.3334 142.961 52.576 134.293 60.1046 140.469L67.9536 148.442C67.9536 148.442 76.2654 156.416 83.7228 148.247C83.7228 148.247 83.7585 148.158 83.8118 148.033C93.6365 155.135 105.686 159.317 118.732 159.317C133.611 159.317 147.209 153.853 157.657 144.865C149.63 149.938 140.125 152.892 129.927 152.892C101.219 152.892 77.9562 129.63 77.9562 100.921L77.974 100.85ZM155.503 49.1817C156.304 50.837 157.052 52.6168 157.746 54.4144C160.095 56.3544 161.999 58.2588 163.37 59.9853C160.309 56.5324 156.856 53.4355 153.065 50.7658C153.955 50.3386 154.791 49.8047 155.503 49.1639V49.1817ZM126.011 25.7949C131.92 25.7949 136.548 39.6419 137.794 43.0236C134.199 41.8133 130.479 40.9234 126.617 40.425C126.795 39.7843 126.937 39.1613 126.99 38.6096C127.168 34.872 125.709 32.5582 124.463 31.2589C123.662 30.4224 122.452 29.4791 120.69 28.8562C122.968 27.0586 123.876 25.7771 126.011 25.7771V25.7949ZM44.638 120.464C44.4244 120.339 44.1218 120.054 43.7836 119.681L44.1396 119.823C44.1396 119.823 45.4389 119.983 45.6702 120.001L44.6202 120.464H44.638ZM47.6281 94.0333C42.1996 93.9087 37.5187 97.1658 36.6465 97.7887C36.6465 97.7887 35.4363 98.8744 35.4007 98.91C35.1159 98.8388 32.375 96.4004 31.2003 95.297C31.5919 95.3325 32.0012 95.3325 32.3928 95.3325C38.0348 95.3325 42.3954 91.6127 43.7658 89.7795L44.9227 90.3134C48.9629 92.2179 52.8251 93.179 56.3492 93.179C57.4349 93.179 58.4672 93.09 59.4283 92.912C59.1791 95.1012 59.0545 97.3082 59.0545 99.5685C59.0545 100.405 59.0901 101.242 59.1257 102.078C57.2569 97.7531 53.5015 94.1579 47.6459 94.0333H47.6281ZM57.5061 116.601C58.0934 116.014 58.5384 115.427 58.8587 114.946C59.4995 113.985 59.9444 112.775 60.1936 111.44C60.6208 113.522 61.1547 115.587 61.7776 117.58C60.4428 117.029 59.0189 116.673 57.4705 116.601H57.5061ZM62.187 70.9134C58.2002 70.9134 53.5549 72.5152 53.0387 72.711L51.9708 73.0848L51.1165 73.7433C50.7605 73.5119 50.0664 72.9246 49.746 72.533L49.4791 72.2126L45.9728 68.386C46.8805 68.4928 47.7526 68.564 48.5714 68.564C54.0532 68.564 56.9543 66.0367 58.7163 64.1856C62.9879 59.7005 60.6208 52.8304 60.3716 52.2964C69.5199 50.659 74.361 42.8812 76.4078 40.7098C82.1744 34.6406 91.2871 42.2048 94.384 45.1238C82.2634 50.5522 72.2786 59.8963 66.0492 71.5541C64.9635 71.1981 63.6998 70.949 62.187 70.949V70.9134ZM78.508 144.972C77.2087 144.972 75.5535 143.868 74.9661 143.352L67.3307 135.592C66.9747 135.272 66.6366 134.951 66.2806 134.667C66.6188 134.346 66.9391 134.008 67.2417 133.634C67.74 132.976 68.1138 132.317 68.3986 131.641C71.4955 136.5 75.2865 140.878 79.6293 144.651C79.0775 144.972 78.7037 144.99 78.508 144.99V144.972Z" fill="white"/>
<defs>
<clipPath id="clip0_670_2799">
<rect width="478.824" height="124.601" fill="white" transform="translate(195.807 34.709)"/>
</clipPath>
</defs>
</svg>
