<svg width="379" height="100" viewBox="0 0 379 100" fill="none" xmlns="http://www.w3.org/2000/svg">
<g clip-path="url(#clip0_670_2763)">
<path d="M154.537 89.499L146.964 79.3292C144.727 79.7803 142.531 80.0058 140.397 80.0058C134.836 80.0058 129.746 78.7141 125.108 76.1306C120.47 73.5472 116.797 69.959 114.067 65.3252C111.338 60.6914 109.983 55.5039 109.983 49.7219C109.983 43.9399 111.338 38.7525 114.067 34.1596C116.797 29.5668 120.47 25.9787 125.108 23.3952C129.746 20.8118 134.836 19.52 140.397 19.52C145.958 19.52 151.048 20.8118 155.686 23.3952C160.324 25.9787 163.956 29.5668 166.624 34.1596C169.292 38.7525 170.626 43.9399 170.626 49.7219C170.626 54.7658 169.6 59.3791 167.548 63.5619C165.495 67.7446 162.643 71.2097 159.01 73.9572L171.98 89.5195H154.557L154.537 89.499ZM128.987 62.1881C131.819 65.3047 135.615 66.863 140.397 66.863C145.179 66.863 148.893 65.2842 151.725 62.1471C154.557 59.0101 155.973 54.8683 155.973 49.7014C155.973 44.5345 154.557 40.3312 151.725 37.2147C148.893 34.0981 145.117 32.5398 140.397 32.5398C135.677 32.5398 131.819 34.0776 128.987 37.1737C126.155 40.2492 124.739 44.432 124.739 49.7014C124.739 54.9708 126.155 59.0921 128.987 62.1881Z" fill="#1D3366"/>
<path d="M192.933 20.3401V55.6679C192.933 59.1945 193.795 61.9215 195.539 63.8284C197.284 65.7352 199.829 66.6784 203.194 66.6784C206.56 66.6784 209.146 65.7352 210.931 63.8284C212.737 61.9215 213.619 59.1945 213.619 55.6679V20.3401H228.026V55.5859C228.026 60.8553 226.897 65.3251 224.66 68.9543C222.423 72.6039 219.407 75.3514 215.61 77.1967C211.813 79.0421 207.606 79.9647 202.948 79.9647C198.289 79.9647 194.123 79.0626 190.45 77.2377C186.777 75.4129 183.862 72.6654 181.728 68.9953C179.594 65.3251 178.527 60.8553 178.527 55.5859V20.3401H192.933Z" fill="#1D3366"/>
<path d="M252.55 20.3401V79.3906H238.143V20.3401H252.55Z" fill="#1D3366"/>
<path d="M264.329 34.1802C266.853 29.6078 270.383 26.0402 274.898 23.4978C279.413 20.9553 284.543 19.6636 290.269 19.6636C297.287 19.6636 303.3 21.5089 308.287 25.2201C313.274 28.9312 316.619 33.9751 318.302 40.3723H302.48C301.31 37.9118 299.627 36.0255 297.472 34.7338C295.317 33.442 292.855 32.8064 290.105 32.8064C285.672 32.8064 282.081 34.3442 279.331 37.4402C276.581 40.5158 275.206 44.6575 275.206 49.804C275.206 54.9504 276.581 59.0921 279.331 62.1677C282.081 65.2432 285.672 66.8015 290.105 66.8015C292.855 66.8015 295.317 66.1659 297.472 64.8741C299.627 63.5824 301.31 61.7166 302.48 59.2356H318.302C316.619 65.6328 313.274 70.6562 308.287 74.3263C303.28 77.9965 297.287 79.8418 290.269 79.8418C284.543 79.8418 279.413 78.5706 274.898 76.0076C270.383 73.4652 266.853 69.9181 264.329 65.3662C261.805 60.8144 260.533 55.627 260.533 49.804C260.533 43.9809 261.805 38.773 264.329 34.2007V34.1802Z" fill="#1D3366"/>
<path d="M361.419 79.3906L341.553 53.31V79.3906H327.147V20.3401H341.553V46.2567L361.255 20.3401H378.185L355.283 49.2708L379.027 79.3906H361.419Z" fill="#1D3366"/>
</g>
<path d="M83.0517 32.1697C90.071 36.2793 94.7805 43.8885 94.7805 52.6177C94.7805 65.6964 84.1716 76.2953 71.0929 76.2953C58.9241 76.2953 48.9051 67.1162 47.5652 55.3074C47.5452 55.7673 47.5252 56.2373 47.5252 56.7072C47.5252 71.1958 59.2741 82.9346 73.7626 82.9346C88.2512 82.9346 100 71.1858 100 56.7072C100 45.4884 92.9507 35.9193 83.0417 32.1697H83.0517Z" fill="#1D3366"/>
<path d="M67.3633 71.9357C65.8234 71.9357 64.3236 71.7257 62.9037 71.3458C65.2035 72.3057 67.7432 72.8456 70.393 72.8456C81.1319 72.8456 89.831 64.1465 89.831 53.4076C89.831 42.6787 81.1319 33.9795 70.393 33.9795C61.5838 33.9795 54.1546 39.8389 51.7648 47.8681C54.4346 41.9187 60.414 37.7691 67.3633 37.7691C76.8023 37.7691 84.4516 45.4184 84.4516 54.8574C84.4516 64.2965 76.8023 71.9457 67.3633 71.9457V71.9357Z" fill="#1D3366"/>
<path d="M43.8056 56.6573C43.8056 40.5389 56.8743 27.4602 73.0027 27.4602C80.6119 27.4602 87.5412 30.3799 92.7407 35.1494C92.8207 35.2494 92.9107 35.3594 92.9907 35.4694C92.9907 35.4394 92.9707 35.3994 92.9607 35.3694C93.2407 35.6294 93.5106 35.8893 93.7806 36.1593C93.4807 35.7493 93.1607 35.3494 92.8507 34.9594C91.2509 29.24 87.9512 20.0609 82.8117 18.3711C82.8117 18.3711 85.9814 23.7905 82.9017 25.1204C82.9017 25.1204 80.422 25.1504 79.1321 21.5608C79.1321 21.5608 76.6423 8.41208 67.9132 10.7818C64.6435 11.9117 63.5636 13.8315 61.3239 15.5914C59.0841 17.3512 56.0544 19.361 51.2349 16.2713C51.2349 16.2713 54.8545 22.1507 60.064 20.5109C60.064 20.5109 66.3234 18.2111 66.1834 21.3608C66.1834 21.3608 66.1334 21.8507 65.7734 22.4507C62.9937 22.5307 60.294 22.9406 57.7142 23.6506C54.7645 21.3808 44.1656 12.2717 38.6061 20.3309C36.8763 23.6706 35.8364 25.6804 30.167 25.7203C30.167 25.7203 24.7575 25.1404 23.8376 29.7799C23.8376 29.7799 28.4272 28.6101 29.1771 31.1898C29.1771 31.1898 30.257 36.0093 22.8377 34.1395C20.5979 33.5496 17.9782 31.1498 15.1785 37.5692C15.1785 37.5692 12.5087 43.7085 8.75912 41.7287C8.75912 41.7287 11.4789 46.8782 14.8985 43.5886C14.8985 43.5886 18.5381 39.6989 20.8779 40.1789C24.1676 40.8488 25.0775 46.3983 29.797 44.5085C32.0668 43.6886 34.6665 43.3686 35.0965 44.7384C34.8165 45.5284 34.5665 46.3283 34.3466 47.1382C32.0268 50.1979 28.7471 45.6983 24.8375 46.0183C20.058 46.4083 20.138 50.8278 14.5485 48.718C11.3889 47.2282 5.24947 45.3284 0 53.8975C0 53.8975 4.85951 49.508 9.959 53.0576C9.959 53.0576 13.7886 56.4773 15.4085 58.1971C15.4085 58.1971 18.2882 60.9468 21.5278 58.927C24.5975 57.4172 28.0972 56.1973 29.2271 58.727C30.397 61.3468 28.4072 65.8363 21.3779 61.8667C20.328 61.2768 16.6683 59.367 13.2487 65.5164C13.2487 65.5164 17.1483 64.0065 18.9281 67.6662C18.9281 67.6662 21.0979 72.0057 24.8275 71.4758C26.6873 71.2358 32.6367 67.0462 33.9166 71.2058C34.6265 75.1254 28.4572 70.5659 26.2674 73.2556C25.6674 74.3855 25.4075 74.9854 24.7075 76.0153C24.7075 76.0153 22.4378 78.3551 18.6581 74.1055C18.6581 74.1055 20.378 80.5849 25.6874 80.3149C28.2772 80.3149 29.537 75.4454 33.7666 78.915L38.1762 83.3946C38.1762 83.3946 42.8457 87.8741 47.0353 83.2846C47.0353 83.2846 47.0553 83.2346 47.0853 83.1646C52.6047 87.1542 59.3741 89.504 66.7033 89.504C75.0625 89.504 82.7017 86.4343 88.5711 81.3848C84.0616 84.2345 78.7221 85.8943 72.9927 85.8943C56.8643 85.8943 43.7956 72.8256 43.7956 56.6972L43.8056 56.6573ZM87.3613 27.6302C87.8112 28.5601 88.2312 29.56 88.6211 30.5699C89.941 31.6598 91.0109 32.7296 91.7808 33.6995C90.061 31.7597 88.1212 30.0199 85.9914 28.5201C86.4913 28.2801 86.9613 27.9801 87.3613 27.6202V27.6302ZM70.7929 14.4915C74.1126 14.4915 76.7123 22.2707 77.4123 24.1705C75.3925 23.4906 73.3027 22.9906 71.1329 22.7106C71.2329 22.3507 71.3129 22.0007 71.3429 21.6907C71.4429 19.591 70.6229 18.2911 69.923 17.5612C69.4731 17.0912 68.7931 16.5613 67.8032 16.2113C69.0831 15.2014 69.593 14.4815 70.7929 14.4815V14.4915ZM25.0775 67.6761C24.9575 67.6062 24.7875 67.4462 24.5975 67.2362L24.7975 67.3162C24.7975 67.3162 25.5274 67.4062 25.6574 67.4162L25.0675 67.6761H25.0775ZM26.7573 52.8276C23.7076 52.7576 21.0779 54.5875 20.5879 54.9374C20.5879 54.9374 19.908 55.5474 19.888 55.5674C19.728 55.5274 18.1882 54.1575 17.5282 53.5376C17.7482 53.5576 17.9782 53.5576 18.1982 53.5576C21.3679 53.5576 23.8176 51.4678 24.5875 50.4379L25.2375 50.7378C27.5072 51.8077 29.677 52.3477 31.6568 52.3477C32.2668 52.3477 32.8467 52.2977 33.3867 52.1977C33.2467 53.4276 33.1767 54.6675 33.1767 55.9373C33.1767 56.4073 33.1967 56.8772 33.2167 57.3472C32.1668 54.9174 30.057 52.8976 26.7673 52.8276H26.7573ZM32.3068 65.5064C32.6367 65.1764 32.8867 64.8464 33.0667 64.5765C33.4267 64.0365 33.6766 63.3566 33.8166 62.6067C34.0566 63.7765 34.3566 64.9364 34.7065 66.0563C33.9566 65.7463 33.1567 65.5464 32.2868 65.5064H32.3068ZM34.9365 39.8389C32.6967 39.8389 30.087 40.7388 29.797 40.8488L29.1971 41.0588L28.7171 41.4288C28.5171 41.2988 28.1272 40.9688 27.9472 40.7488L27.7972 40.5689L25.8274 38.4191C26.3374 38.4791 26.8273 38.5191 27.2873 38.5191C30.367 38.5191 31.9968 37.0992 32.9867 36.0593C35.3865 33.5396 34.0566 29.6799 33.9166 29.38C39.0561 28.4601 41.7758 24.0905 42.9257 22.8706C46.1654 19.461 51.2849 23.7105 53.0247 25.3504C46.2154 28.4001 40.6059 33.6496 37.1063 40.1989C36.4963 39.9989 35.7864 39.8589 34.9365 39.8589V39.8389ZM44.1056 81.4448C43.3757 81.4448 42.4458 80.8248 42.1158 80.5349L37.8262 76.1753C37.6262 75.9953 37.4363 75.8153 37.2363 75.6553C37.4263 75.4754 37.6062 75.2854 37.7762 75.0754C38.0562 74.7054 38.2662 74.3355 38.4262 73.9555C40.166 76.6853 42.2958 79.145 44.7355 81.2648C44.4256 81.4448 44.2156 81.4548 44.1056 81.4548V81.4448Z" fill="#1D3366"/>
<defs>
<clipPath id="clip0_670_2763">
<rect width="269.002" height="70.0005" fill="white" transform="translate(110.004 19.4995)"/>
</clipPath>
</defs>
</svg>
