<svg width="481" height="600" viewBox="0 0 481 600" fill="none" xmlns="http://www.w3.org/2000/svg">
<path d="M398.906 154.514C432.62 174.253 455.24 210.801 455.24 252.728C455.24 315.546 404.284 366.454 341.466 366.454C283.018 366.454 234.896 322.366 228.461 265.647C228.365 267.856 228.268 270.113 228.268 272.37C228.268 341.96 284.699 398.343 354.289 398.343C423.879 398.343 480.31 341.912 480.31 272.37C480.31 218.485 446.452 172.524 398.858 154.514H398.906Z" fill="white"/>
<path d="M323.552 345.514C316.156 345.514 308.953 344.506 302.133 342.681C313.179 347.291 325.377 349.885 338.104 349.885C389.685 349.885 431.467 308.102 431.467 256.522C431.467 204.99 389.685 163.207 338.104 163.207C295.793 163.207 260.11 191.35 248.632 229.915C261.455 201.34 290.174 181.409 323.552 181.409C368.889 181.409 405.629 218.149 405.629 263.486C405.629 308.822 368.889 345.562 323.552 345.562V345.514Z" fill="white"/>
<path d="M210.403 272.13C210.403 194.712 273.173 131.894 350.639 131.894C387.187 131.894 420.469 145.917 445.443 168.826C445.827 169.306 446.259 169.834 446.644 170.363C446.644 170.219 446.548 170.027 446.5 169.882C447.844 171.131 449.141 172.38 450.438 173.677C448.997 171.707 447.46 169.786 445.971 167.913C438.287 140.442 422.438 96.3544 397.753 88.2379C397.753 88.2379 412.977 114.268 398.185 120.656C398.185 120.656 386.275 120.8 380.079 103.558C380.079 103.558 368.121 40.4038 326.194 51.786C310.489 57.213 305.303 66.434 294.545 74.8866C283.787 83.3393 269.235 92.9925 246.086 78.1524C246.086 78.1524 263.472 106.392 288.493 98.5155C288.493 98.5155 318.558 87.4695 317.885 102.598C317.885 102.598 317.645 104.951 315.916 107.833C302.565 108.217 289.598 110.186 277.207 113.596C263.039 102.694 212.132 58.9419 185.429 97.6511C177.121 113.692 172.126 123.345 144.895 123.537C144.895 123.537 118.913 120.752 114.494 143.036C114.494 143.036 136.538 137.417 140.14 149.808C140.14 149.808 145.327 172.956 109.692 163.975C98.934 161.142 86.3511 149.615 72.9038 180.448C72.9038 180.448 60.0808 209.936 42.0709 200.427C42.0709 200.427 55.1341 225.161 71.559 209.36C71.559 209.36 89.0406 190.678 100.279 192.983C116.079 196.201 120.45 222.855 143.118 213.778C154.02 209.84 166.507 208.303 168.572 214.883C167.227 218.677 166.027 222.519 164.97 226.409C153.828 241.105 138.075 219.494 119.297 221.03C96.3405 222.903 96.7248 244.131 69.8781 233.997C54.7018 226.842 25.2138 217.717 0 258.875C0 258.875 23.3407 237.792 47.8341 254.841C47.8341 254.841 66.2281 271.266 74.0084 279.526C74.0084 279.526 87.8399 292.733 103.4 283.032C118.144 275.78 134.954 269.921 140.381 282.072C146 294.655 136.442 316.218 102.68 297.152C97.6373 294.318 80.0597 285.145 63.6347 314.681C63.6347 314.681 82.3649 307.429 90.9136 325.007C90.9136 325.007 101.335 345.85 119.249 343.305C128.182 342.152 156.757 322.029 162.905 342.008C166.315 360.835 136.683 338.935 126.165 351.854C123.283 357.281 122.035 360.162 118.673 365.109C118.673 365.109 107.771 376.347 89.6169 355.936C89.6169 355.936 97.8774 387.057 123.379 385.76C135.818 385.76 141.869 362.371 162.184 379.037L183.364 400.552C183.364 400.552 205.792 422.068 225.915 400.024C225.915 400.024 226.011 399.784 226.155 399.448C252.666 418.61 285.18 429.896 320.383 429.896C360.533 429.896 397.225 415.152 425.416 390.899C403.756 404.586 378.11 412.559 350.591 412.559C273.125 412.559 210.355 349.789 210.355 272.322L210.403 272.13ZM419.605 132.71C421.766 137.177 423.783 141.979 425.656 146.83C431.996 152.065 437.134 157.204 440.832 161.862C432.572 152.545 423.255 144.188 413.025 136.985C415.427 135.832 417.684 134.391 419.605 132.662V132.71ZM340.025 69.6038C355.97 69.6038 368.457 106.968 371.819 116.093C362.118 112.827 352.08 110.426 341.658 109.081C342.139 107.352 342.523 105.671 342.667 104.183C343.147 94.0971 339.209 87.8537 335.847 84.3478C333.686 82.0906 330.42 79.5452 325.666 77.8643C331.813 73.0136 334.262 69.5557 340.025 69.5557V69.6038ZM120.45 325.055C119.873 324.719 119.057 323.951 118.144 322.942L119.105 323.326C119.105 323.326 122.611 323.758 123.235 323.806L120.402 325.055H120.45ZM128.518 253.736C113.87 253.4 101.239 262.189 98.8859 263.87C98.8859 263.87 95.6201 266.799 95.5241 266.895C94.7557 266.703 87.3596 260.124 84.1899 257.146C85.2465 257.242 86.3511 257.242 87.4077 257.242C102.632 257.242 114.398 247.205 118.096 242.258L121.218 243.699C132.12 248.838 142.542 251.431 152.051 251.431C154.981 251.431 157.766 251.191 160.359 250.711C159.687 256.618 159.351 262.573 159.351 268.672C159.351 270.93 159.447 273.187 159.543 275.444C154.5 263.774 144.367 254.072 128.566 253.736H128.518ZM155.173 314.633C156.757 313.049 157.958 311.464 158.823 310.167C160.552 307.574 161.752 304.308 162.425 300.706C163.577 306.325 165.018 311.896 166.699 317.275C163.097 315.786 159.255 314.826 155.077 314.633H155.173ZM167.804 191.35C157.046 191.35 144.511 195.673 143.118 196.201L140.236 197.209L137.931 198.986C136.971 198.362 135.098 196.777 134.233 195.721L133.513 194.856L124.052 184.53C126.501 184.819 128.854 185.011 131.063 185.011C145.856 185.011 153.684 178.191 158.438 173.196C169.965 161.094 163.577 142.556 162.905 141.115C187.59 136.696 200.653 115.709 206.176 109.85C221.737 93.4728 246.326 113.884 254.683 121.76C221.977 136.408 195.034 161.622 178.225 193.079C175.296 192.119 171.886 191.446 167.804 191.446V191.35ZM211.844 391.187C208.338 391.187 203.871 388.21 202.286 386.817L181.683 365.877C180.723 365.013 179.81 364.148 178.85 363.38C179.762 362.516 180.627 361.603 181.443 360.594C182.788 358.817 183.796 357.041 184.565 355.216C192.921 368.327 203.151 380.141 214.869 390.323C213.38 391.187 212.372 391.235 211.844 391.235V391.187Z" fill="white"/>
<g clip-path="url(#clip0_1192_7711)">
<path d="M135.701 599.999L126.909 588.193C124.312 588.716 121.763 588.978 119.285 588.978C112.829 588.978 106.92 587.479 101.536 584.479C96.1512 581.48 91.8865 577.314 88.7178 571.934C85.549 566.555 83.9766 560.532 83.9766 553.819C83.9766 547.107 85.549 541.084 88.7178 535.752C91.8865 530.42 96.1512 526.254 101.536 523.255C106.92 520.256 112.829 518.756 119.285 518.756C125.742 518.756 131.651 520.256 137.035 523.255C142.419 526.254 146.637 530.42 149.734 535.752C152.831 541.084 154.38 547.107 154.38 553.819C154.38 559.675 153.188 565.031 150.806 569.887C148.423 574.743 145.112 578.766 140.895 581.956L155.952 600.023H135.725L135.701 599.999ZM106.039 568.292C109.326 571.911 113.734 573.72 119.285 573.72C124.837 573.72 129.149 571.887 132.437 568.245C135.725 564.603 137.369 559.794 137.369 553.796C137.369 547.797 135.725 542.917 132.437 539.299C129.149 535.681 124.765 533.872 119.285 533.872C113.806 533.872 109.326 535.657 106.039 539.251C102.751 542.822 101.107 547.678 101.107 553.796C101.107 559.913 102.751 564.698 106.039 568.292Z" fill="white"/>
<path d="M180.278 519.708V560.723C180.278 564.817 181.279 567.983 183.304 570.197C185.329 572.41 188.283 573.505 192.19 573.505C196.098 573.505 199.1 572.41 201.173 570.197C203.269 567.983 204.294 564.817 204.294 560.723V519.708H221.019V560.627C221.019 566.745 219.708 571.934 217.112 576.148C214.515 580.385 211.012 583.575 206.605 585.717C202.197 587.859 197.313 588.931 191.905 588.931C186.496 588.931 181.66 587.883 177.395 585.765C173.13 583.646 169.747 580.456 167.269 576.195C164.792 571.934 163.553 566.745 163.553 560.627V519.708H180.278Z" fill="white"/>
<path d="M249.49 519.708V588.264H232.765V519.708H249.49Z" fill="white"/>
<path d="M263.165 535.776C266.096 530.468 270.194 526.326 275.435 523.374C280.677 520.423 286.633 518.923 293.28 518.923C301.429 518.923 308.409 521.065 314.199 525.374C319.988 529.682 323.872 535.538 325.825 542.965H307.456C306.098 540.109 304.145 537.919 301.643 536.419C299.141 534.919 296.282 534.181 293.09 534.181C287.944 534.181 283.774 535.967 280.582 539.561C277.389 543.132 275.793 547.94 275.793 553.915C275.793 559.89 277.389 564.698 280.582 568.269C283.774 571.84 287.944 573.649 293.09 573.649C296.282 573.649 299.141 572.911 301.643 571.411C304.145 569.911 306.098 567.745 307.456 564.865H325.825C323.872 572.292 319.988 578.124 314.199 582.385C308.385 586.646 301.429 588.788 293.28 588.788C286.633 588.788 280.677 587.312 275.435 584.337C270.194 581.385 266.096 577.267 263.165 571.982C260.235 566.698 258.758 560.675 258.758 553.915C258.758 547.155 260.235 541.108 263.165 535.8V535.776Z" fill="white"/>
<path d="M375.883 588.264L352.82 557.985V588.264H336.095V519.708H352.82V549.796L375.692 519.708H395.348L368.759 553.296L396.325 588.264H375.883Z" fill="white"/>
</g>
<defs>
<clipPath id="clip0_1192_7711">
<rect width="312.301" height="81.268" fill="white" transform="translate(84 518.732)"/>
</clipPath>
</defs>
</svg>
