<svg width="675" height="178" viewBox="0 0 675 178" fill="none" xmlns="http://www.w3.org/2000/svg">
<g clip-path="url(#clip0_670_2799)">
<path d="M275.075 159.308L261.596 141.205C257.614 142.008 253.706 142.41 249.907 142.41C240.007 142.41 230.948 140.111 222.692 135.512C214.437 130.913 207.898 124.527 203.04 116.278C198.181 108.03 195.771 98.7965 195.771 88.5045C195.771 78.2125 198.181 68.9788 203.04 60.8036C207.898 52.6284 214.437 46.2415 222.692 41.643C230.948 37.0444 240.007 34.7451 249.907 34.7451C259.806 34.7451 268.865 37.0444 277.121 41.643C285.376 46.2415 291.842 52.6284 296.591 60.8036C301.34 68.9788 303.714 78.2125 303.714 88.5045C303.714 97.4826 301.888 105.694 298.235 113.14C294.582 120.585 289.504 126.753 283.039 131.643L306.125 159.344H275.112L275.075 159.308ZM229.596 110.694C234.638 116.242 241.395 119.016 249.907 119.016C258.418 119.016 265.03 116.205 270.071 110.621C275.112 105.037 277.632 97.6651 277.632 88.468C277.632 79.2709 275.112 71.7891 270.071 66.2416C265.03 60.6941 258.308 57.9204 249.907 57.9204C241.505 57.9204 234.638 60.6576 229.596 66.1686C224.555 71.6431 222.035 79.0884 222.035 88.468C222.035 97.8476 224.555 105.183 229.596 110.694Z" fill="white"/>
<path d="M343.421 36.2051V99.0886C343.421 105.366 344.956 110.22 348.06 113.614C351.165 117.008 355.695 118.687 361.686 118.687C367.677 118.687 372.279 117.008 375.457 113.614C378.672 110.22 380.243 105.366 380.243 99.0886V36.2051H405.886V98.9426C405.886 108.322 403.877 116.278 399.895 122.738C395.914 129.235 390.544 134.125 383.786 137.41C377.028 140.695 369.54 142.337 361.248 142.337C352.955 142.337 345.54 140.731 339.001 137.483C332.463 134.235 327.275 129.344 323.476 122.811C319.677 116.278 317.778 108.322 317.778 98.9426V36.2051H343.421Z" fill="white"/>
<path d="M449.538 36.2051V141.315H423.895V36.2051H449.538Z" fill="white"/>
<path d="M470.506 60.8405C474.999 52.7018 481.282 46.3514 489.318 41.8258C497.355 37.3003 506.487 35.001 516.679 35.001C529.172 35.001 539.875 38.2857 548.751 44.8915C557.628 51.4974 563.582 60.4755 566.578 71.8625H538.414C536.331 67.4829 533.336 64.1252 529.501 61.8259C525.665 59.5266 521.281 58.3952 516.387 58.3952C508.496 58.3952 502.104 61.1325 497.209 66.6435C492.314 72.1179 489.866 79.4902 489.866 88.6509C489.866 97.8115 492.314 105.184 497.209 110.658C502.104 116.133 508.496 118.906 516.387 118.906C521.281 118.906 525.665 117.775 529.501 115.476C533.336 113.177 536.331 109.855 538.414 105.439H566.578C563.582 116.826 557.628 125.768 548.751 132.301C539.838 138.834 529.172 142.118 516.679 142.118C506.487 142.118 497.355 139.855 489.318 135.293C481.282 130.768 474.999 124.454 470.506 116.352C466.013 108.249 463.748 99.0159 463.748 88.6509C463.748 78.2859 466.013 69.0157 470.506 60.877V60.8405Z" fill="white"/>
<path d="M643.325 141.315L607.965 94.8915V141.315H582.322V36.2051H607.965V82.3367L643.033 36.2051H673.17L632.403 87.7017L674.667 141.315H643.325Z" fill="white"/>
</g>
<path d="M147.832 57.2617C160.326 64.5767 168.709 78.1212 168.709 93.659C168.709 116.939 149.825 135.805 126.545 135.805C104.885 135.805 87.0511 119.466 84.6662 98.4467C84.6306 99.2655 84.595 100.102 84.595 100.939C84.595 126.728 105.508 147.623 131.298 147.623C157.087 147.623 178 126.71 178 100.939C178 80.9689 165.452 63.936 147.814 57.2617H147.832Z" fill="white"/>
<path d="M119.907 128.045C117.166 128.045 114.496 127.671 111.969 126.995C116.062 128.704 120.583 129.665 125.3 129.665C144.415 129.665 159.899 114.18 159.899 95.0651C159.899 75.9676 144.415 60.4831 125.3 60.4831C109.619 60.4831 96.3952 70.9129 92.1414 85.2049C96.8935 74.6149 107.537 67.2287 119.907 67.2287C136.708 67.2287 150.324 80.8443 150.324 97.6458C150.324 114.447 136.708 128.063 119.907 128.063V128.045Z" fill="white"/>
<path d="M77.974 100.85C77.974 72.1588 101.236 48.8787 129.945 48.8787C143.489 48.8787 155.823 54.0758 165.079 62.5655C165.221 62.7435 165.381 62.9393 165.523 63.1351C165.523 63.0817 165.488 63.0105 165.47 62.9571C165.968 63.4198 166.449 63.8826 166.93 64.3631C166.396 63.6334 165.826 62.9215 165.274 62.2274C162.427 52.0468 156.553 35.708 147.405 32.7001C147.405 32.7001 153.047 42.3467 147.565 44.7139C147.565 44.7139 143.151 44.7673 140.855 38.3777C140.855 38.3777 136.423 14.9731 120.886 19.1912C115.066 21.2024 113.143 24.6197 109.157 27.7522C105.17 30.8847 99.7768 34.4621 91.1981 28.9625C91.1981 28.9625 97.6411 39.4278 106.914 36.5089C106.914 36.5089 118.056 32.4153 117.806 38.0218C117.806 38.0218 117.717 38.8939 117.077 39.9618C112.129 40.1042 107.323 40.8339 102.731 42.0976C97.4809 38.0574 78.6148 21.8432 68.7189 36.1886C65.6399 42.1332 63.7888 45.7106 53.6972 45.7818C53.6972 45.7818 44.0684 44.7495 42.431 53.0079C42.431 53.0079 50.6004 50.9255 51.9352 55.5174C51.9352 55.5174 53.8574 64.0962 40.6511 60.7679C36.6643 59.7178 32.0012 55.4462 27.0177 66.8727C27.0177 66.8727 22.2656 77.8008 15.5912 74.2768C15.5912 74.2768 20.4324 83.4428 26.5194 77.5872C26.5194 77.5872 32.9979 70.6637 37.1627 71.518C43.0183 72.7105 44.638 82.5885 53.0387 79.2247C57.0789 77.7652 61.7064 77.1957 62.4718 79.634C61.9734 81.0401 61.5285 82.4639 61.1369 83.9056C57.0077 89.3519 51.1699 81.3427 44.2108 81.9122C35.7032 82.6063 35.8456 90.4731 25.8964 86.7177C20.2722 84.0658 9.34407 80.6841 0 95.9372C0 95.9372 8.64994 88.1238 17.727 94.4421C17.727 94.4421 24.5438 100.529 27.4271 103.59C27.4271 103.59 32.553 108.485 38.3196 104.89C43.7836 102.202 50.013 100.031 52.0242 104.534C54.1066 109.197 50.5648 117.188 38.0526 110.122C36.1838 109.072 29.6696 105.673 23.5826 116.619C23.5826 116.619 30.524 113.931 33.692 120.445C33.692 120.445 37.5543 128.17 44.193 127.226C47.5035 126.799 58.0934 119.342 60.3716 126.746C61.6353 133.723 50.6538 125.607 46.7559 130.395C45.688 132.406 45.2253 133.474 43.9794 135.307C43.9794 135.307 39.9392 139.472 33.2115 131.907C33.2115 131.907 36.2728 143.441 45.7236 142.96C50.3334 142.96 52.576 134.292 60.1046 140.468L67.9536 148.442C67.9536 148.442 76.2654 156.416 83.7228 148.246C83.7228 148.246 83.7585 148.157 83.8118 148.033C93.6365 155.134 105.686 159.317 118.732 159.317C133.611 159.317 147.209 153.853 157.657 144.865C149.63 149.937 140.125 152.892 129.927 152.892C101.219 152.892 77.9562 129.629 77.9562 100.921L77.974 100.85ZM155.503 49.1813C156.304 50.8365 157.052 52.6163 157.746 54.4139C160.095 56.3539 161.999 58.2584 163.37 59.9848C160.309 56.5319 156.856 53.435 153.065 50.7653C153.955 50.3381 154.791 49.8042 155.503 49.1635V49.1813ZM126.011 25.7944C131.92 25.7944 136.548 39.6414 137.794 43.0231C134.199 41.8128 130.479 40.9229 126.617 40.4245C126.795 39.7838 126.937 39.1609 126.99 38.6091C127.168 34.8715 125.709 32.5577 124.463 31.2584C123.662 30.4219 122.452 29.4786 120.69 28.8557C122.968 27.0581 123.876 25.7766 126.011 25.7766V25.7944ZM44.638 120.463C44.4244 120.339 44.1218 120.054 43.7836 119.68L44.1396 119.822C44.1396 119.822 45.4389 119.983 45.6702 120L44.6202 120.463H44.638ZM47.6281 94.0328C42.1996 93.9082 37.5187 97.1653 36.6465 97.7882C36.6465 97.7882 35.4363 98.8739 35.4007 98.9095C35.1159 98.8383 32.375 96.4 31.2003 95.2965C31.5919 95.3321 32.0012 95.3321 32.3928 95.3321C38.0348 95.3321 42.3954 91.6122 43.7658 89.779L44.9227 90.313C48.9629 92.2174 52.8251 93.1785 56.3492 93.1785C57.4349 93.1785 58.4672 93.0895 59.4283 92.9115C59.1791 95.1007 59.0545 97.3077 59.0545 99.568C59.0545 100.405 59.0901 101.241 59.1257 102.078C57.2569 97.7526 53.5015 94.1574 47.6459 94.0328H47.6281ZM57.5061 116.601C58.0934 116.014 58.5384 115.426 58.8587 114.946C59.4995 113.985 59.9444 112.774 60.1936 111.439C60.6208 113.522 61.1547 115.586 61.7776 117.58C60.4428 117.028 59.0189 116.672 57.4705 116.601H57.5061ZM62.187 70.9129C58.2002 70.9129 53.5549 72.5147 53.0387 72.7105L51.9708 73.0843L51.1165 73.7428C50.7605 73.5114 50.0664 72.9241 49.746 72.5325L49.4791 72.2122L45.9728 68.3855C46.8805 68.4923 47.7526 68.5635 48.5714 68.5635C54.0532 68.5635 56.9543 66.0362 58.7163 64.1852C62.9879 59.7 60.6208 52.8299 60.3716 52.2959C69.5199 50.6585 74.361 42.8807 76.4078 40.7093C82.1744 34.6401 91.2871 42.2044 94.384 45.1233C82.2634 50.5517 72.2786 59.8958 66.0492 71.5536C64.9635 71.1977 63.6998 70.9485 62.187 70.9485V70.9129ZM78.508 144.971C77.2087 144.971 75.5535 143.868 74.9661 143.352L67.3307 135.592C66.9747 135.271 66.6366 134.951 66.2806 134.666C66.6188 134.346 66.9391 134.008 67.2417 133.634C67.74 132.975 68.1138 132.317 68.3986 131.64C71.4955 136.499 75.2865 140.878 79.6293 144.651C79.0775 144.971 78.7038 144.989 78.508 144.989V144.971Z" fill="white"/>
<defs>
<clipPath id="clip0_670_2799">
<rect width="478.824" height="124.601" fill="white" transform="translate(195.807 34.709)"/>
</clipPath>
</defs>
</svg>
