<svg width="190" height="50" viewBox="0 0 190 50" fill="none" xmlns="http://www.w3.org/2000/svg">
<path d="M30.0298 10.2615C30.0298 10.2615 33.1613 9.11076 33.092 10.6853C33.092 10.6853 33.054 11.0888 32.7007 11.4828C39.5357 11.0943 45.0433 15.2433 46.3109 17.47C46.281 17.4456 46.2498 17.4225 46.2199 17.3994C46.3136 17.5135 46.406 17.6276 46.4943 17.7458C45.7254 14.9105 44.0475 10.0645 41.401 9.19092C41.401 9.19092 42.9865 11.9013 41.4445 12.5683C41.4445 12.5683 40.2041 12.5846 39.5602 10.7872C39.5602 10.7872 38.313 4.2104 33.952 5.39779C32.3176 5.96432 31.7769 6.92075 30.6588 7.8011C29.5407 8.68145 28.0246 9.68544 25.6117 8.14346C25.6117 8.14346 27.4214 11.082 30.0257 10.2628H30.0271L30.0298 10.2615Z" fill="#0D87C5"/>
<path d="M17.4861 25.1922C18.6002 19.7362 22.5971 15.3548 24.8659 14.0112C26.3372 13.1118 27.7977 12.4828 29.2242 12.0753C28.7704 11.9883 22.4327 5.63292 19.3039 10.1678C18.4385 11.8361 17.9209 12.8442 15.0842 12.8605C15.0842 12.8605 12.3779 12.5711 11.9201 14.8916C11.9201 14.8916 14.2174 14.306 14.5883 15.598C14.5883 15.598 15.1304 18.0081 11.4161 17.0734C10.298 16.7786 8.98829 15.5763 7.58353 18.7879C7.58353 18.7879 6.24942 21.8597 4.37595 20.8666C4.37595 20.8666 5.73724 23.441 7.44496 21.7985C7.44496 21.7985 9.26408 19.8558 10.4365 20.0935C12.0818 20.4277 12.5342 23.2047 14.8953 22.2591C16.2811 21.7605 17.9209 21.6246 17.5187 22.9669C16.349 25.5971 14.5734 22.8338 12.42 23.0104C10.0276 23.2047 10.0711 25.4178 7.27378 24.3581C5.6924 23.6109 2.62204 22.6639 0 26.9489C0 26.9489 2.43184 24.7561 4.97915 26.5291C4.97915 26.5291 6.8961 28.2409 7.70444 29.0981C7.70444 29.0981 9.14589 30.473 10.7626 29.4649C12.2964 28.7123 14.0462 28.0996 14.6141 29.3658C15.1997 30.6741 14.2066 32.9198 10.6879 30.9335C10.1635 30.6374 8.33482 29.6823 6.62438 32.7567C6.62438 32.7567 8.57529 32.0027 9.46379 33.8314C9.46379 33.8314 10.5506 36.0024 12.4119 35.7374C13.3425 35.6193 16.3151 33.523 16.9563 35.6016C17.3136 37.5593 14.2242 35.2823 13.1319 36.6287C12.833 37.1952 12.6999 37.4914 12.3521 38.0063C12.3521 38.0063 11.215 39.1787 9.32658 37.0498C9.32658 37.0498 10.1879 40.2914 12.8439 40.1528C14.1373 40.1555 14.7704 37.7196 16.8857 39.4531L19.0893 41.6934C19.0893 41.6934 21.4219 43.9323 23.5195 41.6364C23.5195 41.6364 23.5318 41.6038 23.5549 41.5453C17.9318 37.0199 16.4577 30.492 17.4875 25.195V25.1909L17.4861 25.1922Z" fill="#0D87C5"/>
<path d="M17.4861 25.1922C17.5418 24.9232 17.6057 24.6555 17.6736 24.3906C17.2267 24.6704 16.6194 24.8552 15.8219 24.8919C13.8207 24.9856 13.4403 23.7167 12.4798 23.7928C11.0873 23.9015 10.5683 25.453 9.09018 25.4992C7.45311 25.5508 5.85543 24.3064 5.00225 24.3064C4.26183 24.3064 3.52549 24.6256 2.81767 25.2451C3.03912 25.2098 3.26872 25.1894 3.50647 25.1894C4.38546 25.1894 5.22234 25.4598 5.99129 25.9978L6.02254 26.0195L6.05107 26.0453C6.12986 26.116 7.99654 27.7856 8.77092 28.6103C8.77636 28.6144 9.35103 29.0654 9.97461 29.0926C11.0166 29.1388 12.2095 27.7136 13.3697 27.7136C14.2894 27.7136 15.0149 28.166 15.4904 29.0681C15.5556 29.2203 16.1113 30.5843 15.4537 31.5842C15.1888 31.985 14.5177 32.4333 13.4634 32.4646C12.2937 32.5243 11.4256 31.5747 10.0439 31.2024C9.4733 31.0489 8.95704 31.5339 8.56034 31.9768C9.49776 32.091 10.245 32.6385 10.6879 33.5528C10.696 33.5691 11.1104 35.164 12.5763 35.1518C13.6835 35.1518 15.2961 34.1397 15.9795 34.0487C17.7416 33.8163 18.0785 35.539 18.0785 35.539C18.0785 35.539 18.2035 36.2468 17.8652 36.7481C16.9468 38.1081 15.6358 36.6503 14.6888 36.9302C13.5476 37.2657 13.7501 39.2493 12.113 38.9735C11.8562 38.93 12.685 39.5155 13.2909 39.5155C13.8968 39.5155 14.2921 37.9681 15.9591 38.0795C17.6818 38.1923 20.119 42.3685 22.0509 42.0248C22.54 41.9379 23.0033 41.836 23.4367 41.4488C17.9114 36.9261 16.4645 30.454 17.4875 25.195L17.4861 25.1922Z" fill="#33CFFF"/>
<path d="M7.61206 21.3637C7.79003 21.1681 10.2531 18.4414 11.3699 19.4522C12.2787 20.3298 12.9091 21.9384 14.3968 22.0375C15.3545 22.1014 16.5487 21.2183 17.4644 21.2183C17.997 21.2183 18.3964 21.3583 18.6532 21.6313C20.3432 17.8871 23.1174 15.0463 24.8645 14.0098C26.0343 13.2938 27.1972 12.7504 28.3425 12.3523C28.2786 12.3319 22.6691 7.52667 20.4641 10.5767C19.0458 12.9107 17.4264 13.8223 13.6509 14.1103H13.6686C15.2431 14.1103 15.7146 14.9282 15.864 15.4539C15.8871 15.5585 16.0732 16.4946 15.485 17.2269C15.0869 17.7227 14.6114 18.004 13.64 17.9754C12.3603 17.9374 11.1443 17.2051 10.1186 17.5624C9.32114 17.8396 9.19479 18.1819 8.81983 19.0419C8.71794 19.2756 7.90144 21.0662 6.51026 21.5729C6.64476 21.649 6.78469 21.6979 6.92598 21.6979C7.14879 21.6979 7.38926 21.5743 7.61206 21.3623V21.3637Z" fill="#33CFFF"/>
<path d="M30.4523 9.65419C30.5012 9.63517 31.675 9.20858 32.6614 9.20858C33.2632 9.20858 33.7238 9.36753 34.024 9.68272C34.2006 9.86748 34.4058 10.1949 34.3799 10.7397C34.3623 10.9448 34.2889 11.203 34.1463 11.4652C40.3019 11.6771 45.1344 15.3996 46.3123 17.4673C46.2824 17.4442 46.2511 17.4184 46.2199 17.3953C46.3027 17.4958 46.3856 17.5991 46.4658 17.7024C45.8354 15.4444 44.7744 12.5316 43.3682 10.9136C43.4307 11.3212 43.644 13.1783 42.2243 13.2096C41.1687 13.2313 40.2245 12.7436 39.6009 11.0005L39.5846 10.9557L39.5751 10.9095C39.5642 10.8592 38.2804 5.76596 35.3934 5.9616C33.6069 6.13821 31.44 9.7751 28.4566 9.39063C28.8424 9.608 29.2785 9.75744 29.754 9.75744C29.9931 9.75744 30.2363 9.7194 30.4496 9.65283H30.451L30.4523 9.65419Z" fill="#33CFFF"/>
<path d="M44.3955 15.5031C44.1754 14.9229 43.9363 14.3549 43.6808 13.8264C43.4512 14.0302 43.1862 14.2 42.8927 14.3305C43.4159 14.6905 43.9173 15.0819 44.3969 15.5044L44.3955 15.5031Z" fill="#D7F0F7"/>
<path d="M16.1522 32.7637C16.8098 32.7922 17.4117 32.9905 17.9225 33.3302C17.159 30.8412 17.0177 28.2925 17.3628 25.9475C16.9103 26.0943 16.3982 26.1853 15.8235 26.1853C14.8303 26.1853 13.7489 25.9149 12.6117 25.381L12.2884 25.2302C11.9025 25.7437 10.6757 26.7912 9.09291 26.7912C8.98422 26.7912 8.87146 26.7871 8.76005 26.779C9.08884 27.0901 9.85917 27.7735 9.93797 27.7952C9.95019 27.7844 10.2898 27.48 10.2898 27.48C10.5371 27.3034 11.8522 26.3904 13.3766 26.4258C16.7297 26.5046 17.6617 30.6198 16.5381 32.2963C16.4457 32.4349 16.3207 32.5979 16.1563 32.7637H16.1522Z" fill="#D7F0F7"/>
<path d="M19.3365 36.6191C19.259 36.9193 19.1205 37.2372 18.8841 37.5428C18.8012 37.6475 18.7116 37.7453 18.6151 37.8349C18.7143 37.9164 18.8121 38.002 18.9113 38.0944L21.0563 40.2762C21.2221 40.4242 21.6853 40.7326 22.0508 40.7326C22.116 40.7326 22.2491 40.7326 22.4542 40.5845C21.161 39.3619 20.1312 38.0224 19.3378 36.6204L19.3365 36.6191Z" fill="#D7F0F7"/>
<path d="M19.2416 20.4401C20.9358 17.2882 23.3076 14.9337 24.8659 14.0112C25.5167 13.6131 26.1664 13.2681 26.8104 12.9719C26.8104 12.9719 23.4356 9.35662 21.4629 11.4366C20.8855 12.0467 19.5269 14.2354 16.9564 14.6932C17.0243 14.8468 17.6914 16.7773 16.4918 18.0354C15.9945 18.5571 15.1807 19.2677 13.6401 19.2677C13.4091 19.2677 13.1632 19.2514 12.9078 19.2201L13.8941 20.2948L13.9702 20.3872C14.0558 20.4959 14.2541 20.663 14.3533 20.7268L14.5924 20.5393L14.8927 20.4347C15.0381 20.3831 16.3464 19.9307 17.4645 19.9307C18.2743 19.9307 18.8462 20.1616 19.2402 20.4429L19.2416 20.4401Z" fill="#D7F0F7"/>
<path d="M35.6651 10.855C35.6474 11.0656 35.5931 11.3114 35.502 11.5709C36.6581 11.7095 37.7572 11.9649 38.7828 12.2991C38.628 12.026 37.2301 7.2536 35.3934 7.2536C34.7916 7.2536 34.5375 7.6136 33.8977 8.11761C34.3894 8.29285 34.7291 8.55504 34.9559 8.79142C35.3064 9.15686 35.714 9.80351 35.6651 10.855Z" fill="#D7F0F7"/>
<path d="M12.2964 33.6329C12.3915 33.7375 12.477 33.819 12.5368 33.8516L12.8315 33.7239C12.7663 33.7171 12.3996 33.6723 12.3996 33.6723L12.295 33.6329H12.2964Z" fill="#D7F0F7"/>
<path d="M36.4994 42.939C28.4363 42.939 21.8988 36.4029 21.8988 28.3412C21.8988 20.2794 28.4363 13.7433 36.4994 13.7433C40.5656 13.7433 44.2419 15.4076 46.8897 18.0894C43.8384 13.924 38.9135 11.2151 33.3529 11.2164C24.0902 11.2164 16.5828 18.7225 16.5828 27.9812C16.5828 37.2398 24.0916 44.7459 33.3529 44.7459C37.5319 44.7459 41.3508 43.2134 44.2867 40.6851C42.0315 42.1103 39.3619 42.939 36.498 42.939H36.4994Z" fill="url(#paint0_linear_670_2727)"/>
<path d="M41.5206 16.0925C45.0311 18.1467 47.391 21.9547 47.391 26.3171C47.391 32.8572 42.0871 38.157 35.547 38.157C29.4606 38.157 24.4515 33.5678 23.7817 27.6634C23.7695 27.8944 23.7614 28.1294 23.7614 28.3631C23.7614 35.6083 29.6358 41.4787 36.8811 41.4787C44.1263 41.4787 50.0008 35.6056 50.0008 28.3631C50.0008 22.7522 46.4753 17.9673 41.5192 16.0925" fill="url(#paint1_linear_670_2727)"/>
<path d="M35.1951 16.9999C30.792 16.9999 27.0736 19.9276 25.8808 23.9422C27.2163 20.9656 30.2051 18.8897 33.6803 18.8897C38.4 18.8897 42.2271 22.7141 42.2271 27.4337C42.2271 32.1534 38.4014 35.9778 33.6803 35.9778C32.9087 35.9778 32.1615 35.8745 31.4496 35.6816C32.6016 36.1625 33.8678 36.4302 35.1951 36.4315C40.5628 36.4315 44.913 32.08 44.9143 26.7137C44.9143 21.3473 40.5642 16.9972 35.1951 16.9972" fill="url(#paint2_linear_670_2727)"/>
<g clip-path="url(#clip0_670_2727)">
<path d="M77.2673 45.2498L73.481 40.1648C72.3626 40.3904 71.2646 40.5032 70.1975 40.5032C67.4168 40.5032 64.872 39.8573 62.553 38.5656C60.2341 37.2738 58.3973 35.4798 57.0326 33.1628C55.6679 30.8459 54.9907 28.2522 54.9907 25.3612C54.9907 22.4702 55.6679 19.8765 57.0326 17.5801C58.3973 15.2837 60.2341 13.4896 62.553 12.1978C64.872 10.9061 67.4168 10.2603 70.1975 10.2603C72.9782 10.2603 75.5229 10.9061 77.8419 12.1978C80.1609 13.4896 81.9771 15.2837 83.311 17.5801C84.645 19.8765 85.3119 22.4702 85.3119 25.3612C85.3119 27.8832 84.7989 30.1898 83.7728 32.2812C82.7467 34.3726 81.3204 36.1051 79.5042 37.4789L85.9892 45.26H77.2776L77.2673 45.2498ZM64.4924 31.5943C65.9084 33.1526 67.8067 33.9317 70.1975 33.9317C72.5883 33.9317 74.4455 33.1423 75.8616 31.5738C77.2776 30.0053 77.9856 27.9344 77.9856 25.3509C77.9856 22.7675 77.2776 20.6659 75.8616 19.1076C74.4455 17.5493 72.5575 16.7702 70.1975 16.7702C67.8375 16.7702 65.9084 17.5391 64.4924 19.0871C63.0764 20.6249 62.3683 22.7162 62.3683 25.3509C62.3683 27.9857 63.0764 30.0463 64.4924 31.5943Z" fill="white"/>
<path d="M96.4659 10.6704V28.3343C96.4659 30.0976 96.8968 31.4611 97.769 32.4145C98.6412 33.368 99.9136 33.8395 101.596 33.8395C103.279 33.8395 104.572 33.368 105.465 32.4145C106.368 31.4611 106.809 30.0976 106.809 28.3343V10.6704H114.012V28.2933C114.012 30.928 113.448 33.1629 112.329 34.9775C111.211 36.8023 109.703 38.1761 107.804 39.0987C105.906 40.0214 103.802 40.4827 101.473 40.4827C99.144 40.4827 97.061 40.0317 95.2243 39.1192C93.3876 38.2068 91.9305 36.8331 90.8634 34.998C89.7962 33.1629 89.2627 30.928 89.2627 28.2933V10.6704H96.4659Z" fill="white"/>
<path d="M126.274 10.6704V40.1957H119.071V10.6704H126.274Z" fill="white"/>
<path d="M132.164 17.5903C133.426 15.3042 135.191 13.5204 137.449 12.2491C139.706 10.9779 142.271 10.332 145.134 10.332C148.643 10.332 151.65 11.2547 154.143 13.1103C156.637 14.9659 158.309 17.4878 159.151 20.6864H151.239C150.654 19.4562 149.813 18.513 148.736 17.8671C147.658 17.2213 146.427 16.9035 145.052 16.9035C142.836 16.9035 141.04 17.6723 139.665 19.2204C138.29 20.7581 137.602 22.829 137.602 25.4022C137.602 27.9754 138.29 30.0463 139.665 31.5841C141.04 33.1219 142.836 33.901 145.052 33.901C146.427 33.901 147.658 33.5832 148.736 32.9373C149.813 32.2915 150.654 31.3585 151.239 30.1181H159.151C158.309 33.3166 156.637 35.8283 154.143 37.6634C151.64 39.4985 148.643 40.4212 145.134 40.4212C142.271 40.4212 139.706 39.7855 137.449 38.5041C135.191 37.2328 133.426 35.4593 132.164 33.1834C130.902 30.9075 130.266 28.3137 130.266 25.4022C130.266 22.4907 130.902 19.8867 132.164 17.6006V17.5903Z" fill="white"/>
<path d="M180.709 40.1957L170.777 27.1554V40.1957H163.573V10.6704H170.777V23.6287L180.627 10.6704H189.092L177.641 25.1357L189.513 40.1957H180.709Z" fill="white"/>
</g>
<defs>
<linearGradient id="paint0_linear_670_2727" x1="39.6617" y1="14.5459" x2="17.0039" y2="48.2771" gradientUnits="userSpaceOnUse">
<stop offset="0.278846" stop-color="#33CFFF"/>
<stop offset="1" stop-color="#0D87C5"/>
</linearGradient>
<linearGradient id="paint1_linear_670_2727" x1="39.6617" y1="14.5459" x2="17.0039" y2="48.2771" gradientUnits="userSpaceOnUse">
<stop offset="0.278846" stop-color="#33CFFF"/>
<stop offset="1" stop-color="#0D87C5"/>
</linearGradient>
<linearGradient id="paint2_linear_670_2727" x1="39.6617" y1="14.5459" x2="17.0039" y2="48.2771" gradientUnits="userSpaceOnUse">
<stop offset="0.278846" stop-color="#33CFFF"/>
<stop offset="1" stop-color="#0D87C5"/>
</linearGradient>
<clipPath id="clip0_670_2727">
<rect width="134.502" height="35" fill="white" transform="translate(55.001 10.25)"/>
</clipPath>
</defs>
</svg>
