<svg width="250" height="250" viewBox="0 0 250 250" fill="none" xmlns="http://www.w3.org/2000/svg">
<path d="M150.147 51.3077C150.147 51.3077 165.804 45.5542 165.458 53.427C165.458 53.427 165.267 55.4445 163.501 57.4144C197.675 55.4716 225.213 76.2167 231.551 87.35C231.401 87.2277 231.245 87.1122 231.096 86.9968C231.564 87.5673 232.026 88.1379 232.468 88.7289C228.623 74.5524 220.234 50.3227 207.002 45.955C207.002 45.955 214.929 59.5065 207.219 62.8418C207.219 62.8418 201.018 62.9233 197.798 53.9365C197.798 53.9365 191.562 21.0528 169.757 26.9897C161.586 29.8223 158.882 34.6043 153.292 39.006C147.701 43.4077 140.121 48.4276 128.057 40.7178C128.057 40.7178 137.105 55.4105 150.126 51.3145H150.133L150.147 51.3077Z" fill="#0D87C5"/>
<path d="M87.4293 125.96C92.9994 98.6807 112.984 76.7742 124.328 70.0561C131.684 65.5593 138.986 62.4143 146.119 60.3765C143.85 59.9417 112.162 28.1653 96.518 50.8395C92.1911 59.181 89.603 64.2212 75.4198 64.3027C75.4198 64.3027 61.8887 62.8558 59.5995 74.4578C59.5995 74.4578 71.086 71.5302 72.9404 77.9901C72.9404 77.9901 75.6507 90.0404 57.0794 85.367C51.489 83.8929 44.9408 77.8814 37.9171 93.9394C37.9171 93.9394 31.2466 109.298 21.8794 104.332C21.8794 104.332 28.6857 117.205 37.2242 108.992C37.2242 108.992 46.3197 99.2785 52.1818 100.467C60.4078 102.138 62.6698 116.023 74.4756 111.295C81.4042 108.802 89.603 108.123 87.5924 114.834C81.7438 127.985 72.8657 114.168 62.0992 115.051C50.1372 116.023 50.3546 127.088 36.3683 121.79C28.4616 118.054 13.11 113.319 0 134.743C0 134.743 12.159 123.78 24.8954 132.644C24.8954 132.644 34.4799 141.203 38.5216 145.49C38.5216 145.49 45.7287 152.364 53.8121 147.324C61.4811 143.56 70.2301 140.497 73.0695 146.828C75.9972 153.369 71.0317 164.597 53.4385 154.666C50.8165 153.186 41.6735 148.41 33.1214 163.782C33.1214 163.782 42.8758 160.012 47.3182 169.155C47.3182 169.155 52.7524 180.01 62.0585 178.686C66.7115 178.095 81.574 167.613 84.7802 178.006C86.5667 187.795 71.12 176.41 65.6586 183.142C64.1642 185.974 63.4985 187.455 61.7596 190.029C61.7596 190.029 56.0741 195.892 46.6322 185.247C46.6322 185.247 50.9388 201.455 64.2186 200.762C70.6853 200.776 73.8507 188.596 84.427 197.264L95.4448 208.465C95.4448 208.465 107.108 219.659 117.596 208.18C117.596 208.18 117.657 208.017 117.773 207.725C89.6574 185.098 82.2872 152.459 87.4361 125.974V125.954L87.4293 125.96Z" fill="#0D87C5"/>
<path d="M87.4293 125.96C87.7078 124.615 88.0271 123.277 88.3667 121.952C86.1319 123.351 83.0956 124.275 79.1082 124.459C69.1025 124.927 67.2006 118.583 62.3981 118.963C55.4355 119.507 52.8407 127.264 45.4502 127.495C37.265 127.753 29.2767 121.531 25.0109 121.531C21.3088 121.531 17.6272 123.127 14.0881 126.225C15.1954 126.048 16.3433 125.946 17.5321 125.946C21.927 125.946 26.1113 127.298 29.956 129.988L30.1122 130.097L30.2549 130.226C30.6488 130.579 39.9821 138.927 43.8539 143.05C43.8811 143.071 46.7544 145.326 49.8723 145.462C55.0823 145.693 61.0463 138.567 66.8473 138.567C71.446 138.567 75.0734 140.829 77.4508 145.34C77.7769 146.1 80.5551 152.92 77.2674 157.92C75.9428 159.924 72.5872 162.165 67.316 162.321C61.4675 162.62 57.1269 157.872 50.2187 156.011C47.3658 155.243 44.7845 157.668 42.8011 159.883C47.488 160.453 51.224 163.191 53.4385 167.762C53.4792 167.844 55.551 175.819 62.8804 175.757C68.4165 175.757 76.4795 170.697 79.8962 170.242C88.7064 169.08 90.391 177.693 90.391 177.693C90.391 177.693 91.0159 181.232 89.3245 183.739C84.7326 190.538 78.1776 183.25 73.4431 184.649C67.7372 186.327 68.7493 196.244 60.5641 194.865C59.2802 194.648 63.4238 197.576 66.4534 197.576C69.4829 197.576 71.4596 189.839 79.7943 190.396C88.4075 190.96 100.594 211.841 110.253 210.122C112.698 209.687 115.015 209.178 117.182 207.242C89.5555 184.629 82.3212 152.269 87.4361 125.974L87.4293 125.96Z" fill="#33CFFF"/>
<path d="M38.0597 106.818C38.9496 105.84 51.2648 92.2068 56.8484 97.2606C61.3928 101.649 64.5446 109.691 71.9827 110.187C76.7715 110.506 82.7424 106.091 87.3207 106.091C89.9834 106.091 91.9805 106.791 93.2643 108.156C101.714 89.4353 115.585 75.2317 124.321 70.0489C130.169 66.4691 135.984 63.752 141.71 61.7617C141.391 61.6598 113.344 37.6339 102.319 52.8836C95.2274 64.5535 87.1305 69.1115 68.2535 70.5515H68.3418C76.2145 70.5515 78.5716 74.6407 79.3188 77.2695C79.4343 77.7926 80.3649 82.4728 77.4236 86.1341C75.4334 88.6134 73.0559 90.0195 68.1991 89.8769C61.8003 89.6867 55.7208 86.0254 50.5923 87.8119C46.605 89.1976 45.9733 90.9094 44.0985 95.2092C43.589 96.3775 39.5066 105.33 32.5508 107.864C33.2233 108.244 33.9229 108.489 34.6294 108.489C35.7434 108.489 36.9457 107.871 38.0597 106.811V106.818Z" fill="#33CFFF"/>
<path d="M152.259 48.2713C152.504 48.1762 158.373 46.0433 163.304 46.0433C166.313 46.0433 168.616 46.8381 170.117 48.414C171 49.3378 172.026 50.9748 171.897 53.6987C171.809 54.7244 171.442 56.0151 170.729 57.3261C201.507 58.3857 225.668 76.9978 231.558 87.3364C231.408 87.2209 231.252 87.0918 231.096 86.9764C231.51 87.479 231.924 87.9953 232.325 88.5115C229.173 77.222 223.868 62.6584 216.838 54.5682C217.15 56.606 218.217 65.8917 211.118 66.0479C205.84 66.1566 201.119 63.718 198.002 55.0029L197.92 54.7788L197.872 54.5478C197.818 54.2965 191.399 28.8305 176.964 29.8087C168.032 30.6917 157.198 48.8759 142.281 46.9535C144.21 48.0404 146.39 48.7876 148.768 48.7876C149.963 48.7876 151.179 48.5974 152.246 48.2645H152.252L152.259 48.2713Z" fill="#33CFFF"/>
<path d="M221.974 77.5154C220.874 74.6144 219.678 71.7746 218.401 69.1319C217.253 70.1509 215.928 71.0001 214.46 71.6523C217.076 73.4527 219.583 75.4093 221.981 77.5222L221.974 77.5154Z" fill="#D7F0F7"/>
<path d="M80.76 163.817C84.0477 163.96 87.057 164.951 89.6112 166.65C85.7935 154.205 85.0871 141.461 86.8125 129.737C84.5504 130.47 81.9895 130.926 79.1161 130.926C74.1504 130.926 68.7433 129.574 63.0576 126.904L61.4408 126.15C59.5117 128.718 53.3776 133.955 45.4639 133.955C44.9204 133.955 44.3566 133.935 43.7996 133.894C45.4435 135.45 49.2951 138.866 49.6891 138.975C49.7502 138.921 51.4484 137.399 51.4484 137.399C52.6848 136.516 59.2603 131.951 66.882 132.128C83.647 132.522 88.3069 153.098 82.6892 161.48C82.2272 162.173 81.6023 162.988 80.7803 163.817H80.76Z" fill="#D7F0F7"/>
<path d="M96.6809 183.094C96.2937 184.595 95.6009 186.184 94.419 187.712C94.0047 188.235 93.5564 188.725 93.0741 189.173C93.57 189.58 94.059 190.008 94.5549 190.47L105.28 201.379C106.109 202.119 108.425 203.661 110.252 203.661C110.578 203.661 111.244 203.661 112.27 202.921C105.803 196.808 100.654 190.11 96.6877 183.1L96.6809 183.094Z" fill="#D7F0F7"/>
<path d="M96.2065 102.2C104.677 86.4407 116.536 74.6685 124.328 70.0561C127.581 68.0658 130.83 66.3404 134.05 64.8595C134.05 64.8595 117.176 46.7835 107.313 57.1835C104.426 60.2335 97.633 71.177 84.7808 73.4662C85.1204 74.2338 88.4557 83.8865 82.4576 90.1768C79.9714 92.7853 75.9024 96.338 68.1992 96.338C67.0444 96.338 65.8149 96.2565 64.5378 96.1002L69.4695 101.473L69.8499 101.935C70.2778 102.479 71.2696 103.314 71.7655 103.634L72.9611 102.696L74.4623 102.173C75.1891 101.915 81.7307 99.653 87.3213 99.653C91.3699 99.653 94.2297 100.808 96.1997 102.214L96.2065 102.2Z" fill="#D7F0F7"/>
<path d="M178.323 54.2753C178.234 55.3281 177.963 56.5575 177.507 57.8549C183.288 58.5477 188.783 59.8247 193.911 61.4956C193.137 60.1303 186.147 36.2686 176.964 36.2686C173.955 36.2686 172.685 38.0686 169.486 40.5885C171.945 41.4648 173.643 42.7757 174.777 43.9576C176.529 45.7847 178.567 49.0179 178.323 54.2753Z" fill="#D7F0F7"/>
<path d="M61.4811 168.163C61.9564 168.686 62.3842 169.093 62.6829 169.256L64.1564 168.618C63.8305 168.584 61.9971 168.36 61.9971 168.36L61.4743 168.163H61.4811Z" fill="#D7F0F7"/>
<path d="M182.494 214.693C142.179 214.693 109.492 182.013 109.492 141.705C109.492 101.397 142.179 68.7168 182.494 68.7168C202.825 68.7168 221.206 77.0379 234.445 90.4468C219.188 69.6203 194.565 56.0755 166.762 56.0823C120.449 56.0823 82.9125 93.6122 82.9125 139.905C82.9125 186.197 120.456 223.727 166.762 223.727C187.657 223.727 206.751 216.065 221.43 203.424C210.154 210.549 196.806 214.693 182.487 214.693H182.494Z" fill="url(#paint0_linear_670_2811)"/>
<path d="M207.6 80.4624C225.152 90.733 236.951 109.773 236.951 131.585C236.951 164.285 210.432 190.783 177.732 190.783C147.301 190.783 122.256 167.837 118.907 138.316C118.846 139.471 118.805 140.646 118.805 141.814C118.805 178.04 148.177 207.392 184.403 207.392C220.628 207.392 250 178.027 250 141.814C250 113.76 232.373 89.8364 207.593 80.4624" fill="url(#paint1_linear_670_2811)"/>
<path d="M175.973 84.9994C153.958 84.9994 135.366 99.6378 129.402 119.71C136.079 104.827 151.023 94.4481 168.399 94.4481C191.997 94.4481 211.132 113.57 211.132 137.168C211.132 160.766 192.004 179.887 168.399 179.887C164.541 179.887 160.805 179.371 157.245 178.406C163.006 180.811 169.336 182.149 175.973 182.156C202.811 182.156 224.561 160.399 224.568 133.567C224.568 106.736 202.818 84.9858 175.973 84.9858" fill="url(#paint2_linear_670_2811)"/>
<defs>
<linearGradient id="paint0_linear_670_2811" x1="198.305" y1="72.7294" x2="85.0183" y2="241.383" gradientUnits="userSpaceOnUse">
<stop offset="0.278846" stop-color="#33CFFF"/>
<stop offset="1" stop-color="#0D87C5"/>
</linearGradient>
<linearGradient id="paint1_linear_670_2811" x1="198.305" y1="72.7294" x2="85.0183" y2="241.383" gradientUnits="userSpaceOnUse">
<stop offset="0.278846" stop-color="#33CFFF"/>
<stop offset="1" stop-color="#0D87C5"/>
</linearGradient>
<linearGradient id="paint2_linear_670_2811" x1="198.305" y1="72.7294" x2="85.0183" y2="241.383" gradientUnits="userSpaceOnUse">
<stop offset="0.278846" stop-color="#33CFFF"/>
<stop offset="1" stop-color="#0D87C5"/>
</linearGradient>
</defs>
</svg>
