<svg width="250" height="250" viewBox="0 0 250 250" fill="none" xmlns="http://www.w3.org/2000/svg">
<path d="M207.629 80.4243C225.177 90.6982 236.951 109.721 236.951 131.544C236.951 164.241 210.429 190.738 177.732 190.738C147.31 190.738 122.263 167.791 118.913 138.268C118.863 139.418 118.813 140.593 118.813 141.768C118.813 177.989 148.185 207.337 184.407 207.337C220.628 207.337 250 177.964 250 141.768C250 113.721 232.377 89.7983 207.604 80.4243H207.629Z" fill="#1D3366"/>
<path d="M168.408 179.839C164.559 179.839 160.809 179.314 157.259 178.364C163.009 180.764 169.358 182.114 175.982 182.114C202.83 182.114 224.578 160.366 224.578 133.519C224.578 106.697 202.83 84.9488 175.982 84.9488C153.96 84.9488 135.386 99.5973 129.412 119.67C136.086 104.797 151.035 94.4229 168.408 94.4229C192.006 94.4229 211.129 113.546 211.129 137.144C211.129 160.741 192.006 179.864 168.408 179.864V179.839Z" fill="#1D3366"/>
<path d="M109.514 141.643C109.514 101.347 142.186 68.6504 182.507 68.6504C201.53 68.6504 218.853 75.9497 231.852 87.8735C232.052 88.1235 232.277 88.3985 232.477 88.6734C232.477 88.5984 232.427 88.4984 232.402 88.4234C233.102 89.0734 233.777 89.7233 234.452 90.3983C233.702 89.3734 232.902 88.3735 232.127 87.3986C228.127 73.1 219.878 50.1523 207.029 45.9277C207.029 45.9277 214.954 59.4763 207.254 62.801C207.254 62.801 201.055 62.876 197.83 53.9019C197.83 53.9019 191.606 21.0302 169.783 26.9546C161.609 29.7793 158.909 34.5788 153.31 38.9784C147.71 43.378 140.136 48.4025 128.087 40.6782C128.087 40.6782 137.136 55.3768 150.16 51.2772C150.16 51.2772 165.808 45.5277 165.458 53.402C165.458 53.402 165.333 54.6268 164.434 56.1267C157.484 56.3267 150.735 57.3516 144.286 59.1264C136.911 53.452 110.414 30.6792 96.5153 50.8272C92.1908 59.1764 89.591 64.2009 75.4175 64.3009C75.4175 64.3009 61.8938 62.851 59.594 74.4499C59.594 74.4499 71.0679 71.5251 72.9427 77.9745C72.9427 77.9745 75.6424 90.0233 57.0943 85.3488C51.4948 83.8739 44.9455 77.8745 37.9462 93.9229C37.9462 93.9229 31.2719 109.271 21.8978 104.322C21.8978 104.322 28.6971 117.196 37.2463 108.971C37.2463 108.971 46.3454 99.2474 52.1948 100.447C60.419 102.122 62.6937 115.996 74.4925 111.271C80.167 109.221 86.6663 108.421 87.7412 111.846C87.0413 113.821 86.4164 115.821 85.8664 117.846C80.067 125.495 71.8678 114.246 62.0938 115.046C50.145 116.021 50.345 127.07 36.3714 121.795C28.4722 118.07 13.1237 113.321 0 134.744C0 134.744 12.1488 123.77 24.8975 132.644C24.8975 132.644 34.4716 141.193 38.5211 145.493C38.5211 145.493 45.7204 152.367 53.8196 147.318C61.4938 143.543 70.243 140.493 73.0677 146.818C75.9924 153.367 71.0179 164.591 53.4447 154.667C50.8199 153.192 41.6708 148.417 33.1217 163.791C33.1217 163.791 42.8707 160.016 47.3203 169.165C47.3203 169.165 52.7447 180.014 62.0688 178.689C66.7183 178.089 81.5918 167.616 84.7915 178.014C86.5663 187.814 71.1429 176.415 65.6684 183.139C64.1686 185.964 63.5186 187.464 61.7688 190.038C61.7688 190.038 56.0944 195.888 46.6453 185.264C46.6453 185.264 50.9449 201.462 64.2186 200.787C70.6929 200.787 73.8426 188.613 84.4165 197.288L95.4404 208.486C95.4404 208.486 107.114 219.685 117.588 208.211C117.588 208.211 117.638 208.086 117.713 207.911C131.512 217.885 148.435 223.76 166.758 223.76C187.656 223.76 206.754 216.086 221.428 203.462C210.154 210.586 196.805 214.736 182.482 214.736C142.161 214.736 109.489 182.064 109.489 141.743L109.514 141.643ZM218.403 69.0754C219.528 71.4002 220.578 73.8999 221.553 76.4247C224.853 79.1494 227.527 81.8241 229.452 84.2489C225.152 79.3994 220.303 75.0498 214.978 71.3002C216.228 70.7002 217.403 69.9503 218.403 69.0504V69.0754ZM176.982 36.2287C185.281 36.2287 191.781 55.6767 193.531 60.4263C188.481 58.7264 183.257 57.4766 177.832 56.7766C178.082 55.8767 178.282 55.0018 178.357 54.2269C178.607 48.9774 176.557 45.7277 174.808 43.9029C173.683 42.728 171.983 41.4032 169.508 40.5282C172.708 38.0035 173.983 36.2037 176.982 36.2037V36.2287ZM62.6937 169.19C62.3938 169.015 61.9688 168.615 61.4938 168.09L61.9938 168.29C61.9938 168.29 63.8186 168.515 64.1436 168.54L62.6687 169.19H62.6937ZM66.8933 132.069C59.2691 131.894 52.6947 136.469 51.4699 137.344C51.4699 137.344 49.77 138.868 49.72 138.918C49.3201 138.818 45.4705 135.394 43.8206 133.844C44.3706 133.894 44.9455 133.894 45.4955 133.894C53.4197 133.894 59.544 128.669 61.4689 126.095L63.0937 126.845C68.7681 129.519 74.1926 130.869 79.1421 130.869C80.6669 130.869 82.1168 130.744 83.4666 130.494C83.1167 133.569 82.9417 136.669 82.9417 139.843C82.9417 141.018 82.9917 142.193 83.0417 143.368C80.4169 137.294 75.1425 132.244 66.9183 132.069H66.8933ZM80.7669 163.766C81.5918 162.941 82.2168 162.116 82.6667 161.441C83.5666 160.091 84.1916 158.391 84.5415 156.517C85.1415 159.441 85.8914 162.341 86.7663 165.141C84.8915 164.366 82.8917 163.866 80.7169 163.766H80.7669ZM87.3413 99.5973C81.7418 99.5973 75.2175 101.847 74.4925 102.122L72.9927 102.647L71.7928 103.572C71.2929 103.247 70.318 102.422 69.868 101.872L69.4931 101.422L64.5685 96.0477C65.8434 96.1977 67.0683 96.2977 68.2182 96.2977C75.9174 96.2977 79.992 92.748 82.4667 90.1483C88.4661 83.8489 85.1415 74.1999 84.7915 73.4499C97.6402 71.1502 104.44 60.2263 107.314 57.1766C115.413 48.6524 128.212 59.2764 132.562 63.376C115.538 71.0002 101.515 84.1239 92.7657 100.497C91.2409 99.9973 89.466 99.6473 87.3413 99.6473V99.5973ZM110.264 203.612C108.439 203.612 106.114 202.062 105.289 201.337L94.5655 190.438C94.0656 189.988 93.5906 189.538 93.0907 189.138C93.5656 188.688 94.0156 188.213 94.4405 187.689C95.1405 186.764 95.6654 185.839 96.0654 184.889C100.415 191.713 105.739 197.862 111.839 203.162C111.064 203.612 110.539 203.637 110.264 203.637V203.612Z" fill="#1D3366"/>
</svg>
