<svg width="75" height="75" viewBox="0 0 75 75" fill="none" xmlns="http://www.w3.org/2000/svg">
<path d="M8.82438 51.5242C5.37406 44.4902 4.64712 36.4421 6.77555 28.8634C8.91865 21.2302 13.7977 14.7012 20.5161 10.4792C25.3407 7.44519 30.8859 5.75637 36.5484 5.59294C41.1216 5.46093 45.7598 6.33677 49.9852 8.12616C49.8679 8.70447 49.8071 9.29535 49.8071 9.88622C49.8071 14.7599 53.7707 18.7263 58.6456 18.7263C63.5204 18.7263 67.484 14.762 67.484 9.88622C67.484 5.01044 63.5204 1.04612 58.6456 1.04612C56.4836 1.04612 54.4159 1.83186 52.7966 3.26715C47.6598 0.976975 41.9931 -0.14611 36.3871 0.0152287C29.7295 0.207997 23.2143 2.19225 17.5476 5.75428C9.65606 10.716 3.92228 18.3869 1.4042 27.3548C-1.09503 36.2578 -0.23821 45.7139 3.81544 53.982L4.09197 54.5456L9.09881 52.0878L8.82228 51.5242H8.82438ZM58.6435 6.62383C60.4409 6.62383 61.9031 8.08635 61.9031 9.88413C61.9031 11.6819 60.4409 13.1444 58.6435 13.1444C56.846 13.1444 55.3838 11.6819 55.3838 9.88413C55.3838 8.08635 56.846 6.62383 58.6435 6.62383Z" fill="#303446"/>
<path d="M70.1361 19.0511L69.8261 18.5042L64.9722 21.2533L65.2822 21.8001C69.3296 28.9493 70.4546 37.2887 68.4497 45.2781C66.4386 53.2926 61.4779 60.1296 54.4809 64.5297C49.3777 67.7377 43.5161 69.4328 37.5268 69.4328C32.6561 69.4328 27.7708 68.2845 23.3798 66.1096C23.5809 65.3616 23.6836 64.5926 23.6836 63.8215C23.6836 58.9478 19.7179 54.9814 14.8452 54.9814C9.97239 54.9814 6.00672 58.9458 6.00672 63.8215C6.00672 68.6973 9.97029 72.6616 14.8452 72.6616C16.806 72.6616 18.727 71.9974 20.2752 70.7884C25.5983 73.5438 31.5688 75 37.5603 75L38.0987 74.9958C44.9365 74.8973 51.6297 72.911 57.4494 69.2526C65.6698 64.0855 71.4978 56.0521 73.8609 46.6379C76.2156 37.2509 74.8937 27.4554 70.1361 19.0532V19.0511ZM14.8452 67.0797C13.0477 67.0797 11.5855 65.6172 11.5855 63.8194C11.5855 62.0217 13.0477 60.5591 14.8452 60.5591C16.6426 60.5591 18.1048 62.0217 18.1048 63.8194C18.1048 65.6172 16.6426 67.0797 14.8452 67.0797Z" fill="#303446"/>
<path d="M29.4865 44.5091C29.8531 44.9323 30.3622 45.188 30.9215 45.2278C31.4787 45.2676 32.0213 45.0874 32.4445 44.7207L44.176 34.5606L46.648 37.4144C47.4043 38.2881 48.7324 38.3824 49.606 37.626C50.0292 37.2593 50.2848 36.7502 50.3246 36.1907L51.3657 21.6849L51.3699 21.5843C51.393 20.5052 50.6011 19.5938 49.5243 19.4597L34.9312 18.4099C34.3718 18.3701 33.8313 18.5503 33.4082 18.917C32.985 19.2837 32.7294 19.7928 32.6896 20.3523C32.6498 20.9117 32.83 21.4523 33.1966 21.8756L35.6686 24.7294L28.3762 31.0467C27.953 31.4134 27.6974 31.9226 27.6576 32.482C27.6178 33.0415 27.798 33.5821 28.1646 34.0053C28.9209 34.879 30.2469 34.9754 31.1226 34.2169L39.9988 26.5272C40.4219 26.1605 40.6775 25.6513 40.7173 25.0919C40.7571 24.5324 40.5769 23.9918 40.2103 23.5686L39.6803 22.9547L47.0356 23.4827L46.5076 30.8393L45.9776 30.2254C45.611 29.8021 45.102 29.5465 44.5426 29.5067C43.9854 29.4669 43.4428 29.6471 43.0196 30.0137L31.2881 40.1739L28.8161 37.3201C28.0599 36.4463 26.7317 36.3521 25.8581 37.1085C25.4643 37.45 25.2129 37.9214 25.15 38.4474L24.1005 53.0391C24.0188 54.1915 24.8882 55.1972 26.0404 55.2811L40.5351 56.3224C40.5853 56.3266 40.6377 56.3287 40.688 56.3287C41.1908 56.3287 41.6726 56.1506 42.056 55.8175L42.0664 55.807C42.2717 55.6268 42.4372 55.4131 42.5587 55.17C42.94 54.4094 42.8248 53.5021 42.2675 52.8589L39.7955 50.0051L47.0879 43.6877C47.5111 43.321 47.7667 42.8119 47.8065 42.2524C47.8463 41.693 47.6661 41.1524 47.2995 40.7292C46.5433 39.8554 45.2172 39.759 44.3415 40.5154L35.4654 48.2052C35.0422 48.5719 34.7866 49.081 34.7468 49.6405C34.707 50.1999 34.8872 50.7405 35.2538 51.1638L35.7838 51.7777L28.4286 51.2497L28.9565 43.8931L29.4886 44.507L29.4865 44.5091Z" fill="#303446"/>
</svg>
