<svg width="613" height="100" viewBox="0 0 613 100" fill="none" xmlns="http://www.w3.org/2000/svg">
<path d="M11.7658 68.6989C7.16542 59.3203 6.19617 48.5895 9.03408 38.4846C11.8915 28.307 18.3969 19.6016 27.3548 13.9723C33.7876 9.92692 41.1812 7.67516 48.7313 7.45725C54.8289 7.28124 61.0131 8.44903 66.647 10.8349C66.4906 11.606 66.4096 12.3938 66.4096 13.1816C66.4096 19.6799 71.6943 24.9684 78.1942 24.9684C84.694 24.9684 89.9787 19.6827 89.9787 13.1816C89.9787 6.68059 84.694 1.39483 78.1942 1.39483C75.3116 1.39483 72.5547 2.44248 70.3955 4.35619C63.5465 1.30263 55.9909 -0.194813 48.5162 0.020305C39.6394 0.277329 30.9525 2.923 23.3968 7.67237C12.8748 14.288 5.22972 24.5158 1.87227 36.4731C-1.46004 48.3437 -0.317613 60.9518 5.08726 71.976L5.45597 72.7275L12.1318 69.4504L11.7631 68.6989H11.7658ZM78.1914 8.83177C80.5879 8.83177 82.5376 10.7818 82.5376 13.1788C82.5376 15.5759 80.5879 17.5259 78.1914 17.5259C75.7948 17.5259 73.8451 15.5759 73.8451 13.1788C73.8451 10.7818 75.7948 8.83177 78.1914 8.83177Z" fill="white"/>
<path d="M93.515 25.4015L93.1016 24.6723L86.6297 28.3377L87.0431 29.0669C92.4396 38.5991 93.9395 49.7182 91.2664 60.3707C88.5849 71.0568 81.9706 80.1728 72.6412 86.0397C65.837 90.3169 58.0215 92.577 50.0357 92.577C43.5415 92.577 37.0277 91.0461 31.1731 88.1461C31.4413 87.1488 31.5781 86.1235 31.5781 85.0954C31.5781 78.5971 26.2906 73.3086 19.7936 73.3086C13.2965 73.3086 8.00897 78.5943 8.00897 85.0954C8.00897 91.5964 13.2937 96.8822 19.7936 96.8822C22.408 96.8822 24.9694 95.9966 27.0336 94.3846C34.1311 98.0583 42.0918 100 50.0804 100L50.7983 99.9944C59.9153 99.8631 68.8397 97.2146 76.5992 92.3368C87.5598 85.4474 95.3305 74.7362 98.4813 62.1839C101.621 49.6679 99.8584 36.6072 93.515 25.4043V25.4015ZM19.7936 89.4397C17.397 89.4397 15.4473 87.4896 15.4473 85.0926C15.4473 82.6955 17.397 80.7455 19.7936 80.7455C22.1901 80.7455 24.1398 82.6955 24.1398 85.0926C24.1398 87.4896 22.1901 89.4397 19.7936 89.4397Z" fill="white"/>
<path d="M39.3154 59.3454C39.8042 59.9098 40.4829 60.2506 41.2287 60.3037C41.9717 60.3568 42.6951 60.1165 43.2594 59.6276L58.9014 46.0808L62.1974 49.8858C63.2057 51.0508 64.9766 51.1765 66.1414 50.168C66.7056 49.6791 67.0464 49.0002 67.0995 48.2543L68.4877 28.9132L68.4933 28.7791C68.524 27.3403 67.4682 26.125 66.0325 25.9462L46.5749 24.5466C45.8291 24.4935 45.1085 24.7338 44.5443 25.2227C43.98 25.7116 43.6393 26.3904 43.5862 27.1364C43.5331 27.8823 43.7733 28.6031 44.2621 29.1674L47.5581 32.9725L37.8349 41.3956C37.2707 41.8845 36.9299 42.5634 36.8769 43.3094C36.8238 44.0553 37.064 44.7761 37.5528 45.3404C38.5612 46.5054 40.3293 46.6339 41.4969 45.6226L53.3317 35.3695C53.896 34.8806 54.2367 34.2018 54.2898 33.4558C54.3429 32.7099 54.1027 31.9891 53.6138 31.4248L52.9072 30.6062L62.7141 31.3102L62.0103 41.1191L61.3036 40.3005C60.8148 39.7362 60.136 39.3953 59.3902 39.3422C58.6472 39.2892 57.9238 39.5294 57.3595 40.0183L41.7175 53.5652L38.4215 49.7601C37.4132 48.5951 35.6423 48.4694 34.4775 49.4779C33.9524 49.9333 33.6172 50.5619 33.5334 51.2631L32.134 70.7188C32.0251 72.2553 33.1842 73.5963 34.7205 73.7081L54.0468 75.0966C54.1138 75.1022 54.1837 75.1049 54.2507 75.1049C54.9211 75.1049 55.5635 74.8675 56.0747 74.4233L56.0886 74.4093C56.3624 74.169 56.583 73.8841 56.745 73.56C57.2534 72.5459 57.0998 71.3362 56.3568 70.4785L53.0608 66.6734L62.784 58.2503C63.3482 57.7614 63.689 57.0825 63.742 56.3366C63.7951 55.5907 63.5549 54.8699 63.0661 54.3055C62.0577 53.1405 60.2896 53.012 59.1221 54.0206L47.2872 64.2736C46.723 64.7625 46.3822 65.4414 46.3291 66.1873C46.2761 66.9333 46.5163 67.654 47.0051 68.2184L47.7118 69.0369L37.9048 68.3329L38.6087 58.5241L39.3181 59.3427L39.3154 59.3454Z" fill="white"/>
<path d="M121.33 77.9079C117.942 76.5171 115.23 74.4587 113.212 71.7327C111.185 69.0067 110.111 65.7243 110 61.8857H125.162C125.384 64.0553 126.134 65.7151 127.411 66.8555C128.689 67.996 130.355 68.5616 132.41 68.5616C134.465 68.5616 136.186 68.0794 137.408 67.0966C138.63 66.123 139.241 64.7786 139.241 63.0539C139.241 61.6075 138.75 60.4114 137.778 59.4656C136.807 58.5199 135.612 57.741 134.196 57.1291C132.78 56.5171 130.762 55.8217 128.161 55.0428C124.384 53.8745 121.302 52.7062 118.914 51.538C116.526 50.3697 114.471 48.645 112.749 46.3641C111.027 44.0832 110.167 41.1068 110.167 37.435C110.167 31.983 112.138 27.7178 116.081 24.6302C120.025 21.5426 125.162 19.9941 131.493 19.9941C137.825 19.9941 143.129 21.5426 147.072 24.6302C151.015 27.7178 153.126 32.0108 153.403 37.5278H137.991C137.88 35.6362 137.186 34.1434 135.909 33.0586C134.631 31.9737 132.993 31.436 130.994 31.436C129.272 31.436 127.883 31.8996 126.828 32.8175C125.773 33.7354 125.245 35.0614 125.245 36.7767C125.245 38.6682 126.134 40.1425 127.911 41.1995C129.688 42.2565 132.465 43.397 136.242 44.6209C140.018 45.9005 143.082 47.1244 145.452 48.2927C147.812 49.461 149.849 51.1578 151.57 53.3831C153.292 55.6084 154.153 58.4735 154.153 61.9784C154.153 65.4832 153.301 68.3483 151.607 71.0743C149.914 73.8004 147.451 75.97 144.239 77.5834C141.018 79.1967 137.214 80.0034 132.826 80.0034C128.439 80.0034 124.718 79.308 121.33 77.9172V77.9079Z" fill="white"/>
<path d="M175.102 76.1613C170.52 73.6022 166.883 70.0232 164.189 65.4335C161.495 60.8438 160.153 55.6885 160.153 49.9583C160.153 44.2281 161.495 39.0821 164.189 34.5202C166.883 29.9583 170.52 26.3978 175.102 23.8387C179.684 21.2796 184.729 20 190.218 20C195.707 20 200.761 21.2796 205.334 23.8387C209.916 26.3978 213.526 29.9583 216.164 34.5202C218.802 39.0821 220.116 44.2281 220.116 49.9583C220.116 55.6885 218.783 60.8438 216.117 65.4335C213.452 70.0232 209.842 73.6022 205.287 76.1613C200.733 78.7204 195.707 80 190.209 80C184.711 80 179.675 78.7204 175.093 76.1613H175.102ZM201.428 62.3088C204.232 59.1933 205.63 55.0765 205.63 49.9583C205.63 44.8401 204.223 40.6491 201.428 37.5614C198.623 34.4738 194.893 32.9254 190.227 32.9254C185.562 32.9254 181.739 34.4553 178.944 37.5151C176.139 40.5749 174.741 44.7195 174.741 49.949C174.741 55.1785 176.139 59.249 178.944 62.3366C181.748 65.4242 185.507 66.9726 190.227 66.9726C194.948 66.9726 198.623 65.4149 201.428 62.2995V62.3088Z" fill="white"/>
<path d="M229.865 34.5637C232.364 30.0296 235.845 26.4969 240.316 23.9656C244.786 21.4343 249.859 20.1641 255.524 20.1641C262.466 20.1641 268.409 21.9999 273.352 25.6717C278.295 29.3435 281.599 34.3504 283.265 40.6926H267.603C266.437 38.2447 264.78 36.381 262.651 35.1015C260.513 33.8219 258.079 33.1821 255.357 33.1821C250.97 33.1821 247.415 34.712 244.694 37.7719C241.972 40.8317 240.612 44.9207 240.612 50.0389C240.612 55.1571 241.972 59.2461 244.694 62.3059C247.415 65.3657 250.97 66.8956 255.357 66.8956C258.079 66.8956 260.504 66.2559 262.651 64.9763C264.789 63.6967 266.437 61.833 267.603 59.3852H283.265C281.599 65.7273 278.295 70.725 273.352 74.3597C268.409 78.0037 262.466 79.8303 255.524 79.8303C249.859 79.8303 244.786 78.5693 240.316 76.038C235.845 73.5067 232.364 69.9833 229.865 65.477C227.366 60.9707 226.116 55.8247 226.116 50.0389C226.116 44.2531 227.366 39.0978 229.865 34.5544V34.5637Z" fill="white"/>
<path d="M323.171 79.2904L303.511 53.4211V79.2904H289.265V20.709H303.511V46.4114L323.005 20.709H339.749L317.09 49.4155L340.583 79.2904H323.171Z" fill="white"/>
<path d="M360.828 32.1415V43.9913H379.906V55.0066H360.828V67.8578H382.405V79.2904H346.583V20.709H382.405V32.1415H360.828Z" fill="white"/>
<path d="M433.641 20.709V32.1415H418.146V79.2904H403.9V32.1415H388.405V20.709H433.641Z" fill="white"/>
<path d="M483.22 54.2985C485.275 56.9411 486.303 59.9638 486.303 63.3481C486.303 68.2438 484.59 72.1289 481.175 74.9939C477.759 77.859 472.992 79.2869 466.883 79.2869H439.641V20.7148H465.966C471.909 20.7148 476.556 22.0778 479.925 24.8039C483.285 27.5299 484.96 31.2295 484.96 35.9026C484.96 39.3518 484.053 42.2169 482.258 44.4979C480.453 46.7788 478.046 48.3644 475.047 49.2545C478.435 49.9777 481.156 51.6652 483.211 54.3078L483.22 54.2985ZM453.896 44.4144H463.226C465.559 44.4144 467.355 43.9045 468.604 42.866C469.854 41.8368 470.474 40.3161 470.474 38.3134C470.474 36.3106 469.854 34.7807 468.604 33.7237C467.355 32.6666 465.559 32.1381 463.226 32.1381H453.896V44.4052V44.4144ZM469.928 66.1576C471.233 65.0728 471.89 63.5058 471.89 61.4474C471.89 59.3889 471.205 57.7756 469.845 56.6073C468.484 55.439 466.605 54.8549 464.217 54.8549H453.887V67.7895H464.383C466.772 67.7895 468.614 67.2517 469.919 66.1669L469.928 66.1576Z" fill="white"/>
<path d="M527.378 76.2493C513.177 76.2493 501.666 64.7795 501.666 50.6296C501.666 36.4797 513.177 25.0099 527.378 25.0099C534.54 25.0099 541.014 27.9291 545.676 32.6389C540.306 25.3278 531.631 20.5742 521.837 20.5742C505.526 20.5742 492.303 33.7471 492.303 49.9997C492.303 66.2522 505.526 79.4251 521.834 79.4251C529.192 79.4251 535.918 76.7363 541.093 72.2977C537.121 74.7999 532.421 76.2522 527.378 76.2522" fill="white"/>
<path d="M536.216 29.1289C542.397 32.7364 546.554 39.4205 546.554 47.0729C546.554 58.5514 537.214 67.8544 525.697 67.8573C514.979 67.8573 506.155 59.8025 504.978 49.438C504.958 49.8463 504.943 50.2546 504.943 50.6658C504.943 63.3808 515.289 73.687 528.047 73.687C540.805 73.687 551.152 63.3779 551.152 50.6658C551.152 40.8174 544.944 32.4185 536.216 29.1289Z" fill="white"/>
<path d="M525.078 30.7227C517.325 30.7227 510.778 35.8612 508.673 42.9069C511.024 37.6809 516.289 34.0414 522.409 34.0414C530.721 34.0414 537.459 40.7547 537.459 49.037C537.459 57.3193 530.721 64.0326 522.409 64.0326C521.051 64.0326 519.734 63.8489 518.481 63.5135C520.509 64.3592 522.74 64.8258 525.078 64.8288C534.532 64.8288 542.191 57.191 542.191 47.7743C542.191 38.3546 534.529 30.7227 525.078 30.7227Z" fill="white"/>
<path d="M596.139 79.2904L584.226 61.3488L573.729 79.2904H557.567L576.312 49.499L557.151 20.709H573.729L585.475 38.4002L595.806 20.709H611.967L593.39 50.25L612.717 79.2904H596.139Z" fill="white"/>
</svg>
