<svg width="709" height="600" viewBox="0 0 709 600" fill="none" xmlns="http://www.w3.org/2000/svg">
<path d="M182.839 490.196C175.628 490.196 168.571 488.739 161.897 485.823C155.146 482.908 149.239 478.612 144.253 473.242C139.266 467.796 135.584 461.505 133.206 454.524C130.828 447.544 129.984 440.333 130.674 432.968L159.288 117.831C160.516 104.713 166.499 92.5926 176.242 83.6939C185.985 74.7952 198.949 69.8088 211.837 70.039H268.604C271.673 47.4853 280.648 29.9948 295.224 18.1043C309.876 6.13704 329.975 0 354.907 0C379.838 0 399.937 6.06033 414.589 18.1043C429.165 29.9948 438.14 47.4853 441.209 70.039H498.053C511.094 70.039 523.675 74.8719 533.341 83.6939C543.084 92.5926 549.144 104.713 550.295 117.831L579.139 432.968C579.829 440.333 578.909 447.544 576.607 454.524C574.229 461.505 570.547 467.796 565.56 473.242C560.574 478.689 554.667 482.908 547.916 485.823C541.242 488.739 534.185 490.196 526.897 490.196H182.839ZM211.683 100.724C206.16 100.724 200.944 102.719 196.954 106.401C192.889 110.083 190.434 115.146 189.897 120.593L161.206 435.73C160.899 438.722 161.283 441.79 162.28 444.705C163.277 447.62 164.812 450.229 166.883 452.453C168.954 454.678 171.409 456.442 174.247 457.67C177.086 458.897 180.231 459.281 183.069 459.511H526.744C529.505 459.511 532.804 458.897 535.642 457.67C538.481 456.442 540.936 454.678 543.007 452.453C545.078 450.229 546.612 447.62 547.61 444.705C548.607 441.79 548.99 438.798 548.684 435.73L519.84 120.593C519.303 115.069 516.848 110.083 512.782 106.401C508.716 102.719 503.653 100.417 497.976 100.724H211.683ZM304.046 70.039H405.614C403.236 57.8416 398.096 49.173 389.811 43.4963C381.526 37.8195 370.096 35.0578 354.83 35.0578C339.564 35.0578 328.134 37.8195 319.849 43.4963C311.64 49.173 306.424 57.8416 304.046 70.039Z" fill="white"/>
<path d="M373.405 377.921C326.892 377.921 289.18 340.341 289.18 293.99C289.18 247.64 326.892 210.06 373.405 210.06C396.861 210.06 418.07 219.624 433.332 235.043C415.729 211.086 387.334 195.527 355.24 195.527C301.821 195.527 258.515 238.682 258.515 291.914C258.515 345.146 301.821 388.301 355.24 388.301C379.351 388.301 401.379 379.484 418.304 364.951C405.288 373.139 389.909 377.897 373.382 377.897L373.405 377.921Z" fill="white"/>
<path d="M402.364 223.591C422.613 235.394 436.213 257.298 436.213 282.374C436.213 319.977 405.618 350.442 367.906 350.442C332.816 350.442 303.906 324.06 300.044 290.119C299.973 291.449 299.927 292.802 299.927 294.155C299.927 335.793 333.799 369.571 375.608 369.571C417.416 369.571 451.288 335.816 451.288 294.155C451.288 261.893 430.946 234.391 402.364 223.614V223.591Z" fill="white"/>
<path d="M365.869 228.792C340.47 228.792 319.028 245.634 312.145 268.704C319.847 251.582 337.076 239.662 357.137 239.662C384.362 239.662 406.436 261.66 406.436 288.789C406.436 315.918 384.362 337.915 357.137 337.915C352.69 337.915 348.382 337.309 344.286 336.212C350.934 338.988 358.237 340.505 365.892 340.505C396.839 340.505 421.956 315.498 421.956 284.637C421.956 253.775 396.862 228.769 365.892 228.769L365.869 228.792Z" fill="white"/>
<g clip-path="url(#clip0_1199_4472)">
<path d="M4.42696 546.545C7.37062 541.209 11.4869 537.045 16.752 534.078C22.0171 531.087 27.9762 529.604 34.6532 529.604C42.838 529.604 49.8262 531.757 55.6657 536.088C61.4812 540.419 65.3821 546.305 67.3445 553.771H48.8929C47.5287 550.9 45.5663 548.698 43.0534 547.191C40.5406 545.683 37.6687 544.942 34.4618 544.942C29.2924 544.942 25.1043 546.736 21.8974 550.349C18.6905 553.939 17.0871 558.772 17.0871 564.778C17.0871 570.784 18.6905 575.617 21.8974 579.207C25.1043 582.796 29.2924 584.614 34.4618 584.614C37.6687 584.614 40.5406 583.873 43.0534 582.365C45.5663 580.858 47.5287 578.68 48.8929 575.785H67.3445C65.3821 583.251 61.4812 589.113 55.6657 593.396C49.8262 597.679 42.838 599.833 34.6532 599.833C27.9762 599.833 21.9931 598.349 16.7281 595.358C11.463 592.391 7.34668 588.252 4.40303 582.94C1.45938 577.627 -0.0244141 571.574 -0.0244141 564.778C-0.0244141 557.982 1.45938 551.905 4.40303 546.569L4.42696 546.545Z" fill="white"/>
<path d="M129.019 569.898C131.436 573.009 132.656 576.55 132.656 580.546C132.656 586.313 130.646 590.883 126.625 594.233C122.605 597.607 116.981 599.282 109.777 599.282H77.6602V530.393H108.676C115.688 530.393 121.169 531.996 125.118 535.202C129.066 538.409 131.053 542.763 131.053 548.267C131.053 552.335 129.976 555.685 127.87 558.389C125.74 561.069 122.916 562.935 119.374 563.988C123.371 564.849 126.577 566.811 128.995 569.922L129.019 569.898ZM94.4605 558.269H105.445C108.198 558.269 110.304 557.671 111.787 556.45C113.271 555.23 113.989 553.459 113.989 551.09C113.989 548.722 113.247 546.927 111.787 545.683C110.328 544.438 108.198 543.816 105.445 543.816H94.4605V558.245V558.269ZM113.367 583.848C114.899 582.58 115.664 580.714 115.664 578.297C115.664 575.88 114.851 573.99 113.247 572.602C111.644 571.238 109.442 570.544 106.618 570.544H94.4366V585.762H106.809C109.61 585.762 111.787 585.116 113.343 583.848H113.367Z" fill="white"/>
<path d="M143.952 546.545C146.896 541.209 151.012 537.045 156.277 534.078C161.542 531.111 167.525 529.604 174.202 529.604C182.387 529.604 189.399 531.757 195.214 536.088C201.03 540.419 204.931 546.305 206.893 553.771H188.442C187.078 550.9 185.115 548.698 182.602 547.191C180.089 545.683 177.218 544.942 174.011 544.942C168.841 544.942 164.653 546.736 161.446 550.349C158.239 553.939 156.636 558.772 156.636 564.778C156.636 570.784 158.239 575.617 161.446 579.207C164.653 582.796 168.841 584.614 174.011 584.614C177.218 584.614 180.089 583.873 182.602 582.365C185.115 580.858 187.078 578.68 188.442 575.785H206.893C204.931 583.251 201.03 589.113 195.214 593.396C189.399 597.679 182.387 599.833 174.202 599.833C167.525 599.833 161.542 598.349 156.277 595.358C151.012 592.391 146.896 588.252 143.952 582.94C141.008 577.627 139.524 571.574 139.524 564.778C139.524 557.982 141.008 551.905 143.952 546.569V546.545Z" fill="white"/>
<path d="M231.975 595.478C226.566 592.463 222.282 588.276 219.099 582.868C215.916 577.46 214.337 571.406 214.337 564.658C214.337 557.911 215.916 551.857 219.099 546.497C222.282 541.137 226.566 536.949 231.975 533.935C237.384 530.92 243.319 529.412 249.804 529.412C256.29 529.412 262.225 530.92 267.634 533.935C273.042 536.949 277.278 541.137 280.39 546.497C283.501 551.857 285.056 557.911 285.056 564.658C285.056 571.406 283.477 577.46 280.342 582.868C277.207 588.276 272.947 592.463 267.586 595.478C262.225 598.493 256.29 600 249.804 600C243.319 600 237.384 598.493 231.975 595.478ZM262.991 579.183C266.294 575.522 267.945 570.688 267.945 564.658C267.945 558.628 266.294 553.723 262.991 550.086C259.688 546.449 255.285 544.63 249.78 544.63C244.276 544.63 239.777 546.425 236.474 550.038C233.171 553.627 231.52 558.509 231.52 564.658C231.52 570.808 233.171 575.617 236.474 579.231C239.777 582.868 244.204 584.686 249.78 584.686C255.357 584.686 259.688 582.844 262.991 579.183Z" fill="white"/>
<path d="M372.433 530.393V599.306H355.632V557.982L340.22 599.306H326.675L311.167 557.886V599.306H294.366V530.393H314.206L333.543 578.105L352.689 530.393H372.433Z" fill="white"/>
<path d="M462.585 530.393V599.306H445.785V557.982L430.373 599.306H416.827L401.319 557.886V599.306H384.519V530.393H404.358L423.695 578.105L442.841 530.393H462.585Z" fill="white"/>
<path d="M491.447 543.84V557.79H513.944V570.759H491.447V585.882H516.887V599.33H474.671V530.393H516.887V543.84H491.447Z" fill="white"/>
<path d="M562.909 599.306L548.574 573.296H544.553V599.306H527.753V530.393H555.921C561.354 530.393 565.996 531.35 569.826 533.24C573.655 535.13 576.527 537.739 578.417 541.041C580.308 544.343 581.265 548.028 581.265 552.095C581.265 556.666 579.973 560.757 577.388 564.371C574.803 567.96 570.998 570.52 565.949 572.028L581.863 599.33H562.909V599.306ZM544.553 561.427H554.964C558.051 561.427 560.348 560.686 561.88 559.178C563.412 557.671 564.178 555.541 564.178 552.789C564.178 550.038 563.412 548.099 561.88 546.616C560.348 545.108 558.027 544.367 554.964 544.367H544.553V561.451V561.427Z" fill="white"/>
<path d="M593.351 546.545C596.295 541.209 600.411 537.045 605.676 534.078C610.941 531.111 616.924 529.604 623.601 529.604C631.786 529.604 638.798 531.757 644.614 536.088C650.429 540.419 654.33 546.305 656.293 553.771H637.841C636.477 550.9 634.514 548.698 632.002 547.191C629.489 545.683 626.617 544.942 623.41 544.942C618.241 544.942 614.053 546.736 610.846 550.349C607.639 553.939 606.035 558.772 606.035 564.778C606.035 570.784 607.639 575.617 610.846 579.207C614.053 582.796 618.241 584.614 623.41 584.614C626.617 584.614 629.489 583.873 632.002 582.365C634.514 580.858 636.477 578.68 637.841 575.785H656.293C654.33 583.251 650.429 589.113 644.614 593.396C638.798 597.679 631.786 599.833 623.601 599.833C616.924 599.833 610.941 598.349 605.676 595.358C600.411 592.391 596.295 588.252 593.351 582.94C590.408 577.627 588.924 571.574 588.924 564.778C588.924 557.982 590.408 551.905 593.351 546.569V546.545Z" fill="white"/>
<path d="M683.407 543.84V557.79H705.903V570.759H683.407V585.882H708.847V599.33H666.631V530.393H708.847V543.84H683.407Z" fill="white"/>
</g>
<defs>
<clipPath id="clip0_1199_4472">
<rect width="708.824" height="70.5882" fill="white" transform="translate(0 529.412)"/>
</clipPath>
</defs>
</svg>
