<svg width="1261" height="178" viewBox="0 0 1261 178" fill="none" xmlns="http://www.w3.org/2000/svg">
<path d="M26.5209 178C23.9024 178 21.3396 177.471 18.9162 176.412C16.4648 175.354 14.3199 173.794 12.5093 171.844C10.6986 169.866 9.36154 167.582 8.498 165.047C7.63447 162.512 7.32805 159.894 7.57875 157.219L17.9691 42.7868C18.4147 38.0235 20.5875 33.6222 24.1252 30.3909C27.6629 27.1596 32.3706 25.349 37.0504 25.4326H57.6639C58.7781 17.2429 62.0373 10.8917 67.3299 6.57402C72.6504 2.22848 79.9487 0 89.0019 0C98.0551 0 105.353 2.20063 110.674 6.57402C115.967 10.8917 119.226 17.2429 120.34 25.4326H140.981C145.717 25.4326 150.285 27.1875 153.795 30.3909C157.333 33.6222 159.533 38.0235 159.951 42.7868L170.425 157.219C170.676 159.894 170.342 162.512 169.506 165.047C168.642 167.582 167.305 169.866 165.495 171.844C163.684 173.822 161.539 175.354 159.088 176.412C156.664 177.471 154.101 178 151.455 178H26.5209ZM36.9947 36.575C34.9891 36.575 33.0949 37.2992 31.6464 38.6363C30.17 39.9734 29.2786 41.8119 29.0836 43.7897L18.6655 158.222C18.554 159.309 18.6933 160.423 19.0554 161.481C19.4176 162.54 19.9747 163.487 20.7268 164.295C21.4789 165.103 22.3703 165.743 23.401 166.189C24.4316 166.635 25.5737 166.774 26.6044 166.858H151.399C152.402 166.858 153.6 166.635 154.631 166.189C155.661 165.743 156.553 165.103 157.305 164.295C158.057 163.487 158.614 162.54 158.976 161.481C159.338 160.423 159.478 159.336 159.366 158.222L148.892 43.7897C148.697 41.784 147.806 39.9734 146.33 38.6363C144.853 37.2992 143.015 36.4635 140.953 36.575H36.9947ZM70.5334 25.4326H107.415C106.551 21.0034 104.685 17.8557 101.676 15.7944C98.668 13.733 94.5174 12.7302 88.9741 12.7302C83.4307 12.7302 79.2802 13.733 76.2717 15.7944C73.2911 17.8557 71.3969 21.0034 70.5334 25.4326Z" fill="white"/>
<path d="M95.7192 137.231C78.8292 137.231 65.1353 123.585 65.1353 106.754C65.1353 89.923 78.8292 76.2771 95.7192 76.2771C104.236 76.2771 111.938 79.75 117.48 85.349C111.088 76.6498 100.777 71 89.123 71C69.7254 71 54 86.6704 54 106C54 125.33 69.7254 141 89.123 141C97.8782 141 105.877 137.798 112.023 132.521C107.296 135.494 101.712 137.222 95.7106 137.222L95.7192 137.231Z" fill="white"/>
<path d="M106.235 81.1903C113.587 85.4764 118.526 93.4302 118.526 102.536C118.526 116.19 107.416 127.253 93.7222 127.253C80.9803 127.253 70.4825 117.673 69.08 105.348C69.0545 105.831 69.0375 106.322 69.0375 106.814C69.0375 121.933 81.3373 134.199 96.5188 134.199C111.7 134.199 124 121.942 124 106.814C124 95.0988 116.613 85.1122 106.235 81.1988V81.1903Z" fill="white"/>
<path d="M92.9824 83.0791C83.7597 83.0791 75.9734 89.1947 73.4744 97.572C76.271 91.3547 82.5271 87.0263 89.8118 87.0263C99.6976 87.0263 107.713 95.014 107.713 104.865C107.713 114.716 99.6976 122.704 89.8118 122.704C88.1968 122.704 86.6328 122.484 85.1452 122.086C87.5593 123.094 90.2113 123.644 92.9909 123.644C104.228 123.644 113.349 114.564 113.349 103.357C113.349 92.1509 104.237 83.0706 92.9909 83.0706L92.9824 83.0791Z" fill="white"/>
<g clip-path="url(#clip0_723_5779)">
<path d="M202.448 61.7413C206.87 53.7246 213.053 47.4694 220.962 43.0116C228.871 38.5179 237.823 36.2891 247.852 36.2891C260.147 36.2891 270.644 39.5245 279.416 46.0314C288.152 52.5382 294.012 61.3818 296.959 72.5981H269.242C267.193 68.2841 264.245 64.9768 260.471 62.712C256.696 60.4471 252.382 59.3327 247.565 59.3327C239.8 59.3327 233.509 62.0289 228.691 67.4573C223.874 72.8497 221.466 80.1115 221.466 89.1349C221.466 98.1582 223.874 105.42 228.691 110.812C233.509 116.205 239.8 118.937 247.565 118.937C252.382 118.937 256.696 117.823 260.471 115.558C264.245 113.293 267.193 110.022 269.242 105.672H296.959C294.012 116.888 288.152 125.696 279.416 132.13C270.644 138.565 260.147 141.801 247.852 141.801C237.823 141.801 228.835 139.572 220.926 135.078C213.017 130.621 206.834 124.401 202.412 116.421C197.991 108.44 195.762 99.3445 195.762 89.1349C195.762 78.9252 197.991 69.794 202.412 61.7773L202.448 61.7413Z" fill="white"/>
<path d="M389.602 96.8273C393.232 101.501 395.066 106.821 395.066 112.825C395.066 121.489 392.046 128.355 386.007 133.388C379.967 138.457 371.519 140.973 360.698 140.973H312.454V37.4746H359.045C369.578 37.4746 377.81 39.8832 383.742 44.7005C389.673 49.5177 392.657 56.0605 392.657 64.3289C392.657 70.4403 391.04 75.4732 387.876 79.5355C384.676 83.5619 380.434 86.3659 375.114 87.9477C381.118 89.2419 385.935 92.1898 389.566 96.8632L389.602 96.8273ZM337.691 79.3558H354.191C358.326 79.3558 361.489 78.4571 363.718 76.6236C365.947 74.7902 367.025 72.1299 367.025 68.5709C367.025 65.0119 365.911 62.3157 363.718 60.4463C361.525 58.577 358.326 57.6423 354.191 57.6423H337.691V79.3198V79.3558ZM366.091 117.786C368.391 115.88 369.542 113.076 369.542 109.446C369.542 105.815 368.32 102.975 365.911 100.89C363.502 98.8404 360.195 97.7979 355.953 97.7979H337.655V120.662H356.241C360.447 120.662 363.718 119.691 366.055 117.786H366.091Z" fill="white"/>
<path d="M412.033 61.7394C416.455 53.7226 422.639 47.4674 430.547 43.0097C438.456 38.5519 447.444 36.2871 457.474 36.2871C469.768 36.2871 480.301 39.5226 489.037 46.0294C497.773 52.5363 503.633 61.3799 506.58 72.5961H478.863C476.814 68.2822 473.866 64.9748 470.092 62.71C466.317 60.4452 462.003 59.3308 457.186 59.3308C449.421 59.3308 443.13 62.027 438.312 67.4553C433.495 72.8478 431.087 80.1096 431.087 89.1329C431.087 98.1562 433.495 105.418 438.312 110.81C443.13 116.203 449.421 118.935 457.186 118.935C462.003 118.935 466.317 117.821 470.092 115.556C473.866 113.291 476.814 110.02 478.863 105.67H506.58C503.633 116.886 497.773 125.694 489.037 132.129C480.301 138.563 469.768 141.799 457.474 141.799C447.444 141.799 438.456 139.57 430.547 135.076C422.639 130.619 416.455 124.399 412.033 116.419C407.612 108.438 405.383 99.3426 405.383 89.1329C405.383 78.9232 407.612 69.7921 412.033 61.7753V61.7394Z" fill="white"/>
<path d="M544.255 135.257C536.131 130.727 529.696 124.436 524.915 116.311C520.133 108.187 517.761 99.0914 517.761 88.9536C517.761 78.8159 520.133 69.7206 524.915 61.668C529.696 53.6153 536.131 47.3241 544.255 42.7945C552.38 38.2648 561.295 36 571.038 36C580.78 36 589.696 38.2648 597.82 42.7945C605.945 47.3241 612.308 53.6153 616.981 61.668C621.655 69.7206 623.991 78.8159 623.991 88.9536C623.991 99.0914 621.619 108.187 616.909 116.311C612.2 124.436 605.801 130.727 597.748 135.257C589.696 139.786 580.78 142.051 571.038 142.051C561.295 142.051 552.38 139.786 544.255 135.257ZM590.846 110.775C595.807 105.275 598.287 98.0129 598.287 88.9536C598.287 79.8944 595.807 72.5247 590.846 67.0604C585.885 61.5961 579.27 58.8639 571.002 58.8639C562.733 58.8639 555.975 61.5601 551.014 66.9885C546.053 72.3809 543.572 79.7146 543.572 88.9536C543.572 98.1927 546.053 105.419 551.014 110.847C555.975 116.311 562.626 119.043 571.002 119.043C579.378 119.043 585.885 116.275 590.846 110.775Z" fill="white"/>
<path d="M755.243 37.4746V141.009H730.006V78.9244L706.855 141.009H686.507L663.212 78.7806V141.009H637.976V37.4746H667.778L696.825 109.158L725.584 37.4746H755.243Z" fill="white"/>
<path d="M890.664 37.4746V141.009H865.428V78.9244L842.277 141.009H821.929L798.634 78.7806V141.009H773.397V37.4746H803.2L832.247 109.158L861.006 37.4746H890.664Z" fill="white"/>
<path d="M934.019 57.6782V78.6368H967.811V98.1215H934.019V120.842H972.233V141.045H908.818V37.4746H972.233V57.6782H934.019Z" fill="white"/>
<path d="M1041.36 141.009L1019.83 101.932H1013.79V141.009H988.555V37.4746H1030.87C1039.03 37.4746 1046 38.9126 1051.75 41.7526C1057.51 44.5926 1061.82 48.5111 1064.66 53.4721C1067.5 58.4332 1068.94 63.9694 1068.94 70.0808C1068.94 76.9472 1067 83.0945 1063.11 88.5229C1059.23 93.9154 1053.52 97.762 1045.93 100.027L1069.84 141.045H1041.36V141.009ZM1013.79 84.1011H1029.43C1034.07 84.1011 1037.52 82.9867 1039.82 80.7219C1042.12 78.4571 1043.27 75.2576 1043.27 71.1234C1043.27 66.9892 1042.12 64.0773 1039.82 61.8484C1037.52 59.5836 1034.03 58.4691 1029.43 58.4691H1013.79V84.1371V84.1011Z" fill="white"/>
<path d="M1087.09 61.7394C1091.51 53.7226 1097.7 47.4674 1105.61 43.0097C1113.51 38.5519 1122.5 36.2871 1132.53 36.2871C1144.83 36.2871 1155.36 39.5226 1164.1 46.0294C1172.83 52.5363 1178.69 61.3799 1181.64 72.5961H1153.92C1151.87 68.2822 1148.93 64.9748 1145.15 62.71C1141.38 60.4452 1137.06 59.3308 1132.24 59.3308C1124.48 59.3308 1118.19 62.027 1113.37 67.4553C1108.55 72.8478 1106.15 80.1096 1106.15 89.1329C1106.15 98.1562 1108.55 105.418 1113.37 110.81C1118.19 116.203 1124.48 118.935 1132.24 118.935C1137.06 118.935 1141.38 117.821 1145.15 115.556C1148.93 113.291 1151.87 110.02 1153.92 105.67H1181.64C1178.69 116.886 1172.83 125.694 1164.1 132.129C1155.36 138.563 1144.83 141.799 1132.53 141.799C1122.5 141.799 1113.51 139.57 1105.61 135.076C1097.7 130.619 1091.51 124.399 1087.09 116.419C1082.67 108.438 1080.44 99.3426 1080.44 89.1329C1080.44 78.9232 1082.67 69.7921 1087.09 61.7753V61.7394Z" fill="white"/>
<path d="M1222.37 57.6782V78.6368H1256.16V98.1215H1222.37V120.842H1260.58V141.045H1197.17V37.4746H1260.58V57.6782H1222.37Z" fill="white"/>
</g>
<defs>
<clipPath id="clip0_723_5779">
<rect width="1064.75" height="106.051" fill="white" transform="translate(195.798 36)"/>
</clipPath>
</defs>
</svg>
