<svg width="75" height="75" viewBox="0 0 75 75" fill="none" xmlns="http://www.w3.org/2000/svg">
<path d="M11.1741 75C10.0708 75 8.991 74.777 7.96987 74.331C6.93701 73.885 6.03325 73.2277 5.27034 72.4061C4.50743 71.5728 3.94405 70.6103 3.5802 69.5422C3.21635 68.4742 3.08724 67.3709 3.19288 66.2441L7.57081 18.0282C7.75861 16.0211 8.6741 14.1667 10.1647 12.8052C11.6553 11.4437 13.6389 10.6808 15.6107 10.716H24.2962C24.7657 7.26526 26.1389 4.5892 28.3689 2.76995C30.6107 0.938967 33.6858 0 37.5004 0C41.3149 0 44.3901 0.92723 46.6318 2.76995C48.8619 4.5892 50.2351 7.26526 50.7046 10.716H59.4018C61.3971 10.716 63.322 11.4554 64.8009 12.8052C66.2915 14.1667 67.2187 16.0211 67.3948 18.0282L71.8079 66.2441C71.9135 67.3709 71.7727 68.4742 71.4206 69.5422C71.0567 70.6103 70.4934 71.5728 69.7304 72.4061C68.9675 73.2394 68.0638 73.885 67.0309 74.331C66.0098 74.777 64.93 75 63.8149 75H11.1741ZM15.5872 15.4108C14.7422 15.4108 13.9441 15.716 13.3337 16.2793C12.7117 16.8427 12.3361 17.6174 12.2539 18.4507L7.86424 66.6667C7.81729 67.1244 7.87598 67.5939 8.02856 68.0399C8.18114 68.4859 8.41588 68.885 8.73278 69.2253C9.04969 69.5657 9.42527 69.8357 9.85954 70.0235C10.2938 70.2113 10.775 70.27 11.2093 70.3052H63.7915C64.214 70.3052 64.7187 70.2113 65.153 70.0235C65.5873 69.8357 65.9628 69.5657 66.2797 69.2253C66.5966 68.885 66.8314 68.4859 66.984 68.0399C67.1365 67.5939 67.1952 67.1361 67.1483 66.6667L62.7351 18.4507C62.653 17.6056 62.2774 16.8427 61.6553 16.2793C61.0333 15.716 60.2586 15.3638 59.3901 15.4108H15.5872ZM29.7187 10.716H45.2586C44.8948 8.84976 44.1084 7.52347 42.8408 6.65493C41.5732 5.78638 39.8243 5.36385 37.4887 5.36385C35.153 5.36385 33.4042 5.78638 32.1365 6.65493C30.8807 7.52347 30.0826 8.84976 29.7187 10.716Z" fill="url(#paint0_linear_723_5884)"/>
<path d="M40.3302 57.8222C33.2137 57.8222 27.4438 52.0725 27.4438 44.9808C27.4438 37.8892 33.2137 32.1395 40.3302 32.1395C43.919 32.1395 47.1639 33.6028 49.499 35.9619C46.8057 32.2966 42.4613 29.916 37.551 29.916C29.3778 29.916 22.752 36.5187 22.752 44.6632C22.752 52.8077 29.3778 59.4104 37.551 59.4104C41.24 59.4104 44.6102 58.0613 47.1997 55.8378C45.2083 57.0905 42.8552 57.8186 40.3267 57.8186L40.3302 57.8222Z" fill="url(#paint1_linear_723_5884)"/>
<path d="M44.7609 34.2097C47.8589 36.0156 49.9398 39.3669 49.9398 43.2036C49.9398 48.9569 45.2587 53.618 39.4888 53.618C34.1201 53.618 29.6968 49.5815 29.1059 44.3885C29.0951 44.592 29.088 44.799 29.088 45.006C29.088 51.3767 34.2705 56.5446 40.6672 56.5446C47.0638 56.5446 52.2463 51.3802 52.2463 45.006C52.2463 40.07 49.134 35.8622 44.7609 34.2133V34.2097Z" fill="url(#paint2_linear_723_5884)"/>
<path d="M39.1771 35.0055C35.2911 35.0055 32.0104 37.5823 30.9574 41.1121C32.1358 38.4924 34.7718 36.6687 37.8412 36.6687C42.0066 36.6687 45.384 40.0343 45.384 44.185C45.384 48.3358 42.0066 51.7014 37.8412 51.7014C37.1607 51.7014 36.5017 51.6086 35.8749 51.4408C36.8921 51.8656 38.0095 52.0975 39.1807 52.0975C43.9155 52.0975 47.7585 48.2716 47.7585 43.5497C47.7585 38.8279 43.9191 35.0019 39.1807 35.0019L39.1771 35.0055Z" fill="url(#paint3_linear_723_5884)"/>
<defs>
<linearGradient id="paint0_linear_723_5884" x1="57.6397" y1="17.6458" x2="11.2844" y2="67.5621" gradientUnits="userSpaceOnUse">
<stop offset="0.278846" stop-color="#33CFFF"/>
<stop offset="1" stop-color="#0D87C5"/>
</linearGradient>
<linearGradient id="paint1_linear_723_5884" x1="46.1475" y1="36.8554" x2="28.1052" y2="58.07" gradientUnits="userSpaceOnUse">
<stop offset="0.278846" stop-color="#33CFFF"/>
<stop offset="1" stop-color="#0D87C5"/>
</linearGradient>
<linearGradient id="paint2_linear_723_5884" x1="46.1475" y1="36.8554" x2="28.1052" y2="58.07" gradientUnits="userSpaceOnUse">
<stop offset="0.278846" stop-color="#33CFFF"/>
<stop offset="1" stop-color="#0D87C5"/>
</linearGradient>
<linearGradient id="paint3_linear_723_5884" x1="46.1475" y1="36.8554" x2="28.1052" y2="58.07" gradientUnits="userSpaceOnUse">
<stop offset="0.278846" stop-color="#33CFFF"/>
<stop offset="1" stop-color="#0D87C5"/>
</linearGradient>
</defs>
</svg>
