<svg width="250" height="250" viewBox="0 0 250 250" fill="none" xmlns="http://www.w3.org/2000/svg">
<path d="M37.2483 250C33.5707 250 29.9713 249.257 26.5675 247.77C23.1247 246.283 20.1121 244.092 17.5691 241.354C15.0261 238.576 13.1481 235.368 11.9353 231.807C10.7225 228.247 10.2921 224.57 10.6442 220.814L25.2373 60.0939C25.8633 53.4038 28.915 47.2222 33.8837 42.6839C38.8524 38.1455 45.4643 35.6025 52.037 35.7199H80.9885C82.5535 24.2175 87.1309 15.2973 94.5644 9.23318C102.037 3.12989 112.287 0 125.003 0C137.718 0 147.968 3.09077 155.441 9.23318C162.874 15.2973 167.452 24.2175 169.017 35.7199H198.007C204.658 35.7199 211.075 38.1847 216.004 42.6839C220.973 47.2222 224.064 53.4038 224.65 60.0939L239.361 220.814C239.713 224.57 239.244 228.247 238.07 231.807C236.857 235.368 234.979 238.576 232.436 241.354C229.893 244.131 226.881 246.283 223.438 247.77C220.034 249.257 216.435 250 212.718 250H37.2483ZM51.9588 51.3693C49.1419 51.3693 46.4815 52.3865 44.447 54.2645C42.3735 56.1424 41.1215 58.7246 40.8477 61.5023L26.2154 222.222C26.0589 223.748 26.2546 225.313 26.7632 226.8C27.2718 228.286 28.0542 229.617 29.1106 230.751C30.1669 231.886 31.4189 232.786 32.8665 233.412C34.314 234.038 35.9181 234.233 37.3657 234.351H212.64C214.048 234.351 215.73 234.038 217.178 233.412C218.625 232.786 219.877 231.886 220.934 230.751C221.99 229.617 222.773 228.286 223.281 226.8C223.79 225.313 223.985 223.787 223.829 222.222L209.118 61.5023C208.845 58.6854 207.593 56.1424 205.519 54.2645C203.445 52.3865 200.863 51.2128 197.968 51.3693H51.9588ZM99.0636 35.7199H150.863C149.65 29.4992 147.029 25.0782 142.804 22.1831C138.579 19.2879 132.749 17.8795 124.963 17.8795C117.178 17.8795 111.348 19.2879 107.123 22.1831C102.937 25.0782 100.276 29.4992 99.0636 35.7199Z" fill="url(#paint0_linear_723_5880)"/>
<path d="M134.437 192.739C110.715 192.739 91.4822 173.574 91.4822 149.935C91.4822 126.296 110.715 107.13 134.437 107.13C146.4 107.13 157.216 112.008 165 119.872C156.022 107.654 141.541 99.7188 125.173 99.7188C97.929 99.7188 75.8428 121.728 75.8428 148.876C75.8428 176.024 97.929 198.033 125.173 198.033C137.469 198.033 148.704 193.536 157.335 186.125C150.697 190.3 142.854 192.727 134.425 192.727L134.437 192.739Z" fill="url(#paint1_linear_723_5880)"/>
<path d="M149.206 114.031C159.533 120.051 166.469 131.222 166.469 144.011C166.469 163.188 150.865 178.725 131.632 178.725C113.736 178.725 98.9924 165.27 97.0225 147.96C96.9867 148.639 96.9628 149.329 96.9628 150.019C96.9628 171.254 114.238 188.481 135.56 188.481C156.882 188.481 174.157 171.266 174.157 150.019C174.157 133.565 163.783 119.539 149.206 114.043V114.031Z" fill="url(#paint2_linear_723_5880)"/>
<path d="M130.593 116.684C117.64 116.684 106.704 125.273 103.194 137.039C107.122 128.307 115.909 122.228 126.14 122.228C140.025 122.228 151.283 133.446 151.283 147.282C151.283 161.118 140.025 172.337 126.14 172.337C123.872 172.337 121.675 172.027 119.586 171.468C122.977 172.884 126.701 173.657 130.605 173.657C146.388 173.657 159.198 160.904 159.198 145.164C159.198 129.425 146.4 116.672 130.605 116.672L130.593 116.684Z" fill="url(#paint3_linear_723_5880)"/>
<defs>
<linearGradient id="paint0_linear_723_5880" x1="192.134" y1="58.8195" x2="37.6159" y2="225.207" gradientUnits="userSpaceOnUse">
<stop offset="0.278846" stop-color="#33CFFF"/>
<stop offset="1" stop-color="#0D87C5"/>
</linearGradient>
<linearGradient id="paint1_linear_723_5880" x1="153.828" y1="122.85" x2="93.6868" y2="193.565" gradientUnits="userSpaceOnUse">
<stop offset="0.278846" stop-color="#33CFFF"/>
<stop offset="1" stop-color="#0D87C5"/>
</linearGradient>
<linearGradient id="paint2_linear_723_5880" x1="153.828" y1="122.85" x2="93.6868" y2="193.565" gradientUnits="userSpaceOnUse">
<stop offset="0.278846" stop-color="#33CFFF"/>
<stop offset="1" stop-color="#0D87C5"/>
</linearGradient>
<linearGradient id="paint3_linear_723_5880" x1="153.828" y1="122.85" x2="93.6868" y2="193.565" gradientUnits="userSpaceOnUse">
<stop offset="0.278846" stop-color="#33CFFF"/>
<stop offset="1" stop-color="#0D87C5"/>
</linearGradient>
</defs>
</svg>
