<svg width="709" height="100" viewBox="0 0 709 100" fill="none" xmlns="http://www.w3.org/2000/svg">
<path d="M14.8991 100C13.4281 100 11.9883 99.7027 10.6268 99.108C9.24967 98.5133 8.04466 97.6369 7.02745 96.5415C6.01023 95.4304 5.25906 94.1471 4.77393 92.723C4.2888 91.2989 4.11665 89.8278 4.2575 88.3255L10.0947 24.0376C10.3451 21.3615 11.5658 18.8889 13.5533 17.0736C15.5408 15.2582 18.1855 14.241 20.8146 14.2879H32.3952C33.0212 9.68701 34.8522 6.11894 37.8256 3.69327C40.8146 1.25196 44.9148 0 50.0008 0C55.0869 0 59.1871 1.23631 62.1761 3.69327C65.1495 6.11894 66.9805 9.68701 67.6065 14.2879H79.2027C81.8631 14.2879 84.4296 15.2739 86.4015 17.0736C88.3889 18.8889 89.6253 21.3615 89.86 24.0376L95.7442 88.3255C95.885 89.8278 95.6972 91.2989 95.2278 92.723C94.7426 94.1471 93.9915 95.4304 92.9742 96.5415C91.957 97.6526 90.752 98.5133 89.3749 99.108C88.0134 99.7027 86.5736 100 85.0869 100H14.8991ZM20.7833 20.5477C19.6566 20.5477 18.5924 20.9546 17.7786 21.7058C16.9492 22.457 16.4484 23.4898 16.3389 24.6009L10.486 88.8889C10.4234 89.4992 10.5016 90.1252 10.7051 90.7199C10.9085 91.3145 11.2215 91.8466 11.644 92.3005C12.0666 92.7543 12.5674 93.1142 13.1464 93.3646C13.7254 93.615 14.367 93.6933 14.9461 93.7402H85.0556C85.619 93.7402 86.2919 93.615 86.871 93.3646C87.45 93.1142 87.9508 92.7543 88.3733 92.3005C88.7958 91.8466 89.1088 91.3145 89.3123 90.7199C89.5157 90.1252 89.594 89.5149 89.5314 88.8889L83.6472 24.6009C83.5376 23.4742 83.0368 22.457 82.2074 21.7058C81.378 20.9546 80.3451 20.4851 79.1871 20.5477H20.7833ZM39.6253 14.2879H60.3451C59.86 11.7997 58.8115 10.0313 57.1213 8.87324C55.4312 7.71518 53.0994 7.1518 49.9852 7.1518C46.871 7.1518 44.5392 7.71518 42.849 8.87324C41.1746 10.0313 40.1104 11.7997 39.6253 14.2879Z" fill="#1D3366"/>
<path d="M53.7746 77.0949C44.2859 77.0949 36.5927 69.4287 36.5927 59.9732C36.5927 50.5176 44.2859 42.8514 53.7746 42.8514C58.5596 42.8514 62.8861 44.8025 65.9997 47.9479C62.4086 43.0608 56.616 39.8867 50.0689 39.8867C39.1714 39.8867 30.3369 48.6903 30.3369 59.5496C30.3369 70.409 39.1714 79.2126 50.0689 79.2126C54.9876 79.2126 59.4813 77.4138 62.9339 74.4491C60.2788 76.1194 57.1413 77.0902 53.7699 77.0902L53.7746 77.0949Z" fill="#1D3366"/>
<path d="M59.6821 45.6116C63.8129 48.0195 66.5874 52.4879 66.5874 57.6035C66.5874 65.2745 60.3459 71.4894 52.6527 71.4894C45.4944 71.4894 39.5968 66.1073 38.8088 59.1834C38.7945 59.4547 38.7849 59.7307 38.7849 60.0067C38.7849 68.5009 45.695 75.3915 54.2239 75.3915C62.7527 75.3915 69.6628 68.5057 69.6628 60.0067C69.6628 53.4254 65.5129 47.8149 59.6821 45.6164V45.6116Z" fill="#1D3366"/>
<path d="M52.2372 46.6727C47.0558 46.6727 42.6815 50.1085 41.2776 54.8148C42.8487 51.322 46.3634 48.8903 50.4559 48.8903C56.0097 48.8903 60.5129 53.3777 60.5129 58.9121C60.5129 64.4464 56.0097 68.9339 50.4559 68.9339C49.5486 68.9339 48.6699 68.8101 47.8342 68.5865C49.1904 69.1528 50.6804 69.4621 52.2419 69.4621C58.555 69.4621 63.679 64.3608 63.679 58.065C63.679 51.7693 58.5598 46.6679 52.2419 46.6679L52.2372 46.6727Z" fill="#1D3366"/>
<g clip-path="url(#clip0_723_5619)">
<path d="M113.735 34.6857C116.219 30.182 119.693 26.6678 124.136 24.1634C128.579 21.6389 133.608 20.3867 139.243 20.3867C146.15 20.3867 152.047 22.2044 156.975 25.8599C161.883 29.5155 165.175 34.4838 166.831 40.785H151.26C150.109 38.3615 148.452 36.5034 146.332 35.231C144.211 33.9587 141.788 33.3326 139.081 33.3326C134.719 33.3326 131.185 34.8473 128.478 37.897C125.772 40.9264 124.419 45.0061 124.419 50.0754C124.419 55.1447 125.772 59.2243 128.478 62.2538C131.185 65.2832 134.719 66.8181 139.081 66.8181C141.788 66.8181 144.211 66.1921 146.332 64.9197C148.452 63.6473 150.109 61.8094 151.26 59.3657H166.831C165.175 65.667 161.883 70.6151 156.975 74.2302C152.047 77.8454 146.15 79.663 139.243 79.663C133.608 79.663 128.559 78.4109 124.116 75.8863C119.673 73.382 116.199 69.888 113.715 65.4044C111.231 60.9208 109.979 55.8111 109.979 50.0754C109.979 44.3396 111.231 39.2097 113.715 34.7059L113.735 34.6857Z" fill="#1D3366"/>
<path d="M218.877 54.3969C220.917 57.0224 221.947 60.0115 221.947 63.3843C221.947 68.2516 220.251 72.1091 216.858 74.9366C213.465 77.7843 208.719 79.198 202.64 79.198H175.536V21.0527H201.711C207.628 21.0527 212.253 22.4059 215.585 25.1122C218.918 27.8185 220.594 31.4943 220.594 36.1394C220.594 39.5728 219.685 42.4003 217.908 44.6825C216.11 46.9445 213.727 48.5198 210.738 49.4084C214.111 50.1355 216.817 51.7916 218.857 54.4171L218.877 54.3969ZM189.714 44.5815H198.984C201.307 44.5815 203.084 44.0766 204.336 43.0466C205.588 42.0166 206.194 40.522 206.194 38.5226C206.194 36.5231 205.568 35.0084 204.336 33.9582C203.104 32.908 201.307 32.3829 198.984 32.3829H189.714V44.5613V44.5815ZM205.669 66.1714C206.962 65.101 207.608 63.5257 207.608 61.4858C207.608 59.446 206.921 57.8505 205.568 56.6791C204.215 55.5279 202.357 54.9422 199.974 54.9422H189.694V67.7871H200.135C202.498 67.7871 204.336 67.2418 205.649 66.1714H205.669Z" fill="#1D3366"/>
<path d="M231.479 34.6857C233.964 30.182 237.437 26.6678 241.881 24.1634C246.324 21.6591 251.373 20.3867 257.008 20.3867C263.915 20.3867 269.832 22.2044 274.74 25.8599C279.648 29.5155 282.94 34.4838 284.596 40.785H269.024C267.873 38.3615 266.217 36.5034 264.097 35.231C261.976 33.9587 259.552 33.3326 256.846 33.3326C252.484 33.3326 248.949 34.8473 246.243 37.897C243.537 40.9264 242.184 45.0061 242.184 50.0754C242.184 55.1447 243.537 59.2243 246.243 62.2538C248.949 65.2832 252.484 66.8181 256.846 66.8181C259.552 66.8181 261.976 66.1921 264.097 64.9197C266.217 63.6473 267.873 61.8094 269.024 59.3657H284.596C282.94 65.667 279.648 70.6151 274.74 74.2302C269.832 77.8454 263.915 79.663 257.008 79.663C251.373 79.663 246.324 78.4109 241.881 75.8863C237.437 73.382 233.964 69.888 231.479 65.4044C228.995 60.9208 227.743 55.8111 227.743 50.0754C227.743 44.3396 228.995 39.2097 231.479 34.7059V34.6857Z" fill="#1D3366"/>
<path d="M305.762 75.9868C301.197 73.442 297.582 69.9077 294.896 65.3433C292.21 60.7789 290.877 55.6692 290.877 49.9738C290.877 44.2785 292.21 39.1688 294.896 34.6448C297.582 30.1208 301.197 26.5865 305.762 24.0417C310.326 21.497 315.335 20.2246 320.808 20.2246C326.281 20.2246 331.29 21.497 335.854 24.0417C340.418 26.5865 343.993 30.1208 346.619 34.6448C349.244 39.1688 350.557 44.2785 350.557 49.9738C350.557 55.6692 349.224 60.7789 346.578 65.3433C343.933 69.9077 340.338 73.442 335.814 75.9868C331.29 78.5315 326.281 79.8039 320.808 79.8039C315.335 79.8039 310.326 78.5315 305.762 75.9868ZM331.936 62.233C334.723 59.143 336.117 55.0633 336.117 49.9738C336.117 44.8844 334.723 40.7441 331.936 37.6743C329.149 34.6044 325.433 33.0695 320.788 33.0695C316.143 33.0695 312.346 34.5842 309.559 37.6339C306.771 40.6633 305.378 44.7834 305.378 49.9738C305.378 55.1643 306.771 59.2238 309.559 62.2734C312.346 65.3433 316.082 66.8782 320.788 66.8782C325.493 66.8782 329.149 65.3231 331.936 62.233Z" fill="#1D3366"/>
<path d="M424.293 21.0527V79.2182H410.116V44.3391L397.109 79.2182H385.678L372.591 44.2583V79.2182H358.413V21.0527H375.156L391.474 61.3243L407.631 21.0527H424.293Z" fill="#1D3366"/>
<path d="M500.373 21.0527V79.2182H486.196V44.3391L473.189 79.2182H461.758L448.671 44.2583V79.2182H434.493V21.0527H451.236L467.554 61.3243L483.712 21.0527H500.373Z" fill="#1D3366"/>
<path d="M524.73 32.4031V44.1776H543.714V55.124H524.73V67.8881H546.199V79.2384H510.572V21.0527H546.199V32.4031H524.73Z" fill="#1D3366"/>
<path d="M585.037 79.2182L572.939 57.2648H569.546V79.2182H555.368V21.0527H579.139C583.724 21.0527 587.642 21.8606 590.873 23.4561C594.105 25.0516 596.528 27.253 598.124 30.0401C599.719 32.8272 600.527 35.9375 600.527 39.3708C600.527 43.2283 599.436 46.6819 597.255 49.7316C595.074 52.761 591.863 54.922 587.601 56.1944L601.032 79.2384H585.037V79.2182ZM569.546 47.2474H578.331C580.937 47.2474 582.876 46.6213 584.168 45.349C585.461 44.0766 586.107 42.2791 586.107 39.9565C586.107 37.6339 585.461 35.998 584.168 34.7459C582.876 33.4735 580.916 32.8474 578.331 32.8474H569.546V47.2676V47.2474Z" fill="#1D3366"/>
<path d="M610.726 34.6857C613.21 30.182 616.683 26.6678 621.127 24.1634C625.57 21.6591 630.619 20.3867 636.254 20.3867C643.161 20.3867 649.078 22.2044 653.986 25.8599C658.894 29.5155 662.186 34.4838 663.842 40.785H648.27C647.119 38.3615 645.463 36.5034 643.343 35.231C641.222 33.9587 638.798 33.3326 636.092 33.3326C631.73 33.3326 628.195 34.8473 625.489 37.897C622.783 40.9264 621.43 45.0061 621.43 50.0754C621.43 55.1447 622.783 59.2243 625.489 62.2538C628.195 65.2832 631.73 66.8181 636.092 66.8181C638.798 66.8181 641.222 66.1921 643.343 64.9197C645.463 63.6473 647.119 61.8094 648.27 59.3657H663.842C662.186 65.667 658.894 70.6151 653.986 74.2302C649.078 77.8454 643.161 79.663 636.254 79.663C630.619 79.663 625.57 78.4109 621.127 75.8863C616.683 73.382 613.21 69.888 610.726 65.4044C608.241 60.9208 606.989 55.8111 606.989 50.0754C606.989 44.3396 608.241 39.2097 610.726 34.7059V34.6857Z" fill="#1D3366"/>
<path d="M686.724 32.4031V44.1776H705.709V55.124H686.724V67.8881H708.193V79.2384H672.566V21.0527H708.193V32.4031H686.724Z" fill="#1D3366"/>
</g>
<defs>
<clipPath id="clip0_723_5619">
<rect width="598.174" height="59.5793" fill="white" transform="translate(109.999 20.2246)"/>
</clipPath>
</defs>
</svg>
