<svg width="225" height="250" viewBox="0 0 225 250" fill="none" xmlns="http://www.w3.org/2000/svg">
<g clip-path="url(#clip0_914_4573)">
<path d="M213.79 24.4599L212.61 20.4591L207.961 19.9268C199.129 18.9295 190.47 7.32514 188.149 3.32442L186.186 -0.00390625H38.9247L36.9893 3.33002C34.6624 7.31954 26.0763 18.9183 17.1714 19.9212L12.512 20.4535L11.3374 24.4543C-41.8012 204.391 109.051 249.072 110.6 249.475L112.603 249.996L114.616 249.464C116.143 249.044 266.537 203.03 213.79 24.4599ZM112.569 237.109C94.3846 230.911 -19.8354 185.284 23.7718 31.0829C35.1994 27.6705 43.4667 17.6295 47.2311 12.2392H177.913C181.677 17.6351 189.939 27.6817 201.372 31.0829C244.974 185.29 130.737 230.911 112.575 237.109H112.569Z" fill="#33CFFF"/>
<path d="M112.504 88.625C80.7716 88.625 55.0469 114.394 55.0469 146.182C55.0469 177.969 80.7716 203.738 112.504 203.738C144.236 203.738 169.96 177.969 169.96 146.182C169.96 114.394 144.236 88.625 112.504 88.625ZM117.583 145.263V163.585C117.583 166.398 115.306 168.673 112.504 168.673C109.696 168.673 107.425 166.392 107.425 163.585V145.263C103.694 143.391 101.138 139.536 101.138 135.076C101.138 128.783 106.228 123.685 112.509 123.685C118.791 123.685 123.881 128.783 123.881 135.076C123.881 139.536 121.319 143.397 117.594 145.263H117.583Z" fill="#0D87C5"/>
<path d="M88.7648 89.1066V70.7447C88.7648 57.6332 99.4149 46.9646 112.504 46.9646C125.593 46.9646 136.243 57.6332 136.243 70.7447V89.1066C141.652 91.3759 146.675 94.3904 151.177 98.0269V70.7447C151.177 49.3852 133.826 32.0039 112.504 32.0039C91.1812 32.0039 73.8301 49.3852 73.8301 70.7447V98.0269C78.3329 94.3904 83.3559 91.3703 88.7648 89.1066Z" fill="#0D87C5"/>
<path d="M122.466 192.658C97.1771 192.658 76.6768 172.122 76.6768 146.79C76.6768 121.458 97.1771 100.922 122.466 100.922C134.715 100.905 146.462 105.83 155.053 114.577C145.164 100.995 129.385 92.9654 112.599 92.9766C83.5569 92.9766 60.0137 116.561 60.0137 145.653C60.0137 174.745 83.5569 198.329 112.599 198.329C125.19 198.346 137.361 193.813 146.887 185.57C139.582 190.204 131.108 192.658 122.46 192.647" fill="#33CFFF"/>
<path d="M138.205 108.301C155.914 118.661 161.888 141.444 151.545 159.189C144.889 170.609 132.678 177.63 119.472 177.63C100.387 177.63 84.6747 163.213 82.5772 144.655C82.538 145.383 82.5156 146.117 82.5156 146.857C82.5156 169.617 100.935 188.069 123.656 188.069C146.377 188.069 164.797 169.617 164.797 146.857C164.797 129.716 154.208 114.363 138.199 108.301" fill="#33CFFF"/>
<path d="M118.366 111.148C104.885 111.148 93.0102 120.018 89.1562 132.962C95.2085 119.436 111.066 113.379 124.569 119.447C138.072 125.51 144.118 141.395 138.061 154.921C132.674 166.968 119.339 173.3 106.619 169.859C122.153 176.353 140.001 169.008 146.484 153.447C152.967 137.887 145.634 120.007 130.101 113.513C126.381 111.955 122.393 111.16 118.36 111.154" fill="#33CFFF"/>
</g>
<defs>
<clipPath id="clip0_914_4573">
<rect width="225" height="250" fill="white"/>
</clipPath>
</defs>
</svg>
