<svg width="823" height="178" viewBox="0 0 823 178" fill="none" xmlns="http://www.w3.org/2000/svg">
<path d="M178 41.7709V123.186C178 133.862 173.843 143.898 166.294 151.447L151.447 166.294C143.898 173.843 133.862 178 123.186 178H41.7709C18.6827 178 0 159.315 0 136.229V41.7709C0 18.6827 18.6848 0 41.7709 0H136.229C159.317 0 178 18.6848 178 41.7709ZM163.161 130.139H144.045C136.378 130.139 130.139 136.378 130.139 144.045V163.161C134.437 161.979 138.376 159.698 141.613 156.461L156.461 141.613C159.698 138.376 161.979 134.437 163.161 130.139ZM164.094 41.7709C164.094 26.3694 151.63 13.9062 136.229 13.9062H41.7709C26.3694 13.9062 13.9062 26.3701 13.9062 41.7709V136.229C13.9062 151.631 26.3701 164.094 41.7709 164.094H116.233V144.045C116.233 128.71 128.71 116.233 144.045 116.233H164.094V41.7709Z" fill="#303446"/>
<path d="M94.4497 88.9246C80.6949 88.9246 69.5453 77.8154 69.5453 64.1104C69.5453 50.4054 80.6949 39.2962 94.4497 39.2962C101.387 39.2962 107.657 42.1237 112.173 46.6854C106.971 39.6041 98.5688 35 89.0833 35C73.2845 35 60.4766 47.7588 60.4766 63.5003C60.4766 79.2418 73.2845 92.0006 89.0805 92.0006C96.2073 92.0006 102.722 89.3963 107.734 85.0973C103.887 87.5208 99.3342 88.9274 94.4497 88.9274" fill="#303446"/>
<path d="M103.01 43.2828C108.998 46.7769 113.023 53.2509 113.023 60.6626C113.023 71.7803 103.977 80.7908 92.8219 80.7936C82.4405 80.7936 73.8934 72.9921 72.7538 62.9534C72.7339 63.3488 72.7197 63.7443 72.7197 64.1426C72.7197 76.4578 82.741 86.44 95.0983 86.44C107.455 86.44 117.477 76.455 117.477 64.1426C117.477 54.6039 111.464 46.469 103.01 43.2828Z" fill="#303446"/>
<path d="M92.2222 44.8295C84.7126 44.8295 78.371 49.8065 76.3327 56.6308C78.6091 51.5691 83.7091 48.0439 89.6368 48.0439C97.6879 48.0439 104.214 54.5462 104.214 62.5681C104.214 70.59 97.6879 77.0922 89.6368 77.0922C88.3214 77.0922 87.0457 76.9143 85.8324 76.5894C87.797 77.4086 89.9571 77.8605 92.2222 77.8633C101.379 77.8633 108.798 70.4657 108.798 61.345C108.798 52.2215 101.376 44.8295 92.2222 44.8295Z" fill="#303446"/>
<path d="M95.9297 126.977C95.9297 130.817 92.8168 133.93 88.9766 133.93H47.9531C44.1129 133.93 41 130.817 41 126.977C41 123.137 44.1129 120.024 47.9531 120.024H88.9766C92.8168 120.024 95.9297 123.137 95.9297 126.977ZM130 99.0006H47.9531C44.1129 99.0006 41 102.114 41 105.954C41 109.794 44.1129 112.907 47.9531 112.907H130C133.84 112.907 136.953 109.794 136.953 105.954C136.953 102.114 133.84 99.0006 130 99.0006Z" fill="#303446"/>
<path d="M263.894 43.0289C272.105 47.3852 278.469 53.5081 282.986 61.3776C287.483 69.2471 289.751 78.3411 289.751 88.6397C289.751 98.9382 287.503 107.912 282.986 115.821C278.469 123.751 272.085 129.874 263.814 134.25C255.543 138.607 245.967 140.795 235.066 140.795H196V36.4844H235.066C246.067 36.4844 255.663 38.6726 263.894 43.0289ZM255.864 110.903C261.204 105.663 263.894 98.2356 263.894 88.6196C263.894 79.0036 261.224 71.5356 255.864 66.1956C250.524 60.8556 243.036 58.1656 233.44 58.1656H221.415V118.773H233.44C243.056 118.773 250.524 116.143 255.864 110.903Z" fill="#303446"/>
<path d="M326.348 134.974C318.178 130.417 311.693 124.053 306.895 115.883C302.097 107.712 299.688 98.5178 299.688 88.3197C299.688 78.1215 302.097 68.9672 306.895 60.8367C311.693 52.7264 318.178 46.3826 326.348 41.8256C334.519 37.2685 343.513 35 353.309 35C363.106 35 372.1 37.2886 380.27 41.8256C388.441 46.3826 394.885 52.7264 399.583 60.8367C404.28 68.9471 406.649 78.1215 406.649 88.3197C406.649 98.5178 404.28 107.712 399.522 115.883C394.764 124.053 388.32 130.417 380.21 134.974C372.1 139.531 363.126 141.8 353.329 141.8C343.533 141.8 334.539 139.531 326.368 134.974H326.348ZM373.304 110.322C378.303 104.781 380.812 97.4539 380.812 88.3397C380.812 79.2256 378.303 71.7777 373.304 66.2771C368.305 60.7765 361.64 58.0262 353.329 58.0262C345.018 58.0262 338.193 60.7564 333.194 66.1968C328.195 71.6372 325.686 79.0249 325.686 88.3397C325.686 97.6546 328.195 104.902 333.194 110.402C338.193 115.903 344.898 118.653 353.329 118.653C361.761 118.653 368.305 115.883 373.304 110.342V110.322Z" fill="#303446"/>
<path d="M423.13 60.9172C427.587 52.847 433.81 46.5635 441.78 42.0466C449.75 37.5497 458.784 35.2812 468.882 35.2812C481.268 35.2812 491.868 38.5535 500.681 45.0779C509.494 51.6024 515.396 60.5358 518.367 71.8181H490.442C488.355 67.4618 485.424 64.1493 481.609 61.8608C477.795 59.5923 473.459 58.448 468.621 58.448C460.791 58.448 454.448 61.1782 449.61 66.6186C444.751 72.059 442.322 79.3463 442.322 88.4604C442.322 97.5745 444.751 104.862 449.61 110.302C454.468 115.743 460.791 118.473 468.621 118.473C473.479 118.473 477.815 117.328 481.609 115.06C485.424 112.791 488.375 109.459 490.442 105.103H518.367C515.396 116.385 509.494 125.278 500.681 131.763C491.868 138.247 481.268 141.499 468.882 141.499C458.784 141.499 449.75 139.251 441.78 134.734C433.81 130.237 427.587 123.953 423.13 115.943C418.674 107.913 416.445 98.7589 416.445 88.4604C416.445 78.1618 418.674 68.9674 423.13 60.8972V60.9172Z" fill="#303446"/>
<path d="M612.915 95.6791C616.636 100.454 618.497 105.915 618.497 112.047C618.497 120.892 615.396 127.912 609.211 133.088C603.025 138.265 594.393 140.845 583.33 140.845H534V35H581.671C592.432 35 600.846 37.4627 606.948 42.388C613.032 47.3134 616.066 53.9978 616.066 62.4413C616.066 68.6734 614.423 73.85 611.172 77.9712C607.903 82.0925 603.545 84.9572 598.114 86.5655C604.249 87.8722 609.177 90.9213 612.898 95.6791H612.915ZM559.813 77.8205H576.709C580.933 77.8205 584.185 76.8991 586.448 75.0227C588.711 73.1632 589.834 70.4324 589.834 66.8138C589.834 63.1952 588.711 60.4309 586.448 58.5211C584.185 56.6113 580.933 55.6564 576.709 55.6564H559.813V77.8205ZM588.845 117.106C591.208 115.146 592.398 112.315 592.398 108.596C592.398 104.876 591.158 101.961 588.694 99.8506C586.23 97.7397 582.827 96.6843 578.503 96.6843H559.797V120.055H578.804C583.129 120.055 586.465 119.083 588.828 117.123L588.845 117.106Z" fill="#303446"/>
<path d="M792.139 140.845L770.419 108.428L751.281 140.845H721.815L755.99 87.0178L721.056 35H751.281L772.697 66.9646L791.531 35H820.997L787.127 88.3748L822.364 140.845H792.139Z" fill="#303446"/>
<path d="M686.809 135.193C661.268 135.193 640.564 114.552 640.564 89.0875C640.564 63.6234 661.268 42.9824 686.809 42.9824C699.69 42.9824 711.334 48.2359 719.72 56.7116C710.06 43.5545 694.457 35 676.844 35C647.508 35 623.725 58.7059 623.725 87.9539C623.725 117.202 647.508 140.908 676.839 140.908C690.072 140.908 702.169 136.069 711.476 128.081C704.333 132.584 695.879 135.198 686.809 135.198" fill="#303446"/>
<path d="M702.707 50.3945C713.825 56.8865 721.3 68.9153 721.3 82.6864C721.3 103.343 704.502 120.085 683.788 120.09C664.511 120.09 648.64 105.595 646.524 86.9427C646.487 87.6774 646.461 88.4122 646.461 89.1522C646.461 112.034 665.069 130.581 688.015 130.581C710.961 130.581 729.57 112.029 729.57 89.1522C729.57 71.4291 718.404 56.3145 702.707 50.3945Z" fill="#303446"/>
<path d="M682.672 53.2578C668.727 53.2578 656.952 62.5051 653.167 75.1846C657.394 65.7799 666.864 59.2302 677.871 59.2302C692.821 59.2302 704.939 71.3115 704.939 86.2162C704.939 101.121 692.821 113.202 677.871 113.202C675.429 113.202 673.06 112.872 670.807 112.268C674.455 113.79 678.466 114.63 682.672 114.635C699.675 114.635 713.451 100.89 713.451 83.9438C713.451 66.9922 699.669 53.2578 682.672 53.2578Z" fill="#303446"/>
</svg>
