<svg width="491" height="600" viewBox="0 0 491 600" fill="none" xmlns="http://www.w3.org/2000/svg">
<path d="M490.196 115.033V339.243C490.196 368.644 478.747 396.282 457.958 417.071L417.071 457.959C396.282 478.747 368.644 490.196 339.243 490.196H115.033C51.4505 490.196 0 438.74 0 375.163V115.033C0 51.4505 51.4562 0 115.033 0H375.163C438.746 0 490.196 51.4562 490.196 115.033ZM449.331 358.392H396.688C375.572 358.392 358.392 375.572 358.392 396.688V449.331C370.227 446.076 381.075 439.794 389.99 430.88L430.879 389.99C439.794 381.075 446.076 370.227 449.331 358.392ZM451.9 115.033C451.9 72.6189 417.575 38.2966 375.163 38.2966H115.033C72.6189 38.2966 38.2966 72.6208 38.2966 115.033V375.163C38.2966 417.577 72.6208 451.9 115.033 451.9H320.095V396.688C320.095 354.455 354.455 320.095 396.688 320.095H451.9V115.033Z" fill="#303446"/>
<path d="M260.106 244.89C222.227 244.89 191.522 214.297 191.522 176.554C191.522 138.812 222.227 108.218 260.106 108.218C279.21 108.218 296.479 116.005 308.915 128.567C294.59 109.066 271.45 96.3869 245.327 96.3869C201.819 96.3869 166.547 131.523 166.547 174.874C166.547 218.225 201.819 253.361 245.32 253.361C264.946 253.361 282.887 246.189 296.69 234.35C286.096 241.024 273.557 244.898 260.106 244.898" fill="#303446"/>
<path d="M283.681 119.197C300.17 128.819 311.256 146.648 311.256 167.059C311.256 197.677 286.344 222.491 255.623 222.498C227.034 222.498 203.496 201.014 200.357 173.368C200.303 174.457 200.264 175.546 200.264 176.643C200.264 210.558 227.861 238.048 261.892 238.048C295.923 238.048 323.521 210.55 323.521 176.643C323.521 150.374 306.962 127.971 283.681 119.197Z" fill="#303446"/>
<path d="M253.972 123.457C233.291 123.457 215.827 137.163 210.214 155.956C216.483 142.017 230.527 132.309 246.852 132.309C269.024 132.309 286.995 150.215 286.995 172.307C286.995 194.398 269.024 212.305 246.852 212.305C243.229 212.305 239.716 211.815 236.375 210.92C241.785 213.176 247.734 214.421 253.972 214.429C279.188 214.429 299.619 194.056 299.619 168.939C299.619 143.813 279.181 123.457 253.972 123.457Z" fill="#303446"/>
<path d="M264.182 349.684C264.182 360.259 255.609 368.832 245.033 368.832H132.059C121.483 368.832 112.91 360.259 112.91 349.684C112.91 339.108 121.483 330.535 132.059 330.535H245.033C255.609 330.535 264.182 339.108 264.182 349.684ZM358.008 272.639H132.059C121.483 272.639 112.91 281.211 112.91 291.787C112.91 302.363 121.483 310.935 132.059 310.935H358.008C368.584 310.935 377.157 302.363 377.157 291.787C377.157 281.211 368.584 272.639 358.008 272.639Z" fill="#303446"/>
<path d="M83.1103 534.716C88.5371 537.595 92.7432 541.642 95.7286 546.844C98.7007 552.045 100.2 558.055 100.2 564.862C100.2 571.669 98.714 577.6 95.7286 582.828C92.7432 588.069 88.5238 592.116 83.0572 595.008C77.5906 597.887 71.2615 599.334 64.0568 599.334H38.2363V530.391H64.0568C71.3279 530.391 77.6702 531.837 83.1103 534.716ZM77.8029 579.577C81.3323 576.114 83.1103 571.204 83.1103 564.849C83.1103 558.493 81.3456 553.557 77.8029 550.028C74.2735 546.499 69.3243 544.721 62.982 544.721H55.0342V584.778H62.982C69.3376 584.778 74.2735 583.04 77.8029 579.577Z" fill="#303446"/>
<path d="M124.389 595.487C118.988 592.475 114.703 588.269 111.531 582.869C108.36 577.469 106.768 571.392 106.768 564.651C106.768 557.911 108.36 551.86 111.531 546.487C114.703 541.126 118.988 536.933 124.389 533.921C129.789 530.909 135.733 529.41 142.208 529.41C148.683 529.41 154.627 530.923 160.028 533.921C165.428 536.933 169.687 541.126 172.792 546.487C175.897 551.847 177.462 557.911 177.462 564.651C177.462 571.392 175.897 577.469 172.752 582.869C169.608 588.269 165.348 592.475 159.988 595.487C154.627 598.499 148.696 599.998 142.221 599.998C135.746 599.998 129.802 598.499 124.402 595.487H124.389ZM155.424 579.193C158.727 575.531 160.386 570.688 160.386 564.664C160.386 558.641 158.727 553.718 155.424 550.082C152.12 546.447 147.715 544.629 142.221 544.629C136.728 544.629 132.217 546.434 128.913 550.029C125.609 553.625 123.951 558.508 123.951 564.664C123.951 570.821 125.609 575.611 128.913 579.247C132.217 582.882 136.649 584.7 142.221 584.7C147.794 584.7 152.12 582.869 155.424 579.207V579.193Z" fill="#303446"/>
<path d="M188.356 546.541C191.302 541.208 195.415 537.055 200.682 534.069C205.95 531.097 211.921 529.598 218.595 529.598C226.781 529.598 233.787 531.76 239.612 536.073C245.437 540.385 249.338 546.289 251.302 553.746H232.845C231.465 550.867 229.528 548.678 227.007 547.165C224.486 545.666 221.62 544.909 218.422 544.909C213.248 544.909 209.055 546.714 205.857 550.31C202.646 553.905 201.041 558.722 201.041 564.746C201.041 570.77 202.646 575.586 205.857 579.182C209.068 582.778 213.248 584.582 218.422 584.582C221.633 584.582 224.499 583.826 227.007 582.327C229.528 580.827 231.478 578.625 232.845 575.745H251.302C249.338 583.202 245.437 589.08 239.612 593.366C233.787 597.652 226.781 599.801 218.595 599.801C211.921 599.801 205.95 598.315 200.682 595.33C195.415 592.357 191.302 588.204 188.356 582.91C185.41 577.603 183.938 571.553 183.938 564.746C183.938 557.939 185.41 551.862 188.356 546.528V546.541Z" fill="#303446"/>
<path d="M313.792 569.515C316.251 572.671 317.481 576.281 317.481 580.333C317.481 586.18 315.431 590.819 311.343 594.241C307.255 597.662 301.55 599.367 294.238 599.367H261.634V529.41H293.141C300.254 529.41 305.815 531.038 309.848 534.293C313.869 537.549 315.875 541.967 315.875 547.547C315.875 551.666 314.789 555.088 312.64 557.812C310.479 560.535 307.599 562.429 304.009 563.492C308.064 564.355 311.321 566.371 313.781 569.515H313.792ZM278.695 557.712H289.862C292.654 557.712 294.803 557.103 296.299 555.863C297.794 554.634 298.537 552.829 298.537 550.437C298.537 548.045 297.794 546.218 296.299 544.956C294.803 543.694 292.654 543.063 289.862 543.063H278.695V557.712ZM297.883 583.677C299.445 582.382 300.232 580.51 300.232 578.052C300.232 575.594 299.412 573.668 297.783 572.272C296.155 570.877 293.906 570.18 291.047 570.18H278.684V585.626H291.247C294.105 585.626 296.31 584.984 297.872 583.688L297.883 583.677Z" fill="#303446"/>
<path d="M432.246 599.367L417.891 577.942L405.242 599.367H385.767L408.354 563.791L385.265 529.41H405.242L419.397 550.537L431.845 529.41H451.32L428.933 564.688L452.224 599.367H432.246Z" fill="#303446"/>
<path d="M362.63 595.631C345.749 595.631 332.066 581.989 332.066 565.159C332.066 548.329 345.749 534.686 362.63 534.686C371.144 534.686 378.84 538.158 384.382 543.76C377.998 535.064 367.686 529.41 356.044 529.41C336.655 529.41 320.936 545.078 320.936 564.409C320.936 583.741 336.655 599.409 356.041 599.409C364.787 599.409 372.783 596.211 378.934 590.931C374.213 593.907 368.625 595.635 362.63 595.635" fill="#303446"/>
<path d="M373.138 539.586C380.486 543.877 385.427 551.827 385.427 560.929C385.427 574.582 374.325 585.647 360.634 585.65C347.893 585.65 337.403 576.07 336.005 563.742C335.98 564.228 335.963 564.713 335.963 565.202C335.963 580.326 348.262 592.584 363.428 592.584C378.594 592.584 390.893 580.322 390.893 565.202C390.893 553.489 383.513 543.499 373.138 539.586Z" fill="#303446"/>
<path d="M359.896 541.477C350.68 541.477 342.897 547.588 340.396 555.969C343.189 549.753 349.448 545.424 356.723 545.424C366.604 545.424 374.613 553.409 374.613 563.26C374.613 573.111 366.604 581.096 356.723 581.096C355.109 581.096 353.543 580.878 352.054 580.479C354.465 581.485 357.117 582.04 359.896 582.043C371.134 582.043 380.239 572.959 380.239 561.758C380.239 550.554 371.131 541.477 359.896 541.477Z" fill="#303446"/>
</svg>
