<svg width="231" height="50" viewBox="0 0 231 50" fill="none" xmlns="http://www.w3.org/2000/svg">
<path d="M49.9998 11.7334V34.6028C49.9998 37.6017 48.832 40.4208 46.7115 42.5412L42.541 46.7118C40.4206 48.8322 37.6015 50 34.6027 50H11.7333C5.24793 50 0 44.7515 0 38.2666V11.7334C0 5.24795 5.24851 0 11.7333 0H38.2664C44.7519 0 49.9998 5.24854 49.9998 11.7334ZM45.8315 36.556H40.462C38.3081 36.556 36.5558 38.3083 36.5558 40.4622V45.8317C37.763 45.4997 38.8695 44.859 39.7788 43.9497L43.9494 39.779C44.8588 38.8696 45.4995 37.7632 45.8315 36.556ZM46.0935 11.7334C46.0935 7.40713 42.5925 3.90625 38.2664 3.90625H11.7333C7.4071 3.90625 3.90623 7.40732 3.90623 11.7334V38.2666C3.90623 42.5929 7.40729 46.0937 11.7333 46.0937H32.6496V40.4622C32.6496 36.1544 36.1542 32.6497 40.462 32.6497H46.0935V11.7334Z" fill="url(#paint0_linear_840_1192)"/>
<path d="M26.5307 24.9788C22.667 24.9788 19.5351 21.8583 19.5351 18.0085C19.5351 14.1588 22.667 11.0383 26.5307 11.0383C28.4793 11.0383 30.2407 11.8325 31.5092 13.1139C30.048 11.1248 27.6877 9.83146 25.0233 9.83146C20.5855 9.83146 16.9877 13.4154 16.9877 17.8372C16.9877 22.2589 20.5854 25.8429 25.0225 25.8429C27.0244 25.8429 28.8543 25.1113 30.2622 23.9037C29.1816 24.5845 27.9027 24.9796 26.5307 24.9796" fill="url(#paint1_linear_840_1192)"/>
<path d="M28.9354 12.1581C30.6172 13.1396 31.7479 14.9581 31.7479 17.0401C31.7479 20.163 29.2069 22.694 26.0734 22.6948C23.1574 22.6948 20.7565 20.5034 20.4364 17.6835C20.4308 17.7946 20.4268 17.9057 20.4268 18.0176C20.4268 21.4769 23.2418 24.2809 26.7129 24.2809C30.184 24.2809 32.9989 21.4761 32.9989 18.0176C32.9989 15.3382 31.31 13.0531 28.9354 12.1581Z" fill="url(#paint2_linear_840_1192)"/>
<path d="M25.905 12.5926C23.7956 12.5926 22.0142 13.9906 21.4417 15.9075C22.0811 14.4857 23.5137 13.4955 25.1788 13.4955C27.4403 13.4955 29.2734 15.322 29.2734 17.5753C29.2734 19.8286 27.4403 21.6551 25.1788 21.6551C24.8093 21.6551 24.4509 21.6051 24.1101 21.5139C24.662 21.744 25.2687 21.8709 25.905 21.8717C28.4771 21.8717 30.561 19.7937 30.561 17.2318C30.561 14.669 28.4763 12.5926 25.905 12.5926Z" fill="url(#paint3_linear_840_1192)"/>
<path d="M26.9464 35.6677C26.9464 36.7465 26.072 37.6209 24.9933 37.6209H13.4699C12.3912 37.6209 11.5168 36.7465 11.5168 35.6677C11.5168 34.589 12.3912 33.7146 13.4699 33.7146H24.9933C26.072 33.7146 26.9464 34.589 26.9464 35.6677ZM36.5167 27.8092H13.4699C12.3912 27.8092 11.5168 28.6836 11.5168 29.7623C11.5168 30.841 12.3912 31.7154 13.4699 31.7154H36.5167C37.5954 31.7154 38.4698 30.841 38.4698 29.7623C38.4698 28.6836 37.5954 27.8092 36.5167 27.8092Z" fill="url(#paint4_linear_840_1192)"/>
<path d="M74.127 12.0805C76.4334 13.3042 78.221 15.0241 79.4898 17.2347C80.7529 19.4452 81.3901 21.9997 81.3901 24.8926C81.3901 27.7854 80.7585 30.3061 79.4898 32.5279C78.221 34.7553 76.4277 36.4753 74.1044 37.7046C71.7811 38.9283 69.0913 39.5429 66.0293 39.5429H55.0557V10.2422H66.0293C69.1195 10.2422 71.815 10.8568 74.127 12.0805ZM71.8714 31.1463C73.3714 29.6745 74.127 27.588 74.127 24.8869C74.127 22.1858 73.377 20.088 71.8714 18.588C70.3714 17.088 68.268 16.3324 65.5725 16.3324H62.1947V33.3568H65.5725C68.2736 33.3568 70.3714 32.6181 71.8714 31.1463Z" fill="#303446"/>
<path d="M91.6703 37.9186C89.3752 36.6385 87.5538 34.851 86.2061 32.5558C84.8583 30.2607 84.1816 27.678 84.1816 24.8134C84.1816 21.9487 84.8583 19.3773 86.2061 17.0935C87.5538 14.8153 89.3752 13.0333 91.6703 11.7532C93.9654 10.4732 96.4917 9.83594 99.2436 9.83594C101.995 9.83594 104.522 10.4788 106.817 11.7532C109.112 13.0333 110.922 14.8153 112.242 17.0935C113.561 19.3716 114.227 21.9487 114.227 24.8134C114.227 27.678 113.561 30.2607 112.225 32.5558C110.888 34.851 109.078 36.6385 106.8 37.9186C104.522 39.1987 102.001 39.8359 99.2492 39.8359C96.4974 39.8359 93.9711 39.1987 91.676 37.9186H91.6703ZM104.86 30.9938C106.264 29.4374 106.969 27.3792 106.969 24.819C106.969 22.2589 106.264 20.1668 104.86 18.6216C103.456 17.0765 101.584 16.304 99.2492 16.304C96.9147 16.304 94.9974 17.0709 93.5932 18.5991C92.1891 20.1273 91.4842 22.2025 91.4842 24.819C91.4842 27.4355 92.1891 29.4713 93.5932 31.0164C94.9974 32.5615 96.8808 33.334 99.2492 33.334C101.618 33.334 103.456 32.5558 104.86 30.9995V30.9938Z" fill="#303446"/>
<path d="M118.857 17.1152C120.109 14.8483 121.857 13.0832 124.096 11.8144C126.335 10.5513 128.872 9.91406 131.709 9.91406C135.188 9.91406 138.165 10.8332 140.641 12.6659C143.117 14.4986 144.774 17.008 145.609 20.1772H137.765C137.179 18.9535 136.355 18.0231 135.284 17.3802C134.212 16.743 132.994 16.4216 131.635 16.4216C129.436 16.4216 127.654 17.1885 126.295 18.7167C124.931 20.2449 124.248 22.2919 124.248 24.852C124.248 27.4122 124.931 29.4592 126.295 30.9874C127.66 32.5155 129.436 33.2825 131.635 33.2825C133 33.2825 134.218 32.961 135.284 32.3238C136.355 31.6866 137.184 30.7505 137.765 29.5268H145.609C144.774 32.696 143.117 35.1941 140.641 37.0155C138.165 38.837 135.188 39.7505 131.709 39.7505C128.872 39.7505 126.335 39.1189 124.096 37.8501C121.857 36.587 120.109 34.8219 118.857 32.5719C117.605 30.3163 116.979 27.7449 116.979 24.852C116.979 21.9592 117.605 19.3765 118.857 17.1095V17.1152Z" fill="#303446"/>
<path d="M172.167 26.8806C173.212 28.2218 173.735 29.7559 173.735 31.4783C173.735 33.963 172.864 35.9347 171.126 37.3889C169.389 38.843 166.964 39.5677 163.857 39.5677H150V9.83594H163.391C166.413 9.83594 168.777 10.5277 170.491 11.9112C172.2 13.2948 173.052 15.1724 173.052 17.5442C173.052 19.2948 172.591 20.7489 171.677 21.9065C170.759 23.0642 169.535 23.8689 168.01 24.3206C169.733 24.6877 171.117 25.5442 172.162 26.8806H172.167ZM157.251 21.8642H161.997C163.183 21.8642 164.097 21.6053 164.732 21.0783C165.368 20.5559 165.684 19.7889 165.684 18.7724C165.684 17.7559 165.368 16.9795 164.732 16.443C164.097 15.9065 163.183 15.6383 161.997 15.6383H157.251V21.8642ZM165.406 32.8994C166.07 32.3489 166.404 31.5536 166.404 30.5089C166.404 29.4642 166.056 28.6453 165.363 28.0524C164.671 27.4594 163.715 27.163 162.501 27.163H157.246V33.7277H162.585C163.8 33.7277 164.737 33.4547 165.401 32.9041L165.406 32.8994Z" fill="#303446"/>
<path d="M222.511 39.5677L216.41 30.4618L211.034 39.5677H202.757L212.357 24.4477L202.544 9.83594H211.034L217.05 18.8148L222.34 9.83594H230.617L221.103 24.8289L231.001 39.5677H222.511Z" fill="#303446"/>
<path d="M192.922 37.9799C185.748 37.9799 179.932 32.1819 179.932 25.0291C179.932 17.8762 185.748 12.0782 192.922 12.0782C196.541 12.0782 199.811 13.5539 202.167 15.9347C199.454 12.2389 195.071 9.83594 190.123 9.83594C181.883 9.83594 175.202 16.4949 175.202 24.7106C175.202 32.9264 181.883 39.5853 190.122 39.5853C193.839 39.5853 197.237 38.2261 199.851 35.9824C197.845 37.2472 195.47 37.9814 192.922 37.9814" fill="#303446"/>
<path d="M197.388 14.1523C200.511 15.9759 202.611 19.3548 202.611 23.2231C202.611 29.0256 197.893 33.7283 192.074 33.7297C186.659 33.7297 182.201 29.658 181.607 24.4187C181.596 24.6251 181.589 24.8315 181.589 25.0393C181.589 31.4668 186.816 36.6767 193.261 36.6767C199.707 36.6767 204.934 31.4654 204.934 25.0393C204.934 20.0609 201.798 15.8152 197.388 14.1523Z" fill="#303446"/>
<path d="M191.761 14.9609C187.844 14.9609 184.536 17.5585 183.473 21.1201C184.66 18.4784 187.32 16.6386 190.412 16.6386C194.611 16.6386 198.015 20.0322 198.015 24.2189C198.015 28.4057 194.611 31.7993 190.412 31.7993C189.726 31.7993 189.06 31.7064 188.428 31.5369C189.452 31.9644 190.579 32.2002 191.761 32.2017C196.537 32.2017 200.406 28.3408 200.406 23.5806C200.406 18.8189 196.535 14.9609 191.761 14.9609Z" fill="#303446"/>
<defs>
<linearGradient id="paint0_linear_840_1192" x1="0" y1="25" x2="49.9998" y2="25" gradientUnits="userSpaceOnUse">
<stop stop-color="#00DBFF"/>
<stop offset="1" stop-color="#00FF75"/>
</linearGradient>
<linearGradient id="paint1_linear_840_1192" x1="0" y1="25" x2="49.9998" y2="25" gradientUnits="userSpaceOnUse">
<stop stop-color="#00DBFF"/>
<stop offset="1" stop-color="#00FF75"/>
</linearGradient>
<linearGradient id="paint2_linear_840_1192" x1="0" y1="25" x2="49.9998" y2="25" gradientUnits="userSpaceOnUse">
<stop stop-color="#00DBFF"/>
<stop offset="1" stop-color="#00FF75"/>
</linearGradient>
<linearGradient id="paint3_linear_840_1192" x1="0" y1="25" x2="49.9998" y2="25" gradientUnits="userSpaceOnUse">
<stop stop-color="#00DBFF"/>
<stop offset="1" stop-color="#00FF75"/>
</linearGradient>
<linearGradient id="paint4_linear_840_1192" x1="0" y1="25" x2="49.9998" y2="25" gradientUnits="userSpaceOnUse">
<stop stop-color="#00DBFF"/>
<stop offset="1" stop-color="#00FF75"/>
</linearGradient>
</defs>
</svg>
