<svg width="250" height="250" viewBox="0 0 250 250" fill="none" xmlns="http://www.w3.org/2000/svg">
<path d="M250 58.667V173.014C250 188.008 244.161 202.104 233.559 212.706L212.706 233.559C202.104 244.161 188.008 250 173.014 250H58.667C26.2397 250 0 223.757 0 191.333V58.667C0 26.2397 26.2427 0 58.667 0H191.333C223.76 0 250 26.2427 250 58.667ZM229.159 182.78H202.311C191.542 182.78 182.78 191.542 182.78 202.311V229.159C188.816 227.499 194.348 224.295 198.895 219.749L219.748 198.895C224.295 194.348 227.499 188.816 229.159 182.78ZM230.469 58.667C230.469 37.0356 212.963 19.5313 191.333 19.5313H58.667C37.0356 19.5313 19.5313 37.0366 19.5313 58.667V191.333C19.5313 212.964 37.0366 230.469 58.667 230.469H163.249V202.311C163.249 180.772 180.772 163.249 202.311 163.249H230.469V58.667Z" fill="#303446"/>
<path d="M132.654 124.894C113.336 124.894 97.676 109.291 97.676 90.0427C97.676 70.7941 113.336 55.1913 132.654 55.1913C142.397 55.1913 151.204 59.1624 157.547 65.5694C150.241 55.6238 138.439 49.1573 125.117 49.1573C102.928 49.1573 84.939 67.0769 84.939 89.1858C84.939 111.295 102.928 129.214 125.113 129.214C135.123 129.214 144.272 125.557 151.312 119.519C145.909 122.922 139.514 124.898 132.654 124.898" fill="#303446"/>
<path d="M144.678 60.7905C153.087 65.6978 158.74 74.7905 158.74 85.2003C158.74 100.815 146.035 113.47 130.368 113.474C115.787 113.474 103.783 102.517 102.182 88.4177C102.154 88.9731 102.134 89.5285 102.134 90.0879C102.134 107.385 116.209 121.405 133.565 121.405C150.921 121.405 164.995 107.381 164.995 90.0879C164.995 76.6908 156.551 65.2654 144.678 60.7905Z" fill="#303446"/>
<path d="M129.526 62.9628C118.978 62.9628 110.072 69.953 107.209 79.5376C110.406 72.4285 117.569 67.4775 125.894 67.4775C137.202 67.4775 146.368 76.6098 146.368 87.8765C146.368 99.1432 137.202 108.276 125.894 108.276C124.047 108.276 122.255 108.026 120.551 107.569C123.31 108.72 126.344 109.355 129.526 109.359C142.386 109.359 152.806 98.9687 152.806 86.1588C152.806 73.3449 142.382 62.9628 129.526 62.9628Z" fill="#303446"/>
<path d="M134.733 178.339C134.733 183.732 130.361 188.104 124.967 188.104H67.3499C61.9563 188.104 57.5843 183.732 57.5843 178.339C57.5843 172.945 61.9563 168.573 67.3499 168.573H124.967C130.361 168.573 134.733 172.945 134.733 178.339ZM182.584 139.046H67.3499C61.9563 139.046 57.5843 143.418 57.5843 148.811C57.5843 154.205 61.9563 158.577 67.3499 158.577H182.584C187.978 158.577 192.35 154.205 192.35 148.811C192.35 143.418 187.978 139.046 182.584 139.046Z" fill="#303446"/>
</svg>
