<svg width="231" height="50" viewBox="0 0 231 50" fill="none" xmlns="http://www.w3.org/2000/svg">
<path d="M50.0001 11.7334V34.6028C50.0001 37.6017 48.8323 40.4208 46.7118 42.5412L42.5413 46.7118C40.4209 48.8322 37.6017 50 34.6029 50H11.7334C5.24796 50 0 44.7515 0 38.2666V11.7334C0 5.24795 5.24854 0 11.7334 0H38.2667C44.7521 0 50.0001 5.24854 50.0001 11.7334ZM45.8318 36.556H40.4623C38.3084 36.556 36.556 38.3083 36.556 40.4622V45.8317C37.7632 45.4997 38.8697 44.859 39.7791 43.9497L43.9497 39.779C44.8591 38.8696 45.4998 37.7632 45.8318 36.556ZM46.0938 11.7334C46.0938 7.40713 42.5927 3.90625 38.2667 3.90625H11.7334C7.40714 3.90625 3.90626 7.40732 3.90626 11.7334V38.2666C3.90626 42.5929 7.40734 46.0937 11.7334 46.0937H32.6498V40.4622C32.6498 36.1544 36.1545 32.6497 40.4623 32.6497H46.0938V11.7334Z" fill="white"/>
<path d="M26.5309 24.9788C22.6671 24.9788 19.5352 21.8583 19.5352 18.0085C19.5352 14.1588 22.6671 11.0383 26.5309 11.0383C28.4794 11.0383 30.2409 11.8325 31.5094 13.1139C30.0482 11.1248 27.6879 9.83146 25.0234 9.83146C20.5856 9.83146 16.9878 13.4154 16.9878 17.8372C16.9878 22.2589 20.5856 25.8429 25.0226 25.8429C27.0246 25.8429 28.8545 25.1113 30.2624 23.9037C29.1818 24.5845 27.9029 24.9796 26.5309 24.9796" fill="white"/>
<path d="M28.9356 12.1581C30.6174 13.1396 31.7481 14.9581 31.7481 17.0401C31.7481 20.163 29.2071 22.694 26.0736 22.6948C23.1575 22.6948 20.7566 20.5034 20.4365 17.6835C20.4309 17.7946 20.4269 17.9057 20.4269 18.0176C20.4269 21.4769 23.2419 24.2809 26.713 24.2809C30.1842 24.2809 32.9991 21.4761 32.9991 18.0176C32.9991 15.3382 31.3102 13.0531 28.9356 12.1581Z" fill="white"/>
<path d="M25.9052 12.5926C23.7957 12.5926 22.0144 13.9906 21.4418 15.9075C22.0813 14.4857 23.5138 13.4955 25.1789 13.4955C27.4405 13.4955 29.2736 15.322 29.2736 17.5753C29.2736 19.8286 27.4405 21.6551 25.1789 21.6551C24.8094 21.6551 24.4511 21.6051 24.1103 21.5139C24.6621 21.744 25.2689 21.8709 25.9052 21.8717C28.4773 21.8717 30.5612 19.7937 30.5612 17.2318C30.5612 14.669 28.4765 12.5926 25.9052 12.5926Z" fill="white"/>
<path d="M26.9466 35.6677C26.9466 36.7465 26.0722 37.6209 24.9935 37.6209H13.47C12.3913 37.6209 11.5169 36.7465 11.5169 35.6677C11.5169 34.589 12.3913 33.7146 13.47 33.7146H24.9935C26.0722 33.7146 26.9466 34.589 26.9466 35.6677ZM36.5169 27.8092H13.47C12.3913 27.8092 11.5169 28.6836 11.5169 29.7623C11.5169 30.841 12.3913 31.7154 13.47 31.7154H36.5169C37.5956 31.7154 38.47 30.841 38.47 29.7623C38.47 28.6836 37.5956 27.8092 36.5169 27.8092Z" fill="white"/>
<path d="M74.1281 12.0805C76.4345 13.3042 78.2221 15.0241 79.4909 17.2347C80.754 19.4452 81.3913 21.9997 81.3913 24.8926C81.3913 27.7854 80.7597 30.3061 79.4909 32.5279C78.2221 34.7553 76.4288 36.4753 74.1055 37.7046C71.7822 38.9283 69.0924 39.5429 66.0303 39.5429H55.0566V10.2422H66.0303C69.1206 10.2422 71.8161 10.8568 74.1281 12.0805ZM71.8724 31.1463C73.3724 29.6745 74.1281 27.588 74.1281 24.8869C74.1281 22.1858 73.3781 20.088 71.8724 18.588C70.3724 17.088 68.2691 16.3324 65.5736 16.3324H62.1957V33.3568H65.5736C68.2747 33.3568 70.3724 32.6181 71.8724 31.1463Z" fill="white"/>
<path d="M91.6713 37.9186C89.3762 36.6385 87.5548 34.851 86.2071 32.5558C84.8593 30.2607 84.1826 27.678 84.1826 24.8134C84.1826 21.9487 84.8593 19.3773 86.2071 17.0935C87.5548 14.8153 89.3762 13.0333 91.6713 11.7532C93.9665 10.4732 96.4928 9.83594 99.2447 9.83594C101.997 9.83594 104.523 10.4788 106.818 11.7532C109.113 13.0333 110.923 14.8153 112.243 17.0935C113.562 19.3716 114.228 21.9487 114.228 24.8134C114.228 27.678 113.562 30.2607 112.226 32.5558C110.889 34.851 109.079 36.6385 106.801 37.9186C104.523 39.1987 102.002 39.8359 99.2503 39.8359C96.4984 39.8359 93.9721 39.1987 91.677 37.9186H91.6713ZM104.861 30.9938C106.265 29.4374 106.97 27.3792 106.97 24.819C106.97 22.2589 106.265 20.1668 104.861 18.6216C103.457 17.0765 101.585 16.304 99.2503 16.304C96.9157 16.304 94.9984 17.0709 93.5943 18.5991C92.1901 20.1273 91.4853 22.2025 91.4853 24.819C91.4853 27.4355 92.1901 29.4713 93.5943 31.0164C94.9984 32.5615 96.8819 33.334 99.2503 33.334C101.619 33.334 103.457 32.5558 104.861 30.9995V30.9938Z" fill="white"/>
<path d="M118.857 17.1152C120.109 14.8483 121.857 13.0832 124.096 11.8144C126.335 10.5513 128.872 9.91406 131.709 9.91406C135.188 9.91406 138.166 10.8332 140.641 12.6659C143.117 14.4986 144.775 17.008 145.609 20.1772H137.765C137.179 18.9535 136.355 18.0231 135.284 17.3802C134.213 16.743 132.995 16.4216 131.636 16.4216C129.436 16.4216 127.654 17.1885 126.295 18.7167C124.931 20.2449 124.248 22.2919 124.248 24.852C124.248 27.4122 124.931 29.4592 126.295 30.9874C127.66 32.5155 129.436 33.2825 131.636 33.2825C133 33.2825 134.218 32.961 135.284 32.3238C136.355 31.6866 137.184 30.7505 137.765 29.5268H145.609C144.775 32.696 143.117 35.1941 140.641 37.0155C138.166 38.837 135.188 39.7505 131.709 39.7505C128.872 39.7505 126.335 39.1189 124.096 37.8501C121.857 36.587 120.109 34.8219 118.857 32.5719C117.605 30.3163 116.979 27.7449 116.979 24.852C116.979 21.9592 117.605 19.3765 118.857 17.1095V17.1152Z" fill="white"/>
<path d="M172.167 26.8806C173.212 28.2218 173.735 29.7559 173.735 31.4783C173.735 33.963 172.864 35.9347 171.127 37.3889C169.389 38.843 166.964 39.5677 163.857 39.5677H150V9.83594H163.391C166.413 9.83594 168.777 10.5277 170.491 11.9112C172.2 13.2948 173.052 15.1724 173.052 17.5442C173.052 19.2948 172.591 20.7489 171.677 21.9065C170.759 23.0642 169.535 23.8689 168.01 24.3206C169.733 24.6877 171.117 25.5442 172.162 26.8806H172.167ZM157.251 21.8642H161.997C163.184 21.8642 164.097 21.6053 164.733 21.0783C165.368 20.5559 165.684 19.7889 165.684 18.7724C165.684 17.7559 165.368 16.9795 164.733 16.443C164.097 15.9065 163.184 15.6383 161.997 15.6383H157.251V21.8642ZM165.406 32.8994C166.07 32.3489 166.404 31.5536 166.404 30.5089C166.404 29.4642 166.056 28.6453 165.364 28.0524C164.671 27.4594 163.716 27.163 162.501 27.163H157.246V33.7277H162.586C163.8 33.7277 164.737 33.4547 165.401 32.9041L165.406 32.8994Z" fill="white"/>
<path d="M222.511 39.5677L216.41 30.4618L211.034 39.5677H202.757L212.357 24.4477L202.544 9.83594H211.034L217.05 18.8148L222.341 9.83594H230.618L221.103 24.8289L231.002 39.5677H222.511Z" fill="white"/>
<path d="M192.924 37.9799C185.75 37.9799 179.934 32.1819 179.934 25.0291C179.934 17.8762 185.75 12.0782 192.924 12.0782C196.543 12.0782 199.813 13.5539 202.169 15.9347C199.456 12.2389 195.073 9.83594 190.125 9.83594C181.885 9.83594 175.204 16.4949 175.204 24.7106C175.204 32.9264 181.885 39.5853 190.124 39.5853C193.841 39.5853 197.239 38.2261 199.853 35.9824C197.847 37.2472 195.472 37.9814 192.924 37.9814" fill="white"/>
<path d="M197.39 14.1523C200.513 15.9759 202.613 19.3548 202.613 23.2231C202.613 29.0256 197.895 33.7283 192.076 33.7297C186.661 33.7297 182.203 29.658 181.609 24.4187C181.598 24.6251 181.591 24.8315 181.591 25.0393C181.591 31.4668 186.818 36.6767 193.263 36.6767C199.709 36.6767 204.936 31.4654 204.936 25.0393C204.936 20.0609 201.8 15.8152 197.39 14.1523Z" fill="white"/>
<path d="M191.762 14.9609C187.845 14.9609 184.537 17.5585 183.474 21.1201C184.661 18.4784 187.321 16.6386 190.413 16.6386C194.612 16.6386 198.016 20.0322 198.016 24.2189C198.016 28.4057 194.612 31.7993 190.413 31.7993C189.727 31.7993 189.062 31.7064 188.429 31.5369C189.453 31.9644 190.58 32.2002 191.762 32.2017C196.538 32.2017 200.407 28.3408 200.407 23.5806C200.407 18.8189 196.536 14.9609 191.762 14.9609Z" fill="white"/>
</svg>
