<svg width="462" height="100" viewBox="0 0 462 100" fill="none" xmlns="http://www.w3.org/2000/svg">
<path d="M100 23.4668V69.2057C100 75.2033 97.6644 80.8416 93.4234 85.0824L85.0824 93.4236C80.8416 97.6645 75.2033 100 69.2057 100H23.4668C10.4959 100 0 89.5029 0 76.5332V23.4668C0 10.4959 10.4971 0 23.4668 0H76.5332C89.5041 0 100 10.4971 100 23.4668ZM91.6635 73.1119H80.9244C76.6166 73.1119 73.1119 76.6166 73.1119 80.9244V91.6635C75.5264 90.9994 77.7393 89.718 79.558 87.8994L87.8992 79.558C89.718 77.7393 90.9994 75.5264 91.6635 73.1119ZM92.1875 23.4668C92.1875 14.8143 85.1854 7.8125 76.5332 7.8125H23.4668C14.8143 7.8125 7.8125 14.8146 7.8125 23.4668V76.5332C7.8125 85.1857 14.8146 92.1875 23.4668 92.1875H65.2994V80.9244C65.2994 72.3088 72.3088 65.2994 80.9244 65.2994H92.1875V23.4668Z" fill="#303446"/>
<path d="M53.0616 49.9576C45.3342 49.9576 39.0704 43.7165 39.0704 36.0171C39.0704 28.3176 45.3342 22.0765 53.0616 22.0765C56.9588 22.0765 60.4817 23.665 63.0187 26.2278C60.0963 22.2495 55.3757 19.6629 50.0468 19.6629C41.1711 19.6629 33.9756 26.8308 33.9756 35.6743C33.9756 44.5179 41.1711 51.6857 50.0452 51.6857C54.0491 51.6857 57.7089 50.2226 60.5247 47.8074C58.3635 49.169 55.8057 49.9592 53.0616 49.9592" fill="#303446"/>
<path d="M57.871 24.3162C61.2346 26.2791 63.4962 29.9162 63.4962 34.0801C63.4962 40.326 58.4141 45.3881 52.1471 45.3897C46.3149 45.3897 41.5131 41.0068 40.8729 35.3671C40.8618 35.5892 40.8538 35.8114 40.8538 36.0351C40.8538 42.9538 46.4837 48.5618 53.426 48.5618C60.3682 48.5618 65.9982 42.9523 65.9982 36.0351C65.9982 30.6763 62.6202 26.1062 57.871 24.3162Z" fill="#303446"/>
<path d="M51.8102 25.1851C47.5914 25.1851 44.0287 27.9812 42.8836 31.815C44.1624 28.9714 47.0276 26.991 50.3578 26.991C54.8808 26.991 58.547 30.6439 58.547 35.1506C58.547 39.6573 54.8808 43.3102 50.3578 43.3102C49.6188 43.3102 48.9021 43.2103 48.2205 43.0278C49.3241 43.488 50.5377 43.7419 51.8102 43.7435C56.9544 43.7435 61.1223 39.5875 61.1223 34.4635C61.1223 29.3379 56.9528 25.1851 51.8102 25.1851Z" fill="#303446"/>
<path d="M53.8931 71.3355C53.8931 73.4929 52.1443 75.2417 49.9868 75.2417H26.94C24.7825 75.2417 23.0337 73.4929 23.0337 71.3355C23.0337 69.1781 24.7825 67.4292 26.94 67.4292H49.9868C52.1443 67.4292 53.8931 69.1781 53.8931 71.3355ZM73.0337 55.6183H26.94C24.7825 55.6183 23.0337 57.3671 23.0337 59.5246C23.0337 61.682 24.7825 63.4308 26.94 63.4308H73.0337C75.1911 63.4308 76.94 61.682 76.94 59.5246C76.94 57.3671 75.1911 55.6183 73.0337 55.6183Z" fill="#303446"/>
<path d="M148.255 24.1728C152.868 26.6201 156.443 30.06 158.981 34.481C161.507 38.9021 162.781 44.0111 162.781 49.7968C162.781 55.5825 161.518 60.6239 158.981 65.0675C156.443 69.5224 152.857 72.9622 148.21 75.4209C143.563 77.8682 138.184 79.0976 132.06 79.0976H110.112V20.4961H132.06C138.24 20.4961 143.631 21.7254 148.255 24.1728ZM143.744 62.3043C146.744 59.3607 148.255 55.1878 148.255 49.7855C148.255 44.3833 146.755 40.1878 143.744 37.1878C140.744 34.1878 136.537 32.6765 131.146 32.6765H124.39V66.7254H131.146C136.548 66.7254 140.744 65.2479 143.744 62.3043Z" fill="#303446"/>
<path d="M183.342 75.8294C178.751 73.2693 175.109 69.6941 172.413 65.1039C169.718 60.5137 168.364 55.3482 168.364 49.6189C168.364 43.8896 169.718 38.7468 172.413 34.1791C175.109 29.6227 178.751 26.0588 183.342 23.4986C187.932 20.9385 192.985 19.6641 198.488 19.6641C203.992 19.6641 209.045 20.9498 213.635 23.4986C218.225 26.0588 221.845 29.6227 224.485 34.1791C227.124 38.7355 228.454 43.8896 228.454 49.6189C228.454 55.3482 227.124 60.5137 224.451 65.1039C221.778 69.6941 218.157 73.2693 213.601 75.8294C209.045 78.3896 204.003 79.664 198.5 79.664C192.996 79.664 187.943 78.3896 183.353 75.8294H183.342ZM209.721 61.9798C212.53 58.867 213.939 54.7505 213.939 49.6302C213.939 44.5099 212.53 40.3257 209.721 37.2355C206.913 34.1453 203.169 32.6001 198.5 32.6001C193.83 32.6001 189.996 34.134 187.188 37.1904C184.379 40.2468 182.97 44.3971 182.97 49.6302C182.97 54.8633 184.379 58.9347 187.188 62.0249C189.996 65.1152 193.763 66.6603 198.5 66.6603C203.236 66.6603 206.913 65.1039 209.721 61.9911V61.9798Z" fill="#303446"/>
<path d="M237.714 34.2226C240.217 29.6887 243.714 26.1587 248.191 23.6211C252.669 21.0947 257.744 19.8203 263.417 19.8203C270.375 19.8203 276.33 21.6587 281.281 25.3241C286.232 28.9895 289.548 34.0083 291.217 40.3466H275.529C274.356 37.8992 272.71 36.0383 270.567 34.7526C268.424 33.4782 265.988 32.8353 263.27 32.8353C258.872 32.8353 255.308 34.3692 252.59 37.4256C249.86 40.482 248.496 44.5759 248.496 49.6962C248.496 54.8165 249.86 58.9105 252.59 61.9669C255.319 65.0233 258.872 66.5571 263.27 66.5571C265.999 66.5571 268.435 65.9143 270.567 64.6398C272.71 63.3654 274.368 61.4932 275.529 59.0458H291.217C289.548 65.3842 286.232 70.3804 281.281 74.0233C276.33 77.6661 270.375 79.4932 263.417 79.4932C257.744 79.4932 252.669 78.23 248.191 75.6925C243.714 73.1661 240.217 69.6361 237.714 65.1361C235.21 60.6248 233.958 55.4819 233.958 49.6962C233.958 43.9105 235.21 38.7451 237.714 34.2113V34.2226Z" fill="#303446"/>
<path d="M344.334 53.7534C346.425 56.4358 347.47 59.504 347.47 62.9487C347.47 67.9181 345.728 71.8617 342.253 74.7699C338.778 77.6781 333.929 79.1275 327.714 79.1275H300V19.6641H326.781C332.827 19.6641 337.554 21.0476 340.982 23.8146C344.4 26.5817 346.105 30.337 346.105 35.0805C346.105 38.5817 345.182 41.4899 343.355 43.8052C341.519 46.1205 339.07 47.7299 336.019 48.6334C339.466 49.3676 342.234 51.0805 344.325 53.7534H344.334ZM314.502 43.7205H323.994C326.367 43.7205 328.194 43.2029 329.465 42.1487C330.736 41.104 331.367 39.5699 331.367 37.537C331.367 35.504 330.736 33.9511 329.465 32.8782C328.194 31.8052 326.367 31.2688 323.994 31.2688H314.502V43.7205ZM330.812 65.7911C332.139 64.6899 332.808 63.0993 332.808 61.0099C332.808 58.9205 332.111 57.2828 330.727 56.097C329.343 54.9111 327.431 54.3181 325.002 54.3181H314.492V67.4475H325.171C327.601 67.4475 329.475 66.9017 330.802 65.8005L330.812 65.7911Z" fill="#303446"/>
<path d="M445.022 79.1275L432.82 60.9158L422.068 79.1275H405.514L424.713 48.8876L405.087 19.6641H422.068L434.1 37.6217L444.68 19.6641H461.234L442.206 49.6499L462.002 79.1275H445.022Z" fill="#303446"/>
<path d="M385.848 75.952C371.499 75.952 359.868 64.3559 359.868 50.0503C359.868 35.7446 371.499 24.1486 385.848 24.1486C393.084 24.1486 399.626 27.0999 404.337 31.8616C398.91 24.47 390.145 19.6641 380.25 19.6641C363.768 19.6641 350.407 32.982 350.407 49.4134C350.407 65.8449 363.768 79.1628 380.247 79.1628C387.681 79.1628 394.477 76.4444 399.706 71.9569C395.693 74.4867 390.943 75.955 385.848 75.955" fill="#303446"/>
<path d="M394.779 28.3125C401.025 31.9597 405.224 38.7174 405.224 46.454C405.224 58.0589 395.788 67.4643 384.151 67.4673C373.321 67.4673 364.405 59.3238 363.216 48.8452C363.195 49.258 363.18 49.6707 363.18 50.0864C363.18 62.9415 373.634 73.3611 386.525 73.3611C399.416 73.3611 409.87 62.9385 409.87 50.0864C409.87 40.1297 403.598 31.6383 394.779 28.3125Z" fill="#303446"/>
<path d="M383.524 29.9219C375.69 29.9219 369.074 35.117 366.948 42.2403C369.322 36.9568 374.643 33.2772 380.826 33.2772C389.225 33.2772 396.033 40.0644 396.033 48.4378C396.033 56.8113 389.225 63.5985 380.826 63.5985C379.454 63.5985 378.123 63.4128 376.858 63.0737C378.907 63.9287 381.161 64.4005 383.524 64.4034C393.076 64.4034 400.815 56.6816 400.815 47.1612C400.815 37.6378 393.073 29.9219 383.524 29.9219Z" fill="#303446"/>
</svg>
