<svg width="500" height="500" viewBox="0 0 500 500" fill="none" xmlns="http://www.w3.org/2000/svg">
<path d="M500 117.334V346.028C500 376.017 488.322 404.208 467.117 425.412L425.412 467.118C404.208 488.322 376.017 500 346.028 500H117.334C52.4795 500 0 447.515 0 382.666V117.334C0 52.4795 52.4854 0 117.334 0H382.666C447.521 0 500 52.4854 500 117.334ZM458.317 365.56H404.622C383.083 365.56 365.56 383.083 365.56 404.622V458.317C377.632 454.997 388.696 448.59 397.79 439.497L439.496 397.79C448.59 388.696 454.997 377.632 458.317 365.56ZM460.938 117.334C460.938 74.0713 425.927 39.0625 382.666 39.0625H117.334C74.0713 39.0625 39.0625 74.0732 39.0625 117.334V382.666C39.0625 425.929 74.0732 460.938 117.334 460.938H326.497V404.622C326.497 361.544 361.544 326.497 404.622 326.497H460.938V117.334Z" fill="#303446"/>
<path d="M265.308 249.788C226.671 249.788 195.352 218.583 195.352 180.085C195.352 141.588 226.671 110.383 265.308 110.383C284.794 110.383 302.408 118.325 315.094 131.139C300.481 111.248 276.879 98.3146 250.234 98.3146C205.855 98.3146 169.878 134.154 169.878 178.372C169.878 222.589 205.855 258.429 250.226 258.429C270.245 258.429 288.545 251.113 302.623 239.037C291.817 245.845 279.029 249.796 265.308 249.796" fill="#303446"/>
<path d="M289.355 121.581C306.173 131.396 317.481 149.581 317.481 170.401C317.481 201.63 292.07 226.94 260.736 226.948C231.575 226.948 207.566 205.034 204.365 176.835C204.309 177.946 204.269 179.057 204.269 180.176C204.269 214.769 232.419 242.809 267.13 242.809C301.841 242.809 329.991 214.761 329.991 180.176C329.991 153.382 313.101 130.531 289.355 121.581Z" fill="#303446"/>
<path d="M259.051 125.926C237.957 125.926 220.143 139.906 214.418 159.075C220.812 144.857 235.138 134.955 251.789 134.955C274.404 134.955 292.735 153.22 292.735 175.753C292.735 198.286 274.404 216.551 251.789 216.551C248.094 216.551 244.51 216.051 241.102 215.139C246.621 217.44 252.689 218.709 259.051 218.717C284.772 218.717 305.612 197.937 305.612 172.318C305.612 146.69 284.764 125.926 259.051 125.926Z" fill="#303446"/>
<path d="M269.465 356.677C269.465 367.465 260.721 376.209 249.934 376.209H134.7C123.913 376.209 115.169 367.465 115.169 356.677C115.169 345.89 123.913 337.146 134.7 337.146H249.934C260.721 337.146 269.465 345.89 269.465 356.677ZM365.169 278.092H134.7C123.913 278.092 115.169 286.836 115.169 297.623C115.169 308.41 123.913 317.154 134.7 317.154H365.169C375.956 317.154 384.7 308.41 384.7 297.623C384.7 286.836 375.956 278.092 365.169 278.092Z" fill="#303446"/>
</svg>
