<svg width="75" height="75" viewBox="0 0 75 75" fill="none" xmlns="http://www.w3.org/2000/svg">
<path d="M75 17.6001V51.9042C75 56.4025 73.2483 60.6312 70.0676 63.8118L63.8118 70.0677C60.6312 73.2483 56.4025 75 51.9042 75H17.6001C7.87192 75 0 67.1272 0 57.3999V17.6001C0 7.87192 7.8728 0 17.6001 0H57.3999C67.1281 0 75 7.8728 75 17.6001ZM68.7476 54.8339H60.6933C57.4624 54.8339 54.8339 57.4624 54.8339 60.6933V68.7476C56.6448 68.2496 58.3044 67.2885 59.6685 65.9246L65.9244 59.6685C67.2885 58.3044 68.2496 56.6448 68.7476 54.8339ZM69.1406 17.6001C69.1406 11.1107 63.889 5.85937 57.3999 5.85937H17.6001C11.1107 5.85937 5.85937 11.111 5.85937 17.6001V57.3999C5.85937 63.8893 11.111 69.1406 17.6001 69.1406H48.9746V60.6933C48.9746 54.2316 54.2316 48.9746 60.6933 48.9746H69.1406V17.6001Z" fill="#303446"/>
<path d="M39.7962 37.4682C34.0007 37.4682 29.3028 32.7874 29.3028 27.0128C29.3028 21.2382 34.0007 16.5574 39.7962 16.5574C42.7191 16.5574 45.3613 17.7487 47.2641 19.6708C45.0722 16.6871 41.5318 14.7472 37.5351 14.7472C30.8783 14.7472 25.4817 20.1231 25.4817 26.7557C25.4817 33.3884 30.8783 38.7643 37.5339 38.7643C40.5368 38.7643 43.2817 37.667 45.3935 35.8556C43.7726 36.8767 41.8543 37.4694 39.7962 37.4694" fill="#303446"/>
<path d="M43.4033 18.2371C45.926 19.7094 47.6221 22.4372 47.6221 25.5601C47.6221 30.2445 43.8106 34.0411 39.1103 34.0423C34.7362 34.0423 31.1349 30.7551 30.6547 26.5253C30.6463 26.6919 30.6403 26.8585 30.6403 27.0264C30.6403 32.2154 34.8628 36.4214 40.0695 36.4214C45.2762 36.4214 49.4986 32.2142 49.4986 27.0264C49.4986 23.0072 46.9652 19.5796 43.4033 18.2371Z" fill="#303446"/>
<path d="M38.8577 18.8889C35.6935 18.8889 33.0215 20.9859 32.1627 23.8613C33.1218 21.7285 35.2707 20.2432 37.7683 20.2432C41.1606 20.2432 43.9103 22.9829 43.9103 26.363C43.9103 29.743 41.1606 32.4827 37.7683 32.4827C37.2141 32.4827 36.6766 32.4077 36.1653 32.2708C36.9931 32.616 37.9033 32.8064 38.8577 32.8076C42.7158 32.8076 45.8417 29.6906 45.8417 25.8476C45.8417 22.0035 42.7146 18.8889 38.8577 18.8889Z" fill="#303446"/>
<path d="M40.4198 53.5016C40.4198 55.1197 39.1082 56.4313 37.4901 56.4313H20.205C18.5869 56.4313 17.2753 55.1197 17.2753 53.5016C17.2753 51.8835 18.5869 50.5719 20.205 50.5719H37.4901C39.1082 50.5719 40.4198 51.8835 40.4198 53.5016ZM54.7753 41.7137H20.205C18.5869 41.7137 17.2753 43.0254 17.2753 44.6434C17.2753 46.2615 18.5869 47.5731 20.205 47.5731H54.7753C56.3933 47.5731 57.705 46.2615 57.705 44.6434C57.705 43.0254 56.3933 41.7137 54.7753 41.7137Z" fill="#303446"/>
</svg>
