<svg width="470" height="443" viewBox="0 0 470 443" fill="none" xmlns="http://www.w3.org/2000/svg">
<g clip-path="url(#clip0_801_739)">
<path d="M449.46 358.32H20.54C9.19607 358.32 0 367.516 0 378.86V421.73C0 433.074 9.19607 442.27 20.54 442.27H449.46C460.804 442.27 470 433.074 470 421.73V378.86C470 367.516 460.804 358.32 449.46 358.32Z" fill="white"/>
<path d="M18.7402 378.262H33.1302L45.0202 414.012L56.9102 378.262H71.2402V424.852H61.6402L62.4302 388.562L50.4802 424.852H40.0802L27.7502 388.182L28.7302 424.852H18.7502V378.262H18.7402Z" fill="#343433"/>
<path d="M100.06 386.382C96.5102 386.382 93.8402 387.272 92.0302 389.042C90.2302 390.812 89.2302 393.532 89.0402 397.192L116.14 397.222V405.332H88.9802C89.0002 409.392 89.8602 412.302 91.5602 414.082C93.2602 415.852 96.0902 416.742 100.06 416.742H116.14V424.852H99.5802C95.9302 424.852 93.0502 424.542 90.9602 423.912C88.8702 423.292 86.9102 422.242 85.0702 420.762C82.6802 418.862 80.8901 416.382 79.7001 413.332C78.5101 410.282 77.9102 406.632 77.9102 402.382C77.9102 394.142 79.6902 388.062 83.2602 384.142C86.8302 380.222 92.3602 378.262 99.8602 378.262H116.13V386.372H100.05L100.06 386.382Z" fill="#343433"/>
<path d="M141.66 405.46V397.22H164.83V424.86H143.75C139.86 424.86 136.88 424.54 134.8 423.91C132.72 423.28 130.77 422.23 128.95 420.77C126.56 418.87 124.77 416.39 123.58 413.34C122.39 410.29 121.79 406.64 121.79 402.39C121.79 394.17 123.58 388.1 127.16 384.17C130.74 380.24 136.27 378.27 143.75 378.27H164.83V386.29H143.75C139.9 386.29 137.1 387.54 135.33 390.03C133.57 392.52 132.68 396.5 132.68 401.95C132.68 407.04 133.56 410.73 135.31 413.01C137.06 415.29 139.87 416.43 143.74 416.43H154.77V405.46H141.65H141.66Z" fill="#343433"/>
<path d="M187.46 378.262H197.86L217.73 424.852H206.83L202.55 413.762H182.3L178.15 424.852H167.75L187.46 378.262ZM192.27 387.522L185.46 405.462H199.34L192.27 387.522Z" fill="#343433"/>
<path d="M220.99 378.262H242.26C245.85 378.262 248.71 378.452 250.85 378.812C252.98 379.182 254.69 379.772 255.95 380.572C258.06 381.922 259.66 383.692 260.75 385.882C261.84 388.072 262.38 390.592 262.38 393.442C262.38 396.292 261.94 398.622 261.05 400.622C260.16 402.622 258.81 404.272 256.99 405.582C255.47 406.662 253.72 407.422 251.74 407.882C249.76 408.332 246.74 408.562 242.66 408.562H230.77V424.852H220.98V378.262H220.99ZM242.13 386.572H230.78V400.332H242.73C245.69 400.332 247.89 399.762 249.32 398.632C250.76 397.502 251.48 395.772 251.48 393.452C251.48 390.962 250.78 389.192 249.37 388.142C247.96 387.092 245.55 386.572 242.13 386.572Z" fill="#8FC73E"/>
<path d="M278.96 378.262V397.152H296.93V378.262H306.72V424.852H296.93V405.392H278.96V424.852H269.17V378.262H278.96Z" fill="#8FC73E"/>
<path d="M313.35 401.08C313.35 393.07 315.27 387.11 319.1 383.2C322.93 379.29 328.77 377.34 336.6 377.34C344.43 377.34 350.34 379.32 354.13 383.27C357.92 387.22 359.82 393.32 359.82 401.56C359.82 409.8 357.92 415.91 354.13 419.88C350.34 423.85 344.5 425.84 336.6 425.84C328.7 425.84 322.75 423.84 318.99 419.85C315.23 415.86 313.35 409.6 313.35 401.09V401.08ZM336.6 385.33C332.4 385.33 329.26 386.64 327.18 389.26C325.1 391.88 324.06 395.84 324.06 401.15C324.06 406.9 325.07 411.11 327.08 413.78C329.09 416.45 332.27 417.79 336.59 417.79C340.91 417.79 344.01 416.46 346.07 413.81C348.13 411.16 349.16 407.08 349.16 401.56C349.16 396.04 348.13 391.94 346.07 389.29C344.01 386.65 340.85 385.33 336.59 385.33H336.6Z" fill="#8FC73E"/>
<path d="M366.53 378.262H378.92L398 411.732L397.52 378.262H407.54V424.852H396.16L376.13 389.602L376.57 424.852H366.52V378.262H366.53Z" fill="#8FC73E"/>
<path d="M436.22 386.382C432.67 386.382 430 387.272 428.19 389.042C426.38 390.812 425.39 393.532 425.2 397.192L452.3 397.222V405.332H425.14C425.16 409.392 426.02 412.302 427.72 414.082C429.42 415.852 432.25 416.742 436.22 416.742H452.3V424.852H435.74C432.09 424.852 429.21 424.542 427.12 423.912C425.03 423.292 423.07 422.242 421.23 420.762C418.84 418.862 417.05 416.382 415.86 413.332C414.67 410.282 414.07 406.632 414.07 402.382C414.07 394.142 415.85 388.062 419.42 384.142C422.99 380.222 428.52 378.262 436.02 378.262H452.29V386.372H436.21L436.22 386.382Z" fill="#8FC73E"/>
<path d="M380.19 4.87891H89.8099C73.7163 4.87891 60.6699 17.9253 60.6699 34.0189V324.399C60.6699 340.492 73.7163 353.539 89.8099 353.539H380.19C396.284 353.539 409.33 340.492 409.33 324.399V34.0189C409.33 17.9253 396.284 4.87891 380.19 4.87891Z" fill="#343433"/>
<path d="M380.19 358.42H89.81C71.05 358.42 55.79 343.16 55.79 324.4V34.02C55.79 15.26 71.05 0 89.81 0H380.19C398.95 0 414.21 15.26 414.21 34.02V324.4C414.21 343.16 398.95 358.42 380.19 358.42ZM89.81 9.76C76.43 9.76 65.55 20.64 65.55 34.02V324.4C65.55 337.78 76.43 348.66 89.81 348.66H380.19C393.57 348.66 404.45 337.78 404.45 324.4V34.02C404.45 20.64 393.57 9.76 380.19 9.76H89.81Z" fill="white"/>
<path d="M181.61 168.98L210.89 219.7C197.6 227.38 182.15 236.29 168.62 244.1C154.61 252.19 136.71 247.39 128.62 233.38C120.58 219.47 125.24 201.51 139.34 193.38L181.61 168.98Z" fill="#8FC73E"/>
<path d="M319.66 185.339C323.36 191.749 318.85 199.789 311.44 199.979L305.95 201.059L305.83 200.439L243 91.6188L242.59 91.2988L246.1 86.8188C249.96 80.4988 259.18 80.5988 262.88 87.0188C360.39 255.899 237.37 42.8388 319.65 185.349L319.66 185.339Z" fill="#E3F1D2"/>
<path d="M304.2 119.512L313.96 136.422L301.93 154.632L282.41 120.822L304.2 119.512Z" fill="#E3F1D2"/>
<path d="M186.67 216.781C189 215.431 189.8 212.451 188.46 210.111C187.11 207.781 184.13 206.981 181.79 208.321C179.46 209.671 178.66 212.661 180 214.991C181.35 217.321 184.33 218.121 186.67 216.781Z" fill="white"/>
<path d="M166.66 250.472L191.24 293.042C196.54 302.242 208.47 305.642 217.91 300.192C227.25 294.792 230.45 282.872 225.05 273.522L210.41 248.162L223.09 240.842C225.42 239.492 226.22 236.512 224.88 234.172L218.53 223.182C219.29 223.032 224.26 222.062 312.01 204.842C322.86 204.252 329.36 192.392 323.88 182.902L307.66 154.812L318.03 139.112C319.05 137.572 319.11 135.582 318.18 133.982L308.42 117.072C307.5 115.472 305.74 114.532 303.9 114.642L285.12 115.772L267.11 84.5817C264.5 80.0617 259.83 77.3317 254.61 77.2617C254.55 77.2617 254.49 77.2617 254.42 77.2617C249.38 77.2617 244.8 79.7717 242.09 84.0117L178.33 165.232L136.88 189.162C120.58 198.572 114.93 219.482 124.38 235.832C133.01 250.782 151.2 256.662 166.65 250.472H166.66ZM216.6 278.402C219.3 283.062 217.7 289.032 213.02 291.732C208.33 294.442 202.35 292.782 199.69 288.162L175.29 245.892L192.2 236.132C220.44 285.052 216.15 277.622 216.6 278.402ZM205.53 239.702L200.65 231.252L209.1 226.372L213.98 234.822L205.53 239.702ZM301.48 124.572L308.23 136.252L302.22 145.362L290.59 125.222L301.49 124.572H301.48ZM250.27 89.3617C251.58 87.2217 253.66 87.0017 254.5 87.0217C255.33 87.0217 257.41 87.2917 258.66 89.4617L315.43 187.792C317.28 190.992 315.03 195.022 311.32 195.112C310.65 195.132 310.35 195.252 308.64 195.562L248.59 91.5517C249.85 89.9317 250.01 89.7717 250.26 89.3617H250.27ZM242.1 99.8217L298.52 197.542L213.37 214.242L187.48 169.402L242.1 99.8217ZM132.85 230.952C130.71 227.242 129.57 223.032 129.57 218.772C129.57 210.072 134.25 201.962 141.78 197.612L179.82 175.652L204.22 217.922L166.18 239.882C154.53 246.612 139.57 242.602 132.85 230.952Z" fill="#8FC73E"/>
<path d="M171.54 219.881C170.19 217.551 167.21 216.751 164.87 218.091L156.42 222.971C154.09 224.321 151.1 223.511 149.75 221.181C148.4 218.851 145.42 218.051 143.08 219.391C140.74 220.731 139.95 223.721 141.29 226.061C145.31 233.021 154.27 235.471 161.29 231.421L169.74 226.541C172.07 225.191 172.87 222.211 171.53 219.871L171.54 219.881Z" fill="white"/>
<path d="M362.45 87.6998L335.25 102.83C332.9 104.14 332.05 107.11 333.36 109.47C334.67 111.82 337.64 112.67 340 111.36L367.19 96.2298C369.55 94.9198 370.39 91.9498 369.08 89.5898C367.77 87.2298 364.8 86.3898 362.44 87.6998H362.45Z" fill="#8FC73E"/>
<path d="M359.6 138.249L340.74 133.199C338.14 132.499 335.46 134.049 334.76 136.649C334.06 139.249 335.61 141.929 338.21 142.629L357.07 147.679C359.69 148.379 362.35 146.809 363.05 144.229C363.75 141.629 362.2 138.949 359.6 138.249Z" fill="#8FC73E"/>
<path d="M312.21 69.9697L307.15 88.8297C306.45 91.4297 308 94.1097 310.6 94.8097C313.2 95.5097 315.88 93.9697 316.58 91.3597L321.64 72.4997C322.34 69.8997 320.79 67.2197 318.19 66.5197C315.59 65.8197 312.91 67.3697 312.21 69.9697Z" fill="#8FC73E"/>
</g>
<defs>
<clipPath id="clip0_801_739">
<rect width="470" height="442.27" fill="white"/>
</clipPath>
</defs>
</svg>
