<svg width="290" height="273" viewBox="0 0 290 273" fill="none" xmlns="http://www.w3.org/2000/svg">
<g clip-path="url(#clip0_801_762)">
<path d="M277.33 221.09H12.67C5.67255 221.09 0 226.762 0 233.76V260.22C0 267.217 5.67255 272.89 12.67 272.89H277.33C284.327 272.89 290 267.217 290 260.22V233.76C290 226.762 284.327 221.09 277.33 221.09Z" fill="white"/>
<path d="M11.5703 233.398H20.4503L27.7803 255.458L35.1103 233.398H43.9503V262.148H38.0203L38.5103 239.758L31.1403 262.148H24.7303L17.1203 239.518L17.7303 262.148H11.5703V233.398Z" fill="#343433"/>
<path d="M61.7396 238.399C59.5496 238.399 57.8996 238.949 56.7896 240.039C55.6796 241.139 55.0596 242.809 54.9396 245.069L71.6596 245.089V250.099H54.8996C54.9096 252.599 55.4396 254.399 56.4896 255.499C57.5396 256.599 59.2896 257.139 61.7296 257.139H71.6496V262.149H61.4296C59.1796 262.149 57.3996 261.959 56.1096 261.569C54.8196 261.189 53.6096 260.539 52.4696 259.619C50.9996 258.449 49.8896 256.919 49.1596 255.029C48.4196 253.149 48.0596 250.889 48.0596 248.269C48.0596 243.189 49.1596 239.429 51.3596 237.009C53.5596 234.589 56.9796 233.379 61.5996 233.379H71.6396V238.389H61.7196L61.7396 238.399Z" fill="#343433"/>
<path d="M87.4102 250.179V245.099H101.71V262.149H88.7102C86.3102 262.149 84.4702 261.949 83.1902 261.559C81.9102 261.169 80.7002 260.519 79.5802 259.619C78.1102 258.449 77.0001 256.919 76.2701 255.029C75.5301 253.149 75.1602 250.889 75.1602 248.269C75.1602 243.199 76.2702 239.449 78.4702 237.019C80.6802 234.589 84.0902 233.379 88.7102 233.379H101.71V238.329H88.7102C86.3402 238.329 84.6101 239.099 83.5201 240.639C82.4301 242.179 81.8902 244.629 81.8902 247.989C81.8902 251.129 82.4302 253.409 83.5102 254.819C84.5902 256.229 86.3302 256.929 88.7102 256.929H95.5201V250.159H87.4202L87.4102 250.179Z" fill="#343433"/>
<path d="M115.67 233.398H122.08L134.34 262.148H127.61L124.97 255.298H112.47L109.91 262.148H103.5L115.66 233.398H115.67ZM118.64 239.108L114.44 250.178H123.01L118.65 239.108H118.64Z" fill="#343433"/>
<path d="M136.36 233.398H149.48C151.7 233.398 153.46 233.508 154.78 233.738C156.1 233.968 157.15 234.328 157.93 234.828C159.23 235.658 160.22 236.758 160.89 238.108C161.56 239.458 161.9 241.008 161.9 242.768C161.9 244.528 161.63 245.968 161.08 247.198C160.53 248.428 159.7 249.448 158.58 250.258C157.64 250.918 156.56 251.398 155.34 251.678C154.12 251.958 152.25 252.098 149.74 252.098H142.41V262.148H136.37V233.398H136.36ZM149.4 238.518H142.4V247.008H149.77C151.6 247.008 152.95 246.658 153.84 245.958C154.73 245.258 155.17 244.198 155.17 242.758C155.17 241.218 154.74 240.128 153.87 239.478C153 238.828 151.51 238.508 149.4 238.508V238.518Z" fill="#8FC73E"/>
<path d="M172.13 233.398V245.058H183.22V233.398H189.26V262.148H183.22V250.138H172.13V262.148H166.09V233.398H172.13Z" fill="#8FC73E"/>
<path d="M193.34 247.478C193.34 242.538 194.52 238.858 196.89 236.448C199.25 234.038 202.85 232.828 207.69 232.828C212.53 232.828 216.17 234.048 218.51 236.488C220.85 238.928 222.02 242.688 222.02 247.768C222.02 252.848 220.85 256.618 218.51 259.068C216.17 261.518 212.57 262.748 207.69 262.748C202.81 262.748 199.14 261.518 196.82 259.048C194.5 256.588 193.34 252.728 193.34 247.468V247.478ZM207.69 237.758C205.1 237.758 203.16 238.568 201.88 240.188C200.6 241.808 199.96 244.248 199.96 247.518C199.96 251.068 200.58 253.658 201.83 255.308C203.08 256.958 205.03 257.778 207.7 257.778C210.37 257.778 212.28 256.958 213.55 255.328C214.82 253.688 215.45 251.168 215.45 247.768C215.45 244.368 214.81 241.828 213.55 240.198C212.28 238.568 210.33 237.758 207.7 237.758H207.69Z" fill="#8FC73E"/>
<path d="M226.16 233.398H233.81L245.58 254.048L245.29 233.398H251.47V262.148H244.45L232.09 240.398L232.36 262.148H226.16V233.398Z" fill="#8FC73E"/>
<path d="M269.16 238.399C266.97 238.399 265.32 238.949 264.21 240.039C263.1 241.129 262.48 242.809 262.36 245.069L279.08 245.089V250.099H262.32C262.33 252.599 262.86 254.399 263.91 255.499C264.96 256.599 266.71 257.139 269.15 257.139H279.07V262.149H268.85C266.6 262.149 264.82 261.959 263.53 261.569C262.24 261.189 261.03 260.539 259.89 259.619C258.42 258.449 257.31 256.919 256.58 255.029C255.84 253.149 255.48 250.889 255.48 248.269C255.48 243.189 256.58 239.429 258.78 237.009C260.98 234.589 264.4 233.379 269.02 233.379H279.06V238.389H269.14L269.16 238.399Z" fill="#8FC73E"/>
<path d="M234.59 3.01172H55.4204C45.4903 3.01172 37.4404 11.0616 37.4404 20.9917V200.162C37.4404 210.092 45.4903 218.142 55.4204 218.142H234.59C244.521 218.142 252.57 210.092 252.57 200.162V20.9917C252.57 11.0616 244.521 3.01172 234.59 3.01172Z" fill="#343433"/>
<path d="M234.59 221.15H55.4197C43.8497 221.15 34.4297 211.73 34.4297 200.16V20.99C34.4197 9.42 43.8397 0 55.4197 0H234.59C246.16 0 255.58 9.42 255.58 20.99V200.16C255.58 211.73 246.16 221.15 234.59 221.15ZM55.4197 6.02C47.1697 6.02 40.4497 12.73 40.4497 20.99V200.16C40.4497 208.41 47.1597 215.13 55.4197 215.13H234.59C242.84 215.13 249.56 208.42 249.56 200.16V20.99C249.56 12.74 242.85 6.02 234.59 6.02H55.4197Z" fill="white"/>
<path d="M112.06 104.27L130.13 135.57C121.93 140.31 112.4 145.81 104.05 150.63C95.4103 155.62 84.3603 152.66 79.3703 144.02C74.4103 135.44 77.2903 124.36 85.9803 119.34L112.06 104.28V104.27Z" fill="#8FC73E"/>
<path d="M197.24 114.361C199.53 118.321 196.74 123.281 192.17 123.391L188.78 124.061L188.7 123.681L149.93 56.5315L149.68 56.3315L151.85 53.5715C154.23 49.6715 159.92 49.7315 162.21 53.6915C222.38 157.891 146.47 26.4315 197.24 114.361Z" fill="#E3F1D2"/>
<path d="M187.7 73.7383L193.72 84.1683L186.3 95.4083L174.25 74.5483L187.69 73.7383H187.7Z" fill="#E3F1D2"/>
<path d="M115.18 133.758C116.62 132.928 117.11 131.088 116.28 129.648C115.45 128.208 113.61 127.718 112.17 128.548C110.73 129.378 110.24 131.218 111.07 132.658C111.9 134.098 113.74 134.588 115.18 133.758Z" fill="white"/>
<path d="M102.84 154.54L118.01 180.81C121.28 186.48 128.64 188.59 134.47 185.22C140.23 181.89 142.21 174.53 138.88 168.77L129.85 153.12L137.67 148.6C139.11 147.77 139.6 145.93 138.77 144.49L134.85 137.71C135.32 137.62 138.39 137.02 192.53 126.4C199.22 126.04 203.23 118.72 199.85 112.86L189.84 95.5297L196.24 85.8397C196.87 84.8897 196.91 83.6597 196.34 82.6697L190.32 72.2397C189.75 71.2497 188.67 70.6697 187.53 70.7397L175.94 71.4397L164.83 52.1997C163.22 49.4097 160.34 47.7197 157.12 47.6797C157.08 47.6797 157.04 47.6797 157 47.6797C153.89 47.6797 151.07 49.2297 149.39 51.8497L110.05 101.96L84.4798 116.73C74.4198 122.54 70.9398 135.44 76.7598 145.53C82.0798 154.75 93.3098 158.38 102.84 154.56V154.54ZM133.65 171.78C135.31 174.66 134.33 178.34 131.44 180.01C128.55 181.68 124.86 180.66 123.21 177.81L108.15 151.73L118.58 145.71C136.01 175.9 133.36 171.31 133.64 171.79L133.65 171.78ZM126.82 147.9L123.81 142.68L129.03 139.67L132.04 144.89L126.82 147.9ZM186.02 76.8597L190.18 84.0697L186.47 89.6897L179.3 77.2597L186.02 76.8597ZM154.42 55.1397C155.23 53.8197 156.51 53.6797 157.03 53.6997C157.54 53.6997 158.83 53.8697 159.6 55.1997L194.63 115.87C195.77 117.85 194.38 120.33 192.1 120.38C191.69 120.38 191.5 120.46 190.45 120.66L153.4 56.4797C154.18 55.4797 154.28 55.3797 154.43 55.1297L154.42 55.1397ZM149.38 61.5897L184.19 121.89L131.65 132.19L115.68 104.52L149.38 61.5897ZM81.9698 142.5C80.6498 140.21 79.9498 137.61 79.9498 134.99C79.9498 129.62 82.8398 124.62 87.4798 121.94L110.95 108.39L126.01 134.47L102.54 148.02C95.3498 152.17 86.1198 149.7 81.9698 142.51V142.5Z" fill="#8FC73E"/>
<path d="M105.85 135.672C105.02 134.232 103.18 133.742 101.74 134.572L96.5196 137.582C95.0796 138.412 93.2397 137.922 92.4097 136.482C91.5797 135.042 89.7397 134.552 88.2997 135.382C86.8597 136.212 86.3697 138.052 87.1997 139.492C89.6797 143.782 95.2097 145.302 99.5397 142.802L104.76 139.792C106.2 138.962 106.69 137.122 105.86 135.682L105.85 135.672Z" fill="white"/>
<path d="M223.64 54.1102L206.86 63.4502C205.41 64.2602 204.88 66.0902 205.69 67.5502C206.5 69.0002 208.33 69.5302 209.79 68.7202L226.57 59.3802C228.02 58.5702 228.55 56.7402 227.74 55.2802C226.93 53.8302 225.1 53.3002 223.65 54.1102H223.64Z" fill="#8FC73E"/>
<path d="M221.88 85.3015L210.24 82.1815C208.63 81.7515 206.98 82.7015 206.55 84.3115C206.12 85.9215 207.07 87.5715 208.68 88.0015L220.32 91.1215C221.94 91.5515 223.58 90.5915 224.01 88.9915C224.44 87.3815 223.49 85.7315 221.88 85.3015Z" fill="#8FC73E"/>
<path d="M192.64 43.1709L189.52 54.8109C189.09 56.4209 190.04 58.0709 191.65 58.5009C193.26 58.9309 194.91 57.9809 195.34 56.3709L198.46 44.7309C198.89 43.1209 197.94 41.4709 196.33 41.0409C194.72 40.6109 193.07 41.5609 192.64 43.1709Z" fill="#8FC73E"/>
</g>
<defs>
<clipPath id="clip0_801_762">
<rect width="290" height="272.89" fill="white"/>
</clipPath>
</defs>
</svg>
