<svg width="500" height="500" viewBox="0 0 500 500" fill="none" xmlns="http://www.w3.org/2000/svg">
<mask id="mask0_675_3166" style="mask-type:alpha" maskUnits="userSpaceOnUse" x="0" y="0" width="500" height="500">
<path d="M298.004 473.018C177.35 473.018 79.549 375.57 79.549 255.352C79.549 135.134 177.35 37.6858 298.004 37.6858C358.853 37.6858 413.859 62.4876 453.472 102.502C407.841 40.3865 334.136 0 250.931 0C112.348 0 0 111.918 0 250C0 388.082 112.348 500 250.906 500C313.422 500 370.566 477.156 414.53 439.445C380.786 460.704 340.85 473.043 298.004 473.043" fill="url(#paint0_linear_675_3166)"/>
<path d="M373.105 72.6707C425.623 103.32 460.934 160.109 460.934 225.124C460.934 322.646 381.584 401.684 283.733 401.709C192.671 401.709 117.697 333.275 107.701 245.218C107.527 248.686 107.402 252.155 107.402 255.649C107.402 363.676 195.307 451.238 303.701 451.238C412.096 451.238 500 363.652 500 255.649C500 171.977 447.257 100.619 373.105 72.6707Z" fill="url(#paint1_linear_675_3166)"/>
<path d="M278.465 86.2102C212.593 86.2102 156.966 129.867 139.086 189.729C159.054 145.328 203.79 114.406 255.786 114.406C326.408 114.406 383.652 171.443 383.652 241.81C383.652 312.177 326.408 369.213 255.786 369.213C244.248 369.213 233.058 367.652 222.415 364.803C239.648 371.988 258.596 375.953 278.465 375.977C358.785 375.977 423.861 311.086 423.861 231.081C423.861 151.052 358.76 86.2102 278.465 86.2102Z" fill="url(#paint2_linear_675_3166)"/>
</mask>
<g mask="url(#mask0_675_3166)">
<rect x="-14.2969" y="-14.2725" width="521.426" height="521.428" fill="#1D3366"/>
</g>
<defs>
<linearGradient id="paint0_linear_675_3166" x1="403.351" y1="50" x2="84.9543" y2="426.495" gradientUnits="userSpaceOnUse">
<stop offset="0.278846" stop-color="#00BFF3"/>
<stop offset="0.735577" stop-color="#034DC7"/>
<stop offset="1" stop-color="#1D1E63"/>
</linearGradient>
<linearGradient id="paint1_linear_675_3166" x1="456.608" y1="110.527" x2="222.861" y2="426.58" gradientUnits="userSpaceOnUse">
<stop offset="0.278846" stop-color="#00BFF3"/>
<stop offset="0.735577" stop-color="#034DC7"/>
<stop offset="1" stop-color="#1D1E63"/>
</linearGradient>
<linearGradient id="paint2_linear_675_3166" x1="392.386" y1="115.187" x2="210.873" y2="347.767" gradientUnits="userSpaceOnUse">
<stop offset="0.278846" stop-color="#00BFF3"/>
<stop offset="0.735577" stop-color="#034DC7"/>
<stop offset="1" stop-color="#1D1E63"/>
</linearGradient>
</defs>
</svg>
