<svg width="500" height="345" viewBox="0 0 500 345" fill="none" xmlns="http://www.w3.org/2000/svg">
<path d="M499.991 209.421C499.991 163.798 468.861 125.231 426.507 113.448C414.248 72.0707 375.554 41.7768 329.84 41.7768C317.29 41.7768 305.267 44.0589 294.17 48.2411C270.986 18.8746 235.107 0 194.906 0C129.159 0 74.9637 50.505 68.9975 114.802C28.9502 127.985 0 165.416 0 209.421C0 260.608 39.1664 302.893 89.4025 308.485V272.672C58.7722 267.381 35.4159 241.033 35.4159 209.421C35.4159 184.5 49.9183 162.862 71.0498 152.215C79.9673 147.724 90.0563 145.187 100.736 145.187C102.443 145.187 104.132 145.251 105.812 145.387C104.541 139.323 103.869 133.04 103.869 126.603C103.869 120.876 104.395 115.275 105.421 109.838C113.295 67.5612 150.427 35.458 194.906 35.458C222.176 35.458 246.695 47.5229 263.385 66.6157C271.404 75.7711 277.615 86.5358 281.466 98.3552C289.63 89.4997 300.282 82.8809 312.323 79.5897C317.899 78.0532 323.774 77.2349 329.84 77.2349C354.432 77.2349 375.89 90.6726 387.023 110.465C392.209 119.666 395.16 130.24 395.16 141.478C395.16 142.769 395.124 144.051 395.042 145.323C396.44 145.233 397.839 145.187 399.255 145.187C410.334 145.187 420.777 147.915 429.931 152.724C450.527 163.543 464.575 184.9 464.575 209.421C464.575 232.414 452.216 252.607 433.709 263.962C424.61 245.242 405.43 232.341 383.236 232.341C357.428 232.341 335.697 249.797 329.15 273.554H312.495V309.049H331.003C339.194 329.914 359.481 344.698 383.236 344.698C409.762 344.698 431.965 326.269 437.822 301.502C474.283 286.492 500 250.879 500 209.421H499.991ZM383.227 336.515C356.793 336.515 335.289 314.986 335.289 288.519C335.289 262.053 356.793 240.524 383.227 240.524C409.662 240.524 431.166 262.053 431.166 288.519C431.166 314.986 409.662 336.515 383.227 336.515Z" fill="url(#paint0_linear_1022_1319)"/>
<path d="M333.055 74.4912C364.902 74.4912 390.801 100.43 390.801 132.306C390.801 164.182 364.893 190.121 333.055 190.121C301.217 190.121 275.309 164.182 275.309 132.306C275.309 100.43 301.217 74.4912 333.055 74.4912ZM333.055 66.3086C296.649 66.3086 267.136 95.857 267.136 132.306C267.136 168.755 296.649 198.303 333.055 198.303C369.46 198.303 398.974 168.755 398.974 132.306C398.974 95.857 369.46 66.3086 333.055 66.3086Z" fill="url(#paint1_linear_1022_1319)"/>
<path d="M226.652 222.969H177.043C171.758 222.969 167.462 227.269 167.462 232.561V328.543C167.462 333.834 171.758 338.135 177.043 338.135H226.652C231.938 338.135 236.233 333.834 236.233 328.543V232.561C236.233 227.269 231.938 222.969 226.652 222.969ZM204.377 321.797C203.705 322.46 202.788 322.842 201.843 322.842C200.899 322.842 199.981 322.46 199.309 321.797C198.647 321.124 198.265 320.206 198.265 319.26C198.265 318.314 198.647 317.396 199.309 316.723C199.972 316.06 200.899 315.678 201.843 315.678C202.788 315.678 203.705 316.06 204.377 316.723C205.04 317.396 205.421 318.314 205.421 319.26C205.421 320.206 205.04 321.124 204.377 321.797ZM215.446 265.355H188.004C186.015 265.355 184.408 263.745 184.408 261.754C184.408 259.763 186.015 258.154 188.004 258.154H215.446C217.435 258.154 219.043 259.763 219.043 261.754C219.043 263.745 217.435 265.355 215.446 265.355ZM215.446 250.781H188.004C186.015 250.781 184.408 249.171 184.408 247.18C184.408 245.189 186.015 243.58 188.004 243.58H215.446C217.435 243.58 219.043 245.189 219.043 247.18C219.043 249.171 217.435 250.781 215.446 250.781Z" fill="url(#paint2_linear_1022_1319)"/>
<path d="M152.224 238.891H109.471C104.921 238.891 101.207 242.6 101.207 247.164V329.881C101.207 334.445 104.912 338.155 109.471 338.155H152.224C156.774 338.155 160.488 334.445 160.488 329.881V247.164C160.488 242.609 156.783 238.891 152.224 238.891ZM133.027 324.054C132.455 324.626 131.656 324.954 130.847 324.954C130.039 324.954 129.24 324.626 128.668 324.054C128.096 323.481 127.769 322.681 127.769 321.872C127.769 321.062 128.096 320.262 128.668 319.689C129.24 319.117 130.039 318.789 130.847 318.789C131.656 318.789 132.455 319.117 133.027 319.689C133.599 320.262 133.926 321.062 133.926 321.872C133.926 322.681 133.599 323.481 133.027 324.054ZM142.562 275.421H118.915C117.208 275.421 115.818 274.03 115.818 272.321C115.818 270.612 117.208 269.221 118.915 269.221H142.562C144.269 269.221 145.659 270.612 145.659 272.321C145.659 274.03 144.269 275.421 142.562 275.421ZM142.562 262.857H118.915C117.208 262.857 115.818 261.466 115.818 259.756C115.818 258.047 117.208 256.656 118.915 256.656H142.562C144.269 256.656 145.659 258.047 145.659 259.756C145.659 261.466 144.269 262.857 142.562 262.857Z" fill="url(#paint3_linear_1022_1319)"/>
<path d="M294.224 238.891H251.471C246.921 238.891 243.207 242.6 243.207 247.164V329.881C243.207 334.445 246.912 338.155 251.471 338.155H294.224C298.774 338.155 302.488 334.445 302.488 329.881V247.164C302.488 242.609 298.783 238.891 294.224 238.891ZM275.027 324.054C274.455 324.626 273.656 324.954 272.847 324.954C272.039 324.954 271.24 324.626 270.668 324.054C270.096 323.481 269.769 322.681 269.769 321.872C269.769 321.062 270.096 320.262 270.668 319.689C271.24 319.117 272.039 318.789 272.847 318.789C273.656 318.789 274.455 319.117 275.027 319.689C275.599 320.262 275.926 321.062 275.926 321.872C275.926 322.681 275.599 323.481 275.027 324.054ZM284.562 275.421H260.915C259.208 275.421 257.818 274.03 257.818 272.321C257.818 270.612 259.208 269.221 260.915 269.221H284.562C286.269 269.221 287.659 270.612 287.659 272.321C287.659 274.03 286.269 275.421 284.562 275.421ZM284.562 262.857H260.915C259.208 262.857 257.818 261.466 257.818 259.756C257.818 258.047 259.208 256.656 260.915 256.656H284.562C286.269 256.656 287.659 258.047 287.659 259.756C287.659 261.466 286.269 262.857 284.562 262.857Z" fill="url(#paint4_linear_1022_1319)"/>
<path d="M323.883 99.0587L332.474 91.8398H332.501C332.81 91.8853 333.109 91.9399 333.409 91.9944C351.843 95.6675 363.794 113.642 360.107 132.071C356.466 150.355 338.839 162.247 320.623 158.901C324.555 158.01 328.333 156.201 331.638 153.437C342.699 144.145 344.152 127.634 334.862 116.551C329.54 110.205 321.849 107.023 314.175 107.214L323.892 99.0496L323.883 99.0587Z" fill="white"/>
<path d="M294.479 164.595C292.699 162.477 292.981 159.313 295.097 157.54C297.213 155.758 300.373 156.04 302.144 158.158C303.923 160.277 303.642 163.441 301.526 165.214C299.41 166.996 296.25 166.714 294.479 164.595Z" fill="white"/>
<path d="M342.781 179.352C327.307 182.461 312.078 177.788 301.135 168.032C301.771 167.76 302.379 167.396 302.951 166.923C304.096 165.96 304.868 164.714 305.249 163.377C307.637 164.759 310.18 165.923 312.841 166.841C335.616 174.679 360.398 162.532 368.198 139.748C376.026 116.946 363.894 92.1341 341.137 84.3242C360.961 87.5882 376.68 102.79 380.594 122.473C385.843 148.64 368.916 174.106 342.781 179.361V179.352Z" fill="white"/>
<path d="M372.049 251.84H391.9L371.295 313C371.186 313.31 371.041 313.61 370.841 313.873C370.641 314.137 370.414 314.373 370.142 314.564C369.869 314.755 369.579 314.91 369.27 315.01C368.961 315.11 368.625 315.164 368.298 315.164H352.852C352.352 315.164 351.853 315.046 351.408 314.819C350.963 314.592 350.572 314.255 350.282 313.846C349.991 313.437 349.8 312.964 349.728 312.464C349.655 311.964 349.7 311.455 349.855 310.982L369.052 254.004C369.161 253.695 369.306 253.395 369.506 253.131C369.706 252.867 369.942 252.631 370.205 252.44C370.469 252.249 370.768 252.094 371.077 251.994C371.395 251.894 371.722 251.84 372.049 251.84Z" fill="url(#paint5_linear_1022_1319)"/>
<path d="M408.645 315.145H390.819C390.62 315.145 390.42 315.126 390.229 315.09C390.029 315.054 389.839 314.999 389.657 314.926C389.475 314.854 389.294 314.763 389.121 314.654C388.949 314.545 388.794 314.426 388.649 314.29L368.426 295.379C368.208 295.179 368.062 294.915 367.999 294.634C367.863 294.052 368.108 293.443 368.598 293.106C368.843 292.942 369.125 292.852 369.415 292.852H400.89L408.636 315.145H408.645Z" fill="#0078D4"/>
<path d="M391.972 251.835L378.078 292.857H400.781L408.572 315.141H390.819C390.637 315.141 390.456 315.123 390.274 315.086C390.093 315.05 389.911 315.004 389.738 314.941C389.393 314.814 389.066 314.632 388.785 314.395L375.136 301.639L371.313 312.922C371.213 313.204 371.077 313.468 370.904 313.723C370.568 314.213 370.096 314.614 369.56 314.868C369.288 314.995 369.007 315.086 368.707 315.141H352.861C352.352 315.141 351.853 315.023 351.408 314.786C350.49 314.313 349.864 313.422 349.728 312.404C349.664 311.904 349.709 311.386 349.882 310.913L369.043 254.026C369.143 253.707 369.297 253.407 369.488 253.135C369.679 252.862 369.915 252.626 370.187 252.426C370.459 252.226 370.75 252.08 371.068 251.971C371.386 251.871 371.713 251.816 372.049 251.816H391.972V251.835Z" fill="url(#paint6_linear_1022_1319)"/>
<path d="M416.6 310.966C416.764 311.439 416.809 311.948 416.728 312.448C416.655 312.948 416.464 313.421 416.174 313.83C415.583 314.658 414.621 315.149 413.604 315.149H391.482C391.982 315.149 392.481 315.03 392.926 314.803C393.371 314.576 393.762 314.239 394.052 313.83C394.343 313.421 394.534 312.948 394.606 312.448C394.679 311.948 394.634 311.439 394.479 310.966L375.282 253.988C375.073 253.361 374.664 252.815 374.129 252.424C373.865 252.233 373.566 252.088 373.257 251.979C372.948 251.87 372.621 251.824 372.285 251.824H394.406C394.733 251.824 395.06 251.879 395.378 251.979C395.687 252.079 395.987 252.233 396.25 252.424C396.513 252.615 396.749 252.852 396.949 253.115C397.149 253.379 397.294 253.67 397.403 253.988L416.6 310.966Z" fill="url(#paint7_linear_1022_1319)"/>
<defs>
<linearGradient id="paint0_linear_1022_1319" x1="396.611" y1="81.0997" x2="210.188" y2="399.061" gradientUnits="userSpaceOnUse">
<stop offset="0.278846" stop-color="#33CFFF"/>
<stop offset="1" stop-color="#0D87C5"/>
</linearGradient>
<linearGradient id="paint1_linear_1022_1319" x1="371.713" y1="97.3641" x2="290.953" y2="192.21" gradientUnits="userSpaceOnUse">
<stop offset="0.278846" stop-color="#33CFFF"/>
<stop offset="1" stop-color="#0D87C5"/>
</linearGradient>
<linearGradient id="paint2_linear_1022_1319" x1="222.013" y1="250.065" x2="154.879" y2="297.202" gradientUnits="userSpaceOnUse">
<stop offset="0.278846" stop-color="#33CFFF"/>
<stop offset="1" stop-color="#0D87C5"/>
</linearGradient>
<linearGradient id="paint3_linear_1022_1319" x1="148.23" y1="262.245" x2="90.3635" y2="302.879" gradientUnits="userSpaceOnUse">
<stop offset="0.278846" stop-color="#33CFFF"/>
<stop offset="1" stop-color="#0D87C5"/>
</linearGradient>
<linearGradient id="paint4_linear_1022_1319" x1="290.23" y1="262.245" x2="232.363" y2="302.879" gradientUnits="userSpaceOnUse">
<stop offset="0.278846" stop-color="#33CFFF"/>
<stop offset="1" stop-color="#0D87C5"/>
</linearGradient>
<linearGradient id="paint5_linear_1022_1319" x1="380.873" y1="257.468" x2="360.203" y2="318.441" gradientUnits="userSpaceOnUse">
<stop stop-color="#114A8B"/>
<stop offset="1" stop-color="#0669BC"/>
</linearGradient>
<linearGradient id="paint6_linear_1022_1319" x1="387.305" y1="285.886" x2="382.515" y2="287.499" gradientUnits="userSpaceOnUse">
<stop stop-opacity="0.3"/>
<stop offset="0.1" stop-opacity="0.2"/>
<stop offset="0.3" stop-opacity="0.1"/>
<stop offset="0.6" stop-opacity="0.1"/>
<stop offset="1" stop-opacity="0"/>
</linearGradient>
<linearGradient id="paint7_linear_1022_1319" x1="384.812" y1="255.618" x2="407.497" y2="315.964" gradientUnits="userSpaceOnUse">
<stop stop-color="#3CCBF4"/>
<stop offset="1" stop-color="#2892DF"/>
</linearGradient>
</defs>
</svg>
