<svg width="500" height="345" viewBox="0 0 500 345" fill="none" xmlns="http://www.w3.org/2000/svg">
<path d="M499.991 209.421C499.991 163.798 468.861 125.231 426.507 113.448C414.248 72.0707 375.554 41.7768 329.84 41.7768C317.29 41.7768 305.267 44.0589 294.17 48.2411C270.986 18.8746 235.107 0 194.906 0C129.159 0 74.9637 50.505 68.9975 114.802C28.9502 127.985 0 165.416 0 209.421C0 260.608 39.1664 302.893 89.4025 308.485V272.672C58.7722 267.381 35.4159 241.033 35.4159 209.421C35.4159 184.5 49.9183 162.862 71.0498 152.215C79.9673 147.724 90.0563 145.187 100.736 145.187C102.443 145.187 104.132 145.251 105.812 145.387C104.541 139.323 103.869 133.04 103.869 126.603C103.869 120.876 104.395 115.275 105.421 109.838C113.295 67.5612 150.427 35.458 194.906 35.458C222.176 35.458 246.695 47.5229 263.385 66.6157C271.404 75.7711 277.615 86.5358 281.466 98.3552C289.63 89.4997 300.282 82.8809 312.323 79.5897C317.899 78.0532 323.774 77.2349 329.84 77.2349C354.432 77.2349 375.89 90.6726 387.023 110.465C392.209 119.666 395.16 130.24 395.16 141.478C395.16 142.769 395.124 144.051 395.042 145.323C396.44 145.233 397.839 145.187 399.255 145.187C410.334 145.187 420.777 147.915 429.931 152.724C450.527 163.543 464.575 184.9 464.575 209.421C464.575 232.414 452.216 252.607 433.709 263.962C424.61 245.242 405.43 232.341 383.236 232.341C357.428 232.341 335.697 249.797 329.15 273.554H312.495V309.049H331.003C339.194 329.914 359.481 344.698 383.236 344.698C409.762 344.698 431.965 326.269 437.822 301.502C474.283 286.492 500 250.879 500 209.421H499.991ZM383.227 336.515C356.793 336.515 335.289 314.986 335.289 288.519C335.289 262.053 356.793 240.524 383.227 240.524C409.662 240.524 431.166 262.053 431.166 288.519C431.166 314.986 409.662 336.515 383.227 336.515Z" fill="#343433"/>
<path d="M333.055 74.4912C364.902 74.4912 390.801 100.43 390.801 132.306C390.801 164.182 364.893 190.121 333.055 190.121C301.217 190.121 275.309 164.182 275.309 132.306C275.309 100.43 301.217 74.4912 333.055 74.4912ZM333.055 66.3086C296.649 66.3086 267.136 95.857 267.136 132.306C267.136 168.755 296.649 198.303 333.055 198.303C369.46 198.303 398.974 168.755 398.974 132.306C398.974 95.857 369.46 66.3086 333.055 66.3086Z" fill="#343433"/>
<path d="M226.652 222.969H177.042C171.757 222.969 167.462 227.269 167.462 232.561V328.543C167.462 333.834 171.757 338.135 177.042 338.135H226.652C231.937 338.135 236.232 333.834 236.232 328.543V232.561C236.232 227.269 231.937 222.969 226.652 222.969ZM204.376 321.797C203.704 322.46 202.787 322.842 201.843 322.842C200.898 322.842 199.981 322.46 199.309 321.797C198.646 321.124 198.265 320.206 198.265 319.26C198.265 318.314 198.646 317.396 199.309 316.723C199.972 316.06 200.898 315.678 201.843 315.678C202.787 315.678 203.704 316.06 204.376 316.723C205.039 317.396 205.421 318.314 205.421 319.26C205.421 320.206 205.039 321.124 204.376 321.797ZM215.446 265.355H188.003C186.014 265.355 184.407 263.745 184.407 261.754C184.407 259.763 186.014 258.154 188.003 258.154H215.446C217.435 258.154 219.042 259.763 219.042 261.754C219.042 263.745 217.435 265.355 215.446 265.355ZM215.446 250.781H188.003C186.014 250.781 184.407 249.171 184.407 247.18C184.407 245.189 186.014 243.58 188.003 243.58H215.446C217.435 243.58 219.042 245.189 219.042 247.18C219.042 249.171 217.435 250.781 215.446 250.781Z" fill="#343433"/>
<path d="M152.224 238.891H109.471C104.921 238.891 101.207 242.6 101.207 247.164V329.881C101.207 334.445 104.912 338.155 109.471 338.155H152.224C156.774 338.155 160.488 334.445 160.488 329.881V247.164C160.488 242.609 156.783 238.891 152.224 238.891ZM133.027 324.054C132.455 324.626 131.656 324.954 130.847 324.954C130.039 324.954 129.24 324.626 128.668 324.054C128.096 323.481 127.769 322.681 127.769 321.872C127.769 321.062 128.096 320.262 128.668 319.689C129.24 319.117 130.039 318.789 130.847 318.789C131.656 318.789 132.455 319.117 133.027 319.689C133.599 320.262 133.926 321.062 133.926 321.872C133.926 322.681 133.599 323.481 133.027 324.054ZM142.562 275.421H118.915C117.208 275.421 115.818 274.03 115.818 272.321C115.818 270.612 117.208 269.221 118.915 269.221H142.562C144.269 269.221 145.659 270.612 145.659 272.321C145.659 274.03 144.269 275.421 142.562 275.421ZM142.562 262.857H118.915C117.208 262.857 115.818 261.466 115.818 259.756C115.818 258.047 117.208 256.656 118.915 256.656H142.562C144.269 256.656 145.659 258.047 145.659 259.756C145.659 261.466 144.269 262.857 142.562 262.857Z" fill="#343433"/>
<path d="M294.224 238.891H251.471C246.921 238.891 243.207 242.6 243.207 247.164V329.881C243.207 334.445 246.912 338.155 251.471 338.155H294.224C298.774 338.155 302.488 334.445 302.488 329.881V247.164C302.488 242.609 298.783 238.891 294.224 238.891ZM275.027 324.054C274.455 324.626 273.656 324.954 272.847 324.954C272.039 324.954 271.24 324.626 270.668 324.054C270.096 323.481 269.769 322.681 269.769 321.872C269.769 321.062 270.096 320.262 270.668 319.689C271.24 319.117 272.039 318.789 272.847 318.789C273.656 318.789 274.455 319.117 275.027 319.689C275.599 320.262 275.926 321.062 275.926 321.872C275.926 322.681 275.599 323.481 275.027 324.054ZM284.562 275.421H260.915C259.208 275.421 257.818 274.03 257.818 272.321C257.818 270.612 259.208 269.221 260.915 269.221H284.562C286.269 269.221 287.659 270.612 287.659 272.321C287.659 274.03 286.269 275.421 284.562 275.421ZM284.562 262.857H260.915C259.208 262.857 257.818 261.466 257.818 259.756C257.818 258.047 259.208 256.656 260.915 256.656H284.562C286.269 256.656 287.659 258.047 287.659 259.756C287.659 261.466 286.269 262.857 284.562 262.857Z" fill="#343433"/>
<path d="M323.882 99.0587L332.473 91.8398H332.5C332.809 91.8853 333.109 91.9399 333.408 91.9944C351.843 95.6675 363.793 113.642 360.107 132.071C356.465 150.355 338.839 162.247 320.622 158.901C324.554 158.01 328.332 156.201 331.638 153.437C342.698 144.145 344.151 127.634 334.861 116.551C329.54 110.205 321.848 107.023 314.175 107.214L323.891 99.0496L323.882 99.0587Z" fill="#343433"/>
<path d="M294.479 164.595C292.699 162.477 292.981 159.313 295.097 157.54C297.213 155.758 300.373 156.04 302.144 158.158C303.923 160.277 303.642 163.441 301.526 165.214C299.41 166.996 296.25 166.714 294.479 164.595Z" fill="#343433"/>
<path d="M342.78 179.352C327.306 182.461 312.077 177.788 301.135 168.032C301.77 167.76 302.379 167.396 302.951 166.923C304.095 165.96 304.867 164.714 305.248 163.377C307.637 164.759 310.179 165.923 312.84 166.841C335.615 174.679 360.397 162.532 368.198 139.748C376.026 116.946 363.894 92.1341 341.137 84.3242C360.96 87.5882 376.68 102.79 380.594 122.473C385.842 148.64 368.915 174.106 342.78 179.361V179.352Z" fill="#343433"/>
<path d="M372.048 251.84H391.899L371.295 313C371.186 313.31 371.04 313.61 370.84 313.873C370.641 314.137 370.414 314.373 370.141 314.564C369.869 314.755 369.578 314.91 369.269 315.01C368.961 315.11 368.625 315.164 368.298 315.164H352.851C352.352 315.164 351.852 315.046 351.407 314.819C350.962 314.592 350.572 314.255 350.281 313.846C349.991 313.437 349.8 312.964 349.727 312.464C349.655 311.964 349.7 311.455 349.854 310.982L369.052 254.004C369.16 253.695 369.306 253.395 369.506 253.131C369.705 252.867 369.941 252.631 370.205 252.44C370.468 252.249 370.768 252.094 371.077 251.994C371.394 251.894 371.721 251.84 372.048 251.84Z" fill="#343433"/>
<path d="M408.645 315.145H390.819C390.619 315.145 390.419 315.126 390.229 315.09C390.029 315.054 389.838 314.999 389.656 314.926C389.475 314.854 389.293 314.763 389.121 314.654C388.948 314.545 388.794 314.426 388.648 314.29L368.425 295.379C368.207 295.179 368.062 294.915 367.998 294.634C367.862 294.052 368.107 293.443 368.598 293.106C368.843 292.942 369.124 292.852 369.415 292.852H400.89L408.636 315.145H408.645Z" fill="#343433"/>
<path d="M391.971 251.835L378.077 292.857H400.78L408.572 315.141H390.818C390.637 315.141 390.455 315.123 390.273 315.086C390.092 315.05 389.91 315.004 389.737 314.941C389.392 314.814 389.066 314.632 388.784 314.395L375.135 301.639L371.312 312.922C371.212 313.204 371.076 313.468 370.903 313.723C370.567 314.213 370.095 314.614 369.559 314.868C369.287 314.995 369.006 315.086 368.706 315.141H352.86C352.351 315.141 351.852 315.023 351.407 314.786C350.489 314.313 349.863 313.422 349.727 312.404C349.663 311.904 349.708 311.386 349.881 310.913L369.042 254.026C369.142 253.707 369.296 253.407 369.487 253.135C369.678 252.862 369.914 252.626 370.186 252.426C370.459 252.226 370.749 252.08 371.067 251.971C371.385 251.871 371.712 251.816 372.048 251.816H391.971V251.835Z" fill="#343433"/>
<path d="M416.6 310.966C416.764 311.439 416.809 311.948 416.728 312.448C416.655 312.948 416.464 313.421 416.174 313.83C415.583 314.658 414.621 315.149 413.604 315.149H391.482C391.982 315.149 392.481 315.03 392.926 314.803C393.371 314.576 393.762 314.239 394.052 313.83C394.343 313.421 394.534 312.948 394.606 312.448C394.679 311.948 394.634 311.439 394.479 310.966L375.282 253.988C375.073 253.361 374.664 252.815 374.129 252.424C373.865 252.233 373.566 252.088 373.257 251.979C372.948 251.87 372.621 251.824 372.285 251.824H394.406C394.733 251.824 395.06 251.879 395.378 251.979C395.687 252.079 395.987 252.233 396.25 252.424C396.513 252.615 396.749 252.852 396.949 253.115C397.149 253.379 397.294 253.67 397.403 253.988L416.6 310.966Z" fill="#343433"/>
</svg>
