<svg width="75" height="52" viewBox="0 0 75 52" fill="none" xmlns="http://www.w3.org/2000/svg">
<path d="M74.9987 31.4131C74.9987 24.5697 70.3292 18.7846 63.9761 17.0171C62.1372 10.8106 56.3331 6.26653 49.476 6.26653C47.5935 6.26653 45.7901 6.60883 44.1255 7.23617C40.6479 2.83119 35.2661 0 29.2358 0C19.3739 0 11.2446 7.57575 10.3496 17.2203C4.34253 19.1978 0 24.8125 0 31.4131C0 39.0911 5.87495 45.434 13.4104 46.2728V40.9009C8.81583 40.1071 5.31239 36.1549 5.31239 31.4131C5.31239 27.675 7.48774 24.4292 10.6575 22.8323C11.9951 22.1586 13.5084 21.7781 15.1103 21.7781C15.3664 21.7781 15.6198 21.7876 15.8718 21.8081C15.6811 20.8984 15.5803 19.9561 15.5803 18.9905C15.5803 18.1313 15.6593 17.2913 15.8132 16.4757C16.9942 10.1342 22.564 5.31871 29.2358 5.31871C33.3264 5.31871 37.0042 7.12843 39.5078 9.99235C40.7106 11.3657 41.6423 12.9804 42.2199 14.7533C43.4444 13.425 45.0422 12.4321 46.8484 11.9385C47.6848 11.708 48.5661 11.5852 49.476 11.5852C53.1647 11.5852 56.3835 13.6009 58.0535 16.5698C58.8313 17.95 59.274 19.536 59.274 21.2216C59.274 21.4153 59.2685 21.6076 59.2563 21.7985C59.4661 21.7849 59.6758 21.7781 59.8883 21.7781C61.5501 21.7781 63.1166 22.1872 64.4897 22.9086C67.579 24.5315 69.6863 27.735 69.6863 31.4131C69.6863 34.8621 67.8324 37.891 65.0563 39.5944C63.6914 36.7864 60.8146 34.8512 57.4855 34.8512C53.6143 34.8512 50.3546 37.4696 49.3725 41.0331H46.8743V46.3573H49.6504C50.8791 49.4872 53.9221 51.7047 57.4855 51.7047C61.4643 51.7047 64.7948 48.9403 65.6734 45.2254C71.1424 42.9738 75 37.6319 75 31.4131H74.9987ZM57.4855 50.4759C53.5203 50.4759 50.2947 47.2465 50.2947 43.2765C50.2947 39.3066 53.5203 36.0772 57.4855 36.0772C61.4507 36.0772 64.6763 39.3066 64.6763 43.2765C64.6763 47.2465 61.4507 50.4759 57.4855 50.4759Z" fill="url(#paint0_linear_1022_1621)"/>
<path d="M49.9582 11.1727C54.7352 11.1727 58.6201 15.0635 58.6201 19.8449C58.6201 24.6263 54.7339 28.5171 49.9582 28.5171C45.1825 28.5171 41.2962 24.6263 41.2962 19.8449C41.2962 15.0635 45.1825 11.1727 49.9582 11.1727ZM49.9582 9.94531C44.4973 9.94531 40.0703 14.3776 40.0703 19.8449C40.0703 25.3123 44.4973 29.7445 49.9582 29.7445C55.419 29.7445 59.846 25.3123 59.846 19.8449C59.846 14.3776 55.419 9.94531 49.9582 9.94531Z" fill="url(#paint1_linear_1022_1621)"/>
<path d="M33.9977 33.4453H26.5562C25.7634 33.4453 25.1191 34.0904 25.1191 34.8841V49.2814C25.1191 50.0751 25.7634 50.7202 26.5562 50.7202H33.9977C34.7904 50.7202 35.4347 50.0751 35.4347 49.2814V34.8841C35.4347 34.0904 34.7904 33.4453 33.9977 33.4453ZM30.6563 48.2681C30.5555 48.3677 30.4179 48.425 30.2763 48.425C30.1346 48.425 29.997 48.3677 29.8962 48.2681C29.7968 48.1672 29.7396 48.0295 29.7396 47.8876C29.7396 47.7458 29.7968 47.6081 29.8962 47.5072C29.9956 47.4076 30.1346 47.3503 30.2763 47.3503C30.4179 47.3503 30.5555 47.4076 30.6563 47.5072C30.7557 47.6081 30.8129 47.7458 30.8129 47.8876C30.8129 48.0295 30.7557 48.1672 30.6563 48.2681ZM32.3168 39.8018H28.2003C27.902 39.8018 27.6609 39.5605 27.6609 39.2618C27.6609 38.9631 27.902 38.7217 28.2003 38.7217H32.3168C32.6151 38.7217 32.8562 38.9631 32.8562 39.2618C32.8562 39.5605 32.6151 39.8018 32.3168 39.8018ZM32.3168 37.6171H28.2003C27.902 37.6171 27.6609 37.3757 27.6609 37.077C27.6609 36.7784 27.902 36.537 28.2003 36.537H32.3168C32.6151 36.537 32.8562 36.7784 32.8562 37.077C32.8562 37.3757 32.6151 37.6171 32.3168 37.6171Z" fill="url(#paint2_linear_1022_1621)"/>
<path d="M22.8332 35.832H16.4202C15.7378 35.832 15.1807 36.3884 15.1807 37.0731V49.4807C15.1807 50.1653 15.7364 50.7217 16.4202 50.7217H22.8332C23.5157 50.7217 24.0728 50.1653 24.0728 49.4807V37.0731C24.0728 36.3898 23.517 35.832 22.8332 35.832ZM19.9536 48.6065C19.8678 48.6924 19.748 48.7415 19.6267 48.7415C19.5055 48.7415 19.3856 48.6924 19.2998 48.6065C19.214 48.5206 19.165 48.4005 19.165 48.2792C19.165 48.1578 19.214 48.0378 19.2998 47.9519C19.3856 47.8659 19.5055 47.8169 19.6267 47.8169C19.748 47.8169 19.8678 47.8659 19.9536 47.9519C20.0395 48.0378 20.0885 48.1578 20.0885 48.2792C20.0885 48.4005 20.0395 48.5206 19.9536 48.6065ZM21.3839 41.3103H17.8369C17.5808 41.3103 17.3724 41.1016 17.3724 40.8453C17.3724 40.5889 17.5808 40.3802 17.8369 40.3802H21.3839C21.64 40.3802 21.8484 40.5889 21.8484 40.8453C21.8484 41.1016 21.64 41.3103 21.3839 41.3103ZM21.3839 39.4269H17.8369C17.5808 39.4269 17.3724 39.2183 17.3724 38.9619C17.3724 38.7055 17.5808 38.4968 17.8369 38.4968H21.3839C21.64 38.4968 21.8484 38.7055 21.8484 38.9619C21.8484 39.2183 21.64 39.4269 21.3839 39.4269Z" fill="url(#paint3_linear_1022_1621)"/>
<path d="M44.134 35.832H37.721C37.0385 35.832 36.4814 36.3884 36.4814 37.0731V49.4807C36.4814 50.1653 37.0372 50.7217 37.721 50.7217H44.134C44.8164 50.7217 45.3735 50.1653 45.3735 49.4807V37.0731C45.3735 36.3898 44.8178 35.832 44.134 35.832ZM41.2544 48.6065C41.1686 48.6924 41.0487 48.7415 40.9275 48.7415C40.8063 48.7415 40.6864 48.6924 40.6006 48.6065C40.5148 48.5206 40.4657 48.4005 40.4657 48.2792C40.4657 48.1578 40.5148 48.0378 40.6006 47.9519C40.6864 47.8659 40.8063 47.8169 40.9275 47.8169C41.0487 47.8169 41.1686 47.8659 41.2544 47.9519C41.3402 48.0378 41.3892 48.1578 41.3892 48.2792C41.3892 48.4005 41.3402 48.5206 41.2544 48.6065ZM42.686 41.3103H39.139C38.8829 41.3103 38.6745 41.1016 38.6745 40.8453C38.6745 40.5889 38.8829 40.3802 39.139 40.3802H42.686C42.9421 40.3802 43.1505 40.5889 43.1505 40.8453C43.1505 41.1016 42.9421 41.3103 42.686 41.3103ZM42.686 39.4269H39.139C38.8829 39.4269 38.6745 39.2183 38.6745 38.9619C38.6745 38.7055 38.8829 38.4968 39.139 38.4968H42.686C42.9421 38.4968 43.1505 38.7055 43.1505 38.9619C43.1505 39.2183 42.9421 39.4269 42.686 39.4269Z" fill="url(#paint4_linear_1022_1621)"/>
<path d="M48.5841 14.8563L49.8727 13.7734H49.8767C49.9231 13.7803 49.968 13.7884 50.013 13.7966C52.7781 14.3476 54.5707 17.0438 54.0177 19.8081C53.4715 22.5507 50.8275 24.3345 48.0951 23.8326C48.6849 23.699 49.2515 23.4276 49.7473 23.013C51.4064 21.6192 51.6244 19.1426 50.2309 17.4802C49.4327 16.5283 48.2789 16.0509 47.1279 16.0796L48.5854 14.8549L48.5841 14.8563Z" fill="#303446"/>
<path d="M44.1718 24.6874C43.9048 24.3696 43.9471 23.895 44.2644 23.6291C44.5818 23.3618 45.0559 23.404 45.3215 23.7218C45.5885 24.0396 45.5462 24.5142 45.2289 24.7801C44.9115 25.0474 44.4375 25.0051 44.1718 24.6874Z" fill="#303446"/>
<path d="M51.4187 26.9026C49.0976 27.369 46.8133 26.668 45.1719 25.2047C45.2672 25.1638 45.3585 25.1092 45.4443 25.0383C45.6159 24.8937 45.7317 24.7069 45.7889 24.5064C46.1472 24.7137 46.5286 24.8883 46.9277 25.026C50.344 26.2016 54.0613 24.3796 55.2314 20.962C56.4055 17.5416 54.5857 13.8199 51.1722 12.6484C54.1457 13.138 56.5036 15.4183 57.0907 18.3708C57.878 22.2958 55.339 26.1157 51.4187 26.9039V26.9026Z" fill="#303446"/>
<path d="M52.827 44.3773C53.4289 44.3773 53.9167 43.8889 53.9167 43.2863C53.9167 42.6838 53.4289 42.1953 52.827 42.1953C52.2252 42.1953 51.7373 42.6838 51.7373 43.2863C51.7373 43.8889 52.2252 44.3773 52.827 44.3773Z" fill="#FF5722"/>
<path d="M60.0204 48.5258C60.6222 48.5258 61.1101 48.0373 61.1101 47.4348C61.1101 46.8322 60.6222 46.3438 60.0204 46.3438C59.4185 46.3438 58.9307 46.8322 58.9307 47.4348C58.9307 48.0373 59.4185 48.5258 60.0204 48.5258Z" fill="#FF5722"/>
<path d="M60.0204 40.2289C60.6222 40.2289 61.1101 39.7404 61.1101 39.1379C61.1101 38.5353 60.6222 38.0469 60.0204 38.0469C59.4185 38.0469 58.9307 38.5353 58.9307 39.1379C58.9307 39.7404 59.4185 40.2289 60.0204 40.2289Z" fill="#FF5722"/>
<path d="M57.0669 41.0719C57.1159 41.1564 57.214 41.1987 57.3094 41.1741C58.4522 40.8796 59.621 41.5546 59.9383 42.6934C59.9642 42.7875 60.05 42.8529 60.1481 42.8529H61.9298C62.0497 42.8529 62.1477 42.7547 62.1477 42.6347C62.1477 42.6238 62.1477 42.6116 62.145 42.6006C62.0183 41.8069 61.6751 41.0623 61.1534 40.4527C61.0812 40.3695 60.9586 40.3531 60.8673 40.4145C60.6167 40.5823 60.3238 40.6709 60.0228 40.6709C59.1891 40.6682 58.5108 39.9986 58.4958 39.1639C58.4944 39.0535 58.41 38.9621 58.301 38.9498C57.6172 38.8775 56.9266 38.9689 56.2837 39.2144C56.1706 39.258 56.1148 39.3835 56.1584 39.4967C56.1625 39.5076 56.1679 39.5172 56.1733 39.5281L57.0669 41.0746V41.0719Z" fill="#FF5722"/>
<path d="M61.9303 43.7266H60.1486C60.0506 43.7266 59.9647 43.792 59.9388 43.8861C59.6228 45.0249 58.4527 45.6999 57.3099 45.4054C57.2159 45.3822 57.1165 45.4231 57.0674 45.5076L56.1766 47.0542C56.1166 47.1592 56.1521 47.2915 56.257 47.3528C56.2665 47.3583 56.2774 47.3637 56.2883 47.3678C56.9299 47.616 57.6218 47.7074 58.3056 47.6324C58.416 47.6201 58.499 47.5288 58.5004 47.4183C58.5099 46.5768 59.1992 45.9018 60.041 45.9113C60.3366 45.9141 60.624 46.0041 60.8692 46.1677C60.9604 46.2291 61.0844 46.2114 61.1552 46.1282C61.6769 45.5172 62.0202 44.7739 62.1469 43.9816C62.166 43.8629 62.0856 43.7511 61.9657 43.732C61.9548 43.7307 61.9426 43.7293 61.9317 43.7293L61.9303 43.7266Z" fill="#FF5722"/>
<path d="M56.2791 44.8079C55.4564 43.9624 55.4564 42.6136 56.2791 41.7681C56.3472 41.6985 56.3609 41.5908 56.3118 41.5062L55.4223 39.9638C55.391 39.9079 55.3352 39.8697 55.2725 39.8588C55.2099 39.8479 55.1458 39.8642 55.0954 39.9024C54.462 40.4179 53.9853 41.1012 53.721 41.8731C53.691 41.959 53.7183 42.0545 53.7891 42.1131C54.4375 42.6313 54.5438 43.5778 54.0275 44.2269C53.9567 44.3156 53.8777 44.3947 53.7891 44.4656C53.7183 44.5229 53.6924 44.6197 53.721 44.7056C53.9866 45.4775 54.462 46.1608 55.0954 46.6749C55.1349 46.7063 55.1826 46.724 55.233 46.724C55.2466 46.724 55.2589 46.724 55.2725 46.7199C55.3352 46.709 55.3896 46.6695 55.4223 46.6149L56.3118 45.0711C56.3609 44.9866 56.3486 44.8788 56.2805 44.8093L56.2791 44.8079Z" fill="#FF5722"/>
<defs>
<linearGradient id="paint0_linear_1022_1621" x1="59.4916" y1="12.165" x2="31.5282" y2="59.8591" gradientUnits="userSpaceOnUse">
<stop offset="0.278846" stop-color="#33CFFF"/>
<stop offset="1" stop-color="#0D87C5"/>
</linearGradient>
<linearGradient id="paint1_linear_1022_1621" x1="55.7568" y1="14.6036" x2="43.6429" y2="28.8306" gradientUnits="userSpaceOnUse">
<stop offset="0.278846" stop-color="#33CFFF"/>
<stop offset="1" stop-color="#0D87C5"/>
</linearGradient>
<linearGradient id="paint2_linear_1022_1621" x1="33.3017" y1="37.5097" x2="23.2316" y2="44.5803" gradientUnits="userSpaceOnUse">
<stop offset="0.278846" stop-color="#33CFFF"/>
<stop offset="1" stop-color="#0D87C5"/>
</linearGradient>
<linearGradient id="paint3_linear_1022_1621" x1="22.2341" y1="39.3352" x2="13.5541" y2="45.4303" gradientUnits="userSpaceOnUse">
<stop offset="0.278846" stop-color="#33CFFF"/>
<stop offset="1" stop-color="#0D87C5"/>
</linearGradient>
<linearGradient id="paint4_linear_1022_1621" x1="43.5348" y1="39.3352" x2="34.8549" y2="45.4303" gradientUnits="userSpaceOnUse">
<stop offset="0.278846" stop-color="#33CFFF"/>
<stop offset="1" stop-color="#0D87C5"/>
</linearGradient>
</defs>
</svg>
