<svg width="75" height="52" viewBox="0 0 75 52" fill="none" xmlns="http://www.w3.org/2000/svg">
<path d="M74.9986 31.4131C74.9986 24.5697 70.3292 18.7846 63.9761 17.0171C62.1372 10.8106 56.3331 6.26653 49.476 6.26653C47.5935 6.26653 45.7901 6.60883 44.1255 7.23617C40.6479 2.83119 35.2661 0 29.2358 0C19.3739 0 11.2446 7.57575 10.3496 17.2203C4.34254 19.1978 0 24.8124 0 31.4131C0 39.0911 5.87495 45.434 13.4104 46.2727V40.9008C8.81584 40.1071 5.31239 36.1549 5.31239 31.4131C5.31239 27.675 7.48774 24.4292 10.6575 22.8322C11.9951 22.1585 13.5084 21.7781 15.1103 21.7781C15.3664 21.7781 15.6198 21.7876 15.8718 21.8081C15.6811 20.8984 15.5803 19.9561 15.5803 18.9905C15.5803 18.1313 15.6593 17.2912 15.8132 16.4757C16.9942 10.1342 22.564 5.31871 29.2358 5.31871C33.3264 5.31871 37.0042 7.12843 39.5078 9.99235C40.7106 11.3657 41.6423 12.9804 42.2199 14.7533C43.4444 13.425 45.0422 12.4321 46.8484 11.9384C47.6848 11.708 48.5661 11.5852 49.476 11.5852C53.1647 11.5852 56.3835 13.6009 58.0535 16.5698C58.8313 17.9499 59.274 19.536 59.274 21.2216C59.274 21.4153 59.2685 21.6076 59.2563 21.7985C59.466 21.7849 59.6758 21.7781 59.8883 21.7781C61.5501 21.7781 63.1166 22.1872 64.4897 22.9086C67.579 24.5315 69.6863 27.735 69.6863 31.4131C69.6863 34.8621 67.8324 37.891 65.0563 39.5944C63.6914 36.7863 60.8146 34.8512 57.4855 34.8512C53.6142 34.8512 50.3546 37.4696 49.3725 41.0331H46.8743V46.3573H49.6504C50.879 49.4871 53.9221 51.7046 57.4855 51.7046C61.4643 51.7046 64.7948 48.9403 65.6734 45.2254C71.1424 42.9738 75 37.6319 75 31.4131H74.9986ZM57.4841 50.4772C53.5189 50.4772 50.2933 47.2478 50.2933 43.2779C50.2933 39.308 53.5189 36.0786 57.4841 36.0786C61.4493 36.0786 64.6749 39.308 64.6749 43.2779C64.6749 47.2478 61.4493 50.4772 57.4841 50.4772Z" fill="#343433"/>
<path d="M49.9582 11.1727C54.7352 11.1727 58.6201 15.0635 58.6201 19.8449C58.6201 24.6263 54.7339 28.5171 49.9582 28.5171C45.1825 28.5171 41.2962 24.6263 41.2962 19.8449C41.2962 15.0635 45.1825 11.1727 49.9582 11.1727ZM49.9582 9.94531C44.4973 9.94531 40.0703 14.3776 40.0703 19.8449C40.0703 25.3123 44.4973 29.7445 49.9582 29.7445C55.419 29.7445 59.846 25.3123 59.846 19.8449C59.846 14.3776 55.419 9.94531 49.9582 9.94531Z" fill="#343433"/>
<path d="M33.9976 33.4453H26.5562C25.7634 33.4453 25.1191 34.0904 25.1191 34.8841V49.2814C25.1191 50.0751 25.7634 50.7202 26.5562 50.7202H33.9976C34.7904 50.7202 35.4347 50.0751 35.4347 49.2814V34.8841C35.4347 34.0904 34.7904 33.4453 33.9976 33.4453ZM30.6563 48.2695C30.5555 48.3691 30.4179 48.4263 30.2762 48.4263C30.1346 48.4263 29.997 48.3691 29.8962 48.2695C29.7968 48.1686 29.7396 48.0308 29.7396 47.889C29.7396 47.7472 29.7968 47.6094 29.8962 47.5085C29.9956 47.409 30.1346 47.3517 30.2762 47.3517C30.4179 47.3517 30.5555 47.409 30.6563 47.5085C30.7557 47.6094 30.8129 47.7472 30.8129 47.889C30.8129 48.0308 30.7557 48.1686 30.6563 48.2695ZM32.3167 39.8032H28.2003C27.902 39.8032 27.6609 39.5618 27.6609 39.2632C27.6609 38.9645 27.902 38.7231 28.2003 38.7231H32.3167C32.6151 38.7231 32.8562 38.9645 32.8562 39.2632C32.8562 39.5618 32.6151 39.8032 32.3167 39.8032ZM32.3167 37.6171H28.2003C27.902 37.6171 27.6609 37.3757 27.6609 37.077C27.6609 36.7784 27.902 36.537 28.2003 36.537H32.3167C32.6151 36.537 32.8562 36.7784 32.8562 37.077C32.8562 37.3757 32.6151 37.6171 32.3167 37.6171Z" fill="#343433"/>
<path d="M22.8332 35.832H16.4202C15.7378 35.832 15.1807 36.3885 15.1807 37.0731V49.4806C15.1807 50.1653 15.7364 50.7217 16.4202 50.7217H22.8332C23.5157 50.7217 24.0728 50.1653 24.0728 49.4806V37.0731C24.0728 36.3898 23.517 35.832 22.8332 35.832ZM19.9536 48.6065C19.8678 48.6924 19.748 48.7415 19.6267 48.7415C19.5055 48.7415 19.3856 48.6924 19.2998 48.6065C19.214 48.5206 19.165 48.4005 19.165 48.2792C19.165 48.1578 19.214 48.0378 19.2998 47.9519C19.3856 47.8659 19.5055 47.8168 19.6267 47.8168C19.748 47.8168 19.8678 47.8659 19.9536 47.9519C20.0395 48.0378 20.0885 48.1578 20.0885 48.2792C20.0885 48.4005 20.0395 48.5206 19.9536 48.6065ZM21.3839 41.3117H17.8369C17.5808 41.3117 17.3724 41.103 17.3724 40.8466C17.3724 40.5902 17.5808 40.3816 17.8369 40.3816H21.3839C21.64 40.3816 21.8484 40.5902 21.8484 40.8466C21.8484 41.103 21.64 41.3117 21.3839 41.3117ZM21.3839 39.4269H17.8369C17.5808 39.4269 17.3724 39.2183 17.3724 38.9619C17.3724 38.7055 17.5808 38.4968 17.8369 38.4968H21.3839C21.64 38.4968 21.8484 38.7055 21.8484 38.9619C21.8484 39.2183 21.64 39.4269 21.3839 39.4269Z" fill="#343433"/>
<path d="M44.134 35.832H37.721C37.0386 35.832 36.4814 36.3885 36.4814 37.0731V49.4806C36.4814 50.1653 37.0372 50.7217 37.721 50.7217H44.134C44.8164 50.7217 45.3736 50.1653 45.3736 49.4806V37.0731C45.3736 36.3898 44.8178 35.832 44.134 35.832ZM41.2544 48.6065C41.1686 48.6924 41.0487 48.7415 40.9275 48.7415C40.8063 48.7415 40.6864 48.6924 40.6006 48.6065C40.5148 48.5206 40.4657 48.4005 40.4657 48.2792C40.4657 48.1578 40.5148 48.0378 40.6006 47.9519C40.6864 47.8659 40.8063 47.8168 40.9275 47.8168C41.0487 47.8168 41.1686 47.8659 41.2544 47.9519C41.3402 48.0378 41.3893 48.1578 41.3893 48.2792C41.3893 48.4005 41.3402 48.5206 41.2544 48.6065ZM42.6847 41.3117H39.1376C38.8816 41.3117 38.6731 41.103 38.6731 40.8466C38.6731 40.5902 38.8816 40.3816 39.1376 40.3816H42.6847C42.9408 40.3816 43.1492 40.5902 43.1492 40.8466C43.1492 41.103 42.9408 41.3117 42.6847 41.3117ZM42.6847 39.4269H39.1376C38.8816 39.4269 38.6731 39.2183 38.6731 38.9619C38.6731 38.7055 38.8816 38.4968 39.1376 38.4968H42.6847C42.9408 38.4968 43.1492 38.7055 43.1492 38.9619C43.1492 39.2183 42.9408 39.4269 42.6847 39.4269Z" fill="#343433"/>
<path d="M48.5821 14.8563L49.8707 13.7734H49.8748C49.9211 13.7803 49.9661 13.7884 50.011 13.7966C52.7762 14.3476 54.5688 17.0438 54.0157 19.8081C53.4695 22.5507 50.8256 24.3345 48.0931 23.8326C48.6829 23.699 49.2496 23.4276 49.7454 23.013C51.4045 21.6192 51.6224 19.1426 50.229 17.4802C49.4307 16.5283 48.277 16.0509 47.126 16.0796L48.5835 14.8549L48.5821 14.8563Z" fill="#343433"/>
<path d="M44.1718 24.6874C43.9048 24.3696 43.9471 23.895 44.2645 23.6291C44.5818 23.3618 45.0559 23.404 45.3215 23.7218C45.5885 24.0396 45.5462 24.5142 45.2289 24.7801C44.9115 25.0474 44.4374 25.0051 44.1718 24.6874Z" fill="#343433"/>
<path d="M51.4167 26.9026C49.0956 27.369 46.8113 26.668 45.1699 25.2047C45.2653 25.1638 45.3565 25.1092 45.4424 25.0383C45.614 24.8937 45.7298 24.7069 45.787 24.5064C46.1452 24.7137 46.5266 24.8883 46.9257 25.026C50.342 26.2016 54.0593 24.3796 55.2294 20.962C56.4036 17.5416 54.5837 13.8199 51.1702 12.6484C54.1438 13.138 56.5017 15.4183 57.0887 18.3708C57.8761 22.2958 55.337 26.1157 51.4167 26.9039V26.9026Z" fill="#343433"/>
<path d="M55.8073 37.7734H58.785L55.6943 46.9475C55.6779 46.9939 55.6561 47.0389 55.6262 47.0784C55.5962 47.118 55.5622 47.1535 55.5213 47.1821C55.4804 47.2107 55.4368 47.2339 55.3905 47.2489C55.3442 47.2639 55.2938 47.2721 55.2448 47.2721H52.9278C52.8528 47.2721 52.7779 47.2544 52.7112 47.2203C52.6444 47.1862 52.5859 47.1357 52.5423 47.0744C52.4987 47.013 52.4701 46.9421 52.4592 46.8671C52.4483 46.7921 52.4551 46.7157 52.4782 46.6448L55.3578 38.098C55.3742 38.0516 55.396 38.0066 55.4259 37.9671C55.4559 37.9275 55.4913 37.8921 55.5308 37.8634C55.5703 37.8348 55.6153 37.8116 55.6616 37.7966C55.7093 37.7816 55.7583 37.7734 55.8073 37.7734Z" fill="#343433"/>
<path d="M61.2969 47.2737H58.623C58.593 47.2737 58.5631 47.2709 58.5345 47.2655C58.5045 47.26 58.4759 47.2518 58.4487 47.2409C58.4214 47.23 58.3942 47.2164 58.3683 47.2C58.3424 47.1836 58.3193 47.1659 58.2975 47.1455L55.264 44.3088C55.2313 44.2788 55.2095 44.2393 55.1999 44.197C55.1795 44.1097 55.2163 44.0183 55.2898 43.9679C55.3266 43.9433 55.3688 43.9297 55.4124 43.9297H60.1336L61.2956 47.2737H61.2969Z" fill="#343433"/>
<path d="M58.7959 37.7762L56.7118 43.9295H60.1172L61.2859 47.2721H58.6229C58.5957 47.2721 58.5684 47.2694 58.5412 47.2639C58.5139 47.2585 58.4867 47.2516 58.4608 47.2421C58.4091 47.223 58.36 47.1957 58.3178 47.1603L56.2705 45.2469L55.697 46.9393C55.682 46.9816 55.6616 47.0212 55.6357 47.0594C55.5853 47.133 55.5145 47.193 55.4341 47.2312C55.3933 47.2503 55.351 47.2639 55.3061 47.2721H52.9291C52.8528 47.2721 52.7779 47.2544 52.7112 47.2189C52.5736 47.148 52.4796 47.0143 52.4592 46.8616C52.4496 46.7866 52.4565 46.7089 52.4823 46.6379L55.3565 38.1048C55.3715 38.0571 55.3946 38.0121 55.4232 37.9712C55.4518 37.9303 55.4872 37.8948 55.5281 37.8648C55.569 37.8348 55.6126 37.813 55.6602 37.7966C55.7079 37.7816 55.757 37.7734 55.8074 37.7734H58.7959V37.7762Z" fill="#343433"/>
<path d="M62.4901 46.6448C62.5146 46.7157 62.5214 46.7921 62.5091 46.8671C62.4982 46.9421 62.4696 47.013 62.426 47.0744C62.3375 47.1985 62.1931 47.2721 62.0406 47.2721H58.7224C58.7973 47.2721 58.8722 47.2544 58.9389 47.2203C59.0057 47.1862 59.0643 47.1357 59.1078 47.0744C59.1514 47.013 59.18 46.9421 59.1909 46.8671C59.2018 46.7921 59.195 46.7157 59.1719 46.6448L56.2923 38.098C56.261 38.0039 56.1997 37.9221 56.1193 37.8634C56.0798 37.8348 56.0348 37.813 55.9885 37.7966C55.9422 37.7803 55.8932 37.7734 55.8428 37.7734H59.161C59.21 37.7734 59.259 37.7816 59.3067 37.7966C59.353 37.8116 59.398 37.8348 59.4375 37.8634C59.477 37.8921 59.5124 37.9275 59.5424 37.9671C59.5723 38.0066 59.5941 38.0503 59.6105 38.098L62.4901 46.6448Z" fill="#343433"/>
</svg>
