<svg width="500" height="345" viewBox="0 0 500 345" fill="none" xmlns="http://www.w3.org/2000/svg">
<path d="M499.991 209.421C499.991 163.798 468.861 125.231 426.508 113.448C414.248 72.0707 375.554 41.7769 329.84 41.7769C317.29 41.7769 305.267 44.0589 294.17 48.2411C270.986 18.8746 235.107 0 194.906 0C129.159 0 74.9637 50.505 68.9974 114.802C28.9502 127.985 0 165.416 0 209.421C0 260.608 39.1663 302.893 89.4024 308.485V272.672C58.7722 267.381 35.4159 241.033 35.4159 209.421C35.4159 184.5 49.9183 162.862 71.0498 152.215C79.9673 147.724 90.0562 145.187 100.736 145.187C102.443 145.187 104.132 145.251 105.812 145.387C104.541 139.323 103.869 133.04 103.869 126.603C103.869 120.876 104.395 115.275 105.421 109.838C113.295 67.5612 150.427 35.458 194.906 35.458C222.176 35.458 246.695 47.5229 263.385 66.6157C271.404 75.7711 277.615 86.5358 281.466 98.3552C289.629 89.4997 300.281 82.8809 312.323 79.5897C317.899 78.0532 323.774 77.2349 329.84 77.2349C354.432 77.2349 375.89 90.6726 387.023 110.465C392.208 119.666 395.16 130.24 395.16 141.478C395.16 142.769 395.124 144.051 395.042 145.323C396.44 145.233 397.839 145.187 399.255 145.187C410.334 145.187 420.777 147.915 429.931 152.724C450.527 163.543 464.575 184.9 464.575 209.421C464.575 232.414 452.216 252.607 433.709 263.962C424.61 245.242 405.43 232.341 383.237 232.341C357.428 232.341 335.697 249.797 329.15 273.554H312.495V309.049H331.003C339.194 329.914 359.481 344.698 383.237 344.698C409.762 344.698 431.965 326.269 437.822 301.502C474.283 286.492 500 250.879 500 209.421H499.991ZM383.227 336.515C356.793 336.515 335.289 314.986 335.289 288.519C335.289 262.053 356.793 240.524 383.227 240.524C409.662 240.524 431.166 262.053 431.166 288.519C431.166 314.986 409.662 336.515 383.227 336.515Z" fill="#343433"/>
<path d="M333.055 74.499C364.902 74.499 390.801 100.438 390.801 132.314C390.801 164.19 364.893 190.129 333.055 190.129C301.217 190.129 275.309 164.19 275.309 132.314C275.309 100.438 301.217 74.499 333.055 74.499ZM333.055 66.3164C296.649 66.3164 267.136 95.8648 267.136 132.314C267.136 168.763 296.649 198.311 333.055 198.311C369.46 198.311 398.974 168.763 398.974 132.314C398.974 95.8648 369.46 66.3164 333.055 66.3164Z" fill="#343433"/>
<path d="M226.643 222.969H177.034C171.748 222.969 167.453 227.269 167.453 232.561V328.543C167.453 333.834 171.748 338.135 177.034 338.135H226.643C231.928 338.135 236.224 333.834 236.224 328.543V232.561C236.224 227.269 231.928 222.969 226.643 222.969ZM204.367 321.797C203.695 322.46 202.778 322.842 201.834 322.842C200.889 322.842 199.972 322.46 199.3 321.797C198.637 321.124 198.256 320.206 198.256 319.26C198.256 318.315 198.637 317.396 199.3 316.723C199.963 316.06 200.889 315.678 201.834 315.678C202.778 315.678 203.695 316.06 204.367 316.723C205.03 317.396 205.412 318.315 205.412 319.26C205.412 320.206 205.03 321.124 204.367 321.797ZM215.437 265.355H187.994C186.006 265.355 184.398 263.745 184.398 261.754C184.398 259.763 186.006 258.154 187.994 258.154H215.437C217.426 258.154 219.033 259.763 219.033 261.754C219.033 263.745 217.426 265.355 215.437 265.355ZM215.437 250.781H187.994C186.006 250.781 184.398 249.171 184.398 247.18C184.398 245.189 186.006 243.58 187.994 243.58H215.437C217.426 243.58 219.033 245.189 219.033 247.18C219.033 249.171 217.426 250.781 215.437 250.781Z" fill="#343433"/>
<path d="M152.215 238.898H109.462C104.912 238.898 101.198 242.608 101.198 247.172V329.889C101.198 334.453 104.903 338.163 109.462 338.163H152.215C156.765 338.163 160.479 334.453 160.479 329.889V247.172C160.479 242.617 156.774 238.898 152.215 238.898ZM133.018 324.061C132.446 324.634 131.647 324.961 130.839 324.961C130.03 324.961 129.231 324.634 128.659 324.061C128.087 323.489 127.76 322.689 127.76 321.879C127.76 321.07 128.087 320.27 128.659 319.697C129.231 319.125 130.03 318.797 130.839 318.797C131.647 318.797 132.446 319.125 133.018 319.697C133.59 320.27 133.917 321.07 133.917 321.879C133.917 322.689 133.59 323.489 133.018 324.061ZM142.562 275.42H118.915C117.208 275.42 115.819 274.029 115.819 272.32C115.819 270.611 117.208 269.22 118.915 269.22H142.562C144.269 269.22 145.659 270.611 145.659 272.32C145.659 274.029 144.269 275.42 142.562 275.42ZM142.562 262.864H118.915C117.208 262.864 115.819 261.473 115.819 259.764C115.819 258.055 117.208 256.664 118.915 256.664H142.562C144.269 256.664 145.659 258.055 145.659 259.764C145.659 261.473 144.269 262.864 142.562 262.864Z" fill="#343433"/>
<path d="M294.214 238.898H251.461C246.911 238.898 243.197 242.608 243.197 247.172V329.889C243.197 334.453 246.902 338.163 251.461 338.163H294.214C298.764 338.163 302.478 334.453 302.478 329.889V247.172C302.478 242.617 298.773 238.898 294.214 238.898ZM275.017 324.061C274.445 324.634 273.646 324.961 272.838 324.961C272.029 324.961 271.23 324.634 270.658 324.061C270.086 323.489 269.759 322.689 269.759 321.879C269.759 321.07 270.086 320.27 270.658 319.697C271.23 319.125 272.029 318.797 272.838 318.797C273.646 318.797 274.445 319.125 275.017 319.697C275.589 320.27 275.916 321.07 275.916 321.879C275.916 322.689 275.589 323.489 275.017 324.061ZM284.561 275.42H260.914C259.207 275.42 257.818 274.029 257.818 272.32C257.818 270.611 259.207 269.22 260.914 269.22H284.561C286.269 269.22 287.658 270.611 287.658 272.32C287.658 274.029 286.269 275.42 284.561 275.42ZM284.561 262.864H260.914C259.207 262.864 257.818 261.473 257.818 259.764C257.818 258.055 259.207 256.664 260.914 256.664H284.561C286.269 256.664 287.658 258.055 287.658 259.764C287.658 261.473 286.269 262.864 284.561 262.864Z" fill="#343433"/>
<path d="M323.883 99.0587L332.474 91.8398H332.501C332.81 91.8853 333.11 91.9399 333.409 91.9944C351.844 95.6675 363.794 113.642 360.108 132.071C356.466 150.355 338.84 162.247 320.623 158.901C324.555 158.01 328.333 156.201 331.639 153.437C342.699 144.145 344.152 127.634 334.862 116.551C329.541 110.205 321.849 107.023 314.176 107.214L323.893 99.0496L323.883 99.0587Z" fill="#343433"/>
<path d="M294.479 164.603C292.699 162.485 292.981 159.321 295.097 157.548C297.213 155.766 300.373 156.048 302.144 158.166C303.923 160.285 303.642 163.449 301.526 165.221C299.41 167.003 296.25 166.722 294.479 164.603Z" fill="#343433"/>
<path d="M342.781 179.352C327.307 182.461 312.078 177.788 301.136 168.032C301.771 167.76 302.38 167.396 302.952 166.923C304.096 165.96 304.868 164.714 305.249 163.377C307.638 164.759 310.18 165.923 312.841 166.841C335.616 174.679 360.398 162.532 368.199 139.748C376.027 116.946 363.895 92.1341 341.138 84.3242C360.961 87.5882 376.681 102.79 380.595 122.473C385.843 148.64 368.916 174.106 342.781 179.361V179.352Z" fill="#343433"/>
<path d="M376.472 263.464L352.743 266.546C352.08 266.628 351.59 267.201 351.59 267.864V286.339C351.59 287.066 352.18 287.657 352.907 287.657H376.635C377.362 287.657 377.952 287.066 377.952 286.339V264.764C377.952 264.382 377.788 264.028 377.507 263.773C377.216 263.528 376.844 263.409 376.472 263.455V263.464Z" fill="#343433"/>
<path d="M414.412 258.966C414.13 258.711 413.749 258.593 413.376 258.638L381.738 262.766C381.075 262.848 380.585 263.421 380.585 264.084V286.35C380.585 287.078 381.175 287.669 381.902 287.669H413.54C414.266 287.669 414.857 287.078 414.857 286.35V259.957C414.857 259.575 414.693 259.22 414.412 258.966Z" fill="#343433"/>
<path d="M376.635 290.305H352.907C352.18 290.305 351.59 290.896 351.59 291.623V310.098C351.59 310.761 352.08 311.334 352.743 311.416L376.472 314.516C376.526 314.516 376.581 314.516 376.644 314.516C377.371 314.516 377.961 313.925 377.961 313.198V291.623C377.961 290.896 377.371 290.305 376.644 290.305H376.635Z" fill="#343433"/>
<path d="M413.55 290.305H381.911C381.185 290.305 380.595 290.896 380.595 291.623V313.889C380.595 314.553 381.085 315.125 381.748 315.207L413.386 319.335C413.441 319.335 413.495 319.335 413.559 319.335C414.285 319.335 414.876 318.744 414.876 318.017V291.623C414.876 290.896 414.285 290.305 413.559 290.305H413.55Z" fill="#343433"/>
</svg>
