<svg width="500" height="345" viewBox="0 0 500 345" fill="none" xmlns="http://www.w3.org/2000/svg">
<path d="M499.991 209.421C499.991 163.798 468.861 125.231 426.507 113.448C414.248 72.0707 375.554 41.7769 329.84 41.7769C317.29 41.7769 305.267 44.0589 294.17 48.2411C270.986 18.8746 235.107 0 194.906 0C129.159 0 74.9637 50.505 68.9975 114.802C28.9502 127.985 0 165.416 0 209.421C0 260.608 39.1663 302.894 89.4024 308.485V272.672C58.7722 267.381 35.4159 241.033 35.4159 209.421C35.4159 184.5 49.9183 162.862 71.0498 152.215C79.9673 147.724 90.0563 145.187 100.736 145.187C102.443 145.187 104.132 145.251 105.812 145.387C104.541 139.323 103.868 133.04 103.868 126.603C103.868 120.876 104.395 115.275 105.421 109.838C113.295 67.5612 150.427 35.458 194.906 35.458C222.176 35.458 246.695 47.5229 263.386 66.6157C271.404 75.7711 277.615 86.5358 281.466 98.3552C289.63 89.4997 300.282 82.8809 312.323 79.5897C317.899 78.0532 323.774 77.2349 329.84 77.2349C354.432 77.2349 375.89 90.6726 387.023 110.465C392.209 119.666 395.16 130.24 395.16 141.478C395.16 142.769 395.124 144.051 395.042 145.323C396.44 145.233 397.839 145.187 399.255 145.187C410.334 145.187 420.777 147.915 429.931 152.724C450.527 163.543 464.575 184.9 464.575 209.421C464.575 232.414 452.216 252.607 433.709 263.962C424.609 245.242 405.431 232.341 383.237 232.341C357.428 232.341 335.697 249.797 329.15 273.554H312.495V309.049H331.003C339.194 329.914 359.481 344.698 383.237 344.698C409.762 344.698 431.965 326.269 437.822 301.502C474.283 286.492 500 250.879 500 209.421H499.991ZM383.237 336.506C356.802 336.506 335.298 314.977 335.298 288.51C335.298 262.044 356.802 240.515 383.237 240.515C409.671 240.515 431.175 262.044 431.175 288.51C431.175 314.977 409.671 336.506 383.237 336.506Z" fill="url(#paint0_linear_1022_1365)"/>
<path d="M333.055 74.4912C364.902 74.4912 390.801 100.43 390.801 132.306C390.801 164.182 364.893 190.121 333.055 190.121C301.217 190.121 275.309 164.182 275.309 132.306C275.309 100.43 301.217 74.4912 333.055 74.4912ZM333.055 66.3086C296.649 66.3086 267.136 95.857 267.136 132.306C267.136 168.755 296.649 198.303 333.055 198.303C369.461 198.303 398.974 168.755 398.974 132.306C398.974 95.857 369.461 66.3086 333.055 66.3086Z" fill="url(#paint1_linear_1022_1365)"/>
<path d="M226.653 222.969H177.043C171.758 222.969 167.463 227.269 167.463 232.561V328.543C167.463 333.834 171.758 338.135 177.043 338.135H226.653C231.938 338.135 236.233 333.834 236.233 328.543V232.561C236.233 227.269 231.938 222.969 226.653 222.969ZM204.377 321.788C203.705 322.451 202.788 322.833 201.844 322.833C200.899 322.833 199.982 322.451 199.31 321.788C198.647 321.115 198.266 320.197 198.266 319.251C198.266 318.305 198.647 317.387 199.31 316.714C199.973 316.051 200.899 315.669 201.844 315.669C202.788 315.669 203.705 316.051 204.377 316.714C205.04 317.387 205.422 318.305 205.422 319.251C205.422 320.197 205.04 321.115 204.377 321.788ZM215.447 265.346H188.004C186.015 265.346 184.408 263.736 184.408 261.745C184.408 259.754 186.015 258.145 188.004 258.145H215.447C217.436 258.145 219.043 259.754 219.043 261.745C219.043 263.736 217.436 265.346 215.447 265.346ZM215.447 250.781H188.004C186.015 250.781 184.408 249.171 184.408 247.18C184.408 245.189 186.015 243.58 188.004 243.58H215.447C217.436 243.58 219.043 245.189 219.043 247.18C219.043 249.171 217.436 250.781 215.447 250.781Z" fill="url(#paint2_linear_1022_1365)"/>
<path d="M152.225 238.891H109.471C104.922 238.891 101.208 242.6 101.208 247.164V329.881C101.208 334.446 104.913 338.155 109.471 338.155H152.225C156.774 338.155 160.488 334.446 160.488 329.881V247.164C160.488 242.609 156.783 238.891 152.225 238.891ZM133.027 324.054C132.455 324.626 131.656 324.954 130.848 324.954C130.04 324.954 129.241 324.626 128.668 324.054C128.096 323.481 127.769 322.681 127.769 321.872C127.769 321.062 128.096 320.262 128.668 319.69C129.241 319.117 130.04 318.789 130.848 318.789C131.656 318.789 132.455 319.117 133.027 319.69C133.599 320.262 133.926 321.062 133.926 321.872C133.926 322.681 133.599 323.481 133.027 324.054ZM142.562 275.412H118.915C117.208 275.412 115.819 274.021 115.819 272.312C115.819 270.603 117.208 269.212 118.915 269.212H142.562C144.27 269.212 145.659 270.603 145.659 272.312C145.659 274.021 144.27 275.412 142.562 275.412ZM142.562 262.857H118.915C117.208 262.857 115.819 261.466 115.819 259.756C115.819 258.047 117.208 256.656 118.915 256.656H142.562C144.27 256.656 145.659 258.047 145.659 259.756C145.659 261.466 144.27 262.857 142.562 262.857Z" fill="url(#paint3_linear_1022_1365)"/>
<path d="M294.225 238.891H251.471C246.922 238.891 243.208 242.6 243.208 247.164V329.881C243.208 334.446 246.912 338.155 251.471 338.155H294.225C298.774 338.155 302.488 334.446 302.488 329.881V247.164C302.488 242.609 298.783 238.891 294.225 238.891ZM275.027 324.054C274.455 324.626 273.656 324.954 272.848 324.954C272.04 324.954 271.241 324.626 270.668 324.054C270.096 323.481 269.769 322.681 269.769 321.872C269.769 321.062 270.096 320.262 270.668 319.69C271.241 319.117 272.04 318.789 272.848 318.789C273.656 318.789 274.455 319.117 275.027 319.69C275.599 320.262 275.926 321.062 275.926 321.872C275.926 322.681 275.599 323.481 275.027 324.054ZM284.571 275.412H260.925C259.217 275.412 257.828 274.021 257.828 272.312C257.828 270.603 259.217 269.212 260.925 269.212H284.571C286.279 269.212 287.668 270.603 287.668 272.312C287.668 274.021 286.279 275.412 284.571 275.412ZM284.571 262.857H260.925C259.217 262.857 257.828 261.466 257.828 259.756C257.828 258.047 259.217 256.656 260.925 256.656H284.571C286.279 256.656 287.668 258.047 287.668 259.756C287.668 261.466 286.279 262.857 284.571 262.857Z" fill="url(#paint4_linear_1022_1365)"/>
<path d="M323.892 99.0509L332.483 91.832H332.51C332.819 91.8775 333.118 91.932 333.418 91.9866C351.853 95.6597 363.803 113.634 360.116 132.063C356.475 150.347 338.849 162.239 320.632 158.893C324.564 158.002 328.342 156.193 331.647 153.429C342.708 144.137 344.161 127.626 334.871 116.544C329.55 110.197 321.858 107.015 314.185 107.206L323.901 99.0418L323.892 99.0509Z" fill="white"/>
<path d="M294.479 164.595C292.699 162.477 292.981 159.313 295.097 157.54C297.213 155.758 300.373 156.04 302.144 158.158C303.923 160.277 303.642 163.441 301.526 165.214C299.41 166.996 296.25 166.714 294.479 164.595Z" fill="white"/>
<path d="M342.79 179.344C327.316 182.453 312.087 177.78 301.145 168.025C301.78 167.752 302.389 167.388 302.961 166.915C304.105 165.952 304.877 164.706 305.258 163.37C307.647 164.752 310.189 165.915 312.85 166.834C335.625 174.671 360.407 162.524 368.208 139.74C376.036 116.938 363.903 92.1263 341.146 84.3164C360.97 87.5804 376.689 102.782 380.603 122.466C385.852 148.632 368.925 174.098 342.79 179.353V179.344Z" fill="white"/>
<path d="M352.18 295.859C356.192 295.859 359.445 292.603 359.445 288.586C359.445 284.569 356.192 281.312 352.18 281.312C348.168 281.312 344.915 284.569 344.915 288.586C344.915 292.603 348.168 295.859 352.18 295.859Z" fill="#FF5722"/>
<path d="M400.136 323.504C404.148 323.504 407.401 320.247 407.401 316.23C407.401 312.213 404.148 308.957 400.136 308.957C396.124 308.957 392.871 312.213 392.871 316.23C392.871 320.247 396.124 323.504 400.136 323.504Z" fill="#FF5722"/>
<path d="M400.136 268.199C404.148 268.199 407.401 264.943 407.401 260.926C407.401 256.909 404.148 253.652 400.136 253.652C396.124 253.652 392.871 256.909 392.871 260.926C392.871 264.943 396.124 268.199 400.136 268.199Z" fill="#FF5722"/>
<path d="M380.449 273.803C380.776 274.367 381.429 274.649 382.065 274.485C389.684 272.521 397.476 277.022 399.591 284.613C399.764 285.241 400.336 285.677 400.99 285.677H412.868C413.667 285.677 414.321 285.023 414.321 284.222C414.321 284.15 414.321 284.068 414.303 283.995C413.458 278.704 411.17 273.74 407.692 269.676C407.21 269.121 406.393 269.012 405.785 269.421C404.114 270.539 402.161 271.13 400.154 271.13C394.597 271.112 390.075 266.648 389.975 261.084C389.966 260.347 389.403 259.738 388.676 259.656C384.117 259.175 379.513 259.784 375.227 261.42C374.473 261.711 374.101 262.548 374.392 263.302C374.419 263.375 374.455 263.439 374.491 263.511L380.449 273.821V273.803Z" fill="#FF5722"/>
<path d="M412.868 291.496H400.99C400.336 291.496 399.764 291.933 399.591 292.56C397.485 300.152 389.684 304.652 382.065 302.688C381.438 302.534 380.775 302.806 380.449 303.37L374.51 313.68C374.11 314.38 374.346 315.262 375.045 315.671C375.109 315.708 375.182 315.744 375.254 315.771C379.531 317.426 384.145 318.035 388.703 317.535C389.439 317.453 389.993 316.844 390.002 316.108C390.065 310.498 394.66 305.998 400.272 306.061C402.243 306.079 404.159 306.679 405.794 307.77C406.402 308.18 407.228 308.061 407.701 307.507C411.179 303.434 413.467 298.479 414.312 293.196C414.439 292.405 413.903 291.66 413.104 291.532C413.031 291.523 412.949 291.514 412.877 291.514L412.868 291.496Z" fill="#FF5722"/>
<path d="M375.191 298.716C369.706 293.079 369.706 284.087 375.191 278.45C375.645 277.986 375.736 277.268 375.409 276.704L369.479 266.421C369.27 266.049 368.898 265.794 368.48 265.721C368.063 265.649 367.636 265.758 367.3 266.012C363.077 269.449 359.899 274.004 358.137 279.15C357.937 279.723 358.119 280.359 358.591 280.75C362.913 284.205 363.622 290.515 360.18 294.842C359.708 295.433 359.181 295.961 358.591 296.433C358.119 296.815 357.946 297.461 358.137 298.034C359.908 303.18 363.077 307.735 367.3 311.162C367.563 311.371 367.881 311.489 368.217 311.489C368.308 311.489 368.389 311.489 368.48 311.462C368.898 311.389 369.261 311.126 369.479 310.762L375.409 300.47C375.736 299.907 375.654 299.188 375.2 298.725L375.191 298.716Z" fill="#FF5722"/>
<defs>
<linearGradient id="paint0_linear_1022_1365" x1="396.611" y1="81.0997" x2="210.188" y2="399.061" gradientUnits="userSpaceOnUse">
<stop offset="0.278846" stop-color="#33CFFF"/>
<stop offset="1" stop-color="#0D87C5"/>
</linearGradient>
<linearGradient id="paint1_linear_1022_1365" x1="371.713" y1="97.3641" x2="290.953" y2="192.21" gradientUnits="userSpaceOnUse">
<stop offset="0.278846" stop-color="#33CFFF"/>
<stop offset="1" stop-color="#0D87C5"/>
</linearGradient>
<linearGradient id="paint2_linear_1022_1365" x1="222.013" y1="250.065" x2="154.879" y2="297.202" gradientUnits="userSpaceOnUse">
<stop offset="0.278846" stop-color="#33CFFF"/>
<stop offset="1" stop-color="#0D87C5"/>
</linearGradient>
<linearGradient id="paint3_linear_1022_1365" x1="148.23" y1="262.245" x2="90.3639" y2="302.879" gradientUnits="userSpaceOnUse">
<stop offset="0.278846" stop-color="#33CFFF"/>
<stop offset="1" stop-color="#0D87C5"/>
</linearGradient>
<linearGradient id="paint4_linear_1022_1365" x1="290.23" y1="262.245" x2="232.364" y2="302.879" gradientUnits="userSpaceOnUse">
<stop offset="0.278846" stop-color="#33CFFF"/>
<stop offset="1" stop-color="#0D87C5"/>
</linearGradient>
</defs>
</svg>
