<svg width="250" height="173" viewBox="0 0 250 173" fill="none" xmlns="http://www.w3.org/2000/svg">
<path d="M249.995 104.71C249.995 81.899 234.431 62.6153 213.254 56.7238C207.124 36.0354 187.777 20.8884 164.92 20.8884C158.645 20.8884 152.634 22.0294 147.085 24.1206C135.493 9.43729 117.554 0 97.4528 0C64.5796 0 37.4818 25.2525 34.4987 57.4011C14.4751 63.9927 0 82.7081 0 104.71C0 130.304 19.5832 151.447 44.7012 154.242V136.336C29.3861 133.69 17.708 120.516 17.708 104.71C17.708 92.25 24.9591 81.4307 35.5249 76.1075C39.9837 73.8618 45.0282 72.5935 50.3678 72.5935C51.2214 72.5935 52.0659 72.6253 52.9059 72.6935C52.2703 69.6614 51.9343 66.5202 51.9343 63.3017C51.9343 60.4378 52.1976 57.6375 52.7107 54.919C56.6473 33.7806 75.2134 17.729 97.4528 17.729C111.088 17.729 123.347 23.7614 131.693 33.3078C135.702 37.8855 138.808 43.2679 140.733 49.1776C144.815 44.7499 150.141 41.4404 156.161 39.7948C158.949 39.0266 161.887 38.6174 164.92 38.6174C177.216 38.6174 187.945 45.3363 193.512 55.2327C196.104 59.8332 197.58 65.1201 197.58 70.7388C197.58 71.3843 197.562 72.0253 197.521 72.6617C198.22 72.6162 198.919 72.5935 199.628 72.5935C205.167 72.5935 210.389 73.9573 214.966 76.3621C225.263 81.7717 232.288 92.45 232.288 104.71C232.288 116.207 226.108 126.303 216.854 131.981C212.305 122.621 202.715 116.171 191.618 116.171C178.714 116.171 167.849 124.899 164.575 136.777H156.248V154.524H165.501C169.597 164.957 179.74 172.349 191.618 172.349C204.881 172.349 215.983 163.134 218.911 150.751C237.141 143.246 250 125.44 250 104.71H249.995ZM191.614 168.257C178.396 168.257 167.644 157.493 167.644 144.26C167.644 131.027 178.396 120.262 191.614 120.262C204.831 120.262 215.583 131.027 215.583 144.26C215.583 157.493 204.831 168.257 191.614 168.257Z" fill="url(#paint0_linear_1022_1511)"/>
<path d="M166.528 37.2437C182.451 37.2437 195.401 50.2131 195.401 66.1511C195.401 82.089 182.447 95.0584 166.528 95.0584C150.609 95.0584 137.655 82.089 137.655 66.1511C137.655 50.2131 150.609 37.2437 166.528 37.2437ZM166.528 33.1523C148.325 33.1523 133.568 47.9265 133.568 66.1511C133.568 84.3756 148.325 99.1498 166.528 99.1498C184.731 99.1498 199.487 84.3756 199.487 66.1511C199.487 47.9265 184.731 33.1523 166.528 33.1523Z" fill="url(#paint1_linear_1022_1511)"/>
<path d="M113.325 111.484H88.5207C85.8781 111.484 83.7305 113.635 83.7305 116.28V164.271C83.7305 166.917 85.8781 169.067 88.5207 169.067H113.325C115.968 169.067 118.116 166.917 118.116 164.271V116.28C118.116 113.635 115.968 111.484 113.325 111.484ZM102.188 160.898C101.852 161.23 101.393 161.421 100.921 161.421C100.449 161.421 99.99 161.23 99.654 160.898C99.3225 160.562 99.1318 160.103 99.1318 159.63C99.1318 159.157 99.3225 158.698 99.654 158.362C99.9855 158.03 100.449 157.839 100.921 157.839C101.393 157.839 101.852 158.03 102.188 158.362C102.519 158.698 102.71 159.157 102.71 159.63C102.71 160.103 102.519 160.562 102.188 160.898ZM107.722 132.677H94.0011C93.0067 132.677 92.203 131.873 92.203 130.877C92.203 129.882 93.0067 129.077 94.0011 129.077H107.722C108.717 129.077 109.521 129.882 109.521 130.877C109.521 131.873 108.717 132.677 107.722 132.677ZM107.722 125.39H94.0011C93.0067 125.39 92.203 124.586 92.203 123.59C92.203 122.595 93.0067 121.79 94.0011 121.79H107.722C108.717 121.79 109.521 122.595 109.521 123.59C109.521 124.586 108.717 125.39 107.722 125.39Z" fill="url(#paint2_linear_1022_1511)"/>
<path d="M76.1121 119.445H54.7354C52.4606 119.445 50.6035 121.3 50.6035 123.582V164.941C50.6035 167.223 52.456 169.077 54.7354 169.077H76.1121C78.3868 169.077 80.2439 167.223 80.2439 164.941V123.582C80.2439 121.305 78.3914 119.445 76.1121 119.445ZM66.5134 162.027C66.2274 162.313 65.8278 162.477 65.4237 162.477C65.0196 162.477 64.62 162.313 64.334 162.027C64.0479 161.74 63.8845 161.34 63.8845 160.936C63.8845 160.531 64.0479 160.131 64.334 159.845C64.62 159.558 65.0196 159.395 65.4237 159.395C65.8278 159.395 66.2274 159.558 66.5134 159.845C66.7995 160.131 66.9629 160.531 66.9629 160.936C66.9629 161.34 66.7995 161.74 66.5134 162.027ZM71.281 137.711H59.4575C58.6039 137.711 57.9092 137.015 57.9092 136.161C57.9092 135.306 58.6039 134.61 59.4575 134.61H71.281C72.1346 134.61 72.8293 135.306 72.8293 136.161C72.8293 137.015 72.1346 137.711 71.281 137.711ZM71.281 131.428H59.4575C58.6039 131.428 57.9092 130.733 57.9092 129.878C57.9092 129.024 58.6039 128.328 59.4575 128.328H71.281C72.1346 128.328 72.8293 129.024 72.8293 129.878C72.8293 130.733 72.1346 131.428 71.281 131.428Z" fill="url(#paint3_linear_1022_1511)"/>
<path d="M147.112 119.445H125.735C123.461 119.445 121.604 121.3 121.604 123.582V164.941C121.604 167.223 123.456 169.077 125.735 169.077H147.112C149.387 169.077 151.244 167.223 151.244 164.941V123.582C151.244 121.305 149.391 119.445 147.112 119.445ZM137.513 162.027C137.227 162.313 136.828 162.477 136.424 162.477C136.02 162.477 135.62 162.313 135.334 162.027C135.048 161.74 134.884 161.34 134.884 160.936C134.884 160.531 135.048 160.131 135.334 159.845C135.62 159.558 136.02 159.395 136.424 159.395C136.828 159.395 137.227 159.558 137.513 159.845C137.799 160.131 137.963 160.531 137.963 160.936C137.963 161.34 137.799 161.74 137.513 162.027ZM142.281 137.711H130.457C129.604 137.711 128.909 137.015 128.909 136.161C128.909 135.306 129.604 134.61 130.457 134.61H142.281C143.135 134.61 143.829 135.306 143.829 136.161C143.829 137.015 143.135 137.711 142.281 137.711ZM142.281 131.428H130.457C129.604 131.428 128.909 130.733 128.909 129.878C128.909 129.024 129.604 128.328 130.457 128.328H142.281C143.135 128.328 143.829 129.024 143.829 129.878C143.829 130.733 143.135 131.428 142.281 131.428Z" fill="url(#paint4_linear_1022_1511)"/>
<path d="M161.942 49.5274L166.237 45.918H166.251C166.405 45.9407 166.555 45.968 166.705 45.9953C175.922 47.8318 181.897 56.819 180.054 66.0336C178.233 75.1754 169.42 81.1214 160.312 79.4485C162.278 79.003 164.167 78.0984 165.819 76.7165C171.35 72.0705 172.076 63.8152 167.431 58.2737C164.77 55.1007 160.925 53.5096 157.088 53.6051L161.946 49.5229L161.942 49.5274Z" fill="#303446"/>
<path d="M147.24 82.2977C146.35 81.2385 146.491 79.6565 147.549 78.7701C148.607 77.8791 150.187 78.02 151.072 79.0792C151.962 80.1384 151.821 81.7204 150.764 82.6068C149.706 83.4978 148.125 83.3569 147.24 82.2977Z" fill="#303446"/>
<path d="M171.39 89.6739C163.653 91.2286 156.039 88.892 150.567 84.0143C150.885 83.8779 151.189 83.6961 151.475 83.4597C152.048 82.9778 152.434 82.355 152.624 81.6868C153.818 82.3778 155.09 82.9596 156.42 83.4188C167.808 87.3373 180.199 81.264 184.099 69.872C188.013 58.4709 181.947 46.0651 170.568 42.1602C180.48 43.7921 188.34 51.3929 190.297 61.2348C192.921 74.3179 184.458 87.0509 171.39 89.6785V89.6739Z" fill="#303446"/>
<path d="M186.024 125.918H195.95L185.647 156.498C185.593 156.653 185.52 156.803 185.42 156.935C185.32 157.066 185.207 157.185 185.071 157.28C184.934 157.376 184.789 157.453 184.635 157.503C184.48 157.553 184.312 157.58 184.149 157.58H176.426C176.176 157.58 175.926 157.521 175.704 157.407C175.481 157.294 175.286 157.126 175.141 156.921C174.995 156.716 174.9 156.48 174.864 156.23C174.827 155.98 174.85 155.725 174.927 155.489L184.526 127C184.58 126.845 184.653 126.695 184.753 126.563C184.853 126.432 184.971 126.313 185.102 126.218C185.234 126.123 185.384 126.045 185.538 125.995C185.697 125.945 185.861 125.918 186.024 125.918Z" fill="url(#paint5_linear_1022_1511)"/>
<path d="M204.322 157.572H195.409C195.31 157.572 195.21 157.563 195.114 157.545C195.014 157.527 194.919 157.5 194.828 157.463C194.737 157.427 194.647 157.381 194.56 157.327C194.474 157.272 194.397 157.213 194.324 157.145L184.213 147.69C184.104 147.59 184.031 147.458 183.999 147.317C183.931 147.026 184.054 146.721 184.299 146.553C184.421 146.471 184.562 146.426 184.707 146.426H200.445L204.318 157.572H204.322Z" fill="#0078D4"/>
<path d="M195.986 125.915L189.039 146.426H200.39L204.286 157.568H195.409C195.318 157.568 195.227 157.559 195.137 157.541C195.046 157.523 194.955 157.5 194.869 157.468C194.696 157.405 194.533 157.314 194.392 157.196L187.568 150.818L185.656 156.459C185.606 156.6 185.538 156.732 185.452 156.859C185.284 157.105 185.048 157.305 184.78 157.432C184.644 157.496 184.503 157.541 184.353 157.568H176.43C176.176 157.568 175.926 157.509 175.703 157.391C175.245 157.155 174.931 156.709 174.863 156.2C174.832 155.95 174.854 155.691 174.94 155.455L184.521 127.011C184.571 126.852 184.648 126.702 184.743 126.565C184.839 126.429 184.957 126.311 185.093 126.211C185.229 126.111 185.375 126.038 185.533 125.984C185.692 125.934 185.856 125.906 186.024 125.906H195.986V125.915Z" fill="url(#paint6_linear_1022_1511)"/>
<path d="M208.3 155.481C208.382 155.718 208.405 155.972 208.364 156.222C208.327 156.472 208.232 156.709 208.087 156.913C207.792 157.327 207.31 157.572 206.802 157.572H195.741C195.991 157.572 196.241 157.513 196.463 157.4C196.686 157.286 196.881 157.118 197.026 156.913C197.171 156.709 197.267 156.472 197.303 156.222C197.339 155.972 197.317 155.718 197.24 155.481L187.641 126.992C187.537 126.678 187.332 126.406 187.064 126.21C186.933 126.115 186.783 126.042 186.628 125.987C186.474 125.933 186.311 125.91 186.143 125.91H197.203C197.367 125.91 197.53 125.937 197.689 125.987C197.843 126.037 197.993 126.115 198.125 126.21C198.257 126.306 198.375 126.424 198.475 126.556C198.574 126.687 198.647 126.833 198.702 126.992L208.3 155.481Z" fill="url(#paint7_linear_1022_1511)"/>
<defs>
<linearGradient id="paint0_linear_1022_1511" x1="198.305" y1="40.5499" x2="105.094" y2="199.53" gradientUnits="userSpaceOnUse">
<stop offset="0.278846" stop-color="#33CFFF"/>
<stop offset="1" stop-color="#0D87C5"/>
</linearGradient>
<linearGradient id="paint1_linear_1022_1511" x1="185.857" y1="48.6801" x2="145.477" y2="96.1031" gradientUnits="userSpaceOnUse">
<stop offset="0.278846" stop-color="#33CFFF"/>
<stop offset="1" stop-color="#0D87C5"/>
</linearGradient>
<linearGradient id="paint2_linear_1022_1511" x1="111.006" y1="125.032" x2="77.4386" y2="148.601" gradientUnits="userSpaceOnUse">
<stop offset="0.278846" stop-color="#33CFFF"/>
<stop offset="1" stop-color="#0D87C5"/>
</linearGradient>
<linearGradient id="paint3_linear_1022_1511" x1="74.1149" y1="131.123" x2="45.1817" y2="151.44" gradientUnits="userSpaceOnUse">
<stop offset="0.278846" stop-color="#33CFFF"/>
<stop offset="1" stop-color="#0D87C5"/>
</linearGradient>
<linearGradient id="paint4_linear_1022_1511" x1="145.115" y1="131.123" x2="116.182" y2="151.44" gradientUnits="userSpaceOnUse">
<stop offset="0.278846" stop-color="#33CFFF"/>
<stop offset="1" stop-color="#0D87C5"/>
</linearGradient>
<linearGradient id="paint5_linear_1022_1511" x1="190.436" y1="128.732" x2="180.101" y2="159.219" gradientUnits="userSpaceOnUse">
<stop stop-color="#114A8B"/>
<stop offset="1" stop-color="#0669BC"/>
</linearGradient>
<linearGradient id="paint6_linear_1022_1511" x1="193.652" y1="142.941" x2="191.257" y2="143.748" gradientUnits="userSpaceOnUse">
<stop stop-opacity="0.3"/>
<stop offset="0.1" stop-opacity="0.2"/>
<stop offset="0.3" stop-opacity="0.1"/>
<stop offset="0.6" stop-opacity="0.1"/>
<stop offset="1" stop-opacity="0"/>
</linearGradient>
<linearGradient id="paint7_linear_1022_1511" x1="192.406" y1="127.807" x2="203.748" y2="157.98" gradientUnits="userSpaceOnUse">
<stop stop-color="#3CCBF4"/>
<stop offset="1" stop-color="#2892DF"/>
</linearGradient>
</defs>
</svg>
