<svg width="250" height="173" viewBox="0 0 250 173" fill="none" xmlns="http://www.w3.org/2000/svg">
<path d="M249.995 104.71C249.995 81.899 234.431 62.6153 213.254 56.7238C207.124 36.0354 187.777 20.8884 164.92 20.8884C158.645 20.8884 152.634 22.0294 147.085 24.1206C135.493 9.43729 117.554 0 97.4528 0C64.5796 0 37.4818 25.2525 34.4987 57.4011C14.4751 63.9927 0 82.7081 0 104.71C0 130.304 19.5832 151.447 44.7012 154.242V136.336C29.3861 133.69 17.708 120.516 17.708 104.71C17.708 92.25 24.9591 81.4307 35.5249 76.1075C39.9837 73.8618 45.0282 72.5935 50.3678 72.5935C51.2214 72.5935 52.0659 72.6253 52.9059 72.6935C52.2703 69.6614 51.9343 66.5202 51.9343 63.3017C51.9343 60.4378 52.1976 57.6375 52.7107 54.919C56.6473 33.7806 75.2134 17.729 97.4528 17.729C111.088 17.729 123.347 23.7614 131.693 33.3078C135.702 37.8855 138.808 43.2679 140.733 49.1776C144.815 44.7499 150.141 41.4404 156.161 39.7948C158.949 39.0266 161.887 38.6174 164.92 38.6174C177.216 38.6174 187.945 45.3363 193.512 55.2327C196.104 59.8332 197.58 65.1201 197.58 70.7388C197.58 71.3843 197.562 72.0253 197.521 72.6617C198.22 72.6162 198.919 72.5935 199.628 72.5935C205.167 72.5935 210.389 73.9573 214.966 76.3621C225.263 81.7717 232.288 92.45 232.288 104.71C232.288 116.207 226.108 126.303 216.854 131.981C212.305 122.621 202.715 116.171 191.618 116.171C178.714 116.171 167.849 124.899 164.575 136.777H156.248V154.524H165.501C169.597 164.957 179.74 172.349 191.618 172.349C204.881 172.349 215.983 163.134 218.911 150.751C237.141 143.246 250 125.44 250 104.71H249.995ZM191.614 168.257C178.396 168.257 167.644 157.493 167.644 144.26C167.644 131.027 178.396 120.262 191.614 120.262C204.831 120.262 215.583 131.027 215.583 144.26C215.583 157.493 204.831 168.257 191.614 168.257Z" fill="url(#paint0_linear_1022_1527)"/>
<path d="M166.528 37.2437C182.451 37.2437 195.401 50.2131 195.401 66.1511C195.401 82.089 182.447 95.0584 166.528 95.0584C150.609 95.0584 137.655 82.089 137.655 66.1511C137.655 50.2131 150.609 37.2437 166.528 37.2437ZM166.528 33.1523C148.325 33.1523 133.568 47.9265 133.568 66.1511C133.568 84.3756 148.325 99.1498 166.528 99.1498C184.731 99.1498 199.487 84.3756 199.487 66.1511C199.487 47.9265 184.731 33.1523 166.528 33.1523Z" fill="url(#paint1_linear_1022_1527)"/>
<path d="M113.325 111.484H88.5207C85.8781 111.484 83.7305 113.635 83.7305 116.28V164.271C83.7305 166.917 85.8781 169.067 88.5207 169.067H113.325C115.968 169.067 118.116 166.917 118.116 164.271V116.28C118.116 113.635 115.968 111.484 113.325 111.484ZM102.188 160.898C101.852 161.23 101.393 161.421 100.921 161.421C100.449 161.421 99.99 161.23 99.654 160.898C99.3225 160.562 99.1318 160.103 99.1318 159.63C99.1318 159.157 99.3225 158.698 99.654 158.362C99.9854 158.03 100.449 157.839 100.921 157.839C101.393 157.839 101.852 158.03 102.188 158.362C102.519 158.698 102.71 159.157 102.71 159.63C102.71 160.103 102.519 160.562 102.188 160.898ZM107.722 132.677H94.0011C93.0067 132.677 92.203 131.873 92.203 130.877C92.203 129.882 93.0067 129.077 94.0011 129.077H107.722C108.717 129.077 109.521 129.882 109.521 130.877C109.521 131.873 108.717 132.677 107.722 132.677ZM107.722 125.39H94.0011C93.0067 125.39 92.203 124.586 92.203 123.59C92.203 122.595 93.0067 121.79 94.0011 121.79H107.722C108.717 121.79 109.521 122.595 109.521 123.59C109.521 124.586 108.717 125.39 107.722 125.39Z" fill="url(#paint2_linear_1022_1527)"/>
<path d="M76.112 119.445H54.7354C52.4606 119.445 50.6035 121.3 50.6035 123.582V164.941C50.6035 167.223 52.456 169.077 54.7354 169.077H76.112C78.3868 169.077 80.2439 167.223 80.2439 164.941V123.582C80.2439 121.305 78.3914 119.445 76.112 119.445ZM66.5134 162.027C66.2274 162.313 65.8278 162.477 65.4237 162.477C65.0196 162.477 64.62 162.313 64.334 162.027C64.0479 161.74 63.8845 161.34 63.8845 160.936C63.8845 160.531 64.0479 160.131 64.334 159.845C64.62 159.558 65.0196 159.395 65.4237 159.395C65.8278 159.395 66.2274 159.558 66.5134 159.845C66.7995 160.131 66.9629 160.531 66.9629 160.936C66.9629 161.34 66.7995 161.74 66.5134 162.027ZM71.2809 137.711H59.4575C58.6039 137.711 57.9092 137.015 57.9092 136.161C57.9092 135.306 58.6039 134.61 59.4575 134.61H71.2809C72.1346 134.61 72.8293 135.306 72.8293 136.161C72.8293 137.015 72.1346 137.711 71.2809 137.711ZM71.2809 131.428H59.4575C58.6039 131.428 57.9092 130.733 57.9092 129.878C57.9092 129.024 58.6039 128.328 59.4575 128.328H71.2809C72.1346 128.328 72.8293 129.024 72.8293 129.878C72.8293 130.733 72.1346 131.428 71.2809 131.428Z" fill="url(#paint3_linear_1022_1527)"/>
<path d="M147.112 119.445H125.735C123.461 119.445 121.604 121.3 121.604 123.582V164.941C121.604 167.223 123.456 169.077 125.735 169.077H147.112C149.387 169.077 151.244 167.223 151.244 164.941V123.582C151.244 121.305 149.391 119.445 147.112 119.445ZM137.513 162.027C137.227 162.313 136.828 162.477 136.424 162.477C136.02 162.477 135.62 162.313 135.334 162.027C135.048 161.74 134.885 161.34 134.885 160.936C134.885 160.531 135.048 160.131 135.334 159.845C135.62 159.558 136.02 159.395 136.424 159.395C136.828 159.395 137.227 159.558 137.513 159.845C137.799 160.131 137.963 160.531 137.963 160.936C137.963 161.34 137.799 161.74 137.513 162.027ZM142.281 137.711H130.457C129.604 137.711 128.909 137.015 128.909 136.161C128.909 135.306 129.604 134.61 130.457 134.61H142.281C143.135 134.61 143.829 135.306 143.829 136.161C143.829 137.015 143.135 137.711 142.281 137.711ZM142.281 131.428H130.457C129.604 131.428 128.909 130.733 128.909 129.878C128.909 129.024 129.604 128.328 130.457 128.328H142.281C143.135 128.328 143.829 129.024 143.829 129.878C143.829 130.733 143.135 131.428 142.281 131.428Z" fill="url(#paint4_linear_1022_1527)"/>
<path d="M161.946 49.5274L166.241 45.918H166.255C166.409 45.9407 166.559 45.968 166.709 45.9953C175.926 47.8318 181.901 56.819 180.058 66.0336C178.237 75.1754 169.424 81.1214 160.316 79.4485C162.282 79.003 164.17 78.0984 165.823 76.7165C171.354 72.0705 172.08 63.8152 167.435 58.2737C164.774 55.1007 160.929 53.5096 157.092 53.6051L161.95 49.5229L161.946 49.5274Z" fill="#303446"/>
<path d="M147.24 82.2977C146.35 81.2385 146.491 79.6565 147.549 78.7701C148.607 77.8791 150.187 78.02 151.072 79.0792C151.962 80.1384 151.821 81.7204 150.764 82.6068C149.706 83.4978 148.125 83.3569 147.24 82.2977Z" fill="#303446"/>
<path d="M171.395 89.6739C163.658 91.2286 156.044 88.892 150.572 84.0143C150.89 83.8779 151.194 83.6961 151.48 83.4597C152.052 82.9778 152.438 82.355 152.629 81.6868C153.823 82.3778 155.095 82.9596 156.425 83.4188C167.813 87.3373 180.204 81.264 184.104 69.872C188.018 58.4709 181.952 46.0651 170.573 42.1602C180.485 43.7921 188.345 51.3929 190.302 61.2348C192.926 74.3179 184.463 87.0509 171.395 89.6785V89.6739Z" fill="#303446"/>
<path d="M182.542 142.319C182.542 142.805 182.596 143.201 182.687 143.492C182.791 143.783 182.923 144.096 183.109 144.437C183.173 144.542 183.2 144.646 183.2 144.742C183.2 144.874 183.123 145.006 182.95 145.137L182.124 145.692C182.006 145.769 181.888 145.81 181.783 145.81C181.652 145.81 181.52 145.747 181.388 145.624C181.202 145.428 181.048 145.215 180.916 145.006C180.785 144.783 180.653 144.533 180.508 144.228C179.481 145.437 178.196 146.042 176.644 146.042C175.54 146.042 174.659 145.728 174.015 145.096C173.37 144.465 173.043 143.624 173.043 142.569C173.043 141.451 173.438 140.542 174.237 139.86C175.041 139.173 176.103 138.832 177.456 138.832C177.901 138.832 178.364 138.873 178.85 138.937C179.336 139 179.836 139.11 180.362 139.228V138.269C180.362 137.268 180.153 136.573 179.745 136.164C179.322 135.755 178.614 135.559 177.602 135.559C177.143 135.559 176.671 135.614 176.18 135.732C175.695 135.85 175.222 135.996 174.759 136.177C174.55 136.268 174.392 136.323 174.301 136.35C174.21 136.377 174.142 136.391 174.092 136.391C173.906 136.391 173.815 136.259 173.815 135.982V135.336C173.815 135.127 173.842 134.968 173.906 134.877C173.969 134.786 174.092 134.691 174.273 134.6C174.732 134.364 175.286 134.164 175.931 134.009C176.575 133.836 177.257 133.759 177.983 133.759C179.545 133.759 180.689 134.114 181.425 134.823C182.147 135.532 182.514 136.614 182.514 138.059V142.323H182.542V142.319ZM177.207 144.319C177.643 144.319 178.087 144.242 178.56 144.083C179.032 143.924 179.454 143.637 179.808 143.242C180.017 142.992 180.176 142.714 180.253 142.401C180.33 142.087 180.385 141.705 180.385 141.255V140.701C180.004 140.61 179.595 140.528 179.177 140.478C178.759 140.428 178.351 140.401 177.942 140.401C177.061 140.401 176.417 140.573 175.985 140.928C175.549 141.282 175.34 141.783 175.34 142.442C175.34 143.06 175.499 143.519 175.826 143.837C176.14 144.165 176.603 144.324 177.207 144.324V144.319ZM187.759 145.737C187.523 145.737 187.364 145.697 187.259 145.606C187.155 145.528 187.064 145.342 186.982 145.092L183.895 134.923C183.818 134.659 183.777 134.486 183.777 134.395C183.777 134.186 183.881 134.068 184.09 134.068H185.38C185.629 134.068 185.802 134.109 185.893 134.2C185.997 134.277 186.079 134.464 186.156 134.714L188.363 143.424L190.415 134.714C190.478 134.45 190.56 134.277 190.665 134.2C190.769 134.123 190.955 134.068 191.191 134.068H192.245C192.494 134.068 192.667 134.109 192.771 134.2C192.876 134.277 192.967 134.464 193.021 134.714L195.096 143.528L197.371 134.714C197.448 134.45 197.544 134.277 197.634 134.2C197.739 134.123 197.911 134.068 198.147 134.068H199.369C199.578 134.068 199.696 134.173 199.696 134.395C199.696 134.459 199.682 134.527 199.668 134.605C199.655 134.682 199.628 134.791 199.578 134.932L196.408 145.101C196.331 145.365 196.236 145.537 196.131 145.615C196.027 145.692 195.854 145.747 195.632 145.747H194.501C194.252 145.747 194.079 145.706 193.975 145.615C193.87 145.524 193.779 145.351 193.725 145.087L191.686 136.6L189.661 145.074C189.598 145.337 189.516 145.51 189.411 145.601C189.307 145.692 189.121 145.733 188.885 145.733H187.754L187.759 145.737ZM204.645 146.097C203.959 146.097 203.278 146.019 202.62 145.86C201.961 145.701 201.448 145.533 201.108 145.333C200.899 145.215 200.754 145.083 200.699 144.965C200.645 144.846 200.622 144.715 200.622 144.596V143.924C200.622 143.646 200.726 143.515 200.926 143.515C201.003 143.515 201.085 143.528 201.162 143.555C201.24 143.583 201.358 143.633 201.489 143.687C201.934 143.883 202.42 144.042 202.933 144.146C203.46 144.251 203.973 144.306 204.495 144.306C205.321 144.306 205.966 144.16 206.416 143.869C206.861 143.578 207.101 143.16 207.101 142.619C207.101 142.251 206.983 141.946 206.747 141.696C206.511 141.446 206.062 141.223 205.421 141.01L203.514 140.419C202.556 140.114 201.843 139.669 201.412 139.078C200.976 138.5 200.754 137.855 200.754 137.168C200.754 136.614 200.872 136.127 201.108 135.709C201.344 135.286 201.662 134.918 202.052 134.632C202.447 134.327 202.892 134.105 203.419 133.945C203.946 133.786 204.495 133.723 205.076 133.723C205.367 133.723 205.666 133.736 205.957 133.777C206.261 133.818 206.534 133.868 206.811 133.923C207.074 133.986 207.324 134.055 207.56 134.132C207.796 134.209 207.982 134.291 208.114 134.368C208.3 134.473 208.427 134.577 208.509 134.695C208.586 134.8 208.627 134.946 208.627 135.132V135.75C208.627 136.027 208.522 136.173 208.323 136.173C208.218 136.173 208.046 136.118 207.823 136.014C207.074 135.673 206.234 135.5 205.299 135.5C204.55 135.5 203.959 135.618 203.551 135.868C203.142 136.118 202.933 136.5 202.933 137.041C202.933 137.409 203.065 137.728 203.328 137.973C203.591 138.223 204.077 138.473 204.772 138.696L206.638 139.287C207.583 139.591 208.268 140.01 208.677 140.551C209.085 141.092 209.281 141.71 209.281 142.392C209.281 142.955 209.163 143.469 208.94 143.919C208.704 144.365 208.386 144.76 207.982 145.078C207.574 145.406 207.088 145.642 206.525 145.815C205.934 146.001 205.317 146.092 204.645 146.092V146.097Z" fill="#252F3E"/>
<path d="M207.129 152.489C202.806 155.685 196.522 157.385 191.124 157.385C183.555 157.385 176.735 154.584 171.581 149.925C171.173 149.557 171.54 149.057 172.026 149.348C177.597 152.584 184.472 154.544 191.582 154.544C196.377 154.544 201.648 153.543 206.498 151.493C207.22 151.166 207.837 151.966 207.129 152.493V152.489ZM208.927 150.439C208.373 149.729 205.272 150.098 203.869 150.266C203.446 150.32 203.383 149.952 203.764 149.675C206.234 147.938 210.293 148.438 210.77 149.016C211.242 149.607 210.639 153.675 208.328 155.621C207.973 155.925 207.633 155.766 207.787 155.371C208.314 154.066 209.481 151.134 208.931 150.439H208.927Z" fill="#FF9900"/>
<defs>
<linearGradient id="paint0_linear_1022_1527" x1="198.305" y1="40.5499" x2="105.094" y2="199.53" gradientUnits="userSpaceOnUse">
<stop offset="0.278846" stop-color="#33CFFF"/>
<stop offset="1" stop-color="#0D87C5"/>
</linearGradient>
<linearGradient id="paint1_linear_1022_1527" x1="185.857" y1="48.6801" x2="145.477" y2="96.1031" gradientUnits="userSpaceOnUse">
<stop offset="0.278846" stop-color="#33CFFF"/>
<stop offset="1" stop-color="#0D87C5"/>
</linearGradient>
<linearGradient id="paint2_linear_1022_1527" x1="111.006" y1="125.032" x2="77.4386" y2="148.601" gradientUnits="userSpaceOnUse">
<stop offset="0.278846" stop-color="#33CFFF"/>
<stop offset="1" stop-color="#0D87C5"/>
</linearGradient>
<linearGradient id="paint3_linear_1022_1527" x1="74.1149" y1="131.123" x2="45.1817" y2="151.44" gradientUnits="userSpaceOnUse">
<stop offset="0.278846" stop-color="#33CFFF"/>
<stop offset="1" stop-color="#0D87C5"/>
</linearGradient>
<linearGradient id="paint4_linear_1022_1527" x1="145.115" y1="131.123" x2="116.182" y2="151.44" gradientUnits="userSpaceOnUse">
<stop offset="0.278846" stop-color="#33CFFF"/>
<stop offset="1" stop-color="#0D87C5"/>
</linearGradient>
</defs>
</svg>
