<svg width="250" height="173" viewBox="0 0 250 173" fill="none" xmlns="http://www.w3.org/2000/svg">
<path d="M249.995 104.71C249.995 81.899 234.431 62.6153 213.254 56.7238C207.124 36.0354 187.777 20.8884 164.92 20.8884C158.645 20.8884 152.633 22.0294 147.085 24.1206C135.493 9.43729 117.554 0 97.4528 0C64.5796 0 37.4818 25.2525 34.4987 57.4011C14.4751 63.9927 0 82.7081 0 104.71C0 130.304 19.5832 151.447 44.7012 154.242V136.336C29.3861 133.69 17.708 120.516 17.708 104.71C17.708 92.25 24.9591 81.4307 35.5249 76.1075C39.9837 73.8618 45.0281 72.5935 50.3678 72.5935C51.2214 72.5935 52.0659 72.6253 52.9059 72.6935C52.2703 69.6614 51.9343 66.5202 51.9343 63.3017C51.9343 60.4378 52.1976 57.6375 52.7107 54.919C56.6473 33.7806 75.2134 17.729 97.4528 17.729C111.088 17.729 123.347 23.7614 131.693 33.3078C135.702 37.8856 138.808 43.2679 140.733 49.1776C144.815 44.7499 150.141 41.4404 156.161 39.7948C158.949 39.0266 161.887 38.6174 164.92 38.6174C177.216 38.6174 187.945 45.3363 193.512 55.2327C196.104 59.8332 197.58 65.1201 197.58 70.7388C197.58 71.3843 197.562 72.0253 197.521 72.6617C198.22 72.6162 198.919 72.5935 199.628 72.5935C205.167 72.5935 210.389 73.9573 214.965 76.3621C225.263 81.7717 232.288 92.45 232.288 104.71C232.288 116.207 226.108 126.303 216.854 131.981C212.305 122.621 202.715 116.171 191.618 116.171C178.714 116.171 167.849 124.899 164.575 136.777H156.248V154.524H165.501C169.597 164.957 179.74 172.349 191.618 172.349C204.881 172.349 215.983 163.134 218.911 150.751C237.141 143.246 250 125.44 250 104.71H249.995ZM191.614 168.257C178.396 168.257 167.644 157.493 167.644 144.26C167.644 131.027 178.396 120.262 191.614 120.262C204.831 120.262 215.583 131.027 215.583 144.26C215.583 157.493 204.831 168.257 191.614 168.257Z" fill="#343433"/>
<path d="M166.528 37.2476C182.451 37.2476 195.401 50.217 195.401 66.155C195.401 82.0929 182.447 95.0623 166.528 95.0623C150.609 95.0623 137.655 82.0929 137.655 66.155C137.655 50.217 150.609 37.2476 166.528 37.2476ZM166.528 33.1562C148.325 33.1562 133.568 47.9304 133.568 66.155C133.568 84.3795 148.325 99.1537 166.528 99.1537C184.731 99.1537 199.487 84.3795 199.487 66.155C199.487 47.9304 184.731 33.1562 166.528 33.1562Z" fill="#343433"/>
<path d="M113.322 111.484H88.5168C85.8742 111.484 83.7266 113.635 83.7266 116.28V164.271C83.7266 166.917 85.8742 169.067 88.5168 169.067H113.322C115.964 169.067 118.112 166.917 118.112 164.271V116.28C118.112 113.635 115.964 111.484 113.322 111.484ZM102.184 160.898C101.848 161.23 101.389 161.421 100.917 161.421C100.445 161.421 99.9861 161.23 99.6501 160.898C99.3186 160.562 99.1279 160.103 99.1279 159.63C99.1279 159.157 99.3186 158.698 99.6501 158.362C99.9815 158.03 100.445 157.839 100.917 157.839C101.389 157.839 101.848 158.03 102.184 158.362C102.515 158.698 102.706 159.157 102.706 159.63C102.706 160.103 102.515 160.562 102.184 160.898ZM107.719 132.677H93.9972C93.0028 132.677 92.1991 131.873 92.1991 130.877C92.1991 129.882 93.0028 129.077 93.9972 129.077H107.719C108.713 129.077 109.517 129.882 109.517 130.877C109.517 131.873 108.713 132.677 107.719 132.677ZM107.719 125.39H93.9972C93.0028 125.39 92.1991 124.586 92.1991 123.59C92.1991 122.595 93.0028 121.79 93.9972 121.79H107.719C108.713 121.79 109.517 122.595 109.517 123.59C109.517 124.586 108.713 125.39 107.719 125.39Z" fill="#343433"/>
<path d="M76.1082 119.449H54.7315C52.4567 119.449 50.5996 121.304 50.5996 123.586V164.945C50.5996 167.227 52.4522 169.081 54.7315 169.081H76.1082C78.383 169.081 80.24 167.227 80.24 164.945V123.586C80.24 121.308 78.3875 119.449 76.1082 119.449ZM66.5095 162.031C66.2235 162.317 65.8239 162.481 65.4198 162.481C65.0157 162.481 64.6161 162.317 64.3301 162.031C64.044 161.744 63.8806 161.344 63.8806 160.94C63.8806 160.535 64.044 160.135 64.3301 159.849C64.6161 159.562 65.0157 159.399 65.4198 159.399C65.8239 159.399 66.2235 159.562 66.5095 159.849C66.7956 160.135 66.959 160.535 66.959 160.94C66.959 161.344 66.7956 161.744 66.5095 162.031ZM71.2816 137.71H59.4581C58.6045 137.71 57.9099 137.015 57.9099 136.16C57.9099 135.305 58.6045 134.61 59.4581 134.61H71.2816C72.1352 134.61 72.8299 135.305 72.8299 136.16C72.8299 137.015 72.1352 137.71 71.2816 137.71ZM71.2816 131.432H59.4581C58.6045 131.432 57.9099 130.737 57.9099 129.882C57.9099 129.027 58.6045 128.332 59.4581 128.332H71.2816C72.1352 128.332 72.8299 129.027 72.8299 129.882C72.8299 130.737 72.1352 131.432 71.2816 131.432Z" fill="#343433"/>
<path d="M147.107 119.449H125.731C123.456 119.449 121.599 121.304 121.599 123.586V164.945C121.599 167.227 123.451 169.081 125.731 169.081H147.107C149.382 169.081 151.239 167.227 151.239 164.945V123.586C151.239 121.308 149.387 119.449 147.107 119.449ZM137.509 162.031C137.223 162.317 136.823 162.481 136.419 162.481C136.015 162.481 135.615 162.317 135.329 162.031C135.043 161.744 134.88 161.344 134.88 160.94C134.88 160.535 135.043 160.135 135.329 159.849C135.615 159.562 136.015 159.399 136.419 159.399C136.823 159.399 137.223 159.562 137.509 159.849C137.795 160.135 137.958 160.535 137.958 160.94C137.958 161.344 137.795 161.744 137.509 162.031ZM142.281 137.71H130.457C129.604 137.71 128.909 137.015 128.909 136.16C128.909 135.305 129.604 134.61 130.457 134.61H142.281C143.134 134.61 143.829 135.305 143.829 136.16C143.829 137.015 143.134 137.71 142.281 137.71ZM142.281 131.432H130.457C129.604 131.432 128.909 130.737 128.909 129.882C128.909 129.027 129.604 128.332 130.457 128.332H142.281C143.134 128.332 143.829 129.027 143.829 129.882C143.829 130.737 143.134 131.432 142.281 131.432Z" fill="#343433"/>
<path d="M161.942 49.5274L166.237 45.918H166.251C166.405 45.9407 166.555 45.968 166.705 45.9952C175.922 47.8318 181.897 56.819 180.054 66.0336C178.233 75.1754 169.42 81.1214 160.312 79.4485C162.278 79.003 164.167 78.0984 165.819 76.7165C171.35 72.0705 172.076 63.8152 167.431 58.2737C164.77 55.1007 160.925 53.5096 157.088 53.6051L161.946 49.5229L161.942 49.5274Z" fill="#343433"/>
<path d="M147.24 82.3016C146.35 81.2424 146.491 79.6604 147.549 78.774C148.607 77.883 150.187 78.0239 151.072 79.0831C151.962 80.1423 151.821 81.7243 150.764 82.6107C149.706 83.5017 148.125 83.3608 147.24 82.3016Z" fill="#343433"/>
<path d="M171.391 89.6739C163.654 91.2286 156.04 88.892 150.568 84.0143C150.886 83.8779 151.19 83.6961 151.476 83.4597C152.049 82.9778 152.435 82.355 152.625 81.6868C153.819 82.3778 155.091 82.9596 156.421 83.4188C167.809 87.3373 180.2 81.264 184.1 69.872C188.014 58.4709 181.948 46.0651 170.569 42.1602C180.481 43.7921 188.341 51.3929 190.298 61.2348C192.922 74.3179 184.459 87.0509 171.391 89.6785V89.6739Z" fill="#343433"/>
<path d="M188.236 131.732L176.372 133.273C176.04 133.314 175.795 133.6 175.795 133.932V143.169C175.795 143.533 176.09 143.829 176.453 143.829H188.318C188.681 143.829 188.976 143.533 188.976 143.169V132.382C188.976 132.191 188.894 132.014 188.753 131.887C188.608 131.764 188.422 131.705 188.236 131.727V131.732Z" fill="#343433"/>
<path d="M207.206 129.481C207.066 129.354 206.875 129.295 206.689 129.317L190.87 131.381C190.538 131.422 190.293 131.708 190.293 132.04V143.173C190.293 143.537 190.588 143.832 190.951 143.832H206.77C207.134 143.832 207.429 143.537 207.429 143.173V129.976C207.429 129.785 207.347 129.608 207.206 129.481Z" fill="#343433"/>
<path d="M188.318 145.152H176.453C176.09 145.152 175.795 145.448 175.795 145.812V155.049C175.795 155.381 176.04 155.667 176.372 155.708L188.236 157.258C188.263 157.258 188.29 157.258 188.322 157.258C188.685 157.258 188.981 156.963 188.981 156.599V145.812C188.981 145.448 188.685 145.152 188.322 145.152H188.318Z" fill="#343433"/>
<path d="M206.774 145.152H190.955C190.592 145.152 190.297 145.448 190.297 145.812V156.944C190.297 157.276 190.542 157.563 190.874 157.604L206.693 159.667C206.72 159.667 206.747 159.667 206.779 159.667C207.142 159.667 207.437 159.372 207.437 159.008V145.812C207.437 145.448 207.142 145.152 206.779 145.152H206.774Z" fill="#343433"/>
</svg>
