<svg width="500" height="345" viewBox="0 0 500 345" fill="none" xmlns="http://www.w3.org/2000/svg">
<path d="M499.991 209.421C499.991 163.798 468.861 125.231 426.508 113.448C414.248 72.0707 375.554 41.7768 329.84 41.7768C317.29 41.7768 305.267 44.0589 294.17 48.2411C270.986 18.8746 235.107 0 194.906 0C129.159 0 74.9637 50.505 68.9974 114.802C28.9502 127.985 0 165.416 0 209.421C0 260.608 39.1664 302.893 89.4025 308.485V272.672C58.7723 267.381 35.4159 241.033 35.4159 209.421C35.4159 184.5 49.9183 162.862 71.0498 152.215C79.9673 147.724 90.0563 145.187 100.736 145.187C102.443 145.187 104.132 145.251 105.812 145.387C104.541 139.323 103.869 133.04 103.869 126.603C103.869 120.876 104.395 115.275 105.421 109.838C113.295 67.5612 150.427 35.458 194.906 35.458C222.176 35.458 246.695 47.5229 263.385 66.6157C271.404 75.7711 277.615 86.5358 281.466 98.3552C289.629 89.4997 300.282 82.8809 312.323 79.5897C317.899 78.0532 323.774 77.2349 329.84 77.2349C354.432 77.2349 375.89 90.6726 387.023 110.465C392.209 119.666 395.16 130.24 395.16 141.478C395.16 142.769 395.124 144.051 395.042 145.323C396.44 145.233 397.839 145.187 399.255 145.187C410.334 145.187 420.777 147.915 429.931 152.724C450.527 163.543 464.575 184.9 464.575 209.421C464.575 232.414 452.216 252.607 433.709 263.962C424.61 245.242 405.43 232.341 383.237 232.341C357.428 232.341 335.697 249.797 329.15 273.554H312.495V309.049H331.003C339.194 329.914 359.481 344.698 383.237 344.698C409.762 344.698 431.965 326.269 437.822 301.502C474.283 286.492 500 250.879 500 209.421H499.991ZM383.227 336.515C356.793 336.515 335.289 314.986 335.289 288.519C335.289 262.053 356.793 240.524 383.227 240.524C409.662 240.524 431.166 262.053 431.166 288.519C431.166 314.986 409.662 336.515 383.227 336.515Z" fill="white"/>
<path d="M333.055 74.4912C364.902 74.4912 390.801 100.43 390.801 132.306C390.801 164.182 364.893 190.121 333.055 190.121C301.217 190.121 275.309 164.182 275.309 132.306C275.309 100.43 301.217 74.4912 333.055 74.4912ZM333.055 66.3086C296.649 66.3086 267.136 95.857 267.136 132.306C267.136 168.755 296.649 198.303 333.055 198.303C369.46 198.303 398.974 168.755 398.974 132.306C398.974 95.857 369.46 66.3086 333.055 66.3086Z" fill="white"/>
<path d="M226.652 222.969H177.042C171.757 222.969 167.462 227.269 167.462 232.561V328.543C167.462 333.834 171.757 338.135 177.042 338.135H226.652C231.937 338.135 236.232 333.834 236.232 328.543V232.561C236.232 227.269 231.937 222.969 226.652 222.969ZM204.376 321.797C203.704 322.46 202.787 322.842 201.843 322.842C200.898 322.842 199.981 322.46 199.309 321.797C198.646 321.124 198.265 320.206 198.265 319.26C198.265 318.314 198.646 317.396 199.309 316.723C199.972 316.06 200.898 315.678 201.843 315.678C202.787 315.678 203.704 316.06 204.376 316.723C205.039 317.396 205.42 318.314 205.42 319.26C205.42 320.206 205.039 321.124 204.376 321.797ZM215.446 265.355H188.003C186.014 265.355 184.407 263.745 184.407 261.754C184.407 259.763 186.014 258.154 188.003 258.154H215.446C217.435 258.154 219.042 259.763 219.042 261.754C219.042 263.745 217.435 265.355 215.446 265.355ZM215.446 250.781H188.003C186.014 250.781 184.407 249.171 184.407 247.18C184.407 245.189 186.014 243.58 188.003 243.58H215.446C217.435 243.58 219.042 245.189 219.042 247.18C219.042 249.171 217.435 250.781 215.446 250.781Z" fill="white"/>
<path d="M152.224 238.891H109.471C104.921 238.891 101.207 242.6 101.207 247.164V329.881C101.207 334.445 104.912 338.155 109.471 338.155H152.224C156.774 338.155 160.488 334.445 160.488 329.881V247.164C160.488 242.609 156.783 238.891 152.224 238.891ZM133.027 324.054C132.455 324.626 131.656 324.954 130.847 324.954C130.039 324.954 129.24 324.626 128.668 324.054C128.096 323.481 127.769 322.681 127.769 321.872C127.769 321.062 128.096 320.262 128.668 319.689C129.24 319.117 130.039 318.789 130.847 318.789C131.656 318.789 132.455 319.117 133.027 319.689C133.599 320.262 133.926 321.062 133.926 321.872C133.926 322.681 133.599 323.481 133.027 324.054ZM142.562 275.421H118.915C117.208 275.421 115.818 274.03 115.818 272.321C115.818 270.612 117.208 269.221 118.915 269.221H142.562C144.269 269.221 145.659 270.612 145.659 272.321C145.659 274.03 144.269 275.421 142.562 275.421ZM142.562 262.857H118.915C117.208 262.857 115.818 261.466 115.818 259.756C115.818 258.047 117.208 256.656 118.915 256.656H142.562C144.269 256.656 145.659 258.047 145.659 259.756C145.659 261.466 144.269 262.857 142.562 262.857Z" fill="white"/>
<path d="M294.223 238.891H251.47C246.92 238.891 243.206 242.6 243.206 247.164V329.881C243.206 334.445 246.911 338.155 251.47 338.155H294.223C298.773 338.155 302.487 334.445 302.487 329.881V247.164C302.487 242.609 298.782 238.891 294.223 238.891ZM275.026 324.054C274.454 324.626 273.655 324.954 272.846 324.954C272.038 324.954 271.239 324.626 270.667 324.054C270.095 323.481 269.768 322.681 269.768 321.872C269.768 321.062 270.095 320.262 270.667 319.689C271.239 319.117 272.038 318.789 272.846 318.789C273.655 318.789 274.454 319.117 275.026 319.689C275.598 320.262 275.925 321.062 275.925 321.872C275.925 322.681 275.598 323.481 275.026 324.054ZM284.561 275.421H260.914C259.207 275.421 257.817 274.03 257.817 272.321C257.817 270.612 259.207 269.221 260.914 269.221H284.561C286.268 269.221 287.658 270.612 287.658 272.321C287.658 274.03 286.268 275.421 284.561 275.421ZM284.561 262.857H260.914C259.207 262.857 257.817 261.466 257.817 259.756C257.817 258.047 259.207 256.656 260.914 256.656H284.561C286.268 256.656 287.658 258.047 287.658 259.756C287.658 261.466 286.268 262.857 284.561 262.857Z" fill="white"/>
<path d="M323.892 99.0587L332.483 91.8398H332.51C332.819 91.8853 333.119 91.9399 333.418 91.9944C351.853 95.6675 363.803 113.642 360.116 132.071C356.475 150.355 338.849 162.247 320.632 158.901C324.564 158.01 328.342 156.201 331.647 153.437C342.708 144.145 344.161 127.634 334.871 116.551C329.55 110.205 321.858 107.023 314.185 107.214L323.901 99.0496L323.892 99.0587Z" fill="white"/>
<path d="M294.479 164.595C292.699 162.477 292.981 159.313 295.097 157.54C297.213 155.758 300.373 156.04 302.144 158.158C303.923 160.277 303.642 163.441 301.526 165.214C299.41 166.996 296.25 166.714 294.479 164.595Z" fill="white"/>
<path d="M342.79 179.352C327.316 182.461 312.087 177.788 301.145 168.032C301.78 167.76 302.389 167.396 302.961 166.923C304.105 165.96 304.877 164.714 305.258 163.377C307.647 164.759 310.189 165.923 312.85 166.841C335.625 174.679 360.407 162.532 368.208 139.748C376.036 116.946 363.903 92.1341 341.146 84.3242C360.97 87.5882 376.689 102.79 380.603 122.473C385.852 148.64 368.925 174.106 342.79 179.361V179.352Z" fill="white"/>
<path d="M365.083 284.638C365.083 285.611 365.192 286.402 365.374 286.984C365.583 287.565 365.846 288.193 366.219 288.875C366.346 289.084 366.4 289.293 366.4 289.484C366.4 289.748 366.246 290.011 365.901 290.275L364.248 291.384C364.012 291.539 363.776 291.62 363.567 291.62C363.304 291.62 363.04 291.493 362.777 291.248C362.405 290.857 362.096 290.429 361.832 290.011C361.569 289.566 361.306 289.066 361.015 288.456C358.963 290.875 356.393 292.084 353.287 292.084C351.081 292.084 349.319 291.457 348.029 290.193C346.74 288.929 346.086 287.247 346.086 285.138C346.086 282.901 346.876 281.083 348.474 279.719C350.082 278.346 352.207 277.664 354.913 277.664C355.803 277.664 356.729 277.746 357.701 277.874C358.672 278.001 359.671 278.219 360.725 278.455V276.537C360.725 274.537 360.307 273.146 359.49 272.328C358.645 271.509 357.228 271.118 355.203 271.118C354.286 271.118 353.342 271.227 352.361 271.464C351.389 271.7 350.445 271.991 349.519 272.355C349.101 272.537 348.783 272.646 348.601 272.7C348.42 272.755 348.284 272.782 348.184 272.782C347.811 272.782 347.63 272.519 347.63 271.964V270.673C347.63 270.255 347.684 269.936 347.811 269.755C347.938 269.573 348.184 269.382 348.547 269.2C349.464 268.727 350.572 268.327 351.861 268.018C353.151 267.673 354.513 267.518 355.966 267.518C359.09 267.518 361.378 268.227 362.85 269.646C364.293 271.064 365.029 273.228 365.029 276.119V284.647H365.083V284.638ZM354.413 288.638C355.285 288.638 356.175 288.484 357.119 288.166C358.064 287.847 358.908 287.275 359.617 286.484C360.034 285.984 360.352 285.429 360.507 284.802C360.661 284.174 360.77 283.411 360.77 282.51V281.401C360.007 281.219 359.19 281.056 358.354 280.956C357.519 280.856 356.702 280.801 355.884 280.801C354.123 280.801 352.833 281.147 351.97 281.856C351.099 282.565 350.681 283.565 350.681 284.883C350.681 286.12 350.999 287.038 351.653 287.675C352.279 288.329 353.205 288.647 354.413 288.647V288.638ZM375.517 291.475C375.045 291.475 374.727 291.393 374.519 291.211C374.31 291.057 374.128 290.684 373.965 290.184L367.79 269.846C367.635 269.318 367.553 268.973 367.553 268.791C367.553 268.373 367.762 268.136 368.18 268.136H370.759C371.259 268.136 371.604 268.218 371.785 268.4C371.994 268.555 372.158 268.927 372.312 269.427L376.725 286.847L380.83 269.427C380.957 268.9 381.12 268.555 381.329 268.4C381.538 268.245 381.91 268.136 382.383 268.136H384.49C384.989 268.136 385.334 268.218 385.543 268.4C385.752 268.555 385.933 268.927 386.042 269.427L390.192 287.056L394.742 269.427C394.896 268.9 395.087 268.555 395.269 268.4C395.478 268.245 395.823 268.136 396.295 268.136H398.738C399.155 268.136 399.391 268.345 399.391 268.791C399.391 268.918 399.364 269.055 399.337 269.209C399.31 269.364 399.255 269.582 399.155 269.864L392.817 290.202C392.662 290.729 392.472 291.075 392.263 291.229C392.054 291.384 391.709 291.493 391.264 291.493H389.003C388.503 291.493 388.158 291.411 387.949 291.229C387.74 291.048 387.559 290.702 387.45 290.175L383.373 273.2L379.322 290.148C379.195 290.675 379.032 291.02 378.823 291.202C378.614 291.384 378.242 291.466 377.77 291.466H375.508L375.517 291.475ZM409.29 292.193C407.918 292.193 406.556 292.039 405.24 291.72C403.923 291.402 402.897 291.066 402.216 290.666C401.798 290.429 401.507 290.166 401.398 289.929C401.289 289.693 401.244 289.429 401.244 289.193V287.847C401.244 287.293 401.453 287.029 401.852 287.029C402.007 287.029 402.17 287.056 402.325 287.111C402.479 287.165 402.715 287.265 402.978 287.375C403.868 287.765 404.84 288.084 405.866 288.293C406.92 288.502 407.946 288.611 408.99 288.611C410.643 288.611 411.932 288.32 412.831 287.738C413.721 287.156 414.203 286.32 414.203 285.238C414.203 284.502 413.966 283.892 413.494 283.392C413.022 282.892 412.123 282.447 410.843 282.019L407.029 280.838C405.112 280.228 403.687 279.337 402.824 278.155C401.952 277.001 401.507 275.71 401.507 274.337C401.507 273.228 401.743 272.255 402.216 271.418C402.688 270.573 403.324 269.836 404.104 269.264C404.895 268.655 405.784 268.209 406.838 267.891C407.891 267.573 408.99 267.445 410.152 267.445C410.734 267.445 411.333 267.473 411.914 267.554C412.523 267.636 413.067 267.736 413.621 267.845C414.148 267.973 414.648 268.109 415.12 268.264C415.592 268.418 415.964 268.582 416.228 268.736C416.6 268.945 416.854 269.155 417.018 269.391C417.172 269.6 417.254 269.891 417.254 270.264V271.5C417.254 272.055 417.045 272.346 416.645 272.346C416.437 272.346 416.091 272.237 415.646 272.028C414.148 271.346 412.468 271 410.597 271C409.099 271 407.919 271.237 407.101 271.737C406.284 272.237 405.866 273 405.866 274.082C405.866 274.819 406.13 275.455 406.656 275.946C407.183 276.446 408.155 276.946 409.544 277.392L413.276 278.574C415.165 279.183 416.536 280.019 417.354 281.101C418.171 282.183 418.561 283.42 418.561 284.783C418.561 285.911 418.325 286.938 417.88 287.838C417.408 288.729 416.773 289.52 415.964 290.157C415.147 290.811 414.175 291.284 413.049 291.63C411.869 292.002 410.634 292.184 409.29 292.184V292.193Z" fill="white"/>
<path d="M414.258 304.981C405.612 311.373 393.044 314.773 382.247 314.773C367.109 314.773 353.469 309.173 343.162 299.854C342.345 299.117 343.081 298.117 344.052 298.699C355.195 305.172 368.943 309.091 383.164 309.091C392.754 309.091 403.297 307.091 412.995 302.99C414.439 302.336 415.674 303.936 414.258 304.991V304.981ZM417.854 300.881C416.746 299.463 410.543 300.199 407.737 300.536C406.893 300.645 406.766 299.908 407.529 299.354C412.469 295.881 420.587 296.881 421.54 298.035C422.485 299.217 421.277 307.354 416.655 311.246C415.947 311.855 415.266 311.537 415.574 310.746C416.628 308.136 418.962 302.272 417.863 300.881H417.854Z" fill="white"/>
</svg>
