<svg width="75" height="52" viewBox="0 0 75 52" fill="none" xmlns="http://www.w3.org/2000/svg">
<path d="M74.9986 31.4131C74.9986 24.5697 70.3292 18.7846 63.9761 17.0171C62.1372 10.8106 56.3331 6.26653 49.476 6.26653C47.5935 6.26653 45.79 6.60883 44.1255 7.23617C40.6479 2.83119 35.2661 0 29.2358 0C19.3739 0 11.2445 7.57575 10.3496 17.2203C4.34253 19.1978 0 24.8124 0 31.4131C0 39.0911 5.87495 45.434 13.4104 46.2727V40.9008C8.81583 40.1071 5.31239 36.1549 5.31239 31.4131C5.31239 27.675 7.48774 24.4292 10.6575 22.8322C11.9951 22.1585 13.5084 21.7781 15.1103 21.7781C15.3664 21.7781 15.6198 21.7876 15.8718 21.8081C15.6811 20.8984 15.5803 19.9561 15.5803 18.9905C15.5803 18.1313 15.6593 17.2912 15.8132 16.4757C16.9942 10.1342 22.564 5.31871 29.2358 5.31871C33.3264 5.31871 37.0042 7.12843 39.5078 9.99235C40.7106 11.3657 41.6423 12.9804 42.2198 14.7533C43.4444 13.425 45.0422 12.4321 46.8484 11.9384C47.6848 11.708 48.5661 11.5852 49.476 11.5852C53.1647 11.5852 56.3835 13.6009 58.0535 16.5698C58.8313 17.9499 59.274 19.536 59.274 21.2216C59.274 21.4153 59.2685 21.6076 59.2563 21.7985C59.466 21.7849 59.6758 21.7781 59.8883 21.7781C61.5501 21.7781 63.1166 22.1872 64.4896 22.9086C67.579 24.5315 69.6863 27.735 69.6863 31.4131C69.6863 34.8621 67.8324 37.891 65.0563 39.5944C63.6914 36.7863 60.8146 34.8512 57.4855 34.8512C53.6142 34.8512 50.3546 37.4696 49.3725 41.0331H46.8743V46.3573H49.6504C50.879 49.4871 53.9221 51.7046 57.4855 51.7046C61.4643 51.7046 64.7948 48.9403 65.6734 45.2254C71.1424 42.9738 75 37.6319 75 31.4131H74.9986ZM57.4841 50.4772C53.5189 50.4772 50.2933 47.2478 50.2933 43.2779C50.2933 39.308 53.5189 36.0786 57.4841 36.0786C61.4493 36.0786 64.6749 39.308 64.6749 43.2779C64.6749 47.2478 61.4493 50.4772 57.4841 50.4772Z" fill="#343433"/>
<path d="M49.9582 11.1727C54.7352 11.1727 58.6201 15.0635 58.6201 19.8449C58.6201 24.6263 54.7339 28.5171 49.9582 28.5171C45.1825 28.5171 41.2962 24.6263 41.2962 19.8449C41.2962 15.0635 45.1825 11.1727 49.9582 11.1727ZM49.9582 9.94531C44.4973 9.94531 40.0703 14.3776 40.0703 19.8449C40.0703 25.3123 44.4973 29.7445 49.9582 29.7445C55.419 29.7445 59.846 25.3123 59.846 19.8449C59.846 14.3776 55.419 9.94531 49.9582 9.94531Z" fill="#343433"/>
<path d="M33.9967 33.4453H26.5552C25.7625 33.4453 25.1182 34.0904 25.1182 34.8841V49.2814C25.1182 50.0751 25.7625 50.7202 26.5552 50.7202H33.9967C34.7894 50.7202 35.4337 50.0751 35.4337 49.2814V34.8841C35.4337 34.0904 34.7894 33.4453 33.9967 33.4453ZM30.6553 48.2695C30.5545 48.3691 30.4169 48.4263 30.2753 48.4263C30.1336 48.4263 29.996 48.3691 29.8952 48.2695C29.7958 48.1686 29.7386 48.0308 29.7386 47.889C29.7386 47.7472 29.7958 47.6094 29.8952 47.5085C29.9947 47.409 30.1336 47.3517 30.2753 47.3517C30.4169 47.3517 30.5545 47.409 30.6553 47.5085C30.7547 47.6094 30.8119 47.7472 30.8119 47.889C30.8119 48.0308 30.7547 48.1686 30.6553 48.2695ZM32.3158 39.8032H28.1993C27.901 39.8032 27.6599 39.5618 27.6599 39.2632C27.6599 38.9645 27.901 38.7231 28.1993 38.7231H32.3158C32.6141 38.7231 32.8552 38.9645 32.8552 39.2632C32.8552 39.5618 32.6141 39.8032 32.3158 39.8032ZM32.3158 37.6171H28.1993C27.901 37.6171 27.6599 37.3757 27.6599 37.077C27.6599 36.7784 27.901 36.537 28.1993 36.537H32.3158C32.6141 36.537 32.8552 36.7784 32.8552 37.077C32.8552 37.3757 32.6141 37.6171 32.3158 37.6171Z" fill="#343433"/>
<path d="M22.8323 35.8359H16.4193C15.7368 35.8359 15.1797 36.3924 15.1797 37.077V49.4846C15.1797 50.1692 15.7355 50.7256 16.4193 50.7256H22.8323C23.5147 50.7256 24.0718 50.1692 24.0718 49.4846V37.077C24.0718 36.3937 23.5161 35.8359 22.8323 35.8359ZM19.9527 48.6104C19.8669 48.6963 19.747 48.7454 19.6257 48.7454C19.5045 48.7454 19.3846 48.6963 19.2988 48.6104C19.213 48.5245 19.164 48.4044 19.164 48.2831C19.164 48.1617 19.213 48.0417 19.2988 47.9558C19.3846 47.8698 19.5045 47.8208 19.6257 47.8208C19.747 47.8208 19.8669 47.8698 19.9527 47.9558C20.0385 48.0417 20.0875 48.1617 20.0875 48.2831C20.0875 48.4044 20.0385 48.5245 19.9527 48.6104ZM21.3843 41.3142H17.8372C17.5812 41.3142 17.3728 41.1055 17.3728 40.8492C17.3728 40.5928 17.5812 40.3841 17.8372 40.3841H21.3843C21.6404 40.3841 21.8488 40.5928 21.8488 40.8492C21.8488 41.1055 21.6404 41.3142 21.3843 41.3142ZM21.3843 39.4308H17.8372C17.5812 39.4308 17.3728 39.2222 17.3728 38.9658C17.3728 38.7094 17.5812 38.5007 17.8372 38.5007H21.3843C21.6404 38.5007 21.8488 38.7094 21.8488 38.9658C21.8488 39.2222 21.6404 39.4308 21.3843 39.4308Z" fill="#343433"/>
<path d="M44.1321 35.8359H37.7191C37.0366 35.8359 36.4795 36.3924 36.4795 37.077V49.4846C36.4795 50.1692 37.0353 50.7256 37.7191 50.7256H44.1321C44.8145 50.7256 45.3716 50.1692 45.3716 49.4846V37.077C45.3716 36.3937 44.8159 35.8359 44.1321 35.8359ZM41.2525 48.6104C41.1667 48.6963 41.0468 48.7454 40.9256 48.7454C40.8043 48.7454 40.6845 48.6963 40.5987 48.6104C40.5128 48.5245 40.4638 48.4044 40.4638 48.2831C40.4638 48.1617 40.5128 48.0417 40.5987 47.9558C40.6845 47.8698 40.8043 47.8208 40.9256 47.8208C41.0468 47.8208 41.1667 47.8698 41.2525 47.9558C41.3383 48.0417 41.3873 48.1617 41.3873 48.2831C41.3873 48.4044 41.3383 48.5245 41.2525 48.6104ZM42.6841 41.3142H39.137C38.881 41.3142 38.6726 41.1055 38.6726 40.8492C38.6726 40.5928 38.881 40.3841 39.137 40.3841H42.6841C42.9402 40.3841 43.1486 40.5928 43.1486 40.8492C43.1486 41.1055 42.9402 41.3142 42.6841 41.3142ZM42.6841 39.4308H39.137C38.881 39.4308 38.6726 39.2222 38.6726 38.9658C38.6726 38.7094 38.881 38.5007 39.137 38.5007H42.6841C42.9402 38.5007 43.1486 38.7094 43.1486 38.9658C43.1486 39.2222 42.9402 39.4308 42.6841 39.4308Z" fill="#343433"/>
<path d="M48.5821 14.8563L49.8707 13.7734H49.8748C49.9211 13.7803 49.9661 13.7884 50.011 13.7966C52.7762 14.3476 54.5688 17.0438 54.0157 19.8081C53.4695 22.5507 50.8256 24.3345 48.0931 23.8326C48.6829 23.699 49.2496 23.4276 49.7454 23.013C51.4045 21.6192 51.6224 19.1426 50.229 17.4802C49.4307 16.5283 48.277 16.0509 47.126 16.0796L48.5835 14.8549L48.5821 14.8563Z" fill="#343433"/>
<path d="M44.1718 24.6913C43.9048 24.3735 43.9471 23.8989 44.2644 23.633C44.5818 23.3657 45.0559 23.408 45.3215 23.7257C45.5885 24.0435 45.5462 24.5181 45.2289 24.784C44.9115 25.0513 44.4375 25.009 44.1718 24.6913Z" fill="#343433"/>
<path d="M51.4177 26.9026C49.0966 27.369 46.8123 26.668 45.1709 25.2047C45.2662 25.1638 45.3575 25.1092 45.4433 25.0383C45.615 24.8937 45.7307 24.7069 45.788 24.5064C46.1462 24.7137 46.5276 24.8883 46.9267 25.026C50.343 26.2016 54.0603 24.3796 55.2304 20.962C56.4045 17.5416 54.5847 13.8199 51.1712 12.6484C54.1448 13.138 56.5026 15.4183 57.0897 18.3708C57.877 22.2958 55.338 26.1157 51.4177 26.9039V26.9026Z" fill="#343433"/>
<path d="M56.4706 39.5184L52.9113 39.9807C52.8118 39.993 52.7383 40.0789 52.7383 40.1785V42.9497C52.7383 43.0588 52.8268 43.1474 52.9358 43.1474H56.4951C56.6041 43.1474 56.6926 43.0588 56.6926 42.9497V39.7134C56.6926 39.6562 56.6681 39.603 56.6258 39.5648C56.5823 39.528 56.5264 39.5102 56.4706 39.5171V39.5184Z" fill="#343433"/>
<path d="M62.1619 38.8435C62.1197 38.8053 62.0625 38.7876 62.0066 38.7944L57.2609 39.4135C57.1614 39.4258 57.0879 39.5117 57.0879 39.6113V42.9512C57.0879 43.0603 57.1764 43.1489 57.2854 43.1489H62.0311C62.1401 43.1489 62.2286 43.0603 62.2286 42.9512V38.9921C62.2286 38.9349 62.2041 38.8817 62.1619 38.8435Z" fill="#343433"/>
<path d="M56.4951 43.5469H52.9358C52.8268 43.5469 52.7383 43.6355 52.7383 43.7446V46.5158C52.7383 46.6154 52.8118 46.7013 52.9113 46.7136L56.4706 47.1786C56.4787 47.1786 56.4869 47.1786 56.4964 47.1786C56.6054 47.1786 56.694 47.09 56.694 46.9808V43.7446C56.694 43.6355 56.6054 43.5469 56.4964 43.5469H56.4951Z" fill="#343433"/>
<path d="M62.0321 43.5469H57.2864C57.1774 43.5469 57.0889 43.6355 57.0889 43.7446V47.0845C57.0889 47.1841 57.1624 47.27 57.2619 47.2822L62.0076 47.9014C62.0158 47.9014 62.0239 47.9014 62.0335 47.9014C62.1425 47.9014 62.231 47.8128 62.231 47.7036V43.7446C62.231 43.6355 62.1425 43.5469 62.0335 43.5469H62.0321Z" fill="#343433"/>
</svg>
