<svg width="75" height="52" viewBox="0 0 75 52" fill="none" xmlns="http://www.w3.org/2000/svg">
<path d="M74.9986 31.4131C74.9986 24.5697 70.3292 18.7846 63.9761 17.0171C62.1372 10.8106 56.3331 6.26653 49.476 6.26653C47.5935 6.26653 45.7901 6.60883 44.1255 7.23617C40.6479 2.83119 35.2661 0 29.2358 0C19.3739 0 11.2445 7.57575 10.3496 17.2203C4.34253 19.1978 0 24.8124 0 31.4131C0 39.0911 5.87496 45.434 13.4104 46.2727V40.9008C8.81584 40.1071 5.31239 36.1549 5.31239 31.4131C5.31239 27.675 7.48774 24.4292 10.6575 22.8322C11.9951 22.1585 13.5084 21.7781 15.1103 21.7781C15.3664 21.7781 15.6198 21.7876 15.8718 21.8081C15.6811 20.8984 15.5803 19.9561 15.5803 18.9905C15.5803 18.1313 15.6593 17.2912 15.8132 16.4757C16.9942 10.1342 22.564 5.31871 29.2358 5.31871C33.3264 5.31871 37.0042 7.12843 39.5078 9.99235C40.7106 11.3657 41.6423 12.9804 42.2198 14.7533C43.4444 13.425 45.0422 12.4321 46.8484 11.9384C47.6848 11.708 48.5661 11.5852 49.476 11.5852C53.1647 11.5852 56.3835 13.6009 58.0535 16.5698C58.8313 17.9499 59.274 19.536 59.274 21.2216C59.274 21.4153 59.2685 21.6076 59.2563 21.7985C59.466 21.7849 59.6758 21.7781 59.8883 21.7781C61.5501 21.7781 63.1166 22.1872 64.4897 22.9086C67.579 24.5315 69.6863 27.735 69.6863 31.4131C69.6863 34.8621 67.8324 37.891 65.0563 39.5944C63.6914 36.7863 60.8146 34.8512 57.4855 34.8512C53.6142 34.8512 50.3546 37.4696 49.3725 41.0331H46.8743V46.3573H49.6504C50.879 49.4871 53.9221 51.7046 57.4855 51.7046C61.4643 51.7046 64.7948 48.9403 65.6734 45.2254C71.1424 42.9738 75 37.6319 75 31.4131H74.9986ZM57.4841 50.4772C53.5189 50.4772 50.2933 47.2478 50.2933 43.2779C50.2933 39.308 53.5189 36.0786 57.4841 36.0786C61.4493 36.0786 64.6749 39.308 64.6749 43.2779C64.6749 47.2478 61.4493 50.4772 57.4841 50.4772Z" fill="url(#paint0_linear_1022_1591)"/>
<path d="M49.9582 11.1727C54.7352 11.1727 58.6201 15.0635 58.6201 19.8449C58.6201 24.6263 54.7339 28.5171 49.9582 28.5171C45.1825 28.5171 41.2962 24.6263 41.2962 19.8449C41.2962 15.0635 45.1825 11.1727 49.9582 11.1727ZM49.9582 9.94531C44.4973 9.94531 40.0703 14.3776 40.0703 19.8449C40.0703 25.3123 44.4973 29.7445 49.9582 29.7445C55.419 29.7445 59.846 25.3123 59.846 19.8449C59.846 14.3776 55.419 9.94531 49.9582 9.94531Z" fill="url(#paint1_linear_1022_1591)"/>
<path d="M33.9976 33.4453H26.5562C25.7634 33.4453 25.1191 34.0904 25.1191 34.8841V49.2814C25.1191 50.0751 25.7634 50.7202 26.5562 50.7202H33.9976C34.7904 50.7202 35.4347 50.0751 35.4347 49.2814V34.8841C35.4347 34.0904 34.7904 33.4453 33.9976 33.4453ZM30.6563 48.2695C30.5555 48.3691 30.4179 48.4263 30.2762 48.4263C30.1346 48.4263 29.997 48.3691 29.8962 48.2695C29.7968 48.1686 29.7396 48.0308 29.7396 47.889C29.7396 47.7472 29.7968 47.6094 29.8962 47.5085C29.9956 47.409 30.1346 47.3517 30.2762 47.3517C30.4179 47.3517 30.5555 47.409 30.6563 47.5085C30.7557 47.6094 30.8129 47.7472 30.8129 47.889C30.8129 48.0308 30.7557 48.1686 30.6563 48.2695ZM32.3167 39.8032H28.2003C27.902 39.8032 27.6609 39.5618 27.6609 39.2632C27.6609 38.9645 27.902 38.7231 28.2003 38.7231H32.3167C32.615 38.7231 32.8562 38.9645 32.8562 39.2632C32.8562 39.5618 32.615 39.8032 32.3167 39.8032ZM32.3167 37.6171H28.2003C27.902 37.6171 27.6609 37.3757 27.6609 37.077C27.6609 36.7784 27.902 36.537 28.2003 36.537H32.3167C32.615 36.537 32.8562 36.7784 32.8562 37.077C32.8562 37.3757 32.615 37.6171 32.3167 37.6171Z" fill="url(#paint2_linear_1022_1591)"/>
<path d="M22.8332 35.832H16.4202C15.7378 35.832 15.1807 36.3885 15.1807 37.0731V49.4806C15.1807 50.1653 15.7364 50.7217 16.4202 50.7217H22.8332C23.5157 50.7217 24.0728 50.1653 24.0728 49.4806V37.0731C24.0728 36.3898 23.517 35.832 22.8332 35.832ZM19.9536 48.6065C19.8678 48.6924 19.748 48.7415 19.6267 48.7415C19.5055 48.7415 19.3856 48.6924 19.2998 48.6065C19.214 48.5206 19.165 48.4005 19.165 48.2792C19.165 48.1578 19.214 48.0378 19.2998 47.9519C19.3856 47.8659 19.5055 47.8168 19.6267 47.8168C19.748 47.8168 19.8678 47.8659 19.9536 47.9519C20.0395 48.0378 20.0885 48.1578 20.0885 48.2792C20.0885 48.4005 20.0395 48.5206 19.9536 48.6065ZM21.3839 41.3117H17.8369C17.5808 41.3117 17.3724 41.103 17.3724 40.8466C17.3724 40.5902 17.5808 40.3816 17.8369 40.3816H21.3839C21.64 40.3816 21.8484 40.5902 21.8484 40.8466C21.8484 41.103 21.64 41.3117 21.3839 41.3117ZM21.3839 39.4269H17.8369C17.5808 39.4269 17.3724 39.2183 17.3724 38.9619C17.3724 38.7055 17.5808 38.4968 17.8369 38.4968H21.3839C21.64 38.4968 21.8484 38.7055 21.8484 38.9619C21.8484 39.2183 21.64 39.4269 21.3839 39.4269Z" fill="url(#paint3_linear_1022_1591)"/>
<path d="M44.134 35.832H37.721C37.0386 35.832 36.4814 36.3885 36.4814 37.0731V49.4806C36.4814 50.1653 37.0372 50.7217 37.721 50.7217H44.134C44.8164 50.7217 45.3736 50.1653 45.3736 49.4806V37.0731C45.3736 36.3898 44.8178 35.832 44.134 35.832ZM41.2544 48.6065C41.1686 48.6924 41.0487 48.7415 40.9275 48.7415C40.8063 48.7415 40.6864 48.6924 40.6006 48.6065C40.5148 48.5206 40.4657 48.4005 40.4657 48.2792C40.4657 48.1578 40.5148 48.0378 40.6006 47.9519C40.6864 47.8659 40.8063 47.8168 40.9275 47.8168C41.0487 47.8168 41.1686 47.8659 41.2544 47.9519C41.3402 48.0378 41.3893 48.1578 41.3893 48.2792C41.3893 48.4005 41.3402 48.5206 41.2544 48.6065ZM42.6847 41.3117H39.1376C38.8816 41.3117 38.6731 41.103 38.6731 40.8466C38.6731 40.5902 38.8816 40.3816 39.1376 40.3816H42.6847C42.9408 40.3816 43.1492 40.5902 43.1492 40.8466C43.1492 41.103 42.9408 41.3117 42.6847 41.3117ZM42.6847 39.4269H39.1376C38.8816 39.4269 38.6731 39.2183 38.6731 38.9619C38.6731 38.7055 38.8816 38.4968 39.1376 38.4968H42.6847C42.9408 38.4968 43.1492 38.7055 43.1492 38.9619C43.1492 39.2183 42.9408 39.4269 42.6847 39.4269Z" fill="url(#paint4_linear_1022_1591)"/>
<path d="M48.5841 14.8602L49.8727 13.7773H49.8768C49.9231 13.7842 49.968 13.7923 50.013 13.8005C52.7781 14.3515 54.5707 17.0477 54.0177 19.812C53.4715 22.5546 50.8275 24.3384 48.0951 23.8365C48.6849 23.7029 49.2515 23.4315 49.7473 23.0169C51.4064 21.6231 51.6244 19.1465 50.2309 17.4841C49.4327 16.5322 48.2789 16.0548 47.1279 16.0835L48.5854 14.8588L48.5841 14.8602Z" fill="#303446"/>
<path d="M44.1718 24.6913C43.9048 24.3735 43.9471 23.8989 44.2644 23.633C44.5818 23.3657 45.0559 23.408 45.3215 23.7257C45.5885 24.0435 45.5462 24.5181 45.2289 24.784C44.9115 25.0513 44.4375 25.009 44.1718 24.6913Z" fill="#303446"/>
<path d="M51.4187 26.9026C49.0976 27.369 46.8133 26.668 45.1719 25.2047C45.2672 25.1638 45.3585 25.1092 45.4443 25.0383C45.6159 24.8937 45.7317 24.7069 45.7889 24.5064C46.1472 24.7137 46.5286 24.8883 46.9277 25.026C50.344 26.2016 54.0613 24.3796 55.2314 20.962C56.4055 17.5416 54.5857 13.8199 51.1722 12.6484C54.1457 13.138 56.5036 15.4183 57.0907 18.3708C57.878 22.2958 55.339 26.1157 51.4187 26.9039V26.9026Z" fill="#303446"/>
<path d="M54.7627 42.6961C54.7627 42.842 54.779 42.9606 54.8063 43.0479C54.8376 43.1352 54.8771 43.2293 54.933 43.3316C54.952 43.363 54.9602 43.3943 54.9602 43.423C54.9602 43.4625 54.9371 43.5021 54.8853 43.5416L54.6374 43.708C54.602 43.7312 54.5666 43.7435 54.5352 43.7435C54.4957 43.7435 54.4562 43.7244 54.4167 43.6875C54.3609 43.6289 54.3146 43.5648 54.2751 43.5021C54.2355 43.4352 54.1961 43.3602 54.1525 43.2689C53.8446 43.6316 53.4591 43.813 52.9933 43.813C52.6623 43.813 52.398 43.7189 52.2046 43.5293C52.0112 43.3398 51.9131 43.0875 51.9131 42.7711C51.9131 42.4356 52.0316 42.1628 52.2713 41.9583C52.5124 41.7523 52.8312 41.6501 53.2371 41.6501C53.3706 41.6501 53.5095 41.6623 53.6553 41.6814C53.801 41.7005 53.9509 41.7333 54.1089 41.7687V41.481C54.1089 41.1809 54.0462 40.9723 53.9236 40.8495C53.7969 40.7268 53.5844 40.6682 53.2807 40.6682C53.1431 40.6682 53.0014 40.6845 52.8543 40.72C52.7086 40.7554 52.5669 40.7991 52.428 40.8536C52.3653 40.8809 52.3176 40.8973 52.2904 40.9054C52.2632 40.9136 52.2427 40.9177 52.2278 40.9177C52.1719 40.9177 52.1447 40.8782 52.1447 40.795V40.6013C52.1447 40.5386 52.1528 40.4909 52.1719 40.4636C52.191 40.4363 52.2278 40.4077 52.2822 40.3804C52.4198 40.3095 52.586 40.2495 52.7794 40.2031C52.9728 40.1513 53.1772 40.1281 53.3951 40.1281C53.8637 40.1281 54.207 40.2345 54.4276 40.4472C54.6442 40.66 54.7545 40.9845 54.7545 41.4182V42.6974H54.7627V42.6961ZM53.1622 43.2961C53.293 43.2961 53.4264 43.273 53.5681 43.2252C53.7098 43.1775 53.8364 43.0916 53.9427 42.9729C54.0054 42.8979 54.053 42.8147 54.0762 42.7206C54.0993 42.6265 54.1157 42.512 54.1157 42.377V42.2106C54.0013 42.1833 53.8787 42.1588 53.7534 42.1437C53.628 42.1287 53.5054 42.1206 53.3829 42.1206C53.1186 42.1206 52.9252 42.1724 52.7958 42.2788C52.665 42.3851 52.6023 42.5352 52.6023 42.7329C52.6023 42.9184 52.65 43.0561 52.7481 43.1516C52.8421 43.2498 52.981 43.2975 53.1622 43.2975V43.2961ZM56.3278 43.7216C56.257 43.7216 56.2093 43.7094 56.178 43.6821C56.1467 43.6589 56.1194 43.603 56.0949 43.528L55.1686 40.4772C55.1455 40.3981 55.1332 40.3463 55.1332 40.319C55.1332 40.2563 55.1645 40.2208 55.2272 40.2208H55.6141C55.689 40.2208 55.7407 40.2331 55.768 40.2604C55.7993 40.2836 55.8238 40.3395 55.847 40.4145L56.509 43.0275L57.1247 40.4145C57.1437 40.3354 57.1683 40.2836 57.1996 40.2604C57.2309 40.2372 57.2868 40.2208 57.3576 40.2208H57.6736C57.7485 40.2208 57.8003 40.2331 57.8316 40.2604C57.863 40.2836 57.8902 40.3395 57.9065 40.4145L58.5291 43.0588L59.2115 40.4145C59.2347 40.3354 59.2633 40.2836 59.2905 40.2604C59.3218 40.2372 59.3736 40.2208 59.4444 40.2208H59.8108C59.8735 40.2208 59.9089 40.2522 59.9089 40.319C59.9089 40.3381 59.9048 40.3586 59.9007 40.3818C59.8967 40.4049 59.8885 40.4377 59.8735 40.48L58.9227 43.5307C58.8996 43.6098 58.8709 43.6616 58.8396 43.6848C58.8083 43.708 58.7565 43.7244 58.6898 43.7244H58.3506C58.2757 43.7244 58.2239 43.7121 58.1926 43.6848C58.1613 43.6575 58.134 43.6057 58.1177 43.5266L57.5061 40.9805L56.8986 43.5225C56.8795 43.6016 56.855 43.6534 56.8236 43.6807C56.7923 43.708 56.7365 43.7203 56.6656 43.7203H56.3265L56.3278 43.7216ZM61.3936 43.8294C61.188 43.8294 60.9836 43.8062 60.7861 43.7585C60.5886 43.7107 60.4347 43.6603 60.3325 43.6003C60.2699 43.5648 60.2263 43.5253 60.2099 43.4898C60.1936 43.4543 60.1868 43.4148 60.1868 43.3793V43.1775C60.1868 43.0943 60.2181 43.0548 60.2781 43.0548C60.3012 43.0548 60.3257 43.0588 60.3489 43.067C60.372 43.0752 60.4075 43.0902 60.447 43.1066C60.5805 43.1652 60.7262 43.2129 60.8801 43.2443C61.0381 43.2757 61.1921 43.292 61.3487 43.292C61.5966 43.292 61.79 43.2484 61.9249 43.1611C62.0584 43.0738 62.1306 42.9484 62.1306 42.7861C62.1306 42.6756 62.0952 42.5842 62.0243 42.5092C61.9535 42.4342 61.8187 42.3674 61.6266 42.3033L61.0545 42.126C60.7671 42.0347 60.5532 41.901 60.4238 41.7237C60.293 41.5505 60.2263 41.3569 60.2263 41.1509C60.2263 40.9845 60.2617 40.8386 60.3325 40.7132C60.4034 40.5863 60.4987 40.4759 60.6159 40.3899C60.7344 40.2986 60.8679 40.2317 61.0259 40.184C61.1839 40.1363 61.3487 40.1172 61.5231 40.1172C61.6102 40.1172 61.7001 40.1213 61.7873 40.1336C61.8786 40.1458 61.9603 40.1608 62.0434 40.1772C62.1224 40.1963 62.1973 40.2167 62.2682 40.2399C62.339 40.2631 62.3948 40.2877 62.4343 40.3108C62.4902 40.3422 62.5283 40.3736 62.5528 40.409C62.576 40.4404 62.5883 40.484 62.5883 40.54V40.7254C62.5883 40.8086 62.5569 40.8523 62.497 40.8523C62.4657 40.8523 62.4139 40.8359 62.3472 40.8045C62.1224 40.7022 61.8704 40.6504 61.5898 40.6504C61.3651 40.6504 61.188 40.6859 61.0654 40.7609C60.9428 40.8359 60.8801 40.9504 60.8801 41.1127C60.8801 41.2232 60.9196 41.3187 60.9986 41.3923C61.0776 41.4673 61.2234 41.5423 61.4318 41.6092L61.9916 41.7864C62.275 41.8778 62.4806 42.0033 62.6032 42.1656C62.7258 42.3279 62.7844 42.5133 62.7844 42.7179C62.7844 42.887 62.749 43.0411 62.6823 43.1761C62.6114 43.3098 62.5161 43.4284 62.3948 43.5239C62.2723 43.6221 62.1265 43.693 61.9576 43.7448C61.7805 43.8007 61.5952 43.828 61.3936 43.828V43.8294Z" fill="#252F3E"/>
<path d="M62.1389 45.7466C60.8422 46.7054 58.957 47.2154 57.3374 47.2154C55.0666 47.2154 53.0207 46.3753 51.4747 44.9775C51.3521 44.867 51.4624 44.717 51.6081 44.8043C53.2795 45.7753 55.3418 46.3631 57.4749 46.3631C58.9134 46.3631 60.4948 46.063 61.9496 45.448C62.1662 45.3498 62.3514 45.5898 62.1389 45.748V45.7466ZM62.6783 45.1316C62.5122 44.9188 61.5818 45.0293 61.1609 45.0798C61.0342 45.0961 61.0152 44.9857 61.1296 44.9025C61.8706 44.3815 63.0883 44.5315 63.2314 44.7047C63.373 44.882 63.1919 46.1026 62.4985 46.6863C62.3923 46.7776 62.2901 46.7299 62.3364 46.6113C62.4944 46.2199 62.8445 45.3402 62.6797 45.1316H62.6783Z" fill="#FF9900"/>
<defs>
<linearGradient id="paint0_linear_1022_1591" x1="59.4916" y1="12.165" x2="31.5282" y2="59.8591" gradientUnits="userSpaceOnUse">
<stop offset="0.278846" stop-color="#33CFFF"/>
<stop offset="1" stop-color="#0D87C5"/>
</linearGradient>
<linearGradient id="paint1_linear_1022_1591" x1="55.7568" y1="14.6036" x2="43.6429" y2="28.8305" gradientUnits="userSpaceOnUse">
<stop offset="0.278846" stop-color="#33CFFF"/>
<stop offset="1" stop-color="#0D87C5"/>
</linearGradient>
<linearGradient id="paint2_linear_1022_1591" x1="33.3017" y1="37.5097" x2="23.2316" y2="44.5803" gradientUnits="userSpaceOnUse">
<stop offset="0.278846" stop-color="#33CFFF"/>
<stop offset="1" stop-color="#0D87C5"/>
</linearGradient>
<linearGradient id="paint3_linear_1022_1591" x1="22.2341" y1="39.3352" x2="13.5541" y2="45.4303" gradientUnits="userSpaceOnUse">
<stop offset="0.278846" stop-color="#33CFFF"/>
<stop offset="1" stop-color="#0D87C5"/>
</linearGradient>
<linearGradient id="paint4_linear_1022_1591" x1="43.5349" y1="39.3352" x2="34.8549" y2="45.4303" gradientUnits="userSpaceOnUse">
<stop offset="0.278846" stop-color="#33CFFF"/>
<stop offset="1" stop-color="#0D87C5"/>
</linearGradient>
</defs>
</svg>
