<svg width="250" height="173" viewBox="0 0 250 173" fill="none" xmlns="http://www.w3.org/2000/svg">
<path d="M249.996 104.71C249.996 81.899 234.431 62.6153 213.254 56.7238C207.124 36.0354 187.777 20.8884 164.92 20.8884C158.645 20.8884 152.634 22.0294 147.085 24.1206C135.493 9.43729 117.554 0 97.4528 0C64.5795 0 37.4818 25.2525 34.4987 57.4011C14.4751 63.9927 0 82.7082 0 104.71C0 130.304 19.5832 151.447 44.7012 154.243V136.336C29.3861 133.69 17.708 120.516 17.708 104.71C17.708 92.25 24.9591 81.4308 35.5249 76.1075C39.9837 73.8618 45.0281 72.5935 50.3678 72.5935C51.2214 72.5935 52.066 72.6254 52.9059 72.6935C52.2703 69.6614 51.9342 66.5202 51.9342 63.3017C51.9342 60.4378 52.1977 57.6375 52.7107 54.9191C56.6473 33.7806 75.2134 17.729 97.4528 17.729C111.088 17.729 123.347 23.7614 131.693 33.3078C135.702 37.8856 138.808 43.2679 140.733 49.1776C144.815 44.7499 150.141 41.4405 156.161 39.7948C158.949 39.0266 161.887 38.6174 164.92 38.6174C177.216 38.6174 187.945 45.3363 193.512 55.2327C196.104 59.8332 197.58 65.1201 197.58 70.7388C197.58 71.3843 197.562 72.0253 197.521 72.6617C198.22 72.6163 198.919 72.5935 199.628 72.5935C205.167 72.5935 210.389 73.9573 214.966 76.3621C225.263 81.7717 232.288 92.45 232.288 104.71C232.288 116.207 226.108 126.303 216.854 131.981C212.305 122.621 202.715 116.171 191.618 116.171C178.714 116.171 167.849 124.899 164.575 136.777H156.248V154.524H165.501C169.597 164.957 179.74 172.349 191.618 172.349C204.881 172.349 215.983 163.134 218.911 150.751C237.141 143.246 250 125.44 250 104.71H249.996ZM191.618 168.253C178.401 168.253 167.649 157.488 167.649 144.255C167.649 131.022 178.401 120.257 191.618 120.257C204.836 120.257 215.588 131.022 215.588 144.255C215.588 157.488 204.836 168.253 191.618 168.253Z" fill="#343433"/>
<path d="M166.528 37.2476C182.451 37.2476 195.401 50.217 195.401 66.155C195.401 82.0929 182.447 95.0624 166.528 95.0624C150.609 95.0624 137.655 82.0929 137.655 66.155C137.655 50.217 150.609 37.2476 166.528 37.2476ZM166.528 33.1562C148.325 33.1562 133.568 47.9304 133.568 66.155C133.568 84.3795 148.325 99.1537 166.528 99.1537C184.731 99.1537 199.487 84.3795 199.487 66.155C199.487 47.9304 184.731 33.1562 166.528 33.1562Z" fill="#343433"/>
<path d="M113.326 111.484H88.5207C85.8781 111.484 83.7305 113.635 83.7305 116.28V164.271C83.7305 166.917 85.8781 169.067 88.5207 169.067H113.326C115.968 169.067 118.116 166.917 118.116 164.271V116.28C118.116 113.635 115.968 111.484 113.326 111.484ZM102.188 160.894C101.852 161.226 101.393 161.417 100.921 161.417C100.449 161.417 99.99 161.226 99.654 160.894C99.3226 160.557 99.1319 160.098 99.1319 159.625C99.1319 159.153 99.3226 158.694 99.654 158.357C99.9855 158.025 100.449 157.834 100.921 157.834C101.393 157.834 101.852 158.025 102.188 158.357C102.519 158.694 102.71 159.153 102.71 159.625C102.71 160.098 102.519 160.557 102.188 160.894ZM107.723 132.673H94.0011C93.0068 132.673 92.2031 131.868 92.2031 130.873C92.2031 129.877 93.0068 129.072 94.0011 129.072H107.723C108.717 129.072 109.521 129.877 109.521 130.873C109.521 131.868 108.717 132.673 107.723 132.673ZM107.723 125.39H94.0011C93.0068 125.39 92.2031 124.586 92.2031 123.59C92.2031 122.595 93.0068 121.79 94.0011 121.79H107.723C108.717 121.79 109.521 122.595 109.521 123.59C109.521 124.586 108.717 125.39 107.723 125.39Z" fill="#343433"/>
<path d="M76.112 119.445H54.7354C52.4606 119.445 50.6035 121.3 50.6035 123.582V164.941C50.6035 167.223 52.4561 169.077 54.7354 169.077H76.112C78.3868 169.077 80.2439 167.223 80.2439 164.941V123.582C80.2439 121.305 78.3914 119.445 76.112 119.445ZM66.5135 162.027C66.2274 162.313 65.8279 162.477 65.4238 162.477C65.0197 162.477 64.62 162.313 64.334 162.027C64.0479 161.74 63.8845 161.34 63.8845 160.936C63.8845 160.531 64.0479 160.131 64.334 159.845C64.62 159.558 65.0197 159.395 65.4238 159.395C65.8279 159.395 66.2274 159.558 66.5135 159.845C66.7995 160.131 66.963 160.531 66.963 160.936C66.963 161.34 66.7995 161.74 66.5135 162.027ZM71.281 137.706H59.4575C58.6039 137.706 57.9092 137.011 57.9092 136.156C57.9092 135.301 58.6039 134.606 59.4575 134.606H71.281C72.1346 134.606 72.8293 135.301 72.8293 136.156C72.8293 137.011 72.1346 137.706 71.281 137.706ZM71.281 131.428H59.4575C58.6039 131.428 57.9092 130.733 57.9092 129.878C57.9092 129.024 58.6039 128.328 59.4575 128.328H71.281C72.1346 128.328 72.8293 129.024 72.8293 129.878C72.8293 130.733 72.1346 131.428 71.281 131.428Z" fill="#343433"/>
<path d="M147.112 119.445H125.735C123.461 119.445 121.604 121.3 121.604 123.582V164.941C121.604 167.223 123.456 169.077 125.735 169.077H147.112C149.387 169.077 151.244 167.223 151.244 164.941V123.582C151.244 121.305 149.391 119.445 147.112 119.445ZM137.513 162.027C137.227 162.313 136.828 162.477 136.424 162.477C136.02 162.477 135.62 162.313 135.334 162.027C135.048 161.74 134.884 161.34 134.884 160.936C134.884 160.531 135.048 160.131 135.334 159.845C135.62 159.558 136.02 159.395 136.424 159.395C136.828 159.395 137.227 159.558 137.513 159.845C137.799 160.131 137.963 160.531 137.963 160.936C137.963 161.34 137.799 161.74 137.513 162.027ZM142.285 137.706H130.462C129.608 137.706 128.914 137.011 128.914 136.156C128.914 135.301 129.608 134.606 130.462 134.606H142.285C143.139 134.606 143.834 135.301 143.834 136.156C143.834 137.011 143.139 137.706 142.285 137.706ZM142.285 131.428H130.462C129.608 131.428 128.914 130.733 128.914 129.878C128.914 129.024 129.608 128.328 130.462 128.328H142.285C143.139 128.328 143.834 129.024 143.834 129.878C143.834 130.733 143.139 131.428 142.285 131.428Z" fill="#343433"/>
<path d="M161.946 49.5235L166.241 45.9141H166.254C166.409 45.9368 166.559 45.9641 166.709 45.9913C175.926 47.8279 181.901 56.8151 180.058 66.0297C178.237 75.1715 169.424 81.1175 160.316 79.4446C162.282 78.9991 164.17 78.0945 165.823 76.7126C171.354 72.0666 172.08 63.8113 167.435 58.2698C164.774 55.0968 160.929 53.5057 157.092 53.6012L161.95 49.519L161.946 49.5235Z" fill="#343433"/>
<path d="M147.24 82.2977C146.35 81.2385 146.491 79.6565 147.549 78.7701C148.607 77.8791 150.187 78.02 151.072 79.0792C151.962 80.1384 151.821 81.7204 150.764 82.6068C149.706 83.4978 148.125 83.3569 147.24 82.2977Z" fill="#343433"/>
<path d="M171.395 89.67C163.658 91.2247 156.044 88.8881 150.572 84.0104C150.89 83.874 151.194 83.6922 151.48 83.4558C152.052 82.9739 152.438 82.3511 152.629 81.6829C153.823 82.3739 155.095 82.9557 156.425 83.4149C167.813 87.3334 180.204 81.2601 184.104 69.8681C188.018 58.467 181.952 46.0612 170.573 42.1562C180.485 43.7882 188.345 51.389 190.302 61.2309C192.926 74.314 184.463 87.047 171.395 89.6746V89.67Z" fill="#343433"/>
<path d="M176.089 147.93C178.096 147.93 179.722 146.301 179.722 144.293C179.722 142.284 178.096 140.656 176.089 140.656C174.083 140.656 172.457 142.284 172.457 144.293C172.457 146.301 174.083 147.93 176.089 147.93Z" fill="#343433"/>
<path d="M200.068 161.75C202.074 161.75 203.7 160.122 203.7 158.113C203.7 156.105 202.074 154.477 200.068 154.477C198.062 154.477 196.436 156.105 196.436 158.113C196.436 160.122 198.062 161.75 200.068 161.75Z" fill="#343433"/>
<path d="M200.068 134.102C202.074 134.102 203.7 132.473 203.7 130.465C203.7 128.456 202.074 126.828 200.068 126.828C198.062 126.828 196.436 128.456 196.436 130.465C196.436 132.473 198.062 134.102 200.068 134.102Z" fill="#343433"/>
<path d="M190.224 136.904C190.388 137.185 190.715 137.326 191.033 137.245C194.842 136.263 198.738 138.513 199.796 142.309C199.882 142.622 200.168 142.841 200.495 142.841H206.434C206.833 142.841 207.16 142.513 207.16 142.113C207.16 142.077 207.16 142.036 207.151 142C206.729 139.354 205.585 136.872 203.846 134.84C203.605 134.562 203.197 134.508 202.892 134.712C202.057 135.272 201.081 135.567 200.077 135.567C197.298 135.558 195.037 133.326 194.987 130.544C194.983 130.176 194.701 129.871 194.338 129.83C192.059 129.589 189.757 129.894 187.614 130.712C187.237 130.858 187.051 131.276 187.196 131.653C187.209 131.689 187.228 131.721 187.246 131.758L190.224 136.913V136.904Z" fill="#343433"/>
<path d="M206.434 145.75H200.495C200.169 145.75 199.882 145.968 199.796 146.282C198.743 150.078 194.842 152.328 191.033 151.346C190.72 151.269 190.388 151.405 190.225 151.687L187.255 156.842C187.055 157.192 187.174 157.633 187.523 157.838C187.555 157.856 187.591 157.874 187.628 157.888C189.766 158.715 192.073 159.019 194.352 158.769C194.72 158.729 194.997 158.424 195.001 158.056C195.033 155.251 197.331 153.001 200.137 153.033C201.122 153.042 202.08 153.342 202.897 153.887C203.201 154.092 203.615 154.033 203.851 153.755C205.59 151.719 206.734 149.241 207.156 146.6C207.22 146.205 206.952 145.832 206.552 145.768C206.516 145.764 206.475 145.759 206.439 145.759L206.434 145.75Z" fill="#343433"/>
<path d="M187.595 149.36C184.853 146.541 184.853 142.045 187.595 139.227C187.823 138.995 187.868 138.636 187.704 138.354L184.74 133.213C184.635 133.026 184.449 132.899 184.24 132.863C184.031 132.826 183.818 132.881 183.65 133.008C181.538 134.726 179.949 137.004 179.068 139.577C178.969 139.863 179.059 140.182 179.295 140.377C181.457 142.104 181.811 145.259 180.09 147.423C179.854 147.719 179.591 147.982 179.295 148.219C179.059 148.41 178.973 148.732 179.068 149.019C179.954 151.592 181.538 153.869 183.65 155.583C183.782 155.688 183.94 155.747 184.108 155.747C184.154 155.747 184.195 155.747 184.24 155.733C184.449 155.697 184.631 155.565 184.74 155.383L187.704 150.237C187.868 149.955 187.827 149.596 187.6 149.364L187.595 149.36Z" fill="#343433"/>
</svg>
