<svg width="400" height="267" viewBox="0 0 400 267" fill="none" xmlns="http://www.w3.org/2000/svg">
<g clip-path="url(#clip0_923_1016)">
<path d="M297.769 241.015C252.328 241.015 212.232 212.236 197.952 169.345L199.023 168.988C213.152 211.411 252.826 239.89 297.778 239.89H297.947C342.816 239.815 382.432 211.327 396.534 168.988L397.605 169.345C383.353 212.143 343.304 240.94 297.947 241.015C297.891 241.015 297.825 241.015 297.769 241.015Z" fill="#343433"/>
<path d="M295.975 236.647C252.826 236.647 213.979 209.622 199.268 169.356L200.329 168.971C214.872 208.797 253.295 235.522 295.975 235.522H296.144C338.767 235.447 377.153 208.684 391.658 168.934L392.72 169.318C378.055 209.519 339.246 236.581 296.153 236.647C296.097 236.647 296.041 236.647 295.975 236.647Z" fill="#343433"/>
<path d="M294.19 232.286C273.663 232.286 253.925 226.2 237.081 214.685C220.584 203.404 207.958 187.734 200.583 169.364L201.626 168.942C208.925 187.106 221.401 202.597 237.72 213.747C254.423 225.159 274.02 231.226 294.35 231.151C314.661 231.114 334.192 225.056 350.83 213.634C367.082 202.475 379.521 186.994 386.792 168.867L387.835 169.289C380.479 187.622 367.909 203.282 351.468 214.563C334.633 226.116 314.886 232.248 294.35 232.286C294.293 232.286 294.246 232.286 294.19 232.286Z" fill="#343433"/>
<path d="M292.405 227.927C253.192 227.927 217.681 204.971 201.907 169.394L202.941 168.934C218.526 204.099 253.633 226.792 292.405 226.792H292.564C331.307 226.727 366.387 203.968 381.934 168.812L382.968 169.263C367.232 204.831 331.749 227.852 292.564 227.918C292.508 227.918 292.452 227.918 292.405 227.918V227.927Z" fill="#343433"/>
<path d="M290.592 223.564C272.056 223.564 254.038 218.369 238.471 208.542C223.271 198.949 211.086 185.417 203.223 169.41L204.237 168.913C212.007 184.733 224.05 198.105 239.072 207.585C254.46 217.3 272.272 222.43 290.592 222.43H290.761C309.118 222.401 326.949 217.216 342.346 207.445C357.33 197.936 369.337 184.555 377.068 168.754L378.083 169.251C370.257 185.239 358.11 198.78 342.947 208.401C327.371 218.285 309.324 223.527 290.761 223.564C290.704 223.564 290.648 223.564 290.592 223.564Z" fill="#343433"/>
<path d="M288.826 219.196C253.634 219.196 221.354 200.141 204.557 169.44L205.543 168.906C222.143 199.241 254.047 218.08 288.816 218.08H288.966C323.773 218.014 355.668 199.091 372.202 168.699L373.188 169.234C356.447 199.991 324.177 219.14 288.957 219.196C288.91 219.196 288.854 219.196 288.807 219.196H288.826Z" fill="#343433"/>
<path d="M287.022 214.825C253.615 214.825 223.299 197.871 205.891 169.449L206.849 168.867C224.05 196.952 254.009 213.7 287.022 213.7H287.181C320.231 213.644 350.209 196.793 367.354 168.633L368.322 169.214C350.97 197.721 320.635 214.769 287.191 214.825C287.134 214.825 287.078 214.825 287.031 214.825H287.022Z" fill="#343433"/>
<path d="M398.91 112.192C395.369 97.5254 388.755 84.0596 379.257 72.1692C367.514 57.475 352.003 46.2128 334.389 39.6206L334.783 38.5703C352.586 45.2376 368.275 56.6122 380.14 71.4753C389.741 83.497 396.421 97.1034 400 111.929L398.901 112.192H398.91Z" fill="#343433"/>
<path d="M395.829 112.172C392.729 98.0779 386.669 84.9684 377.848 73.2187C366.602 58.2525 351.571 46.6527 334.36 39.6854L334.783 38.6445C352.172 45.6869 367.373 57.4179 378.74 72.5529C387.665 84.4339 393.781 97.684 396.928 111.938L395.829 112.181V112.172Z" fill="#343433"/>
<path d="M392.766 112.154C390.079 98.5944 384.583 85.8507 376.438 74.2603C365.729 59.0409 351.176 47.1036 334.332 39.7424L334.783 38.7109C351.806 46.1565 366.536 58.2251 377.359 73.6226C385.598 85.3443 391.16 98.2381 393.875 111.948L392.766 112.163V112.154Z" fill="#343433"/>
<path d="M389.704 112.124C387.449 99.0898 382.517 86.693 375.039 75.2902C364.893 59.8271 350.81 47.5522 334.313 39.7784L334.793 38.7656C351.477 46.6144 365.729 59.0394 375.988 74.6713C383.55 86.2054 388.539 98.7429 390.822 111.937L389.713 112.124H389.704Z" fill="#343433"/>
<path d="M386.622 112.106C384.78 99.5313 380.403 87.5002 373.62 76.3319C364.094 60.653 350.49 48.0312 334.275 39.8354L334.783 38.832C351.176 47.1216 364.939 59.8841 374.578 75.7411C381.436 87.0314 385.861 99.2125 387.73 111.928L386.612 112.088L386.622 112.106Z" fill="#343433"/>
<path d="M383.559 112.079C382.103 99.8884 378.289 88.2043 372.21 77.3641C363.333 61.4977 350.208 48.5383 334.247 39.8831L334.783 38.8984C350.932 47.6568 364.216 60.7663 373.197 76.8109C379.341 87.7823 383.202 99.5977 384.677 111.938L383.559 112.07V112.079Z" fill="#343433"/>
<path d="M380.487 112.05C379.435 100.235 376.175 88.9068 370.802 78.3948C362.619 62.3878 349.965 49.0908 334.21 39.9479L334.774 38.9727C350.716 48.2281 363.521 61.6845 371.797 77.8885C377.237 88.5317 380.534 99.9908 381.596 111.956L380.469 112.059L380.487 112.05Z" fill="#343433"/>
<path d="M138.269 112.087L137.16 111.909C142.214 81.0293 158.204 52.738 182.188 32.2298C206.426 11.4966 237.418 0.0468865 269.435 0H269.632C312.19 0 352.642 20.3863 377.876 54.5572L376.965 55.2229C351.947 21.3427 311.833 1.12528 269.632 1.12528C269.567 1.12528 269.501 1.12528 269.435 1.12528C237.682 1.17216 206.961 12.5187 182.911 33.0738C159.134 53.4038 143.276 81.4606 138.269 112.078V112.087Z" fill="#343433"/>
<path d="M144.441 112.096L143.332 111.909C148.452 81.7889 164.197 54.2103 187.684 34.2554C211.424 14.0754 241.73 2.92579 273.014 2.87891H273.221C314.651 2.87891 352.783 21.7085 377.857 54.576L376.955 55.2605C352.088 22.6838 314.284 4.01356 273.211 4.01356C273.136 4.01356 273.07 4.01356 273.005 4.01356C241.993 4.06045 211.94 15.1069 188.398 35.1181C165.118 54.9042 149.504 82.2484 144.431 112.106L144.441 112.096Z" fill="#343433"/>
<path d="M150.604 112.096L149.495 111.9C160.336 50.4969 213.782 5.86096 276.584 5.75781H276.8C316.473 5.75781 353.291 23.5466 377.838 54.5854L376.955 55.2794C352.623 24.5124 316.126 6.88309 276.8 6.88309C276.725 6.88309 276.659 6.88309 276.584 6.88309C214.336 6.98624 161.351 51.2377 150.604 112.096Z" fill="#343433"/>
<path d="M156.776 112.106L155.667 111.9C166.63 52.1568 218.995 8.73049 280.173 8.63672H280.389C318.305 8.63672 353.816 25.3846 377.838 54.6043L376.964 55.3169C353.159 26.3598 317.967 9.762 280.389 9.762C280.314 9.762 280.248 9.762 280.173 9.762C219.54 9.85577 167.645 52.8976 156.776 112.106Z" fill="#343433"/>
<path d="M162.939 112.108L161.83 111.901C172.925 53.837 224.2 11.611 283.743 11.5078H283.931C320.118 11.5078 354.324 27.2054 377.81 54.6059L376.955 55.3373C353.694 28.19 319.79 12.6331 283.94 12.6331C283.874 12.6331 283.818 12.6331 283.752 12.6331C224.745 12.7362 173.94 54.5684 162.948 112.108H162.939Z" fill="#343433"/>
<path d="M169.102 112.115L167.993 111.9C179.21 55.4953 229.396 14.4883 287.313 14.3945H287.501C321.951 14.3945 354.841 29.0513 377.782 54.6232L376.946 55.3733C354.23 30.0359 321.641 15.5198 287.51 15.5198C287.445 15.5198 287.388 15.5198 287.322 15.5198C229.941 15.6136 180.225 56.2361 169.111 112.125L169.102 112.115Z" fill="#343433"/>
<path d="M175.264 112.113L174.165 111.888C179.623 85.566 194.166 61.5882 215.135 44.3809C236.385 26.9391 263.291 17.3086 290.901 17.2617H291.099C323.82 17.2617 355.404 30.8776 377.782 54.6303L376.955 55.3992C354.794 31.8716 323.5 18.387 291.089 18.387C291.024 18.387 290.958 18.387 290.892 18.387C263.545 18.4245 236.892 27.9706 215.839 45.2436C195.068 62.2915 180.657 86.0349 175.255 112.113H175.264Z" fill="#343433"/>
<path d="M181.436 112.123L180.337 111.888C185.861 86.3256 200.169 63.0699 220.63 46.4158C241.383 29.5179 267.603 20.1875 294.471 20.1406H294.678C326.112 20.1406 355.601 32.3874 377.744 54.6397L376.945 55.4368C355.019 33.4001 325.802 21.2753 294.678 21.2753C294.603 21.2753 294.537 21.2753 294.471 21.2753C267.856 21.3222 241.89 30.5588 221.335 47.2973C201.071 63.8014 186.904 86.8226 181.427 112.141L181.436 112.123Z" fill="#343433"/>
<path d="M269.642 266.999C209.536 266.999 156.382 226.864 140.308 169.316L141.397 169.016C157.33 226.067 210.053 265.874 269.642 265.874H269.867C301.696 265.818 332.501 254.387 356.617 233.672L357.349 234.525C333.036 255.418 301.959 266.952 269.867 266.999C269.792 266.999 269.717 266.999 269.642 266.999Z" fill="#343433"/>
<path d="M273.23 264.964C214.345 264.964 162.187 225.655 146.329 169.316L147.419 169.016C163.136 224.867 214.853 263.839 273.23 263.839H273.437C303.791 263.783 333.327 253.074 356.607 233.682L357.33 234.544C333.844 254.105 304.054 264.908 273.446 264.964C273.381 264.964 273.305 264.964 273.24 264.964H273.23Z" fill="#343433"/>
<path d="M276.791 262.919C219.137 262.919 167.984 224.453 152.342 169.306L153.422 168.996C168.923 223.656 219.635 261.785 276.782 261.785H276.988C305.886 261.738 334.145 251.76 356.579 233.681L357.283 234.553C334.652 252.792 306.13 262.863 276.979 262.9C276.913 262.9 276.838 262.9 276.772 262.9L276.791 262.919Z" fill="#343433"/>
<path d="M280.352 260.883C252.244 260.883 225.629 251.927 203.364 234.983C181.747 218.535 165.767 195.213 158.364 169.313L159.445 169.004C166.782 194.67 182.621 217.785 204.04 234.092C226.108 250.887 252.488 259.757 280.343 259.757H280.559C308.376 259.711 334.662 250.699 356.579 233.707L357.274 234.598C335.16 251.749 308.63 260.845 280.559 260.892C280.484 260.892 280.418 260.892 280.343 260.892L280.352 260.883Z" fill="#343433"/>
<path d="M283.922 258.848C256.414 258.848 230.354 250.099 208.54 233.529C187.365 217.447 171.685 194.641 164.386 169.313L165.466 169.004C172.7 194.107 188.238 216.697 209.216 232.638C230.833 249.049 256.659 257.723 283.912 257.723H284.128C310.48 257.676 335.526 249.377 356.579 233.717L357.255 234.617C336.005 250.427 310.724 258.801 284.128 258.848C284.053 258.848 283.987 258.848 283.912 258.848H283.922Z" fill="#343433"/>
<path d="M287.491 256.813C260.585 256.813 235.079 248.261 213.716 232.076C192.982 216.369 177.603 194.079 170.407 169.313L171.488 169.004C178.618 193.535 193.856 215.618 214.392 231.185C235.549 247.22 260.83 255.688 287.482 255.688H287.698C312.556 255.641 336.38 248.045 356.578 233.726L357.236 234.645C336.841 249.105 312.8 256.766 287.698 256.813C287.623 256.813 287.557 256.813 287.482 256.813H287.491Z" fill="#343433"/>
<path d="M291.08 254.778C264.757 254.778 239.796 246.432 218.893 230.632C198.601 215.3 183.523 193.526 176.43 169.323L177.51 169.004C184.537 192.972 199.474 214.54 219.569 229.731C240.331 245.42 265.161 253.709 291.268 253.653C314.67 253.606 337.255 246.723 356.588 233.735L357.218 234.673C337.705 247.783 314.905 254.731 291.278 254.778C291.212 254.778 291.146 254.778 291.08 254.778Z" fill="#343433"/>
<path d="M294.688 252.735C268.928 252.735 244.521 244.587 224.069 229.17C204.228 214.204 189.45 192.955 182.461 169.315L183.541 168.996C190.465 192.402 205.102 213.445 224.746 228.27C245 243.546 269.163 251.61 294.641 251.61H294.829C316.774 251.582 338.109 245.402 356.57 233.746L357.171 234.693C338.532 246.462 316.981 252.698 294.866 252.726C294.801 252.726 294.735 252.726 294.669 252.726L294.688 252.735Z" fill="#343433"/>
<path d="M284.429 201.022C273.982 201.022 263.864 199.025 254.348 195.077L254.78 194.036C264.156 197.918 274.133 199.887 284.429 199.887C308.911 199.85 331.355 188.616 346.001 169.055L346.903 169.73C332.04 189.572 309.277 200.975 284.429 201.013V201.022Z" fill="#343433"/>
<path d="M282.409 200.441C272.695 200.441 263.254 198.641 254.348 195.106L254.761 194.055C263.536 197.544 272.836 199.316 282.409 199.316C306.44 199.279 328.452 188.241 342.797 169.027L343.699 169.703C329.137 189.198 306.797 200.404 282.409 200.441Z" fill="#343433"/>
<path d="M280.371 199.868C271.38 199.868 262.624 198.274 254.329 195.132L254.733 194.082C262.897 197.176 271.53 198.742 280.38 198.742C303.613 198.705 325.746 187.583 339.594 168.988L340.496 169.663C326.441 188.54 303.97 199.83 280.38 199.868H280.371Z" fill="#343433"/>
<path d="M278.35 199.288C270.111 199.288 262.023 197.891 254.338 195.143L254.714 194.084C262.286 196.784 270.233 198.153 278.35 198.153C301.132 198.116 322.833 187.191 336.38 168.934L337.282 169.599C323.519 188.138 301.489 199.232 278.35 199.269V199.288Z" fill="#343433"/>
<path d="M276.312 198.717C268.796 198.717 261.403 197.526 254.319 195.181L254.676 194.112C261.647 196.419 268.918 197.591 276.312 197.591C298.652 197.554 319.903 186.836 333.168 168.906L334.069 169.572C320.598 187.783 299.009 198.679 276.312 198.707V198.717Z" fill="#343433"/>
<path d="M274.292 198.145C267.491 198.145 260.774 197.16 254.329 195.2L254.658 194.122C260.999 196.044 267.604 197.01 274.292 197.01C296.191 196.973 317 186.451 329.964 168.859L330.876 169.525C317.705 187.398 296.557 198.098 274.302 198.126L274.292 198.145Z" fill="#343433"/>
<path d="M272.15 197.572C266.147 197.572 260.153 196.784 254.338 195.237L254.629 194.149C260.397 195.687 266.335 196.494 272.263 196.447C293.72 196.409 314.087 186.085 326.751 168.84L327.662 169.506C314.792 187.051 294.086 197.544 272.272 197.572C272.234 197.572 272.197 197.572 272.159 197.572H272.15Z" fill="#343433"/>
<path d="M360.364 112.086C357.677 94.1095 348.565 77.6242 334.698 65.6494C320.691 53.5527 302.738 46.9229 284.184 46.9417C267.283 46.9698 251.256 52.343 237.841 62.4893C224.858 72.3073 215.172 86.2326 210.569 101.705L209.488 101.386C214.157 85.6887 223.984 71.5571 237.165 61.589C250.787 51.2928 267.049 45.8445 284.194 45.8164H284.306C303.105 45.8164 321.264 52.5587 335.441 64.8054C349.514 76.9584 358.758 93.6969 361.482 111.936L360.364 112.105V112.086Z" fill="#343433"/>
<path d="M356.551 112.084C353.695 94.7552 344.685 78.8888 331.195 67.4016C317.582 55.8206 300.221 49.4534 282.296 49.4534H282.165C249.218 49.5097 220.443 70.5148 210.55 101.722L209.479 101.385C219.522 69.7084 248.73 48.3844 282.165 48.3281H282.296C300.494 48.3281 318.118 54.7985 331.928 66.5482C345.625 78.2042 354.766 94.305 357.669 111.897L356.56 112.084H356.551Z" fill="#343433"/>
<path d="M352.736 112.106C346.414 77.2604 315.938 51.9886 280.257 51.9886H280.145C248.57 52.0354 220.593 72.0372 210.541 101.763L209.47 101.407C219.682 71.2214 248.081 50.9102 280.145 50.8633H280.267C316.502 50.8633 347.438 76.5102 353.864 111.9L352.755 112.097L352.736 112.106Z" fill="#343433"/>
<path d="M348.922 112.114C342.252 78.7219 312.528 54.5097 278.219 54.5097H278.106C247.884 54.5565 220.724 73.555 210.503 101.79L209.441 101.406C219.813 72.7204 247.405 53.4219 278.097 53.375H278.219C313.063 53.375 343.248 77.9623 350.021 111.88L348.912 112.096L348.922 112.114Z" fill="#343433"/>
<path d="M345.108 112.114C338.109 80.1747 309.136 57.0222 276.199 57.0222H276.086C247.217 57.0784 220.856 75.0828 210.494 101.827L209.441 101.424C219.973 74.2483 246.756 55.9531 276.086 55.9062H276.199C309.662 55.9062 339.095 79.4339 346.207 111.879L345.108 112.123V112.114Z" fill="#343433"/>
<path d="M341.294 112.134C333.835 81.1603 306.252 59.555 274.179 59.555H274.057C246.108 59.6018 221.147 76.2091 210.466 101.865L209.423 101.434C220.283 75.3557 245.648 58.4766 274.048 58.4297H274.17C306.76 58.4297 334.802 80.3913 342.374 111.871L341.275 112.134H341.294Z" fill="#343433"/>
<path d="M337.498 112.134C329.71 82.6522 302.842 62.0784 272.15 62.0784H272.047C245.46 62.1253 221.279 77.7573 210.456 101.894L209.423 101.435C220.433 76.8852 245.009 60.9906 272.047 60.9531H272.15C303.359 60.9531 330.669 81.8739 338.588 111.853L337.498 112.144V112.134Z" fill="#343433"/>
<path d="M142.44 74.7657C151.336 56.3018 160.327 46.0055 160.327 46.0055C156.851 37.9879 151.684 30.7486 144.816 24.2783C130.913 11.1875 111.795 4.63281 87.4629 4.63281C65.2636 4.63281 46.7564 10.2873 31.96 21.587C17.1543 32.896 7.04576 54.5482 5.13867 86.1685H52.6844C52.6844 70.4896 56.9119 58.5804 62.7365 52.6446C68.5611 46.7088 76.4149 43.7456 86.2792 43.7456C96.1434 43.7456 104.082 46.5775 109.747 52.2226C115.412 57.8771 118.239 65.9604 118.239 76.4817C118.239 85.9997 114.989 95.6208 108.488 105.354C107.257 107.146 105.491 109.359 103.199 111.984H131.354C131.354 111.984 134.501 91.2228 142.44 74.7469V74.7657Z" fill="#343433"/>
<path d="M197.332 251.773H0C1.79435 235.212 7.17742 219.515 16.1492 204.68C22.0396 194.937 31.7347 183.093 45.1783 169.168H108.187C94.2271 181.977 85.3211 190.548 81.4881 194.862C77.5048 199.335 74.2825 203.705 71.8211 207.953H151.919C151.919 207.953 166.311 233.412 197.332 251.773Z" fill="#343433"/>
<path d="M57.9076 128.59L49.9128 143.959V152.699H45.9483V143.959L37.916 128.59H42.3314L47.9306 140.424L53.5297 128.59H57.9076Z" fill="#343433"/>
<path d="M66.7379 131.788V138.868H75.0803V142.094H66.7379V149.483H76.1231V152.709H62.7734V128.562H76.1231V131.788H66.7379Z" fill="#343433"/>
<path d="M97.2893 147.778H87.1714L85.4334 152.701H81.2998L89.9522 128.555H94.5367L103.189 152.701H99.0179L97.2799 147.778H97.2893ZM96.1713 144.552L92.2444 133.346L88.2799 144.552H96.1713Z" fill="#343433"/>
<path d="M121.236 152.711L115.674 143.061H112.649V152.711H108.685V128.602H117.027C118.878 128.602 120.447 128.93 121.734 129.577C123.021 130.224 123.979 131.096 124.618 132.174C125.257 133.262 125.576 134.481 125.576 135.822C125.576 137.397 125.116 138.823 124.204 140.108C123.284 141.392 121.884 142.264 119.977 142.724L125.952 152.72H121.226L121.236 152.711ZM112.649 139.911H117.027C118.511 139.911 119.629 139.545 120.381 138.804C121.132 138.063 121.508 137.069 121.508 135.822C121.508 134.575 121.142 133.6 120.4 132.887C119.657 132.184 118.53 131.827 117.027 131.827H112.649V139.911Z" fill="#343433"/>
<path d="M157.734 147.778H147.616L145.878 152.701H141.744L150.396 128.555H154.981L163.633 152.701H159.462L157.724 147.778H157.734ZM156.625 144.552L152.698 133.346L148.734 144.552H156.625Z" fill="#343433"/>
<path d="M188.98 152.709H185.015L173.093 134.705V152.709H169.129V128.562H173.093L185.015 146.539V128.562H188.98V152.709Z" fill="#343433"/>
<path d="M215.782 152.709H211.818L199.896 134.705V152.709H195.932V128.562H199.896L211.818 146.539V128.562H215.782V152.709Z" fill="#343433"/>
<path d="M226.699 128.59V152.699H222.734V128.59H226.699Z" fill="#343433"/>
<path d="M254.469 128.59L245.394 152.699H240.809L231.706 128.59H235.943L243.102 148.648L250.298 128.59H254.469Z" fill="#343433"/>
<path d="M263.478 131.788V138.868H271.821V142.094H263.478V149.483H272.863V152.709H259.514V128.562H272.863V131.788H263.478Z" fill="#343433"/>
<path d="M292.01 152.711L286.449 143.061H283.423V152.711H279.459V128.602H287.801C289.652 128.602 291.221 128.93 292.508 129.577C293.795 130.224 294.753 131.096 295.392 132.174C296.031 133.262 296.35 134.481 296.35 135.822C296.35 137.397 295.89 138.823 294.979 140.108C294.058 141.392 292.658 142.264 290.751 142.724L296.726 152.72H292.001H292.01V152.711ZM283.423 139.911H287.801C289.286 139.911 290.404 139.545 291.155 138.804C291.907 138.063 292.283 137.069 292.283 135.822C292.283 134.575 291.916 133.6 291.174 132.887C290.432 132.184 289.304 131.827 287.801 131.827H283.423V139.911Z" fill="#343433"/>
<path d="M306.749 152.1C305.453 151.537 304.429 150.731 303.687 149.69C302.945 148.649 302.578 147.43 302.578 146.051H306.815C306.909 147.092 307.322 147.945 308.046 148.621C308.779 149.296 309.803 149.624 311.118 149.624C312.433 149.624 313.551 149.296 314.312 148.639C315.073 147.983 315.458 147.13 315.458 146.089C315.458 145.282 315.223 144.617 314.744 144.11C314.265 143.604 313.682 143.21 312.968 142.929C312.264 142.647 311.287 142.347 310.028 142.028C308.45 141.616 307.172 141.194 306.186 140.762C305.199 140.331 304.363 139.665 303.668 138.765C302.973 137.865 302.625 136.665 302.625 135.155C302.625 133.767 302.973 132.548 303.668 131.507C304.363 130.466 305.34 129.669 306.59 129.116C307.839 128.563 309.286 128.281 310.93 128.281C313.269 128.281 315.186 128.863 316.679 130.035C318.173 131.207 319 132.801 319.169 134.836H314.791C314.725 133.955 314.303 133.204 313.542 132.576C312.781 131.948 311.766 131.638 310.517 131.638C309.38 131.638 308.45 131.929 307.736 132.501C307.022 133.082 306.655 133.908 306.655 134.995C306.655 135.736 306.881 136.346 307.332 136.815C307.783 137.293 308.356 137.668 309.051 137.94C309.746 138.221 310.695 138.521 311.898 138.84C313.495 139.281 314.8 139.722 315.806 140.162C316.811 140.603 317.675 141.278 318.38 142.197C319.084 143.107 319.441 144.335 319.441 145.854C319.441 147.083 319.113 148.236 318.455 149.324C317.797 150.412 316.83 151.284 315.571 151.94C314.312 152.597 312.818 152.925 311.108 152.925C309.399 152.925 308.027 152.643 306.731 152.071L306.749 152.1Z" fill="#343433"/>
<path d="M340.467 147.778H330.349L328.611 152.701H324.478L333.13 128.555H337.714L346.367 152.701H342.196L340.458 147.778H340.467ZM339.349 144.552L335.422 133.346L331.458 144.552H339.349Z" fill="#343433"/>
<path d="M364.413 152.711L358.852 143.061H355.827V152.711H351.862V128.602H360.205C362.055 128.602 363.624 128.93 364.911 129.577C366.198 130.224 367.157 131.096 367.795 132.174C368.434 133.262 368.754 134.481 368.754 135.822C368.754 137.397 368.293 138.823 367.382 140.108C366.461 141.392 365.062 142.264 363.155 142.724L369.129 152.72H364.404H364.413V152.711ZM355.827 139.911H360.205C361.689 139.911 362.807 139.545 363.558 138.804C364.31 138.063 364.686 137.069 364.686 135.822C364.686 134.575 364.319 133.6 363.577 132.887C362.835 132.184 361.708 131.827 360.205 131.827H355.827V139.911Z" fill="#343433"/>
<path d="M393.47 128.59L385.475 143.959V152.699H381.511V143.959L373.479 128.59H377.894L383.493 140.424L389.092 128.59H393.47Z" fill="#343433"/>
</g>
<defs>
<clipPath id="clip0_923_1016">
<rect width="400" height="267" fill="white"/>
</clipPath>
</defs>
</svg>
