<svg width="600" height="401" viewBox="0 0 600 401" fill="none" xmlns="http://www.w3.org/2000/svg">
<g clip-path="url(#clip0_923_1158)">
<path d="M446.653 361.976C378.491 361.976 318.348 318.754 296.928 254.336L298.535 253.801C319.729 317.515 379.238 360.286 446.668 360.286H446.921C514.224 360.174 573.649 317.388 594.8 253.801L596.407 254.336C575.03 318.613 514.956 361.864 446.921 361.976C446.837 361.976 446.738 361.976 446.653 361.976Z" fill="white"/>
<path d="M443.962 355.412C379.238 355.412 320.969 314.823 298.901 254.349L300.493 253.771C322.307 313.584 379.943 353.722 443.962 353.722H444.215C508.15 353.609 565.729 313.415 587.487 253.715L589.079 254.292C567.082 314.668 508.868 355.313 444.229 355.412C444.145 355.412 444.06 355.412 443.962 355.412Z" fill="white"/>
<path d="M441.285 348.864C410.494 348.864 380.887 339.724 355.621 322.429C330.875 305.487 311.936 281.953 300.874 254.364L302.438 253.73C313.388 281.01 332.101 304.276 356.579 321.021C381.634 338.161 411.03 347.273 441.524 347.16C471.991 347.104 501.287 338.006 526.244 320.852C550.623 304.093 569.28 280.841 580.187 253.617L581.751 254.251C570.718 281.784 551.863 305.304 527.202 322.246C501.95 339.597 472.329 348.808 441.524 348.864C441.44 348.864 441.369 348.864 441.285 348.864Z" fill="white"/>
<path d="M438.607 342.318C379.788 342.318 326.521 307.841 302.861 254.408L304.411 253.718C327.789 306.531 380.45 340.614 438.607 340.614H438.847C496.961 340.515 549.58 306.334 572.902 253.535L574.452 254.211C550.848 307.63 497.623 342.205 438.847 342.304C438.762 342.304 438.677 342.304 438.607 342.304V342.318Z" fill="white"/>
<path d="M435.887 335.767C408.084 335.767 381.056 327.965 357.706 313.206C334.905 298.798 316.628 278.476 304.833 254.435L306.355 253.689C318.009 277.448 336.075 297.531 358.608 311.769C381.69 326.36 408.408 334.063 435.887 334.063H436.141C463.676 334.021 490.422 326.233 513.519 311.558C535.995 297.277 554.004 277.18 565.602 253.449L567.124 254.196C555.385 278.208 537.165 298.545 514.421 312.994C491.056 327.838 463.986 335.711 436.141 335.767C436.056 335.767 435.972 335.767 435.887 335.767Z" fill="white"/>
<path d="M433.238 329.203C380.45 329.203 332.031 300.585 306.835 254.476L308.315 253.673C333.215 299.233 381.07 327.527 433.224 327.527H433.45C485.66 327.429 533.501 299.008 558.303 253.363L559.782 254.166C534.671 300.36 486.266 329.119 433.436 329.203C433.365 329.203 433.281 329.203 433.21 329.203H433.238Z" fill="white"/>
<path d="M430.533 322.641C380.422 322.641 334.948 297.178 308.836 254.491L310.273 253.618C336.075 295.798 381.014 320.951 430.533 320.951H430.772C480.347 320.867 525.314 295.558 551.031 253.266L552.483 254.139C526.455 296.953 480.953 322.557 430.786 322.641C430.702 322.641 430.617 322.641 430.547 322.641H430.533Z" fill="white"/>
<path d="M598.365 168.495C593.053 146.469 583.132 126.245 568.885 108.387C551.271 86.3182 528.005 69.4038 501.583 59.5031L502.175 57.9258C528.879 67.9392 552.412 85.0225 570.21 107.345C584.612 125.4 594.631 145.835 600 168.101L598.351 168.495H598.365Z" fill="white"/>
<path d="M593.744 168.468C589.093 147.3 580.004 127.612 566.772 109.965C549.904 87.4877 527.357 70.0664 501.541 59.6023L502.175 58.0391C528.259 68.6158 551.06 86.2343 568.111 108.965C581.498 126.809 590.672 146.709 595.392 168.116L593.744 168.482V168.468Z" fill="white"/>
<path d="M589.149 168.439C585.119 148.074 576.875 128.935 564.658 111.527C548.593 88.6698 526.765 70.7415 501.499 59.6859L502.175 58.1367C527.709 69.319 549.805 87.4445 566.039 110.57C578.397 128.174 586.74 147.539 590.812 168.129L589.149 168.453V168.439Z" fill="white"/>
<path d="M584.555 168.398C581.173 148.822 573.775 130.204 562.558 113.078C547.339 89.8542 526.215 71.4189 501.47 59.7437L502.189 58.2227C527.216 70.0106 548.593 88.6712 563.981 112.148C575.325 129.471 582.808 148.301 586.232 168.116L584.569 168.398H584.555Z" fill="white"/>
<path d="M579.933 168.369C577.171 149.483 570.605 131.414 560.43 114.64C546.141 91.0927 525.736 72.1362 501.414 59.8272L502.175 58.3203C526.765 70.7701 547.41 89.9378 561.868 113.753C572.155 130.71 578.792 149.004 581.596 168.101L579.919 168.341L579.933 168.369Z" fill="white"/>
<path d="M575.339 168.326C573.155 150.017 567.434 132.469 558.316 116.189C545 92.3592 525.314 72.8958 501.372 59.8967L502.175 58.418C526.399 71.572 546.324 91.2607 559.796 115.358C569.012 131.835 574.804 149.581 577.016 168.114L575.339 168.312V168.326Z" fill="white"/>
<path d="M570.732 168.284C569.153 150.539 564.263 133.526 556.203 117.738C543.929 93.6978 524.947 73.7274 501.315 59.9959L502.161 58.5312C526.075 72.4317 545.282 92.6415 557.697 116.978C565.856 132.963 570.802 150.173 572.394 168.143L570.703 168.298L570.732 168.284Z" fill="white"/>
<path d="M207.403 168.34L205.74 168.073C213.322 121.696 237.306 79.2057 273.282 48.405C309.639 17.2664 356.128 0.0704176 404.153 0H404.449C468.284 0 528.964 30.6176 566.814 81.9379L565.447 82.9378C527.921 32.0541 467.749 1.69002 404.449 1.69002C404.35 1.69002 404.251 1.69002 404.153 1.69002C356.522 1.76044 310.442 18.8015 274.367 49.6726C238.701 80.2056 214.914 122.344 207.403 168.326V168.34Z" fill="white"/>
<path d="M216.661 168.355L214.999 168.073C222.679 122.837 246.296 81.4174 281.526 51.4477C317.136 21.1399 362.596 4.39464 409.522 4.32422H409.832C471.976 4.32422 529.175 32.6039 566.786 81.9667L565.433 82.9947C528.132 34.0686 471.427 6.02832 409.817 6.02832C409.705 6.02832 409.606 6.02832 409.507 6.02832C362.99 6.09874 317.911 22.6891 282.597 52.7434C247.677 82.4596 224.257 123.527 216.647 168.369L216.661 168.355Z" fill="white"/>
<path d="M225.905 168.356L224.243 168.06C240.505 75.8409 320.673 8.80336 414.876 8.64844H415.2C474.71 8.64844 529.936 35.3649 566.758 81.9813L565.433 83.0235C528.935 36.8155 474.189 10.3385 415.2 10.3385C415.088 10.3385 414.989 10.3385 414.876 10.3385C321.504 10.4934 242.026 76.9535 225.905 168.356Z" fill="white"/>
<path d="M235.164 168.37L233.501 168.06C249.946 78.3343 328.494 13.1135 420.259 12.9727H420.584C477.458 12.9727 530.725 38.1258 566.758 82.0101L565.447 83.0804C529.738 39.5905 476.951 14.6627 420.584 14.6627C420.471 14.6627 420.372 14.6627 420.259 14.6627C329.311 14.8035 251.468 79.4469 235.164 168.37Z" fill="white"/>
<path d="M244.408 168.369L242.745 168.059C259.388 80.8542 336.3 17.4362 425.614 17.2812H425.896C480.178 17.2812 531.486 40.8571 566.715 82.0091L565.433 83.1076C530.542 42.3358 479.684 18.9713 425.91 18.9713C425.811 18.9713 425.727 18.9713 425.628 18.9713C337.118 19.1262 260.909 81.9528 244.422 168.369H244.408Z" fill="white"/>
<path d="M253.652 168.382L251.989 168.058C268.815 83.3452 344.093 21.758 430.969 21.6172H431.251C482.925 21.6172 532.261 43.6297 566.673 82.0355L565.419 83.1622C531.345 45.1085 482.46 23.3072 431.265 23.3072C431.166 23.3072 431.082 23.3072 430.983 23.3072C344.91 23.448 270.337 84.4578 253.666 168.396L253.652 168.382Z" fill="white"/>
<path d="M262.896 168.384L261.248 168.046C269.435 128.514 291.249 92.5025 322.702 66.6592C354.577 40.4639 394.936 26.0001 436.352 25.9297H436.648C485.73 25.9297 533.106 46.379 566.673 82.0525L565.433 83.2074C532.19 47.8718 485.251 27.6197 436.634 27.6197C436.535 27.6197 436.437 27.6197 436.338 27.6197C395.317 27.676 355.338 42.0131 323.759 67.9549C292.602 93.5587 270.985 129.218 262.882 168.384H262.896Z" fill="white"/>
<path d="M272.155 168.395L270.506 168.043C278.792 129.651 300.254 94.7243 330.946 69.712C362.074 44.3335 401.404 30.3204 441.707 30.25H442.017C489.168 30.25 533.402 48.6431 566.617 82.0633L565.419 83.2604C532.528 50.1641 488.703 31.9541 442.017 31.9541C441.904 31.9541 441.806 31.9541 441.707 31.9541C401.785 32.0245 362.835 45.8968 332.002 71.0359C301.606 95.8229 280.356 130.398 272.14 168.423L272.155 168.395Z" fill="white"/>
<path d="M404.463 400.999C314.303 400.999 234.572 340.721 210.461 254.291L212.096 253.84C235.995 339.524 315.078 399.308 404.463 399.308H404.801C452.544 399.224 498.751 382.056 534.924 350.946L536.023 352.227C499.554 383.605 452.938 400.928 404.801 400.999C404.688 400.999 404.575 400.999 404.463 400.999Z" fill="white"/>
<path d="M409.845 397.942C321.518 397.942 243.281 338.904 219.494 254.291L221.128 253.84C244.704 337.721 322.279 396.252 409.845 396.252H410.156C455.686 396.168 499.991 380.084 534.91 350.96L535.995 352.255C500.766 381.634 456.081 397.858 410.17 397.942C410.071 397.942 409.958 397.942 409.86 397.942H409.845Z" fill="white"/>
<path d="M415.187 394.873C328.705 394.873 251.976 337.102 228.513 254.277L230.133 253.812C253.385 335.905 329.452 393.169 415.172 393.169H415.482C458.829 393.099 501.217 378.114 534.868 350.961L535.925 352.27C501.978 379.663 459.195 394.788 415.468 394.845C415.37 394.845 415.257 394.845 415.158 394.845L415.187 394.873Z" fill="white"/>
<path d="M420.527 391.818C378.365 391.818 338.443 378.369 305.045 352.92C272.62 328.217 248.65 293.192 237.545 254.293L239.166 253.828C250.172 292.375 273.93 327.091 306.06 351.582C339.161 376.805 378.731 390.128 420.513 390.128H420.837C462.563 390.058 501.992 376.524 534.868 351.004L535.911 352.342C502.739 378.101 462.944 391.762 420.837 391.833C420.725 391.833 420.626 391.833 420.513 391.833L420.527 391.818Z" fill="white"/>
<path d="M425.882 388.762C384.621 388.762 345.531 375.622 312.81 350.737C281.047 326.584 257.527 292.332 246.578 254.293L248.199 253.828C259.049 291.53 282.357 325.457 313.824 349.399C346.249 374.045 384.988 387.072 425.868 387.072H426.192C465.719 387.002 503.288 374.538 534.868 351.018L535.882 352.37C504.007 376.115 466.086 388.692 426.192 388.762C426.079 388.762 425.981 388.762 425.868 388.762H425.882Z" fill="white"/>
<path d="M431.237 385.706C390.878 385.706 352.619 372.862 320.574 348.554C289.473 324.964 266.405 291.487 255.611 254.293L257.231 253.828C267.927 290.671 290.784 323.837 321.589 347.216C353.323 371.299 391.244 384.016 431.223 384.016H431.547C468.834 383.946 504.57 372.538 534.868 351.033L535.854 352.413C505.261 374.13 469.2 385.636 431.547 385.706C431.434 385.706 431.335 385.706 431.223 385.706H431.237Z" fill="white"/>
<path d="M436.62 382.65C397.135 382.65 359.693 370.116 328.339 346.385C297.901 323.358 275.283 290.657 264.644 254.307L266.265 253.828C276.805 289.826 299.211 322.218 329.354 345.033C360.496 368.595 397.741 381.045 436.902 380.96C472.005 380.89 505.881 370.552 534.882 351.047L535.826 352.455C506.558 372.144 472.357 382.58 436.916 382.65C436.817 382.65 436.719 382.65 436.62 382.65Z" fill="white"/>
<path d="M442.031 379.578C403.392 379.578 366.781 367.34 336.103 344.186C306.342 321.709 284.175 289.796 273.691 254.291L275.311 253.812C285.697 288.965 307.652 320.568 337.118 342.834C367.5 365.776 403.744 377.888 441.961 377.888H442.243C475.161 377.846 507.164 368.565 534.854 351.059L535.756 352.482C507.798 370.156 475.471 379.522 442.299 379.564C442.2 379.564 442.102 379.564 442.003 379.564L442.031 379.578Z" fill="white"/>
<path d="M426.643 301.909C410.973 301.909 395.796 298.909 381.521 292.98L382.17 291.417C396.233 297.248 411.199 300.205 426.643 300.205C463.367 300.149 497.032 283.277 519.001 253.898L520.354 254.912C498.061 284.713 463.916 301.839 426.643 301.895V301.909Z" fill="white"/>
<path d="M423.614 301.035C409.043 301.035 394.88 298.331 381.521 293.022L382.142 291.444C395.303 296.683 409.254 299.345 423.614 299.345C459.66 299.289 492.678 282.713 514.196 253.855L515.548 254.869C493.706 284.149 460.196 300.979 423.614 301.035Z" fill="white"/>
<path d="M420.556 300.178C407.07 300.178 393.936 297.784 381.493 293.066L382.099 291.488C394.345 296.136 407.295 298.488 420.57 298.488C455.419 298.431 488.619 281.728 509.39 253.801L510.743 254.815C489.662 283.165 455.954 300.121 420.57 300.178H420.556Z" fill="white"/>
<path d="M417.526 299.303C405.167 299.303 393.034 297.205 381.507 293.078L382.071 291.487C393.429 295.543 405.351 297.599 417.526 297.599C451.699 297.543 484.251 281.135 504.571 253.715L505.924 254.715C485.279 282.558 452.234 299.219 417.526 299.275V299.303Z" fill="white"/>
<path d="M414.468 298.443C403.194 298.443 392.104 296.655 381.479 293.134L382.014 291.528C392.471 294.993 403.378 296.753 414.468 296.753C447.978 296.697 479.854 280.6 499.751 253.672L501.104 254.672C480.897 282.022 448.514 298.387 414.468 298.429V298.443Z" fill="white"/>
<path d="M411.438 297.584C401.236 297.584 391.16 296.106 381.493 293.162L381.986 291.543C391.498 294.43 401.405 295.88 411.438 295.88C444.286 295.824 475.499 280.022 494.946 253.602L496.313 254.601C476.556 281.445 444.836 297.514 411.452 297.556L411.438 297.584Z" fill="white"/>
<path d="M408.225 296.726C399.221 296.726 390.23 295.543 381.507 293.219L381.944 291.586C390.597 293.895 399.503 295.107 408.394 295.036C440.58 294.98 471.131 279.474 490.127 253.574L491.494 254.574C472.188 280.924 441.13 296.684 408.409 296.726C408.352 296.726 408.296 296.726 408.239 296.726H408.225Z" fill="white"/>
<path d="M540.547 168.341C536.517 141.343 522.848 116.584 502.048 98.5991C481.037 80.4314 454.108 70.4744 426.277 70.5025C400.926 70.5448 376.885 78.6146 356.762 93.853C337.287 108.598 322.758 129.512 315.853 152.75L314.233 152.271C321.237 128.696 335.977 107.472 355.747 92.501C376.18 77.0373 400.573 68.8548 426.291 68.8125H426.46C454.658 68.8125 481.897 78.9385 503.161 97.3316C524.271 115.584 538.137 140.723 542.224 168.115L540.547 168.369V168.341Z" fill="white"/>
<path d="M534.826 168.34C530.542 142.313 517.028 118.484 496.792 101.232C476.373 83.8387 450.331 74.276 423.444 74.276H423.247C373.827 74.3605 330.664 105.908 315.825 152.777L314.219 152.27C329.283 104.696 373.094 72.6704 423.247 72.5859H423.444C450.74 72.5859 477.176 82.3036 497.891 99.9502C518.437 117.456 532.148 141.637 536.503 168.058L534.84 168.34H534.826Z" fill="white"/>
<path d="M529.104 168.37C519.621 116.036 473.907 78.0806 420.386 78.0806H420.217C372.855 78.1511 330.889 108.191 315.811 152.836L314.205 152.301C329.522 106.966 372.122 76.461 420.217 76.3906H420.4C474.752 76.3906 521.157 114.909 530.795 168.06L529.132 168.356L529.104 168.37Z" fill="white"/>
<path d="M523.383 168.383C513.378 118.232 468.792 81.8682 417.329 81.8682H417.159C371.826 81.9386 331.087 110.472 315.755 152.877L314.163 152.3C329.72 109.218 371.107 80.2345 417.145 80.1641H417.329C469.595 80.1641 514.872 117.091 525.032 168.031L523.369 168.355L523.383 168.383Z" fill="white"/>
<path d="M517.662 168.381C507.164 120.413 463.705 85.6408 414.299 85.6408H414.13C370.826 85.7253 331.284 112.766 315.741 152.932L314.163 152.326C329.959 111.512 370.135 84.0353 414.13 83.9648H414.299C464.494 83.9648 508.643 119.3 519.311 168.029L517.662 168.396V168.381Z" fill="white"/>
<path d="M511.941 168.41C500.752 121.892 459.378 89.4439 411.269 89.4439H411.086C369.163 89.5143 331.721 114.456 315.698 152.989L314.134 152.341C330.424 113.175 368.472 87.8243 411.072 87.7539H411.255C460.139 87.7539 502.203 120.738 513.561 168.016L511.912 168.41H511.941Z" fill="white"/>
<path d="M506.248 168.411C494.565 124.132 454.263 93.233 408.225 93.233H408.07C368.19 93.3034 331.918 116.781 315.684 153.032L314.134 152.342C330.65 115.471 367.514 91.5993 408.07 91.543H408.225C455.038 91.543 496.003 122.963 507.882 167.988L506.248 168.425V168.411Z" fill="white"/>
<path d="M213.659 112.288C227.004 84.5572 240.49 69.0935 240.49 69.0935C235.276 57.0521 227.526 46.1796 217.225 36.462C196.369 16.8014 167.692 6.95703 131.194 6.95703C97.8954 6.95703 70.1346 15.4494 47.9401 32.42C25.7314 49.4048 10.5686 81.9236 7.70801 129.413H79.0265C79.0265 105.866 85.3678 87.9795 94.1047 79.0646C102.842 70.1498 114.622 65.6994 129.419 65.6994C144.215 65.6994 156.123 69.9526 164.62 78.4309C173.117 86.9232 177.359 99.0632 177.359 114.865C177.359 129.16 172.483 143.609 162.732 158.228C160.886 160.918 158.236 164.242 154.798 168.185H197.031C197.031 168.185 201.752 137.004 213.659 112.259V112.288Z" fill="white"/>
<path d="M295.998 378.128H0C2.69153 353.257 10.7661 329.681 24.2238 307.401C33.0593 292.768 47.602 274.98 67.7674 254.066H162.281C141.341 273.304 127.982 286.177 122.232 292.655C116.257 299.373 111.424 305.936 107.732 312.316H227.878C227.878 312.316 249.467 350.553 295.998 378.128Z" fill="white"/>
<path d="M86.8618 193.129L74.8697 216.212V229.338H68.923V216.212L56.8745 193.129H63.4977L71.8964 210.902L80.2951 193.129H86.8618Z" fill="white"/>
<path d="M100.108 197.931V208.564H112.621V213.408H100.108V224.506H114.186V229.351H94.1611V193.086H114.186V197.931H100.108Z" fill="white"/>
<path d="M145.934 221.945H130.758L128.151 229.339H121.95L134.929 193.074H141.806L154.784 229.339H148.527L145.92 221.945H145.934ZM144.257 217.101L138.367 200.271L132.42 217.101H144.257Z" fill="white"/>
<path d="M181.854 229.353L173.512 214.861H168.975V229.353H163.028V193.145H175.541C178.317 193.145 180.671 193.637 182.601 194.609C184.532 195.581 185.969 196.891 186.927 198.51C187.886 200.144 188.365 201.975 188.365 203.989C188.365 206.355 187.674 208.496 186.307 210.425C184.926 212.354 182.827 213.664 179.966 214.354L188.929 229.367H181.84L181.854 229.353ZM168.975 210.129H175.541C177.768 210.129 179.445 209.58 180.572 208.467C181.699 207.355 182.263 205.862 182.263 203.989C182.263 202.116 181.714 200.651 180.6 199.581C179.487 198.524 177.796 197.989 175.541 197.989H168.975V210.129Z" fill="white"/>
<path d="M236.601 221.945H221.424L218.817 229.339H212.617L225.595 193.074H232.472L245.451 229.339H239.194L236.587 221.945H236.601ZM234.938 217.101L229.048 200.271L223.101 217.101H234.938Z" fill="white"/>
<path d="M283.47 229.351H277.524L259.641 202.311V229.351H253.694V193.086H259.641L277.524 220.084V193.086H283.47V229.351Z" fill="white"/>
<path d="M323.674 229.351H317.728L299.845 202.311V229.351H293.898V193.086H299.845L317.728 220.084V193.086H323.674V229.351Z" fill="white"/>
<path d="M340.049 193.129V229.338H334.102V193.129H340.049Z" fill="white"/>
<path d="M381.704 193.129L368.092 229.338H361.215L347.56 193.129H353.915L364.653 223.254L375.448 193.129H381.704Z" fill="white"/>
<path d="M395.218 197.931V208.564H407.732V213.408H395.218V224.506H409.296V229.351H389.271V193.086H409.296V197.931H395.218Z" fill="white"/>
<path d="M438.015 229.353L429.673 214.861H425.135V229.353H419.188V193.145H431.702C434.478 193.145 436.831 193.637 438.762 194.609C440.693 195.581 442.13 196.891 443.088 198.51C444.046 200.144 444.526 201.975 444.526 203.989C444.526 206.355 443.835 208.496 442.468 210.425C441.087 212.354 438.987 213.664 436.127 214.354L445.089 229.367H438.001H438.015V229.353ZM425.135 210.129H431.702C433.928 210.129 435.605 209.58 436.733 208.467C437.86 207.355 438.424 205.862 438.424 203.989C438.424 202.116 437.874 200.651 436.761 199.581C435.648 198.524 433.957 197.989 431.702 197.989H425.135V210.129Z" fill="white"/>
<path d="M460.125 228.436C458.18 227.591 456.644 226.38 455.531 224.817C454.418 223.253 453.868 221.423 453.868 219.352H460.224C460.364 220.916 460.985 222.197 462.07 223.211C463.169 224.225 464.705 224.718 466.678 224.718C468.65 224.718 470.327 224.225 471.469 223.239C472.61 222.254 473.188 220.972 473.188 219.409C473.188 218.197 472.836 217.198 472.117 216.437C471.398 215.677 470.525 215.085 469.454 214.663C468.397 214.24 466.931 213.789 465.043 213.311C462.676 212.691 460.759 212.057 459.279 211.409C457.8 210.761 456.546 209.761 455.503 208.409C454.46 207.057 453.939 205.255 453.939 202.987C453.939 200.903 454.46 199.072 455.503 197.509C456.546 195.946 458.011 194.748 459.885 193.917C461.76 193.087 463.93 192.664 466.396 192.664C469.905 192.664 472.779 193.537 475.02 195.298C477.261 197.058 478.501 199.452 478.754 202.508H472.187C472.089 201.185 471.455 200.058 470.313 199.114C469.172 198.171 467.65 197.706 465.776 197.706C464.071 197.706 462.676 198.143 461.605 199.002C460.534 199.875 459.984 201.114 459.984 202.748C459.984 203.86 460.322 204.776 460.999 205.48C461.675 206.198 462.535 206.762 463.577 207.17C464.62 207.593 466.043 208.043 467.847 208.522C470.243 209.184 472.202 209.846 473.709 210.508C475.217 211.17 476.514 212.184 477.571 213.564C478.627 214.93 479.163 216.775 479.163 219.057C479.163 220.902 478.67 222.634 477.683 224.267C476.697 225.901 475.245 227.211 473.357 228.197C471.469 229.183 469.228 229.676 466.664 229.676C464.099 229.676 462.041 229.253 460.097 228.394L460.125 228.436Z" fill="white"/>
<path d="M510.701 221.945H495.524L492.917 229.339H486.716L499.695 193.074H506.572L519.55 229.339H513.293L510.686 221.945H510.701ZM509.024 217.101L503.133 200.271L497.186 217.101H509.024Z" fill="white"/>
<path d="M546.621 229.353L538.278 214.861H533.741V229.353H527.794V193.145H540.307C543.084 193.145 545.437 193.637 547.367 194.609C549.298 195.581 550.735 196.891 551.694 198.51C552.652 200.144 553.131 201.975 553.131 203.989C553.131 206.355 552.44 208.496 551.074 210.425C549.693 212.354 547.593 213.664 544.732 214.354L553.695 229.367H546.606H546.621V229.353ZM533.741 210.129H540.307C542.534 210.129 544.211 209.58 545.338 208.467C546.466 207.355 547.029 205.862 547.029 203.989C547.029 202.116 546.48 200.651 545.366 199.581C544.253 198.524 542.562 197.989 540.307 197.989H533.741V210.129Z" fill="white"/>
<path d="M590.206 193.129L578.214 216.212V229.338H572.267V216.212L560.219 193.129H566.842L575.241 210.902L583.639 193.129H590.206Z" fill="white"/>
</g>
<defs>
<clipPath id="clip0_923_1158">
<rect width="600" height="401" fill="white"/>
</clipPath>
</defs>
</svg>
