<svg width="434" height="100" viewBox="0 0 434 100" fill="none" xmlns="http://www.w3.org/2000/svg">
<g opacity="0.23">
<path d="M58.2455 88.3846C37.5193 88.3846 20.7188 71.5841 20.7188 50.8579C20.7188 30.1317 37.5193 13.3312 58.2455 13.3312C68.6983 13.3312 78.1473 17.6072 84.952 24.5059C77.1135 13.7968 64.4523 6.83398 50.1592 6.83398C26.3532 6.83398 7.05371 26.1292 7.05371 49.9352C7.05371 73.7413 26.3532 93.0365 50.1549 93.0365C60.8939 93.0365 70.7103 89.098 78.2626 82.5965C72.4659 86.2616 65.6056 88.3889 58.2455 88.3889" fill="#1D3366"/>
<path d="M71.1458 19.3633C80.1676 24.6473 86.2334 34.438 86.2334 45.6469C86.2334 62.4603 72.6025 76.0869 55.7934 76.0912C40.1505 76.0912 27.2714 64.2928 25.5542 49.1113C25.5243 49.7093 25.5029 50.3073 25.5029 50.9096C25.5029 69.5341 40.6033 84.6303 59.2236 84.6303C77.8438 84.6303 92.9442 69.5299 92.9442 50.9096C92.9442 36.4842 83.884 24.1817 71.1458 19.3633Z" fill="#1D3366"/>
<path d="M54.8881 21.6953C43.5724 21.6953 34.0166 29.222 30.9453 39.5424C34.3755 31.8875 42.0602 26.5565 50.9923 26.5565C63.1239 26.5565 72.9573 36.3899 72.9573 48.5215C72.9573 60.653 63.1239 70.4864 50.9923 70.4864C49.0102 70.4864 47.088 70.2173 45.2597 69.7261C48.22 70.9649 51.475 71.6483 54.8881 71.6526C68.6856 71.6526 79.8646 60.4651 79.8646 46.6718C79.8646 32.8743 68.6813 21.6953 54.8881 21.6953Z" fill="#1D3366"/>
</g>
<path d="M58.9699 69.5771L34.1814 99.6796C34.0062 99.8889 33.7542 100 33.4979 100C33.3441 100 33.1861 99.9616 33.0451 99.8761C32.6692 99.654 32.5069 99.1927 32.6692 98.7868L44.2155 68.317H32.3744C32.0626 68.317 31.7764 68.1546 31.6141 67.8898C31.4518 67.625 31.4432 67.2918 31.5884 67.0141L44.2796 42.8193H25.4586C25.1468 42.8193 24.8605 42.657 24.6982 42.3921C24.5359 42.1273 24.5231 41.7984 24.6683 41.5207L45.7576 0.4827C45.9114 0.183683 46.2147 0 46.5479 0H72.5368C72.8571 0 73.1519 0.170867 73.3099 0.448526C73.468 0.726185 73.468 1.06365 73.3099 1.34131L60.8238 22.7552H74.8648C75.1895 22.7552 75.4885 22.9304 75.6465 23.2166C75.8046 23.5028 75.7918 23.8488 75.6166 24.1222L57.6243 52.3024H71.3364C71.6824 52.3024 71.9943 52.5032 72.1438 52.815C72.289 53.1269 72.242 53.4985 72.0242 53.7634L62.5111 65.314" fill="#1D3366"/>
<g clip-path="url(#clip0_713_3773)">
<path d="M113.755 34.592C116.254 30.0621 119.747 26.5275 124.216 24.0086C128.685 21.4897 133.764 20.21 139.431 20.21C146.378 20.21 152.31 22.0382 157.266 25.715C162.202 29.3917 165.513 34.3889 167.179 40.7268H151.517C150.36 38.2891 148.694 36.4203 146.561 35.1405C144.428 33.8607 141.991 33.231 139.269 33.231C134.881 33.231 131.326 34.7546 128.604 37.8219C125.882 40.869 124.521 44.9723 124.521 50.0711C124.521 55.1698 125.882 59.2732 128.604 62.3202C131.326 65.3673 134.881 66.9111 139.269 66.9111C141.991 66.9111 144.428 66.2814 146.561 65.0016C148.694 63.7218 150.36 61.8733 151.517 59.4153H167.179C165.513 65.7532 162.202 70.7301 157.266 74.3662C152.31 78.0024 146.378 79.8306 139.431 79.8306C133.764 79.8306 128.685 78.5711 124.216 76.0319C119.747 73.513 116.254 69.9988 113.755 65.4891C111.256 60.9795 109.997 55.8401 109.997 50.0711C109.997 44.302 111.256 39.1423 113.755 34.6124V34.592Z" fill="#1D3366"/>
<path d="M219.506 54.4178C221.558 57.0585 222.594 60.065 222.594 63.4573C222.594 68.3529 220.888 72.2328 217.475 75.0768C214.062 77.941 209.289 79.3629 203.175 79.3629H175.914V20.8799H202.24C208.192 20.8799 212.844 22.2409 216.195 24.9629C219.547 27.685 221.233 31.3821 221.233 36.0542C221.233 39.5075 220.319 42.3514 218.531 44.6469C216.723 46.922 214.327 48.5065 211.32 49.4003C214.712 50.1316 217.434 51.7973 219.486 54.4381L219.506 54.4178ZM190.174 44.5453H199.498C201.834 44.5453 203.621 44.0375 204.881 43.0015C206.14 41.9655 206.75 40.4623 206.75 38.4512C206.75 36.4402 206.12 34.9166 204.881 33.8603C203.642 32.804 201.834 32.2759 199.498 32.2759H190.174V44.525V44.5453ZM206.222 66.2606C207.522 65.184 208.172 63.5995 208.172 61.5479C208.172 59.4962 207.481 57.8914 206.12 56.7132C204.759 55.5553 202.89 54.9662 200.493 54.9662H190.154V67.8857H200.656C203.032 67.8857 204.881 67.3373 206.201 66.2606H206.222Z" fill="#1D3366"/>
<path d="M311.342 20.8799L296.087 79.3833H278.841L269.497 40.8685L259.828 79.3833H242.582L227.753 20.8799H243.008L251.418 63.4574L261.839 20.8799H277.5L287.494 63.4574L296.026 20.8799H311.362H311.342Z" fill="#1D3366"/>
<path d="M332.773 20.8799V79.3833H318.513V20.8799H332.773Z" fill="#1D3366"/>
<path d="M372.932 79.3833L360.764 57.3023H357.352V79.3833H343.092V20.8799H367.021C371.632 20.8799 375.573 21.6924 378.823 23.2972C382.073 24.902 384.511 27.1162 386.115 29.9195C387.72 32.7228 388.533 35.8511 388.533 39.3044C388.533 43.1843 387.436 46.6579 385.242 49.7253C383.048 52.7724 379.818 54.9459 375.532 56.2257L389.04 79.4036H372.952L372.932 79.3833ZM357.352 47.2064H366.188C368.808 47.2064 370.759 46.5767 372.059 45.2969C373.359 44.0172 374.009 42.2092 374.009 39.8732C374.009 37.5371 373.359 35.8917 372.059 34.6322C370.759 33.3525 368.788 32.7228 366.188 32.7228H357.352V47.2267V47.2064Z" fill="#1D3366"/>
<path d="M411.691 32.2962V44.139H430.785V55.1491H411.691V67.9873H433.284V79.4036H397.451V20.8799H433.284V32.2962H411.691Z" fill="#1D3366"/>
</g>
<defs>
<clipPath id="clip0_713_3773">
<rect width="323.286" height="59.58" fill="white" transform="translate(109.997 20.21)"/>
</clipPath>
</defs>
</svg>
