<svg width="75" height="75" viewBox="0 0 75 75" fill="none" xmlns="http://www.w3.org/2000/svg">
<g opacity="0.23">
<path d="M43.6848 66.289C28.1402 66.289 15.5398 53.6886 15.5398 38.1439C15.5398 22.5993 28.1402 9.99889 43.6848 9.99889C51.5243 9.99889 58.611 13.2059 63.7146 18.3799C57.8357 10.3481 48.3398 5.12598 37.6201 5.12598C19.7656 5.12598 5.29102 19.5974 5.29102 37.4519C5.29102 55.3065 19.7656 69.7779 37.6169 69.7779C45.6711 69.7779 53.0333 66.824 58.6975 61.9479C54.35 64.6967 49.2048 66.2922 43.6848 66.2922" fill="url(#paint0_linear_713_3940)"/>
<path d="M53.36 14.5225C60.1263 18.4855 64.6757 25.8285 64.6757 34.2352C64.6757 46.8452 54.4525 57.0652 41.8457 57.0684C30.1136 57.0684 20.4543 48.2196 19.1664 36.8334C19.1439 37.282 19.1279 37.7305 19.1279 38.1822C19.1279 52.1506 30.4532 63.4727 44.4183 63.4727C58.3835 63.4727 69.7087 52.1474 69.7087 38.1822C69.7087 27.3631 62.9136 18.1363 53.36 14.5225Z" fill="url(#paint1_linear_713_3940)"/>
<path d="M41.167 16.2715C32.6802 16.2715 25.5135 21.9165 23.21 29.6568C25.7826 23.9157 31.5461 19.9174 38.2452 19.9174C47.3438 19.9174 54.7188 27.2924 54.7188 36.3911C54.7188 45.4898 47.3438 52.8648 38.2452 52.8648C36.7586 52.8648 35.3169 52.663 33.9457 52.2946C36.1659 53.2236 38.6072 53.7363 41.167 53.7395C51.5151 53.7395 59.8993 45.3488 59.8993 35.0039C59.8993 24.6557 51.5119 16.2715 41.167 16.2715Z" fill="url(#paint2_linear_713_3940)"/>
</g>
<path d="M44.2286 52.1828L25.6372 74.7597C25.5059 74.9167 25.3168 75 25.1246 75C25.0093 75 24.8907 74.9712 24.785 74.9071C24.5031 74.7405 24.3813 74.3945 24.5031 74.0901L33.1628 51.2377H24.282C24.0482 51.2377 23.8335 51.116 23.7118 50.9173C23.59 50.7187 23.5836 50.4688 23.6925 50.2606L33.2109 32.1145H19.0952C18.8613 32.1145 18.6466 31.9927 18.5249 31.7941C18.4031 31.5955 18.3935 31.3488 18.5025 31.1405L34.3194 0.362025C34.4347 0.137762 34.6622 0 34.9121 0H54.4037C54.644 0 54.865 0.12815 54.9836 0.336394C55.1021 0.544639 55.1021 0.797736 54.9836 1.00598L45.619 17.0664H56.1497C56.3932 17.0664 56.6175 17.1978 56.736 17.4124C56.8546 17.6271 56.845 17.8866 56.7136 18.0916L43.2194 39.2268H53.5034C53.7629 39.2268 53.9968 39.3774 54.109 39.6113C54.2179 39.8452 54.1826 40.1239 54.0192 40.3225L46.8845 48.9855" fill="url(#paint3_linear_713_3940)"/>
<defs>
<linearGradient id="paint0_linear_713_3940" x1="51.6339" y1="20.3371" x2="11.6386" y2="62.8341" gradientUnits="userSpaceOnUse">
<stop offset="0.278846" stop-color="#33CFFF"/>
<stop offset="1" stop-color="#0D87C5"/>
</linearGradient>
<linearGradient id="paint1_linear_713_3940" x1="59.2497" y1="26.0394" x2="29.4784" y2="62.2112" gradientUnits="userSpaceOnUse">
<stop offset="0.278846" stop-color="#33CFFF"/>
<stop offset="1" stop-color="#0D87C5"/>
</linearGradient>
<linearGradient id="paint2_linear_713_3940" x1="52.3128" y1="25.0869" x2="29.3203" y2="51.5601" gradientUnits="userSpaceOnUse">
<stop offset="0.278846" stop-color="#33CFFF"/>
<stop offset="1" stop-color="#0D87C5"/>
</linearGradient>
<linearGradient id="paint3_linear_713_3940" x1="48.8803" y1="17.6458" x2="7.80561" y2="42.3686" gradientUnits="userSpaceOnUse">
<stop offset="0.278846" stop-color="#33CFFF"/>
<stop offset="1" stop-color="#0D87C5"/>
</linearGradient>
</defs>
</svg>
