<svg width="250" height="250" viewBox="0 0 250 250" fill="none" xmlns="http://www.w3.org/2000/svg">
<g opacity="0.23">
<path d="M145.616 220.963C93.8007 220.963 51.7995 178.961 51.7995 127.146C51.7995 75.3303 93.8007 33.329 145.616 33.329C171.748 33.329 195.371 44.0189 212.383 61.2658C192.786 34.493 161.133 17.0859 125.4 17.0859C65.8853 17.0859 17.6367 65.3239 17.6367 124.839C17.6367 184.354 65.8853 232.592 125.39 232.592C152.237 232.592 176.778 222.746 195.659 206.492C181.167 215.655 164.016 220.973 145.616 220.973" fill="url(#paint0_linear_713_3932)"/>
<path d="M177.868 48.4082C200.422 61.6184 215.587 86.0951 215.587 114.117C215.587 156.151 181.51 190.217 139.487 190.228C100.38 190.228 68.1819 160.732 63.8889 122.778C63.8141 124.273 63.7607 125.768 63.7607 127.274C63.7607 173.835 101.512 211.576 148.062 211.576C194.613 211.576 232.364 173.825 232.364 127.274C232.364 91.2104 209.713 60.4543 177.868 48.4082Z" fill="url(#paint1_linear_713_3932)"/>
<path d="M137.223 54.2383C108.934 54.2383 85.0446 73.055 77.3662 98.856C85.9416 79.7188 105.153 66.3912 127.484 66.3912C157.813 66.3912 182.396 90.9747 182.396 121.304C182.396 151.633 157.813 176.216 127.484 176.216C122.529 176.216 117.723 175.543 113.152 174.315C120.553 177.412 128.69 179.121 137.223 179.132C171.717 179.132 199.664 151.163 199.664 116.68C199.664 82.1857 171.706 54.2383 137.223 54.2383Z" fill="url(#paint2_linear_713_3932)"/>
</g>
<path d="M147.428 173.943L85.4568 249.199C85.019 249.722 84.3889 250 83.7481 250C83.3637 250 82.9685 249.904 82.6161 249.69C81.6764 249.135 81.2706 247.982 81.6764 246.967L110.542 170.792H80.9395C80.1599 170.792 79.4444 170.387 79.0386 169.724C78.6328 169.062 78.6114 168.229 78.9745 167.535L110.702 107.048H63.6499C62.8703 107.048 62.1548 106.642 61.749 105.98C61.3432 105.318 61.3111 104.496 61.6742 103.802L114.397 1.20675C114.782 0.459207 115.54 0 116.373 0H181.345C182.146 0 182.883 0.427167 183.278 1.12131C183.673 1.81546 183.673 2.65912 183.278 3.35327L152.063 56.8881H187.165C187.977 56.8881 188.725 57.3259 189.12 58.0414C189.515 58.7569 189.483 59.622 189.045 60.3054L144.064 130.756H178.344C179.209 130.756 179.989 131.258 180.363 132.038C180.726 132.817 180.608 133.746 180.064 134.408L156.281 163.285" fill="url(#paint3_linear_713_3932)"/>
<defs>
<linearGradient id="paint0_linear_713_3932" x1="172.113" y1="67.7898" x2="38.7959" y2="209.447" gradientUnits="userSpaceOnUse">
<stop offset="0.278846" stop-color="#33CFFF"/>
<stop offset="1" stop-color="#0D87C5"/>
</linearGradient>
<linearGradient id="paint1_linear_713_3932" x1="197.5" y1="86.7979" x2="98.2629" y2="207.371" gradientUnits="userSpaceOnUse">
<stop offset="0.278846" stop-color="#33CFFF"/>
<stop offset="1" stop-color="#0D87C5"/>
</linearGradient>
<linearGradient id="paint2_linear_713_3932" x1="174.376" y1="83.6229" x2="97.7343" y2="171.867" gradientUnits="userSpaceOnUse">
<stop offset="0.278846" stop-color="#33CFFF"/>
<stop offset="1" stop-color="#0D87C5"/>
</linearGradient>
<linearGradient id="paint3_linear_713_3932" x1="162.934" y1="58.8195" x2="26.0181" y2="141.229" gradientUnits="userSpaceOnUse">
<stop offset="0.278846" stop-color="#33CFFF"/>
<stop offset="1" stop-color="#0D87C5"/>
</linearGradient>
</defs>
</svg>
