<svg width="217" height="50" viewBox="0 0 217 50" fill="none" xmlns="http://www.w3.org/2000/svg">
<g opacity="0.23">
<path d="M29.1232 44.1923C18.7601 44.1923 10.3599 35.7921 10.3599 25.429C10.3599 15.0659 18.7601 6.6656 29.1232 6.6656C34.3496 6.6656 39.0741 8.80358 42.4765 12.253C38.5572 6.89841 32.2266 3.41699 25.0801 3.41699C13.1771 3.41699 3.52734 13.0646 3.52734 24.9676C3.52734 36.8706 13.1771 46.5182 25.078 46.5182C30.4475 46.5182 35.3556 44.549 39.1318 41.2982C36.2335 43.1308 32.8033 44.1944 29.1232 44.1944" fill="#1D3366"/>
<path d="M35.5734 9.68164C40.0843 12.3237 43.1172 17.219 43.1172 22.8235C43.1172 31.2301 36.3017 38.0435 27.8972 38.0456C20.0757 38.0456 13.6362 32.1464 12.7776 24.5556C12.7626 24.8546 12.752 25.1537 12.752 25.4548C12.752 34.7671 20.3021 42.3151 29.6123 42.3151C38.9224 42.3151 46.4726 34.7649 46.4726 25.4548C46.4726 18.2421 41.9425 12.0909 35.5734 9.68164Z" fill="#1D3366"/>
<path d="M27.444 10.8477C21.7862 10.8477 17.0083 14.611 15.4727 19.7712C17.1877 15.9438 21.0301 13.2782 25.4962 13.2782C31.5619 13.2782 36.4786 18.1949 36.4786 24.2607C36.4786 30.3265 31.5619 35.2432 25.4962 35.2432C24.5051 35.2432 23.544 35.1087 22.6299 34.863C24.11 35.4824 25.7375 35.8242 27.444 35.8263C34.3428 35.8263 39.9323 30.2325 39.9323 23.3359C39.9323 16.4371 34.3407 10.8477 27.444 10.8477Z" fill="#1D3366"/>
</g>
<path d="M29.4854 34.7886L17.0912 49.8398C17.0036 49.9445 16.8776 50 16.7494 50C16.6725 50 16.5935 49.9808 16.523 49.9381C16.3351 49.827 16.2539 49.5963 16.3351 49.3934L22.1083 34.1585H16.1877C16.0318 34.1585 15.8887 34.0773 15.8075 33.9449C15.7264 33.8125 15.7221 33.6459 15.7947 33.5071L22.1403 21.4097H12.7298C12.5739 21.4097 12.4308 21.3285 12.3496 21.1961C12.2684 21.0636 12.262 20.8992 12.3346 20.7604L22.8793 0.24135C22.9562 0.0918413 23.1078 0 23.2744 0H36.2689C36.4291 0 36.5764 0.0854334 36.6555 0.224263C36.7345 0.363093 36.7345 0.531824 36.6555 0.670653L30.4124 11.3776H37.4329C37.5952 11.3776 37.7447 11.4652 37.8238 11.6083C37.9028 11.7514 37.8964 11.9244 37.8088 12.0611L28.8127 26.1512H35.6687C35.8417 26.1512 35.9976 26.2516 36.0724 26.4075C36.145 26.5634 36.1215 26.7493 36.0126 26.8817L31.2561 32.657" fill="#1D3366"/>
<g clip-path="url(#clip0_713_3789)">
<path d="M56.878 17.2965C58.1273 15.0315 59.8742 13.2642 62.1087 12.0048C64.3431 10.7453 66.8823 10.1055 69.716 10.1055C73.1896 10.1055 76.1553 11.0196 78.6336 12.858C81.1016 14.6964 82.7572 17.1949 83.59 20.3639H75.7592C75.1803 19.1451 74.3474 18.2106 73.281 17.5707C72.2145 16.9309 70.9957 16.616 69.6348 16.616C67.4409 16.616 65.6635 17.3778 64.3025 18.9114C62.9415 20.435 62.261 22.4867 62.261 25.036C62.261 27.5854 62.9415 29.6371 64.3025 31.1606C65.6635 32.6841 67.4409 33.456 69.6348 33.456C70.9957 33.456 72.2145 33.1412 73.281 32.5013C74.3474 31.8614 75.1803 30.9371 75.7592 29.7082H83.59C82.7572 32.8771 81.1016 35.3655 78.6336 37.1836C76.1553 39.0017 73.1896 39.9158 69.716 39.9158C66.8823 39.9158 64.3431 39.2861 62.1087 38.0165C59.8742 36.757 58.1273 34.9999 56.878 32.7451C55.6287 30.4902 54.999 27.9206 54.999 25.036C54.999 22.1515 55.6287 19.5716 56.878 17.3067V17.2965Z" fill="#1D3366"/>
<path d="M109.753 27.2094C110.779 28.5298 111.297 30.033 111.297 31.7292C111.297 34.177 110.444 36.1169 108.738 37.5389C107.031 38.971 104.644 39.682 101.587 39.682H87.957V10.4404H101.12C104.096 10.4404 106.422 11.1209 108.098 12.482C109.774 13.843 110.617 15.6915 110.617 18.0276C110.617 19.7542 110.159 21.1762 109.266 22.3239C108.362 23.4615 107.163 24.2537 105.66 24.7006C107.356 25.0663 108.717 25.8991 109.743 27.2195L109.753 27.2094ZM95.087 22.2731H99.7489C100.917 22.2731 101.811 22.0192 102.44 21.5012C103.07 20.9832 103.375 20.2316 103.375 19.2261C103.375 18.2206 103.06 17.4588 102.44 16.9306C101.821 16.4025 100.917 16.1384 99.7489 16.1384H95.087V22.263V22.2731ZM103.111 33.1308C103.761 32.5925 104.086 31.8003 104.086 30.7744C104.086 29.7486 103.74 28.9462 103.06 28.3571C102.379 27.7781 101.445 27.4836 100.247 27.4836H95.0768V33.9433H100.328C101.516 33.9433 102.44 33.6691 103.101 33.1308H103.111Z" fill="#1D3366"/>
<path d="M155.672 10.4404L148.044 39.6921H139.421L134.749 20.4348L129.914 39.6921H121.291L113.877 10.4404H121.505L125.709 31.7292L130.92 10.4404H138.751L143.748 31.7292L148.013 10.4404H155.682H155.672Z" fill="#1D3366"/>
<path d="M166.387 10.4404V39.6921H159.257V10.4404H166.387Z" fill="#1D3366"/>
<path d="M186.467 39.6921L180.383 28.6516H178.677V39.6921H171.547V10.4404H183.511C185.817 10.4404 187.787 10.8467 189.412 11.6491C191.037 12.4515 192.256 13.5586 193.059 14.9602C193.861 16.3619 194.267 17.926 194.267 19.6527C194.267 21.5926 193.719 23.3295 192.622 24.8631C191.525 26.3867 189.91 27.4734 187.767 28.1133L194.521 39.7023H186.477L186.467 39.6921ZM178.677 23.6037H183.095C184.405 23.6037 185.38 23.2888 186.03 22.6489C186.68 22.0091 187.005 21.1051 187.005 19.9371C187.005 18.769 186.68 17.9463 186.03 17.3166C185.38 16.6767 184.395 16.3619 183.095 16.3619H178.677V23.6138V23.6037Z" fill="#1D3366"/>
<path d="M205.845 16.1486V22.07H215.393V27.575H205.845V33.9941H216.642V39.7023H198.726V10.4404H216.642V16.1486H205.845Z" fill="#1D3366"/>
</g>
<defs>
<clipPath id="clip0_713_3789">
<rect width="161.643" height="29.79" fill="white" transform="translate(54.999 10.1055)"/>
</clipPath>
</defs>
</svg>
