<svg width="491" height="600" viewBox="0 0 491 600" fill="none" xmlns="http://www.w3.org/2000/svg">
<g opacity="0.23">
<path d="M285.523 433.264C183.924 433.264 101.568 350.908 101.568 249.309C101.568 147.71 183.924 65.355 285.523 65.355C336.762 65.355 383.08 86.3156 416.437 120.133C378.013 67.6374 315.948 33.5059 245.884 33.5059C129.187 33.5059 34.582 128.09 34.582 244.786C34.582 361.483 129.187 456.067 245.863 456.067C298.505 456.067 346.625 436.761 383.646 404.891C355.231 422.857 321.602 433.285 285.523 433.285" fill="url(#paint0_linear_1198_2598)"/>
<path d="M348.76 94.9219C392.984 120.824 422.718 168.818 422.718 223.763C422.718 306.182 355.9 372.979 273.503 373C196.822 373 133.689 315.165 125.271 240.745C125.124 243.677 125.02 246.608 125.02 249.561C125.02 340.858 199.041 414.858 290.317 414.858C381.593 414.858 455.615 340.837 455.615 249.561C455.615 178.848 411.202 118.542 348.76 94.9219Z" fill="url(#paint1_linear_1198_2598)"/>
<path d="M269.066 106.353C213.597 106.353 166.755 143.248 151.699 193.838C168.514 156.314 206.184 130.182 249.969 130.182C309.438 130.182 357.641 178.385 357.641 237.853C357.641 297.322 309.438 345.525 249.969 345.525C240.253 345.525 230.83 344.206 221.868 341.797C236.379 347.87 252.335 351.22 269.066 351.241C336.701 351.241 391.5 296.4 391.5 228.786C391.5 161.151 336.68 106.353 269.066 106.353Z" fill="url(#paint2_linear_1198_2598)"/>
</g>
<path d="M289.076 341.064L167.563 488.626C166.704 489.652 165.469 490.196 164.213 490.196C163.459 490.196 162.684 490.008 161.993 489.589C160.15 488.5 159.355 486.239 160.15 484.249L216.75 334.887H158.705C157.177 334.887 155.774 334.091 154.978 332.793C154.183 331.495 154.141 329.862 154.853 328.5L217.064 209.899H124.804C123.276 209.899 121.873 209.103 121.077 207.805C120.281 206.506 120.218 204.894 120.93 203.533L224.309 2.36618C225.063 0.900405 226.55 0 228.183 0H355.58C357.15 0 358.595 0.837583 359.37 2.19866C360.145 3.55973 360.145 5.21396 359.37 6.57503L298.163 111.545H366.992C368.583 111.545 370.049 112.404 370.824 113.807C371.599 115.21 371.536 116.906 370.677 118.246L282.48 256.385H349.696C351.392 256.385 352.921 257.369 353.654 258.897C354.365 260.426 354.135 262.248 353.067 263.546L306.435 320.167" fill="url(#paint3_linear_1198_2598)"/>
<g clip-path="url(#clip0_1198_2598)">
<path d="M58.3664 546.451C61.3215 541.085 65.4537 536.897 70.7392 533.913C76.0246 530.928 82.0308 529.412 88.7336 529.412C96.9501 529.412 103.965 531.578 109.827 535.934C115.665 540.29 119.581 546.211 121.551 553.72H103.028C101.659 550.832 99.6889 548.618 97.1663 547.101C94.6437 545.585 91.7608 544.839 88.5415 544.839C83.3521 544.839 79.1478 546.644 75.9285 550.278C72.7092 553.888 71.0995 558.75 71.0995 564.79C71.0995 570.831 72.7092 575.693 75.9285 579.303C79.1478 582.913 83.3521 584.742 88.5415 584.742C91.7608 584.742 94.6437 583.996 97.1663 582.48C99.6889 580.963 101.659 578.773 103.028 575.861H121.551C119.581 583.37 115.665 589.267 109.827 593.574C103.965 597.882 96.9501 600.048 88.7336 600.048C82.0308 600.048 76.0246 598.556 70.7392 595.548C65.4537 592.564 61.3215 588.4 58.3664 583.057C55.4114 577.714 53.9219 571.625 53.9219 564.79C53.9219 557.955 55.4114 551.842 58.3664 546.476V546.451Z" fill="white"/>
<path d="M183.439 569.941C185.865 573.069 187.091 576.631 187.091 580.65C187.091 586.45 185.072 591.047 181.036 594.417C177 597.81 171.354 599.495 164.123 599.495H131.882V530.206H163.018C170.057 530.206 175.559 531.819 179.523 535.044C183.487 538.268 185.481 542.649 185.481 548.184C185.481 552.275 184.4 555.645 182.286 558.364C180.147 561.06 177.313 562.937 173.757 563.996C177.769 564.862 180.988 566.836 183.415 569.965L183.439 569.941ZM148.747 558.244H159.775C162.537 558.244 164.652 557.642 166.141 556.415C167.631 555.187 168.351 553.407 168.351 551.024C168.351 548.641 167.607 546.836 166.141 545.585C164.676 544.333 162.537 543.708 159.775 543.708H148.747V558.22V558.244ZM167.727 583.972C169.264 582.696 170.033 580.819 170.033 578.388C170.033 575.957 169.216 574.056 167.607 572.66C165.997 571.288 163.787 570.59 160.952 570.59H148.723V585.897H161.144C163.955 585.897 166.141 585.247 167.703 583.972H167.727Z" fill="white"/>
<path d="M292.055 530.206L274.012 599.519H253.615L242.564 553.888L231.128 599.519H210.731L193.193 530.206H211.236L221.182 580.65L233.507 530.206H252.03L263.85 580.65L273.94 530.206H292.079H292.055Z" fill="white"/>
<path d="M317.4 530.206V599.519H300.535V530.206H317.4Z" fill="white"/>
<path d="M364.898 599.519L350.507 573.358H346.471V599.519H329.605V530.206H357.907C363.36 530.206 368.021 531.169 371.865 533.07C375.709 534.971 378.592 537.595 380.49 540.916C382.388 544.237 383.349 547.943 383.349 552.035C383.349 556.632 382.051 560.747 379.457 564.381C376.862 567.991 373.042 570.566 367.973 572.082L383.949 599.543H364.922L364.898 599.519ZM346.471 561.397H356.922C360.021 561.397 362.327 560.651 363.865 559.134C365.402 557.618 366.171 555.476 366.171 552.709C366.171 549.941 365.402 547.991 363.865 546.499C362.327 544.983 359.997 544.237 356.922 544.237H346.471V561.421V561.397Z" fill="white"/>
<path d="M410.737 543.732V557.763H433.32V570.807H410.737V586.017H436.275V599.543H393.896V530.206H436.275V543.732H410.737Z" fill="white"/>
</g>
<defs>
<linearGradient id="paint0_linear_1198_2598" x1="337.478" y1="132.925" x2="76.0711" y2="410.684" gradientUnits="userSpaceOnUse">
<stop offset="0.278846" stop-color="#33CFFF"/>
<stop offset="1" stop-color="#0D87C5"/>
</linearGradient>
<linearGradient id="paint1_linear_1198_2598" x1="387.255" y1="170.196" x2="192.671" y2="406.614" gradientUnits="userSpaceOnUse">
<stop offset="0.278846" stop-color="#33CFFF"/>
<stop offset="1" stop-color="#0D87C5"/>
</linearGradient>
<linearGradient id="paint2_linear_1198_2598" x1="341.914" y1="163.969" x2="191.637" y2="336.998" gradientUnits="userSpaceOnUse">
<stop offset="0.278846" stop-color="#33CFFF"/>
<stop offset="1" stop-color="#0D87C5"/>
</linearGradient>
<linearGradient id="paint3_linear_1198_2598" x1="319.479" y1="115.332" x2="51.0166" y2="276.92" gradientUnits="userSpaceOnUse">
<stop offset="0.278846" stop-color="#33CFFF"/>
<stop offset="1" stop-color="#0D87C5"/>
</linearGradient>
<clipPath id="clip0_1198_2598">
<rect width="382.353" height="70.5882" fill="white" transform="translate(53.9219 529.412)"/>
</clipPath>
</defs>
</svg>
