<svg width="1600" height="2018" viewBox="0 0 1600 2018" fill="none" xmlns="http://www.w3.org/2000/svg">
<g clip-path="url(#clip0_924_2278)">
<path d="M8.27086 0L3.38086 3.11L595.911 986.79L598.411 984.92L1242.86 502.4L1580.24 873.3L44.6309 2008.65L47.9809 2013.44L1588.89 874.17L1243.58 494.56L1241.53 496.09L597.541 978.27L8.27086 0Z" fill="url(#paint0_linear_924_2278)"/>
<path d="M8.41023 48.3086L3.24023 51.5986L581.23 1009.05L1227.01 536.749L1579.91 907.739L86.3802 2008.51L89.9302 2013.59L1589.22 908.579L1227.73 528.549L1225.6 530.099L582.99 1000.1L8.41023 48.3086Z" fill="url(#paint1_linear_924_2278)"/>
<path d="M8.54984 96.6094L3.08984 100.099L566.56 1031.31L1211.17 571.099L1579.58 942.189L128.14 2008.36L131.88 2013.74L1589.55 942.989L1211.87 562.549L568.44 1021.92L8.54984 96.6094Z" fill="url(#paint2_linear_924_2278)"/>
<path d="M8.69922 144.922L2.94922 148.602L551.879 1053.56L554.789 1051.54L1195.32 605.442L1579.24 976.652L169.889 2008.21L173.819 2013.88L1589.89 977.402L1196.01 596.552L553.899 1043.74L8.69922 144.922Z" fill="url(#paint3_linear_924_2278)"/>
<path d="M8.84055 193.211L2.81055 197.091L537.201 1075.81L1179.48 639.781L1578.89 1011.11L211.651 2008.07L215.761 2014.03L1590.24 1011.8L1180.16 630.551L1177.85 632.111L539.361 1065.58L8.84055 193.211Z" fill="url(#paint4_linear_924_2278)"/>
<path d="M8.98016 241.52L2.66016 245.59L522.51 1098.06L525.69 1095.96L1163.63 674.12L1578.53 1045.57L253.4 2007.92L257.71 2014.18L1590.6 1046.2L1164.3 664.549L1161.95 666.109L524.83 1087.41L8.98016 241.52Z" fill="url(#paint5_linear_924_2278)"/>
<path d="M9.12953 289.82L2.51953 294.09L507.83 1120.31L1147.78 708.46L1578.17 1080.03L295.15 2007.77L299.65 2014.33L1590.96 1080.6L1148.45 698.56L510.29 1109.25L9.12953 289.82Z" fill="url(#paint6_linear_924_2278)"/>
<path d="M9.27086 338.121L2.38086 342.591L493.141 1142.54L1131.93 742.801L1577.8 1114.5L336.911 2007.62L341.591 2014.48L1591.33 1114.99L1132.6 732.571L1130.15 734.101L495.761 1131.1L9.27086 338.121Z" fill="url(#paint7_linear_924_2278)"/>
<path d="M9.41047 386.422L2.23047 391.092L478.45 1164.77L482 1162.62L1116.08 777.132L1577.42 1148.97L378.67 2007.47L383.53 2014.63L1591.71 1149.38L1116.75 766.572L1114.25 768.102L481.22 1152.95L9.41047 386.422Z" fill="url(#paint8_linear_924_2278)"/>
<path d="M9.55984 434.719L2.08984 439.589L463.76 1187L1100.22 811.459L1577.04 1183.44L420.43 2007.32L425.47 2014.78L1592.09 1183.77L1587.24 1179.99L1100.9 800.579L466.69 1174.8L9.55984 434.719Z" fill="url(#paint9_linear_924_2278)"/>
<path d="M9.69922 483.02L1.94922 488.09L449.069 1209.23L1084.37 845.8L1576.65 1217.91L462.189 2007.16L467.399 2014.94L1592.48 1218.16L1085.06 834.6L452.159 1196.65L9.69922 483.02Z" fill="url(#paint10_linear_924_2278)"/>
<path d="M9.84055 531.309L1.81055 536.589L434.371 1231.45L438.261 1229.29L1068.51 880.129L1576.25 1252.38L503.961 2007.01L509.341 2015.09L1592.88 1252.55L1069.21 868.609L1066.6 870.059L437.631 1218.52L9.84055 531.309Z" fill="url(#paint11_linear_924_2278)"/>
<path d="M9.97992 579.609L1.66992 585.099L419.68 1253.67L1052.65 914.459L1575.84 1286.86L545.72 2006.85L551.27 2015.24L1593.29 1286.93L1053.37 902.629L1050.73 904.039L423.11 1240.38L9.97992 579.609Z" fill="url(#paint12_linear_924_2278)"/>
<path d="M10.1193 627.898L1.5293 633.598L404.979 1275.88L409.079 1273.75L1036.79 948.778L1575.42 1321.33L587.489 2006.7L593.199 2015.4L1593.71 1321.32L1037.53 936.638L408.589 1262.25L10.1193 627.898Z" fill="url(#paint13_linear_924_2278)"/>
<path d="M10.2506 676.199L1.39062 682.109L390.281 1298.09L1020.92 983.109L1575 1355.81L629.261 2006.54L635.131 2015.56L1594.13 1355.7L1021.7 970.659L394.061 1284.12L10.2506 676.199Z" fill="url(#paint14_linear_924_2278)"/>
<path d="M10.3898 724.488L1.25977 730.618L375.58 1320.29L1005.06 1017.44L1574.56 1390.28L671.03 2006.38L677.05 2015.72L1594.57 1390.09L1005.86 1004.67L1003.14 1005.98L379.54 1306.01L10.3898 724.488Z" fill="url(#paint15_linear_924_2278)"/>
<path d="M10.5291 772.781L1.11914 779.131L360.879 1342.49L989.189 1051.77L1574.11 1424.76L712.799 2006.22L718.979 2015.88L1595.02 1424.48L990.029 1038.7L365.019 1327.89L10.5291 772.781Z" fill="url(#paint16_linear_924_2278)"/>
<path d="M10.6605 821.07L0.980469 827.64L346.18 1364.68L973.31 1086.09L1573.65 1459.23L754.581 2006.05L760.901 2016.04L1595.48 1458.87L974.201 1072.71L350.5 1349.78L10.6605 821.07Z" fill="url(#paint17_linear_924_2278)"/>
<path d="M10.7896 869.359L0.849609 876.149L331.48 1386.87L957.44 1120.42L1573.17 1493.7L796.37 2005.89L802.81 2016.21L1595.95 1493.26L958.38 1106.73L335.98 1371.67L10.7896 869.359Z" fill="url(#paint18_linear_924_2278)"/>
<path d="M10.9207 917.641L0.720703 924.671L316.771 1409.05L941.561 1154.74L1572.68 1528.16L838.151 2005.72L844.721 2016.38L1596.45 1527.65L942.551 1140.75L321.461 1393.56L10.9207 917.641Z" fill="url(#paint19_linear_924_2278)"/>
<path d="M11.0498 965.922L0.589844 973.192L302.07 1431.23L925.68 1189.06L1572.17 1562.63L879.95 2005.54L886.62 2016.56L1596.96 1562.05L926.73 1174.78L306.94 1415.47L11.0498 965.922Z" fill="url(#paint20_linear_924_2278)"/>
<path d="M11.1807 1014.19L0.470703 1021.72L287.371 1453.41L909.801 1223.38L1571.63 1597.08L921.751 2005.36L928.521 2016.74L1597.49 1596.46L910.911 1208.8L908.161 1209.82L292.421 1437.37L11.1807 1014.19Z" fill="url(#paint21_linear_924_2278)"/>
<path d="M11.2998 1062.46L0.339844 1070.25L272.67 1475.58L893.91 1257.7L1571.07 1631.52L963.56 2005.18L970.41 2016.92L1598.06 1630.88L895.09 1242.82L277.9 1459.28L11.2998 1062.46Z" fill="url(#paint22_linear_924_2278)"/>
<path d="M11.4205 1110.73L0.230469 1118.78L257.97 1497.75L878.021 1292.02L1570.48 1665.95L1005.39 2004.98L1012.28 2017.11L1598.66 1665.31L879.281 1276.85L876.55 1277.75L263.38 1481.2L11.4205 1110.73Z" fill="url(#paint23_linear_924_2278)"/>
<path d="M11.5394 1158.99L0.109375 1167.32L243.269 1519.91L862.119 1326.34L1569.83 1700.37L1047.23 2004.79L1054.14 2017.31L1599.3 1699.75L863.479 1310.87L860.759 1311.72L248.859 1503.12L11.5394 1158.99Z" fill="url(#paint24_linear_924_2278)"/>
<path d="M11.65 1207.24L0 1215.86L228.58 1542.07L846.23 1360.66L1569.13 1734.76L1089.09 2004.58L1095.97 2017.52L1600 1734.22L847.67 1344.89L844.98 1345.69L234.33 1525.04L11.65 1207.24Z" fill="url(#paint25_linear_924_2278)"/>
</g>
<defs>
<linearGradient id="paint0_linear_924_2278" x1="3.38086" y1="1006.72" x2="1588.89" y2="1006.72" gradientUnits="userSpaceOnUse">
<stop stop-color="#2DBA95"/>
<stop offset="0.33" stop-color="#4AC27D"/>
<stop offset="0.69" stop-color="#70CD5E"/>
<stop offset="1" stop-color="#A9DD2F"/>
</linearGradient>
<linearGradient id="paint1_linear_924_2278" x1="3.24023" y1="1030.95" x2="1589.22" y2="1030.95" gradientUnits="userSpaceOnUse">
<stop stop-color="#2DBA95"/>
<stop offset="0.33" stop-color="#4AC27D"/>
<stop offset="0.69" stop-color="#70CD5E"/>
<stop offset="1" stop-color="#A9DD2F"/>
</linearGradient>
<linearGradient id="paint2_linear_924_2278" x1="3.08984" y1="1055.17" x2="1589.55" y2="1055.17" gradientUnits="userSpaceOnUse">
<stop stop-color="#2DBA95"/>
<stop offset="0.33" stop-color="#4AC27D"/>
<stop offset="0.69" stop-color="#70CD5E"/>
<stop offset="1" stop-color="#A9DD2F"/>
</linearGradient>
<linearGradient id="paint3_linear_924_2278" x1="2.94922" y1="1079.4" x2="1589.89" y2="1079.4" gradientUnits="userSpaceOnUse">
<stop stop-color="#2DBA95"/>
<stop offset="0.33" stop-color="#4AC27D"/>
<stop offset="0.69" stop-color="#70CD5E"/>
<stop offset="1" stop-color="#A9DD2F"/>
</linearGradient>
<linearGradient id="paint4_linear_924_2278" x1="2.81055" y1="1103.62" x2="1590.24" y2="1103.62" gradientUnits="userSpaceOnUse">
<stop stop-color="#2DBA95"/>
<stop offset="0.33" stop-color="#4AC27D"/>
<stop offset="0.69" stop-color="#70CD5E"/>
<stop offset="1" stop-color="#A9DD2F"/>
</linearGradient>
<linearGradient id="paint5_linear_924_2278" x1="2.66016" y1="1127.85" x2="1590.6" y2="1127.85" gradientUnits="userSpaceOnUse">
<stop stop-color="#2DBA95"/>
<stop offset="0.33" stop-color="#4AC27D"/>
<stop offset="0.69" stop-color="#70CD5E"/>
<stop offset="1" stop-color="#A9DD2F"/>
</linearGradient>
<linearGradient id="paint6_linear_924_2278" x1="2.51953" y1="1152.07" x2="1590.96" y2="1152.07" gradientUnits="userSpaceOnUse">
<stop stop-color="#2DBA95"/>
<stop offset="0.33" stop-color="#4AC27D"/>
<stop offset="0.69" stop-color="#70CD5E"/>
<stop offset="1" stop-color="#A9DD2F"/>
</linearGradient>
<linearGradient id="paint7_linear_924_2278" x1="2.38086" y1="1176.3" x2="1591.33" y2="1176.3" gradientUnits="userSpaceOnUse">
<stop stop-color="#2DBA95"/>
<stop offset="0.33" stop-color="#4AC27D"/>
<stop offset="0.69" stop-color="#70CD5E"/>
<stop offset="1" stop-color="#A9DD2F"/>
</linearGradient>
<linearGradient id="paint8_linear_924_2278" x1="2.23047" y1="1200.53" x2="1591.71" y2="1200.53" gradientUnits="userSpaceOnUse">
<stop stop-color="#2DBA95"/>
<stop offset="0.33" stop-color="#4AC27D"/>
<stop offset="0.69" stop-color="#70CD5E"/>
<stop offset="1" stop-color="#A9DD2F"/>
</linearGradient>
<linearGradient id="paint9_linear_924_2278" x1="2.08984" y1="1224.75" x2="1592.09" y2="1224.75" gradientUnits="userSpaceOnUse">
<stop stop-color="#2DBA95"/>
<stop offset="0.33" stop-color="#4AC27D"/>
<stop offset="0.69" stop-color="#70CD5E"/>
<stop offset="1" stop-color="#A9DD2F"/>
</linearGradient>
<linearGradient id="paint10_linear_924_2278" x1="1.94922" y1="1248.98" x2="1592.48" y2="1248.98" gradientUnits="userSpaceOnUse">
<stop stop-color="#2DBA95"/>
<stop offset="0.33" stop-color="#4AC27D"/>
<stop offset="0.69" stop-color="#70CD5E"/>
<stop offset="1" stop-color="#A9DD2F"/>
</linearGradient>
<linearGradient id="paint11_linear_924_2278" x1="1.81055" y1="1273.2" x2="1592.88" y2="1273.2" gradientUnits="userSpaceOnUse">
<stop stop-color="#2DBA95"/>
<stop offset="0.33" stop-color="#4AC27D"/>
<stop offset="0.69" stop-color="#70CD5E"/>
<stop offset="1" stop-color="#A9DD2F"/>
</linearGradient>
<linearGradient id="paint12_linear_924_2278" x1="1.66992" y1="1297.43" x2="1593.29" y2="1297.43" gradientUnits="userSpaceOnUse">
<stop stop-color="#2DBA95"/>
<stop offset="0.33" stop-color="#4AC27D"/>
<stop offset="0.69" stop-color="#70CD5E"/>
<stop offset="1" stop-color="#A9DD2F"/>
</linearGradient>
<linearGradient id="paint13_linear_924_2278" x1="1.5293" y1="1321.65" x2="1593.71" y2="1321.65" gradientUnits="userSpaceOnUse">
<stop stop-color="#2DBA95"/>
<stop offset="0.33" stop-color="#4AC27D"/>
<stop offset="0.69" stop-color="#70CD5E"/>
<stop offset="1" stop-color="#A9DD2F"/>
</linearGradient>
<linearGradient id="paint14_linear_924_2278" x1="1.39062" y1="1345.88" x2="1594.13" y2="1345.88" gradientUnits="userSpaceOnUse">
<stop stop-color="#2DBA95"/>
<stop offset="0.33" stop-color="#4AC27D"/>
<stop offset="0.69" stop-color="#70CD5E"/>
<stop offset="1" stop-color="#A9DD2F"/>
</linearGradient>
<linearGradient id="paint15_linear_924_2278" x1="1.25977" y1="1370.11" x2="1594.57" y2="1370.11" gradientUnits="userSpaceOnUse">
<stop stop-color="#2DBA95"/>
<stop offset="0.33" stop-color="#4AC27D"/>
<stop offset="0.69" stop-color="#70CD5E"/>
<stop offset="1" stop-color="#A9DD2F"/>
</linearGradient>
<linearGradient id="paint16_linear_924_2278" x1="1.11914" y1="1394.33" x2="1595.02" y2="1394.33" gradientUnits="userSpaceOnUse">
<stop stop-color="#2DBA95"/>
<stop offset="0.33" stop-color="#4AC27D"/>
<stop offset="0.69" stop-color="#70CD5E"/>
<stop offset="1" stop-color="#A9DD2F"/>
</linearGradient>
<linearGradient id="paint17_linear_924_2278" x1="0.980469" y1="1418.56" x2="1595.48" y2="1418.56" gradientUnits="userSpaceOnUse">
<stop stop-color="#2DBA95"/>
<stop offset="0.33" stop-color="#4AC27D"/>
<stop offset="0.69" stop-color="#70CD5E"/>
<stop offset="1" stop-color="#A9DD2F"/>
</linearGradient>
<linearGradient id="paint18_linear_924_2278" x1="0.849609" y1="1442.79" x2="1595.95" y2="1442.79" gradientUnits="userSpaceOnUse">
<stop stop-color="#2DBA95"/>
<stop offset="0.33" stop-color="#4AC27D"/>
<stop offset="0.69" stop-color="#70CD5E"/>
<stop offset="1" stop-color="#A9DD2F"/>
</linearGradient>
<linearGradient id="paint19_linear_924_2278" x1="0.720703" y1="1467.01" x2="1596.45" y2="1467.01" gradientUnits="userSpaceOnUse">
<stop stop-color="#2DBA95"/>
<stop offset="0.33" stop-color="#4AC27D"/>
<stop offset="0.69" stop-color="#70CD5E"/>
<stop offset="1" stop-color="#A9DD2F"/>
</linearGradient>
<linearGradient id="paint20_linear_924_2278" x1="0.589844" y1="1491.24" x2="1596.96" y2="1491.24" gradientUnits="userSpaceOnUse">
<stop stop-color="#2DBA95"/>
<stop offset="0.33" stop-color="#4AC27D"/>
<stop offset="0.69" stop-color="#70CD5E"/>
<stop offset="1" stop-color="#A9DD2F"/>
</linearGradient>
<linearGradient id="paint21_linear_924_2278" x1="0.470703" y1="1515.46" x2="1597.49" y2="1515.46" gradientUnits="userSpaceOnUse">
<stop stop-color="#2DBA95"/>
<stop offset="0.33" stop-color="#4AC27D"/>
<stop offset="0.69" stop-color="#70CD5E"/>
<stop offset="1" stop-color="#A9DD2F"/>
</linearGradient>
<linearGradient id="paint22_linear_924_2278" x1="0.339844" y1="1539.69" x2="1598.06" y2="1539.69" gradientUnits="userSpaceOnUse">
<stop stop-color="#2DBA95"/>
<stop offset="0.33" stop-color="#4AC27D"/>
<stop offset="0.69" stop-color="#70CD5E"/>
<stop offset="1" stop-color="#A9DD2F"/>
</linearGradient>
<linearGradient id="paint23_linear_924_2278" x1="0.230469" y1="1563.92" x2="1598.66" y2="1563.92" gradientUnits="userSpaceOnUse">
<stop stop-color="#2DBA95"/>
<stop offset="0.33" stop-color="#4AC27D"/>
<stop offset="0.69" stop-color="#70CD5E"/>
<stop offset="1" stop-color="#A9DD2F"/>
</linearGradient>
<linearGradient id="paint24_linear_924_2278" x1="0.109375" y1="1588.15" x2="1599.3" y2="1588.15" gradientUnits="userSpaceOnUse">
<stop stop-color="#2DBA95"/>
<stop offset="0.33" stop-color="#4AC27D"/>
<stop offset="0.69" stop-color="#70CD5E"/>
<stop offset="1" stop-color="#A9DD2F"/>
</linearGradient>
<linearGradient id="paint25_linear_924_2278" x1="0" y1="1612.38" x2="1600" y2="1612.38" gradientUnits="userSpaceOnUse">
<stop stop-color="#2DBA95"/>
<stop offset="0.33" stop-color="#4AC27D"/>
<stop offset="0.69" stop-color="#70CD5E"/>
<stop offset="1" stop-color="#A9DD2F"/>
</linearGradient>
<clipPath id="clip0_924_2278">
<rect width="1600" height="2017.52" fill="white"/>
</clipPath>
</defs>
</svg>
