<svg width="2000" height="1449" viewBox="0 0 2000 1449" fill="none" xmlns="http://www.w3.org/2000/svg">
<g clip-path="url(#clip0_923_2115)">
<path d="M608.093 380.333L202.041 398.769L215.581 217.826L635.164 18.4363L1041.22 0L1027.68 180.953L608.093 380.342V380.333ZM213.055 393.536L608.44 375.583L1017.01 181.436L1030.18 5.24277L634.809 23.1958L226.24 217.342L213.055 393.536Z" fill="url(#paint0_linear_923_2115)"/>
<path d="M205.844 422.138L210.731 239.726L634.928 34.3741L1054.23 11.4336L1049.35 193.845L625.153 399.198L205.844 422.147V422.138ZM221.289 239.152L216.521 416.968L625.272 394.602L1038.78 194.42L1043.54 16.6034L634.791 38.9695L221.28 239.152H221.289Z" fill="url(#paint1_linear_923_2115)"/>
<path d="M209.646 445.49L205.89 261.619L634.691 50.3041L1067.24 22.8594L1071 206.73L642.204 418.045L209.646 445.49ZM216.32 260.963L219.986 440.393L642.104 413.605L1060.56 207.386L1056.88 27.9563L634.764 54.7354L216.311 260.954L216.32 260.963Z" fill="url(#paint2_linear_923_2115)"/>
<path d="M213.439 468.849L201.048 283.519L634.454 66.2406L637.034 66.0583L1080.26 34.3008L1092.65 219.639L659.245 436.918L656.665 437.1L213.439 468.858V468.849ZM211.36 282.771L223.459 463.825L658.962 432.614L1082.36 220.36L1070.26 39.3065L634.764 70.5078L211.369 282.762L211.36 282.771Z" fill="url(#paint3_linear_923_2115)"/>
<path d="M217.241 492.199L196.225 305.402L198.65 304.171L634.244 82.1693L636.788 81.9687L1093.29 45.7344L1114.3 232.532L676.277 455.773L673.733 455.974L217.241 492.208V492.199ZM206.382 304.59L226.924 487.257L675.803 451.625L1104.13 233.325L1083.58 50.658L634.7 86.2906L206.373 304.59H206.382Z" fill="url(#paint4_linear_923_2115)"/>
<path d="M221.034 515.551L191.401 327.286L634.034 98.0902L1106.31 57.1602L1135.93 245.426L693.3 474.621L221.034 515.551ZM201.404 326.419L230.407 510.7L692.68 470.637L1125.94 246.301L1096.94 62.02L634.673 102.084L201.413 326.419H201.404Z" fill="url(#paint5_linear_923_2115)"/>
<path d="M224.818 538.902L186.578 349.168L633.834 114.01L1119.33 68.5938L1157.57 258.327L710.314 493.477L224.818 538.893V538.902ZM196.416 348.247L233.881 534.133L709.539 489.638L1147.73 259.257L1110.26 73.3715L634.609 117.867L196.416 348.247Z" fill="url(#paint6_linear_923_2115)"/>
<path d="M228.611 562.242L228.383 561.312L181.764 371.031L633.642 129.928L1132.36 80.0352L1132.59 80.9652L1179.21 271.246L727.328 512.349L228.611 562.251V562.242ZM191.438 370.074L237.373 557.574L726.425 508.647L1169.54 272.221L1123.61 84.7217L634.554 133.657L191.438 370.074Z" fill="url(#paint7_linear_923_2115)"/>
<path d="M232.394 585.595L232.139 584.702L176.958 392.917L633.459 145.859L1145.41 91.4805L1145.66 92.374L1200.84 284.159L744.341 531.216L232.394 585.595ZM186.441 391.905L240.856 581.009L743.311 527.642L1191.35 285.171L1136.94 96.0667L634.48 149.434L186.441 391.905Z" fill="url(#paint8_linear_923_2115)"/>
<path d="M236.169 608.937L235.896 608.07L172.153 414.781L633.286 161.77L1158.44 102.914L1222.48 297.07L1220.44 298.191L761.346 550.072L759.021 550.327L236.179 608.928L236.169 608.937ZM181.444 413.742L244.339 604.451L760.197 546.644L1213.16 298.118L1150.27 107.409L634.408 165.216L181.444 413.742Z" fill="url(#paint9_linear_923_2115)"/>
<path d="M239.944 632.277L239.634 631.447L167.33 436.644L633.086 177.688L1171.46 114.355L1244.08 309.979L778.314 568.935L776.035 569.2L239.935 632.259L239.944 632.277ZM176.448 435.577L247.831 627.891L777.092 565.634L1234.97 311.064L1163.59 118.75L634.326 181.007L176.448 435.577Z" fill="url(#paint10_linear_923_2115)"/>
<path d="M243.719 655.618L243.391 654.825L162.525 458.518L164.431 457.451L632.931 193.617L635.156 193.343L1184.51 125.816L1184.83 126.619L1265.7 322.926L795.301 587.827L243.719 655.627V655.618ZM171.452 457.424L251.324 651.342L793.997 584.636L1256.79 324.011L1176.91 130.093L634.244 196.799L171.452 457.424Z" fill="url(#paint11_linear_923_2115)"/>
<path d="M247.493 678.961L157.729 480.374L632.766 209.529L634.945 209.255L1197.56 137.27L1197.91 138.035L1287.32 335.847L1285.49 336.887L812.296 606.693L247.502 678.961H247.493ZM166.445 479.271L254.824 674.794L810.91 603.639L1278.62 336.96L1190.24 141.436L634.152 212.592L166.445 479.271Z" fill="url(#paint12_linear_923_2115)"/>
<path d="M251.259 702.303L152.933 502.239L632.602 225.439L1210.6 148.703L1308.92 348.767L1307.16 349.779L829.255 625.558L251.259 702.294V702.303ZM161.44 501.108L258.316 698.227L827.814 622.622L1300.44 349.898L1203.55 152.779L634.052 228.384L161.44 501.108Z" fill="url(#paint13_linear_923_2115)"/>
<path d="M255.025 725.643L254.651 724.932L148.137 524.093L149.833 523.099L632.447 241.348L1223.66 160.145L1224.03 160.856L1330.55 361.695L1328.86 362.689L846.242 644.439L255.034 725.643H255.025ZM156.425 522.962L261.818 721.677L844.728 641.613L1322.25 362.834L1216.85 164.12L633.943 244.184L156.425 522.962Z" fill="url(#paint14_linear_923_2115)"/>
<path d="M258.791 748.984L258.408 748.31L143.351 545.957L144.983 544.991L632.311 257.268L1236.71 171.605L1237.1 172.28L1352.16 374.633L1350.53 375.59L863.201 663.313L258.8 748.975L258.791 748.984ZM151.42 544.808L265.319 745.127L861.651 660.605L1344.07 375.772L1230.17 175.453L633.834 259.976L151.42 544.808Z" fill="url(#paint15_linear_923_2115)"/>
<path d="M262.557 772.319L138.555 567.806L140.123 566.867L632.156 273.172L1249.76 183.051L1250.15 183.698L1373.76 387.564L880.151 682.198L878.191 682.481L262.548 772.319H262.557ZM146.405 566.666L268.83 768.581L878.583 679.6L1365.91 388.713L1243.49 186.798L633.734 275.779L146.405 566.666Z" fill="url(#paint16_linear_923_2115)"/>
<path d="M266.313 795.661L265.912 795.041L133.768 589.67L135.272 588.758L632.019 289.091L633.925 288.809L1262.83 194.512L1263.23 195.132L1395.38 400.511L897.119 701.09L895.214 701.373L266.313 795.67V795.661ZM141.39 588.521L272.34 792.023L895.515 698.583L1387.75 401.642L1256.81 198.132L633.633 291.571L141.39 588.521Z" fill="url(#paint17_linear_923_2115)"/>
<path d="M270.07 818.992L269.659 818.399L128.972 611.506L130.412 610.631L631.873 304.991L633.724 304.709L1275.87 205.953L1276.27 206.546L1416.96 413.43L1415.52 414.314L914.06 719.954L912.209 720.236L270.061 818.992H270.07ZM136.375 610.375L275.85 815.472L912.456 717.574L1409.58 414.579L1270.1 209.482L633.496 307.38L136.375 610.375Z" fill="url(#paint18_linear_923_2115)"/>
<path d="M273.826 842.336L124.185 633.364L631.746 320.895L1288.94 217.398L1289.35 217.973L1438.58 426.371L931.019 738.83L273.826 842.327V842.336ZM131.36 632.233L279.361 838.926L929.396 736.56L1431.41 427.51L1283.41 220.818L633.387 323.184L131.36 632.233Z" fill="url(#paint19_linear_923_2115)"/>
<path d="M277.573 865.668L119.397 655.21L120.72 654.39L631.608 336.806L633.35 336.523L1302 228.859L1460.18 439.318L1458.86 440.138L947.969 757.722L946.237 758.005L277.582 865.668H277.573ZM126.336 654.089L282.871 862.368L946.319 755.534L1453.23 440.421L1296.69 232.142L633.241 338.967L126.336 654.089Z" fill="url(#paint20_linear_923_2115)"/>
<path d="M281.33 889L280.92 888.48L114.62 677.046L631.49 352.697L633.168 352.423L1315.08 240.301L1315.48 240.821L1481.78 452.254L964.91 776.604L281.33 889ZM121.322 675.952L286.39 885.827L963.269 774.534L1475.08 453.367L1310.01 243.492L633.122 354.785L121.322 675.952Z" fill="url(#paint21_linear_923_2115)"/>
<path d="M285.077 912.342L109.833 698.903L631.362 368.608L632.976 368.335L1328.14 251.754L1503.37 465.194L1502.17 465.96L981.842 795.488L980.228 795.761L285.068 912.342H285.077ZM116.298 697.817L289.91 909.279L980.219 793.518L1496.91 466.288L1323.29 254.827L632.985 370.587L116.298 697.817Z" fill="url(#paint22_linear_923_2115)"/>
<path d="M288.825 935.672L288.424 935.198L105.056 720.737L106.205 719.998L631.244 384.498L632.803 384.233L1341.21 263.203L1341.61 263.668L1524.98 478.129L1523.82 478.868L998.783 814.359L997.224 814.624L288.816 935.654L288.825 935.672ZM111.283 719.679L293.439 932.727L997.178 812.49L1518.75 479.205L1336.6 266.157L632.858 386.394L111.283 719.679Z" fill="url(#paint23_linear_923_2115)"/>
<path d="M292.563 959.006L100.269 742.575L631.125 400.401L632.621 400.145L1354.28 274.656L1354.68 275.103L1546.57 491.078L1545.47 491.789L1015.71 833.252L1014.21 833.517L294.049 958.741L292.554 959.006H292.563ZM106.259 741.545L296.967 956.179L1014.14 831.474L1540.6 492.135L1349.9 277.501L632.73 402.206L106.259 741.545Z" fill="url(#paint24_linear_923_2115)"/>
<path d="M296.311 982.339L295.919 981.911L95.4912 764.414L96.5398 763.739L631.016 416.303L632.457 416.048L1367.36 286.109L1367.75 286.529L1568.17 504.026L1032.66 852.137L1031.22 852.392L296.311 982.33V982.339ZM101.235 763.411L300.487 979.631L1031.09 850.45L1562.45 505.047L1363.19 288.826L632.594 418.008L101.235 763.411Z" fill="url(#paint25_linear_923_2115)"/>
<path d="M300.058 1005.68L299.675 1005.28L90.7227 786.268L91.7165 785.62L630.916 432.212L632.293 431.966L1380.45 297.578L1589.79 516.99L1588.8 517.637L1049.6 871.046L1048.22 871.292L301.435 1005.43L300.067 1005.68H300.058ZM96.2116 785.274L304.015 1003.08L1048.05 869.432L1584.27 517.975L1376.47 300.168L632.439 433.817L96.2116 785.274Z" fill="url(#paint26_linear_923_2115)"/>
<path d="M303.796 1029.01L303.422 1028.63L85.9443 808.096L630.806 448.095L1393.52 309.012L1393.89 309.395L1611.38 529.928L1610.44 530.548L1066.52 889.919L303.805 1029L303.796 1029.01ZM91.178 807.147L307.534 1026.54L1065.01 888.415L1606.12 530.895L1389.76 311.501L632.292 449.627L91.178 807.147Z" fill="url(#paint27_linear_923_2115)"/>
<path d="M307.534 1052.35L307.169 1051.99L81.1572 829.944L82.0417 829.352L630.687 464.009L1406.59 320.484L1406.96 320.84L1632.96 542.887L1632.08 543.48L1084.32 908.23L1083.43 908.823L1082.18 909.051L307.534 1052.35ZM86.1538 829.014L311.072 1049.99L1081.97 907.382L1627.97 543.808L1403.05 322.837L632.146 465.44L86.1538 829.014Z" fill="url(#paint28_linear_923_2115)"/>
<path d="M311.264 1075.68L310.917 1075.34L76.3799 851.771L77.2187 851.215L630.588 479.899L631.773 479.671L1419.67 331.926L1420.03 332.263L1654.56 555.833L1100.36 927.705L311.273 1075.68H311.264ZM81.1303 850.887L314.601 1073.44L1098.93 926.364L1649.8 556.726L1416.32 334.169L631.992 481.249L81.1303 850.887Z" fill="url(#paint29_linear_923_2115)"/>
<path d="M315.002 1099.01L314.665 1098.69L71.6113 873.608L72.3955 873.079L630.487 495.792L631.609 495.582L1432.75 343.387L1433.09 343.706L1676.15 568.789L1675.37 569.318L1117.28 946.606L1116.15 946.824L315.002 1099.02V1099.01ZM76.1064 872.751L318.139 1096.89L1115.91 945.329L1671.65 569.637L1429.62 345.493L631.846 497.05L76.1064 872.751Z" fill="url(#paint30_linear_923_2115)"/>
<path d="M318.731 1122.34L318.403 1122.05L66.8242 895.445L630.378 511.693L631.435 511.492L1445.83 354.848L1446.16 355.139L1697.74 581.745L1697.01 582.247L1134.18 965.498L1133.12 965.698L318.731 1122.34ZM71.0731 894.625L321.667 1120.35L1132.87 964.312L1693.49 582.557L1442.89 356.835L631.681 512.869L71.0731 894.625Z" fill="url(#paint31_linear_923_2115)"/>
<path d="M322.46 1145.68L322.15 1145.4L62.0557 917.276L62.7395 916.811L630.287 527.588L1458.92 366.293L1459.24 366.566L1719.34 594.695L1718.66 595.169L1151.11 984.392L1150.11 984.584L322.469 1145.68H322.46ZM66.0493 916.501L325.214 1143.8L1149.86 983.289L1715.34 595.479L1456.19 368.18L631.545 528.7L66.0493 916.501Z" fill="url(#paint32_linear_923_2115)"/>
<path d="M326.199 1169.01L325.898 1168.75L57.2783 939.101L57.9166 938.663L630.187 543.468L631.126 543.286L1472.02 377.742L1472.32 377.997L1740.94 607.64L1740.3 608.077L1168.03 1003.27L1167.09 1003.45L326.208 1169L326.199 1169.01ZM61.0166 938.372L328.743 1167.25L1166.82 1002.25L1737.18 608.378L1469.45 379.502L631.372 544.499L61.0166 938.372Z" fill="url(#paint33_linear_923_2115)"/>
<path d="M329.918 1192.34L329.636 1192.1L52.5 960.939L53.0927 960.529L630.086 559.362L630.961 559.189L1485.1 389.195L1485.38 389.432L1762.53 620.597L1761.93 621.008L1184.94 1022.17L1184.07 1022.35L330.794 1192.17L329.928 1192.34H329.918ZM55.9921 960.246L332.28 1190.71L1183.8 1021.24L1759.03 621.299L1482.75 390.846L631.225 560.319L55.9921 960.246Z" fill="url(#paint34_linear_923_2115)"/>
<path d="M333.657 1215.68L333.392 1215.46L47.7314 982.776L629.995 575.263L630.806 575.099L1498.18 400.656L1784.11 633.563L1783.57 633.946L1201.85 1041.08L1201.03 1041.24L333.648 1215.68H333.657ZM50.9591 982.12L335.818 1214.16L1200.77 1040.2L1780.86 634.21L1496 402.17L631.043 576.129L50.9591 982.12Z" fill="url(#paint35_linear_923_2115)"/>
<path d="M337.377 1239.01L337.131 1238.81L42.9541 1004.61L43.4465 1004.26L629.904 591.157L1511.28 412.109L1511.52 412.31L1805.7 646.52L1805.21 646.867L1218.76 1059.97L1218.02 1060.12L337.386 1239.01H337.377ZM45.9356 1003.99L339.365 1237.61L1217.77 1059.17L1802.73 647.113L1509.3 413.495L630.907 591.932L45.9356 1003.99Z" fill="url(#paint36_linear_923_2115)"/>
<path d="M341.106 1262.34L340.878 1262.16L38.1758 1026.43L38.6226 1026.12L629.803 607.041L630.487 606.904L1524.36 423.562L1524.6 423.745L1827.3 659.478L1826.84 659.797L1236.11 1078.55L1235.66 1078.87L1234.98 1079.01L341.106 1262.35V1262.34ZM40.902 1025.88L342.902 1261.06L1234.73 1078.14L1824.56 660.034L1522.55 424.839L630.724 607.761L40.902 1025.88Z" fill="url(#paint37_linear_923_2115)"/>
<path d="M344.826 1285.67L344.616 1285.52L33.4072 1048.26L33.8084 1047.97L629.721 622.931L1537.45 435.012L1537.66 435.176L1848.87 672.431L1848.47 672.723L1252.56 1097.76L344.817 1285.68L344.826 1285.67ZM35.869 1047.75L346.449 1284.52L1251.72 1097.11L1846.41 672.942L1535.83 436.17L630.56 623.578L35.869 1047.75Z" fill="url(#paint38_linear_923_2115)"/>
<path d="M348.555 1309.01L348.364 1308.87L28.6299 1070.09L28.9946 1069.83L629.63 638.823L630.186 638.704L1550.56 446.473L1550.75 446.619L1870.47 685.397L1870.11 685.652L1269.83 1116.41L1269.47 1116.66L1268.92 1116.78L348.546 1309.01H348.555ZM30.8455 1069.63L349.996 1307.98L1268.71 1116.09L1868.26 685.853L1549.11 447.503L630.396 639.397L30.8455 1069.63Z" fill="url(#paint39_linear_923_2115)"/>
<path d="M352.276 1332.35L352.102 1332.22L23.8613 1091.92L24.1805 1091.69L629.548 654.707L630.031 654.607L1563.64 457.926L1563.81 458.053L1891.88 698.227L1892.05 698.354L1891.74 698.582L1286.37 1135.56L1285.88 1135.66L352.266 1332.35H352.276ZM25.8125 1091.51L353.543 1331.43L1285.69 1135.05L1890.11 698.756L1562.39 458.838L630.241 655.218L25.8125 1091.51Z" fill="url(#paint40_linear_923_2115)"/>
<path d="M355.996 1355.67L355.841 1355.56L19.0928 1113.75L19.3663 1113.55L629.466 670.601L629.886 670.51L1576.74 469.379L1576.9 469.488L1913.65 711.303L1913.38 711.504L1303.28 1154.45L1302.86 1154.54L356.005 1355.67H355.996ZM20.7796 1113.39L357.09 1354.89L1302.68 1154.03L1911.96 711.677L1575.65 470.181L630.059 671.039L20.7796 1113.39Z" fill="url(#paint41_linear_923_2115)"/>
<path d="M359.716 1379L359.589 1378.91L14.3154 1135.57L14.5434 1135.4L629.366 686.481L629.722 686.408L1589.83 480.828L1589.95 480.919L1935.23 724.257L1935 724.421L1320.17 1173.34L1319.81 1173.41L359.707 1378.99L359.716 1379ZM15.7469 1135.27L360.637 1378.33L1319.67 1172.99L1933.81 724.576L1588.93 481.503L629.904 686.846L15.7469 1135.27Z" fill="url(#paint42_linear_923_2115)"/>
<path d="M363.435 1402.34L363.326 1402.26L9.65531 1157.48L9.5459 1157.4L9.73737 1157.27L629.301 702.377L629.593 702.314L1602.94 492.293L1603.05 492.366L1956.84 737.226L1956.64 737.363L1337.08 1192.25L1336.78 1192.32L363.727 1402.27L363.435 1402.34ZM10.713 1157.15L364.183 1401.79L1336.65 1191.96L1955.65 737.481L1602.18 492.84L629.712 702.669L10.713 1157.15Z" fill="url(#paint43_linear_923_2115)"/>
<path d="M367.156 1425.67L367.074 1425.61L4.76855 1179.23L4.91444 1179.12L629.211 718.27L629.439 718.224L1616.03 503.754L1616.11 503.809L1978.42 750.2L1978.27 750.31L1353.98 1211.16L1353.75 1211.21L367.165 1425.68L367.156 1425.67ZM5.68034 1179.03L367.73 1425.25L1353.65 1210.93L1977.51 750.392L1615.46 504.173L629.548 718.498L5.68034 1179.03Z" fill="url(#paint44_linear_923_2115)"/>
<path d="M370.867 1449L370.803 1448.97L0.0638246 1201.1L0 1201.06L0.100296 1200.99L629.129 734.162L629.293 734.125L1629.13 515.215L1629.19 515.251L2000 763.166L1999.9 763.239L1370.87 1230.06L1370.71 1230.1L371.031 1448.98L370.867 1449.02V1449ZM0.656482 1200.91L371.286 1448.7L1370.63 1229.89L1999.35 763.293L1628.72 515.507L629.375 734.308L0.656482 1200.91Z" fill="url(#paint45_linear_923_2115)"/>
</g>
<defs>
<linearGradient id="paint0_linear_923_2115" x1="317.052" y1="25.4816" x2="940.414" y2="350.12" gradientUnits="userSpaceOnUse">
<stop stop-color="#0D59C5"/>
<stop offset="1" stop-color="#33E8FF"/>
</linearGradient>
<linearGradient id="paint1_linear_923_2115" x1="316.888" y1="38.376" x2="957.407" y2="371.95" gradientUnits="userSpaceOnUse">
<stop stop-color="#0D59C5"/>
<stop offset="1" stop-color="#33E8FF"/>
</linearGradient>
<linearGradient id="paint2_linear_923_2115" x1="316.725" y1="51.2932" x2="974.382" y2="393.792" gradientUnits="userSpaceOnUse">
<stop stop-color="#0D59C5"/>
<stop offset="1" stop-color="#33E8FF"/>
</linearGradient>
<linearGradient id="paint3_linear_923_2115" x1="316.569" y1="64.1913" x2="991.364" y2="415.615" gradientUnits="userSpaceOnUse">
<stop stop-color="#0D59C5"/>
<stop offset="1" stop-color="#33E8FF"/>
</linearGradient>
<linearGradient id="paint4_linear_923_2115" x1="316.414" y1="77.0908" x2="1008.35" y2="437.44" gradientUnits="userSpaceOnUse">
<stop stop-color="#0D59C5"/>
<stop offset="1" stop-color="#33E8FF"/>
</linearGradient>
<linearGradient id="paint5_linear_923_2115" x1="316.251" y1="90.0081" x2="1025.32" y2="459.282" gradientUnits="userSpaceOnUse">
<stop stop-color="#0D59C5"/>
<stop offset="1" stop-color="#33E8FF"/>
</linearGradient>
<linearGradient id="paint6_linear_923_2115" x1="316.105" y1="102.913" x2="1042.29" y2="481.102" gradientUnits="userSpaceOnUse">
<stop stop-color="#0D59C5"/>
<stop offset="1" stop-color="#33E8FF"/>
</linearGradient>
<linearGradient id="paint7_linear_923_2115" x1="315.951" y1="115.832" x2="1059.27" y2="502.941" gradientUnits="userSpaceOnUse">
<stop stop-color="#0D59C5"/>
<stop offset="1" stop-color="#33E8FF"/>
</linearGradient>
<linearGradient id="paint8_linear_923_2115" x1="315.805" y1="128.739" x2="1076.24" y2="524.763" gradientUnits="userSpaceOnUse">
<stop stop-color="#0D59C5"/>
<stop offset="1" stop-color="#33E8FF"/>
</linearGradient>
<linearGradient id="paint9_linear_923_2115" x1="315.66" y1="141.644" x2="1093.21" y2="546.583" gradientUnits="userSpaceOnUse">
<stop stop-color="#0D59C5"/>
<stop offset="1" stop-color="#33E8FF"/>
</linearGradient>
<linearGradient id="paint10_linear_923_2115" x1="315.515" y1="154.547" x2="1110.19" y2="568.401" gradientUnits="userSpaceOnUse">
<stop stop-color="#0D59C5"/>
<stop offset="1" stop-color="#33E8FF"/>
</linearGradient>
<linearGradient id="paint11_linear_923_2115" x1="315.361" y1="167.468" x2="1127.14" y2="590.232" gradientUnits="userSpaceOnUse">
<stop stop-color="#0D59C5"/>
<stop offset="1" stop-color="#33E8FF"/>
</linearGradient>
<linearGradient id="paint12_linear_923_2115" x1="315.225" y1="180.379" x2="1144.11" y2="612.053" gradientUnits="userSpaceOnUse">
<stop stop-color="#0D59C5"/>
<stop offset="1" stop-color="#33E8FF"/>
</linearGradient>
<linearGradient id="paint13_linear_923_2115" x1="315.08" y1="193.305" x2="1161.07" y2="633.884" gradientUnits="userSpaceOnUse">
<stop stop-color="#0D59C5"/>
<stop offset="1" stop-color="#33E8FF"/>
</linearGradient>
<linearGradient id="paint14_linear_923_2115" x1="314.935" y1="206.208" x2="1178.04" y2="655.702" gradientUnits="userSpaceOnUse">
<stop stop-color="#0D59C5"/>
<stop offset="1" stop-color="#33E8FF"/>
</linearGradient>
<linearGradient id="paint15_linear_923_2115" x1="314.8" y1="219.118" x2="1195" y2="677.516" gradientUnits="userSpaceOnUse">
<stop stop-color="#0D59C5"/>
<stop offset="1" stop-color="#33E8FF"/>
</linearGradient>
<linearGradient id="paint16_linear_923_2115" x1="314.656" y1="232.046" x2="1211.96" y2="699.35" gradientUnits="userSpaceOnUse">
<stop stop-color="#0D59C5"/>
<stop offset="1" stop-color="#33E8FF"/>
</linearGradient>
<linearGradient id="paint17_linear_923_2115" x1="314.52" y1="244.956" x2="1228.92" y2="721.164" gradientUnits="userSpaceOnUse">
<stop stop-color="#0D59C5"/>
<stop offset="1" stop-color="#33E8FF"/>
</linearGradient>
<linearGradient id="paint18_linear_923_2115" x1="314.384" y1="257.864" x2="1245.89" y2="742.977" gradientUnits="userSpaceOnUse">
<stop stop-color="#0D59C5"/>
<stop offset="1" stop-color="#33E8FF"/>
</linearGradient>
<linearGradient id="paint19_linear_923_2115" x1="314.24" y1="270.793" x2="1262.85" y2="764.816" gradientUnits="userSpaceOnUse">
<stop stop-color="#0D59C5"/>
<stop offset="1" stop-color="#33E8FF"/>
</linearGradient>
<linearGradient id="paint20_linear_923_2115" x1="314.104" y1="283.702" x2="1279.8" y2="786.625" gradientUnits="userSpaceOnUse">
<stop stop-color="#0D59C5"/>
<stop offset="1" stop-color="#33E8FF"/>
</linearGradient>
<linearGradient id="paint21_linear_923_2115" x1="313.969" y1="296.611" x2="1296.77" y2="808.438" gradientUnits="userSpaceOnUse">
<stop stop-color="#0D59C5"/>
<stop offset="1" stop-color="#33E8FF"/>
</linearGradient>
<linearGradient id="paint22_linear_923_2115" x1="313.824" y1="309.538" x2="1313.72" y2="830.271" gradientUnits="userSpaceOnUse">
<stop stop-color="#0D59C5"/>
<stop offset="1" stop-color="#33E8FF"/>
</linearGradient>
<linearGradient id="paint23_linear_923_2115" x1="313.699" y1="322.45" x2="1330.68" y2="852.082" gradientUnits="userSpaceOnUse">
<stop stop-color="#0D59C5"/>
<stop offset="1" stop-color="#33E8FF"/>
</linearGradient>
<linearGradient id="paint24_linear_923_2115" x1="313.563" y1="335.361" x2="1347.65" y2="873.898" gradientUnits="userSpaceOnUse">
<stop stop-color="#0D59C5"/>
<stop offset="1" stop-color="#33E8FF"/>
</linearGradient>
<linearGradient id="paint25_linear_923_2115" x1="313.419" y1="348.288" x2="1364.6" y2="895.73" gradientUnits="userSpaceOnUse">
<stop stop-color="#0D59C5"/>
<stop offset="1" stop-color="#33E8FF"/>
</linearGradient>
<linearGradient id="paint26_linear_923_2115" x1="313.283" y1="361.196" x2="1381.57" y2="917.543" gradientUnits="userSpaceOnUse">
<stop stop-color="#0D59C5"/>
<stop offset="1" stop-color="#33E8FF"/>
</linearGradient>
<linearGradient id="paint27_linear_923_2115" x1="313.138" y1="374.122" x2="1398.52" y2="939.374" gradientUnits="userSpaceOnUse">
<stop stop-color="#0D59C5"/>
<stop offset="1" stop-color="#33E8FF"/>
</linearGradient>
<linearGradient id="paint28_linear_923_2115" x1="313.012" y1="387.04" x2="1415.48" y2="961.191" gradientUnits="userSpaceOnUse">
<stop stop-color="#0D59C5"/>
<stop offset="1" stop-color="#33E8FF"/>
</linearGradient>
<linearGradient id="paint29_linear_923_2115" x1="312.877" y1="399.948" x2="1432.44" y2="982.999" gradientUnits="userSpaceOnUse">
<stop stop-color="#0D59C5"/>
<stop offset="1" stop-color="#33E8FF"/>
</linearGradient>
<linearGradient id="paint30_linear_923_2115" x1="312.733" y1="412.874" x2="1449.39" y2="1004.83" gradientUnits="userSpaceOnUse">
<stop stop-color="#0D59C5"/>
<stop offset="1" stop-color="#33E8FF"/>
</linearGradient>
<linearGradient id="paint31_linear_923_2115" x1="312.597" y1="425.783" x2="1466.35" y2="1026.64" gradientUnits="userSpaceOnUse">
<stop stop-color="#0D59C5"/>
<stop offset="1" stop-color="#33E8FF"/>
</linearGradient>
<linearGradient id="paint32_linear_923_2115" x1="312.471" y1="438.701" x2="1483.32" y2="1048.46" gradientUnits="userSpaceOnUse">
<stop stop-color="#0D59C5"/>
<stop offset="1" stop-color="#33E8FF"/>
</linearGradient>
<linearGradient id="paint33_linear_923_2115" x1="312.327" y1="451.624" x2="1500.27" y2="1070.29" gradientUnits="userSpaceOnUse">
<stop stop-color="#0D59C5"/>
<stop offset="1" stop-color="#33E8FF"/>
</linearGradient>
<linearGradient id="paint34_linear_923_2115" x1="312.191" y1="464.535" x2="1517.24" y2="1092.11" gradientUnits="userSpaceOnUse">
<stop stop-color="#0D59C5"/>
<stop offset="1" stop-color="#33E8FF"/>
</linearGradient>
<linearGradient id="paint35_linear_923_2115" x1="312.065" y1="477.45" x2="1534.19" y2="1113.92" gradientUnits="userSpaceOnUse">
<stop stop-color="#0D59C5"/>
<stop offset="1" stop-color="#33E8FF"/>
</linearGradient>
<linearGradient id="paint36_linear_923_2115" x1="311.921" y1="490.377" x2="1551.14" y2="1135.75" gradientUnits="userSpaceOnUse">
<stop stop-color="#0D59C5"/>
<stop offset="1" stop-color="#33E8FF"/>
</linearGradient>
<linearGradient id="paint37_linear_923_2115" x1="311.784" y1="503.288" x2="1568.11" y2="1157.56" gradientUnits="userSpaceOnUse">
<stop stop-color="#0D59C5"/>
<stop offset="1" stop-color="#33E8FF"/>
</linearGradient>
<linearGradient id="paint38_linear_923_2115" x1="311.659" y1="516.2" x2="1585.07" y2="1179.37" gradientUnits="userSpaceOnUse">
<stop stop-color="#0D59C5"/>
<stop offset="1" stop-color="#33E8FF"/>
</linearGradient>
<linearGradient id="paint39_linear_923_2115" x1="311.515" y1="529.126" x2="1602.02" y2="1201.21" gradientUnits="userSpaceOnUse">
<stop stop-color="#0D59C5"/>
<stop offset="1" stop-color="#33E8FF"/>
</linearGradient>
<linearGradient id="paint40_linear_923_2115" x1="311.379" y1="542.037" x2="1618.99" y2="1223.02" gradientUnits="userSpaceOnUse">
<stop stop-color="#0D59C5"/>
<stop offset="1" stop-color="#33E8FF"/>
</linearGradient>
<linearGradient id="paint41_linear_923_2115" x1="311.243" y1="554.948" x2="1635.94" y2="1244.83" gradientUnits="userSpaceOnUse">
<stop stop-color="#0D59C5"/>
<stop offset="1" stop-color="#33E8FF"/>
</linearGradient>
<linearGradient id="paint42_linear_923_2115" x1="311.109" y1="567.876" x2="1652.9" y2="1266.66" gradientUnits="userSpaceOnUse">
<stop stop-color="#0D59C5"/>
<stop offset="1" stop-color="#33E8FF"/>
</linearGradient>
<linearGradient id="paint43_linear_923_2115" x1="310.973" y1="580.789" x2="1669.86" y2="1288.48" gradientUnits="userSpaceOnUse">
<stop stop-color="#0D59C5"/>
<stop offset="1" stop-color="#33E8FF"/>
</linearGradient>
<linearGradient id="paint44_linear_923_2115" x1="310.837" y1="593.699" x2="1686.82" y2="1310.29" gradientUnits="userSpaceOnUse">
<stop stop-color="#0D59C5"/>
<stop offset="1" stop-color="#33E8FF"/>
</linearGradient>
<linearGradient id="paint45_linear_923_2115" x1="310.693" y1="606.625" x2="1703.78" y2="1332.12" gradientUnits="userSpaceOnUse">
<stop stop-color="#0D59C5"/>
<stop offset="1" stop-color="#33E8FF"/>
</linearGradient>
<clipPath id="clip0_923_2115">
<rect width="2000" height="1449" fill="white"/>
</clipPath>
</defs>
</svg>
