<svg width="373" height="57" viewBox="0 0 373 57" fill="none" xmlns="http://www.w3.org/2000/svg">
<path d="M56.8484 17.11C58.0843 14.8693 59.8125 13.121 62.0231 11.875C64.2336 10.6191 66.7355 9.99609 69.5389 9.99609C72.9752 9.99609 75.9092 10.9004 78.3609 12.7191C80.8025 14.5377 82.4403 17.0095 83.2643 20.1444H75.5173C74.9446 18.9387 74.1207 18.0143 73.0657 17.3812C72.0106 16.7482 70.8049 16.4368 69.4585 16.4368C67.2881 16.4368 65.5298 17.1903 64.1833 18.7076C62.8369 20.2147 62.1637 22.2444 62.1637 24.7664C62.1637 27.2884 62.8369 29.3181 64.1833 30.8252C65.5298 32.3324 67.2881 33.0961 69.4585 33.0961C70.8049 33.0961 72.0106 32.7846 73.0657 32.1516C74.1207 31.5185 74.9446 30.6042 75.5173 29.3884H83.2643C82.4403 32.5233 80.8025 34.985 78.3609 36.7836C75.9092 38.5822 72.9752 39.4865 69.5389 39.4865C66.7355 39.4865 64.2235 38.8635 62.013 37.6075C59.8025 36.3616 58.0742 34.6233 56.8383 32.3927C55.6025 30.1621 54.9795 27.62 54.9795 24.7664C54.9795 21.9128 55.6025 19.3607 56.8383 17.12L56.8484 17.11Z" fill="white"/>
<path d="M93.8027 37.7381C91.5319 36.4721 89.7334 34.7138 88.397 32.4429C87.0606 30.1721 86.3975 27.63 86.3975 24.7965C86.3975 21.9631 87.0606 19.421 88.397 17.1702C89.7334 14.9195 91.5319 13.1612 93.8027 11.8951C96.0736 10.6291 98.5654 9.99609 101.288 9.99609C104.011 9.99609 106.503 10.6291 108.774 11.8951C111.045 13.1612 112.823 14.9195 114.13 17.1702C115.436 19.421 116.089 21.9631 116.089 24.7965C116.089 27.63 115.426 30.1721 114.109 32.4429C112.793 34.7138 111.005 36.4721 108.754 37.7381C106.503 39.0042 104.011 39.6372 101.288 39.6372C98.5654 39.6372 96.0736 39.0042 93.8027 37.7381ZM106.825 30.8956C108.211 29.3583 108.905 27.3286 108.905 24.7965C108.905 22.2645 108.211 20.2047 106.825 18.6774C105.438 17.1501 103.589 16.3865 101.278 16.3865C98.9673 16.3865 97.0783 17.1401 95.6917 18.6573C94.3051 20.1645 93.6118 22.2143 93.6118 24.7965C93.6118 27.3788 94.3051 29.3984 95.6917 30.9157C97.0783 32.4429 98.9372 33.2066 101.278 33.2066C103.62 33.2066 105.438 32.4329 106.825 30.8956Z" fill="white"/>
<path d="M152.774 10.4141V39.3518H145.721V21.9992L139.25 39.3518H133.563L127.052 21.959V39.3518H119.998V10.4141H128.328L136.446 30.4494L144.485 10.4141H152.774Z" fill="white"/>
<path d="M190.614 10.4141V39.3518H183.56V21.9992L177.09 39.3518H171.403L164.891 21.959V39.3518H157.838V10.4141H166.168L174.286 30.4494L182.335 10.4141H190.624H190.614Z" fill="white"/>
<path d="M213.704 34.2375H202.902L201.174 39.3518H193.799L204.259 10.4141H212.418L222.887 39.3518H215.422L213.694 34.2375H213.704ZM211.885 28.8016L208.298 18.2112L204.751 28.8016H211.885Z" fill="white"/>
<path d="M251.957 39.3518H244.903L233.117 21.4968V39.3518H226.063V10.4141H233.117L244.903 28.3494V10.4141H251.957V39.3518Z" fill="white"/>
<path d="M275.911 12.2227C278.192 13.4284 279.96 15.1265 281.206 17.3169C282.452 19.5073 283.085 22.0193 283.085 24.8829C283.085 27.7466 282.462 30.2284 281.206 32.4289C279.95 34.6293 278.182 36.3274 275.891 37.5432C273.6 38.7489 270.937 39.3619 267.913 39.3619H257.071V10.4141H267.913C270.968 10.4141 273.63 11.0169 275.911 12.2227ZM273.69 31.0624C275.178 29.6054 275.921 27.5456 275.921 24.8829C275.921 22.2203 275.178 20.1404 273.69 18.6533C272.203 17.1662 270.134 16.4327 267.461 16.4327H264.125V33.2528H267.461C270.123 33.2528 272.203 32.5293 273.69 31.0724V31.0624Z" fill="white"/>
<path d="M308.607 27.003C309.622 28.3092 310.134 29.7963 310.134 31.4743C310.134 33.8958 309.29 35.815 307.602 37.2217C305.914 38.6384 303.553 39.3418 300.528 39.3418H287.044V10.4141H300.066C303.01 10.4141 305.311 11.0873 306.969 12.4337C308.627 13.7801 309.461 15.6088 309.461 17.9198C309.461 19.6279 309.009 21.0346 308.124 22.17C307.23 23.2954 306.044 24.0791 304.557 24.5212C306.235 24.8829 307.582 25.7069 308.597 27.0131L308.607 27.003ZM294.088 22.1198H298.699C299.855 22.1198 300.739 21.8686 301.362 21.3561C301.985 20.8437 302.287 20.1002 302.287 19.1054C302.287 18.1107 301.975 17.3571 301.362 16.8346C300.749 16.3121 299.855 16.0509 298.699 16.0509H294.088V22.1097V22.1198ZM302.025 32.8609C302.668 32.3284 302.99 31.5446 302.99 30.5298C302.99 29.515 302.648 28.7212 301.975 28.1384C301.302 27.5657 300.377 27.2743 299.192 27.2743H294.077V33.6647H299.272C300.448 33.6647 301.362 33.3934 302.015 32.8609H302.025Z" fill="white"/>
<path d="M364.342 39.3518L358.444 30.4896L353.249 39.3518H345.251L354.525 24.6317L345.04 10.4141H353.249L359.067 19.1557L364.181 10.4141H372.179L362.986 25.0035L372.551 39.3518H364.342Z" fill="white"/>
<path d="M331.476 38.3931C324.323 38.3931 318.525 32.6162 318.525 25.4894C318.525 18.3626 324.323 12.5857 331.476 12.5857C335.083 12.5857 338.344 14.056 340.693 16.4281C337.988 12.7458 333.618 10.3516 328.686 10.3516C320.47 10.3516 313.81 16.9863 313.81 25.1721C313.81 33.3579 320.47 39.9927 328.684 39.9927C332.39 39.9927 335.778 38.6384 338.384 36.4028C336.384 37.6631 334.016 38.3946 331.476 38.3946" fill="white"/>
<path d="M335.927 14.6602C339.041 16.4771 341.134 19.8437 341.134 23.6979C341.134 29.4792 336.43 34.1648 330.629 34.1663C325.231 34.1663 320.786 30.1094 320.193 24.8891C320.183 25.0948 320.176 25.3004 320.176 25.5075C320.176 31.9116 325.387 37.1025 331.813 37.1025C338.239 37.1025 343.45 31.9102 343.45 25.5075C343.45 20.5472 340.323 16.317 335.927 14.6602Z" fill="white"/>
<path d="M330.318 15.4609C326.413 15.4609 323.116 18.049 322.056 21.5977C323.239 18.9656 325.891 17.1325 328.974 17.1325C333.161 17.1325 336.554 20.5137 336.554 24.6852C336.554 28.8567 333.161 32.238 328.974 32.238C328.29 32.238 327.627 32.1454 326.996 31.9765C328.017 32.4025 329.141 32.6375 330.318 32.639C335.08 32.639 338.938 28.7921 338.938 24.0492C338.938 19.3049 335.079 15.4609 330.318 15.4609Z" fill="white"/>
<path d="M0 10.7112L11.6748 22.8168V27.8386L0 40.0267V34.5008L8.85235 25.3277L0 16.2279V10.7112Z" fill="url(#paint0_linear_710_3351)"/>
<path d="M35.1073 41.4477C26.2549 41.4661 19.0429 34.309 19.0246 25.4567C19.0063 16.6043 26.1633 9.39229 35.0156 9.37397C39.3227 9.35564 43.4465 11.0876 46.4797 14.1484C40.4957 5.91916 28.9766 4.1047 20.7382 10.0888C12.4999 16.0728 10.6946 27.5919 16.6786 35.8302C22.6627 44.0595 34.1817 45.8739 42.4201 39.8899C42.8233 39.5966 43.2265 39.2759 43.5931 38.9643C41.073 40.6046 38.113 41.4844 35.1073 41.4477Z" fill="url(#paint1_linear_710_3351)"/>
<path d="M40.5688 11.9397C46.7637 15.5594 48.8622 23.5229 45.2608 29.7177C41.641 35.9125 33.6776 38.0111 27.4828 34.4097C23.9272 32.3478 21.572 28.7188 21.1138 24.6226V25.374C21.1138 33.3558 27.5744 39.8072 35.547 39.8072C43.5196 39.8072 49.9802 33.3466 49.9802 25.374C49.8977 19.3991 46.168 14.0566 40.5688 11.9397Z" fill="url(#paint2_linear_710_3351)"/>
<path d="M33.6496 12.9565C28.9027 12.9382 24.7423 16.0723 23.4135 20.6176C25.5671 15.889 31.1479 13.8088 35.8765 15.9623C40.6051 18.1158 42.6853 23.6967 40.5317 28.4252C39.0105 31.7884 35.6474 33.9236 31.9726 33.9236C31.1479 33.9053 30.3231 33.8045 29.5259 33.612C30.8363 34.171 32.2384 34.4551 33.6771 34.4368C39.6062 34.4001 44.3898 29.5707 44.3531 23.6417C44.2981 17.7309 39.5329 12.9748 33.6496 12.9565Z" fill="url(#paint3_linear_710_3351)"/>
<path d="M329.604 46.5777C329.604 43.8057 331.851 41.5586 334.623 41.5586H367.639C370.411 41.5586 372.658 43.8057 372.658 46.5777V51.9828C372.658 54.7547 370.411 57.0018 367.639 57.0018H334.623C331.851 57.0018 329.604 54.7547 329.604 51.9828V46.5777Z" fill="url(#paint4_linear_710_3351)"/>
<path d="M343.568 47.6329C343.568 48.1788 343.442 48.68 343.192 49.1364C342.941 49.5839 342.556 49.9464 342.037 50.2238C341.518 50.5012 340.874 50.6399 340.104 50.6399H338.681V54.0228H336.386V44.5991H340.104C340.856 44.5991 341.491 44.7289 342.01 44.9884C342.53 45.2479 342.919 45.6059 343.178 46.0623C343.438 46.5187 343.568 47.0423 343.568 47.6329ZM339.93 48.8143C340.368 48.8143 340.695 48.7113 340.91 48.5055C341.124 48.2997 341.232 48.0088 341.232 47.6329C341.232 47.2571 341.124 46.9662 340.91 46.7604C340.695 46.5545 340.368 46.4516 339.93 46.4516H338.681V48.8143H339.93Z" fill="#303446"/>
<path d="M351.18 54.0228L349.22 50.4654H348.669V54.0228H346.374V44.5991H350.226C350.969 44.5991 351.6 44.7289 352.119 44.9884C352.647 45.2479 353.041 45.6059 353.301 46.0623C353.56 46.5098 353.69 47.011 353.69 47.5658C353.69 48.1923 353.511 48.7516 353.153 49.2438C352.804 49.736 352.285 50.0851 351.596 50.2909L353.77 54.0228H351.18ZM348.669 48.8411H350.092C350.513 48.8411 350.826 48.7382 351.032 48.5324C351.247 48.3265 351.354 48.0357 351.354 47.6598C351.354 47.3018 351.247 47.0199 351.032 46.8141C350.826 46.6082 350.513 46.5053 350.092 46.5053H348.669V48.8411Z" fill="#303446"/>
<path d="M361.199 54.1168C360.313 54.1168 359.498 53.9109 358.755 53.4993C358.022 53.0876 357.435 52.5148 356.997 51.781C356.567 51.0382 356.352 50.2059 356.352 49.2841C356.352 48.3623 356.567 47.5345 356.997 46.8006C357.435 46.0668 358.022 45.494 358.755 45.0824C359.498 44.6707 360.313 44.4648 361.199 44.4648C362.085 44.4648 362.894 44.6707 363.628 45.0824C364.371 45.494 364.953 46.0668 365.373 46.8006C365.803 47.5345 366.018 48.3623 366.018 49.2841C366.018 50.2059 365.803 51.0382 365.373 51.781C364.944 52.5148 364.362 53.0876 363.628 53.4993C362.894 53.9109 362.085 54.1168 361.199 54.1168ZM361.199 52.0226C361.95 52.0226 362.55 51.772 362.997 51.2709C363.454 50.7697 363.682 50.1074 363.682 49.2841C363.682 48.4518 363.454 47.7895 362.997 47.2973C362.55 46.7962 361.95 46.5456 361.199 46.5456C360.438 46.5456 359.829 46.7917 359.373 47.2839C358.925 47.7761 358.702 48.4429 358.702 49.2841C358.702 50.1164 358.925 50.7831 359.373 51.2843C359.829 51.7765 360.438 52.0226 361.199 52.0226Z" fill="#303446"/>
<defs>
<linearGradient id="paint0_linear_710_3351" x1="0" y1="24.9893" x2="49.9802" y2="24.9893" gradientUnits="userSpaceOnUse">
<stop stop-color="#00DBFF"/>
<stop offset="1" stop-color="#00FF75"/>
</linearGradient>
<linearGradient id="paint1_linear_710_3351" x1="0" y1="24.9893" x2="49.9802" y2="24.9893" gradientUnits="userSpaceOnUse">
<stop stop-color="#00DBFF"/>
<stop offset="1" stop-color="#00FF75"/>
</linearGradient>
<linearGradient id="paint2_linear_710_3351" x1="0" y1="24.9893" x2="49.9802" y2="24.9893" gradientUnits="userSpaceOnUse">
<stop stop-color="#00DBFF"/>
<stop offset="1" stop-color="#00FF75"/>
</linearGradient>
<linearGradient id="paint3_linear_710_3351" x1="0" y1="24.9893" x2="49.9802" y2="24.9893" gradientUnits="userSpaceOnUse">
<stop stop-color="#00DBFF"/>
<stop offset="1" stop-color="#00FF75"/>
</linearGradient>
<linearGradient id="paint4_linear_710_3351" x1="329.604" y1="49.2802" x2="372.658" y2="49.2802" gradientUnits="userSpaceOnUse">
<stop stop-color="#00DBFF"/>
<stop offset="1" stop-color="#00FF75"/>
</linearGradient>
</defs>
</svg>
