<svg width="373" height="57" viewBox="0 0 373 57" fill="none" xmlns="http://www.w3.org/2000/svg">
<path d="M56.8469 17.1102C58.0828 14.8694 59.8111 13.1211 62.0216 11.8751C64.2321 10.6191 66.734 9.99609 69.5374 9.99609C72.9738 9.99609 75.9078 10.9004 78.3594 12.7191C80.8011 14.5379 82.4389 17.0097 83.2628 20.1447H75.5159C74.9432 18.9389 74.1192 18.0145 73.0642 17.3815C72.0092 16.7484 70.8034 16.437 69.457 16.437C67.2867 16.437 65.5283 17.1906 64.1819 18.7078C62.8355 20.2151 62.1623 22.2448 62.1623 24.7669C62.1623 27.289 62.8355 29.3187 64.1819 30.8259C65.5283 32.3331 67.2867 33.0968 69.457 33.0968C70.8034 33.0968 72.0092 32.7853 73.0642 32.1523C74.1192 31.5192 74.9432 30.6048 75.5159 29.389H83.2628C82.4389 32.524 80.8011 34.9858 78.3594 36.7845C75.9078 38.5831 72.9738 39.4874 69.5374 39.4874C66.734 39.4874 64.2221 38.8644 62.0115 37.6084C59.801 36.3624 58.0728 34.6241 56.8369 32.3934C55.601 30.1627 54.978 27.6205 54.978 24.7669C54.978 21.9132 55.601 19.361 56.8369 17.1202L56.8469 17.1102Z" fill="#303446"/>
<path d="M93.8032 37.739C91.5324 36.473 89.7338 34.7145 88.3975 32.4437C87.0611 30.1728 86.3979 27.6306 86.3979 24.797C86.3979 21.9634 87.0611 19.4213 88.3975 17.1705C89.7338 14.9197 91.5324 13.1613 93.8032 11.8952C96.0741 10.6291 98.5659 9.99609 101.289 9.99609C104.012 9.99609 106.504 10.6291 108.775 11.8952C111.045 13.1613 112.824 14.9197 114.13 17.1705C115.436 19.4213 116.089 21.9634 116.089 24.797C116.089 27.6306 115.426 30.1728 114.11 32.4437C112.794 34.7145 111.005 36.473 108.754 37.739C106.504 39.0051 104.012 39.6381 101.289 39.6381C98.5659 39.6381 96.0741 39.0051 93.8032 37.739ZM106.825 30.8962C108.212 29.3589 108.905 27.3291 108.905 24.797C108.905 22.2649 108.212 20.205 106.825 18.6777C105.439 17.1504 103.59 16.3867 101.279 16.3867C98.9678 16.3867 97.0788 17.1403 95.6922 18.6576C94.3056 20.1648 93.6123 22.2146 93.6123 24.797C93.6123 27.3794 94.3056 29.3991 95.6922 30.9163C97.0788 32.4437 98.9377 33.2073 101.279 33.2073C103.62 33.2073 105.439 32.4336 106.825 30.8962Z" fill="#303446"/>
<path d="M152.774 10.4102V39.3488H145.721V21.9957L139.25 39.3488H133.563L127.052 21.9555V39.3488H119.998V10.4102H128.328L136.446 30.4462L144.485 10.4102H152.774Z" fill="#303446"/>
<path d="M190.615 10.4102V39.3488H183.561V21.9957L177.091 39.3488H171.403L164.892 21.9555V39.3488H157.839V10.4102H166.169L174.287 30.4462L182.336 10.4102H190.625H190.615Z" fill="#303446"/>
<path d="M213.704 34.2343H202.903L201.174 39.3488H193.799L204.259 10.4102H212.418L222.888 39.3488H215.422L213.694 34.2343H213.704ZM211.885 28.7983L208.298 18.2075L204.752 28.7983H211.885Z" fill="#303446"/>
<path d="M251.957 39.3488H244.903L233.117 21.4933V39.3488H226.063V10.4102H233.117L244.903 28.3461V10.4102H251.957V39.3488Z" fill="#303446"/>
<path d="M275.911 12.2188C278.192 13.4246 279.96 15.1227 281.206 17.3132C282.452 19.5037 283.085 22.0158 283.085 24.8795C283.085 27.7432 282.462 30.2251 281.206 32.4256C279.95 34.6262 278.182 36.3243 275.891 37.5402C273.6 38.7459 270.937 39.3589 267.913 39.3589H257.071V10.4102H267.913C270.968 10.4102 273.63 11.013 275.911 12.2188ZM273.69 31.0591C275.178 29.6021 275.921 27.5422 275.921 24.8795C275.921 22.2167 275.178 20.1368 273.69 18.6496C272.203 17.1625 270.134 16.429 267.461 16.429H264.125V33.2496H267.461C270.123 33.2496 272.203 32.5261 273.69 31.0691V31.0591Z" fill="#303446"/>
<path d="M308.607 26.9996C309.622 28.3059 310.134 29.793 310.134 31.4711C310.134 33.8927 309.29 35.8119 307.602 37.2186C305.914 38.6354 303.553 39.3388 300.528 39.3388H287.044V10.4102H300.066C303.01 10.4102 305.311 11.0834 306.969 12.4298C308.627 13.7763 309.461 15.605 309.461 17.9161C309.461 19.6243 309.009 21.031 308.124 22.1665C307.23 23.2919 306.044 24.0756 304.557 24.5178C306.235 24.8795 307.582 25.7034 308.597 27.0097L308.607 26.9996ZM294.088 22.1162H298.699C299.855 22.1162 300.739 21.865 301.362 21.3526C301.985 20.8401 302.287 20.0966 302.287 19.1018C302.287 18.107 301.975 17.3534 301.362 16.8309C300.749 16.3084 299.855 16.0472 298.699 16.0472H294.088V22.1062V22.1162ZM302.025 32.8577C302.668 32.3252 302.99 31.5414 302.99 30.5266C302.99 29.5117 302.648 28.7179 301.975 28.1351C301.302 27.5623 300.377 27.271 299.192 27.271H294.077V33.6616H299.272C300.448 33.6616 301.362 33.3903 302.015 32.8577H302.025Z" fill="#303446"/>
<path d="M364.342 39.3488L358.444 30.4864L353.25 39.3488H345.252L354.526 24.6283L345.041 10.4102H353.25L359.067 19.152L364.182 10.4102H372.18L362.986 25.0001L372.552 39.3488H364.342Z" fill="#303446"/>
<path d="M331.476 38.394C324.323 38.394 318.525 32.6169 318.525 25.4899C318.525 18.3628 324.323 12.5857 331.476 12.5857C335.083 12.5857 338.344 14.0561 340.693 16.4283C337.988 12.7458 333.618 10.3516 328.686 10.3516C320.47 10.3516 313.81 16.9865 313.81 25.1726C313.81 33.3587 320.47 39.9936 328.684 39.9936C332.39 39.9936 335.778 38.6393 338.384 36.4037C336.384 37.664 334.016 38.3955 331.476 38.3955" fill="#303446"/>
<path d="M335.928 14.6602C339.042 16.4772 341.135 19.8438 341.135 23.6982C341.135 29.4797 336.431 34.1654 330.63 34.1669C325.232 34.1669 320.787 30.1099 320.194 24.8894C320.184 25.0951 320.177 25.3007 320.177 25.5078C320.177 31.9122 325.388 37.1032 331.814 37.1032C338.24 37.1032 343.451 31.9107 343.451 25.5078C343.451 20.5474 340.324 16.3171 335.928 14.6602Z" fill="#303446"/>
<path d="M330.318 15.4609C326.413 15.4609 323.115 18.0491 322.055 21.5979C323.239 18.9657 325.891 17.1325 328.973 17.1325C333.16 17.1325 336.554 20.5139 336.554 24.6855C336.554 28.8571 333.16 32.2385 328.973 32.2385C328.289 32.2385 327.626 32.146 326.995 31.977C328.017 32.403 329.14 32.638 330.318 32.6395C335.08 32.6395 338.937 28.7925 338.937 24.0495C338.937 19.305 335.078 15.4609 330.318 15.4609Z" fill="#303446"/>
<path d="M0 10.7112L11.6748 22.8168V27.8386L0 40.0267V34.5008L8.85235 25.3277L0 16.2279V10.7112Z" fill="#303446"/>
<path d="M35.1073 41.4477C26.2549 41.4661 19.0429 34.309 19.0246 25.4567C19.0063 16.6043 26.1633 9.39229 35.0156 9.37397C39.3227 9.35564 43.4465 11.0876 46.4797 14.1484C40.4957 5.91916 28.9766 4.1047 20.7383 10.0888C12.4999 16.0728 10.6946 27.5919 16.6786 35.8302C22.6627 44.0595 34.1817 45.8739 42.4201 39.8899C42.8233 39.5966 43.2265 39.2759 43.5931 38.9643C41.073 40.6047 38.1131 41.4844 35.1073 41.4477Z" fill="#303446"/>
<path d="M40.5689 11.9397C46.7637 15.5594 48.8622 23.5229 45.2608 29.7177C41.641 35.9125 33.6776 38.0111 27.4828 34.4097C23.9272 32.3478 21.572 28.7189 21.1138 24.6226V25.374C21.1138 33.3558 27.5744 39.8072 35.547 39.8072C43.5196 39.8072 49.9802 33.3466 49.9802 25.374C49.8977 19.3991 46.168 14.0566 40.5689 11.9397Z" fill="#303446"/>
<path d="M33.6496 12.9565C28.9027 12.9382 24.7423 16.0723 23.4135 20.6176C25.5671 15.889 31.1479 13.8088 35.8765 15.9623C40.6051 18.1158 42.6853 23.6967 40.5317 28.4252C39.0105 31.7884 35.6474 33.9236 31.9726 33.9236C31.1479 33.9053 30.3231 33.8045 29.5259 33.612C30.8363 34.171 32.2384 34.4551 33.6771 34.4368C39.6062 34.4001 44.3898 29.5707 44.3531 23.6417C44.2981 17.7309 39.5329 12.9749 33.6496 12.9565Z" fill="#303446"/>
<path d="M367.681 41.5586C370.452 41.5586 372.7 43.8053 372.7 46.5771V51.9834C372.7 54.7552 370.452 57.002 367.681 57.002H334.665C331.893 57.002 329.646 54.7552 329.646 51.9834V46.5771C329.646 43.8053 331.893 41.5586 334.665 41.5586H367.681ZM361.197 44.3662C360.311 44.3662 359.497 44.5718 358.754 44.9834C358.02 45.3951 357.435 45.9684 356.996 46.7021C356.567 47.436 356.352 48.2638 356.352 49.1855C356.352 50.1073 356.567 50.9399 356.996 51.6826C357.435 52.4162 358.02 52.9888 358.754 53.4004C359.497 53.812 360.311 54.0185 361.197 54.0186C362.083 54.0186 362.893 53.812 363.627 53.4004C364.361 52.9888 364.943 52.4163 365.372 51.6826C365.802 50.9399 366.017 50.1073 366.017 49.1855C366.017 48.2638 365.802 47.436 365.372 46.7021C364.951 45.9683 364.37 45.3951 363.627 44.9834C362.893 44.5718 362.083 44.3662 361.197 44.3662ZM336.385 44.5V53.9238H338.681V50.541H340.104C340.873 50.541 341.517 50.4024 342.036 50.125C342.555 49.8477 342.94 49.4854 343.19 49.0381C343.441 48.5817 343.566 48.0801 343.566 47.5342C343.566 46.9437 343.437 46.4202 343.178 45.9639C342.918 45.5075 342.529 45.1492 342.01 44.8896C341.491 44.6301 340.855 44.5 340.104 44.5H336.385ZM346.373 44.5V53.9238H348.668V50.3662H349.219L351.179 53.9238H353.77L351.595 50.1924C352.284 49.9866 352.802 49.6375 353.151 49.1455C353.509 48.6533 353.688 48.0933 353.688 47.4668C353.688 46.9122 353.559 46.4112 353.3 45.9639C353.04 45.5075 352.646 45.1492 352.118 44.8896C351.599 44.6301 350.968 44.5 350.226 44.5H346.373ZM361.197 46.4463C361.949 46.4463 362.549 46.6972 362.996 47.1982C363.453 47.6905 363.681 48.3532 363.681 49.1855C363.681 50.0088 363.452 50.6707 362.996 51.1719C362.549 51.6731 361.949 51.9238 361.197 51.9238C360.437 51.9238 359.828 51.6776 359.372 51.1855C358.925 50.6844 358.7 50.0178 358.7 49.1855C358.7 48.3443 358.925 47.6768 359.372 47.1846C359.828 46.6926 360.437 46.4463 361.197 46.4463ZM350.091 46.4062C350.511 46.4062 350.825 46.509 351.031 46.7148C351.246 46.9206 351.352 47.2028 351.353 47.5605C351.353 47.9363 351.246 48.2278 351.031 48.4336C350.825 48.6394 350.511 48.7422 350.091 48.7422H348.668V46.4062H350.091ZM339.929 46.3525C340.367 46.3525 340.693 46.4556 340.908 46.6611C341.123 46.867 341.23 47.1583 341.23 47.5342C341.23 47.91 341.123 48.2004 340.908 48.4062C340.693 48.6121 340.367 48.7158 339.929 48.7158H338.681V46.3525H339.929Z" fill="#303446"/>
</svg>
