<svg width="250" height="250" viewBox="0 0 250 250" fill="none" xmlns="http://www.w3.org/2000/svg">
<path d="M0 53.58L58.3973 114.132V139.251L0 200.215V172.575L44.2793 126.691L0 81.1744V53.58Z" fill="white"/>
<path d="M175.606 207.323C131.327 207.415 95.2523 171.616 95.1607 127.336C95.069 83.0571 130.868 46.9827 175.148 46.891C196.691 46.7993 217.318 55.4627 232.491 70.7725C202.559 29.6101 144.94 20.5343 103.732 50.4664C62.5242 80.3985 53.4941 138.017 83.4262 179.225C113.358 220.387 170.976 229.463 212.185 199.531C214.201 198.064 216.218 196.46 218.052 194.901C205.446 203.106 190.641 207.507 175.606 207.323Z" fill="white"/>
<path d="M202.925 59.7247C233.911 77.8307 244.408 117.664 226.394 148.65C208.288 179.636 168.455 190.133 137.468 172.119C119.683 161.806 107.903 143.654 105.611 123.164V126.923C105.611 166.848 137.927 199.118 177.806 199.118C217.684 199.118 250 166.802 250 126.923C249.587 97.0367 230.932 70.3133 202.925 59.7247Z" fill="white"/>
<path d="M168.315 64.8109C144.571 64.7192 123.761 80.3958 117.114 103.131C127.886 79.479 155.801 69.0738 179.453 79.8457C203.106 90.6176 213.511 118.533 202.739 142.185C195.13 159.008 178.307 169.688 159.927 169.688C155.801 169.596 151.676 169.092 147.688 168.129C154.243 170.925 161.256 172.346 168.452 172.255C198.109 172.071 222.037 147.915 221.853 118.258C221.578 88.6924 197.743 64.9026 168.315 64.8109Z" fill="white"/>
</svg>
