<svg width="752" height="115" viewBox="0 0 752 115" fill="none" xmlns="http://www.w3.org/2000/svg">
<path d="M114.691 34.5206C117.185 29.9999 120.672 26.4726 125.132 23.9588C129.591 21.4248 134.639 20.168 140.295 20.168C147.228 20.168 153.148 21.9925 158.094 25.6617C163.02 29.3309 166.324 34.3179 167.987 40.6428H152.357C151.201 38.2101 149.539 36.3451 147.411 35.0679C145.282 33.7908 142.849 33.1624 140.133 33.1624C135.754 33.1624 132.207 34.6828 129.49 37.7438C126.774 40.7847 125.415 44.8796 125.415 49.9679C125.415 55.0562 126.774 59.1511 129.49 62.192C132.207 65.2328 135.754 66.7734 140.133 66.7734C142.849 66.7734 145.282 66.145 147.411 64.8679C149.539 63.5907 151.201 61.746 152.357 59.293H167.987C166.324 65.6179 163.02 70.5846 158.094 74.2133C153.148 77.842 147.228 79.6665 140.295 79.6665C134.639 79.6665 129.571 78.4096 125.111 75.8756C120.651 73.3619 117.165 69.8548 114.671 65.3544C112.178 60.854 110.921 55.7252 110.921 49.9679C110.921 44.2106 112.178 39.0615 114.671 34.5409L114.691 34.5206Z" fill="white"/>
<path d="M189.252 76.1391C184.671 73.5849 181.042 70.0372 178.346 65.4558C175.649 60.8743 174.312 55.7454 174.312 50.0287C174.312 44.312 175.649 39.1832 178.346 34.6422C181.042 30.1013 184.671 26.5537 189.252 23.9994C193.834 21.4451 198.861 20.168 204.355 20.168C209.848 20.168 214.876 21.4451 219.457 23.9994C224.039 26.5537 227.627 30.1013 230.262 34.6422C232.898 39.1832 234.215 44.312 234.215 50.0287C234.215 55.7454 232.877 60.8743 230.222 65.4558C227.566 70.0372 223.958 73.5849 219.417 76.1391C214.876 78.6934 209.848 79.9706 204.355 79.9706C198.861 79.9706 193.834 78.6934 189.252 76.1391ZM215.525 62.3339C218.322 59.2322 219.721 55.1373 219.721 50.0287C219.721 44.9202 218.322 40.7644 215.525 37.683C212.727 34.6017 208.997 33.061 204.334 33.061C199.672 33.061 195.861 34.5814 193.063 37.6425C190.266 40.6833 188.867 44.8188 188.867 50.0287C188.867 55.2386 190.266 59.3133 193.063 62.3744C195.861 65.4558 199.611 66.9964 204.334 66.9964C209.058 66.9964 212.727 65.4355 215.525 62.3339Z" fill="white"/>
<path d="M308.228 21.0039V79.3874H293.998V44.3776L280.942 79.3874H269.468L256.332 44.2965V79.3874H242.101V21.0039H258.907L275.286 61.4264L291.504 21.0039H308.228Z" fill="white"/>
<path d="M384.574 21.0039V79.3874H370.343V44.3776L357.288 79.3874H345.814L332.678 44.2965V79.3874H318.447V21.0039H335.252L351.632 61.4264L367.87 21.0039H384.594H384.574Z" fill="white"/>
<path d="M431.158 69.069H409.366L405.879 79.3874H390.999L412.102 21.0039H428.563L449.687 79.3874H434.624L431.138 69.069H431.158ZM427.489 58.1018L420.252 36.735L413.096 58.1018H427.489Z" fill="white"/>
<path d="M508.334 79.3874H494.103L470.324 43.364V79.3874H456.093V21.0039H470.324L494.103 57.1895V21.0039H508.334V79.3874Z" fill="white"/>
<path d="M556.663 24.6529C561.265 27.0855 564.833 30.5115 567.346 34.9308C569.86 39.3501 571.137 44.4181 571.137 50.1957C571.137 55.9732 569.88 60.9804 567.346 65.42C564.812 69.8596 561.244 73.2856 556.622 75.7385C552 78.1711 546.628 79.4077 540.526 79.4077H518.653V21.0039H540.526C546.689 21.0039 552.061 22.2202 556.663 24.6529ZM552.183 62.663C555.183 59.7235 556.683 55.5678 556.683 50.1957C556.683 44.8236 555.183 40.6273 552.183 37.627C549.183 34.6267 545.007 33.1469 539.614 33.1469H532.884V67.0823H539.614C544.986 67.0823 549.183 65.6227 552.183 62.6833V62.663Z" fill="white"/>
<path d="M622.628 54.4731C624.675 57.1085 625.709 60.1087 625.709 63.4942C625.709 68.3797 624.006 72.2517 620.601 75.0898C617.195 77.9481 612.431 79.3672 606.329 79.3672H579.124V21.0039H605.397C611.336 21.0039 615.979 22.3621 619.323 25.0786C622.668 27.795 624.351 31.4846 624.351 36.1471C624.351 39.5934 623.439 42.4315 621.655 44.7222C619.851 46.9927 617.458 48.5739 614.458 49.4659C617.844 50.1957 620.56 51.858 622.608 54.4934L622.628 54.4731ZM593.335 44.6209H602.64C604.971 44.6209 606.755 44.1141 608.012 43.0802C609.269 42.0463 609.877 40.5462 609.877 38.5392C609.877 36.5323 609.248 35.0119 608.012 33.9578C606.775 32.9036 604.971 32.3765 602.64 32.3765H593.335V44.6006V44.6209ZM609.35 66.2917C610.647 65.2173 611.296 63.6361 611.296 61.5886C611.296 59.5411 610.607 57.9396 609.248 56.7638C607.89 55.6083 606.025 55.0204 603.633 55.0204H593.314V67.9135H603.795C606.167 67.9135 608.012 67.3661 609.329 66.2917H609.35Z" fill="white"/>
<path d="M735.077 79.3874L723.178 61.5075L712.697 79.3874H696.56L715.272 49.6889L696.135 21.0039H712.697L724.435 38.6406L734.753 21.0039H750.89L732.341 50.4389L751.64 79.3874H735.077Z" fill="white"/>
<path d="M668.769 77.4582C654.338 77.4582 642.64 65.8029 642.64 51.4242C642.64 37.0455 654.338 25.3902 668.769 25.3902C676.046 25.3902 682.625 28.3567 687.363 33.1426C681.906 25.7133 673.09 20.8828 663.138 20.8828C646.563 20.8828 633.125 34.2688 633.125 50.7841C633.125 67.2995 646.563 80.6854 663.135 80.6854C670.613 80.6854 677.447 77.9531 682.706 73.4427C678.67 75.9854 673.893 77.4612 668.769 77.4612" fill="white"/>
<path d="M677.751 29.5742C684.032 33.24 688.256 40.0323 688.256 47.8084C688.256 59.4725 678.765 68.926 667.061 68.9289C656.17 68.9289 647.203 60.7439 646.007 50.2117C645.986 50.6266 645.971 51.0415 645.971 51.4594C645.971 64.38 656.485 74.8529 669.45 74.8529C682.414 74.8529 692.928 64.3771 692.928 51.4594C692.928 41.4518 686.62 32.917 677.751 29.5742Z" fill="white"/>
<path d="M666.431 31.1953C658.553 31.1953 651.899 36.4169 649.761 43.5766C652.149 38.2661 657.5 34.5677 663.719 34.5677C672.166 34.5677 679.012 41.3896 679.012 49.8058C679.012 58.2221 672.166 65.0439 663.719 65.0439C662.339 65.0439 661 64.8572 659.727 64.5164C661.788 65.3758 664.055 65.85 666.431 65.853C676.038 65.853 683.822 58.0917 683.822 48.5227C683.822 38.9507 676.035 31.1953 666.431 31.1953Z" fill="white"/>
<path d="M0 21.6125L23.5545 46.036V56.1678L0 80.7577V69.609L17.86 51.1019L0 32.7426V21.6125Z" fill="white"/>
<path d="M70.8306 83.6247C52.9705 83.6617 38.42 69.2221 38.383 51.362C38.346 33.502 52.7856 18.9514 70.6457 18.9144C79.3353 18.8775 87.6552 22.3718 93.775 28.547C81.7019 11.9442 58.4617 8.28347 41.8404 20.3566C25.2191 32.4297 21.5768 55.6699 33.6499 72.2912C45.723 88.894 68.9632 92.5548 85.5845 80.4817C86.398 79.89 87.2115 79.2429 87.951 78.6143C82.8667 81.9238 76.8948 83.6987 70.8306 83.6247Z" fill="white"/>
<path d="M81.8495 24.0909C94.3478 31.3939 98.5817 47.4606 91.3157 59.9589C84.0127 72.4572 67.9461 76.6911 55.4477 69.4251C48.2741 65.2651 43.5226 57.9436 42.5981 49.6792V51.1953C42.5981 67.2989 55.6326 80.3149 71.7177 80.3149C87.8029 80.3149 100.837 67.2804 100.837 51.1953C100.671 39.1407 93.1461 28.3618 81.8495 24.0909Z" fill="white"/>
<path d="M67.8897 26.1424C58.3126 26.1054 49.9187 32.4286 47.2379 41.5989C51.5827 32.0588 62.8423 27.8619 72.3824 32.2067C81.9226 36.5515 86.1195 47.8111 81.7747 57.3513C78.7055 64.1366 71.9202 68.4445 64.5063 68.4445C62.8423 68.4075 61.1783 68.2041 59.5698 67.8158C62.2137 68.9436 65.0424 69.5168 67.9452 69.4798C79.9073 69.4059 89.5584 59.6623 89.4844 47.7002C89.3735 35.775 79.7594 26.1794 67.8897 26.1424Z" fill="white"/>
<path d="M741.812 83.8398C747.405 83.8401 751.938 88.3734 751.938 93.9658V104.871C751.938 110.463 747.405 114.997 741.812 114.997H675.2C669.608 114.997 665.074 110.463 665.074 104.871V93.9658C665.074 88.3734 669.608 83.8401 675.2 83.8398H741.812ZM728.731 89.5049C726.944 89.5049 725.3 89.9194 723.802 90.75C722.321 91.5806 721.139 92.7363 720.254 94.2168C719.387 95.6974 718.954 97.3678 718.954 99.2275C718.954 101.087 719.387 102.767 720.254 104.266C721.139 105.746 722.321 106.902 723.802 107.732C725.3 108.563 726.944 108.978 728.731 108.978C730.519 108.978 732.153 108.563 733.634 107.732C735.114 106.902 736.288 105.746 737.154 104.266C738.021 102.767 738.454 101.087 738.454 99.2275C738.454 97.3678 738.021 95.6974 737.154 94.2168C736.306 92.7364 735.132 91.5805 733.634 90.75C732.153 89.9194 730.519 89.5049 728.731 89.5049ZM678.671 89.7754V108.788H683.302V101.963H686.173C687.726 101.963 689.026 101.683 690.073 101.123C691.12 100.563 691.897 99.8323 692.402 98.9297C692.908 98.0089 693.16 96.9978 693.16 95.8965C693.16 94.7048 692.899 93.6484 692.375 92.7275C691.851 91.8067 691.066 91.0842 690.019 90.5605C688.971 90.037 687.689 89.7754 686.173 89.7754H678.671ZM698.821 89.7754V108.788H703.453V101.611H704.563L708.518 108.788H713.745L709.357 101.259C710.748 100.843 711.795 100.139 712.499 99.1465C713.221 98.1534 713.582 97.0247 713.582 95.7607C713.582 94.6414 713.32 93.6303 712.797 92.7275C712.273 91.8067 711.478 91.0842 710.413 90.5605C709.366 90.0371 708.093 89.7754 706.595 89.7754H698.821ZM728.731 93.7021C730.248 93.7021 731.458 94.2079 732.36 95.2188C733.281 96.2118 733.742 97.5484 733.742 99.2275C733.742 100.889 733.281 102.225 732.36 103.236C731.458 104.247 730.248 104.753 728.731 104.753C727.197 104.753 725.969 104.256 725.048 103.263C724.145 102.252 723.694 100.907 723.694 99.2275C723.694 97.5305 724.145 96.1854 725.048 95.1924C725.969 94.1993 727.197 93.7022 728.731 93.7021ZM706.324 93.6211C707.173 93.6212 707.805 93.8289 708.22 94.2441C708.653 94.6594 708.87 95.2281 708.87 95.9502C708.87 96.7085 708.653 97.2957 708.22 97.7109C707.805 98.1261 707.173 98.3339 706.324 98.334H703.453V93.6211H706.324ZM685.82 93.5127C686.705 93.5127 687.365 93.7205 687.798 94.1357C688.231 94.551 688.447 95.1382 688.447 95.8965C688.447 96.6546 688.231 97.241 687.798 97.6562C687.365 98.0715 686.705 98.2793 685.82 98.2793H683.302V93.5127H685.82Z" fill="white"/>
</svg>
