<svg width="752" height="115" viewBox="0 0 752 115" fill="none" xmlns="http://www.w3.org/2000/svg">
<path d="M114.692 34.5205C117.186 29.9999 120.673 26.4725 125.133 23.9588C129.592 21.4248 134.64 20.168 140.296 20.168C147.229 20.168 153.149 21.9924 158.095 25.6617C163.021 29.3309 166.325 34.3178 167.988 40.6427H152.358C151.202 38.21 149.54 36.345 147.412 35.0679C145.283 33.7907 142.85 33.1623 140.134 33.1623C135.755 33.1623 132.208 34.6827 129.491 37.7438C126.775 40.7846 125.416 44.8795 125.416 49.9678C125.416 55.056 126.775 59.151 129.491 62.1917C132.208 65.2325 135.755 66.7732 140.134 66.7732C142.85 66.7732 145.283 66.1448 147.412 64.8676C149.54 63.5905 151.202 61.7458 152.358 59.2929H167.988C166.325 65.6177 163.021 70.5843 158.095 74.213C153.149 77.8417 147.229 79.6662 140.296 79.6662C134.64 79.6662 129.572 78.4093 125.112 75.8753C120.652 73.3616 117.166 69.8545 114.672 65.3542C112.179 60.8538 110.922 55.725 110.922 49.9678C110.922 44.2105 112.179 39.0614 114.672 34.5408L114.692 34.5205Z" fill="#303446"/>
<path d="M189.252 76.1389C184.671 73.5846 181.042 70.037 178.346 65.4555C175.649 60.8741 174.312 55.7453 174.312 50.0286C174.312 44.3119 175.649 39.1831 178.346 34.6421C181.042 30.1012 184.671 26.5536 189.252 23.9994C193.834 21.4451 198.861 20.168 204.355 20.168C209.848 20.168 214.876 21.4451 219.457 23.9994C224.039 26.5536 227.627 30.1012 230.262 34.6421C232.898 39.1831 234.215 44.3119 234.215 50.0286C234.215 55.7453 232.877 60.8741 230.222 65.4555C227.566 70.037 223.958 73.5846 219.417 76.1389C214.876 78.6931 209.848 79.9703 204.355 79.9703C198.861 79.9703 193.834 78.6931 189.252 76.1389ZM215.525 62.3336C218.322 59.232 219.721 55.1371 219.721 50.0286C219.721 44.92 218.322 40.7643 215.525 37.6829C212.727 34.6016 208.997 33.0609 204.334 33.0609C199.672 33.0609 195.861 34.5813 193.063 37.6424C190.266 40.6832 188.867 44.8187 188.867 50.0286C188.867 55.2385 190.266 59.3131 193.063 62.3742C195.861 65.4555 199.611 66.9962 204.334 66.9962C209.058 66.9962 212.727 65.4353 215.525 62.3336Z" fill="#303446"/>
<path d="M308.228 21.0039V79.3872H293.997V44.3775L280.942 79.3872H269.468L256.332 44.2964V79.3872H242.101V21.0039H258.906L275.286 61.4262L291.504 21.0039H308.228Z" fill="#303446"/>
<path d="M384.574 21.0039V79.3872H370.343V44.3775L357.288 79.3872H345.814L332.677 44.2964V79.3872H318.446V21.0039H335.252L351.632 61.4262L367.87 21.0039H384.594H384.574Z" fill="#303446"/>
<path d="M431.159 69.0687H409.366L405.88 79.3872H391L412.103 21.0039H428.564L449.688 79.3872H434.625L431.139 69.0687H431.159ZM427.49 58.1016L420.253 36.7349L413.097 58.1016H427.49Z" fill="#303446"/>
<path d="M508.335 79.3872H494.104L470.325 43.3639V79.3872H456.094V21.0039H470.325L494.104 57.1894V21.0039H508.335V79.3872Z" fill="#303446"/>
<path d="M556.662 24.6529C561.264 27.0855 564.832 30.5115 567.346 34.9307C569.86 39.35 571.137 44.418 571.137 50.1955C571.137 55.973 569.88 60.9802 567.346 65.4198C564.812 69.8593 561.244 73.2853 556.622 75.7382C552 78.1708 546.628 79.4074 540.526 79.4074H518.652V21.0039H540.526C546.689 21.0039 552.061 22.2202 556.662 24.6529ZM552.182 62.6628C555.183 59.7234 556.683 55.5676 556.683 50.1955C556.683 44.8235 555.183 40.6272 552.182 37.6269C549.182 34.6267 545.006 33.1468 539.614 33.1468H532.883V67.0821H539.614C544.986 67.0821 549.182 65.6225 552.182 62.6831V62.6628Z" fill="#303446"/>
<path d="M622.628 54.4729C624.675 57.1083 625.709 60.1085 625.709 63.4939C625.709 68.3795 624.006 72.2514 620.601 75.0895C617.195 77.9479 612.431 79.3669 606.329 79.3669H579.124V21.0039H605.397C611.336 21.0039 615.979 22.3621 619.323 25.0786C622.668 27.795 624.351 31.4845 624.351 36.1471C624.351 39.5933 623.439 42.4314 621.655 44.7221C619.851 46.9926 617.458 48.5738 614.458 49.4657C617.844 50.1955 620.56 51.8578 622.608 54.4932L622.628 54.4729ZM593.335 44.6207H602.64C604.971 44.6207 606.755 44.1139 608.012 43.0801C609.269 42.0462 609.877 40.5461 609.877 38.5392C609.877 36.5322 609.248 35.0118 608.012 33.9577C606.775 32.9035 604.971 32.3765 602.64 32.3765H593.335V44.6005V44.6207ZM609.35 66.2915C610.647 65.2171 611.296 63.6358 611.296 61.5884C611.296 59.5409 610.607 57.9394 609.248 56.7636C607.89 55.6081 606.025 55.0203 603.633 55.0203H593.314V67.9132H603.795C606.167 67.9132 608.012 67.3659 609.329 66.2915H609.35Z" fill="#303446"/>
<path d="M735.077 79.3872L723.178 61.5073L712.697 79.3872H696.56L715.272 49.6887L696.135 21.0039H712.697L724.435 38.6405L734.753 21.0039H750.89L732.341 50.4388L751.64 79.3872H735.077Z" fill="#303446"/>
<path d="M668.769 77.4618C654.338 77.4618 642.641 65.8066 642.641 51.428C642.641 37.0493 654.338 25.3941 668.769 25.3941C676.047 25.3941 682.626 28.3605 687.364 33.1465C681.906 25.7171 673.091 20.8867 663.139 20.8867C646.564 20.8867 633.126 34.2726 633.126 50.7879C633.126 67.3031 646.564 80.689 663.136 80.689C670.613 80.689 677.448 77.9567 682.706 73.4464C678.67 75.989 673.894 77.4648 668.769 77.4648" fill="#303446"/>
<path d="M677.75 29.5742C684.032 33.24 688.255 40.0322 688.255 47.8083C688.255 59.4724 678.764 68.9258 667.061 68.9287C656.169 68.9287 647.202 60.7437 646.006 50.2116C645.986 50.6265 645.971 51.0414 645.971 51.4592C645.971 64.3799 656.485 74.8527 669.449 74.8527C682.414 74.8527 692.928 64.3769 692.928 51.4592C692.928 41.4517 686.619 32.917 677.75 29.5742Z" fill="#303446"/>
<path d="M666.431 31.1953C658.553 31.1953 651.899 36.4169 649.761 43.5766C652.149 38.2661 657.5 34.5677 663.719 34.5677C672.166 34.5677 679.012 41.3896 679.012 49.8057C679.012 58.2219 672.166 65.0438 663.719 65.0438C662.339 65.0438 661 64.8571 659.727 64.5163C661.788 65.3757 664.055 65.8498 666.431 65.8528C676.038 65.8528 683.822 58.0915 683.822 48.5226C683.822 38.9506 676.035 31.1953 666.431 31.1953Z" fill="#303446"/>
<path d="M0 21.6125L23.5545 46.036V56.1678L0 80.7577V69.609L17.86 51.1019L0 32.7426V21.6125Z" fill="url(#paint0_linear_710_3229)"/>
<path d="M70.8306 83.6247C52.9705 83.6617 38.42 69.2221 38.383 51.362C38.346 33.502 52.7856 18.9514 70.6457 18.9144C79.3353 18.8775 87.6552 22.3718 93.775 28.547C81.7019 11.9442 58.4617 8.28347 41.8404 20.3566C25.2191 32.4297 21.5768 55.6699 33.6499 72.2912C45.723 88.894 68.9632 92.5548 85.5845 80.4817C86.398 79.89 87.2115 79.2429 87.951 78.6143C82.8667 81.9238 76.8948 83.6987 70.8306 83.6247Z" fill="url(#paint1_linear_710_3229)"/>
<path d="M81.8495 24.0909C94.3478 31.3939 98.5817 47.4606 91.3157 59.9589C84.0127 72.4572 67.9461 76.6911 55.4477 69.4251C48.2741 65.2651 43.5226 57.9436 42.5981 49.6792V51.1953C42.5981 67.2989 55.6326 80.3149 71.7177 80.3149C87.8029 80.3149 100.837 67.2804 100.837 51.1953C100.671 39.1407 93.1461 28.3618 81.8495 24.0909Z" fill="url(#paint2_linear_710_3229)"/>
<path d="M67.8897 26.1424C58.3126 26.1054 49.9187 32.4286 47.2379 41.5989C51.5827 32.0588 62.8423 27.8619 72.3824 32.2067C81.9226 36.5515 86.1195 47.8111 81.7747 57.3513C78.7055 64.1366 71.9202 68.4445 64.5063 68.4445C62.8423 68.4075 61.1783 68.2041 59.5698 67.8158C62.2137 68.9436 65.0424 69.5168 67.9452 69.4798C79.9073 69.4059 89.5584 59.6623 89.4844 47.7002C89.3735 35.775 79.7594 26.1794 67.8897 26.1424Z" fill="url(#paint3_linear_710_3229)"/>
<path d="M664.989 93.9699C664.989 88.3774 669.523 83.8438 675.116 83.8438H741.727C747.32 83.8438 751.853 88.3774 751.853 93.9699V104.875C751.853 110.468 747.32 115.001 741.727 115.001H675.116C669.523 115.001 664.989 110.468 664.989 104.875V93.9699Z" fill="url(#paint4_linear_710_3229)"/>
<path d="M693.163 96.0949C693.163 97.1963 692.91 98.2074 692.404 99.1283C691.899 100.031 691.122 100.762 690.075 101.322C689.028 101.882 687.728 102.162 686.175 102.162H683.304V108.987H678.673V89.974H686.175C687.692 89.974 688.974 90.2358 690.021 90.7594C691.068 91.283 691.854 92.0052 692.377 92.9261C692.901 93.8469 693.163 94.9032 693.163 96.0949ZM685.823 98.4783C686.708 98.4783 687.367 98.2706 687.8 97.8553C688.233 97.4401 688.45 96.8532 688.45 96.0949C688.45 95.3366 688.233 94.7497 687.8 94.3345C687.367 93.9192 686.708 93.7115 685.823 93.7115H683.304V98.4783H685.823Z" fill="#303446"/>
<path d="M708.52 108.987L704.566 101.81H703.455V108.987H698.824V89.974H706.597C708.096 89.974 709.369 90.2358 710.416 90.7594C711.481 91.283 712.276 92.0052 712.799 92.9261C713.323 93.8289 713.585 94.84 713.585 95.9595C713.585 97.2234 713.224 98.3519 712.501 99.345C711.797 100.338 710.75 101.042 709.36 101.457L713.747 108.987H708.52ZM703.455 98.5324H706.326C707.175 98.5324 707.807 98.3248 708.222 97.9095C708.655 97.4942 708.872 96.9074 708.872 96.1491C708.872 95.4268 708.655 94.8581 708.222 94.4428C707.807 94.0275 707.175 93.8199 706.326 93.8199H703.455V98.5324Z" fill="#303446"/>
<path d="M728.734 109.176C726.946 109.176 725.303 108.761 723.805 107.931C722.324 107.1 721.141 105.944 720.257 104.464C719.39 102.965 718.957 101.286 718.957 99.4262C718.957 97.5664 719.39 95.8963 720.257 94.4157C721.141 92.9351 722.324 91.7795 723.805 90.949C725.303 90.1184 726.946 89.7031 728.734 89.7031C730.521 89.7031 732.155 90.1184 733.636 90.949C735.135 91.7795 736.308 92.9351 737.157 94.4157C738.024 95.8963 738.457 97.5664 738.457 99.4262C738.457 101.286 738.024 102.965 737.157 104.464C736.29 105.944 735.117 107.1 733.636 107.931C732.155 108.761 730.521 109.176 728.734 109.176ZM728.734 104.951C730.251 104.951 731.46 104.446 732.363 103.435C733.284 102.423 733.744 101.087 733.744 99.4262C733.744 97.747 733.284 96.4109 732.363 95.4178C731.46 94.4067 730.251 93.9011 728.734 93.9011C727.199 93.9011 725.971 94.3976 725.05 95.3907C724.148 96.3838 723.696 97.729 723.696 99.4262C723.696 101.105 724.148 102.451 725.05 103.462C725.971 104.455 727.199 104.951 728.734 104.951Z" fill="#303446"/>
<defs>
<linearGradient id="paint0_linear_710_3229" x1="0" y1="50.4191" x2="100.837" y2="50.4191" gradientUnits="userSpaceOnUse">
<stop stop-color="#00DBFF"/>
<stop offset="1" stop-color="#00FF75"/>
</linearGradient>
<linearGradient id="paint1_linear_710_3229" x1="0" y1="50.4191" x2="100.837" y2="50.4191" gradientUnits="userSpaceOnUse">
<stop stop-color="#00DBFF"/>
<stop offset="1" stop-color="#00FF75"/>
</linearGradient>
<linearGradient id="paint2_linear_710_3229" x1="0" y1="50.4191" x2="100.837" y2="50.4191" gradientUnits="userSpaceOnUse">
<stop stop-color="#00DBFF"/>
<stop offset="1" stop-color="#00FF75"/>
</linearGradient>
<linearGradient id="paint3_linear_710_3229" x1="0" y1="50.4191" x2="100.837" y2="50.4191" gradientUnits="userSpaceOnUse">
<stop stop-color="#00DBFF"/>
<stop offset="1" stop-color="#00FF75"/>
</linearGradient>
<linearGradient id="paint4_linear_710_3229" x1="664.989" y1="99.4225" x2="751.853" y2="99.4225" gradientUnits="userSpaceOnUse">
<stop stop-color="#00DBFF"/>
<stop offset="1" stop-color="#00FF75"/>
</linearGradient>
</defs>
</svg>
