<svg width="75" height="55" viewBox="0 0 75 55" fill="none" xmlns="http://www.w3.org/2000/svg">
<path d="M62.7793 0H12.2208C5.47142 0 0 5.50789 0 12.3022V41.7727C0 48.567 5.47142 54.0749 12.2208 54.0749H62.7793C69.5286 54.0749 75 48.567 75 41.7727V12.3022C75 5.50789 69.5286 0 62.7793 0Z" fill="#00C3FF"/>
<path d="M26.1937 42.5876C26.8017 42.9282 27.4813 43.0639 28.158 43.0639C28.9036 43.0639 29.6464 42.859 30.3232 42.4519L49.0093 30.4571C50.1593 29.7065 50.9048 28.4132 50.9048 27.0506C50.9048 25.688 50.228 24.3918 49.0093 23.6441L48.2637 23.1677C47.3145 22.5556 46.0297 22.8271 45.4877 23.7798C44.8797 24.7353 45.1494 26.0286 46.0958 26.5742L46.7725 27.0506L28.1553 38.9097V15.1887L37.4983 21.1183C38.4475 21.7303 39.7323 21.4589 40.2743 20.5062C40.8823 19.5507 40.6126 18.2573 39.6662 17.7117L30.2544 11.6465C29.0357 10.8295 27.4785 10.8295 26.1909 11.5108C24.9034 12.1921 24.0918 13.5547 24.0918 15.0558V38.9789C24.0918 40.4772 24.9034 41.8426 26.1909 42.5903L26.1937 42.5876Z" fill="#0E1F3D"/>
<path d="M42.7808 24.1152C42.646 24.1152 42.5112 24.1152 42.3736 24.046C42.2388 24.046 42.104 23.9768 41.9664 23.9103C41.8289 23.8438 41.6968 23.7746 41.628 23.7053C41.4932 23.6361 41.4245 23.5696 41.2897 23.4339C40.8825 23.024 40.6816 22.5477 40.6816 22.0021C40.6816 21.4565 40.8852 20.9109 41.2897 20.5702C41.3584 20.501 41.4932 20.3653 41.628 20.2988C41.7629 20.2324 41.8316 20.1631 41.9664 20.0939C42.1013 20.0246 42.2361 20.0246 42.3736 19.9582C42.6432 19.8889 42.9156 19.8889 43.1852 19.9582C43.32 19.9582 43.4548 20.0274 43.5924 20.0939C43.73 20.1604 43.862 20.2296 43.9308 20.2988C44.0656 20.3681 44.1344 20.4345 44.2692 20.5702C44.6076 20.9801 44.8772 21.4565 44.8772 22.0021C44.8772 22.5477 44.6736 23.0933 44.2692 23.4339C44.2004 23.5032 44.0656 23.6389 43.9308 23.7053C43.796 23.7718 43.7272 23.841 43.5924 23.9103C43.4576 23.9795 43.3228 23.9795 43.1852 24.046C43.0477 24.1125 42.9156 24.1152 42.778 24.1152H42.7808Z" fill="white"/>
</svg>
