<svg width="250" height="181" viewBox="0 0 250 181" fill="none" xmlns="http://www.w3.org/2000/svg">
<path d="M209.264 0H40.7358C18.2381 0 0 18.3596 0 41.0074V139.242C0 161.89 18.2381 180.25 40.7358 180.25H209.264C231.762 180.25 250 161.89 250 139.242V41.0074C250 18.3596 231.762 0 209.264 0Z" fill="#00C3FF"/>
<path d="M87.313 141.955C89.3397 143.09 91.6048 143.543 93.8608 143.543C96.346 143.543 98.8221 142.859 101.078 141.502L163.365 101.52C167.198 99.0179 169.683 94.7067 169.683 90.1647C169.683 85.6226 167.427 81.3022 163.365 78.8096L160.88 77.2218C157.716 75.1816 153.433 76.0863 151.626 79.262C149.6 82.4469 150.498 86.7581 153.653 88.5768L155.909 90.1647L93.8516 129.695V50.6251L124.995 70.3903C128.159 72.4305 132.442 71.5258 134.248 68.3501C136.275 65.1651 135.376 60.8539 132.221 59.0353L100.849 38.8178C96.7862 36.0944 91.5957 36.0944 87.3038 38.3654C83.012 40.6364 80.3066 45.1784 80.3066 50.182V129.926C80.3066 134.92 83.012 139.471 87.3038 141.964L87.313 141.955Z" fill="#0E1F3D"/>
<path d="M142.603 80.3893C142.153 80.3893 141.704 80.3893 141.245 80.1585C140.796 80.1585 140.347 79.9277 139.888 79.7061C139.43 79.4846 138.989 79.2538 138.76 79.023C138.311 78.7922 138.082 78.5707 137.632 78.1183C136.275 76.752 135.605 75.1641 135.605 73.3455C135.605 71.5268 136.284 69.7082 137.632 68.5727C137.861 68.3419 138.311 67.8895 138.76 67.668C139.21 67.4464 139.439 67.2156 139.888 66.9848C140.338 66.754 140.787 66.754 141.245 66.5325C142.144 66.3017 143.052 66.3017 143.951 66.5325C144.4 66.5325 144.849 66.7633 145.308 66.9848C145.767 67.2064 146.207 67.4372 146.436 67.668C146.885 67.8988 147.115 68.1203 147.564 68.5727C148.692 69.939 149.591 71.5268 149.591 73.3455C149.591 75.1641 148.912 76.9828 147.564 78.1183C147.335 78.3491 146.885 78.8014 146.436 79.023C145.987 79.2446 145.757 79.4754 145.308 79.7061C144.859 79.9369 144.409 79.9369 143.951 80.1585C143.492 80.3801 143.052 80.3893 142.593 80.3893H142.603Z" fill="white"/>
</svg>
