<svg width="800" height="109" viewBox="0 0 800 109" fill="none" xmlns="http://www.w3.org/2000/svg">
<g clip-path="url(#clip0_977_187901)">
<path d="M166.235 29.4696C170.452 21.7433 176.332 15.7253 183.878 11.4155C191.42 7.10577 199.976 4.94531 209.538 4.94531C221.253 4.94531 231.283 8.07156 239.625 14.3296C247.967 20.5877 253.542 29.1179 256.352 39.9202H229.92C227.955 35.75 225.161 32.5735 221.556 30.3963C217.946 28.2191 213.844 27.1249 209.256 27.1249C201.853 27.1249 195.853 29.732 191.259 34.9461C186.666 40.1603 184.37 47.1273 184.37 55.8473C184.37 64.5673 186.666 71.5344 191.259 76.7485C195.853 81.9627 201.848 84.5697 209.256 84.5697C213.85 84.5697 217.951 83.4811 221.556 81.2984C225.161 79.1211 227.955 75.9447 229.92 71.7745H256.352C253.542 82.5768 247.961 91.0846 239.625 97.2925C231.283 103.5 221.253 106.604 209.538 106.604C199.976 106.604 191.425 104.449 183.878 100.134C176.332 95.8242 170.452 89.8285 166.235 82.1525C162.017 74.4764 159.908 65.7118 159.908 55.8529C159.908 45.9941 162.017 37.2071 166.235 29.4808V29.4696Z" fill="#00C3FF"/>
<path d="M335.357 6.08594V25.5636H295.151V46.6044H325.238V65.5126H295.151V105.886H271.109V6.08594H335.357Z" fill="#00C3FF"/>
<path d="M350.263 29.4696C354.48 21.7433 360.36 15.7253 367.906 11.4155C375.447 7.10577 384.004 4.94531 393.566 4.94531C405.28 4.94531 415.311 8.07156 423.653 14.3296C431.994 20.5877 437.57 29.1179 440.38 39.9202H413.948C411.982 35.75 409.189 32.5735 405.584 30.3963C401.974 28.2191 397.872 27.1249 393.284 27.1249C385.881 27.1249 379.88 29.732 375.287 34.9461C370.694 40.1603 368.398 47.1273 368.398 55.8473C368.398 64.5673 370.694 71.5344 375.287 76.7485C379.88 81.9627 385.876 84.5697 393.284 84.5697C397.877 84.5697 401.979 83.4811 405.584 81.2984C409.189 79.1211 411.982 75.9447 413.948 71.7745H440.38C437.57 82.5768 431.989 91.0846 423.653 97.2925C415.311 103.5 405.28 106.604 393.566 106.604C384.004 106.604 375.453 104.449 367.906 100.134C360.36 95.8242 354.48 89.8285 350.263 82.1525C346.045 74.4764 343.936 65.7118 343.936 55.8529C343.936 45.9941 346.045 37.2071 350.263 29.4808V29.4696Z" fill="white"/>
<path d="M516.575 88.256H479.742L473.835 105.886H448.672L484.384 6.08594H512.219L547.926 105.886H522.482L516.575 88.256ZM510.392 69.493L498.158 32.9549L486.068 69.493H510.392Z" fill="white"/>
<path d="M575.06 103.328C569.34 100.961 564.775 97.4556 561.352 92.8053C557.929 88.1606 556.124 82.5668 555.942 76.0296H581.53C581.905 79.7253 583.169 82.5445 585.328 84.4872C587.481 86.43 590.296 87.4014 593.763 87.4014C597.23 87.4014 600.134 86.5751 602.199 84.9115C604.258 83.2535 605.29 80.9535 605.29 78.017C605.29 75.5551 604.468 73.5175 602.828 71.9041C601.188 70.2963 599.173 68.9677 596.783 67.9237C594.393 66.8798 590.992 65.6963 586.592 64.3676C580.216 62.3746 575.015 60.3872 570.985 58.3942C566.955 56.4068 563.489 53.4648 560.579 49.5793C557.675 45.6938 556.223 40.6249 556.223 34.3668C556.223 25.0774 559.547 17.8032 566.205 12.5444C572.857 7.28565 581.53 4.65625 592.212 4.65625C602.894 4.65625 611.849 7.28565 618.501 12.5444C625.153 17.8032 628.714 25.1276 629.183 34.5119H603.176C602.988 31.2908 601.818 28.7563 599.659 26.9084C597.501 25.0606 594.74 24.1339 591.362 24.1339C588.458 24.1339 586.112 24.9155 584.334 26.4786C582.551 28.0417 581.662 30.2971 581.662 33.2335C581.662 36.4547 583.158 38.9668 586.161 40.77C589.159 42.5732 593.846 44.5159 600.222 46.5982C606.593 48.781 611.771 50.8633 615.757 52.8563C619.737 54.8493 623.182 57.7411 626.092 61.5261C628.995 65.3166 630.447 70.1958 630.447 76.1692C630.447 82.1426 629.017 87.0217 626.158 91.6665C623.298 96.3112 619.152 100.007 613.714 102.753C608.277 105.506 601.856 106.879 594.453 106.879C587.05 106.879 580.768 105.695 575.054 103.323L575.06 103.328Z" fill="white"/>
<path d="M716.214 6.08594V25.5636H690.064V105.891H666.021V25.5636H639.871V6.08594H716.209H716.214Z" fill="white"/>
<path d="M744.607 103.328C738.888 100.961 734.322 97.4556 730.899 92.8053C727.477 88.1606 725.671 82.5668 725.489 76.0296H751.077C751.452 79.7253 752.717 82.5445 754.875 84.4872C757.028 86.43 759.844 87.4014 763.311 87.4014C766.777 87.4014 769.681 86.5751 771.746 84.9115C773.805 83.2535 774.837 80.9535 774.837 78.017C774.837 75.5551 774.015 73.5175 772.375 71.9041C770.736 70.2963 768.721 68.9677 766.33 67.9237C763.94 66.8798 760.539 65.6963 756.139 64.3676C749.763 62.3746 744.563 60.3872 740.533 58.3942C736.503 56.4068 733.036 53.4648 730.127 49.5793C727.223 45.6938 725.771 40.6249 725.771 34.3668C725.771 25.0774 729.094 17.8032 735.752 12.5444C742.404 7.28565 751.077 4.65625 761.759 4.65625C772.442 4.65625 781.396 7.28565 788.048 12.5444C794.7 17.8032 798.261 25.1276 798.73 34.5119H772.723C772.535 31.2908 771.365 28.7563 769.206 26.9084C767.048 25.0606 764.288 24.1339 760.909 24.1339C758.005 24.1339 755.659 24.9155 753.881 26.4786C752.098 28.0417 751.209 30.2971 751.209 33.2335C751.209 36.4547 752.706 38.9668 755.709 40.77C758.706 42.5732 763.393 44.5159 769.77 46.5982C776.14 48.781 781.319 50.8633 785.304 52.8563C789.285 54.8493 792.73 57.7411 795.639 61.5261C798.543 65.3166 799.995 70.1958 799.995 76.1692C799.995 82.1426 798.565 87.0217 795.705 91.6665C792.845 96.3112 788.7 100.007 783.262 102.753C777.824 105.506 771.404 106.879 764.001 106.879C756.598 106.879 750.315 105.695 744.601 103.323L744.607 103.328Z" fill="white"/>
<path d="M125.974 0H24.5223C10.979 0 0 11.1024 0 24.7978V84.2022C0 97.8976 10.979 109 24.5223 109H125.974C139.517 109 150.496 97.8976 150.496 84.2022V24.7978C150.496 11.1024 139.517 0 125.974 0Z" fill="#00C3FF"/>
<path d="M52.561 85.8434C53.781 86.5301 55.1446 86.8037 56.5026 86.8037C57.9987 86.8037 59.4893 86.3905 60.8473 85.5699L98.3429 61.3917C100.651 59.8788 102.147 57.2718 102.147 54.5251C102.147 51.7785 100.789 49.1659 98.3429 47.6586L96.8468 46.6984C94.9423 45.4646 92.3642 46.0117 91.2766 47.9321C90.0566 49.8581 90.5976 52.4652 92.4967 53.5649L93.8547 54.5251L56.4971 78.4298V30.6149L75.2449 42.5672C77.1495 43.801 79.7276 43.2539 80.8152 41.3335C82.0352 39.4075 81.4942 36.8004 79.5951 35.7007L60.7093 23.4748C58.2637 21.8279 55.1391 21.8279 52.5554 23.2012C49.9718 24.5746 48.3433 27.3212 48.3433 30.347V78.5693C48.3433 81.5895 49.9718 84.3417 52.5554 85.849L52.561 85.8434Z" fill="#0E1F3D"/>
<path d="M85.8445 48.613C85.574 48.613 85.3035 48.613 85.0275 48.4735C84.757 48.4735 84.4864 48.3339 84.2104 48.1999C83.9344 48.0659 83.6694 47.9264 83.5314 47.7868C83.2609 47.6473 83.1229 47.5133 82.8524 47.2397C82.0353 46.4135 81.6323 45.4533 81.6323 44.3535C81.6323 43.2538 82.0408 42.154 82.8524 41.4673C82.9904 41.3278 83.2609 41.0542 83.5314 40.9202C83.8019 40.7863 83.9399 40.6467 84.2104 40.5071C84.4809 40.3676 84.7514 40.3676 85.0275 40.2336C85.5685 40.094 86.115 40.094 86.656 40.2336C86.9265 40.2336 87.197 40.3731 87.4731 40.5071C87.7491 40.6411 88.0141 40.7807 88.1521 40.9202C88.4226 41.0598 88.5606 41.1938 88.8311 41.4673C89.5102 42.2936 90.0512 43.2538 90.0512 44.3535C90.0512 45.4533 89.6427 46.5531 88.8311 47.2397C88.6931 47.3793 88.4226 47.6528 88.1521 47.7868C87.8816 47.9208 87.7436 48.0604 87.4731 48.1999C87.2026 48.3395 86.9321 48.3395 86.656 48.4735C86.38 48.6075 86.115 48.613 85.839 48.613H85.8445Z" fill="white"/>
</g>
<defs>
<clipPath id="clip0_977_187901">
<rect width="800" height="109" fill="white"/>
</clipPath>
</defs>
</svg>
