<svg width="500" height="500" viewBox="0 0 500 500" fill="none" xmlns="http://www.w3.org/2000/svg">
<path d="M250 0C111.919 0 0 111.919 0 250C0 388.081 111.919 500 250 500C388.081 500 500 388.081 500 250C500 111.919 388.081 0 250 0ZM414.971 300.61C414.971 300.61 410.32 326.192 386.483 331.134C362.645 336.076 270.494 336.076 248.983 336.076H248.692C227.18 336.076 137.355 336.076 113.517 331.134C89.6802 326.192 85.0291 300.61 85.0291 300.61V189.273C89.6802 166.89 112.064 164.564 112.064 164.564C125.145 163.692 137.936 163.692 151.017 164.564C166.424 166.308 162.936 182.297 162.936 182.297V247.994C195.785 242.762 246.366 244.215 248.692 244.215C251.017 244.215 303.924 242.762 336.773 247.994V182.297C336.773 182.297 333.285 166.308 348.692 164.564C361.773 163.692 374.564 163.692 387.645 164.564C387.645 164.564 410.029 167.18 414.971 189.564V300.61Z" fill="#101313"/>
</svg>
