<svg width="660" height="600" viewBox="0 0 660 600" fill="none" xmlns="http://www.w3.org/2000/svg">
<path d="M626.052 600.001H33.217C14.9603 600.001 0 585.294 0 566.784V493.505C0 475.249 14.7068 460.289 33.217 460.289H626.305C644.562 460.289 659.522 474.996 659.522 493.505V566.784C659.269 585.294 644.562 600.001 626.052 600.001Z" fill="white"/>
<path d="M329.635 0C186.878 0 71.252 115.623 71.252 258.378C71.252 401.132 186.878 516.755 329.635 516.755C472.392 516.755 588.017 401.132 588.017 258.378C588.017 115.623 472.392 0 329.635 0Z" fill="white"/>
<path d="M329.762 476.44C450.197 476.44 547.828 378.81 547.828 258.378C547.828 137.946 450.197 40.3164 329.762 40.3164C209.328 40.3164 111.696 137.946 111.696 258.378C111.696 378.81 209.328 476.44 329.762 476.44Z" fill="url(#paint0_linear_1322_473)"/>
<mask id="mask0_1322_473" style="mask-type:luminance" maskUnits="userSpaceOnUse" x="0" y="0" width="660" height="597">
<path d="M659.269 0H0V596.373H659.269V0Z" fill="white"/>
</mask>
<g mask="url(#mask0_1322_473)">
<path d="M449.823 183.832C438.413 183.072 427.256 183.072 415.846 183.832C402.407 185.354 405.45 199.299 405.45 199.299V256.604C376.797 252.04 330.648 253.308 328.619 253.308C326.591 253.308 282.471 252.04 253.818 256.604V199.299C253.818 199.299 256.86 185.354 243.422 183.832C232.011 183.072 220.854 183.072 209.444 183.832C209.444 183.832 189.919 185.861 185.862 205.385V302.498C185.862 302.498 189.919 324.812 210.712 329.122C231.504 333.433 309.856 333.433 328.619 333.433H328.873C347.637 333.433 428.017 333.433 448.809 329.122C469.601 324.812 473.659 302.498 473.659 302.498V205.638C469.348 186.114 449.823 183.832 449.823 183.832Z" fill="white"/>
</g>
<path d="M46.8587 516.068C49.1408 511.935 52.3103 508.715 56.4181 506.407C60.5005 504.1 65.1407 502.934 70.3134 502.934C76.6526 502.934 82.0789 504.607 86.5923 507.954C91.1058 511.301 94.1232 515.865 95.6446 521.646H81.3435C80.2785 519.415 78.7571 517.716 76.8047 516.55C74.8522 515.383 72.6209 514.8 70.1613 514.8C66.155 514.8 62.9093 516.195 60.4244 518.984C57.9395 521.773 56.697 525.5 56.697 530.166C56.697 534.831 57.9395 538.559 60.4244 541.348C62.9093 544.137 66.155 545.532 70.1613 545.532C72.6462 545.532 74.8522 544.948 76.8047 543.782C78.7571 542.616 80.2532 540.917 81.3435 538.686H95.6446C94.1232 544.467 91.1058 549.031 86.5923 552.327C82.0789 555.649 76.6526 557.322 70.3134 557.322C65.1407 557.322 60.5005 556.156 56.4181 553.848C52.3357 551.541 49.1661 548.346 46.8587 544.239C44.5766 540.131 43.4355 535.44 43.4355 530.166C43.4355 524.892 44.5766 520.176 46.8587 516.043V516.068Z" fill="#101313"/>
<path d="M138.37 503.574V513.996H116.614V525.254H132.893V535.371H116.614V556.974H103.606V503.574H138.37Z" fill="#101313"/>
<path d="M146.434 516.068C148.716 511.935 151.886 508.715 155.993 506.407C160.076 504.1 164.716 502.934 169.889 502.934C176.228 502.934 181.654 504.607 186.167 507.954C190.681 511.301 193.698 515.865 195.22 521.646H180.919C179.854 519.415 178.332 517.716 176.38 516.55C174.427 515.383 172.196 514.8 169.736 514.8C165.73 514.8 162.485 516.195 160 518.984C157.515 521.773 156.272 525.5 156.272 530.166C156.272 534.831 157.515 538.559 160 541.348C162.485 544.137 165.73 545.532 169.736 545.532C172.221 545.532 174.427 544.948 176.38 543.782C178.332 542.616 179.828 540.917 180.919 538.686H195.22C193.698 544.467 190.681 549.031 186.167 552.327C181.654 555.649 176.228 557.322 169.889 557.322C164.716 557.322 160.076 556.156 155.993 553.848C151.911 551.541 148.741 548.346 146.434 544.239C144.152 540.131 143.011 535.44 143.011 530.166C143.011 524.892 144.152 520.176 146.434 516.043V516.068Z" fill="#101313"/>
<path d="M214.616 554.002C210.433 551.67 207.111 548.399 204.651 544.215C202.192 540.031 200.975 535.34 200.975 530.117C200.975 524.894 202.192 520.203 204.651 516.044C207.111 511.886 210.433 508.64 214.616 506.308C218.8 503.975 223.39 502.809 228.41 502.809C233.431 502.809 238.046 503.975 242.23 506.308C246.413 508.64 249.71 511.886 252.119 516.044C254.528 520.203 255.719 524.894 255.719 530.117C255.719 535.34 254.502 540.057 252.068 544.215C249.634 548.399 246.337 551.67 242.179 554.002C238.02 556.335 233.431 557.501 228.41 557.501C223.39 557.501 218.8 556.335 214.616 554.002ZM238.654 541.35C241.215 538.51 242.509 534.757 242.509 530.092C242.509 525.426 241.215 521.623 238.654 518.783C236.093 515.968 232.696 514.548 228.41 514.548C224.125 514.548 220.651 515.943 218.116 518.732C215.555 521.521 214.287 525.299 214.287 530.066C214.287 534.833 215.555 538.535 218.116 541.375C220.677 544.19 224.1 545.61 228.41 545.61C232.721 545.61 236.068 544.19 238.654 541.35Z" fill="#101313"/>
<path d="M275.751 503.574V535.523C275.751 538.718 276.537 541.177 278.109 542.901C279.681 544.626 281.989 545.488 285.032 545.488C288.074 545.488 290.407 544.626 292.03 542.901C293.653 541.177 294.464 538.718 294.464 535.523V503.574H307.472V535.447C307.472 540.214 306.458 544.245 304.429 547.542C302.401 550.838 299.662 553.323 296.239 554.996C292.816 556.67 289.012 557.506 284.803 557.506C280.594 557.506 276.816 556.67 273.494 555.047C270.173 553.399 267.536 550.914 265.634 547.592C263.707 544.271 262.743 540.239 262.743 535.447V503.574H275.751Z" fill="#101313"/>
<path d="M317.792 516.068C320.074 511.935 323.244 508.715 327.352 506.407C331.434 504.1 336.074 502.934 341.247 502.934C347.586 502.934 353.012 504.607 357.526 507.954C362.039 511.301 365.057 515.865 366.578 521.646H352.277C351.212 519.415 349.691 517.716 347.738 516.55C345.786 515.383 343.554 514.8 341.095 514.8C337.089 514.8 333.843 516.195 331.358 518.984C328.873 521.773 327.631 525.5 327.631 530.166C327.631 534.831 328.873 538.559 331.358 541.348C333.843 544.137 337.089 545.532 341.095 545.532C343.58 545.532 345.786 544.948 347.738 543.782C349.691 542.616 351.187 540.917 352.277 538.686H366.578C365.057 544.467 362.039 549.031 357.526 552.327C353.012 555.649 347.586 557.322 341.247 557.322C336.074 557.322 331.434 556.156 327.352 553.848C323.269 551.541 320.1 548.346 317.792 544.239C315.51 540.131 314.369 535.44 314.369 530.166C314.369 524.892 315.51 520.176 317.792 516.043V516.068Z" fill="#101313"/>
<path d="M420.79 503.574V556.974H407.782V534.99H387.548V556.974H374.54V503.574H387.548V524.493H407.782V503.574H420.79Z" fill="#101313"/>
<path d="M469.932 534.173C471.808 536.582 472.746 539.346 472.746 542.414C472.746 546.876 471.174 550.426 468.055 553.038C464.937 555.65 460.575 556.943 454.997 556.943H430.122V503.543H454.16C459.586 503.543 463.821 504.785 466.914 507.27C469.982 509.755 471.504 513.128 471.504 517.387C471.504 520.532 470.667 523.143 469.019 525.222C467.371 527.302 465.165 528.747 462.426 529.558C465.52 530.218 468.005 531.764 469.881 534.148L469.932 534.173ZM443.155 525.172H451.675C453.805 525.172 455.428 524.715 456.594 523.777C457.735 522.839 458.293 521.444 458.293 519.619C458.293 517.793 457.71 516.398 456.594 515.435C455.453 514.471 453.805 513.99 451.675 513.99H443.155V525.172ZM457.811 544.975C459.003 543.986 459.612 542.541 459.612 540.664C459.612 538.788 458.978 537.317 457.735 536.252C456.493 535.187 454.769 534.655 452.613 534.655H443.181V546.445H452.765C454.946 546.445 456.62 545.938 457.837 544.975H457.811Z" fill="#101313"/>
<path d="M513.519 547.542H493.589L490.394 556.974H476.777L496.099 503.574H511.161L530.482 556.974H516.714L513.519 547.542ZM510.172 537.501L503.554 517.951L497.012 537.501H510.172Z" fill="#101313"/>
<path d="M545.165 555.602C542.071 554.334 539.612 552.458 537.761 549.973C535.91 547.488 534.921 544.496 534.819 540.997H548.664C548.867 542.974 549.551 544.496 550.718 545.535C551.884 546.575 553.406 547.082 555.282 547.082C557.158 547.082 558.73 546.651 559.846 545.764C560.962 544.876 561.52 543.659 561.52 542.062C561.52 540.743 561.063 539.653 560.201 538.791C559.314 537.929 558.223 537.219 556.93 536.661C555.637 536.103 553.786 535.469 551.403 534.759C547.954 533.694 545.139 532.629 542.959 531.564C540.778 530.499 538.902 528.927 537.33 526.848C535.758 524.769 534.971 522.056 534.971 518.709C534.971 513.739 536.772 509.834 540.372 507.02C543.973 504.205 548.664 502.785 554.445 502.785C560.227 502.785 565.07 504.205 568.67 507.02C572.271 509.834 574.198 513.764 574.452 518.785H560.379C560.277 517.061 559.643 515.691 558.477 514.703C557.311 513.714 555.815 513.232 553.989 513.232C552.417 513.232 551.149 513.663 550.185 514.5C549.222 515.336 548.74 516.553 548.74 518.1C548.74 519.824 549.551 521.168 551.174 522.132C552.797 523.095 555.333 524.135 558.781 525.251C562.23 526.417 565.019 527.533 567.174 528.598C569.33 529.663 571.181 531.209 572.778 533.238C574.35 535.266 575.136 537.878 575.136 541.073C575.136 544.268 574.35 546.879 572.803 549.364C571.257 551.849 569 553.827 566.059 555.297C563.117 556.768 559.643 557.503 555.637 557.503C551.631 557.503 548.233 556.87 545.139 555.602H545.165Z" fill="#101313"/>
<path d="M596.131 513.964V524.766H613.551V534.807H596.131V546.521H615.833V556.943H583.123V503.543H615.833V513.964H596.131Z" fill="#101313"/>
<defs>
<linearGradient id="paint0_linear_1322_473" x1="111.696" y1="258.378" x2="547.828" y2="258.378" gradientUnits="userSpaceOnUse">
<stop stop-color="#B6292F"/>
<stop offset="1" stop-color="#EB2529"/>
</linearGradient>
</defs>
</svg>
