<svg width="500" height="500" viewBox="0 0 500 500" fill="none" xmlns="http://www.w3.org/2000/svg">
<path d="M250 500C388.071 500 500 388.071 500 250C500 111.929 388.071 0 250 0C111.929 0 0 111.929 0 250C0 388.071 111.929 500 250 500Z" fill="url(#paint0_linear_1323_545)"/>
<path d="M387.646 164.564C374.564 163.692 361.774 163.692 348.692 164.564C333.285 166.308 336.773 182.297 336.773 182.297V247.994C303.925 242.762 251.018 244.215 248.692 244.215C246.367 244.215 195.785 242.762 162.936 247.994V182.297C162.936 182.297 166.425 166.308 151.018 164.564C137.936 163.692 125.146 163.692 112.064 164.564C112.064 164.564 89.6805 166.89 85.0293 189.274V300.611C85.0293 300.611 89.6804 326.192 113.518 331.134C137.355 336.076 227.18 336.076 248.692 336.076H248.983C270.494 336.076 362.646 336.076 386.483 331.134C410.32 326.192 414.971 300.611 414.971 300.611V189.564C410.029 167.181 387.646 164.564 387.646 164.564Z" fill="white"/>
<defs>
<linearGradient id="paint0_linear_1323_545" x1="0" y1="250" x2="500" y2="250" gradientUnits="userSpaceOnUse">
<stop stop-color="#B6292F"/>
<stop offset="1" stop-color="#EB2529"/>
</linearGradient>
</defs>
</svg>
