<svg width="660" height="600" viewBox="0 0 660 600" fill="none" xmlns="http://www.w3.org/2000/svg">
<mask id="mask0_1323_496" style="mask-type:luminance" maskUnits="userSpaceOnUse" x="0" y="0" width="660" height="597">
<path d="M659.27 0H0V596.374H659.27V0Z" fill="white"/>
</mask>
<g mask="url(#mask0_1323_496)">
<path d="M449.825 183.832C438.414 183.072 427.257 183.072 415.847 183.832C402.408 185.354 405.451 199.299 405.451 199.299V256.604C376.798 252.04 330.649 253.308 328.621 253.308C326.592 253.308 282.472 252.04 253.819 256.604V199.299C253.819 199.299 256.862 185.354 243.423 183.832C232.012 183.072 220.855 183.072 209.445 183.832C209.445 183.832 189.92 185.861 185.863 205.385V302.499C185.863 302.499 189.92 324.812 210.713 329.122C231.505 333.433 309.857 333.433 328.621 333.433H328.874C347.638 333.433 428.018 333.433 448.811 329.122C469.603 324.812 473.66 302.499 473.66 302.499V205.638C469.349 186.114 449.825 183.832 449.825 183.832Z" fill="#101313"/>
</g>
<path d="M452.614 534.684H443.182V546.474H452.766C454.947 546.474 456.621 545.967 457.838 545.004C459.029 544.015 459.638 542.569 459.638 540.693C459.638 538.817 459.004 537.346 457.762 536.281C456.519 535.216 454.795 534.684 452.64 534.684H452.614Z" fill="#101313"/>
<path d="M497.039 537.499H510.199L503.581 517.949L497.039 537.499Z" fill="#101313"/>
<path d="M228.437 514.602C224.126 514.602 220.678 515.996 218.142 518.785C215.581 521.574 214.313 525.353 214.313 530.119C214.313 534.886 215.581 538.588 218.142 541.428C220.703 544.243 224.126 545.663 228.437 545.663C232.748 545.663 236.095 544.243 238.681 541.403C241.242 538.563 242.535 534.81 242.535 530.145C242.535 525.479 241.242 521.676 238.681 518.836C236.12 516.021 232.722 514.602 228.437 514.602Z" fill="#101313"/>
<path d="M456.595 523.752C457.736 522.814 458.294 521.42 458.294 519.594C458.294 517.768 457.711 516.374 456.595 515.41C455.454 514.447 453.806 513.965 451.676 513.965H443.156V525.147H451.676C453.806 525.147 455.429 524.69 456.595 523.752Z" fill="#101313"/>
<path d="M626.306 460.288H490.852C550.085 412.948 588.018 340.126 588.018 258.378C588.018 115.624 472.392 0 329.635 0C186.878 0 71.2518 115.624 71.2518 258.378C71.2518 340.126 109.16 412.948 168.367 460.288H33.217C14.7067 460.288 0 475.248 0 493.505V566.784C0 585.293 14.9603 600 33.217 600H626.053C644.563 600 659.27 585.293 659.523 566.784V493.505C659.523 474.995 644.563 460.288 626.306 460.288ZM111.695 261.218C111.695 140.777 209.318 43.156 329.762 43.156C450.205 43.156 547.828 140.777 547.828 261.218C547.828 349.989 494.731 426.286 418.611 460.288H240.836C164.741 426.26 111.695 349.964 111.695 261.218ZM60.3992 541.351C62.8841 544.141 66.1298 545.535 70.1362 545.535C72.6211 545.535 74.8271 544.952 76.7796 543.786C78.732 542.619 80.228 540.92 81.3183 538.689H95.6195C94.0981 544.47 91.0806 549.034 86.5672 552.331C82.0537 555.652 76.6274 557.326 70.2883 557.326C65.1156 557.326 60.4753 556.159 56.3929 553.852C52.3105 551.545 49.141 548.35 46.8335 544.242C44.5514 540.134 43.4104 535.443 43.4104 530.169C43.4104 524.895 44.5514 520.179 46.8335 516.046C49.1156 511.913 52.2851 508.693 56.3929 506.385C60.4753 504.078 65.1156 502.912 70.2883 502.912C76.6274 502.912 82.0537 504.585 86.5672 507.932C91.0806 511.279 94.0981 515.843 95.6195 521.624H81.3183C80.2534 519.393 78.732 517.694 76.7796 516.528C74.8271 515.362 72.5958 514.778 70.1362 514.778C66.1298 514.778 62.8841 516.173 60.3992 518.962C57.9143 521.751 56.6718 525.479 56.6718 530.144C56.6718 534.81 57.9143 538.537 60.3992 541.326V541.351ZM138.371 513.967H116.615V525.225H132.894V535.342H116.615V556.945H103.607V503.546H138.371V513.967ZM159.974 541.351C162.459 544.141 165.705 545.535 169.711 545.535C172.196 545.535 174.402 544.952 176.355 543.786C178.307 542.619 179.803 540.92 180.894 538.689H195.195C193.673 544.47 190.656 549.034 186.142 552.331C181.629 555.652 176.203 557.326 169.863 557.326C164.691 557.326 160.05 556.159 155.968 553.852C151.886 551.545 148.716 548.35 146.409 544.242C144.127 540.134 142.985 535.443 142.985 530.169C142.985 524.895 144.127 520.179 146.409 516.046C148.691 511.913 151.86 508.693 155.968 506.385C160.05 504.078 164.691 502.912 169.863 502.912C176.203 502.912 181.629 504.585 186.142 507.932C190.656 511.279 193.673 515.843 195.195 521.624H180.894C179.829 519.393 178.307 517.694 176.355 516.528C174.402 515.362 172.171 514.778 169.711 514.778C165.705 514.778 162.459 516.173 159.974 518.962C157.489 521.751 156.247 525.479 156.247 530.144C156.247 534.81 157.489 538.537 159.974 541.326V541.351ZM252.095 544.217C249.66 548.4 246.364 551.671 242.206 554.004C238.047 556.337 233.458 557.503 228.437 557.503C223.416 557.503 218.827 556.337 214.643 554.004C210.459 551.671 207.138 548.4 204.678 544.217C202.218 540.033 201.001 535.342 201.001 530.119C201.001 524.895 202.218 520.205 204.678 516.046C207.138 511.888 210.459 508.642 214.643 506.309C218.827 503.977 223.416 502.81 228.437 502.81C233.458 502.81 238.072 503.977 242.256 506.309C246.44 508.642 249.737 511.888 252.145 516.046C254.554 520.205 255.746 524.895 255.746 530.119C255.746 535.342 254.529 540.058 252.095 544.217ZM307.473 535.418C307.473 540.185 306.459 544.217 304.431 547.513C302.402 550.809 299.663 553.294 296.24 554.968C292.817 556.641 289.014 557.478 284.805 557.478C280.595 557.478 276.817 556.641 273.496 555.018C270.174 553.37 267.537 550.885 265.635 547.564C263.708 544.242 262.744 540.21 262.744 535.418V503.546H275.752V535.494C275.752 538.689 276.538 541.149 278.11 542.873C279.683 544.597 281.99 545.459 285.033 545.459C288.076 545.459 290.408 544.597 292.031 542.873C293.654 541.149 294.465 538.689 294.465 535.494V503.546H307.473V535.418ZM331.359 541.351C333.844 544.141 337.09 545.535 341.096 545.535C343.581 545.535 345.787 544.952 347.739 543.786C349.692 542.619 351.188 540.92 352.278 538.689H366.579C365.058 544.47 362.041 549.034 357.527 552.331C353.014 555.652 347.587 557.326 341.248 557.326C336.075 557.326 331.435 556.159 327.353 553.852C323.27 551.545 320.101 548.35 317.793 544.242C315.511 540.134 314.37 535.443 314.37 530.169C314.37 524.895 315.511 520.179 317.793 516.046C320.075 511.913 323.245 508.693 327.353 506.385C331.435 504.078 336.075 502.912 341.248 502.912C347.587 502.912 353.014 504.585 357.527 507.932C362.041 511.279 365.058 515.843 366.579 521.624H352.278C351.213 519.393 349.692 517.694 347.739 516.528C345.787 515.362 343.556 514.778 341.096 514.778C337.09 514.778 333.844 516.173 331.359 518.962C328.874 521.751 327.632 525.479 327.632 530.144C327.632 534.81 328.874 538.537 331.359 541.326V541.351ZM420.817 556.971H407.809V534.987H387.575V556.971H374.567V503.571H387.575V524.49H407.809V503.571H420.817V556.971ZM468.082 553.041C464.963 555.652 460.601 556.945 455.023 556.945H430.148V503.546H454.186C459.613 503.546 463.847 504.788 466.941 507.273C470.009 509.758 471.53 513.13 471.53 517.39C471.53 520.534 470.693 523.146 469.045 525.225C467.397 527.304 465.191 528.75 462.452 529.561C465.546 530.22 468.031 531.767 469.907 534.15C471.784 536.559 472.722 539.323 472.722 542.391C472.722 546.854 471.15 550.404 468.031 553.015L468.082 553.041ZM516.741 556.971L513.546 547.538H493.616L490.421 556.971H476.804L496.126 503.571H511.188L530.509 556.971H516.741ZM572.829 549.364C571.283 551.849 569.026 553.827 566.085 555.297C563.143 556.768 559.669 557.503 555.663 557.503C551.657 557.503 548.259 556.869 545.165 555.602C542.072 554.334 539.612 552.457 537.761 549.972C535.91 547.488 534.921 544.496 534.82 540.996H548.665C548.867 542.974 549.552 544.496 550.718 545.535C551.885 546.575 553.406 547.082 555.283 547.082C557.159 547.082 558.731 546.651 559.847 545.763C560.963 544.876 561.52 543.659 561.52 542.061C561.52 540.743 561.064 539.653 560.202 538.791C559.314 537.928 558.224 537.218 556.931 536.661C555.638 536.103 553.787 535.469 551.403 534.759C547.955 533.694 545.14 532.629 542.959 531.564C540.779 530.499 538.902 528.927 537.33 526.848C535.758 524.769 534.972 522.056 534.972 518.709C534.972 513.739 536.772 509.834 540.373 507.019C543.974 504.205 548.665 502.785 554.446 502.785C560.227 502.785 565.07 504.205 568.671 507.019C572.272 509.834 574.199 513.764 574.452 518.785H560.379C560.278 517.06 559.644 515.691 558.478 514.702C557.311 513.713 555.815 513.232 553.99 513.232C552.417 513.232 551.15 513.663 550.186 514.499C549.223 515.336 548.741 516.553 548.741 518.1C548.741 519.824 549.552 521.168 551.175 522.132C552.798 523.095 555.333 524.135 558.782 525.25C562.23 526.417 565.02 527.532 567.175 528.597C569.33 529.662 571.181 531.209 572.779 533.238C574.351 535.266 575.137 537.878 575.137 541.073C575.137 544.267 574.351 546.879 572.804 549.364H572.829ZM615.834 513.967H596.132V524.769H613.552V534.81H596.132V546.524H615.834V556.945H583.124V503.546H615.834V513.967Z" fill="#101313"/>
</svg>
