<svg width="778" height="178" viewBox="0 0 778 178" fill="none" xmlns="http://www.w3.org/2000/svg">
<path d="M221.002 121.395H254.167V140.938H195.684V37.002H221.002V121.395Z" fill="#1D3366"/>
<path d="M288.582 135.645C280.439 131.104 273.974 124.754 269.187 116.611C264.4 108.468 262.014 99.3212 262.014 89.1546C262.014 78.988 264.4 69.8578 269.187 61.7639C273.974 53.6701 280.439 47.353 288.582 42.8126C296.725 38.2722 305.691 36.002 315.446 36.002C325.202 36.002 334.184 38.2722 342.311 42.8126C350.454 47.353 356.87 53.6701 361.558 61.7639C366.247 69.8578 368.583 78.988 368.583 89.1546C368.583 99.3212 366.214 108.484 361.476 116.611C356.738 124.754 350.322 131.104 342.228 135.645C334.135 140.185 325.202 142.455 315.43 142.455C305.658 142.455 296.709 140.185 288.566 135.645H288.582ZM335.368 111.067C340.353 105.54 342.837 98.2354 342.837 89.1546C342.837 80.0737 340.337 72.6379 335.368 67.1763C330.384 61.6981 323.754 58.9509 315.463 58.9509C307.172 58.9509 300.377 61.6652 295.409 67.094C290.425 72.5228 287.941 79.8763 287.941 89.1546C287.941 98.4328 290.425 105.671 295.409 111.149C300.394 116.627 307.073 119.358 315.463 119.358C323.853 119.358 330.384 116.595 335.368 111.067Z" fill="#1D3366"/>
<path d="M451.676 70.0387C449.8 66.584 447.102 63.9519 443.615 62.1259C440.111 60.2998 435.982 59.3786 431.244 59.3786C423.051 59.3786 416.487 62.0765 411.552 67.4559C406.617 72.8354 404.149 80.0244 404.149 88.9901C404.149 98.5645 406.749 106.05 411.931 111.429C417.113 116.808 424.236 119.49 433.317 119.49C439.535 119.49 444.799 117.911 449.077 114.752C453.37 111.594 456.496 107.053 458.486 101.131H426.358V82.4755H481.435V106.017C479.56 112.334 476.368 118.207 471.894 123.636C467.403 129.064 461.694 133.457 454.785 136.813C447.876 140.169 440.078 141.847 431.392 141.847C421.127 141.847 411.963 139.609 403.935 135.102C395.891 130.611 389.623 124.376 385.132 116.381C380.641 108.386 378.404 99.2554 378.404 88.9901C378.404 78.7248 380.641 69.5781 385.132 61.5336C389.623 53.4892 395.858 47.2214 403.87 42.7303C411.865 38.2393 420.995 36.002 431.26 36.002C443.697 36.002 454.176 39.0125 462.714 45.0335C471.252 51.0545 476.895 59.395 479.659 70.0552H451.676V70.0387Z" fill="#1D3366"/>
<path d="M568.103 96.681C571.825 101.456 573.685 106.917 573.685 113.049C573.685 121.894 570.584 128.914 564.399 134.09C558.214 139.267 549.582 141.847 538.519 141.847H489.188V36.002H536.859C547.62 36.002 556.035 38.4646 562.136 43.39C568.221 48.3154 571.255 54.9998 571.255 63.4432C571.255 69.6753 569.612 74.852 566.36 78.9732C563.092 83.0944 558.734 85.9592 553.303 87.5675C559.438 88.8742 564.366 91.9232 568.087 96.681H568.103ZM515.002 78.8224H531.898C536.122 78.8224 539.374 77.901 541.636 76.0247C543.899 74.1651 545.022 71.4344 545.022 67.8158C545.022 64.1971 543.899 61.4329 541.636 59.5231C539.374 57.6132 536.122 56.6583 531.898 56.6583H515.002V78.8224ZM544.033 118.108C546.397 116.148 547.587 113.317 547.587 109.598C547.587 105.878 546.347 102.963 543.883 100.853C541.419 98.7417 538.016 97.6862 533.691 97.6862H514.985V121.057H533.993C538.318 121.057 541.653 120.085 544.017 118.125L544.033 118.108Z" fill="#1D3366"/>
<path d="M747.327 141.847L725.607 109.43L706.469 141.847H677.003L711.178 88.0198L676.244 36.002H706.469L727.885 67.9665L746.719 36.002H776.185L742.315 89.3768L777.552 141.847H747.327Z" fill="#1D3366"/>
<path d="M641.997 136.193C616.456 136.193 595.752 115.552 595.752 90.0875C595.752 64.6234 616.456 43.9824 641.997 43.9824C654.878 43.9824 666.522 49.2359 674.908 57.7116C665.248 44.5545 649.645 36 632.032 36C602.695 36 578.913 59.7059 578.913 88.9539C578.913 118.202 602.695 141.908 632.027 141.908C645.26 141.908 657.357 137.069 666.664 129.081C659.521 133.584 651.067 136.198 641.997 136.198" fill="#1D3366"/>
<path d="M657.895 51.3945C669.013 57.8865 676.488 69.9153 676.488 83.6864C676.488 104.343 659.69 121.085 638.976 121.09C619.699 121.09 603.828 106.595 601.712 87.9427C601.675 88.6774 601.649 89.4122 601.649 90.1522C601.649 113.034 620.257 131.581 643.203 131.581C666.149 131.581 684.758 113.029 684.758 90.1522C684.758 72.4291 673.592 57.3145 657.895 51.3945Z" fill="#1D3366"/>
<path d="M637.86 54.2598C623.915 54.2598 612.14 63.507 608.355 76.1866C612.582 66.7819 622.052 60.2322 633.059 60.2322C648.009 60.2322 660.127 72.3134 660.127 87.2182C660.127 102.123 648.009 114.204 633.059 114.204C630.617 114.204 628.248 113.874 625.995 113.27C629.643 114.792 633.654 115.632 637.86 115.637C654.863 115.637 668.639 101.892 668.639 84.9457C668.639 67.9942 654.857 54.2598 637.86 54.2598Z" fill="#1D3366"/>
<g clip-path="url(#clip0_733_6281)">
<path fill-rule="evenodd" clip-rule="evenodd" d="M87.8465 93.1171C87.8465 91.3182 86.5823 89.0967 85.0343 88.1791L76.9837 83.4029C75.4389 82.4853 74.1714 83.2048 74.1714 85.0038V94.2493C74.1714 96.0482 75.4455 98.2531 77.0002 99.1542L85.0112 103.779C86.5691 104.676 87.8432 103.944 87.8432 102.145V93.1204L87.8465 93.1171Z" fill="url(#paint0_linear_733_6281)"/>
<path fill-rule="evenodd" clip-rule="evenodd" d="M86.1531 86.242C87.6979 87.1596 90.2296 87.1596 91.7743 86.242L99.8118 81.4624C101.357 80.5415 101.347 79.0562 99.7886 78.155L91.7941 73.5405C90.2362 72.6427 87.688 72.6427 86.1333 73.5405L78.1256 78.1649C76.5676 79.0628 76.561 80.5514 78.1058 81.469L86.1564 86.2486V86.242H86.1531Z" fill="#33CFFF"/>
<path fill-rule="evenodd" clip-rule="evenodd" d="M92.8934 88.1774C91.3487 89.0983 90.0845 91.3197 90.0845 93.1187V102.14C90.0845 103.939 91.3586 104.675 92.9165 103.774L100.924 99.1525C102.482 98.2547 103.756 96.0465 103.756 94.2475V84.9855C103.756 83.1866 102.492 82.4703 100.947 83.388L92.8967 88.1774H92.8934Z" fill="url(#paint1_linear_733_6281)"/>
<path d="M60.8198 23.6362V52.8845C60.8198 57.6508 60.6085 61.0011 60.1827 62.942C59.7602 64.8828 59.0274 66.4441 57.9943 67.6258C56.3703 69.5468 54.3733 70.9134 52.01 71.7253C49.6466 72.5373 46.3755 72.9433 42.2 72.9433H39.7806V55.0993L8.4165 86.4633H43.6953C51.3069 86.4633 56.9611 85.8263 60.6547 84.5522C64.3483 83.2781 67.6557 81.0732 70.5736 77.9308C73.2703 75.1219 75.1716 71.9465 76.2806 68.3982C77.3897 64.8531 77.9442 59.8656 77.9442 53.4357V5L60.8198 23.6362Z" fill="#33CFFF"/>
<path d="M169.584 86.4633L138.22 55.0993V72.9433H135.8C131.625 72.9433 128.354 72.5373 125.99 71.7253C123.627 70.9134 121.63 69.5468 120.006 67.6258C118.973 66.4441 118.243 64.8828 117.818 62.942C117.392 61.0044 117.181 57.6508 117.181 52.8845V23.6362L100.056 5V53.439C100.056 59.8656 100.614 64.8531 101.72 68.4015C102.826 71.9498 104.73 75.1252 107.427 77.9341C110.345 81.0732 113.652 83.2814 117.346 84.5555C121.039 85.8296 126.693 86.4666 134.305 86.4666H155.975L169.584 86.4633Z" fill="#0D87C5"/>
<path d="M76.2773 109.598C75.1716 106.049 73.267 102.874 70.5703 100.065C67.6524 96.9261 64.345 94.7179 60.6514 93.4438C56.9578 92.1697 51.3036 91.5326 43.692 91.5326L22.0223 91.5293V91.5359H8.4165L39.7806 122.9V105.053H42.1967C46.3722 105.053 49.6433 105.459 52.0067 106.271C54.37 107.083 56.367 108.449 57.991 110.37C59.0241 111.552 59.7536 113.113 60.1794 115.054C60.6052 116.992 60.8164 120.345 60.8164 125.111V154.36L77.9409 172.996V124.56C77.9409 118.134 77.3864 113.146 76.2773 109.598Z" fill="#0D87C5"/>
<path d="M169.584 91.5371H134.305C126.693 91.5371 121.039 92.1742 117.346 93.4483C113.652 94.7224 110.345 96.9273 107.427 100.07C104.73 102.879 102.829 106.054 101.72 109.602C100.611 113.147 100.056 118.135 100.056 124.565V173L117.181 154.364V125.116C117.181 120.353 117.392 116.999 117.818 115.058C118.24 113.118 118.97 111.556 120.006 110.375C121.63 108.454 123.627 107.087 125.99 106.275C128.354 105.463 131.625 105.057 135.8 105.057H138.22V122.901L169.584 91.5371Z" fill="#33CFFF"/>
</g>
<defs>
<linearGradient id="paint0_linear_733_6281" x1="85.0188" y1="87.982" x2="72.3846" y2="97.5835" gradientUnits="userSpaceOnUse">
<stop offset="0.278846" stop-color="#33CFFF"/>
<stop offset="1" stop-color="#0D87C5"/>
</linearGradient>
<linearGradient id="paint1_linear_733_6281" x1="100.929" y1="87.9692" x2="88.2907" y2="97.5663" gradientUnits="userSpaceOnUse">
<stop offset="0.278846" stop-color="#33CFFF"/>
<stop offset="1" stop-color="#0D87C5"/>
</linearGradient>
<clipPath id="clip0_733_6281">
<rect width="161.167" height="168" fill="white" transform="translate(8.4165 5)"/>
</clipPath>
</defs>
</svg>
