<svg width="219" height="50" viewBox="0 0 219 50" fill="none" xmlns="http://www.w3.org/2000/svg">
<path d="M62.0781 34.0964H71.3942V39.5862H54.9663V10.3906H62.0781V34.0964Z" fill="white"/>
<path d="M81.0621 38.1067C78.7747 36.8313 76.9586 35.0476 75.6139 32.7602C74.2692 30.4728 73.5991 27.9035 73.5991 25.0477C73.5991 22.1919 74.2692 19.6272 75.6139 17.3537C76.9586 15.0802 78.7747 13.3057 81.0621 12.0303C83.3495 10.7549 85.868 10.1172 88.6083 10.1172C91.3486 10.1172 93.8717 10.7549 96.1545 12.0303C98.4419 13.3057 100.244 15.0802 101.561 17.3537C102.878 19.6272 103.534 22.1919 103.534 25.0477C103.534 27.9035 102.869 30.4774 101.538 32.7602C100.207 35.0476 98.4049 36.8313 96.1314 38.1067C93.8578 39.3821 91.3486 40.0198 88.6037 40.0198C85.8588 40.0198 83.3449 39.3821 81.0575 38.1067H81.0621ZM94.2044 31.2029C95.6046 29.6502 96.3024 27.5985 96.3024 25.0477C96.3024 22.4969 95.6 20.4082 94.2044 18.874C92.8042 17.3352 90.9419 16.5635 88.6129 16.5635C86.2839 16.5635 84.3754 17.326 82.9799 18.8509C81.5797 20.3758 80.8819 22.4414 80.8819 25.0477C80.8819 27.654 81.5797 29.6872 82.9799 31.226C84.38 32.7648 86.2562 33.5319 88.6129 33.5319C90.9697 33.5319 92.8042 32.7556 94.2044 31.2029Z" fill="white"/>
<path d="M126.877 19.6781C126.35 18.7077 125.592 17.9683 124.613 17.4554C123.628 16.9424 122.469 16.6837 121.138 16.6837C118.836 16.6837 116.993 17.4415 115.606 18.9526C114.22 20.4637 113.527 22.483 113.527 25.0015C113.527 27.6909 114.257 29.7935 115.713 31.3046C117.168 32.8156 119.169 33.5689 121.72 33.5689C123.467 33.5689 124.945 33.1252 126.147 32.238C127.353 31.3508 128.231 30.0754 128.79 28.4118H119.765V23.1716H135.237V29.7842C134.71 31.5587 133.813 33.2084 132.556 34.7334C131.295 36.2583 129.691 37.4921 127.75 38.4348C125.81 39.3775 123.619 39.8488 121.179 39.8488C118.296 39.8488 115.722 39.2204 113.467 37.9542C111.207 36.6927 109.446 34.9413 108.185 32.6955C106.923 30.4497 106.295 27.885 106.295 25.0015C106.295 22.118 106.923 19.5487 108.185 17.289C109.446 15.0293 111.198 13.2687 113.448 12.0072C115.694 10.7456 118.259 10.1172 121.142 10.1172C124.636 10.1172 127.579 10.9628 129.978 12.6541C132.376 14.3454 133.961 16.6883 134.737 19.6827H126.877V19.6781Z" fill="white"/>
<path d="M159.58 27.1619C160.626 28.503 161.148 30.0372 161.148 31.7595C161.148 34.2442 160.277 36.216 158.54 37.6701C156.802 39.1242 154.378 39.8489 151.27 39.8489H137.413V10.1172H150.804C153.827 10.1172 156.19 10.809 157.904 12.1925C159.613 13.576 160.466 15.4537 160.466 17.8254C160.466 19.576 160.004 21.0301 159.091 22.1878C158.173 23.3454 156.948 24.1501 155.423 24.6019C157.146 24.9689 158.53 25.8254 159.576 27.1619H159.58ZM144.664 22.1454H149.41C150.597 22.1454 151.51 21.8866 152.146 21.3595C152.781 20.8372 153.097 20.0701 153.097 19.0536C153.097 18.0372 152.781 17.2607 152.146 16.7242C151.51 16.1878 150.597 15.9195 149.41 15.9195H144.664V22.1454ZM152.819 33.1807C153.483 32.6301 153.817 31.8348 153.817 30.7901C153.817 29.7454 153.469 28.9266 152.777 28.3336C152.085 27.7407 151.129 27.4442 149.914 27.4442H144.659V34.0089H149.999C151.213 34.0089 152.15 33.736 152.814 33.1854L152.819 33.1807Z" fill="white"/>
<path d="M209.925 39.8489L203.824 30.743L198.448 39.8489H190.171L199.771 24.7289L189.958 10.1172H198.448L204.464 19.096L209.754 10.1172H218.031L208.517 25.1101L218.415 39.8489H209.925Z" fill="white"/>
<path d="M180.34 38.2612C173.165 38.2612 167.349 32.4631 167.349 25.3103C167.349 18.1575 173.165 12.3594 180.34 12.3594C183.958 12.3594 187.229 13.8351 189.584 16.216C186.871 12.5201 182.488 10.1172 177.54 10.1172C169.3 10.1172 162.619 16.7762 162.619 24.9919C162.619 33.2076 169.3 39.8666 177.539 39.8666C181.256 39.8666 184.654 38.5074 187.269 36.2636C185.262 37.5285 182.887 38.2626 180.34 38.2626" fill="white"/>
<path d="M184.805 14.4336C187.928 16.2572 190.028 19.636 190.028 23.5044C190.028 29.3068 185.31 34.0095 179.491 34.011C174.076 34.011 169.618 29.9392 169.024 24.6999C169.013 24.9063 169.006 25.1127 169.006 25.3206C169.006 31.7481 174.233 36.9579 180.678 36.9579C187.124 36.9579 192.351 31.7466 192.351 25.3206C192.351 20.3422 189.215 16.0965 184.805 14.4336Z" fill="white"/>
<path d="M179.179 15.2344C175.262 15.2344 171.954 17.8319 170.891 21.3936C172.078 18.7518 174.738 16.912 177.83 16.912C182.029 16.912 185.433 20.3056 185.433 24.4924C185.433 28.6791 182.029 32.0727 177.83 32.0727C177.144 32.0727 176.479 31.9798 175.846 31.8103C176.87 32.2378 177.997 32.4737 179.179 32.4752C183.955 32.4752 187.824 28.6142 187.824 23.854C187.824 19.0924 183.953 15.2344 179.179 15.2344Z" fill="white"/>
<g clip-path="url(#clip0_733_6402)">
<path fill-rule="evenodd" clip-rule="evenodd" d="M24.7252 25.9802C24.7252 25.5519 24.4242 25.0229 24.0556 24.8045L22.1388 23.6673C21.771 23.4488 21.4692 23.6201 21.4692 24.0484V26.2497C21.4692 26.678 21.7726 27.203 22.1428 27.4176L24.0501 28.5186C24.4211 28.7324 24.7244 28.5579 24.7244 28.1296V25.981L24.7252 25.9802Z" fill="url(#paint0_linear_733_6402)"/>
<path fill-rule="evenodd" clip-rule="evenodd" d="M24.3221 24.3427C24.6899 24.5612 25.2926 24.5612 25.6604 24.3427L27.5741 23.2047C27.9419 22.9854 27.9396 22.6318 27.5686 22.4172L25.6652 21.3185C25.2942 21.1048 24.6875 21.1048 24.3173 21.3185L22.4107 22.4196C22.0398 22.6333 22.0382 22.9878 22.406 23.2063L24.3228 24.3442V24.3427H24.3221Z" fill="#33CFFF"/>
<path fill-rule="evenodd" clip-rule="evenodd" d="M25.9271 24.8039C25.5593 25.0231 25.2583 25.552 25.2583 25.9804V28.1282C25.2583 28.5565 25.5617 28.7318 25.9326 28.5172L27.8392 27.417C28.2101 27.2032 28.5135 26.6775 28.5135 26.2491V24.0439C28.5135 23.6156 28.2125 23.445 27.8447 23.6635L25.9279 24.8039H25.9271Z" fill="url(#paint1_linear_733_6402)"/>
<path d="M18.2904 9.4372V16.4011C18.2904 17.5359 18.2401 18.3336 18.1388 18.7957C18.0382 19.2578 17.8637 19.6295 17.6177 19.9109C17.231 20.3683 16.7556 20.6937 16.1929 20.887C15.6302 21.0803 14.8513 21.177 13.8572 21.177H13.2811V16.9284L5.81348 24.396H14.2132C16.0255 24.396 17.3717 24.2444 18.2511 23.941C19.1306 23.6376 19.918 23.1127 20.6128 22.3645C21.2549 21.6957 21.7075 20.9396 21.9716 20.0948C22.2357 19.2507 22.3677 18.0632 22.3677 16.5323V5L18.2904 9.4372Z" fill="#33CFFF"/>
<path d="M44.1865 24.396L36.7189 16.9284V21.177H36.1428C35.1487 21.177 34.3699 21.0803 33.8071 20.887C33.2444 20.6937 32.769 20.3683 32.3823 19.9109C32.1363 19.6295 31.9626 19.2578 31.8613 18.7957C31.7599 18.3344 31.7096 17.5359 31.7096 16.4011V9.4372L27.6323 5V16.5331C27.6323 18.0632 27.7651 19.2507 28.0284 20.0956C28.2917 20.9404 28.7452 21.6965 29.3872 22.3653C30.082 23.1127 30.8695 23.6384 31.7489 23.9418C32.6283 24.2451 33.9745 24.3968 35.7868 24.3968H40.9463L44.1865 24.396Z" fill="#0D87C5"/>
<path d="M21.9708 29.9036C21.7075 29.0587 21.2541 28.3027 20.612 27.6339C19.9173 26.8865 19.1298 26.3607 18.2504 26.0574C17.3709 25.754 16.0247 25.6023 14.2124 25.6023L9.05296 25.6016V25.6031H5.81348L13.2811 33.0708V28.8214H13.8564C14.8506 28.8214 15.6294 28.9181 16.1921 29.1114C16.7548 29.3047 17.2303 29.6301 17.6169 30.0875C17.8629 30.3688 18.0366 30.7406 18.138 31.2027C18.2394 31.664 18.2897 32.4625 18.2897 33.5973V40.5612L22.3669 44.9984V33.4661C22.3669 31.9359 22.2349 30.7484 21.9708 29.9036Z" fill="#0D87C5"/>
<path d="M44.1865 25.6035H35.7868C33.9745 25.6035 32.6283 25.7552 31.7489 26.0586C30.8695 26.3619 30.082 26.8869 29.3872 27.6351C28.7452 28.3039 28.2925 29.0599 28.0284 29.9048C27.7644 30.7488 27.6323 31.9363 27.6323 33.4672V44.9996L31.7096 40.5624V33.5985C31.7096 32.4644 31.7599 31.666 31.8613 31.2038C31.9619 30.7417 32.1355 30.37 32.3823 30.0887C32.769 29.6313 33.2444 29.3059 33.8071 29.1126C34.3699 28.9192 35.1487 28.8226 36.1428 28.8226H36.7189V33.0711L44.1865 25.6035Z" fill="#33CFFF"/>
</g>
<defs>
<linearGradient id="paint0_linear_733_6402" x1="24.052" y1="24.7575" x2="21.0438" y2="27.0436" gradientUnits="userSpaceOnUse">
<stop offset="0.278846" stop-color="#33CFFF"/>
<stop offset="1" stop-color="#0D87C5"/>
</linearGradient>
<linearGradient id="paint1_linear_733_6402" x1="27.8404" y1="24.7543" x2="24.8312" y2="27.0393" gradientUnits="userSpaceOnUse">
<stop offset="0.278846" stop-color="#33CFFF"/>
<stop offset="1" stop-color="#0D87C5"/>
</linearGradient>
<clipPath id="clip0_733_6402">
<rect width="38.3732" height="40" fill="white" transform="translate(5.81348 5)"/>
</clipPath>
</defs>
</svg>
