<svg width="778" height="178" viewBox="0 0 778 178" fill="none" xmlns="http://www.w3.org/2000/svg">
<path d="M221.001 121.395H254.166V140.938H195.684V37.002H221.001V121.395Z" fill="#1D3366"/>
<path d="M288.582 135.645C280.439 131.104 273.973 124.754 269.186 116.611C264.399 108.468 262.014 99.3212 262.014 89.1546C262.014 78.988 264.399 69.8578 269.186 61.7639C273.973 53.6701 280.439 47.353 288.582 42.8126C296.725 38.2722 305.691 36.002 315.446 36.002C325.201 36.002 334.183 38.2722 342.31 42.8126C350.453 47.353 356.869 53.6701 361.558 61.7639C366.246 69.8578 368.582 78.988 368.582 89.1546C368.582 99.3212 366.213 108.484 361.475 116.611C356.738 124.754 350.322 131.104 342.228 135.645C334.134 140.185 325.201 142.455 315.43 142.455C305.658 142.455 296.708 140.185 288.565 135.645H288.582ZM335.368 111.067C340.353 105.54 342.837 98.2354 342.837 89.1546C342.837 80.0737 340.336 72.6379 335.368 67.1763C330.383 61.6981 323.754 58.9509 315.462 58.9509C307.171 58.9509 300.377 61.6652 295.409 67.094C290.424 72.5228 287.94 79.8763 287.94 89.1546C287.94 98.4328 290.424 105.671 295.409 111.149C300.393 116.627 307.072 119.358 315.462 119.358C323.852 119.358 330.383 116.595 335.368 111.067Z" fill="#1D3366"/>
<path d="M451.675 70.0387C449.8 66.584 447.102 63.9519 443.614 62.1259C440.11 60.2998 435.981 59.3786 431.243 59.3786C423.051 59.3786 416.487 62.0765 411.552 67.4559C406.616 72.8354 404.149 80.0244 404.149 88.9901C404.149 98.5645 406.748 106.05 411.93 111.429C417.112 116.808 424.235 119.49 433.316 119.49C439.535 119.49 444.799 117.911 449.076 114.752C453.37 111.594 456.495 107.053 458.486 101.131H426.357V82.4755H481.435V106.017C479.559 112.334 476.368 118.207 471.893 123.636C467.402 129.064 461.694 133.457 454.785 136.813C447.875 140.169 440.077 141.847 431.391 141.847C421.126 141.847 411.963 139.609 403.935 135.102C395.891 130.611 389.623 124.376 385.132 116.381C380.641 108.386 378.403 99.2554 378.403 88.9901C378.403 78.7248 380.641 69.5781 385.132 61.5336C389.623 53.4892 395.858 47.2214 403.869 42.7303C411.864 38.2393 420.995 36.002 431.26 36.002C443.697 36.002 454.176 39.0125 462.714 45.0335C471.252 51.0545 476.894 59.395 479.658 70.0552H451.675V70.0387Z" fill="#1D3366"/>
<path d="M568.102 96.681C571.824 101.456 573.684 106.917 573.684 113.049C573.684 121.894 570.583 128.914 564.398 134.09C558.213 139.267 549.581 141.847 538.518 141.847H489.188V36.002H536.858C547.619 36.002 556.034 38.4646 562.135 43.39C568.22 48.3154 571.254 54.9998 571.254 63.4432C571.254 69.6753 569.611 74.852 566.359 78.9732C563.091 83.0944 558.733 85.9592 553.302 87.5675C559.437 88.8742 564.365 91.9232 568.086 96.681H568.102ZM515.001 78.8224H531.897C536.121 78.8224 539.373 77.901 541.635 76.0247C543.898 74.1651 545.021 71.4344 545.021 67.8158C545.021 64.1971 543.898 61.4329 541.635 59.5231C539.373 57.6132 536.121 56.6583 531.897 56.6583H515.001V78.8224ZM544.032 118.108C546.396 116.148 547.586 113.317 547.586 109.598C547.586 105.878 546.346 102.963 543.882 100.853C541.418 98.7417 538.015 97.6862 533.69 97.6862H514.984V121.057H533.992C538.317 121.057 541.652 120.085 544.016 118.125L544.032 118.108Z" fill="#1D3366"/>
<path d="M747.326 141.847L725.607 109.43L706.469 141.847H677.003L711.177 88.0198L676.243 36.002H706.469L727.885 67.9665L746.719 36.002H776.185L742.314 89.3768L777.552 141.847H747.326Z" fill="#1D3366"/>
<path d="M641.996 136.193C616.455 136.193 595.752 115.552 595.752 90.0875C595.752 64.6234 616.455 43.9824 641.996 43.9824C654.877 43.9824 666.521 49.2359 674.907 57.7116C665.248 44.5545 649.645 36 632.031 36C602.695 36 578.912 59.7059 578.912 88.9539C578.912 118.202 602.695 141.908 632.026 141.908C645.26 141.908 657.357 137.069 666.664 129.081C659.52 133.584 651.066 136.198 641.996 136.198" fill="#1D3366"/>
<path d="M657.895 51.3945C669.012 57.8865 676.487 69.9153 676.487 83.6864C676.487 104.343 659.69 121.085 638.976 121.09C619.699 121.09 603.828 106.595 601.712 87.9427C601.675 88.6774 601.648 89.4122 601.648 90.1522C601.648 113.034 620.257 131.581 643.203 131.581C666.149 131.581 684.757 113.029 684.757 90.1522C684.757 72.4291 673.592 57.3145 657.895 51.3945Z" fill="#1D3366"/>
<path d="M637.859 54.2598C623.915 54.2598 612.139 63.507 608.354 76.1866C612.582 66.7819 622.052 60.2322 633.059 60.2322C648.008 60.2322 660.126 72.3134 660.126 87.2182C660.126 102.123 648.008 114.204 633.059 114.204C630.616 114.204 628.247 113.874 625.994 113.27C629.642 114.792 633.653 115.632 637.859 115.637C654.862 115.637 668.638 101.892 668.638 84.9457C668.638 67.9942 654.857 54.2598 637.859 54.2598Z" fill="#1D3366"/>
<g clip-path="url(#clip0_733_6282)">
<path fill-rule="evenodd" clip-rule="evenodd" d="M87.846 93.1171C87.846 91.3182 86.5818 89.0967 85.0338 88.1791L76.9832 83.4029C75.4384 82.4853 74.1709 83.2048 74.1709 85.0038V94.2493C74.1709 96.0482 75.445 98.2531 76.9997 99.1542L85.0107 103.779C86.5686 104.676 87.8427 103.944 87.8427 102.145V93.1204L87.846 93.1171Z" fill="#1D3366"/>
<path fill-rule="evenodd" clip-rule="evenodd" d="M86.1531 86.242C87.6979 87.1596 90.2296 87.1596 91.7743 86.242L99.8118 81.4624C101.357 80.5415 101.347 79.0562 99.7886 78.155L91.7941 73.5405C90.2362 72.6427 87.688 72.6427 86.1333 73.5405L78.1256 78.1649C76.5676 79.0628 76.561 80.5514 78.1058 81.469L86.1564 86.2486V86.242H86.1531Z" fill="#1D3366"/>
<path fill-rule="evenodd" clip-rule="evenodd" d="M92.8929 88.1774C91.3482 89.0983 90.084 91.3197 90.084 93.1187V102.14C90.084 103.939 91.3581 104.675 92.9161 103.774L100.924 99.1525C102.482 98.2547 103.756 96.0465 103.756 94.2475V84.9855C103.756 83.1866 102.492 82.4703 100.947 83.388L92.8963 88.1774H92.8929Z" fill="#1D3366"/>
<path d="M60.8193 23.6362V52.8845C60.8193 57.6508 60.608 61.0011 60.1822 62.942C59.7597 64.8828 59.0269 66.4441 57.9938 67.6258C56.3698 69.5468 54.3728 70.9134 52.0095 71.7253C49.6461 72.5373 46.375 72.9433 42.1995 72.9433H39.7801V55.0993L8.41602 86.4633H43.6948C51.3064 86.4633 56.9606 85.8263 60.6542 84.5522C64.3478 83.2781 67.6552 81.0732 70.5731 77.9308C73.2698 75.1219 75.1711 71.9465 76.2801 68.3982C77.3892 64.8531 77.9437 59.8656 77.9437 53.4357V5L60.8193 23.6362Z" fill="#1D3366"/>
<path d="M169.583 86.4633L138.219 55.0993V72.9433H135.8C131.624 72.9433 128.353 72.5373 125.99 71.7253C123.627 70.9134 121.63 69.5468 120.006 67.6258C118.972 66.4441 118.243 64.8828 117.817 62.942C117.391 61.0044 117.18 57.6508 117.18 52.8845V23.6362L100.056 5V53.439C100.056 59.8656 100.613 64.8531 101.719 68.4015C102.825 71.9498 104.73 75.1252 107.426 77.9341C110.344 81.0732 113.652 83.2814 117.345 84.5555C121.039 85.8296 126.693 86.4666 134.305 86.4666H155.974L169.583 86.4633Z" fill="#1D3366"/>
<path d="M76.2768 109.598C75.1711 106.049 73.2665 102.874 70.5698 100.065C67.6519 96.9261 64.3445 94.7179 60.6509 93.4438C56.9573 92.1697 51.3031 91.5326 43.6915 91.5326L22.0218 91.5293V91.5359H8.41602L39.7801 122.9V105.053H42.1962C46.3717 105.053 49.6428 105.459 52.0062 106.271C54.3695 107.083 56.3665 108.449 57.9905 110.37C59.0236 111.552 59.7531 113.113 60.1789 115.054C60.6047 116.992 60.816 120.345 60.816 125.111V154.36L77.9404 172.996V124.56C77.9404 118.134 77.3859 113.146 76.2768 109.598Z" fill="#1D3366"/>
<path d="M169.583 91.5371H134.305C126.693 91.5371 121.039 92.1742 117.345 93.4483C113.652 94.7224 110.344 96.9273 107.426 100.07C104.73 102.879 102.828 106.054 101.719 109.602C100.61 113.147 100.056 118.135 100.056 124.565V173L117.18 154.364V125.116C117.18 120.353 117.391 116.999 117.817 115.058C118.24 113.118 118.969 111.556 120.006 110.375C121.63 108.454 123.627 107.087 125.99 106.275C128.353 105.463 131.624 105.057 135.8 105.057H138.219V122.901L169.583 91.5371Z" fill="#1D3366"/>
</g>
<defs>
<clipPath id="clip0_733_6282">
<rect width="161.167" height="168" fill="white" transform="translate(8.41602 5)"/>
</clipPath>
</defs>
</svg>
