<svg width="491" height="600" viewBox="0 0 491 600" fill="none" xmlns="http://www.w3.org/2000/svg">
<path d="M68.7486 586.035H90.7396V598.994H51.9609V530.076H68.7486V586.035Z" fill="white"/>
<path d="M113.559 595.485C108.16 592.474 103.873 588.264 100.698 582.864C97.5241 577.465 95.9424 571.4 95.9424 564.658C95.9424 557.917 97.5241 551.863 100.698 546.496C103.873 541.129 108.16 536.941 113.559 533.93C118.959 530.919 124.904 529.414 131.372 529.414C137.841 529.414 143.797 530.919 149.185 533.93C154.585 536.941 158.839 541.129 161.948 546.496C165.057 551.863 166.606 557.917 166.606 564.658C166.606 571.4 165.035 577.476 161.893 582.864C158.752 588.264 154.498 592.474 149.131 595.485C143.764 598.496 137.841 600.001 131.361 600.001C124.882 600.001 118.948 598.496 113.548 595.485H113.559ZM144.582 579.188C147.887 575.523 149.534 570.68 149.534 564.658C149.534 558.637 147.876 553.707 144.582 550.085C141.277 546.453 136.881 544.631 131.383 544.631C125.885 544.631 121.38 546.431 118.086 550.031C114.781 553.63 113.134 558.506 113.134 564.658C113.134 570.811 114.781 575.61 118.086 579.243C121.391 582.875 125.82 584.686 131.383 584.686C136.946 584.686 141.277 582.853 144.582 579.188Z" fill="white"/>
<path d="M221.703 551.983C220.46 549.692 218.671 547.947 216.358 546.736C214.035 545.525 211.297 544.915 208.155 544.915C202.723 544.915 198.371 546.704 195.098 550.271C191.826 553.838 190.189 558.604 190.189 564.549C190.189 570.898 191.913 575.861 195.349 579.428C198.785 582.995 203.508 584.773 209.53 584.773C213.653 584.773 217.144 583.726 219.98 581.632C222.827 579.537 224.899 576.527 226.219 572.6H204.916V560.23H241.436V575.839C240.193 580.028 238.076 583.922 235.109 587.522C232.131 591.122 228.346 594.034 223.765 596.259C219.183 598.485 214.013 599.597 208.253 599.597C201.447 599.597 195.371 598.114 190.048 595.125C184.714 592.147 180.558 588.013 177.58 582.712C174.602 577.41 173.118 571.356 173.118 564.549C173.118 557.743 174.602 551.678 177.58 546.344C180.558 541.009 184.692 536.853 190.004 533.876C195.305 530.898 201.359 529.414 208.166 529.414C216.413 529.414 223.361 531.41 229.023 535.403C234.684 539.395 238.426 544.926 240.258 551.994H221.703V551.983Z" fill="white"/>
<path d="M298.903 569.649C301.37 572.815 302.604 576.436 302.604 580.502C302.604 586.367 300.548 591.022 296.447 594.454C292.345 597.887 286.622 599.598 279.286 599.598H246.576V529.414H278.186C285.321 529.414 290.901 531.047 294.946 534.313C298.981 537.579 300.993 542.011 300.993 547.61C300.993 551.742 299.903 555.175 297.747 557.907C295.58 560.64 292.69 562.54 289.089 563.606C293.157 564.473 296.424 566.494 298.892 569.649H298.903ZM263.692 557.807H274.896C277.697 557.807 279.853 557.196 281.353 555.952C282.854 554.719 283.598 552.909 283.598 550.509C283.598 548.11 282.854 546.277 281.353 545.01C279.853 543.744 277.697 543.111 274.896 543.111H263.692V557.807ZM282.943 583.857C284.51 582.557 285.299 580.68 285.299 578.214C285.299 575.748 284.476 573.815 282.843 572.415C281.209 571.015 278.953 570.316 276.085 570.316H263.681V585.812H276.285C279.153 585.812 281.364 585.168 282.932 583.868L282.943 583.857Z" fill="white"/>
<path d="M417.743 599.598L403.341 578.103L390.651 599.598H371.113L393.773 563.906L370.609 529.414H390.651L404.852 550.609L417.34 529.414H436.879L414.42 564.806L437.785 599.598H417.743Z" fill="white"/>
<path d="M347.902 595.848C330.966 595.848 317.238 582.161 317.238 565.276C317.238 548.392 330.966 534.705 347.902 534.705C356.443 534.705 364.164 538.189 369.724 543.809C363.319 535.084 352.974 529.412 341.295 529.412C321.842 529.412 306.072 545.131 306.072 564.525C306.072 583.918 321.842 599.637 341.291 599.637C350.066 599.637 358.087 596.429 364.258 591.132C359.522 594.118 353.916 595.851 347.902 595.851" fill="white"/>
<path d="M358.443 539.619C365.815 543.924 370.771 551.9 370.771 561.031C370.771 574.728 359.633 585.829 345.898 585.833C333.116 585.833 322.593 576.221 321.189 563.853C321.165 564.341 321.147 564.828 321.147 565.319C321.147 580.491 333.486 592.789 348.701 592.789C363.916 592.789 376.255 580.488 376.255 565.319C376.255 553.567 368.852 543.545 358.443 539.619Z" fill="white"/>
<path d="M345.158 541.52C335.912 541.52 328.103 547.651 325.594 556.059C328.397 549.823 334.676 545.48 341.975 545.48C351.887 545.48 359.923 553.491 359.923 563.374C359.923 573.257 351.887 581.267 341.975 581.267C340.355 581.267 338.784 581.048 337.29 580.648C339.709 581.657 342.369 582.214 345.158 582.217C356.432 582.217 365.567 573.103 365.567 561.867C365.567 550.627 356.429 541.52 345.158 541.52Z" fill="white"/>
<g clip-path="url(#clip0_1196_936)">
<path fill-rule="evenodd" clip-rule="evenodd" d="M241.801 256.868C241.801 251.726 238.187 245.376 233.762 242.753L210.751 229.101C206.336 226.479 202.713 228.535 202.713 233.677V260.104C202.713 265.246 206.355 271.548 210.798 274.124L233.696 287.342C238.149 289.908 241.791 287.813 241.791 282.671V256.877L241.801 256.868Z" fill="white"/>
<path fill-rule="evenodd" clip-rule="evenodd" d="M236.96 237.216C241.376 239.838 248.612 239.838 253.028 237.216L276.001 223.554C280.416 220.922 280.388 216.676 275.935 214.101L253.084 200.911C248.631 198.345 241.347 198.345 236.904 200.911L214.015 214.129C209.562 216.695 209.543 220.95 213.959 223.573L236.97 237.234V237.216H236.96Z" fill="white"/>
<path fill-rule="evenodd" clip-rule="evenodd" d="M256.226 242.744C251.811 245.376 248.197 251.726 248.197 256.868V282.653C248.197 287.795 251.839 289.899 256.292 287.323L279.181 274.114C283.634 271.548 287.276 265.236 287.276 260.095V233.621C287.276 228.479 283.662 226.432 279.247 229.055L256.236 242.744H256.226Z" fill="white"/>
<path d="M164.549 58.2681V141.869C164.549 155.492 163.946 165.068 162.728 170.616C161.521 176.164 159.426 180.626 156.473 184.004C151.831 189.495 146.123 193.401 139.368 195.722C132.613 198.043 123.263 199.203 111.328 199.203H104.413V148.199L14.7646 237.847H115.602C137.359 237.847 153.52 236.027 164.078 232.385C174.635 228.743 184.089 222.441 192.429 213.459C200.137 205.43 205.571 196.354 208.741 186.212C211.911 176.079 213.496 161.823 213.496 143.444V5L164.549 58.2681Z" fill="white"/>
<path d="M475.431 237.847L385.783 148.199V199.203H378.867C366.932 199.203 357.583 198.043 350.827 195.722C344.072 193.401 338.364 189.495 333.722 184.004C330.769 180.626 328.684 176.164 327.467 170.616C326.25 165.078 325.646 155.492 325.646 141.869V58.2681L276.699 5V143.454C276.699 161.823 278.294 176.079 281.454 186.221C284.615 196.363 290.059 205.439 297.767 213.468C306.107 222.441 315.561 228.752 326.118 232.394C336.675 236.036 352.837 237.857 374.593 237.857H436.532L475.431 237.847Z" fill="white"/>
<path d="M208.732 303.975C205.571 293.833 200.127 284.757 192.419 276.728C184.079 267.756 174.626 261.444 164.068 257.802C153.511 254.16 137.349 252.34 115.593 252.34L53.6543 252.33V252.349H14.7646L104.413 341.997V290.984H111.319C123.254 290.984 132.604 292.144 139.359 294.465C146.114 296.786 151.822 300.692 156.464 306.183C159.417 309.561 161.502 314.023 162.719 319.571C163.936 325.109 164.54 334.695 164.54 348.318V431.919L213.487 485.187V346.743C213.487 328.373 211.902 314.118 208.732 303.975Z" fill="white"/>
<path d="M475.431 252.348H374.593C352.837 252.348 336.675 254.169 326.118 257.81C315.561 261.452 306.107 267.754 297.767 276.736C290.059 284.765 284.624 293.841 281.454 303.984C278.284 314.116 276.699 328.372 276.699 346.751V485.195L325.646 431.927V348.326C325.646 334.712 326.25 325.127 327.467 319.579C328.675 314.031 330.76 309.569 333.722 306.191C338.364 300.7 344.072 296.794 350.827 294.473C357.583 292.152 366.932 290.992 378.867 290.992H385.783V341.996L475.431 252.348Z" fill="white"/>
</g>
<defs>
<clipPath id="clip0_1196_936">
<rect width="460.666" height="480.196" fill="white" transform="translate(14.7646 5)"/>
</clipPath>
</defs>
</svg>
