<svg width="75" height="75" viewBox="0 0 75 75" fill="none" xmlns="http://www.w3.org/2000/svg">
<g clip-path="url(#clip0_733_6521)">
<path fill-rule="evenodd" clip-rule="evenodd" d="M37.0537 39.0925C37.0537 38.3965 36.5645 37.537 35.9656 37.182L32.8508 35.3341C32.2531 34.979 31.7627 35.2574 31.7627 35.9534V39.5306C31.7627 40.2266 32.2557 41.0797 32.8572 41.4283L35.9567 43.2175C36.5594 43.5649 37.0524 43.2814 37.0524 42.5854V39.0938L37.0537 39.0925Z" fill="url(#paint0_linear_733_6521)"/>
<path fill-rule="evenodd" clip-rule="evenodd" d="M36.3988 36.4326C36.9964 36.7876 37.976 36.7876 38.5736 36.4326L41.6834 34.5834C42.281 34.227 42.2772 33.6524 41.6744 33.3037L38.5813 31.5183C37.9785 31.171 36.9926 31.171 36.3911 31.5183L33.2929 33.3075C32.6901 33.6549 32.6875 34.2309 33.2852 34.5859L36.4 36.4351V36.4326H36.3988Z" fill="#33CFFF"/>
<path fill-rule="evenodd" clip-rule="evenodd" d="M39.0067 37.1815C38.409 37.5378 37.9199 38.3973 37.9199 39.0933V42.5836C37.9199 43.2796 38.4129 43.5644 39.0157 43.2158L42.1139 41.4278C42.7167 41.0805 43.2096 40.2261 43.2096 39.5301V35.9466C43.2096 35.2506 42.7205 34.9734 42.1228 35.3285L39.008 37.1815H39.0067Z" fill="url(#paint1_linear_733_6521)"/>
<path d="M26.5973 12.2104V23.5267C26.5973 25.3708 26.5156 26.6671 26.3509 27.418C26.1874 28.1689 25.9039 28.773 25.5041 29.2302C24.8758 29.9735 24.1032 30.5022 23.1888 30.8164C22.2744 31.1305 21.0088 31.2876 19.3933 31.2876H18.4572V24.3837L6.32227 36.5186H19.9718C22.9168 36.5186 25.1044 36.2721 26.5335 35.7791C27.9625 35.2862 29.2422 34.4331 30.3711 33.2173C31.4145 32.1305 32.1501 30.9019 32.5792 29.5291C33.0083 28.1575 33.2229 26.2278 33.2229 23.74V5L26.5973 12.2104Z" fill="#33CFFF"/>
<path d="M68.6789 36.5186L56.544 24.3837V31.2876H55.6079C53.9924 31.2876 52.7268 31.1305 51.8124 30.8164C50.898 30.5022 50.1254 29.9735 49.497 29.2302C49.0973 28.773 48.8151 28.1689 48.6503 27.418C48.4856 26.6684 48.4039 25.3708 48.4039 23.5267V12.2104L41.7783 5V23.7413C41.7783 26.2278 41.9941 28.1575 42.422 29.5303C42.8498 30.9032 43.5867 32.1318 44.6301 33.2186C45.759 34.4331 47.0387 35.2874 48.4677 35.7804C49.8968 36.2734 52.0844 36.5198 55.0294 36.5198H63.4135L68.6789 36.5186Z" fill="#0D87C5"/>
<path d="M32.5779 45.4693C32.1501 44.0964 31.4132 42.8679 30.3699 41.7811C29.2409 40.5666 27.9613 39.7122 26.5322 39.2192C25.1031 38.7263 22.9155 38.4798 19.9705 38.4798L11.5864 38.4785V38.4811H6.32227L18.4572 50.616V43.7107H19.392C21.0075 43.7107 22.2731 43.8678 23.1875 44.182C24.1019 44.4962 24.8745 45.0249 25.5029 45.7681C25.9026 46.2253 26.1848 46.8294 26.3496 47.5803C26.5143 48.33 26.5961 49.6275 26.5961 51.4716V62.7879L33.2216 69.9983V51.2583C33.2216 48.7719 33.007 46.8422 32.5779 45.4693Z" fill="#0D87C5"/>
<path d="M68.6789 38.4805H55.0294C52.0844 38.4805 49.8968 38.7269 48.4677 39.2199C47.0387 39.7129 45.759 40.566 44.6301 41.7817C43.5867 42.8685 42.8511 44.0971 42.422 45.47C41.9929 46.8416 41.7783 48.7713 41.7783 51.259V69.999L48.4039 62.7886V51.4723C48.4039 49.6295 48.4856 48.3319 48.6503 47.581C48.8138 46.8301 49.096 46.226 49.497 45.7688C50.1254 45.0255 50.898 44.4968 51.8124 44.1827C52.7268 43.8685 53.9924 43.7114 55.6079 43.7114H56.544V50.6154L68.6789 38.4805Z" fill="#33CFFF"/>
</g>
<defs>
<linearGradient id="paint0_linear_733_6521" x1="35.9596" y1="37.1057" x2="31.0714" y2="40.8206" gradientUnits="userSpaceOnUse">
<stop offset="0.278846" stop-color="#33CFFF"/>
<stop offset="1" stop-color="#0D87C5"/>
</linearGradient>
<linearGradient id="paint1_linear_733_6521" x1="42.1158" y1="37.101" x2="37.2259" y2="40.8141" gradientUnits="userSpaceOnUse">
<stop offset="0.278846" stop-color="#33CFFF"/>
<stop offset="1" stop-color="#0D87C5"/>
</linearGradient>
<clipPath id="clip0_733_6521">
<rect width="62.3564" height="65" fill="white" transform="translate(6.32227 5)"/>
</clipPath>
</defs>
</svg>
