<svg width="500" height="500" viewBox="0 0 500 500" fill="none" xmlns="http://www.w3.org/2000/svg">
<g clip-path="url(#clip0_733_6530)">
<path fill-rule="evenodd" clip-rule="evenodd" d="M246.635 262.01C246.635 256.764 242.948 250.284 238.432 247.608L214.951 233.677C210.446 231.001 206.749 233.1 206.749 238.347V265.313C206.749 270.56 210.465 276.991 215 279.619L238.365 293.107C242.909 295.725 246.625 293.588 246.625 288.341V262.02L246.635 262.01Z" fill="#1D3366"/>
<path fill-rule="evenodd" clip-rule="evenodd" d="M241.696 241.957C246.202 244.633 253.586 244.633 258.092 241.957L281.534 228.017C286.04 225.331 286.011 220.998 281.467 218.37L258.15 204.911C253.605 202.293 246.173 202.293 241.639 204.911L218.283 218.399C213.739 221.018 213.72 225.36 218.225 228.036L241.706 241.976V241.957H241.696Z" fill="#1D3366"/>
<path fill-rule="evenodd" clip-rule="evenodd" d="M261.355 247.598C256.849 250.284 253.162 256.763 253.162 262.01V288.321C253.162 293.568 256.878 295.715 261.422 293.087L284.778 279.609C289.322 276.99 293.038 270.549 293.038 265.302V238.288C293.038 233.041 289.351 230.952 284.845 233.629L261.365 247.598H261.355Z" fill="#1D3366"/>
<path d="M167.807 59.3557V144.663C167.807 158.565 167.191 168.337 165.949 173.997C164.716 179.658 162.579 184.212 159.566 187.659C154.829 193.262 149.005 197.247 142.111 199.616C135.218 201.984 125.678 203.168 113.499 203.168H106.442V151.123L14.9639 242.601H117.86C140.061 242.601 156.552 240.743 167.325 237.027C178.098 233.311 187.745 226.88 196.255 217.715C204.121 209.522 209.666 200.261 212.901 189.911C216.136 179.572 217.753 165.025 217.753 146.271V5L167.807 59.3557Z" fill="#1D3366"/>
<path d="M485.035 242.601L393.557 151.123V203.168H386.5C374.321 203.168 364.781 201.984 357.888 199.616C350.995 197.247 345.17 193.262 340.433 187.658C337.42 184.212 335.292 179.658 334.051 173.997C332.809 168.346 332.192 158.565 332.192 144.663V59.3557L282.246 5V146.28C282.246 165.025 283.873 179.572 287.098 189.921C290.323 200.27 295.878 209.532 303.744 217.725C312.254 226.88 321.901 233.321 332.674 237.037C343.447 240.753 359.938 242.611 382.139 242.611H445.342L485.035 242.601Z" fill="#1D3366"/>
<path d="M212.891 310.079C209.666 299.729 204.111 290.468 196.246 282.275C187.735 273.12 178.089 266.679 167.316 262.963C156.543 259.247 140.051 257.389 117.851 257.389L54.6475 257.379V257.398H14.9639L106.442 348.877V296.822H113.49C125.668 296.822 135.209 298.006 142.102 300.374C148.995 302.743 154.819 306.728 159.556 312.331C162.569 315.778 164.697 320.332 165.939 325.993C167.181 331.644 167.797 341.425 167.797 355.327V440.634L217.743 494.99V353.719C217.743 334.975 216.126 320.428 212.891 310.079Z" fill="#1D3366"/>
<path d="M485.035 257.398H382.139C359.938 257.398 343.447 259.256 332.674 262.973C321.901 266.689 312.254 273.12 303.744 282.285C295.878 290.478 290.333 299.739 287.098 310.089C283.863 320.428 282.246 334.975 282.246 353.729V495L332.192 440.644V355.337C332.192 341.445 332.809 331.663 334.051 326.002C335.283 320.342 337.41 315.788 340.433 312.341C345.17 306.738 350.995 302.753 357.888 300.384C364.781 298.016 374.321 296.832 386.5 296.832H393.557V348.877L485.035 257.398Z" fill="#1D3366"/>
</g>
<defs>
<clipPath id="clip0_733_6530">
<rect width="470.072" height="490" fill="white" transform="translate(14.9639 5)"/>
</clipPath>
</defs>
</svg>
