<svg width="437" height="100" viewBox="0 0 437 100" fill="none" xmlns="http://www.w3.org/2000/svg">
<path d="M124.158 68.1988H142.79V79.1783H109.935V20.7871H124.158V68.1988Z" fill="white"/>
<path d="M162.124 76.2056C157.549 73.6548 153.917 70.0874 151.228 65.5125C148.538 60.9377 147.198 55.7992 147.198 50.0876C147.198 44.376 148.538 39.2467 151.228 34.6996C153.917 30.1525 157.549 26.6036 162.124 24.0528C166.699 21.502 171.736 20.2266 177.216 20.2266C182.697 20.2266 187.743 21.502 192.309 24.0528C196.883 26.6036 200.488 30.1525 203.122 34.6996C205.756 39.2467 207.068 44.376 207.068 50.0876C207.068 55.7992 205.737 60.947 203.076 65.5125C200.414 70.0874 196.809 73.6548 192.262 76.2056C187.715 78.7564 182.697 80.0318 177.207 80.0318C171.717 80.0318 166.69 78.7564 162.115 76.2056H162.124ZM188.408 62.398C191.209 59.2927 192.604 55.1892 192.604 50.0876C192.604 44.986 191.2 40.8086 188.408 37.7402C185.608 34.6626 181.884 33.1192 177.226 33.1192C172.568 33.1192 168.751 34.6441 165.96 37.694C163.159 40.7439 161.764 44.8751 161.764 50.0876C161.764 55.3001 163.159 59.3666 165.96 62.4442C168.76 65.5218 172.512 67.056 177.226 67.056C181.939 67.056 185.608 65.5033 188.408 62.398Z" fill="white"/>
<path d="M253.75 39.3483C252.696 37.4075 251.181 35.9288 249.221 34.9029C247.253 33.8771 244.933 33.3595 242.271 33.3595C237.669 33.3595 233.981 34.8752 231.209 37.8973C228.436 40.9195 227.05 44.9583 227.05 49.9952C227.05 55.374 228.51 59.5792 231.421 62.6013C234.332 65.6235 238.334 67.1299 243.436 67.1299C246.929 67.1299 249.887 66.2427 252.29 64.4682C254.702 62.6937 256.458 60.1429 257.576 56.8158H239.526V46.3353H270.469V59.5607C269.415 63.1096 267.622 66.409 265.108 69.4589C262.585 72.5088 259.378 74.9764 255.497 76.8618C251.615 78.7472 247.234 79.6898 242.355 79.6898C236.588 79.6898 231.44 78.4329 226.93 75.9006C222.41 73.3775 218.889 69.8748 216.366 65.3832C213.843 60.8915 212.586 55.7622 212.586 49.9952C212.586 44.2281 213.843 39.0896 216.366 34.5702C218.889 30.0509 222.392 26.5296 226.893 24.0066C231.384 21.4835 236.514 20.2266 242.281 20.2266C249.268 20.2266 255.155 21.9179 259.951 25.3004C264.748 28.683 267.918 33.3687 269.471 39.3576H253.75V39.3483Z" fill="white"/>
<path d="M319.158 54.3159C321.249 56.9983 322.294 60.0665 322.294 63.5112C322.294 68.4806 320.552 72.4242 317.077 75.3324C313.603 78.2406 308.753 79.69 302.538 79.69H274.824V20.2266H301.606C307.651 20.2266 312.378 21.6101 315.806 24.3771C319.224 27.1442 320.929 30.8995 320.929 35.643C320.929 39.1442 320.006 42.0524 318.179 44.3677C316.343 46.683 313.894 48.2924 310.843 49.1959C314.29 49.9301 317.059 51.643 319.149 54.3159H319.158ZM289.326 44.283H298.818C301.191 44.283 303.018 43.7654 304.289 42.7112C305.561 41.6665 306.192 40.1324 306.192 38.0995C306.192 36.0665 305.561 34.5136 304.289 33.4407C303.018 32.3677 301.191 31.8313 298.818 31.8313H289.326V44.283ZM305.636 66.3536C306.964 65.2524 307.632 63.6618 307.632 61.5724C307.632 59.483 306.935 57.8453 305.551 56.6595C304.167 55.4736 302.255 54.8806 299.826 54.8806H289.317V68.01H299.995C302.425 68.01 304.299 67.4642 305.627 66.363L305.636 66.3536Z" fill="white"/>
<path d="M419.846 79.69L407.644 61.4783L396.893 79.69H380.339L399.538 49.4501L379.912 20.2266H396.893L408.924 38.1842L419.505 20.2266H436.059L417.031 50.2124L436.827 79.69H419.846Z" fill="white"/>
<path d="M360.672 76.5126C346.323 76.5126 334.692 64.9165 334.692 50.6108C334.692 36.3052 346.323 24.7091 360.672 24.7091C367.909 24.7091 374.45 27.6605 379.161 32.4222C373.734 25.0305 364.969 20.2246 355.074 20.2246C338.593 20.2246 325.231 33.5425 325.231 49.974C325.231 66.4054 338.593 79.7234 355.071 79.7234C362.506 79.7234 369.301 77.0049 374.53 72.5175C370.517 75.0472 365.767 76.5155 360.672 76.5155" fill="white"/>
<path d="M369.604 28.873C375.85 32.5202 380.049 39.278 380.049 47.0146C380.049 58.6195 370.612 68.0249 358.975 68.0278C348.146 68.0278 339.229 59.8843 338.04 49.4057C338.02 49.8185 338.005 50.2313 338.005 50.647C338.005 63.502 348.459 73.9217 361.35 73.9217C374.241 73.9217 384.695 63.4991 384.695 50.647C384.695 40.6902 378.423 32.1988 369.604 28.873Z" fill="white"/>
<path d="M358.348 30.4824C350.514 30.4824 343.899 35.6775 341.772 42.8008C344.147 37.5173 349.467 33.8377 355.651 33.8377C364.05 33.8377 370.858 40.6249 370.858 48.9984C370.858 57.3719 364.05 64.1591 355.651 64.1591C354.279 64.1591 352.948 63.9733 351.682 63.6343C353.732 64.4893 355.985 64.961 358.348 64.964C367.9 64.964 375.64 57.2421 375.64 47.7217C375.64 38.1984 367.897 30.4824 358.348 30.4824Z" fill="white"/>
<g clip-path="url(#clip0_733_6482)">
<path fill-rule="evenodd" clip-rule="evenodd" d="M49.3816 52.2068C49.3816 51.2431 48.7044 50.0531 47.8751 49.5615L43.5622 47.0028C42.7347 46.5112 42.0557 46.8967 42.0557 47.8604V52.8134C42.0557 53.7771 42.7382 54.9583 43.5711 55.441L47.8627 57.9184C48.6973 58.3993 49.3799 58.0068 49.3799 57.0431V52.2086L49.3816 52.2068Z" fill="white"/>
<path fill-rule="evenodd" clip-rule="evenodd" d="M48.475 48.5225C49.3025 49.0141 50.6588 49.0141 51.4864 48.5225L55.7921 45.962C56.6197 45.4687 56.6144 44.6729 55.7797 44.1902L51.497 41.7182C50.6623 41.2372 49.2972 41.2372 48.4644 41.7182L44.1745 44.1955C43.3399 44.6765 43.3364 45.474 44.1639 45.9656L48.4768 48.526V48.5225H48.475Z" fill="white"/>
<path fill-rule="evenodd" clip-rule="evenodd" d="M52.0859 49.5592C51.2583 50.0525 50.5811 51.2426 50.5811 52.2063V57.039C50.5811 58.0027 51.2636 58.397 52.0982 57.9143L56.3881 55.4387C57.2227 54.9577 57.9053 53.7748 57.9053 52.811V47.8493C57.9053 46.8855 57.228 46.5018 56.4005 46.9934L52.0876 49.5592H52.0859Z" fill="white"/>
<path d="M34.9032 14.9837V30.6524C34.9032 33.2058 34.7901 35.0006 34.562 36.0403C34.3356 37.0801 33.9431 37.9165 33.3896 38.5495C32.5196 39.5787 31.4498 40.3107 30.1837 40.7457C28.9176 41.1807 27.1653 41.3982 24.9284 41.3982H23.6322V31.8389L6.83008 48.6411H25.7294C29.8071 48.6411 32.8361 48.2998 34.8148 47.6172C36.7935 46.9347 38.5653 45.7535 40.1285 44.0701C41.5732 42.5653 42.5917 40.8642 43.1859 38.9633C43.78 37.0642 44.0771 34.3923 44.0771 30.9477V5L34.9032 14.9837Z" fill="white"/>
<path d="M93.1698 48.6411L76.3677 31.8389V41.3982H75.0715C72.8347 41.3982 71.0823 41.1807 69.8162 40.7457C68.5501 40.3107 67.4803 39.5787 66.6103 38.5495C66.0568 37.9165 65.6661 37.0801 65.438 36.0403C65.2098 35.0024 65.0967 33.2058 65.0967 30.6524V14.9837L55.9229 5V30.9495C55.9229 34.3923 56.2217 37.0642 56.8141 38.9651C57.4064 40.866 58.4267 42.567 59.8714 44.0718C61.4346 45.7535 63.2064 46.9365 65.1851 47.619C67.1638 48.3016 70.1929 48.6428 74.2705 48.6428H85.8792L93.1698 48.6411Z" fill="white"/>
<path d="M43.1841 61.035C42.5917 59.1341 41.5714 57.433 40.1267 55.9282C38.5636 54.2466 36.7918 53.0636 34.8131 52.3811C32.8344 51.6985 29.8053 51.3572 25.7277 51.3572L14.1189 51.3555V51.359H6.83008L23.6322 68.1612V58.6001H24.9266C27.1635 58.6001 28.9159 58.8176 30.1819 59.2526C31.448 59.6876 32.5178 60.4197 33.3878 61.4488C33.9413 62.0818 34.3321 62.9182 34.5602 63.958C34.7883 64.996 34.9015 66.7925 34.9015 69.3459V85.0146L44.0753 94.9983V69.0506C44.0753 65.6078 43.7782 62.9359 43.1841 61.035Z" fill="white"/>
<path d="M93.1698 51.3594H74.2705C70.1929 51.3594 67.1638 51.7006 65.1851 52.3832C63.2064 53.0658 61.4346 54.247 59.8714 55.9304C58.4267 57.4352 57.4082 59.1363 56.8141 61.0372C56.2199 62.9363 55.9229 65.6082 55.9229 69.0528V95.0005L65.0967 85.0168V69.3481C65.0967 66.7964 65.2098 64.9999 65.438 63.9601C65.6643 62.9204 66.0551 62.084 66.6103 61.4509C67.4803 60.4218 68.5501 59.6897 69.8162 59.2547C71.0823 58.8197 72.8347 58.6022 75.0715 58.6022H76.3677V68.1615L93.1698 51.3594Z" fill="white"/>
</g>
<defs>
<clipPath id="clip0_733_6482">
<rect width="86.3397" height="90" fill="white" transform="translate(6.83008 5)"/>
</clipPath>
</defs>
</svg>
