<svg width="219" height="50" viewBox="0 0 219 50" fill="none" xmlns="http://www.w3.org/2000/svg">
<path d="M62.0836 34.0964H71.3998V39.5862H54.9717V10.3906H62.0836V34.0964Z" fill="#1D3366"/>
<path d="M81.0686 38.1067C78.7811 36.8313 76.965 35.0476 75.6203 32.7602C74.2755 30.4728 73.6055 27.9035 73.6055 25.0477C73.6055 22.1919 74.2755 19.6272 75.6203 17.3537C76.965 15.0802 78.7811 13.3057 81.0686 12.0303C83.356 10.7549 85.8745 10.1172 88.6149 10.1172C91.3552 10.1172 93.8783 10.7549 96.1612 12.0303C98.4486 13.3057 100.251 15.0802 101.568 17.3537C102.885 19.6272 103.541 22.1919 103.541 25.0477C103.541 27.9035 102.876 30.4774 101.545 32.7602C100.214 35.0476 98.4116 36.8313 96.138 38.1067C93.8645 39.3821 91.3552 40.0198 88.6102 40.0198C85.8653 40.0198 83.3514 39.3821 81.064 38.1067H81.0686ZM94.211 31.2029C95.6112 29.6502 96.309 27.5985 96.309 25.0477C96.309 22.4969 95.6066 20.4082 94.211 18.874C92.8108 17.3352 90.9485 16.5635 88.6195 16.5635C86.2904 16.5635 84.3819 17.326 82.9863 18.8509C81.5861 20.3758 80.8884 22.4414 80.8884 25.0477C80.8884 27.654 81.5861 29.6872 82.9863 31.226C84.3865 32.7648 86.2627 33.5319 88.6195 33.5319C90.9763 33.5319 92.8108 32.7556 94.211 31.2029Z" fill="#1D3366"/>
<path d="M126.873 19.6781C126.347 18.7077 125.589 17.9683 124.609 17.4554C123.625 16.9424 122.465 16.6837 121.134 16.6837C118.833 16.6837 116.989 17.4415 115.603 18.9526C114.216 20.4637 113.523 22.483 113.523 25.0015C113.523 27.6909 114.253 29.7935 115.709 31.3046C117.165 32.8156 119.165 33.5689 121.716 33.5689C123.463 33.5689 124.942 33.1252 126.143 32.238C127.349 31.3508 128.227 30.0754 128.787 28.4118H119.762V23.1716H135.233V29.7842C134.706 31.5587 133.81 33.2084 132.553 34.7334C131.291 36.2583 129.688 37.4921 127.747 38.4348C125.806 39.3775 123.616 39.8488 121.176 39.8488C118.292 39.8488 115.718 39.2204 113.463 37.9542C111.203 36.6927 109.443 34.9413 108.181 32.6955C106.919 30.4497 106.291 27.885 106.291 25.0015C106.291 22.118 106.919 19.5487 108.181 17.289C109.443 15.0293 111.194 13.2687 113.445 12.0072C115.69 10.7456 118.255 10.1172 121.139 10.1172C124.632 10.1172 127.576 10.9628 129.974 12.6541C132.373 14.3454 133.958 16.6883 134.734 19.6827H126.873V19.6781Z" fill="#1D3366"/>
<path d="M159.583 27.1619C160.628 28.503 161.151 30.0372 161.151 31.7595C161.151 34.2442 160.279 36.216 158.542 37.6701C156.805 39.1242 154.38 39.8489 151.272 39.8489H137.415V10.1172H150.806C153.829 10.1172 156.193 10.809 157.906 12.1925C159.616 13.576 160.468 15.4537 160.468 17.8254C160.468 19.576 160.006 21.0301 159.093 22.1878C158.175 23.3454 156.951 24.1501 155.425 24.6019C157.148 24.9689 158.533 25.8254 159.578 27.1619H159.583ZM144.666 22.1454H149.412C150.599 22.1454 151.512 21.8866 152.148 21.3595C152.784 20.8372 153.099 20.0701 153.099 19.0536C153.099 18.0372 152.784 17.2607 152.148 16.7242C151.512 16.1878 150.599 15.9195 149.412 15.9195H144.666V22.1454ZM152.821 33.1807C153.485 32.6301 153.819 31.8348 153.819 30.7901C153.819 29.7454 153.471 28.9266 152.779 28.3336C152.087 27.7407 151.131 27.4442 149.916 27.4442H144.661V34.0089H150.001C151.216 34.0089 152.153 33.736 152.817 33.1854L152.821 33.1807Z" fill="#1D3366"/>
<path d="M209.923 39.8489L203.821 30.743L198.446 39.8489H190.168L199.768 24.7289L189.955 10.1172H198.446L204.461 19.096L209.752 10.1172H218.029L208.515 25.1101L218.413 39.8489H209.923Z" fill="#1D3366"/>
<path d="M180.342 38.2612C173.167 38.2612 167.351 32.4631 167.351 25.3103C167.351 18.1575 173.167 12.3594 180.342 12.3594C183.96 12.3594 187.231 13.8351 189.587 16.216C186.873 12.5201 182.49 10.1172 177.543 10.1172C169.302 10.1172 162.621 16.7762 162.621 24.9919C162.621 33.2076 169.302 39.8666 177.541 39.8666C181.259 39.8666 184.657 38.5074 187.271 36.2636C185.264 37.5285 182.89 38.2626 180.342 38.2626" fill="#1D3366"/>
<path d="M184.808 14.4336C187.931 16.2572 190.03 19.636 190.03 23.5044C190.03 29.3068 185.312 34.0095 179.493 34.011C174.078 34.011 169.62 29.9392 169.026 24.6999C169.015 24.9063 169.008 25.1127 169.008 25.3206C169.008 31.7481 174.235 36.9579 180.681 36.9579C187.126 36.9579 192.353 31.7466 192.353 25.3206C192.353 20.3422 189.217 16.0965 184.808 14.4336Z" fill="#1D3366"/>
<path d="M179.181 15.2344C175.264 15.2344 171.956 17.8319 170.893 21.3936C172.08 18.7518 174.74 16.912 177.832 16.912C182.032 16.912 185.436 20.3056 185.436 24.4924C185.436 28.6791 182.032 32.0727 177.832 32.0727C177.146 32.0727 176.481 31.9798 175.848 31.8103C176.872 32.2378 177.999 32.4737 179.181 32.4752C183.957 32.4752 187.827 28.6142 187.827 23.854C187.827 19.0924 183.955 15.2344 179.181 15.2344Z" fill="#1D3366"/>
<g clip-path="url(#clip0_733_6362)">
<path fill-rule="evenodd" clip-rule="evenodd" d="M24.7257 25.9802C24.7257 25.5519 24.4247 25.0229 24.0561 24.8045L22.1393 23.6673C21.7715 23.4488 21.4697 23.6201 21.4697 24.0484V26.2497C21.4697 26.678 21.7731 27.203 22.1432 27.4176L24.0506 28.5186C24.4216 28.7324 24.7249 28.5579 24.7249 28.1296V25.981L24.7257 25.9802Z" fill="#1D3366"/>
<path fill-rule="evenodd" clip-rule="evenodd" d="M24.3225 24.3427C24.6903 24.5612 25.2931 24.5612 25.6609 24.3427L27.5746 23.2047C27.9424 22.9854 27.94 22.6318 27.5691 22.4172L25.6656 21.3185C25.2947 21.1048 24.688 21.1048 24.3178 21.3185L22.4112 22.4196C22.0403 22.6333 22.0387 22.9878 22.4065 23.2063L24.3233 24.3442V24.3427H24.3225Z" fill="#1D3366"/>
<path fill-rule="evenodd" clip-rule="evenodd" d="M25.9266 24.8039C25.5588 25.0231 25.2578 25.552 25.2578 25.9804V28.1282C25.2578 28.5565 25.5612 28.7318 25.9321 28.5172L27.8387 27.417C28.2097 27.2032 28.513 26.6775 28.513 26.2491V24.0439C28.513 23.6156 28.212 23.445 27.8442 23.6635L25.9274 24.8039H25.9266Z" fill="#1D3366"/>
<path d="M18.2904 9.4372V16.4011C18.2904 17.5359 18.2401 18.3336 18.1388 18.7957C18.0382 19.2578 17.8637 19.6295 17.6177 19.9109C17.231 20.3683 16.7556 20.6937 16.1929 20.887C15.6302 21.0803 14.8513 21.177 13.8572 21.177H13.2811V16.9284L5.81348 24.396H14.2132C16.0255 24.396 17.3717 24.2444 18.2511 23.941C19.1306 23.6376 19.918 23.1127 20.6128 22.3645C21.2549 21.6957 21.7075 20.9396 21.9716 20.0948C22.2357 19.2507 22.3677 18.0632 22.3677 16.5323V5L18.2904 9.4372Z" fill="#1D3366"/>
<path d="M44.187 24.396L36.7194 16.9284V21.177H36.1433C35.1492 21.177 34.3703 21.0803 33.8076 20.887C33.2449 20.6937 32.7695 20.3683 32.3828 19.9109C32.1368 19.6295 31.9631 19.2578 31.8617 18.7957C31.7604 18.3344 31.7101 17.5359 31.7101 16.4011V9.4372L27.6328 5V16.5331C27.6328 18.0632 27.7656 19.2507 28.0289 20.0956C28.2922 20.9404 28.7456 21.6965 29.3877 22.3653C30.0825 23.1127 30.8699 23.6384 31.7494 23.9418C32.6288 24.2451 33.975 24.3968 35.7873 24.3968H40.9468L44.187 24.396Z" fill="#1D3366"/>
<path d="M21.9708 29.9036C21.7075 29.0587 21.2541 28.3027 20.612 27.6339C19.9173 26.8865 19.1298 26.3607 18.2504 26.0574C17.3709 25.754 16.0247 25.6023 14.2124 25.6023L9.05296 25.6016V25.6031H5.81348L13.2811 33.0708V28.8214H13.8564C14.8506 28.8214 15.6294 28.9181 16.1921 29.1114C16.7548 29.3047 17.2303 29.6301 17.6169 30.0875C17.8629 30.3688 18.0366 30.7406 18.138 31.2027C18.2394 31.664 18.2897 32.4625 18.2897 33.5973V40.5612L22.3669 44.9984V33.4661C22.3669 31.9359 22.2349 30.7484 21.9708 29.9036Z" fill="#1D3366"/>
<path d="M44.187 25.6035H35.7873C33.975 25.6035 32.6288 25.7552 31.7494 26.0586C30.8699 26.3619 30.0825 26.8869 29.3877 27.6351C28.7456 28.3039 28.293 29.0599 28.0289 29.9048C27.7648 30.7488 27.6328 31.9363 27.6328 33.4672V44.9996L31.7101 40.5624V33.5985C31.7101 32.4644 31.7604 31.666 31.8617 31.2038C31.9623 30.7417 32.136 30.37 32.3828 30.0887C32.7695 29.6313 33.2449 29.3059 33.8076 29.1126C34.3703 28.9192 35.1492 28.8226 36.1433 28.8226H36.7194V33.0711L44.187 25.6035Z" fill="#1D3366"/>
</g>
<defs>
<clipPath id="clip0_733_6362">
<rect width="38.3732" height="40" fill="white" transform="translate(5.81348 5)"/>
</clipPath>
</defs>
</svg>
