<svg width="250" height="250" viewBox="0 0 250 250" fill="none" xmlns="http://www.w3.org/2000/svg">
<g clip-path="url(#clip0_733_6539)">
<path fill-rule="evenodd" clip-rule="evenodd" d="M123.352 130.883C123.352 128.313 121.546 125.14 119.335 123.829L107.834 117.006C105.627 115.695 103.816 116.723 103.816 119.292V132.5C103.816 135.07 105.637 138.22 107.858 139.507L119.302 146.114C121.527 147.396 123.348 146.349 123.348 143.78V130.888L123.352 130.883Z" fill="#1D3366"/>
<path fill-rule="evenodd" clip-rule="evenodd" d="M120.933 121.06C123.14 122.371 126.757 122.371 128.964 121.06L140.446 114.232C142.652 112.916 142.638 110.795 140.413 109.507L128.992 102.915C126.766 101.632 123.126 101.632 120.905 102.915L109.465 109.521C107.24 110.804 107.23 112.931 109.437 114.241L120.938 121.069V121.06H120.933Z" fill="#1D3366"/>
<path fill-rule="evenodd" clip-rule="evenodd" d="M130.563 123.823C128.356 125.139 126.55 128.312 126.55 130.882V143.769C126.55 146.339 128.37 147.391 130.596 146.103L142.035 139.502C144.261 138.219 146.081 135.065 146.081 132.495V119.263C146.081 116.693 144.275 115.67 142.068 116.981L130.567 123.823H130.563Z" fill="#1D3366"/>
<path d="M84.7426 31.6232V73.4064C84.7426 80.2154 84.4409 85.0016 83.8326 87.7742C83.229 90.5469 82.1822 92.7773 80.7063 94.4654C78.3863 97.2098 75.5335 99.1619 72.1572 100.322C68.781 101.482 64.108 102.062 58.143 102.062H54.6866V76.5704L9.88086 121.376H60.2791C71.1528 121.376 79.2303 120.466 84.5069 118.646C89.7834 116.826 94.5082 113.676 98.6767 109.187C102.529 105.174 105.245 100.638 106.83 95.5688C108.414 90.5045 109.206 83.3795 109.206 74.1939V5L84.7426 31.6232Z" fill="#1D3366"/>
<path d="M240.12 121.376L195.314 76.5704V102.062H191.858C185.893 102.062 181.22 101.482 177.844 100.322C174.468 99.1619 171.615 97.2098 169.295 94.4654C167.819 92.7773 166.777 90.5469 166.169 87.7742C165.56 85.0063 165.258 80.2154 165.258 73.4064V31.6232L140.795 5V74.1986C140.795 83.3795 141.592 90.5044 143.171 95.5735C144.751 100.643 147.472 105.179 151.324 109.192C155.493 113.676 160.218 116.831 165.494 118.651C170.771 120.471 178.848 121.381 189.722 121.381H220.679L240.12 121.376Z" fill="#1D3366"/>
<path d="M106.825 154.427C105.245 149.358 102.524 144.822 98.672 140.809C94.5035 136.325 89.7787 133.17 84.5022 131.35C79.2256 129.53 71.1481 128.62 60.2744 128.62L29.3178 128.615V128.625H9.88086L54.6866 173.43V147.934H58.1383C64.1033 147.934 68.7763 148.514 72.1525 149.674C75.5287 150.834 78.3816 152.786 80.7015 155.531C82.1775 157.219 83.2196 159.449 83.8279 162.222C84.4361 164.99 84.7379 169.781 84.7379 176.59V218.373L109.201 244.996V175.802C109.201 166.621 108.409 159.496 106.825 154.427Z" fill="#1D3366"/>
<path d="M240.12 128.623H189.722C178.848 128.623 170.771 129.533 165.494 131.353C160.218 133.173 155.493 136.323 151.324 140.812C147.472 144.825 144.756 149.361 143.171 154.43C141.587 159.495 140.795 166.62 140.795 175.805V244.999L165.258 218.376V176.593C165.258 169.789 165.56 164.998 166.169 162.225C166.772 159.452 167.814 157.222 169.295 155.534C171.615 152.789 174.468 150.837 177.844 149.677C181.22 148.517 185.893 147.937 191.858 147.937H195.314V173.429L240.12 128.623Z" fill="#1D3366"/>
</g>
<defs>
<clipPath id="clip0_733_6539">
<rect width="230.239" height="240" fill="white" transform="translate(9.88086 5)"/>
</clipPath>
</defs>
</svg>
