<svg width="370" height="300" viewBox="0 0 370 300" fill="none" xmlns="http://www.w3.org/2000/svg">
<path d="M92.7922 3.57422H278.095C293.115 3.57422 305.311 15.7576 305.311 30.7642V215.89C305.311 230.896 293.115 243.08 278.095 243.08H92.7922C77.7712 243.08 65.5762 230.896 65.5762 215.89V30.7642C65.5762 15.7576 77.7712 3.57422 92.7922 3.57422Z" fill="#343433"/>
<path d="M278.096 7.14758C291.097 7.14758 301.734 17.7747 301.734 30.7638V215.889C301.734 228.878 291.097 239.506 278.096 239.506H92.7932C79.7917 239.506 69.1544 228.878 69.1544 215.889V30.7638C69.1544 17.7747 79.7917 7.14758 92.7932 7.14758H278.096ZM278.096 0H92.7932C75.8145 0 62 13.8013 62 30.7638V215.889C62 232.852 75.8145 246.653 92.7932 246.653H278.096C295.074 246.653 308.889 232.852 308.889 215.889V30.7638C308.889 13.8013 295.074 0 278.096 0Z" fill="white"/>
<path d="M185.448 184.91C184.642 184.91 183.988 184.257 183.988 183.451V174.342C183.988 173.536 184.642 172.883 185.448 172.883C186.255 172.883 186.909 173.536 186.909 174.342V183.451C186.909 184.257 186.255 184.91 185.448 184.91Z" fill="white"/>
<path d="M185.448 73.7696C184.642 73.7696 183.988 73.1166 183.988 72.3109V63.2009C183.988 62.3952 184.642 61.7422 185.448 61.7422C186.255 61.7422 186.909 62.3952 186.909 63.2009V72.3109C186.909 73.1166 186.255 73.7696 185.448 73.7696Z" fill="white"/>
<path d="M225.929 101.155C225.425 101.155 224.934 100.895 224.664 100.427C224.261 99.7287 224.502 98.8385 225.198 98.4357L236.84 91.7267C237.539 91.3238 238.43 91.5643 238.833 92.2595C239.237 92.958 238.996 93.8482 238.3 94.2511L226.658 100.96C226.427 101.093 226.177 101.155 225.929 101.155Z" fill="white"/>
<path d="M133.154 154.545C132.65 154.545 132.158 154.282 131.889 153.814C131.489 153.116 131.729 152.226 132.428 151.826L143.96 145.211C144.659 144.815 145.55 145.052 145.95 145.75C146.35 146.449 146.11 147.339 145.41 147.739L133.879 154.354C133.651 154.484 133.401 154.545 133.154 154.545Z" fill="white"/>
<path d="M237.745 154.555C237.413 154.555 237.111 154.448 236.867 154.262L225.488 147.716C224.789 147.313 224.548 146.423 224.951 145.727C225.351 145.029 226.246 144.789 226.942 145.191L238.47 151.826C238.922 152.086 239.202 152.566 239.202 153.089C239.202 153.895 238.548 154.555 237.741 154.555H237.745Z" fill="white"/>
<path d="M144.965 101.135C144.718 101.135 144.467 101.074 144.239 100.94L132.597 94.251C131.898 93.8514 131.658 92.9579 132.061 92.2627C132.464 91.5641 133.355 91.3237 134.051 91.7266L145.693 98.4161C146.392 98.8157 146.633 99.7091 146.23 100.404C145.96 100.872 145.469 101.135 144.965 101.135Z" fill="white"/>
<path d="M134.717 76.5364C134.212 76.5364 133.721 76.2765 133.451 75.8087C133.048 75.1102 133.289 74.22 133.985 73.8171L168.388 53.9923C169.087 53.5895 169.978 53.8299 170.381 54.5251C170.784 55.2237 170.544 56.1139 169.848 56.5167L135.445 76.3415C135.214 76.4747 134.964 76.5364 134.717 76.5364Z" fill="white"/>
<path d="M201.789 192.855C201.285 192.855 200.794 192.595 200.524 192.127C200.121 191.432 200.361 190.538 201.057 190.139L235.554 170.239C236.25 169.836 237.145 170.073 237.548 170.772C237.951 171.467 237.71 172.361 237.014 172.76L202.517 192.66C202.286 192.793 202.036 192.855 201.789 192.855Z" fill="white"/>
<path d="M252.62 144.671C251.814 144.671 251.16 144.018 251.16 143.212V103.15C251.16 102.344 251.814 101.691 252.62 101.691C253.427 101.691 254.08 102.344 254.08 103.15V143.212C254.08 144.018 253.427 144.671 252.62 144.671Z" fill="white"/>
<path d="M118.257 144.671C117.451 144.671 116.797 144.018 116.797 143.212V103.15C116.797 102.344 117.451 101.691 118.257 101.691C119.064 101.691 119.717 102.344 119.717 103.15V143.212C119.717 144.018 119.064 144.671 118.257 144.671Z" fill="white"/>
<path d="M169.113 192.854C168.866 192.854 168.615 192.792 168.384 192.659L133.868 172.776C133.172 172.373 132.931 171.482 133.334 170.784C133.738 170.089 134.629 169.848 135.328 170.248L169.845 190.131C170.54 190.534 170.781 191.424 170.378 192.123C170.108 192.591 169.617 192.85 169.113 192.85V192.854Z" fill="white"/>
<path d="M236.162 76.5386C235.915 76.5386 235.664 76.4768 235.433 76.3436L201.05 56.5189C200.351 56.116 200.113 55.2258 200.517 54.5273C200.92 53.8288 201.814 53.5884 202.51 53.9945L236.894 73.8193C237.593 74.2221 237.83 75.1123 237.427 75.8108C237.157 76.2787 236.666 76.5386 236.162 76.5386Z" fill="white"/>
<path d="M147.353 82.8125C146.849 82.8125 146.358 82.5526 146.088 82.0848C145.685 81.3862 145.926 80.496 146.622 80.0932L167.486 68.069C168.186 67.6694 169.077 67.9066 169.48 68.6018C169.883 69.3003 169.642 70.1905 168.947 70.5934L148.082 82.6176C147.851 82.7508 147.6 82.8125 147.353 82.8125Z" fill="white"/>
<path d="M202.695 178.767C202.191 178.767 201.7 178.507 201.43 178.039C201.027 177.344 201.267 176.451 201.963 176.051L222.883 163.981C223.579 163.578 224.474 163.816 224.877 164.514C225.28 165.209 225.04 166.103 224.344 166.502L203.423 178.572C203.193 178.705 202.942 178.767 202.695 178.767Z" fill="white"/>
<path d="M240.864 136.81C240.058 136.81 239.404 136.157 239.404 135.352V111.056C239.404 110.251 240.058 109.598 240.864 109.598C241.671 109.598 242.325 110.251 242.325 111.056V135.352C242.325 136.157 241.671 136.81 240.864 136.81Z" fill="white"/>
<path d="M130.013 136.81C129.206 136.81 128.553 136.157 128.553 135.352V111.056C128.553 110.251 129.206 109.598 130.013 109.598C130.819 109.598 131.473 110.251 131.473 111.056V135.352C131.473 136.157 130.819 136.81 130.013 136.81Z" fill="white"/>
<path d="M168.195 178.77C167.948 178.77 167.698 178.708 167.467 178.575L146.534 166.518C145.838 166.116 145.597 165.225 146 164.527C146.404 163.828 147.295 163.591 147.994 163.991L168.927 176.047C169.623 176.45 169.864 177.34 169.46 178.039C169.19 178.507 168.699 178.767 168.195 178.767V178.77Z" fill="white"/>
<path d="M223.527 82.8122C223.28 82.8122 223.029 82.7505 222.798 82.6173L201.946 70.5931C201.247 70.1902 201.01 69.3 201.413 68.6015C201.816 67.903 202.707 67.6626 203.407 68.0687L224.258 80.0929C224.958 80.4957 225.195 81.3859 224.792 82.0844C224.522 82.5523 224.031 82.8122 223.527 82.8122Z" fill="white"/>
<path d="M252.626 174.069C246.008 174.069 240.623 168.688 240.623 162.074C240.623 155.459 246.008 150.082 252.626 150.082C259.244 150.082 264.629 155.462 264.629 162.074C264.629 168.685 259.244 174.069 252.626 174.069ZM252.626 153C247.615 153 243.54 157.07 243.54 162.077C243.54 167.084 247.615 171.154 252.626 171.154C257.638 171.154 261.712 167.084 261.712 162.077C261.712 157.07 257.638 153 252.626 153Z" fill="white"/>
<path d="M252.625 167.751C249.497 167.751 246.947 165.208 246.947 162.079C246.947 158.95 249.494 156.406 252.625 156.406C255.757 156.406 258.303 158.95 258.303 162.079C258.303 165.208 255.757 167.751 252.625 167.751ZM252.625 159.321C251.103 159.321 249.864 160.558 249.864 162.079C249.864 163.599 251.103 164.837 252.625 164.837C254.147 164.837 255.383 163.599 255.383 162.079C255.383 160.558 254.144 159.321 252.625 159.321Z" fill="white"/>
<path d="M185.446 212.815C178.829 212.815 173.443 207.435 173.443 200.824C173.443 194.212 178.829 188.832 185.446 188.832C192.064 188.832 197.45 194.212 197.45 200.824C197.45 207.435 192.064 212.815 185.446 212.815ZM185.446 191.746C180.435 191.746 176.36 195.817 176.36 200.824C176.36 205.83 180.435 209.901 185.446 209.901C190.458 209.901 194.533 205.83 194.533 200.824C194.533 195.817 190.458 191.746 185.446 191.746Z" fill="white"/>
<path d="M185.446 206.497C182.314 206.497 179.768 203.954 179.768 200.825C179.768 197.696 182.314 195.152 185.446 195.152C188.577 195.152 191.124 197.696 191.124 200.825C191.124 203.954 188.577 206.497 185.446 206.497ZM185.446 198.07C183.924 198.07 182.685 199.308 182.685 200.828C182.685 202.349 183.924 203.586 185.446 203.586C186.968 203.586 188.203 202.349 188.203 200.828C188.203 199.308 186.964 198.07 185.446 198.07Z" fill="white"/>
<path d="M185.446 57.8193C178.829 57.8193 173.443 52.4391 173.443 45.8276C173.443 39.2161 178.829 33.8359 185.446 33.8359C192.064 33.8359 197.45 39.2161 197.45 45.8276C197.45 52.4391 192.064 57.8193 185.446 57.8193ZM185.446 36.7469C180.435 36.7469 176.36 40.8178 176.36 45.8244C176.36 50.8309 180.435 54.9018 185.446 54.9018C190.458 54.9018 194.533 50.8309 194.533 45.8244C194.533 40.8178 190.458 36.7469 185.446 36.7469Z" fill="white"/>
<path d="M185.446 51.4975C182.314 51.4975 179.768 48.9536 179.768 45.8249C179.768 42.6962 182.314 40.1523 185.446 40.1523C188.577 40.1523 191.124 42.6962 191.124 45.8249C191.124 48.9536 188.577 51.4975 185.446 51.4975ZM185.446 43.0699C183.924 43.0699 182.685 44.3077 182.685 45.8282C182.685 47.3487 183.924 48.5832 185.446 48.5832C186.968 48.5832 188.203 47.3454 188.203 45.8282C188.203 44.3109 186.964 43.0699 185.446 43.0699Z" fill="white"/>
<path d="M252.626 96.2841C246.008 96.2841 240.623 90.904 240.623 84.2925C240.623 77.681 246.008 72.3008 252.626 72.3008C259.244 72.3008 264.629 77.681 264.629 84.2925C264.629 90.904 259.244 96.2841 252.626 96.2841ZM252.626 75.215C247.615 75.215 243.54 79.2859 243.54 84.2925C243.54 89.299 247.615 93.3699 252.626 93.3699C257.638 93.3699 261.712 89.299 261.712 84.2925C261.712 79.2859 257.638 75.215 252.626 75.215Z" fill="white"/>
<path d="M252.625 89.9623C249.497 89.9623 246.947 87.4185 246.947 84.2898C246.947 81.1611 249.494 78.6172 252.625 78.6172C255.757 78.6172 258.303 81.1611 258.303 84.2898C258.303 87.4185 255.757 89.9623 252.625 89.9623ZM252.625 81.5314C251.103 81.5314 249.864 82.7693 249.864 84.2898C249.864 85.8102 251.103 87.0481 252.625 87.0481C254.147 87.0481 255.383 85.8102 255.383 84.2898C255.383 82.7693 254.144 81.5314 252.625 81.5314Z" fill="white"/>
<path d="M118.263 174.069C111.645 174.069 106.26 168.688 106.26 162.074C106.26 155.459 111.645 150.082 118.263 150.082C124.881 150.082 130.266 155.462 130.266 162.074C130.266 168.685 124.881 174.069 118.263 174.069ZM118.263 153C113.252 153 109.177 157.07 109.177 162.077C109.177 167.084 113.252 171.154 118.263 171.154C123.274 171.154 127.349 167.084 127.349 162.077C127.349 157.07 123.274 153 118.263 153Z" fill="white"/>
<path d="M118.262 167.751C115.134 167.751 112.584 165.208 112.584 162.079C112.584 158.95 115.13 156.406 118.262 156.406C121.394 156.406 123.94 158.95 123.94 162.079C123.94 165.208 121.394 167.751 118.262 167.751ZM118.262 159.321C116.74 159.321 115.501 160.558 115.501 162.079C115.501 163.599 116.74 164.837 118.262 164.837C119.784 164.837 121.02 163.599 121.02 162.079C121.02 160.558 119.781 159.321 118.262 159.321Z" fill="white"/>
<path d="M118.263 96.2841C111.645 96.2841 106.26 90.904 106.26 84.2925C106.26 77.681 111.645 72.3008 118.263 72.3008C124.881 72.3008 130.266 77.681 130.266 84.2925C130.266 90.904 124.881 96.2841 118.263 96.2841ZM118.263 75.215C113.252 75.215 109.177 79.2859 109.177 84.2925C109.177 89.299 113.252 93.3699 118.263 93.3699C123.274 93.3699 127.349 89.299 127.349 84.2925C127.349 79.2859 123.274 75.215 118.263 75.215Z" fill="white"/>
<path d="M118.262 89.9623C115.134 89.9623 112.584 87.4185 112.584 84.2898C112.584 81.1611 115.13 78.6172 118.262 78.6172C121.394 78.6172 123.94 81.1611 123.94 84.2898C123.94 87.4185 121.394 89.9623 118.262 89.9623ZM118.262 81.5314C116.74 81.5314 115.501 82.7693 115.501 84.2898C115.501 85.8102 116.74 87.0481 118.262 87.0481C119.784 87.0481 121.02 85.8102 121.02 84.2898C121.02 82.7693 119.781 81.5314 118.262 81.5314Z" fill="white"/>
<path d="M221.091 143.887V102.765L185.445 82.2031L149.797 102.765V143.887L185.445 164.449L221.091 143.887Z" fill="#33CFFF"/>
<path d="M200.746 119.312H189.579L198.778 95.5234L170.145 127.408H181.344L172.171 151.128L200.746 119.312Z" fill="white"/>
<g style="mix-blend-mode:screen">
<path d="M194.541 101.398L193.858 102.227L193.165 103.049L191.783 104.693C190.853 105.781 189.923 106.87 188.986 107.951C188.053 109.037 187.107 110.109 186.163 111.187L183.321 114.407L180.456 117.607C179.494 118.666 178.541 119.735 177.572 120.788C176.606 121.847 175.637 122.896 174.661 123.946L173.191 125.512L172.456 126.295L171.715 127.071L172.398 126.243L173.09 125.421L174.473 123.777C175.403 122.688 176.333 121.6 177.269 120.518C178.203 119.433 179.149 118.361 180.092 117.282L182.934 114.066L185.799 110.866C186.762 109.807 187.715 108.741 188.687 107.685C189.653 106.626 190.622 105.577 191.598 104.527L193.067 102.961L193.802 102.178L194.544 101.402L194.541 101.398Z" fill="#343433"/>
</g>
<path opacity="0.25" d="M189.578 119.312L198.778 95.5234L182.342 122.876H191.958L172.17 151.128L200.745 119.312H189.578Z" fill="#33CFFF"/>
<g style="mix-blend-mode:screen">
<path d="M189.217 119.979C190.105 119.866 190.992 119.804 191.877 119.765C192.765 119.726 193.653 119.703 194.537 119.703C195.425 119.703 196.313 119.723 197.197 119.765C198.085 119.807 198.973 119.866 199.857 119.983C198.97 120.099 198.082 120.158 197.197 120.2C196.309 120.239 195.422 120.262 194.537 120.262C193.649 120.262 192.761 120.242 191.877 120.2C190.989 120.158 190.101 120.099 189.217 119.986V119.979Z" fill="#343433"/>
</g>
<path d="M0 259C0 250.163 7.16344 243 16 243H354C362.837 243 370 250.163 370 259V284C370 292.837 362.837 300 354 300H16C7.16344 300 0 292.837 0 284V259Z" fill="white"/>
<g clip-path="url(#clip0_916_6295)">
<path d="M19.3862 261.355C20.977 258.441 23.1944 256.175 26.0386 254.547C28.8875 252.919 32.1125 252.105 35.7183 252.105C40.1388 252.105 43.9181 253.285 47.0659 255.643C50.2138 258.002 52.3156 261.218 53.3761 265.292H43.4071C42.6648 263.718 41.6139 262.524 40.2545 261.701C38.8951 260.877 37.3477 260.468 35.6171 260.468C32.826 260.468 30.5603 261.452 28.8297 263.416C27.0991 265.38 26.2314 268.007 26.2314 271.296C26.2314 274.586 27.0991 277.212 28.8297 279.176C30.5603 281.14 32.826 282.125 35.6171 282.125C37.3477 282.125 38.8951 281.715 40.2545 280.892C41.6139 280.068 42.6696 278.874 43.4071 277.3H53.3761C52.3156 281.374 50.2138 284.581 47.0659 286.925C43.9181 289.264 40.1388 290.438 35.7183 290.438C32.1125 290.438 28.8875 289.625 26.0434 288.002C23.1993 286.374 20.977 284.118 19.391 281.218C17.7954 278.319 17 275.015 17 271.296C17 267.578 17.7954 264.264 19.3862 261.35V261.355Z" fill="#343433"/>
<path d="M86.6772 274.114C87.9836 275.81 88.6392 277.749 88.6392 279.933C88.6392 283.076 87.5545 285.571 85.3805 287.408C83.2064 289.25 80.1742 290.171 76.2888 290.171H58.9492V252.535H75.7056C79.4897 252.535 82.4495 253.412 84.5851 255.162C86.7254 256.911 87.7956 259.289 87.7956 262.291C87.7956 264.509 87.2219 266.346 86.0746 267.813C84.9273 269.28 83.3992 270.298 81.4902 270.868C83.645 271.331 85.3805 272.413 86.6868 274.109L86.6772 274.114ZM68.0119 267.759H73.9509C75.4356 267.759 76.5781 267.428 77.3687 266.77C78.164 266.107 78.5642 265.133 78.5642 263.846C78.5642 262.559 78.1689 261.575 77.3687 260.898C76.5733 260.22 75.4356 259.879 73.9509 259.879H68.0119V267.759ZM78.2171 281.726C79.0462 281.029 79.4608 280.02 79.4608 278.7C79.4608 277.379 79.0269 276.341 78.164 275.591C77.2963 274.84 76.1057 274.465 74.5824 274.465H68.0071V282.774H74.6884C76.2069 282.774 77.3831 282.428 78.2123 281.726H78.2171Z" fill="#343433"/>
<path d="M120.666 252.535V259.879H110.803V290.166H101.736V259.879H91.873V252.535H120.666Z" fill="#343433"/>
<path d="M148.399 283.519H134.506L132.279 290.166H122.787L136.256 252.535H146.755L160.224 290.166H150.626L148.399 283.519ZM146.066 276.443L141.452 262.667L136.892 276.443H146.066Z" fill="#343433"/>
<path d="M170.458 289.202C168.303 288.311 166.577 286.985 165.285 285.236C163.993 283.486 163.314 281.376 163.246 278.91H172.897C173.037 280.304 173.514 281.366 174.329 282.097C175.143 282.828 176.204 283.194 177.51 283.194C178.817 283.194 179.916 282.882 180.692 282.258C181.468 281.634 181.858 280.767 181.858 279.661C181.858 278.73 181.55 277.965 180.928 277.356C180.311 276.746 179.549 276.249 178.648 275.855C177.746 275.46 176.464 275.016 174.806 274.514C172.4 273.764 170.438 273.013 168.92 272.263C167.401 271.513 166.09 270.406 164.996 268.939C163.902 267.473 163.352 265.562 163.352 263.204C163.352 259.7 164.605 256.961 167.117 254.978C169.629 252.994 172.897 252 176.927 252C180.957 252 184.331 252.994 186.843 254.978C189.354 256.961 190.694 259.719 190.873 263.262H181.063C180.991 262.049 180.552 261.089 179.737 260.392C178.923 259.695 177.881 259.349 176.609 259.349C175.514 259.349 174.627 259.646 173.957 260.236C173.287 260.825 172.95 261.673 172.95 262.78C172.95 263.993 173.514 264.943 174.647 265.621C175.78 266.298 177.544 267.034 179.949 267.819C182.355 268.642 184.307 269.427 185.811 270.177C187.315 270.928 188.612 272.019 189.706 273.447C190.801 274.875 191.35 276.717 191.35 278.969C191.35 281.22 190.81 283.062 189.735 284.812C188.655 286.561 187.093 287.955 185.045 288.993C182.996 290.031 180.571 290.547 177.78 290.547C174.989 290.547 172.617 290.099 170.463 289.207L170.458 289.202Z" fill="#343433"/>
<path d="M218.5 290.166L205.985 273.549V290.166H196.918V252.535H205.985V269.046L218.394 252.535H229.052L214.629 270.976L229.582 290.166H218.5Z" fill="#343433"/>
<path d="M240.028 289.202C237.873 288.311 236.147 286.985 234.856 285.236C233.564 283.486 232.884 281.376 232.816 278.91H242.467C242.607 280.304 243.084 281.366 243.899 282.097C244.714 282.828 245.774 283.194 247.08 283.194C248.387 283.194 249.486 282.882 250.262 282.258C251.038 281.634 251.429 280.767 251.429 279.661C251.429 278.73 251.12 277.965 250.498 277.356C249.881 276.746 249.12 276.249 248.218 275.855C247.317 275.46 246.034 275.016 244.376 274.514C241.971 273.764 240.009 273.013 238.49 272.263C236.972 271.513 235.661 270.406 234.566 268.939C233.472 267.473 232.922 265.562 232.922 263.204C232.922 259.7 234.176 256.961 236.687 254.978C239.199 252.994 242.467 252 246.497 252C250.527 252 253.902 252.994 256.413 254.978C258.925 256.961 260.265 259.719 260.443 263.262H250.633C250.561 262.049 250.122 261.089 249.308 260.392C248.493 259.695 247.452 259.349 246.179 259.349C245.085 259.349 244.198 259.646 243.528 260.236C242.858 260.825 242.52 261.673 242.52 262.78C242.52 263.993 243.084 264.943 244.217 265.621C245.35 266.298 247.114 267.034 249.52 267.819C251.925 268.642 253.878 269.427 255.382 270.177C256.886 270.928 258.182 272.019 259.277 273.447C260.371 274.875 260.92 276.717 260.92 278.969C260.92 281.22 260.38 283.062 259.305 284.812C258.226 286.561 256.664 287.955 254.615 288.993C252.566 290.031 250.142 290.547 247.35 290.547C244.559 290.547 242.188 290.099 240.033 289.207L240.028 289.202Z" fill="#343433"/>
<path d="M309.967 252.535V290.166H300.899V274.674H286.794V290.166H277.727V252.535H286.794V267.277H300.899V252.535H309.967Z" fill="#343433"/>
<path d="M343.001 296.6L338.229 290.114C336.816 290.401 335.438 290.543 334.093 290.543C330.593 290.543 327.382 289.719 324.466 288.077C321.55 286.434 319.236 284.139 317.519 281.191C315.803 278.242 314.945 274.929 314.945 271.244C314.945 267.56 315.803 264.256 317.519 261.327C319.236 258.399 321.55 256.108 324.466 254.466C327.382 252.824 330.593 252 334.093 252C337.592 252 340.798 252.824 343.715 254.466C346.631 256.108 348.93 258.399 350.608 261.327C352.286 264.256 353.129 267.565 353.129 271.244C353.129 274.461 352.483 277.399 351.191 280.06C349.899 282.721 348.106 284.929 345.807 286.678L353.973 296.595H342.996L343.001 296.6ZM326.91 279.207C328.694 281.191 331.089 282.185 334.097 282.185C337.106 282.185 339.444 281.186 341.227 279.183C343.011 277.18 343.903 274.539 343.903 271.249C343.903 267.96 343.011 265.275 341.227 263.291C339.444 261.308 337.062 260.319 334.097 260.319C331.133 260.319 328.698 261.303 326.91 263.267C325.126 265.231 324.23 267.897 324.23 271.254C324.23 274.612 325.122 277.229 326.91 279.212V279.207Z" fill="#343433"/>
</g>
<defs>
<clipPath id="clip0_916_6295">
<rect width="336.978" height="44.6" fill="white" transform="translate(17 252)"/>
</clipPath>
</defs>
</svg>
