<svg width="442" height="500" viewBox="0 0 442 500" fill="none" xmlns="http://www.w3.org/2000/svg">
<g clip-path="url(#clip0_916_6614)">
<path d="M221.015 422.034C218.771 422.034 216.939 420.212 216.939 417.959V392.509C216.939 390.256 218.762 388.434 221.015 388.434C223.268 388.434 225.09 390.256 225.09 392.509V417.959C225.09 420.212 223.268 422.034 221.015 422.034Z" fill="white"/>
<path d="M221.015 111.565C218.771 111.565 216.939 109.743 216.939 107.49V82.04C216.939 79.7967 218.762 77.9648 221.015 77.9648C223.268 77.9648 225.09 79.7869 225.09 82.04V107.49C225.09 109.733 223.268 111.565 221.015 111.565Z" fill="white"/>
<path d="M333.996 188.063C332.586 188.063 331.224 187.328 330.47 186.025C329.343 184.076 330.019 181.588 331.959 180.461L364.453 161.721C366.403 160.604 368.891 161.271 370.017 163.21C371.144 165.16 370.468 167.648 368.528 168.774L336.034 187.514C335.397 187.886 334.692 188.063 334.006 188.063H333.996Z" fill="white"/>
<path d="M75.06 337.219C73.6493 337.219 72.2778 336.484 71.5235 335.172C70.4067 333.222 71.0729 330.734 73.0224 329.617L105.203 311.142C107.153 310.035 109.641 310.691 110.758 312.65C111.875 314.6 111.208 317.088 109.259 318.205L77.078 336.68C76.4413 337.043 75.7457 337.219 75.0502 337.219H75.06Z" fill="white"/>
<path d="M366.969 337.24C366.049 337.24 365.196 336.936 364.511 336.426L332.761 318.137C330.811 317.011 330.145 314.522 331.262 312.583C332.379 310.633 334.877 309.967 336.816 311.084L368.997 329.618C370.261 330.343 371.035 331.695 371.035 333.145C371.035 335.398 369.213 337.24 366.96 337.24H366.969Z" fill="white"/>
<path d="M108.033 188.004C107.347 188.004 106.642 187.828 106.005 187.465L73.5106 168.774C71.5612 167.658 70.895 165.169 72.0118 163.22C73.1286 161.271 75.6168 160.595 77.5663 161.721L110.061 180.412C112.01 181.529 112.676 184.017 111.56 185.966C110.805 187.279 109.434 188.004 108.033 188.004Z" fill="white"/>
<path d="M79.4182 119.298C78.0075 119.298 76.6458 118.563 75.8915 117.26C74.7649 115.311 75.4409 112.822 77.3805 111.696L173.394 56.3188C175.344 55.202 177.832 55.8682 178.959 57.8078C180.085 59.7572 179.409 62.2454 177.47 63.3719L81.4558 118.749C80.8191 119.121 80.1137 119.298 79.428 119.298H79.4182Z" fill="white"/>
<path d="M266.616 444.221C265.205 444.221 263.843 443.496 263.089 442.183C261.962 440.234 262.629 437.746 264.578 436.629L360.856 381.036C362.806 379.91 365.294 380.576 366.421 382.525C367.547 384.465 366.881 386.963 364.931 388.08L268.653 443.672C268.016 444.044 267.311 444.221 266.625 444.221H266.616Z" fill="white"/>
<path d="M408.478 309.625C406.234 309.625 404.402 307.803 404.402 305.55V193.63C404.402 191.387 406.224 189.555 408.478 189.555C410.731 189.555 412.553 191.377 412.553 193.63V305.55C412.553 307.803 410.731 309.625 408.478 309.625Z" fill="white"/>
<path d="M33.4835 309.625C31.2401 309.625 29.4082 307.803 29.4082 305.55V193.63C29.4082 191.387 31.2303 189.555 33.4835 189.555C35.7366 189.555 37.5587 191.377 37.5587 193.63V305.55C37.5587 307.803 35.7366 309.625 33.4835 309.625Z" fill="white"/>
<path d="M175.412 444.231C174.716 444.231 174.02 444.054 173.384 443.692L77.0565 388.148C75.107 387.022 74.4409 384.534 75.5675 382.584C76.6842 380.645 79.1823 379.978 81.1318 381.085L177.459 436.629C179.408 437.756 180.075 440.244 178.948 442.193C178.194 443.496 176.822 444.231 175.421 444.231H175.412Z" fill="white"/>
<path d="M362.551 119.296C361.855 119.296 361.16 119.12 360.523 118.748L264.558 63.3706C262.609 62.2441 261.943 59.7559 263.069 57.8064C264.196 55.857 266.684 55.1909 268.634 56.3175L364.598 111.694C366.548 112.821 367.214 115.309 366.087 117.259C365.333 118.562 363.962 119.296 362.561 119.296H362.551Z" fill="white"/>
<path d="M114.686 136.833C113.275 136.833 111.913 136.099 111.159 134.796C110.033 132.846 110.708 130.358 112.648 129.232L170.877 95.6508C172.827 94.5341 175.315 95.2002 176.442 97.1398C177.568 99.0892 176.892 101.577 174.953 102.704L116.723 136.285C116.087 136.657 115.381 136.833 114.696 136.833H114.686Z" fill="white"/>
<path d="M269.145 404.87C267.734 404.87 266.373 404.145 265.618 402.832C264.492 400.892 265.158 398.394 267.107 397.278L325.493 363.56C327.443 362.433 329.931 363.099 331.058 365.049C332.184 366.998 331.518 369.486 329.569 370.603L271.183 404.321C270.546 404.693 269.84 404.87 269.155 404.87H269.145Z" fill="white"/>
<path d="M375.669 287.672C373.426 287.672 371.594 285.85 371.594 283.596V215.72C371.594 213.476 373.416 211.645 375.669 211.645C377.922 211.645 379.744 213.467 379.744 215.72V283.596C379.744 285.85 377.922 287.672 375.669 287.672Z" fill="white"/>
<path d="M66.3018 287.672C64.0585 287.672 62.2266 285.85 62.2266 283.596V215.72C62.2266 213.476 64.0487 211.645 66.3018 211.645C68.555 211.645 70.3771 213.467 70.3771 215.72V283.596C70.3771 285.85 68.555 287.672 66.3018 287.672Z" fill="white"/>
<path d="M172.857 404.88C172.162 404.88 171.466 404.703 170.829 404.341L112.414 370.662C110.464 369.536 109.798 367.047 110.925 365.098C112.051 363.149 114.54 362.492 116.489 363.599L174.905 397.278C176.854 398.405 177.52 400.893 176.394 402.842C175.639 404.145 174.268 404.88 172.867 404.88H172.857Z" fill="white"/>
<path d="M327.286 136.832C326.591 136.832 325.895 136.656 325.258 136.283L267.058 102.703C265.109 101.576 264.443 99.0879 265.569 97.1385C266.696 95.1891 269.184 94.5229 271.134 95.6495L329.334 129.23C331.283 130.357 331.949 132.845 330.823 134.794C330.068 136.097 328.697 136.832 327.296 136.832H327.286Z" fill="white"/>
<path d="M408.498 391.755C390.022 391.755 374.994 376.728 374.994 358.252C374.994 339.777 390.022 324.75 408.498 324.75C426.973 324.75 442.001 339.777 442.001 358.252C442.001 376.728 426.973 391.755 408.498 391.755ZM408.498 332.891C394.508 332.891 383.135 344.264 383.135 358.252C383.135 372.241 394.508 383.614 408.498 383.614C422.487 383.614 433.86 372.241 433.86 358.252C433.86 344.264 422.487 332.891 408.498 332.891Z" fill="white"/>
<path d="M408.497 374.091C399.759 374.091 392.656 366.979 392.656 358.25C392.656 349.522 399.768 342.41 408.497 342.41C417.225 342.41 424.338 349.522 424.338 358.25C424.338 366.979 417.225 374.091 408.497 374.091ZM408.497 350.551C404.245 350.551 400.797 354.009 400.797 358.25C400.797 362.492 404.255 365.95 408.497 365.95C412.739 365.95 416.197 362.492 416.197 358.25C416.197 354.009 412.739 350.551 408.497 350.551Z" fill="white"/>
<path d="M221.005 500.001C202.53 500.001 187.502 484.974 187.502 466.499C187.502 448.023 202.53 432.996 221.005 432.996C239.481 432.996 254.509 448.023 254.509 466.499C254.509 484.974 239.481 500.001 221.005 500.001ZM221.005 441.146C207.016 441.146 195.643 452.52 195.643 466.508C195.643 480.497 207.016 491.87 221.005 491.87C234.995 491.87 246.368 480.497 246.368 466.508C246.368 452.52 234.995 441.146 221.005 441.146Z" fill="white"/>
<path d="M221.005 482.348C212.266 482.348 205.164 475.236 205.164 466.508C205.164 457.78 212.276 450.668 221.005 450.668C229.733 450.668 236.845 457.78 236.845 466.508C236.845 475.236 229.733 482.348 221.005 482.348ZM221.005 458.799C216.753 458.799 213.305 462.257 213.305 466.498C213.305 470.74 216.763 474.198 221.005 474.198C225.247 474.198 228.705 470.74 228.705 466.498C228.705 462.257 225.247 458.799 221.005 458.799Z" fill="white"/>
<path d="M221.005 67.005C202.53 67.005 187.502 51.9778 187.502 33.5025C187.502 15.0271 202.53 0 221.005 0C239.481 0 254.509 15.0271 254.509 33.5025C254.509 51.9778 239.481 67.005 221.005 67.005ZM221.005 8.14052C207.016 8.14052 195.643 19.5137 195.643 33.5025C195.643 47.4912 207.016 58.8644 221.005 58.8644C234.995 58.8644 246.368 47.4912 246.368 33.5025C246.368 19.5137 234.995 8.14052 221.005 8.14052Z" fill="white"/>
<path d="M221.005 49.3445C212.266 49.3445 205.164 42.2325 205.164 33.5043C205.164 24.776 212.276 17.6641 221.005 17.6641C229.733 17.6641 236.845 24.776 236.845 33.5043C236.845 42.2325 229.733 49.3445 221.005 49.3445ZM221.005 25.8046C216.753 25.8046 213.305 29.2626 213.305 33.5043C213.305 37.746 216.763 41.204 221.005 41.204C225.247 41.204 228.705 37.746 228.705 33.5043C228.705 29.2626 225.247 25.8046 221.005 25.8046Z" fill="white"/>
<path d="M408.498 174.458C390.022 174.458 374.994 159.431 374.994 140.956C374.994 122.48 390.022 107.453 408.498 107.453C426.973 107.453 442.001 122.48 442.001 140.956C442.001 159.431 426.973 174.458 408.498 174.458ZM408.498 115.603C394.508 115.603 383.135 126.977 383.135 140.965C383.135 154.954 394.508 166.327 408.498 166.327C422.487 166.327 433.86 154.954 433.86 140.965C433.86 126.977 422.487 115.603 408.498 115.603Z" fill="white"/>
<path d="M408.497 156.805C399.759 156.805 392.656 149.693 392.656 140.965C392.656 132.237 399.768 125.125 408.497 125.125C417.225 125.125 424.338 132.237 424.338 140.965C424.338 149.693 417.225 156.805 408.497 156.805ZM408.497 133.256C404.245 133.256 400.797 136.714 400.797 140.955C400.797 145.197 404.255 148.655 408.497 148.655C412.739 148.655 416.197 145.197 416.197 140.955C416.197 136.714 412.739 133.256 408.497 133.256Z" fill="white"/>
<path d="M33.5034 391.755C15.0275 391.755 0 376.728 0 358.252C0 339.777 15.0275 324.75 33.5034 324.75C51.9793 324.75 67.0068 339.777 67.0068 358.252C67.0068 376.728 51.9793 391.755 33.5034 391.755ZM33.5034 332.891C19.5143 332.891 8.14074 344.264 8.14074 358.252C8.14074 372.241 19.5143 383.614 33.5034 383.614C47.4925 383.614 58.8661 372.241 58.8661 358.252C58.8661 344.264 47.4925 332.891 33.5034 332.891Z" fill="white"/>
<path d="M33.5028 374.091C24.7644 374.091 17.6621 366.979 17.6621 358.25C17.6621 349.522 24.7742 342.41 33.5028 342.41C42.2313 342.41 49.3434 349.522 49.3434 358.25C49.3434 366.979 42.2313 374.091 33.5028 374.091ZM33.5028 350.551C29.2512 350.551 25.8028 354.009 25.8028 358.25C25.8028 362.492 29.2609 365.95 33.5028 365.95C37.7446 365.95 41.2027 362.492 41.2027 358.25C41.2027 354.009 37.7446 350.551 33.5028 350.551Z" fill="white"/>
<path d="M33.5034 174.458C15.0275 174.458 0 159.431 0 140.956C0 122.48 15.0275 107.453 33.5034 107.453C51.9793 107.453 67.0068 122.48 67.0068 140.956C67.0068 159.431 51.9793 174.458 33.5034 174.458ZM33.5034 115.603C19.5143 115.603 8.14074 126.977 8.14074 140.965C8.14074 154.954 19.5143 166.327 33.5034 166.327C47.4925 166.327 58.8661 154.954 58.8661 140.965C58.8661 126.977 47.4925 115.603 33.5034 115.603Z" fill="white"/>
<path d="M33.5028 156.805C24.7644 156.805 17.6621 149.693 17.6621 140.965C17.6621 132.237 24.7742 125.125 33.5028 125.125C42.2313 125.125 49.3434 132.237 49.3434 140.965C49.3434 149.693 42.2313 156.805 33.5028 156.805ZM33.5028 133.256C29.2512 133.256 25.8028 136.714 25.8028 140.955C25.8028 145.197 29.2609 148.655 33.5028 148.655C37.7446 148.655 41.2027 145.197 41.2027 140.955C41.2027 136.714 37.7446 133.256 33.5028 133.256Z" fill="white"/>
<path d="M221.005 135.125L121.514 192.559V307.437L221.005 364.872L320.496 307.437V192.559L221.005 135.125ZM183.965 327.666L209.563 261.396H178.303L258.221 172.321L232.545 238.777H263.707L183.965 327.657V327.666Z" fill="white"/>
</g>
<defs>
<clipPath id="clip0_916_6614">
<rect width="442" height="500" fill="white"/>
</clipPath>
</defs>
</svg>
