<svg width="422" height="300" viewBox="0 0 422 300" fill="none" xmlns="http://www.w3.org/2000/svg">
<path d="M118.794 3.57422H304.096C319.117 3.57422 331.312 15.7576 331.312 30.7642V215.89C331.312 230.896 319.117 243.08 304.096 243.08H118.794C103.773 243.08 91.5781 230.896 91.5781 215.89V30.7642C91.5781 15.7576 103.773 3.57422 118.794 3.57422Z" fill="#343433"/>
<path d="M304.096 7.14758C317.097 7.14758 327.734 17.7747 327.734 30.7638V215.889C327.734 228.878 317.097 239.506 304.096 239.506H118.793C105.792 239.506 95.1544 228.878 95.1544 215.889V30.7638C95.1544 17.7747 105.792 7.14758 118.793 7.14758H304.096ZM304.096 0H118.793C101.815 0 88 13.8013 88 30.7638V215.889C88 232.852 101.815 246.653 118.793 246.653H304.096C321.074 246.653 334.889 232.852 334.889 215.889V30.7638C334.889 13.8013 321.074 0 304.096 0Z" fill="white"/>
<g clip-path="url(#clip0_963_124128)">
<path d="M226.038 140.558L173.474 117.701L120.668 140.572L120.6 127.714L170.662 106.031L176.251 106.035L226.109 127.718L226.041 140.558H226.038Z" fill="#0D87C5"/>
<path d="M226.038 127.737L173.474 150.594L120.668 127.723L120.6 140.581L170.662 162.264L176.251 162.26L226.109 140.577L226.041 127.737H226.038Z" fill="#33CFFF"/>
<path d="M226.038 112.445L173.474 89.5876L120.668 112.459L120.6 99.6008L170.662 77.918L176.251 77.9215L226.109 99.6044L226.041 112.445H226.038Z" fill="#0D87C5"/>
<path d="M226.038 99.6237L173.474 122.481L120.668 99.6094L120.6 112.468L170.662 134.151L176.251 134.147L226.109 112.464L226.041 99.6237H226.038Z" fill="#33CFFF"/>
<path d="M226.038 84.3277L173.474 61.4704L120.668 84.342L120.6 71.4836L170.662 49.8008L176.251 49.8044L226.109 71.4872L226.041 84.3277H226.038Z" fill="#0D87C5"/>
<path d="M226.038 71.5065L173.474 94.3638L120.668 71.4922L120.6 84.3505L170.662 106.033L176.251 106.03L226.109 84.347L226.041 71.5065H226.038Z" fill="#33CFFF"/>
<path d="M301.132 175.101L248.568 152.24L195.761 175.112L195.693 162.254L245.756 140.574L251.345 140.578L301.2 162.261L301.135 175.101H301.132Z" fill="#33CFFF"/>
<path d="M301.132 162.276L248.568 185.137L195.761 162.266L195.693 175.124L245.756 196.803L251.345 196.8L301.2 175.117L301.135 162.276H301.132Z" fill="#0D87C5"/>
<path d="M301.132 146.988L248.568 124.127L195.761 146.999L195.693 134.144L245.756 112.461L251.345 112.465L301.2 134.147L301.135 146.988H301.132Z" fill="#33CFFF"/>
<path d="M301.132 134.163L248.568 157.024L195.761 134.152L195.693 147.011L245.756 168.69L251.345 168.686L301.2 147.004L301.135 134.167L301.132 134.163Z" fill="#0D87C5"/>
<path d="M301.132 118.871L248.568 96.0098L195.761 118.881L195.693 106.027L245.756 84.3438L251.345 84.3473L301.2 106.03L301.135 118.871H301.132Z" fill="#33CFFF"/>
<path d="M301.132 106.046L248.568 128.907L195.761 106.035L195.693 118.894L245.756 140.576L251.345 140.569L301.2 118.886L301.135 106.049L301.132 106.046Z" fill="#0D87C5"/>
<path d="M210.9 147.156C197.715 147.156 186.992 136.454 186.992 123.302C186.992 110.151 197.719 99.4492 210.9 99.4492C224.081 99.4492 234.808 110.151 234.808 123.302C234.808 136.454 224.081 147.156 210.9 147.156Z" fill="#343433"/>
<path d="M210.9 148.7C196.864 148.7 185.443 137.306 185.443 123.301C185.443 109.297 196.864 97.9023 210.9 97.9023C224.937 97.9023 236.357 109.297 236.357 123.301C236.357 137.306 224.937 148.7 210.9 148.7ZM210.9 100.99C198.571 100.99 188.538 111 188.538 123.301C188.538 135.603 198.571 145.612 210.9 145.612C223.23 145.612 233.263 135.603 233.263 123.301C233.263 111 223.23 100.99 210.9 100.99Z" fill="white"/>
<path d="M210.901 100.606C216.976 100.606 222.69 102.965 226.987 107.253C231.284 111.54 233.649 117.237 233.649 123.303C233.649 129.368 231.284 135.065 226.987 139.352C222.69 143.64 216.98 145.999 210.901 145.999C204.822 145.999 199.111 143.64 194.814 139.352C190.517 135.065 188.152 129.368 188.152 123.303C188.152 117.237 190.517 111.54 194.814 107.253C199.111 102.965 204.822 100.606 210.901 100.606ZM210.901 98.2891C197.054 98.2891 185.83 109.487 185.83 123.303C185.83 137.118 197.054 148.316 210.901 148.316C224.747 148.316 235.971 137.118 235.971 123.303C235.971 109.487 224.747 98.2891 210.901 98.2891Z" fill="white"/>
<path d="M203.329 134.691L214.904 123.142L203.329 111.594C202.614 110.873 202.621 109.713 203.343 108.999C204.059 108.292 205.211 108.292 205.93 108.999L218.804 121.843C219.523 122.56 219.523 123.721 218.804 124.438L205.93 137.282C205.208 137.996 204.045 137.989 203.329 137.268C202.621 136.554 202.621 135.405 203.329 134.687V134.691Z" fill="white"/>
</g>
<path d="M0 259C0 250.163 7.16344 243 16 243H406C414.837 243 422 250.163 422 259V284C422 292.837 414.837 300 406 300H16C7.16344 300 0 292.837 0 284V259Z" fill="white"/>
<g clip-path="url(#clip1_963_124128)">
<path d="M16.3278 261.978C17.8796 259.184 20.0419 257.002 22.8197 255.443C25.5976 253.884 28.7427 253.102 32.2602 253.102C36.5692 253.102 40.2626 254.234 43.3301 256.498C46.3977 258.762 48.4513 261.85 49.4859 265.761H39.7609C39.0367 264.253 38.0124 263.1 36.683 262.313C35.3536 261.526 33.8483 261.129 32.1568 261.129C29.4307 261.129 27.227 262.071 25.5355 263.96C23.844 265.848 23.0008 268.37 23.0008 271.524C23.0008 274.679 23.844 277.2 25.5355 279.089C27.227 280.978 29.4307 281.919 32.1568 281.919C33.8483 281.919 35.3536 281.523 36.683 280.736C38.0124 279.948 39.0367 278.796 39.7609 277.288H49.4859C48.4513 281.199 46.3977 284.276 43.3301 286.525C40.2626 288.774 36.5692 289.896 32.2602 289.896C28.7427 289.896 25.5976 289.114 22.8197 287.554C20.0419 285.995 17.8796 283.823 16.3278 281.045C14.7759 278.266 14 275.091 14 271.524C14 267.958 14.7759 264.773 16.3278 261.978Z" fill="#343433"/>
<path d="M78.558 253.516V260.566H63.7636V268.182H74.8335V275.026H63.7636V289.641H54.918V253.516H78.558Z" fill="#343433"/>
<path d="M124.337 253.516V289.641H115.492V267.976L107.37 289.641H100.232L92.0585 267.925V289.641H83.2129V253.516H93.6621L103.853 278.525L113.94 253.516H124.337Z" fill="#343433"/>
<path d="M139.545 253.516V289.641H130.699V253.516H139.545Z" fill="#343433"/>
<path d="M170.065 264.937C169.408 263.738 168.471 262.817 167.245 262.184C166.019 261.551 164.581 261.232 162.926 261.232C160.066 261.232 157.769 262.169 156.046 264.037C154.324 265.905 153.46 268.401 153.46 271.524C153.46 274.854 154.365 277.453 156.176 279.321C157.986 281.189 160.479 282.125 163.65 282.125C165.823 282.125 167.659 281.575 169.159 280.478C170.66 279.382 171.756 277.803 172.444 275.744H161.219V269.26H180.462V277.442C179.805 279.64 178.693 281.678 177.126 283.566C175.558 285.455 173.567 286.978 171.151 288.146C168.735 289.314 166.014 289.896 162.978 289.896C159.393 289.896 156.191 289.114 153.382 287.554C150.573 285.995 148.38 283.823 146.813 281.045C145.245 278.266 144.459 275.091 144.459 271.524C144.459 267.958 145.245 264.773 146.813 261.978C148.38 259.184 150.563 257.002 153.356 255.443C156.15 253.884 159.341 253.102 162.926 253.102C167.271 253.102 170.934 254.146 173.918 256.241C176.903 258.335 178.874 261.232 179.841 264.937H170.065Z" fill="#343433"/>
<path d="M203.896 289.641L196.343 276.004H194.223V289.641H185.377V253.516H200.223C203.084 253.516 205.525 254.015 207.543 255.008C209.56 256.001 211.071 257.365 212.069 259.099C213.067 260.833 213.569 262.763 213.569 264.888C213.569 267.292 212.886 269.432 211.526 271.321C210.165 273.21 208.153 274.547 205.499 275.335L213.879 289.641H203.896ZM194.223 269.777H199.706C201.325 269.777 202.541 269.381 203.353 268.594C204.165 267.806 204.568 266.689 204.568 265.249C204.568 263.808 204.165 262.794 203.353 262.007C202.541 261.219 201.325 260.823 199.706 260.823H194.223V269.777Z" fill="#343433"/>
<path d="M241.71 283.26H228.157L225.984 289.641H216.725L229.864 253.516H240.106L253.245 289.641H243.882L241.71 283.26ZM239.433 276.467L234.933 263.242L230.484 276.467H239.433Z" fill="#343433"/>
<path d="M283.35 253.516V260.566H273.729V289.641H264.883V260.566H255.262V253.516H283.35Z" fill="#343433"/>
<path d="M296.644 253.516V289.641H287.799V253.516H296.644Z" fill="#343433"/>
<path d="M376.204 289.641H367.359L352.564 267.358V289.641H343.719V253.516H352.564L367.359 275.901V253.516H376.204V289.641Z" fill="#343433"/>
<path d="M388.619 288.713C386.514 287.854 384.833 286.588 383.576 284.905C382.319 283.223 381.651 281.2 381.584 278.833H390.999C391.138 280.171 391.604 281.19 392.395 281.895C393.187 282.6 394.221 282.95 395.499 282.95C396.777 282.95 397.842 282.651 398.603 282.049C399.363 281.447 399.741 280.619 399.741 279.554C399.741 278.663 399.441 277.922 398.836 277.341C398.23 276.759 397.491 276.276 396.611 275.9C395.732 275.524 394.48 275.092 392.861 274.613C390.518 273.893 388.604 273.172 387.119 272.452C385.634 271.732 384.362 270.671 383.291 269.261C382.22 267.857 381.687 266.019 381.687 263.755C381.687 260.395 382.913 257.76 385.36 255.856C387.807 253.952 390.999 253 394.93 253C398.861 253 402.156 253.952 404.603 255.856C407.05 257.76 408.364 260.41 408.535 263.807H398.965C398.898 262.639 398.463 261.723 397.672 261.054C396.88 260.385 395.861 260.05 394.62 260.05C393.549 260.05 392.69 260.333 392.033 260.899C391.376 261.465 391.05 262.278 391.05 263.344C391.05 264.512 391.604 265.417 392.706 266.071C393.807 266.724 395.535 267.424 397.879 268.181C400.222 268.968 402.131 269.725 403.595 270.445C405.058 271.166 406.326 272.21 407.397 273.584C408.467 274.958 409 276.723 409 278.885C409 281.046 408.473 282.811 407.422 284.494C406.372 286.176 404.846 287.514 402.844 288.508C400.843 289.501 398.484 290 395.758 290C393.032 290 390.724 289.573 388.619 288.713Z" fill="#343433"/>
<path d="M324.016 288.02C315.137 288.037 307.908 280.852 307.892 271.964C307.875 263.075 315.05 255.836 323.928 255.82C328.245 255.803 332.384 257.542 335.419 260.615C329.42 252.358 317.874 250.531 309.61 256.539C301.345 262.547 299.54 274.106 305.539 282.38C311.541 290.654 323.085 292.464 331.349 286.457C331.752 286.158 332.157 285.842 332.524 285.526C329.998 287.178 327.032 288.039 324.016 288.02Z" fill="#343433"/>
<path d="M329.49 258.404C335.719 262.042 337.807 270.033 334.191 276.252C330.559 282.488 322.576 284.578 316.366 280.96C312.805 278.886 310.436 275.232 309.98 271.139V271.894C309.98 279.904 316.454 286.387 324.455 286.387C332.456 286.387 338.93 279.904 338.93 271.894C338.842 265.886 335.106 260.528 329.49 258.402V258.404Z" fill="#343433"/>
<path d="M322.559 259.402C317.804 259.386 313.629 262.53 312.295 267.097C314.453 262.354 320.05 260.264 324.786 262.425C329.523 264.587 331.61 270.191 329.454 274.934C327.928 278.308 324.559 280.451 320.875 280.451C320.05 280.434 319.225 280.327 318.418 280.135C319.733 280.697 321.138 280.977 322.576 280.961C328.523 280.925 333.295 276.059 333.262 270.103C333.191 264.219 328.438 259.457 322.559 259.404V259.402Z" fill="#343433"/>
</g>
<defs>
<clipPath id="clip0_963_124128">
<rect width="180.6" height="147" fill="white" transform="translate(120.6 49.8008)"/>
</clipPath>
<clipPath id="clip1_963_124128">
<rect width="395" height="37" fill="white" transform="translate(14 253)"/>
</clipPath>
</defs>
</svg>
