<svg width="500" height="408" viewBox="0 0 500 408" fill="none" xmlns="http://www.w3.org/2000/svg">
<g clip-path="url(#clip0_963_124361)">
<path d="M135.678 115.071L146.386 110.424L157.055 115.071L198.025 97.2071L154.073 78.0451L138.6 78.0352L94.4902 97.1872L135.678 115.071Z" fill="white"/>
<path d="M45.8228 76.0535L146.385 32.3891L246.542 76.0535L287.512 58.1895L154.072 0.00990796L138.6 0L4.625 58.1696L45.8228 76.0535Z" fill="white"/>
<path d="M207.107 136.899L222.56 143.637C230.931 139.822 240.212 137.672 249.989 137.672C265.927 137.672 280.568 143.329 292.019 152.732L292.098 138.227L248.077 119.035L207.107 136.899Z" fill="white"/>
<path d="M45.8228 154.09L85.3663 136.919L44.1785 119.035L4.625 136.206L45.8228 154.09Z" fill="white"/>
<path d="M135.678 193.105L146.386 188.458L157.054 193.105L186.732 180.165C184.761 186.437 183.691 193.115 183.691 200.041C183.691 200.705 183.701 201.368 183.721 202.032C184.038 191.361 186.881 181.315 191.675 172.477L158.6 158.051L154.083 160.022H138.61L134.044 158.051L94.5 175.221L135.688 193.105H135.678Z" fill="white"/>
<path d="M183.681 204.003C183.681 197.088 184.751 190.41 186.722 184.128L146.386 201.715L0.188208 138.234L0 173.923L138.601 234.104H154.073L185.712 220.292C184.395 215.081 183.681 209.621 183.681 203.994V204.003Z" fill="white"/>
<path d="M291.911 60.2389L146.386 123.68L0.188208 60.1992L0 95.8877L138.601 156.069L154.073 156.059L292.109 95.8778L291.921 60.2389H291.911Z" fill="white"/>
<path d="M206.147 253.702L146.386 279.75L0.188208 216.27L0 251.958L138.601 312.139H154.073L249.931 270.337C233.15 270.317 217.826 264.026 206.147 253.702Z" fill="white"/>
<path d="M45.8246 232.125L85.3682 214.954L44.1803 197.07L4.63672 214.241L45.8246 232.125Z" fill="white"/>
<path d="M249.999 141.008C266.819 141.008 282.638 147.558 294.535 159.457C306.432 171.356 312.979 187.17 312.979 204.003C312.979 220.837 306.432 236.65 294.535 248.549C282.638 260.449 266.829 266.998 249.999 266.998C233.169 266.998 217.36 260.449 205.463 248.549C193.566 236.65 187.019 220.837 187.019 204.003C187.019 187.17 193.566 171.356 205.463 159.457C217.36 147.558 233.169 141.008 249.999 141.008ZM249.999 134.578C211.664 134.578 180.59 165.659 180.59 204.003C180.59 242.347 211.664 273.428 249.999 273.428C288.334 273.428 319.408 242.347 319.408 204.003C319.408 165.659 288.334 134.578 249.999 134.578Z" fill="white"/>
<path d="M499.811 312.17L354.287 375.621L208.089 312.141L207.9 347.829L346.501 408L361.974 407.99L500 347.809L499.821 312.17H499.811Z" fill="white"/>
<path d="M253.218 292.441L212.525 310.107L253.713 327.981L294.406 310.315L253.218 292.441Z" fill="white"/>
<path d="M415.008 310.792L454.442 327.982L495.412 310.128L455.978 292.938L415.008 310.792Z" fill="white"/>
<path d="M316.319 200.041C316.319 199.724 316.299 199.407 316.299 199.09L343.58 210.94L354.288 206.293L364.956 210.94L405.926 193.076L361.975 173.914H346.502L314.328 187.874C315.467 192.422 316.141 197.148 316.289 202.013C316.309 201.359 316.319 200.705 316.319 200.041Z" fill="white"/>
<path d="M499.821 234.133L354.297 297.573L277.617 264.283C269.207 268.157 259.856 270.327 250.01 270.327C234.071 270.327 219.431 264.669 207.98 255.267L207.9 269.782L346.501 329.963H361.974L500.009 269.772L499.821 234.133Z" fill="white"/>
<path d="M454.443 171.923L495.413 154.058L361.963 95.8789H346.491L250.197 137.671C266.987 137.72 282.321 144.051 293.99 154.425L354.276 128.248L454.433 171.913L454.443 171.923Z" fill="white"/>
<path d="M499.998 156.06L499.84 155.98L499.919 171.922L499.998 156.06Z" fill="white"/>
<path d="M495.412 189.778L499.81 191.7H499.82L499.84 187.855L495.412 189.778Z" fill="white"/>
<path d="M361.973 255.884L346.501 255.903L341.934 253.922L302.391 271.092L343.579 288.976L354.287 284.319L364.955 288.976L405.925 271.112L366.49 253.922L361.973 255.884Z" fill="white"/>
<path d="M415.008 232.756L454.442 249.957L495.412 232.093L455.978 214.902L415.008 232.756Z" fill="white"/>
<path d="M499.822 156.108L354.297 219.548L316.309 203.051C316.309 203.369 316.329 203.686 316.329 204.003C316.329 215.357 313.456 226.048 308.414 235.391L346.511 251.927H361.984L500.02 191.737L499.832 156.098L499.822 156.108Z" fill="white"/>
<path d="M229.04 235.611L261.085 203.559L229.04 171.506C227.059 169.505 227.079 166.285 229.08 164.303C231.061 162.342 234.25 162.342 236.241 164.303L271.882 199.952C273.873 201.944 273.873 205.164 271.882 207.155L236.241 242.804C234.24 244.786 231.021 244.766 229.04 242.765C227.079 240.783 227.079 237.593 229.04 235.601V235.611Z" fill="white"/>
</g>
<defs>
<clipPath id="clip0_963_124361">
<rect width="500" height="408" fill="white"/>
</clipPath>
</defs>
</svg>
