<svg width="75" height="61" viewBox="0 0 75 61" fill="none" xmlns="http://www.w3.org/2000/svg">
<g clip-path="url(#clip0_963_124411)">
<path d="M20.352 17.2052L21.9582 16.5105L23.5585 17.2052L29.704 14.5344L23.1112 11.6694L20.7903 11.668L14.1738 14.5314L20.352 17.2052Z" fill="white"/>
<path d="M6.87303 11.3707L21.9574 4.84249L36.9809 11.3707L43.1264 8.69989L23.1104 0.00148134L20.7895 0L0.693359 8.69693L6.87303 11.3707Z" fill="white"/>
<path d="M31.0664 20.4677L33.3843 21.475C34.6399 20.9047 36.0321 20.5833 37.4987 20.5833C39.8894 20.5833 42.0855 21.4291 43.8032 22.8349L43.815 20.6662L37.2119 17.7969L31.0664 20.4677Z" fill="white"/>
<path d="M6.87303 23.0378L12.8046 20.4707L6.62638 17.7969L0.693359 20.364L6.87303 23.0378Z" fill="white"/>
<path d="M20.3525 28.8699L21.9587 28.1751L23.559 28.8699L28.0106 26.9353C27.7149 27.8729 27.5544 28.8714 27.5544 29.9068C27.5544 30.0061 27.5559 30.1053 27.5589 30.2046C27.6064 28.6092 28.0329 27.1071 28.752 25.7857L23.7907 23.6289L23.1132 23.9237H20.7923L20.1073 23.6289L14.1758 26.1961L20.354 28.8699H20.3525Z" fill="white"/>
<path d="M27.5522 30.5011C27.5522 29.4671 27.7127 28.4687 28.0084 27.5295L21.958 30.1589L0.0282312 20.668L0 26.0037L20.7901 35.0014H23.111L27.8568 32.9364C27.6592 32.1572 27.5522 31.341 27.5522 30.4996V30.5011Z" fill="white"/>
<path d="M43.7866 9.00593L21.958 18.4909L0.0282312 9L0 14.3358L20.7901 23.3334L23.111 23.3319L43.8164 14.3343L43.7881 9.00593H43.7866Z" fill="white"/>
<path d="M30.9221 37.9324L21.958 41.8269L0.0282312 32.3359L0 37.6717L20.7901 46.6694H23.111L37.4896 40.4196C34.9726 40.4166 32.6739 39.476 30.9221 37.9324Z" fill="white"/>
<path d="M6.8735 34.7058L12.805 32.1387L6.62684 29.4648L0.695312 32.032L6.8735 34.7058Z" fill="white"/>
<path d="M37.4993 21.0825C40.0223 21.0825 42.3952 22.0616 44.1797 23.8407C45.9642 25.6198 46.9463 27.984 46.9463 30.5008C46.9463 33.0176 45.9642 35.3818 44.1797 37.1609C42.3952 38.94 40.0237 39.9192 37.4993 39.9192C34.9748 39.9192 32.6034 38.94 30.8189 37.1609C29.0344 35.3818 28.0522 33.0176 28.0522 30.5008C28.0522 27.984 29.0344 25.6198 30.8189 23.8407C32.6034 22.0616 34.9748 21.0825 37.4993 21.0825ZM37.4993 20.1211C31.749 20.1211 27.0879 24.768 27.0879 30.5008C27.0879 36.2336 31.749 40.8806 37.4993 40.8806C43.2495 40.8806 47.9107 36.2336 47.9107 30.5008C47.9107 24.768 43.2495 20.1211 37.4993 20.1211Z" fill="white"/>
<path d="M74.9722 46.6724L53.1435 56.1589L31.2138 46.668L31.1855 52.0037L51.9756 60.9999L54.2965 60.9984L75.0004 52.0008L74.9737 46.6724H74.9722Z" fill="white"/>
<path d="M37.9828 43.7227L31.8789 46.3639L38.0571 49.0362L44.161 46.395L37.9828 43.7227Z" fill="white"/>
<path d="M62.252 46.4662L68.1671 49.0364L74.3126 46.367L68.3974 43.7969L62.252 46.4662Z" fill="white"/>
<path d="M47.449 29.9102C47.449 29.8628 47.4461 29.8154 47.4461 29.768L51.5381 31.5397L53.1443 30.8449L54.7446 31.5397L60.8901 28.8688L54.2974 26.0039H51.9764L47.1504 28.0911C47.3213 28.771 47.4223 29.4776 47.4446 30.205C47.4476 30.1072 47.449 30.0094 47.449 29.9102Z" fill="white"/>
<path d="M74.9737 35.0078L53.145 44.4928L41.643 39.5155C40.3815 40.0947 38.9789 40.4191 37.5019 40.4191C35.1112 40.4191 32.9151 39.5733 31.1974 38.1675L31.1855 40.3377L51.9756 49.3353H54.2965L75.0019 40.3362L74.9737 35.0078Z" fill="white"/>
<path d="M68.1661 25.7052L74.3116 23.0344L54.2942 14.3359H51.9733L37.5293 20.5842C40.0478 20.5916 42.3479 21.5382 44.0983 23.0892L53.1412 19.1755L68.1646 25.7037L68.1661 25.7052Z" fill="white"/>
<path d="M75.0003 23.3322L74.9766 23.3203L74.9884 25.7038L75.0003 23.3322Z" fill="white"/>
<path d="M74.3125 28.3733L74.9722 28.6607H74.9737L74.9767 28.0859L74.3125 28.3733Z" fill="white"/>
<path d="M54.2968 38.2582L51.9759 38.2611L51.2909 37.9648L45.3594 40.532L51.5376 43.2058L53.1438 42.5096L54.744 43.2058L60.8895 40.535L54.9743 37.9648L54.2968 38.2582Z" fill="white"/>
<path d="M62.252 34.8022L68.1671 37.3738L74.3126 34.7029L68.3974 32.1328L62.252 34.8022Z" fill="white"/>
<path d="M74.9729 23.3413L53.1442 32.8263L47.4459 30.3599C47.4459 30.4073 47.4489 30.4547 47.4489 30.5021C47.4489 32.1997 47.018 33.7981 46.2617 35.195L51.9763 37.6673H54.2972L75.0026 28.6682L74.9744 23.3398L74.9729 23.3413Z" fill="white"/>
<path d="M34.3558 35.2249L39.1625 30.4328L34.3558 25.6407C34.0586 25.3414 34.0616 24.86 34.3617 24.5637C34.6589 24.2704 35.1374 24.2704 35.436 24.5637L40.7821 29.8936C41.0808 30.1913 41.0808 30.6728 40.7821 30.9705L35.436 36.3004C35.1359 36.5966 34.653 36.5937 34.3558 36.2944C34.0616 35.9982 34.0616 35.5212 34.3558 35.2234V35.2249Z" fill="white"/>
</g>
<defs>
<clipPath id="clip0_963_124411">
<rect width="75" height="61" fill="white"/>
</clipPath>
</defs>
</svg>
