<svg width="844" height="600" viewBox="0 0 844 600" fill="none" xmlns="http://www.w3.org/2000/svg">
<path d="M237.588 7.14844H608.193C638.235 7.14844 662.625 31.5152 662.625 61.5285V431.779C662.625 461.793 638.235 486.159 608.193 486.159H237.588C207.546 486.159 183.156 461.793 183.156 431.779V61.5285C183.156 31.5152 207.546 7.14844 237.588 7.14844Z" fill="#343433"/>
<path d="M608.191 14.2952C634.194 14.2952 655.469 35.5494 655.469 61.5276V431.779C655.469 457.757 634.194 479.011 608.191 479.011H237.586C211.583 479.011 190.309 457.757 190.309 431.779V61.5276C190.309 35.5494 211.583 14.2952 237.586 14.2952H608.191ZM608.191 0H237.586C203.629 0 176 27.6026 176 61.5276V431.779C176 465.704 203.629 493.306 237.586 493.306H608.191C642.148 493.306 669.777 465.704 669.777 431.779V61.5276C669.777 27.6026 642.148 0 608.191 0Z" fill="white"/>
<g clip-path="url(#clip0_963_124024)">
<path d="M452.076 281.116L346.949 235.402L241.335 281.145L241.199 255.428L341.324 212.062L352.502 212.07L452.219 255.435L452.083 281.116H452.076Z" fill="#0D87C5"/>
<path d="M452.076 255.47L346.949 301.185L241.335 255.441L241.199 281.158L341.324 324.524L352.502 324.517L452.219 281.151L452.083 255.47H452.076Z" fill="#33CFFF"/>
<path d="M452.076 224.886L346.949 179.171L241.335 224.914L241.199 199.198L341.324 155.832L352.502 155.839L452.219 199.205L452.083 224.886H452.076Z" fill="#0D87C5"/>
<path d="M452.076 199.239L346.949 244.954L241.335 199.211L241.199 224.928L341.324 268.293L352.502 268.286L452.219 224.92L452.083 199.239H452.076Z" fill="#33CFFF"/>
<path d="M452.076 168.655L346.949 122.941L241.335 168.684L241.199 142.967L341.324 99.6016L352.502 99.6087L452.219 142.974L452.083 168.655H452.076Z" fill="#0D87C5"/>
<path d="M452.076 143.009L346.949 188.724L241.335 142.98L241.199 168.697L341.324 212.063L352.502 212.056L452.219 168.69L452.083 143.009H452.076Z" fill="#33CFFF"/>
<path d="M602.263 350.198L497.136 304.477L391.523 350.22L391.387 324.503L491.512 281.145L502.689 281.152L602.399 324.517L602.27 350.198H602.263Z" fill="#33CFFF"/>
<path d="M602.263 324.545L497.136 370.267L391.523 324.523L391.387 350.24L491.512 393.599L502.689 393.592L602.399 350.226L602.27 324.545H602.263Z" fill="#0D87C5"/>
<path d="M602.263 293.968L497.136 248.246L391.523 293.989L391.387 268.28L491.512 224.914L502.689 224.921L602.399 268.287L602.27 293.968H602.263Z" fill="#33CFFF"/>
<path d="M602.263 268.314L497.136 314.036L391.523 268.293L391.387 294.01L491.512 337.368L502.689 337.361L602.399 293.995L602.27 268.322L602.263 268.314Z" fill="#0D87C5"/>
<path d="M602.263 237.737L497.136 192.016L391.523 237.759L391.387 212.049L491.512 168.684L502.689 168.691L602.399 212.056L602.27 237.737H602.263Z" fill="#33CFFF"/>
<path d="M602.263 212.084L497.136 257.806L391.523 212.062L391.387 237.779L491.512 281.145L502.689 281.131L602.399 237.765L602.27 212.091L602.263 212.084Z" fill="#0D87C5"/>
<path d="M421.798 294.312C395.429 294.312 373.982 272.907 373.982 246.605C373.982 220.303 395.436 198.898 421.798 198.898C448.16 198.898 469.614 220.303 469.614 246.605C469.614 272.907 448.16 294.312 421.798 294.312Z" fill="#343433"/>
<path d="M421.799 297.405C393.726 297.405 370.885 274.615 370.885 246.607C370.885 218.598 393.726 195.809 421.799 195.809C449.871 195.809 472.713 218.598 472.713 246.607C472.713 274.615 449.871 297.405 421.799 297.405ZM421.799 201.984C397.14 201.984 377.075 222.004 377.075 246.607C377.075 271.209 397.14 291.229 421.799 291.229C446.458 291.229 466.523 271.209 466.523 246.607C466.523 222.004 446.458 201.984 421.799 201.984Z" fill="white"/>
<path d="M421.799 201.212C433.95 201.212 445.378 205.931 453.972 214.506C462.566 223.08 467.296 234.475 467.296 246.605C467.296 258.735 462.566 270.13 453.972 278.704C445.378 287.279 433.957 291.998 421.799 291.998C409.642 291.998 398.221 287.279 389.627 278.704C381.032 270.13 376.302 258.735 376.302 246.605C376.302 234.475 381.032 223.08 389.627 214.506C398.221 205.931 409.642 201.212 421.799 201.212ZM421.799 196.578C394.106 196.578 371.658 218.975 371.658 246.605C371.658 274.235 394.106 296.632 421.799 296.632C449.493 296.632 471.941 274.235 471.941 246.605C471.941 218.975 449.493 196.578 421.799 196.578Z" fill="white"/>
<path d="M406.656 269.381L429.806 246.285L406.656 223.188C405.225 221.746 405.239 219.426 406.685 217.998C408.116 216.584 410.42 216.584 411.859 217.998L437.605 243.686C439.044 245.121 439.044 247.441 437.605 248.876L411.859 274.564C410.413 275.992 408.087 275.978 406.656 274.536C405.239 273.108 405.239 270.809 406.656 269.374V269.381Z" fill="white"/>
</g>
<path d="M0 518C0 500.327 14.3269 486 32 486H812C829.673 486 844 500.327 844 518V568C844 585.673 829.673 600 812 600H32C14.3269 600 0 585.673 0 568V518Z" fill="white"/>
<g clip-path="url(#clip1_963_124024)">
<path d="M32.6556 523.961C35.7593 518.372 40.0838 514.008 45.6395 510.89C51.1951 507.771 57.4853 506.207 64.5204 506.207C73.1384 506.207 80.5253 508.471 86.6603 513C92.7953 517.528 96.9026 523.704 98.9717 531.526H79.5217C78.0733 528.51 76.0249 526.205 73.366 524.63C70.7072 523.055 67.6966 522.263 64.3135 522.263C58.8613 522.263 54.454 524.146 51.071 527.923C47.6879 531.7 46.0016 536.744 46.0016 543.053C46.0016 549.362 47.6879 554.405 51.071 558.182C54.454 561.959 58.8613 563.843 64.3135 563.843C67.6966 563.843 70.7072 563.05 73.366 561.475C76.0249 559.901 78.0733 557.595 79.5217 554.58H98.9717C96.9026 562.402 92.7953 568.556 86.6603 573.054C80.5253 577.552 73.1384 579.795 64.5204 579.795C57.4853 579.795 51.1951 578.231 45.6395 575.112C40.0838 571.994 35.7593 567.651 32.6556 562.093C29.5519 556.535 28 550.185 28 543.053C28 535.92 29.5519 529.549 32.6556 523.961Z" fill="#343433"/>
<path d="M157.114 507.027V521.127H127.525V536.36H149.665V550.048H127.525V579.278H109.834V507.027H157.114Z" fill="#343433"/>
<path d="M248.674 507.027V579.278H230.983V535.948L214.74 579.278H200.463L184.117 535.845V579.278H166.426V507.027H187.324L207.705 557.047L227.879 507.027H248.674Z" fill="#343433"/>
<path d="M279.092 507.027V579.278H261.4V507.027H279.092Z" fill="#343433"/>
<path d="M340.131 529.879C338.817 527.481 336.945 525.638 334.493 524.373C332.041 523.107 329.165 522.469 325.854 522.469C320.133 522.469 315.539 524.342 312.094 528.078C308.649 531.814 306.922 536.805 306.922 543.053C306.922 549.712 308.732 554.909 312.353 558.645C315.974 562.381 320.961 564.254 327.303 564.254C331.648 564.254 335.321 563.153 338.321 560.961C341.321 558.769 343.514 555.609 344.89 551.492H322.44V538.524H360.926V554.889C359.612 559.283 357.388 563.359 354.253 567.136C351.118 570.913 347.135 573.96 342.304 576.296C337.472 578.632 332.031 579.795 325.958 579.795C318.788 579.795 312.384 578.231 306.766 575.112C301.149 571.994 296.762 567.651 293.627 562.093C290.492 556.535 288.92 550.185 288.92 543.053C288.92 535.92 290.492 529.549 293.627 523.961C296.762 518.372 301.128 514.008 306.715 510.89C312.301 507.771 318.685 506.207 325.854 506.207C334.545 506.207 341.869 508.296 347.839 512.485C353.808 516.674 357.75 522.469 359.685 529.879H340.131Z" fill="#343433"/>
<path d="M407.792 579.278L392.687 552.004H388.445V579.278H370.754V507.027H400.446C406.167 507.027 411.051 508.026 415.085 510.012C419.12 511.998 422.141 514.726 424.138 518.194C426.135 521.663 427.138 525.522 427.138 529.773C427.138 534.579 425.773 538.861 423.052 542.638C420.331 546.415 416.306 549.091 410.999 550.666L427.759 579.278H407.792ZM388.445 539.55H399.412C402.65 539.55 405.081 538.758 406.705 537.183C408.33 535.608 409.137 533.375 409.137 530.493C409.137 527.611 408.33 525.584 406.705 524.009C405.081 522.435 402.65 521.642 399.412 521.642H388.445V539.55Z" fill="#343433"/>
<path d="M483.419 566.516H456.313L451.968 579.278H433.449L459.727 507.027H480.212L506.49 579.278H487.764L483.419 566.516ZM478.867 552.93L469.866 526.479L460.969 552.93H478.867Z" fill="#343433"/>
<path d="M566.703 507.027V521.127H547.46V579.278H529.768V521.127H510.525V507.027H566.703Z" fill="#343433"/>
<path d="M593.291 507.027V579.278H575.6V507.027H593.291Z" fill="#343433"/>
<path d="M752.409 579.278H734.717L705.129 534.713V579.278H687.438V507.027H705.129L734.717 551.798V507.027H752.409V579.278Z" fill="#343433"/>
<path d="M777.238 577.427C773.027 575.708 769.665 573.176 767.151 569.811C764.637 566.445 763.302 562.401 763.168 557.666H781.997C782.277 560.342 783.208 562.38 784.791 563.79C786.373 565.2 788.443 565.9 790.998 565.9C793.553 565.9 795.685 565.303 797.205 564.099C798.726 562.895 799.482 561.238 799.482 559.107C799.482 557.327 798.881 555.845 797.671 554.682C796.461 553.518 794.981 552.551 793.222 551.8C791.464 551.048 788.96 550.184 785.722 549.227C781.035 547.786 777.207 546.345 774.238 544.904C771.269 543.463 768.724 541.343 766.582 538.523C764.441 535.713 763.375 532.039 763.375 527.51C763.375 520.79 765.827 515.52 770.72 511.712C775.614 507.904 781.997 506 789.86 506C797.723 506 804.313 507.904 809.206 511.712C814.1 515.52 816.728 520.821 817.069 527.613H797.93C797.795 525.277 796.926 523.445 795.343 522.107C793.76 520.769 791.722 520.1 789.239 520.1C787.098 520.1 785.38 520.666 784.066 521.798C782.752 522.93 782.101 524.557 782.101 526.687C782.101 529.023 783.208 530.835 785.411 532.142C787.615 533.449 791.07 534.849 795.757 536.362C800.444 537.936 804.261 539.449 807.189 540.89C810.117 542.331 812.652 544.42 814.793 547.168C816.935 549.916 818 553.446 818 557.769C818 562.092 816.945 565.622 814.845 568.987C812.745 572.353 809.693 575.029 805.689 577.015C801.685 579.002 796.967 580 791.515 580C786.063 580 781.449 579.146 777.238 577.427Z" fill="#343433"/>
<path d="M648.031 576.04C630.275 576.074 615.817 561.704 615.783 543.928C615.75 526.151 630.1 511.673 647.856 511.639C656.49 511.606 664.769 515.084 670.839 521.23C658.84 504.716 635.748 501.062 619.219 513.077C602.691 525.093 599.079 548.213 611.078 564.76C623.081 581.308 646.169 584.929 662.698 572.913C663.504 572.315 664.314 571.684 665.048 571.053C659.997 574.355 654.064 576.078 648.031 576.04Z" fill="#343433"/>
<path d="M658.98 516.809C671.438 524.083 675.613 540.067 668.382 552.505C661.118 564.976 645.153 569.157 632.732 561.92C625.61 557.772 620.871 550.464 619.961 542.278V543.788C619.961 559.808 632.908 572.773 648.91 572.773C664.913 572.773 677.86 559.808 677.86 543.788C677.684 531.772 670.211 521.057 658.98 516.805V516.809Z" fill="#343433"/>
<path d="M645.118 518.809C635.608 518.775 627.258 525.063 624.59 534.198C628.907 524.712 640.1 520.531 649.573 524.854C659.046 529.177 663.221 540.386 658.908 549.872C655.856 556.62 649.118 560.905 641.749 560.905C640.1 560.872 638.451 560.659 636.835 560.274C639.465 561.399 642.275 561.959 645.152 561.925C657.046 561.854 666.59 552.121 666.523 540.21C666.381 528.441 656.875 518.917 645.118 518.813V518.809Z" fill="#343433"/>
</g>
<defs>
<clipPath id="clip0_963_124024">
<rect width="361.2" height="294" fill="white" transform="translate(241.199 99.6016)"/>
</clipPath>
<clipPath id="clip1_963_124024">
<rect width="790" height="74" fill="white" transform="translate(28 506)"/>
</clipPath>
</defs>
</svg>
