<svg width="282" height="200" viewBox="0 0 282 200" fill="none" xmlns="http://www.w3.org/2000/svg">
<path d="M79.1967 2.38281H202.732C212.746 2.38281 220.876 10.5051 220.876 20.5095V143.926C220.876 153.931 212.746 162.053 202.732 162.053H79.1967C69.1827 162.053 61.0527 153.931 61.0527 143.926V20.5095C61.0527 10.5051 69.1827 2.38281 79.1967 2.38281Z" fill="#343433"/>
<path d="M202.73 4.76505C211.397 4.76505 218.489 11.8498 218.489 20.5092V143.926C218.489 152.586 211.397 159.67 202.73 159.67H79.1948C70.5272 159.67 63.4356 152.586 63.4356 143.926V20.5092C63.4356 11.8498 70.5272 4.76505 79.1948 4.76505H202.73ZM202.73 0H79.1948C67.8757 0 58.666 9.20088 58.666 20.5092V143.926C58.666 155.235 67.8757 164.435 79.1948 164.435H202.73C214.049 164.435 223.259 155.235 223.259 143.926V20.5092C223.259 9.20088 214.049 0 202.73 0Z" fill="white"/>
<g clip-path="url(#clip0_963_124179)">
<path d="M150.693 93.7054L115.65 78.4672L80.4457 93.715L80.4004 85.1427L113.775 70.6875L117.501 70.6899L150.74 85.1451L150.695 93.7054H150.693Z" fill="#0D87C5"/>
<path d="M150.693 85.158L115.65 100.396L80.4457 85.1484L80.4004 93.7207L113.775 108.176L117.501 108.174L150.74 93.7183L150.695 85.158H150.693Z" fill="#33CFFF"/>
<path d="M150.693 74.9593L115.65 59.7211L80.4457 74.9689L80.4004 66.3966L113.775 51.9414L117.501 51.9438L150.74 66.399L150.695 74.9593H150.693Z" fill="#0D87C5"/>
<path d="M150.693 66.4119L115.65 81.6501L80.4457 66.4023L80.4004 74.9746L113.775 89.4298L117.501 89.4274L150.74 74.9722L150.695 66.4119H150.693Z" fill="#33CFFF"/>
<path d="M150.693 56.2172L115.65 40.979L80.4457 56.2267L80.4004 47.6544L113.775 33.1992L117.501 33.2016L150.74 47.6568L150.695 56.2172H150.693Z" fill="#0D87C5"/>
<path d="M150.693 47.6697L115.65 62.9079L80.4457 47.6602L80.4004 56.2324L113.775 70.6876L117.501 70.6852L150.74 56.23L150.695 47.6697H150.693Z" fill="#33CFFF"/>
<path d="M200.755 116.733L165.713 101.492L130.508 116.74L130.463 108.168L163.838 93.7148L167.564 93.7172L200.8 108.172L200.757 116.733H200.755Z" fill="#33CFFF"/>
<path d="M200.755 108.183L165.713 123.424L130.508 108.176L130.463 116.748L163.838 131.201L167.564 131.198L200.8 116.743L200.757 108.183H200.755Z" fill="#0D87C5"/>
<path d="M200.755 97.9867L165.713 82.7461L130.508 97.9938L130.463 89.424L163.838 74.9688L167.564 74.9711L200.8 89.4264L200.757 97.9867H200.755Z" fill="#33CFFF"/>
<path d="M200.755 89.4368L165.713 104.677L130.508 89.4297L130.463 98.0019L163.838 112.455L167.564 112.452L200.8 97.9972L200.757 89.4392L200.755 89.4368Z" fill="#0D87C5"/>
<path d="M200.755 79.2445L165.713 64.0039L130.508 79.2516L130.463 70.6818L163.838 56.2266L167.564 56.2289L200.8 70.6842L200.757 79.2445H200.755Z" fill="#33CFFF"/>
<path d="M200.755 70.6946L165.713 85.9352L130.508 70.6875L130.463 79.2597L163.838 93.715L167.564 93.7102L200.8 79.255L200.757 70.697L200.755 70.6946Z" fill="#0D87C5"/>
<path d="M140.601 98.1051C131.811 98.1051 124.662 90.9703 124.662 82.203C124.662 73.4356 131.813 66.3008 140.601 66.3008C149.388 66.3008 156.539 73.4356 156.539 82.203C156.539 90.9703 149.388 98.1051 140.601 98.1051Z" fill="#343433"/>
<path d="M140.6 99.1348C131.243 99.1348 123.629 91.5384 123.629 82.2022C123.629 72.866 131.243 65.2695 140.6 65.2695C149.958 65.2695 157.572 72.866 157.572 82.2022C157.572 91.5384 149.958 99.1348 140.6 99.1348ZM140.6 67.3281C132.381 67.3281 125.692 74.0012 125.692 82.2022C125.692 90.4032 132.381 97.0763 140.6 97.0763C148.82 97.0763 155.508 90.4032 155.508 82.2022C155.508 74.0012 148.82 67.3281 140.6 67.3281Z" fill="white"/>
<path d="M140.6 67.0719C144.651 67.0719 148.46 68.645 151.325 71.5032C154.189 74.3614 155.766 78.1596 155.766 82.203C155.766 86.2463 154.189 90.0446 151.325 92.9028C148.46 95.761 144.653 97.3341 140.6 97.3341C136.548 97.3341 132.741 95.761 129.876 92.9028C127.011 90.0446 125.435 86.2463 125.435 82.203C125.435 78.1596 127.011 74.3614 129.876 71.5032C132.741 68.645 136.548 67.0719 140.6 67.0719ZM140.6 65.5273C131.369 65.5273 123.887 72.9929 123.887 82.203C123.887 91.413 131.369 98.8786 140.6 98.8786C149.832 98.8786 157.314 91.413 157.314 82.203C157.314 72.9929 149.832 65.5273 140.6 65.5273Z" fill="white"/>
<path d="M135.552 89.7937L143.269 82.0949L135.552 74.3961C135.075 73.9153 135.08 73.1419 135.562 72.6659C136.039 72.1947 136.807 72.1947 137.286 72.6659L145.868 81.2286C146.348 81.707 146.348 82.4804 145.868 82.9588L137.286 91.5215C136.804 91.9975 136.029 91.9927 135.552 91.512C135.08 91.036 135.08 90.2697 135.552 89.7913V89.7937Z" fill="white"/>
</g>
<path d="M0 172.667C0 166.776 4.77563 162 10.6667 162H270.667C276.558 162 281.333 166.776 281.333 172.667V189.333C281.333 195.224 276.558 200 270.667 200H10.6667C4.77563 200 0 195.224 0 189.333V172.667Z" fill="white"/>
<g clip-path="url(#clip1_963_124179)">
<path d="M10.8858 174.656C11.9204 172.793 13.3619 171.339 15.2138 170.299C17.0657 169.26 19.1624 168.738 21.5075 168.738C24.3801 168.738 26.8424 169.493 28.8874 171.003C30.9324 172.512 32.3015 174.57 32.9912 177.178H26.5079C26.0251 176.173 25.3423 175.404 24.456 174.879C23.5697 174.354 22.5662 174.09 21.4385 174.09C19.6211 174.09 18.152 174.718 17.0243 175.977C15.8966 177.236 15.3345 178.917 15.3345 181.02C15.3345 183.123 15.8966 184.804 17.0243 186.063C18.152 187.322 19.6211 187.95 21.4385 187.95C22.5662 187.95 23.5697 187.686 24.456 187.161C25.3423 186.636 26.0251 185.868 26.5079 184.863H32.9912C32.3015 187.47 30.9324 189.521 28.8874 191.021C26.8424 192.52 24.3801 193.268 21.5075 193.268C19.1624 193.268 17.0657 192.746 15.2138 191.707C13.3619 190.667 11.9204 189.22 10.8858 187.367C9.85127 185.514 9.33398 183.398 9.33398 181.02C9.33398 178.643 9.85127 176.519 10.8858 174.656Z" fill="#343433"/>
<path d="M52.3713 169.012V173.712H42.5084V178.789H49.8884V183.352H42.5084V193.095H36.6113V169.012H52.3713Z" fill="#343433"/>
<path d="M82.8928 169.012V193.095H76.9957V178.652L71.5814 193.095H66.8224L61.3736 178.618V193.095H55.4766V169.012H62.4427L69.2364 185.685L75.9611 169.012H82.8928Z" fill="#343433"/>
<path d="M93.0318 169.012V193.095H87.1348V169.012H93.0318Z" fill="#343433"/>
<path d="M113.377 176.629C112.939 175.83 112.315 175.215 111.498 174.793C110.68 174.371 109.722 174.159 108.618 174.159C106.711 174.159 105.18 174.783 104.031 176.028C102.883 177.274 102.307 178.938 102.307 181.02C102.307 183.24 102.911 184.972 104.118 186.218C105.325 187.463 106.987 188.087 109.101 188.087C110.549 188.087 111.774 187.72 112.774 186.99C113.774 186.259 114.505 185.206 114.963 183.833H107.48V179.511H120.309V184.965C119.871 186.43 119.129 187.789 118.084 189.048C117.039 190.307 115.712 191.323 114.101 192.101C112.491 192.88 110.677 193.268 108.653 193.268C106.263 193.268 104.128 192.746 102.255 191.707C100.383 190.667 98.9207 189.22 97.8757 187.367C96.8308 185.514 96.3066 183.398 96.3066 181.02C96.3066 178.643 96.8308 176.519 97.8757 174.656C98.9207 172.793 100.376 171.339 102.238 170.299C104.1 169.26 106.228 168.738 108.618 168.738C111.515 168.738 113.956 169.435 115.946 170.831C117.936 172.227 119.25 174.159 119.895 176.629H113.377Z" fill="#343433"/>
<path d="M135.932 193.095L130.897 184.004H129.483V193.095H123.586V169.012H133.483C135.39 169.012 137.018 169.344 138.363 170.007C139.708 170.669 140.715 171.578 141.381 172.734C142.046 173.89 142.381 175.177 142.381 176.594C142.381 178.196 141.925 179.623 141.019 180.882C140.112 182.141 138.77 183.033 137.001 183.558L142.588 193.095H135.932ZM129.483 179.853H133.139C134.218 179.853 135.028 179.589 135.57 179.064C136.111 178.539 136.38 177.794 136.38 176.834C136.38 175.873 136.111 175.197 135.57 174.672C135.028 174.147 134.218 173.883 133.139 173.883H129.483V179.853Z" fill="#343433"/>
<path d="M161.141 188.841H152.106L150.657 193.095H144.484L153.244 169.012H160.072L168.831 193.095H162.589L161.141 188.841ZM159.624 184.313L156.623 175.496L153.658 184.313H159.624Z" fill="#343433"/>
<path d="M188.902 169.012V173.712H182.487V193.095H176.59V173.712H170.176V169.012H188.902Z" fill="#343433"/>
<path d="M197.764 169.012V193.095H191.867V169.012H197.764Z" fill="#343433"/>
<path d="M250.804 193.095H244.906L235.044 178.24V193.095H229.146V169.012H235.044L244.906 183.935V169.012H250.804V193.095Z" fill="#343433"/>
<path d="M259.081 192.477C257.677 191.904 256.556 191.06 255.718 189.938C254.88 188.816 254.435 187.468 254.391 185.89H260.667C260.76 186.782 261.071 187.461 261.598 187.931C262.126 188.401 262.816 188.635 263.667 188.635C264.519 188.635 265.23 188.436 265.736 188.034C266.243 187.633 266.495 187.08 266.495 186.37C266.495 185.777 266.295 185.283 265.892 184.895C265.488 184.507 264.995 184.185 264.409 183.935C263.822 183.684 262.988 183.396 261.909 183.077C260.346 182.597 259.07 182.116 258.081 181.636C257.091 181.156 256.243 180.449 255.529 179.509C254.815 178.572 254.46 177.348 254.46 175.838C254.46 173.598 255.277 171.841 256.908 170.572C258.539 169.303 260.667 168.668 263.288 168.668C265.909 168.668 268.106 169.303 269.737 170.572C271.368 171.841 272.244 173.608 272.358 175.872H265.978C265.933 175.094 265.643 174.483 265.116 174.037C264.588 173.591 263.909 173.368 263.081 173.368C262.367 173.368 261.795 173.557 261.357 173.934C260.919 174.311 260.702 174.854 260.702 175.564C260.702 176.342 261.071 176.946 261.805 177.382C262.54 177.818 263.691 178.284 265.254 178.789C266.816 179.313 268.088 179.818 269.064 180.298C270.04 180.778 270.885 181.475 271.599 182.391C272.313 183.307 272.668 184.483 272.668 185.924C272.668 187.365 272.316 188.542 271.616 189.664C270.916 190.786 269.899 191.678 268.564 192.34C267.23 193.002 265.657 193.335 263.84 193.335C262.022 193.335 260.484 193.05 259.081 192.477Z" fill="#343433"/>
<path d="M216.011 192.015C210.092 192.026 205.273 187.236 205.262 181.31C205.251 175.385 210.034 170.559 215.953 170.548C218.831 170.537 221.59 171.696 223.614 173.745C219.614 168.24 211.917 167.022 206.407 171.027C200.898 175.032 199.694 182.739 203.693 188.255C207.694 193.771 215.39 194.978 220.9 190.972C221.169 190.773 221.438 190.563 221.683 190.352C220 191.453 218.022 192.027 216.011 192.015Z" fill="#343433"/>
<path d="M219.661 172.271C223.813 174.696 225.205 180.024 222.795 184.169C220.373 188.327 215.052 189.72 210.911 187.308C208.537 185.925 206.958 183.489 206.654 180.761V181.264C206.654 186.604 210.97 190.926 216.304 190.926C221.638 190.926 225.954 186.604 225.954 181.264C225.895 177.259 223.404 173.687 219.661 172.27V172.271Z" fill="#343433"/>
<path d="M215.04 172.938C211.87 172.926 209.087 175.022 208.197 178.067C209.636 174.905 213.367 173.512 216.525 174.953C219.683 176.394 221.074 180.13 219.637 183.292C218.619 185.541 216.373 186.97 213.917 186.97C213.367 186.959 212.818 186.887 212.279 186.759C213.156 187.134 214.092 187.321 215.051 187.31C219.016 187.286 222.197 184.042 222.175 180.071C222.128 176.148 218.959 172.974 215.04 172.939V172.938Z" fill="#343433"/>
</g>
<defs>
<clipPath id="clip0_963_124179">
<rect width="120.4" height="98" fill="white" transform="translate(80.4004 33.1992)"/>
</clipPath>
<clipPath id="clip1_963_124179">
<rect width="263.333" height="24.6667" fill="white" transform="translate(9.33398 168.668)"/>
</clipPath>
</defs>
</svg>
