<svg width="75" height="61" viewBox="0 0 75 61" fill="none" xmlns="http://www.w3.org/2000/svg">
<g clip-path="url(#clip0_963_124284)">
<path d="M43.7866 37.6634L21.958 28.1784L0.0282312 37.6694L0 32.3336L20.7901 23.3359L23.111 23.3374L43.8164 32.3351L43.7881 37.6634H43.7866Z" fill="#0D87C5"/>
<path d="M43.7866 32.3419L21.958 41.8269L0.0282312 32.3359L0 37.6717L20.7901 46.6694L23.111 46.6679L43.8164 37.6702L43.7881 32.3419H43.7866Z" fill="#33CFFF"/>
<path d="M43.7866 25.9955L21.958 16.5105L0.0282312 26.0014L0 20.6656L20.7901 11.668L23.111 11.6694L43.8164 20.6671L43.7881 25.9955H43.7866Z" fill="#0D87C5"/>
<path d="M43.7866 20.6739L21.958 30.1589L0.0282312 20.668L0 26.0037L20.7901 35.0014L23.111 34.9999L43.8164 26.0023L43.7881 20.6739H43.7866Z" fill="#33CFFF"/>
<path d="M43.7866 14.3275L21.958 4.84249L0.0282312 14.3334L0 8.99764L20.7901 0L23.111 0.00148134L43.8164 8.99913L43.7881 14.3275H43.7866Z" fill="#0D87C5"/>
<path d="M43.7866 9.00593L21.958 18.4909L0.0282312 9L0 14.3358L20.7901 23.3334L23.111 23.3319L43.8164 14.3343L43.7881 9.00593H43.7866Z" fill="#33CFFF"/>
<path d="M74.9722 51.9955L53.1435 42.509L31.2138 51.9999L31.1855 46.6641L51.9756 37.668L54.2965 37.6694L75.0004 46.6671L74.9737 51.9955H74.9722Z" fill="#33CFFF"/>
<path d="M74.9722 46.6724L53.1435 56.1589L31.2138 46.668L31.1855 52.0037L51.9756 60.9999L54.2965 60.9984L75.0004 52.0008L74.9737 46.6724H74.9722Z" fill="#0D87C5"/>
<path d="M74.9722 40.3275L53.1435 30.841L31.2138 40.3319L31.1855 34.9976L51.9756 26L54.2965 26.0015L75.0004 34.9991L74.9737 40.3275H74.9722Z" fill="#33CFFF"/>
<path d="M74.9722 35.0044L53.1435 44.4909L31.2138 35L31.1855 40.3358L51.9756 49.3319L54.2965 49.3305L75.0004 40.3328L74.9737 35.0059L74.9722 35.0044Z" fill="#0D87C5"/>
<path d="M74.9722 28.6595L53.1435 19.173L31.2138 28.664L31.1855 23.3297L51.9756 14.332L54.2965 14.3335L75.0004 23.3312L74.9737 28.6595H74.9722Z" fill="#33CFFF"/>
<path d="M74.9722 23.3365L53.1435 32.823L31.2138 23.332L31.1855 28.6678L51.9756 37.6655L54.2965 37.6625L75.0004 28.6648L74.9737 23.338L74.9722 23.3365Z" fill="#0D87C5"/>
<path d="M37.4988 40.3982C32.0234 40.3982 27.5703 35.9571 27.5703 30.4999C27.5703 25.0426 32.0249 20.6016 37.4988 20.6016C42.9727 20.6016 47.4273 25.0426 47.4273 30.4999C47.4273 35.9571 42.9727 40.3982 37.4988 40.3982Z" fill="#343433" stroke="white" stroke-width="0.25" stroke-miterlimit="10"/>
<path d="M37.4993 21.0825C40.0223 21.0825 42.3952 22.0616 44.1797 23.8407C45.9642 25.6198 46.9463 27.984 46.9463 30.5008C46.9463 33.0176 45.9642 35.3818 44.1797 37.1609C42.3952 38.94 40.0237 39.9192 37.4993 39.9192C34.9748 39.9192 32.6034 38.94 30.8189 37.1609C29.0344 35.3818 28.0522 33.0176 28.0522 30.5008C28.0522 27.984 29.0344 25.6198 30.8189 23.8407C32.6034 22.0616 34.9748 21.0825 37.4993 21.0825ZM37.4993 20.1211C31.749 20.1211 27.0879 24.768 27.0879 30.5008C27.0879 36.2336 31.749 40.8806 37.4993 40.8806C43.2495 40.8806 47.9107 36.2336 47.9107 30.5008C47.9107 24.768 43.2495 20.1211 37.4993 20.1211Z" fill="white"/>
<path d="M34.3558 35.2249L39.1625 30.4328L34.3558 25.6407C34.0586 25.3414 34.0616 24.86 34.3617 24.5637C34.6589 24.2704 35.1374 24.2704 35.436 24.5637L40.7821 29.8936C41.0808 30.1913 41.0808 30.6728 40.7821 30.9705L35.436 36.3004C35.1359 36.5966 34.653 36.5937 34.3558 36.2944C34.0616 35.9982 34.0616 35.5212 34.3558 35.2234V35.2249Z" fill="white"/>
</g>
<defs>
<clipPath id="clip0_963_124284">
<rect width="75" height="61" fill="white"/>
</clipPath>
</defs>
</svg>
