<svg width="500" height="408" viewBox="0 0 500 408" fill="none" xmlns="http://www.w3.org/2000/svg">
<g clip-path="url(#clip0_963_124075)">
<path d="M291.911 251.9L146.386 188.459L0.188208 251.94L0 216.251L138.601 156.07L154.073 156.08L292.109 216.261L291.921 251.9H291.911Z" fill="#0D87C5"/>
<path d="M291.911 216.309L146.386 279.75L0.188208 216.27L0 251.958L138.601 312.139L154.073 312.129L292.109 251.948L291.921 216.309H291.911Z" fill="#33CFFF"/>
<path d="M291.911 173.865L146.386 110.424L0.188208 173.905L0 138.216L138.601 78.0352L154.073 78.0451L292.109 138.226L291.921 173.865H291.911Z" fill="#0D87C5"/>
<path d="M291.911 138.274L146.386 201.715L0.188208 138.234L0 173.923L138.601 234.104L154.073 234.094L292.109 173.913L291.921 138.274H291.911Z" fill="#33CFFF"/>
<path d="M291.911 95.8298L146.386 32.3891L0.188208 95.8694L0 60.181L138.601 0L154.073 0.00990796L292.109 60.1909L291.921 95.8298H291.911Z" fill="#0D87C5"/>
<path d="M291.911 60.2389L146.386 123.68L0.188208 60.1992L0 95.8877L138.601 156.069L154.073 156.059L292.109 95.8778L291.921 60.2389H291.911Z" fill="#33CFFF"/>
<path d="M499.811 347.771L354.287 284.321L208.089 347.801L207.9 312.112L346.501 251.941L361.974 251.951L500 312.132L499.821 347.771H499.811Z" fill="#33CFFF"/>
<path d="M499.811 312.17L354.287 375.621L208.089 312.141L207.9 347.829L346.501 408L361.974 407.99L500 347.809L499.821 312.17H499.811Z" fill="#0D87C5"/>
<path d="M499.811 269.736L354.287 206.285L208.089 269.766L207.9 234.087L346.501 173.906L361.974 173.916L500 234.097L499.821 269.736H499.811Z" fill="#33CFFF"/>
<path d="M499.811 234.135L354.287 297.586L208.089 234.105L207.9 269.794L346.501 329.965L361.974 329.955L500 269.774L499.821 234.145L499.811 234.135Z" fill="#0D87C5"/>
<path d="M499.811 191.701L354.287 128.25L208.089 191.731L207.9 156.052L346.501 95.8711L361.974 95.881L500 156.062L499.821 191.701H499.811Z" fill="#33CFFF"/>
<path d="M499.811 156.1L354.287 219.551L208.089 156.07L207.9 191.759L346.501 251.94L361.974 251.92L500 191.739L499.821 156.11L499.811 156.1Z" fill="#0D87C5"/>
<path d="M249.998 270.207C213.496 270.207 183.809 240.503 183.809 204.002C183.809 167.501 213.506 137.797 249.998 137.797C286.491 137.797 316.188 167.501 316.188 204.002C316.188 240.503 286.491 270.207 249.998 270.207Z" fill="#343433" stroke="white" stroke-width="0.25" stroke-miterlimit="10"/>
<path d="M249.999 141.008C266.819 141.008 282.638 147.558 294.535 159.457C306.432 171.356 312.979 187.17 312.979 204.003C312.979 220.837 306.432 236.65 294.535 248.549C282.638 260.449 266.829 266.998 249.999 266.998C233.169 266.998 217.36 260.449 205.463 248.549C193.566 236.65 187.019 220.837 187.019 204.003C187.019 187.17 193.566 171.356 205.463 159.457C217.36 147.558 233.169 141.008 249.999 141.008ZM249.999 134.578C211.664 134.578 180.59 165.659 180.59 204.003C180.59 242.347 211.664 273.428 249.999 273.428C288.334 273.428 319.408 242.347 319.408 204.003C319.408 165.659 288.334 134.578 249.999 134.578Z" fill="white"/>
<path d="M229.038 235.611L261.083 203.559L229.038 171.506C227.057 169.505 227.077 166.285 229.078 164.303C231.059 162.342 234.248 162.342 236.239 164.303L271.88 199.952C273.871 201.944 273.871 205.164 271.88 207.155L236.239 242.804C234.239 244.786 231.019 244.766 229.038 242.765C227.077 240.783 227.077 237.593 229.038 235.601V235.611Z" fill="white"/>
</g>
<defs>
<clipPath id="clip0_963_124075">
<rect width="500" height="408" fill="white"/>
</clipPath>
</defs>
</svg>
