<svg width="250" height="204" viewBox="0 0 250 204" fill="none" xmlns="http://www.w3.org/2000/svg">
<g clip-path="url(#clip0_963_124230)">
<path d="M145.956 125.95L73.1932 94.2297L0.0941041 125.97L0 108.126L69.3003 78.0352L77.0366 78.0401L146.055 108.131L145.96 125.95H145.956Z" fill="#0D87C5"/>
<path d="M145.956 108.157L73.1932 139.877L0.0941041 108.137L0 125.981L69.3003 156.071L77.0366 156.066L146.055 125.976L145.96 108.157H145.956Z" fill="#33CFFF"/>
<path d="M145.956 86.9305L73.1932 55.2102L0.0941041 86.9503L0 69.1061L69.3003 39.0156L77.0366 39.0206L146.055 69.1111L145.96 86.9305H145.956Z" fill="#0D87C5"/>
<path d="M145.956 69.137L73.1932 100.857L0.0941041 69.1172L0 86.9614L69.3003 117.052L77.0366 117.047L146.055 86.9565L145.96 69.137H145.956Z" fill="#33CFFF"/>
<path d="M145.956 47.9149L73.1932 16.1946L0.0941041 47.9347L0 30.0905L69.3003 0L77.0366 0.00495398L146.055 30.0954L145.96 47.9149H145.956Z" fill="#0D87C5"/>
<path d="M145.956 30.1214L73.1932 61.8417L0.0941041 30.1016L0 47.9458L69.3003 78.0363L77.0366 78.0313L146.055 47.9408L145.96 30.1214H145.956Z" fill="#33CFFF"/>
<path d="M249.907 173.884L177.144 142.158L104.045 173.899L103.951 156.054L173.251 125.969L180.988 125.974L250.001 156.064L249.912 173.884H249.907Z" fill="#33CFFF"/>
<path d="M249.907 156.085L177.144 187.81L104.045 156.07L103.951 173.915L173.251 204L180.988 203.995L250.001 173.905L249.912 156.085H249.907Z" fill="#0D87C5"/>
<path d="M249.907 134.864L177.144 103.139L104.045 134.879L103.951 117.04L173.251 86.9492L180.988 86.9542L250.001 117.045L249.912 134.864H249.907Z" fill="#33CFFF"/>
<path d="M249.907 117.066L177.144 148.791L104.045 117.051L103.951 134.895L173.251 164.981L180.988 164.976L250.001 134.885L249.912 117.071L249.907 117.066Z" fill="#0D87C5"/>
<path d="M249.907 95.8485L177.144 64.1232L104.045 95.8634L103.951 78.0241L173.251 47.9336L180.988 47.9385L250.001 78.029L249.912 95.8485H249.907Z" fill="#33CFFF"/>
<path d="M249.907 78.05L177.144 109.775L104.045 78.0352L103.951 95.8794L173.251 125.97L180.988 125.96L250.001 95.8695L249.912 78.055L249.907 78.05Z" fill="#0D87C5"/>
<path d="M124.999 135.103C106.748 135.103 91.9043 120.251 91.9043 102.001C91.9043 83.7505 106.753 68.8984 124.999 68.8984C143.246 68.8984 158.094 83.7505 158.094 102.001C158.094 120.251 143.246 135.103 124.999 135.103Z" fill="#343433" stroke="white" stroke-width="0.25" stroke-miterlimit="10"/>
<path d="M125 70.5042C133.409 70.5042 141.319 73.7788 147.268 79.7285C153.216 85.6782 156.49 93.5848 156.49 102.002C156.49 110.418 153.216 118.325 147.268 124.275C141.319 130.224 133.414 133.499 125 133.499C116.585 133.499 108.68 130.224 102.732 124.275C96.7832 118.325 93.5093 110.418 93.5093 102.002C93.5093 93.5848 96.7832 85.6782 102.732 79.7285C108.68 73.7788 116.585 70.5042 125 70.5042ZM125 67.2891C105.832 67.2891 90.2949 82.8297 90.2949 102.002C90.2949 121.174 105.832 136.714 125 136.714C144.167 136.714 159.704 121.174 159.704 102.002C159.704 82.8297 144.167 67.2891 125 67.2891Z" fill="white"/>
<path d="M114.52 117.804L130.542 101.777L114.52 85.7513C113.529 84.7506 113.539 83.1405 114.54 82.1497C115.53 81.1688 117.125 81.1688 118.121 82.1497L135.941 99.9742C136.937 100.97 136.937 102.58 135.941 103.576L118.121 121.4C117.12 122.391 115.511 122.381 114.52 121.38C113.539 120.39 113.539 118.794 114.52 117.799V117.804Z" fill="white"/>
</g>
<defs>
<clipPath id="clip0_963_124230">
<rect width="250" height="204" fill="white"/>
</clipPath>
</defs>
</svg>
