<svg width="250" height="204" viewBox="0 0 250 204" fill="none" xmlns="http://www.w3.org/2000/svg">
<g clip-path="url(#clip0_963_124311)">
<path d="M67.84 57.5336L73.1941 55.2102L78.5283 57.5336L99.0133 48.6016L77.0375 39.0206L69.3011 39.0156L47.2461 48.5917L67.84 57.5336Z" fill="#343433"/>
<path d="M22.9114 38.0268L73.1927 16.1946L123.271 38.0268L143.756 29.0947L77.0361 0.00495398L69.2998 0L2.3125 29.0848L22.9114 38.0268Z" fill="#343433"/>
<path d="M103.555 68.4477L111.281 71.8164C115.466 69.9091 120.107 68.8341 124.996 68.8341C132.965 68.8341 140.285 71.6628 146.011 76.3641L146.05 69.1115L124.04 59.5156L103.555 68.4477Z" fill="#343433"/>
<path d="M22.9114 77.0428L42.6832 68.4576L22.0892 59.5156L2.3125 68.1009L22.9114 77.0428Z" fill="#343433"/>
<path d="M67.839 96.5545L73.193 94.2311L78.5272 96.5545L93.366 90.0846C92.3804 93.2205 91.8455 96.5595 91.8455 100.022C91.8455 100.354 91.8504 100.686 91.8603 101.018C92.0188 95.6826 93.4403 90.6593 95.8374 86.2403L79.2999 79.0273L77.0414 80.0132H69.305L67.0218 79.0273L47.25 87.6126L67.8439 96.5545H67.839Z" fill="#343433"/>
<path d="M91.8407 102.002C91.8407 98.5438 92.3756 95.2048 93.3612 92.064L73.1932 100.857L0.0941041 69.1172L0 86.9614L69.3003 117.052H77.0366L92.856 110.146C92.1973 107.54 91.8407 104.811 91.8407 101.997V102.002Z" fill="#343433"/>
<path d="M145.956 30.1214L73.1932 61.8417L0.0941041 30.1016L0 47.9458L69.3003 78.0363L77.0366 78.0313L146.055 47.9408L145.96 30.1214H145.956Z" fill="#343433"/>
<path d="M103.074 126.853L73.1932 139.877L0.0941041 108.137L0 125.981L69.3003 156.071H77.0366L124.965 135.171C116.575 135.161 108.913 132.015 103.074 126.853Z" fill="#343433"/>
<path d="M22.9123 116.062L42.6841 107.477L22.0901 98.5352L2.31836 107.12L22.9123 116.062Z" fill="#343433"/>
<path d="M125 70.5042C133.409 70.5042 141.319 73.7788 147.268 79.7285C153.216 85.6782 156.49 93.5848 156.49 102.002C156.49 110.418 153.216 118.325 147.268 124.275C141.319 130.224 133.414 133.499 125 133.499C116.585 133.499 108.68 130.224 102.732 124.275C96.7832 118.325 93.5093 110.418 93.5093 102.002C93.5093 93.5848 96.7832 85.6782 102.732 79.7285C108.68 73.7788 116.585 70.5042 125 70.5042ZM125 67.2891C105.832 67.2891 90.2949 82.8297 90.2949 102.002C90.2949 121.174 105.832 136.714 125 136.714C144.167 136.714 159.704 121.174 159.704 102.002C159.704 82.8297 144.167 67.2891 125 67.2891Z" fill="#343433"/>
<path d="M249.907 156.085L177.144 187.81L104.045 156.07L103.951 173.915L173.251 204L180.988 203.995L250.001 173.905L249.912 156.085H249.907Z" fill="#343433"/>
<path d="M126.61 146.223L106.264 155.056L126.858 163.993L147.204 155.16L126.61 146.223Z" fill="#343433"/>
<path d="M207.506 155.4L227.223 163.995L247.708 155.068L227.991 146.473L207.506 155.4Z" fill="#343433"/>
<path d="M158.16 100.021C158.16 99.8621 158.15 99.7036 158.15 99.5451L171.79 105.47L177.144 103.147L182.478 105.47L202.963 96.538L180.987 86.957H173.251L157.164 93.9372C157.734 96.2111 158.07 98.5741 158.145 101.007C158.155 100.68 158.16 100.353 158.16 100.021Z" fill="#343433"/>
<path d="M249.912 117.07L177.149 148.791L138.809 132.145C134.604 134.082 129.929 135.167 125.006 135.167C117.037 135.167 109.716 132.338 103.991 127.637L103.951 134.895L173.251 164.985H180.988L250.006 134.89L249.912 117.07Z" fill="#343433"/>
<path d="M227.222 85.9632L247.707 77.0312L180.983 47.9414H173.246L125.1 68.8373C133.495 68.8621 141.162 72.0277 146.996 77.2145L177.139 64.1261L227.217 85.9583L227.222 85.9632Z" fill="#343433"/>
<path d="M250.001 78.0318L249.922 77.9922L249.961 85.9631L250.001 78.0318Z" fill="#343433"/>
<path d="M247.707 94.8908L249.906 95.8518H249.911L249.921 93.9297L247.707 94.8908Z" fill="#343433"/>
<path d="M180.989 127.942L173.252 127.952L170.969 126.961L151.197 135.546L171.791 144.488L177.145 142.16L182.479 144.488L202.964 135.556L183.247 126.961L180.989 127.942Z" fill="#343433"/>
<path d="M207.506 116.38L227.223 124.98L247.708 116.048L227.991 107.453L207.506 116.38Z" fill="#343433"/>
<path d="M249.911 78.0557L177.149 109.776L158.154 101.528C158.154 101.686 158.164 101.845 158.164 102.003C158.164 107.681 156.728 113.026 154.207 117.697L173.256 125.966H180.992L250.01 95.8703L249.916 78.0508L249.911 78.0557Z" fill="#343433"/>
<path d="M114.52 117.807L130.542 101.781L114.52 85.7552C113.529 84.7545 113.539 83.1444 114.54 82.1536C115.53 81.1727 117.125 81.1727 118.121 82.1536L135.941 99.9781C136.937 100.974 136.937 102.584 135.941 103.58L118.121 121.404C117.12 122.395 115.511 122.385 114.52 121.384C113.539 120.393 113.539 118.798 114.52 117.802V117.807Z" fill="#343433"/>
</g>
<defs>
<clipPath id="clip0_963_124311">
<rect width="250" height="204" fill="white"/>
</clipPath>
</defs>
</svg>
