<svg width="2036" height="2212" viewBox="0 0 2036 2212" fill="none" xmlns="http://www.w3.org/2000/svg">
<g clip-path="url(#clip0_924_2417)">
<path d="M2020.8 2211.77L1661.1 837.33L1660.36 835.98L1661.13 834.7L1722.3 753.86L1722.5 755.88L1106.79 0L1728.17 753.72L1728.99 754.71L1728.37 755.74L1670.61 837.63L1670.63 835L2035.6 2208.15L2020.8 2211.77Z" fill="url(#paint0_linear_924_2417)"/>
<path d="M1995.26 2207.67L1626.91 856.5L1626.13 855.13L1626.9 853.82L1697.06 750.47L1697.28 752.48L1075.16 0.730469L1702.89 750.32L1703.7 751.3L1703.1 752.331L1636.44 856.75L1636.43 854.07L2009.98 2203.96L1995.26 2207.67Z" fill="url(#paint1_linear_924_2417)"/>
<path d="M1969.72 2203.56L1592.7 875.661L1591.88 874.281L1592.66 872.941L1671.82 747.081L1672.05 749.081L1043.54 1.46094L1677.6 746.921L1678.42 747.891L1677.83 748.921L1602.3 875.871L1602.24 873.151L1984.36 2199.76L1969.72 2203.56Z" fill="url(#paint2_linear_924_2417)"/>
<path d="M1944.18 2199.46L1558.51 894.831L1557.64 893.431L1558.42 892.071L1646.58 743.691L1646.83 745.681L1011.92 2.19141L1652.31 743.511L1653.14 744.481L1652.55 745.511L1568.13 894.991L1568.04 892.231L1958.74 2195.56L1944.18 2199.46Z" fill="url(#paint3_linear_924_2417)"/>
<path d="M1918.64 2195.36L1524.3 914.002L1523.4 912.592L1524.19 911.192L1621.34 740.302L1621.61 742.292L980.301 2.92188L1627.02 740.112L1627.85 741.062L1627.28 742.092L1533.97 914.112L1533.85 911.312L1933.12 2191.37L1918.64 2195.36Z" fill="url(#paint4_linear_924_2417)"/>
<path d="M1893.08 2191.26L1490.11 933.171L1489.15 931.741L1489.95 930.321L1596.11 736.911L1596.38 738.891L948.67 3.64062L1601.74 736.701L1602.58 737.661L1602 738.681L1499.82 933.241L1499.66 930.381L1907.5 2187.17L1893.08 2191.26Z" fill="url(#paint5_linear_924_2417)"/>
<path d="M1867.55 2187.15L1455.91 952.329L1454.91 950.889L1455.72 949.439L1570.88 733.519L1571.16 735.489L917.051 4.37891L1576.45 733.299L1577.3 734.249L1576.73 735.269L1465.66 952.359L1465.46 949.459L1881.88 2182.97L1867.55 2187.15Z" fill="url(#paint6_linear_924_2417)"/>
<path d="M1842 2183.05L1421.71 971.499L1420.67 970.039L1421.48 968.559L1545.64 730.129L1545.93 732.089L885.43 5.10938L1551.16 729.899L1552.02 730.829L1551.45 731.859L1431.5 971.469L1431.26 968.529L1856.25 2178.78L1842 2183.05Z" fill="url(#paint7_linear_924_2417)"/>
<path d="M1816.46 2178.94L1387.51 990.668L1386.43 989.198L1387.24 987.688L1520.4 726.738L1520.71 728.688L853.811 5.82812L1525.87 726.488L1526.74 727.428L1526.18 728.438L1397.34 990.588L1397.07 987.608L1830.64 2174.58L1816.46 2178.94Z" fill="url(#paint8_linear_924_2417)"/>
<path d="M1790.92 2174.84L1353.31 1009.84L1352.19 1008.34L1353.01 1006.81L1495.17 723.349L1495.48 725.299L822.189 6.55859L1500.59 723.089L1501.46 724.009L1500.9 725.029L1363.18 1009.72L1362.86 1006.69L1805.02 2170.38L1790.92 2174.84Z" fill="url(#paint9_linear_924_2417)"/>
<path d="M1765.38 2170.74L1319.12 1029L1317.94 1027.5L1318.77 1025.93L1469.93 719.959L1470.25 721.899L790.561 7.28906L1475.3 719.689L1476.17 720.609L1475.63 721.619L1329.02 1028.84L1328.68 1025.77L1779.39 2166.18L1765.38 2170.74Z" fill="url(#paint10_linear_924_2417)"/>
<path d="M1739.82 2166.63L1284.91 1048.17L1283.69 1046.65L1284.53 1045.06L1444.69 716.57L1445.03 718.5L758.939 8.01953L1450.01 716.28L1450.89 717.19L1450.35 718.21L1294.86 1047.96L1294.47 1044.84L1753.78 2161.99L1739.82 2166.63Z" fill="url(#paint11_linear_924_2417)"/>
<path d="M1714.29 2162.53L1250.72 1067.34L1249.46 1065.8L1250.3 1064.18L1419.46 713.18L1419.81 715.1L727.32 8.75L1424.73 712.88L1425.61 713.78L1425.07 714.79L1260.7 1067.08L1260.29 1063.92L1728.15 2157.8L1714.29 2162.53Z" fill="url(#paint12_linear_924_2417)"/>
<path d="M1688.74 2158.42L1216.51 1086.51L1215.22 1084.95L1216.06 1083.31L1394.22 709.79L1394.58 711.701L695.689 9.48047L1399.44 709.48L1400.34 710.37L1399.8 711.391L1226.54 1086.2L1226.09 1083L1702.53 2153.6L1688.74 2158.42Z" fill="url(#paint13_linear_924_2417)"/>
<path d="M1663.2 2154.32L1182.32 1105.67L1180.97 1104.1L1181.83 1102.43L1368.99 706.401L1369.35 708.301L664.07 10.2109L1374.15 706.071L1375.05 706.961L1374.53 707.971L1192.38 1105.32L1191.9 1102.08L1676.91 2149.4L1663.2 2154.32Z" fill="url(#paint14_linear_924_2417)"/>
<path d="M1637.66 2150.22L1148.12 1124.84L1146.73 1123.26L1147.59 1121.55L1343.75 703.01L1344.14 704.9L632.439 10.9297L1348.86 702.67L1349.77 703.55L1349.25 704.56L1158.22 1124.44L1157.69 1121.15L1651.29 2145.2L1637.66 2150.22Z" fill="url(#paint15_linear_924_2417)"/>
<path d="M1612.11 2146.12L1113.92 1144.01L1112.49 1142.41L1113.35 1140.68L1318.51 699.62L1318.91 701.51L600.82 11.6602L1323.57 699.27L1324.49 700.14L1323.97 701.14L1124.06 1143.56L1123.51 1140.23L1625.66 2141.01L1612.11 2146.12Z" fill="url(#paint16_linear_924_2417)"/>
<path d="M1586.58 2142.01L1079.72 1163.18L1078.24 1161.56L1079.11 1159.8L1293.27 696.231L1293.67 698.101L569.211 12.3906L1298.29 695.861L1299.2 696.731L1298.7 697.741L1089.9 1162.68L1089.3 1159.31L1600.05 2136.81L1586.58 2142.01Z" fill="url(#paint17_linear_924_2417)"/>
<path d="M1561.02 2137.91L1045.52 1182.35L1044 1180.71L1044.88 1178.93L1268.03 692.851L1268.45 694.711L537.57 13.1211L1273.01 692.461L1273.93 693.321L1273.43 694.321L1055.74 1181.8L1055.11 1178.39L1574.43 2132.61L1561.02 2137.91Z" fill="url(#paint18_linear_924_2417)"/>
<path d="M1535.48 2133.8L1011.32 1201.51L1009.77 1199.87L1010.65 1198.05L1242.8 689.452L1243.23 691.312L505.949 13.8516L1247.72 689.062L1248.65 689.912L1248.15 690.912L1021.59 1200.93L1020.91 1197.46L1548.8 2128.42L1535.48 2133.8Z" fill="url(#paint19_linear_924_2417)"/>
<path d="M1509.94 2129.7L977.12 1220.68L975.52 1219.02L976.41 1217.17L1217.56 686.058L1218.01 687.908L474.33 14.5781L1222.43 685.648L1223.37 686.498L1222.87 687.498L987.43 1220.05L986.72 1216.54L1523.17 2124.22L1509.94 2129.7Z" fill="url(#paint20_linear_924_2417)"/>
<path d="M1484.4 2125.6L942.921 1239.85L941.281 1238.17L942.181 1236.29L1192.33 682.669L1192.78 684.509L442.721 15.3086L1197.14 682.239L1198.09 683.089L1197.59 684.089L953.261 1239.17L952.521 1235.62L1497.56 2120.03L1484.4 2125.6Z" fill="url(#paint21_linear_924_2417)"/>
<path d="M1458.85 2121.49L908.72 1259.02L907.03 1257.32L907.94 1255.42L1167.09 679.279L1167.56 681.119L411.09 16.0391L1171.86 678.849L1172.8 679.679L1172.33 680.679L919.1 1258.29L918.33 1254.69L1471.94 2115.83L1458.85 2121.49Z" fill="url(#paint22_linear_924_2417)"/>
<path d="M1433.31 2117.39L874.521 1278.18L872.791 1276.47L873.711 1274.54L1141.85 675.89L1142.34 677.71L379.461 16.7695L1146.57 675.44L1147.53 676.27L1147.04 677.26L884.951 1277.41L884.131 1273.77L1446.32 2111.63L1433.31 2117.39Z" fill="url(#paint23_linear_924_2417)"/>
<path d="M1407.76 2113.29L840.32 1297.35L838.55 1295.62L839.47 1293.67L1116.62 672.51L1117.11 674.32L347.85 17.5L1121.28 672.04L1122.24 672.86L1121.78 673.85L850.79 1296.53L849.94 1292.85L1420.7 2107.43L1407.76 2113.29Z" fill="url(#paint24_linear_924_2417)"/>
<path d="M1382.22 2109.18L806.121 1316.52L804.311 1314.78L805.221 1312.79L1091.38 669.109L1091.88 670.919L316.221 18.2188L1095.99 668.639L1096.96 669.449L1096.5 670.439L816.641 1315.65L815.741 1311.92L1395.08 2103.24L1382.22 2109.18Z" fill="url(#paint25_linear_924_2417)"/>
<path d="M1356.68 2105.08L771.92 1335.69L770.06 1333.93L770.99 1331.91L1066.15 665.729L1066.66 667.519L284.6 18.9492L1070.71 665.229L1071.69 666.039L1071.23 667.029L782.48 1334.77L781.54 1331L1369.45 2099.04L1356.68 2105.08Z" fill="url(#paint26_linear_924_2417)"/>
<path d="M1331.14 2100.98L737.72 1354.85L735.82 1353.08L736.75 1351.03L1040.91 662.34L1041.43 664.12L252.98 19.6797L1045.42 661.82L1046.4 662.63L1045.94 663.61L748.31 1353.89L747.35 1350.08L1343.83 2094.85L1331.14 2100.98Z" fill="url(#paint27_linear_924_2417)"/>
<path d="M1305.6 2096.88L703.53 1374.02L701.58 1372.23L702.52 1370.16L1015.68 658.94L1016.21 660.72L221.35 20.4102L1020.13 658.42L1021.12 659.22L1020.67 660.2L714.16 1373.02L713.15 1369.16L1318.21 2090.65L1305.6 2096.88Z" fill="url(#paint28_linear_924_2417)"/>
<path d="M1280.05 2092.77L669.32 1393.19L667.341 1391.39L668.281 1389.29L990.44 655.561L990.98 657.331L189.73 21.1406L994.841 655.021L995.841 655.811L995.401 656.791L680 1392.14L678.961 1388.23L1292.59 2086.45L1280.05 2092.77Z" fill="url(#paint29_linear_924_2417)"/>
<path d="M1254.5 2088.67L635.13 1412.36L633.1 1410.53L634.04 1408.41L965.2 652.161L965.76 653.931L158.1 21.8711L969.56 651.621L970.55 652.401L970.12 653.381L645.84 1411.26L644.76 1407.31L1266.97 2082.26L1254.5 2088.67Z" fill="url(#paint30_linear_924_2417)"/>
<path d="M1228.97 2084.56L600.92 1431.52L598.86 1429.69L599.82 1427.53L939.961 648.772L940.531 650.532L126.48 22.6016L944.271 648.212L945.281 648.982L944.841 649.962L611.68 1430.38L610.57 1426.39L1241.34 2078.06L1228.97 2084.56Z" fill="url(#paint31_linear_924_2417)"/>
<path d="M1203.42 2080.46L566.729 1450.69L564.609 1448.84L565.569 1446.66L914.719 645.388L915.309 647.128L94.8594 23.3281L918.979 644.808L919.989 645.568L919.569 646.548L577.519 1449.5L576.369 1445.46L1215.72 2073.86L1203.42 2080.46Z" fill="url(#paint32_linear_924_2417)"/>
<path d="M1177.88 2076.35L532.53 1469.86L530.37 1467.99L531.34 1465.78L889.49 641.989L890.091 643.729L63.2305 24.0586L893.69 641.399L894.72 642.159L894.3 643.139L543.37 1468.62L542.18 1464.54L1190.1 2069.67L1177.88 2076.35Z" fill="url(#paint33_linear_924_2417)"/>
<path d="M1152.34 2072.26L498.329 1489.03L496.129 1487.14L497.099 1484.9L864.249 638.609L864.849 640.329L31.6191 24.7891L868.409 637.999L869.439 638.749L869.019 639.729L509.199 1487.74L507.979 1483.62L1164.48 2065.47L1152.34 2072.26Z" fill="url(#paint34_linear_924_2417)"/>
<path d="M1126.79 2068.15L464.13 1508.19L461.89 1506.29L462.87 1504.03L839.02 635.219L839.63 636.94L0 25.5195L843.13 634.599L844.15 635.34L843.74 636.32L475.05 1506.86L473.79 1502.7L1138.86 2061.28L1126.79 2068.15Z" fill="url(#paint35_linear_924_2417)"/>
</g>
<defs>
<linearGradient id="paint0_linear_924_2417" x1="1048.8" y1="1082.15" x2="2088.41" y2="1136.08" gradientUnits="userSpaceOnUse">
<stop stop-color="#0D59C5"/>
<stop offset="1" stop-color="#33E8FF"/>
</linearGradient>
<linearGradient id="paint1_linear_924_2417" x1="1017.34" y1="1080.31" x2="2062.67" y2="1134.55" gradientUnits="userSpaceOnUse">
<stop stop-color="#0D59C5"/>
<stop offset="1" stop-color="#33E8FF"/>
</linearGradient>
<linearGradient id="paint2_linear_924_2417" x1="985.872" y1="1078.48" x2="2036.93" y2="1133.01" gradientUnits="userSpaceOnUse">
<stop stop-color="#0D59C5"/>
<stop offset="1" stop-color="#33E8FF"/>
</linearGradient>
<linearGradient id="paint3_linear_924_2417" x1="954.422" y1="1076.64" x2="2011.2" y2="1131.47" gradientUnits="userSpaceOnUse">
<stop stop-color="#0D59C5"/>
<stop offset="1" stop-color="#33E8FF"/>
</linearGradient>
<linearGradient id="paint4_linear_924_2417" x1="922.959" y1="1074.81" x2="1985.46" y2="1129.93" gradientUnits="userSpaceOnUse">
<stop stop-color="#0D59C5"/>
<stop offset="1" stop-color="#33E8FF"/>
</linearGradient>
<linearGradient id="paint5_linear_924_2417" x1="891.494" y1="1072.97" x2="1959.74" y2="1128.39" gradientUnits="userSpaceOnUse">
<stop stop-color="#0D59C5"/>
<stop offset="1" stop-color="#33E8FF"/>
</linearGradient>
<linearGradient id="paint6_linear_924_2417" x1="860.044" y1="1071.13" x2="1934" y2="1126.85" gradientUnits="userSpaceOnUse">
<stop stop-color="#0D59C5"/>
<stop offset="1" stop-color="#33E8FF"/>
</linearGradient>
<linearGradient id="paint7_linear_924_2417" x1="828.579" y1="1069.3" x2="1908.27" y2="1125.31" gradientUnits="userSpaceOnUse">
<stop stop-color="#0D59C5"/>
<stop offset="1" stop-color="#33E8FF"/>
</linearGradient>
<linearGradient id="paint8_linear_924_2417" x1="797.13" y1="1067.46" x2="1882.54" y2="1123.78" gradientUnits="userSpaceOnUse">
<stop stop-color="#0D59C5"/>
<stop offset="1" stop-color="#33E8FF"/>
</linearGradient>
<linearGradient id="paint9_linear_924_2417" x1="765.665" y1="1065.63" x2="1856.81" y2="1122.24" gradientUnits="userSpaceOnUse">
<stop stop-color="#0D59C5"/>
<stop offset="1" stop-color="#33E8FF"/>
</linearGradient>
<linearGradient id="paint10_linear_924_2417" x1="734.215" y1="1063.79" x2="1831.06" y2="1120.7" gradientUnits="userSpaceOnUse">
<stop stop-color="#0D59C5"/>
<stop offset="1" stop-color="#33E8FF"/>
</linearGradient>
<linearGradient id="paint11_linear_924_2417" x1="702.75" y1="1061.96" x2="1805.33" y2="1119.16" gradientUnits="userSpaceOnUse">
<stop stop-color="#0D59C5"/>
<stop offset="1" stop-color="#33E8FF"/>
</linearGradient>
<linearGradient id="paint12_linear_924_2417" x1="671.287" y1="1060.12" x2="1779.6" y2="1117.62" gradientUnits="userSpaceOnUse">
<stop stop-color="#0D59C5"/>
<stop offset="1" stop-color="#33E8FF"/>
</linearGradient>
<linearGradient id="paint13_linear_924_2417" x1="639.836" y1="1058.29" x2="1753.86" y2="1116.09" gradientUnits="userSpaceOnUse">
<stop stop-color="#0D59C5"/>
<stop offset="1" stop-color="#33E8FF"/>
</linearGradient>
<linearGradient id="paint14_linear_924_2417" x1="608.371" y1="1056.47" x2="1728.12" y2="1114.57" gradientUnits="userSpaceOnUse">
<stop stop-color="#0D59C5"/>
<stop offset="1" stop-color="#33E8FF"/>
</linearGradient>
<linearGradient id="paint15_linear_924_2417" x1="576.907" y1="1054.63" x2="1702.39" y2="1113.03" gradientUnits="userSpaceOnUse">
<stop stop-color="#0D59C5"/>
<stop offset="1" stop-color="#33E8FF"/>
</linearGradient>
<linearGradient id="paint16_linear_924_2417" x1="545.457" y1="1052.8" x2="1676.65" y2="1111.49" gradientUnits="userSpaceOnUse">
<stop stop-color="#0D59C5"/>
<stop offset="1" stop-color="#33E8FF"/>
</linearGradient>
<linearGradient id="paint17_linear_924_2417" x1="513.994" y1="1050.97" x2="1650.93" y2="1109.95" gradientUnits="userSpaceOnUse">
<stop stop-color="#0D59C5"/>
<stop offset="1" stop-color="#33E8FF"/>
</linearGradient>
<linearGradient id="paint18_linear_924_2417" x1="482.529" y1="1049.13" x2="1625.19" y2="1108.41" gradientUnits="userSpaceOnUse">
<stop stop-color="#0D59C5"/>
<stop offset="1" stop-color="#33E8FF"/>
</linearGradient>
<linearGradient id="paint19_linear_924_2417" x1="451.064" y1="1047.29" x2="1599.45" y2="1106.88" gradientUnits="userSpaceOnUse">
<stop stop-color="#0D59C5"/>
<stop offset="1" stop-color="#33E8FF"/>
</linearGradient>
<linearGradient id="paint20_linear_924_2417" x1="419.614" y1="1045.46" x2="1573.72" y2="1105.33" gradientUnits="userSpaceOnUse">
<stop stop-color="#0D59C5"/>
<stop offset="1" stop-color="#33E8FF"/>
</linearGradient>
<linearGradient id="paint21_linear_924_2417" x1="388.164" y1="1043.62" x2="1547.98" y2="1103.8" gradientUnits="userSpaceOnUse">
<stop stop-color="#0D59C5"/>
<stop offset="1" stop-color="#33E8FF"/>
</linearGradient>
<linearGradient id="paint22_linear_924_2417" x1="356.713" y1="1041.79" x2="1522.26" y2="1102.26" gradientUnits="userSpaceOnUse">
<stop stop-color="#0D59C5"/>
<stop offset="1" stop-color="#33E8FF"/>
</linearGradient>
<linearGradient id="paint23_linear_924_2417" x1="325.237" y1="1039.95" x2="1496.52" y2="1100.72" gradientUnits="userSpaceOnUse">
<stop stop-color="#0D59C5"/>
<stop offset="1" stop-color="#33E8FF"/>
</linearGradient>
<linearGradient id="paint24_linear_924_2417" x1="293.785" y1="1038.12" x2="1470.79" y2="1099.18" gradientUnits="userSpaceOnUse">
<stop stop-color="#0D59C5"/>
<stop offset="1" stop-color="#33E8FF"/>
</linearGradient>
<linearGradient id="paint25_linear_924_2417" x1="262.335" y1="1036.28" x2="1445.05" y2="1097.64" gradientUnits="userSpaceOnUse">
<stop stop-color="#0D59C5"/>
<stop offset="1" stop-color="#33E8FF"/>
</linearGradient>
<linearGradient id="paint26_linear_924_2417" x1="230.87" y1="1034.45" x2="1419.33" y2="1096.11" gradientUnits="userSpaceOnUse">
<stop stop-color="#0D59C5"/>
<stop offset="1" stop-color="#33E8FF"/>
</linearGradient>
<linearGradient id="paint27_linear_924_2417" x1="199.407" y1="1032.61" x2="1393.59" y2="1094.57" gradientUnits="userSpaceOnUse">
<stop stop-color="#0D59C5"/>
<stop offset="1" stop-color="#33E8FF"/>
</linearGradient>
<linearGradient id="paint28_linear_924_2417" x1="167.942" y1="1030.77" x2="1367.85" y2="1093.03" gradientUnits="userSpaceOnUse">
<stop stop-color="#0D59C5"/>
<stop offset="1" stop-color="#33E8FF"/>
</linearGradient>
<linearGradient id="paint29_linear_924_2417" x1="136.493" y1="1028.94" x2="1342.12" y2="1091.49" gradientUnits="userSpaceOnUse">
<stop stop-color="#0D59C5"/>
<stop offset="1" stop-color="#33E8FF"/>
</linearGradient>
<linearGradient id="paint30_linear_924_2417" x1="105.028" y1="1027.1" x2="1316.38" y2="1089.95" gradientUnits="userSpaceOnUse">
<stop stop-color="#0D59C5"/>
<stop offset="1" stop-color="#33E8FF"/>
</linearGradient>
<linearGradient id="paint31_linear_924_2417" x1="73.5648" y1="1025.27" x2="1290.64" y2="1088.41" gradientUnits="userSpaceOnUse">
<stop stop-color="#0D59C5"/>
<stop offset="1" stop-color="#33E8FF"/>
</linearGradient>
<linearGradient id="paint32_linear_924_2417" x1="42.1131" y1="1023.43" x2="1264.91" y2="1086.87" gradientUnits="userSpaceOnUse">
<stop stop-color="#0D59C5"/>
<stop offset="1" stop-color="#33E8FF"/>
</linearGradient>
<linearGradient id="paint33_linear_924_2417" x1="10.6503" y1="1021.6" x2="1239.17" y2="1085.34" gradientUnits="userSpaceOnUse">
<stop stop-color="#0D59C5"/>
<stop offset="1" stop-color="#33E8FF"/>
</linearGradient>
<linearGradient id="paint34_linear_924_2417" x1="-20.8027" y1="1019.78" x2="1213.45" y2="1083.82" gradientUnits="userSpaceOnUse">
<stop stop-color="#0D59C5"/>
<stop offset="1" stop-color="#33E8FF"/>
</linearGradient>
<linearGradient id="paint35_linear_924_2417" x1="-52.2524" y1="1017.95" x2="1187.71" y2="1082.28" gradientUnits="userSpaceOnUse">
<stop stop-color="#0D59C5"/>
<stop offset="1" stop-color="#33E8FF"/>
</linearGradient>
<clipPath id="clip0_924_2417">
<rect width="2035.6" height="2211.77" fill="white"/>
</clipPath>
</defs>
</svg>
