<svg width="1927" height="1828" viewBox="0 0 1927 1828" fill="none" xmlns="http://www.w3.org/2000/svg">
<g clip-path="url(#clip0_924_2250)">
<path d="M188.08 0L483.66 397.23L483.74 397.83L513.15 612.99L1132.23 902.5L1128.28 906.03L96.5 1827.34L91.03 1823.36L1118.87 905.57L514.51 622.95L581.54 1113.31L441.33 1224.89L134.71 1475.31L0 1092.37L0.02 1091.87L32.69 388.3L503.48 608.46L475.17 401.32L180.29 5.04L188.08 0ZM504.85 618.42L40.69 401.36L8.74 1089.42L139.99 1462.53L436.36 1220.49L572.36 1112.26L504.86 618.42H504.85Z" fill="url(#paint0_linear_924_2250)"/>
<path d="M257.72 5.08984L507.17 402.19L507.23 402.71L534.01 636.37L1138.24 916.7L1134.49 920.11L138.66 1825.6L133.28 1821.8L1125.34 919.72L535.1 645.88L589.08 1116.85L452.89 1234.66L148.04 1477.19L13.25 1094.89L13.28 1094.39L48.71 411.22L524.8 632.1L498.88 405.94L249.97 9.68984L257.72 5.08984ZM525.9 641.62L56.4 423.8L21.74 1092.05L153.22 1464.97L448.03 1230.43L580.27 1116.03L525.9 641.62Z" fill="url(#paint1_linear_924_2250)"/>
<path d="M327.36 10.1992L530.68 407.159L530.72 407.599L553.99 659.279L1144.25 930.899L180.83 1823.86L175.53 1820.26L1131.82 933.899L554.83 668.379L596.62 1120.43L464.37 1244.5L161.36 1479.1L26.5 1097.42L26.53 1096.93L64.73 434.129L71.15 437.079L545.22 655.239L522.6 410.549L319.66 14.3392L327.36 10.1992ZM546.06 664.349L72.1 446.239L34.72 1094.67L166.42 1467.41L459.65 1240.39L588.16 1119.78L546.06 664.339V664.349Z" fill="url(#paint2_linear_924_2250)"/>
<path d="M396.98 15.3203L554.18 412.13L554.21 412.48L573.11 681.73L1150.25 945.1L1146.88 948.29L222.99 1822.13L217.78 1818.72L1138.29 948.08L573.72 690.44L604.16 1124.03L475.86 1254.35L174.69 1481.02L39.75 1099.96L39.78 1099.47L80.75 457.05L564.77 677.93L546.32 415.17L389.36 18.9703L396.97 15.3203H396.98ZM565.39 686.62L87.81 468.68L47.72 1097.3L179.65 1469.85L471.3 1250.34L596.07 1123.52L565.39 686.61V686.62Z" fill="url(#paint3_linear_924_2250)"/>
<path d="M466.58 20.4609L577.67 417.111V417.361L591.41 703.751L1156.25 959.311L1153.07 962.381L265.15 1820.38L260.03 1817.16L1144.77 962.231L591.81 712.051L611.72 1127.6L487.8 1263.82L188.01 1482.91L52.9902 1102.46L53.0302 1101.98L96.7602 479.941L583.47 700.151L570.04 419.761L459.09 23.5909L466.59 20.4609H466.58ZM583.89 708.471L103.52 491.131L60.7202 1099.93L192.86 1472.29L482.94 1260.29L603.95 1127.26L583.88 708.461L583.89 708.471Z" fill="url(#paint4_linear_924_2250)"/>
<path d="M536.17 25.6094L601.17 422.089V422.239L608.92 725.359L1162.26 973.519L307.32 1818.65L302.29 1815.62L1151.25 976.399L609.13 733.269L619.3 1131.2L499.42 1273.59L498.86 1273.99L201.36 1484.83L66.2598 1105L66.2898 1104.53L112.79 502.859L601.39 721.979L593.79 424.369L528.83 28.1894L536.17 25.6094ZM601.59 729.899L119.23 513.569L73.7098 1102.55L206.08 1474.72L494.6 1270.23L611.84 1130.98L601.59 729.889V729.899Z" fill="url(#paint5_linear_924_2250)"/>
<path d="M605.72 30.77L624.65 427.02L625.65 746.57L1168.27 987.72L349.48 1816.9L344.54 1814.06L1157.72 990.56L625.67 754.1L626.85 1134.81L510.99 1283.35L510.33 1283.8L214.67 1486.74L79.4902 1107.51L79.5302 1107.04L128.79 525.75L618.48 743.38L617.5 428.91L598.57 32.76L605.7 30.75L605.72 30.77ZM618.52 750.94L134.93 536.02L86.6902 1105.18L219.28 1477.14L506.25 1280.16L619.71 1134.7L618.52 750.93V750.94Z" fill="url(#paint6_linear_924_2250)"/>
<path d="M675.26 35.9297L648.14 432.1L641.63 767.41L1174.27 1001.93L1171.65 1004.65L391.63 1815.16L386.79 1812.51L1164.19 1004.72L641.49 774.57L634.43 1138.43L522.58 1293.13L521.83 1293.63L228.01 1488.67L92.75 1110.04L92.79 1109.58L144.81 548.66L149.98 550.94L634.83 764.42L641.25 433.63L668.38 37.3597L675.24 35.9297H675.26ZM634.71 771.6L150.65 558.47L99.7 1107.81L232.51 1479.56L517.93 1290.09L627.6 1138.41L634.72 771.6H634.71Z" fill="url(#paint7_linear_924_2250)"/>
<path d="M744.75 41.1016L671.6 437.022L656.87 787.892L1180.27 1016.15L433.78 1813.43L429.04 1810.97L1170.66 1018.89L656.59 794.702L642 1142.06L534.16 1302.91L533.33 1303.44L241.36 1490.6L106.01 1112.57L106.06 1112.11L160.84 571.562L650.45 785.082L665.02 438.192L665.05 438.032L738.22 41.9516L744.75 41.1016ZM650.16 791.912L166.36 580.922L112.69 1110.44L245.71 1481.98L529.59 1300.02L635.45 1142.11L650.16 791.912Z" fill="url(#paint8_linear_924_2250)"/>
<path d="M814.22 46.2617L695.08 441.992L671.42 808.032L1186.3 1030.36L475.95 1811.7L471.31 1809.43L1177.14 1033.06L671 814.502L649.59 1145.71L649.2 1146.34L545.74 1312.72L544.83 1313.28L254.69 1492.55L253.73 1489.88L119.25 1115.11L119.3 1114.66L176.85 594.482L181.53 596.502L665.32 805.412L688.76 442.822L688.84 442.562L808.07 46.5617L814.22 46.2717V46.2617ZM664.91 811.882L182.07 603.382L125.69 1113.07L258.93 1484.39L541.28 1309.93L643.33 1145.8L664.92 811.872L664.91 811.882Z" fill="url(#paint9_linear_924_2250)"/>
<path d="M883.67 51.4002L718.54 446.95L685.26 827.84L1192.29 1044.58L518.09 1809.97L513.56 1807.89L1183.6 1047.23L684.72 833.98L657.17 1149.35L656.86 1149.88L557.31 1322.5L268.03 1494.49L132.51 1117.64L132.56 1117.2L192.87 617.38L197.31 619.28L679.51 825.4L712.53 447.45L877.96 51.1602L883.67 51.4002ZM678.97 831.52L197.78 625.84L138.67 1115.7L272.12 1486.8L552.94 1319.85L651.18 1149.5L678.96 831.52H678.97Z" fill="url(#paint10_linear_924_2250)"/>
<path d="M953.09 56.5108L742 451.901L698.43 847.351L1198.31 1058.8L560.25 1808.24L555.83 1806.34L1190.08 1061.39L697.8 853.161L664.76 1153.01L664.52 1153.45L568.88 1332.31L281.37 1496.44L145.76 1120.17L208.88 640.281L692.99 845.061L736.29 452.091L736.52 451.641L947.86 55.8008L953.1 56.5108H953.09ZM692.36 850.851L213.5 648.291L151.68 1118.32L285.34 1489.19L564.64 1329.75L659.06 1153.17L692.37 850.841L692.36 850.851Z" fill="url(#paint11_linear_924_2250)"/>
<path d="M1017.77 60.4688L1022.51 61.5887L765.46 456.829L710.94 866.549L1204.32 1073.01L1202.58 1075.13L602.39 1806.5L598.09 1804.78L1196.54 1075.54L710.21 872.029L672.34 1156.65L672.16 1157.02L580.44 1342.11L294.71 1498.39L159.01 1122.69L159.07 1122.26L224.89 663.159L705.81 864.399L760.06 456.719L760.39 456.209L1017.77 60.4688ZM705.08 869.889L229.21 670.759L164.66 1120.96L298.53 1491.59L576.31 1339.65L666.89 1156.85L705.07 869.889H705.08Z" fill="url(#paint12_linear_924_2250)"/>
<path d="M1087.68 65.1719L1091.92 66.6319L788.909 461.742L722.809 885.472L1210.34 1087.22L1208.77 1089.22L644.549 1804.76L640.359 1803.22L1203.01 1089.68L722.009 890.632L679.939 1160.29L679.809 1160.58L592.009 1351.89L590.869 1352.49L308.069 1500.34L307.349 1498.34L172.279 1125.22L172.349 1124.8L240.929 686.072L244.649 687.612L718.009 883.502L783.859 461.412L784.279 460.862L1087.71 65.2019L1087.68 65.1719ZM717.169 888.642L244.919 693.212L177.649 1123.57L311.729 1493.97L587.999 1349.54L674.749 1160.52L717.159 888.642H717.169Z" fill="url(#paint13_linear_924_2250)"/>
<path d="M1157.59 69.9219L1161.34 71.6519L812.36 466.652L734.04 904.142L1216.35 1101.45L686.68 1803.03L682.62 1801.68L1209.46 1103.85L733.17 909.002L687.52 1163.97L687.42 1164.19L603.55 1361.72L602.37 1362.31L321.4 1502.32L320.73 1500.47L185.51 1127.76L185.58 1127.34L256.91 708.962L729.49 902.302L807.59 466.092L808.1 465.512L1157.58 69.9319L1157.59 69.9219ZM728.64 907.132L260.65 715.672L190.66 1126.2L324.95 1496.35L599.71 1359.44L682.62 1164.19L728.64 907.132Z" fill="url(#paint14_linear_924_2250)"/>
<path d="M1227.49 74.6914L1230.77 76.6214L835.82 471.531L744.66 922.541L1222.37 1115.67L1221.11 1117.42L728.82 1801.3L724.89 1800.12L1215.92 1117.99L743.73 927.091L695.11 1167.62L695.05 1167.79L615.1 1371.52L334.75 1504.27L198.76 1130.26L272.92 731.821L740.39 920.811L831.36 470.761L831.94 470.181L1227.47 74.6914H1227.49ZM739.48 925.371L276.37 738.141L203.65 1128.83L338.14 1498.73L611.4 1369.34L690.46 1167.86L739.47 925.381L739.48 925.371Z" fill="url(#paint15_linear_924_2250)"/>
<path d="M1297.37 79.5L1300.22 81.57L859.279 476.4L754.669 940.71L1228.4 1129.9L1227.29 1131.52L770.969 1799.57L767.189 1798.56L1222.4 1132.14L753.719 944.96L702.689 1171.39L626.669 1381.32L348.119 1506.24L347.549 1504.68L212.039 1132.78L212.119 1132.38L288.949 754.7L291.959 755.91L750.689 939.11L855.149 475.48L855.789 474.91L1297.37 79.5ZM749.719 943.38L292.089 760.62L216.649 1131.46L351.349 1501.1L623.119 1379.22L698.329 1171.51L749.729 943.37L749.719 943.38Z" fill="url(#paint16_linear_924_2250)"/>
<path d="M1367.23 84.3398L1369.69 86.4898L882.74 481.26L764.08 958.66L1234.43 1144.14L813.099 1797.86L809.46 1797.02L1228.85 1146.31L763.09 962.64L710.33 1174.91L638.2 1391.16L361.46 1508.24L225.27 1135.33L304.94 777.61L760.359 957.2L878.909 480.23L1367.23 84.3498V84.3398ZM759.37 961.16L307.81 783.09L229.64 1134.09L364.53 1503.47L634.81 1389.12L706.19 1175.12L759.37 961.16Z" fill="url(#paint17_linear_924_2250)"/>
<path d="M1437.07 89.1992L1439.17 91.3692L906.189 486.079L772.889 976.369L1240.44 1158.35L1239.61 1159.73L855.219 1796.12L851.739 1795.44L1235.3 1160.43L771.889 980.069L717.919 1178.6L649.749 1400.96L648.499 1401.46L374.809 1510.22L238.529 1137.85L238.619 1137.46L320.949 800.479L769.439 975.039L902.679 484.969L903.389 484.439L1437.07 89.1992ZM768.429 978.719L323.529 805.559L242.629 1136.71L377.729 1505.82L646.529 1399L714.039 1178.81L768.439 978.719H768.429Z" fill="url(#paint18_linear_924_2250)"/>
<path d="M1506.89 94.0781L1508.67 96.2381L929.65 490.898L781.12 993.898L1246.47 1172.58L1245.76 1173.84L897.34 1794.4L894.02 1793.87L1241.74 1174.57L780.12 997.308L725.5 1182.29L661.28 1410.75L388.16 1512.18L387.73 1511L251.77 1140.34L251.87 1139.96L336.94 823.318L777.919 992.648L926.43 489.698L927.15 489.208L1506.89 94.0781ZM776.909 996.088L339.26 828.038L255.62 1139.34L390.91 1508.18L658.229 1408.9L721.87 1182.51L776.919 996.088H776.909Z" fill="url(#paint19_linear_924_2250)"/>
<path d="M1576.69 98.9805L1578.19 101.09L953.12 495.71L788.79 1011.25L1252.51 1186.83L1251.92 1187.96L939.46 1792.69L936.31 1792.31L1248.18 1188.72L787.78 1014.4L733.08 1186.01L672.81 1420.59L401.51 1514.21L401.12 1513.16L265.01 1142.91L265.12 1142.53L352.92 846.23L785.81 1010.13L950.17 494.51L950.89 494.06L1576.69 98.9805ZM784.83 1013.28L354.99 850.531L268.62 1141.98L404.1 1510.53L669.94 1418.79L729.7 1186.2L784.82 1013.28H784.83Z" fill="url(#paint20_linear_924_2250)"/>
<path d="M1646.48 103.898L1647.73 105.928L976.59 500.508L795.88 1028.42L1258.54 1201.07L981.57 1790.99L978.599 1790.74L1254.62 1202.86L794.89 1031.3L740.67 1189.7L684.35 1430.39L414.88 1516.2L414.53 1515.26L278.27 1145.42L278.39 1145.05L368.93 869.088L370.82 869.798L793.16 1027.4L973.93 499.288L974.63 498.878L1646.48 103.898ZM792.18 1030.28L370.72 872.998L281.61 1144.59L417.29 1512.86L681.66 1428.67L737.55 1189.87L792.18 1030.28Z" fill="url(#paint21_linear_924_2250)"/>
<path d="M1716.25 108.82L1717.29 110.76L1000.07 505.29L802.421 1045.42L1264.6 1215.31L1264.22 1216.21L1023.7 1789.28L1020.93 1789.16L1261.08 1216.99L801.471 1048.04L748.281 1193.39L695.901 1440.2L428.261 1518.21L427.951 1517.37L291.551 1147.95L384.961 891.96L799.971 1044.51L997.721 504.1L998.391 503.73L1716.25 108.82ZM798.981 1047.13L386.461 895.49L294.611 1147.22L430.481 1515.2L693.381 1438.57L745.401 1193.54L798.981 1047.12V1047.13Z" fill="url(#paint22_linear_924_2250)"/>
<path d="M1786.01 113.762L1786.86 115.582L1023.55 510.072L808.38 1062.28L1270.64 1229.56L1270.35 1230.35L1065.79 1787.59H1063.22L1267.49 1231.13L807.45 1064.65L755.88 1196.99L707.4 1450.02L441.59 1520.24L304.76 1150.49L304.9 1150.14L400.9 914.842L806.11 1061.47L1021.41 508.922L1022.05 508.592L1786.01 113.762ZM805.2 1063.82L402.19 917.982L307.59 1149.85L443.66 1517.53L705.1 1448.46L753.26 1197.11L753.3 1197.01L805.2 1063.81V1063.82Z" fill="url(#paint23_linear_924_2250)"/>
<path d="M1855.75 118.711L1856.44 120.381L1047.03 514.831L813.78 1078.99L1276.69 1243.8L1276.48 1244.48L1107.89 1785.89L1105.54 1785.98L1273.92 1245.24L812.91 1081.11L763.48 1200.66L718.93 1459.82L454.96 1522.25L454.72 1521.61L318.02 1153.01L318.18 1152.67L416.9 937.691L418.16 938.141L811.76 1078.28L1045.16 513.741L1045.75 513.451L1855.75 118.711ZM810.89 1080.39L417.94 940.491L320.6 1152.49L456.85 1519.87L716.84 1458.38L761.12 1200.79L761.17 1200.68L810.9 1080.39H810.89Z" fill="url(#paint24_linear_924_2250)"/>
<path d="M1925.48 123.66L1926.03 125.19L1070.52 519.59L818.639 1095.58L1282.76 1258.05L1282.62 1258.62L1149.99 1784.2L1147.87 1784.37L1280.35 1259.36L817.829 1097.45L771.099 1204.33L730.469 1469.61L729.459 1469.82L468.339 1524.27L468.129 1523.72L331.279 1155.53L331.449 1155.2L432.879 960.53L433.949 960.91L816.849 1094.95L1068.91 518.55L1069.44 518.31L1925.48 123.66ZM816.019 1096.82L433.689 962.98L333.589 1155.11L470.019 1522.18L728.559 1468.27L768.959 1204.43L769.009 1204.32L816.019 1096.82Z" fill="url(#paint25_linear_924_2250)"/>
</g>
<defs>
<linearGradient id="paint0_linear_924_2250" x1="1101.63" y1="841.203" x2="195.517" y2="909.655" gradientUnits="userSpaceOnUse">
<stop stop-color="#2DBA95"/>
<stop offset="0.33" stop-color="#4AC27D"/>
<stop offset="0.69" stop-color="#70CD5E"/>
<stop offset="1" stop-color="#A9DD2F"/>
</linearGradient>
<linearGradient id="paint1_linear_924_2250" x1="1102.7" y1="847.026" x2="196.804" y2="915.458" gradientUnits="userSpaceOnUse">
<stop stop-color="#2DBA95"/>
<stop offset="0.33" stop-color="#4AC27D"/>
<stop offset="0.69" stop-color="#70CD5E"/>
<stop offset="1" stop-color="#A9DD2F"/>
</linearGradient>
<linearGradient id="paint2_linear_924_2250" x1="1103.77" y1="852.848" x2="198.082" y2="921.265" gradientUnits="userSpaceOnUse">
<stop stop-color="#2DBA95"/>
<stop offset="0.33" stop-color="#4AC27D"/>
<stop offset="0.69" stop-color="#70CD5E"/>
<stop offset="1" stop-color="#A9DD2F"/>
</linearGradient>
<linearGradient id="paint3_linear_924_2250" x1="1104.85" y1="858.689" x2="199.365" y2="927.084" gradientUnits="userSpaceOnUse">
<stop stop-color="#2DBA95"/>
<stop offset="0.33" stop-color="#4AC27D"/>
<stop offset="0.69" stop-color="#70CD5E"/>
<stop offset="1" stop-color="#A9DD2F"/>
</linearGradient>
<linearGradient id="paint4_linear_924_2250" x1="1105.92" y1="864.522" x2="200.644" y2="932.915" gradientUnits="userSpaceOnUse">
<stop stop-color="#2DBA95"/>
<stop offset="0.33" stop-color="#4AC27D"/>
<stop offset="0.69" stop-color="#70CD5E"/>
<stop offset="1" stop-color="#A9DD2F"/>
</linearGradient>
<linearGradient id="paint5_linear_924_2250" x1="1107" y1="870.369" x2="201.931" y2="938.739" gradientUnits="userSpaceOnUse">
<stop stop-color="#2DBA95"/>
<stop offset="0.33" stop-color="#4AC27D"/>
<stop offset="0.69" stop-color="#70CD5E"/>
<stop offset="1" stop-color="#A9DD2F"/>
</linearGradient>
<linearGradient id="paint6_linear_924_2250" x1="1108.08" y1="876.224" x2="203.211" y2="944.57" gradientUnits="userSpaceOnUse">
<stop stop-color="#2DBA95"/>
<stop offset="0.33" stop-color="#4AC27D"/>
<stop offset="0.69" stop-color="#70CD5E"/>
<stop offset="1" stop-color="#A9DD2F"/>
</linearGradient>
<linearGradient id="paint7_linear_924_2250" x1="1109.16" y1="882.072" x2="204.494" y2="950.409" gradientUnits="userSpaceOnUse">
<stop stop-color="#2DBA95"/>
<stop offset="0.33" stop-color="#4AC27D"/>
<stop offset="0.69" stop-color="#70CD5E"/>
<stop offset="1" stop-color="#A9DD2F"/>
</linearGradient>
<linearGradient id="paint8_linear_924_2250" x1="1110.26" y1="887.922" x2="206.063" y2="956.228" gradientUnits="userSpaceOnUse">
<stop stop-color="#2DBA95"/>
<stop offset="0.33" stop-color="#4AC27D"/>
<stop offset="0.69" stop-color="#70CD5E"/>
<stop offset="1" stop-color="#A9DD2F"/>
</linearGradient>
<linearGradient id="paint9_linear_924_2250" x1="1111.37" y1="893.681" x2="207.646" y2="961.945" gradientUnits="userSpaceOnUse">
<stop stop-color="#2DBA95"/>
<stop offset="0.33" stop-color="#4AC27D"/>
<stop offset="0.69" stop-color="#70CD5E"/>
<stop offset="1" stop-color="#A9DD2F"/>
</linearGradient>
<linearGradient id="paint10_linear_924_2250" x1="1112.46" y1="899.268" x2="209.216" y2="967.496" gradientUnits="userSpaceOnUse">
<stop stop-color="#2DBA95"/>
<stop offset="0.33" stop-color="#4AC27D"/>
<stop offset="0.69" stop-color="#70CD5E"/>
<stop offset="1" stop-color="#A9DD2F"/>
</linearGradient>
<linearGradient id="paint11_linear_924_2250" x1="1113.57" y1="904.866" x2="210.782" y2="973.063" gradientUnits="userSpaceOnUse">
<stop stop-color="#2DBA95"/>
<stop offset="0.33" stop-color="#4AC27D"/>
<stop offset="0.69" stop-color="#70CD5E"/>
<stop offset="1" stop-color="#A9DD2F"/>
</linearGradient>
<linearGradient id="paint12_linear_924_2250" x1="1114.67" y1="910.483" x2="212.345" y2="978.64" gradientUnits="userSpaceOnUse">
<stop stop-color="#2DBA95"/>
<stop offset="0.33" stop-color="#4AC27D"/>
<stop offset="0.69" stop-color="#70CD5E"/>
<stop offset="1" stop-color="#A9DD2F"/>
</linearGradient>
<linearGradient id="paint13_linear_924_2250" x1="1115.78" y1="916.124" x2="213.89" y2="984.255" gradientUnits="userSpaceOnUse">
<stop stop-color="#2DBA95"/>
<stop offset="0.33" stop-color="#4AC27D"/>
<stop offset="0.69" stop-color="#70CD5E"/>
<stop offset="1" stop-color="#A9DD2F"/>
</linearGradient>
<linearGradient id="paint14_linear_924_2250" x1="1137.67" y1="920.206" x2="216.32" y2="989.807" gradientUnits="userSpaceOnUse">
<stop stop-color="#2DBA95"/>
<stop offset="0.33" stop-color="#4AC27D"/>
<stop offset="0.69" stop-color="#70CD5E"/>
<stop offset="1" stop-color="#A9DD2F"/>
</linearGradient>
<linearGradient id="paint15_linear_924_2250" x1="1196.83" y1="921.491" x2="219.362" y2="995.324" gradientUnits="userSpaceOnUse">
<stop stop-color="#2DBA95"/>
<stop offset="0.33" stop-color="#4AC27D"/>
<stop offset="0.69" stop-color="#70CD5E"/>
<stop offset="1" stop-color="#A9DD2F"/>
</linearGradient>
<linearGradient id="paint16_linear_924_2250" x1="1255.37" y1="922.836" x2="220.923" y2="1000.98" gradientUnits="userSpaceOnUse">
<stop stop-color="#2DBA95"/>
<stop offset="0.33" stop-color="#4AC27D"/>
<stop offset="0.69" stop-color="#70CD5E"/>
<stop offset="1" stop-color="#A9DD2F"/>
</linearGradient>
<linearGradient id="paint17_linear_924_2250" x1="1313.3" y1="924.249" x2="220.96" y2="1006.77" gradientUnits="userSpaceOnUse">
<stop stop-color="#2DBA95"/>
<stop offset="0.33" stop-color="#4AC27D"/>
<stop offset="0.69" stop-color="#70CD5E"/>
<stop offset="1" stop-color="#A9DD2F"/>
</linearGradient>
<linearGradient id="paint18_linear_924_2250" x1="1370.6" y1="925.717" x2="219.462" y2="1012.68" gradientUnits="userSpaceOnUse">
<stop stop-color="#2DBA95"/>
<stop offset="0.33" stop-color="#4AC27D"/>
<stop offset="0.69" stop-color="#70CD5E"/>
<stop offset="1" stop-color="#A9DD2F"/>
</linearGradient>
<linearGradient id="paint19_linear_924_2250" x1="1427.26" y1="927.248" x2="216.364" y2="1018.72" gradientUnits="userSpaceOnUse">
<stop stop-color="#2DBA95"/>
<stop offset="0.33" stop-color="#4AC27D"/>
<stop offset="0.69" stop-color="#70CD5E"/>
<stop offset="1" stop-color="#A9DD2F"/>
</linearGradient>
<linearGradient id="paint20_linear_924_2250" x1="1483.24" y1="928.841" x2="211.647" y2="1024.9" gradientUnits="userSpaceOnUse">
<stop stop-color="#2DBA95"/>
<stop offset="0.33" stop-color="#4AC27D"/>
<stop offset="0.69" stop-color="#70CD5E"/>
<stop offset="1" stop-color="#A9DD2F"/>
</linearGradient>
<linearGradient id="paint21_linear_924_2250" x1="1538.54" y1="930.489" x2="205.248" y2="1031.21" gradientUnits="userSpaceOnUse">
<stop stop-color="#2DBA95"/>
<stop offset="0.33" stop-color="#4AC27D"/>
<stop offset="0.69" stop-color="#70CD5E"/>
<stop offset="1" stop-color="#A9DD2F"/>
</linearGradient>
<linearGradient id="paint22_linear_924_2250" x1="1593.14" y1="932.207" x2="197.16" y2="1037.66" gradientUnits="userSpaceOnUse">
<stop stop-color="#2DBA95"/>
<stop offset="0.33" stop-color="#4AC27D"/>
<stop offset="0.69" stop-color="#70CD5E"/>
<stop offset="1" stop-color="#A9DD2F"/>
</linearGradient>
<linearGradient id="paint23_linear_924_2250" x1="1647.01" y1="933.986" x2="187.326" y2="1044.25" gradientUnits="userSpaceOnUse">
<stop stop-color="#2DBA95"/>
<stop offset="0.33" stop-color="#4AC27D"/>
<stop offset="0.69" stop-color="#70CD5E"/>
<stop offset="1" stop-color="#A9DD2F"/>
</linearGradient>
<linearGradient id="paint24_linear_924_2250" x1="1700.13" y1="935.817" x2="175.704" y2="1050.98" gradientUnits="userSpaceOnUse">
<stop stop-color="#2DBA95"/>
<stop offset="0.33" stop-color="#4AC27D"/>
<stop offset="0.69" stop-color="#70CD5E"/>
<stop offset="1" stop-color="#A9DD2F"/>
</linearGradient>
<linearGradient id="paint25_linear_924_2250" x1="1752.5" y1="937.729" x2="162.258" y2="1057.86" gradientUnits="userSpaceOnUse">
<stop stop-color="#2DBA95"/>
<stop offset="0.33" stop-color="#4AC27D"/>
<stop offset="0.69" stop-color="#70CD5E"/>
<stop offset="1" stop-color="#A9DD2F"/>
</linearGradient>
<clipPath id="clip0_924_2250">
<rect width="1926.04" height="1827.34" fill="white"/>
</clipPath>
</defs>
</svg>
