<svg width="1649" height="2107" viewBox="0 0 1649 2107" fill="none" xmlns="http://www.w3.org/2000/svg">
<g clip-path="url(#clip0_924_2511)">
<path d="M9.51 0L712.56 691.17L713.62 692.56L713.54 694.41L910.17 1650.24L909.82 1648.59L479.88 2072.12L905.71 1651.59L905.32 1650.85L905.36 1649.94L706.03 693.93L706.99 697.18L0 10.27L9.51 0Z" fill="url(#paint0_linear_924_2511)"/>
<path d="M39.57 0.0507812L733.42 694.361L734.46 695.781L734.36 697.631L923.1 1647.56L922.76 1645.88L521.61 2073.33L918.65 1648.88L918.26 1648.12L918.3 1647.2L726.87 697.061L727.81 700.321L30 10.2108L39.57 0.0507812Z" fill="url(#paint1_linear_924_2511)"/>
<path d="M69.6205 0.101562L754.281 697.562L755.31 698.992L755.19 700.842L936.04 1644.88L935.701 1643.17L563.34 2074.55L931.591 1646.17L931.19 1645.39L931.25 1644.45L747.711 700.182L748.63 703.462L59.9805 10.1616L69.6205 0.101562Z" fill="url(#paint2_linear_924_2511)"/>
<path d="M99.6705 0.148438L775.13 700.758L776.16 702.198L776.021 704.058L948.98 1642.2L948.63 1640.45L605.07 2075.76L944.54 1643.46L944.12 1642.66L944.201 1641.72L768.56 703.298L769.451 706.598L89.9805 10.1084L99.6705 0.148438Z" fill="url(#paint3_linear_924_2511)"/>
<path d="M129.731 0.199219L795.991 703.959L797.011 705.419L796.851 707.279L961.911 1639.52L961.581 1637.73L646.801 2076.97L957.481 1640.75L957.051 1639.94L957.141 1638.97L789.411 706.419L790.271 709.729L119.971 10.0592L129.731 0.199219Z" fill="url(#paint4_linear_924_2511)"/>
<path d="M159.781 0.25L816.851 707.16L817.851 708.63L817.681 710.49L974.851 1636.83L974.521 1635.02L688.521 2078.19L970.431 1638.04L969.991 1637.21L970.091 1636.23L810.251 709.54L811.081 712.88L149.961 10.01L159.781 0.25Z" fill="url(#paint5_linear_924_2511)"/>
<path d="M189.841 0.300781L837.701 710.351L838.711 711.851L838.501 713.711L987.781 1634.15L987.461 1632.3L730.251 2079.41L983.371 1635.34L982.921 1634.49L983.041 1633.48L831.101 712.661L831.911 716.011L179.961 9.96078L189.841 0.300781Z" fill="url(#paint6_linear_924_2511)"/>
<path d="M219.889 0.359375L858.559 713.559L859.549 715.059L859.329 716.929L1000.71 1631.47L1000.39 1629.59L771.979 2080.62L996.309 1632.63L995.849 1631.76L995.979 1630.74L851.939 715.779L852.729 719.149L209.949 9.90938L219.889 0.359375Z" fill="url(#paint7_linear_924_2511)"/>
<path d="M249.939 0.410156L879.409 716.75L880.399 718.27L880.159 720.14L1013.66 1628.79L1013.33 1626.87L813.709 2081.83L1009.26 1629.92L1008.78 1629.04L1008.94 1627.99L872.779 718.9L873.549 722.29L239.949 9.86016L249.939 0.410156Z" fill="url(#paint8_linear_924_2511)"/>
<path d="M279.999 0.460938L900.259 719.951L901.249 721.491L900.989 723.361L1026.59 1626.11L1026.28 1624.15L855.429 2083.05L1022.2 1627.21L1021.71 1626.31L1021.88 1625.26L893.629 722.021L894.359 725.431L269.939 9.80094L279.999 0.460938Z" fill="url(#paint9_linear_924_2511)"/>
<path d="M310.06 0.511719L921.11 723.152L922.09 724.702L921.82 726.582L1039.52 1623.43L1039.21 1621.44L897.16 2084.26L1035.14 1624.5L1034.64 1623.58L1034.83 1622.51L914.48 725.142L915.18 728.572L299.93 9.76172L310.06 0.511719Z" fill="url(#paint10_linear_924_2511)"/>
<path d="M340.11 0.558594L941.97 726.349L942.94 727.909L942.65 729.789L1052.46 1620.74L1052.15 1618.73L938.89 2085.48L1048.08 1621.79L1047.58 1620.86L1047.77 1619.77L935.32 728.269L936 731.709L329.93 9.70859L340.11 0.558594Z" fill="url(#paint11_linear_924_2511)"/>
<path d="M370.16 0.609375L962.83 729.549L963.79 731.129L963.48 733.009L1065.4 1618.07L1065.09 1616.01L980.61 2086.69L1061.03 1619.08L1060.51 1618.13L1060.72 1617.03L956.17 731.379L956.82 734.849L359.92 9.64937L370.16 0.609375Z" fill="url(#paint12_linear_924_2511)"/>
<path d="M400.22 0.660156L983.68 732.75L984.63 734.34L984.3 736.23L1078.34 1615.39L1078.03 1613.29L1022.34 2087.9L1073.97 1616.38L1073.44 1615.41L1073.66 1614.28L977.02 734.5L977.64 737.98L389.91 9.60016L400.22 0.660156Z" fill="url(#paint13_linear_924_2511)"/>
<path d="M430.28 0.710938L1004.54 735.941L1005.49 737.551L1005.13 739.441L1091.27 1612.71L1090.97 1610.58L1064.07 2089.12L1086.91 1613.66L1086.38 1612.68L1086.61 1611.54L997.87 737.631L998.46 741.131L419.9 9.55094L430.28 0.710938Z" fill="url(#paint14_linear_924_2511)"/>
<path d="M460.33 0.761719L1025.39 739.142L1026.33 740.772L1025.96 742.662L1104.21 1610.02L1103.91 1607.86L1105.8 2090.33L1099.86 1610.95L1099.31 1609.96L1099.56 1608.8L1018.71 740.742L1019.27 744.262L449.9 9.50172L460.33 0.761719Z" fill="url(#paint15_linear_924_2511)"/>
<path d="M490.381 0.808594L1046.25 742.339L1047.18 743.989L1046.79 745.879L1117.14 1607.34L1116.85 1605.14L1147.53 2091.55L1112.8 1608.25L1112.24 1607.23L1112.5 1606.05L1039.55 743.859L1040.1 747.399L479.891 9.44859L490.381 0.808594Z" fill="url(#paint16_linear_924_2511)"/>
<path d="M520.431 0.871094L1067.1 745.541L1068.03 747.201L1067.62 749.101L1130.08 1604.66L1129.78 1602.43L1189.26 2092.76L1125.74 1605.54L1125.17 1604.5L1125.45 1603.31L1060.4 746.991L1060.92 750.541L509.881 9.40109L520.431 0.871094Z" fill="url(#paint17_linear_924_2511)"/>
<path d="M550.491 0.921875L1087.95 748.742L1088.87 750.412L1088.45 752.312L1143.01 1601.98L1142.73 1599.72L1230.99 2093.98L1138.68 1602.83L1138.11 1601.78L1138.4 1600.57L1081.24 750.112L1081.74 753.682L539.881 9.35188L550.491 0.921875Z" fill="url(#paint18_linear_924_2511)"/>
<path d="M580.539 0.960938L1108.81 751.931L1109.73 753.621L1109.27 755.531L1155.95 1599.3L1155.66 1597L1272.71 2095.19L1151.63 1600.12L1151.04 1599.05L1151.35 1597.82L1102.09 753.221L1102.56 756.821L569.869 9.30094L580.539 0.960938Z" fill="url(#paint19_linear_924_2511)"/>
<path d="M610.599 1.01953L1129.66 755.13L1130.57 756.84L1130.11 758.74L1168.88 1596.61L1168.6 1594.28L1314.44 2096.41L1164.57 1597.41L1163.97 1596.33L1164.29 1595.08L1122.94 756.349L1123.37 759.96L599.859 9.24953L610.599 1.01953Z" fill="url(#paint20_linear_924_2511)"/>
<path d="M640.65 1.07031L1150.52 758.33L1151.41 760.06L1150.93 761.96L1181.82 1593.94L1181.54 1591.57L1356.17 2097.62L1177.51 1594.7L1176.9 1593.6L1177.24 1592.34L1143.78 759.47L1144.2 763.1L629.85 9.20031L640.65 1.07031Z" fill="url(#paint21_linear_924_2511)"/>
<path d="M670.71 1.12109L1171.38 761.531L1172.27 763.271L1171.77 765.181L1194.75 1591.25L1194.49 1588.85L1397.9 2098.84L1190.45 1591.99L1189.83 1590.87L1190.19 1589.6L1164.62 762.581L1165.02 766.231L659.85 9.14109L670.71 1.12109Z" fill="url(#paint22_linear_924_2511)"/>
<path d="M700.76 1.17188L1192.23 764.732L1193.11 766.492L1192.59 768.392L1207.7 1588.57L1207.42 1586.14L1439.62 2100.05L1203.4 1589.28L1202.76 1588.15L1203.13 1586.85L1185.47 765.712L1185.83 769.382L689.85 9.09188L700.76 1.17188Z" fill="url(#paint23_linear_924_2511)"/>
<path d="M730.81 1.21875L1213.09 767.919L1213.96 769.699L1213.42 771.619L1220.63 1585.89L1220.36 1583.42L1481.35 2101.26L1216.34 1586.57L1215.7 1585.42L1216.07 1584.11L1206.32 768.829L1206.65 772.509L719.83 9.04875L730.81 1.21875Z" fill="url(#paint24_linear_924_2511)"/>
<path d="M760.87 1.26953L1233.95 771.13L1234.81 772.909L1234.25 774.83L1233.56 1583.21L1233.3 1580.71L1523.08 2102.48L1229.29 1583.87L1228.63 1582.7L1229.03 1581.36L1227.16 771.95L1227.48 775.65L749.83 8.98953L760.87 1.26953Z" fill="url(#paint25_linear_924_2511)"/>
<path d="M790.92 1.32031L1254.8 774.32L1255.65 776.12L1255.08 778.05L1246.5 1580.52L1246.25 1577.99L1564.8 2103.69L1242.22 1581.15L1241.56 1579.97L1241.97 1578.62L1248.01 775.07L1248.29 778.79L779.83 8.94031L790.92 1.32031Z" fill="url(#paint26_linear_924_2511)"/>
<path d="M820.98 1.37109L1275.66 777.521L1276.5 779.341L1275.91 781.261L1259.43 1577.85L1259.18 1575.28L1606.53 2104.91L1255.17 1578.45L1254.5 1577.25L1254.92 1575.88L1268.85 778.191L1269.11 781.931L809.82 8.89109L820.98 1.37109Z" fill="url(#paint27_linear_924_2511)"/>
<path d="M851.031 1.42188L1296.51 780.722L1297.35 782.562L1296.74 784.482L1272.38 1575.17L1272.12 1572.56L1648.26 2106.12L1268.11 1575.74L1267.43 1574.52L1267.87 1573.13L1289.7 781.312L1289.93 785.072L839.811 8.84188L851.031 1.42188Z" fill="url(#paint28_linear_924_2511)"/>
</g>
<defs>
<linearGradient id="paint0_linear_924_2511" x1="0" y1="1036.06" x2="910.17" y2="1036.06" gradientUnits="userSpaceOnUse">
<stop stop-color="#0D59C5"/>
<stop offset="1" stop-color="#33E8FF"/>
</linearGradient>
<linearGradient id="paint1_linear_924_2511" x1="30" y1="1036.69" x2="923.1" y2="1036.69" gradientUnits="userSpaceOnUse">
<stop stop-color="#0D59C5"/>
<stop offset="1" stop-color="#33E8FF"/>
</linearGradient>
<linearGradient id="paint2_linear_924_2511" x1="59.9805" y1="1037.32" x2="936.04" y2="1037.32" gradientUnits="userSpaceOnUse">
<stop stop-color="#0D59C5"/>
<stop offset="1" stop-color="#33E8FF"/>
</linearGradient>
<linearGradient id="paint3_linear_924_2511" x1="89.9805" y1="1037.96" x2="948.98" y2="1037.96" gradientUnits="userSpaceOnUse">
<stop stop-color="#0D59C5"/>
<stop offset="1" stop-color="#33E8FF"/>
</linearGradient>
<linearGradient id="paint4_linear_924_2511" x1="119.971" y1="1038.59" x2="961.911" y2="1038.59" gradientUnits="userSpaceOnUse">
<stop stop-color="#0D59C5"/>
<stop offset="1" stop-color="#33E8FF"/>
</linearGradient>
<linearGradient id="paint5_linear_924_2511" x1="149.961" y1="1039.22" x2="974.851" y2="1039.22" gradientUnits="userSpaceOnUse">
<stop stop-color="#0D59C5"/>
<stop offset="1" stop-color="#33E8FF"/>
</linearGradient>
<linearGradient id="paint6_linear_924_2511" x1="179.961" y1="1039.86" x2="987.781" y2="1039.86" gradientUnits="userSpaceOnUse">
<stop stop-color="#0D59C5"/>
<stop offset="1" stop-color="#33E8FF"/>
</linearGradient>
<linearGradient id="paint7_linear_924_2511" x1="209.949" y1="1040.49" x2="1000.71" y2="1040.49" gradientUnits="userSpaceOnUse">
<stop stop-color="#0D59C5"/>
<stop offset="1" stop-color="#33E8FF"/>
</linearGradient>
<linearGradient id="paint8_linear_924_2511" x1="239.949" y1="1041.12" x2="1013.66" y2="1041.12" gradientUnits="userSpaceOnUse">
<stop stop-color="#0D59C5"/>
<stop offset="1" stop-color="#33E8FF"/>
</linearGradient>
<linearGradient id="paint9_linear_924_2511" x1="269.939" y1="1041.75" x2="1026.59" y2="1041.75" gradientUnits="userSpaceOnUse">
<stop stop-color="#0D59C5"/>
<stop offset="1" stop-color="#33E8FF"/>
</linearGradient>
<linearGradient id="paint10_linear_924_2511" x1="299.93" y1="1042.38" x2="1039.52" y2="1042.38" gradientUnits="userSpaceOnUse">
<stop stop-color="#0D59C5"/>
<stop offset="1" stop-color="#33E8FF"/>
</linearGradient>
<linearGradient id="paint11_linear_924_2511" x1="329.93" y1="1043.02" x2="1052.46" y2="1043.02" gradientUnits="userSpaceOnUse">
<stop stop-color="#0D59C5"/>
<stop offset="1" stop-color="#33E8FF"/>
</linearGradient>
<linearGradient id="paint12_linear_924_2511" x1="359.92" y1="1043.65" x2="1065.4" y2="1043.65" gradientUnits="userSpaceOnUse">
<stop stop-color="#0D59C5"/>
<stop offset="1" stop-color="#33E8FF"/>
</linearGradient>
<linearGradient id="paint13_linear_924_2511" x1="389.91" y1="1044.28" x2="1078.34" y2="1044.28" gradientUnits="userSpaceOnUse">
<stop stop-color="#0D59C5"/>
<stop offset="1" stop-color="#33E8FF"/>
</linearGradient>
<linearGradient id="paint14_linear_924_2511" x1="419.9" y1="1044.91" x2="1091.27" y2="1044.91" gradientUnits="userSpaceOnUse">
<stop stop-color="#0D59C5"/>
<stop offset="1" stop-color="#33E8FF"/>
</linearGradient>
<linearGradient id="paint15_linear_924_2511" x1="449.9" y1="1045.55" x2="1105.8" y2="1045.55" gradientUnits="userSpaceOnUse">
<stop stop-color="#0D59C5"/>
<stop offset="1" stop-color="#33E8FF"/>
</linearGradient>
<linearGradient id="paint16_linear_924_2511" x1="479.891" y1="1046.18" x2="1147.53" y2="1046.18" gradientUnits="userSpaceOnUse">
<stop stop-color="#0D59C5"/>
<stop offset="1" stop-color="#33E8FF"/>
</linearGradient>
<linearGradient id="paint17_linear_924_2511" x1="509.881" y1="1046.81" x2="1189.26" y2="1046.81" gradientUnits="userSpaceOnUse">
<stop stop-color="#0D59C5"/>
<stop offset="1" stop-color="#33E8FF"/>
</linearGradient>
<linearGradient id="paint18_linear_924_2511" x1="539.881" y1="1047.45" x2="1230.99" y2="1047.45" gradientUnits="userSpaceOnUse">
<stop stop-color="#0D59C5"/>
<stop offset="1" stop-color="#33E8FF"/>
</linearGradient>
<linearGradient id="paint19_linear_924_2511" x1="569.869" y1="1048.08" x2="1272.71" y2="1048.08" gradientUnits="userSpaceOnUse">
<stop stop-color="#0D59C5"/>
<stop offset="1" stop-color="#33E8FF"/>
</linearGradient>
<linearGradient id="paint20_linear_924_2511" x1="599.859" y1="1048.71" x2="1314.44" y2="1048.71" gradientUnits="userSpaceOnUse">
<stop stop-color="#0D59C5"/>
<stop offset="1" stop-color="#33E8FF"/>
</linearGradient>
<linearGradient id="paint21_linear_924_2511" x1="629.85" y1="1049.34" x2="1356.17" y2="1049.34" gradientUnits="userSpaceOnUse">
<stop stop-color="#0D59C5"/>
<stop offset="1" stop-color="#33E8FF"/>
</linearGradient>
<linearGradient id="paint22_linear_924_2511" x1="659.85" y1="1049.98" x2="1397.9" y2="1049.98" gradientUnits="userSpaceOnUse">
<stop stop-color="#0D59C5"/>
<stop offset="1" stop-color="#33E8FF"/>
</linearGradient>
<linearGradient id="paint23_linear_924_2511" x1="689.85" y1="1050.61" x2="1439.62" y2="1050.61" gradientUnits="userSpaceOnUse">
<stop stop-color="#0D59C5"/>
<stop offset="1" stop-color="#33E8FF"/>
</linearGradient>
<linearGradient id="paint24_linear_924_2511" x1="719.83" y1="1051.24" x2="1481.35" y2="1051.24" gradientUnits="userSpaceOnUse">
<stop stop-color="#0D59C5"/>
<stop offset="1" stop-color="#33E8FF"/>
</linearGradient>
<linearGradient id="paint25_linear_924_2511" x1="749.83" y1="1051.87" x2="1523.08" y2="1051.87" gradientUnits="userSpaceOnUse">
<stop stop-color="#0D59C5"/>
<stop offset="1" stop-color="#33E8FF"/>
</linearGradient>
<linearGradient id="paint26_linear_924_2511" x1="779.83" y1="1052.51" x2="1564.8" y2="1052.51" gradientUnits="userSpaceOnUse">
<stop stop-color="#0D59C5"/>
<stop offset="1" stop-color="#33E8FF"/>
</linearGradient>
<linearGradient id="paint27_linear_924_2511" x1="809.82" y1="1053.14" x2="1606.53" y2="1053.14" gradientUnits="userSpaceOnUse">
<stop stop-color="#0D59C5"/>
<stop offset="1" stop-color="#33E8FF"/>
</linearGradient>
<linearGradient id="paint28_linear_924_2511" x1="839.811" y1="1053.77" x2="1648.26" y2="1053.77" gradientUnits="userSpaceOnUse">
<stop stop-color="#0D59C5"/>
<stop offset="1" stop-color="#33E8FF"/>
</linearGradient>
<clipPath id="clip0_924_2511">
<rect width="1648.26" height="2106.12" fill="white"/>
</clipPath>
</defs>
</svg>
