<svg width="1630" height="1600" viewBox="0 0 1630 1600" fill="none" xmlns="http://www.w3.org/2000/svg">
<g clip-path="url(#clip0_923_2163)">
<path d="M232.34 268.28H77.45L77.4 268.19L0 134.14L0.05 134.05L77.45 0H232.35L232.4 0.09L309.79 134.14L309.74 134.23L232.35 268.28H232.34ZM77.66 267.91H232.12L309.35 134.14L232.13 0.37H77.66L0.43 134.14L77.66 267.91Z" fill="url(#paint0_linear_923_2163)"/>
<path d="M97.91 297.23L97.83 297.1L11.79 158.33L11.86 158.2L89.02 14.3097H89.17L252.36 9.17969L252.44 9.30969L338.48 148.08L338.41 148.21L261.25 292.1H261.1L97.91 297.23ZM12.4 158.31L98.19 296.69L260.93 291.58L337.87 148.09L252.08 9.70969L89.34 14.8197L12.4 158.31Z" fill="url(#paint1_linear_923_2163)"/>
<path d="M118.37 326.172L118.26 326.002L23.5801 182.532L23.6701 182.362L100.59 28.6216H100.79L272.39 18.3516L272.5 18.5116L367.18 161.992L367.09 162.172L290.17 315.912H289.97L118.37 326.182V326.172ZM24.3701 182.482L118.72 325.472L289.73 315.252L366.38 162.042L272.03 19.0516L101.02 29.2716L24.3701 182.482Z" fill="url(#paint2_linear_923_2163)"/>
<path d="M138.84 355.121L138.7 354.921L35.3701 206.731L112.15 42.9312L112.39 42.9112L292.39 27.5312L292.53 27.7312L395.86 175.931L319.08 339.731L318.84 339.751L138.84 355.131V355.121ZM36.3301 206.641L139.24 354.241L318.53 338.911L394.9 175.991L291.99 28.3912L112.71 43.7112L36.3301 206.641Z" fill="url(#paint3_linear_923_2163)"/>
<path d="M159.3 384.071L159.13 383.841L47.1602 230.931L47.2802 230.671L123.72 57.2414L124.01 57.2114L312.42 36.6914L312.59 36.9214L424.56 189.831L424.44 190.091L348 363.511L347.72 363.541L159.31 384.061L159.3 384.071ZM48.3002 230.801L159.76 383.021L347.32 362.601L423.41 189.961L311.94 37.7414L124.38 58.1714L48.3002 230.801Z" fill="url(#paint4_linear_923_2163)"/>
<path d="M179.78 413.011L179.58 412.751L58.9502 255.131L59.0802 254.831L135.27 71.5611L135.6 71.5211L332.41 45.8711L332.61 46.1311L453.23 203.751L453.1 204.051L376.91 387.321L376.58 387.361L179.77 413.011H179.78ZM60.2602 254.961L180.28 411.791L376.11 386.261L451.92 203.911L331.9 47.0811L136.07 72.6011L60.2602 254.961Z" fill="url(#paint5_linear_923_2163)"/>
<path d="M200.25 441.961L200.01 441.671L70.7402 279.341L70.8802 278.991L146.83 85.8713L352.42 55.0312L352.66 55.3213L481.93 217.651L481.79 218.001L405.84 411.121L200.25 441.961ZM72.2302 279.121L200.8 440.571L404.91 409.951L480.45 217.881L351.87 56.4313L147.76 87.0513L72.2202 279.121H72.2302Z" fill="url(#paint6_linear_923_2163)"/>
<path d="M220.73 470.909L220.46 470.589L82.54 303.549L158.39 100.189L158.81 100.119L372.43 64.1992L372.7 64.5192L510.62 231.559L434.77 434.919L434.36 434.989L220.73 470.909ZM84.19 303.269L221.31 469.339L433.69 433.629L508.95 231.839L371.83 65.7692L159.45 101.479L84.19 303.259V303.269Z" fill="url(#paint7_linear_923_2163)"/>
<path d="M241.2 499.859L94.3301 327.749L94.4801 327.309L169.94 114.499L170.4 114.419L392.43 73.3594L539.3 245.469L539.15 245.909L463.69 458.719L463.23 458.799L241.2 499.859ZM96.1601 327.419L241.82 498.109L462.48 457.309L537.47 245.809L391.81 75.1194L171.15 115.919L96.1601 327.419Z" fill="url(#paint8_linear_923_2163)"/>
<path d="M261.69 528.809L106.13 351.969L106.29 351.489L181.5 128.829L182 128.729L412.43 82.5391L567.99 259.379L567.83 259.859L492.62 482.519L261.69 528.809ZM108.12 351.569L262.33 526.889L491.26 480.999L565.98 259.789L411.77 84.4691L182.84 130.359L108.12 351.569Z" fill="url(#paint9_linear_923_2163)"/>
<path d="M282.16 557.761L281.79 557.351L117.92 376.181L193.05 143.151L193.59 143.041L432.43 91.7109L432.8 92.1209L596.67 273.291L521.54 506.321L521 506.441L282.16 557.771V557.761ZM120.08 375.721L282.84 555.661L520.05 504.681L594.51 273.761L431.75 93.8209L194.54 144.801L120.08 375.721Z" fill="url(#paint10_linear_923_2163)"/>
<path d="M302.65 586.711L302.24 586.271L129.72 400.391L129.9 399.821L204.62 157.471L452.44 100.871L452.85 101.311L625.37 287.191L625.19 287.761L550.47 530.111L549.89 530.241L302.66 586.711H302.65ZM132.05 399.871L303.35 584.431L548.84 528.361L623.03 287.721L451.72 103.161L206.23 159.231L132.04 399.871H132.05Z" fill="url(#paint11_linear_923_2163)"/>
<path d="M323.13 615.659L141.51 424.609L216.15 171.799L472.41 110.039L472.85 110.499L654.02 301.089L653.84 301.709L579.38 553.899L323.12 615.659H323.13ZM144.01 424.009L323.86 613.199L577.63 552.039L651.55 301.689L471.71 112.499L217.94 173.659L144.02 424.009H144.01Z" fill="url(#paint12_linear_923_2163)"/>
<path d="M343.62 644.619L343.14 644.129L153.31 448.839L227.71 186.139L228.37 185.969L492.41 119.219L492.89 119.709L682.72 314.999L608.32 577.699L607.66 577.869L343.62 644.619ZM155.97 448.159L344.36 641.979L606.41 575.739L680.06 315.679L491.67 121.859L229.63 188.099L155.97 448.159Z" fill="url(#paint13_linear_923_2163)"/>
<path d="M364.1 673.571L165.11 473.051L165.31 472.341L239.27 200.451L512.42 128.371L711.42 328.891L711.23 329.591L637.26 601.481L636.55 601.671L364.11 673.561L364.1 673.571ZM167.93 472.301L364.87 670.751L635.19 599.421L708.58 329.651L511.65 131.211L241.32 202.541L167.93 472.311V472.301Z" fill="url(#paint14_linear_923_2163)"/>
<path d="M384.59 702.521L384.04 701.971L176.91 497.261L250.82 214.781L532.42 137.551L532.97 138.091L740.1 342.801L666.19 625.291L665.44 625.491L384.59 702.521ZM179.89 496.451L385.37 699.521L663.98 623.111L737.11 343.631L531.63 140.561L253.03 216.971L179.9 496.461L179.89 496.451Z" fill="url(#paint15_linear_923_2163)"/>
<path d="M405.07 731.469L404.48 730.899L188.7 521.489L262.36 229.109L552.4 146.719L768.77 356.709L695.11 649.079L405.07 731.469ZM191.86 520.589L405.88 728.289L692.76 646.789L765.62 357.589L551.61 149.889L264.72 231.389L191.86 520.589Z" fill="url(#paint16_linear_923_2163)"/>
<path d="M425.56 760.419L424.94 759.819L200.5 545.699L200.7 544.859L273.91 243.429L572.39 155.879L797.46 370.599L797.25 371.439L724.04 672.869L425.56 760.419ZM203.82 544.729L426.38 757.059L721.54 670.479L794.14 371.569L571.58 159.239L276.42 245.819L203.82 544.729Z" fill="url(#paint17_linear_923_2163)"/>
<path d="M446.05 789.371L445.39 788.751L212.3 569.921L285.47 257.761L592.4 165.051L593.06 165.671L826.15 384.491L752.98 696.651L446.05 789.361V789.371ZM215.78 568.871L446.88 785.831L750.33 694.171L822.67 385.551L591.57 168.591L288.12 260.251L215.78 568.871Z" fill="url(#paint18_linear_923_2163)"/>
<path d="M466.54 818.319L224.09 594.139L297.01 272.089L297.92 271.809L612.38 174.219L854.83 398.399L854.62 399.329L781.91 720.449L781 720.729L466.54 818.319ZM227.73 593.009L467.38 814.599L779.1 717.859L851.18 399.529L611.54 177.939L299.81 274.679L227.73 593.009Z" fill="url(#paint19_linear_923_2163)"/>
<path d="M487.02 847.269L235.88 618.359L236.09 617.389L308.55 286.419L309.5 286.109L632.36 183.379L883.5 412.289L883.29 413.259L810.83 744.229L809.88 744.529L487.02 847.259V847.269ZM239.7 617.149L487.88 843.369L807.88 741.539L879.7 413.499L631.51 187.279L311.51 289.109L239.69 617.149H239.7Z" fill="url(#paint20_linear_923_2163)"/>
<path d="M507.51 876.219L247.69 642.579L247.9 641.559L320.11 300.739L652.36 192.539L653.14 193.239L912.19 426.179L911.97 427.199L839.76 768.019L838.77 768.339L507.51 876.209V876.219ZM251.65 641.289L508.38 872.139L836.67 765.229L908.23 427.469L651.5 196.619L323.21 303.529L251.65 641.289Z" fill="url(#paint21_linear_923_2163)"/>
<path d="M528.01 905.169L527.2 904.449L259.49 666.809L259.71 665.739L331.66 315.079L332.69 314.739L672.35 201.719L673.16 202.439L940.87 440.089L940.66 441.159L868.7 791.819L867.67 792.159L528.01 905.179V905.169ZM263.61 665.439L528.88 900.919L865.45 788.929L936.75 441.459L671.48 205.979L334.91 317.969L263.61 665.439Z" fill="url(#paint22_linear_923_2163)"/>
<path d="M548.49 934.128L547.64 933.388L271.28 691.038L271.5 689.928L343.2 329.418L692.33 210.898L969.54 453.998L969.32 455.108L897.62 815.618L896.55 815.978L548.49 934.138V934.128ZM275.57 689.578L549.37 929.688L894.22 812.618L965.26 455.438L691.45 215.328L346.6 332.398L275.56 689.578H275.57Z" fill="url(#paint23_linear_923_2163)"/>
<path d="M568.99 963.079L568.1 962.309L283.09 715.249L283.31 714.089L354.76 343.729L712.34 220.039L998.24 467.869L926.57 839.379L925.46 839.759L569 963.059L568.99 963.079ZM287.53 713.719L569.88 958.459L923.01 836.309L993.79 469.419L711.44 224.679L358.31 346.829L287.53 713.719Z" fill="url(#paint24_linear_923_2163)"/>
<path d="M589.48 992.031L588.55 991.24L294.88 739.48L295.11 738.281L366.3 358.07L367.45 357.67L732.32 229.23L1026.91 481.78L1026.69 482.98L955.49 863.18L954.34 863.591L589.47 992.031H589.48ZM299.49 737.85L590.38 987.22L951.79 859.99L1022.31 483.39L731.43 234.01L370.02 361.24L299.5 737.85H299.49Z" fill="url(#paint25_linear_923_2163)"/>
<path d="M609.97 1020.98L609.01 1020.16L306.69 763.701L377.86 372.411L379.05 371.981L752.31 238.391L753.27 239.211L1055.59 495.681L984.42 886.971L983.23 887.401L609.97 1020.99V1020.98ZM311.45 761.991L610.88 1016L980.57 883.691L1050.84 497.371L751.41 243.361L381.72 375.671L311.45 761.991Z" fill="url(#paint26_linear_923_2163)"/>
<path d="M630.46 1049.93L318.48 787.921L318.71 786.631L389.4 386.731L390.63 386.281L772.3 247.551L1084.28 509.561L1084.05 510.851L1013.36 910.751L1012.13 911.201L630.46 1049.93ZM323.4 786.131L631.37 1044.77L1009.34 907.381L1079.35 511.351L771.38 252.711L393.41 390.091L323.4 786.121V786.131Z" fill="url(#paint27_linear_923_2163)"/>
<path d="M650.95 1078.88L649.91 1078.01L330.28 812.139L400.95 401.059L792.29 256.719L793.33 257.579L1112.96 523.449L1112.73 524.779L1042.29 934.529L1041.02 934.999L650.95 1078.87V1078.88ZM335.36 810.269L651.87 1073.54L1038.13 931.079L1107.88 525.339L791.37 262.069L405.11 404.529L335.36 810.269Z" fill="url(#paint28_linear_923_2163)"/>
<path d="M671.45 1107.83L342.09 836.361L342.32 834.981L412.5 415.391L812.28 265.891L1141.64 537.361L1071.22 958.331L1069.91 958.821L671.44 1107.83H671.45ZM347.32 834.411L672.37 1102.32L1066.91 954.771L1136.41 539.321L811.36 271.411L416.82 418.951L347.33 834.401L347.32 834.411Z" fill="url(#paint29_linear_923_2163)"/>
<path d="M691.94 1136.78L690.82 1135.87L353.88 860.589L354.11 859.169L424.04 429.729L832.26 275.059L1170.31 551.249L1170.08 552.669L1100.15 982.109L1098.8 982.619L691.93 1136.78H691.94ZM359.28 858.549L692.87 1131.09L1095.69 978.469L1164.93 553.299L831.35 280.759L428.52 433.379L359.29 858.549H359.28Z" fill="url(#paint30_linear_923_2163)"/>
<path d="M712.43 1165.74L711.28 1164.8L365.69 884.818L365.92 883.348L435.6 444.068L852.25 284.238L1199 565.158L1198.77 566.628L1129.09 1005.91L1127.7 1006.44L712.43 1165.74ZM371.24 882.678L713.36 1159.85L1124.46 1002.15L1193.44 567.268L851.32 290.088L440.21 447.798L371.23 882.668L371.24 882.678Z" fill="url(#paint31_linear_923_2163)"/>
<path d="M732.92 1194.69L731.73 1193.73L377.48 909.04L377.71 907.53L447.13 458.4L448.56 457.85L872.23 293.41L873.42 294.37L1227.67 579.06L1158.01 1029.71L1156.59 1030.26L732.92 1194.7V1194.69ZM383.19 906.82L733.86 1188.63L1153.24 1025.85L1221.96 581.26L871.3 299.45L451.91 462.23L383.19 906.82Z" fill="url(#paint32_linear_923_2163)"/>
<path d="M753.41 1223.64L752.18 1222.65L389.28 933.261L458.69 472.721L460.16 472.141L892.23 302.551L893.46 303.531L1256.37 592.921L1256.13 594.481L1186.96 1053.46L1185.49 1054.04L753.41 1223.63V1223.64ZM395.15 930.961L754.36 1217.4L1182.02 1049.54L1250.49 595.241L891.29 308.801L463.62 476.661L395.16 930.961H395.15Z" fill="url(#paint33_linear_923_2163)"/>
<path d="M773.91 1252.59L401.08 957.49L401.31 955.891L470.23 487.06L471.74 486.46L912.21 311.73L913.48 312.74L1285.04 606.84L1284.8 608.44L1215.88 1077.27L1214.37 1077.87L773.9 1252.6L773.91 1252.59ZM407.11 955.1L774.85 1246.18L1210.8 1073.24L1279.01 609.23L911.27 318.15L475.32 491.09L407.11 955.1Z" fill="url(#paint34_linear_923_2163)"/>
<path d="M794.4 1281.54L793.09 1280.51L412.88 981.708L413.12 980.058L481.78 501.388L932.2 320.898L1313.72 620.728L1313.48 622.378L1244.81 1101.05L1243.26 1101.67L794.39 1281.55L794.4 1281.54ZM419.07 979.228L795.35 1274.94L1239.58 1096.93L1307.53 623.198L931.25 327.488L487.01 505.498L419.06 979.228H419.07Z" fill="url(#paint35_linear_923_2163)"/>
<path d="M814.9 1310.49L424.69 1005.94L424.93 1004.25L493.34 515.73L952.2 330.07L953.55 331.12L1342.42 634.62L1342.18 636.31L1273.77 1124.83L1272.18 1125.47L814.91 1310.49H814.9ZM431.02 1003.37L815.84 1303.71L1268.36 1120.62L1336.06 637.19L951.24 336.84L498.72 519.93L431.02 1003.37Z" fill="url(#paint36_linear_923_2163)"/>
<path d="M835.39 1339.44L834 1338.36L436.48 1030.16L436.72 1028.42L504.87 530.05L506.49 529.39L972.17 339.23L973.56 340.3L1371.08 648.5L1370.84 650.24L1302.69 1148.61L1301.07 1149.27L835.4 1339.43L835.39 1339.44ZM442.98 1027.51L836.34 1332.49L1297.14 1144.32L1364.58 651.17L971.22 346.19L510.42 534.36L442.98 1027.51Z" fill="url(#paint37_linear_923_2163)"/>
<path d="M855.89 1368.39L448.29 1054.38L516.43 544.388L992.17 348.398L1399.77 662.398L1399.53 664.178L1331.63 1172.39L855.89 1368.38V1368.39ZM454.94 1051.65L856.84 1361.26L1325.93 1168.01L1393.11 665.148L991.21 355.538L522.12 548.778L454.94 1051.64V1051.65Z" fill="url(#paint38_linear_923_2163)"/>
<path d="M876.38 1397.34L874.92 1396.22L460.09 1078.61L460.33 1076.78L527.98 558.72L1012.15 357.57L1013.61 358.69L1428.44 676.3L1428.2 678.13L1360.55 1196.19L876.38 1397.35V1397.34ZM466.89 1075.78L877.33 1390.03L1354.7 1191.71L1421.63 679.13L1011.2 364.88L533.83 563.21L466.9 1075.78H466.89Z" fill="url(#paint39_linear_923_2163)"/>
<path d="M896.87 1426.3L895.37 1425.16L471.88 1102.84L472.12 1100.97L539.51 573.058L541.25 572.328L1032.13 366.738L1457.11 690.198L1389.48 1219.98L896.86 1426.3H896.87ZM478.85 1099.92L897.83 1418.8L1383.48 1215.4L1450.15 693.108L1031.17 374.228L545.52 577.628L478.85 1099.91V1099.92Z" fill="url(#paint40_linear_923_2163)"/>
<path d="M917.37 1455.25L915.83 1454.08L483.69 1127.06L483.93 1125.14L551.07 587.388L1052.12 375.898L1053.66 377.068L1485.8 704.088L1485.56 706.008L1418.42 1243.76L1416.64 1244.51L917.36 1455.25H917.37ZM490.81 1124.06L918.33 1447.58L1412.27 1239.1L1478.69 707.098L1051.17 383.578L557.24 592.058L490.82 1124.06H490.81Z" fill="url(#paint41_linear_923_2163)"/>
<path d="M937.86 1484.2L495.49 1151.29L495.73 1149.33L562.61 601.728L1072.11 385.078L1514.48 717.988L1514.24 719.948L1447.36 1267.55L1445.53 1268.32L937.86 1484.2ZM502.77 1148.19L938.82 1476.34L1441.04 1262.78L1507.21 721.068L1071.16 392.908L568.94 606.468L502.77 1148.18V1148.19Z" fill="url(#paint42_linear_923_2163)"/>
<path d="M958.36 1513.15L956.74 1511.94L507.29 1175.52L507.53 1173.51L574.16 616.07L1092.09 394.25L1093.71 395.46L1543.16 731.88L1542.92 733.88L1476.29 1291.33L1474.43 1292.13L958.35 1513.15H958.36ZM514.72 1172.33L959.31 1505.12L1469.81 1286.49L1535.72 735.06L1091.13 402.27L580.63 620.9L514.72 1172.32V1172.33Z" fill="url(#paint43_linear_923_2163)"/>
<path d="M978.85 1542.1L519.09 1199.74L519.33 1197.69L585.7 630.402L587.6 629.582L1112.08 403.422L1571.84 745.782L1571.6 747.842L1505.23 1315.13L978.86 1542.11L978.85 1542.1ZM526.68 1196.47L979.81 1533.89L1498.6 1310.18L1564.25 749.052L1111.12 411.632L592.34 635.342L526.69 1196.48L526.68 1196.47Z" fill="url(#paint44_linear_923_2163)"/>
<path d="M999.35 1571.05L997.65 1569.79L530.89 1223.96L597.25 644.72L1132.06 412.57L1133.76 413.82L1600.52 759.65L1600.28 761.75L1534.16 1338.89L1532.22 1339.73L999.34 1571.04L999.35 1571.05ZM538.64 1220.6L1000.31 1562.66L1527.38 1333.87L1592.78 763.02L1131.11 420.96L604.04 649.75L538.64 1220.6Z" fill="url(#paint45_linear_923_2163)"/>
<path d="M1019.84 1600L1018.11 1598.72L544.43 1249.47L542.7 1248.19L542.94 1246.05L608.8 659.058L1152.05 421.738L1153.78 423.018L1627.46 772.268L1629.19 773.548L1628.95 775.688L1563.08 1362.68L1019.83 1600H1019.84ZM550.59 1244.74L1020.8 1591.43L1556.15 1357.57L1621.29 777.008L1151.08 430.318L615.73 664.178L550.59 1244.74Z" fill="url(#paint46_linear_923_2163)"/>
</g>
<defs>
<linearGradient id="paint0_linear_923_2163" x1="232.34" y1="-7.71259e-06" x2="77.45" y2="268.28" gradientUnits="userSpaceOnUse">
<stop stop-color="#2DBA95"/>
<stop offset="0.33" stop-color="#4AC27D"/>
<stop offset="0.69" stop-color="#70CD5E"/>
<stop offset="1" stop-color="#A9DD2F"/>
</linearGradient>
<linearGradient id="paint1_linear_923_2163" x1="256.81" y1="11.7397" x2="93.46" y2="294.66" gradientUnits="userSpaceOnUse">
<stop stop-color="#2DBA95"/>
<stop offset="0.33" stop-color="#4AC27D"/>
<stop offset="0.69" stop-color="#70CD5E"/>
<stop offset="1" stop-color="#A9DD2F"/>
</linearGradient>
<linearGradient id="paint2_linear_923_2163" x1="281.27" y1="23.4816" x2="109.48" y2="321.042" gradientUnits="userSpaceOnUse">
<stop stop-color="#2DBA95"/>
<stop offset="0.33" stop-color="#4AC27D"/>
<stop offset="0.69" stop-color="#70CD5E"/>
<stop offset="1" stop-color="#A9DD2F"/>
</linearGradient>
<linearGradient id="paint3_linear_923_2163" x1="305.74" y1="35.2312" x2="125.49" y2="347.421" gradientUnits="userSpaceOnUse">
<stop stop-color="#2DBA95"/>
<stop offset="0.33" stop-color="#4AC27D"/>
<stop offset="0.69" stop-color="#70CD5E"/>
<stop offset="1" stop-color="#A9DD2F"/>
</linearGradient>
<linearGradient id="paint4_linear_923_2163" x1="330.2" y1="46.9714" x2="141.51" y2="373.791" gradientUnits="userSpaceOnUse">
<stop stop-color="#2DBA95"/>
<stop offset="0.33" stop-color="#4AC27D"/>
<stop offset="0.69" stop-color="#70CD5E"/>
<stop offset="1" stop-color="#A9DD2F"/>
</linearGradient>
<linearGradient id="paint5_linear_923_2163" x1="354.67" y1="58.7111" x2="157.53" y2="400.171" gradientUnits="userSpaceOnUse">
<stop stop-color="#2DBA95"/>
<stop offset="0.33" stop-color="#4AC27D"/>
<stop offset="0.69" stop-color="#70CD5E"/>
<stop offset="1" stop-color="#A9DD2F"/>
</linearGradient>
<linearGradient id="paint6_linear_923_2163" x1="379.13" y1="70.4512" x2="173.54" y2="426.541" gradientUnits="userSpaceOnUse">
<stop stop-color="#2DBA95"/>
<stop offset="0.33" stop-color="#4AC27D"/>
<stop offset="0.69" stop-color="#70CD5E"/>
<stop offset="1" stop-color="#A9DD2F"/>
</linearGradient>
<linearGradient id="paint7_linear_923_2163" x1="403.59" y1="82.1992" x2="189.56" y2="452.919" gradientUnits="userSpaceOnUse">
<stop stop-color="#2DBA95"/>
<stop offset="0.33" stop-color="#4AC27D"/>
<stop offset="0.69" stop-color="#70CD5E"/>
<stop offset="1" stop-color="#A9DD2F"/>
</linearGradient>
<linearGradient id="paint8_linear_923_2163" x1="428.06" y1="93.9394" x2="205.57" y2="479.289" gradientUnits="userSpaceOnUse">
<stop stop-color="#2DBA95"/>
<stop offset="0.33" stop-color="#4AC27D"/>
<stop offset="0.69" stop-color="#70CD5E"/>
<stop offset="1" stop-color="#A9DD2F"/>
</linearGradient>
<linearGradient id="paint9_linear_923_2163" x1="452.52" y1="105.689" x2="221.59" y2="505.659" gradientUnits="userSpaceOnUse">
<stop stop-color="#2DBA95"/>
<stop offset="0.33" stop-color="#4AC27D"/>
<stop offset="0.69" stop-color="#70CD5E"/>
<stop offset="1" stop-color="#A9DD2F"/>
</linearGradient>
<linearGradient id="paint10_linear_923_2163" x1="476.98" y1="117.431" x2="237.61" y2="532.041" gradientUnits="userSpaceOnUse">
<stop stop-color="#2DBA95"/>
<stop offset="0.33" stop-color="#4AC27D"/>
<stop offset="0.69" stop-color="#70CD5E"/>
<stop offset="1" stop-color="#A9DD2F"/>
</linearGradient>
<linearGradient id="paint11_linear_923_2163" x1="501.45" y1="129.181" x2="253.63" y2="558.411" gradientUnits="userSpaceOnUse">
<stop stop-color="#2DBA95"/>
<stop offset="0.33" stop-color="#4AC27D"/>
<stop offset="0.69" stop-color="#70CD5E"/>
<stop offset="1" stop-color="#A9DD2F"/>
</linearGradient>
<linearGradient id="paint12_linear_923_2163" x1="525.91" y1="140.929" x2="269.65" y2="584.789" gradientUnits="userSpaceOnUse">
<stop stop-color="#2DBA95"/>
<stop offset="0.33" stop-color="#4AC27D"/>
<stop offset="0.69" stop-color="#70CD5E"/>
<stop offset="1" stop-color="#A9DD2F"/>
</linearGradient>
<linearGradient id="paint13_linear_923_2163" x1="550.37" y1="152.669" x2="285.66" y2="611.159" gradientUnits="userSpaceOnUse">
<stop stop-color="#2DBA95"/>
<stop offset="0.33" stop-color="#4AC27D"/>
<stop offset="0.69" stop-color="#70CD5E"/>
<stop offset="1" stop-color="#A9DD2F"/>
</linearGradient>
<linearGradient id="paint14_linear_923_2163" x1="574.83" y1="164.421" x2="301.68" y2="637.531" gradientUnits="userSpaceOnUse">
<stop stop-color="#2DBA95"/>
<stop offset="0.33" stop-color="#4AC27D"/>
<stop offset="0.69" stop-color="#70CD5E"/>
<stop offset="1" stop-color="#A9DD2F"/>
</linearGradient>
<linearGradient id="paint15_linear_923_2163" x1="599.3" y1="176.171" x2="317.7" y2="663.901" gradientUnits="userSpaceOnUse">
<stop stop-color="#2DBA95"/>
<stop offset="0.33" stop-color="#4AC27D"/>
<stop offset="0.69" stop-color="#70CD5E"/>
<stop offset="1" stop-color="#A9DD2F"/>
</linearGradient>
<linearGradient id="paint16_linear_923_2163" x1="623.76" y1="187.909" x2="333.72" y2="690.269" gradientUnits="userSpaceOnUse">
<stop stop-color="#2DBA95"/>
<stop offset="0.33" stop-color="#4AC27D"/>
<stop offset="0.69" stop-color="#70CD5E"/>
<stop offset="1" stop-color="#A9DD2F"/>
</linearGradient>
<linearGradient id="paint17_linear_923_2163" x1="648.22" y1="199.659" x2="349.74" y2="716.639" gradientUnits="userSpaceOnUse">
<stop stop-color="#2DBA95"/>
<stop offset="0.33" stop-color="#4AC27D"/>
<stop offset="0.69" stop-color="#70CD5E"/>
<stop offset="1" stop-color="#A9DD2F"/>
</linearGradient>
<linearGradient id="paint18_linear_923_2163" x1="672.68" y1="211.411" x2="365.76" y2="743.021" gradientUnits="userSpaceOnUse">
<stop stop-color="#2DBA95"/>
<stop offset="0.33" stop-color="#4AC27D"/>
<stop offset="0.69" stop-color="#70CD5E"/>
<stop offset="1" stop-color="#A9DD2F"/>
</linearGradient>
<linearGradient id="paint19_linear_923_2163" x1="697.14" y1="223.159" x2="381.78" y2="769.379" gradientUnits="userSpaceOnUse">
<stop stop-color="#2DBA95"/>
<stop offset="0.33" stop-color="#4AC27D"/>
<stop offset="0.69" stop-color="#70CD5E"/>
<stop offset="1" stop-color="#A9DD2F"/>
</linearGradient>
<linearGradient id="paint20_linear_923_2163" x1="721.6" y1="234.899" x2="397.79" y2="795.759" gradientUnits="userSpaceOnUse">
<stop stop-color="#2DBA95"/>
<stop offset="0.33" stop-color="#4AC27D"/>
<stop offset="0.69" stop-color="#70CD5E"/>
<stop offset="1" stop-color="#A9DD2F"/>
</linearGradient>
<linearGradient id="paint21_linear_923_2163" x1="746.06" y1="246.649" x2="413.81" y2="822.129" gradientUnits="userSpaceOnUse">
<stop stop-color="#2DBA95"/>
<stop offset="0.33" stop-color="#4AC27D"/>
<stop offset="0.69" stop-color="#70CD5E"/>
<stop offset="1" stop-color="#A9DD2F"/>
</linearGradient>
<linearGradient id="paint22_linear_923_2163" x1="770.53" y1="258.399" x2="429.83" y2="848.489" gradientUnits="userSpaceOnUse">
<stop stop-color="#2DBA95"/>
<stop offset="0.33" stop-color="#4AC27D"/>
<stop offset="0.69" stop-color="#70CD5E"/>
<stop offset="1" stop-color="#A9DD2F"/>
</linearGradient>
<linearGradient id="paint23_linear_923_2163" x1="794.99" y1="270.148" x2="445.85" y2="874.868" gradientUnits="userSpaceOnUse">
<stop stop-color="#2DBA95"/>
<stop offset="0.33" stop-color="#4AC27D"/>
<stop offset="0.69" stop-color="#70CD5E"/>
<stop offset="1" stop-color="#A9DD2F"/>
</linearGradient>
<linearGradient id="paint24_linear_923_2163" x1="819.45" y1="281.899" x2="461.87" y2="901.239" gradientUnits="userSpaceOnUse">
<stop stop-color="#2DBA95"/>
<stop offset="0.33" stop-color="#4AC27D"/>
<stop offset="0.69" stop-color="#70CD5E"/>
<stop offset="1" stop-color="#A9DD2F"/>
</linearGradient>
<linearGradient id="paint25_linear_923_2163" x1="843.91" y1="293.65" x2="477.89" y2="927.601" gradientUnits="userSpaceOnUse">
<stop stop-color="#2DBA95"/>
<stop offset="0.33" stop-color="#4AC27D"/>
<stop offset="0.69" stop-color="#70CD5E"/>
<stop offset="1" stop-color="#A9DD2F"/>
</linearGradient>
<linearGradient id="paint26_linear_923_2163" x1="868.37" y1="305.401" x2="493.91" y2="953.971" gradientUnits="userSpaceOnUse">
<stop stop-color="#2DBA95"/>
<stop offset="0.33" stop-color="#4AC27D"/>
<stop offset="0.69" stop-color="#70CD5E"/>
<stop offset="1" stop-color="#A9DD2F"/>
</linearGradient>
<linearGradient id="paint27_linear_923_2163" x1="892.83" y1="317.151" x2="509.93" y2="980.341" gradientUnits="userSpaceOnUse">
<stop stop-color="#2DBA95"/>
<stop offset="0.33" stop-color="#4AC27D"/>
<stop offset="0.69" stop-color="#70CD5E"/>
<stop offset="1" stop-color="#A9DD2F"/>
</linearGradient>
<linearGradient id="paint28_linear_923_2163" x1="917.29" y1="328.899" x2="525.95" y2="1006.71" gradientUnits="userSpaceOnUse">
<stop stop-color="#2DBA95"/>
<stop offset="0.33" stop-color="#4AC27D"/>
<stop offset="0.69" stop-color="#70CD5E"/>
<stop offset="1" stop-color="#A9DD2F"/>
</linearGradient>
<linearGradient id="paint29_linear_923_2163" x1="941.75" y1="340.641" x2="541.97" y2="1033.08" gradientUnits="userSpaceOnUse">
<stop stop-color="#2DBA95"/>
<stop offset="0.33" stop-color="#4AC27D"/>
<stop offset="0.69" stop-color="#70CD5E"/>
<stop offset="1" stop-color="#A9DD2F"/>
</linearGradient>
<linearGradient id="paint30_linear_923_2163" x1="966.21" y1="352.389" x2="557.99" y2="1059.45" gradientUnits="userSpaceOnUse">
<stop stop-color="#2DBA95"/>
<stop offset="0.33" stop-color="#4AC27D"/>
<stop offset="0.69" stop-color="#70CD5E"/>
<stop offset="1" stop-color="#A9DD2F"/>
</linearGradient>
<linearGradient id="paint31_linear_923_2163" x1="990.67" y1="364.148" x2="574.01" y2="1085.82" gradientUnits="userSpaceOnUse">
<stop stop-color="#2DBA95"/>
<stop offset="0.33" stop-color="#4AC27D"/>
<stop offset="0.69" stop-color="#70CD5E"/>
<stop offset="1" stop-color="#A9DD2F"/>
</linearGradient>
<linearGradient id="paint32_linear_923_2163" x1="1015.13" y1="375.9" x2="590.031" y2="1112.19" gradientUnits="userSpaceOnUse">
<stop stop-color="#2DBA95"/>
<stop offset="0.33" stop-color="#4AC27D"/>
<stop offset="0.69" stop-color="#70CD5E"/>
<stop offset="1" stop-color="#A9DD2F"/>
</linearGradient>
<linearGradient id="paint33_linear_923_2163" x1="1039.59" y1="387.641" x2="606.05" y2="1138.56" gradientUnits="userSpaceOnUse">
<stop stop-color="#2DBA95"/>
<stop offset="0.33" stop-color="#4AC27D"/>
<stop offset="0.69" stop-color="#70CD5E"/>
<stop offset="1" stop-color="#A9DD2F"/>
</linearGradient>
<linearGradient id="paint34_linear_923_2163" x1="1064.05" y1="399.391" x2="622.07" y2="1164.92" gradientUnits="userSpaceOnUse">
<stop stop-color="#2DBA95"/>
<stop offset="0.33" stop-color="#4AC27D"/>
<stop offset="0.69" stop-color="#70CD5E"/>
<stop offset="1" stop-color="#A9DD2F"/>
</linearGradient>
<linearGradient id="paint35_linear_923_2163" x1="1088.51" y1="411.148" x2="638.09" y2="1191.29" gradientUnits="userSpaceOnUse">
<stop stop-color="#2DBA95"/>
<stop offset="0.33" stop-color="#4AC27D"/>
<stop offset="0.69" stop-color="#70CD5E"/>
<stop offset="1" stop-color="#A9DD2F"/>
</linearGradient>
<linearGradient id="paint36_linear_923_2163" x1="1112.97" y1="422.9" x2="654.111" y2="1217.66" gradientUnits="userSpaceOnUse">
<stop stop-color="#2DBA95"/>
<stop offset="0.33" stop-color="#4AC27D"/>
<stop offset="0.69" stop-color="#70CD5E"/>
<stop offset="1" stop-color="#A9DD2F"/>
</linearGradient>
<linearGradient id="paint37_linear_923_2163" x1="1137.43" y1="434.65" x2="670.131" y2="1244.03" gradientUnits="userSpaceOnUse">
<stop stop-color="#2DBA95"/>
<stop offset="0.33" stop-color="#4AC27D"/>
<stop offset="0.69" stop-color="#70CD5E"/>
<stop offset="1" stop-color="#A9DD2F"/>
</linearGradient>
<linearGradient id="paint38_linear_923_2163" x1="1161.89" y1="446.398" x2="686.15" y2="1270.4" gradientUnits="userSpaceOnUse">
<stop stop-color="#2DBA95"/>
<stop offset="0.33" stop-color="#4AC27D"/>
<stop offset="0.69" stop-color="#70CD5E"/>
<stop offset="1" stop-color="#A9DD2F"/>
</linearGradient>
<linearGradient id="paint39_linear_923_2163" x1="1186.35" y1="458.15" x2="702.17" y2="1296.77" gradientUnits="userSpaceOnUse">
<stop stop-color="#2DBA95"/>
<stop offset="0.33" stop-color="#4AC27D"/>
<stop offset="0.69" stop-color="#70CD5E"/>
<stop offset="1" stop-color="#A9DD2F"/>
</linearGradient>
<linearGradient id="paint40_linear_923_2163" x1="1210.81" y1="469.898" x2="718.19" y2="1323.14" gradientUnits="userSpaceOnUse">
<stop stop-color="#2DBA95"/>
<stop offset="0.33" stop-color="#4AC27D"/>
<stop offset="0.69" stop-color="#70CD5E"/>
<stop offset="1" stop-color="#A9DD2F"/>
</linearGradient>
<linearGradient id="paint41_linear_923_2163" x1="1235.27" y1="481.648" x2="734.22" y2="1349.5" gradientUnits="userSpaceOnUse">
<stop stop-color="#2DBA95"/>
<stop offset="0.33" stop-color="#4AC27D"/>
<stop offset="0.69" stop-color="#70CD5E"/>
<stop offset="1" stop-color="#A9DD2F"/>
</linearGradient>
<linearGradient id="paint42_linear_923_2163" x1="1259.73" y1="493.398" x2="750.24" y2="1375.87" gradientUnits="userSpaceOnUse">
<stop stop-color="#2DBA95"/>
<stop offset="0.33" stop-color="#4AC27D"/>
<stop offset="0.69" stop-color="#70CD5E"/>
<stop offset="1" stop-color="#A9DD2F"/>
</linearGradient>
<linearGradient id="paint43_linear_923_2163" x1="1284.19" y1="505.15" x2="766.26" y2="1402.24" gradientUnits="userSpaceOnUse">
<stop stop-color="#2DBA95"/>
<stop offset="0.33" stop-color="#4AC27D"/>
<stop offset="0.69" stop-color="#70CD5E"/>
<stop offset="1" stop-color="#A9DD2F"/>
</linearGradient>
<linearGradient id="paint44_linear_923_2163" x1="1308.65" y1="516.902" x2="782.28" y2="1428.61" gradientUnits="userSpaceOnUse">
<stop stop-color="#2DBA95"/>
<stop offset="0.33" stop-color="#4AC27D"/>
<stop offset="0.69" stop-color="#70CD5E"/>
<stop offset="1" stop-color="#A9DD2F"/>
</linearGradient>
<linearGradient id="paint45_linear_923_2163" x1="1333.11" y1="528.65" x2="798.3" y2="1454.97" gradientUnits="userSpaceOnUse">
<stop stop-color="#2DBA95"/>
<stop offset="0.33" stop-color="#4AC27D"/>
<stop offset="0.69" stop-color="#70CD5E"/>
<stop offset="1" stop-color="#A9DD2F"/>
</linearGradient>
<linearGradient id="paint46_linear_923_2163" x1="1357.57" y1="540.398" x2="814.32" y2="1481.34" gradientUnits="userSpaceOnUse">
<stop stop-color="#2DBA95"/>
<stop offset="0.33" stop-color="#4AC27D"/>
<stop offset="0.69" stop-color="#70CD5E"/>
<stop offset="1" stop-color="#A9DD2F"/>
</linearGradient>
<clipPath id="clip0_923_2163">
<rect width="1629.2" height="1600" fill="white"/>
</clipPath>
</defs>
</svg>
