<svg width="245" height="52" viewBox="0 0 245 52" fill="none" xmlns="http://www.w3.org/2000/svg">
<path d="M184.784 33.7467C185.837 35.0978 186.363 36.6432 186.363 38.3783C186.363 40.8813 185.486 42.8676 183.736 44.3325C181.985 45.7973 179.543 46.5274 176.412 46.5274H162.453V16.5762H175.943C178.988 16.5762 181.369 17.273 183.095 18.6668C184.817 20.0605 185.676 21.952 185.676 24.3413C185.676 26.1048 185.211 27.5697 184.291 28.7359C183.366 29.902 182.132 30.7127 180.596 31.1678C182.332 31.5376 183.726 32.4003 184.779 33.7467H184.784ZM169.758 28.6932H174.539C175.734 28.6932 176.654 28.4325 177.294 27.9015C177.935 27.3753 178.253 26.6026 178.253 25.5786C178.253 24.5546 177.935 23.7724 177.294 23.232C176.654 22.6916 175.734 22.4214 174.539 22.4214H169.758V28.6932ZM177.973 39.8099C178.641 39.2553 178.978 38.4541 178.978 37.4017C178.978 36.3493 178.627 35.5244 177.93 34.9271C177.233 34.3298 176.27 34.0311 175.046 34.0311H169.753V40.6443H175.132C176.355 40.6443 177.299 40.3693 177.968 39.8147L177.973 39.8099Z" fill="white"/>
<path d="M235.254 46.5274L229.149 37.3543L223.77 46.5274H215.489L225.094 31.2958L215.275 16.5762H223.77L229.789 25.6213L235.083 16.5762H243.364L233.845 31.6798L243.749 46.5274H235.254Z" fill="white"/>
<path d="M205.548 44.8819C198.321 44.8819 192.462 39.0505 192.462 31.8566C192.462 24.6627 198.321 18.8313 205.548 18.8313C209.193 18.8313 212.488 20.3155 214.861 22.71C212.128 18.9929 207.713 16.5762 202.729 16.5762C194.427 16.5762 187.697 23.2734 187.697 31.5363C187.697 39.7993 194.427 46.4965 202.727 46.4965C206.472 46.4965 209.895 45.1295 212.528 42.8729C210.507 44.145 208.115 44.8834 205.548 44.8834" fill="white"/>
<path d="M210.046 20.9258C213.192 22.7598 215.308 26.1581 215.308 30.0487C215.308 35.8845 210.554 40.6142 204.693 40.6157C199.238 40.6157 194.747 36.5205 194.148 31.2511C194.138 31.4587 194.13 31.6663 194.13 31.8753C194.13 38.3398 199.396 43.5795 205.889 43.5795C212.382 43.5795 217.648 38.3383 217.648 31.8753C217.648 26.8683 214.488 22.5982 210.046 20.9258Z" fill="white"/>
<path d="M204.378 21.7344C200.432 21.7344 197.1 24.3468 196.029 27.929C197.225 25.272 199.905 23.4217 203.02 23.4217C207.25 23.4217 210.679 26.8348 210.679 31.0456C210.679 35.2564 207.25 38.6695 203.02 38.6695C202.329 38.6695 201.658 38.5761 201.021 38.4056C202.053 38.8355 203.188 39.0728 204.378 39.0742C209.19 39.0742 213.088 35.1911 213.088 30.4036C213.088 25.6145 209.188 21.7344 204.378 21.7344Z" fill="white"/>
<g clip-path="url(#clip0_737_7754)">
<path d="M97.8502 16.7871L90.0424 46.7383H81.2106L76.4321 27.0268L71.4829 46.7383H62.6511L55.0566 16.7871H62.8644L67.1736 38.5892L72.5068 16.7871H80.528L85.6478 38.5892L89.9997 16.7871H97.8502Z" fill="white"/>
<path d="M108.815 16.7871V46.7383H101.52V16.7871H108.815Z" fill="white"/>
<path d="M129.38 46.7383L123.151 35.4319H121.402V46.7383H114.106V16.7871H126.351C128.712 16.7871 130.722 17.1995 132.386 18.0244C134.05 18.8493 135.292 19.9823 136.121 21.4187C136.946 22.8551 137.359 24.4574 137.359 26.2162C137.359 28.2072 136.795 29.985 135.676 31.5494C134.552 33.1138 132.893 34.2231 130.703 34.8773L137.615 46.7383H129.38ZM121.402 30.2694H125.924C127.261 30.2694 128.261 29.9423 128.935 29.2881C129.603 28.6339 129.94 27.7095 129.94 26.5148C129.94 25.3202 129.603 24.4811 128.935 23.8269C128.266 23.1727 127.261 22.8456 125.924 22.8456H121.402V30.2694Z" fill="white"/>
<path d="M149.22 22.6323V28.6908H158.99V34.3226H149.22V40.8931H160.27V46.7383H141.924V16.7871H160.27V22.6323H149.22Z" fill="white"/>
</g>
<path d="M25.0264 50.5752L3.27588 38.0752V13.0762L25.0264 0.576172L46.7759 13.0762V38.0762L25.0264 50.5762V50.5752ZM3.67571 37.8469L25.0264 50.1177L46.378 37.8469V13.3054L25.0264 1.03465L3.67571 13.3054V37.8469Z" fill="url(#paint0_linear_737_7754)"/>
<path d="M25.1577 0.782002H24.8921V50.3216H25.1577V0.782002Z" fill="url(#paint1_linear_737_7754)"/>
<path d="M14.3149 6.87546L14.1821 7.10438L46.5246 25.6995L46.6574 25.4706L14.3149 6.87546Z" fill="url(#paint2_linear_737_7754)"/>
<path d="M35.7721 6.89993L3.39248 25.4564L3.52499 25.6855L35.9046 7.12904L35.7721 6.89993Z" fill="url(#paint3_linear_737_7754)"/>
<path d="M3.53995 13.0735L3.40716 13.3025L46.5015 38.0693L46.6343 37.8404L3.53995 13.0735Z" fill="url(#paint4_linear_737_7754)"/>
<path d="M3.54239 25.4628L3.40965 25.6918L35.7366 44.263L35.8694 44.0341L3.54239 25.4628Z" fill="url(#paint5_linear_737_7754)"/>
<path d="M46.5219 25.4694L14.2229 44.0246L14.3556 44.2535L46.6546 25.6984L46.5219 25.4694Z" fill="url(#paint6_linear_737_7754)"/>
<path d="M46.5132 13.0768L3.43247 37.8358L3.56525 38.0648L46.646 13.3057L46.5132 13.0768Z" fill="url(#paint7_linear_737_7754)"/>
<path d="M14.4221 6.99299H14.1565V44.134H14.4221V6.99299Z" fill="url(#paint8_linear_737_7754)"/>
<path d="M35.9707 7.01249H35.7051V44.1086H35.9707V7.01249Z" fill="url(#paint9_linear_737_7754)"/>
<path d="M24.3031 13.1923C24.3031 12.7933 24.6275 12.4704 25.0283 12.4704C25.4291 12.4704 25.7535 12.7943 25.7535 13.1923C25.7535 13.5903 25.4291 13.9141 25.0283 13.9141C24.6275 13.9141 24.3031 13.5912 24.3031 13.1923Z" fill="#33CFFF"/>
<path d="M35.1495 19.414C35.1495 19.015 35.4739 18.6921 35.8747 18.6921C36.2755 18.6921 36.5998 19.015 36.5998 19.414C36.5998 19.813 36.2755 20.1358 35.8747 20.1358C35.4739 20.1358 35.1495 19.812 35.1495 19.414Z" fill="#33CFFF"/>
<path d="M13.5999 19.3428C13.5999 18.9438 13.9243 18.6209 14.3251 18.6209C14.7259 18.6209 15.0503 18.9438 15.0503 19.3428C15.0503 19.7417 14.7259 20.0646 14.3251 20.0646C13.9243 20.0646 13.5999 19.7408 13.5999 19.3428Z" fill="#33CFFF"/>
<path d="M35.1495 31.752C35.1495 31.3531 35.4739 31.0302 35.8747 31.0302C36.2755 31.0302 36.5998 31.354 36.5998 31.752C36.5998 32.15 36.2755 32.4739 35.8747 32.4739C35.4739 32.4739 35.1495 32.151 35.1495 31.752Z" fill="#33CFFF"/>
<path d="M13.5646 31.752C13.5646 31.3531 13.889 31.0302 14.2898 31.0302C14.6906 31.0302 15.015 31.354 15.015 31.752C15.015 32.15 14.6906 32.4739 14.2898 32.4739C13.889 32.4739 13.5646 32.151 13.5646 31.752Z" fill="#33CFFF"/>
<path d="M24.3208 37.9211C24.3208 37.5221 24.6452 37.1992 25.046 37.1992C25.4468 37.1992 25.7711 37.5231 25.7711 37.9211C25.7711 38.3191 25.4468 38.6429 25.046 38.6429C24.6452 38.6429 24.3208 38.3201 24.3208 37.9211Z" fill="#33CFFF"/>
<path d="M25.1509 0.359375L46.9009 12.8594L47.0259 12.9316V38.2207L46.9009 38.293L25.1509 50.793L24.7769 51.0078V50.7197L3.15088 38.292L3.02588 38.2197V12.9316L3.15088 12.8594L24.9019 0.359375L25.0269 0.288086L25.1509 0.359375ZM25.5933 38.7236C25.5354 38.7629 25.4735 38.796 25.4077 38.8223V49.6104L34.9731 44.1123L25.5933 38.7236ZM15.0903 44.1191L24.6421 49.6084V38.8047C24.5886 38.7804 24.5376 38.7519 24.4897 38.7188L15.0903 44.1191ZM26.0171 37.8418C26.0192 37.8679 26.021 37.8942 26.021 37.9209C26.021 37.9752 26.0149 38.0283 26.0063 38.0801L35.4556 43.5078V32.6279C35.393 32.5981 35.3342 32.5624 35.2798 32.5205L26.0171 37.8418ZM14.8452 32.5488C14.7911 32.5864 14.7337 32.6194 14.6724 32.6455V43.4775L24.0825 38.0713C24.0749 38.0223 24.0708 37.972 24.0708 37.9209C24.0708 37.8972 24.0721 37.8738 24.0737 37.8506L14.8452 32.5488ZM4.31104 37.9238L13.9067 43.4385V32.6455C13.8332 32.6142 13.7646 32.5739 13.7017 32.5264L4.31104 37.9238ZM36.4136 32.5605C36.3535 32.6004 36.2887 32.6332 36.2202 32.6592V43.3955L45.7437 37.9219L36.4136 32.5605ZM3.92529 37.2637L13.3208 31.8633C13.3166 31.8268 13.3149 31.7896 13.3149 31.752C13.3149 31.725 13.3157 31.6983 13.3179 31.6719L3.92529 26.2754V37.2637ZM36.8403 31.624C36.8459 31.6659 36.8501 31.7085 36.8501 31.752C36.8501 31.809 36.843 31.8646 36.8335 31.9189L46.1284 37.2607V26.2881L36.8403 31.624ZM15.2573 31.6328C15.2621 31.6719 15.2651 31.7116 15.2651 31.752C15.2651 31.8028 15.26 31.8526 15.2524 31.9014L24.4253 37.1709C24.4908 37.1171 24.5639 37.0726 24.6421 37.0371V26.2393L15.2573 31.6328ZM25.4077 37.0186C25.4992 37.055 25.5843 37.1042 25.6597 37.165L34.9048 31.8545C34.9013 31.8208 34.8999 31.7866 34.8999 31.752C34.8999 31.7316 34.9016 31.7115 34.9028 31.6914L25.4077 26.2344V37.0186ZM25.7964 25.5762L35.2476 31.0078C35.3105 30.9551 35.3805 30.9107 35.4556 30.875V20.29C35.3769 20.2526 35.3041 20.2055 35.2388 20.1494L25.7964 25.5762ZM4.229 25.5693L13.6763 30.9961C13.7459 30.94 13.8233 30.8929 13.9067 30.8574V20.2188C13.8475 20.1906 13.7917 20.1572 13.7397 20.1182L4.229 25.5693ZM14.8442 20.1641C14.7902 20.198 14.7329 20.227 14.6724 20.25V30.8574C14.7434 30.8877 14.8094 30.9273 14.8706 30.9727L24.2612 25.5762L14.8442 20.1641ZM36.4507 20.1963C36.3803 20.2478 36.3032 20.2899 36.2202 20.3213V30.8438C36.3021 30.8747 36.3781 30.9171 36.4478 30.9678L45.8208 25.583L36.4507 20.1963ZM25.6147 13.9658C25.5509 14.014 25.4824 14.0564 25.4077 14.0879V24.918L34.9019 19.4609C34.9011 19.4454 34.8999 19.4298 34.8999 19.4141C34.8999 19.3781 34.902 19.3426 34.9058 19.3076L25.6147 13.9658ZM15.2925 19.2285C15.2969 19.266 15.3003 19.3041 15.3003 19.3428C15.3003 19.4077 15.2929 19.4709 15.2808 19.5322L24.6421 24.9121V14.084C24.5757 14.0554 24.5134 14.0195 24.4556 13.9775L15.2925 19.2285ZM36.8315 19.2334C36.8426 19.292 36.8501 19.3522 36.8501 19.4141C36.8501 19.4562 36.8455 19.4974 36.8403 19.5381L46.1284 24.8779V13.8916L36.8315 19.2334ZM3.92529 24.8623L13.3569 19.457C13.3525 19.4195 13.3501 19.3814 13.3501 19.3428C13.3501 19.3303 13.3506 19.318 13.3511 19.3057L3.92529 13.8887V24.8623ZM25.9985 13.0938C26.0018 13.1261 26.0034 13.1591 26.0034 13.1924C26.0034 13.2297 26.0007 13.2665 25.9966 13.3027L35.2827 18.6426C35.3363 18.6017 35.3941 18.5663 35.4556 18.5371V7.67383L25.9985 13.0938ZM4.31104 13.2275L13.6821 18.6133C13.7495 18.5543 13.8249 18.5046 13.9067 18.4658V7.71289L4.31104 13.2275ZM36.2202 18.5059C36.2849 18.5303 36.3465 18.5607 36.4038 18.5977L45.7446 13.2295L36.2202 7.75586V18.5059ZM14.6724 18.4346C14.7582 18.4671 14.8374 18.5123 14.9097 18.5664L24.062 13.3213C24.0564 13.2791 24.0532 13.2361 24.0532 13.1924C24.0532 13.1517 24.0562 13.1116 24.061 13.0723L14.6724 7.6748V18.4346ZM25.4077 12.2969C25.4864 12.33 25.559 12.3742 25.6255 12.4258L34.9985 7.05371L25.4077 1.54102V12.2969ZM15.0903 7.0332L24.4468 12.4121C24.5069 12.3675 24.5724 12.3298 24.6421 12.2998V1.54297L15.0903 7.0332Z" stroke="url(#paint10_linear_737_7754)" stroke-width="0.5"/>
<path fill-rule="evenodd" clip-rule="evenodd" d="M24.149 26.518L11.1047 18.7852L11.103 33.8257L24.149 41.3484V26.518Z" fill="url(#paint11_linear_737_7754)"/>
<path fill-rule="evenodd" clip-rule="evenodd" d="M25.2147 24.0619L38.2443 16.3193L25.2147 8.80469L12.1704 16.3274L25.2147 24.0619Z" fill="url(#paint12_linear_737_7754)"/>
<path fill-rule="evenodd" clip-rule="evenodd" d="M26.2827 26.5184V41.3472L39.3254 33.8261V18.7676L26.2827 26.5184Z" fill="url(#paint13_linear_737_7754)"/>
<defs>
<linearGradient id="paint0_linear_737_7754" x1="37.781" y1="12.3401" x2="6.80083" y2="44.0318" gradientUnits="userSpaceOnUse">
<stop offset="0.278846" stop-color="#33CFFF"/>
<stop offset="1" stop-color="#0D87C5"/>
</linearGradient>
<linearGradient id="paint1_linear_737_7754" x1="37.781" y1="12.3401" x2="6.80083" y2="44.0318" gradientUnits="userSpaceOnUse">
<stop offset="0.278846" stop-color="#33CFFF"/>
<stop offset="1" stop-color="#0D87C5"/>
</linearGradient>
<linearGradient id="paint2_linear_737_7754" x1="37.781" y1="12.3401" x2="6.80083" y2="44.0318" gradientUnits="userSpaceOnUse">
<stop offset="0.278846" stop-color="#33CFFF"/>
<stop offset="1" stop-color="#0D87C5"/>
</linearGradient>
<linearGradient id="paint3_linear_737_7754" x1="37.781" y1="12.3401" x2="6.80083" y2="44.0318" gradientUnits="userSpaceOnUse">
<stop offset="0.278846" stop-color="#33CFFF"/>
<stop offset="1" stop-color="#0D87C5"/>
</linearGradient>
<linearGradient id="paint4_linear_737_7754" x1="37.781" y1="12.3401" x2="6.80083" y2="44.0318" gradientUnits="userSpaceOnUse">
<stop offset="0.278846" stop-color="#33CFFF"/>
<stop offset="1" stop-color="#0D87C5"/>
</linearGradient>
<linearGradient id="paint5_linear_737_7754" x1="37.781" y1="12.3401" x2="6.80083" y2="44.0318" gradientUnits="userSpaceOnUse">
<stop offset="0.278846" stop-color="#33CFFF"/>
<stop offset="1" stop-color="#0D87C5"/>
</linearGradient>
<linearGradient id="paint6_linear_737_7754" x1="37.781" y1="12.3401" x2="6.80083" y2="44.0318" gradientUnits="userSpaceOnUse">
<stop offset="0.278846" stop-color="#33CFFF"/>
<stop offset="1" stop-color="#0D87C5"/>
</linearGradient>
<linearGradient id="paint7_linear_737_7754" x1="37.781" y1="12.3401" x2="6.80083" y2="44.0318" gradientUnits="userSpaceOnUse">
<stop offset="0.278846" stop-color="#33CFFF"/>
<stop offset="1" stop-color="#0D87C5"/>
</linearGradient>
<linearGradient id="paint8_linear_737_7754" x1="37.781" y1="12.3401" x2="6.80083" y2="44.0318" gradientUnits="userSpaceOnUse">
<stop offset="0.278846" stop-color="#33CFFF"/>
<stop offset="1" stop-color="#0D87C5"/>
</linearGradient>
<linearGradient id="paint9_linear_737_7754" x1="37.781" y1="12.3401" x2="6.80083" y2="44.0318" gradientUnits="userSpaceOnUse">
<stop offset="0.278846" stop-color="#33CFFF"/>
<stop offset="1" stop-color="#0D87C5"/>
</linearGradient>
<linearGradient id="paint10_linear_737_7754" x1="37.781" y1="12.3401" x2="6.80083" y2="44.0318" gradientUnits="userSpaceOnUse">
<stop offset="0.278846" stop-color="#33CFFF"/>
<stop offset="1" stop-color="#0D87C5"/>
</linearGradient>
<linearGradient id="paint11_linear_737_7754" x1="21.4513" y1="24.0938" x2="8.44765" y2="32.9344" gradientUnits="userSpaceOnUse">
<stop offset="0.278846" stop-color="#33CFFF"/>
<stop offset="1" stop-color="#0D87C5"/>
</linearGradient>
<linearGradient id="paint12_linear_737_7754" x1="32.8528" y1="12.3944" x2="25.3095" y2="27.5522" gradientUnits="userSpaceOnUse">
<stop offset="0.278846" stop-color="#33CFFF"/>
<stop offset="1" stop-color="#0D87C5"/>
</linearGradient>
<linearGradient id="paint13_linear_737_7754" x1="36.6284" y1="24.0801" x2="23.62" y2="32.9153" gradientUnits="userSpaceOnUse">
<stop offset="0.278846" stop-color="#33CFFF"/>
<stop offset="1" stop-color="#0D87C5"/>
</linearGradient>
<clipPath id="clip0_737_7754">
<rect width="105.213" height="29.9512" fill="white" transform="translate(55.0566 16.7871)"/>
</clipPath>
</defs>
</svg>
