<svg width="365" height="55" viewBox="0 0 365 55" fill="none" xmlns="http://www.w3.org/2000/svg">
<path d="M165.244 39.3583C163.742 38.7399 162.539 37.825 161.64 36.6136C160.741 35.4022 160.264 33.9409 160.218 32.2339H166.949C167.046 33.1996 167.38 33.9366 167.95 34.4407C168.515 34.9489 169.258 35.2031 170.17 35.2031C171.081 35.2031 171.845 34.9871 172.39 34.555C172.93 34.123 173.204 33.5215 173.204 32.7549C173.204 32.1111 172.989 31.5816 172.558 31.158C172.128 30.7387 171.596 30.3914 170.967 30.1203C170.338 29.8492 169.444 29.54 168.287 29.1927C166.612 28.6717 165.244 28.1549 164.181 27.634C163.121 27.113 162.21 26.3463 161.446 25.334C160.682 24.3217 160.298 22.9959 160.298 21.361C160.298 18.9382 161.172 17.0363 162.923 15.664C164.675 14.2916 166.954 13.6055 169.764 13.6055C172.575 13.6055 174.93 14.2916 176.678 15.664C178.429 17.0363 179.366 18.9466 179.488 21.3991H172.647C172.596 20.5562 172.288 19.8954 171.723 19.4126C171.157 18.9297 170.427 18.6883 169.541 18.6883C168.777 18.6883 168.161 18.8916 167.692 19.3024C167.224 19.7133 166.992 20.2978 166.992 21.0645C166.992 21.9074 167.384 22.5596 168.173 23.0298C168.963 23.5 170.195 24.0082 171.87 24.5504C173.546 25.118 174.909 25.6644 175.956 26.1854C177.003 26.7064 177.91 27.4603 178.674 28.4472C179.438 29.4384 179.822 30.709 179.822 32.2678C179.822 33.8265 179.446 35.1014 178.695 36.3128C177.944 37.5242 176.851 38.4899 175.424 39.2058C173.993 39.9258 172.305 40.2816 170.36 40.2816C168.414 40.2816 166.759 39.9724 165.257 39.354L165.244 39.3583Z" fill="#232530"/>
<path d="M189.263 38.5789C187.229 37.4395 185.616 35.8511 184.418 33.8095C183.223 31.768 182.624 29.4722 182.624 26.9266C182.624 24.381 183.223 22.0895 184.418 20.0606C185.612 18.0317 187.229 16.4476 189.263 15.3124C191.297 14.173 193.534 13.6055 195.973 13.6055C198.413 13.6055 200.65 14.173 202.684 15.3124C204.718 16.4518 206.322 18.036 207.491 20.0606C208.66 22.0895 209.247 24.3767 209.247 26.9266C209.247 29.4765 208.656 31.768 207.47 33.8095C206.284 35.8511 204.684 37.4395 202.663 38.5789C200.641 39.7183 198.409 40.2859 195.969 40.2859C193.53 40.2859 191.293 39.7183 189.259 38.5789H189.263ZM200.949 32.416C202.194 31.031 202.815 29.2012 202.815 26.9224C202.815 24.6436 202.19 22.7841 200.949 21.4118C199.704 20.0394 198.046 19.3533 195.973 19.3533C193.901 19.3533 192.209 20.0352 190.964 21.3948C189.719 22.7545 189.098 24.6012 189.098 26.9224C189.098 29.2435 189.719 31.0606 190.964 32.433C192.209 33.8053 193.88 34.4915 195.973 34.4915C198.067 34.4915 199.7 33.8011 200.949 32.4118V32.416Z" fill="#232530"/>
<path d="M219.085 35.3013H227.369V40.202H212.762V14.1484H219.085V35.3013Z" fill="#232530"/>
<path d="M236.612 14.1484V29.7357C236.612 31.2944 236.996 32.4931 237.76 33.336C238.524 34.1789 239.647 34.5982 241.124 34.5982C242.601 34.5982 243.737 34.1789 244.526 33.336C245.315 32.4931 245.707 31.2944 245.707 29.7357V14.1484H252.03V29.6975C252.03 32.0229 251.536 33.9883 250.553 35.5978C249.565 37.2073 248.24 38.4187 246.577 39.2362C244.914 40.0537 243.057 40.4603 241.01 40.4603C238.963 40.4603 237.131 40.0579 235.519 39.2532C233.903 38.4484 232.628 37.237 231.691 35.6147C230.754 33.9925 230.286 32.0229 230.286 29.6933V14.1484H236.608H236.612Z" fill="#232530"/>
<path d="M275.145 14.1484V19.2312H268.266V40.1977H261.943V19.2312H255.064V14.1484H275.145Z" fill="#232530"/>
<path d="M284.646 14.1484V40.202H278.323V14.1484H284.646Z" fill="#232530"/>
<path d="M294.796 38.5789C292.761 37.4395 291.149 35.8511 289.95 33.8095C288.756 31.768 288.157 29.4722 288.157 26.9266C288.157 24.381 288.756 22.0895 289.95 20.0606C291.145 18.0317 292.761 16.4476 294.796 15.3124C296.83 14.173 299.067 13.6055 301.506 13.6055C303.945 13.6055 306.182 14.173 308.217 15.3124C310.251 16.4518 311.855 18.036 313.024 20.0606C314.193 22.0895 314.779 24.3767 314.779 26.9266C314.779 29.4765 314.189 31.768 313.003 33.8095C311.817 35.8511 310.217 37.4395 308.195 38.5789C306.174 39.7183 303.941 40.2859 301.502 40.2859C299.062 40.2859 296.826 39.7183 294.791 38.5789H294.796ZM306.482 32.416C307.727 31.031 308.347 29.2012 308.347 26.9224C308.347 24.6436 307.723 22.7841 306.482 21.4118C305.237 20.0394 303.578 19.3533 301.506 19.3533C299.434 19.3533 297.741 20.0352 296.496 21.3948C295.251 22.7545 294.631 24.6012 294.631 26.9224C294.631 29.2435 295.251 31.0606 296.496 32.433C297.741 33.8053 299.413 34.4915 301.506 34.4915C303.599 34.4915 305.233 33.8011 306.482 32.4118V32.416Z" fill="#232530"/>
<path d="M341.52 40.1977H335.198L324.622 24.1276V40.1977H318.299V14.1484H324.622L335.198 30.2905V14.1484H341.52V40.202V40.1977Z" fill="#232530"/>
<path d="M350.392 39.3583C348.889 38.7399 347.686 37.825 346.787 36.6136C345.888 35.4022 345.411 33.9409 345.365 32.2339H352.097C352.194 33.1996 352.527 33.9366 353.097 34.4407C353.662 34.9489 354.405 35.2031 355.317 35.2031C356.228 35.2031 356.992 34.9871 357.537 34.555C358.077 34.123 358.351 33.5215 358.351 32.7549C358.351 32.1111 358.136 31.5816 357.706 31.158C357.275 30.7387 356.743 30.3914 356.115 30.1203C355.486 29.8492 354.591 29.54 353.435 29.1927C351.759 28.6717 350.392 28.1549 349.328 27.634C348.269 27.113 347.357 26.3463 346.593 25.334C345.829 24.3217 345.445 22.9959 345.445 21.361C345.445 18.9382 346.319 17.0363 348.07 15.664C349.822 14.2916 352.101 13.6055 354.912 13.6055C357.723 13.6055 360.078 14.2916 361.825 15.664C363.576 17.0363 364.513 18.9466 364.636 21.3991H357.794C357.744 20.5562 357.436 19.8954 356.87 19.4126C356.304 18.9297 355.574 18.6883 354.688 18.6883C353.924 18.6883 353.308 18.8916 352.839 19.3024C352.371 19.7133 352.139 20.2978 352.139 21.0645C352.139 21.9074 352.531 22.5596 353.321 23.0298C354.11 23.5 355.342 24.0082 357.018 24.5504C358.693 25.118 360.056 25.6644 361.103 26.1854C362.15 26.7064 363.057 27.4603 363.821 28.4472C364.585 29.4384 364.969 30.709 364.969 32.2678C364.969 33.8265 364.593 35.1014 363.842 36.3128C363.091 37.5242 361.998 38.4899 360.571 39.2058C359.141 39.9258 357.452 40.2816 355.507 40.2816C353.561 40.2816 351.907 39.9724 350.404 39.354L350.392 39.3583Z" fill="#232530"/>
<path d="M71.5836 40.1996L66.1856 30.3644H64.6705V40.1996H58.344V14.1503H68.9585C71.0054 14.1503 72.7485 14.5103 74.1919 15.2261C75.6353 15.9462 76.7115 16.9289 77.429 18.1784C78.1422 19.4279 78.501 20.8214 78.501 22.3547C78.501 24.0871 78.0156 25.6331 77.0407 26.9928C76.0657 28.3524 74.6308 29.3182 72.7316 29.8857L78.7204 40.2038H71.5836V40.1996ZM64.6663 25.8746H68.5871C69.7477 25.8746 70.6129 25.5908 71.1953 25.0232C71.7735 24.4556 72.0648 23.6509 72.0648 22.6089C72.0648 21.5669 71.7735 20.8384 71.1953 20.2708C70.6171 19.7032 69.7477 19.4152 68.5871 19.4152H64.6663V25.8746Z" fill="url(#paint0_linear_835_628)"/>
<path d="M101.127 14.1503V19.2331H94.2475V40.1996H87.9252V19.2331H81.0459V14.1503H101.127Z" fill="url(#paint1_linear_835_628)"/>
<path d="M110.517 14.1503V29.7375C110.517 31.2962 110.901 32.4949 111.665 33.3378C112.429 34.1807 113.552 34.6 115.029 34.6C116.506 34.6 117.642 34.1807 118.431 33.3378C119.22 32.4949 119.613 31.2962 119.613 29.7375V14.1503H125.935V29.6994C125.935 32.0247 125.441 33.9901 124.458 35.5996C123.47 37.2092 122.145 38.4206 120.482 39.2381C118.819 40.0556 116.962 40.4622 114.915 40.4622C112.868 40.4622 111.037 40.0598 109.424 39.255C107.808 38.4502 106.533 37.2388 105.596 35.6166C104.659 33.9943 104.191 32.0247 104.191 29.6951V14.1503H110.517Z" fill="url(#paint2_linear_835_628)"/>
<path d="M134.667 39.3588C133.164 38.7404 131.962 37.8255 131.063 36.6141C130.164 35.4027 129.687 33.9414 129.64 32.2345H136.372C136.469 33.2002 136.802 33.9372 137.372 34.4412C137.938 34.9495 138.681 35.2036 139.592 35.2036C140.504 35.2036 141.268 34.9876 141.812 34.5556C142.352 34.1236 142.627 33.5221 142.627 32.7554C142.627 32.1116 142.411 31.5822 141.981 31.1586C141.55 30.7393 141.019 30.3919 140.39 30.1209C139.761 29.8498 138.866 29.5406 137.71 29.1933C136.034 28.6723 134.667 28.1555 133.603 27.6345C132.544 27.1135 131.632 26.3469 130.868 25.3346C130.105 24.3222 129.721 22.9965 129.721 21.3615C129.721 18.9387 130.594 17.0369 132.346 15.6646C134.097 14.2922 136.376 13.606 139.187 13.606C141.998 13.606 144.353 14.2922 146.1 15.6646C147.852 17.0369 148.789 18.9472 148.911 21.3996H142.07C142.019 20.5567 141.711 19.896 141.145 19.4131C140.58 18.9303 139.85 18.6888 138.963 18.6888C138.199 18.6888 137.583 18.8921 137.115 19.303C136.646 19.7139 136.414 20.2984 136.414 21.065C136.414 21.9079 136.807 22.5602 137.596 23.0304C138.385 23.5005 139.618 24.0088 141.293 24.551C142.969 25.1185 144.332 25.6649 145.378 26.1859C146.425 26.7069 147.333 27.4609 148.096 28.4478C148.86 29.4389 149.244 30.7096 149.244 32.2683C149.244 33.8271 148.869 35.102 148.118 36.3134C147.366 37.5248 146.273 38.4905 144.847 39.2063C143.416 39.9264 141.728 40.2822 139.782 40.2822C137.836 40.2822 136.182 39.973 134.68 39.3546L134.667 39.3588Z" fill="url(#paint3_linear_835_628)"/>
<path d="M32.3293 51.5119C19.292 51.5365 8.67641 40.9684 8.65188 27.8942C8.62736 14.8201 19.1633 4.17201 32.2005 4.14741C38.5399 4.12281 44.6186 6.68106 49.0758 11.201C40.2657 -0.944494 23.3108 -3.63189 11.1747 5.20515C-0.961313 14.0422 -3.61291 31.0459 5.19714 43.2161C14.0103 55.3862 30.9621 58.049 43.0982 49.212C43.6898 48.7723 44.2845 48.308 44.824 47.8437C41.1148 50.2728 36.7588 51.5396 32.3293 51.5119Z" fill="url(#paint4_linear_835_628)"/>
<path d="M40.3671 7.94482C49.5143 13.295 52.5797 25.05 47.2704 34.1976C41.9366 43.3698 30.2143 46.4446 21.0947 41.1221C15.8651 38.0719 12.3858 32.6971 11.7175 26.6766V27.7866C11.7175 39.5693 21.2234 49.1044 32.9732 49.1044C44.723 49.1044 54.2289 39.5693 54.2289 27.7866C54.1002 18.9496 48.6131 11.0688 40.3671 7.94174V7.94482Z" fill="url(#paint5_linear_835_628)"/>
<path d="M30.1898 9.41766C23.2068 9.39306 17.0759 14.0176 15.1171 20.7361C18.2867 13.7593 26.5052 10.6845 33.4606 13.8638C40.4161 17.0432 43.4815 25.2868 40.3149 32.2636C38.0741 37.2263 33.1265 40.378 27.716 40.378C26.5052 40.3534 25.2943 40.1966 24.108 39.9137C26.0392 40.7408 28.1023 41.1529 30.2143 41.1283C38.9478 41.076 45.9553 33.9178 45.9063 25.1577C45.8021 16.502 38.8221 9.4976 30.1898 9.42073V9.41766Z" fill="url(#paint6_linear_835_628)"/>
<path d="M153.194 50.422H147.732L146.684 53.2869H145.413L149.793 41.3789H151.15L155.514 53.2869H154.242L153.194 50.422ZM152.834 49.4211L150.463 42.8976L148.092 49.4211H152.834Z" fill="#232530"/>
<path d="M169.579 53.4077C168.788 53.4077 168.09 53.2696 167.483 52.9935C166.887 52.7173 166.418 52.3319 166.074 51.8372C165.731 51.3425 165.547 50.7902 165.525 50.1804H166.796C166.853 50.7672 167.111 51.2849 167.569 51.7336C168.027 52.1708 168.697 52.3894 169.579 52.3894C170.392 52.3894 171.033 52.1823 171.503 51.7682C171.984 51.3425 172.224 50.8075 172.224 50.1632C172.224 49.6454 172.092 49.2313 171.829 48.9206C171.566 48.5985 171.239 48.3626 170.85 48.213C170.461 48.052 169.922 47.8794 169.235 47.6953C168.433 47.4767 167.798 47.2639 167.328 47.0568C166.859 46.8497 166.458 46.5275 166.126 46.0903C165.794 45.6531 165.628 45.0606 165.628 44.3128C165.628 43.6915 165.788 43.1392 166.109 42.656C166.429 42.1613 166.882 41.7759 167.466 41.4997C168.05 41.2236 168.72 41.0855 169.476 41.0855C170.586 41.0855 171.48 41.3617 172.155 41.9139C172.843 42.4547 173.238 43.1565 173.341 44.0194H172.035C171.955 43.5247 171.686 43.0875 171.228 42.7078C170.77 42.3166 170.151 42.121 169.373 42.121C168.651 42.121 168.05 42.3166 167.569 42.7078C167.088 43.0875 166.847 43.6109 166.847 44.2783C166.847 44.7845 166.979 45.1929 167.242 45.5036C167.506 45.8142 167.832 46.0501 168.222 46.2111C168.622 46.3722 169.161 46.5448 169.836 46.7289C170.615 46.9475 171.245 47.1661 171.726 47.3847C172.207 47.5918 172.614 47.9139 172.946 48.3511C173.278 48.7883 173.444 49.3751 173.444 50.1114C173.444 50.6752 173.295 51.2102 172.997 51.7164C172.699 52.2226 172.259 52.6311 171.674 52.9417C171.09 53.2523 170.392 53.4077 169.579 53.4077Z" fill="#232530"/>
<path d="M181.763 53.4249C180.881 53.4249 180.085 53.2293 179.375 52.8381C178.676 52.4355 178.121 51.8717 177.709 51.1469C177.308 50.4105 177.107 49.5534 177.107 48.5755C177.107 47.5975 177.314 46.7461 177.726 46.0213C178.138 45.285 178.699 44.7212 179.409 44.33C180.119 43.9273 180.915 43.726 181.797 43.726C182.679 43.726 183.475 43.9273 184.185 44.33C184.907 44.7212 185.468 45.285 185.869 46.0213C186.281 46.7461 186.487 47.5975 186.487 48.5755C186.487 49.5419 186.281 50.3933 185.869 51.1296C185.456 51.866 184.889 52.4355 184.168 52.8381C183.446 53.2293 182.645 53.4249 181.763 53.4249ZM181.763 52.3722C182.381 52.3722 182.954 52.2341 183.481 51.958C184.008 51.6704 184.431 51.2447 184.752 50.6809C185.084 50.1057 185.25 49.4038 185.25 48.5755C185.25 47.7471 185.09 47.051 184.769 46.4873C184.448 45.912 184.025 45.4863 183.498 45.2102C182.971 44.9225 182.398 44.7787 181.78 44.7787C181.162 44.7787 180.589 44.9225 180.062 45.2102C179.535 45.4863 179.112 45.912 178.791 46.4873C178.482 47.051 178.327 47.7471 178.327 48.5755C178.327 49.4038 178.482 50.1057 178.791 50.6809C179.112 51.2447 179.53 51.6704 180.045 51.958C180.572 52.2341 181.144 52.3722 181.763 52.3722Z" fill="#232530"/>
<path d="M194.262 44.8823H192.08V53.2869H190.878V44.8823H189.572V43.8641H190.878V43.2083C190.878 42.1843 191.136 41.4307 191.651 40.9475C192.178 40.4643 193.025 40.2227 194.193 40.2227V41.2581C193.415 41.2581 192.865 41.4077 192.544 41.7068C192.235 42.006 192.08 42.5064 192.08 43.2083V43.8641H194.262V44.8823Z" fill="#232530"/>
<path d="M199.608 44.8823V50.7327C199.608 51.308 199.717 51.7049 199.934 51.9235C200.152 52.1421 200.536 52.2514 201.085 52.2514H202.185V53.2869H200.896C200.049 53.2869 199.419 53.0913 199.007 52.7001C198.594 52.2974 198.388 51.6416 198.388 50.7327V44.8823H197.083V43.8641H198.388V41.4997H199.608V43.8641H202.185V44.8823H199.608Z" fill="#232530"/>
<path d="M218.426 43.8641L215.489 53.2869H214.286L211.692 45.3828L209.098 53.2869H207.878L204.941 43.8641H206.161L208.497 52.0615L211.125 43.8641H212.328L214.922 52.0788L217.241 43.8641H218.426Z" fill="#232530"/>
<path d="M221.405 48.5582C221.405 47.5918 221.594 46.7461 221.972 46.0213C222.362 45.285 222.894 44.7212 223.57 44.33C224.257 43.9273 225.03 43.726 225.889 43.726C226.782 43.726 227.55 43.9331 228.191 44.3473C228.844 44.7615 229.313 45.2907 229.6 45.935V43.8641H230.802V53.2869H229.6V51.1987C229.302 51.8429 228.827 52.3779 228.174 52.8036C227.532 53.2178 226.765 53.4249 225.872 53.4249C225.024 53.4249 224.257 53.2236 223.57 52.8209C222.894 52.4182 222.362 51.8487 221.972 51.1124C221.594 50.376 221.405 49.5246 221.405 48.5582ZM229.6 48.5755C229.6 47.8161 229.445 47.1488 229.136 46.5735C228.827 45.9983 228.403 45.5553 227.865 45.2447C227.338 44.9341 226.754 44.7787 226.112 44.7787C225.448 44.7787 224.853 44.9283 224.326 45.2274C223.799 45.5266 223.381 45.9638 223.072 46.539C222.774 47.1028 222.625 47.7758 222.625 48.5582C222.625 49.3291 222.774 50.0079 223.072 50.5946C223.381 51.1699 223.799 51.6128 224.326 51.9235C224.853 52.2226 225.448 52.3722 226.112 52.3722C226.754 52.3722 227.338 52.2169 227.865 51.9062C228.403 51.5956 228.827 51.1526 229.136 50.5774C229.445 50.0021 229.6 49.3348 229.6 48.5755Z" fill="#232530"/>
<path d="M236.639 45.5381C236.903 44.9513 237.304 44.4969 237.842 44.1747C238.392 43.8526 239.062 43.6915 239.852 43.6915V44.9513H239.525C238.655 44.9513 237.956 45.1872 237.43 45.6589C236.903 46.1306 236.639 46.9187 236.639 48.0232V53.2869H235.437V43.8641H236.639V45.5381Z" fill="#232530"/>
<path d="M252.037 48.0922C252.037 48.5064 252.025 48.8228 252.002 49.0414H244.22C244.255 49.7547 244.427 50.3645 244.736 50.8708C245.045 51.377 245.452 51.7624 245.955 52.027C246.459 52.2801 247.009 52.4067 247.605 52.4067C248.383 52.4067 249.036 52.2169 249.563 51.8372C250.101 51.4575 250.456 50.9455 250.628 50.3012H251.899C251.67 51.2217 251.178 51.9753 250.422 52.562C249.677 53.1373 248.738 53.4249 247.605 53.4249C246.723 53.4249 245.933 53.2293 245.234 52.8381C244.535 52.4355 243.986 51.8717 243.585 51.1469C243.195 50.4105 243.001 49.5534 243.001 48.5755C243.001 47.5975 243.195 46.7404 243.585 46.004C243.974 45.2677 244.518 44.7039 245.217 44.3128C245.915 43.9216 246.711 43.726 247.605 43.726C248.498 43.726 249.277 43.9216 249.941 44.3128C250.617 44.7039 251.132 45.2332 251.487 45.9005C251.853 46.5563 252.037 47.2869 252.037 48.0922ZM250.817 48.0577C250.828 47.3559 250.685 46.7576 250.387 46.2629C250.101 45.7682 249.706 45.3943 249.202 45.1411C248.698 44.888 248.149 44.7615 247.553 44.7615C246.66 44.7615 245.898 45.0491 245.268 45.6244C244.638 46.1996 244.289 47.0107 244.22 48.0577H250.817Z" fill="#232530"/>
<path d="M269.12 53.2869L266.149 48.2476H263.933V53.2869H262.73V41.2236H266.338C267.677 41.2236 268.691 41.5458 269.378 42.1901C270.077 42.8343 270.426 43.68 270.426 44.727C270.426 45.6014 270.174 46.3492 269.67 46.9705C269.178 47.5803 268.445 47.9772 267.471 48.1613L270.563 53.2869H269.12ZM263.933 47.2639H266.355C267.294 47.2639 267.998 47.0338 268.468 46.5735C268.949 46.1133 269.189 45.4978 269.189 44.727C269.189 43.9331 268.96 43.3233 268.502 42.8976C268.044 42.4604 267.322 42.2418 266.338 42.2418H263.933V47.2639Z" fill="#232530"/>
<path d="M283.188 48.0922C283.188 48.5064 283.177 48.8228 283.154 49.0414H275.372C275.406 49.7547 275.578 50.3645 275.887 50.8708C276.197 51.377 276.603 51.7624 277.107 52.027C277.611 52.2801 278.161 52.4067 278.756 52.4067C279.535 52.4067 280.188 52.2169 280.715 51.8372C281.253 51.4575 281.608 50.9455 281.78 50.3012H283.051C282.822 51.2217 282.329 51.9753 281.573 52.562C280.829 53.1373 279.89 53.4249 278.756 53.4249C277.874 53.4249 277.084 53.2293 276.386 52.8381C275.687 52.4355 275.137 51.8717 274.736 51.1469C274.347 50.4105 274.152 49.5534 274.152 48.5755C274.152 47.5975 274.347 46.7404 274.736 46.004C275.126 45.2677 275.67 44.7039 276.368 44.3128C277.067 43.9216 277.863 43.726 278.756 43.726C279.649 43.726 280.428 43.9216 281.092 44.3128C281.768 44.7039 282.284 45.2332 282.639 45.9005C283.005 46.5563 283.188 47.2869 283.188 48.0922ZM281.969 48.0577C281.98 47.3559 281.837 46.7576 281.539 46.2629C281.253 45.7682 280.858 45.3943 280.354 45.1411C279.85 44.888 279.3 44.7615 278.705 44.7615C277.811 44.7615 277.05 45.0491 276.42 45.6244C275.79 46.1996 275.441 47.0107 275.372 48.0577H281.969Z" fill="#232530"/>
<path d="M290.611 52.1133L293.771 43.8641H295.043L291.281 53.2869H289.923L286.161 43.8641H287.45L290.611 52.1133Z" fill="#232530"/>
<path d="M302.668 53.4249C301.786 53.4249 300.99 53.2293 300.28 52.8381C299.581 52.4355 299.026 51.8717 298.614 51.1469C298.213 50.4105 298.012 49.5534 298.012 48.5755C298.012 47.5975 298.219 46.7461 298.631 46.0213C299.043 45.285 299.604 44.7212 300.314 44.33C301.024 43.9273 301.82 43.726 302.702 43.726C303.584 43.726 304.38 43.9273 305.09 44.33C305.811 44.7212 306.373 45.285 306.773 46.0213C307.186 46.7461 307.392 47.5975 307.392 48.5755C307.392 49.5419 307.186 50.3933 306.773 51.1296C306.361 51.866 305.794 52.4355 305.073 52.8381C304.351 53.2293 303.55 53.4249 302.668 53.4249ZM302.668 52.3722C303.286 52.3722 303.859 52.2341 304.386 51.958C304.912 51.6704 305.336 51.2447 305.657 50.6809C305.989 50.1057 306.155 49.4038 306.155 48.5755C306.155 47.7471 305.995 47.051 305.674 46.4873C305.353 45.912 304.93 45.4863 304.403 45.2102C303.876 44.9225 303.303 44.7787 302.685 44.7787C302.067 44.7787 301.494 44.9225 300.967 45.2102C300.44 45.4863 300.017 45.912 299.696 46.4873C299.387 47.051 299.232 47.7471 299.232 48.5755C299.232 49.4038 299.387 50.1057 299.696 50.6809C300.017 51.2447 300.435 51.6704 300.95 51.958C301.477 52.2341 302.049 52.3722 302.668 52.3722Z" fill="#232530"/>
<path d="M312.676 40.516V53.2869H311.474V40.516H312.676Z" fill="#232530"/>
<path d="M325.414 43.8641V53.2869H324.212V51.6301C323.937 52.2169 323.513 52.6656 322.941 52.9762C322.368 53.2869 321.727 53.4422 321.017 53.4422C319.894 53.4422 318.978 53.097 318.268 52.4067C317.558 51.7049 317.203 50.6924 317.203 49.3693V43.8641H318.388V49.2313C318.388 50.2552 318.64 51.0376 319.144 51.5783C319.659 52.1191 320.358 52.3894 321.24 52.3894C322.145 52.3894 322.866 52.1018 323.404 51.5266C323.943 50.9513 324.212 50.1057 324.212 48.9896V43.8641H325.414Z" fill="#232530"/>
<path d="M331.612 44.8823V50.7327C331.612 51.308 331.721 51.7049 331.939 51.9235C332.156 52.1421 332.54 52.2514 333.09 52.2514H334.189V53.2869H332.901C332.053 53.2869 331.424 53.0913 331.011 52.7001C330.599 52.2974 330.393 51.6416 330.393 50.7327V44.8823H329.087V43.8641H330.393V41.4997H331.612V43.8641H334.189V44.8823H331.612Z" fill="#232530"/>
<path d="M338.663 42.0865C338.423 42.0865 338.217 42.0002 338.045 41.8276C337.873 41.6551 337.787 41.4422 337.787 41.1891C337.787 40.936 337.873 40.7289 338.045 40.5678C338.217 40.3952 338.423 40.3089 338.663 40.3089C338.904 40.3089 339.11 40.3952 339.282 40.5678C339.454 40.7289 339.539 40.936 339.539 41.1891C339.539 41.4422 339.454 41.6551 339.282 41.8276C339.11 42.0002 338.904 42.0865 338.663 42.0865ZM339.265 43.8641V53.2869H338.062V43.8641H339.265Z" fill="#232530"/>
<path d="M347.983 53.4249C347.101 53.4249 346.305 53.2293 345.595 52.8381C344.897 52.4355 344.341 51.8717 343.929 51.1469C343.528 50.4105 343.328 49.5534 343.328 48.5755C343.328 47.5975 343.534 46.7461 343.946 46.0213C344.358 45.285 344.919 44.7212 345.63 44.33C346.34 43.9273 347.136 43.726 348.017 43.726C348.899 43.726 349.695 43.9273 350.405 44.33C351.127 44.7212 351.688 45.285 352.089 46.0213C352.501 46.7461 352.707 47.5975 352.707 48.5755C352.707 49.5419 352.501 50.3933 352.089 51.1296C351.676 51.866 351.109 52.4355 350.388 52.8381C349.666 53.2293 348.865 53.4249 347.983 53.4249ZM347.983 52.3722C348.601 52.3722 349.174 52.2341 349.701 51.958C350.228 51.6704 350.651 51.2447 350.972 50.6809C351.304 50.1057 351.47 49.4038 351.47 48.5755C351.47 47.7471 351.31 47.051 350.989 46.4873C350.669 45.912 350.245 45.4863 349.718 45.2102C349.191 44.9225 348.619 44.7787 348 44.7787C347.382 44.7787 346.809 44.9225 346.282 45.2102C345.756 45.4863 345.332 45.912 345.011 46.4873C344.702 47.051 344.547 47.7471 344.547 48.5755C344.547 49.4038 344.702 50.1057 345.011 50.6809C345.332 51.2447 345.75 51.6704 346.265 51.958C346.792 52.2341 347.365 52.3722 347.983 52.3722Z" fill="#232530"/>
<path d="M361.186 43.6915C362.309 43.6915 363.225 44.0424 363.935 44.7442C364.645 45.4345 365 46.4412 365 47.7643V53.2869H363.815V47.9024C363.815 46.8784 363.557 46.0961 363.042 45.5553C362.538 45.0146 361.845 44.7442 360.963 44.7442C360.058 44.7442 359.337 45.0318 358.799 45.6071C358.26 46.1824 357.991 47.028 357.991 48.144V53.2869H356.789V43.8641H357.991V45.469C358.289 44.8938 358.718 44.4566 359.28 44.1574C359.841 43.8468 360.476 43.6915 361.186 43.6915Z" fill="#232530"/>
<defs>
<linearGradient id="paint0_linear_835_628" x1="34.7252" y1="44.6967" x2="67.6435" y2="-28.2212" gradientUnits="userSpaceOnUse">
<stop stop-color="#A9DD2F"/>
<stop offset="0.72" stop-color="#2DBA95"/>
</linearGradient>
<linearGradient id="paint1_linear_835_628" x1="34.7252" y1="44.6967" x2="67.6435" y2="-28.2212" gradientUnits="userSpaceOnUse">
<stop stop-color="#A9DD2F"/>
<stop offset="0.72" stop-color="#2DBA95"/>
</linearGradient>
<linearGradient id="paint2_linear_835_628" x1="34.7252" y1="44.6967" x2="67.6435" y2="-28.2212" gradientUnits="userSpaceOnUse">
<stop stop-color="#A9DD2F"/>
<stop offset="0.72" stop-color="#2DBA95"/>
</linearGradient>
<linearGradient id="paint3_linear_835_628" x1="34.7252" y1="44.6967" x2="67.6435" y2="-28.2212" gradientUnits="userSpaceOnUse">
<stop stop-color="#A9DD2F"/>
<stop offset="0.72" stop-color="#2DBA95"/>
</linearGradient>
<linearGradient id="paint4_linear_835_628" x1="34.7252" y1="44.6967" x2="67.6435" y2="-28.2212" gradientUnits="userSpaceOnUse">
<stop stop-color="#A9DD2F"/>
<stop offset="0.72" stop-color="#2DBA95"/>
</linearGradient>
<linearGradient id="paint5_linear_835_628" x1="34.7252" y1="44.6967" x2="67.6435" y2="-28.2212" gradientUnits="userSpaceOnUse">
<stop stop-color="#A9DD2F"/>
<stop offset="0.72" stop-color="#2DBA95"/>
</linearGradient>
<linearGradient id="paint6_linear_835_628" x1="34.7252" y1="44.6967" x2="67.6435" y2="-28.2212" gradientUnits="userSpaceOnUse">
<stop stop-color="#A9DD2F"/>
<stop offset="0.72" stop-color="#2DBA95"/>
</linearGradient>
</defs>
</svg>
