<svg width="772" height="178" viewBox="0 0 772 178" fill="none" xmlns="http://www.w3.org/2000/svg">
<g opacity="0.23">
<path d="M103.677 157.325C66.7844 157.325 36.8795 127.42 36.8795 90.5276C36.8795 53.635 66.7844 23.7301 103.677 23.7301C122.283 23.7301 139.102 31.3413 151.215 43.6211C137.262 24.5589 114.725 12.165 89.2835 12.165C46.9087 12.165 12.5557 46.5104 12.5557 88.8853C12.5557 131.26 46.9087 165.605 89.2759 165.605C108.391 165.605 125.864 158.595 139.307 147.022C128.989 153.546 116.778 157.333 103.677 157.333" fill="#1D3366"/>
<path d="M126.64 34.4668C142.699 43.8724 153.496 61.2999 153.496 81.2517C153.496 111.179 129.233 135.435 99.3126 135.442C71.4682 135.442 48.5434 114.441 45.4867 87.4182C45.4335 88.4827 45.3955 89.5472 45.3955 90.6193C45.3955 123.771 72.2742 150.642 105.418 150.642C138.562 150.642 165.441 123.763 165.441 90.6193C165.441 64.942 149.314 43.0436 126.64 34.4668Z" fill="#1D3366"/>
<path d="M97.7011 38.6182C77.5592 38.6182 60.55 52.0157 55.083 70.386C61.1887 56.7603 74.8676 47.271 90.7667 47.271C112.361 47.271 129.864 64.7745 129.864 86.3687C129.864 107.963 112.361 125.466 90.7667 125.466C87.2386 125.466 83.817 124.987 80.5626 124.113C85.8319 126.318 91.6259 127.535 97.7011 127.542C122.261 127.542 142.159 107.628 142.159 83.0763C142.159 58.5168 122.253 38.6182 97.7011 38.6182Z" fill="#1D3366"/>
</g>
<path d="M104.967 123.847L60.8433 177.43C60.5316 177.802 60.083 178 59.6268 178C59.353 178 59.0717 177.932 58.8208 177.78C58.1517 177.384 57.8627 176.563 58.1517 175.841L78.7042 121.604H57.627C57.072 121.604 56.5625 121.315 56.2736 120.844C55.9846 120.372 55.9694 119.779 56.228 119.285L78.8182 76.2184H45.3168C44.7617 76.2184 44.2523 75.9294 43.9634 75.458C43.6744 74.9866 43.6516 74.4011 43.9101 73.9069L81.4491 0.859206C81.7228 0.326955 82.2627 0 82.8557 0H129.116C129.686 0 130.211 0.304143 130.492 0.798376C130.774 1.29261 130.774 1.89329 130.492 2.38753L108.267 40.5043H133.26C133.838 40.5043 134.37 40.8161 134.651 41.3255C134.933 41.8349 134.91 42.4508 134.598 42.9375L102.572 93.0983H126.979C127.595 93.0983 128.15 93.4557 128.416 94.0108C128.675 94.5658 128.591 95.2273 128.204 95.6988L111.27 116.259" fill="#1D3366"/>
<g clip-path="url(#clip0_713_3757)">
<path d="M202.485 61.5737C206.932 53.5104 213.152 47.2189 221.106 42.7352C229.061 38.2516 238.1 35.9736 248.188 35.9736C260.554 35.9736 271.112 39.2279 279.935 45.7725C288.721 52.3172 294.615 61.2122 297.58 72.4936H269.702C267.641 68.1546 264.676 64.828 260.88 62.55C257.083 60.272 252.744 59.1511 247.899 59.1511C240.089 59.1511 233.761 61.863 228.916 67.3229C224.071 72.7467 221.649 80.0506 221.649 89.1264C221.649 98.2021 224.071 105.506 228.916 110.93C233.761 116.354 240.089 119.102 247.899 119.102C252.744 119.102 257.083 117.981 260.88 115.703C264.676 113.425 267.641 110.134 269.702 105.759H297.58C294.615 117.041 288.721 125.899 279.935 132.372C271.112 138.844 260.554 142.098 248.188 142.098C238.1 142.098 229.061 139.857 221.106 135.337C213.152 130.853 206.932 124.598 202.485 116.571C198.038 108.543 195.796 99.3954 195.796 89.1264C195.796 78.8574 198.038 69.6732 202.485 61.6099V61.5737Z" fill="#1D3366"/>
<path d="M390.722 96.8644C394.374 101.565 396.218 106.916 396.218 112.955C396.218 121.669 393.181 128.575 387.107 133.637C381.032 138.736 372.535 141.267 361.652 141.267H313.128V37.167H359.988C370.582 37.167 378.863 39.5896 384.829 44.4348C390.795 49.28 393.796 55.8609 393.796 64.1773C393.796 70.3242 392.169 75.3864 388.987 79.4722C385.769 83.522 381.502 86.3423 376.151 87.9333C382.189 89.235 387.034 92.2 390.686 96.9006L390.722 96.8644ZM338.511 79.2915H355.107C359.265 79.2915 362.447 78.3875 364.689 76.5434C366.931 74.6993 368.015 72.0236 368.015 68.444C368.015 64.8643 366.894 62.1524 364.689 60.2722C362.483 58.3919 359.265 57.4518 355.107 57.4518H338.511V79.2553V79.2915ZM367.075 117.945C369.389 116.028 370.546 113.208 370.546 109.556C370.546 105.904 369.317 103.047 366.894 100.95C364.472 98.8893 361.145 97.8407 356.879 97.8407H338.474V120.837H357.168C361.398 120.837 364.689 119.861 367.039 117.945H367.075Z" fill="#1D3366"/>
<path d="M554.191 37.167L527.037 141.303H496.339L479.706 72.7468L462.495 141.303H431.797L405.402 37.167H432.557L447.526 112.955L466.075 37.167H493.953L511.742 112.955L526.928 37.167H554.227H554.191Z" fill="#1D3366"/>
<path d="M592.337 37.167V141.303H566.954V37.167H592.337Z" fill="#1D3366"/>
<path d="M663.821 141.303L642.162 101.999H636.088V141.303H610.705V37.167H653.299C661.507 37.167 668.521 38.6133 674.306 41.4698C680.092 44.3263 684.431 48.2676 687.287 53.2575C690.143 58.2473 691.59 63.8157 691.59 69.9626C691.59 76.8689 689.637 83.0519 685.732 88.5118C681.827 93.9356 676.078 97.8045 668.449 100.083L692.494 141.339H663.857L663.821 141.303ZM636.088 84.0282H651.816C656.481 84.0282 659.952 82.9073 662.266 80.6293C664.58 78.3513 665.737 75.1333 665.737 70.975C665.737 66.8168 664.58 63.888 662.266 61.6462C659.952 59.3682 656.445 58.2473 651.816 58.2473H636.088V84.0644V84.0282Z" fill="#1D3366"/>
<path d="M732.809 57.488V78.5683H766.798V98.1661H732.809V121.018H771.245V141.339H707.463V37.167H771.245V57.488H732.809Z" fill="#1D3366"/>
</g>
<defs>
<clipPath id="clip0_713_3757">
<rect width="575.45" height="106.052" fill="white" transform="translate(195.796 35.9736)"/>
</clipPath>
</defs>
</svg>
