<svg width="217" height="50" viewBox="0 0 217 50" fill="none" xmlns="http://www.w3.org/2000/svg">
<g opacity="0.23">
<path d="M29.1228 44.1923C18.7597 44.1923 10.3594 35.7921 10.3594 25.429C10.3594 15.0659 18.7597 6.6656 29.1228 6.6656C34.3492 6.6656 39.0736 8.80358 42.476 12.253C38.5568 6.89841 32.2261 3.41699 25.0796 3.41699C13.1766 3.41699 3.52686 13.0646 3.52686 24.9676C3.52686 36.8706 13.1766 46.5182 25.0775 46.5182C30.447 46.5182 35.3551 44.549 39.1313 41.2982C36.233 43.1308 32.8028 44.1944 29.1228 44.1944" fill="url(#paint0_linear_713_3891)"/>
<path d="M35.5729 9.68164C40.0838 12.3237 43.1167 17.219 43.1167 22.8235C43.1167 31.2301 36.3012 38.0435 27.8967 38.0456C20.0753 38.0456 13.6357 32.1464 12.7771 24.5556C12.7621 24.8546 12.7515 25.1537 12.7515 25.4548C12.7515 34.7671 20.3017 42.3151 29.6118 42.3151C38.9219 42.3151 46.4721 34.7649 46.4721 25.4548C46.4721 18.2421 41.942 12.0909 35.5729 9.68164Z" fill="url(#paint1_linear_713_3891)"/>
<path d="M27.444 10.8477C21.7862 10.8477 17.0083 14.611 15.4727 19.7712C17.1877 15.9438 21.0301 13.2782 25.4962 13.2782C31.5619 13.2782 36.4786 18.1949 36.4786 24.2607C36.4786 30.3265 31.5619 35.2432 25.4962 35.2432C24.5051 35.2432 23.544 35.1087 22.6299 34.863C24.11 35.4824 25.7375 35.8242 27.444 35.8263C34.3428 35.8263 39.9323 30.2325 39.9323 23.3359C39.9323 16.4371 34.3407 10.8477 27.444 10.8477Z" fill="url(#paint2_linear_713_3891)"/>
</g>
<path d="M29.4854 34.7886L17.0912 49.8398C17.0036 49.9445 16.8776 50 16.7494 50C16.6725 50 16.5935 49.9808 16.523 49.9381C16.3351 49.827 16.2539 49.5963 16.3351 49.3934L22.1083 34.1585H16.1877C16.0318 34.1585 15.8887 34.0773 15.8075 33.9449C15.7264 33.8125 15.7221 33.6459 15.7947 33.5071L22.1403 21.4097H12.7298C12.5739 21.4097 12.4308 21.3285 12.3496 21.1961C12.2684 21.0636 12.262 20.8992 12.3346 20.7604L22.8793 0.24135C22.9562 0.0918413 23.1078 0 23.2744 0H36.2689C36.4291 0 36.5764 0.0854334 36.6555 0.224263C36.7345 0.363093 36.7345 0.531824 36.6555 0.670653L30.4124 11.3776H37.4329C37.5952 11.3776 37.7447 11.4652 37.8238 11.6083C37.9028 11.7514 37.8964 11.9244 37.8088 12.0611L28.8127 26.1512H35.6687C35.8417 26.1512 35.9976 26.2516 36.0724 26.4075C36.145 26.5634 36.1215 26.7493 36.0126 26.8817L31.2561 32.657" fill="url(#paint3_linear_713_3891)"/>
<g clip-path="url(#clip0_713_3891)">
<path d="M56.8775 17.2965C58.1268 15.0315 59.8737 13.2642 62.1082 12.0048C64.3427 10.7453 66.8818 10.1055 69.7155 10.1055C73.1891 10.1055 76.1548 11.0196 78.6331 12.858C81.1011 14.6964 82.7567 17.1949 83.5895 20.3639H75.7587C75.1798 19.1451 74.347 18.2106 73.2805 17.5707C72.2141 16.9309 70.9953 16.616 69.6343 16.616C67.4404 16.616 65.663 17.3778 64.302 18.9114C62.941 20.435 62.2605 22.4867 62.2605 25.036C62.2605 27.5854 62.941 29.6371 64.302 31.1606C65.663 32.6841 67.4404 33.456 69.6343 33.456C70.9953 33.456 72.2141 33.1412 73.2805 32.5013C74.347 31.8614 75.1798 30.9371 75.7587 29.7082H83.5895C82.7567 32.8771 81.1011 35.3655 78.6331 37.1836C76.1548 39.0017 73.1891 39.9158 69.7155 39.9158C66.8818 39.9158 64.3427 39.2861 62.1082 38.0165C59.8737 36.757 58.1268 34.9999 56.8775 32.7451C55.6282 30.4902 54.9985 27.9206 54.9985 25.036C54.9985 22.1515 55.6282 19.5716 56.8775 17.3067V17.2965Z" fill="white"/>
<path d="M109.753 27.2094C110.779 28.5298 111.297 30.033 111.297 31.7292C111.297 34.177 110.444 36.1169 108.738 37.5389C107.031 38.971 104.644 39.682 101.587 39.682H87.957V10.4404H101.12C104.096 10.4404 106.422 11.1209 108.098 12.482C109.774 13.843 110.617 15.6915 110.617 18.0276C110.617 19.7542 110.159 21.1762 109.266 22.3239C108.362 23.4615 107.163 24.2537 105.66 24.7006C107.356 25.0663 108.717 25.8991 109.743 27.2195L109.753 27.2094ZM95.087 22.2731H99.7489C100.917 22.2731 101.811 22.0192 102.44 21.5012C103.07 20.9832 103.375 20.2316 103.375 19.2261C103.375 18.2206 103.06 17.4588 102.44 16.9306C101.821 16.4025 100.917 16.1384 99.7489 16.1384H95.087V22.263V22.2731ZM103.111 33.1308C103.761 32.5925 104.086 31.8003 104.086 30.7744C104.086 29.7486 103.74 28.9462 103.06 28.3571C102.379 27.7781 101.445 27.4836 100.247 27.4836H95.0768V33.9433H100.328C101.516 33.9433 102.44 33.6691 103.101 33.1308H103.111Z" fill="white"/>
<path d="M155.671 10.4404L148.043 39.6921H139.42L134.748 20.4348L129.914 39.6921H121.291L113.876 10.4404H121.504L125.709 31.7292L130.919 10.4404H138.75L143.747 31.7292L148.013 10.4404H155.681H155.671Z" fill="white"/>
<path d="M166.386 10.4404V39.6921H159.256V10.4404H166.386Z" fill="white"/>
<path d="M186.466 39.6921L180.382 28.6516H178.676V39.6921H171.546V10.4404H183.51C185.816 10.4404 187.786 10.8467 189.411 11.6491C191.037 12.4515 192.255 13.5586 193.058 14.9602C193.86 16.3619 194.266 17.926 194.266 19.6527C194.266 21.5926 193.718 23.3295 192.621 24.8631C191.524 26.3867 189.909 27.4734 187.766 28.1133L194.52 39.7023H186.476L186.466 39.6921ZM178.676 23.6037H183.094C184.404 23.6037 185.379 23.2888 186.029 22.6489C186.679 22.0091 187.004 21.1051 187.004 19.9371C187.004 18.769 186.679 17.9463 186.029 17.3166C185.379 16.6767 184.394 16.3619 183.094 16.3619H178.676V23.6138V23.6037Z" fill="white"/>
<path d="M205.845 16.1486V22.07H215.392V27.575H205.845V33.9941H216.641V39.7023H198.725V10.4404H216.641V16.1486H205.845Z" fill="white"/>
</g>
<defs>
<linearGradient id="paint0_linear_713_3891" x1="34.4222" y1="13.5578" x2="7.75869" y2="41.8891" gradientUnits="userSpaceOnUse">
<stop offset="0.278846" stop-color="#33CFFF"/>
<stop offset="1" stop-color="#0D87C5"/>
</linearGradient>
<linearGradient id="paint1_linear_713_3891" x1="39.4994" y1="17.3596" x2="19.6519" y2="41.4742" gradientUnits="userSpaceOnUse">
<stop offset="0.278846" stop-color="#33CFFF"/>
<stop offset="1" stop-color="#0D87C5"/>
</linearGradient>
<linearGradient id="paint2_linear_713_3891" x1="34.8746" y1="16.7246" x2="19.5463" y2="34.3735" gradientUnits="userSpaceOnUse">
<stop offset="0.278846" stop-color="#33CFFF"/>
<stop offset="1" stop-color="#0D87C5"/>
</linearGradient>
<linearGradient id="paint3_linear_713_3891" x1="32.5866" y1="11.7639" x2="5.20343" y2="28.2458" gradientUnits="userSpaceOnUse">
<stop offset="0.278846" stop-color="#33CFFF"/>
<stop offset="1" stop-color="#0D87C5"/>
</linearGradient>
<clipPath id="clip0_713_3891">
<rect width="161.643" height="29.79" fill="white" transform="translate(54.9985 10.1055)"/>
</clipPath>
</defs>
</svg>
