<svg width="434" height="100" viewBox="0 0 434 100" fill="none" xmlns="http://www.w3.org/2000/svg">
<g opacity="0.23">
<path d="M58.2455 88.3846C37.5193 88.3846 20.7188 71.5841 20.7188 50.8579C20.7188 30.1317 37.5193 13.3312 58.2455 13.3312C68.6983 13.3312 78.1473 17.6072 84.952 24.5059C77.1135 13.7968 64.4523 6.83398 50.1592 6.83398C26.3532 6.83398 7.05371 26.1292 7.05371 49.9352C7.05371 73.7413 26.3532 93.0365 50.1549 93.0365C60.8939 93.0365 70.7103 89.098 78.2626 82.5965C72.4659 86.2616 65.6056 88.3889 58.2455 88.3889" fill="url(#paint0_linear_713_3725)"/>
<path d="M71.1458 19.3633C80.1676 24.6473 86.2334 34.438 86.2334 45.6469C86.2334 62.4603 72.6025 76.0869 55.7934 76.0912C40.1505 76.0912 27.2714 64.2928 25.5542 49.1113C25.5243 49.7093 25.5029 50.3073 25.5029 50.9096C25.5029 69.5341 40.6033 84.6303 59.2236 84.6303C77.8438 84.6303 92.9442 69.5299 92.9442 50.9096C92.9442 36.4842 83.884 24.1817 71.1458 19.3633Z" fill="url(#paint1_linear_713_3725)"/>
<path d="M54.8881 21.6953C43.5724 21.6953 34.0166 29.222 30.9453 39.5424C34.3755 31.8875 42.0602 26.5565 50.9923 26.5565C63.1239 26.5565 72.9573 36.3899 72.9573 48.5215C72.9573 60.653 63.1239 70.4864 50.9923 70.4864C49.0102 70.4864 47.088 70.2173 45.2597 69.7261C48.22 70.9649 51.475 71.6483 54.8881 71.6526C68.6856 71.6526 79.8646 60.4651 79.8646 46.6718C79.8646 32.8743 68.6813 21.6953 54.8881 21.6953Z" fill="url(#paint2_linear_713_3725)"/>
</g>
<path d="M58.9704 69.5771L34.1818 99.6796C34.0067 99.8889 33.7547 100 33.4984 100C33.3446 100 33.1865 99.9616 33.0456 99.8761C32.6697 99.654 32.5073 99.1927 32.6697 98.7868L44.216 68.317H32.3749C32.0631 68.317 31.7769 68.1546 31.6146 67.8898C31.4522 67.625 31.4437 67.2918 31.5889 67.0141L44.2801 42.8193H25.4591C25.1472 42.8193 24.861 42.657 24.6987 42.3921C24.5364 42.1273 24.5236 41.7984 24.6688 41.5207L45.7581 0.4827C45.9119 0.183683 46.2152 0 46.5484 0H72.5372C72.8576 0 73.1524 0.170867 73.3104 0.448526C73.4685 0.726185 73.4685 1.06365 73.3104 1.34131L60.8243 22.7552H74.8653C75.19 22.7552 75.489 22.9304 75.647 23.2166C75.8051 23.5028 75.7923 23.8488 75.6171 24.1222L57.6248 52.3024H71.3369C71.6829 52.3024 71.9947 52.5032 72.1443 52.815C72.2895 53.1269 72.2425 53.4985 72.0246 53.7634L62.5116 65.314" fill="url(#paint3_linear_713_3725)"/>
<g clip-path="url(#clip0_713_3725)">
<path d="M113.756 34.592C116.254 30.0621 119.748 26.5275 124.217 24.0086C128.686 21.4897 133.764 20.21 139.432 20.21C146.379 20.21 152.31 22.0382 157.267 25.715C162.203 29.3917 165.514 34.3889 167.18 40.7268H151.518C150.36 38.2891 148.694 36.4203 146.562 35.1405C144.429 33.8607 141.991 33.231 139.269 33.231C134.881 33.231 131.327 34.7546 128.605 37.8219C125.883 40.869 124.522 44.9723 124.522 50.0711C124.522 55.1698 125.883 59.2732 128.605 62.3202C131.327 65.3673 134.881 66.9111 139.269 66.9111C141.991 66.9111 144.429 66.2814 146.562 65.0016C148.694 63.7218 150.36 61.8733 151.518 59.4153H167.18C165.514 65.7532 162.203 70.7301 157.267 74.3662C152.31 78.0024 146.379 79.8306 139.432 79.8306C133.764 79.8306 128.686 78.5711 124.217 76.0319C119.748 73.513 116.254 69.9988 113.756 65.4891C111.257 60.9795 109.998 55.8401 109.998 50.0711C109.998 44.302 111.257 39.1423 113.756 34.6124V34.592Z" fill="#1D3366"/>
<path d="M219.506 54.4178C221.558 57.0585 222.594 60.065 222.594 63.4573C222.594 68.3529 220.888 72.2328 217.475 75.0768C214.062 77.941 209.289 79.3629 203.175 79.3629H175.914V20.8799H202.24C208.192 20.8799 212.844 22.2409 216.195 24.9629C219.547 27.685 221.233 31.3821 221.233 36.0542C221.233 39.5075 220.319 42.3514 218.531 44.6469C216.723 46.922 214.327 48.5065 211.32 49.4003C214.712 50.1316 217.434 51.7973 219.486 54.4381L219.506 54.4178ZM190.174 44.5453H199.498C201.834 44.5453 203.621 44.0375 204.881 43.0015C206.14 41.9655 206.75 40.4623 206.75 38.4512C206.75 36.4402 206.12 34.9166 204.881 33.8603C203.642 32.804 201.834 32.2759 199.498 32.2759H190.174V44.525V44.5453ZM206.222 66.2606C207.522 65.184 208.172 63.5995 208.172 61.5479C208.172 59.4962 207.481 57.8914 206.12 56.7132C204.759 55.5553 202.89 54.9662 200.493 54.9662H190.154V67.8857H200.656C203.032 67.8857 204.881 67.3373 206.201 66.2606H206.222Z" fill="#1D3366"/>
<path d="M311.343 20.8799L296.088 79.3833H278.842L269.498 40.8685L259.829 79.3833H242.583L227.754 20.8799H243.009L251.419 63.4574L261.84 20.8799H277.501L287.495 63.4574L296.027 20.8799H311.363H311.343Z" fill="#1D3366"/>
<path d="M332.774 20.8799V79.3833H318.514V20.8799H332.774Z" fill="#1D3366"/>
<path d="M372.933 79.3833L360.765 57.3023H357.353V79.3833H343.093V20.8799H367.022C371.633 20.8799 375.574 21.6924 378.824 23.2972C382.074 24.902 384.512 27.1162 386.116 29.9195C387.721 32.7228 388.534 35.8511 388.534 39.3044C388.534 43.1843 387.437 46.6579 385.243 49.7253C383.049 52.7724 379.819 54.9459 375.533 56.2257L389.041 79.4036H372.953L372.933 79.3833ZM357.353 47.2064H366.189C368.809 47.2064 370.759 46.5767 372.06 45.2969C373.36 44.0172 374.01 42.2092 374.01 39.8732C374.01 37.5371 373.36 35.8917 372.06 34.6322C370.759 33.3525 368.789 32.7228 366.189 32.7228H357.353V47.2267V47.2064Z" fill="#1D3366"/>
<path d="M411.691 32.2962V44.139H430.785V55.1491H411.691V67.9873H433.284V79.4036H397.451V20.8799H433.284V32.2962H411.691Z" fill="#1D3366"/>
</g>
<defs>
<linearGradient id="paint0_linear_713_3725" x1="68.8444" y1="27.1155" x2="15.5174" y2="83.7783" gradientUnits="userSpaceOnUse">
<stop offset="0.278846" stop-color="#33CFFF"/>
<stop offset="1" stop-color="#0D87C5"/>
</linearGradient>
<linearGradient id="paint1_linear_713_3725" x1="78.9988" y1="34.7192" x2="39.3038" y2="82.9484" gradientUnits="userSpaceOnUse">
<stop offset="0.278846" stop-color="#33CFFF"/>
<stop offset="1" stop-color="#0D87C5"/>
</linearGradient>
<linearGradient id="paint2_linear_713_3725" x1="69.7491" y1="33.4492" x2="39.0925" y2="68.7469" gradientUnits="userSpaceOnUse">
<stop offset="0.278846" stop-color="#33CFFF"/>
<stop offset="1" stop-color="#0D87C5"/>
</linearGradient>
<linearGradient id="paint3_linear_713_3725" x1="65.1726" y1="23.5278" x2="10.4064" y2="56.4916" gradientUnits="userSpaceOnUse">
<stop offset="0.278846" stop-color="#33CFFF"/>
<stop offset="1" stop-color="#0D87C5"/>
</linearGradient>
<clipPath id="clip0_713_3725">
<rect width="323.286" height="59.58" fill="white" transform="translate(109.998 20.21)"/>
</clipPath>
</defs>
</svg>
