<svg width="500" height="500" viewBox="0 0 500 500" fill="none" xmlns="http://www.w3.org/2000/svg">
<g opacity="0.23">
<path d="M291.232 441.925C187.601 441.925 103.599 357.922 103.599 254.292C103.599 150.661 187.601 66.658 291.232 66.658C343.496 66.658 390.741 88.0378 424.765 122.532C385.572 68.9861 322.266 34.1719 250.801 34.1719C131.771 34.1719 35.2734 130.648 35.2734 249.678C35.2734 368.708 131.771 465.184 250.78 465.184C304.475 465.184 353.556 445.492 391.318 412.984C362.334 431.31 328.033 441.946 291.232 441.946" fill="white"/>
<path d="M355.735 96.8164C400.844 123.237 431.173 172.19 431.173 228.235C431.173 312.301 363.018 380.435 278.973 380.456C200.758 380.456 136.363 321.464 127.777 245.556C127.627 248.546 127.521 251.537 127.521 254.548C127.521 347.671 203.022 423.151 296.124 423.151C389.225 423.151 464.727 347.649 464.727 254.548C464.727 182.421 419.426 120.909 355.735 96.8164Z" fill="white"/>
<path d="M274.446 108.478C217.868 108.478 170.089 146.111 154.732 197.713C171.883 159.439 210.307 132.783 254.967 132.783C315.625 132.783 364.792 181.95 364.792 242.608C364.792 303.266 315.625 352.433 254.967 352.433C245.057 352.433 235.446 351.088 226.304 348.631C241.106 354.825 257.381 358.243 274.446 358.264C343.434 358.264 399.329 302.326 399.329 233.36C399.329 164.372 343.412 108.478 274.446 108.478Z" fill="white"/>
</g>
<path d="M294.855 347.886L170.913 498.398C170.037 499.445 168.777 500 167.495 500C166.726 500 165.936 499.808 165.231 499.381C163.352 498.27 162.54 495.963 163.352 493.934L221.083 341.585H161.878C160.319 341.585 158.888 340.773 158.076 339.449C157.265 338.125 157.222 336.459 157.948 335.071L221.404 214.097H127.299C125.74 214.097 124.309 213.285 123.497 211.961C122.685 210.636 122.621 208.992 123.347 207.604L228.794 2.4135C229.563 0.918413 231.079 0 232.745 0H362.69C364.292 0 365.765 0.854334 366.555 2.24263C367.346 3.63093 367.346 5.31824 366.555 6.70653L304.125 113.776H374.33C375.953 113.776 377.448 114.652 378.239 116.083C379.029 117.514 378.965 119.244 378.089 120.611L288.127 261.512H356.688C358.418 261.512 359.977 262.516 360.725 264.075C361.451 265.634 361.216 267.493 360.127 268.817L312.561 326.57" fill="white"/>
</svg>
