<svg width="500" height="500" viewBox="0 0 500 500" fill="none" xmlns="http://www.w3.org/2000/svg">
<path d="M0 107.164L116.795 228.268V278.506L0 400.434V345.154L88.5586 253.387L0 162.353V107.164Z" fill="url(#paint0_linear_710_2990)"/>
<path d="M351.212 414.651C262.653 414.834 190.505 343.235 190.321 254.677C190.138 166.118 261.737 93.9693 350.295 93.7859C393.383 93.6026 434.637 110.929 464.981 141.549C405.117 59.2242 289.881 41.0724 207.465 100.937C125.048 160.801 106.988 276.037 166.852 358.454C226.717 440.778 341.953 458.93 424.369 399.066C428.403 396.132 432.436 392.924 436.103 389.807C410.893 406.216 381.282 415.017 351.212 414.651Z" fill="url(#paint1_linear_710_2990)"/>
<path d="M405.849 119.453C467.822 155.665 488.816 235.331 452.787 297.304C416.575 359.277 336.909 380.271 274.937 344.242C239.366 323.615 215.806 287.311 211.222 246.332V253.85C211.222 333.699 275.853 398.239 355.611 398.239C435.369 398.239 500 333.608 500 253.85C499.175 194.077 461.863 140.63 405.849 119.453Z" fill="url(#paint2_linear_710_2990)"/>
<path d="M336.63 129.626C289.142 129.442 247.521 160.795 234.228 206.267C255.772 158.962 311.602 138.152 358.907 159.695C406.211 181.239 427.022 237.07 405.478 284.374C390.26 318.019 356.615 339.38 319.853 339.38C311.602 339.196 303.352 338.188 295.376 336.263C308.485 341.855 322.512 344.697 336.905 344.513C396.219 344.147 444.073 295.834 443.707 236.519C443.157 177.389 395.485 129.809 336.63 129.626Z" fill="url(#paint3_linear_710_2990)"/>
<defs>
<linearGradient id="paint0_linear_710_2990" x1="0" y1="250.001" x2="500" y2="250.001" gradientUnits="userSpaceOnUse">
<stop stop-color="#00DBFF"/>
<stop offset="1" stop-color="#00FF75"/>
</linearGradient>
<linearGradient id="paint1_linear_710_2990" x1="0" y1="250.001" x2="500" y2="250.001" gradientUnits="userSpaceOnUse">
<stop stop-color="#00DBFF"/>
<stop offset="1" stop-color="#00FF75"/>
</linearGradient>
<linearGradient id="paint2_linear_710_2990" x1="0" y1="250.001" x2="500" y2="250.001" gradientUnits="userSpaceOnUse">
<stop stop-color="#00DBFF"/>
<stop offset="1" stop-color="#00FF75"/>
</linearGradient>
<linearGradient id="paint3_linear_710_2990" x1="0" y1="250.001" x2="500" y2="250.001" gradientUnits="userSpaceOnUse">
<stop stop-color="#00DBFF"/>
<stop offset="1" stop-color="#00FF75"/>
</linearGradient>
</defs>
</svg>
