<svg width="75" height="77" viewBox="0 0 75 77" fill="none" xmlns="http://www.w3.org/2000/svg">
<path d="M37.5007 75.5747L4.875 56.8247V19.3262L37.5007 0.576172L70.125 19.3262V56.8262L37.5007 75.5762V75.5747ZM5.47475 56.4823L37.5007 74.8885L69.5282 56.4823V19.67L37.5007 1.2639L5.47475 19.67V56.4823Z" fill="url(#paint0_linear_737_7593)"/>
<path d="M37.6977 0.884917H37.2994V75.1943H37.6977V0.884917Z" fill="url(#paint1_linear_737_7593)"/>
<path d="M21.4336 10.0251L21.2343 10.3685L69.7481 38.2612L69.9474 37.9178L21.4336 10.0251Z" fill="url(#paint2_linear_737_7593)"/>
<path d="M53.6193 10.0618L5.0499 37.8966L5.24866 38.2402L53.8181 10.4055L53.6193 10.0618Z" fill="url(#paint3_linear_737_7593)"/>
<path d="M5.27111 19.3222L5.07193 19.6656L69.7134 56.8159L69.9126 56.4725L5.27111 19.3222Z" fill="url(#paint4_linear_737_7593)"/>
<path d="M5.27477 37.9061L5.07565 38.2496L53.5661 66.1064L53.7652 65.763L5.27477 37.9061Z" fill="url(#paint5_linear_737_7593)"/>
<path d="M69.744 37.916L21.2955 65.7488L21.4946 66.0922L69.9431 38.2595L69.744 37.916Z" fill="url(#paint6_linear_737_7593)"/>
<path d="M69.731 19.3271L5.10988 56.4657L5.30906 56.8091L69.9302 19.6705L69.731 19.3271Z" fill="url(#paint7_linear_737_7593)"/>
<path d="M21.5943 10.2014H21.196V65.9129H21.5943V10.2014Z" fill="url(#paint8_linear_737_7593)"/>
<path d="M53.9172 10.2307H53.5189V65.8749H53.9172V10.2307Z" fill="url(#paint9_linear_737_7593)"/>
<path d="M36.4159 19.5003C36.4159 18.9018 36.9025 18.4175 37.5037 18.4175C38.1049 18.4175 38.5914 18.9033 38.5914 19.5003C38.5914 20.0973 38.1049 20.5831 37.5037 20.5831C36.9025 20.5831 36.4159 20.0988 36.4159 19.5003Z" fill="#33CFFF"/>
<path d="M52.6854 28.8329C52.6854 28.2344 53.172 27.7501 53.7732 27.7501C54.3744 27.7501 54.8609 28.2344 54.8609 28.8329C54.8609 29.4313 54.3744 29.9157 53.7732 29.9157C53.172 29.9157 52.6854 29.4299 52.6854 28.8329Z" fill="#33CFFF"/>
<path d="M20.361 28.7261C20.361 28.1276 20.8476 27.6433 21.4488 27.6433C22.05 27.6433 22.5366 28.1276 22.5366 28.7261C22.5366 29.3245 22.05 29.8089 21.4488 29.8089C20.8476 29.8089 20.361 29.3231 20.361 28.7261Z" fill="#33CFFF"/>
<path d="M52.6854 47.34C52.6854 46.7415 53.172 46.2572 53.7732 46.2572C54.3744 46.2572 54.8609 46.743 54.8609 47.34C54.8609 47.937 54.3744 48.4228 53.7732 48.4228C53.172 48.4228 52.6854 47.9384 52.6854 47.34Z" fill="#33CFFF"/>
<path d="M20.3081 47.34C20.3081 46.7415 20.7947 46.2572 21.3959 46.2572C21.9971 46.2572 22.4836 46.743 22.4836 47.34C22.4836 47.937 21.9971 48.4228 21.3959 48.4228C20.7947 48.4228 20.3081 47.9384 20.3081 47.34Z" fill="#33CFFF"/>
<path d="M36.4424 56.5935C36.4424 55.9951 36.9289 55.5107 37.5301 55.5107C38.1313 55.5107 38.6179 55.9965 38.6179 56.5935C38.6179 57.1905 38.1313 57.6763 37.5301 57.6763C36.9289 57.6763 36.4424 57.192 36.4424 56.5935Z" fill="#33CFFF"/>
<path d="M38.3428 57.6494C38.2247 57.7398 38.0918 57.8111 37.9473 57.8584V74.3428L52.6719 65.8809L38.3428 57.6494ZM22.3457 65.8906L37.0498 74.3408V57.8359C36.9248 57.788 36.8088 57.7227 36.7051 57.6416L22.3457 65.8906ZM38.8535 56.4072C38.8621 56.4682 38.8682 56.5305 38.8682 56.5938C38.8681 56.6976 38.8546 56.7985 38.832 56.8955L53.2686 65.1885V48.5732C53.13 48.517 53.0034 48.4385 52.8926 48.3418L38.8535 56.4072ZM22.2207 48.3877C22.1084 48.4756 21.9817 48.545 21.8447 48.5938V65.1445L36.2246 56.8828C36.204 56.7897 36.1924 56.6931 36.1924 56.5938C36.1924 56.5352 36.1968 56.4774 36.2041 56.4209L22.2207 48.3877ZM6.17676 56.5977L20.9463 65.0859V48.5938C20.7908 48.5384 20.6483 48.4566 20.5254 48.3516L6.17676 56.5977ZM54.5752 48.4033C54.4531 48.4949 54.3164 48.5684 54.167 48.6143V65.0215L68.8291 56.5947L54.5752 48.4033ZM5.72461 55.8232L20.0791 47.5732C20.0657 47.4975 20.0576 47.4195 20.0576 47.3398C20.0576 47.2765 20.0637 47.2143 20.0723 47.1533L5.72461 38.9102V55.8232ZM55.085 47.083C55.1013 47.1662 55.1113 47.2519 55.1113 47.3398C55.1113 47.4483 55.0958 47.5534 55.0713 47.6543L69.2783 55.8193V38.9297L55.085 47.083ZM22.71 47.0957C22.7247 47.1749 22.7334 47.2564 22.7334 47.3398C22.7334 47.4389 22.7208 47.5351 22.7002 47.6279L36.6152 55.6221C36.7401 55.5054 36.8872 55.4129 37.0498 55.3506V38.8555L22.71 47.0957ZM37.9473 55.3271C38.1308 55.3872 38.2956 55.4868 38.4346 55.6143L52.4551 47.5596C52.4432 47.4881 52.4355 47.4148 52.4355 47.3398C52.4356 47.2856 52.439 47.2322 52.4453 47.1797L37.9473 38.8477V55.3271ZM38.4043 38.0762L52.8477 46.377C52.9685 46.2617 53.1112 46.1693 53.2686 46.1055V30.0654C53.1061 29.9993 52.9591 29.9038 52.8359 29.7832L38.4043 38.0762ZM6.05469 38.0654L20.4902 46.3584C20.6209 46.2388 20.7758 46.1455 20.9463 46.085V29.96C20.8128 29.9059 20.69 29.8319 20.582 29.7402L6.05469 38.0654ZM22.2236 29.8115C22.1092 29.8927 21.9819 29.9568 21.8447 29.999V46.0859C21.9969 46.14 22.1367 46.2195 22.2578 46.3213L36.6045 38.0762L22.2236 29.8115ZM54.6289 29.8564C54.4945 29.968 54.3383 30.054 54.167 30.1064V46.0654C54.3365 46.1174 54.4916 46.2025 54.625 46.3125L68.9434 38.0869L54.6289 29.8564ZM38.373 20.5107C38.2487 20.6171 38.105 20.7005 37.9473 20.7559V37.3047L52.4424 28.9736C52.4375 28.9274 52.4356 28.8805 52.4355 28.833C52.4355 28.756 52.4435 28.6808 52.4561 28.6074L38.373 20.5107ZM22.7637 28.4893C22.7775 28.566 22.7861 28.6448 22.7861 28.7256C22.7861 28.8459 22.7692 28.9625 22.7393 29.0732L37.0498 37.2969V20.752C36.9046 20.6997 36.7703 20.6253 36.6533 20.5293L22.7637 28.4893ZM55.0674 28.5C55.0948 28.6065 55.1113 28.7179 55.1113 28.833C55.1113 28.9193 55.1016 29.0033 55.0859 29.085L69.2783 37.2441V20.333L55.0674 28.5ZM5.72461 37.2217L20.1338 28.9639C20.1198 28.8866 20.1113 28.8068 20.1113 28.7256C20.1113 28.6834 20.1133 28.6417 20.1172 28.6006L5.72461 20.3291V37.2217ZM38.8223 19.2861C38.8336 19.3559 38.8418 19.4271 38.8418 19.5C38.8418 19.5793 38.8327 19.6569 38.8193 19.7324L52.8965 27.8262C53.0063 27.7312 53.1318 27.6541 53.2686 27.5986V11.0078L38.8223 19.2861ZM6.17676 19.5547L20.5 27.7861C20.6261 27.6598 20.7778 27.5593 20.9463 27.4912V11.0654L6.17676 19.5547ZM54.167 27.5576C54.3103 27.6014 54.4422 27.6708 54.5605 27.7568L68.8291 19.5566L54.167 11.1299V27.5576ZM21.8447 27.4521C22.0203 27.5062 22.18 27.596 22.3164 27.7119L36.1914 19.7607C36.1747 19.6765 36.166 19.5892 36.166 19.5C36.166 19.4162 36.1746 19.3344 36.1895 19.2549L21.8447 11.0068V27.4521ZM37.9473 18.2441C38.1112 18.3016 38.26 18.3897 38.3877 18.502L52.7109 10.293L37.9473 1.80859V18.2441ZM22.3457 10.2607L36.6426 18.4805C36.7621 18.3802 36.9 18.3019 37.0498 18.248V1.81055L22.3457 10.2607ZM70.375 56.9707L70.25 57.043L37.625 75.793L37.251 76.0078V75.7188L4.75 57.041L4.625 56.9697V19.1816L4.75 19.1094L37.376 0.359375L37.501 0.288086L37.625 0.359375L70.25 19.1094L70.375 19.1816V56.9707Z" stroke="url(#paint10_linear_737_7593)" stroke-width="0.5"/>
<path fill-rule="evenodd" clip-rule="evenodd" d="M36.1841 39.488L16.6177 27.8887L16.6152 50.4495L36.1841 61.7336V39.488Z" fill="url(#paint11_linear_737_7593)"/>
<path fill-rule="evenodd" clip-rule="evenodd" d="M37.7823 35.8038L57.3267 24.1898L37.7823 12.918L18.2158 24.2021L37.7823 35.8038Z" fill="url(#paint12_linear_737_7593)"/>
<path fill-rule="evenodd" clip-rule="evenodd" d="M39.3848 39.4875V61.7307L58.9488 50.4491V27.8613L39.3848 39.4875Z" fill="url(#paint13_linear_737_7593)"/>
<defs>
<linearGradient id="paint0_linear_737_7593" x1="56.6327" y1="18.222" x2="10.1624" y2="65.7596" gradientUnits="userSpaceOnUse">
<stop offset="0.278846" stop-color="#33CFFF"/>
<stop offset="1" stop-color="#0D87C5"/>
</linearGradient>
<linearGradient id="paint1_linear_737_7593" x1="56.6327" y1="18.222" x2="10.1624" y2="65.7596" gradientUnits="userSpaceOnUse">
<stop offset="0.278846" stop-color="#33CFFF"/>
<stop offset="1" stop-color="#0D87C5"/>
</linearGradient>
<linearGradient id="paint2_linear_737_7593" x1="56.6327" y1="18.222" x2="10.1624" y2="65.7596" gradientUnits="userSpaceOnUse">
<stop offset="0.278846" stop-color="#33CFFF"/>
<stop offset="1" stop-color="#0D87C5"/>
</linearGradient>
<linearGradient id="paint3_linear_737_7593" x1="56.6327" y1="18.222" x2="10.1624" y2="65.7596" gradientUnits="userSpaceOnUse">
<stop offset="0.278846" stop-color="#33CFFF"/>
<stop offset="1" stop-color="#0D87C5"/>
</linearGradient>
<linearGradient id="paint4_linear_737_7593" x1="56.6327" y1="18.222" x2="10.1624" y2="65.7596" gradientUnits="userSpaceOnUse">
<stop offset="0.278846" stop-color="#33CFFF"/>
<stop offset="1" stop-color="#0D87C5"/>
</linearGradient>
<linearGradient id="paint5_linear_737_7593" x1="56.6327" y1="18.222" x2="10.1624" y2="65.7596" gradientUnits="userSpaceOnUse">
<stop offset="0.278846" stop-color="#33CFFF"/>
<stop offset="1" stop-color="#0D87C5"/>
</linearGradient>
<linearGradient id="paint6_linear_737_7593" x1="56.6327" y1="18.222" x2="10.1624" y2="65.7596" gradientUnits="userSpaceOnUse">
<stop offset="0.278846" stop-color="#33CFFF"/>
<stop offset="1" stop-color="#0D87C5"/>
</linearGradient>
<linearGradient id="paint7_linear_737_7593" x1="56.6327" y1="18.222" x2="10.1624" y2="65.7596" gradientUnits="userSpaceOnUse">
<stop offset="0.278846" stop-color="#33CFFF"/>
<stop offset="1" stop-color="#0D87C5"/>
</linearGradient>
<linearGradient id="paint8_linear_737_7593" x1="56.6327" y1="18.222" x2="10.1624" y2="65.7596" gradientUnits="userSpaceOnUse">
<stop offset="0.278846" stop-color="#33CFFF"/>
<stop offset="1" stop-color="#0D87C5"/>
</linearGradient>
<linearGradient id="paint9_linear_737_7593" x1="56.6327" y1="18.222" x2="10.1624" y2="65.7596" gradientUnits="userSpaceOnUse">
<stop offset="0.278846" stop-color="#33CFFF"/>
<stop offset="1" stop-color="#0D87C5"/>
</linearGradient>
<linearGradient id="paint10_linear_737_7593" x1="56.6327" y1="18.222" x2="10.1624" y2="65.7596" gradientUnits="userSpaceOnUse">
<stop offset="0.278846" stop-color="#33CFFF"/>
<stop offset="1" stop-color="#0D87C5"/>
</linearGradient>
<linearGradient id="paint11_linear_737_7593" x1="32.1377" y1="35.8516" x2="12.6322" y2="49.1125" gradientUnits="userSpaceOnUse">
<stop offset="0.278846" stop-color="#33CFFF"/>
<stop offset="1" stop-color="#0D87C5"/>
</linearGradient>
<linearGradient id="paint12_linear_737_7593" x1="49.2394" y1="18.3025" x2="37.9244" y2="41.0392" gradientUnits="userSpaceOnUse">
<stop offset="0.278846" stop-color="#33CFFF"/>
<stop offset="1" stop-color="#0D87C5"/>
</linearGradient>
<linearGradient id="paint13_linear_737_7593" x1="54.9034" y1="35.83" x2="35.3907" y2="49.0829" gradientUnits="userSpaceOnUse">
<stop offset="0.278846" stop-color="#33CFFF"/>
<stop offset="1" stop-color="#0D87C5"/>
</linearGradient>
</defs>
</svg>
