<svg width="489" height="102" viewBox="0 0 489 102" fill="none" xmlns="http://www.w3.org/2000/svg">
<path d="M368.814 68.8491C370.915 71.5457 371.966 74.6303 371.966 78.0933C371.966 83.0892 370.215 87.0537 366.721 89.9774C363.228 92.9012 358.353 94.3583 352.104 94.3583H324.243V34.5781H351.167C357.245 34.5781 361.997 35.969 365.443 38.7508C368.88 41.5326 370.593 45.3079 370.593 50.0767C370.593 53.5965 369.666 56.5202 367.829 58.8478C365.983 61.1755 363.522 62.7935 360.454 63.7018C363.919 64.4398 366.702 66.1619 368.804 68.8491H368.814ZM338.822 58.7627H348.365C350.751 58.7627 352.587 58.2423 353.865 57.1826C355.143 56.1323 355.778 54.59 355.778 52.5462C355.778 50.5025 355.143 48.9413 353.865 47.8626C352.587 46.784 350.751 46.2446 348.365 46.2446H338.822V58.7627ZM355.219 80.9508C356.554 79.8438 357.226 78.2447 357.226 76.1442C357.226 74.0436 356.525 72.3973 355.134 71.2051C353.742 70.0129 351.82 69.4168 349.378 69.4168H338.813V82.6161H349.548C351.991 82.6161 353.875 82.0673 355.21 80.9603L355.219 80.9508Z" fill="white"/>
<path d="M469.547 94.3583L457.363 76.0495L446.627 94.3583H430.098L449.268 63.9572L429.672 34.5781H446.627L458.641 52.6314L469.206 34.5781H485.735L466.735 64.7237L486.502 94.3583H469.547Z" fill="white"/>
<path d="M410.258 91.1896C395.833 91.1896 384.14 79.5269 384.14 65.139C384.14 50.7511 395.833 39.0884 410.258 39.0884C417.533 39.0884 424.11 42.0567 428.846 46.8458C423.39 39.4116 414.578 34.5781 404.63 34.5781C388.061 34.5781 374.629 47.9726 374.629 64.4985C374.629 81.0244 388.061 94.4188 404.627 94.4188C412.102 94.4188 418.934 91.6848 424.19 87.1715C420.156 89.7158 415.381 91.1925 410.258 91.1925" fill="white"/>
<path d="M419.236 43.2754C425.515 46.9435 429.737 53.7401 429.737 61.5212C429.737 73.1928 420.25 82.6522 408.551 82.6552C397.663 82.6552 388.7 74.4649 387.504 63.9261C387.484 64.3412 387.469 64.7564 387.469 65.1745C387.469 78.1034 397.979 88.5829 410.938 88.5829C423.898 88.5829 434.408 78.1004 434.408 65.1745C434.408 55.1605 428.102 46.6203 419.236 43.2754Z" fill="white"/>
<path d="M407.923 44.8965C400.047 44.8965 393.396 50.1214 391.259 57.2857C393.646 51.9718 398.995 48.271 405.211 48.271C413.655 48.271 420.499 55.0973 420.499 63.5189C420.499 71.9405 413.655 78.7667 405.211 78.7667C403.832 78.7667 402.494 78.5799 401.222 78.2388C403.282 79.0988 405.547 79.5733 407.923 79.5762C417.526 79.5762 425.306 71.81 425.306 62.2349C425.306 52.6568 417.523 44.8965 407.923 44.8965Z" fill="white"/>
<g clip-path="url(#clip0_737_7712)">
<path d="M195.301 34.5176L179.717 94.2977H162.09L152.552 54.9552L142.674 94.2977H125.047L109.889 34.5176H125.472L134.073 78.0327L144.718 34.5176H160.727L170.946 78.0327L179.632 34.5176H195.301Z" fill="white"/>
<path d="M217.187 34.5176V94.2977H202.625V34.5176H217.187Z" fill="white"/>
<path d="M258.232 94.2977L245.799 71.7311H242.308V94.2977H227.746V34.5176H252.186C256.898 34.5176 260.91 35.3408 264.231 36.9871C267.552 38.6335 270.031 40.8949 271.687 43.7618C273.333 46.6288 274.157 49.8269 274.157 53.3372C274.157 57.3112 273.031 60.8594 270.798 63.9819C268.555 67.1043 265.244 69.3184 260.872 70.6241L274.668 94.2977H258.232ZM242.308 61.4272H251.335C254.003 61.4272 255.999 60.7743 257.343 59.4685C258.677 58.1628 259.349 56.3177 259.349 53.9333C259.349 51.549 258.677 49.8742 257.343 48.5685C256.009 47.2627 254.003 46.6099 251.335 46.6099H242.308V61.4272Z" fill="white"/>
<path d="M297.83 46.1841V58.2763H317.331V69.5171H297.83V82.6312H319.886V94.2977H283.269V34.5176H319.886V46.1841H297.83Z" fill="white"/>
</g>
<path d="M49.9502 100.574L6.44922 75.5742V25.5762L49.9502 0.576172L93.4492 25.5762V75.5762L49.9502 100.576V100.574ZM7.24888 75.1177L49.9502 99.6592L92.6535 75.1177V26.0347L49.9502 1.49314L7.24888 26.0347V75.1177Z" fill="white"/>
<path d="M50.2128 0.987833H49.6817V100.067H50.2128V0.987833Z" fill="white"/>
<path d="M28.5273 13.1747L28.2616 13.6326L92.9467 50.8229L93.2124 50.3651L28.5273 13.1747Z" fill="white"/>
<path d="M71.4417 13.2237L6.68242 50.3367L6.94743 50.7949L71.7067 13.6819L71.4417 13.2237Z" fill="white"/>
<path d="M6.97736 25.5709L6.71179 26.0288L92.9004 75.5625L93.166 75.1046L6.97736 25.5709Z" fill="white"/>
<path d="M6.98225 50.3495L6.71675 50.8074L71.3707 87.9499L71.6362 87.4919L6.98225 50.3495Z" fill="white"/>
<path d="M92.9412 50.3627L28.3433 87.473L28.6088 87.9309L93.2067 50.8206L92.9412 50.3627Z" fill="white"/>
<path d="M92.9239 25.5774L6.76239 75.0955L7.02797 75.5534L93.1895 26.0353L92.9239 25.5774Z" fill="white"/>
<path d="M28.7416 13.4098H28.2105V87.6918H28.7416V13.4098Z" fill="white"/>
<path d="M71.8389 13.4488H71.3077V87.6411H71.8389V13.4488Z" fill="white"/>
<path d="M48.5037 25.8083C48.5037 25.0104 49.1525 24.3646 49.9541 24.3646C50.7557 24.3646 51.4045 25.0123 51.4045 25.8083C51.4045 26.6044 50.7557 27.2521 49.9541 27.2521C49.1525 27.2521 48.5037 26.6063 48.5037 25.8083Z" fill="white"/>
<path d="M70.1964 38.2518C70.1964 37.4538 70.8452 36.808 71.6468 36.808C72.4484 36.808 73.0971 37.4538 73.0971 38.2518C73.0971 39.0497 72.4484 39.6955 71.6468 39.6955C70.8452 39.6955 70.1964 39.0478 70.1964 38.2518Z" fill="white"/>
<path d="M27.0972 38.1094C27.0972 37.3114 27.746 36.6656 28.5476 36.6656C29.3492 36.6656 29.998 37.3114 29.998 38.1094C29.998 38.9073 29.3492 39.5531 28.5476 39.5531C27.746 39.5531 27.0972 38.9054 27.0972 38.1094Z" fill="white"/>
<path d="M70.1964 62.9279C70.1964 62.13 70.8452 61.4842 71.6468 61.4842C72.4484 61.4842 73.0971 62.1319 73.0971 62.9279C73.0971 63.7239 72.4484 64.3716 71.6468 64.3716C70.8452 64.3716 70.1964 63.7259 70.1964 62.9279Z" fill="white"/>
<path d="M27.0267 62.9279C27.0267 62.13 27.6754 61.4842 28.477 61.4842C29.2787 61.4842 29.9274 62.1319 29.9274 62.9279C29.9274 63.7239 29.2787 64.3716 28.477 64.3716C27.6754 64.3716 27.0267 63.7259 27.0267 62.9279Z" fill="white"/>
<path d="M48.539 75.266C48.539 74.468 49.1878 73.8223 49.9894 73.8223C50.791 73.8223 51.4398 74.47 51.4398 75.266C51.4398 76.062 50.791 76.7097 49.9894 76.7097C49.1878 76.7097 48.539 76.0639 48.539 75.266Z" fill="white"/>
<path d="M51.0684 76.5752C50.8927 76.719 50.687 76.8269 50.4629 76.8916V99.0752L70.3457 87.6494L51.0684 76.5752ZM29.5771 87.6621L49.4316 99.0723V76.8643C49.2344 76.796 49.0532 76.6945 48.8965 76.5635L29.5771 87.6621ZM51.6621 74.9746C51.6786 75.0693 51.6894 75.1663 51.6895 75.2656C51.6895 75.4192 51.6664 75.5675 51.6279 75.709L71.0576 86.8711V64.5146C70.8426 64.4355 70.6484 64.3154 70.4844 64.1621L51.6621 74.9746ZM29.5693 64.2236C29.401 64.3646 29.2057 64.4742 28.9912 64.542V86.8115L48.3447 75.6934C48.3091 75.5568 48.2891 75.4134 48.2891 75.2656C48.2891 75.1724 48.298 75.0812 48.3125 74.9922L29.5693 64.2236ZM8.01855 75.2725L27.9609 86.7324V64.542C27.7226 64.4665 27.508 64.3393 27.3281 64.1748L8.01855 75.2725ZM72.71 64.2471C72.5293 64.3917 72.3191 64.4998 72.0889 64.5615V86.6475L91.8877 75.2695L72.71 64.2471ZM7.49902 74.3838L26.8145 63.2822C26.7901 63.168 26.7764 63.0493 26.7764 62.9277C26.7764 62.828 26.7872 62.7307 26.8037 62.6357L7.49902 51.5449V74.3838ZM73.3008 62.543C73.3297 62.6667 73.3467 62.7952 73.3467 62.9277C73.3467 63.0873 73.3227 63.2413 73.2812 63.3877L92.4033 74.377V51.5693L73.3008 62.543ZM30.1357 62.5605C30.1621 62.6789 30.1777 62.8015 30.1777 62.9277C30.1777 63.075 30.1556 63.2173 30.1201 63.3535L48.7803 74.0732C48.961 73.8915 49.1839 73.7526 49.4316 73.667V51.4717L30.1357 62.5605ZM50.4629 73.6396C50.7387 73.7192 50.9858 73.8658 51.1846 74.0615L69.9805 63.2637C69.9586 63.1551 69.9463 63.0428 69.9463 62.9277C69.9463 62.8403 69.955 62.7547 69.9678 62.6709L50.4629 51.4609V73.6396ZM50.9893 50.5762L70.4268 61.7471C70.6018 61.5677 70.8175 61.4292 71.0576 61.3408V39.8379C70.8102 39.7466 70.5899 39.6014 70.4121 39.4141L50.9893 50.5762ZM7.85449 50.5625L27.2812 61.7227C27.4698 61.537 27.7021 61.3954 27.9609 61.3135V39.6963C27.7528 39.6199 27.5641 39.5055 27.4033 39.3594L7.85449 50.5625ZM29.5752 39.4561C29.403 39.5865 29.2059 39.6845 28.9912 39.7422V61.3135C29.2258 61.3876 29.437 61.5123 29.6152 61.6729L48.9229 50.5762L29.5752 39.4561ZM72.7764 39.5146C72.5818 39.6874 72.348 39.8154 72.0889 39.8848V61.2939C72.3457 61.3628 72.5779 61.4896 72.7715 61.6602L92.041 50.5908L72.7764 39.5146ZM51.1025 27.0537C50.9208 27.2201 50.7041 27.3485 50.4629 27.4238V49.6914L69.9639 38.4834C69.9534 38.4077 69.9463 38.3305 69.9463 38.252C69.9463 38.1339 69.9584 38.0184 69.9814 37.9072L51.1025 27.0537ZM30.209 37.751C30.2339 37.8665 30.248 37.9863 30.248 38.1094C30.248 38.2846 30.2213 38.4535 30.1719 38.6123L49.4316 49.6816V27.4189C49.2073 27.3469 49.0039 27.2299 48.8311 27.0781L30.209 37.751ZM73.2754 37.7676C73.3212 37.921 73.3467 38.0835 73.3467 38.252C73.3467 38.3821 73.3306 38.5083 73.3027 38.6299L92.4033 49.6113V26.7754L73.2754 37.7676ZM7.49902 49.5811L26.8867 38.4697C26.8614 38.3535 26.8477 38.2331 26.8477 38.1094C26.8477 38.0376 26.8526 37.9669 26.8613 37.8975L7.49902 26.7686V49.5811ZM51.6221 25.4795C51.6431 25.5859 51.6543 25.6961 51.6543 25.8086C51.6543 25.9296 51.6405 26.0473 51.6162 26.1611L70.4893 37.0117C70.6522 36.8608 70.8449 36.7423 71.0576 36.6641V14.3408L51.6221 25.4795ZM8.0166 25.8799L27.2988 36.9619C27.4798 36.7666 27.7056 36.614 27.9609 36.5205V14.4189L8.0166 25.8799ZM72.0889 36.6172C72.311 36.6766 72.515 36.779 72.6914 36.916L91.8896 25.8828L72.0889 14.5039V36.6172ZM28.9912 36.4756C29.2572 36.547 29.4969 36.6804 29.6943 36.8604L48.2998 26.1973C48.2704 26.0724 48.2539 25.9425 48.2539 25.8086C48.2539 25.6818 48.2685 25.5582 48.2949 25.4395L28.9912 14.3408V36.4756ZM50.4629 24.1914C50.7128 24.2694 50.9365 24.405 51.1221 24.5801L70.3984 13.5322L50.4629 2.07617V24.1914ZM29.5771 13.4893L48.8164 24.5508C48.9923 24.3928 49.2009 24.2704 49.4316 24.1963V2.0791L29.5771 13.4893ZM93.6992 75.7207L93.5742 75.793L50.0752 100.793L49.7002 101.008V100.719L6.32422 75.791L6.19922 75.7188V25.4316L6.32422 25.3594L49.8252 0.359375L49.9502 0.288086L50.0752 0.359375L93.5742 25.3594L93.6992 25.4316V75.7207Z" stroke="white" stroke-width="0.5"/>
<path fill-rule="evenodd" clip-rule="evenodd" d="M48.1954 52.4579L22.1068 36.9922L22.1035 67.0733L48.1954 82.1188V52.4579Z" fill="white"/>
<path fill-rule="evenodd" clip-rule="evenodd" d="M50.3269 47.5457L76.3861 32.0604L50.3269 17.0312L24.2383 32.0767L50.3269 47.5457Z" fill="white"/>
<path fill-rule="evenodd" clip-rule="evenodd" d="M52.4629 52.4567V82.1143L78.5482 67.0721V36.9551L52.4629 52.4567Z" fill="white"/>
<defs>
<clipPath id="clip0_737_7712">
<rect width="209.997" height="59.7801" fill="white" transform="translate(109.889 34.5176)"/>
</clipPath>
</defs>
</svg>
