<svg width="871" height="180" viewBox="0 0 871 180" fill="none" xmlns="http://www.w3.org/2000/svg">
<path d="M656.927 97.6191C660.67 102.422 662.542 107.916 662.542 114.085C662.542 122.983 659.422 130.045 653.2 135.253C646.978 140.46 638.294 143.056 627.165 143.056H577.539V36.5762H625.495C636.321 36.5762 644.786 39.0536 650.924 44.0085C657.045 48.9634 660.097 55.6879 660.097 64.182C660.097 70.4515 658.444 75.6591 655.173 79.8051C651.885 83.951 647.501 86.8329 642.037 88.4509C648.209 89.7654 653.166 92.8327 656.91 97.6191H656.927ZM603.507 79.6534H620.504C624.753 79.6534 628.025 78.7265 630.301 76.8389C632.577 74.9682 633.707 72.2211 633.707 68.5807C633.707 64.9404 632.577 62.1596 630.301 60.2383C628.025 58.317 624.753 57.3564 620.504 57.3564H603.507V79.6534ZM632.712 119.175C635.09 117.203 636.287 114.354 636.287 110.613C636.287 106.872 635.039 103.939 632.561 101.816C630.082 99.692 626.659 98.6303 622.308 98.6303H603.49V122.141H622.612C626.962 122.141 630.318 121.163 632.695 119.191L632.712 119.175Z" fill="#1D3366"/>
<path d="M836.352 143.056L814.65 110.444L795.528 143.056H766.086L800.233 88.9059L765.328 36.5762H795.528L816.927 68.7324L835.745 36.5762H865.187L831.344 90.271L866.552 143.056H836.352Z" fill="#1D3366"/>
<path d="M730.748 137.345C705.053 137.345 684.226 116.585 684.226 90.9745C684.226 65.3641 705.053 44.6045 730.748 44.6045C743.706 44.6045 755.42 49.8881 763.856 58.4126C754.138 45.1798 738.442 36.5762 720.723 36.5762C691.211 36.5762 667.285 60.4183 667.285 89.8344C667.285 119.25 691.211 143.093 720.718 143.093C734.031 143.093 746.2 138.226 755.563 130.192C748.377 134.721 739.872 137.35 730.748 137.35" fill="#1D3366"/>
<path d="M746.74 52.0586C757.924 58.5879 765.444 70.6858 765.444 84.5361C765.444 105.312 748.545 122.149 727.707 122.155C708.315 122.155 692.349 107.576 690.22 88.8168C690.183 89.5558 690.156 90.2947 690.156 91.039C690.156 114.052 708.876 132.706 731.96 132.706C755.043 132.706 773.763 114.047 773.763 91.039C773.763 73.2141 762.531 58.0125 746.74 52.0586Z" fill="#1D3366"/>
<path d="M726.588 54.9414C712.56 54.9414 700.714 64.2418 696.906 76.9942C701.159 67.5355 710.685 60.9481 721.758 60.9481C736.798 60.9481 748.988 73.0988 748.988 88.0892C748.988 103.08 736.798 115.23 721.758 115.23C719.301 115.23 716.918 114.898 714.652 114.291C718.322 115.822 722.357 116.666 726.588 116.671C743.693 116.671 757.551 102.847 757.551 85.8037C757.551 68.7548 743.688 54.9414 726.588 54.9414Z" fill="#1D3366"/>
<g clip-path="url(#clip0_737_7607)">
<path d="M347.868 36.7852L320.11 143.265H288.712L271.724 73.1884L254.129 143.265H222.732L195.732 36.7852H223.49L238.81 114.294L257.77 36.7852H286.286L304.487 114.294L319.959 36.7852H347.868Z" fill="#1D3366"/>
<path d="M386.849 36.7852V143.265H360.912V36.7852H386.849Z" fill="#1D3366"/>
<path d="M459.959 143.265L437.814 103.069H431.595V143.265H405.658V36.7852H449.19C457.583 36.7852 464.729 38.2514 470.644 41.1839C476.56 44.1164 480.975 48.1443 483.925 53.2509C486.857 58.3575 488.323 64.0539 488.323 70.3065C488.323 77.3849 486.318 83.7049 482.341 89.2665C478.346 94.8281 472.448 98.7718 464.661 101.098L489.234 143.265H459.959ZM431.595 84.7161H447.673C452.426 84.7161 455.982 83.5532 458.375 81.2275C460.751 78.9017 461.948 75.6153 461.948 71.3683C461.948 67.1212 460.751 64.1382 458.375 61.8124C455.999 59.4866 452.426 58.3238 447.673 58.3238H431.595V84.7161Z" fill="#1D3366"/>
<path d="M530.491 57.5654V79.104H565.226V99.1258H530.491V122.485H569.776V143.265H504.554V36.7852H569.776V57.5654H530.491Z" fill="#1D3366"/>
</g>
<path d="M88.9708 178.573L11.5391 134.073V45.0762L88.9708 0.576172L166.399 45.0762V134.076L88.9708 178.576V178.573ZM12.9625 133.26L88.9708 176.944L164.983 133.26V45.8923L88.9708 2.20837L12.9625 45.8923V133.26Z" fill="#1D3366"/>
<path d="M89.4383 1.30893H88.4929V177.67H89.4383V1.30893Z" fill="#1D3366"/>
<path d="M50.838 23.0016L50.3652 23.8166L165.505 90.0153L165.977 89.2004L50.838 23.0016Z" fill="#1D3366"/>
<path d="M127.226 23.0888L11.9542 89.1499L12.4259 89.9655L127.697 23.9044L127.226 23.0888Z" fill="#1D3366"/>
<path d="M12.4792 45.0668L12.0064 45.8819L165.422 134.052L165.895 133.237L12.4792 45.0668Z" fill="#1D3366"/>
<path d="M12.4879 89.1726L12.0153 89.9877L127.099 156.101L127.572 155.286L12.4879 89.1726Z" fill="#1D3366"/>
<path d="M165.495 89.1961L50.5105 155.252L50.983 156.068L165.967 90.0113L165.495 89.1961Z" fill="#1D3366"/>
<path d="M165.464 45.0783L12.0965 133.221L12.5692 134.036L165.937 45.8933L165.464 45.0783Z" fill="#1D3366"/>
<path d="M51.2196 23.42H50.2741V155.642H51.2196V23.42Z" fill="#1D3366"/>
<path d="M127.933 23.4895H126.987V155.552H127.933V23.4895Z" fill="#1D3366"/>
<path d="M86.3961 45.4894C86.3961 44.0691 87.5509 42.9196 88.9778 42.9196C90.4046 42.9196 91.5594 44.0726 91.5594 45.4894C91.5594 46.9063 90.4046 48.0593 88.9778 48.0593C87.5509 48.0593 86.3961 46.9098 86.3961 45.4894Z" fill="#1D3366"/>
<path d="M125.009 67.6387C125.009 66.2184 126.164 65.0689 127.591 65.0689C129.018 65.0689 130.172 66.2184 130.172 67.6387C130.172 69.0591 129.018 70.2086 127.591 70.2086C126.164 70.2086 125.009 69.0556 125.009 67.6387Z" fill="#1D3366"/>
<path d="M48.2925 67.3852C48.2925 65.9649 49.4473 64.8154 50.8742 64.8154C52.3011 64.8154 53.4558 65.9649 53.4558 67.3852C53.4558 68.8056 52.3011 69.9551 50.8742 69.9551C49.4473 69.9551 48.2925 68.8021 48.2925 67.3852Z" fill="#1D3366"/>
<path d="M125.009 111.562C125.009 110.142 126.164 108.992 127.591 108.992C129.018 108.992 130.172 110.145 130.172 111.562C130.172 112.979 129.018 114.132 127.591 114.132C126.164 114.132 125.009 112.983 125.009 111.562Z" fill="#1D3366"/>
<path d="M48.167 111.562C48.167 110.142 49.3217 108.992 50.7486 108.992C52.1755 108.992 53.3302 110.145 53.3302 111.562C53.3302 112.979 52.1755 114.132 50.7486 114.132C49.3217 114.132 48.167 112.983 48.167 111.562Z" fill="#1D3366"/>
<path d="M86.4589 133.524C86.4589 132.104 87.6137 130.954 89.0406 130.954C90.4675 130.954 91.6222 132.107 91.6222 133.524C91.6222 134.941 90.4675 136.094 89.0406 136.094C87.6137 136.094 86.4589 134.944 86.4589 133.524Z" fill="#1D3366"/>
<path d="M90.9355 135.614C90.587 135.928 90.1613 136.155 89.6885 136.266V176.243L125.666 155.566L90.9355 135.614ZM52.3164 155.589L88.2432 176.237V136.229C87.8191 136.105 87.4382 135.884 87.1221 135.594L52.3164 155.589ZM91.8008 132.906C91.8456 133.105 91.8721 133.312 91.8721 133.524C91.872 133.833 91.8204 134.129 91.7285 134.406L126.737 154.518V114.251C126.281 114.108 125.876 113.852 125.552 113.517L91.8008 132.906ZM52.668 113.63C52.3329 113.939 51.9245 114.167 51.4697 114.286V154.413L86.3418 134.379C86.2559 134.109 86.209 133.822 86.209 133.524C86.209 133.322 86.2309 133.125 86.2715 132.935L52.668 113.63ZM13.9414 133.534L50.0244 154.271V114.285C49.5264 114.154 49.0821 113.895 48.7314 113.54L13.9414 133.534ZM129.462 113.673C129.104 113.988 128.667 114.217 128.183 114.319V154.12L164.012 133.529L129.462 113.673ZM13.2129 132.29L48.0146 112.289C47.9527 112.057 47.917 111.814 47.917 111.562C47.917 111.349 47.9423 111.141 47.9873 110.941L13.2129 90.9629V132.29ZM130.31 110.783C130.381 111.031 130.423 111.292 130.423 111.562C130.423 111.881 130.366 112.187 130.268 112.473L164.732 132.28V91.0088L130.31 110.783ZM53.4756 110.813C53.5416 111.052 53.5801 111.303 53.5801 111.562C53.5801 111.86 53.533 112.146 53.4473 112.415L86.9277 131.648C87.2754 131.26 87.7285 130.969 88.2432 130.819V90.833L53.4756 110.813ZM89.6885 130.781C90.2542 130.913 90.7524 131.214 91.1309 131.628L124.849 112.258C124.792 112.035 124.759 111.803 124.759 111.562C124.759 111.371 124.778 111.183 124.814 111.002L89.6885 90.8145V130.781ZM90.4277 89.5762L125.458 109.709C125.796 109.324 126.236 109.031 126.737 108.873V70.3271C126.223 70.1652 125.773 69.8604 125.432 69.46L90.4277 89.5762ZM13.6494 89.5518L48.6582 109.663C49.0195 109.269 49.4905 108.979 50.0244 108.839V70.0752C49.5805 69.9362 49.184 69.6912 48.8643 69.3701L13.6494 89.5518ZM52.6875 69.5498C52.3417 69.8373 51.9264 70.0433 51.4697 70.1406V108.838C51.9608 108.967 52.4004 109.221 52.749 109.567L87.5342 89.5762L52.6875 69.5498ZM129.577 69.6475C129.2 70.0173 128.72 70.2819 128.183 70.3955V108.805C128.716 108.918 129.192 109.181 129.567 109.547L164.284 89.6025L129.577 69.6475ZM90.9951 47.4648C90.6412 47.8233 90.1923 48.0858 89.6885 48.2158V88.3389L124.808 68.1543C124.777 67.9871 124.759 67.8148 124.759 67.6387C124.759 67.3938 124.793 67.157 124.852 66.9307L90.9951 47.4648ZM53.6055 66.6533C53.6683 66.8868 53.706 67.1313 53.7061 67.3848C53.7061 67.7311 53.6398 68.0619 53.5254 68.3682L88.2432 88.3203V48.21C87.7704 48.0839 87.3467 47.8413 87.0059 47.5117L53.6055 66.6533ZM130.254 66.6885C130.361 66.9856 130.423 67.3046 130.423 67.6387C130.423 67.9055 130.382 68.1627 130.312 68.4072L164.732 88.1953V46.874L130.254 66.6885ZM13.2129 88.1396L48.1426 68.1211C48.0789 67.8863 48.043 67.6395 48.043 67.3848C48.043 67.2211 48.0591 67.0612 48.0859 66.9053L13.2129 46.8633V88.1396ZM91.7227 44.8086C91.7771 45.0269 91.8096 45.2543 91.8096 45.4893C91.8096 45.7397 91.7726 45.9816 91.7109 46.2129L125.56 65.6738C125.882 65.3433 126.285 65.0912 126.737 64.9492V24.7422L91.7227 44.8086ZM13.9404 45.6182L48.6904 65.5889C49.0348 65.1741 49.4963 64.8593 50.0244 64.6943V24.8799L13.9404 45.6182ZM128.183 64.8809C128.653 64.9804 129.079 65.1974 129.432 65.498L164.013 45.623L128.183 25.0312V64.8809ZM51.4697 64.6289C52.0179 64.7456 52.5066 65.0199 52.8867 65.4023L86.2598 46.2773C86.1869 46.0272 86.1465 45.763 86.1465 45.4893C86.1465 45.2285 86.1846 44.9769 86.251 44.7373L51.4697 24.7393V64.6289ZM89.6885 42.7627C90.207 42.8965 90.6669 43.1714 91.0254 43.5459L125.761 23.6396L89.6885 2.9082V42.7627ZM52.3154 23.5625L86.9785 43.4922C87.3239 43.1494 87.758 42.8969 88.2432 42.7676V2.91406L52.3154 23.5625ZM166.649 134.221L166.523 134.293L89.0957 178.793L88.7207 179.008V178.716L11.4141 134.289L11.2891 134.218V44.9316L11.4141 44.8594L88.8467 0.359375L88.9707 0.288086L89.0957 0.359375L166.523 44.8594L166.649 44.9316V134.221Z" stroke="#1D3366" stroke-width="0.5"/>
<path fill-rule="evenodd" clip-rule="evenodd" d="M85.8468 92.9274L39.4091 65.3984L39.4033 118.943L85.8468 145.724V92.9274Z" fill="#1D3366"/>
<path fill-rule="evenodd" clip-rule="evenodd" d="M89.6398 84.1829L136.025 56.6191L89.6398 29.8672L43.2021 56.6481L89.6398 84.1829Z" fill="#1D3366"/>
<path fill-rule="evenodd" clip-rule="evenodd" d="M93.4434 92.9248V145.715L139.875 118.94V65.332L93.4434 92.9248Z" fill="#1D3366"/>
<defs>
<clipPath id="clip0_737_7607">
<rect width="374.044" height="106.48" fill="white" transform="translate(195.732 36.7852)"/>
</clipPath>
</defs>
</svg>
