<svg width="500" height="502" viewBox="0 0 500 502" fill="none" xmlns="http://www.w3.org/2000/svg">
<path d="M250.005 500.567L32.5 375.566V125.576L250.005 0.576172L467.5 125.576V375.576L250.005 500.576V500.567ZM36.4983 373.284L250.005 495.991L463.521 373.284V127.869L250.005 5.161L36.4983 127.869V373.284Z" fill="#1D3366"/>
<path d="M251.318 2.63448H248.662V498.03H251.318V2.63448Z" fill="#1D3366"/>
<path d="M142.89 63.569L141.562 65.8582L464.987 251.81L466.316 249.521L142.89 63.569Z" fill="#1D3366"/>
<path d="M357.462 63.8138L33.666 249.379L34.9911 251.67L358.787 66.1048L357.462 63.8138Z" fill="#1D3366"/>
<path d="M35.1407 125.55L33.8128 127.839L464.756 375.508L466.084 373.218L35.1407 125.55Z" fill="#1D3366"/>
<path d="M35.1651 249.443L33.8377 251.732L357.107 437.445L358.435 435.155L35.1651 249.443Z" fill="#1D3366"/>
<path d="M464.96 249.509L141.97 435.06L143.298 437.35L466.287 251.798L464.96 249.509Z" fill="#1D3366"/>
<path d="M464.873 125.582L34.0659 373.173L35.3937 375.462L466.201 127.872L464.873 125.582Z" fill="#1D3366"/>
<path d="M143.962 64.7443H141.306V436.154H143.962V64.7443Z" fill="#1D3366"/>
<path d="M359.448 64.9394H356.793V435.901H359.448V64.9394Z" fill="#1D3366"/>
<path d="M242.773 126.737C242.773 122.747 246.016 119.518 250.024 119.518C254.033 119.518 257.276 122.757 257.276 126.737C257.276 130.717 254.033 133.956 250.024 133.956C246.016 133.956 242.773 130.727 242.773 126.737Z" fill="#1D3366"/>
<path d="M351.236 188.954C351.236 184.964 354.48 181.736 358.488 181.736C362.496 181.736 365.74 184.964 365.74 188.954C365.74 192.944 362.496 196.173 358.488 196.173C354.48 196.173 351.236 192.934 351.236 188.954Z" fill="#1D3366"/>
<path d="M135.74 188.242C135.74 184.252 138.984 181.023 142.992 181.023C147 181.023 150.244 184.252 150.244 188.242C150.244 192.232 147 195.461 142.992 195.461C138.984 195.461 135.74 192.222 135.74 188.242Z" fill="#1D3366"/>
<path d="M351.236 312.335C351.236 308.345 354.48 305.116 358.488 305.116C362.496 305.116 365.74 308.355 365.74 312.335C365.74 316.315 362.496 319.553 358.488 319.553C354.48 319.553 351.236 316.325 351.236 312.335Z" fill="#1D3366"/>
<path d="M135.387 312.335C135.387 308.345 138.631 305.116 142.639 305.116C146.647 305.116 149.891 308.355 149.891 312.335C149.891 316.315 146.647 319.553 142.639 319.553C138.631 319.553 135.387 316.325 135.387 312.335Z" fill="#1D3366"/>
<path d="M242.949 374.025C242.949 370.035 246.193 366.807 250.201 366.807C254.209 366.807 257.453 370.045 257.453 374.025C257.453 378.005 254.209 381.244 250.201 381.244C246.193 381.244 242.949 378.015 242.949 374.025Z" fill="#1D3366"/>
<path d="M255.466 379.342C254.42 380.369 253.073 381.091 251.568 381.367V494.804L353.99 435.942L255.466 379.342ZM146.136 436.007L248.411 494.787L248.412 381.278C247.048 380.946 245.83 380.245 244.873 379.284L146.136 436.007ZM257.438 372.065C257.609 372.69 257.703 373.347 257.703 374.025C257.703 374.971 257.523 375.876 257.2 376.709L356.543 433.779V319.548C355.088 319.161 353.809 318.35 352.846 317.256L257.438 372.065ZM147.97 317.587C146.962 318.601 145.665 319.328 144.212 319.637V433.484L243.17 376.634C242.866 375.822 242.699 374.943 242.699 374.025C242.699 373.376 242.782 372.745 242.938 372.145L147.97 317.587ZM38.3418 374.056L141.057 433.087V319.636C139.482 319.3 138.093 318.473 137.056 317.323L38.3418 374.056ZM363.689 317.712C362.616 318.742 361.236 319.456 359.698 319.705V432.662L461.702 374.04L363.689 317.712ZM36.748 371.343L135.487 314.596C135.26 313.883 135.138 313.123 135.138 312.335C135.138 311.654 135.23 310.994 135.401 310.367L36.748 253.692V371.343ZM365.59 309.935C365.847 310.688 365.989 311.495 365.989 312.335C365.989 313.311 365.799 314.242 365.456 315.098L463.271 371.313V253.818L365.59 309.935ZM149.77 310.017C150.009 310.747 150.141 311.526 150.141 312.335C150.141 313.249 149.974 314.125 149.671 314.936L244.362 369.334C245.378 368.082 246.791 367.165 248.412 366.771V253.325L149.77 310.017ZM251.568 366.683C253.336 367.007 254.886 367.947 255.985 369.271L351.31 314.51C351.1 313.822 350.986 313.092 350.986 312.335C350.986 311.715 351.062 311.112 351.205 310.536L251.567 253.273L251.568 366.683ZM253.192 250.578L352.598 307.708C353.584 306.464 354.96 305.541 356.543 305.12V196.167C354.923 195.735 353.52 194.777 352.529 193.488L253.192 250.578ZM37.5215 250.507L136.856 307.573C137.911 306.305 139.38 305.391 141.057 305.033V195.458C139.638 195.082 138.385 194.303 137.429 193.251L37.5215 250.507ZM148.035 193.772C146.988 194.719 145.671 195.373 144.212 195.61V305.032C145.768 305.363 147.144 306.174 148.179 307.302L246.878 250.578L148.035 193.772ZM363.99 194.03C362.88 195.223 361.384 196.052 359.698 196.324V304.964C361.373 305.235 362.86 306.058 363.968 307.238L462.47 250.65L363.99 194.03ZM255.61 131.718C254.565 132.88 253.16 133.714 251.568 134.046V247.883L351.179 190.635C351.054 190.094 350.986 189.532 350.986 188.954C350.986 188.185 351.102 187.443 351.318 186.745L255.61 131.718ZM150.138 185.967C150.368 186.684 150.494 187.448 150.494 188.242C150.494 189.295 150.274 190.295 149.88 191.203L248.411 247.831L248.412 134.03C246.91 133.703 245.577 132.93 244.561 131.854L150.138 185.967ZM365.415 186.082C365.785 186.966 365.989 187.936 365.989 188.954C365.989 189.784 365.851 190.581 365.601 191.326L463.271 247.481L463.271 129.843L365.415 186.082ZM36.748 247.324L135.85 190.529C135.617 189.808 135.49 189.04 135.49 188.242C135.49 187.699 135.549 187.169 135.659 186.659L36.748 129.813V247.324ZM257.213 124.603C257.416 125.279 257.526 125.996 257.526 126.737C257.526 127.522 257.404 128.278 257.178 128.989L352.868 184.006C353.829 182.925 355.1 182.124 356.543 181.74V67.6777L257.213 124.603ZM38.3379 127.099L136.97 183.783C137.966 182.451 139.399 181.464 141.057 181.025V68.0645L38.3379 127.099ZM359.698 181.583C361.196 181.825 362.544 182.507 363.605 183.493L461.706 127.113L359.698 68.4893V181.583ZM144.212 180.873C145.93 181.152 147.451 182.011 148.566 183.242L242.929 129.163C242.667 128.403 242.522 127.587 242.522 126.737C242.522 125.923 242.654 125.14 242.896 124.407L144.212 67.6699V180.873ZM251.568 119.427C253.202 119.767 254.638 120.639 255.691 121.849L354.256 65.3623L251.568 6.34766V119.427ZM146.134 65.1455L244.488 121.694C245.513 120.579 246.874 119.777 248.412 119.442L248.411 6.36426L146.134 65.1455ZM467.75 375.721L467.625 375.793L250.13 500.793L249.755 501.008V500.711L32.375 375.783L32.25 375.711V125.432L32.375 125.359L249.88 0.359375L250.005 0.288086L250.13 0.359375L467.625 125.359L467.75 125.432V375.721Z" stroke="#1D3366" stroke-width="0.5"/>
<path fill-rule="evenodd" clip-rule="evenodd" d="M241.231 259.987L110.788 182.658L110.771 333.064L241.231 408.291V259.987Z" fill="#1D3366"/>
<path fill-rule="evenodd" clip-rule="evenodd" d="M251.886 235.426L382.183 157.999L251.886 82.8535L121.443 158.081L251.886 235.426Z" fill="#1D3366"/>
<path fill-rule="evenodd" clip-rule="evenodd" d="M262.569 259.979V408.267L392.996 333.056V182.471L262.569 259.979Z" fill="#1D3366"/>
</svg>
