<svg width="250" height="252" viewBox="0 0 250 252" fill="none" xmlns="http://www.w3.org/2000/svg">
<path d="M125.002 250.571L16.25 188.071V63.0762L125.002 0.576172L233.75 63.0762V188.076L125.002 250.576V250.571ZM18.2492 186.93L125.002 248.284L231.761 186.93V64.2224L125.002 2.86859L18.2492 64.2224V186.93Z" fill="#1D3366"/>
<path d="M125.659 1.60532H124.331V249.303H125.659V1.60532Z" fill="#1D3366"/>
<path d="M71.4452 32.0726L70.7811 33.2172L232.494 126.193L233.158 125.048L71.4452 32.0726Z" fill="#1D3366"/>
<path d="M178.731 32.195L16.833 124.978L17.4955 126.123L179.394 33.3405L178.731 32.195Z" fill="#1D3366"/>
<path d="M17.5704 63.063L16.9064 64.2077L232.378 188.042L233.042 186.897L17.5704 63.063Z" fill="#1D3366"/>
<path d="M17.5826 125.009L16.9188 126.154L178.554 219.01L179.217 217.866L17.5826 125.009Z" fill="#1D3366"/>
<path d="M232.48 125.042L70.9851 217.818L71.6488 218.963L233.144 126.187L232.48 125.042Z" fill="#1D3366"/>
<path d="M232.437 63.0792L17.0329 186.874L17.6969 188.019L233.101 64.2239L232.437 63.0792Z" fill="#1D3366"/>
<path d="M71.981 32.6602H70.6532V218.365H71.981V32.6602Z" fill="#1D3366"/>
<path d="M179.724 32.7578H178.396V218.239H179.724V32.7578Z" fill="#1D3366"/>
<path d="M121.386 63.6566C121.386 61.6617 123.008 60.0473 125.012 60.0473C127.016 60.0473 128.638 61.6666 128.638 63.6566C128.638 65.6466 127.016 67.2659 125.012 67.2659C123.008 67.2659 121.386 65.6515 121.386 63.6566Z" fill="#1D3366"/>
<path d="M175.618 94.7652C175.618 92.7703 177.24 91.1558 179.244 91.1558C181.248 91.1558 182.87 92.7703 182.87 94.7652C182.87 96.7601 181.248 98.3745 179.244 98.3745C177.24 98.3745 175.618 96.7552 175.618 94.7652Z" fill="#1D3366"/>
<path d="M67.8701 94.4091C67.8701 92.4142 69.4919 90.7998 71.496 90.7998C73.5 90.7998 75.1219 92.4142 75.1219 94.4091C75.1219 96.404 73.5 98.0185 71.496 98.0185C69.4919 98.0185 67.8701 96.3991 67.8701 94.4091Z" fill="#1D3366"/>
<path d="M175.618 156.456C175.618 154.461 177.24 152.846 179.244 152.846C181.248 152.846 182.87 154.465 182.87 156.456C182.87 158.446 181.248 160.065 179.244 160.065C177.24 160.065 175.618 158.45 175.618 156.456Z" fill="#1D3366"/>
<path d="M67.6937 156.456C67.6937 154.461 69.3155 152.846 71.3196 152.846C73.3236 152.846 74.9455 154.465 74.9455 156.456C74.9455 158.446 73.3236 160.065 71.3196 160.065C69.3155 160.065 67.6937 158.45 67.6937 156.456Z" fill="#1D3366"/>
<path d="M121.475 187.301C121.475 185.306 123.096 183.691 125.1 183.691C127.104 183.691 128.726 185.311 128.726 187.301C128.726 189.291 127.104 190.91 125.1 190.91C123.096 190.91 121.475 189.296 121.475 187.301Z" fill="#1D3366"/>
<path d="M127.751 190.113C127.245 190.586 126.613 190.925 125.909 191.074V247.475L176.743 218.259L127.751 190.113ZM73.3184 218.291L124.081 247.466V191.024C123.447 190.853 122.878 190.525 122.417 190.085L73.3184 218.291ZM128.864 186.382C128.937 186.676 128.977 186.984 128.977 187.301C128.977 187.752 128.897 188.184 128.754 188.587L178.146 216.961V160.156C177.467 159.957 176.866 159.579 176.397 159.075L128.864 186.382ZM74.0039 159.236C73.5173 159.702 72.9096 160.043 72.2314 160.206V216.813L121.432 188.548C121.298 188.157 121.225 187.737 121.225 187.301C121.225 186.999 121.26 186.705 121.326 186.423L74.0039 159.236ZM19.4229 187.315L70.4033 216.615V160.205C69.6647 160.027 69.0093 159.639 68.5039 159.107L19.4229 187.315ZM181.863 159.299C181.344 159.774 180.694 160.108 179.974 160.245V216.403L230.6 187.308L181.863 159.299ZM18.499 185.742L67.5957 157.526C67.4974 157.186 67.4434 156.827 67.4434 156.455C67.4434 156.137 67.4819 155.828 67.5547 155.532L18.499 127.351V185.742ZM182.946 155.312C183.059 155.674 183.12 156.057 183.12 156.455C183.12 156.921 183.036 157.368 182.884 157.782L231.511 185.729V127.414L182.946 155.312ZM75.0342 155.354C75.1385 155.703 75.1953 156.073 75.1953 156.455C75.1953 156.89 75.121 157.309 74.9873 157.699L122.152 184.794C122.651 184.213 123.319 183.782 124.081 183.576V127.167L75.0342 155.354ZM125.909 183.525C126.744 183.702 127.478 184.147 128.02 184.764L175.508 157.482C175.418 157.155 175.368 156.811 175.368 156.455C175.368 156.168 175.4 155.888 175.46 155.618L125.909 127.141V183.525ZM126.847 125.577L176.269 153.98C176.753 153.404 177.403 152.972 178.146 152.754V98.4658C177.385 98.2421 176.721 97.7928 176.233 97.1943L126.847 125.577ZM19.0107 125.542L68.4004 153.915C68.9182 153.326 69.6136 152.895 70.4033 152.705V98.1113C69.7419 97.918 69.1545 97.5541 68.6914 97.0703L19.0107 125.542ZM74.0322 97.3262C73.5286 97.7606 72.9122 98.0682 72.2314 98.1982V152.704C72.9605 152.879 73.6081 153.261 74.1113 153.781L123.188 125.577L74.0322 97.3262ZM182.018 97.46C181.475 98.0133 180.768 98.4042 179.974 98.5547V152.665C180.762 152.815 181.465 153.203 182.006 153.75L230.983 125.613L182.018 97.46ZM127.829 66.3047C127.319 66.8424 126.656 67.2337 125.909 67.4102V124.013L175.446 95.543C175.395 95.2919 175.368 95.0318 175.368 94.7656C175.368 94.4032 175.418 94.0521 175.512 93.7197L127.829 66.3047ZM75.2168 93.3311C75.3165 93.6733 75.3721 94.0347 75.3721 94.4092C75.3721 94.9137 75.273 95.3945 75.0967 95.8359L124.081 123.987V67.4023C123.378 67.2299 122.751 66.8679 122.258 66.3721L75.2168 93.3311ZM182.863 93.3838C183.028 93.8127 183.12 94.2785 183.12 94.7656C183.12 95.1583 183.059 95.5367 182.95 95.8936L231.511 123.813V65.4258L182.863 93.3838ZM18.499 123.734L67.7764 95.4941C67.6751 95.1498 67.6201 94.7858 67.6201 94.4092C67.6201 94.1604 67.6444 93.9172 67.6895 93.6816L18.499 65.4111V123.734ZM128.754 62.6494C128.841 62.9705 128.888 63.308 128.888 63.6562C128.888 64.0265 128.834 64.3845 128.736 64.7236L176.409 92.1328C176.876 91.635 177.473 91.2609 178.146 91.0635V34.3428L128.754 62.6494ZM19.4199 63.8379L68.4531 92.0176C68.9447 91.3982 69.6228 90.9327 70.4033 90.7051V34.5361L19.4199 63.8379ZM179.974 90.9746C180.674 91.1073 181.307 91.4267 181.819 91.8799L230.602 63.8447L179.974 34.748V90.9746ZM72.2314 90.6191C73.0412 90.7738 73.76 91.1801 74.3057 91.752L121.312 64.8125C121.198 64.4477 121.137 64.059 121.137 63.6562C121.137 63.2716 121.193 62.9002 121.298 62.5498L72.2314 34.3389V90.6191ZM125.909 59.9023C126.677 60.0838 127.358 60.4916 127.873 61.0527L176.877 32.9688L125.909 3.67676V59.9023ZM73.3184 32.8604L122.222 60.9775C122.72 60.4629 123.361 60.0868 124.081 59.9102V3.68555L73.3184 32.8604ZM234 188.221L233.875 188.293L125.127 250.793L124.753 251.008V250.716L16.125 188.288L16 188.216V62.9316L16.125 62.8594L124.878 0.359375L125.003 0.288086L125.127 0.359375L233.875 62.8594L234 62.9316V188.221Z" stroke="#1D3366" stroke-width="0.5"/>
<path fill-rule="evenodd" clip-rule="evenodd" d="M120.615 130.282L55.3939 91.6172L55.3857 166.82L120.615 204.434V130.282Z" fill="#1D3366"/>
<path fill-rule="evenodd" clip-rule="evenodd" d="M125.943 118.001L191.091 79.2877L125.943 41.7148L60.7217 79.3285L125.943 118.001Z" fill="#1D3366"/>
<path fill-rule="evenodd" clip-rule="evenodd" d="M131.285 130.277V204.421L196.498 166.816V91.5234L131.285 130.277Z" fill="#1D3366"/>
</svg>
