<svg width="491" height="601" viewBox="0 0 491 601" fill="none" xmlns="http://www.w3.org/2000/svg">
<path d="M328.668 570.376C331.144 573.554 332.383 577.189 332.383 581.27C332.383 587.157 330.319 591.829 326.202 595.275C322.085 598.72 316.34 600.438 308.976 600.438H276.143V529.988H307.872C315.034 529.988 320.635 531.627 324.696 534.906C328.746 538.184 330.765 542.633 330.765 548.253C330.765 552.401 329.672 555.846 327.507 558.59C325.332 561.333 322.431 563.239 318.816 564.31C322.9 565.18 326.18 567.209 328.656 570.376H328.668ZM293.324 558.489H304.569C307.381 558.489 309.545 557.876 311.051 556.627C312.558 555.389 313.305 553.572 313.305 551.163C313.305 548.755 312.558 546.915 311.051 545.644C309.545 544.373 307.381 543.737 304.569 543.737H293.324V558.489ZM312.647 584.637C314.22 583.333 315.012 581.448 315.012 578.973C315.012 576.497 314.186 574.557 312.546 573.152C310.906 571.747 308.642 571.045 305.763 571.045H293.312V586.6H305.964C308.842 586.6 311.063 585.953 312.636 584.648L312.647 584.637Z" fill="#1D3366"/>
<path d="M447.379 600.438L433.021 578.861L420.369 600.438H400.89L423.482 564.611L400.388 529.988H420.369L434.527 551.264L446.977 529.988H466.457L444.066 565.514L467.36 600.438H447.379Z" fill="#1D3366"/>
<path d="M377.509 596.659C360.509 596.659 346.729 582.924 346.729 565.979C346.729 549.035 360.509 535.3 377.509 535.3C386.082 535.3 393.832 538.796 399.414 544.436C392.984 535.681 382.6 529.988 370.876 529.988C351.35 529.988 335.521 545.763 335.521 565.225C335.521 584.688 351.35 600.462 370.873 600.462C379.681 600.462 387.732 597.242 393.927 591.927C389.172 594.923 383.546 596.662 377.509 596.662" fill="#1D3366"/>
<path d="M388.088 540.23C395.488 544.55 400.463 552.555 400.463 561.718C400.463 575.464 389.283 586.604 375.496 586.608C362.666 586.608 352.102 576.962 350.693 564.551C350.669 565.039 350.651 565.528 350.651 566.021C350.651 581.247 363.037 593.589 378.309 593.589C393.582 593.589 405.968 581.244 405.968 566.021C405.968 554.227 398.536 544.17 388.088 540.23Z" fill="#1D3366"/>
<path d="M374.756 542.139C365.475 542.139 357.637 548.292 355.118 556.729C357.932 550.471 364.235 546.113 371.561 546.113C381.511 546.113 389.577 554.152 389.577 564.07C389.577 573.988 381.511 582.027 371.561 582.027C369.935 582.027 368.359 581.807 366.859 581.406C369.287 582.418 371.957 582.977 374.756 582.981C386.073 582.981 395.242 573.834 395.242 562.558C395.242 551.278 386.07 542.139 374.756 542.139Z" fill="#1D3366"/>
<g clip-path="url(#clip0_1198_1547)">
<path d="M124.186 530.127L105.821 600.576H85.047L73.8072 554.212L62.166 600.576H41.3925L23.5293 530.127H41.8943L52.0302 581.408L64.5746 530.127H83.4413L95.484 581.408L105.72 530.127H124.186Z" fill="#1D3366"/>
<path d="M149.977 530.127V600.576H132.816V530.127H149.977Z" fill="#1D3366"/>
<path d="M198.348 600.576L183.696 573.982H179.582V600.576H162.421V530.127H191.223C196.776 530.127 201.504 531.097 205.418 533.037C209.331 534.977 212.253 537.642 214.204 541.021C216.144 544.4 217.114 548.169 217.114 552.305C217.114 556.989 215.788 561.17 213.156 564.85C210.513 568.53 206.611 571.139 201.459 572.678L217.717 600.576H198.348ZM179.582 561.839H190.219C193.364 561.839 195.717 561.07 197.3 559.531C198.872 557.992 199.664 555.818 199.664 553.008C199.664 550.198 198.872 548.224 197.3 546.686C195.728 545.147 193.364 544.377 190.219 544.377H179.582V561.839Z" fill="#1D3366"/>
<path d="M245.013 543.876V558.126H267.995V571.373H245.013V586.828H271.005V600.576H227.853V530.127H271.005V543.876H245.013Z" fill="#1D3366"/>
</g>
<path d="M245.102 490.763L31.8623 368.214V123.125L245.102 0.576172L458.333 123.125V368.223L245.102 490.772V490.763ZM35.7822 365.976L245.102 486.277L454.432 365.976V125.373L245.102 5.0711L35.7822 125.373V365.976Z" fill="url(#paint0_linear_1198_1547)"/>
<path d="M246.39 2.59412H243.786V488.276H246.39V2.59412Z" fill="url(#paint1_linear_1198_1547)"/>
<path d="M140.088 62.3339L138.786 64.5782L455.87 246.884L457.172 244.639L140.088 62.3339Z" fill="url(#paint2_linear_1198_1547)"/>
<path d="M350.453 62.5738L33.0055 244.5L34.3045 246.747L351.752 64.8199L350.453 62.5738Z" fill="url(#paint3_linear_1198_1547)"/>
<path d="M34.4512 123.099L33.1494 125.344L455.643 368.156L456.945 365.912L34.4512 123.099Z" fill="url(#paint4_linear_1198_1547)"/>
<path d="M34.4752 244.563L33.1737 246.808L350.105 428.879L351.406 426.634L34.4752 244.563Z" fill="url(#paint5_linear_1198_1547)"/>
<path d="M455.843 244.628L139.186 426.541L140.487 428.786L457.144 246.872L455.843 244.628Z" fill="url(#paint6_linear_1198_1547)"/>
<path d="M455.758 123.131L33.3975 365.867L34.6993 368.112L457.06 125.376L455.758 123.131Z" fill="url(#paint7_linear_1198_1547)"/>
<path d="M141.139 63.4861H138.535V427.614H141.139V63.4861Z" fill="url(#paint8_linear_1198_1547)"/>
<path d="M352.4 63.6774H349.796V427.365H352.4V63.6774Z" fill="url(#paint9_linear_1198_1547)"/>
<path d="M238.012 124.263C238.012 120.352 241.192 117.186 245.122 117.186C249.051 117.186 252.231 120.361 252.231 124.263C252.231 128.165 249.051 131.34 245.122 131.34C241.192 131.34 238.012 128.175 238.012 124.263Z" fill="#33CFFF"/>
<path d="M344.349 185.261C344.349 181.349 347.529 178.183 351.458 178.183C355.388 178.183 358.568 181.349 358.568 185.261C358.568 189.172 355.388 192.338 351.458 192.338C347.529 192.338 344.349 189.163 344.349 185.261Z" fill="#33CFFF"/>
<path d="M133.078 184.562C133.078 180.651 136.258 177.485 140.188 177.485C144.117 177.485 147.297 180.651 147.297 184.562C147.297 188.474 144.117 191.64 140.188 191.64C136.258 191.64 133.078 188.464 133.078 184.562Z" fill="#33CFFF"/>
<path d="M344.349 306.222C344.349 302.31 347.529 299.145 351.458 299.145C355.388 299.145 358.568 302.32 358.568 306.222C358.568 310.124 355.388 313.299 351.458 313.299C347.529 313.299 344.349 310.134 344.349 306.222Z" fill="#33CFFF"/>
<path d="M132.732 306.222C132.732 302.31 135.912 299.145 139.842 299.145C143.771 299.145 146.951 302.32 146.951 306.222C146.951 310.124 143.771 313.299 139.842 313.299C135.912 313.299 132.732 310.134 132.732 306.222Z" fill="#33CFFF"/>
<path d="M238.185 366.703C238.185 362.791 241.365 359.626 245.295 359.626C249.224 359.626 252.404 362.801 252.404 366.703C252.404 370.605 249.224 373.78 245.295 373.78C241.365 373.78 238.185 370.614 238.185 366.703Z" fill="#33CFFF"/>
<path d="M250.457 371.921C249.432 372.926 248.114 373.634 246.64 373.905V485.104L347.038 427.405L250.457 371.921ZM143.28 427.469L243.535 485.089L243.536 373.817C242.2 373.492 241.008 372.806 240.07 371.865L143.28 427.469ZM252.396 364.784C252.563 365.396 252.654 366.039 252.654 366.703C252.654 367.63 252.479 368.515 252.163 369.332L349.546 425.276V313.298C348.122 312.918 346.869 312.124 345.925 311.053L252.396 364.784ZM145.068 311.378C144.081 312.37 142.812 313.082 141.389 313.386V424.987L238.395 369.259C238.097 368.463 237.935 367.602 237.935 366.703C237.935 366.067 238.016 365.45 238.169 364.861L145.068 311.378ZM37.6006 366.731L138.285 424.598V313.383C136.744 313.053 135.382 312.245 134.366 311.119L37.6006 366.731ZM356.559 311.499C355.507 312.507 354.156 313.208 352.649 313.452V424.182L452.638 366.718L356.559 311.499ZM36.0322 364.063L132.823 308.437C132.601 307.738 132.482 306.994 132.482 306.222C132.482 305.555 132.573 304.909 132.74 304.295L36.0322 248.738V364.063ZM358.428 303.871C358.679 304.609 358.817 305.4 358.817 306.222C358.817 307.178 358.631 308.091 358.296 308.929L454.183 364.036V248.861L358.428 303.871ZM146.839 303.951C147.073 304.666 147.201 305.429 147.201 306.222C147.201 307.117 147.038 307.976 146.742 308.77L239.569 362.097C240.565 360.871 241.949 359.974 243.536 359.587V248.379L146.839 303.951ZM246.64 359.499C248.371 359.818 249.889 360.739 250.967 362.036L344.415 308.352C344.21 307.678 344.099 306.963 344.099 306.222C344.099 305.615 344.173 305.026 344.312 304.462L246.64 248.327V359.499ZM248.237 245.677L345.683 301.68C346.65 300.462 347.996 299.558 349.546 299.145V192.336C347.96 191.912 346.587 190.974 345.615 189.712L248.237 245.677ZM36.7949 245.606L134.172 301.548C135.206 300.306 136.644 299.412 138.285 299.061V191.64C136.897 191.27 135.67 190.509 134.733 189.479L36.7949 245.606ZM145.133 189.99C144.107 190.917 142.817 191.558 141.389 191.791V299.058C142.912 299.382 144.26 300.177 145.273 301.281L242.026 245.676L145.133 189.99ZM356.854 190.243C355.765 191.411 354.3 192.223 352.649 192.49V298.991C354.289 299.257 355.745 300.063 356.831 301.219L453.392 245.747L356.854 190.243ZM250.6 129.153C249.575 130.291 248.198 131.107 246.64 131.433L246.639 243.024L344.287 186.905C344.165 186.376 344.099 185.826 344.099 185.261C344.099 184.507 344.212 183.78 344.424 183.097L250.6 129.153ZM147.2 182.335C147.425 183.037 147.547 183.785 147.547 184.562C147.547 185.594 147.333 186.574 146.947 187.464L243.536 242.975V131.418C242.065 131.097 240.761 130.339 239.765 129.287L147.2 182.335ZM358.256 182.447C358.617 183.313 358.817 184.263 358.817 185.261C358.817 186.073 358.682 186.854 358.438 187.584L454.183 242.632V127.317L358.256 182.447ZM36.0322 242.477L133.18 186.802C132.952 186.096 132.828 185.343 132.828 184.562C132.828 184.031 132.885 183.513 132.993 183.014L36.0322 127.289V242.477ZM252.175 122.174C252.373 122.836 252.481 123.538 252.481 124.264C252.481 125.032 252.36 125.772 252.14 126.469L345.947 180.402C346.889 179.344 348.133 178.56 349.546 178.184V66.3721L252.175 122.174ZM37.5967 124.618L134.283 180.186C135.26 178.882 136.662 177.914 138.285 177.483V66.75L37.5967 124.618ZM352.649 178.029C354.116 178.267 355.436 178.936 356.476 179.9L452.642 124.632L352.649 67.166V178.029ZM141.389 177.333C143.071 177.607 144.561 178.449 145.653 179.654L238.159 126.64C237.903 125.895 237.762 125.096 237.762 124.264C237.762 123.467 237.89 122.699 238.126 121.981L141.389 66.3623V177.333ZM246.64 117.093C248.239 117.427 249.647 118.279 250.68 119.464L347.3 64.0918L246.64 6.24316V117.093ZM143.278 63.8799L239.693 119.312C240.698 118.221 242.031 117.436 243.536 117.107L243.535 6.25879L143.278 63.8799ZM458.583 368.368L458.458 368.44L245.227 490.989L244.853 491.204V490.907L31.7373 368.431L31.6123 368.358V122.98L31.7373 122.908L244.978 0.359375L245.103 0.288086L245.227 0.359375L458.458 122.908L458.583 122.98V368.368Z" stroke="url(#paint10_linear_1198_1547)" stroke-width="0.5"/>
<path fill-rule="evenodd" clip-rule="evenodd" d="M236.498 254.902L108.613 179.09L108.597 326.546L236.498 400.299V254.902Z" fill="url(#paint11_linear_1198_1547)"/>
<path fill-rule="evenodd" clip-rule="evenodd" d="M246.943 230.825L374.684 154.917L246.943 81.2441L119.058 154.996L246.943 230.825Z" fill="url(#paint12_linear_1198_1547)"/>
<path fill-rule="evenodd" clip-rule="evenodd" d="M257.418 254.894V400.275L385.287 326.538V178.906L257.418 254.894Z" fill="url(#paint13_linear_1198_1547)"/>
<defs>
<linearGradient id="paint0_linear_1198_1547" x1="370.148" y1="115.908" x2="66.4206" y2="426.612" gradientUnits="userSpaceOnUse">
<stop offset="0.278846" stop-color="#33CFFF"/>
<stop offset="1" stop-color="#0D87C5"/>
</linearGradient>
<linearGradient id="paint1_linear_1198_1547" x1="370.148" y1="115.908" x2="66.4206" y2="426.612" gradientUnits="userSpaceOnUse">
<stop offset="0.278846" stop-color="#33CFFF"/>
<stop offset="1" stop-color="#0D87C5"/>
</linearGradient>
<linearGradient id="paint2_linear_1198_1547" x1="370.148" y1="115.908" x2="66.4206" y2="426.612" gradientUnits="userSpaceOnUse">
<stop offset="0.278846" stop-color="#33CFFF"/>
<stop offset="1" stop-color="#0D87C5"/>
</linearGradient>
<linearGradient id="paint3_linear_1198_1547" x1="370.148" y1="115.908" x2="66.4206" y2="426.612" gradientUnits="userSpaceOnUse">
<stop offset="0.278846" stop-color="#33CFFF"/>
<stop offset="1" stop-color="#0D87C5"/>
</linearGradient>
<linearGradient id="paint4_linear_1198_1547" x1="370.148" y1="115.908" x2="66.4206" y2="426.612" gradientUnits="userSpaceOnUse">
<stop offset="0.278846" stop-color="#33CFFF"/>
<stop offset="1" stop-color="#0D87C5"/>
</linearGradient>
<linearGradient id="paint5_linear_1198_1547" x1="370.148" y1="115.908" x2="66.4206" y2="426.612" gradientUnits="userSpaceOnUse">
<stop offset="0.278846" stop-color="#33CFFF"/>
<stop offset="1" stop-color="#0D87C5"/>
</linearGradient>
<linearGradient id="paint6_linear_1198_1547" x1="370.148" y1="115.908" x2="66.4206" y2="426.612" gradientUnits="userSpaceOnUse">
<stop offset="0.278846" stop-color="#33CFFF"/>
<stop offset="1" stop-color="#0D87C5"/>
</linearGradient>
<linearGradient id="paint7_linear_1198_1547" x1="370.148" y1="115.908" x2="66.4206" y2="426.612" gradientUnits="userSpaceOnUse">
<stop offset="0.278846" stop-color="#33CFFF"/>
<stop offset="1" stop-color="#0D87C5"/>
</linearGradient>
<linearGradient id="paint8_linear_1198_1547" x1="370.148" y1="115.908" x2="66.4206" y2="426.612" gradientUnits="userSpaceOnUse">
<stop offset="0.278846" stop-color="#33CFFF"/>
<stop offset="1" stop-color="#0D87C5"/>
</linearGradient>
<linearGradient id="paint9_linear_1198_1547" x1="370.148" y1="115.908" x2="66.4206" y2="426.612" gradientUnits="userSpaceOnUse">
<stop offset="0.278846" stop-color="#33CFFF"/>
<stop offset="1" stop-color="#0D87C5"/>
</linearGradient>
<linearGradient id="paint10_linear_1198_1547" x1="370.148" y1="115.908" x2="66.4206" y2="426.612" gradientUnits="userSpaceOnUse">
<stop offset="0.278846" stop-color="#33CFFF"/>
<stop offset="1" stop-color="#0D87C5"/>
</linearGradient>
<linearGradient id="paint11_linear_1198_1547" x1="210.051" y1="231.135" x2="82.5636" y2="317.808" gradientUnits="userSpaceOnUse">
<stop offset="0.278846" stop-color="#33CFFF"/>
<stop offset="1" stop-color="#0D87C5"/>
</linearGradient>
<linearGradient id="paint12_linear_1198_1547" x1="321.826" y1="116.437" x2="247.872" y2="265.043" gradientUnits="userSpaceOnUse">
<stop offset="0.278846" stop-color="#33CFFF"/>
<stop offset="1" stop-color="#0D87C5"/>
</linearGradient>
<linearGradient id="paint13_linear_1198_1547" x1="358.847" y1="230.989" x2="231.313" y2="317.609" gradientUnits="userSpaceOnUse">
<stop offset="0.278846" stop-color="#33CFFF"/>
<stop offset="1" stop-color="#0D87C5"/>
</linearGradient>
<clipPath id="clip0_1198_1547">
<rect width="247.476" height="70.4493" fill="white" transform="translate(23.5293 530.127)"/>
</clipPath>
</defs>
</svg>
