<svg width="776" height="100" viewBox="0 0 776 100" fill="none" xmlns="http://www.w3.org/2000/svg">
<path d="M570.997 49.8937C576.568 51.0819 581.042 53.8694 584.421 58.2564C587.799 62.552 589.488 67.4874 589.488 73.0625C589.488 81.1053 586.658 87.503 580.996 92.2556C575.426 96.9167 567.619 99.2473 557.574 99.2473H512.785V3.00781H556.068C565.838 3.00781 573.463 5.247 578.942 9.72538C584.512 14.2038 587.297 20.2816 587.297 27.9588C587.297 33.6253 585.79 38.3322 582.777 42.0794C579.855 45.8266 575.928 48.4314 570.997 49.8937ZM536.207 41.9423H551.548C555.383 41.9423 558.305 41.1198 560.314 39.4746C562.414 37.7381 563.464 35.2247 563.464 31.9345C563.464 28.6443 562.414 26.1309 560.314 24.3944C558.305 22.6579 555.383 21.7896 551.548 21.7896H536.207V41.9423ZM553.465 80.3285C557.392 80.3285 560.405 79.4602 562.505 77.7237C564.697 75.8958 565.793 73.291 565.793 69.9094C565.793 66.5277 564.651 63.8773 562.368 61.9579C560.177 60.0386 557.118 59.079 553.191 59.079H536.207V80.3285H553.465Z" fill="white"/>
<path d="M748.39 99.2473L728.803 69.7723L711.545 99.2473H684.972L715.791 50.305L684.288 3.00781H711.545L730.857 32.0716L747.842 3.00781H774.414L743.87 51.5388L775.647 99.2473H748.39Z" fill="white"/>
<path d="M629.832 14.8495L638.808 7.40351L638.817 7.39453L638.835 7.408C639.153 7.45737 639.466 7.50674 639.784 7.56508C659.066 11.3621 671.552 29.9075 667.706 48.9376C663.902 67.8061 645.473 80.0858 626.427 76.6344C630.536 75.7143 634.486 73.8472 637.936 70.9882C649.5 61.3924 651.012 44.3461 641.305 32.9146C635.744 26.3618 627.703 23.0809 619.676 23.2739L629.837 14.845L629.832 14.8495Z" fill="url(#paint0_linear_1128_1984)"/>
<path d="M599.011 82.6972C597.221 80.44 597.501 77.0703 599.632 75.1746C601.763 73.2789 604.945 73.5755 606.734 75.8328C608.524 78.09 608.244 81.4597 606.113 83.3554C603.982 85.2511 600.801 84.9545 599.011 82.6972Z" fill="url(#paint1_linear_1128_1984)"/>
<path d="M649.334 97.5889C633.003 100.785 616.937 95.9818 605.394 85.96C606.067 85.6788 606.713 85.3038 607.3 84.8172C608.51 83.8262 609.325 82.5495 609.724 81.1745C612.253 82.5896 614.925 83.7949 617.739 84.7324C641.769 92.7811 667.921 80.313 676.155 56.9079C684.417 33.4983 671.619 8.02192 647.593 0C668.516 3.35698 685.1 18.9589 689.238 39.1766C694.774 66.0458 676.916 92.1874 649.334 97.5844V97.5889Z" fill="url(#paint2_linear_1128_1984)"/>
<path d="M109.032 2.94531V99.4206H85.6027V41.5583L64.1163 99.4206H45.1443L23.4293 41.4437V99.4206H0V2.94531H27.658L54.6303 69.7447L81.4883 2.94531H109.032Z" fill="white"/>
<path d="M185.834 82.4629H149.947L144.232 99.5351H119.66L154.404 2.94531H181.605L216.463 99.4205H191.662L185.948 82.3483L185.834 82.4629ZM179.776 64.2449L167.89 28.9547L156.118 64.2449H179.891H179.776Z" fill="white"/>
<path d="M296.238 2.94531V21.7362H270.752V99.4206H247.322V21.7362H221.836V2.94531H296.353H296.238Z" fill="white"/>
<path d="M310.181 25.5225C314.296 18.0749 320.01 12.2313 327.439 8.10651C334.754 3.98168 343.097 1.80469 352.468 1.80469C363.897 1.80469 373.726 4.78373 381.841 10.8564C389.955 16.9291 395.441 25.1787 398.184 35.6054H372.355C370.412 31.5951 367.669 28.5015 364.24 26.4391C360.697 24.3767 356.697 23.2309 352.24 23.2309C345.04 23.2309 339.211 25.7516 334.639 30.7931C330.182 35.8345 327.896 42.5947 327.896 50.9589C327.896 59.3232 330.182 66.0833 334.639 71.1248C339.097 76.1662 344.925 78.687 352.24 78.687C356.697 78.687 360.697 77.6558 364.24 75.4788C367.783 73.4163 370.526 70.3227 372.355 66.3125H398.184C395.441 76.7391 389.955 84.9888 381.841 90.9469C373.726 96.905 363.897 99.9986 352.468 99.9986C343.097 99.9986 334.754 97.9362 327.439 93.6968C320.125 89.5719 314.296 83.7284 310.181 76.2808C306.067 68.8332 304.01 60.3544 304.01 50.8444C304.01 41.3343 306.067 32.8555 310.181 25.2933V25.5225Z" fill="white"/>
<path d="M495.901 2.94531V99.4206H472.472V59.6618H436.013V99.4206H412.584V2.94531H436.013V40.7563H472.472V2.94531H495.901Z" fill="white"/>
<defs>
<linearGradient id="paint0_linear_1128_1984" x1="615.88" y1="64.2155" x2="663.655" y2="23.6658" gradientUnits="userSpaceOnUse">
<stop stop-color="#00DBFF"/>
<stop offset="1" stop-color="#00FF75"/>
</linearGradient>
<linearGradient id="paint1_linear_1128_1984" x1="599.011" y1="82.6972" x2="607.098" y2="76.2867" gradientUnits="userSpaceOnUse">
<stop stop-color="#00DBFF"/>
<stop offset="1" stop-color="#00FF75"/>
</linearGradient>
<linearGradient id="paint2_linear_1128_1984" x1="606.411" y1="87.143" x2="682.36" y2="21.7289" gradientUnits="userSpaceOnUse">
<stop stop-color="#00DBFF"/>
<stop offset="1" stop-color="#00FF75"/>
</linearGradient>
</defs>
</svg>
