<svg width="776" height="100" viewBox="0 0 776 100" fill="none" xmlns="http://www.w3.org/2000/svg">
<path d="M570.97 49.8888C576.54 51.0769 581.014 53.8644 584.392 58.2513C587.771 62.5468 589.46 67.482 589.46 73.057C589.46 81.0997 586.629 87.4972 580.968 92.2497C575.398 96.9107 567.591 99.2413 557.547 99.2413H512.76V3.00391H556.041C565.811 3.00391 573.435 5.24305 578.914 9.72132C584.483 14.1996 587.268 20.2773 587.268 27.9543C587.268 33.6207 585.762 38.3275 582.749 42.0746C579.827 45.8218 575.9 48.4265 570.97 49.8888ZM536.181 41.9375H551.521C555.356 41.9375 558.278 41.115 560.287 39.4699C562.387 37.7334 563.437 35.2201 563.437 31.93C563.437 28.6398 562.387 26.1265 560.287 24.39C558.278 22.6535 555.356 21.7853 551.521 21.7853H536.181V41.9375ZM553.438 80.3228C557.365 80.3228 560.378 79.4546 562.478 77.7181C564.669 75.8902 565.765 73.2855 565.765 69.904C565.765 66.5224 564.624 63.872 562.341 61.9527C560.15 60.0335 557.091 59.0738 553.164 59.0738H536.181V80.3228H553.438Z" fill="white"/>
<path d="M748.353 99.2413L728.767 69.7669L711.51 99.2413H684.939L715.756 50.3L684.254 3.00391H711.51L730.822 32.067L747.805 3.00391H774.376L743.833 51.5339L775.609 99.2413H748.353Z" fill="white"/>
<path d="M629.8 14.8454L638.776 7.3996L638.785 7.39062L638.803 7.40409C639.121 7.45346 639.434 7.50283 639.752 7.56117C659.033 11.3581 671.518 29.9031 667.673 48.9327C663.868 67.8008 645.441 80.0803 626.395 76.6289C630.504 75.7089 634.454 73.8418 637.904 70.9829C649.468 61.3873 650.979 44.3414 641.273 32.9101C635.711 26.3574 627.671 23.0766 619.645 23.2696L629.805 14.8409L629.8 14.8454Z" fill="white"/>
<path d="M598.98 82.6931C597.191 80.4359 597.471 77.0663 599.602 75.1707C601.732 73.275 604.914 73.5716 606.703 75.8288C608.493 78.086 608.213 81.4556 606.082 83.3513C603.951 85.247 600.77 84.9503 598.98 82.6931Z" fill="white"/>
<path d="M649.3 97.5867C632.97 100.783 616.904 95.9797 605.362 85.9581C606.035 85.6769 606.681 85.3019 607.268 84.8153C608.478 83.8243 609.293 82.5476 609.692 81.1727C612.221 82.5878 614.893 83.7931 617.706 84.7305C641.735 92.779 667.886 80.3112 676.12 56.9066C684.382 33.4976 671.584 8.02174 647.559 0C668.482 3.3569 685.064 18.9585 689.202 39.1757C694.737 66.0443 676.881 92.1853 649.3 97.5823V97.5867Z" fill="white"/>
<path d="M109.027 2.94531V99.4184H85.5985V41.5575L64.1131 99.4184H45.142L23.4282 41.4429V99.4184H0V2.94531H27.6566L54.6276 69.7432L81.4843 2.94531H109.027Z" fill="white"/>
<path d="M185.825 82.4611H149.939L144.225 99.533H119.654L154.397 2.94531H181.596L216.453 99.4184H191.653L185.939 82.3466L185.825 82.4611ZM179.767 64.2435L167.882 28.9541L156.111 64.2435H179.882H179.767Z" fill="white"/>
<path d="M296.223 2.94531V21.7358H270.738V99.4184H247.31V21.7358H221.825V2.94531H296.338H296.223Z" fill="white"/>
<path d="M310.166 25.5258C314.281 18.0784 319.995 12.235 327.423 8.11028C334.737 3.98554 343.08 1.80859 352.451 1.80859C363.88 1.80859 373.708 4.78757 381.822 10.8601C389.936 16.9326 395.422 25.1821 398.165 35.6085H372.337C370.394 31.5984 367.651 28.5048 364.223 26.4425C360.68 24.3801 356.68 23.2343 352.223 23.2343C345.023 23.2343 339.194 25.755 334.623 30.7963C330.166 35.8377 327.88 42.5977 327.88 50.9617C327.88 59.3258 330.166 66.0858 334.623 71.1271C339.08 76.1685 344.909 78.6892 352.223 78.6892C356.68 78.6892 360.68 77.658 364.223 75.481C367.765 73.4187 370.508 70.3251 372.337 66.3149H398.165C395.422 76.7414 389.936 84.9908 381.822 90.9488C373.708 96.9068 363.88 100 352.451 100C343.08 100 334.737 97.9379 327.423 93.6986C320.109 89.5739 314.281 83.7305 310.166 76.2831C306.052 68.8356 303.995 60.357 303.995 50.8472C303.995 41.3374 306.052 32.8587 310.166 25.2967V25.5258Z" fill="white"/>
<path d="M495.877 2.94531V99.4184H472.449V59.6605H435.993V99.4184H412.564V2.94531H435.993V40.7554H472.449V2.94531H495.877Z" fill="white"/>
</svg>
