<svg width="557" height="100" viewBox="0 0 557 100" fill="none" xmlns="http://www.w3.org/2000/svg">
<path d="M432.022 49.4967C435.412 50.2199 438.136 51.9167 440.192 54.5871C442.249 57.2018 443.277 60.206 443.277 63.5996C443.277 68.4953 441.554 72.3896 438.108 75.2825C434.718 78.1198 429.965 79.5384 423.852 79.5384H396.589V20.957H422.934C428.882 20.957 433.523 22.32 436.858 25.046C440.248 27.7721 441.943 31.4716 441.943 36.1448C441.943 39.594 441.026 42.4591 439.192 44.7401C437.413 47.021 435.023 48.6065 432.022 49.4967ZM410.845 44.6566H420.183C422.518 44.6566 424.296 44.1559 425.519 43.1545C426.797 42.0975 427.437 40.5676 427.437 38.5648C427.437 36.562 426.797 35.0321 425.519 33.9751C424.296 32.9181 422.518 32.3896 420.183 32.3896H410.845V44.6566ZM421.35 68.0224C423.74 68.0224 425.575 67.4939 426.853 66.4369C428.187 65.3242 428.854 63.7387 428.854 61.6803C428.854 59.6218 428.159 58.0085 426.77 56.8402C425.436 55.6719 423.574 55.0878 421.184 55.0878H410.845V68.0224H421.35Z" fill="white"/>
<path d="M539.998 79.5384L528.076 61.5968L517.571 79.5384H501.397L520.156 49.747L500.98 20.957H517.571L529.327 38.6483L539.665 20.957H555.839L537.247 50.4981L556.589 79.5384H539.998Z" fill="white"/>
<path d="M467.832 29.2605L473.296 24.7281L473.302 24.7227L473.313 24.7309C473.506 24.7609 473.697 24.791 473.89 24.8265C485.627 27.1377 493.227 38.4264 490.886 50.0101C488.57 61.4954 477.353 68.9701 465.76 66.8692C468.261 66.3092 470.665 65.1727 472.765 63.4324C479.804 57.5914 480.724 47.2152 474.816 40.2568C471.431 36.2681 466.536 34.271 461.65 34.3885L467.835 29.2578L467.832 29.2605Z" fill="white"/>
<path d="M449.071 70.5658C447.982 69.1918 448.152 67.1407 449.449 65.9867C450.746 64.8328 452.683 65.0134 453.772 66.3874C454.862 67.7614 454.691 69.8125 453.394 70.9664C452.097 72.1203 450.161 71.9398 449.071 70.5658Z" fill="white"/>
<path d="M479.703 79.6293C469.762 81.5749 459.983 78.6511 452.957 72.5507C453.367 72.3795 453.76 72.1513 454.117 71.8551C454.853 71.2519 455.35 70.4747 455.592 69.6378C457.132 70.4992 458.758 71.2329 460.471 71.8035C475.098 76.7028 491.016 69.1134 496.028 54.8666C501.057 40.6171 493.267 25.1095 478.643 20.2266C491.379 22.27 501.473 31.7669 503.992 44.0735C507.361 60.4289 496.491 76.3414 479.703 79.6266V79.6293Z" fill="white"/>
<path d="M176.443 20.9219V79.6467H162.181V44.4258L149.103 79.6467H137.555L124.337 44.356V79.6467H110.076V20.9219H126.911L143.329 61.5829L159.677 20.9219H176.443Z" fill="white"/>
<path d="M223.191 69.3245H201.347L197.869 79.7165H182.912L204.06 20.9219H220.617L241.835 79.6467H226.739L223.261 69.2548L223.191 69.3245ZM219.504 58.2352L212.269 36.7539L205.104 58.2352H219.574H219.504Z" fill="white"/>
<path d="M279.415 20.9219V32.36H263.901V79.6467H249.64V32.36H234.127V20.9219H279.484H279.415Z" fill="white"/>
<path d="M280.584 34.6637C283.088 30.1303 286.566 26.5733 291.088 24.0625C295.541 21.5517 300.619 20.2266 306.323 20.2266C313.28 20.2266 319.263 22.0399 324.202 25.7364C329.141 29.4328 332.48 34.4544 334.15 40.8012H318.428C317.245 38.3601 315.576 36.477 313.489 35.2216C311.332 33.9662 308.897 33.2688 306.184 33.2688C301.802 33.2688 298.254 34.8032 295.471 37.8719C292.758 40.9407 291.367 45.0556 291.367 50.1469C291.367 55.2383 292.758 59.3532 295.471 62.422C298.184 65.4907 301.732 67.0251 306.184 67.0251C308.897 67.0251 311.332 66.3974 313.489 65.0723C315.645 63.8169 317.315 61.9338 318.428 59.4927H334.15C332.48 65.8394 329.141 70.861 324.202 74.4878C319.263 78.1145 313.28 79.9976 306.323 79.9976C300.619 79.9976 295.541 78.7422 291.088 76.1616C286.636 73.6508 283.088 70.0939 280.584 65.5605C278.079 61.0271 276.827 55.866 276.827 50.0772C276.827 44.2884 278.079 39.1273 280.584 34.5242V34.6637Z" fill="white"/>
<path d="M389.97 20.9219V79.6467H375.709V55.4454H353.517V79.6467H339.256V20.9219H353.517V43.9376H375.709V20.9219H389.97Z" fill="white"/>
<path d="M76.5453 0H23.4183C10.5018 0 0 10.5005 0 23.4167V76.5833C0 89.4995 10.4991 100 23.4183 100H76.5859L76.5453 99.9593C89.4618 99.9593 99.9636 89.4588 99.9636 76.5427V23.4167C99.9636 10.5005 89.4645 0 76.5453 0ZM92.1692 76.5833C92.1692 85.2077 85.1689 92.208 76.5426 92.208H23.4156C14.7893 92.208 7.78895 85.2077 7.78895 76.5833V23.4573C7.78895 14.833 14.7893 7.83266 23.4156 7.83266V7.79199H76.5426C85.1689 7.79199 92.1692 14.7923 92.1692 23.4167V76.5833Z" fill="white"/>
<path d="M66.2832 30.7236C64.7303 29.0698 63.2262 27.34 62.0744 25.3609C59.8439 21.4757 58.5675 17.6421 58.768 13.8816C58.8683 12.404 57.1392 11.5012 56.0362 12.4772C46.5913 20.8738 43.2823 33.9581 43.2823 49.5746C43.2823 50.7784 42.079 51.5809 40.9759 51.1281C36.1139 49.0487 32.8076 45.3885 31.8807 39.348C31.6801 37.9192 29.9267 37.3417 28.9998 38.4451C23.4386 44.8626 21.7583 52.3807 22.612 60.6526C23.4386 68.8486 29.4253 79.528 36.5421 83.687C49.8842 91.4031 65.7575 87.1871 73.4001 74.3632C78.1103 66.4681 78.5873 56.8162 75.9801 47.994C74.0017 41.3515 70.8444 35.5604 66.2832 30.7236ZM62.4755 77.2452C58.581 83.7927 50.6403 85.536 44.3094 81.8569C40.8025 79.8018 37.8457 74.5367 37.4446 70.5024C37.0191 66.4166 37.8457 62.7077 40.5776 59.5491C41.0545 59.0232 41.9055 59.2997 42.0058 59.9992C42.4584 62.9815 44.0845 64.7872 46.4911 65.7903C47.0439 66.0398 47.6429 65.6412 47.6429 65.0393C47.6185 57.3449 49.2473 50.9031 53.906 46.7658C54.4589 46.2643 55.3099 46.7143 55.2584 47.4436C55.1581 49.2981 55.7841 51.2041 56.8872 53.1073C57.4644 54.0861 58.1908 54.9374 58.9659 55.7399C61.1963 58.1203 62.7736 61.0051 63.7276 64.2612C65.0311 68.5964 64.7791 73.36 62.4755 77.2452Z" fill="white"/>
</svg>
