<svg width="526" height="600" viewBox="0 0 526 600" fill="none" xmlns="http://www.w3.org/2000/svg">
<path d="M378.759 563.849C382.748 564.7 385.952 566.697 388.372 569.838C390.791 572.914 392.001 576.449 392.001 580.441C392.001 586.201 389.974 590.782 385.919 594.186C381.931 597.524 376.34 599.193 369.147 599.193H337.073V530.273H368.068C375.065 530.273 380.525 531.877 384.448 535.084C388.437 538.291 390.431 542.644 390.431 548.141C390.431 552.199 389.352 555.57 387.195 558.253C385.102 560.937 382.29 562.802 378.759 563.849ZM353.846 558.155H364.831C367.578 558.155 369.67 557.566 371.109 556.388C372.613 555.145 373.365 553.345 373.365 550.988C373.365 548.632 372.613 546.832 371.109 545.589C369.67 544.345 367.578 543.723 364.831 543.723H353.846V558.155ZM366.204 585.644C369.016 585.644 371.174 585.023 372.678 583.779C374.247 582.47 375.032 580.605 375.032 578.183C375.032 575.761 374.215 573.863 372.58 572.489C371.011 571.114 368.82 570.427 366.008 570.427H353.846V585.644H366.204Z" fill="#303446"/>
<path d="M505.79 599.193L491.764 578.085L479.405 599.193H460.377L482.446 564.144L459.887 530.273H479.405L493.235 551.087L505.398 530.273H524.426L502.553 565.028L525.309 599.193H505.79Z" fill="#303446"/>
<path d="M420.889 540.042L427.316 534.71L427.323 534.703L427.336 534.713C427.564 534.748 427.788 534.783 428.015 534.825C441.823 537.544 450.764 550.825 448.011 564.453C445.286 577.965 432.089 586.759 418.45 584.287C421.393 583.628 424.221 582.291 426.692 580.244C434.973 573.372 436.056 561.165 429.105 552.979C425.122 548.286 419.364 545.936 413.616 546.075L420.892 540.039L420.889 540.042Z" fill="url(#paint0_linear_1209_8739)"/>
<path d="M398.818 588.633C397.536 587.017 397.737 584.603 399.263 583.246C400.789 581.888 403.067 582.101 404.349 583.717C405.63 585.334 405.43 587.747 403.904 589.104C402.378 590.462 400.1 590.249 398.818 588.633Z" fill="url(#paint1_linear_1209_8739)"/>
<path d="M434.855 599.296C423.16 601.585 411.655 598.145 403.389 590.968C403.871 590.767 404.334 590.498 404.754 590.15C405.62 589.44 406.204 588.526 406.49 587.541C408.301 588.554 410.214 589.418 412.229 590.089C429.437 595.853 448.164 586.924 454.061 570.163C459.978 553.399 450.813 535.155 433.608 529.41C448.591 531.814 460.467 542.987 463.43 557.465C467.394 576.707 454.606 595.428 434.855 599.293V599.296Z" fill="url(#paint2_linear_1209_8739)"/>
<path d="M78.0781 530.23V599.319H61.3003V557.882L45.9139 599.319H32.3279L16.7778 557.8V599.319H0V530.23H19.806L39.1209 578.067L58.354 530.23H78.0781Z" fill="#303446"/>
<path d="M133.077 587.175H107.379L103.287 599.401H85.6904L110.571 530.23H130.049L155.011 599.319H137.251L133.159 587.093L133.077 587.175ZM128.74 574.128L120.228 548.856L111.798 574.128H128.822H128.74Z" fill="#303446"/>
<path d="M199.222 530.23V543.687H180.971V599.319H164.193V543.687H145.942V530.23H199.304H199.222Z" fill="#303446"/>
<path d="M200.598 546.395C203.544 541.062 207.636 536.877 212.956 533.923C218.194 530.969 224.168 529.41 230.88 529.41C239.064 529.41 246.102 531.544 251.913 535.892C257.724 540.241 261.653 546.149 263.617 553.616H245.12C243.729 550.744 241.765 548.528 239.309 547.051C236.772 545.574 233.908 544.754 230.716 544.754C225.56 544.754 221.386 546.559 218.112 550.169C214.92 553.78 213.283 558.621 213.283 564.611C213.283 570.6 214.92 575.442 218.112 579.052C221.304 582.662 225.478 584.467 230.716 584.467C233.908 584.467 236.772 583.729 239.309 582.17C241.847 580.693 243.811 578.477 245.12 575.606H263.617C261.653 583.072 257.724 588.98 251.913 593.247C246.102 597.514 239.064 599.729 230.88 599.729C224.168 599.729 218.194 598.252 212.956 595.216C207.718 592.262 203.544 588.078 200.598 582.744C197.651 577.411 196.178 571.339 196.178 564.529C196.178 557.718 197.651 551.646 200.598 546.231V546.395Z" fill="#303446"/>
<path d="M329.287 530.23V599.319H312.509V570.846H286.401V599.319H269.623V530.23H286.401V557.308H312.509V530.23H329.287Z" fill="#303446"/>
<path d="M392.869 0H132.443C69.1269 0 17.6475 51.473 17.6475 114.788V375.409C17.6475 438.723 69.1136 490.196 132.443 490.196H393.069L392.869 489.997C456.186 489.997 507.665 438.524 507.665 375.209V114.788C507.665 51.473 456.199 0 392.869 0ZM469.457 375.409C469.457 417.685 435.142 452 392.856 452H132.43C90.1438 452 55.8286 417.685 55.8286 375.409V114.987C55.8286 72.7107 90.1438 38.3954 132.43 38.3954V38.196H392.856C435.142 38.196 469.457 72.5114 469.457 114.788V375.409Z" fill="url(#paint3_linear_1209_8739)"/>
<path d="M342.567 150.602C334.955 142.495 327.582 134.016 321.936 124.314C311.002 105.269 304.745 86.4766 305.728 68.0431C306.22 60.7999 297.744 56.3743 292.337 61.1588C246.038 102.319 229.817 166.457 229.817 243.009C229.817 248.91 223.919 252.843 218.512 250.624C194.679 240.43 178.471 222.489 173.927 192.878C172.944 185.874 164.349 183.043 159.805 188.452C132.544 219.91 124.308 256.764 128.493 297.313C132.545 337.489 161.891 389.839 196.778 410.226C262.18 448.05 339.99 427.384 377.454 364.521C400.543 325.82 402.881 278.507 390.101 235.261C380.403 202.7 364.926 174.312 342.567 150.602ZM323.902 378.649C304.811 410.744 265.886 419.29 234.852 401.255C217.662 391.181 203.168 365.372 201.201 345.596C199.116 325.568 203.168 307.386 216.559 291.903C218.897 289.325 223.069 290.681 223.56 294.11C225.779 308.729 233.75 317.58 245.547 322.497C248.257 323.72 251.193 321.767 251.193 318.816C251.073 281.098 259.058 249.521 281.895 229.24C284.605 226.781 288.776 228.988 288.524 232.563C288.032 241.653 291.101 250.996 296.508 260.326C299.338 265.124 302.898 269.297 306.698 273.231C317.631 284.899 325.363 299.04 330.039 315.002C336.43 336.253 335.194 359.604 323.902 378.649Z" fill="url(#paint4_linear_1209_8739)"/>
<defs>
<linearGradient id="paint0_linear_1209_8739" x1="413.616" y1="559.703" x2="448.509" y2="559.703" gradientUnits="userSpaceOnUse">
<stop stop-color="#00DBFF"/>
<stop offset="1" stop-color="#00FF75"/>
</linearGradient>
<linearGradient id="paint1_linear_1209_8739" x1="397.974" y1="586.175" x2="405.193" y2="586.175" gradientUnits="userSpaceOnUse">
<stop stop-color="#00DBFF"/>
<stop offset="1" stop-color="#00FF75"/>
</linearGradient>
<linearGradient id="paint2_linear_1209_8739" x1="403.389" y1="564.704" x2="464.151" y2="564.704" gradientUnits="userSpaceOnUse">
<stop stop-color="#00DBFF"/>
<stop offset="1" stop-color="#00FF75"/>
</linearGradient>
<linearGradient id="paint3_linear_1209_8739" x1="17.6475" y1="245.098" x2="507.652" y2="245.098" gradientUnits="userSpaceOnUse">
<stop stop-color="#00FF78"/>
<stop offset="1" stop-color="#00DBFF"/>
</linearGradient>
<linearGradient id="paint4_linear_1209_8739" x1="127.465" y1="244.163" x2="397.822" y2="244.163" gradientUnits="userSpaceOnUse">
<stop stop-color="#00DBFF"/>
<stop offset="1" stop-color="#00FF75"/>
</linearGradient>
</defs>
</svg>
