<svg width="500" height="500" viewBox="0 0 500 500" fill="none" xmlns="http://www.w3.org/2000/svg">
<path d="M382.866 0H117.134C52.5282 0 0 52.5024 0 117.083V382.917C0 447.498 52.5146 500 117.134 500H383.069L382.866 499.797C447.472 499.797 500 447.294 500 382.713V117.083C500 52.5024 447.485 0 382.866 0ZM461.014 382.917C461.014 426.038 426 461.04 382.852 461.04H117.121C73.9732 461.04 38.9589 426.038 38.9589 382.917V117.287C38.9589 74.1649 73.9732 39.1633 117.121 39.1633V38.96H382.852C426 38.96 461.014 73.9616 461.014 117.083V382.917Z" fill="url(#paint0_linear_1136_2373)"/>
<path d="M331.539 153.614C323.772 145.345 316.248 136.696 310.487 126.8C299.331 107.375 292.946 88.2065 293.949 69.4043C294.451 62.0163 285.802 57.5021 280.285 62.3823C233.044 104.365 216.492 169.787 216.492 247.869C216.492 253.888 210.474 257.901 204.956 255.637C180.638 245.239 164.1 226.939 159.464 196.736C158.461 189.592 149.69 186.705 145.054 192.222C117.238 224.309 108.833 261.9 113.103 303.259C117.238 344.239 147.182 397.636 182.779 418.431C249.514 457.011 328.909 435.932 367.136 371.812C390.696 332.337 393.082 284.077 380.041 239.966C370.145 206.754 354.353 177.798 331.539 153.614ZM312.493 386.222C293.014 418.96 253.296 427.676 221.63 409.281C204.089 399.005 189.3 372.679 187.293 352.508C185.165 332.079 189.3 313.535 202.964 297.742C205.35 295.112 209.606 296.495 210.107 299.992C212.371 314.904 220.505 323.932 232.542 328.948C235.307 330.195 238.303 328.202 238.303 325.193C238.181 286.721 246.328 254.512 269.63 233.825C272.396 231.317 276.652 233.568 276.395 237.214C275.893 246.487 279.024 256.016 284.542 265.533C287.429 270.426 291.062 274.683 294.939 278.696C306.095 290.598 313.984 305.021 318.756 321.302C325.276 342.978 324.016 366.796 312.493 386.222Z" fill="url(#paint1_linear_1136_2373)"/>
<defs>
<linearGradient id="paint0_linear_1136_2373" x1="0" y1="250" x2="499.986" y2="250" gradientUnits="userSpaceOnUse">
<stop stop-color="#00FF78"/>
<stop offset="1" stop-color="#00DBFF"/>
</linearGradient>
<linearGradient id="paint1_linear_1136_2373" x1="112.06" y1="249.049" x2="387.917" y2="249.049" gradientUnits="userSpaceOnUse">
<stop stop-color="#00FF78"/>
<stop offset="1" stop-color="#00DBFF"/>
</linearGradient>
</defs>
</svg>
