<svg width="1165" height="253" viewBox="0 0 1165 253" fill="none" xmlns="http://www.w3.org/2000/svg">
<path d="M896.005 218.003H875.998V197.997C875.998 195.235 873.761 193 871 193C868.239 193 866.002 195.245 866.002 197.997V218.003H845.995C843.235 218.003 841 220.248 841 223C841 225.752 843.235 227.997 845.995 227.997H866.002V248.003C866.002 250.765 868.239 253 871 253C873.761 253 875.998 250.755 875.998 248.003V227.997H896.005C898.766 227.997 901 225.752 901 223C901 220.248 898.766 218.003 896.005 218.003Z" fill="#303446"/>
<path d="M965.589 212.694C965.589 216.088 964.811 219.203 963.255 222.04C961.7 224.822 959.31 227.075 956.088 228.8C952.865 230.524 948.865 231.387 944.086 231.387H935.252V252.416H921V193.834H944.086C948.753 193.834 952.698 194.641 955.921 196.255C959.144 197.868 961.561 200.093 963.172 202.93C964.783 205.768 965.589 209.022 965.589 212.694ZM943.003 220.038C945.725 220.038 947.753 219.398 949.087 218.118C950.42 216.839 951.087 215.031 951.087 212.694C951.087 210.357 950.42 208.549 949.087 207.27C947.753 205.99 945.725 205.35 943.003 205.35H935.252V220.038H943.003Z" fill="#303446"/>
<path d="M997.262 241.401H1015.93V252.416H983.01V193.834H997.262V241.401Z" fill="#303446"/>
<path d="M1046.73 193.834V228.883C1046.73 232.388 1047.59 235.086 1049.31 236.978C1051.04 238.869 1053.57 239.815 1056.9 239.815C1060.23 239.815 1062.79 238.869 1064.57 236.978C1066.34 235.086 1067.23 232.388 1067.23 228.883V193.834H1081.49V228.8C1081.49 234.029 1080.37 238.452 1078.15 242.068C1075.93 245.684 1072.93 248.41 1069.15 250.246C1065.43 252.082 1061.26 253 1056.65 253C1052.04 253 1047.9 252.11 1044.23 250.33C1040.62 248.494 1037.76 245.768 1035.65 242.152C1033.54 238.48 1032.48 234.029 1032.48 228.8V193.834H1046.73Z" fill="#303446"/>
<path d="M1122.66 253C1118.39 253 1114.55 252.305 1111.16 250.914C1107.77 249.523 1105.05 247.465 1102.99 244.739C1100.99 242.013 1099.94 238.73 1099.83 234.892H1115C1115.22 237.061 1115.97 238.73 1117.25 239.898C1118.52 241.011 1120.19 241.567 1122.25 241.567C1124.36 241.567 1126.03 241.095 1127.25 240.149C1128.47 239.147 1129.08 237.784 1129.08 236.06C1129.08 234.613 1128.58 233.417 1127.58 232.471C1126.64 231.526 1125.44 230.747 1124 230.135C1122.61 229.523 1120.61 228.828 1118 228.049C1114.22 226.88 1111.13 225.712 1108.75 224.544C1106.36 223.376 1104.3 221.651 1102.58 219.37C1100.86 217.089 1099.99 214.113 1099.99 210.441C1099.99 204.989 1101.97 200.733 1105.91 197.673C1109.86 194.558 1115 193 1121.33 193C1127.78 193 1132.97 194.558 1136.92 197.673C1140.86 200.733 1142.97 205.017 1143.25 210.524H1127.83C1127.72 208.633 1127.03 207.159 1125.75 206.102C1124.47 204.989 1122.83 204.433 1120.83 204.433C1119.11 204.433 1117.72 204.905 1116.66 205.851C1115.61 206.741 1115.08 208.049 1115.08 209.773C1115.08 211.665 1115.97 213.139 1117.75 214.196C1119.52 215.253 1122.3 216.394 1126.08 217.618C1129.86 218.897 1132.92 220.121 1135.25 221.289C1137.64 222.458 1139.69 224.154 1141.42 226.38C1143.14 228.605 1144 231.47 1144 234.975C1144 238.313 1143.14 241.345 1141.42 244.071C1139.75 246.797 1137.3 248.967 1134.08 250.58C1130.86 252.193 1127.05 253 1122.66 253Z" fill="#303446"/>
<path d="M104.79 87.9209C114.817 90.0598 122.871 95.0779 128.953 102.975C135.035 110.708 138.076 119.593 138.076 129.629C138.076 144.108 132.981 155.625 122.789 164.18C112.762 172.571 98.7081 176.767 80.6267 176.767H0V3.51733H77.9144C95.5027 3.51733 109.228 7.54829 119.091 15.6102C129.118 23.6722 134.131 34.6134 134.131 48.4338C134.131 58.6347 131.419 67.1079 125.995 73.8536C120.735 80.5993 113.666 85.2884 104.79 87.9209ZM42.1626 73.6068H69.7778C76.6816 73.6068 81.9417 72.1261 85.558 69.1645C89.3386 66.0385 91.2289 61.5139 91.2289 55.5909C91.2289 49.6678 89.3386 45.1433 85.558 42.0172C81.9417 38.8911 76.6816 37.3281 69.7778 37.3281H42.1626V73.6068ZM73.2297 142.709C80.2979 142.709 85.7223 141.146 89.503 138.02C93.448 134.729 95.4205 130.04 95.4205 123.953C95.4205 117.865 93.3658 113.094 89.2564 109.639C85.3114 106.184 79.8048 104.456 72.7366 104.456H42.1626V142.709H73.2297Z" fill="#303446"/>
<path d="M424.12 176.767L388.861 123.706L357.794 176.767H309.96L365.437 88.6613L308.727 3.51733H357.794L392.559 55.8377L423.133 3.51733H470.967L415.983 90.8824L473.186 176.767H424.12Z" fill="#303446"/>
<path d="M536.515 144.19H591.745V176.767H494.352V3.51733H536.515V144.19Z" fill="#303446"/>
<path d="M719.604 146.164H655.004L644.649 176.767H600.514L663.141 3.51733H711.961L774.588 176.767H729.96L719.604 146.164ZM708.755 113.587L687.304 50.1614L666.1 113.587H708.755Z" fill="#303446"/>
<path d="M948.492 176.767H906.329L835.811 69.9049V176.767H793.649V3.51733H835.811L906.329 110.873V3.51733H948.492V176.767Z" fill="#303446"/>
<path d="M1093.95 58.3056C1090.83 52.5471 1086.31 48.187 1080.39 45.2255C1074.64 42.0995 1067.82 40.5364 1059.93 40.5364C1046.28 40.5364 1035.35 45.061 1027.13 54.1101C1018.92 62.9947 1014.81 74.9231 1014.81 89.8952C1014.81 105.855 1019.08 118.359 1027.63 127.408C1036.34 136.293 1048.26 140.735 1063.38 140.735C1073.73 140.735 1082.45 138.102 1089.51 132.837C1096.75 127.572 1102.01 120.004 1105.29 110.132H1051.79V79.0363H1143.51V118.277C1140.39 128.806 1135.05 138.596 1127.49 147.645C1120.09 156.694 1110.64 164.016 1099.13 169.61C1087.62 175.204 1074.64 178.001 1060.17 178.001C1043.08 178.001 1027.79 174.299 1014.31 166.895C1001 159.327 990.56 148.879 982.999 135.552C975.602 122.225 971.904 107.006 971.904 89.8952C971.904 72.7842 975.602 57.5652 982.999 44.2383C990.56 30.7469 1001 20.2993 1014.31 12.8955C1027.63 5.32714 1042.83 1.54297 1059.93 1.54297C1080.64 1.54297 1098.06 6.56111 1112.2 16.5974C1126.5 26.6337 1135.95 40.5364 1140.55 58.3056H1093.95Z" fill="#303446"/>
<path d="M210.7 26.727L226.858 13.3228L226.874 13.3066L226.907 13.3309C227.479 13.4198 228.043 13.5086 228.615 13.6137C263.325 20.4491 285.801 53.8342 278.879 88.092C272.03 122.059 238.856 144.165 204.57 137.952C211.967 136.295 219.077 132.934 225.289 127.787C246.105 110.513 248.827 79.8265 231.353 59.2476C221.341 47.4513 206.867 41.5451 192.417 41.8925L210.708 26.7189L210.7 26.727Z" fill="#303446"/>
<path d="M155.217 148.872C151.995 144.809 152.499 138.743 156.336 135.33C160.172 131.917 165.898 132.451 169.12 136.515C172.342 140.578 171.838 146.644 168.002 150.057C164.165 153.47 158.439 152.936 155.217 148.872Z" fill="#303446"/>
<path d="M245.805 175.679C216.406 181.432 187.485 172.785 166.706 154.744C167.919 154.238 169.082 153.563 170.138 152.687C172.315 150.903 173.784 148.605 174.501 146.13C179.055 148.677 183.864 150.847 188.929 152.534C232.186 167.024 279.263 144.579 294.087 102.445C308.959 60.3034 285.92 14.441 242.671 0C280.336 6.04319 310.189 34.1296 317.637 70.5254C327.602 118.895 295.456 165.955 245.805 175.67V175.679Z" fill="#303446"/>
<path d="M1155.57 0C1158.01 0 1160.28 0.906613 1161.89 2.63664C1162.68 3.41848 1163.3 4.40824 1163.75 5.48119C1164.62 7.66452 1164.62 10.0974 1163.75 12.2391C1163.34 13.3121 1162.68 14.3019 1161.81 15.0837C1160.94 15.9487 1160.03 16.5684 1158.87 17.0217C1157.8 17.4334 1156.69 17.6829 1155.53 17.6829C1154.37 17.6829 1153.17 17.475 1152.09 16.9842C1151.02 16.4935 1150.03 15.8281 1149.16 15.0047C1147.51 13.3578 1146.6 11.1703 1146.6 8.90382C1146.6 6.63731 1146.68 7.33599 1146.89 6.55415C1147.09 5.77231 1147.47 4.98631 1147.79 4.37082C1149.57 1.65102 1152.47 0 1155.56 0M1155.61 1.48467C1154.7 1.48467 1153.67 1.60943 1152.84 1.97956C1151.98 2.34968 1151.19 2.84455 1150.49 3.54738C1149.78 4.2502 1149.21 5.11523 1148.84 5.98025C1147.68 8.65847 1148.26 11.8732 1150.41 13.9359C1151.11 14.6346 1151.9 15.2126 1152.85 15.5827C1153.72 15.9529 1154.71 16.1608 1155.7 16.1608C1156.69 16.1608 1157.64 15.9529 1158.47 15.5827C1159.38 15.2126 1160.16 14.6761 1160.91 14.0149C1161.66 13.3537 1162.11 12.6134 1162.48 11.6652C1162.85 10.8002 1163.06 9.89359 1163.06 8.90382C1163.06 7.91404 1162.94 6.92427 1162.48 5.97608C1162.11 5.06948 1161.57 4.28763 1160.91 3.6264C1160.21 2.92773 1159.42 2.34968 1158.47 1.97956C1157.56 1.73419 1156.57 1.48467 1155.62 1.48467M1151.94 3.79275H1155.78C1156.86 3.70958 1157.97 3.91751 1158.92 4.49142C1159.62 4.9863 1160 5.76815 1160 6.63317C1160 7.49818 1159.79 7.82671 1159.42 8.28001C1159 8.7749 1158.42 9.06187 1157.84 9.18663L1160.03 13.5949H1157.39L1155.53 9.63992H1154.33V13.678H1151.98V3.78443H1151.94V3.79275ZM1154.29 5.3606V8.20515H1155.49C1155.98 8.28833 1156.56 8.122 1157.06 7.83505C1157.43 7.62711 1157.56 7.1738 1157.56 6.76209C1157.56 6.35038 1157.43 5.89706 1157.06 5.60595C1156.56 5.319 1155.98 5.19426 1155.41 5.23584L1154.29 5.3606Z" fill="#303446"/>
</svg>
