<svg width="659" height="143" viewBox="0 0 659 143" fill="none" xmlns="http://www.w3.org/2000/svg">
<path d="M506.437 123.218H495.129V111.91C495.129 110.349 493.865 109.086 492.304 109.086C490.744 109.086 489.479 110.355 489.479 111.91V123.218H478.171C476.611 123.218 475.348 124.487 475.348 126.043C475.348 127.598 476.611 128.867 478.171 128.867H489.479V140.175C489.479 141.736 490.744 142.999 492.304 142.999C493.865 142.999 495.129 141.73 495.129 140.175V128.867H506.437C507.998 128.867 509.261 127.598 509.261 126.043C509.261 124.487 507.998 123.218 506.437 123.218Z" fill="#00DBFF"/>
<path d="M545.768 120.217C545.768 122.136 545.328 123.896 544.449 125.5C543.569 127.072 542.219 128.346 540.397 129.321C538.576 130.295 536.315 130.783 533.614 130.783H528.62V142.669H520.565V109.558H533.614C536.252 109.558 538.482 110.014 540.303 110.925C542.125 111.837 543.491 113.095 544.401 114.699C545.312 116.303 545.768 118.142 545.768 120.217ZM533.001 124.368C534.54 124.368 535.687 124.006 536.44 123.283C537.194 122.56 537.571 121.538 537.571 120.217C537.571 118.897 537.194 117.875 536.44 117.152C535.687 116.428 534.54 116.067 533.001 116.067H528.62V124.368H533.001Z" fill="#303446"/>
<path d="M563.669 136.443H574.222V142.669H555.614V109.558H563.669V136.443Z" fill="#303446"/>
<path d="M591.631 109.558V129.368C591.631 131.349 592.117 132.874 593.091 133.943C594.065 135.012 595.493 135.547 597.378 135.547C599.262 135.547 600.707 135.012 601.712 133.943C602.717 132.874 603.219 131.349 603.219 129.368V109.558H611.274V129.321C611.274 132.276 610.646 134.776 609.39 136.82C608.134 138.864 606.438 140.405 604.303 141.443C602.198 142.48 599.843 142.999 597.236 142.999C594.63 142.999 592.29 142.496 590.217 141.49C588.176 140.452 586.559 138.911 585.365 136.867C584.172 134.792 583.575 132.276 583.575 129.321V109.558H591.631Z" fill="#303446"/>
<path d="M634.549 142.999C632.131 142.999 629.964 142.606 628.048 141.82C626.133 141.034 624.594 139.87 623.432 138.33C622.301 136.789 621.705 134.934 621.642 132.764H630.215C630.341 133.99 630.765 134.934 631.487 135.594C632.21 136.223 633.152 136.537 634.314 136.537C635.507 136.537 636.449 136.27 637.14 135.735C637.831 135.169 638.176 134.399 638.176 133.424C638.176 132.607 637.894 131.931 637.329 131.396C636.795 130.861 636.119 130.421 635.303 130.075C634.518 129.729 633.387 129.336 631.911 128.896C629.776 128.236 628.033 127.575 626.682 126.915C625.332 126.255 624.17 125.28 623.196 123.991C622.223 122.702 621.736 121.019 621.736 118.944C621.736 115.862 622.851 113.457 625.081 111.727C627.31 109.966 630.215 109.086 633.795 109.086C637.438 109.086 640.375 109.966 642.605 111.727C644.834 113.457 646.028 115.878 646.185 118.991H637.47C637.407 117.922 637.014 117.089 636.292 116.491C635.57 115.862 634.643 115.548 633.513 115.548C632.539 115.548 631.754 115.815 631.157 116.35C630.561 116.853 630.262 117.592 630.262 118.567C630.262 119.636 630.765 120.469 631.77 121.066C632.775 121.664 634.345 122.308 636.481 123C638.616 123.723 640.343 124.415 641.662 125.076C643.013 125.736 644.175 126.695 645.148 127.953C646.122 129.211 646.609 130.83 646.609 132.811C646.609 134.698 646.122 136.411 645.148 137.952C644.206 139.493 642.824 140.719 641.003 141.631C639.181 142.543 637.03 142.999 634.549 142.999Z" fill="#303446"/>
<path d="M59.2292 49.6936C64.8966 50.9025 69.4491 53.7389 72.8867 58.2026C76.3243 62.5734 78.0431 67.5951 78.0431 73.2679C78.0431 81.4514 75.163 87.9611 69.4027 92.7969C63.7352 97.5396 55.7916 99.911 45.5716 99.911H0V1.98704H44.0386C53.9798 1.98704 61.7377 4.26542 67.3122 8.82218C72.9796 13.3789 75.8133 19.5631 75.8133 27.3747C75.8133 33.1404 74.2803 37.9297 71.2144 41.7425C68.2413 45.5553 64.2462 48.2057 59.2292 49.6936ZM23.831 41.603H39.4397C43.3418 41.603 46.3149 40.766 48.3589 39.0921C50.4958 37.3252 51.5642 34.7678 51.5642 31.42C51.5642 28.0722 50.4958 25.5148 48.3589 23.7479C46.3149 21.981 43.3418 21.0976 39.4397 21.0976H23.831V41.603ZM41.3907 80.661C45.3858 80.661 48.4518 79.7775 50.5887 78.0106C52.8185 76.1507 53.9334 73.5003 53.9334 70.0595C53.9334 66.6187 52.772 63.9218 50.4493 61.9689C48.2195 60.016 45.1071 59.0396 41.112 59.0396H23.831V80.661H41.3907Z" fill="#303446"/>
<path d="M239.72 99.911L219.791 69.92L202.231 99.911H175.195L206.552 50.1121L174.498 1.98704H202.231L221.882 31.5595L239.162 1.98704H266.199L235.121 51.3675L267.453 99.911H239.72Z" fill="#303446"/>
<path d="M303.248 81.4979H334.465V99.911H279.417V1.98704H303.248V81.4979Z" fill="#303446"/>
<path d="M406.733 82.6139H370.22L364.367 99.911H339.421L374.819 1.98704H402.413L437.811 99.911H412.586L406.733 82.6139ZM400.601 64.2008L388.477 28.3512L376.491 64.2008H400.601Z" fill="#303446"/>
<path d="M536.104 99.911H512.273L472.415 39.5106V99.911H448.584V1.98704H472.415L512.273 62.6664V1.98704H536.104V99.911Z" fill="#303446"/>
<path d="M618.322 32.9544C616.556 29.6996 614.001 27.2352 610.657 25.5613C607.405 23.7944 603.549 22.911 599.09 22.911C591.378 22.911 585.2 25.4683 580.554 30.5831C575.909 35.6048 573.586 42.347 573.586 50.8095C573.586 59.8301 576.002 66.8977 580.833 72.0124C585.757 77.0342 592.493 79.545 601.041 79.545C606.894 79.545 611.818 78.0571 615.813 75.0813C619.901 72.1054 622.874 67.8276 624.732 62.2479H594.491V44.6718H646.334V66.8512C644.568 72.8029 641.549 78.3361 637.275 83.4508C633.094 88.5656 627.752 92.7039 621.248 95.8657C614.745 99.0275 607.405 100.608 599.229 100.608C589.567 100.608 580.926 98.5161 573.308 94.3313C565.782 90.0535 559.882 84.1483 555.609 76.6157C551.428 69.0831 549.337 60.481 549.337 50.8095C549.337 41.138 551.428 32.536 555.609 25.0034C559.882 17.3777 565.782 11.4725 573.308 7.28776C580.833 3.00998 589.427 0.871094 599.09 0.871094C610.796 0.871094 620.644 3.70745 628.635 9.38015C636.718 15.0529 642.06 22.911 644.661 32.9544H618.322Z" fill="#303446"/>
<path d="M119.092 15.1069L128.224 7.53062L128.234 7.52148L128.252 7.53518C128.575 7.58542 128.894 7.63565 129.218 7.69502C148.837 11.5585 161.54 30.4285 157.627 49.7916C153.756 68.9904 135.006 81.4851 115.627 77.9732C119.808 77.037 123.827 75.1372 127.337 72.2282C139.103 62.4644 140.642 45.1198 130.765 33.4882C125.106 26.8207 116.925 23.4824 108.758 23.6788L119.096 15.1023L119.092 15.1069Z" fill="url(#paint0_linear_704_508)"/>
<path d="M87.7328 84.1457C85.9118 81.8489 86.1967 78.4203 88.365 76.4914C90.5332 74.5625 93.77 74.8643 95.591 77.1611C97.412 79.4578 97.127 82.8865 94.9588 84.8154C92.7905 86.7443 89.5538 86.4424 87.7328 84.1457Z" fill="url(#paint1_linear_704_508)"/>
<path d="M138.934 99.2969C122.317 102.549 105.97 97.6617 94.2256 87.4645C94.911 87.1783 95.5684 86.7968 96.1652 86.3017C97.3961 85.2933 98.226 83.9943 98.6316 82.5953C101.205 84.0351 103.924 85.2615 106.786 86.2154C131.236 94.405 157.845 81.7186 166.223 57.9039C174.63 34.0846 161.608 8.16232 137.162 0C158.451 3.41573 175.324 19.2907 179.535 39.8623C185.167 67.2018 166.997 93.8009 138.934 99.2924V99.2969Z" fill="url(#paint2_linear_704_508)"/>
<path d="M653.149 0C654.528 0 655.813 0.512435 656.723 1.49028C657.166 1.93219 657.517 2.49163 657.774 3.09808C658.264 4.33214 658.264 5.70724 657.774 6.91779C657.541 7.52424 657.166 8.08369 656.676 8.5256C656.185 9.01453 655.671 9.36476 655.016 9.62097C654.408 9.85368 653.779 9.99472 653.124 9.99472C652.468 9.99472 651.792 9.87719 651.184 9.59982C650.576 9.32245 650.015 8.94636 649.524 8.48094C648.591 7.55011 648.077 6.31368 648.077 5.03261C648.077 3.75154 648.124 4.14645 648.24 3.70454C648.355 3.26262 648.567 2.81836 648.754 2.47047C649.758 0.933187 651.393 0 653.145 0M653.173 0.839163C652.659 0.839163 652.075 0.909681 651.608 1.11888C651.118 1.32809 650.675 1.6078 650.276 2.00505C649.878 2.4023 649.553 2.89123 649.343 3.38015C648.688 4.89393 649.015 6.71094 650.231 7.87684C650.627 8.27174 651.073 8.59846 651.61 8.80766C652.101 9.01686 652.662 9.1344 653.223 9.1344C653.784 9.1344 654.321 9.01686 654.788 8.80766C655.301 8.59846 655.745 8.29524 656.166 7.9215C656.588 7.54775 656.843 7.12934 657.055 6.59341C657.265 6.10448 657.383 5.59205 657.383 5.03261C657.383 4.47317 657.312 3.91373 657.055 3.3778C656.845 2.86537 656.541 2.42345 656.166 2.04971C655.77 1.65481 655.325 1.32809 654.788 1.11888C654.274 0.980199 653.713 0.839163 653.175 0.839163M651.094 2.14374H653.267C653.875 2.09673 654.505 2.21425 655.042 2.53864C655.438 2.81836 655.65 3.26027 655.65 3.7492C655.65 4.23812 655.532 4.42381 655.323 4.68002C655.089 4.95974 654.762 5.12195 654.434 5.19246L655.671 7.68409H654.177L653.126 5.44867H652.449V7.7311H651.118V2.13903H651.094V2.14374ZM652.426 3.02992V4.63771H653.102C653.383 4.68473 653.71 4.59071 653.991 4.42852C654.201 4.31099 654.271 4.05477 654.271 3.82206C654.271 3.58936 654.201 3.33314 653.991 3.16859C653.71 3.0064 653.383 2.9359 653.058 2.9594L652.426 3.02992Z" fill="#303446"/>
<defs>
<linearGradient id="paint0_linear_704_508" x1="108.758" y1="43.0427" x2="158.335" y2="43.0427" gradientUnits="userSpaceOnUse">
<stop stop-color="#00DBFF"/>
<stop offset="1" stop-color="#00FF75"/>
</linearGradient>
<linearGradient id="paint1_linear_704_508" x1="86.5332" y1="80.6534" x2="96.7906" y2="80.6534" gradientUnits="userSpaceOnUse">
<stop stop-color="#00DBFF"/>
<stop offset="1" stop-color="#00FF75"/>
</linearGradient>
<linearGradient id="paint2_linear_704_508" x1="94.2256" y1="50.1477" x2="180.559" y2="50.1477" gradientUnits="userSpaceOnUse">
<stop stop-color="#00DBFF"/>
<stop offset="1" stop-color="#00FF75"/>
</linearGradient>
</defs>
</svg>
