<svg width="1165" height="253" viewBox="0 0 1165 253" fill="none" xmlns="http://www.w3.org/2000/svg">
<path d="M646.005 218.003H625.998V197.997C625.998 195.235 623.761 193 621 193C618.239 193 616.002 195.245 616.002 197.997V218.003H595.995C593.235 218.003 591 220.248 591 223C591 225.752 593.235 227.997 595.995 227.997H616.002V248.003C616.002 250.765 618.239 253 621 253C623.761 253 625.998 250.755 625.998 248.003V227.997H646.005C648.766 227.997 651 225.752 651 223C651 220.248 648.766 218.003 646.005 218.003Z" fill="#303446"/>
<path d="M685.448 193V228.543C685.448 232.097 686.321 234.834 688.067 236.752C689.813 238.67 692.376 239.629 695.756 239.629C699.135 239.629 701.726 238.67 703.529 236.752C705.331 234.834 706.232 232.097 706.232 228.543V193H720.68V228.458C720.68 233.762 719.553 238.247 717.3 241.914C715.047 245.581 712.006 248.346 708.175 250.207C704.402 252.069 700.177 253 695.502 253C690.827 253 686.631 252.097 682.913 250.292C679.252 248.43 676.351 245.666 674.211 241.999C672.07 238.275 671 233.762 671 228.458V193H685.448Z" fill="#303446"/>
<path d="M755.412 241.237H774.338V252.408H740.964V193H755.412V241.237Z" fill="#303446"/>
<path d="M834.035 193V204.594H818.32V252.408H803.872V204.594H788.157V193H834.035Z" fill="#303446"/>
<path d="M865.872 193V252.408H851.425V193H865.872Z" fill="#303446"/>
<path d="M953.651 193V252.408H939.203V216.78L925.938 252.408H914.278L900.929 216.695V252.408H886.481V193H903.548L920.193 234.128L936.668 193H953.651Z" fill="#303446"/>
<path d="M1011.1 241.914H988.965L985.416 252.408H970.292L991.753 193H1008.48L1029.94 252.408H1014.65L1011.1 241.914ZM1007.38 230.743L1000.03 208.994L992.767 230.743H1007.38Z" fill="#303446"/>
<path d="M1089.28 193V204.594H1073.56V252.408H1059.12V204.594H1043.4V193H1089.28Z" fill="#303446"/>
<path d="M1121.12 204.594V216.611H1140.47V227.781H1121.12V240.814H1143V252.408H1106.67V193H1143V204.594H1121.12Z" fill="#303446"/>
<path d="M104.786 87.9209C114.812 90.0598 122.867 95.0779 128.948 102.975C135.03 110.708 138.071 119.593 138.071 129.629C138.071 144.108 132.975 155.625 122.784 164.18C112.758 172.571 98.7042 176.767 80.6235 176.767H0V3.51733H77.9114C95.499 3.51733 109.224 7.54829 119.086 15.6102C129.113 23.6722 134.126 34.6134 134.126 48.4338C134.126 58.6347 131.414 67.1079 125.99 73.8536C120.73 80.5993 113.662 85.2884 104.786 87.9209ZM42.1609 73.6068H69.7751C76.6786 73.6068 81.9384 72.1261 85.5546 69.1645C89.3351 66.0385 91.2253 61.5139 91.2253 55.5909C91.2253 49.6678 89.3351 45.1433 85.5546 42.0172C81.9384 38.8911 76.6786 37.3281 69.7751 37.3281H42.1609V73.6068ZM73.2268 142.709C80.2947 142.709 85.719 141.146 89.4995 138.02C93.4444 134.73 95.4168 130.04 95.4168 123.953C95.4168 117.865 93.3622 113.094 89.2529 109.639C85.308 106.184 79.8016 104.456 72.7337 104.456H42.1609V142.709H73.2268Z" fill="#303446"/>
<path d="M424.103 176.767L388.846 123.706L357.78 176.767H309.948L365.423 88.6613L308.715 3.51733H357.78L392.544 55.8377L423.117 3.51733H470.948L415.967 90.8824L473.167 176.767H424.103Z" fill="#303446"/>
<path d="M536.493 144.19H591.722V176.767H494.333V3.51733H536.493V144.19Z" fill="#303446"/>
<path d="M719.576 146.164H654.979L644.623 176.767H600.49L663.115 3.51733H711.933L774.558 176.767H729.931L719.576 146.164ZM708.728 113.587L687.277 50.1614L666.074 113.587H708.728Z" fill="#303446"/>
<path d="M948.454 176.767H906.293L835.779 69.9049V176.767H793.618V3.51733H835.779L906.293 110.873V3.51733H948.454V176.767Z" fill="#303446"/>
<path d="M1093.91 58.3056C1090.79 52.5471 1086.27 48.187 1080.35 45.2255C1074.6 42.0995 1067.78 40.5364 1059.89 40.5364C1046.24 40.5364 1035.31 45.061 1027.09 54.1101C1018.88 62.9947 1014.77 74.9231 1014.77 89.8952C1014.77 105.855 1019.04 118.359 1027.59 127.408C1036.3 136.293 1048.22 140.735 1063.34 140.735C1073.69 140.735 1082.4 138.102 1089.47 132.837C1096.7 127.572 1101.96 120.004 1105.25 110.132H1051.75V79.0363H1143.47V118.277C1140.34 128.806 1135 138.596 1127.44 147.645C1120.04 156.694 1110.59 164.016 1099.09 169.61C1087.58 175.204 1074.6 178.001 1060.13 178.001C1043.04 178.001 1027.75 174.299 1014.27 166.895C1000.96 159.327 990.521 148.879 982.96 135.552C975.564 122.225 971.865 107.006 971.865 89.8952C971.865 72.7842 975.564 57.5652 982.96 44.2383C990.521 30.7469 1000.96 20.2993 1014.27 12.8955C1027.59 5.32714 1042.79 1.54297 1059.89 1.54297C1080.6 1.54297 1098.02 6.56112 1112.16 16.5974C1126.46 26.6337 1135.91 40.5364 1140.51 58.3056H1093.91Z" fill="#303446"/>
<path d="M210.69 26.727L226.848 13.3228L226.864 13.3066L226.897 13.3309C227.469 13.4198 228.033 13.5086 228.605 13.6137C263.314 20.4491 285.789 53.8342 278.866 88.092C272.018 122.059 238.845 144.165 204.561 137.952C211.957 136.295 219.067 132.934 225.279 127.787C246.094 110.513 248.816 79.8265 231.343 59.2476C221.331 47.4513 206.857 41.5451 192.408 41.8925L210.699 26.7189L210.69 26.727Z" fill="#303446"/>
<path d="M155.21 148.874C151.989 144.811 152.493 138.745 156.329 135.332C160.165 131.919 165.891 132.453 169.113 136.517C172.334 140.58 171.83 146.646 167.994 150.059C164.158 153.472 158.432 152.938 155.21 148.874Z" fill="#303446"/>
<path d="M245.795 175.679C216.397 181.432 187.478 172.786 166.699 154.744C167.912 154.238 169.075 153.563 170.131 152.687C172.308 150.903 173.777 148.605 174.494 146.13C179.047 148.677 183.856 150.847 188.921 152.534C232.177 167.024 279.252 144.579 294.075 102.445C308.947 60.3034 285.909 14.441 242.661 0C280.324 6.04319 310.176 34.1296 317.625 70.5254C327.589 118.895 295.444 165.955 245.795 175.67V175.679Z" fill="#303446"/>
<path d="M1155.53 0C1157.97 0 1160.24 0.906613 1161.85 2.63664C1162.63 3.41848 1163.25 4.40824 1163.71 5.4812C1164.58 7.66453 1164.58 10.0974 1163.71 12.2391C1163.3 13.3121 1162.63 14.3019 1161.76 15.0837C1160.9 15.9487 1159.99 16.5684 1158.83 17.0217C1157.75 17.4334 1156.64 17.6829 1155.48 17.6829C1154.32 17.6829 1153.12 17.475 1152.05 16.9842C1150.97 16.4935 1149.98 15.8281 1149.11 15.0047C1147.46 13.3578 1146.55 11.1703 1146.55 8.90382C1146.55 6.63731 1146.64 7.33599 1146.84 6.55415C1147.04 5.77231 1147.42 4.98631 1147.75 4.37082C1149.53 1.65102 1152.42 0 1155.52 0M1155.57 1.48467C1154.66 1.48467 1153.62 1.60943 1152.8 1.97956C1151.93 2.34968 1151.15 2.84455 1150.44 3.54738C1149.74 4.2502 1149.16 5.11523 1148.79 5.98025C1147.63 8.65847 1148.21 11.8732 1150.36 13.9359C1151.06 14.6346 1151.85 15.2126 1152.8 15.5827C1153.67 15.9529 1154.66 16.1608 1155.66 16.1608C1156.65 16.1608 1157.6 15.9529 1158.42 15.5827C1159.33 15.2126 1160.12 14.6761 1160.86 14.0149C1161.61 13.3537 1162.06 12.6134 1162.44 11.6652C1162.81 10.8002 1163.02 9.89359 1163.02 8.90382C1163.02 7.91404 1162.89 6.92427 1162.44 5.97608C1162.07 5.06948 1161.53 4.28763 1160.86 3.6264C1160.16 2.92773 1159.38 2.34968 1158.42 1.97956C1157.52 1.73419 1156.52 1.48467 1155.57 1.48467M1151.89 3.79275H1155.73C1156.81 3.70958 1157.92 3.91751 1158.87 4.49142C1159.58 4.98631 1159.95 5.76816 1159.95 6.63317C1159.95 7.49818 1159.74 7.82671 1159.37 8.28001C1158.96 8.7749 1158.38 9.06187 1157.8 9.18663L1159.99 13.5949H1157.34L1155.48 9.63992H1154.29V13.6781H1151.93V3.78443H1151.89V3.79275ZM1154.25 5.3606V8.20515H1155.44C1155.94 8.28833 1156.52 8.122 1157.02 7.83505C1157.39 7.62711 1157.51 7.1738 1157.51 6.76209C1157.51 6.35038 1157.39 5.89706 1157.02 5.60595C1156.52 5.319 1155.94 5.19426 1155.36 5.23584L1154.25 5.3606Z" fill="#303446"/>
</svg>
