<svg width="75" height="75" viewBox="0 0 75 75" fill="none" xmlns="http://www.w3.org/2000/svg">
<g clip-path="url(#clip0_737_7155)">
<path d="M72.1875 18H42.1875C41.4416 18 40.7261 17.7037 40.1989 17.1762C39.6712 16.6488 39.375 15.9334 39.375 15.1875C39.375 14.4416 39.6712 13.7262 40.1989 13.1988C40.7261 12.6713 41.4416 12.375 42.1875 12.375H72.1875C72.9334 12.375 73.6489 12.6713 74.1761 13.1988C74.7037 13.7262 75 14.4416 75 15.1875C75 15.9334 74.7037 16.6488 74.1761 17.1762C73.6489 17.7037 72.9334 18 72.1875 18Z" fill="#0D87C5"/>
<path d="M72.1875 40.5H42.1875C41.4416 40.5 40.7261 40.2038 40.1989 39.6761C39.6712 39.1489 39.375 38.4334 39.375 37.6875C39.375 36.9416 39.6712 36.2261 40.1989 35.6989C40.7261 35.1712 41.4416 34.875 42.1875 34.875H72.1875C72.9334 34.875 73.6489 35.1712 74.1761 35.6989C74.7037 36.2261 75 36.9416 75 37.6875C75 38.4334 74.7037 39.1489 74.1761 39.6761C73.6489 40.2038 72.9334 40.5 72.1875 40.5Z" fill="#0D87C5"/>
<path d="M72.1875 63H42.1875C41.4416 63 40.7261 62.7038 40.1989 62.1761C39.6712 61.6489 39.375 60.9334 39.375 60.1875C39.375 59.4416 39.6712 58.7261 40.1989 58.1989C40.7261 57.6712 41.4416 57.375 42.1875 57.375H72.1875C72.9334 57.375 73.6489 57.6712 74.1761 58.1989C74.7037 58.7261 75 59.4416 75 60.1875C75 60.9334 74.7037 61.6489 74.1761 62.1761C73.6489 62.7038 72.9334 63 72.1875 63Z" fill="#0D87C5"/>
<path d="M25.3125 34.875H6.5625C4.82505 34.8652 3.16159 34.1707 1.93297 32.9419C0.7044 31.7134 0.00986249 30.0499 0 28.3125V9.5625C0.00986249 7.82505 0.7044 6.16159 1.93297 4.93298C3.16159 3.7044 4.82505 3.00986 6.5625 3H25.3125C27.0499 3.00986 28.7134 3.7044 29.9419 4.93298C31.1707 6.16159 31.8652 7.82505 31.875 9.5625V28.3125C31.8652 30.0499 31.1707 31.7134 29.9419 32.9419C28.7134 34.1707 27.0499 34.8652 25.3125 34.875ZM6.5625 8.625C6.31387 8.625 6.07541 8.72377 5.89957 8.89957C5.72377 9.07541 5.625 9.31388 5.625 9.5625V28.3125C5.625 28.5611 5.72377 28.7996 5.89957 28.9754C6.07541 29.1512 6.31387 29.25 6.5625 29.25H25.3125C25.5611 29.25 25.7996 29.1512 25.9754 28.9754C26.1512 28.7996 26.25 28.5611 26.25 28.3125V9.5625C26.25 9.31388 26.1512 9.07541 25.9754 8.89957C25.7996 8.72377 25.5611 8.625 25.3125 8.625H6.5625Z" fill="url(#paint0_linear_737_7155)"/>
<path d="M25.3125 72.375H6.5625C4.82505 72.3652 3.16159 71.6708 1.93297 70.4419C0.7044 69.2134 0.00986249 67.5499 0 65.8125V47.0625C0.00986249 45.3251 0.7044 43.6616 1.93297 42.4331C3.16159 41.2043 4.82505 40.5098 6.5625 40.5H25.3125C27.0499 40.5098 28.7134 41.2043 29.9419 42.4331C31.1707 43.6616 31.8652 45.3251 31.875 47.0625V65.8125C31.8652 67.5499 31.1707 69.2134 29.9419 70.4419C28.7134 71.6708 27.0499 72.3652 25.3125 72.375ZM6.5625 46.125C6.31387 46.125 6.07541 46.2236 5.89957 46.3995C5.72377 46.5754 5.625 46.8139 5.625 47.0625V65.8125C5.625 66.0611 5.72377 66.2996 5.89957 66.4755C6.07541 66.6514 6.31387 66.75 6.5625 66.75H25.3125C25.5611 66.75 25.7996 66.6514 25.9754 66.4755C26.1512 66.2996 26.25 66.0611 26.25 65.8125V47.0625C26.25 46.8139 26.1512 46.5754 25.9754 46.3995C25.7996 46.2236 25.5611 46.125 25.3125 46.125H6.5625Z" fill="#33CFFF"/>
<path d="M14.062 25.5004C13.3546 25.4746 12.6839 25.1795 12.187 24.6754L8.437 20.9254C8.09429 20.3968 7.93896 19.7685 7.99589 19.1411C8.05285 18.5137 8.3188 17.9236 8.7511 17.4654C9.1834 17.0071 9.757 16.7073 10.38 16.6139C11.003 16.5206 11.6393 16.639 12.187 16.9504L13.9495 18.7129L19.687 13.2004C19.9188 12.8429 20.2288 12.5428 20.5935 12.3226C20.9583 12.1024 21.3683 11.968 21.7926 11.9295C22.2169 11.891 22.6445 11.9494 23.0429 12.1003C23.4413 12.2511 23.8003 12.4906 24.0927 12.8005C24.385 13.1104 24.6032 13.4827 24.7306 13.8892C24.8581 14.2958 24.8915 14.726 24.8283 15.1473C24.7652 15.5687 24.6071 15.9702 24.3661 16.3215C24.1251 16.6729 23.8074 16.9648 23.437 17.1754L15.937 24.6754C15.4401 25.1795 14.7693 25.4746 14.062 25.5004Z" fill="url(#paint1_linear_737_7155)"/>
</g>
<defs>
<linearGradient id="paint0_linear_737_7155" x1="25.2839" y1="10.4995" x2="5.78528" y2="33.4264" gradientUnits="userSpaceOnUse">
<stop offset="0.278846" stop-color="#33CFFF"/>
<stop offset="1" stop-color="#0D87C5"/>
</linearGradient>
<linearGradient id="paint1_linear_737_7155" x1="21.37" y1="15.1136" x2="13.5225" y2="26.5776" gradientUnits="userSpaceOnUse">
<stop offset="0.278846" stop-color="#33CFFF"/>
<stop offset="1" stop-color="#0D87C5"/>
</linearGradient>
<clipPath id="clip0_737_7155">
<rect width="75" height="75" fill="white"/>
</clipPath>
</defs>
</svg>
