<svg width="731" height="600" viewBox="0 0 731 600" fill="none" xmlns="http://www.w3.org/2000/svg">
<g clip-path="url(#clip0_1198_3528)">
<path d="M592.401 117.646H396.324C391.449 117.646 386.772 115.709 383.326 112.262C379.878 108.814 377.941 104.138 377.941 99.2632C377.941 94.388 379.878 89.7122 383.326 86.2649C386.772 82.8176 391.449 80.8809 396.324 80.8809H592.401C597.276 80.8809 601.952 82.8176 605.398 86.2649C608.847 89.7122 610.783 94.388 610.783 99.2632C610.783 104.138 608.847 108.814 605.398 112.262C601.952 115.709 597.276 117.646 592.401 117.646Z" fill="white"/>
<path d="M592.401 264.706H396.324C391.449 264.706 386.772 262.77 383.326 259.321C379.878 255.875 377.941 251.199 377.941 246.324C377.941 241.449 379.878 236.772 383.326 233.326C386.772 229.878 391.449 227.941 396.324 227.941H592.401C597.276 227.941 601.952 229.878 605.398 233.326C608.847 236.772 610.783 241.449 610.783 246.324C610.783 251.199 608.847 255.875 605.398 259.321C601.952 262.77 597.276 264.706 592.401 264.706Z" fill="white"/>
<path d="M592.401 411.765H396.324C391.449 411.765 386.772 409.828 383.326 406.38C379.878 402.934 377.941 398.257 377.941 393.382C377.941 388.507 379.878 383.831 383.326 380.385C386.772 376.936 391.449 375 396.324 375H592.401C597.276 375 601.952 376.936 605.398 380.385C608.847 383.831 610.783 388.507 610.783 393.382C610.783 398.257 608.847 402.934 605.398 406.38C601.952 409.828 597.276 411.765 592.401 411.765Z" fill="white"/>
<path d="M286.028 227.941H163.48C152.124 227.877 141.252 223.338 133.222 215.306C125.192 207.277 120.652 196.405 120.588 185.049V62.4996C120.652 51.1437 125.192 40.2714 133.222 32.2412C141.252 24.2113 152.124 19.6719 163.48 19.6074H286.028C297.384 19.6719 308.256 24.2113 316.285 32.2412C324.317 40.2714 328.856 51.1437 328.92 62.4996V185.049C328.856 196.405 324.317 207.277 316.285 215.306C308.256 223.338 297.384 227.877 286.028 227.941ZM163.48 56.3721C161.855 56.3721 160.296 57.0177 159.147 58.1667C157.998 59.316 157.352 60.8746 157.352 62.4996V185.049C157.352 186.674 157.998 188.232 159.147 189.381C160.296 190.531 161.855 191.176 163.48 191.176H286.028C287.653 191.176 289.212 190.531 290.361 189.381C291.51 188.232 292.155 186.674 292.155 185.049V62.4996C292.155 60.8746 291.51 59.316 290.361 58.1667C289.212 57.0177 287.653 56.3721 286.028 56.3721H163.48Z" fill="white"/>
<path d="M286.028 473.038H163.48C152.124 472.975 141.252 468.436 133.222 460.404C125.192 452.374 120.652 441.502 120.588 430.146V307.597C120.652 296.242 125.192 285.369 133.222 277.34C141.252 269.308 152.124 264.769 163.48 264.705H286.028C297.384 264.769 308.256 269.308 316.285 277.34C324.317 285.369 328.856 296.242 328.92 307.597V430.146C328.856 441.502 324.317 452.374 316.285 460.404C308.256 468.436 297.384 472.975 286.028 473.038ZM163.48 301.47C161.855 301.47 160.296 302.114 159.147 303.264C157.998 304.413 157.352 305.972 157.352 307.597V430.146C157.352 431.771 157.998 433.33 159.147 434.48C160.296 435.629 161.855 436.274 163.48 436.274H286.028C287.653 436.274 289.212 435.629 290.361 434.48C291.51 433.33 292.155 431.771 292.155 430.146V307.597C292.155 305.972 291.51 304.413 290.361 303.264C289.212 302.114 287.653 301.47 286.028 301.47H163.48Z" fill="white"/>
<path d="M212.499 166.667C207.876 166.498 203.492 164.569 200.244 161.275L175.735 136.765C173.495 133.31 172.48 129.203 172.852 125.103C173.224 121.002 174.962 117.145 177.788 114.15C180.613 111.155 184.362 109.195 188.434 108.585C192.506 107.975 196.665 108.749 200.244 110.785L211.764 122.304L249.264 86.2747C250.779 83.9379 252.804 81.9762 255.189 80.5372C257.573 79.0982 260.252 78.2196 263.026 77.9678C265.799 77.7161 268.593 78.0977 271.198 79.084C273.802 80.07 276.148 81.635 278.059 83.6605C279.97 85.6862 281.395 88.1195 282.228 90.7767C283.061 93.4338 283.28 96.2455 282.867 98.9995C282.454 101.753 281.421 104.378 279.846 106.674C278.271 108.97 276.194 110.879 273.773 112.255L224.754 161.275C221.506 164.569 217.122 166.498 212.499 166.667Z" fill="white"/>
</g>
<path d="M4.44551 546.773C7.38529 541.443 11.4962 537.285 16.7543 534.321C22.0125 531.333 27.9637 529.852 34.632 529.852C42.806 529.852 49.785 532.003 55.6167 536.329C61.4246 540.655 65.3204 546.534 67.2802 553.991H48.8528C47.4905 551.123 45.5307 548.924 43.0211 547.419C40.5115 545.913 37.6435 545.172 34.4408 545.172C29.2782 545.172 25.0956 546.964 21.893 550.573C18.6903 554.159 17.0889 558.987 17.0889 564.986C17.0889 570.985 18.6903 575.813 21.893 579.398C25.0956 582.983 29.2782 584.799 34.4408 584.799C37.6435 584.799 40.5115 584.058 43.0211 582.553C45.5307 581.047 47.4905 578.872 48.8528 575.98H67.2802C65.3204 583.437 61.4246 589.293 55.6167 593.571C49.785 597.849 42.806 600 34.632 600C27.9637 600 21.9886 598.518 16.7304 595.531C11.4723 592.567 7.36139 588.432 4.42161 583.126C1.48184 577.82 0 571.773 0 564.986C0 558.198 1.48184 552.127 4.42161 546.797L4.44551 546.773Z" fill="white"/>
<path d="M128.872 570.101C131.286 573.208 132.505 576.745 132.505 580.737C132.505 586.497 130.497 591.062 126.482 594.408C122.466 597.778 116.85 599.451 109.656 599.451H77.5811V530.641H108.556C115.559 530.641 121.032 532.242 124.976 535.445C128.92 538.647 130.903 542.997 130.903 548.494C130.903 552.558 129.828 555.904 127.725 558.604C125.597 561.281 122.777 563.146 119.24 564.197C123.231 565.058 126.434 567.018 128.848 570.125L128.872 570.101ZM94.3593 558.485H105.33C108.078 558.485 110.181 557.887 111.663 556.669C113.145 555.45 113.862 553.681 113.862 551.315C113.862 548.949 113.121 547.156 111.663 545.913C110.205 544.67 108.078 544.049 105.33 544.049H94.3593V558.461V558.485ZM113.241 584.035C114.77 582.768 115.535 580.904 115.535 578.49C115.535 576.076 114.723 574.188 113.121 572.802C111.52 571.439 109.321 570.746 106.501 570.746H94.3354V585.947H106.692C109.488 585.947 111.663 585.302 113.217 584.035H113.241Z" fill="white"/>
<path d="M206.837 530.641L182.411 599.475H161.426L137.023 530.641H154.877L171.942 582.625L189.079 530.641H206.837Z" fill="white"/>
<path d="M256.646 587.309H230.953L226.842 599.475H209.299L234.203 530.641H253.611L278.515 599.475H260.757L256.646 587.309ZM252.344 574.379L243.811 549.188L235.374 574.379H252.344Z" fill="white"/>
<path d="M302.844 586.544H324.808V599.499H286.065V530.641H302.844V586.544Z" fill="white"/>
<path d="M349.618 530.641V599.475H332.84V530.641H349.618Z" fill="white"/>
<path d="M406.572 534.943C411.998 537.811 416.204 541.85 419.168 547.06C422.132 552.247 423.637 558.246 423.637 565.058C423.637 571.869 422.156 577.773 419.168 583.007C416.18 588.241 411.974 592.281 406.525 595.173C401.075 598.041 394.742 599.499 387.548 599.499H361.759V530.641H387.548C394.813 530.641 401.147 532.075 406.572 534.943ZM401.29 579.757C404.828 576.291 406.596 571.391 406.596 565.058C406.596 558.724 404.828 553.777 401.29 550.239C397.753 546.702 392.83 544.957 386.472 544.957H378.537V584.967H386.472C392.806 584.967 397.753 583.246 401.29 579.781V579.757Z" fill="white"/>
<path d="M475.907 587.309H450.214L446.103 599.475H428.56L453.44 530.641H472.847L497.752 599.475H479.994L475.883 587.309H475.907ZM471.581 574.379L463.048 549.188L454.611 574.379H471.581Z" fill="white"/>
<path d="M554.853 530.641V544.073H536.617V599.475H519.839V544.073H501.603V530.641H554.853Z" fill="white"/>
<path d="M580.042 530.641V599.475H563.264V530.641H580.042Z" fill="white"/>
<path d="M730.855 599.475H714.077L686.042 557.003V599.475H669.264V530.641H686.042L714.077 573.303V530.641H730.855V599.475Z" fill="white"/>
<path d="M630.784 595.172C614.011 595.172 600.414 581.624 600.414 564.911C600.414 548.199 614.011 534.651 630.784 534.651C639.243 534.651 646.89 538.099 652.397 543.662C646.053 535.027 635.807 529.412 624.24 529.412C604.974 529.412 589.355 544.971 589.355 564.167C589.355 583.364 604.974 598.923 624.236 598.923C632.927 598.923 640.871 595.747 646.983 590.504C642.292 593.46 636.74 595.175 630.784 595.175" fill="white"/>
<path d="M641.221 539.516C648.522 543.777 653.431 551.671 653.431 560.71C653.431 574.268 642.4 585.256 628.797 585.259C616.137 585.259 605.714 575.745 604.325 563.503C604.3 563.986 604.283 564.468 604.283 564.953C604.283 579.972 616.504 592.145 631.573 592.145C646.642 592.145 658.862 579.968 658.862 564.953C658.862 553.321 651.53 543.401 641.221 539.516Z" fill="white"/>
<path d="M628.068 541.396C618.91 541.396 611.177 547.466 608.691 555.788C611.467 549.615 617.686 545.316 624.915 545.316C634.733 545.316 642.691 553.246 642.691 563.028C642.691 572.811 634.733 580.74 624.915 580.74C623.311 580.74 621.755 580.523 620.276 580.127C622.671 581.126 625.306 581.677 628.068 581.68C639.234 581.68 648.281 572.659 648.281 561.537C648.281 550.411 639.23 541.396 628.068 541.396Z" fill="white"/>
<defs>
<clipPath id="clip0_1198_3528">
<rect width="490.196" height="490.196" fill="white" transform="translate(120.588)"/>
</clipPath>
</defs>
</svg>
