<svg width="364" height="50" viewBox="0 0 364 50" fill="none" xmlns="http://www.w3.org/2000/svg">
<g clip-path="url(#clip0_737_7454)">
<path d="M48.1248 12H28.125C27.6277 12 27.1507 11.8025 26.7992 11.4508C26.4475 11.0992 26.25 10.6223 26.25 10.125C26.25 9.62773 26.4475 9.1508 26.7992 8.79917C27.1507 8.44755 27.6277 8.25 28.125 8.25H48.1248C48.6221 8.25 49.0991 8.44755 49.4506 8.79917C49.8023 9.1508 49.9998 9.62773 49.9998 10.125C49.9998 10.6223 49.8023 11.0992 49.4506 11.4508C49.0991 11.8025 48.6221 12 48.1248 12Z" fill="white"/>
<path d="M48.1248 27H28.125C27.6277 27 27.1507 26.8025 26.7992 26.4508C26.4475 26.0993 26.25 25.6222 26.25 25.125C26.25 24.6278 26.4475 24.1507 26.7992 23.7992C27.1507 23.4475 27.6277 23.25 28.125 23.25H48.1248C48.6221 23.25 49.0991 23.4475 49.4506 23.7992C49.8023 24.1507 49.9998 24.6278 49.9998 25.125C49.9998 25.6222 49.8023 26.0993 49.4506 26.4508C49.0991 26.8025 48.6221 27 48.1248 27Z" fill="white"/>
<path d="M48.1248 42H28.125C27.6277 42 27.1507 41.8025 26.7992 41.4508C26.4475 41.0993 26.25 40.6222 26.25 40.125C26.25 39.6278 26.4475 39.1507 26.7992 38.7992C27.1507 38.4475 27.6277 38.25 28.125 38.25H48.1248C48.6221 38.25 49.0991 38.4475 49.4506 38.7992C49.8023 39.1507 49.9998 39.6278 49.9998 40.125C49.9998 40.6222 49.8023 41.0993 49.4506 41.4508C49.0991 41.8025 48.6221 42 48.1248 42Z" fill="white"/>
<path d="M16.8749 23.25H4.37497C3.21668 23.2435 2.10771 22.7805 1.28864 21.9612C0.469597 21.1422 0.00657495 20.0333 0 18.875V6.375C0.00657495 5.2167 0.469597 4.10773 1.28864 3.28865C2.10771 2.4696 3.21668 2.00658 4.37497 2H16.8749C18.0332 2.00658 19.1421 2.4696 19.9611 3.28865C20.7803 4.10773 21.2433 5.2167 21.2498 6.375V18.875C21.2433 20.0333 20.7803 21.1422 19.9611 21.9612C19.1421 22.7805 18.0332 23.2435 16.8749 23.25ZM4.37497 5.75C4.20922 5.75 4.05025 5.81585 3.93302 5.93305C3.81582 6.05027 3.74997 6.20925 3.74997 6.375V18.875C3.74997 19.0407 3.81582 19.1997 3.93302 19.3169C4.05025 19.4341 4.20922 19.5 4.37497 19.5H16.8749C17.0406 19.5 17.1996 19.4341 17.3168 19.3169C17.434 19.1997 17.4999 19.0407 17.4999 18.875V6.375C17.4999 6.20925 17.434 6.05027 17.3168 5.93305C17.1996 5.81585 17.0406 5.75 16.8749 5.75H4.37497Z" fill="white"/>
<path d="M16.8749 48.25H4.37497C3.21668 48.2435 2.10771 47.7805 1.28864 46.9613C0.469597 46.1423 0.00657495 45.0332 0 43.875V31.375C0.00657495 30.2168 0.469597 29.1078 1.28864 28.2888C2.10771 27.4695 3.21668 27.0065 4.37497 27H16.8749C18.0332 27.0065 19.1421 27.4695 19.9611 28.2888C20.7803 29.1078 21.2433 30.2168 21.2498 31.375V43.875C21.2433 45.0332 20.7803 46.1423 19.9611 46.9613C19.1421 47.7805 18.0332 48.2435 16.8749 48.25ZM4.37497 30.75C4.20922 30.75 4.05025 30.8158 3.93302 30.933C3.81582 31.0503 3.74997 31.2093 3.74997 31.375V43.875C3.74997 44.0407 3.81582 44.1997 3.93302 44.317C4.05025 44.4342 4.20922 44.5 4.37497 44.5H16.8749C17.0406 44.5 17.1996 44.4342 17.3168 44.317C17.434 44.1997 17.4999 44.0407 17.4999 43.875V31.375C17.4999 31.2093 17.434 31.0503 17.3168 30.933C17.1996 30.8158 17.0406 30.75 16.8749 30.75H4.37497Z" fill="white"/>
<path d="M9.37496 17.0003C8.90339 16.9831 8.45624 16.7863 8.12497 16.4503L5.62499 13.9503C5.39652 13.5979 5.29297 13.179 5.33092 12.7607C5.36889 12.3425 5.54619 11.9491 5.83439 11.6436C6.12259 11.3381 6.50498 11.1382 6.92033 11.0759C7.33568 11.0137 7.75987 11.0927 8.12497 11.3003L9.29996 12.4753L13.1249 8.80029C13.2795 8.56194 13.4861 8.36184 13.7293 8.21506C13.9725 8.06829 14.2458 7.97866 14.5287 7.95299C14.8115 7.92731 15.0966 7.96624 15.3622 8.06684C15.6278 8.16741 15.8671 8.32704 16.062 8.53364C16.2569 8.74026 16.4024 8.98846 16.4873 9.25949C16.5723 9.53051 16.5946 9.81731 16.5525 10.0982C16.5104 10.3791 16.405 10.6468 16.2443 10.881C16.0836 11.1152 15.8718 11.3099 15.6249 11.4503L10.625 16.4503C10.2937 16.7863 9.84651 16.9831 9.37496 17.0003Z" fill="white"/>
</g>
<path d="M56.8773 17.423C58.1194 15.1711 59.8563 13.414 62.0779 12.1618C64.2995 10.8995 66.814 10.2734 69.6314 10.2734C73.085 10.2734 76.0337 11.1823 78.4976 13.0101C80.9515 14.8379 82.5975 17.3221 83.4256 20.4727H75.6398C75.0642 19.2609 74.2362 18.3319 73.1759 17.6957C72.1155 17.0595 70.9037 16.7465 69.5506 16.7465C67.3694 16.7465 65.6022 17.5038 64.249 19.0287C62.8958 20.5434 62.2193 22.5833 62.2193 25.1179C62.2193 27.6526 62.8958 29.6925 64.249 31.2072C65.6022 32.722 67.3694 33.4894 69.5506 33.4894C70.9037 33.4894 72.1155 33.1764 73.1759 32.5402C74.2362 31.904 75.0642 30.9851 75.6398 29.7632H83.4256C82.5975 32.9138 80.9515 35.3879 78.4976 37.1955C76.0337 39.0031 73.085 39.912 69.6314 39.912C66.814 39.912 64.2894 39.2859 62.0678 38.0236C59.8462 36.7714 58.1093 35.0244 56.8672 32.7826C55.6251 30.5407 54.999 27.9859 54.999 25.1179C54.999 22.25 55.6251 19.6851 56.8672 17.4331L56.8773 17.423Z" fill="white"/>
<path d="M109.448 27.2797C110.468 28.5925 110.983 30.0871 110.983 31.7735C110.983 34.2072 110.135 36.1359 108.438 37.5497C106.742 38.9736 104.369 39.6804 101.329 39.6804H87.7773V10.6074H100.865C103.823 10.6074 106.136 11.284 107.802 12.6372C109.468 13.9904 110.307 15.8282 110.307 18.1509C110.307 19.8676 109.852 21.2813 108.963 22.4224C108.065 23.5534 106.873 24.3411 105.379 24.7854C107.065 25.149 108.418 25.977 109.438 27.2898L109.448 27.2797ZM94.8663 22.3719H99.5014C100.663 22.3719 101.551 22.1195 102.177 21.6045C102.804 21.0895 103.106 20.3422 103.106 19.3425C103.106 18.3427 102.793 17.5854 102.177 17.0602C101.561 16.5351 100.663 16.2726 99.5014 16.2726H94.8663V22.3619V22.3719ZM102.844 33.167C103.49 32.6318 103.813 31.8442 103.813 30.8242C103.813 29.8043 103.47 29.0065 102.793 28.4208C102.117 27.8452 101.188 27.5524 99.9962 27.5524H94.8562V33.9749H100.077C101.258 33.9749 102.177 33.7022 102.834 33.167H102.844Z" fill="white"/>
<path d="M142.389 10.6074L132.068 39.6905H123.202L112.892 10.6074H120.435L127.645 32.5712L134.886 10.6074H142.389Z" fill="white"/>
<path d="M163.433 34.5505H152.578L150.841 39.6905H143.429L153.951 10.6074H162.151L172.673 39.6905H165.17L163.433 34.5505ZM161.616 29.0873L158.011 18.4437L154.446 29.0873H161.616Z" fill="white"/>
<path d="M182.953 34.2274H192.233V39.7006H175.864V10.6074H182.953V34.2274Z" fill="white"/>
<path d="M202.716 10.6074V39.6905H195.627V10.6074H202.716Z" fill="white"/>
<path d="M226.78 12.4251C229.072 13.6369 230.849 15.3435 232.102 17.545C233.354 19.7363 233.99 22.271 233.99 25.149C233.99 28.027 233.364 30.5213 232.102 32.7328C230.839 34.9443 229.062 36.651 226.76 37.8728C224.457 39.0846 221.781 39.7006 218.742 39.7006H207.846V10.6074H218.742C221.812 10.6074 224.488 11.2133 226.78 12.4251ZM224.548 31.3594C226.043 29.8952 226.79 27.825 226.79 25.149C226.79 22.4729 226.043 20.3826 224.548 18.888C223.054 17.3935 220.973 16.6563 218.287 16.6563H214.935V33.5609H218.287C220.963 33.5609 223.054 32.8338 224.548 31.3695V31.3594Z" fill="white"/>
<path d="M256.075 34.5505H245.219L243.482 39.6905H236.07L246.583 10.6074H254.782L265.305 39.6905H257.802L256.065 34.5505H256.075ZM254.247 29.0873L250.642 18.4437L247.077 29.0873H254.247Z" fill="white"/>
<path d="M289.43 10.6074V16.2827H281.725V39.6905H274.636V16.2827H266.931V10.6074H289.43Z" fill="white"/>
<path d="M300.073 10.6074V39.6905H292.984V10.6074H300.073Z" fill="white"/>
<path d="M363.793 39.6905H356.704L344.858 21.7459V39.6905H337.77V10.6074H344.858L356.704 28.6329V10.6074H363.793V39.6905Z" fill="white"/>
<path d="M321.511 37.872C314.424 37.872 308.679 32.1481 308.679 25.0867C308.679 18.0254 314.424 12.3015 321.511 12.3015C325.085 12.3015 328.316 13.7583 330.643 16.1087C327.962 12.4601 323.633 10.0879 318.746 10.0879C310.606 10.0879 304.007 16.6617 304.007 24.7724C304.007 32.883 310.606 39.4569 318.744 39.4569C322.416 39.4569 325.773 38.115 328.355 35.9C326.373 37.1487 324.027 37.8734 321.511 37.8734" fill="white"/>
<path d="M325.922 14.3574C329.007 16.1577 331.081 19.4934 331.081 23.3122C331.081 29.0405 326.42 33.683 320.673 33.6845C315.324 33.6845 310.92 29.6648 310.333 24.4925C310.323 24.6962 310.315 24.9 310.315 25.1052C310.315 31.4505 315.479 36.5937 321.845 36.5937C328.212 36.5937 333.376 31.4491 333.376 25.1052C333.376 20.1905 330.278 15.9991 325.922 14.3574Z" fill="white"/>
<path d="M320.363 15.1523C316.494 15.1523 313.227 17.7167 312.177 21.2328C313.35 18.6248 315.977 16.8085 319.031 16.8085C323.18 16.8085 326.542 20.1588 326.542 24.2919C326.542 28.4251 323.18 31.7754 319.031 31.7754C318.354 31.7754 317.696 31.6837 317.071 31.5163C318.083 31.9384 319.196 32.1712 320.363 32.1727C325.081 32.1727 328.904 28.3611 328.904 23.6618C328.904 18.961 325.08 15.1523 320.363 15.1523Z" fill="white"/>
<defs>
<clipPath id="clip0_737_7454">
<rect width="49.9997" height="50" fill="white"/>
</clipPath>
</defs>
</svg>
