<svg width="1296" height="178" viewBox="0 0 1296 178" fill="none" xmlns="http://www.w3.org/2000/svg">
<g clip-path="url(#clip0_737_7354)">
<path d="M171.324 42.7191H100.124C98.354 42.7191 96.6559 42.0159 95.4045 40.7641C94.1523 39.5123 93.4492 37.8144 93.4492 36.0441C93.4492 34.2738 94.1523 32.576 95.4045 31.3242C96.6559 30.0724 98.354 29.3691 100.124 29.3691H171.324C173.094 29.3691 174.792 30.0724 176.043 31.3242C177.296 32.576 177.999 34.2738 177.999 36.0441C177.999 37.8144 177.296 39.5123 176.043 40.7641C174.792 42.0159 173.094 42.7191 171.324 42.7191Z" fill="white"/>
<path d="M171.324 96.1195H100.124C98.354 96.1195 96.6559 95.4164 95.4045 94.1642C94.1523 92.9129 93.4492 91.2147 93.4492 89.4445C93.4492 87.6743 94.1523 85.9762 95.4045 84.7249C96.6559 83.4726 98.354 82.7695 100.124 82.7695H171.324C173.094 82.7695 174.792 83.4726 176.043 84.7249C177.296 85.9762 177.999 87.6743 177.999 89.4445C177.999 91.2147 177.296 92.9129 176.043 94.1642C174.792 95.4164 173.094 96.1195 171.324 96.1195Z" fill="white"/>
<path d="M171.324 149.52H100.124C98.354 149.52 96.6559 148.817 95.4045 147.565C94.1523 146.313 93.4492 144.615 93.4492 142.845C93.4492 141.075 94.1523 139.377 95.4045 138.125C96.6559 136.873 98.354 136.17 100.124 136.17H171.324C173.094 136.17 174.792 136.873 176.043 138.125C177.296 139.377 177.999 141.075 177.999 142.845C177.999 144.615 177.296 146.313 176.043 147.565C174.792 148.817 173.094 149.52 171.324 149.52Z" fill="white"/>
<path d="M60.0746 82.7691H15.5749C11.4514 82.746 7.50345 81.0977 4.58756 78.1812C1.67176 75.2656 0.0234068 71.3177 0 67.1941V22.6941C0.0234068 18.5706 1.67176 14.6226 4.58756 11.7067C7.50345 8.79092 11.4514 7.14255 15.5749 7.11914H60.0746C64.1981 7.14255 68.1459 8.79092 71.0616 11.7067C73.9781 14.6226 75.6263 18.5706 75.6495 22.6941V67.1941C75.6263 71.3177 73.9781 75.2656 71.0616 78.1812C68.1459 81.0977 64.1981 82.746 60.0746 82.7691ZM15.5749 20.4691C14.9848 20.4691 14.4189 20.7036 14.0016 21.1208C13.5843 21.5381 13.3499 22.1041 13.3499 22.6941V67.1941C13.3499 67.7842 13.5843 68.3502 14.0016 68.7675C14.4189 69.1847 14.9848 69.4191 15.5749 69.4191H60.0746C60.6647 69.4191 61.2306 69.1847 61.6479 68.7675C62.0652 68.3502 62.2996 67.7842 62.2996 67.1941V22.6941C62.2996 22.1041 62.0652 21.5381 61.6479 21.1208C61.2306 20.7036 60.6647 20.4691 60.0746 20.4691H15.5749Z" fill="white"/>
<path d="M60.0746 171.769H15.5749C11.4514 171.746 7.50345 170.098 4.58756 167.181C1.67176 164.266 0.0234068 160.318 0 156.194V111.694C0.0234068 107.571 1.67176 103.623 4.58756 100.707C7.50345 97.7906 11.4514 96.1423 15.5749 96.1191H60.0746C64.1981 96.1423 68.1459 97.7906 71.0616 100.707C73.9781 103.623 75.6263 107.571 75.6495 111.694V156.194C75.6263 160.318 73.9781 164.266 71.0616 167.181C68.1459 170.098 64.1981 171.746 60.0746 171.769ZM15.5749 109.469C14.9848 109.469 14.4189 109.703 14.0016 110.121C13.5843 110.538 13.3499 111.104 13.3499 111.694V156.194C13.3499 156.784 13.5843 157.35 14.0016 157.768C14.4189 158.185 14.9848 158.419 15.5749 158.419H60.0746C60.6647 158.419 61.2306 158.185 61.6479 157.768C62.0652 157.35 62.2996 156.784 62.2996 156.194V111.694C62.2996 111.104 62.0652 110.538 61.6479 110.121C61.2306 109.703 60.6647 109.469 60.0746 109.469H15.5749Z" fill="white"/>
<path d="M33.3743 60.5189C31.6955 60.4576 30.1037 59.7572 28.9244 58.5609L20.0244 49.6609C19.211 48.4064 18.8424 46.9151 18.9775 45.4261C19.1127 43.9371 19.7439 42.5366 20.7699 41.4491C21.7959 40.3615 23.1572 39.6498 24.6358 39.4282C26.1145 39.2067 27.6246 39.4879 28.9244 40.2269L33.1073 44.4099L46.7242 31.3269C47.2743 30.4784 48.01 29.766 48.8757 29.2435C49.7414 28.721 50.7145 28.4019 51.7215 28.3105C52.7286 28.2191 53.7433 28.3577 54.6889 28.7158C55.6345 29.0739 56.4864 29.6421 57.1803 30.3776C57.8742 31.1132 58.3919 31.9968 58.6944 32.9617C58.9968 33.9265 59.0761 34.9475 58.9262 35.9475C58.7763 36.9475 58.4012 37.9005 57.8292 38.7343C57.2572 39.5681 56.5032 40.2611 55.6242 40.7609L37.8243 58.5609C36.645 59.7572 35.053 60.4576 33.3743 60.5189Z" fill="white"/>
</g>
<path d="M202.485 62.0268C206.906 54.01 213.09 47.7547 220.999 43.2969C228.908 38.8031 237.859 36.5742 247.889 36.5742C260.184 36.5742 270.681 39.8097 279.453 46.3167C288.189 52.8236 294.048 61.6673 296.996 72.8837H269.279C267.23 68.5697 264.282 65.2623 260.507 62.9974C256.733 60.7326 252.419 59.6181 247.601 59.6181C239.836 59.6181 233.545 62.3144 228.728 67.7428C223.911 73.1353 221.502 80.3972 221.502 89.4207C221.502 98.4441 223.911 105.706 228.728 111.098C233.545 116.491 239.836 119.223 247.601 119.223C252.419 119.223 256.733 118.109 260.507 115.844C264.282 113.579 267.23 110.308 269.279 105.958H296.996C294.048 117.174 288.189 125.982 279.453 132.417C270.681 138.852 260.184 142.087 247.889 142.087C237.859 142.087 228.872 139.858 220.963 135.365C213.054 130.907 206.87 124.688 202.449 116.707C198.027 108.726 195.798 99.6305 195.798 89.4207C195.798 79.2109 198.027 70.0796 202.449 62.0627L202.485 62.0268Z" fill="white"/>
<path d="M389.638 97.1151C393.269 101.789 395.103 107.109 395.103 113.113C395.103 121.777 392.083 128.643 386.043 133.676C380.004 138.745 371.556 141.262 360.735 141.262H312.49V37.7617H359.081C369.614 37.7617 377.847 40.1704 383.779 44.9877C389.71 49.805 392.694 56.3479 392.694 64.6163C392.694 70.7278 391.076 75.7608 387.913 79.8232C384.713 83.8496 380.471 86.6537 375.151 88.2355C381.154 89.5297 385.972 92.4776 389.602 97.1511L389.638 97.1151ZM337.727 79.6434H354.228C358.362 79.6434 361.526 78.7447 363.755 76.9112C365.983 75.0778 367.062 72.4175 367.062 68.8584C367.062 65.2994 365.947 62.6031 363.755 60.7338C361.562 58.8644 358.362 57.9297 354.228 57.9297H337.727V79.6075V79.6434ZM366.127 118.074C368.428 116.169 369.578 113.365 369.578 109.734C369.578 106.103 368.356 103.263 365.948 101.177C363.539 99.1283 360.231 98.0858 355.989 98.0858H337.691V120.95H356.277C360.483 120.95 363.755 119.979 366.091 118.074H366.127Z" fill="white"/>
<path d="M506.907 37.7617L470.166 141.298H438.602L401.897 37.7617H428.752L454.42 115.953L480.196 37.7617H506.907Z" fill="white"/>
<path d="M581.826 122.999H543.18L536.997 141.298H510.609L548.069 37.7617H577.26L614.72 141.298H588.009L581.826 122.999ZM575.355 103.55L562.521 65.6589L549.831 103.55H575.355Z" fill="white"/>
<path d="M651.317 121.849H684.355V141.334H626.08V37.7617H651.317V121.849Z" fill="white"/>
<path d="M721.67 37.7617V141.298H696.434V37.7617H721.67Z" fill="white"/>
<path d="M807.339 44.2327C815.5 48.5467 821.827 54.6223 826.285 62.4593C830.743 70.2605 833.007 79.2839 833.007 89.5297C833.007 99.7754 830.779 108.655 826.285 116.528C821.791 124.401 815.464 130.477 807.267 134.827C799.071 139.141 789.544 141.334 778.723 141.334H739.934V37.7617H778.723C789.652 37.7617 799.179 39.9187 807.339 44.2327ZM799.394 111.639C804.715 106.426 807.375 99.0564 807.375 89.5297C807.375 80.0029 804.715 72.5613 799.394 67.2407C794.074 61.9201 786.668 59.2957 777.106 59.2957H765.17V119.476H777.106C786.632 119.476 794.074 116.888 799.394 111.675V111.639Z" fill="white"/>
<path d="M911.629 122.999H872.983L866.799 141.298H840.412L877.836 37.7617H907.027L944.487 141.298H917.776L911.593 122.999H911.629ZM905.122 103.55L892.288 65.6589L879.597 103.55H905.122Z" fill="white"/>
<path d="M1030.37 37.7617V57.9656H1002.94V141.298H977.704V57.9656H950.274V37.7617H1030.37Z" fill="white"/>
<path d="M1068.26 37.7617V141.298H1043.03V37.7617H1068.26Z" fill="white"/>
<path d="M1295.1 141.298H1269.87L1227.7 77.4145V141.298H1202.46V37.7617H1227.7L1269.87 101.932V37.7617H1295.1V141.298Z" fill="white"/>
<path d="M1144.58 134.825C1119.35 134.825 1098.9 114.448 1098.9 89.3099C1098.9 64.1715 1119.35 43.7944 1144.58 43.7944C1157.3 43.7944 1168.81 48.9807 1177.09 57.3481C1167.55 44.3592 1152.14 35.9141 1134.74 35.9141C1105.76 35.9141 1082.27 59.3169 1082.27 88.1908C1082.27 117.065 1105.76 140.468 1134.73 140.468C1147.8 140.468 1159.75 135.691 1168.95 127.805C1161.89 132.25 1153.54 134.831 1144.58 134.831" fill="white"/>
<path d="M1160.28 51.1094C1171.27 57.5183 1178.65 69.3933 1178.65 82.9884C1178.65 103.381 1162.06 119.909 1141.6 119.914C1122.55 119.914 1106.88 105.604 1104.79 87.1902C1104.75 87.9155 1104.72 88.6409 1104.72 89.3714C1104.72 111.961 1123.11 130.271 1145.77 130.271C1168.44 130.271 1186.82 111.956 1186.82 89.3714C1186.82 71.875 1175.79 56.9536 1160.28 51.1094Z" fill="white"/>
<path d="M1140.5 53.9414C1126.72 53.9414 1115.09 63.0704 1111.35 75.5878C1115.53 66.3034 1124.88 59.8374 1135.75 59.8374C1150.52 59.8374 1162.49 71.7642 1162.49 86.4784C1162.49 101.193 1150.52 113.119 1135.75 113.119C1133.34 113.119 1131 112.793 1128.78 112.197C1132.38 113.7 1136.34 114.529 1140.5 114.534C1157.29 114.534 1170.9 100.965 1170.9 84.235C1170.9 67.5002 1157.29 53.9414 1140.5 53.9414Z" fill="white"/>
<defs>
<clipPath id="clip0_737_7354">
<rect width="177.999" height="178" fill="white"/>
</clipPath>
</defs>
</svg>
