<svg width="728" height="100" viewBox="0 0 728 100" fill="none" xmlns="http://www.w3.org/2000/svg">
<g clip-path="url(#clip0_737_7229)">
<path d="M96.2492 24H56.2495C55.255 24 54.301 23.6049 53.598 22.9017C52.8945 22.1984 52.4995 21.2445 52.4995 20.25C52.4995 19.2555 52.8945 18.3016 53.598 17.5983C54.301 16.8951 55.255 16.5 56.2495 16.5H96.2492C97.2437 16.5 98.1977 16.8951 98.9007 17.5983C99.6042 18.3016 99.9992 19.2555 99.9992 20.25C99.9992 21.2445 99.6042 22.1984 98.9007 22.9017C98.1977 23.6049 97.2437 24 96.2492 24Z" fill="#0D87C5"/>
<path d="M96.2492 54H56.2495C55.255 54 54.301 53.605 53.598 52.9015C52.8945 52.1985 52.4995 51.2445 52.4995 50.25C52.4995 49.2555 52.8945 48.3015 53.598 47.5985C54.301 46.895 55.255 46.5 56.2495 46.5H96.2492C97.2437 46.5 98.1977 46.895 98.9007 47.5985C99.6042 48.3015 99.9992 49.2555 99.9992 50.25C99.9992 51.2445 99.6042 52.1985 98.9007 52.9015C98.1977 53.605 97.2437 54 96.2492 54Z" fill="#0D87C5"/>
<path d="M96.2492 84H56.2495C55.255 84 54.301 83.605 53.598 82.9015C52.8945 82.1985 52.4995 81.2445 52.4995 80.25C52.4995 79.2555 52.8945 78.3015 53.598 77.5985C54.301 76.895 55.255 76.5 56.2495 76.5H96.2492C97.2437 76.5 98.1977 76.895 98.9007 77.5985C99.6042 78.3015 99.9992 79.2555 99.9992 80.25C99.9992 81.2445 99.6042 82.1985 98.9007 82.9015C98.1977 83.605 97.2437 84 96.2492 84Z" fill="#0D87C5"/>
<path d="M33.7498 46.5H8.74994C6.43335 46.487 4.21542 45.561 2.57728 43.9225C0.939193 42.2845 0.0131499 40.0666 0 37.75V12.75C0.0131499 10.4334 0.939193 8.21545 2.57728 6.5773C4.21542 4.9392 6.43335 4.01315 8.74994 4H33.7498C36.0663 4.01315 38.2842 4.9392 39.9222 6.5773C41.5607 8.21545 42.4867 10.4334 42.4997 12.75V37.75C42.4867 40.0666 41.5607 42.2845 39.9222 43.9225C38.2842 45.561 36.0663 46.487 33.7498 46.5ZM8.74994 11.5C8.41844 11.5 8.10049 11.6317 7.86604 11.8661C7.63164 12.1005 7.49995 12.4185 7.49995 12.75V37.75C7.49995 38.0815 7.63164 38.3994 7.86604 38.6339C8.10049 38.8683 8.41844 39 8.74994 39H33.7498C34.0813 39 34.3992 38.8683 34.6336 38.6339C34.868 38.3994 34.9997 38.0815 34.9997 37.75V12.75C34.9997 12.4185 34.868 12.1005 34.6336 11.8661C34.3992 11.6317 34.0813 11.5 33.7498 11.5H8.74994Z" fill="url(#paint0_linear_737_7229)"/>
<path d="M33.7498 96.5H8.74994C6.43335 96.487 4.21542 95.561 2.57728 93.9225C0.939193 92.2845 0.0131499 90.0665 0 87.75V62.75C0.0131499 60.4335 0.939193 58.2155 2.57728 56.5775C4.21542 54.939 6.43335 54.013 8.74994 54H33.7498C36.0663 54.013 38.2842 54.939 39.9222 56.5775C41.5607 58.2155 42.4867 60.4335 42.4997 62.75V87.75C42.4867 90.0665 41.5607 92.2845 39.9222 93.9225C38.2842 95.561 36.0663 96.487 33.7498 96.5ZM8.74994 61.5C8.41844 61.5 8.10049 61.6315 7.86604 61.866C7.63164 62.1005 7.49995 62.4185 7.49995 62.75V87.75C7.49995 88.0815 7.63164 88.3995 7.86604 88.634C8.10049 88.8685 8.41844 89 8.74994 89H33.7498C34.0813 89 34.3992 88.8685 34.6336 88.634C34.868 88.3995 34.9997 88.0815 34.9997 87.75V62.75C34.9997 62.4185 34.868 62.1005 34.6336 61.866C34.3992 61.6315 34.0813 61.5 33.7498 61.5H8.74994Z" fill="#33CFFF"/>
<path d="M18.7499 34.0006C17.8068 33.9661 16.9125 33.5726 16.2499 32.9006L11.25 27.9006C10.793 27.1958 10.5859 26.358 10.6618 25.5215C10.7378 24.6849 11.0924 23.8981 11.6688 23.2872C12.2452 22.6762 13.01 22.2764 13.8407 22.1519C14.6714 22.0274 15.5197 22.1854 16.2499 22.6006L18.5999 24.9506L26.2499 17.6006C26.5589 17.1239 26.9722 16.7237 27.4586 16.4301C27.9449 16.1366 28.4916 15.9573 29.0573 15.906C29.6231 15.8546 30.1931 15.9325 30.7244 16.1337C31.2556 16.3348 31.7342 16.6541 32.1241 17.0673C32.5139 17.4805 32.8047 17.9769 32.9747 18.519C33.1446 19.061 33.1891 19.6346 33.1049 20.1964C33.0207 20.7582 32.81 21.2936 32.4886 21.762C32.1673 22.2305 31.7437 22.6198 31.2498 22.9006L21.2499 32.9006C20.5874 33.5726 19.693 33.9661 18.7499 34.0006Z" fill="url(#paint1_linear_737_7229)"/>
</g>
<path d="M113.756 34.8461C116.24 30.3422 119.714 26.828 124.157 24.3236C128.6 21.7991 133.629 20.5469 139.264 20.5469C146.171 20.5469 152.068 22.3646 156.996 26.0202C161.904 29.6757 165.196 34.6441 166.852 40.9455H151.281C150.129 38.5219 148.473 36.6638 146.353 35.3914C144.232 34.119 141.808 33.4929 139.102 33.4929C134.74 33.4929 131.205 35.0076 128.499 38.0573C125.793 41.0868 124.44 45.1665 124.44 50.2359C124.44 55.3052 125.793 59.385 128.499 62.4145C131.205 65.4439 134.74 66.9789 139.102 66.9789C141.808 66.9789 144.232 66.3528 146.353 65.0804C148.473 63.808 150.129 61.9701 151.281 59.5263H166.852C165.196 65.8277 161.904 70.7758 156.996 74.391C152.068 78.0062 146.171 79.8239 139.264 79.8239C133.629 79.8239 128.58 78.5717 124.137 76.0472C119.693 73.5428 116.22 70.0488 113.735 65.5651C111.251 61.0815 109.999 55.9717 109.999 50.2359C109.999 44.5001 111.251 39.3701 113.735 34.8663L113.756 34.8461Z" fill="#1D3366"/>
<path d="M218.898 54.5575C220.938 57.1831 221.968 60.1722 221.968 63.545C221.968 68.4124 220.272 72.2699 216.879 75.0975C213.486 77.9452 208.739 79.3589 202.66 79.3589H175.557V21.2129H201.731C207.649 21.2129 212.274 22.5661 215.606 25.2724C218.939 27.9788 220.615 31.6545 220.615 36.2998C220.615 39.7332 219.706 42.5607 217.929 44.8429C216.131 47.1049 213.748 48.6803 210.759 49.5689C214.132 50.296 216.838 51.9521 218.878 54.5777L218.898 54.5575ZM189.735 44.7419H199.005C201.327 44.7419 203.105 44.237 204.357 43.207C205.609 42.177 206.215 40.6824 206.215 38.683C206.215 36.6835 205.589 35.1688 204.357 34.1185C203.125 33.0683 201.327 32.5432 199.005 32.5432H189.735V44.7217V44.7419ZM205.69 66.3321C206.982 65.2617 207.629 63.6864 207.629 61.6465C207.629 59.6067 206.942 58.0111 205.589 56.8397C204.236 55.6885 202.378 55.1028 199.994 55.1028H189.714V67.9478H200.156C202.519 67.9478 204.357 67.4025 205.67 66.3321H205.69Z" fill="#1D3366"/>
<path d="M284.779 21.2129L264.138 79.3791H246.406L225.785 21.2129H240.872L255.292 65.1405L269.773 21.2129H284.779Z" fill="#1D3366"/>
<path d="M326.869 69.099H305.157L301.684 79.3791H286.859L307.904 21.2129H324.304L345.348 79.3791H330.342L326.869 69.099ZM323.233 58.1727L316.023 36.8855L308.894 58.1727H323.233Z" fill="#1D3366"/>
<path d="M365.908 68.4528H384.469V79.3993H351.73V21.2129H365.908V68.4528Z" fill="#1D3366"/>
<path d="M405.433 21.2129V79.3791H391.255V21.2129H405.433Z" fill="#1D3366"/>
<path d="M453.561 24.8483C458.146 27.2719 461.7 30.6851 464.205 35.088C466.709 39.4706 467.982 44.54 467.982 50.296C467.982 56.052 466.729 61.0406 464.205 65.4637C461.68 69.8867 458.126 73.3 453.521 75.7437C448.916 78.1673 443.564 79.3993 437.485 79.3993H415.693V21.2129H437.485C443.625 21.2129 448.977 22.4247 453.561 24.8483ZM449.098 62.7169C452.087 59.7884 453.581 55.6481 453.581 50.296C453.581 44.9439 452.087 40.7632 449.098 37.7741C446.109 34.785 441.948 33.3107 436.576 33.3107H429.871V67.1198H436.576C441.928 67.1198 446.109 65.6656 449.098 62.7371V62.7169Z" fill="#1D3366"/>
<path d="M512.151 69.099H490.44L486.966 79.3791H472.142L493.166 21.2129H509.566L530.61 79.3791H515.604L512.131 69.099H512.151ZM508.495 58.1727L501.285 36.8855L494.156 58.1727H508.495Z" fill="#1D3366"/>
<path d="M578.86 21.2129V32.5634H563.45V79.3791H549.272V32.5634H533.862V21.2129H578.86Z" fill="#1D3366"/>
<path d="M600.147 21.2129V79.3791H585.969V21.2129H600.147Z" fill="#1D3366"/>
<path d="M727.586 79.3791H713.408L689.718 43.4897V79.3791H675.54V21.2129H689.718L713.408 57.2638V21.2129H727.586V79.3791Z" fill="#1D3366"/>
<path d="M643.023 75.744C628.849 75.744 617.36 64.2962 617.36 50.1735C617.36 36.0507 628.849 24.603 643.023 24.603C650.171 24.603 656.633 27.5166 661.286 32.2174C655.926 24.9202 647.268 20.1758 637.493 20.1758C621.213 20.1758 608.015 33.3234 608.015 49.5448C608.015 65.7661 621.213 78.9137 637.49 78.9137C644.834 78.9137 651.547 76.2301 656.712 71.8C652.748 74.2974 648.056 75.7469 643.023 75.7469" fill="#1D3366"/>
<path d="M651.845 28.7129C658.015 32.3134 662.163 38.9848 662.163 46.6224C662.163 58.079 652.841 67.3641 641.346 67.367C630.649 67.367 621.841 59.3276 620.667 48.983C620.646 49.3905 620.632 49.798 620.632 50.2084C620.632 62.8991 630.958 73.1855 643.692 73.1855C656.426 73.1855 666.752 62.8962 666.752 50.2084C666.752 40.379 660.556 31.9962 651.845 28.7129Z" fill="#1D3366"/>
<path d="M640.728 30.3027C632.99 30.3027 626.455 35.4314 624.355 42.4636C626.701 37.2477 631.956 33.6151 638.064 33.6151C646.361 33.6151 653.085 40.3155 653.085 48.5819C653.085 56.8483 646.361 63.5488 638.064 63.5488C636.709 63.5488 635.394 63.3654 634.144 63.0307C636.168 63.8748 638.394 64.3405 640.728 64.3434C650.164 64.3434 657.809 56.7203 657.809 47.3216C657.809 37.92 650.161 30.3027 640.728 30.3027Z" fill="#1D3366"/>
<defs>
<linearGradient id="paint0_linear_737_7229" x1="33.7117" y1="13.9993" x2="7.71346" y2="44.5684" gradientUnits="userSpaceOnUse">
<stop offset="0.278846" stop-color="#33CFFF"/>
<stop offset="1" stop-color="#0D87C5"/>
</linearGradient>
<linearGradient id="paint1_linear_737_7229" x1="28.4939" y1="20.1515" x2="18.0305" y2="35.4368" gradientUnits="userSpaceOnUse">
<stop offset="0.278846" stop-color="#33CFFF"/>
<stop offset="1" stop-color="#0D87C5"/>
</linearGradient>
<clipPath id="clip0_737_7229">
<rect width="99.9993" height="100" fill="white"/>
</clipPath>
</defs>
</svg>
