<svg width="60" height="60" viewBox="0 0 60 60" fill="none" xmlns="http://www.w3.org/2000/svg">
<g clip-path="url(#clip0_6403_7157)">
<path d="M54.375 24.375H39.375C38.8777 24.375 38.4008 24.1775 38.0492 23.8258C37.6975 23.4742 37.5 22.9973 37.5 22.5V15H22.5V22.5C22.5 22.9973 22.3025 23.4742 21.9508 23.8258C21.5992 24.1775 21.1223 24.375 20.625 24.375H5.625C5.12772 24.375 4.65081 24.1775 4.29917 23.8258C3.94754 23.4742 3.75 22.9973 3.75 22.5V5.625C3.75 5.12772 3.94754 4.65081 4.29917 4.29917C4.65081 3.94754 5.12772 3.75 5.625 3.75H54.375C54.8723 3.75 55.3492 3.94754 55.7008 4.29917C56.0525 4.65081 56.25 5.12772 56.25 5.625V22.5C56.25 22.9973 56.0525 23.4742 55.7008 23.8258C55.3492 24.1775 54.8723 24.375 54.375 24.375ZM41.25 20.625H52.5V7.5H7.5V20.625H18.75V13.125C18.75 12.6277 18.9475 12.1508 19.2992 11.7992C19.6508 11.4475 20.1277 11.25 20.625 11.25H39.375C39.8723 11.25 40.3492 11.4475 40.7008 11.7992C41.0525 12.1508 41.25 12.6277 41.25 13.125V20.625Z" fill="url(#paint0_linear_6403_7157)"/>
<path d="M54.375 56.25H5.625C5.12772 56.25 4.65081 56.0525 4.29917 55.7008C3.94754 55.3492 3.75 54.8723 3.75 54.375V39.375C3.75 38.8777 3.94754 38.4008 4.29917 38.0492C4.65081 37.6975 5.12772 37.5 5.625 37.5H18.75V30C18.75 29.5027 18.9475 29.0258 19.2992 28.6742C19.6508 28.3225 20.1277 28.125 20.625 28.125H39.375C39.8723 28.125 40.3492 28.3225 40.7008 28.6742C41.0525 29.0258 41.25 29.5027 41.25 30V37.5H54.375C54.8723 37.5 55.3492 37.6975 55.7008 38.0492C56.0525 38.4008 56.25 38.8777 56.25 39.375V54.375C56.25 54.8723 56.0525 55.3492 55.7008 55.7008C55.3492 56.0525 54.8723 56.25 54.375 56.25ZM7.5 52.5H52.5V41.25H39.375C38.8777 41.25 38.4008 41.0525 38.0492 40.7008C37.6975 40.3492 37.5 39.8723 37.5 39.375V31.875H22.5V39.375C22.5 39.8723 22.3025 40.3492 21.9508 40.7008C21.5992 41.0525 21.1223 41.25 20.625 41.25H7.5V52.5Z" fill="url(#paint1_linear_6403_7157)"/>
</g>
<defs>
<linearGradient id="paint0_linear_6403_7157" x1="56.25" y1="3.75" x2="43.2912" y2="36.736" gradientUnits="userSpaceOnUse">
<stop stop-color="#00FF78"/>
<stop offset="1" stop-color="#00DBFF"/>
</linearGradient>
<linearGradient id="paint1_linear_6403_7157" x1="56.25" y1="28.125" x2="34.6368" y2="68.4696" gradientUnits="userSpaceOnUse">
<stop stop-color="#00FF78"/>
<stop offset="1" stop-color="#00DBFF"/>
</linearGradient>
<clipPath id="clip0_6403_7157">
<rect width="60" height="60" fill="white"/>
</clipPath>
</defs>
</svg>
