<svg width="60" height="60" viewBox="0 0 60 60" fill="none" xmlns="http://www.w3.org/2000/svg">
<path fill-rule="evenodd" clip-rule="evenodd" d="M52.1078 44.8076C49.2521 44.7366 47.0733 44.9859 45.1802 45.8072C44.6459 46.0219 43.824 46.0219 43.7172 46.7001C44.0029 46.9839 44.0733 47.4492 44.288 47.8428C44.752 48.5574 45.5029 49.52 46.1805 50.0204C46.895 50.5924 47.6447 51.1632 48.4302 51.6636C49.8587 52.52 51.4297 52.9841 52.7501 53.843C53.572 54.3416 54.3569 54.9858 55.143 55.5565C55.4991 55.8422 55.7854 56.2711 56.25 56.4488V56.3784C56.0001 56.0569 55.9285 55.5923 55.7138 55.2338L54.6432 54.1632C53.6084 52.807 52.2861 51.592 50.8928 50.593C49.7859 49.8069 47.2868 48.7005 46.8228 47.4152C46.787 47.3794 46.7506 47.3794 46.7506 47.343C47.5367 47.2351 48.4654 46.9506 49.1793 46.771C50.3943 46.4508 51.5 46.5211 52.7495 46.2003C53.3215 46.0207 53.8923 45.8788 54.4643 45.6998V45.3784C53.8219 44.736 53.3937 43.8432 52.6798 43.2718C50.8589 41.7008 48.8584 40.165 46.8234 38.8797C45.6806 38.1299 44.288 37.6653 43.0749 37.0588C42.6812 36.8804 41.9667 36.7731 41.6822 36.4164C41.038 35.6303 40.7178 34.5949 40.218 33.6669C39.1702 31.63 38.194 29.558 37.2907 27.4532C36.6841 26.0606 36.2541 24.6685 35.5062 23.382C31.7922 17.3115 27.8283 13.6345 21.6517 10.0273C20.3312 9.27755 18.7602 8.95668 17.0812 8.56363C16.189 8.49143 15.2967 8.45626 14.4033 8.38407C13.867 8.16933 13.2963 7.49182 12.7601 7.16972C10.7251 5.88442 5.47586 3.06329 3.9752 6.77666C3.01076 9.09737 5.40366 11.3829 6.26012 12.5621C6.86853 13.3834 7.61638 14.312 8.04646 15.2401C8.3303 15.8466 8.36671 16.4544 8.61723 17.0967C9.22378 18.7035 9.72421 20.4535 10.4739 21.9171C10.8664 22.6668 11.294 23.4529 11.7944 24.1317C12.0801 24.5247 12.6163 24.703 12.6866 25.346C12.1862 26.0599 12.1523 27.1317 11.8666 28.024C10.6165 32.0588 11.0805 37.0224 12.9372 40.0212C13.5092 40.9134 14.8296 42.8775 16.6876 42.1284C18.2943 41.4496 17.9371 39.4498 18.4011 37.6289C18.5091 37.2358 18.4369 36.9502 18.651 36.6645V36.7354C19.115 37.735 19.6154 38.6995 20.1153 39.6627C21.1858 41.4126 23.1147 43.2693 24.7579 44.483C25.5779 45.1254 26.2567 46.233 27.3637 46.5896V46.5174H27.2575C27.0428 46.1972 26.7213 46.054 26.4714 45.8035C25.8291 45.1612 25.1152 44.3751 24.579 43.6611C23.1159 41.6613 21.7948 39.4473 20.5805 37.1618C20.0085 36.0548 19.5081 34.8411 19.0453 33.7341C18.8651 33.3059 18.8651 32.6635 18.4733 32.413C17.9371 33.2343 17.1886 33.9131 16.7585 34.8769C16.1162 36.4127 16.0094 38.3046 15.7959 40.2335C15.6522 40.3044 15.6879 40.2686 15.6158 40.3408C14.4748 40.0551 14.0805 38.8766 13.6529 37.877C12.6182 35.3415 12.4028 31.2715 13.3314 28.343C13.5814 27.5933 14.6896 25.2362 14.2256 24.5223C14.0096 23.8435 13.3315 23.4153 12.9396 22.8803C12.4392 22.238 11.9752 21.3803 11.6191 20.6306C10.7627 18.6307 10.369 16.4168 9.43975 14.4181C8.97573 13.4537 8.26243 12.4893 7.65526 11.6686C6.97651 10.7042 6.2268 10.0266 5.69244 8.88387C5.51412 8.49081 5.26421 7.84847 5.51411 7.41962C5.62086 7.13393 5.72884 7.02657 6.01268 6.9192C6.4767 6.56255 7.79903 7.06236 8.2976 7.24006C9.58352 7.81145 10.6905 8.31187 11.7975 9.06158C12.3337 9.41823 12.8699 10.0964 13.5123 10.2759H14.2268C15.3696 10.5258 16.6542 10.3469 17.7248 10.669C19.6173 11.2397 21.3308 12.1326 22.8673 13.1328C27.5803 16.0965 31.4016 20.3097 34.0432 25.3448C34.4714 26.1661 34.6497 26.9158 35.0076 27.7728C35.7586 29.5228 36.7212 31.3079 37.4709 32.9863C38.1854 34.7004 38.9351 36.4146 39.9699 37.8066C40.5419 38.5563 42.6837 38.9494 43.6481 39.3418C44.3268 39.6275 45.4326 39.9484 46.0768 40.3421C47.3263 41.056 48.5043 41.9488 49.6828 42.7701C50.2523 43.1669 52.0362 44.0573 52.1078 44.8076Z" fill="url(#paint0_linear_6402_7103)"/>
<path fill-rule="evenodd" clip-rule="evenodd" d="M15.6857 13.7783C15.1926 13.7783 14.7015 13.8388 14.2227 13.9579V14.0288H14.3288C14.6145 14.6002 15.1149 14.9933 15.4716 15.4925C15.7215 16.0639 16.0078 16.6352 16.2577 17.2066L16.3638 17.0993C16.8642 16.7784 17.0783 16.207 17.0783 15.3148C16.9 15.1 16.8636 14.8507 16.6859 14.6002C16.4354 14.2423 16.0071 14.064 15.6844 13.7783H15.6857Z" fill="url(#paint1_linear_6402_7103)"/>
<defs>
<linearGradient id="paint0_linear_6402_7103" x1="56.25" y1="4.92968" x2="8.70238" y2="53.3826" gradientUnits="userSpaceOnUse">
<stop stop-color="#00FF78"/>
<stop offset="1" stop-color="#00DBFF"/>
</linearGradient>
<linearGradient id="paint1_linear_6402_7103" x1="17.0783" y1="13.7783" x2="13.9659" y2="16.3709" gradientUnits="userSpaceOnUse">
<stop stop-color="#00FF78"/>
<stop offset="1" stop-color="#00DBFF"/>
</linearGradient>
</defs>
</svg>
