<svg width="60" height="60" viewBox="0 0 60 60" fill="none" xmlns="http://www.w3.org/2000/svg">
<g clip-path="url(#clip0_6400_6994)">
<path d="M22.5 26.875C18.7 26.875 15.625 23.8 15.625 20C15.625 16.2 18.7 13.125 22.5 13.125C26.3 13.125 29.375 16.2 29.375 20C29.375 23.8 26.3 26.875 22.5 26.875ZM22.5 16.875C20.775 16.875 19.375 18.275 19.375 20C19.375 21.725 20.775 23.125 22.5 23.125C24.225 23.125 25.625 21.725 25.625 20C25.625 18.275 24.225 16.875 22.5 16.875Z" fill="url(#paint0_linear_6400_6994)"/>
<path d="M37.5 56.875H22.5C8.925 56.875 3.125 51.075 3.125 37.5V22.5C3.125 8.925 8.925 3.125 22.5 3.125H32.5C33.525 3.125 34.375 3.975 34.375 5C34.375 6.025 33.525 6.875 32.5 6.875H22.5C10.975 6.875 6.875 10.975 6.875 22.5V37.5C6.875 49.025 10.975 53.125 22.5 53.125H37.5C49.025 53.125 53.125 49.025 53.125 37.5V25C53.125 23.975 53.975 23.125 55 23.125C56.025 23.125 56.875 23.975 56.875 25V37.5C56.875 51.075 51.075 56.875 37.5 56.875Z" fill="url(#paint1_linear_6400_6994)"/>
<path d="M45 21.8748C43.975 21.8748 43.125 21.0248 43.125 19.9998V4.99985C43.125 4.24985 43.575 3.54985 44.275 3.27485C44.975 2.99985 45.775 3.14985 46.325 3.67485L51.325 8.67485C52.05 9.39985 52.05 10.5998 51.325 11.3248C50.6 12.0498 49.4 12.0498 48.675 11.3248L46.875 9.52485V19.9998C46.875 21.0248 46.025 21.8748 45 21.8748Z" fill="url(#paint2_linear_6400_6994)"/>
<path d="M39.9996 11.8746C39.5246 11.8746 39.0496 11.6996 38.6746 11.3246C37.9496 10.5996 37.9496 9.39961 38.6746 8.67461L43.6746 3.67461C44.3996 2.94961 45.5996 2.94961 46.3246 3.67461C47.0496 4.39961 47.0496 5.59961 46.3246 6.32461L41.3246 11.3246C40.9496 11.6996 40.4746 11.8746 39.9996 11.8746Z" fill="url(#paint3_linear_6400_6994)"/>
<path d="M6.67524 49.2504C6.07524 49.2504 5.47524 48.9504 5.12524 48.4254C4.55024 47.5754 4.77524 46.4004 5.62524 45.8254L17.9502 37.5504C20.6502 35.7504 24.3752 35.9504 26.8252 38.0254L27.6502 38.7504C28.9002 39.8254 31.0252 39.8254 32.2502 38.7504L42.6502 29.8254C45.3002 27.5504 49.4752 27.5504 52.1502 29.8254L56.2252 33.3254C57.0002 34.0004 57.1002 35.1754 56.4252 35.9754C55.7502 36.7504 54.5502 36.8504 53.7752 36.1754L49.7002 32.6754C48.4502 31.6004 46.3502 31.6004 45.1002 32.6754L34.7002 41.6004C32.0502 43.8754 27.8752 43.8754 25.2002 41.6004L24.3752 40.8754C23.2252 39.9004 21.3253 39.8004 20.0503 40.6754L7.75024 48.9504C7.40024 49.1504 7.02524 49.2504 6.67524 49.2504Z" fill="url(#paint4_linear_6400_6994)"/>
</g>
<defs>
<linearGradient id="paint0_linear_6400_6994" x1="29.375" y1="13.125" x2="16.6827" y2="25.8173" gradientUnits="userSpaceOnUse">
<stop stop-color="#00FF78"/>
<stop offset="1" stop-color="#00DBFF"/>
</linearGradient>
<linearGradient id="paint1_linear_6400_6994" x1="56.875" y1="3.125" x2="7.25961" y2="52.7404" gradientUnits="userSpaceOnUse">
<stop stop-color="#00FF78"/>
<stop offset="1" stop-color="#00DBFF"/>
</linearGradient>
<linearGradient id="paint2_linear_6400_6994" x1="51.8688" y1="3.13965" x2="38.6136" y2="9.32587" gradientUnits="userSpaceOnUse">
<stop stop-color="#00FF78"/>
<stop offset="1" stop-color="#00DBFF"/>
</linearGradient>
<linearGradient id="paint3_linear_6400_6994" x1="46.8684" y1="3.13086" x2="38.7972" y2="11.1962" gradientUnits="userSpaceOnUse">
<stop stop-color="#00FF78"/>
<stop offset="1" stop-color="#00DBFF"/>
</linearGradient>
<linearGradient id="paint4_linear_6400_6994" x1="56.8748" y1="28.1191" x2="43.2813" y2="61.6139" gradientUnits="userSpaceOnUse">
<stop stop-color="#00FF78"/>
<stop offset="1" stop-color="#00DBFF"/>
</linearGradient>
<clipPath id="clip0_6400_6994">
<rect width="60" height="60" fill="white"/>
</clipPath>
</defs>
</svg>
