<svg width="60" height="60" viewBox="0 0 60 60" fill="none" xmlns="http://www.w3.org/2000/svg">
<path fill-rule="evenodd" clip-rule="evenodd" d="M32.6364 6.07104V18.7486C32.6364 20.7669 33.4695 22.7015 34.9537 24.1265C36.4354 25.554 38.4469 26.3552 40.5455 26.3552H53.7273V36.4973C53.7273 37.8969 54.9084 39.0328 56.3636 39.0328C57.8189 39.0328 59 37.8969 59 36.4973V23.8197C59 23.1478 58.7232 22.5012 58.2275 22.0271L37.1366 1.74291C36.6436 1.26623 35.9714 1 35.2727 1C35.2727 1 17.9096 1 8.90909 1C4.54064 1 1 4.4052 1 8.60656V36.4973C1 37.8969 2.18109 39.0328 3.63636 39.0328C5.09164 39.0328 6.27273 37.8969 6.27273 36.4973C6.27273 36.4973 6.27273 17.8511 6.27273 8.60656C6.27273 7.20695 7.45382 6.07104 8.90909 6.07104H32.6364ZM37.9091 9.65626V18.7486C37.9091 19.4205 38.1859 20.0671 38.6815 20.5412C39.1745 21.0179 39.8468 21.2842 40.5455 21.2842H49.9995L37.9091 9.65626Z" fill="url(#paint0_linear_6405_14816)"/>
<path fill-rule="evenodd" clip-rule="evenodd" d="M53.1363 54.9587H46.9736V44.8565C46.9736 43.7412 46.0533 42.8361 44.9193 42.8361C43.7854 42.8361 42.8651 43.7412 42.8651 44.8565V56.9792C42.8651 58.0945 43.7854 58.9996 44.9193 58.9996H53.1363C54.2702 58.9996 55.1905 58.0945 55.1905 56.9792C55.1905 55.8639 54.2702 54.9587 53.1363 54.9587Z" fill="url(#paint1_linear_6405_14816)"/>
<path fill-rule="evenodd" clip-rule="evenodd" d="M38.7616 56.9796V44.8569C38.7616 44.0406 38.2603 43.3032 37.4941 42.99C36.7258 42.6768 35.8425 42.8506 35.255 43.4284L30.5447 48.0613L25.8343 43.4284C25.2468 42.8506 24.3635 42.6768 23.5952 42.99C22.829 43.3032 22.3277 44.0406 22.3277 44.8569V56.9796C22.3277 58.0948 23.248 59 24.382 59C25.5159 59 26.4362 58.0948 26.4362 56.9796V49.7342L29.0923 52.3467C29.8935 53.1367 31.1958 53.1367 31.997 52.3467L34.6531 49.7342V56.9796C34.6531 58.0948 35.5734 59 36.7073 59C37.8413 59 38.7616 58.0948 38.7616 56.9796Z" fill="url(#paint2_linear_6405_14816)"/>
<path fill-rule="evenodd" clip-rule="evenodd" d="M9.38167 50.9177L5.34306 55.6859C4.61586 56.5426 4.73501 57.8175 5.606 58.5307C6.47699 59.2459 7.77321 59.1287 8.49835 58.2721L12.0563 54.0736L15.6142 58.2721C16.3393 59.1287 17.6356 59.2459 18.5065 58.5307C19.3775 57.8175 19.4967 56.5426 18.7695 55.6859L14.7309 50.9177L18.7695 46.1494C19.4967 45.2927 19.3775 44.0178 18.5065 43.3046C17.6356 42.5894 16.3393 42.7066 15.6142 43.5632L12.0563 47.7617L8.49835 43.5632C7.77321 42.7066 6.47699 42.5894 5.606 43.3046C4.73501 44.0178 4.61586 45.2927 5.34306 46.1494L9.38167 50.9177Z" fill="url(#paint3_linear_6405_14816)"/>
<defs>
<linearGradient id="paint0_linear_6405_14816" x1="59" y1="0.999997" x2="5.46153" y2="54.5385" gradientUnits="userSpaceOnUse">
<stop stop-color="#00FF78"/>
<stop offset="1" stop-color="#00DBFF"/>
</linearGradient>
<linearGradient id="paint1_linear_6405_14816" x1="59" y1="0.999997" x2="5.46153" y2="54.5385" gradientUnits="userSpaceOnUse">
<stop stop-color="#00FF78"/>
<stop offset="1" stop-color="#00DBFF"/>
</linearGradient>
<linearGradient id="paint2_linear_6405_14816" x1="59" y1="0.999997" x2="5.46153" y2="54.5385" gradientUnits="userSpaceOnUse">
<stop stop-color="#00FF78"/>
<stop offset="1" stop-color="#00DBFF"/>
</linearGradient>
<linearGradient id="paint3_linear_6405_14816" x1="59" y1="0.999997" x2="5.46153" y2="54.5385" gradientUnits="userSpaceOnUse">
<stop stop-color="#00FF78"/>
<stop offset="1" stop-color="#00DBFF"/>
</linearGradient>
</defs>
</svg>
