<svg width="60" height="60" viewBox="0 0 60 60" fill="none" xmlns="http://www.w3.org/2000/svg">
<g clip-path="url(#clip0_6400_6978)">
<path d="M56.8638 49.618C54.8546 49.618 53.1579 50.9763 52.6406 52.8226H42.4386V52.3571C42.4386 50.7204 41.1084 49.3888 39.4735 49.3888H35.6146V47.2065C35.6146 45.5716 34.2832 44.2415 32.6464 44.2415H32.4102V39.9269H51.3349C54.1032 39.9269 56.3553 37.6733 56.3553 34.903V12.318C56.3553 9.54957 54.1032 7.29734 51.3349 7.29734H29.4423L27.031 4.7757C26.83 4.56605 26.6571 4.3782 26.5024 4.21039C25.4043 3.01895 24.8284 2.49219 22.6811 2.49219H9.24242C7.53242 2.49219 6.14129 3.88332 6.14129 5.59332V34.903C6.14129 37.6733 8.39492 39.9269 11.165 39.9269H15.6014C16.254 39.9269 16.7831 39.3978 16.7831 38.7452C16.7831 38.0926 16.254 37.5635 15.6014 37.5635H11.1651C9.69828 37.5635 8.50496 36.3699 8.50496 34.903V17.0198H53.9919V34.903C53.9919 36.3699 52.8001 37.5635 51.335 37.5635H26.1246C25.472 37.5635 24.9429 38.0926 24.9429 38.7452C24.9429 39.3978 25.472 39.9269 26.1246 39.9269H30.0466V44.2415H29.8105C28.1737 44.2415 26.8422 45.5716 26.8422 47.2065V49.3888H22.9832C21.3484 49.3888 20.0183 50.7204 20.0183 52.3571V52.8226H9.85625C9.33934 50.9763 7.64375 49.618 5.63621 49.618C3.21758 49.618 1.25 51.5857 1.25 54.0043C1.25 56.4229 3.21758 58.3906 5.63621 58.3906C7.64375 58.3906 9.33934 57.0323 9.85625 55.1861H20.0183V55.1933C20.0183 56.83 21.3484 58.1616 22.9832 58.1616H39.4735C41.1084 58.1616 42.4386 56.83 42.4386 55.1933V55.1861H52.6406C53.1579 57.0323 54.8547 58.3906 56.8638 58.3906C59.2823 58.3906 61.25 56.4229 61.25 54.0043C61.25 51.5857 59.2824 49.618 56.8638 49.618ZM8.50484 14.6564V5.59332C8.50484 5.18668 8.83566 4.85562 9.24242 4.85562H22.681C23.8827 4.85562 23.8993 4.87355 24.7641 5.81199C24.926 5.98754 25.1094 6.18664 25.3235 6.41L28.083 9.29586C28.306 9.52906 28.6146 9.6609 28.9372 9.6609H51.335C52.8001 9.6609 53.9919 10.8529 53.9919 12.318V14.6564H8.50484ZM5.63621 56.0272C4.52094 56.0272 3.61355 55.1198 3.61355 54.0044C3.61355 52.889 4.52082 51.9815 5.63621 51.9815C6.74973 51.9815 7.65559 52.889 7.65559 54.0044C7.65559 55.1198 6.74961 56.0272 5.63621 56.0272ZM40.075 55.1932C40.075 55.5211 39.7995 55.798 39.4735 55.798H22.9832C22.6573 55.798 22.3818 55.5211 22.3818 55.1932V52.3571C22.3818 52.0292 22.6573 51.7523 22.9832 51.7523H28.0241C28.6767 51.7523 29.2058 51.2232 29.2058 50.5706V47.2066C29.2058 46.8806 29.4827 46.6051 29.8105 46.6051H32.6464C32.9742 46.6051 33.2511 46.8806 33.2511 47.2066V50.5706C33.2511 51.2232 33.7802 51.7523 34.4328 51.7523H39.4735C39.7995 51.7523 40.075 52.0292 40.075 52.3571V55.1932ZM56.8638 56.0272C55.7485 56.0272 54.841 55.1198 54.841 54.0044C54.841 52.889 55.7484 51.9815 56.8638 51.9815C57.9792 51.9815 58.8864 52.889 58.8864 54.0044C58.8864 55.1198 57.9792 56.0272 56.8638 56.0272Z" fill="url(#paint0_linear_6400_6978)"/>
<path d="M38.5372 32.2134C38.7669 31.9807 38.8832 31.7081 38.8832 31.3896V29.0405H40.6411C41.7098 29.0405 42.5643 28.719 43.2073 28.0789C43.8535 27.4419 44.1751 26.6027 44.1751 25.5645C44.1751 24.5141 43.8351 23.6656 43.1523 23.0103C42.4693 22.3579 41.5843 22.0303 40.497 22.0303H37.7562C37.4225 22.0303 37.1346 22.1466 36.8988 22.3824C36.663 22.6182 36.5466 22.9092 36.5466 23.2552V31.362C36.5466 31.6989 36.663 31.9807 36.8927 32.2134C37.1224 32.4431 37.398 32.5595 37.7135 32.5595C38.0319 32.5595 38.3045 32.4431 38.5372 32.2134ZM38.8832 24.1218H40.3808C40.7758 24.1218 41.1065 24.2627 41.37 24.5476C41.6334 24.8293 41.7682 25.1724 41.7682 25.5766C41.7682 25.9625 41.6273 26.2932 41.3486 26.572C41.07 26.8507 40.7423 26.9915 40.3686 26.9915H38.8834L38.8832 24.1218Z" fill="url(#paint1_linear_6400_6978)"/>
<path d="M29.6192 32.2257C29.8795 32.4554 30.1613 32.5718 30.4706 32.5718C30.7768 32.5718 31.0463 32.4554 31.2699 32.2257C31.4966 31.993 31.6099 31.7204 31.6099 31.4019V24.177H33.1534C33.4413 24.177 33.6893 24.0729 33.8945 23.8677C34.1027 23.6594 34.2069 23.4113 34.2069 23.1234C34.2069 22.8263 34.1028 22.5721 33.8945 22.3607C33.6893 22.1464 33.4412 22.0422 33.1534 22.0422H27.7297C27.4419 22.0422 27.1968 22.1463 26.9947 22.3607C26.7925 22.5721 26.6915 22.8171 26.6915 23.0957C26.6915 23.4021 26.7987 23.6563 27.01 23.8584C27.2213 24.0605 27.4571 24.1616 27.7175 24.1616H29.2733V31.4016C29.2732 31.7203 29.3895 31.993 29.6192 32.2257Z" fill="url(#paint2_linear_6400_6978)"/>
<path d="M23.2982 24.1495C23.5953 24.1495 23.8464 24.0423 24.0486 23.831C24.2507 23.6197 24.3518 23.3746 24.3518 23.096C24.3518 22.7867 24.2477 22.5294 24.0425 22.3242C23.8343 22.1159 23.5862 22.0149 23.2984 22.0149H19.5193C19.1824 22.0149 18.9007 22.1343 18.671 22.3733C18.4382 22.6153 18.3249 22.8939 18.3249 23.2094V31.402C18.3249 31.7205 18.4443 31.9931 18.6833 32.2258C18.9252 32.4555 19.1977 32.5719 19.5071 32.5719C19.8317 32.5719 20.1104 32.4555 20.334 32.2258C20.5606 31.9931 20.6739 31.7205 20.6739 31.402V28.3026H22.8943C23.2128 28.3026 23.4761 28.1984 23.6874 27.9902C23.8987 27.785 24.0059 27.5369 24.0059 27.249C24.0059 26.9519 23.8987 26.6977 23.6813 26.4925C23.4639 26.2843 23.2036 26.1801 22.8943 26.1801H20.6739V24.1496L23.2982 24.1495Z" fill="url(#paint3_linear_6400_6978)"/>
<path d="M20.8579 37.5634C20.2053 37.5634 19.6795 38.0925 19.6795 38.7451C19.6795 39.3977 20.212 39.9268 20.8647 39.9268C21.5175 39.9268 22.0464 39.3977 22.0464 38.7451C22.0464 38.0925 21.5173 37.5634 20.8647 37.5634H20.8579Z" fill="url(#paint4_linear_6400_6978)"/>
</g>
<defs>
<linearGradient id="paint0_linear_6400_6978" x1="61.25" y1="2.49218" x2="9.78052" y2="57.7382" gradientUnits="userSpaceOnUse">
<stop stop-color="#00FF78"/>
<stop offset="1" stop-color="#00DBFF"/>
</linearGradient>
<linearGradient id="paint1_linear_6400_6978" x1="61.25" y1="2.49218" x2="9.78052" y2="57.7382" gradientUnits="userSpaceOnUse">
<stop stop-color="#00FF78"/>
<stop offset="1" stop-color="#00DBFF"/>
</linearGradient>
<linearGradient id="paint2_linear_6400_6978" x1="61.25" y1="2.49218" x2="9.78052" y2="57.7382" gradientUnits="userSpaceOnUse">
<stop stop-color="#00FF78"/>
<stop offset="1" stop-color="#00DBFF"/>
</linearGradient>
<linearGradient id="paint3_linear_6400_6978" x1="61.25" y1="2.49218" x2="9.78052" y2="57.7382" gradientUnits="userSpaceOnUse">
<stop stop-color="#00FF78"/>
<stop offset="1" stop-color="#00DBFF"/>
</linearGradient>
<linearGradient id="paint4_linear_6400_6978" x1="61.25" y1="2.49218" x2="9.78052" y2="57.7382" gradientUnits="userSpaceOnUse">
<stop stop-color="#00FF78"/>
<stop offset="1" stop-color="#00DBFF"/>
</linearGradient>
<clipPath id="clip0_6400_6978">
<rect width="60" height="60" fill="white"/>
</clipPath>
</defs>
</svg>
