<svg width="60" height="60" viewBox="0 0 60 60" fill="none" xmlns="http://www.w3.org/2000/svg">
<g clip-path="url(#clip0_6403_7156)">
<path d="M18.75 33.75H7.5C6.50544 33.75 5.55161 34.1451 4.84835 34.8484C4.14509 35.5516 3.75 36.5054 3.75 37.5V48.75C3.75 49.7446 4.14509 50.6984 4.84835 51.4016C5.55161 52.1049 6.50544 52.5 7.5 52.5H18.75C19.7446 52.5 20.6984 52.1049 21.4016 51.4016C22.1049 50.6984 22.5 49.7446 22.5 48.75V37.5C22.5 36.5054 22.1049 35.5516 21.4016 34.8484C20.6984 34.1451 19.7446 33.75 18.75 33.75ZM7.5 48.75V37.5H18.75V48.75H7.5Z" fill="url(#paint0_linear_6403_7156)"/>
<path d="M28.125 15H54.375C54.8723 15 55.3492 14.8025 55.7008 14.4508C56.0525 14.0992 56.25 13.6223 56.25 13.125C56.25 12.6277 56.0525 12.1508 55.7008 11.7992C55.3492 11.4475 54.8723 11.25 54.375 11.25H28.125C27.6277 11.25 27.1508 11.4475 26.7992 11.7992C26.4475 12.1508 26.25 12.6277 26.25 13.125C26.25 13.6223 26.4475 14.0992 26.7992 14.4508C27.1508 14.8025 27.6277 15 28.125 15Z" fill="url(#paint1_linear_6403_7156)"/>
<path d="M28.125 22.5H45C45.4973 22.5 45.9742 22.3025 46.3258 21.9508C46.6775 21.5992 46.875 21.1223 46.875 20.625C46.875 20.1277 46.6775 19.6508 46.3258 19.2992C45.9742 18.9475 45.4973 18.75 45 18.75H28.125C27.6277 18.75 27.1508 18.9475 26.7992 19.2992C26.4475 19.6508 26.25 20.1277 26.25 20.625C26.25 21.1223 26.4475 21.5992 26.7992 21.9508C27.1508 22.3025 27.6277 22.5 28.125 22.5Z" fill="url(#paint2_linear_6403_7156)"/>
<path d="M54.375 37.5H28.125C27.6277 37.5 27.1508 37.6975 26.7992 38.0492C26.4475 38.4008 26.25 38.8777 26.25 39.375C26.25 39.8723 26.4475 40.3492 26.7992 40.7008C27.1508 41.0525 27.6277 41.25 28.125 41.25H54.375C54.8723 41.25 55.3492 41.0525 55.7008 40.7008C56.0525 40.3492 56.25 39.8723 56.25 39.375C56.25 38.8777 56.0525 38.4008 55.7008 38.0492C55.3492 37.6975 54.8723 37.5 54.375 37.5Z" fill="url(#paint3_linear_6403_7156)"/>
<path d="M45 45H28.125C27.6277 45 27.1508 45.1975 26.7992 45.5492C26.4475 45.9008 26.25 46.3777 26.25 46.875C26.25 47.3723 26.4475 47.8492 26.7992 48.2008C27.1508 48.5525 27.6277 48.75 28.125 48.75H45C45.4973 48.75 45.9742 48.5525 46.3258 48.2008C46.6775 47.8492 46.875 47.3723 46.875 46.875C46.875 46.3777 46.6775 45.9008 46.3258 45.5492C45.9742 45.1975 45.4973 45 45 45Z" fill="url(#paint4_linear_6403_7156)"/>
<path d="M20.625 16.875C20.1277 16.875 19.6508 17.0725 19.2992 17.4242C18.9475 17.7758 18.75 18.2527 18.75 18.75V22.5H7.5V11.25H13.125C13.6223 11.25 14.0992 11.0525 14.4508 10.7008C14.8025 10.3492 15 9.87228 15 9.375C15 8.87772 14.8025 8.40081 14.4508 8.04918C14.0992 7.69754 13.6223 7.5 13.125 7.5H7.5C6.50544 7.5 5.55161 7.89509 4.84835 8.59835C4.14509 9.30161 3.75 10.2554 3.75 11.25V22.5C3.75 23.4946 4.14509 24.4484 4.84835 25.1516C5.55161 25.8549 6.50544 26.25 7.5 26.25H18.75C19.7446 26.25 20.6984 25.8549 21.4016 25.1516C22.1049 24.4484 22.5 23.4946 22.5 22.5V18.75C22.5 18.2527 22.3025 17.7758 21.9508 17.4242C21.5992 17.0725 21.1223 16.875 20.625 16.875Z" fill="url(#paint5_linear_6403_7156)"/>
<path d="M19.2998 9.92398L13.1254 16.0984L12.576 15.549C12.2224 15.2074 11.7488 15.0184 11.2571 15.0227C10.7655 15.027 10.2953 15.2242 9.94761 15.5718C9.59997 15.9195 9.40278 16.3897 9.39851 16.8814C9.39424 17.373 9.58323 17.8466 9.92477 18.2002L11.7998 20.0752C12.1514 20.4267 12.6282 20.6242 13.1254 20.6242C13.6226 20.6242 14.0994 20.4267 14.451 20.0752L21.951 12.5752C22.1301 12.4023 22.2729 12.1954 22.3712 11.9666C22.4695 11.7379 22.5212 11.4918 22.5234 11.2429C22.5255 10.9939 22.4781 10.747 22.3838 10.5166C22.2895 10.2861 22.1503 10.0768 21.9743 9.90074C21.7982 9.72469 21.5889 9.58546 21.3584 9.49119C21.128 9.39691 20.8811 9.34947 20.6321 9.35163C20.3832 9.3538 20.1371 9.40552 19.9084 9.50379C19.6796 9.60205 19.4727 9.7449 19.2998 9.92398Z" fill="url(#paint6_linear_6403_7156)"/>
</g>
<defs>
<linearGradient id="paint0_linear_6403_7156" x1="22.5" y1="33.75" x2="5.19231" y2="51.0577" gradientUnits="userSpaceOnUse">
<stop stop-color="#00FF78"/>
<stop offset="1" stop-color="#00DBFF"/>
</linearGradient>
<linearGradient id="paint1_linear_6403_7156" x1="56.25" y1="11.25" x2="55.3979" y2="18.0666" gradientUnits="userSpaceOnUse">
<stop stop-color="#00FF78"/>
<stop offset="1" stop-color="#00DBFF"/>
</linearGradient>
<linearGradient id="paint2_linear_6403_7156" x1="46.875" y1="18.75" x2="45.6565" y2="25.4515" gradientUnits="userSpaceOnUse">
<stop stop-color="#00FF78"/>
<stop offset="1" stop-color="#00DBFF"/>
</linearGradient>
<linearGradient id="paint3_linear_6403_7156" x1="56.25" y1="37.5" x2="55.3979" y2="44.3166" gradientUnits="userSpaceOnUse">
<stop stop-color="#00FF78"/>
<stop offset="1" stop-color="#00DBFF"/>
</linearGradient>
<linearGradient id="paint4_linear_6403_7156" x1="46.875" y1="45" x2="45.6565" y2="51.7015" gradientUnits="userSpaceOnUse">
<stop stop-color="#00FF78"/>
<stop offset="1" stop-color="#00DBFF"/>
</linearGradient>
<linearGradient id="paint5_linear_6403_7156" x1="22.5" y1="7.5" x2="5.19231" y2="24.8077" gradientUnits="userSpaceOnUse">
<stop stop-color="#00FF78"/>
<stop offset="1" stop-color="#00DBFF"/>
</linearGradient>
<linearGradient id="paint6_linear_6403_7156" x1="22.5234" y1="9.35156" x2="12.2372" y2="21.3281" gradientUnits="userSpaceOnUse">
<stop stop-color="#00FF78"/>
<stop offset="1" stop-color="#00DBFF"/>
</linearGradient>
<clipPath id="clip0_6403_7156">
<rect width="60" height="60" fill="white"/>
</clipPath>
</defs>
</svg>
