<svg width="60" height="60" viewBox="0 0 60 60" fill="none" xmlns="http://www.w3.org/2000/svg">
<path fill-rule="evenodd" clip-rule="evenodd" d="M32.6364 6.07104V18.7486C32.6364 20.7669 33.4695 22.7015 34.9537 24.1265C36.4354 25.554 38.4469 26.3552 40.5455 26.3552H53.7273V36.4973C53.7273 37.8969 54.9084 39.0328 56.3636 39.0328C57.8189 39.0328 59 37.8969 59 36.4973V23.8197C59 23.1478 58.7232 22.5012 58.2275 22.0271L37.1366 1.74291C36.6436 1.26623 35.9714 1 35.2727 1C35.2727 1 17.9096 1 8.90909 1C4.54064 1 1 4.4052 1 8.60656V36.4973C1 37.8969 2.18109 39.0328 3.63636 39.0328C5.09164 39.0328 6.27273 37.8969 6.27273 36.4973C6.27273 36.4973 6.27273 17.8511 6.27273 8.60656C6.27273 7.20695 7.45382 6.07104 8.90909 6.07104H32.6364ZM37.9091 9.65626V18.7486C37.9091 19.4205 38.1859 20.0671 38.6815 20.5412C39.1745 21.0179 39.8468 21.2842 40.5455 21.2842H49.9995L37.9091 9.65626Z" fill="url(#paint0_linear_6402_7109)"/>
<path d="M7.05477 42.8361C3.71617 42.8361 1 45.3134 1 48.3584V57.2237C1 58.2048 1.87189 59 2.9475 59C4.0231 59 4.89499 58.2048 4.89499 57.2237V54.2041H7.01971C10.4657 54.2041 13.2692 51.6471 13.2692 48.5041C13.2692 45.3788 10.4814 42.8361 7.05477 42.8361ZM7.01971 50.6516H4.89499V48.3584C4.89499 47.2723 5.86387 46.3886 7.05477 46.3886C8.33379 46.3886 9.37424 47.3376 9.37424 48.5041C9.37424 49.6882 8.31801 50.6516 7.01971 50.6516Z" fill="url(#paint1_linear_6402_7109)"/>
<path d="M19.1041 42.8361C17.1169 42.8361 15.5 44.3357 15.5 46.179V55.6571C15.5 57.5003 17.1168 59 19.1041 59C21.4195 59 23.5961 58.1629 25.2329 56.6428C26.8685 55.1239 27.7693 53.1046 27.7692 50.957V50.8788C27.7691 46.444 23.8819 42.8361 19.1041 42.8361ZM23.9351 50.957C23.9351 52.1572 23.4321 53.2853 22.5187 54.1337C21.6609 54.9303 20.5374 55.3904 19.3341 55.4425V46.3936C21.8916 46.5055 23.935 48.4746 23.9351 50.8789V50.957Z" fill="url(#paint2_linear_6402_7109)"/>
<path d="M38.3077 49.9411H33.4615V48.3584C33.4615 47.2723 34.3226 46.3886 35.381 46.3886H38.3077C39.2636 46.3886 40.0385 45.5933 40.0385 44.6123C40.0385 43.6313 39.2636 42.8361 38.3077 42.8361H35.381C32.4139 42.8361 30 45.3134 30 48.3584V57.2237C30 58.2048 30.7749 59 31.7308 59C32.6867 59 33.4615 58.2048 33.4615 57.2237V53.4936H38.3077C39.2636 53.4936 40.0385 52.6984 40.0385 51.7173C40.0385 50.7363 39.2636 49.9411 38.3077 49.9411Z" fill="url(#paint3_linear_6402_7109)"/>
<path d="M57.6067 49.5719H52.0279V44.1822C52.0279 43.4382 51.4047 42.8361 50.6346 42.8361C49.8646 42.8361 49.2413 43.4409 49.2413 44.1822V49.5719H43.6625C42.8925 49.5719 42.2692 50.1767 42.2692 50.918C42.2692 51.6593 42.8925 52.2641 43.6625 52.2641H49.2413V57.6539C49.2413 58.3979 49.8646 59 50.6346 59C51.4047 59 52.0279 58.3952 52.0279 57.6539V52.2641H57.6067C58.3767 52.2641 59 51.6593 59 50.918C59 50.1767 58.3767 49.5719 57.6067 49.5719Z" fill="url(#paint4_linear_6402_7109)"/>
<defs>
<linearGradient id="paint0_linear_6402_7109" x1="59" y1="0.999997" x2="5.46153" y2="54.5385" gradientUnits="userSpaceOnUse">
<stop stop-color="#00FF78"/>
<stop offset="1" stop-color="#00DBFF"/>
</linearGradient>
<linearGradient id="paint1_linear_6402_7109" x1="59" y1="0.999997" x2="5.46153" y2="54.5385" gradientUnits="userSpaceOnUse">
<stop stop-color="#00FF78"/>
<stop offset="1" stop-color="#00DBFF"/>
</linearGradient>
<linearGradient id="paint2_linear_6402_7109" x1="59" y1="0.999997" x2="5.46153" y2="54.5385" gradientUnits="userSpaceOnUse">
<stop stop-color="#00FF78"/>
<stop offset="1" stop-color="#00DBFF"/>
</linearGradient>
<linearGradient id="paint3_linear_6402_7109" x1="59" y1="0.999997" x2="5.46153" y2="54.5385" gradientUnits="userSpaceOnUse">
<stop stop-color="#00FF78"/>
<stop offset="1" stop-color="#00DBFF"/>
</linearGradient>
<linearGradient id="paint4_linear_6402_7109" x1="59" y1="0.999997" x2="5.46153" y2="54.5385" gradientUnits="userSpaceOnUse">
<stop stop-color="#00FF78"/>
<stop offset="1" stop-color="#00DBFF"/>
</linearGradient>
</defs>
</svg>
