<svg width="60" height="60" viewBox="0 0 60 60" fill="none" xmlns="http://www.w3.org/2000/svg">
<path d="M42.1613 59H17.8387C8.55871 59 1 51.4413 1 42.1613V17.8387C1 8.55871 8.55871 1 17.8387 1H42.1613C51.4413 1 59 8.55871 59 17.8387V42.1613C59 51.4413 51.4413 59 42.1613 59ZM17.8387 4.74194C10.6168 4.74194 4.74194 10.6168 4.74194 17.8387V42.1613C4.74194 49.3832 10.6168 55.2581 17.8387 55.2581H42.1613C49.3832 55.2581 55.2581 49.3832 55.2581 42.1613V17.8387C55.2581 10.6168 49.3832 4.74194 42.1613 4.74194H17.8387Z" fill="url(#paint0_linear_6402_7101)"/>
<path d="M28.84 22.6658C28.391 22.4787 27.8671 22.4787 27.4181 22.6658C27.1935 22.7594 26.9877 22.8903 26.8194 23.0774L20.6639 29.2329L14.5084 23.0774C14.34 22.909 14.1342 22.7594 13.9097 22.6658C13.4606 22.4787 12.9368 22.4787 12.4877 22.6658C12.0387 22.8529 11.6645 23.2271 11.4774 23.6761C11.3839 23.9006 11.3277 24.1439 11.3277 24.3871V35.6129C11.3277 36.6419 12.1697 37.4839 13.1987 37.4839C14.2277 37.4839 15.0697 36.6419 15.0697 35.6129V28.8961L19.3542 33.1806C20.0839 33.9103 21.2626 33.9103 21.9923 33.1806L26.2768 28.8961V35.6129C26.2768 36.6419 27.1187 37.4839 28.1477 37.4839C29.1768 37.4839 30.0187 36.6419 30.0187 35.6129V24.3871C30.0187 24.1439 29.9626 23.9006 29.869 23.6761C29.6819 23.2271 29.3077 22.8529 28.8587 22.6658H28.84Z" fill="url(#paint1_linear_6402_7101)"/>
<path d="M48.7284 30.5239C48.1671 29.6632 47.0071 29.42 46.1277 30L43.0968 32.0019V24.4058C43.0968 23.3768 42.2548 22.5348 41.2258 22.5348C40.1968 22.5348 39.3548 23.3768 39.3548 24.4058V31.9084L36.6794 30.0374C35.8374 29.4387 34.6587 29.6445 34.0787 30.5052C33.48 31.3471 33.6858 32.5258 34.5465 33.1058L40.1594 37.0348C40.7955 37.4652 41.6187 37.4839 42.2548 37.0535L48.1858 33.1245C49.0465 32.5632 49.2897 31.4032 48.7097 30.5239H48.7284Z" fill="url(#paint2_linear_6402_7101)"/>
<defs>
<linearGradient id="paint0_linear_6402_7101" x1="59" y1="0.999997" x2="5.46154" y2="54.5385" gradientUnits="userSpaceOnUse">
<stop stop-color="#00FF78"/>
<stop offset="1" stop-color="#00DBFF"/>
</linearGradient>
<linearGradient id="paint1_linear_6402_7101" x1="59" y1="0.999997" x2="5.46154" y2="54.5385" gradientUnits="userSpaceOnUse">
<stop stop-color="#00FF78"/>
<stop offset="1" stop-color="#00DBFF"/>
</linearGradient>
<linearGradient id="paint2_linear_6402_7101" x1="59" y1="0.999997" x2="5.46154" y2="54.5385" gradientUnits="userSpaceOnUse">
<stop stop-color="#00FF78"/>
<stop offset="1" stop-color="#00DBFF"/>
</linearGradient>
</defs>
</svg>
