<svg width="60" height="60" viewBox="0 0 60 60" fill="none" xmlns="http://www.w3.org/2000/svg">
<g clip-path="url(#clip0_6400_6970)">
<path fill-rule="evenodd" clip-rule="evenodd" d="M26.25 8.125C25.9048 8.125 25.625 8.4048 25.625 8.75V12.5C25.625 13.5355 24.7855 14.375 23.75 14.375C22.7145 14.375 21.875 13.5355 21.875 12.5V8.75C21.875 6.33378 23.8337 4.375 26.25 4.375H51.25C53.6662 4.375 55.625 6.33378 55.625 8.75V36.25C55.625 38.6662 53.6662 40.625 51.25 40.625H46.25C45.2145 40.625 44.375 39.7855 44.375 38.75C44.375 37.7145 45.2145 36.875 46.25 36.875H51.25C51.5952 36.875 51.875 36.5952 51.875 36.25V8.75C51.875 8.4048 51.5952 8.125 51.25 8.125H26.25Z" fill="url(#paint0_linear_6400_6970)"/>
<path fill-rule="evenodd" clip-rule="evenodd" d="M8.75 24.375C8.40482 24.375 8.125 24.6548 8.125 25V50C8.125 50.3452 8.40482 50.625 8.75 50.625H33.75C34.0952 50.625 34.375 50.3452 34.375 50V25C34.375 24.6548 34.0952 24.375 33.75 24.375H8.75ZM4.375 25C4.375 22.5838 6.33375 20.625 8.75 20.625H33.75C36.1662 20.625 38.125 22.5838 38.125 25V50C38.125 52.4162 36.1662 54.375 33.75 54.375H8.75C6.33375 54.375 4.375 52.4162 4.375 50V25Z" fill="url(#paint1_linear_6400_6970)"/>
<path fill-rule="evenodd" clip-rule="evenodd" d="M21.25 29.375C22.2855 29.375 23.125 30.2145 23.125 31.25V43.75C23.125 44.7855 22.2855 45.625 21.25 45.625C20.2145 45.625 19.375 44.7855 19.375 43.75V31.25C19.375 30.2145 20.2145 29.375 21.25 29.375Z" fill="url(#paint2_linear_6400_6970)"/>
<path fill-rule="evenodd" clip-rule="evenodd" d="M13.125 37.5C13.125 36.4645 13.9645 35.625 15 35.625H27.5C28.5355 35.625 29.375 36.4645 29.375 37.5C29.375 38.5355 28.5355 39.375 27.5 39.375H15C13.9645 39.375 13.125 38.5355 13.125 37.5Z" fill="url(#paint3_linear_6400_6970)"/>
</g>
<defs>
<linearGradient id="paint0_linear_6400_6970" x1="55.625" y1="4.375" x2="22.2487" y2="35.4495" gradientUnits="userSpaceOnUse">
<stop stop-color="#00FF78"/>
<stop offset="1" stop-color="#00DBFF"/>
</linearGradient>
<linearGradient id="paint1_linear_6400_6970" x1="38.125" y1="20.625" x2="6.97115" y2="51.7788" gradientUnits="userSpaceOnUse">
<stop stop-color="#00FF78"/>
<stop offset="1" stop-color="#00DBFF"/>
</linearGradient>
<linearGradient id="paint2_linear_6400_6970" x1="23.125" y1="29.375" x2="16.552" y2="30.8919" gradientUnits="userSpaceOnUse">
<stop stop-color="#00FF78"/>
<stop offset="1" stop-color="#00DBFF"/>
</linearGradient>
<linearGradient id="paint3_linear_6400_6970" x1="29.375" y1="35.625" x2="27.8581" y2="42.198" gradientUnits="userSpaceOnUse">
<stop stop-color="#00FF78"/>
<stop offset="1" stop-color="#00DBFF"/>
</linearGradient>
<clipPath id="clip0_6400_6970">
<rect width="60" height="60" fill="white"/>
</clipPath>
</defs>
</svg>
