<svg width="60" height="60" viewBox="0 0 60 60" fill="none" xmlns="http://www.w3.org/2000/svg">
<g clip-path="url(#clip0_6400_6935)">
<g clip-path="url(#clip1_6400_6935)">
<path d="M53.9869 27.6949L53.8031 27.511L59.4853 21.8288C59.8149 21.4992 60.0002 21.0521 60.0002 20.5859C60.0002 20.1198 59.8149 19.6726 59.4853 19.3431L53.8031 13.661L53.9871 13.477C55.4002 13.2787 56.7081 12.6299 57.7296 11.6087C60.3039 9.03407 60.3039 4.8452 57.7296 2.27083C56.4823 1.02337 54.8242 0.336533 53.0606 0.336533C51.2969 0.336533 49.6387 1.02337 48.3917 2.27048C47.3705 3.29177 46.7217 4.59981 46.5233 6.0131L46.3394 6.19696L40.6571 0.514775C39.9707 -0.171592 38.8577 -0.171592 38.1712 0.514775L13.6608 25.0251L13.477 24.8413C13.2787 23.428 12.6298 22.1199 11.6085 21.0986C9.03416 18.5242 4.84529 18.5242 2.27068 21.0986C-0.303692 23.6731 -0.303692 27.8621 2.27068 30.4365C3.29197 31.4578 4.5999 32.1066 6.01318 32.3049L6.19717 32.4888L0.514863 38.1711C-0.171621 38.8575 -0.171621 39.9705 0.514863 40.657L19.343 59.485C19.6727 59.8147 20.1197 60 20.5859 60C21.0522 60 21.4992 59.8148 21.8288 59.485L28.7539 52.5598C29.4404 51.8735 29.4404 50.7604 28.7539 50.074L26.8749 48.195C26.5572 47.8772 26.1298 47.6933 25.6806 47.6808C24.8888 47.6587 24.1444 47.3384 23.5846 46.7786C23.0015 46.1955 22.6804 45.4202 22.6804 44.5957C22.6804 43.771 23.0015 42.9957 23.5846 42.4126C24.7883 41.209 26.7468 41.2088 27.9507 42.4126C28.5105 42.9724 28.8308 43.7168 28.8527 44.5085C28.8651 44.9578 29.0491 45.385 29.3668 45.7029L31.2459 47.582C31.5755 47.9116 32.0226 48.0969 32.4889 48.0969C32.9551 48.0969 33.4021 47.9117 33.7318 47.582L46.3392 34.9746L46.523 35.1584C46.7213 36.5717 47.3702 37.8798 48.3915 38.9011C50.9658 41.4756 55.1548 41.4756 57.7293 38.9011C58.9764 37.6538 59.6631 35.9958 59.6631 34.2321C59.6631 32.4684 58.9763 30.8103 57.7293 29.5632C56.7083 28.5422 55.4002 27.8932 53.9869 27.6949ZM32.489 43.8532L32.305 43.6693C32.1069 42.256 31.4579 40.9481 30.4367 39.9268C27.8621 37.3523 23.6732 37.3523 21.0987 39.9268C19.8516 41.174 19.1649 42.8321 19.1649 44.5958C19.1649 46.3595 19.8517 48.0175 21.0987 49.2647C22.1199 50.2859 23.4281 50.9348 24.8412 51.1331L25.0251 51.317L20.5859 55.7563L4.24377 39.414L9.92596 33.7318C10.2556 33.4022 10.4409 32.9551 10.4409 32.4889C10.4409 32.0227 10.2556 31.5756 9.92596 31.246L8.04686 29.367C7.72916 29.0492 7.30178 28.8654 6.8526 28.8528C6.06076 28.8308 5.31639 28.5105 4.75658 27.9507C3.55295 26.7471 3.55295 24.7885 4.75658 23.5847C5.96033 22.381 7.91877 22.381 9.12252 23.5847C9.68233 24.1445 10.0027 24.889 10.0246 25.6808C10.0371 26.13 10.221 26.5574 10.5388 26.875L12.4178 28.754C13.1042 29.4404 14.2172 29.4404 14.9037 28.754L20.5859 23.0718L26.2681 28.754C26.9546 29.4405 28.0675 29.4405 28.754 28.754L30.6331 26.875C30.9509 26.5574 31.1349 26.13 31.1473 25.6807C31.1692 24.889 31.4896 24.1446 32.0493 23.5847C33.2531 22.381 35.2117 22.381 36.4154 23.5847C37.6191 24.7884 37.6191 26.747 36.4154 27.9507C35.8556 28.5105 35.1112 28.8309 34.3194 28.8528C33.8702 28.8652 33.4428 29.0492 33.1251 29.367L31.2461 31.246C30.5596 31.9324 30.5596 33.0454 31.2461 33.7319L36.9283 39.4141L32.489 43.8532ZM55.2435 36.4153C54.0398 37.6189 52.0811 37.6189 50.8776 36.4153C50.3178 35.8555 49.9974 35.111 49.9755 34.3191C49.9631 33.87 49.7791 33.4426 49.4613 33.1249L47.5823 31.2459C47.239 30.9027 46.7892 30.731 46.3394 30.731C45.8896 30.731 45.4396 30.9027 45.0965 31.2459L39.4143 36.9281L34.9751 32.4888L35.159 32.3049C36.5722 32.1066 37.8802 31.4578 38.9015 30.4366C41.4759 27.8621 41.4759 23.6731 38.9015 21.0986C36.327 18.5242 32.1381 18.5242 29.5635 21.0986C28.5424 22.12 27.8935 23.4281 27.6953 24.8413L27.5113 25.0251L23.0722 20.5858L39.4141 4.24368L45.0964 9.92575C45.7828 10.6121 46.8958 10.6121 47.5823 9.92575L49.4613 8.04677C49.779 7.72907 49.9631 7.30169 49.9755 6.85251C49.9974 6.06067 50.3178 5.3163 50.8776 4.75649C51.4607 4.17337 52.2359 3.85216 53.0606 3.85216C53.8852 3.85216 54.6604 4.17337 55.2435 4.75649C56.4472 5.96013 56.4472 7.91868 55.2437 9.12243C54.6838 9.68224 53.9394 10.0026 53.1475 10.0245C52.6983 10.037 52.271 10.2209 51.9531 10.5388L50.0742 12.4179C49.3878 13.1043 49.3878 14.2173 50.0742 14.9038L55.7563 20.5858L50.0742 26.268C49.3877 26.9544 49.3877 28.0674 50.0742 28.7539L51.9531 30.6329C52.2708 30.9507 52.6982 31.1346 53.1474 31.1471C53.9392 31.1691 54.6836 31.4894 55.2434 32.0492C55.8265 32.6324 56.1476 33.4077 56.1476 34.2322C56.1478 35.0568 55.8267 35.8322 55.2435 36.4153Z" fill="url(#paint0_linear_6400_6935)"/>
</g>
</g>
<defs>
<linearGradient id="paint0_linear_6400_6935" x1="60.0002" y1="-3.30118e-06" x2="4.61559" y2="55.3848" gradientUnits="userSpaceOnUse">
<stop stop-color="#00FF78"/>
<stop offset="1" stop-color="#00DBFF"/>
</linearGradient>
<clipPath id="clip0_6400_6935">
<rect width="60" height="60" fill="white"/>
</clipPath>
<clipPath id="clip1_6400_6935">
<rect width="60" height="60" fill="white"/>
</clipPath>
</defs>
</svg>
