<svg width="60" height="60" viewBox="0 0 60 60" fill="none" xmlns="http://www.w3.org/2000/svg">
<path d="M14.8518 37.2354C15.7039 37.2354 16.3947 36.5446 16.3947 35.6925C16.3947 34.8403 15.7039 34.1495 14.8518 34.1495C13.9996 34.1495 13.3089 34.8403 13.3089 35.6925C13.3089 36.5446 13.9996 37.2354 14.8518 37.2354Z" fill="url(#paint0_linear_6400_6941)"/>
<path d="M18.2415 35.6925C18.2415 36.5574 18.9429 37.2354 19.7845 37.2354C20.6261 37.2354 21.3274 36.5341 21.3274 35.6925C21.3274 34.8509 20.6261 34.1495 19.7845 34.1495C18.9429 34.1495 18.2415 34.8509 18.2415 35.6925Z" fill="url(#paint1_linear_6400_6941)"/>
<path d="M23.1509 35.6925C23.1509 36.5574 23.8522 37.2354 24.6938 37.2354C25.5354 37.2354 26.2367 36.5341 26.2367 35.6925C26.2367 34.8509 25.5354 34.1495 24.6938 34.1495C23.8522 34.1495 23.1509 34.8509 23.1509 35.6925Z" fill="url(#paint2_linear_6400_6941)"/>
<path d="M29.6265 34.1495C28.7615 34.1495 28.0835 34.8509 28.0835 35.6925C28.0835 36.5341 28.7849 37.2354 29.6265 37.2354C30.4681 37.2354 31.1694 36.5341 31.1694 35.6925C31.1694 34.8509 30.4681 34.1495 29.6265 34.1495Z" fill="url(#paint3_linear_6400_6941)"/>
<path d="M57.1887 30.1286L46.8792 27.3233V22.3906C46.8792 19.5619 44.5882 17.2709 41.7595 17.2709H39.6555V16.6163C39.6555 8.0133 32.6422 1 24.0392 1C15.4362 1 8.42292 8.0133 8.42292 16.6163V17.2709H6.31893C3.49023 17.2709 1.19922 19.5619 1.19922 22.3906V40.1108C1.19922 47.8255 7.46443 54.0907 15.1791 54.0907H29.9538C31.146 54.0907 32.1279 53.1088 32.1279 51.9166C32.1279 50.7243 31.146 49.7424 29.9538 49.7424H15.1791C9.87233 49.7424 5.54747 45.4176 5.54747 40.1108V22.3906C5.54747 21.9698 5.89813 21.6191 6.31893 21.6191H41.7595C42.1803 21.6191 42.5309 21.9698 42.5309 22.3906V27.9778L34.3488 30.4091C33.437 30.6896 32.7824 31.5312 32.7824 32.4897V39.5965H12.327C11.5088 39.5965 10.8542 38.942 10.8542 38.1237V33.1911C10.8542 32.3728 11.5088 31.7183 12.327 31.7183H30.0473C30.8655 31.7183 31.5201 31.0637 31.5201 30.2455C31.5201 29.4272 30.8655 28.7727 30.0473 28.7727H12.327C9.89571 28.7727 7.90861 30.7598 7.90861 33.1911V38.1237C7.90861 40.555 9.89571 42.5421 12.327 42.5421H32.7824V47.4047C32.7824 50.3736 34.3955 53.0855 36.9904 54.5115L44.7284 58.7428C45.0557 58.9065 45.4064 59 45.7804 59C46.1545 59 46.5051 58.9065 46.8324 58.7428L54.5938 54.5115C57.1887 53.0855 58.8018 50.3736 58.8018 47.4047V32.2092C58.8018 31.2273 58.1472 30.3624 57.1887 30.1052V30.1286ZM45.8272 31.5546L54.4536 33.9158V47.4514C54.4536 48.8073 53.7055 50.0697 52.5132 50.7243L45.8038 54.3712L39.0944 50.7243C37.9022 50.0697 37.1541 48.8073 37.1541 47.4514V34.1495L45.8272 31.5546ZM35.541 17.2709H12.5608V16.6163C12.5608 10.2809 17.7039 5.13785 24.0392 5.13785C30.3746 5.13785 35.5176 10.2809 35.5176 16.6163V17.2709H35.541Z" fill="url(#paint4_linear_6400_6941)"/>
<path d="M43.9336 46.2124C44.1908 46.3994 44.518 46.5163 44.8219 46.5163C45.196 46.5163 45.57 46.3761 45.8739 46.0722L51.7885 40.1576C52.3729 39.5732 52.3729 38.638 51.7885 38.077C51.2041 37.5159 50.2689 37.4925 49.7079 38.077L44.7051 43.0798L41.7829 40.9057C41.1283 40.4148 40.2165 40.555 39.7256 41.2096C39.2347 41.8642 39.375 42.7993 40.0295 43.2668L43.957 46.2124H43.9336Z" fill="url(#paint5_linear_6400_6941)"/>
<defs>
<linearGradient id="paint0_linear_6400_6941" x1="58.8018" y1="0.999997" x2="5.2646" y2="54.1704" gradientUnits="userSpaceOnUse">
<stop stop-color="#00FF78"/>
<stop offset="1" stop-color="#00DBFF"/>
</linearGradient>
<linearGradient id="paint1_linear_6400_6941" x1="58.8018" y1="0.999997" x2="5.2646" y2="54.1704" gradientUnits="userSpaceOnUse">
<stop stop-color="#00FF78"/>
<stop offset="1" stop-color="#00DBFF"/>
</linearGradient>
<linearGradient id="paint2_linear_6400_6941" x1="58.8018" y1="0.999997" x2="5.2646" y2="54.1704" gradientUnits="userSpaceOnUse">
<stop stop-color="#00FF78"/>
<stop offset="1" stop-color="#00DBFF"/>
</linearGradient>
<linearGradient id="paint3_linear_6400_6941" x1="58.8018" y1="0.999997" x2="5.2646" y2="54.1704" gradientUnits="userSpaceOnUse">
<stop stop-color="#00FF78"/>
<stop offset="1" stop-color="#00DBFF"/>
</linearGradient>
<linearGradient id="paint4_linear_6400_6941" x1="58.8018" y1="0.999997" x2="5.2646" y2="54.1704" gradientUnits="userSpaceOnUse">
<stop stop-color="#00FF78"/>
<stop offset="1" stop-color="#00DBFF"/>
</linearGradient>
<linearGradient id="paint5_linear_6400_6941" x1="58.8018" y1="0.999997" x2="5.2646" y2="54.1704" gradientUnits="userSpaceOnUse">
<stop stop-color="#00FF78"/>
<stop offset="1" stop-color="#00DBFF"/>
</linearGradient>
</defs>
</svg>
