<svg width="60" height="60" viewBox="0 0 60 60" fill="none" xmlns="http://www.w3.org/2000/svg">
<path fill-rule="evenodd" clip-rule="evenodd" d="M29.7257 18.5233C29.5131 18.9703 29.3611 19.4223 29.2523 19.8536C28.8 21.642 29.0781 23.1524 29.083 23.1741C29.2041 23.8689 28.1636 24.0574 28.0165 23.3759C28.0005 23.2962 27.7657 22.077 28.0116 20.4808C28.0771 20.0554 28.1747 19.6083 28.3218 19.1455C26.0195 20.2632 23.5973 21.9392 21.1542 24.3716C21.0726 24.4562 21.0182 24.5637 21.0022 24.6797L20.4251 29.2883C20.0716 28.7723 19.7071 28.0642 19.6304 27.2559C19.6057 26.8197 19.0101 26.6094 18.7048 26.926C18.6455 26.9792 13.2031 32.3961 16.3754 39.6389C16.599 39.2341 16.8277 38.8402 17.0723 38.4475C22.1552 30.2586 32.2071 23.9789 32.762 23.6442C33.3626 23.2744 33.9385 24.1577 33.3441 24.5432C32.6149 24.7667 18.2711 34.733 15.9342 43.3859C15.6017 44.4601 15.3793 45.5513 15.3027 46.6533C15.278 46.9578 15.5338 47.2272 15.8464 47.2224C16.1294 47.2224 16.3692 47.0037 16.3852 46.727C16.5323 44.6196 17.2565 42.528 18.3341 40.5282C20.3633 40.8726 22.8522 40.9076 24.979 40.0594C25.4473 39.8818 25.4127 39.1737 24.9196 39.054C24.9036 39.0492 23.5702 38.6662 23.0091 37.7237C24.1708 38.1285 26.4817 38.5091 28.8 37.447L34.8517 32.6475C35.042 32.4988 35.1075 32.2378 35.0037 32.0191C34.8999 31.7956 34.6614 31.6735 34.4217 31.711C34.4056 31.711 33.1537 31.8971 31.9019 30.9824C33.2081 30.9606 35.1557 30.7854 36.3866 30.0508C37.6385 29.3052 40.1521 26.7254 42.1392 23.9583C41.1296 24.1758 38.0722 23.8967 37.9486 23.7988C37.2479 23.6599 37.4679 22.628 38.1612 22.756C38.1884 22.7609 39.8369 23.0702 41.53 22.9482C42.0255 22.9107 42.526 22.837 42.9882 22.7029C43.7334 21.5429 44.3377 20.3877 44.6701 19.3667C44.7517 19.1274 44.6479 18.8713 44.4254 18.7444C44.3389 18.696 37.9326 15.2293 29.7257 18.5233Z" fill="url(#paint0_linear_6403_7153)"/>
<path fill-rule="evenodd" clip-rule="evenodd" d="M48.5542 4.39542C45.073 2.42704 38.0772 1 30 1C21.9228 1 14.927 2.42704 11.4458 4.39542C9.24605 5.64 8.25 7.23742 8.25 8.73333V51.2667C8.25 52.7626 9.24605 54.36 11.4458 55.6046C14.9282 57.573 21.9228 59 30 59C38.0772 59 45.073 57.573 48.5542 55.6046C50.7527 54.36 51.75 52.7626 51.75 51.2667V8.69829C51.7339 7.21204 50.7379 5.63154 48.5542 4.39542ZM47.7955 23.2333C47.7955 23.3953 47.6051 23.4823 47.442 23.6297C46.9242 24.084 46.1568 24.4876 45.2077 24.8694C44.7888 25.0374 44.3365 25.1969 43.857 25.3479C42.531 27.1749 40.9788 28.9524 39.6133 30.2465C42.9796 29.7124 45.812 28.9149 47.7955 27.9652V36.7655C47.7955 36.9274 47.6051 37.0144 47.442 37.1618C46.9242 37.6161 46.1568 38.0197 45.2077 38.4015C41.7771 39.7718 36.2383 40.6321 30 40.6321C29.0966 40.6321 28.2081 40.614 27.3381 40.579C27.065 41.2496 26.5237 41.7982 25.8069 42.0761C23.7049 42.911 21.4854 43.021 19.6502 42.8784C19.5439 43.1225 19.4488 43.3642 19.3586 43.6046C22.4752 44.1677 26.1122 44.4988 30 44.4988C37.526 44.4988 44.1153 43.259 47.7955 41.4985V51.2655C47.7955 51.4274 47.6051 51.5144 47.442 51.6618C46.9242 52.1161 46.1568 52.5197 45.2077 52.9015C41.7771 54.2718 36.2383 55.1321 30 55.1321C23.7617 55.1321 18.2229 54.2718 14.7923 52.9015C13.8432 52.5209 13.0758 52.1161 12.558 51.6618C12.3936 51.5144 12.2045 51.4274 12.2045 51.2655V41.4985C12.7322 41.751 13.3229 41.9927 13.9656 42.2223C14.1151 41.7571 14.2918 41.2846 14.4994 40.8049C14.4352 40.707 14.3795 40.6031 14.3313 40.4932C13.9211 39.5567 13.6331 38.6468 13.444 37.7684C13.1042 37.5775 12.8101 37.3793 12.5691 37.169C12.3986 37.0204 12.207 36.9298 12.2058 36.763V27.964C12.9201 28.3059 13.7468 28.6285 14.6663 28.9258C15.514 27.2486 16.4915 26.0838 16.9488 25.5848C16.1702 25.3673 15.4547 25.1292 14.8133 24.8743C13.8605 24.4936 13.0906 24.0913 12.5691 23.6345C12.3986 23.4859 12.207 23.3953 12.2058 23.2285V13.4628C15.7241 15.1472 21.9031 16.3531 29.0163 16.4558C34.0361 14.4765 38.4479 14.7484 41.4459 15.4178C44.0114 14.9067 46.184 14.2349 47.7979 13.4628V23.2297L47.7955 23.2333ZM47.442 9.12967C46.9242 9.584 46.1568 9.98758 45.2077 10.3694C41.7771 11.7397 36.2383 12.6 30 12.6C23.7617 12.6 18.2229 11.7397 14.7923 10.3694C13.8432 9.98879 13.0758 9.584 12.558 9.12967C12.3936 8.98225 12.2045 8.89525 12.2045 8.73333C12.2045 8.57142 12.3949 8.48442 12.558 8.337C13.0758 7.88267 13.8432 7.47908 14.7923 7.09725C18.2229 5.727 23.7617 4.86667 30 4.86667C36.2383 4.86667 41.7771 5.727 45.2077 7.09725C46.1568 7.47788 46.9242 7.88267 47.442 8.337C47.6064 8.48442 47.7955 8.57142 47.7955 8.73333C47.7955 8.89525 47.6051 8.98225 47.442 9.12967Z" fill="url(#paint1_linear_6403_7153)"/>
<defs>
<linearGradient id="paint0_linear_6403_7153" x1="51.75" y1="0.999997" x2="0.353075" y2="39.5477" gradientUnits="userSpaceOnUse">
<stop stop-color="#00FF78"/>
<stop offset="1" stop-color="#00DBFF"/>
</linearGradient>
<linearGradient id="paint1_linear_6403_7153" x1="51.75" y1="0.999997" x2="0.353075" y2="39.5477" gradientUnits="userSpaceOnUse">
<stop stop-color="#00FF78"/>
<stop offset="1" stop-color="#00DBFF"/>
</linearGradient>
</defs>
</svg>
