<svg width="60" height="60" viewBox="0 0 60 60" fill="none" xmlns="http://www.w3.org/2000/svg">
<path d="M46.291 4.17969C53.285 4.17969 58.9601 9.84724 58.999 16.8535V43.0732C58.999 50.113 53.3093 55.8203 46.291 55.8203H13.707C6.68891 55.8201 1 50.1129 1 43.0732V16.8535C1.03906 9.84736 6.71313 4.17989 13.707 4.17969H46.291ZM35.6826 30.4385C32.1052 32.2325 27.8938 32.2325 24.3164 30.4385L6.86523 21.6855V43.0732C6.86523 46.8638 9.92815 49.9363 13.707 49.9365H46.291C50.0701 49.9365 53.1338 46.8639 53.1338 43.0732V21.6855L35.6826 30.4385ZM16.1621 34.1953C16.7646 33.5928 17.7452 33.5928 18.3477 34.1953C18.6392 34.487 18.7997 34.8758 18.7998 35.2871C18.7998 35.6986 18.6393 36.088 18.3477 36.3799L16.0088 38.7148H24.7197C25.5729 38.7148 26.2656 39.4076 26.2656 40.2607C26.2656 41.1139 25.5729 41.8066 24.7197 41.8066H16.0127L18.3506 44.1445C18.6424 44.4363 18.8036 44.8258 18.8037 45.2373C18.8037 45.6489 18.6425 46.0382 18.3506 46.3301C18.0588 46.6218 17.6702 46.7831 17.2588 46.7832C16.8472 46.7832 16.4579 46.622 16.166 46.3301L11.1777 41.3418C10.5867 40.7356 10.5866 39.7857 11.1777 39.1758V39.1797L16.1621 34.1953ZM41.4746 34.1953C42.0771 33.5928 43.0577 33.5928 43.6602 34.1953L48.6445 39.1797V39.1758C49.2354 39.7856 49.2353 40.7357 48.6445 41.3418L43.6562 46.3301C43.3644 46.622 42.9751 46.7832 42.5635 46.7832C42.1519 46.7832 41.7626 46.6219 41.4707 46.3301C41.179 46.0382 41.0186 45.6488 41.0186 45.2373C41.0187 44.8258 41.1789 44.4363 41.4707 44.1445L43.8096 41.8066H35.1016C34.2486 41.8064 33.5566 41.1138 33.5566 40.2607C33.5566 39.4077 34.2486 38.7151 35.1016 38.7148H43.8135L41.4746 36.3799C41.1828 36.088 41.0215 35.6987 41.0215 35.2871C41.0216 34.8757 41.183 34.4871 41.4746 34.1953ZM13.707 10.0625C10.5169 10.0627 7.8368 12.2529 7.0791 15.2158L26.9395 25.1768C28.8661 26.1427 31.1333 26.1428 33.0596 25.1768L52.9199 15.2158C52.162 12.2528 49.4813 10.0625 46.291 10.0625H13.707Z" fill="url(#paint0_linear_6403_7204)"/>
<defs>
<linearGradient id="paint0_linear_6403_7204" x1="58.999" y1="4.17968" x2="11.6503" y2="57.3583" gradientUnits="userSpaceOnUse">
<stop stop-color="#00FF78"/>
<stop offset="1" stop-color="#00DBFF"/>
</linearGradient>
</defs>
</svg>
