<svg width="60" height="60" viewBox="0 0 60 60" fill="none" xmlns="http://www.w3.org/2000/svg">
<path d="M48.9426 46.1973L40.8603 38.115C40.1054 37.3601 38.8815 37.3601 38.1266 38.115C37.3717 38.8699 37.3717 40.0938 38.1266 40.8487L46.2089 48.931C46.9638 49.6859 48.1877 49.6859 48.9426 48.931C49.6975 48.1761 49.6975 46.9522 48.9426 46.1973Z" fill="url(#paint0_linear_6403_7152)"/>
<path d="M40.8694 48.9407L48.9517 40.8584C49.7066 40.1035 49.7066 38.8795 48.9517 38.1246C48.1968 37.3697 46.9729 37.3697 46.218 38.1246L38.1357 46.2069C37.3808 46.9618 37.3808 48.1858 38.1357 48.9407C38.8906 49.6956 40.1145 49.6956 40.8694 48.9407Z" fill="url(#paint1_linear_6403_7152)"/>
<path d="M23.0458 27.9739C24.1136 27.9739 24.9791 27.1083 24.9791 26.0405C24.9791 24.9728 24.1136 24.1072 23.0458 24.1072C21.9781 24.1072 21.1125 24.9728 21.1125 26.0405C21.1125 27.1083 21.9781 27.9739 23.0458 27.9739Z" fill="url(#paint2_linear_6403_7152)"/>
<path d="M21.7176 51.2705H10.6667C5.32873 51.2705 1 46.9418 1 41.6039V10.6667C1 5.32873 5.32873 1 10.6667 1H49.3333C54.6713 1 59 5.3268 59 10.6647V22.5818C59 23.649 58.1358 24.5151 57.0686 24.5151C56.0014 24.5151 55.1353 23.649 55.1353 22.5818V10.6667C55.1333 7.46313 52.5369 4.86667 49.3333 4.86667H10.6667C7.46313 4.86667 4.86667 7.46313 4.86667 10.6667V41.6039C4.86667 44.8074 7.46313 47.4039 10.6667 47.4039H21.7176C22.7848 47.4039 23.6509 48.27 23.6509 49.3372C23.6509 50.4044 22.7848 51.2705 21.7176 51.2705Z" fill="url(#paint3_linear_6403_7152)"/>
<path d="M13.0157 2.93333H16.8823V49.1458H13.0157V2.93333Z" fill="url(#paint4_linear_6403_7152)"/>
<path d="M51.2667 59H35.8019C31.537 59 28.0686 55.5316 28.0686 51.2667V35.8C28.0686 31.5351 31.537 28.0667 35.8019 28.0667H51.2667C55.5316 28.0667 59 31.5351 59 35.8V51.2667C59 55.5316 55.5316 59 51.2667 59ZM35.8019 31.9333C33.6695 31.9333 31.9353 33.6675 31.9353 35.8V51.2667C31.9353 53.3991 33.6695 55.1333 35.8019 55.1333H51.2667C53.3991 55.1333 55.1333 53.3991 55.1333 51.2667V35.8C55.1333 33.6675 53.3991 31.9333 51.2667 31.9333H35.8019Z" fill="url(#paint5_linear_6403_7152)"/>
<path d="M2.93527 16.5073H57.1073V20.3739H2.93527V16.5073Z" fill="url(#paint6_linear_6403_7152)"/>
<path d="M21.7176 35.7633H2.93527V31.8966H21.7176C22.7848 31.8966 23.6509 32.7627 23.6509 33.8299C23.6509 34.8971 22.7848 35.7633 21.7176 35.7633Z" fill="url(#paint7_linear_6403_7152)"/>
<defs>
<linearGradient id="paint0_linear_6403_7152" x1="59" y1="0.999997" x2="5.46154" y2="54.5385" gradientUnits="userSpaceOnUse">
<stop stop-color="#00FF78"/>
<stop offset="1" stop-color="#00DBFF"/>
</linearGradient>
<linearGradient id="paint1_linear_6403_7152" x1="59" y1="0.999997" x2="5.46154" y2="54.5385" gradientUnits="userSpaceOnUse">
<stop stop-color="#00FF78"/>
<stop offset="1" stop-color="#00DBFF"/>
</linearGradient>
<linearGradient id="paint2_linear_6403_7152" x1="59" y1="0.999997" x2="5.46154" y2="54.5385" gradientUnits="userSpaceOnUse">
<stop stop-color="#00FF78"/>
<stop offset="1" stop-color="#00DBFF"/>
</linearGradient>
<linearGradient id="paint3_linear_6403_7152" x1="59" y1="0.999997" x2="5.46154" y2="54.5385" gradientUnits="userSpaceOnUse">
<stop stop-color="#00FF78"/>
<stop offset="1" stop-color="#00DBFF"/>
</linearGradient>
<linearGradient id="paint4_linear_6403_7152" x1="59" y1="0.999997" x2="5.46154" y2="54.5385" gradientUnits="userSpaceOnUse">
<stop stop-color="#00FF78"/>
<stop offset="1" stop-color="#00DBFF"/>
</linearGradient>
<linearGradient id="paint5_linear_6403_7152" x1="59" y1="0.999997" x2="5.46154" y2="54.5385" gradientUnits="userSpaceOnUse">
<stop stop-color="#00FF78"/>
<stop offset="1" stop-color="#00DBFF"/>
</linearGradient>
<linearGradient id="paint6_linear_6403_7152" x1="59" y1="0.999997" x2="5.46154" y2="54.5385" gradientUnits="userSpaceOnUse">
<stop stop-color="#00FF78"/>
<stop offset="1" stop-color="#00DBFF"/>
</linearGradient>
<linearGradient id="paint7_linear_6403_7152" x1="59" y1="0.999997" x2="5.46154" y2="54.5385" gradientUnits="userSpaceOnUse">
<stop stop-color="#00FF78"/>
<stop offset="1" stop-color="#00DBFF"/>
</linearGradient>
</defs>
</svg>
