<svg width="60" height="60" viewBox="0 0 60 60" fill="none" xmlns="http://www.w3.org/2000/svg">
<g clip-path="url(#clip0_6400_7002)">
<path d="M54.2319 22.3654H53.1864C52.8062 21.213 52.3369 20.0783 51.7844 18.9971L52.527 18.2545C53.6141 17.1674 54.2141 15.7179 54.2141 14.1852C54.2141 12.6526 53.6141 11.1912 52.527 10.0981L49.8894 7.46049C48.8022 6.37336 47.3527 5.77336 45.8022 5.77336C44.2517 5.77336 42.82 6.37336 41.7329 7.46049L40.9903 8.20306C39.9032 7.65653 38.7745 7.18722 37.622 6.80703V5.76148C37.622 2.58326 35.0379 -0.00683594 31.8537 -0.00683594H28.123C24.9448 -0.00683594 22.3547 2.57732 22.3547 5.76148V6.80703C21.2022 7.18722 20.0676 7.65653 18.9864 8.20306L18.2438 7.46049C17.1567 6.37336 15.7072 5.77336 14.1686 5.77336C12.6299 5.77336 11.1745 6.37336 10.0874 7.46049L7.44975 10.0981C6.36262 11.1852 5.76262 12.6347 5.76262 14.1852C5.76262 15.7357 6.36262 17.1674 7.44975 18.2545L8.19232 18.9971C7.64579 20.0843 7.17648 21.213 6.79628 22.3654H5.75074C2.57252 22.3654 -0.0175781 24.9496 -0.0175781 28.1338V31.8644C-0.0175781 35.0427 2.56658 37.6328 5.75074 37.6328H6.79628C7.17648 38.7852 7.64579 39.9199 8.19232 41.0011L7.44975 41.7437C6.36262 42.8308 5.76262 44.2803 5.76262 45.813C5.76262 47.3575 6.36262 48.807 7.44975 49.9001L10.0874 52.5377C11.1745 53.6248 12.624 54.2248 14.1745 54.2248C15.725 54.2248 17.1567 53.6248 18.2438 52.5377L18.9864 51.7951C20.0735 52.3417 21.2022 52.811 22.3547 53.1912V54.2367C22.3547 57.4149 24.9389 60.005 28.123 60.005H31.8537C35.0319 60.005 37.622 57.4209 37.622 54.2367V53.1912C38.7745 52.811 39.9032 52.3417 40.9903 51.7951L41.7329 52.5377C42.82 53.6248 44.2696 54.2248 45.8022 54.2248C47.3349 54.2248 48.7963 53.6248 49.8834 52.5377L52.521 49.9001C53.6082 48.813 54.2082 47.3635 54.2082 45.813C54.2082 44.2625 53.6082 42.8308 52.521 41.7437L51.7785 41.0011C52.325 39.9199 52.7943 38.7852 53.1745 37.6328H54.22C57.3983 37.6328 59.9884 35.0486 59.9884 31.8644V28.1338C59.9884 24.9555 57.4042 22.3654 54.22 22.3654H54.2319ZM49.6933 35.0783C49.2181 36.9199 48.4874 38.6783 47.5191 40.3179C47.0438 41.1199 47.1745 42.1357 47.8339 42.7951L49.6517 44.6189C49.9725 44.9397 50.1448 45.3615 50.1448 45.813C50.1448 46.2644 49.9666 46.6922 49.6517 47.013L47.0141 49.6506C46.6933 49.9714 46.2715 50.1437 45.82 50.1437C45.3686 50.1437 44.9468 49.9654 44.626 49.6506L42.8082 47.8328C42.1488 47.1734 41.1329 47.0486 40.3309 47.5179C38.6913 48.4862 36.927 49.2169 35.0913 49.6922C34.1943 49.9239 33.5646 50.7377 33.5646 51.6644V54.2367C33.5646 55.1694 32.8042 55.9298 31.8715 55.9298H28.1408C27.2082 55.9298 26.4478 55.1694 26.4478 54.2367V51.6644C26.4478 50.7377 25.8181 49.9239 24.921 49.6922C23.0795 49.2169 21.321 48.4862 19.6814 47.5179C18.7488 46.9654 17.7389 47.2922 17.2042 47.8328L15.3804 49.6565C15.0596 49.9773 14.6319 50.1437 14.1804 50.1496C13.729 50.1496 13.3072 49.9714 12.9923 49.6565L10.3547 47.0189C10.0339 46.6981 9.86163 46.2763 9.86163 45.8248C9.86163 45.3734 10.0398 44.9516 10.3547 44.6308L12.1725 42.813C12.8319 42.1536 12.9567 41.1377 12.4874 40.3357C11.5191 38.6961 10.7884 36.9318 10.3131 35.0961C10.0814 34.1991 9.26757 33.5694 8.34084 33.5694H5.76856C4.83589 33.5694 4.07549 32.809 4.07549 31.8763V28.1456C4.07549 27.213 4.83589 26.4526 5.76856 26.4526H8.34084C9.26757 26.4526 10.0814 25.8229 10.3131 24.9258C10.7884 23.0843 11.5191 21.3258 12.4874 19.6862C12.9626 18.8843 12.8319 17.8684 12.1725 17.209L10.3488 15.3852C10.028 15.0645 9.85569 14.6427 9.85569 14.1912C9.85569 13.7397 10.0339 13.312 10.3488 12.9912L12.9864 10.3536C13.3072 10.0328 13.729 9.86049 14.1804 9.86049C14.6319 9.86049 15.0537 10.0387 15.3745 10.3536L17.1923 12.1714C17.8517 12.8308 18.8676 12.9555 19.6695 12.4862C21.3092 11.5179 23.0735 10.7872 24.9092 10.312C25.8062 10.0803 26.4359 9.26643 26.4359 8.3397V5.76742C26.4359 4.83475 27.1963 4.07435 28.129 4.07435H31.8597C32.7923 4.07435 33.5527 4.83475 33.5527 5.76742V8.3397C33.5527 9.26643 34.1824 10.0803 35.0795 10.312C36.921 10.7872 38.6795 11.5179 40.3191 12.4862C41.121 12.9615 42.1369 12.8308 42.7963 12.1714L44.62 10.3476C44.9408 10.0268 45.3626 9.85455 45.8141 9.85455C46.2656 9.85455 46.6933 10.0328 47.0141 10.3476L49.6517 12.9852C49.9725 13.306 50.1448 13.7278 50.1448 14.1852C50.1448 14.6367 49.9666 15.0585 49.6517 15.3793L47.8339 17.1971C47.1745 17.8565 47.0497 18.8724 47.5191 19.6744C48.4874 21.314 49.2181 23.0783 49.6933 24.914C49.925 25.811 50.7389 26.4407 51.6656 26.4407H54.2379C55.1705 26.4407 55.9309 27.2011 55.9309 28.1338V31.8644C55.9309 32.7971 55.1705 33.5575 54.2379 33.5575H51.6656C50.7389 33.5575 49.925 34.1872 49.6933 35.0843V35.0783Z" fill="url(#paint0_linear_6400_7002)"/>
<path d="M21.9864 21.0585C24.1191 19.1456 26.923 17.9694 30.0002 17.9694C33.0775 17.9694 35.8874 19.1456 38.0141 21.0585H42.6656C39.8557 17.0843 35.228 14.4823 30.0002 14.4823C24.7725 14.4823 20.1448 17.0843 17.3349 21.0585H21.9864Z" fill="url(#paint1_linear_6400_7002)"/>
<path d="M38.0141 38.9278C35.8814 40.8407 33.0775 42.0169 30.0002 42.0169C26.923 42.0169 24.1131 40.8407 21.9864 38.9278H17.3349C20.1448 42.9021 24.7725 45.5041 30.0002 45.5041C35.228 45.5041 39.8557 42.9021 42.6656 38.9278H38.0141Z" fill="url(#paint2_linear_6400_7002)"/>
<path d="M20.4478 22.3357V37.6446H16.7171V22.3357H20.4478Z" fill="url(#paint3_linear_6400_7002)"/>
<path d="M36.8497 37.6506H33.1191L26.8814 28.205V37.6506H23.1507V22.3417H26.8814L33.1191 31.8288V22.3417H36.8497V37.6506Z" fill="url(#paint4_linear_6400_7002)"/>
<path d="M43.2834 22.3357V37.6446H39.5527V22.3357H43.2834Z" fill="url(#paint5_linear_6400_7002)"/>
</g>
<defs>
<linearGradient id="paint0_linear_6400_7002" x1="59.9884" y1="-0.00683924" x2="4.59278" y2="55.3833" gradientUnits="userSpaceOnUse">
<stop stop-color="#00FF78"/>
<stop offset="1" stop-color="#00DBFF"/>
</linearGradient>
<linearGradient id="paint1_linear_6400_7002" x1="59.9884" y1="-0.00683924" x2="4.59278" y2="55.3833" gradientUnits="userSpaceOnUse">
<stop stop-color="#00FF78"/>
<stop offset="1" stop-color="#00DBFF"/>
</linearGradient>
<linearGradient id="paint2_linear_6400_7002" x1="59.9884" y1="-0.00683924" x2="4.59278" y2="55.3833" gradientUnits="userSpaceOnUse">
<stop stop-color="#00FF78"/>
<stop offset="1" stop-color="#00DBFF"/>
</linearGradient>
<linearGradient id="paint3_linear_6400_7002" x1="59.9884" y1="-0.00683924" x2="4.59278" y2="55.3833" gradientUnits="userSpaceOnUse">
<stop stop-color="#00FF78"/>
<stop offset="1" stop-color="#00DBFF"/>
</linearGradient>
<linearGradient id="paint4_linear_6400_7002" x1="59.9884" y1="-0.00683924" x2="4.59278" y2="55.3833" gradientUnits="userSpaceOnUse">
<stop stop-color="#00FF78"/>
<stop offset="1" stop-color="#00DBFF"/>
</linearGradient>
<linearGradient id="paint5_linear_6400_7002" x1="59.9884" y1="-0.00683924" x2="4.59278" y2="55.3833" gradientUnits="userSpaceOnUse">
<stop stop-color="#00FF78"/>
<stop offset="1" stop-color="#00DBFF"/>
</linearGradient>
<clipPath id="clip0_6400_7002">
<rect width="60" height="60" fill="white"/>
</clipPath>
</defs>
</svg>
