<svg width="60" height="60" viewBox="0 0 60 60" fill="none" xmlns="http://www.w3.org/2000/svg">
<path d="M16.8418 40.5049C15.3318 44.3681 11.6079 46.9111 7.45996 46.9111H1L11.7148 19.4961C13.2248 15.6329 16.9489 13.09 21.0967 13.0898H27.5576L16.8418 40.5049ZM32.5625 40.5049C31.0526 44.3681 27.3286 46.911 23.1807 46.9111H16.7207L27.4355 19.4961C28.9455 15.6328 32.6694 13.0899 36.8174 13.0898H43.2773L32.5625 40.5049ZM48.2822 40.5049C46.772 44.3681 43.0483 46.9111 38.9004 46.9111H32.4404L43.1562 19.4961C44.6662 15.6327 48.3901 13.0898 52.5381 13.0898H58.998L48.2822 40.5049Z" fill="url(#paint0_linear_6403_7203)"/>
<defs>
<linearGradient id="paint0_linear_6403_7203" x1="58.998" y1="13.0898" x2="31.8267" y2="59.6843" gradientUnits="userSpaceOnUse">
<stop stop-color="#00FF78"/>
<stop offset="1" stop-color="#00DBFF"/>
</linearGradient>
</defs>
</svg>
