<svg width="60" height="60" viewBox="0 0 60 60" fill="none" xmlns="http://www.w3.org/2000/svg">
<path d="M53.5147 15.2718L39.7183 1.47541C39.4045 1.17115 38.9957 1 38.5583 1H12.1445C8.75959 1 6.01172 3.74787 6.01172 7.13279V52.8672C6.01172 56.2521 8.75959 59 12.1445 59H47.8573C51.2422 59 53.9901 56.2521 53.9901 52.8672V16.4318C53.9901 15.9944 53.8189 15.5856 53.5147 15.2718ZM38.7199 16.2797C39.8799 17.4397 41.4202 18.0767 43.0557 18.0767H50.7193V52.8672C50.7193 54.4456 49.4357 55.7197 47.8668 55.7197H12.1445C10.5661 55.7197 9.29205 54.4361 9.29205 52.8672V7.13279C9.29205 5.55443 10.5757 4.28033 12.1445 4.28033H36.9229V11.9439C36.9229 13.5793 37.5599 15.1197 38.7199 16.2797ZM43.0557 14.7964C42.295 14.7964 41.5724 14.5016 41.0399 13.9597C40.498 13.4177 40.2032 12.7046 40.2032 11.9439V6.60033L48.3993 14.7964H43.0557Z" fill="url(#paint0_linear_6400_6944)"/>
<path d="M15.3678 25.9305V41.7997C15.3678 42.4462 15.8907 42.9597 16.5278 42.9597H43.4645C44.1111 42.9597 44.6245 42.4367 44.6245 41.7997V25.9305C44.6245 25.2839 44.1016 24.7705 43.4645 24.7705H16.5373C15.8907 24.7705 15.3773 25.2934 15.3773 25.9305H15.3678ZM31.1704 27.1H42.314V30.057H31.1704V27.1ZM31.1704 32.3866H42.314V35.3531H31.1704V32.3866ZM31.1704 37.6826H42.314V40.6397H31.1704V37.6826ZM17.6973 27.1H28.8409V30.057H17.6973V27.1ZM17.6973 32.3866H28.8409V35.3531H17.6973V32.3866ZM17.6973 37.6826H28.8409V40.6397H17.6973V37.6826Z" fill="url(#paint1_linear_6400_6944)"/>
<path d="M17.0602 45.2511H16.5373C15.8907 45.2511 15.3773 45.7741 15.3773 46.4111C15.3773 47.0482 15.9002 47.5711 16.5373 47.5711H17.0602C17.7068 47.5711 18.2202 47.0482 18.2202 46.4111C18.2202 45.7741 17.6973 45.2511 17.0602 45.2511Z" fill="url(#paint2_linear_6400_6944)"/>
<path d="M32.1307 45.2511H20.8255C20.1789 45.2511 19.6655 45.7741 19.6655 46.4111C19.6655 47.0482 20.1884 47.5711 20.8255 47.5711H32.1307C32.7773 47.5711 33.2907 47.0482 33.2907 46.4111C33.2907 45.7741 32.7678 45.2511 32.1307 45.2511Z" fill="url(#paint3_linear_6400_6944)"/>
<defs>
<linearGradient id="paint0_linear_6400_6944" x1="53.9901" y1="0.999997" x2="1.40063" y2="44.5027" gradientUnits="userSpaceOnUse">
<stop stop-color="#00FF78"/>
<stop offset="1" stop-color="#00DBFF"/>
</linearGradient>
<linearGradient id="paint1_linear_6400_6944" x1="53.9901" y1="0.999997" x2="1.40063" y2="44.5027" gradientUnits="userSpaceOnUse">
<stop stop-color="#00FF78"/>
<stop offset="1" stop-color="#00DBFF"/>
</linearGradient>
<linearGradient id="paint2_linear_6400_6944" x1="53.9901" y1="0.999997" x2="1.40063" y2="44.5027" gradientUnits="userSpaceOnUse">
<stop stop-color="#00FF78"/>
<stop offset="1" stop-color="#00DBFF"/>
</linearGradient>
<linearGradient id="paint3_linear_6400_6944" x1="53.9901" y1="0.999997" x2="1.40063" y2="44.5027" gradientUnits="userSpaceOnUse">
<stop stop-color="#00FF78"/>
<stop offset="1" stop-color="#00DBFF"/>
</linearGradient>
</defs>
</svg>
