<svg width="60" height="60" viewBox="0 0 60 60" fill="none" xmlns="http://www.w3.org/2000/svg">
<g clip-path="url(#clip0_6403_7159)">
<path d="M11.4168 15.0169C13.3403 9.54213 18.5557 5.61719 24.6879 5.61719C25.7235 5.61719 26.5629 4.77772 26.5629 3.74219C26.5629 2.70665 25.7235 1.86719 24.6879 1.86719C16.9274 1.86719 10.3261 6.83002 7.88442 13.7551L7.1462 12.2787C6.68311 11.3524 5.55684 10.9771 4.63063 11.4401C3.70443 11.9032 3.329 13.0295 3.79211 13.9557L7.07336 20.5182C7.32952 21.0305 7.80583 21.3977 8.36651 21.5149C8.92718 21.6322 9.51071 21.4868 9.95075 21.1201L15.5758 16.4326C16.3713 15.7697 16.4788 14.5874 15.8158 13.7918C15.1529 12.9963 13.9706 12.8888 13.175 13.5518L11.4168 15.0169Z" fill="url(#paint0_linear_6403_7159)"/>
<path d="M51.0836 44.9674C49.1601 50.4422 43.9447 54.3672 37.8125 54.3672C36.7769 54.3672 35.9375 55.2066 35.9375 56.2422C35.9375 57.2777 36.7769 58.1172 37.8125 58.1172C45.573 58.1172 52.1743 53.1543 54.616 46.2293L55.3542 47.7057C55.8173 48.6319 56.9436 49.0073 57.8698 48.5443C58.796 48.0811 59.1714 46.9548 58.7083 46.0287L55.4271 39.4662C55.1709 38.9538 54.6945 38.5867 54.1339 38.4694C53.5732 38.3522 52.9897 38.4976 52.5496 38.8643L46.9246 43.5518C46.1292 44.2147 46.0216 45.397 46.6846 46.1926C47.3475 46.988 48.5298 47.0956 49.3254 46.4326L51.0836 44.9674Z" fill="url(#paint1_linear_6403_7159)"/>
<path d="M17.6912 35.3544C17.0283 34.5589 15.846 34.4514 15.0505 35.1144L11.154 38.3614C9.3549 39.8606 9.35491 42.6238 11.154 44.1231L15.0505 47.3701C15.846 48.0331 17.0283 47.9256 17.6912 47.1301C18.3542 46.3345 18.2467 45.1523 17.4512 44.4894L13.5547 41.2422L17.4512 37.9951C18.2467 37.3322 18.3542 36.1499 17.6912 35.3544Z" fill="url(#paint2_linear_6403_7159)"/>
<path d="M24.9504 35.1144C24.1549 34.4514 22.9726 34.5589 22.3097 35.3544C21.6467 36.1499 21.7542 37.3322 22.5497 37.9951L26.4462 41.2422L22.5497 44.4894C21.7542 45.1523 21.6467 46.3345 22.3097 47.1301C22.9726 47.9256 24.1549 48.0331 24.9504 47.3701L28.8469 44.1231C30.646 42.6238 30.646 39.8606 28.8469 38.3614L24.9504 35.1144Z" fill="url(#paint3_linear_6403_7159)"/>
<path fill-rule="evenodd" clip-rule="evenodd" d="M33.125 1.86719C28.9828 1.86719 25.625 5.22505 25.625 9.36719V24.3672H10.625C6.48286 24.3672 3.125 27.725 3.125 31.8672V50.6172C3.125 54.7593 6.48286 58.1172 10.625 58.1172H29.375C33.5172 58.1172 36.875 54.7593 36.875 50.6172V35.6172H51.875C56.0172 35.6172 59.375 32.2593 59.375 28.1172V9.36719C59.375 5.22505 56.0172 1.86719 51.875 1.86719H33.125ZM36.875 31.8672H51.875C53.946 31.8672 55.625 30.1882 55.625 28.1172V9.36719C55.625 7.29612 53.946 5.61719 51.875 5.61719H33.125C31.054 5.61719 29.375 7.29612 29.375 9.36719V24.3672C33.5172 24.3672 36.875 27.725 36.875 31.8672ZM6.875 31.8672C6.875 29.7962 8.55393 28.1172 10.625 28.1172H29.375C31.446 28.1172 33.125 29.7962 33.125 31.8672V50.6172C33.125 52.6882 31.446 54.3672 29.375 54.3672H10.625C8.55393 54.3672 6.875 52.6882 6.875 50.6172V31.8672Z" fill="url(#paint4_linear_6403_7159)"/>
</g>
<defs>
<linearGradient id="paint0_linear_6403_7159" x1="26.5629" y1="1.86719" x2="8.60368" y2="22.82" gradientUnits="userSpaceOnUse">
<stop stop-color="#00FF78"/>
<stop offset="1" stop-color="#00DBFF"/>
</linearGradient>
<linearGradient id="paint1_linear_6403_7159" x1="58.9067" y1="38.4297" x2="40.9474" y2="59.3825" gradientUnits="userSpaceOnUse">
<stop stop-color="#00FF78"/>
<stop offset="1" stop-color="#00DBFF"/>
</linearGradient>
<linearGradient id="paint2_linear_6403_7159" x1="18.1259" y1="34.6797" x2="7.1681" y2="41.6268" gradientUnits="userSpaceOnUse">
<stop stop-color="#00FF78"/>
<stop offset="1" stop-color="#00DBFF"/>
</linearGradient>
<linearGradient id="paint3_linear_6403_7159" x1="30.1962" y1="34.6797" x2="19.2384" y2="41.6269" gradientUnits="userSpaceOnUse">
<stop stop-color="#00FF78"/>
<stop offset="1" stop-color="#00DBFF"/>
</linearGradient>
<linearGradient id="paint4_linear_6403_7159" x1="59.375" y1="1.86718" x2="7.45192" y2="53.7903" gradientUnits="userSpaceOnUse">
<stop stop-color="#00FF78"/>
<stop offset="1" stop-color="#00DBFF"/>
</linearGradient>
<clipPath id="clip0_6403_7159">
<rect width="60" height="60" fill="white"/>
</clipPath>
</defs>
</svg>
