<svg width="60" height="60" viewBox="0 0 60 60" fill="none" xmlns="http://www.w3.org/2000/svg">
<path fill-rule="evenodd" clip-rule="evenodd" d="M25.2756 19.8848C24.0239 19.8848 22.8234 20.3811 21.9386 21.2687C21.0511 22.1535 20.5547 23.354 20.5547 24.6057V28.6522C20.5547 29.9039 21.0511 31.1044 21.9386 31.9892C22.8234 32.8768 24.0239 33.3731 25.2756 33.3731H26.6245C27.8762 33.3731 29.0766 32.8768 29.9615 31.9892C30.849 31.1044 31.3454 29.9039 31.3454 28.6522V24.6057C31.3454 23.354 30.849 22.1535 29.9615 21.2687C29.0766 20.3811 27.8762 19.8848 26.6245 19.8848H25.2756ZM25.2756 23.9313H26.6245C26.8025 23.9313 26.9752 24.0014 27.1019 24.1282C27.2287 24.255 27.2989 24.4276 27.2989 24.6057V28.6522C27.2989 28.8303 27.2287 29.0029 27.1019 29.1297C26.9752 29.2565 26.8025 29.3266 26.6245 29.3266H25.2756C25.0976 29.3266 24.9249 29.2565 24.7981 29.1297C24.6713 29.0029 24.6012 28.8303 24.6012 28.6522V24.6057C24.6012 24.4276 24.6713 24.255 24.7981 24.1282C24.9249 24.0014 25.0976 23.9313 25.2756 23.9313Z" fill="url(#paint0_linear_6402_7107)"/>
<path fill-rule="evenodd" clip-rule="evenodd" d="M13.8147 37.417C12.563 37.417 11.3625 37.9134 10.4777 38.8009C9.59012 39.6857 9.09375 40.8862 9.09375 42.1379V46.1844C9.09375 47.4362 9.59012 48.6366 10.4777 49.5215C11.3625 50.409 12.563 50.9054 13.8147 50.9054H15.1635C16.4152 50.9054 17.6157 50.409 18.5005 49.5215C19.3881 48.6366 19.8844 47.4362 19.8844 46.1844V42.1379C19.8844 40.8862 19.3881 39.6857 18.5005 38.8009C17.6157 37.9134 16.4152 37.417 15.1635 37.417H13.8147ZM13.8147 41.4635H15.1635C15.3416 41.4635 15.5142 41.5336 15.641 41.6604C15.7678 41.7872 15.8379 41.9599 15.8379 42.1379V46.1844C15.8379 46.3625 15.7678 46.5351 15.641 46.6619C15.5142 46.7887 15.3416 46.8589 15.1635 46.8589H13.8147C13.6366 46.8589 13.464 46.7887 13.3372 46.6619C13.2104 46.5351 13.1403 46.3625 13.1403 46.1844V42.1379C13.1403 41.9599 13.2104 41.7872 13.3372 41.6604C13.464 41.5336 13.6366 41.4635 13.8147 41.4635Z" fill="url(#paint1_linear_6402_7107)"/>
<path fill-rule="evenodd" clip-rule="evenodd" d="M13.1404 23.9313H13.8149V31.3499C13.8149 32.4667 14.7213 33.3731 15.8381 33.3731C16.955 33.3731 17.8614 32.4667 17.8614 31.3499V21.908C17.8614 20.7912 16.955 19.8848 15.8381 19.8848H13.1404C12.0236 19.8848 11.1172 20.7912 11.1172 21.908C11.1172 23.0249 12.0236 23.9313 13.1404 23.9313Z" fill="url(#paint2_linear_6402_7107)"/>
<path fill-rule="evenodd" clip-rule="evenodd" d="M24.6014 41.4635H25.2758V48.8821C25.2758 49.9989 26.1822 50.9054 27.2991 50.9054C28.4159 50.9054 29.3223 49.9989 29.3223 48.8821V39.4402C29.3223 38.3234 28.4159 37.417 27.2991 37.417H24.6014C23.4845 37.417 22.5781 38.3234 22.5781 39.4402C22.5781 40.5571 23.4845 41.4635 24.6014 41.4635Z" fill="url(#paint3_linear_6402_7107)"/>
<path fill-rule="evenodd" clip-rule="evenodd" d="M49.557 25.9535V17.6285C49.557 16.3767 49.0606 15.1763 48.1731 14.2914L36.2655 2.38391C35.3807 1.49637 34.1802 1 32.9285 1C29.0681 1 16.1813 1 9.76626 1C7.79966 1 5.91128 1.78233 4.51928 3.17163C3.12998 4.56363 2.34766 6.452 2.34766 8.4186V52.9302C2.34766 56.2834 5.06421 59 8.41742 59H29.9988C31.1157 59 32.0221 58.0936 32.0221 56.9767C32.0221 55.8599 31.1157 54.9535 29.9988 54.9535H8.41742C7.30059 54.9535 6.39417 54.0471 6.39417 52.9302V8.4186C6.39417 7.52298 6.75026 6.66781 7.38152 6.03386C8.01547 5.4026 8.87063 5.04651 9.76626 5.04651H32.9285C33.1065 5.04651 33.2792 5.11665 33.406 5.24344L45.3135 17.151C45.4403 17.2778 45.5104 17.4504 45.5104 17.6285V25.9535C45.5104 27.0703 46.4169 27.9767 47.5337 27.9767C48.6505 27.9767 49.557 27.0703 49.557 25.9535Z" fill="url(#paint4_linear_6402_7107)"/>
<path fill-rule="evenodd" clip-rule="evenodd" d="M32.0215 4.37189V13.8137C32.0215 16.4224 34.1338 18.5347 36.7424 18.5347H46.1843C47.3011 18.5347 48.2075 17.6283 48.2075 16.5114C48.2075 15.3946 47.3011 14.4882 46.1843 14.4882H36.7424C36.3701 14.4882 36.068 14.186 36.068 13.8137V4.37189C36.068 3.25505 35.1616 2.34863 34.0447 2.34863C32.9279 2.34863 32.0215 3.25505 32.0215 4.37189Z" fill="url(#paint5_linear_6402_7107)"/>
<path fill-rule="evenodd" clip-rule="evenodd" d="M57.6509 54.278V44.8362C57.6509 42.2275 55.536 40.1152 52.93 40.1152C49.3394 40.1152 43.0322 40.1152 39.4416 40.1152C36.8357 40.1152 34.7207 42.2275 34.7207 44.8362V54.278C34.7207 56.8867 36.8357 58.999 39.4416 58.999H52.93C55.536 58.999 57.6509 56.8867 57.6509 54.278ZM53.6044 44.8362V54.278C53.6044 54.6503 53.3023 54.9524 52.93 54.9524H39.4416C39.0694 54.9524 38.7672 54.6503 38.7672 54.278V44.8362C38.7672 44.4639 39.0694 44.1617 39.4416 44.1617H52.93C53.3023 44.1617 53.6044 44.4639 53.6044 44.8362Z" fill="url(#paint6_linear_6402_7107)"/>
<path fill-rule="evenodd" clip-rule="evenodd" d="M54.9529 42.1399V39.4369C54.9529 34.5972 51.0304 30.6748 46.1908 30.6748C46.1881 30.6748 46.1827 30.6748 46.18 30.6748C41.3404 30.6748 37.418 34.5972 37.418 39.4369V42.1399C37.418 43.2568 38.3244 44.1632 39.4412 44.1632H52.9296C54.0464 44.1632 54.9529 43.2568 54.9529 42.1399ZM50.9063 39.4369V40.1167H41.4645V39.4369C41.4645 36.8336 43.5768 34.7213 46.18 34.7213H46.1908C48.7941 34.7213 50.9063 36.8336 50.9063 39.4369Z" fill="url(#paint7_linear_6402_7107)"/>
<defs>
<linearGradient id="paint0_linear_6402_7107" x1="31.3454" y1="19.8848" x2="19.1983" y2="29.6025" gradientUnits="userSpaceOnUse">
<stop stop-color="#00FF78"/>
<stop offset="1" stop-color="#00DBFF"/>
</linearGradient>
<linearGradient id="paint1_linear_6402_7107" x1="19.8844" y1="37.417" x2="7.73732" y2="47.1347" gradientUnits="userSpaceOnUse">
<stop stop-color="#00FF78"/>
<stop offset="1" stop-color="#00DBFF"/>
</linearGradient>
<linearGradient id="paint2_linear_6402_7107" x1="17.8614" y1="19.8848" x2="7.90073" y2="24.8651" gradientUnits="userSpaceOnUse">
<stop stop-color="#00FF78"/>
<stop offset="1" stop-color="#00DBFF"/>
</linearGradient>
<linearGradient id="paint3_linear_6402_7107" x1="29.3223" y1="37.417" x2="19.3617" y2="42.3973" gradientUnits="userSpaceOnUse">
<stop stop-color="#00FF78"/>
<stop offset="1" stop-color="#00DBFF"/>
</linearGradient>
<linearGradient id="paint4_linear_6402_7107" x1="49.557" y1="0.999997" x2="-2.86684" y2="43.6705" gradientUnits="userSpaceOnUse">
<stop stop-color="#00FF78"/>
<stop offset="1" stop-color="#00DBFF"/>
</linearGradient>
<linearGradient id="paint5_linear_6402_7107" x1="48.2075" y1="2.34863" x2="33.2666" y2="17.2896" gradientUnits="userSpaceOnUse">
<stop stop-color="#00FF78"/>
<stop offset="1" stop-color="#00DBFF"/>
</linearGradient>
<linearGradient id="paint6_linear_6402_7107" x1="57.6509" y1="40.1152" x2="40.5433" y2="60.8888" gradientUnits="userSpaceOnUse">
<stop stop-color="#00FF78"/>
<stop offset="1" stop-color="#00DBFF"/>
</linearGradient>
<linearGradient id="paint7_linear_6402_7107" x1="54.9529" y1="30.6748" x2="42.9186" y2="46.3193" gradientUnits="userSpaceOnUse">
<stop stop-color="#00FF78"/>
<stop offset="1" stop-color="#00DBFF"/>
</linearGradient>
</defs>
</svg>
