<svg width="60" height="60" viewBox="0 0 60 60" fill="none" xmlns="http://www.w3.org/2000/svg">
<path d="M56.7257 37.6397C53.6307 39.2706 37.5968 45.9392 34.1836 47.7387C30.7703 49.539 28.8737 49.5214 26.1775 48.2176C23.4805 46.9145 6.41863 39.9423 3.34467 38.4566C1.77724 37.6991 0.9928 37.0619 1.00005 36.4606V42.3901C1.00005 42.9826 1.80769 43.6088 3.34394 44.3516C6.4179 45.838 23.4805 52.8088 26.1775 54.1133C28.8745 55.4171 30.7703 55.4347 34.1843 53.6345C37.5975 51.8342 53.6322 45.1663 56.7271 43.5347C58.3025 42.7046 58.9985 42.0615 58.9985 41.4749L59 35.629C59.0043 36.1988 58.2576 36.8324 56.7257 37.6397Z" fill="url(#paint0_linear_6403_7151)"/>
<path d="M56.7257 28.0453C53.6307 29.6768 37.5968 36.3447 34.1836 38.145C30.7703 39.9445 28.8737 39.9269 26.1775 38.6231C23.4805 37.32 6.41863 30.3478 3.34467 28.8622C1.77651 28.1047 0.9928 27.4674 1.00005 26.8661V32.7963C1.00005 33.3888 1.80769 34.015 3.34394 34.7571C6.4179 36.2435 23.4805 43.215 26.1775 44.5188C28.8745 45.8226 30.7703 45.8402 34.1843 44.0407C37.5975 42.2397 53.6322 35.5718 56.7271 33.9403C58.3025 33.1094 58.9985 32.4671 58.9985 31.8811L59 26.0346C59.0043 26.6043 58.2583 27.2372 56.7257 28.0453Z" fill="url(#paint1_linear_6403_7151)"/>
<path d="M3.34394 24.8078C6.4179 26.2935 23.4805 33.2657 26.1775 34.5688C28.8745 35.8726 30.7703 35.8902 34.1843 34.0907C37.5976 32.2897 53.6322 25.6218 56.7271 23.9902C58.3025 23.1594 58.9985 22.5163 58.9985 21.9311L59 16.0852C58.9956 15.5044 58.2126 14.9904 56.6894 14.4258C53.6735 13.3082 37.736 6.89184 34.6838 5.7611C31.6323 4.63035 30.3883 4.67728 26.8017 5.97815C23.2145 7.27903 6.24535 14.0122 3.22577 15.2075C1.74679 15.7934 1.00875 16.3382 1.00078 16.916L1.00005 22.847C1.00005 23.4387 1.80769 24.065 3.34394 24.8078ZM30.6862 25.5066L21.3795 21.6026L34.715 19.5325L30.6862 25.5066ZM42.9806 13.0692L50.8728 16.2238L42.9871 19.3755L42.1309 19.7143L34.2488 16.5626L42.9806 13.0692ZM26.4305 8.03872L30.4528 9.62998L34.2452 8.37458L33.2201 10.8619L37.0864 12.3263L32.1 12.8499L30.9835 15.5668L29.1804 12.5353L23.4225 12.0117L27.7188 10.4447L26.4305 8.03872ZM17.7843 13.8362C21.721 13.8362 24.9117 15.0872 24.9117 16.6308C24.9117 18.1744 21.7203 19.4254 17.7843 19.4254C13.8483 19.4254 10.6569 18.1744 10.6569 16.6308C10.6569 15.0872 13.8483 13.8362 17.7843 13.8362Z" fill="url(#paint2_linear_6403_7151)"/>
<defs>
<linearGradient id="paint0_linear_6403_7151" x1="59" y1="4.95508" x2="13.2564" y2="57.9231" gradientUnits="userSpaceOnUse">
<stop stop-color="#00FF78"/>
<stop offset="1" stop-color="#00DBFF"/>
</linearGradient>
<linearGradient id="paint1_linear_6403_7151" x1="59" y1="4.95508" x2="13.2564" y2="57.9231" gradientUnits="userSpaceOnUse">
<stop stop-color="#00FF78"/>
<stop offset="1" stop-color="#00DBFF"/>
</linearGradient>
<linearGradient id="paint2_linear_6403_7151" x1="59" y1="4.95508" x2="13.2564" y2="57.9231" gradientUnits="userSpaceOnUse">
<stop stop-color="#00FF78"/>
<stop offset="1" stop-color="#00DBFF"/>
</linearGradient>
</defs>
</svg>
