<svg width="60" height="60" viewBox="0 0 60 60" fill="none" xmlns="http://www.w3.org/2000/svg">
<path fill-rule="evenodd" clip-rule="evenodd" d="M20.0958 39.5763C10.6865 39.5763 3.05078 31.8497 3.05078 22.3019C3.05078 12.7541 10.6865 5 20.0958 5H39.9069C49.3188 5 56.9491 12.7541 56.9491 22.3019C56.9491 31.8497 49.3188 39.5763 39.9069 39.5763H20.0958ZM39.4662 33.4778C45.5623 33.4778 50.4995 28.4832 50.4995 22.3019C50.4995 16.1207 45.5623 11.0985 39.4662 11.0985H20.5336C14.4404 11.0985 9.50035 16.1207 9.50035 22.3019C9.50035 28.4832 14.4404 33.4778 20.5336 33.4778H39.4662Z" fill="url(#paint0_linear_6402_7104)"/>
<g clip-path="url(#clip0_6402_7104)">
<path fill-rule="evenodd" clip-rule="evenodd" d="M41.978 46.8057H43.2107V53.1215H48.5552L47.7703 54.3553H41.9777V46.8057H41.978ZM32.2978 54.3553L27.7382 47.1608C27.4579 46.6938 26.7106 46.6938 26.3929 47.1795L21.8707 54.3553H23.3655L24.7298 52.1873H27.645L28.4116 50.9539H25.4963L27.0849 48.4687L30.8038 54.355H32.2981L32.2978 54.3553ZM35.0725 46.808C32.9893 46.808 31.6179 48.4969 31.6179 50.5806C31.6179 52.6643 32.9896 54.3534 35.0725 54.3534L40.1383 54.3474L40.9311 53.1244H35.1099C33.7058 53.1244 32.884 51.9854 32.884 50.5806C32.884 49.1758 33.7056 48.0368 35.1099 48.0368H40.2954L41.0609 46.8044L35.0728 46.808H35.0725ZM3.45484 48.0368H8.79912C10.204 48.0368 11.0255 49.1758 11.0255 50.5806C11.0255 51.9854 10.2045 53.1244 8.79912 53.1244H3.45484C2.05 53.1244 1.229 51.9854 1.229 50.5806C1.229 49.1758 2.05 48.0368 3.45484 48.0368ZM3.45484 46.808C1.37141 46.808 0 48.4969 0 50.5803C0 52.6638 1.37141 54.3532 3.45484 54.3532H8.79912C10.8826 54.3532 12.254 52.6635 12.254 50.5803C12.254 48.4972 10.8828 46.808 8.79912 46.808H3.45484ZM49.8729 51.1787C50.0737 52.295 50.8418 53.1242 52.0408 53.1242H57.8621L57.0687 54.3471L52.0037 54.3532C49.9198 54.3532 48.5491 52.6635 48.5491 50.5803C48.5491 48.4972 49.9198 46.808 52.0035 46.808L57.9913 46.8046L57.2267 48.0371H52.0411C50.859 48.0371 50.0872 48.8523 49.8732 49.9454H57.1893L56.4043 51.1789H49.8726V51.1787H49.8729ZM19.2266 51.2879C20.4637 51.2663 21.449 50.246 21.4274 49.0089C21.4063 47.8023 20.4332 46.8291 19.2266 46.808L12.9383 46.8054V54.355H14.3213V48.0371H19.2266C19.7849 48.0376 20.2371 48.4906 20.2366 49.0489C20.236 49.6064 19.7841 50.0581 19.2266 50.0589H15.2929L19.7304 54.3466H21.5156L18.339 51.2908L19.2266 51.2882V51.2879ZM59.283 46.8125C59.6036 46.8125 59.8573 47.0657 59.8573 47.4019C59.8573 47.738 59.6041 47.9947 59.283 47.9947C58.9618 47.9947 58.7057 47.7433 58.7057 47.4019C58.7057 47.0605 58.9584 46.8125 59.283 46.8125V46.6943C58.8929 46.6943 58.5631 46.9944 58.5631 47.4014C58.5631 47.8083 58.8931 48.1126 59.283 48.1126C59.6728 48.1126 60 47.8125 60 47.4014C60 46.9902 59.6699 46.6943 59.283 46.6943V46.8125Z" fill="url(#paint1_linear_6402_7104)"/>
<path fill-rule="evenodd" clip-rule="evenodd" d="M59.1323 47.0996H59.3016C59.3876 47.0996 59.4795 47.1183 59.4795 47.2199C59.4795 47.3455 59.3855 47.3534 59.2803 47.3534H59.1321V47.4584H59.2747L59.4908 47.8132H59.6296L59.3966 47.4531C59.5169 47.4381 59.6085 47.3747 59.6085 47.2281C59.6085 47.0667 59.5127 46.9951 59.3197 46.9951H59.0078V47.8132H59.1318V47.0996H59.1326H59.1323Z" fill="url(#paint2_linear_6402_7104)"/>
</g>
<defs>
<linearGradient id="paint0_linear_6402_7104" x1="56.9491" y1="5" x2="27.9384" y2="50.2225" gradientUnits="userSpaceOnUse">
<stop stop-color="#00FF78"/>
<stop offset="1" stop-color="#00DBFF"/>
</linearGradient>
<linearGradient id="paint1_linear_6402_7104" x1="60" y1="46.6943" x2="58.2231" y2="60.6107" gradientUnits="userSpaceOnUse">
<stop stop-color="#00FF78"/>
<stop offset="1" stop-color="#00DBFF"/>
</linearGradient>
<linearGradient id="paint2_linear_6402_7104" x1="59.6296" y1="46.9951" x2="58.902" y2="47.5481" gradientUnits="userSpaceOnUse">
<stop stop-color="#00FF78"/>
<stop offset="1" stop-color="#00DBFF"/>
</linearGradient>
<clipPath id="clip0_6402_7104">
<rect width="60" height="7.66093" fill="white" transform="translate(0 46.6943)"/>
</clipPath>
</defs>
</svg>
