<svg width="60" height="60" viewBox="0 0 60 60" fill="none" xmlns="http://www.w3.org/2000/svg">
<g clip-path="url(#clip0_6403_7158)">
<g clip-path="url(#clip1_6403_7158)">
<path d="M58.247 34.8246C58.7451 34.5947 59.0638 34.0963 59.0638 33.5479V26.4359C59.0638 25.8872 58.7446 25.3886 58.2463 25.1589L53.1989 22.8317L51.4703 18.653L53.3898 13.4384C53.5793 12.9237 53.4523 12.346 53.0645 11.9582L48.0352 6.92898C47.6474 6.54121 47.0696 6.4143 46.555 6.60367L41.3405 8.5232L37.1618 6.79457L34.8346 1.74719C34.6049 1.24891 34.1063 0.929688 33.5576 0.929688H26.4456C25.8972 0.929688 25.3988 1.24855 25.1689 1.74648L22.8385 6.79434L18.6595 8.52309L13.4448 6.60355C12.9302 6.41406 12.3524 6.54109 11.9646 6.92887L6.93543 11.9581C6.54742 12.3461 6.42062 12.9242 6.61035 13.439L8.53258 18.6528L6.80125 22.8316L1.75668 25.1589C1.25852 25.3887 0.939531 25.8872 0.939531 26.4358V33.5478C0.939531 34.0961 1.25828 34.5945 1.75609 34.8244L6.80137 37.155L8.5327 41.3313L7.44906 44.2749L2.64262 49.0804C0.366133 51.3613 0.366602 55.0694 2.64355 57.3464C3.74465 58.4475 5.21312 59.0539 6.77875 59.0539C8.34437 59.0539 9.81285 58.4475 10.9139 57.3464L15.7149 52.5455L18.6592 51.4607L22.8385 53.1923L25.169 58.2373C25.3989 58.7351 25.8973 59.0539 26.4456 59.0539H33.5576C34.1062 59.0539 34.6047 58.7349 34.8345 58.2367L37.1618 53.192L39.9753 52.0259C41.1521 56.0805 44.8973 59.0539 49.3263 59.0539C54.6954 59.0539 59.0636 54.6857 59.0636 49.3165C59.0636 44.8877 56.0904 41.1426 52.036 39.9657L53.1989 37.155L58.2468 34.8245L58.247 34.8246ZM8.92539 55.3578C8.35563 55.9277 7.59332 56.2415 6.77898 56.2415C5.96465 56.2415 5.20234 55.9277 4.63258 55.3578C3.45109 54.1763 3.45156 52.2516 4.63258 51.0684L21.6569 34.0473C22.0318 33.6726 22.1641 33.1189 21.9989 32.6151C21.7212 31.7676 21.5805 30.8855 21.5805 29.9935C21.5805 25.3509 25.3575 21.5738 30.0002 21.5738C30.05 21.5738 30.0998 21.5743 30.1496 21.5751L26.9726 24.7541C26.4237 25.3034 26.4238 26.1934 26.9729 26.7426L33.2511 33.0209C33.8001 33.5699 34.6902 33.5702 35.2395 33.0211L38.4186 29.8442C38.4194 29.8939 38.4198 29.9437 38.4198 29.9935C38.4198 34.6361 34.6428 38.4132 30.0002 38.4132C29.1082 38.4132 28.2262 38.2724 27.3784 37.9947C26.8748 37.8297 26.3212 37.962 25.9463 38.3366L8.92527 55.3577L8.92539 55.3578ZM16.611 29.9935C16.611 22.6107 22.6173 16.6043 30.0002 16.6043C37.383 16.6043 43.3893 22.6107 43.3893 29.9935C43.3893 37.3763 37.383 43.3826 30.0002 43.3826C28.5048 43.3826 27.0195 43.1298 25.6157 42.6449L27.3515 40.9091C28.2176 41.1194 29.1052 41.2257 30.0002 41.2257C36.1936 41.2257 41.2323 36.1868 41.2323 29.9935C41.2323 28.793 41.0455 27.616 40.677 26.495C40.5245 26.0311 40.1423 25.6795 39.6672 25.5662C39.192 25.4529 38.6924 25.5943 38.347 25.9395L34.2456 30.0381L29.9555 25.7479L34.0541 21.6466C34.3995 21.301 34.5407 20.8009 34.4272 20.3257C34.3136 19.8505 33.9614 19.4683 33.4971 19.3162C32.3732 18.948 31.1966 18.7613 29.9999 18.7613C23.8064 18.7613 18.7677 23.8 18.7677 29.9935C18.7677 30.8886 18.874 31.7759 19.0843 32.642L17.3485 34.3775C16.8636 32.9748 16.6108 31.4897 16.6108 29.9935H16.611ZM35.5772 50.8045C35.2505 50.9398 34.9868 51.1933 34.8387 51.5144L32.658 56.2414H27.3453L25.1614 51.5138C25.0131 51.1929 24.7495 50.9397 24.423 50.8043L19.4971 48.7634L23.4486 44.812C25.502 45.7185 27.7422 46.195 30.0002 46.195C38.9338 46.195 46.2018 38.9269 46.2018 29.9934C46.2018 21.0598 38.9337 13.7917 30.0002 13.7917C21.0666 13.7917 13.7985 21.0598 13.7985 29.9934C13.7985 32.2527 14.2751 34.4924 15.1818 36.5438L11.2305 40.4943L9.18906 35.5702C9.05383 35.2438 8.80059 34.9803 8.47973 34.8321L3.75215 32.6481V27.3355L8.47914 25.1548C8.80035 25.0066 9.05383 24.7429 9.18918 24.4162L11.3417 19.2209C11.4771 18.8939 11.4844 18.5281 11.362 18.1962L9.56066 13.3104L13.3175 9.55363L18.2035 11.3522C18.535 11.4743 18.9003 11.4671 19.2269 11.3321L24.4221 9.18285C24.7491 9.04762 25.013 8.79402 25.1614 8.47281L27.3454 3.74219H32.6576L34.8385 8.47223C34.9867 8.79379 35.2509 9.0475 35.5781 9.18285L40.7733 11.3321C41.0998 11.4671 41.4651 11.4742 41.7966 11.3522L46.6826 9.55363L50.4398 13.3108L48.6412 18.1968C48.5191 18.5283 48.5263 18.8937 48.6613 19.2201L50.8105 24.4155C50.9459 24.7427 51.1997 25.0067 51.5212 25.1549L56.2512 27.3358V32.648L51.5206 34.832C51.1994 34.9804 50.9459 35.2443 50.8105 35.5711L49.1504 39.5835C43.9213 39.677 39.6873 43.9108 39.5935 49.1397L35.577 50.8045H35.5772ZM56.2514 49.3165C56.2514 53.1348 53.1449 56.2414 49.3266 56.2414C45.5083 56.2414 42.4018 53.1348 42.4018 49.3165C42.4018 45.4982 45.5083 42.3917 49.3266 42.3917C53.1449 42.3917 56.2514 45.4982 56.2514 49.3165ZM48.0348 49.866L52.2861 45.7871C52.8466 45.2495 53.7366 45.2678 54.2744 45.8282C54.812 46.3886 54.7936 47.2789 54.2332 47.8165L48.988 52.849C48.7157 53.1102 48.365 53.2405 48.0146 53.2405C47.6543 53.2405 47.2943 53.103 47.0201 52.8286L44.3992 50.2077C43.8501 49.6585 43.8501 48.7682 44.3992 48.2189C44.9485 47.6697 45.8388 47.6697 46.388 48.2189L48.035 49.8659L48.0348 49.866Z" fill="url(#paint0_linear_6403_7158)"/>
</g>
</g>
<defs>
<linearGradient id="paint0_linear_6403_7158" x1="59.0638" y1="0.929684" x2="5.41074" y2="54.5866" gradientUnits="userSpaceOnUse">
<stop stop-color="#00FF78"/>
<stop offset="1" stop-color="#00DBFF"/>
</linearGradient>
<clipPath id="clip0_6403_7158">
<rect width="60" height="60" fill="white"/>
</clipPath>
<clipPath id="clip1_6403_7158">
<rect width="60" height="60" fill="white" transform="translate(0 -0.0078125)"/>
</clipPath>
</defs>
</svg>
