<svg width="60" height="60" viewBox="0 0 60 60" fill="none" xmlns="http://www.w3.org/2000/svg">
<g clip-path="url(#clip0_6400_6986)">
<g clip-path="url(#clip1_6400_6986)">
<path d="M45.2332 27.4625C44.874 20.7395 38.7773 14.8823 31.6492 14.4034C27.597 14.1271 23.5724 15.4901 20.9017 18.0503C18.719 20.1409 17.5494 22.9222 17.6139 25.8692C17.6507 27.3059 18.0283 28.5308 18.6361 29.5622C20.2662 32.9421 24.2631 35.3274 27.2839 35.926C31.8886 36.8469 35.5724 34.0841 35.5724 34.0841L31.4466 29.2767L31.4834 29.0649C31.4005 29.0465 31.3176 29.0373 31.2255 29.0189L25.6261 22.4801C27.0076 21.3197 29.1073 20.6842 31.2163 20.8316C35.0751 21.0895 38.6116 24.3496 38.7957 27.8032C38.9155 30.0964 37.6077 31.9751 36.8157 32.8869L41.6875 37.114C43.115 35.4655 45.4819 32.0212 45.2332 27.4625Z" fill="url(#paint0_linear_6400_6986)"/>
<path d="M58.5865 27.9698C58.0523 14.3305 46.347 -0.496829 30.3961 0.00969477C16.0938 0.48859 3.88193 12.7925 4.25031 26.3489C4.60027 38.8278 14.8413 49.9621 26.6202 50.662C27.0347 50.6897 27.4491 50.6989 27.8543 50.6989C31.9894 50.6989 35.5811 49.4648 38.4729 47.9084L51.2833 60.0005L57.6103 53.3052L51.5043 47.54C54.3593 44.1049 58.9548 37.1056 58.5957 27.979L58.5865 27.9698ZM27.007 44.2246C18.5711 43.7273 10.9548 35.2914 10.697 26.1739C10.4483 17.167 18.5619 6.86157 30.608 6.45636C42.4146 6.06956 51.7254 17.6275 52.149 28.2277C52.4161 34.9506 49.0638 40.2921 46.8075 43.101L41.1528 37.7595L40.5911 38.3489C38.6939 40.2829 33.6839 44.6206 27.0162 44.2154L27.007 44.2246Z" fill="url(#paint1_linear_6400_6986)"/>
</g>
</g>
<defs>
<linearGradient id="paint0_linear_6400_6986" x1="45.2513" y1="14.3682" x2="24.6476" y2="39.4051" gradientUnits="userSpaceOnUse">
<stop stop-color="#00FF78"/>
<stop offset="1" stop-color="#00DBFF"/>
</linearGradient>
<linearGradient id="paint1_linear_6400_6986" x1="58.6155" y1="-0.00293299" x2="3.49552" y2="49.9452" gradientUnits="userSpaceOnUse">
<stop stop-color="#00FF78"/>
<stop offset="1" stop-color="#00DBFF"/>
</linearGradient>
<clipPath id="clip0_6400_6986">
<rect width="60" height="60" fill="white"/>
</clipPath>
<clipPath id="clip1_6400_6986">
<rect width="54.3638" height="60" fill="white" transform="translate(4.25)"/>
</clipPath>
</defs>
</svg>
