<svg width="60" height="60" viewBox="0 0 60 60" fill="none" xmlns="http://www.w3.org/2000/svg">
<path d="M49.6016 35.0847C49.6393 35.9486 49.3559 36.7962 48.8056 37.4659C48.2552 38.1357 47.4763 38.581 46.617 38.7169C43.1805 39.3066 36.0199 39.6787 30.0024 39.6787C23.9849 39.6787 16.8219 39.3163 13.383 38.7169C11.4158 38.3786 10.3984 36.815 10.3984 35.0847V23.7578C10.4089 22.9056 10.7097 22.082 11.2517 21.4215C11.7938 20.761 12.545 20.3025 13.383 20.1207C15.1099 19.8893 16.8508 19.7763 18.5933 19.7823C18.9359 19.7911 19.261 19.9341 19.4978 20.1799C19.7346 20.4257 19.8638 20.7545 19.8573 21.0946V29.0768C23.3928 29.0768 26.4475 28.869 30.0097 28.869C33.5718 28.869 36.5999 29.0768 40.15 29.0768V21.1598C40.1252 20.8201 40.237 20.4845 40.4609 20.2267C40.6847 19.9689 41.0023 19.81 41.3438 19.7848H41.4091C43.1516 19.7807 44.8923 19.8938 46.6194 20.1231C47.4566 20.3053 48.207 20.7636 48.7485 21.4236C49.29 22.0836 49.5907 22.9063 49.6016 23.7578V35.0847ZM30.0024 1C13.9848 1 1 13.9872 1 30C1 46.0177 13.9848 59 30 59C46.0177 59 59 46.0177 59 30C59 13.9872 46.0153 1 30 1H30.0024Z" fill="url(#paint0_linear_6400_6938)"/>
<defs>
<linearGradient id="paint0_linear_6400_6938" x1="59" y1="0.999997" x2="5.46153" y2="54.5385" gradientUnits="userSpaceOnUse">
<stop stop-color="#00FF78"/>
<stop offset="1" stop-color="#00DBFF"/>
</linearGradient>
</defs>
</svg>
