<svg width="60" height="60" viewBox="0 0 60 60" fill="none" xmlns="http://www.w3.org/2000/svg">
<path d="M53.5334 6.4666C46.2446 -0.822258 34.3847 -0.822144 27.0958 6.4666C22.1176 11.4449 20.3889 18.7831 22.5436 25.4393L1.49787 46.4852C1.1791 46.8038 1 47.2361 1 47.6868V57.3006C1 58.2392 1.76091 59 2.69945 59H12.3132C12.764 59 13.1961 58.8209 13.515 58.5022L15.9188 56.0983C16.286 55.7311 16.4652 55.2162 16.4051 54.7003L16.1052 52.1194L19.683 51.7822C20.4955 51.7056 21.1389 51.0623 21.2155 50.2498L21.553 46.6715L24.1341 46.9715C24.616 47.0278 25.0983 46.8751 25.4606 46.5526C25.8227 46.2302 26.0299 45.7683 26.0299 45.2834V42.1185H29.1372C29.5845 42.1185 30.0137 41.9421 30.3319 41.6277L34.5542 37.4541C41.2119 39.6123 48.5538 37.8839 53.5335 32.9041C60.8222 25.6153 60.8222 13.7554 53.5334 6.4666ZM51.1301 30.5008C46.8405 34.7902 40.4062 36.1291 34.7379 33.9122C34.1124 33.6676 33.4016 33.8142 32.9242 34.2862L28.439 38.7196H24.3303C23.3918 38.7196 22.6308 39.4805 22.6308 40.4191V43.3749L20.2202 43.0948C19.7661 43.0421 19.31 43.1744 18.9546 43.4619C18.5994 43.7495 18.3749 44.1681 18.3319 44.6233L17.9634 48.5302L14.0568 48.8984C13.6016 48.9413 13.1831 49.1657 12.8953 49.5211C12.6077 49.8764 12.4753 50.3326 12.5281 50.7867L12.9338 54.2762L11.6091 55.6012H4.39878V48.391L25.7067 27.0831C26.184 26.6058 26.3337 25.8911 26.0877 25.2624C23.8706 19.594 25.2097 13.1598 29.4991 8.87021C35.4629 2.90662 45.1664 2.90662 51.1299 8.87021C57.0935 14.8337 57.0935 24.5372 51.1301 30.5008Z" fill="url(#paint0_linear_6400_6722)"/>
<path d="M48.7264 11.2735C46.7386 9.28551 43.5039 9.28562 41.5162 11.2735C39.5283 13.2613 39.5283 16.4959 41.5162 18.4837C43.5039 20.4716 46.7386 20.4718 48.7264 18.4837C50.7143 16.4959 50.7143 13.2613 48.7264 11.2735ZM46.3231 16.0804C45.6605 16.7429 44.5824 16.743 43.9197 16.0804C43.2571 15.4178 43.2571 14.3397 43.9197 13.677C44.5841 13.0127 45.6588 13.0127 46.3231 13.677C46.9873 14.3413 46.9872 15.4161 46.3231 16.0804Z" fill="url(#paint1_linear_6400_6722)"/>
<defs>
<linearGradient id="paint0_linear_6400_6722" x1="59" y1="0.999997" x2="5.46151" y2="54.5385" gradientUnits="userSpaceOnUse">
<stop stop-color="#00FF78"/>
<stop offset="1" stop-color="#00DBFF"/>
</linearGradient>
<linearGradient id="paint1_linear_6400_6722" x1="59" y1="0.999997" x2="5.46151" y2="54.5385" gradientUnits="userSpaceOnUse">
<stop stop-color="#00FF78"/>
<stop offset="1" stop-color="#00DBFF"/>
</linearGradient>
</defs>
</svg>
