<svg width="60" height="60" viewBox="0 0 60 60" fill="none" xmlns="http://www.w3.org/2000/svg">
<path d="M54.5021 30.3741C58.6916 26.1845 58.6916 19.3017 54.5021 15.1122C52.108 12.7182 48.8163 11.5212 45.5245 12.1197C45.8238 8.82793 44.926 5.53616 42.532 3.14214C38.3425 -1.04738 31.4597 -1.04738 27.2701 3.14214L3.03074 27.6808C2.13298 28.5786 2.13298 30.0748 3.03074 30.9726C3.92849 31.8703 5.42475 31.8703 6.32251 30.9726L30.5619 6.43392C32.9559 4.0399 36.8462 4.0399 39.2402 6.43392C41.6342 8.82793 41.6342 12.7182 39.2402 15.1122L20.6866 33.6658C19.7888 34.5636 19.7888 36.0599 20.6866 36.9576C21.5844 37.8554 23.0806 37.8554 23.9784 36.9576L42.532 18.404C44.926 16.01 48.8163 16.01 51.2103 18.404C53.6043 20.798 53.6043 24.6883 51.2103 27.0823L30.2627 48.0299C28.1679 50.1247 28.1679 53.4165 30.2627 55.5112L34.1529 59.4015C34.4522 59.7007 35.0507 60 35.6492 60C36.2477 60 36.8462 60 37.1455 59.4015C38.0432 58.5037 38.0432 57.0075 37.1455 56.1097L33.2552 52.2195C33.2552 52.2195 33.2552 51.3217 33.2552 51.0224L54.2028 30.0748L54.5021 30.3741Z" fill="url(#paint0_linear_6403_7202)"/>
<path d="M47.9183 24.9875C48.8161 24.0897 48.8161 22.5935 47.9183 21.6957C47.0205 20.798 45.5243 20.798 44.6265 21.6957L26.0729 40.2493C23.6789 42.6434 19.7886 42.6434 17.3946 40.2493C15.0006 37.8553 15.5991 37.5561 15.5991 35.7606C15.5991 33.9651 16.1976 32.4688 17.3946 31.2718L35.9482 12.7182C36.846 11.8204 36.846 10.3242 35.9482 9.4264C35.0505 8.52864 33.5542 8.52864 32.6565 9.4264L14.1028 27.98C12.0081 30.0748 11.1103 32.768 11.1103 35.4613C11.1103 38.1546 12.3073 41.1471 14.1028 42.9426C16.1976 45.0374 18.8909 45.9351 21.5841 45.9351C24.2774 45.9351 26.9707 45.0374 29.0654 42.9426L47.619 24.389L47.9183 24.9875Z" fill="url(#paint1_linear_6403_7202)"/>
<defs>
<linearGradient id="paint0_linear_6403_7202" x1="57.6442" y1="-3.30118e-06" x2="2.44442" y2="50.8636" gradientUnits="userSpaceOnUse">
<stop stop-color="#00FF78"/>
<stop offset="1" stop-color="#00DBFF"/>
</linearGradient>
<linearGradient id="paint1_linear_6403_7202" x1="57.6442" y1="-3.30118e-06" x2="2.44442" y2="50.8636" gradientUnits="userSpaceOnUse">
<stop stop-color="#00FF78"/>
<stop offset="1" stop-color="#00DBFF"/>
</linearGradient>
</defs>
</svg>
