<svg width="60" height="60" viewBox="0 0 60 60" fill="none" xmlns="http://www.w3.org/2000/svg">
<g clip-path="url(#clip0_6402_7110)">
<path d="M48.0614 16.3554C48.0614 16.5104 48.0614 16.6073 48.0226 16.7236C48.0808 17.9445 47.9257 18.991 47.7707 19.9988C47.6544 20.7934 47.5187 21.6267 47.48 22.5764C47.4606 23.4872 47.5575 24.4562 47.6932 25.464C47.9839 27.9446 48.3133 30.7547 46.5885 33.5842C46.6273 33.623 46.6466 33.6617 46.6854 33.7005C46.7629 33.7974 46.8211 33.8749 46.8792 33.9718C53.5459 23.526 55.8328 11.3941 53.7397 8.71962C48.7978 2.38234 41.0846 3.02189 37.4023 3.77771C44.9799 7.13046 47.9063 15.0569 48.0226 16.3554H48.0614Z" fill="url(#paint0_linear_6402_7110)"/>
<path d="M27.2433 37.19C26.7782 36.9961 26.5456 36.8992 25.9836 37.5194C25.6154 37.9264 25.3441 38.2752 25.1115 38.5659C24.0844 39.8644 23.6192 40.3101 20.5766 40.9303C19.9564 41.066 19.5882 41.1822 19.375 41.2791C19.6269 41.4536 20.0339 41.6474 20.499 41.7636C22.7471 42.3257 25.8673 42.3644 27.9991 39.3605C28.2511 39.0117 28.1735 38.5466 28.1154 38.314C27.9604 37.8101 27.6115 37.345 27.2433 37.19Z" fill="url(#paint1_linear_6402_7110)"/>
<path d="M16.7598 26.9759C17.1667 24.0301 17.0117 21.4526 16.9342 20.0572C16.9148 19.6696 16.8954 19.3789 16.8954 19.2045C16.8954 18.5843 16.7985 10.4253 21.5466 5.61906C21.5854 5.5803 21.6435 5.54154 21.7017 5.50278C18.7947 4.55315 11.5272 2.67329 7.1085 5.81286C4.3953 7.73148 3.15497 11.3168 3.40691 16.4525C3.60071 20.8905 7.9806 39.6117 12.5931 41.1621C12.9031 41.259 13.8334 41.569 15.1706 39.9605C17.0892 37.6737 18.8916 35.6969 19.6862 34.8442C19.473 34.6697 19.2404 34.4953 19.0466 34.3015C17.2055 32.3829 16.3722 29.7085 16.7404 26.9952L16.7598 26.9759Z" fill="url(#paint2_linear_6402_7110)"/>
<path d="M46.3338 17.3624C44.357 17.1299 42.1089 17.188 41.2175 18.4671C39.4733 20.9671 42.8841 27.0912 44.3376 29.6881C44.7059 30.3664 44.9966 30.8703 45.1128 31.1416C45.2485 31.4711 45.4035 31.7618 45.5586 32.0331C46.547 29.9013 46.295 27.7501 46.0431 25.6571C45.9074 24.6106 45.7911 23.5447 45.8299 22.5175C45.8687 21.4516 46.0043 20.5795 46.1206 19.7268C46.2369 18.9516 46.3338 18.1764 46.3338 17.3624ZM44.7446 18.8159C44.6865 18.9516 44.5702 19.1066 44.4345 19.2617C44.2795 19.4361 43.9307 19.7268 43.4655 19.7849C43.4074 19.7849 43.3493 19.7849 43.2911 19.7849C42.5934 19.7849 42.012 19.2229 41.9539 18.9128C41.9539 18.8353 41.9539 18.7384 42.0508 18.6221C42.2446 18.3702 42.7291 18.157 43.2911 18.0795C43.7175 18.0214 44.1632 18.0407 44.4733 18.157H44.5121C44.6865 18.2345 44.7834 18.3508 44.8028 18.4865L44.8609 18.8935L44.7446 18.7772V18.8159Z" fill="url(#paint3_linear_6402_7110)"/>
<path d="M25.3479 32.6735L25.4835 32.3247C25.6386 31.8983 25.8324 31.4719 26.0456 31.0262C27.0146 28.875 28.2161 26.2199 26.8208 19.8245C26.5494 18.5842 25.9099 17.8671 24.8634 17.6346C22.5378 17.1113 19.3013 18.8361 18.6036 19.4563C18.6036 19.592 18.6036 19.7664 18.623 19.9602C18.7005 21.4137 18.8749 24.1075 18.4292 27.2083C18.1191 29.4176 18.7974 31.5688 20.2703 33.1192C21.4331 34.3402 22.9835 35.0185 24.5533 35.0185C24.7277 34.282 25.0184 33.5068 25.3285 32.6735H25.3479ZM24.3789 20.4834C23.6424 20.3865 23.0223 19.6889 22.9447 19.2237H22.9254V19.0687C22.9254 18.9718 22.9835 18.8361 23.1579 18.7199C23.4292 18.5067 23.9913 18.4292 24.5921 18.5261C25.3285 18.623 26.1037 18.9912 26.0456 19.5144C25.9874 19.9408 25.3091 20.5222 24.5727 20.5222C24.5145 20.5222 24.437 20.5222 24.3789 20.5222V20.4834Z" fill="url(#paint4_linear_6402_7110)"/>
<path d="M58.0206 35.93C57.8268 35.3292 56.9159 33.3912 53.6213 34.0695C52.3034 34.3408 51.3151 34.4377 50.598 34.4571C56.3733 24.6508 60.0361 11.3173 56.4314 6.70487C49.5321 -2.11306 38.3304 -0.116911 34.7839 1.06527C33.4273 0.832711 31.9932 0.697051 30.5009 0.677671C27.6326 0.619531 25.1326 1.25907 22.9621 2.53816C19.6868 1.43349 10.9658 -0.911493 5.17117 3.1777C1.4502 5.794 -0.274626 10.3483 0.0354549 16.7244C0.132355 18.7011 3.85332 41.899 11.5278 44.4572C12.6131 44.8254 14.5705 45.058 16.6248 43.3525C17.3612 44.244 18.5628 44.8254 19.7256 45.1161C22.3031 45.7557 24.7256 45.6006 26.7993 44.6898C26.7993 45.058 26.8187 45.4068 26.8381 45.7169L26.8768 47.1316C26.9931 50.1743 27.2063 52.5387 27.8264 54.2054L27.9621 54.593C29.1443 58.1977 31.3342 60 34.5126 60C35.1909 60 35.9079 59.9225 36.6638 59.7481C42.4584 58.5077 45.6755 55.6007 46.0049 43.9727H46.0437L46.1212 43.3913C46.1212 43.2944 46.1406 43.1781 46.16 43.0812L46.6639 43.12C48.6019 43.1975 51.4313 42.8874 53.4469 41.9378C54.8035 41.3176 59.1252 39.0308 58.1175 35.93H58.0206ZM52.6329 40.3293C51.2763 40.9494 49.1057 41.3564 47.2259 41.3564C46.315 41.3564 45.4623 41.2595 44.8034 41.0463L43.5049 51.279C42.7878 55.4263 40.9661 57.2868 36.7413 58.1977C36.0242 58.3527 35.3653 58.4302 34.7645 58.4302C30.7335 58.4302 29.4544 55.2325 28.9311 53.9147C28.2916 52.3061 28.0784 47.0541 28.1171 41.7246C26.6636 43.0425 24.8419 43.7401 22.7683 43.7401C21.9155 43.7401 21.024 43.6239 20.0938 43.3913C19.8225 43.3332 17.4969 42.6936 17.5163 41.2014C17.5356 39.8254 19.493 39.4378 20.2295 39.2827C22.807 38.7595 22.9814 38.5463 23.776 37.5191C23.9311 37.306 24.1442 37.0734 24.3574 36.8021C24.3574 36.7633 24.3574 36.7439 24.3574 36.7052C23.214 36.6664 22.1093 36.337 21.0822 35.7943C20.4233 36.5114 18.5046 38.5657 16.4504 41.0269C15.2294 42.4998 14.0666 42.9262 13.0976 42.9262C12.71 42.9262 12.3418 42.8487 12.0317 42.7518C5.71381 40.62 1.81842 19.205 1.70214 16.5306C1.41144 10.7747 2.9037 6.70487 6.12079 4.4374C11.9154 0.32883 21.2566 3.52654 23.214 4.26298C25.2101 2.90638 27.6326 2.22807 30.404 2.26684C31.9156 2.28622 33.311 2.4994 34.5901 2.80948C35.9661 2.09241 48.1174 -1.18281 55.036 7.69325C58.0787 11.5886 54.4546 25.4841 47.846 35.5424C48.3112 35.8912 49.7647 36.492 53.8926 35.6393C55.2686 35.3486 56.1019 35.6005 56.3539 36.3757C56.8578 37.8874 54.1058 39.6122 52.5941 40.3293H52.6329Z" fill="url(#paint5_linear_6402_7110)"/>
<path d="M47.012 36.9957C47.012 36.9957 46.8375 36.8794 46.7794 36.8213C46.6437 36.8794 46.5081 36.9182 46.4305 36.9376C45.6553 37.1507 44.8995 37.3639 45.0158 39.3988C45.5003 39.9221 49.6476 39.8833 51.9151 38.8368C53.0391 38.3136 53.8337 37.7322 54.2989 37.3058C54.2989 37.3058 54.2988 37.3058 54.2795 37.3058C50.8298 38.0229 48.3879 37.926 47.012 37.0151V36.9957Z" fill="url(#paint6_linear_6402_7110)"/>
<path d="M45.3813 34.7658C44.8387 34.0875 44.1023 33.1766 43.5402 31.8006C43.4433 31.5681 43.1914 31.1223 42.8619 30.5215C41.1177 27.382 37.4743 20.8703 39.8386 17.5175C40.9239 15.9671 43.0557 15.3663 46.1759 15.6764C45.1682 12.7694 40.6914 4.12592 30.4199 3.9515C27.2998 3.87398 24.7028 4.86236 22.7648 6.81975C19.6834 9.92055 18.8694 14.8237 18.6562 17.44C20.0129 16.6842 21.854 16.0447 23.1718 15.909C26.0013 15.6183 27.8812 16.878 28.4432 19.4749C29.9548 26.3936 28.5788 29.475 27.5517 31.7231C27.3579 32.1301 27.1835 32.5371 27.0478 32.9247L26.9121 33.2929C26.6214 34.0875 26.3501 34.8045 26.1951 35.4635C26.9315 35.2697 27.5517 35.5216 27.8811 35.6766C28.7339 36.0255 29.4316 36.8782 29.7223 37.886C29.761 38.0216 29.7804 38.1767 29.7998 38.3123C29.8192 38.3705 29.8192 38.4286 29.8385 38.4867C29.8385 38.5061 29.8385 38.5449 29.8385 38.5643C29.8385 38.5836 29.8385 38.603 29.8385 38.6418C29.6447 45.6186 29.9161 51.9171 30.4781 53.3125C31.3502 55.4831 32.6486 57.3823 36.3696 56.5877C39.9549 55.8125 41.234 54.5334 41.8154 51.0644L43.2883 39.3782C43.172 36.2774 44.8387 35.6379 45.7883 35.3666C45.672 35.1921 45.4976 34.9983 45.3426 34.7852L45.3813 34.7658Z" fill="url(#paint7_linear_6402_7110)"/>
</g>
<defs>
<linearGradient id="paint0_linear_6402_7110" x1="54.4899" y1="3.3125" x2="30.4202" y2="16.7274" gradientUnits="userSpaceOnUse">
<stop stop-color="#00FF78"/>
<stop offset="1" stop-color="#00DBFF"/>
</linearGradient>
<linearGradient id="paint1_linear_6402_7110" x1="28.174" y1="37.043" x2="24.1881" y2="44.0331" gradientUnits="userSpaceOnUse">
<stop stop-color="#00FF78"/>
<stop offset="1" stop-color="#00DBFF"/>
</linearGradient>
<linearGradient id="paint2_linear_6402_7110" x1="21.7017" y1="4.07226" x2="-5.51821" y2="17.4899" gradientUnits="userSpaceOnUse">
<stop stop-color="#00FF78"/>
<stop offset="1" stop-color="#00DBFF"/>
</linearGradient>
<linearGradient id="paint3_linear_6402_7110" x1="46.3338" y1="17.2559" x2="37.2919" y2="20.6832" gradientUnits="userSpaceOnUse">
<stop stop-color="#00FF78"/>
<stop offset="1" stop-color="#00DBFF"/>
</linearGradient>
<linearGradient id="paint4_linear_6402_7110" x1="27.4555" y1="17.5371" x2="14.2373" y2="24.4179" gradientUnits="userSpaceOnUse">
<stop stop-color="#00FF78"/>
<stop offset="1" stop-color="#00DBFF"/>
</linearGradient>
<linearGradient id="paint5_linear_6402_7110" x1="58.2683" y1="-3.30118e-06" x2="2.90743" y2="53.7631" gradientUnits="userSpaceOnUse">
<stop stop-color="#00FF78"/>
<stop offset="1" stop-color="#00DBFF"/>
</linearGradient>
<linearGradient id="paint6_linear_6402_7110" x1="54.2989" y1="36.8213" x2="52.7698" y2="41.7101" gradientUnits="userSpaceOnUse">
<stop stop-color="#00FF78"/>
<stop offset="1" stop-color="#00DBFF"/>
</linearGradient>
<linearGradient id="paint7_linear_6402_7110" x1="46.1759" y1="3.94726" x2="6.21559" y2="24.765" gradientUnits="userSpaceOnUse">
<stop stop-color="#00FF78"/>
<stop offset="1" stop-color="#00DBFF"/>
</linearGradient>
<clipPath id="clip0_6402_7110">
<rect width="60" height="60" fill="white"/>
</clipPath>
</defs>
</svg>
