<svg width="60" height="60" viewBox="0 0 60 60" fill="none" xmlns="http://www.w3.org/2000/svg">
<path d="M37.6599 43.6802C43.362 43.6802 48.7215 41.4532 52.7595 37.4397C56.7975 33.4017 59 28.0422 59 22.3401C59 16.638 56.773 11.2785 52.7595 7.24051C48.746 3.20253 43.362 1 37.6599 1C31.9578 1 26.5983 3.227 22.5603 7.24051C18.5224 11.2785 16.3198 16.638 16.3198 22.3401C16.3198 26.0599 17.2743 29.7063 19.0852 32.8878L19.2321 33.1325L15.4878 36.8768L13.6278 35.0169L3.34937 45.2954C1.83207 46.8127 1 48.8194 1 50.973C1 53.1266 1.83207 55.1333 3.34937 56.6506C4.86667 58.1679 6.87342 59 9.027 59C11.1806 59 13.1873 58.1679 14.7046 56.6506L24.9831 46.3722L23.1232 44.5122L26.8675 40.7679L27.1122 40.9148C30.2937 42.7257 33.9401 43.6802 37.6599 43.6802ZM11.8169 53.7629C11.0582 54.5215 10.0304 54.9131 9.027 54.9131C8.02363 54.9131 6.99578 54.5215 6.23713 53.7629C5.47848 53.0042 5.08692 52.0253 5.08692 50.973C5.08692 49.9207 5.50295 48.9173 6.23713 48.1831L13.6278 40.7924L19.2321 46.3966L11.8414 53.7873L11.8169 53.7629ZM18.3755 39.7646L21.6549 36.4852L21.9241 36.7789C22.1443 37.0236 22.3401 37.2439 22.5603 37.4641C22.7806 37.6844 23.0008 37.9046 23.2456 38.1004L23.5392 38.3696L20.2599 41.6489L18.3755 39.7646ZM25.4481 34.5519C22.1932 31.297 20.4068 26.9654 20.4068 22.3401C20.4068 17.7148 22.1932 13.3831 25.4481 10.1283C28.703 6.87342 33.0346 5.08692 37.6599 5.08692C42.2852 5.08692 46.6169 6.87342 49.8717 10.1283C53.1266 13.3831 54.9131 17.7148 54.9131 22.3401C54.9131 26.9654 53.1266 31.297 49.8717 34.5519C46.6169 37.8067 42.2852 39.5932 37.6599 39.5932C33.0346 39.5932 28.703 37.8067 25.4481 34.5519Z" fill="url(#paint0_linear_6400_7010)"/>
<path d="M32.4717 17.5924C32.4717 17.054 32.276 16.5646 31.9089 16.173C31.1502 15.3899 29.9021 15.3654 29.119 16.1241C29.119 16.1241 29.0945 16.1485 29.07 16.173L24.2979 20.9451C23.5148 21.7283 23.5148 22.9764 24.2979 23.735L29.07 28.5072C29.4371 28.8743 29.9266 29.0945 30.465 29.0945C30.465 29.0945 30.465 29.0945 30.4895 29.0945C31.0034 29.0945 31.4928 28.8987 31.8599 28.5316C32.2515 28.1646 32.4473 27.6751 32.4717 27.1367C32.4717 26.5983 32.276 26.1089 31.9089 25.7173C31.9089 25.7173 31.8844 25.6928 31.8599 25.6684L28.4827 22.2911L31.8599 18.9139C32.227 18.5468 32.4473 18.0574 32.4473 17.519L32.4717 17.5924Z" fill="url(#paint1_linear_6400_7010)"/>
<path d="M46.2498 16.1975C45.4911 15.4143 44.243 15.3899 43.4599 16.1485C42.6768 16.9072 42.6523 18.1553 43.411 18.9384C43.411 18.9384 43.4354 18.9629 43.4599 18.9873L46.8371 22.3646L43.4599 25.7418C43.0928 26.1089 42.8726 26.5983 42.8726 27.1367C42.8726 27.6751 43.0684 28.1646 43.4354 28.5561C43.8025 28.9477 44.292 29.1435 44.8304 29.1679C44.8304 29.1679 44.8304 29.1679 44.8549 29.1679C45.3688 29.1679 45.8582 28.9722 46.2253 28.6051C46.2253 28.6051 46.2498 28.5806 46.2743 28.5561L51.0464 23.784C51.8295 23.0008 51.8295 21.7527 51.0464 20.9941L46.2498 16.1975Z" fill="url(#paint2_linear_6400_7010)"/>
<path d="M40.67 12.0616C39.6422 11.719 38.5165 12.2819 38.1738 13.3342C38.1738 13.3831 38.1494 13.4076 38.1249 13.4565L33.3527 30.1958C33.0591 31.2481 33.6709 32.3494 34.7232 32.643C34.8945 32.692 35.0658 32.7165 35.2616 32.7165C36.1426 32.7165 36.9257 32.1291 37.1705 31.2726L41.9426 14.5333C42.2608 13.5055 41.6979 12.3797 40.67 12.0616Z" fill="url(#paint3_linear_6400_7010)"/>
<defs>
<linearGradient id="paint0_linear_6400_7010" x1="59" y1="0.999997" x2="5.46154" y2="54.5385" gradientUnits="userSpaceOnUse">
<stop stop-color="#00FF78"/>
<stop offset="1" stop-color="#00DBFF"/>
</linearGradient>
<linearGradient id="paint1_linear_6400_7010" x1="59" y1="0.999997" x2="5.46154" y2="54.5385" gradientUnits="userSpaceOnUse">
<stop stop-color="#00FF78"/>
<stop offset="1" stop-color="#00DBFF"/>
</linearGradient>
<linearGradient id="paint2_linear_6400_7010" x1="59" y1="0.999997" x2="5.46154" y2="54.5385" gradientUnits="userSpaceOnUse">
<stop stop-color="#00FF78"/>
<stop offset="1" stop-color="#00DBFF"/>
</linearGradient>
<linearGradient id="paint3_linear_6400_7010" x1="59" y1="0.999997" x2="5.46154" y2="54.5385" gradientUnits="userSpaceOnUse">
<stop stop-color="#00FF78"/>
<stop offset="1" stop-color="#00DBFF"/>
</linearGradient>
</defs>
</svg>
