<svg width="60" height="60" viewBox="0 0 60 60" fill="none" xmlns="http://www.w3.org/2000/svg">
<g clip-path="url(#clip0_6400_6947)">
<g clip-path="url(#clip1_6400_6947)">
<path d="M10.4189 39.5333C9.91391 38.8623 9.18946 34.6689 9.18946 34.6689C9.18946 34.6689 -1.07664 39.131 0.0951407 46.5753C0.645161 50.0737 3.62315 50.5492 4.89762 50.6941C7.65475 51.0078 11.661 48.8991 13.9441 47.3096C18.5356 44.1107 21.0072 41.023 28.2756 35.0881C28.2756 35.0881 17.987 39.0114 10.4203 39.5347L10.4189 39.5333Z" fill="url(#paint0_linear_6400_6947)"/>
<path d="M9.21023 34.0465C9.21023 34.0465 5.22927 19.3338 15.0058 13.7338C18.2708 11.8643 24.615 9.82314 27.7702 9.40535C30.9269 8.98615 38.3613 7.66386 42.1847 13.9687C43.5816 16.2729 45.399 20.3495 45.783 21.8251C41.7894 26.1803 13.6371 33.7666 9.21023 34.0465Z" fill="url(#paint1_linear_6400_6947)"/>
<path d="M34.3867 31.609C34.3867 31.609 41.0446 30.2924 49.7493 29.9477C56.7068 29.672 60.7061 26.7841 59.7214 25.2986C58.7353 23.8131 51.1799 19.2765 34.3867 31.609Z" fill="url(#paint2_linear_6400_6947)"/>
<path d="M59.9457 25.1293C59.9457 25.1293 49.5051 13.2441 16.4856 44.8146C9.09483 50.6848 2.12182 51.7159 0.34375 47.4241C1.75608 51.5176 5.79049 51.4472 10.7758 49.7789C17.3015 47.5971 26.3536 38.9684 27.4931 38.1173C36.4256 31.451 51.701 20.6939 59.8275 26.1196C59.8275 26.1196 60.1159 25.5907 59.9457 25.1279V25.1293Z" fill="url(#paint3_linear_6400_6947)"/>
</g>
</g>
<defs>
<linearGradient id="paint0_linear_6400_6947" x1="28.2756" y1="34.6689" x2="15.5468" y2="57.083" gradientUnits="userSpaceOnUse">
<stop stop-color="#00FF78"/>
<stop offset="1" stop-color="#00DBFF"/>
</linearGradient>
<linearGradient id="paint1_linear_6400_6947" x1="45.783" y1="8.99902" x2="24.398" y2="40.9089" gradientUnits="userSpaceOnUse">
<stop stop-color="#00FF78"/>
<stop offset="1" stop-color="#00DBFF"/>
</linearGradient>
<linearGradient id="paint2_linear_6400_6947" x1="59.8693" y1="23.25" x2="55.2989" y2="37.1829" gradientUnits="userSpaceOnUse">
<stop stop-color="#00FF78"/>
<stop offset="1" stop-color="#00DBFF"/>
</linearGradient>
<linearGradient id="paint3_linear_6400_6947" x1="59.9994" y1="22.9365" x2="40.2181" y2="65.2128" gradientUnits="userSpaceOnUse">
<stop stop-color="#00FF78"/>
<stop offset="1" stop-color="#00DBFF"/>
</linearGradient>
<clipPath id="clip0_6400_6947">
<rect width="60" height="60" fill="white"/>
</clipPath>
<clipPath id="clip1_6400_6947">
<rect width="60" height="41.8507" fill="white" transform="translate(0 8.99902)"/>
</clipPath>
</defs>
</svg>
