<svg width="60" height="60" viewBox="0 0 60 60" fill="none" xmlns="http://www.w3.org/2000/svg">
<g clip-path="url(#clip0_6400_7018)">
<path d="M51.2109 17.1016H42.8906V8.78125C42.8906 3.93491 38.9479 -0.0078125 34.1016 -0.0078125H25.8984C21.0521 -0.0078125 17.1094 3.93491 17.1094 8.78125V17.1016H8.78906C3.94272 17.1016 0 21.0443 0 25.8906V34.0938C0 38.9401 3.94272 42.8828 8.78906 42.8828H17.1094V51.2031C17.1094 56.0495 21.0521 59.9922 25.8984 59.9922H34.1016C38.9479 59.9922 42.8906 56.0495 42.8906 51.2031V42.8828H51.2109C56.0573 42.8828 60 38.9401 60 34.0938V25.8906C60 21.0443 56.0573 17.1016 51.2109 17.1016ZM8.78906 39.3672C5.88135 39.3672 3.51562 37.0015 3.51562 34.0938V25.8906C3.51562 22.9829 5.88135 20.6172 8.78906 20.6172H30C30.9709 20.6172 31.7578 19.8303 31.7578 18.8594C31.7578 17.8885 30.9709 17.1016 30 17.1016H20.625V8.78125C20.625 5.87354 22.9907 3.50781 25.8984 3.50781H34.1016C37.0093 3.50781 39.375 5.87354 39.375 8.78125V28.2344H18.8672C17.8963 28.2344 17.1094 29.0213 17.1094 29.9922V39.3672H8.78906ZM56.4844 34.0938C56.4844 37.0015 54.1187 39.3672 51.2109 39.3672H30C29.0291 39.3672 28.2422 40.1541 28.2422 41.125C28.2422 42.0959 29.0291 42.8828 30 42.8828H39.375V51.2031C39.375 54.1108 37.0093 56.4766 34.1016 56.4766H25.8984C22.9907 56.4766 20.625 54.1108 20.625 51.2031V31.75H41.1328C42.1037 31.75 42.8906 30.9631 42.8906 29.9922V20.6172H51.2109C54.1187 20.6172 56.4844 22.9829 56.4844 25.8906V34.0938Z" fill="url(#paint0_linear_6400_7018)"/>
<path d="M27.6562 10.5391C27.6562 11.51 26.8694 12.2969 25.8984 12.2969C24.9275 12.2969 24.1406 11.51 24.1406 10.5391C24.1406 9.56814 24.9275 8.78125 25.8984 8.78125C26.8694 8.78125 27.6562 9.56814 27.6562 10.5391Z" fill="url(#paint1_linear_6400_7018)"/>
<path d="M35.8594 49.4453C35.8594 50.4162 35.0725 51.2031 34.1016 51.2031C33.1306 51.2031 32.3438 50.4162 32.3438 49.4453C32.3438 48.4744 33.1306 47.6875 34.1016 47.6875C35.0725 47.6875 35.8594 48.4744 35.8594 49.4453Z" fill="url(#paint2_linear_6400_7018)"/>
</g>
<defs>
<linearGradient id="paint0_linear_6400_7018" x1="60" y1="-0.0078158" x2="4.61538" y2="55.3768" gradientUnits="userSpaceOnUse">
<stop stop-color="#00FF78"/>
<stop offset="1" stop-color="#00DBFF"/>
</linearGradient>
<linearGradient id="paint1_linear_6400_7018" x1="60" y1="-0.0078158" x2="4.61538" y2="55.3768" gradientUnits="userSpaceOnUse">
<stop stop-color="#00FF78"/>
<stop offset="1" stop-color="#00DBFF"/>
</linearGradient>
<linearGradient id="paint2_linear_6400_7018" x1="60" y1="-0.0078158" x2="4.61538" y2="55.3768" gradientUnits="userSpaceOnUse">
<stop stop-color="#00FF78"/>
<stop offset="1" stop-color="#00DBFF"/>
</linearGradient>
<clipPath id="clip0_6400_7018">
<rect width="60" height="60" fill="white"/>
</clipPath>
</defs>
</svg>
