<svg width="60" height="60" viewBox="0 0 60 60" fill="none" xmlns="http://www.w3.org/2000/svg">
<path d="M36.883 27.5732L25.3887 31.2736L15.3775 35.6187L12.5824 36.3475C11.8693 37.0203 11.1278 37.6931 10.3006 38.3659C9.41645 39.1228 8.58931 39.7956 7.96183 40.3001C7.24878 40.8608 6.222 41.87 5.68008 42.5147C4.88147 43.4959 4.25398 44.5331 3.99728 45.318C3.51241 46.7477 3.74059 48.2054 4.68181 49.551C5.85121 51.261 8.21853 52.999 10.9566 54.1764C12.3542 54.7931 14.7215 55.55 16.4899 55.9985C19.4276 56.7274 25.132 57.5403 28.2694 57.6525C28.8969 57.6805 29.7526 57.6805 29.7811 57.6525C29.8381 57.5964 30.3515 56.6993 30.8934 55.55C32.8329 51.6815 34.202 48.0372 34.9721 44.9536C35.4284 43.0754 35.7707 40.5805 36.0274 37.609C36.0844 36.768 36.113 33.9928 36.0559 33.0677C35.9703 31.5259 35.8277 30.2924 35.6281 29.059C35.5996 28.8908 35.571 28.7226 35.5996 28.7226C35.6281 28.6946 35.7422 28.6665 37.1683 28.2741L36.883 27.5732ZM34.259 29.087C34.3731 29.087 34.6298 31.7221 34.7154 33.376C34.7439 33.7124 34.7154 33.9647 34.7154 33.9647C34.6583 33.9647 33.2608 33.1518 32.234 32.5351C31.3783 32.0024 29.724 30.9092 29.4673 30.7129C29.3818 30.6569 29.3818 30.6569 30.0948 30.4046C31.2928 29.9841 34.1449 29.087 34.259 29.087ZM28.3835 30.9932C28.4691 30.9932 28.6687 31.1054 29.1536 31.3857C30.9505 32.479 33.3748 33.8246 34.4302 34.2731C34.7439 34.4133 34.7724 34.3572 34.0594 34.8618C32.4907 35.927 30.4941 36.9642 28.0983 38.0015C27.6705 38.1977 27.3282 38.3378 27.2997 38.3378C27.2712 38.3378 27.3282 38.1136 27.4138 37.8613C27.9842 35.7308 28.3265 33.5723 28.355 31.8623C28.298 30.9932 28.298 30.9932 28.3835 30.9932ZM27.1856 31.4418C27.2426 31.4978 27.2141 33.4041 27.1285 33.9367C26.9859 35.1701 26.7292 36.3475 26.3299 37.6651C26.2444 37.9734 26.1588 38.2537 26.1303 38.2537C26.1018 38.3098 24.9038 37.1605 24.5045 36.7119C23.82 35.9551 23.3066 35.1701 22.9073 34.4133C22.7077 34.0208 22.3939 33.2639 22.4224 33.2639C22.565 33.1518 27.1571 31.4137 27.1856 31.4418ZM21.5097 33.6283C21.5668 33.6564 21.6238 33.7965 21.6523 33.9367C21.9376 34.6936 22.5651 35.7869 23.107 36.4596C23.7059 37.2165 24.476 38.0575 25.1035 38.5901C25.3032 38.7583 25.5028 38.9265 25.5313 38.9546C25.5884 39.0106 25.5884 39.0106 24.1908 39.5152C22.5365 40.1319 20.7682 40.7487 18.7146 41.3934C18.2297 41.5616 17.7448 41.7018 17.26 41.87C17.1744 41.898 17.2029 41.842 17.4311 41.5056C18.4579 39.9357 19.9981 36.8801 20.8537 34.6936C20.9963 34.3292 21.1389 33.9367 21.1675 33.8526C21.196 33.7405 21.253 33.6844 21.3671 33.6283C21.4242 33.6564 21.4812 33.6283 21.5097 33.6283ZM19.7699 34.3292C19.7984 34.3572 19.3421 35.2542 18.9142 36.0952C18.0586 37.7211 17.1459 39.291 15.9194 41.2252C15.7198 41.5616 15.5201 41.87 15.4916 41.898C15.4346 41.9541 15.4346 41.9541 15.292 41.6738C15.0067 41.1131 14.75 40.3562 14.636 39.6834C14.4933 39.0106 14.5219 37.8613 14.693 37.1324C14.8071 36.5998 14.8071 36.5998 15.0638 36.4877C16.1191 35.9551 19.7129 34.3011 19.7699 34.3292ZM34.7439 34.9459V35.3103C34.7439 37.2165 34.5443 39.8236 34.2305 41.7298C34.1735 42.0662 34.1449 42.3465 34.1164 42.3465C34.1164 42.3465 33.8597 42.2905 33.5745 42.2064C32.2625 41.8139 30.8649 41.2252 29.5814 40.5244C28.7258 40.0759 27.4993 39.319 27.5564 39.291C27.5564 39.291 27.9272 39.0947 28.355 38.8705C30.0663 38.0015 31.6921 37.0483 33.1181 36.1233C33.6601 35.7869 34.4587 35.1982 34.6298 35.058L34.7439 34.9459ZM13.2099 37.4688C13.2384 37.4688 13.2384 37.5249 13.1813 37.8333C13.1528 38.0575 13.0958 38.478 13.0958 38.7583C13.0387 39.9918 13.2384 40.9169 13.8659 42.1783C14.037 42.5147 14.1796 42.8231 14.1796 42.8231C14.1226 42.8792 8.36114 44.5331 6.56426 45.0097C6.02234 45.1498 5.56599 45.29 5.50895 45.29C5.4519 45.318 5.4519 45.29 5.4519 45.1498C5.65156 43.8883 6.6213 42.2624 7.99035 40.8608C8.90305 39.9357 9.6161 39.4031 10.8425 38.7023C11.7267 38.2538 13.0673 37.4969 13.2099 37.4688C13.1813 37.4688 13.1813 37.4688 13.2099 37.4688ZM26.7578 39.8516C26.7578 39.8516 26.9859 39.9638 27.2141 40.1039C29.068 41.1692 31.6635 42.1503 33.8597 42.6549L34.0594 42.711L33.7742 42.8511C32.6048 43.4959 28.8113 45.0377 24.9324 46.4674C24.3619 46.6636 23.82 46.8879 23.7059 46.9159C23.5918 46.972 23.5063 46.972 23.5063 46.972C23.5063 46.972 23.6489 46.6636 23.8485 46.2992C24.9324 44.3088 26.0162 41.87 26.5866 40.188C26.7007 39.9918 26.7578 39.8516 26.7578 39.8516ZM25.3887 40.3001C25.3887 40.3001 25.3317 40.4964 25.2461 40.6926C24.476 42.4867 23.5063 44.449 22.2228 46.6636C21.909 47.2243 21.6238 47.6728 21.6238 47.6728C21.6238 47.6728 21.3671 47.5326 21.0534 47.3364C19.1995 46.2151 17.5737 44.8695 16.5184 43.5239L16.3758 43.3277L17.1744 43.1034C19.9981 42.3465 22.4224 41.5336 24.8183 40.5244C25.075 40.4123 25.3602 40.3001 25.3887 40.3001ZM33.9738 43.2436C33.9738 43.4398 33.546 45.2059 33.1752 46.4674C32.8615 47.5326 32.6048 48.3736 32.1199 49.8593C31.9202 50.5041 31.7206 51.0367 31.7206 51.0367C31.7206 51.0367 31.6635 51.0367 31.6065 51.0087C29.0395 50.5602 26.7007 49.9154 24.5331 49.0464C23.9341 48.7941 23.0499 48.4297 22.9929 48.3736C22.9643 48.3456 23.5063 48.1213 24.1623 47.841C28.1268 46.131 32.2055 44.2247 33.6315 43.3838C33.8027 43.2997 33.9453 43.2436 33.9738 43.2436ZM14.1511 43.9164C14.1796 43.9444 13.0673 45.4862 11.5271 47.6167C10.9852 48.3736 10.3577 49.2426 10.1295 49.551C9.90132 49.8874 9.53053 50.392 9.33088 50.7003L8.9601 51.261L8.56079 50.9246C8.10444 50.5602 7.30583 49.7472 6.93504 49.2987C6.19347 48.3736 5.68008 47.4205 5.48042 46.5515C5.39486 46.131 5.39486 45.9347 5.48042 45.9067C5.62303 45.8787 7.93331 45.3461 10.101 44.8415C11.2989 44.5611 12.6965 44.2528 13.2099 44.1126C13.7233 44.0005 14.1226 43.9164 14.1511 43.9164ZM15.2634 44.3369L15.5487 44.6452C16.8036 46.0188 18.0871 47.028 19.6273 47.9251C19.9125 48.0652 20.1122 48.2054 20.0836 48.2334C20.0266 48.2895 14.7215 50.1397 12.2401 50.9526C10.8711 51.4292 9.73019 51.8216 9.70167 51.8216L9.53054 51.7095L9.38793 51.5974L9.64462 51.2329C10.4718 50.0836 11.4985 48.7941 13.7233 46.159L15.2634 44.3369ZM22.1943 49.2146C22.1943 49.2146 22.5936 49.3547 23.0499 49.5229C24.1908 49.9434 25.075 50.1957 26.2729 50.5041C27.756 50.8685 29.8952 51.2329 31.1501 51.3451C31.3498 51.3731 31.4354 51.3731 31.4068 51.4011C31.3498 51.4292 30.0663 51.8497 29.1251 52.158C27.6419 52.6066 23.0784 53.9521 19.3421 54.9893C18.6575 55.1856 18.0586 55.3538 18.0301 55.3538C17.9445 55.3818 17.6593 55.2977 17.6593 55.2697C17.6593 55.2416 17.8589 54.9893 18.1156 54.709C19.3706 53.2513 20.597 51.5974 21.6523 50.0556C21.9376 49.551 22.1943 49.2146 22.1943 49.2146ZM20.6541 49.2426C20.6541 49.2426 20.0551 50.2238 18.9713 51.9057C18.5149 52.6066 18.0015 53.4195 17.8019 53.6998C17.6308 53.9802 17.3741 54.4007 17.2315 54.6529L16.9748 55.1015L16.8321 55.0734C16.5184 54.9893 14.3222 54.2325 13.7518 54.0082C13.0387 53.7279 12.2972 53.3915 11.7267 53.0831C11.0422 52.7187 10.158 52.158 10.2436 52.158C10.2721 52.158 11.4415 51.8216 12.8961 51.4572C16.6895 50.448 18.8002 49.8593 20.1977 49.4108C20.4259 49.2987 20.6541 49.2426 20.6541 49.2426ZM31.4639 51.7375C31.5209 51.8216 30.0948 55.6621 29.5814 56.8675C29.4673 57.1479 29.4388 57.2039 29.3533 57.2039C29.2107 57.2039 27.1571 56.9236 25.9306 56.7274C23.763 56.391 20.1407 55.7743 19.228 55.578L19.0283 55.522L20.3118 55.2416C23.107 54.6249 24.419 54.2885 25.788 53.8961C27.4993 53.3915 29.1821 52.7467 30.8934 51.9618C31.1787 51.8497 31.4068 51.7375 31.4639 51.7375Z" fill="url(#paint0_linear_6402_7102)"/>
<path d="M25.0262 1.25053C24.8265 1.2225 21.7462 2.31578 19.7496 3.10069C17.0686 4.16594 14.9865 5.20316 13.703 6.10021C13.2181 6.4366 12.6192 7.02529 12.5336 7.24955C12.5051 7.33365 12.4766 7.44578 12.4766 7.52988L13.646 8.62316L16.4126 9.49218L23.0011 10.6415L30.5309 11.903L30.6165 11.2582H30.5595L29.5612 11.1181L29.3615 10.7817C28.3347 9.01562 27.1939 6.80103 26.5379 5.31529C26.0245 4.16594 25.5396 2.82037 25.2829 1.86725C25.1403 1.27856 25.1118 1.25053 25.0262 1.25053ZM24.8836 1.67102C24.9121 1.67102 24.9406 1.92332 24.9692 2.20364C25.1118 3.40906 25.397 4.5584 25.8248 5.79184C26.1386 6.74496 26.1386 6.6889 25.7678 6.57676C24.8836 6.32447 20.919 5.65168 18.0383 5.25922C17.582 5.20316 17.1827 5.14709 17.1827 5.11906C17.1542 5.09103 19.2648 3.99775 20.1775 3.57725C21.3754 3.04463 24.6554 1.72709 24.8836 1.67102ZM16.4982 5.51152L16.8404 5.62365C18.6943 6.24037 23.3149 7.10939 25.8819 7.30562C26.1671 7.33365 26.4238 7.36168 26.4238 7.36168C26.4238 7.36168 26.1956 7.50185 25.8819 7.64201C24.6554 8.25874 23.2864 8.98759 22.3451 9.57628C22.0599 9.74447 21.8032 9.88464 21.7747 9.88464C21.7462 9.88464 21.5465 9.85661 21.3754 9.82857L21.0331 9.77251L20.1775 8.93152C18.6373 7.47381 17.4394 6.3525 16.983 5.90398L16.4982 5.51152ZM16.1559 5.76381L17.3823 7.27759C18.0383 8.11857 18.7229 8.90349 18.8655 9.09972C19.0081 9.26792 19.1222 9.43611 19.1222 9.43611C19.0936 9.46414 17.3538 9.12775 16.4411 8.93152C15.4999 8.70726 15.1006 8.62316 14.5301 8.42693L14.0453 8.28677V8.17464C14.0453 7.61398 14.7868 6.74496 16.0418 5.87594L16.1559 5.76381ZM26.5664 7.81021C26.5949 7.81021 26.652 7.89431 26.7375 8.11857C27.0227 8.76333 27.964 10.4733 28.1921 10.8097C28.2492 10.9219 28.3918 10.9219 27.1653 10.7256C24.2276 10.2491 23.2864 10.1089 23.2864 10.0809C23.2864 10.0809 23.3719 10.0248 23.486 9.9407C24.3987 9.43611 25.3114 8.81939 26.1386 8.1466C26.3382 7.97841 26.5093 7.83824 26.5664 7.81021Z" fill="url(#paint1_linear_6402_7102)"/>
<path d="M12.5858 7.10742C12.5858 7.10742 12.3861 7.41578 12.5858 7.86431C12.6999 8.14464 13.0421 8.48103 13.4129 8.81742C13.4129 8.81742 17.2919 12.5178 17.7482 13.0504C19.8874 15.4892 20.8286 17.872 20.9142 21.1519C20.9712 23.2824 20.5719 25.1325 19.5451 27.2911C17.7482 31.1596 13.9263 35.4486 8.05078 40.1861L8.90644 39.9058C9.44835 39.4853 10.2184 39.0648 11.9868 38.1117C16.094 35.8971 20.686 33.8788 26.3333 31.8043C34.4621 28.8048 47.8388 25.2727 55.4542 24.1233L56.2528 24.0112L56.1387 23.815C55.4542 22.7497 54.9693 22.105 54.3989 21.4042C52.7446 19.3578 50.7195 17.7319 48.2381 16.3583C44.844 14.4801 40.4231 13.0223 34.8328 11.9291C33.7775 11.7328 31.4673 11.3404 29.5848 11.06C25.5918 10.4433 23.0248 10.0228 20.2011 9.54628C19.1743 9.37808 17.6627 9.12579 16.6644 8.90152C16.151 8.78939 15.1527 8.56513 14.3541 8.2848C13.6696 8.08857 12.7854 7.83628 12.5858 7.10742ZM14.839 9.26595C14.839 9.26595 14.9816 9.32201 15.1813 9.37808C15.5235 9.49021 15.9514 9.63038 16.4362 9.74251C16.807 9.85464 17.2063 9.93873 17.5771 10.0509C18.0905 10.191 18.5468 10.3032 18.5468 10.3032C18.6039 10.3592 19.4881 13.1345 19.7733 14.1717C19.8874 14.5642 19.9729 14.9286 19.9729 14.9286C19.9729 14.9286 19.8588 14.7884 19.7448 14.5922C18.718 12.8261 17.1207 11.0601 15.2668 9.60234C15.0101 9.40611 14.839 9.26595 14.839 9.26595ZM19.1173 10.4153C19.1743 10.4153 19.3455 10.4433 19.5736 10.4994C21.0568 10.8358 23.7093 11.3123 25.3921 11.5927C25.6773 11.6487 25.9055 11.6768 25.9055 11.7048C25.9055 11.7328 25.7914 11.7889 25.6773 11.845C25.3921 11.9851 24.2227 12.6579 23.8519 12.9102C22.8822 13.555 22.0265 14.2278 21.399 14.8445L20.9427 15.293C20.9427 15.293 20.8856 15.1528 20.8571 14.9566C20.5434 13.7792 19.8874 12.0132 19.2884 10.7797C19.1743 10.6115 19.0888 10.4153 19.1173 10.4153C19.0888 10.4153 19.0888 10.4153 19.1173 10.4153ZM26.6185 11.8169C26.6756 11.845 26.7612 12.1253 26.9323 12.7701C27.246 14.0035 27.3886 15.4051 27.3601 16.6946C27.3316 17.0591 27.3316 17.3955 27.3031 17.4235L27.2745 17.5076L26.8182 17.3674C25.877 17.0871 24.3653 16.6386 23.0818 16.2742C22.3403 16.0779 21.7413 15.9097 21.7413 15.8817C21.7413 15.8256 22.8251 14.7604 23.2815 14.3679C24.1657 13.611 26.5615 11.7889 26.6185 11.8169ZM27.2175 11.901C27.246 11.873 30.8113 12.4897 32.437 12.7981C33.6349 13.0223 35.4033 13.3868 35.5174 13.4428C35.5744 13.4709 35.3748 13.555 34.8043 13.8073C32.5226 14.8164 30.8113 15.7415 29.1 16.8348C28.6436 17.1151 28.2728 17.3674 28.2728 17.3674C28.2728 17.3674 28.2443 17.1151 28.2443 16.8348C28.2443 15.2089 27.902 13.583 27.3031 12.1814C27.2745 12.0412 27.2175 11.9291 27.2175 11.901ZM36.4586 13.6951C36.4871 13.7232 36.373 14.424 36.2589 14.8164C35.9452 16.0779 35.0896 17.9842 34.0628 19.7502C33.8916 20.0586 33.7205 20.3109 33.692 20.3389C33.6634 20.3389 33.4353 20.2268 33.1786 20.0586C32.1803 19.4699 31.0109 18.9373 29.7845 18.4327C29.4422 18.2925 29.1285 18.1804 29.1285 18.1524C29.0714 18.0963 31.8666 16.2742 33.3497 15.4051C34.5191 14.7043 36.4301 13.6671 36.4586 13.6951ZM37.1146 13.8073C37.2002 13.8073 38.7689 14.2278 39.596 14.4801C41.6496 15.0687 43.9884 15.9097 45.5 16.6105L46.1275 16.8909L45.6712 17.003C41.9348 17.844 38.7404 18.8251 35.66 20.0586C35.4033 20.1707 35.1751 20.2548 35.1751 20.2548C35.1466 20.2548 35.2322 20.0586 35.3462 19.8063C36.2875 17.872 36.8864 15.8537 37.029 14.1156C37.0861 13.9474 37.1146 13.8073 37.1146 13.8073ZM21.3705 17.3674C21.399 17.3394 22.597 17.6197 23.253 17.816C24.2512 18.0963 26.3333 18.7691 26.3333 18.8251C26.3333 18.8251 26.1052 19.0214 25.8199 19.2737C24.6791 20.1987 23.5952 21.1799 22.2832 22.4414C21.8839 22.8058 21.5702 23.1142 21.5416 23.1142C21.5131 23.1142 21.5131 23.0581 21.5131 23.002C21.7128 21.5724 21.6557 19.7222 21.399 17.844C21.399 17.5637 21.3705 17.3674 21.3705 17.3674ZM46.755 17.3955C46.7835 17.4235 46.1846 18.2925 45.8423 18.7971C45.3289 19.526 44.5588 20.5071 42.819 22.6376C41.9063 23.7589 40.8795 25.0484 40.5372 25.4689C40.195 25.8894 39.9098 26.2538 39.8812 26.2538C39.8812 26.2538 39.7671 26.1137 39.6245 25.9174C38.6548 24.4878 37.4854 23.2263 36.1163 22.105C35.8596 21.8807 35.5744 21.6565 35.4603 21.6004C35.3748 21.5443 35.2892 21.4602 35.2892 21.4602C35.2892 21.4322 36.7723 20.8155 37.8847 20.3669C39.8527 19.582 42.5338 18.6289 44.5303 18.0402C45.6141 17.6758 46.755 17.3674 46.755 17.3955ZM47.4395 17.5637C47.4681 17.5637 47.6962 17.6478 47.9244 17.816C50.035 18.9933 52.1171 20.5351 53.7429 22.105C54.1992 22.5535 55.3401 23.7029 55.3116 23.7309C55.3116 23.7309 54.9123 23.7589 54.4559 23.7869C50.8051 24.0673 46.1275 24.8242 41.6211 25.8894C41.3073 25.9455 41.0506 26.0296 41.0221 26.0296C40.9936 26.0296 41.3358 25.6932 41.7637 25.3007C44.4162 22.8058 45.6141 21.2079 47.0402 18.4046C47.2399 17.9281 47.411 17.5917 47.4395 17.5637C47.411 17.5637 47.411 17.5637 47.4395 17.5637ZM28.0732 19.4979C28.1872 19.526 29.3281 20.0586 30.1838 20.451C30.9539 20.8435 32.1518 21.4602 32.2088 21.4883C32.2088 21.4883 31.8095 21.7125 31.2961 21.9648C29.6704 22.7778 28.2728 23.5347 26.7897 24.4037C26.3618 24.656 26.0196 24.8522 26.0196 24.8522C25.9911 24.8522 25.9911 24.8242 26.2192 24.4037C26.9893 23.002 27.6168 21.3201 27.9876 19.6942C28.0161 19.582 28.0446 19.4979 28.0732 19.4979ZM26.9608 19.7222C26.9893 19.7502 26.7041 20.7874 26.5045 21.3761C26.1622 22.4694 25.5347 23.815 24.9643 24.8522C24.8217 25.1045 24.622 25.4409 24.5079 25.6371L24.2797 25.9735L23.7949 25.525C23.2244 24.9924 22.7681 24.656 22.1691 24.3476C21.9409 24.2355 21.7413 24.1233 21.7413 24.0953C21.7413 24.0392 23.2244 22.6937 24.3653 21.7406C25.1924 21.0397 26.9323 19.6942 26.9608 19.7222ZM33.8631 22.4974L34.2909 22.7778C35.2607 23.3945 36.4016 24.2355 37.2857 24.9643C37.7706 25.3568 38.7404 26.1978 38.94 26.422L39.0541 26.5342L38.341 26.7304C34.348 27.8237 31.2961 28.7768 27.7024 30.0663C27.3031 30.2065 26.9608 30.3186 26.9323 30.3186C26.8752 30.3186 26.8467 30.3747 27.7309 29.5617C30.0126 27.4873 32.0662 25.1886 33.5779 22.974L33.8631 22.4974ZM32.0377 22.946C32.0662 22.974 30.8683 24.5999 30.1553 25.553C29.2996 26.6743 27.7879 28.5245 26.7612 29.7299C26.3333 30.2345 25.9625 30.655 25.934 30.655C25.9055 30.655 25.9055 30.5429 25.9055 30.3466C25.9055 29.3094 25.6488 28.2161 25.1639 27.263C24.9643 26.8706 24.9358 26.7865 24.9643 26.7304C25.1354 26.5902 27.6453 25.1606 29.2711 24.3196C30.3264 23.7589 32.0092 22.9179 32.0377 22.946ZM21.0568 25.5811C21.0853 25.5811 21.2849 25.6932 21.5131 25.8053C22.055 26.1137 22.5684 26.4501 22.9963 26.7865C23.0248 26.8145 22.7966 26.9827 22.4829 27.207C21.6557 27.7956 20.4008 28.7207 19.6877 29.2814C18.9176 29.8701 18.8891 29.8981 18.9747 29.7579C19.5451 28.8889 19.8303 28.4124 20.1441 27.7956C20.4008 27.235 20.686 26.5902 20.8856 26.0015C20.9427 25.7773 21.0282 25.5811 21.0568 25.5811ZM23.9945 27.8517C24.0516 27.8517 24.0801 27.9078 24.3368 28.2722C24.8217 29.0011 25.221 29.9822 25.3065 30.7671L25.3351 30.9353L24.1371 31.3838C21.998 32.1968 20.03 33.0097 18.718 33.5984C18.3472 33.7666 17.6912 34.075 17.2634 34.2712C16.8355 34.4955 16.4933 34.6357 16.4933 34.6357C16.4933 34.6357 16.75 34.4394 17.0922 34.1871C19.6877 32.337 21.941 30.2906 23.6237 28.2722C23.7949 28.0479 23.966 27.8517 23.9945 27.8517ZM22.654 28.1601C22.6825 28.1881 21.6843 29.3094 21.0282 29.9822C19.3455 31.6642 17.6912 32.9817 15.6376 34.2712C15.3809 34.4394 15.1527 34.5796 15.1242 34.6076C15.0672 34.6357 15.1527 34.5516 16.0369 33.5984C16.6074 32.9817 17.0352 32.4771 17.5486 31.8604C17.8908 31.4399 17.9479 31.3838 18.4042 31.0475C19.6592 30.0943 22.597 28.132 22.654 28.1601Z" fill="url(#paint2_linear_6402_7102)"/>
<defs>
<linearGradient id="paint0_linear_6402_7102" x1="37.1683" y1="27.5732" x2="9.53464" y2="58.253" gradientUnits="userSpaceOnUse">
<stop stop-color="#00FF78"/>
<stop offset="1" stop-color="#00DBFF"/>
</linearGradient>
<linearGradient id="paint1_linear_6402_7102" x1="30.6165" y1="1.25" x2="22.0285" y2="15.8736" gradientUnits="userSpaceOnUse">
<stop stop-color="#00FF78"/>
<stop offset="1" stop-color="#00DBFF"/>
</linearGradient>
<linearGradient id="paint2_linear_6402_7102" x1="56.2528" y1="7.10742" x2="27.762" y2="48.624" gradientUnits="userSpaceOnUse">
<stop stop-color="#00FF78"/>
<stop offset="1" stop-color="#00DBFF"/>
</linearGradient>
</defs>
</svg>
