<svg width="60" height="60" viewBox="0 0 60 60" fill="none" xmlns="http://www.w3.org/2000/svg">
<path d="M51.4172 10.3306C51.1605 10.0548 50.8181 9.89313 50.4377 9.87412C50.0669 9.87412 49.7055 9.98823 49.4297 10.245C48.8592 10.768 48.8211 11.6619 49.3442 12.2325C53.0624 16.274 55.3732 21.2474 56.0483 26.6583H42.5069C41.3277 22.1984 37.7711 18.6513 33.3017 17.4817V3.94972C37.6475 4.49176 41.8032 6.11788 45.3407 8.66641C45.9683 9.12287 46.8527 8.98023 47.2996 8.3526C47.5183 8.0483 47.6039 7.67743 47.5469 7.30656C47.4898 6.93569 47.2901 6.61237 46.9858 6.39365C42.5924 3.227 37.4098 1.36315 31.9894 1.00179C31.609 0.982769 31.2191 1.1159 30.9338 1.38217C30.6485 1.64843 30.4869 2.0193 30.4869 2.40919V18.6228C30.4869 19.317 30.9814 19.8971 31.6661 20.0112C35.9263 20.7054 39.2736 24.0337 39.9868 28.2939C40.101 28.9786 40.681 29.4636 41.3752 29.4636H57.5984C57.9883 29.4636 58.3591 29.3019 58.6254 29.0167C58.8917 28.7314 59.0248 28.351 58.9963 27.9611C58.5493 21.3235 55.9247 15.2184 51.4172 10.3211V10.3306Z" fill="url(#paint0_linear_6400_6932)"/>
<path d="M58.6254 30.8235C58.3591 30.5382 57.9883 30.3765 57.5984 30.3765H41.3847C40.6905 30.3765 40.101 30.871 39.9963 31.5652C39.7491 33.0867 39.15 34.5702 38.2371 35.8254C37.8377 36.3865 37.8948 37.1472 38.3893 37.6417L49.8672 49.1197C50.1334 49.3859 50.4853 49.5286 50.9037 49.5286C51.2936 49.5191 51.6549 49.3384 51.9117 49.0531C56.1339 44.2223 58.5874 38.2884 58.9963 31.879C59.0248 31.4891 58.8821 31.1087 58.6159 30.8235H58.6254ZM56.0578 33.1913C55.4873 37.889 53.6614 42.3014 50.7611 46.0291L41.185 36.4531C41.7841 35.426 42.2311 34.3324 42.5259 33.1913H56.0578Z" fill="url(#paint1_linear_6400_6932)"/>
<path d="M49.23 49.7663L37.7616 38.2979C37.2671 37.8034 36.5064 37.7463 35.9453 38.1553C34.2146 39.4105 32.1796 40.0667 30.0399 40.0667C24.4769 40.0667 19.9504 35.5402 19.9504 29.9771C19.9504 25.0037 23.5069 20.8195 28.4138 20.0207C29.0985 19.9066 29.593 19.3265 29.593 18.6323V2.40919C29.593 2.0193 29.4313 1.64843 29.1461 1.38217C28.8608 1.1159 28.4899 0.982769 28.0905 1.00179C21.0915 1.46775 14.492 4.46323 9.51853 9.43668C4.02206 14.9236 0.998047 22.2174 0.998047 29.9676C0.998047 37.7178 4.02206 45.0116 9.49951 50.4985C14.9865 55.9855 22.2707 59 30.0304 59C37.0865 59 43.8762 56.4419 49.154 51.8108C49.4488 51.5541 49.6199 51.1832 49.6294 50.8028C49.6389 50.4129 49.4963 50.0421 49.2205 49.7663H49.23ZM20.2357 21.5803C18.2292 23.9196 17.1261 26.8961 17.1261 29.9771C17.1261 37.0902 22.9174 42.8815 30.0304 42.8815C32.3412 42.8815 34.595 42.2633 36.5729 41.0937L46.1395 50.6602C41.5654 54.2358 35.8597 56.1947 30.0304 56.1947C23.022 56.1947 16.4414 53.4655 11.487 48.5111C6.53255 43.5566 3.80334 36.9761 3.80334 29.9676C3.80334 22.9591 6.53255 16.3786 11.487 11.4242C15.6046 7.30656 21.0155 4.66293 26.7592 3.94972V17.4817C24.2392 18.1473 21.9379 19.5833 20.2357 21.5708V21.5803Z" fill="url(#paint2_linear_6400_6932)"/>
<defs>
<linearGradient id="paint0_linear_6400_6932" x1="59.0001" y1="0.999997" x2="5.46159" y2="54.5403" gradientUnits="userSpaceOnUse">
<stop stop-color="#00FF78"/>
<stop offset="1" stop-color="#00DBFF"/>
</linearGradient>
<linearGradient id="paint1_linear_6400_6932" x1="59.0001" y1="0.999997" x2="5.46159" y2="54.5403" gradientUnits="userSpaceOnUse">
<stop stop-color="#00FF78"/>
<stop offset="1" stop-color="#00DBFF"/>
</linearGradient>
<linearGradient id="paint2_linear_6400_6932" x1="59.0001" y1="0.999997" x2="5.46159" y2="54.5403" gradientUnits="userSpaceOnUse">
<stop stop-color="#00FF78"/>
<stop offset="1" stop-color="#00DBFF"/>
</linearGradient>
</defs>
</svg>
