<svg width="60" height="60" viewBox="0 0 60 60" fill="none" xmlns="http://www.w3.org/2000/svg">
<path d="M16.9608 42.8361C14.0232 42.8361 11.6333 45.3134 11.6333 48.3584V57.2237C11.6333 58.2048 12.4005 59 13.3469 59C14.2933 59 15.0604 58.2048 15.0604 57.2237V54.2041H16.9299C19.962 54.2041 22.4287 51.6471 22.4287 48.5041C22.4287 45.3788 19.9758 42.8361 16.9608 42.8361ZM16.9299 50.6516H15.0604V48.3584C15.0604 47.2723 15.9129 46.3886 16.9608 46.3886C18.0861 46.3886 19.0016 47.3376 19.0016 48.5041C19.0016 49.6882 18.0723 50.6516 16.9299 50.6516Z" fill="url(#paint0_linear_6402_7108)"/>
<path d="M47.6184 49.9411H42.8205V48.3584C42.8205 47.2723 43.673 46.3886 44.7208 46.3886H47.6184C48.5648 46.3886 49.332 45.5934 49.332 44.6123C49.332 43.6313 48.5648 42.8361 47.6184 42.8361H44.7208C41.7833 42.8361 39.3934 45.3134 39.3934 48.3584V57.2237C39.3934 58.2048 40.1606 59 41.1069 59C42.0533 59 42.8205 58.2048 42.8205 57.2237V53.4936H47.6184C48.5648 53.4936 49.332 52.6984 49.332 51.7174C49.332 50.7363 48.5648 49.9411 47.6184 49.9411Z" fill="url(#paint1_linear_6402_7108)"/>
<path d="M28.7385 42.8361C26.9623 42.8361 25.517 44.3357 25.517 46.179V55.6571C25.517 57.5003 26.9622 59 28.7385 59C30.8081 59 32.7536 58.1629 34.2167 56.6428C35.6787 55.1239 36.4839 53.1046 36.4838 50.957V50.8788C36.4837 46.444 33.0091 42.8361 28.7385 42.8361ZM33.0567 50.957C33.0567 52.1572 32.607 53.2853 31.7906 54.1337C31.0239 54.9303 30.0197 55.3904 28.9441 55.4425V46.3936C31.2301 46.5055 33.0566 48.4746 33.0567 50.8789V50.957Z" fill="url(#paint2_linear_6402_7108)"/>
<path fill-rule="evenodd" clip-rule="evenodd" d="M32.6364 6.07104V18.7486C32.6364 20.7669 33.4695 22.7015 34.9537 24.1265C36.4354 25.554 38.4469 26.3552 40.5455 26.3552H53.7273V36.4973C53.7273 37.8969 54.9084 39.0328 56.3636 39.0328C57.8189 39.0328 59 37.8969 59 36.4973V23.8197C59 23.1478 58.7232 22.5012 58.2275 22.0271L37.1366 1.74291C36.6436 1.26623 35.9714 1 35.2727 1C35.2727 1 17.9096 1 8.90909 1C4.54064 1 1 4.4052 1 8.60656V36.4973C1 37.8969 2.18109 39.0328 3.63636 39.0328C5.09164 39.0328 6.27273 37.8969 6.27273 36.4973C6.27273 36.4973 6.27273 17.8511 6.27273 8.60656C6.27273 7.20695 7.45382 6.07104 8.90909 6.07104H32.6364ZM37.9091 9.65626V18.7486C37.9091 19.4205 38.1859 20.0671 38.6815 20.5412C39.1745 21.0179 39.8468 21.2842 40.5455 21.2842H49.9995L37.9091 9.65626Z" fill="url(#paint3_linear_6402_7108)"/>
<defs>
<linearGradient id="paint0_linear_6402_7108" x1="59" y1="0.999997" x2="5.46153" y2="54.5385" gradientUnits="userSpaceOnUse">
<stop stop-color="#00FF78"/>
<stop offset="1" stop-color="#00DBFF"/>
</linearGradient>
<linearGradient id="paint1_linear_6402_7108" x1="59" y1="0.999997" x2="5.46153" y2="54.5385" gradientUnits="userSpaceOnUse">
<stop stop-color="#00FF78"/>
<stop offset="1" stop-color="#00DBFF"/>
</linearGradient>
<linearGradient id="paint2_linear_6402_7108" x1="59" y1="0.999997" x2="5.46153" y2="54.5385" gradientUnits="userSpaceOnUse">
<stop stop-color="#00FF78"/>
<stop offset="1" stop-color="#00DBFF"/>
</linearGradient>
<linearGradient id="paint3_linear_6402_7108" x1="59" y1="0.999997" x2="5.46153" y2="54.5385" gradientUnits="userSpaceOnUse">
<stop stop-color="#00FF78"/>
<stop offset="1" stop-color="#00DBFF"/>
</linearGradient>
</defs>
</svg>
