<svg width="60" height="60" viewBox="0 0 60 60" fill="none" xmlns="http://www.w3.org/2000/svg">
<path d="M35.8325 26.9076C35.8325 26.7818 35.8235 26.6469 35.8235 26.5031C35.8146 25.6491 35.1314 24.9479 34.2863 24.903C32.8121 24.8221 31.6794 24.3456 30.6996 23.3838C30.286 23.0062 29.6568 23.0062 29.2253 23.4017C28.2544 24.3456 27.1217 24.8221 25.6475 24.903C24.7935 24.9479 24.1193 25.6491 24.1103 26.5031C24.1103 26.6469 24.1103 26.7818 24.1013 26.9436C24.0743 28.5167 24.0294 30.4854 24.6946 32.2833C25.0632 33.2811 25.6205 34.1531 26.3576 34.8723C27.1847 35.6813 28.2724 36.3286 29.5849 36.778C29.6388 36.796 29.6927 36.814 29.7467 36.823C29.8276 36.841 29.8995 36.85 29.9804 36.85C30.0613 36.85 30.1332 36.85 30.2141 36.823C30.2681 36.814 30.322 36.796 30.3759 36.778C31.6884 36.3196 32.7671 35.6723 33.5942 34.8633C34.3313 34.1441 34.8886 33.2722 35.2572 32.2743C35.9224 30.4674 35.8865 28.4988 35.8595 26.9166V26.8986L35.8325 26.9076ZM34.0796 31.8518C33.4234 33.6407 32.0659 34.8723 29.9714 35.6184C27.8499 34.8813 26.4925 33.6497 25.8363 31.8608C25.2519 30.2787 25.2879 28.5167 25.3149 26.9616C25.3149 26.8267 25.3239 26.6829 25.3239 26.5211C25.3239 26.3143 25.4947 26.1435 25.7014 26.1255C26.5914 26.0716 27.3824 25.9008 28.1016 25.5952C28.7848 25.3075 29.3961 24.903 29.9534 24.3816C30.5198 24.912 31.131 25.3075 31.8053 25.5952C32.5244 25.9008 33.3155 26.0716 34.2054 26.1255C34.4122 26.1345 34.583 26.3053 34.583 26.5211C34.583 26.6829 34.583 26.8267 34.592 26.9526C34.619 28.5077 34.6549 30.2607 34.0706 31.8518H34.0796Z" fill="url(#paint0_linear_6400_7026)"/>
<path d="M29.9624 27.2043C28.9916 27.2043 28.2005 27.9953 28.2005 28.9662C28.2005 29.5415 28.4792 30.0719 28.9376 30.3955V31.6541H28.9286C28.9286 32.2294 29.3961 32.6878 29.9624 32.6878C30.5288 32.6878 30.9962 32.2204 30.9962 31.6541V30.3865C31.4547 30.0539 31.7333 29.5325 31.7333 28.9572C31.7333 27.9864 30.9423 27.1953 29.9714 27.1953L29.9624 27.2043Z" fill="url(#paint1_linear_6400_7026)"/>
<path d="M53.2451 36.1488C52.1394 35.3397 50.8359 34.9082 49.4695 34.9082C48.5436 34.9082 47.5997 35.115 46.7547 35.5105C45.9726 35.8791 45.2535 36.4095 44.6782 37.0657L42.278 35.6723C43.096 33.9014 43.5185 31.9417 43.5185 30C43.5185 28.0583 43.087 26.0986 42.278 24.3276L44.6872 22.9433C45.7119 24.1029 47.1143 24.858 48.6515 25.0738C50.2606 25.2895 51.8697 24.903 53.2002 23.9771C54.5306 23.0511 55.4565 21.6758 55.8071 20.0936C56.1577 18.5115 55.906 16.8754 55.088 15.473C54.2789 14.0707 52.9754 13.0369 51.4292 12.5515C49.8831 12.066 48.229 12.1919 46.7637 12.8841C45.2984 13.5763 44.1658 14.7808 43.5545 16.2821C42.9702 17.7204 42.9342 19.3115 43.4286 20.7768L41.0195 22.1612C39.8958 20.5701 38.4125 19.2216 36.7225 18.2418C35.0325 17.2709 33.1267 16.6596 31.185 16.4798V13.6572C32.6952 13.3605 34.0346 12.5245 34.9785 11.3109C35.9674 10.0434 36.4348 8.46125 36.3 6.86113C36.1651 5.261 35.437 3.77774 34.2594 2.69002C33.0728 1.60229 31.5446 1 29.9354 1C28.3263 1 26.7981 1.60229 25.6115 2.69002C24.4249 3.77774 23.7058 5.261 23.5709 6.86113C23.4361 8.46125 23.9035 10.0434 24.8924 11.3109C25.8363 12.5335 27.1757 13.3605 28.6859 13.6572V16.4798C26.7442 16.6596 24.8384 17.2709 23.1484 18.2418C21.4584 19.2126 19.9841 20.5701 18.8604 22.1522L16.4602 20.7588C16.694 20.0936 16.8108 19.4014 16.8108 18.7002C16.8108 17.199 16.2805 15.7427 15.3186 14.5921C14.3567 13.4414 13.0083 12.6683 11.534 12.4076C10.0598 12.1469 8.53154 12.4166 7.22807 13.1717C5.9246 13.9268 4.93576 15.1135 4.42336 16.5248C3.91096 17.9361 3.91096 19.4913 4.42336 20.8937C4.93576 22.305 5.94258 23.4916 7.23706 24.2378C8.54053 24.9839 10.0687 25.2536 11.543 24.9839C12.9544 24.7322 14.2488 24.004 15.2017 22.9253L17.6019 24.3187C16.7839 26.0896 16.3614 28.0493 16.3614 30C16.3614 31.9507 16.7929 33.9014 17.6019 35.6723L15.2017 37.0657C14.2488 35.996 12.9633 35.2678 11.543 35.0161C10.0687 34.7554 8.54053 35.0161 7.23706 35.7712C5.93359 36.5263 4.93576 37.704 4.42336 39.1153C3.91096 40.5267 3.91096 42.0728 4.42336 43.4842C4.93576 44.8955 5.93359 46.0821 7.22807 46.8373C8.53154 47.5834 10.0598 47.8531 11.534 47.5924C13.0083 47.3317 14.3567 46.5586 15.3186 45.4079C16.2805 44.2573 16.8108 42.801 16.8108 41.2997C16.8108 40.5896 16.694 39.8974 16.4602 39.2322L18.8604 37.8478C19.9841 39.4389 21.4674 40.7873 23.1484 41.7582C24.8384 42.7291 26.7442 43.3404 28.6859 43.5201V46.3428C27.1757 46.6395 25.8363 47.4755 24.8924 48.6891C23.9035 49.9566 23.4361 51.5387 23.5709 53.1389C23.7058 54.739 24.4339 56.2222 25.6115 57.31C26.7891 58.3977 28.3263 59 29.9354 59C31.5446 59 33.0728 58.3977 34.2594 57.31C35.437 56.2222 36.1651 54.739 36.3 53.1389C36.4348 51.5387 35.9674 49.9566 34.9785 48.6891C34.0346 47.4665 32.6952 46.6395 31.185 46.3428V43.5201C33.1267 43.3404 35.0325 42.7291 36.7225 41.7582C38.4125 40.7873 39.8868 39.4299 41.0105 37.8478L43.4106 39.2501C42.9881 40.4817 42.9522 41.7942 43.3118 43.0527C43.6893 44.3741 44.4534 45.5158 45.5411 46.3518C46.6199 47.1878 47.9144 47.6553 49.2898 47.6913C50.6741 47.7362 51.9776 47.3317 53.1013 46.5496C54.225 45.7675 55.052 44.6708 55.5015 43.3763C55.942 42.0818 55.9599 40.7064 55.5554 39.394C55.1419 38.0815 54.3418 36.9668 53.2361 36.1578L53.2451 36.1488ZM46.7188 15.9585C47.4559 15.2213 48.4268 14.8168 49.4606 14.8168C50.2337 14.8168 50.9798 15.0415 51.618 15.473C52.2563 15.9045 52.7507 16.5068 53.0473 17.217C53.344 17.9272 53.4159 18.7002 53.2721 19.4644C53.1193 20.2195 52.7507 20.9117 52.2113 21.451C51.663 21.9994 50.9798 22.359 50.2247 22.5118C49.4695 22.6646 48.6964 22.5837 47.9773 22.287C47.2671 21.9904 46.6648 21.496 46.2333 20.8577C45.8018 20.2195 45.5771 19.4733 45.5771 18.7002C45.5771 17.6754 45.9906 16.6776 46.7188 15.9585ZM13.1791 21.451C12.442 22.1882 11.4711 22.5837 10.4283 22.5837C9.65523 22.5837 8.9091 22.359 8.27085 21.9275C7.6326 21.496 7.13818 20.8937 6.84153 20.1835C6.54487 19.4733 6.47296 18.6913 6.61679 17.9361C6.76961 17.181 7.13818 16.4888 7.67755 15.9495C8.2259 15.4011 8.9091 15.0325 9.66422 14.8887C9.91592 14.8348 10.1676 14.8168 10.4283 14.8168C10.9317 14.8168 11.4351 14.9157 11.9116 15.1135C12.6217 15.4101 13.224 15.9045 13.6555 16.5428C14.087 17.181 14.3118 17.9272 14.3118 18.7002C14.3118 19.725 13.8983 20.7229 13.1791 21.451ZM13.1791 44.0415C12.442 44.7787 11.4711 45.1832 10.4283 45.1832C9.65523 45.1832 8.9091 44.9585 8.27085 44.527C7.6326 44.0955 7.13818 43.4932 6.84153 42.783C6.54487 42.0728 6.47296 41.2908 6.61679 40.5356C6.76961 39.7805 7.13818 39.0883 7.67755 38.549C8.21691 38.0096 8.9091 37.641 9.66422 37.4882C9.91592 37.4343 10.1676 37.4163 10.4283 37.4163C10.9317 37.4163 11.4351 37.5152 11.9116 37.713C12.6217 38.0096 13.224 38.504 13.6555 39.1423C14.087 39.7805 14.3118 40.5267 14.3118 41.2997C14.3118 42.3245 13.8983 43.3224 13.1791 44.0415ZM27.2027 10.1513C26.4655 9.41413 26.07 8.44327 26.07 7.40948C26.07 6.63639 26.2947 5.89027 26.7262 5.25201C27.1577 4.61376 27.76 4.11934 28.4702 3.82269C28.9466 3.62492 29.45 3.52604 29.9534 3.52604C30.2051 3.52604 30.4658 3.55301 30.7175 3.59795C31.4726 3.75077 32.1648 4.11934 32.7042 4.65871C33.2526 5.20707 33.6211 5.89027 33.765 6.64538C33.9178 7.4005 33.8369 8.17359 33.5402 8.89275C33.2436 9.60291 32.7491 10.2052 32.1109 10.6367C31.4726 11.0682 30.7265 11.2929 29.9534 11.2929C28.9196 11.2929 27.9398 10.8884 27.2027 10.1513ZM32.6952 49.8487C33.4323 50.5859 33.8369 51.5567 33.8369 52.5905C33.8369 53.3636 33.6121 54.1097 33.1806 54.748C32.7491 55.3862 32.1469 55.8806 31.4367 56.1773C30.7265 56.474 29.9444 56.5459 29.1893 56.402C28.4342 56.2492 27.742 55.8806 27.2027 55.3413C26.6543 54.7929 26.2947 54.1097 26.1419 53.3546C25.9891 52.5995 26.07 51.8264 26.3666 51.1072C26.6633 50.3971 27.1577 49.7948 27.796 49.3633C28.4342 48.9318 29.1803 48.7071 29.9534 48.7071C30.9782 48.7071 31.9761 49.1206 32.6952 49.8487ZM37.7832 37.8298C35.6887 39.9244 32.911 41.075 29.9534 41.075C27.76 41.075 25.6295 40.4278 23.8046 39.2052C21.9798 37.9826 20.5684 36.2656 19.7234 34.234C18.8784 32.2024 18.6627 29.991 19.0942 27.8335C19.5257 25.6761 20.5684 23.7164 22.1236 22.1612C23.6788 20.606 25.6385 19.5632 27.796 19.1317C28.5151 18.9879 29.2433 18.916 29.9624 18.916C31.4097 18.916 32.839 19.2037 34.1965 19.761C36.2281 20.597 37.9451 22.0084 39.1676 23.8422C40.3902 25.6671 41.0374 27.7976 41.0374 29.991C41.0374 32.9485 39.8868 35.7263 37.7922 37.8208L37.7832 37.8298ZM52.2113 44.0415C51.4742 44.7787 50.5033 45.1832 49.4606 45.1832C48.6875 45.1832 47.9413 44.9585 47.3031 44.527C46.6648 44.0955 46.1704 43.4932 45.8738 42.783C45.5771 42.0728 45.5052 41.2997 45.649 40.5356C45.8018 39.7805 46.1704 39.0883 46.7098 38.549C47.2581 38.0006 47.9413 37.641 48.6964 37.4882C48.9482 37.4343 49.1999 37.4163 49.4606 37.4163C49.964 37.4163 50.4674 37.5152 50.9438 37.713C51.654 38.0096 52.2563 38.504 52.6878 39.1423C53.1193 39.7805 53.344 40.5267 53.344 41.2997C53.344 42.3245 52.9305 43.3224 52.2023 44.0415H52.2113Z" fill="url(#paint2_linear_6400_7026)"/>
<defs>
<linearGradient id="paint0_linear_6400_7026" x1="55.9611" y1="0.999997" x2="2.74898" y2="48.6358" gradientUnits="userSpaceOnUse">
<stop stop-color="#00FF78"/>
<stop offset="1" stop-color="#00DBFF"/>
</linearGradient>
<linearGradient id="paint1_linear_6400_7026" x1="55.9611" y1="0.999997" x2="2.74898" y2="48.6358" gradientUnits="userSpaceOnUse">
<stop stop-color="#00FF78"/>
<stop offset="1" stop-color="#00DBFF"/>
</linearGradient>
<linearGradient id="paint2_linear_6400_7026" x1="55.9611" y1="0.999997" x2="2.74898" y2="48.6358" gradientUnits="userSpaceOnUse">
<stop stop-color="#00FF78"/>
<stop offset="1" stop-color="#00DBFF"/>
</linearGradient>
</defs>
</svg>
