<svg width="60" height="60" viewBox="0 0 60 60" fill="none" xmlns="http://www.w3.org/2000/svg">
<g clip-path="url(#clip0_6403_7155)">
<path d="M51.875 3.74219H10.625C9.13316 3.74219 7.70242 4.33482 6.64752 5.38971C5.59263 6.4446 5 7.87534 5 9.36719V50.6172C5 52.109 5.59263 53.5398 6.64752 54.5947C7.70242 55.6496 9.13316 56.2422 10.625 56.2422H51.875C53.3668 56.2422 54.7976 55.6496 55.8525 54.5947C56.9074 53.5398 57.5 52.109 57.5 50.6172V9.36719C57.5 7.87534 56.9074 6.4446 55.8525 5.38971C54.7976 4.33482 53.3668 3.74219 51.875 3.74219ZM53.75 50.6172C53.75 51.1145 53.5525 51.5914 53.2008 51.943C52.8492 52.2946 52.3723 52.4922 51.875 52.4922H10.625C10.1277 52.4922 9.65081 52.2946 9.29918 51.943C8.94754 51.5914 8.75 51.1145 8.75 50.6172V18.7422H53.75V50.6172ZM53.75 14.9922H8.75V9.36719C8.75 8.86991 8.94754 8.39299 9.29918 8.04136C9.65081 7.68973 10.1277 7.49219 10.625 7.49219H51.875C52.3723 7.49219 52.8492 7.68973 53.2008 8.04136C53.5525 8.39299 53.75 8.86991 53.75 9.36719V14.9922Z" fill="url(#paint0_linear_6403_7155)"/>
<path d="M14.375 9.36719H12.5C12.0027 9.36719 11.5258 9.56473 11.1742 9.91636C10.8225 10.268 10.625 10.7449 10.625 11.2422C10.625 11.7395 10.8225 12.2164 11.1742 12.568C11.5258 12.9196 12.0027 13.1172 12.5 13.1172H14.375C14.8723 13.1172 15.3492 12.9196 15.7008 12.568C16.0525 12.2164 16.25 11.7395 16.25 11.2422C16.25 10.7449 16.0525 10.268 15.7008 9.91636C15.3492 9.56473 14.8723 9.36719 14.375 9.36719Z" fill="url(#paint1_linear_6403_7155)"/>
<path d="M21.875 9.36719H20C19.5027 9.36719 19.0258 9.56473 18.6742 9.91636C18.3225 10.268 18.125 10.7449 18.125 11.2422C18.125 11.7395 18.3225 12.2164 18.6742 12.568C19.0258 12.9196 19.5027 13.1172 20 13.1172H21.875C22.3723 13.1172 22.8492 12.9196 23.2008 12.568C23.5525 12.2164 23.75 11.7395 23.75 11.2422C23.75 10.7449 23.5525 10.268 23.2008 9.91636C22.8492 9.56473 22.3723 9.36719 21.875 9.36719Z" fill="url(#paint2_linear_6403_7155)"/>
<path d="M16.25 33.7422H46.25C47.2446 33.7422 48.1984 33.3471 48.9016 32.6438C49.6049 31.9406 50 30.9867 50 29.9922V26.2422C50 25.2476 49.6049 24.2938 48.9016 23.5905C48.1984 22.8873 47.2446 22.4922 46.25 22.4922H16.25C15.2554 22.4922 14.3016 22.8873 13.5983 23.5905C12.8951 24.2938 12.5 25.2476 12.5 26.2422V29.9922C12.5 30.9867 12.8951 31.9406 13.5983 32.6438C14.3016 33.3471 15.2554 33.7422 16.25 33.7422ZM16.25 26.2422H46.25V29.9922H16.25V26.2422Z" fill="url(#paint3_linear_6403_7155)"/>
<path d="M44.375 37.4922H36.875C35.3832 37.4922 33.9524 38.0848 32.8975 39.1397C31.8426 40.1946 31.25 41.6253 31.25 43.1172C31.25 44.609 31.8426 46.0398 32.8975 47.0947C33.9524 48.1496 35.3832 48.7422 36.875 48.7422H44.375C45.8668 48.7422 47.2976 48.1496 48.3525 47.0947C49.4074 46.0398 50 44.609 50 43.1172C50 41.6253 49.4074 40.1946 48.3525 39.1397C47.2976 38.0848 45.8668 37.4922 44.375 37.4922ZM44.375 44.9922H36.875C36.3777 44.9922 35.9008 44.7946 35.5492 44.443C35.1975 44.0914 35 43.6145 35 43.1172C35 42.6199 35.1975 42.143 35.5492 41.7914C35.9008 41.4397 36.3777 41.2422 36.875 41.2422H44.375C44.8723 41.2422 45.3492 41.4397 45.7008 41.7914C46.0525 42.143 46.25 42.6199 46.25 43.1172C46.25 43.6145 46.0525 44.0914 45.7008 44.443C45.3492 44.7946 44.8723 44.9922 44.375 44.9922Z" fill="url(#paint4_linear_6403_7155)"/>
</g>
<defs>
<linearGradient id="paint0_linear_6403_7155" x1="57.5" y1="3.74218" x2="9.03846" y2="52.2037" gradientUnits="userSpaceOnUse">
<stop stop-color="#00FF78"/>
<stop offset="1" stop-color="#00DBFF"/>
</linearGradient>
<linearGradient id="paint1_linear_6403_7155" x1="16.25" y1="9.36719" x2="13.0547" y2="14.1601" gradientUnits="userSpaceOnUse">
<stop stop-color="#00FF78"/>
<stop offset="1" stop-color="#00DBFF"/>
</linearGradient>
<linearGradient id="paint2_linear_6403_7155" x1="23.75" y1="9.36719" x2="20.5547" y2="14.1601" gradientUnits="userSpaceOnUse">
<stop stop-color="#00FF78"/>
<stop offset="1" stop-color="#00DBFF"/>
</linearGradient>
<linearGradient id="paint3_linear_6403_7155" x1="50" y1="22.4922" x2="44.2837" y2="41.5465" gradientUnits="userSpaceOnUse">
<stop stop-color="#00FF78"/>
<stop offset="1" stop-color="#00DBFF"/>
</linearGradient>
<linearGradient id="paint4_linear_6403_7155" x1="50" y1="37.4922" x2="40.8371" y2="52.7637" gradientUnits="userSpaceOnUse">
<stop stop-color="#00FF78"/>
<stop offset="1" stop-color="#00DBFF"/>
</linearGradient>
<clipPath id="clip0_6403_7155">
<rect width="60" height="60" fill="white"/>
</clipPath>
</defs>
</svg>
