<svg width="60" height="60" viewBox="0 0 60 60" fill="none" xmlns="http://www.w3.org/2000/svg">
<g clip-path="url(#clip0_6400_7050)">
<g clip-path="url(#clip1_6400_7050)">
<path d="M10.8739 46.373L13.0541 54.8053H11.4083L9.95611 48.7314L7.21828 54.8053H5.82806L3.10572 48.7662L1.61095 54.8053H0L2.16084 46.373H3.5859L6.52898 52.902L9.46044 46.373H10.8739Z" fill="url(#paint0_linear_6400_7050)"/>
<path d="M19.272 49.6318V48.6501H20.8617V54.8054H19.272V53.8141C18.8519 54.5266 17.9883 54.9351 16.9369 54.9351C14.7393 54.9351 13.5137 53.3861 13.5137 51.6048C13.5137 49.8874 14.6754 48.5068 16.7026 48.5068C17.8586 48.5204 18.817 48.9076 19.272 49.6318ZM15.2059 51.6881C15.2059 52.8208 15.9185 53.7908 17.2971 53.7908C18.6273 53.7908 19.3514 52.844 19.3514 51.7229C19.3514 50.6018 18.604 49.6434 17.2216 49.6434C15.8972 49.6434 15.2079 50.5999 15.2079 51.6881H15.2059Z" fill="url(#paint1_linear_6400_7050)"/>
<path d="M24.4451 54.8058H22.8574V48.6505H24.4451V50.0291C24.6267 49.5881 24.9337 49.21 25.3282 48.9419C25.7227 48.6738 26.1871 48.5273 26.6641 48.5208C27.0021 48.5161 27.3384 48.5712 27.6573 48.6834L27.3185 49.8452C27.0442 49.7724 26.762 49.7334 26.4782 49.729C25.3319 49.729 24.4451 50.5926 24.4451 51.8588V54.8058Z" fill="url(#paint2_linear_6400_7050)"/>
<path d="M28.4516 47.0262C28.4485 46.9146 28.4685 46.8035 28.5106 46.7C28.5526 46.5965 28.6156 46.5028 28.6957 46.4249C28.7758 46.347 28.8711 46.2866 28.9758 46.2475C29.0804 46.2083 29.192 46.1913 29.3035 46.1975C29.4172 46.1938 29.5304 46.2133 29.6364 46.2548C29.7423 46.2962 29.8386 46.3588 29.9196 46.4387C30.0006 46.5185 30.0644 46.6141 30.1073 46.7194C30.1502 46.8247 30.1712 46.9377 30.169 47.0514C30.1712 47.1635 30.15 47.2748 30.1066 47.3782C30.0633 47.4815 29.9988 47.5747 29.9173 47.6517C29.8357 47.7286 29.739 47.7877 29.6333 47.825C29.5276 47.8624 29.4153 47.8772 29.3035 47.8685C29.1912 47.8734 29.079 47.855 28.9741 47.8145C28.8692 47.774 28.7738 47.7123 28.6938 47.6332C28.6138 47.5542 28.551 47.4595 28.5094 47.355C28.4677 47.2506 28.448 47.1386 28.4516 47.0262ZM28.5213 48.6507H30.1109V53.1486C30.1109 53.4274 30.169 53.6269 30.4014 53.6269C30.5035 53.6243 30.6053 53.6127 30.7054 53.592L30.9513 54.7538C30.6166 54.8857 30.2596 54.9515 29.8999 54.9474C29.2338 54.9474 28.5213 54.7538 28.5213 53.2416V48.6507Z" fill="url(#paint3_linear_6400_7050)"/>
<path d="M37.2096 49.6318V48.6501H38.805V54.8054H37.2154V53.8141C36.7952 54.5266 35.9317 54.9351 34.8803 54.9351C32.6846 54.9351 31.457 53.3861 31.457 51.6048C31.457 49.8874 32.6188 48.5068 34.646 48.5068C35.7961 48.5204 36.7546 48.9076 37.2096 49.6318ZM33.1435 51.6881C33.1435 52.8208 33.856 53.7908 35.2346 53.7908C36.5667 53.7908 37.2909 52.844 37.2909 51.7229C37.2909 50.6018 36.5416 49.6434 35.161 49.6434C33.8347 49.6434 33.1454 50.5999 33.1454 51.6881H33.1435Z" fill="url(#paint4_linear_6400_7050)"/>
<path d="M41.2402 46.373H45.0488C48.2494 46.373 49.8487 48.137 49.8255 50.5882C49.8487 53.1363 48.0829 54.8053 45.3296 54.8053H41.2402V46.373ZM42.2916 47.1204V54.0696H45.196C47.7421 54.0696 48.7122 52.3521 48.7122 50.565C48.7122 48.5455 47.4981 47.1204 45.196 47.1204H42.2916Z" fill="url(#paint5_linear_6400_7050)"/>
<path d="M56.3191 54.8053H51.4785V46.373H55.8447C57.5138 46.373 59.1034 46.6867 59.0802 48.5571C59.0802 49.8757 58.2611 50.2397 57.3976 50.3791C58.6232 50.4837 59.3609 51.2659 59.3609 52.5283C59.3687 54.42 57.7093 54.8053 56.3191 54.8053ZM55.957 50.0519C57.628 50.0519 58.0017 49.4091 58.0017 48.592C58.0017 47.3644 57.2543 47.0856 55.957 47.0856H52.4873V50.0519H55.957ZM56.0035 50.7644H52.4873V54.0928H56.1545C57.1827 54.0928 58.2689 53.754 58.2689 52.4586C58.2689 50.9639 57.02 50.7644 56.0035 50.7644Z" fill="url(#paint6_linear_6400_7050)"/>
<path d="M59.7334 6.18471C59.5791 6.05759 59.3833 5.99206 59.1835 6.00077C58.6356 6.00077 57.9269 6.37252 57.5455 6.57196L57.3945 6.64941C56.7546 6.95915 56.0581 7.13444 55.3479 7.16444C54.6198 7.18768 53.9925 7.23028 53.1754 7.31547C48.3348 7.81308 46.1759 11.5229 44.0964 15.1107C42.9637 17.0625 41.7942 19.0897 40.191 20.6387C39.8593 20.9603 39.5068 21.2598 39.1358 21.5352C37.4764 22.7685 35.393 23.6495 33.7724 24.273C32.2118 24.8694 30.5079 25.4057 28.8621 25.9246C27.3538 26.399 25.9307 26.8482 24.6218 27.3342C24.0312 27.553 23.5297 27.7214 23.0863 27.8686C21.8936 28.2558 21.0339 28.5521 19.7773 29.4176C19.2874 29.7525 18.7956 30.1146 18.4626 30.3857C17.4651 31.1816 16.5823 32.1114 15.839 33.1487C15.1999 34.1056 14.4613 34.9921 13.6356 35.7936C13.3703 36.0531 12.8998 36.1808 12.195 36.1808C11.3702 36.1808 10.3692 36.0105 9.31004 35.8304C8.218 35.6368 7.08918 35.4528 6.12106 35.4528C5.33495 35.4528 4.73278 35.5806 4.28358 35.8401C4.28358 35.8401 3.52651 36.2815 3.20703 36.8527L3.5207 36.9941C4.00712 37.2578 4.45746 37.5832 4.86057 37.9622C5.28116 38.3506 5.74965 38.6838 6.25466 38.9535C6.41587 39.0126 6.56247 39.1057 6.68451 39.2265C6.55284 39.4202 6.35922 39.6699 6.15591 39.9371C5.03871 41.399 4.3862 42.3226 4.75989 42.826C4.939 42.919 5.13904 42.9644 5.34076 42.9577C7.77654 42.9577 9.08544 42.3245 10.7409 41.5229C11.2211 41.2906 11.709 41.0524 12.2899 40.8065C13.258 40.3863 14.2997 39.7164 15.4053 39.0077C16.8517 38.0648 18.3639 37.0967 19.8315 36.63C21.0377 36.2622 22.2941 36.0858 23.5549 36.1073C25.1039 36.1073 26.7342 36.3144 28.3064 36.5158C29.4778 36.6668 30.6919 36.8217 31.8826 36.8934C32.3454 36.9205 32.7733 36.934 33.1896 36.934C33.7465 36.9357 34.303 36.9066 34.8567 36.8469L34.9903 36.8004C35.8248 36.2873 36.2159 35.1856 36.5954 34.1207C36.8394 33.4353 37.0446 32.8195 37.3699 32.4284C37.3891 32.4093 37.4098 32.3918 37.4319 32.3761C37.4471 32.3677 37.4648 32.3646 37.482 32.3674C37.4992 32.3702 37.515 32.3787 37.5268 32.3916C37.5268 32.3916 37.5268 32.4013 37.5268 32.4226C37.3331 36.5874 35.6564 39.2323 33.9602 41.5829L32.8275 42.797C32.8275 42.797 34.4133 42.797 35.3156 42.4484C38.6072 41.4648 41.0914 39.2962 42.8998 35.8381C43.3458 34.9504 43.7446 34.0398 44.0945 33.11C44.1255 33.0325 44.4101 32.8892 44.383 33.29C44.3733 33.4082 44.3655 33.5398 44.3559 33.6773C44.3559 33.7586 44.3559 33.8419 44.3404 33.9251C44.2939 34.506 44.1564 35.7336 44.1564 35.7336L45.173 35.1895C47.6242 33.6405 49.514 30.5154 50.9468 25.6535C51.5432 23.6282 51.9807 21.6165 52.3661 19.8448C52.8269 17.715 53.2238 15.8891 53.6788 15.1805C54.3933 14.0691 55.4834 13.3178 56.5386 12.5878C56.6819 12.4891 56.8271 12.3942 56.9685 12.2897C58.2948 11.3583 59.6134 10.2837 59.9038 8.27971V8.23518C60.1149 6.74041 59.9367 6.35897 59.7334 6.18471Z" fill="url(#paint7_linear_6400_7050)"/>
</g>
</g>
<defs>
<linearGradient id="paint0_linear_6400_7050" x1="13.0541" y1="46.373" x2="5.95887" y2="57.3572" gradientUnits="userSpaceOnUse">
<stop stop-color="#00FF78"/>
<stop offset="1" stop-color="#00DBFF"/>
</linearGradient>
<linearGradient id="paint1_linear_6400_7050" x1="20.8617" y1="48.5068" x2="14.9805" y2="55.2294" gradientUnits="userSpaceOnUse">
<stop stop-color="#00FF78"/>
<stop offset="1" stop-color="#00DBFF"/>
</linearGradient>
<linearGradient id="paint2_linear_6400_7050" x1="27.6573" y1="48.5205" x2="22.0602" y2="52.7949" gradientUnits="userSpaceOnUse">
<stop stop-color="#00FF78"/>
<stop offset="1" stop-color="#00DBFF"/>
</linearGradient>
<linearGradient id="paint3_linear_6400_7050" x1="30.9513" y1="46.1963" x2="26.684" y2="47.4154" gradientUnits="userSpaceOnUse">
<stop stop-color="#00FF78"/>
<stop offset="1" stop-color="#00DBFF"/>
</linearGradient>
<linearGradient id="paint4_linear_6400_7050" x1="38.805" y1="48.5068" x2="32.9239" y2="55.2294" gradientUnits="userSpaceOnUse">
<stop stop-color="#00FF78"/>
<stop offset="1" stop-color="#00DBFF"/>
</linearGradient>
<linearGradient id="paint5_linear_6400_7050" x1="49.8257" y1="46.373" x2="42.0433" y2="54.2968" gradientUnits="userSpaceOnUse">
<stop stop-color="#00FF78"/>
<stop offset="1" stop-color="#00DBFF"/>
</linearGradient>
<linearGradient id="paint6_linear_6400_7050" x1="59.3609" y1="46.373" x2="51.595" y2="53.6326" gradientUnits="userSpaceOnUse">
<stop stop-color="#00FF78"/>
<stop offset="1" stop-color="#00DBFF"/>
</linearGradient>
<linearGradient id="paint7_linear_6400_7050" x1="59.9988" y1="6" x2="28.8064" y2="53.9317" gradientUnits="userSpaceOnUse">
<stop stop-color="#00FF78"/>
<stop offset="1" stop-color="#00DBFF"/>
</linearGradient>
<clipPath id="clip0_6400_7050">
<rect width="60" height="60" fill="white"/>
</clipPath>
<clipPath id="clip1_6400_7050">
<rect width="60" height="48.9325" fill="white" transform="translate(0 6.00098)"/>
</clipPath>
</defs>
</svg>
