<svg width="60" height="60" viewBox="0 0 60 60" fill="none" xmlns="http://www.w3.org/2000/svg">
<path d="M59 4.39844C59 2.52454 57.4755 1 55.6016 1H46.8789C45.005 1 43.4805 2.52454 43.4805 4.39844V7.79688C43.4805 8.41562 43.6476 8.99573 43.9377 9.49609C43.6476 9.99634 43.4805 10.5765 43.4805 11.1953V14.5938C43.4805 16.4676 45.005 17.9922 46.8789 17.9922H49.541V20.9974H42.6776C42.3688 19.8841 41.3635 18.4181 38.4485 17.3081C36.1592 16.4363 33.1588 15.9561 30 15.9561C26.8412 15.9561 23.8408 16.4362 21.5515 17.3081C18.6365 18.4182 17.6312 19.8841 17.3224 20.9974H10.4023V17.9922H13.1211C14.995 17.9922 16.5195 16.4676 16.5195 14.5938V11.1953C16.5195 10.5766 16.3524 9.99646 16.0623 9.49609C16.3524 8.99584 16.5195 8.41573 16.5195 7.79688V4.39844C16.5195 2.52454 14.995 1 13.1211 1H4.39844C2.52454 1 1 2.52454 1 4.39844V7.79688C1 8.41562 1.16709 8.99573 1.4572 9.49609C1.16709 9.99634 1 10.5765 1 11.1953V14.5938C1 16.4676 2.52454 17.9922 4.39844 17.9922H7.00391V22.6966C7.00391 23.6351 7.7647 24.3959 8.70312 24.3959H17.1993L17.1992 35.6641H8.70312C7.7647 35.6641 7.00391 36.4249 7.00391 37.3633V42.0078H4.39844C2.52454 42.0078 1 43.5324 1 45.4062V48.8047C1 49.4234 1.16709 50.0035 1.4572 50.5039C1.16709 51.0042 1 51.5843 1 52.2031V55.6016C1 57.4755 2.52454 59 4.39844 59H13.1211C14.995 59 16.5195 57.4755 16.5195 55.6016V52.2031C16.5195 51.5844 16.3524 51.0043 16.0623 50.5039C16.3524 50.0037 16.5195 49.4235 16.5195 48.8047V45.4062C16.5195 43.5324 14.995 42.0078 13.1211 42.0078H10.4023V39.0625H17.3388C17.6661 40.1697 18.6854 41.6052 21.5453 42.6943C23.8305 43.5646 26.8331 44.0439 30 44.0439C33.1669 44.0439 36.1695 43.5646 38.4547 42.6943C41.3146 41.6051 42.3341 40.1697 42.6612 39.0625H49.541V42.0078H46.8789C45.005 42.0078 43.4805 43.5324 43.4805 45.4062V48.8047C43.4805 49.4234 43.6476 50.0035 43.9377 50.5039C43.6476 51.0042 43.4805 51.5843 43.4805 52.2031V55.6016C43.4805 57.4755 45.005 59 46.8789 59H55.6016C57.4755 59 59 57.4755 59 55.6016V52.2031C59 51.5844 58.8329 51.0043 58.5428 50.5039C58.8329 50.0037 59 49.4235 59 48.8047V45.4062C59 43.5324 57.4755 42.0078 55.6016 42.0078H52.9395V37.3633C52.9395 36.4249 52.1787 35.6641 51.2402 35.6641H42.8008V24.3959H51.2402C52.1787 24.3959 52.9395 23.6351 52.9395 22.6966V17.9922H55.6016C57.4755 17.9922 59 16.4676 59 14.5938V11.1953C59 10.5766 58.8329 9.99646 58.5428 9.49609C58.8329 8.99584 59 8.41573 59 7.79688V4.39844ZM13.1211 4.39844V7.79688H4.39844L4.3981 4.39844H13.1211ZM4.3981 11.1953H4.39844H13.1211V14.5938H4.39844L4.3981 11.1953ZM13.1211 55.6016H4.39844L4.3981 52.2031H4.39844H13.1211V55.6016ZM13.1211 48.8047H4.39844L4.3981 45.4062H13.1211V48.8047ZM55.6016 55.6016H46.8789L46.8786 52.2031H46.8789H55.6016V55.6016ZM55.6016 48.8047H46.8789L46.8786 45.4062H55.6016V48.8047ZM20.5977 26.0514C20.8906 26.1911 21.2073 26.3273 21.5514 26.4584C23.8407 27.3302 26.841 27.8104 29.9999 27.8104C33.1587 27.8104 36.1591 27.3303 38.4484 26.4584C38.7927 26.3273 39.1095 26.1911 39.4025 26.0512L39.4023 29.7931C39.3721 29.9346 38.8594 30.6295 37.0051 31.2889C35.1212 31.9587 32.6333 32.3276 30 32.3276C27.3666 32.3276 24.8788 31.9587 22.9949 31.2889C21.1344 30.6275 20.6244 29.93 20.5978 29.7995L20.5977 26.0514ZM23.0205 20.3887C24.9056 19.7218 27.3842 19.3545 30 19.3545C32.6158 19.3545 35.0945 19.7218 36.9795 20.3887C38.8311 21.0438 39.3505 21.7164 39.4005 21.8831C39.3505 22.0498 38.8312 22.7225 36.9796 23.3775C35.0945 24.0445 32.6158 24.4117 30 24.4117C27.3842 24.4117 24.9054 24.0445 23.0204 23.3775C21.1688 22.7224 20.6495 22.0497 20.5995 21.8831C20.6495 21.7164 21.1689 21.0438 23.0205 20.3887ZM37.0052 39.6067C35.1213 40.2765 32.6334 40.6454 30 40.6454C27.3664 40.6454 24.8787 40.2765 22.9948 39.6067C21.1327 38.9446 20.6234 38.2465 20.5977 38.1168V33.9721C20.8888 34.111 21.2035 34.2462 21.5453 34.3764C23.8305 35.2467 26.8331 35.726 30 35.726C33.1669 35.726 36.1695 35.2467 38.4547 34.3764C38.7966 34.2462 39.1114 34.1109 39.4027 33.972L39.4029 38.1092C39.3765 38.2465 38.8672 38.9446 37.0052 39.6067ZM55.6016 4.39844V7.79688H46.8789L46.8786 4.39844H55.6016ZM55.6016 14.5938H46.8789L46.8786 11.1953H46.8789H55.6016V14.5938Z" fill="url(#paint0_linear_6402_7105)"/>
<defs>
<linearGradient id="paint0_linear_6402_7105" x1="59" y1="0.999997" x2="5.46154" y2="54.5385" gradientUnits="userSpaceOnUse">
<stop stop-color="#00FF78"/>
<stop offset="1" stop-color="#00DBFF"/>
</linearGradient>
</defs>
</svg>
