<svg width="60" height="60" viewBox="0 0 60 60" fill="none" xmlns="http://www.w3.org/2000/svg">
<g clip-path="url(#clip0_6402_7106)">
<path d="M19.1418 25.1136C19.1418 27.7621 18.5063 29.768 17.2198 31.1314C15.9333 32.5104 14.0578 33.1843 11.5934 33.1843C9.12888 33.1843 7.28439 32.4948 5.99791 31.1157C4.69592 29.7366 4.04492 27.7307 4.04492 25.0823C4.04492 22.4339 4.69592 20.475 5.98241 19.0959C7.26889 17.7169 9.14438 17.0273 11.6089 17.0273C14.0733 17.0273 15.9488 17.7169 17.2198 19.0803C18.4908 20.4437 19.1263 22.4496 19.1263 25.098L19.1418 25.1136ZM8.46239 25.1136C8.46239 28.1538 9.50088 29.6583 11.5934 29.6583C12.6628 29.6583 13.4378 29.2978 13.9493 28.5456C14.4608 27.8091 14.7243 26.6651 14.7243 25.098C14.7243 23.5309 14.4608 22.3712 13.9493 21.619C13.4223 20.8668 12.6474 20.4907 11.6244 20.4907C9.51638 20.4907 8.47788 22.0264 8.47788 25.0823L8.46239 25.1136Z" fill="url(#paint0_linear_6402_7106)"/>
<path d="M32.0998 28.2164C32.0998 29.188 31.8518 30.0499 31.3713 30.8178C30.8753 31.57 30.1778 32.1655 29.2633 32.573C28.3488 32.9961 27.2638 33.1998 26.0238 33.1998C24.9853 33.1998 24.1174 33.1215 23.4199 32.9804C22.7224 32.8394 21.9939 32.573 21.2344 32.2125V28.4358C22.0404 28.8432 22.8619 29.1723 23.7299 29.4074C24.5978 29.6425 25.3883 29.7522 26.1013 29.7522C26.7213 29.7522 27.1863 29.6425 27.4653 29.4231C27.7598 29.2037 27.8993 28.9216 27.8993 28.5768C27.8993 28.3574 27.8373 28.1694 27.7288 28.0127C27.6048 27.856 27.4188 27.6836 27.1708 27.5269C26.9073 27.3702 26.2253 27.0254 25.1093 26.5239C24.1019 26.0538 23.3424 25.615 22.8309 25.1762C22.3194 24.7374 21.9474 24.2359 21.6994 23.6718C21.4514 23.1076 21.3274 22.4337 21.3274 21.6659C21.3274 20.2241 21.8544 19.0958 22.8929 18.2809C23.9314 17.466 25.3573 17.0742 27.1863 17.0742C28.7983 17.0742 30.4258 17.4503 32.0998 18.2025L30.8133 21.4778C29.3563 20.8039 28.1008 20.4749 27.0468 20.4749C26.5043 20.4749 26.1013 20.5689 25.8533 20.7726C25.6053 20.9607 25.4813 21.2114 25.4813 21.4935C25.4813 21.8069 25.6363 22.0733 25.9618 22.324C26.2718 22.5748 27.1243 23.0136 28.5193 23.6561C29.8523 24.2673 30.7823 24.9255 31.3093 25.615C31.8363 26.3045 32.0843 27.1978 32.0843 28.2477L32.0998 28.2164Z" fill="url(#paint1_linear_6402_7106)"/>
<path d="M47.8008 32.9807H43.5849V26.5869H38.7179V32.9807H34.502V17.2939H38.7179V23.1079H43.5849V17.2939H47.8008V32.9964V32.9807Z" fill="url(#paint2_linear_6402_7106)"/>
<path d="M51.166 32.9807V17.2939H55.382V32.9964H51.166V32.9807Z" fill="url(#paint3_linear_6402_7106)"/>
<path d="M42.8719 50.7829H36.9974V49.3412C36.9974 48.542 36.3465 47.8838 35.556 47.8838H24.427C23.6366 47.8838 22.9856 48.542 22.9856 49.3412V50.7829H17.1111C16.1501 50.7829 15.3906 51.5665 15.3906 52.5224C15.3906 53.4784 16.1656 54.2619 17.1111 54.2619H42.8719C43.8329 54.2619 44.5924 53.4784 44.5924 52.5224C44.5924 51.5665 43.8174 50.7829 42.8719 50.7829Z" fill="url(#paint4_linear_6402_7106)"/>
<path d="M1.28649 6.27734L0 45.7999L58.6205 44.703L2.16998 43.2926L1.28649 6.27734Z" fill="url(#paint5_linear_6402_7106)"/>
<path d="M58.7129 44.4991L59.9994 4.99219L1.37891 6.08917L57.8294 7.4839L58.7129 44.4991Z" fill="url(#paint6_linear_6402_7106)"/>
</g>
<defs>
<linearGradient id="paint0_linear_6402_7106" x1="19.1418" y1="17.0273" x2="4.26198" y2="30.9309" gradientUnits="userSpaceOnUse">
<stop stop-color="#00FF78"/>
<stop offset="1" stop-color="#00DBFF"/>
</linearGradient>
<linearGradient id="paint1_linear_6402_7106" x1="32.0998" y1="17.0742" x2="18.3039" y2="26.3698" gradientUnits="userSpaceOnUse">
<stop stop-color="#00FF78"/>
<stop offset="1" stop-color="#00DBFF"/>
</linearGradient>
<linearGradient id="paint2_linear_6402_7106" x1="47.8008" y1="17.2939" x2="33.504" y2="29.4024" gradientUnits="userSpaceOnUse">
<stop stop-color="#00FF78"/>
<stop offset="1" stop-color="#00DBFF"/>
</linearGradient>
<linearGradient id="paint3_linear_6402_7106" x1="55.382" y1="17.2939" x2="48.122" y2="19.2432" gradientUnits="userSpaceOnUse">
<stop stop-color="#00FF78"/>
<stop offset="1" stop-color="#00DBFF"/>
</linearGradient>
<linearGradient id="paint4_linear_6402_7106" x1="44.5924" y1="47.8838" x2="42.1376" y2="59.1227" gradientUnits="userSpaceOnUse">
<stop stop-color="#00FF78"/>
<stop offset="1" stop-color="#00DBFF"/>
</linearGradient>
<linearGradient id="paint5_linear_6402_7106" x1="58.6205" y1="6.27734" x2="24.8002" y2="56.4401" gradientUnits="userSpaceOnUse">
<stop stop-color="#00FF78"/>
<stop offset="1" stop-color="#00DBFF"/>
</linearGradient>
<linearGradient id="paint6_linear_6402_7106" x1="59.9994" y1="4.99219" x2="26.1976" y2="55.1475" gradientUnits="userSpaceOnUse">
<stop stop-color="#00FF78"/>
<stop offset="1" stop-color="#00DBFF"/>
</linearGradient>
<clipPath id="clip0_6402_7106">
<rect width="60" height="49.2857" fill="white" transform="translate(0 4.99219)"/>
</clipPath>
</defs>
</svg>
