<svg width="60" height="60" viewBox="0 0 60 60" fill="none" xmlns="http://www.w3.org/2000/svg">
<path d="M57.1428 43.0892H50.4846V20.1991C50.4846 19.1354 49.6542 18.2739 48.6288 18.2739C47.6034 18.2739 46.7719 19.1354 46.7719 20.1991V45.394C46.7719 46.4734 45.7361 47.3856 44.5036 47.4012L44.4891 47.4004C44.4834 47.4 44.4777 47.3996 44.4718 47.3996C44.4516 47.3996 44.432 47.402 44.412 47.4027H37.2963L37.2714 47.4012L37.257 47.4002L37.2365 47.3996C37.2246 47.3996 37.2131 47.4004 37.2015 47.4012L37.1766 47.4027H30.0589L30.034 47.4012C30.0225 47.4004 30.0109 47.3996 29.9992 47.3996L29.9865 47.3998L29.9644 47.4012L29.9395 47.4027H22.8227L22.7978 47.4012C22.7862 47.4004 22.7747 47.3996 22.763 47.3996C22.7512 47.3996 22.7397 47.4004 22.7282 47.4012L22.7033 47.4027H15.5864L15.5615 47.4012C15.55 47.4004 15.5385 47.3996 15.5267 47.3996C15.5211 47.3996 15.5156 47.4 15.5101 47.4004L15.4949 47.4012C14.2614 47.3856 13.2266 46.4734 13.2266 45.394V14.6102C13.2266 13.5214 14.2802 12.6015 15.5267 12.6015H44.4718C45.7184 12.6015 46.7719 13.5214 46.7719 14.6102V14.9878C46.7719 16.0515 47.6033 16.913 48.6288 16.913H57.1428C58.1682 16.913 58.9997 16.0515 58.9997 14.9878C58.9997 13.924 58.1683 13.0625 57.1428 13.0625H50.2714C49.7364 11.1618 48.2412 9.64516 46.3285 9.03831V2.92526C46.3285 1.86151 45.4972 1 44.4717 1C43.4463 1 42.6158 1.86151 42.6158 2.92526V8.75098H39.0922V2.92526C39.0922 1.86151 38.2617 1 37.2363 1C36.2109 1 35.3795 1.86151 35.3795 2.92526V8.75098H31.8548V2.92526C31.8548 1.86151 31.0235 1 29.999 1C28.9745 1 28.1431 1.86151 28.1431 2.92526V8.75098H24.6185V2.92526C24.6185 1.86151 23.7871 1 22.7626 1C21.7381 1 20.9068 1.86151 20.9068 2.92526V8.75098H17.3821V2.92526C17.3821 1.86151 16.5517 1 15.5263 1C14.5009 1 13.6704 1.86151 13.6704 2.92526V9.03796C11.7578 9.64434 10.2638 11.1609 9.72891 13.0615H2.85584C1.83135 13.0615 1 13.9228 1 14.9867C1 16.0505 1.83135 16.912 2.85584 16.912H9.51504V43.0892H2.85584C1.83135 43.0892 1 43.9506 1 45.0143C1 46.0781 1.83135 46.9396 2.85584 46.9396H9.72925C10.264 48.8402 11.7581 50.3573 13.6709 50.964V57.0747C13.6709 58.1385 14.5013 59 15.5267 59C16.5511 59 17.3826 58.1385 17.3826 57.0747V51.251H20.9072V57.0746C20.9072 58.1384 21.7377 58.9999 22.7631 58.9999C23.7875 58.9999 24.6189 58.1384 24.6189 57.0746V51.251H28.1436V57.0746C28.1436 58.1384 28.974 58.9999 29.9994 58.9999C31.0248 58.9999 31.8553 58.1384 31.8553 57.0746V51.251H35.3799V57.0746C35.3799 58.1384 36.2113 58.9999 37.2368 58.9999C38.2612 58.9999 39.0926 58.1384 39.0926 57.0746V51.251H42.6163V57.0746C42.6163 58.1384 43.4467 58.9999 44.4721 58.9999C45.4975 58.9999 46.329 58.1384 46.329 57.0746V50.9638C48.2418 50.3571 49.7356 48.8402 50.2705 46.9396H57.1431C58.1675 46.9396 59 46.0781 59 45.0143C58.9997 43.9506 58.1682 43.0892 57.1428 43.0892Z" fill="url(#paint0_linear_6400_6929)"/>
<path d="M57.143 35.5825H53.5441C52.5187 35.5825 51.6882 36.444 51.6882 37.5077C51.6882 38.5715 52.5187 39.433 53.5441 39.433H57.143C58.1674 39.433 58.9999 38.5715 58.9999 37.5077C58.9999 36.444 58.1684 35.5825 57.143 35.5825Z" fill="url(#paint1_linear_6400_6929)"/>
<path d="M53.5441 28.072H57.143C58.1684 28.072 58.9999 28.9335 58.9999 29.9972C58.9999 31.061 58.1674 31.9225 57.143 31.9225H53.5441C52.5187 31.9225 51.6882 31.061 51.6882 29.9972C51.6882 28.9335 52.5187 28.072 53.5441 28.072Z" fill="url(#paint2_linear_6400_6929)"/>
<path d="M57.143 20.5668H53.5441C52.5187 20.5668 51.6882 21.4283 51.6882 22.4921C51.6882 23.5558 52.5187 24.4173 53.5441 24.4173H57.143C58.1674 24.4173 58.9999 23.5558 58.9999 22.4921C58.9999 21.4283 58.1684 20.5668 57.143 20.5668Z" fill="url(#paint3_linear_6400_6929)"/>
<path d="M6.45584 39.433H2.85584C1.83135 39.433 1 38.5704 1 37.5077C1 36.445 1.83135 35.5825 2.85584 35.5825H6.45584C7.48123 35.5825 8.31168 36.444 8.31168 37.5077C8.31168 38.5715 7.48022 39.433 6.45584 39.433Z" fill="url(#paint4_linear_6400_6929)"/>
<path d="M2.85584 31.9241H6.45584C7.48022 31.9241 8.31168 31.0637 8.31168 29.9999C8.31168 28.9362 7.48123 28.0747 6.45584 28.0747H2.85584C1.83135 28.0747 1 28.9371 1 29.9999C1 31.0626 1.83135 31.9241 2.85584 31.9241Z" fill="url(#paint5_linear_6400_6929)"/>
<path d="M6.45584 24.4173H2.85584C1.83135 24.4173 1 23.5558 1 22.4921C1 21.4283 1.83135 20.5668 2.85584 20.5668H6.45584C7.48123 20.5668 8.31168 21.4283 8.31168 22.4921C8.31168 23.5558 7.48022 24.4173 6.45584 24.4173Z" fill="url(#paint6_linear_6400_6929)"/>
<path fill-rule="evenodd" clip-rule="evenodd" d="M24.0038 19.9258C23.2387 19.9258 22.5521 20.4119 22.2746 21.1513L16.1473 37.451C15.7753 38.4429 16.2468 39.5588 17.2019 39.9446C18.158 40.3305 19.2337 39.8404 19.6055 38.8505L20.5778 36.2641H27.4298L28.4021 38.8505C28.6875 39.6119 29.3883 40.0771 30.1312 40.0771C30.3553 40.0771 30.5836 40.0343 30.8057 39.9446C31.7598 39.5587 32.2333 38.4418 31.8604 37.451L25.733 21.1513C25.4545 20.4119 24.7689 19.9258 24.0038 19.9258ZM22.0252 32.4137L24.0038 27.1501L25.9824 32.4137H22.0252Z" fill="url(#paint7_linear_6400_6929)"/>
<path d="M42.3591 21.8511C42.3591 22.9148 41.5266 23.7763 40.5022 23.7763H39.7612V36.2267H40.5022C41.5277 36.2267 42.3591 37.0882 42.3591 38.1519C42.3591 39.2157 41.5266 40.0772 40.5022 40.0772H35.3058C34.2804 40.0772 33.4499 39.2157 33.4499 38.1519C33.4499 37.0882 34.2804 36.2267 35.3058 36.2267H36.0477V23.7763H35.3058C34.2804 23.7763 33.4499 22.9148 33.4499 21.8511C33.4499 20.7873 34.2804 19.9258 35.3058 19.9258H40.5022C41.5277 19.9258 42.3591 20.7873 42.3591 21.8511Z" fill="url(#paint8_linear_6400_6929)"/>
<defs>
<linearGradient id="paint0_linear_6400_6929" x1="59" y1="0.999997" x2="5.46154" y2="54.5385" gradientUnits="userSpaceOnUse">
<stop stop-color="#00FF78"/>
<stop offset="1" stop-color="#00DBFF"/>
</linearGradient>
<linearGradient id="paint1_linear_6400_6929" x1="59" y1="0.999997" x2="5.46154" y2="54.5385" gradientUnits="userSpaceOnUse">
<stop stop-color="#00FF78"/>
<stop offset="1" stop-color="#00DBFF"/>
</linearGradient>
<linearGradient id="paint2_linear_6400_6929" x1="59" y1="0.999997" x2="5.46154" y2="54.5385" gradientUnits="userSpaceOnUse">
<stop stop-color="#00FF78"/>
<stop offset="1" stop-color="#00DBFF"/>
</linearGradient>
<linearGradient id="paint3_linear_6400_6929" x1="59" y1="0.999997" x2="5.46154" y2="54.5385" gradientUnits="userSpaceOnUse">
<stop stop-color="#00FF78"/>
<stop offset="1" stop-color="#00DBFF"/>
</linearGradient>
<linearGradient id="paint4_linear_6400_6929" x1="59" y1="0.999997" x2="5.46154" y2="54.5385" gradientUnits="userSpaceOnUse">
<stop stop-color="#00FF78"/>
<stop offset="1" stop-color="#00DBFF"/>
</linearGradient>
<linearGradient id="paint5_linear_6400_6929" x1="59" y1="0.999997" x2="5.46154" y2="54.5385" gradientUnits="userSpaceOnUse">
<stop stop-color="#00FF78"/>
<stop offset="1" stop-color="#00DBFF"/>
</linearGradient>
<linearGradient id="paint6_linear_6400_6929" x1="59" y1="0.999997" x2="5.46154" y2="54.5385" gradientUnits="userSpaceOnUse">
<stop stop-color="#00FF78"/>
<stop offset="1" stop-color="#00DBFF"/>
</linearGradient>
<linearGradient id="paint7_linear_6400_6929" x1="59" y1="0.999997" x2="5.46154" y2="54.5385" gradientUnits="userSpaceOnUse">
<stop stop-color="#00FF78"/>
<stop offset="1" stop-color="#00DBFF"/>
</linearGradient>
<linearGradient id="paint8_linear_6400_6929" x1="59" y1="0.999997" x2="5.46154" y2="54.5385" gradientUnits="userSpaceOnUse">
<stop stop-color="#00FF78"/>
<stop offset="1" stop-color="#00DBFF"/>
</linearGradient>
</defs>
</svg>
