<svg width="76" height="75" viewBox="0 0 76 75" fill="none" xmlns="http://www.w3.org/2000/svg">
<g clip-path="url(#clip0_914_4930)">
<path d="M26.845 26.7299V21.2216C26.845 17.2882 30.0653 14.0882 34.0237 14.0882C37.982 14.0882 41.2023 17.2882 41.2023 21.2216V26.7299C42.8393 27.4099 44.3573 28.3149 45.7192 29.4066V21.2232C45.7192 14.8149 40.4727 9.60156 34.0237 9.60156C27.5746 9.60156 22.3281 14.8149 22.3281 21.2232V29.4066C23.6901 28.3149 25.208 27.4099 26.845 26.7299Z" fill="#343433"/>
<path d="M34.0229 26.5859C24.4256 26.5859 16.6465 34.3176 16.6465 43.8526C16.6465 53.3876 24.4273 61.1209 34.0229 61.1209C43.6185 61.1209 51.3993 53.3893 51.3993 43.8526C51.3993 34.3159 43.6185 26.5859 34.0229 26.5859ZM34.0514 59.5009C25.2676 59.5009 18.1476 52.4259 18.1476 43.6976C18.1476 34.9693 25.2676 27.8943 34.0514 27.8943C39.1268 27.8909 43.8986 30.2993 46.8908 34.3743C44.2928 31.7493 40.7403 30.2743 37.0353 30.2776C29.3869 30.2776 23.1878 36.4376 23.1878 44.0376C23.1878 51.6376 29.3869 57.7976 37.0353 57.7976C39.6501 57.8009 42.213 57.0643 44.4219 55.6743C41.5404 58.1476 37.8588 59.5059 34.0514 59.5026V59.5009ZM30.5845 40.5226C30.5845 38.6359 32.1242 37.1059 34.0229 37.1059C35.9216 37.1059 37.4613 38.6359 37.4613 40.5226C37.4613 41.8609 36.6864 43.0193 35.5593 43.5793V49.0776C35.5593 49.9209 34.8716 50.6043 34.0229 50.6043C33.1742 50.6043 32.4865 49.9209 32.4865 49.0776V43.5793C31.3594 43.0193 30.5845 41.8609 30.5845 40.5226ZM41.7534 46.4759C43.5833 42.4176 41.7567 37.6526 37.6726 35.8343C33.5885 34.0159 28.7932 35.8309 26.9633 39.8893C28.1273 36.0076 31.72 33.3459 35.7974 33.3459C37.0168 33.3459 38.2228 33.5859 39.3482 34.0526C44.0462 36.0009 46.2652 41.3659 44.3028 46.0343C42.3421 50.7026 36.943 52.9076 32.245 50.9576C36.0926 51.9909 40.1231 50.0893 41.7534 46.4759ZM37.3975 56.4209C30.5258 56.4209 24.9556 50.8859 24.9556 44.0576C24.9556 43.8359 24.9623 43.6159 24.9741 43.3976C25.6081 48.9643 30.3614 53.2893 36.1329 53.2893C40.1264 53.2893 43.8198 51.1826 45.8325 47.7576C48.9606 42.4343 47.1542 35.5993 41.7987 32.4909C46.6392 34.3093 49.8411 38.9143 49.8411 44.0576C49.8411 50.8859 44.271 56.4209 37.3992 56.4209H37.3975Z" fill="#343433"/>
<path d="M72.8579 43.3248C70.7731 41.2431 68.0308 40.2031 65.2885 40.2031C62.5461 40.2031 59.8038 41.2431 57.719 43.3248C54.8542 46.1515 53.8613 50.3331 55.1075 54.1281C50.7047 58.4848 47.4223 61.7448 43.0379 66.1215C42.8434 66.2965 42.7461 66.5481 42.7461 66.7998V72.2798C42.7461 72.5515 42.8434 72.7831 43.0379 72.9581C43.2141 73.1515 43.4472 73.2481 43.7206 73.2481H49.2354C49.4887 73.2481 49.7419 73.1515 49.9181 72.9581C50.4246 72.4731 50.7953 72.0865 51.3018 71.6031C51.5165 71.3898 51.6138 71.0998 51.5752 70.8098C51.5165 70.2681 51.4578 69.8615 51.3991 69.3381C52.1388 69.2615 52.704 69.2031 53.4638 69.1448C53.9317 69.0865 54.2823 68.7381 54.341 68.2731C54.3997 67.5365 54.4584 66.9565 54.5356 66.2215C55.0622 66.2981 55.4715 66.3381 56.0166 66.3965C56.0585 66.4031 56.1004 66.4048 56.1407 66.4048C56.6388 66.4048 57.0883 65.9831 57.0883 65.4481V63.6348H58.8813C59.1346 63.6348 59.3879 63.5698 59.564 63.3765C60.4596 62.4865 61.092 61.8781 61.9876 60.9681C63.0762 61.3215 64.1966 61.4931 65.3069 61.4931C68.0945 61.4931 70.8251 60.4081 72.8596 58.3731C77.0494 54.2298 77.0494 47.4731 72.8596 43.3298L72.8579 43.3248ZM70.1106 50.1598C69.5454 50.7315 68.7956 51.0165 68.0459 51.0165C67.2961 51.0165 66.5464 50.7315 65.9812 50.1598C64.8323 49.0365 64.8323 47.1781 65.9812 46.0548C66.5464 45.4831 67.2961 45.1981 68.0459 45.1981C68.7956 45.1981 69.547 45.4831 70.1106 46.0548C71.2595 47.1781 71.2595 49.0365 70.1106 50.1598Z" fill="#343433"/>
<path d="M40.9535 68.0317C37.8036 69.765 35.2391 70.7283 34.0448 71.1317C28.5451 69.2733 -5.99806 55.5833 7.19024 9.325C10.6454 8.30167 13.1462 5.29 14.285 3.67167H53.8063C54.9452 5.29 57.4426 8.305 60.9011 9.325C64.254 21.09 64.519 30.745 62.9625 38.6383C63.7223 38.4967 64.5005 38.4217 65.2905 38.4217C65.9228 38.4217 66.5485 38.4683 67.1623 38.56C68.7524 30.08 68.3633 19.7833 64.6582 7.33833L64.3009 6.13833L62.8954 5.97833C60.2252 5.67833 57.607 2.19667 56.9025 0.998333L56.3088 0H11.7725L11.1871 1C10.4844 2.19667 7.8863 5.67667 5.19262 5.97833L3.78204 6.13833L3.42646 7.33833C-12.645 61.32 32.9781 74.7233 33.4477 74.845L34.0532 75L34.6621 74.84C34.7694 74.81 37.3121 74.0417 40.9518 72.2033V68.0317H40.9535Z" fill="#343433"/>
</g>
<defs>
<clipPath id="clip0_914_4930">
<rect width="76" height="75" fill="white"/>
</clipPath>
</defs>
</svg>
