<svg width="373" height="332" viewBox="0 0 373 332" fill="none" xmlns="http://www.w3.org/2000/svg">
<path d="M93.7941 3.57422H279.096C294.117 3.57422 306.312 15.7557 306.312 30.7601V215.858C306.312 230.862 294.117 243.043 279.096 243.043H93.7941C78.7731 243.043 66.5781 230.862 66.5781 215.858V30.7601C66.5781 15.7557 78.7731 3.57422 93.7941 3.57422Z" fill="#343433"/>
<path d="M279.096 7.14649C292.097 7.14649 302.734 17.772 302.734 30.7592V215.857C302.734 228.844 292.097 239.469 279.096 239.469H93.7932C80.7917 239.469 70.1544 228.844 70.1544 215.857V30.7592C70.1544 17.772 80.7917 7.14649 93.7932 7.14649H279.096ZM279.096 0H93.7932C76.8145 0 63 13.7992 63 30.7592V215.857C63 232.816 76.8145 246.616 93.7932 246.616H279.096C296.074 246.616 309.889 232.816 309.889 215.857V30.7592C309.889 13.7992 296.074 0 279.096 0Z" fill="white"/>
<path d="M0 251C0 246.582 3.58172 243 8 243H365C369.418 243 373 246.582 373 251V292C373 296.418 369.418 300 365 300H8C3.58172 300 0 296.418 0 292V251Z" fill="white"/>
<g clip-path="url(#clip0_914_5078)">
<path d="M20.444 261.369C22.0734 258.418 24.3454 256.119 27.2601 254.471C30.1748 252.824 33.4788 252 37.172 252C41.6979 252 45.5722 253.195 48.7946 255.585C52.0171 257.974 54.1715 261.233 55.2577 265.361H45.0471C44.2868 263.768 43.2096 262.555 41.8156 261.722C40.4216 260.889 38.8375 260.473 37.0634 260.473C34.2029 260.473 31.8857 261.468 30.1115 263.46C28.3373 265.451 27.4502 268.112 27.4502 271.444C27.4502 274.775 28.3373 277.436 30.1115 279.427C31.8857 281.419 34.2029 282.414 37.0634 282.414C38.8375 282.414 40.4216 281.998 41.8156 281.165C43.2096 280.333 44.2868 279.12 45.0471 277.526H55.2577C54.1715 281.654 52.0171 284.904 48.7946 287.275C45.5722 289.647 41.6979 290.833 37.172 290.833C33.4788 290.833 30.1748 290.009 27.2601 288.362C24.3454 286.714 22.0734 284.424 20.444 281.491C18.8147 278.558 18 275.209 18 271.444C18 267.678 18.8147 264.32 20.444 261.369Z" fill="#343433"/>
<path d="M89.3659 273.86C90.7056 275.58 91.3754 277.545 91.3754 279.753C91.3754 282.939 90.262 285.465 88.0352 287.33C85.8085 289.194 82.7037 290.127 78.7208 290.127H60.9609V252H78.1234C81.9976 252 85.03 252.887 87.2206 254.661C89.4111 256.435 90.5064 258.843 90.5064 261.885C90.5064 264.13 89.918 265.994 88.7413 267.479C87.5645 268.963 85.9986 269.995 84.0433 270.575C86.252 271.045 88.0262 272.141 89.3659 273.86ZM70.2482 267.424H76.3311C77.8518 267.424 79.0195 267.09 79.8342 266.42C80.6489 265.75 81.0562 264.763 81.0562 263.46C81.0562 262.156 80.6489 261.161 79.8342 260.473C79.0195 259.785 77.8518 259.441 76.3311 259.441H70.2482V267.424ZM80.7032 281.573C81.5541 280.867 81.9795 279.844 81.9795 278.504C81.9795 277.164 81.536 276.114 80.6489 275.354C79.7618 274.594 78.5398 274.213 76.9828 274.213H70.2482V282.632H77.0915C78.6484 282.632 79.8523 282.279 80.7032 281.573Z" fill="#343433"/>
<path d="M103.052 289.692C100.844 288.787 99.0786 287.447 97.757 285.673C96.4354 283.899 95.7384 281.763 95.666 279.264H105.551C105.696 280.676 106.184 281.754 107.017 282.496C107.85 283.238 108.936 283.609 110.276 283.609C111.616 283.609 112.738 283.292 113.535 282.659C114.331 282.025 114.729 281.147 114.729 280.025C114.729 279.083 114.413 278.305 113.779 277.689C113.145 277.074 112.367 276.567 111.444 276.169C110.52 275.77 109.208 275.318 107.506 274.811C105.044 274.05 103.034 273.29 101.477 272.53C99.9204 271.769 98.5807 270.647 97.4583 269.162C96.3359 267.678 95.7746 265.741 95.7746 263.351C95.7746 259.803 97.06 257.024 99.6308 255.014C102.202 253.005 105.551 252 109.678 252C113.806 252 117.264 253.005 119.835 255.014C122.405 257.024 123.781 259.821 123.962 263.405H113.915C113.842 262.174 113.39 261.206 112.557 260.5C111.724 259.794 110.656 259.441 109.353 259.441C108.23 259.441 107.325 259.739 106.637 260.337C105.949 260.934 105.605 261.794 105.605 262.917C105.605 264.148 106.184 265.107 107.343 265.795C108.502 266.483 110.312 267.225 112.774 268.022C115.236 268.855 117.237 269.651 118.776 270.412C120.314 271.172 121.645 272.276 122.767 273.725C123.89 275.173 124.451 277.038 124.451 279.319C124.451 281.6 123.899 283.464 122.795 285.239C121.69 287.013 120.088 288.425 117.988 289.475C115.888 290.525 113.408 291.05 110.547 291.05C107.687 291.05 105.261 290.597 103.052 289.692Z" fill="#343433"/>
<path d="M139.442 259.441V267.153H151.879V274.322H139.442V282.686H153.508V290.127H130.154V252H153.508V259.441H139.442Z" fill="#343433"/>
<path d="M160.403 261.369C162.032 258.418 164.304 256.119 167.219 254.471C170.134 252.824 173.438 252 177.131 252C181.657 252 185.531 253.195 188.754 255.585C191.976 257.974 194.13 261.233 195.217 265.361H185.006C184.246 263.768 183.169 262.555 181.775 261.722C180.381 260.889 178.797 260.473 177.022 260.473C174.162 260.473 171.845 261.468 170.07 263.46C168.296 265.451 167.409 268.112 167.409 271.444C167.409 274.775 168.296 277.436 170.07 279.427C171.845 281.419 174.162 282.414 177.022 282.414C178.797 282.414 180.381 281.998 181.775 281.165C183.169 280.333 184.246 279.12 185.006 277.526H195.217C194.13 281.654 191.976 284.904 188.754 287.275C185.531 289.647 181.657 290.833 177.131 290.833C173.438 290.833 170.134 290.009 167.219 288.362C164.304 286.714 162.032 284.424 160.403 281.491C158.774 278.558 157.959 275.209 157.959 271.444C157.959 267.678 158.774 264.32 160.403 261.369Z" fill="#343433"/>
<path d="M210.043 252V274.811C210.043 277.092 210.604 278.848 211.727 280.079C212.849 281.31 214.497 281.926 216.669 281.926C218.842 281.926 220.507 281.31 221.666 280.079C222.824 278.848 223.404 277.092 223.404 274.811V252H232.691V274.757C232.691 278.16 231.967 281.039 230.519 283.392C229.07 285.746 227.124 287.52 224.68 288.715C222.236 289.909 219.511 290.507 216.506 290.507C213.501 290.507 210.813 289.919 208.441 288.742C206.069 287.565 204.196 285.791 202.82 283.419C201.444 281.048 200.756 278.16 200.756 274.757V252H210.043Z" fill="#343433"/>
<path d="M258.653 290.127L250.723 275.734H248.496V290.127H239.209V252H254.796C257.802 252 260.363 252.525 262.481 253.575C264.6 254.625 266.184 256.064 267.234 257.893C268.284 259.721 268.809 261.758 268.809 264.003C268.809 266.537 268.094 268.8 266.663 270.792C265.233 272.783 263.124 274.195 260.336 275.028L269.135 290.127H258.653ZM248.496 269.162H254.253C255.955 269.162 257.231 268.746 258.082 267.913C258.933 267.081 259.359 265.904 259.359 264.383C259.359 262.862 258.933 261.794 258.082 260.961C257.231 260.129 255.955 259.712 254.253 259.712H248.496V269.162Z" fill="#343433"/>
<path d="M283.906 252V290.127H274.619V252H283.906Z" fill="#343433"/>
<path d="M318.069 252V259.441H307.967V290.127H298.68V259.441H288.578V252H318.069Z" fill="#343433"/>
<path d="M355.433 252L342.235 277.526V290.127H332.948V277.526L319.75 252H330.286L337.673 267.968L345.005 252H355.433Z" fill="#343433"/>
</g>
<path d="M97.8515 309.324C100.741 309.324 102.856 309.888 104.188 311.016C105.521 312.145 106.187 313.757 106.187 315.858C106.187 316.805 106.031 317.706 105.72 318.559C105.408 319.412 104.905 320.161 104.21 320.808C103.515 321.455 102.602 321.965 101.476 322.337C100.346 322.71 98.9667 322.894 97.33 322.894H94.6035V331.691H92V309.324H97.8515ZM97.6089 311.544H94.6071V320.663H97.044C98.4743 320.663 99.6656 320.511 100.621 320.204C101.577 319.897 102.294 319.401 102.776 318.711C103.258 318.024 103.497 317.105 103.497 315.966C103.497 314.477 103.022 313.367 102.07 312.64C101.121 311.91 99.633 311.544 97.6125 311.544H97.6089Z" fill="white"/>
<path d="M131.831 331.696L129.072 324.598H120.092L117.351 331.696H114.715L123.478 309.234H125.82L134.521 331.696H131.824H131.831ZM128.29 322.287L125.672 315.233C125.61 315.049 125.513 314.748 125.371 314.329C125.234 313.91 125.092 313.476 124.951 313.027C124.81 312.579 124.691 312.217 124.6 311.943C124.499 312.362 124.386 312.778 124.271 313.19C124.155 313.602 124.039 313.986 123.927 314.336C123.814 314.687 123.717 314.987 123.637 315.233L120.972 322.287H128.297H128.29Z" fill="white"/>
<path d="M157.167 325.745C157.167 327.072 156.837 328.2 156.178 329.133C155.519 330.066 154.596 330.778 153.412 331.266C152.228 331.754 150.834 332 149.23 332C148.382 332 147.578 331.96 146.825 331.877C146.068 331.794 145.373 331.678 144.74 331.526C144.106 331.374 143.548 331.186 143.07 330.959V328.464C143.838 328.782 144.772 329.075 145.873 329.342C146.977 329.614 148.129 329.747 149.335 329.747C150.457 329.747 151.409 329.596 152.184 329.295C152.959 328.995 153.549 328.561 153.955 327.994C154.36 327.426 154.56 326.746 154.56 325.951C154.56 325.155 154.389 324.544 154.053 324.031C153.716 323.517 153.155 323.047 152.376 322.624C151.594 322.201 150.529 321.749 149.182 321.272C148.234 320.936 147.394 320.567 146.67 320.162C145.945 319.757 145.337 319.301 144.848 318.792C144.359 318.282 143.986 317.689 143.737 317.016C143.487 316.344 143.36 315.573 143.36 314.706C143.36 313.512 143.664 312.489 144.272 311.64C144.881 310.786 145.724 310.135 146.8 309.68C147.879 309.228 149.117 309 150.515 309C151.71 309 152.814 309.112 153.832 309.336C154.849 309.56 155.78 309.861 156.627 310.24L155.816 312.475C155.009 312.138 154.154 311.856 153.249 311.632C152.344 311.408 151.413 311.296 150.453 311.296C149.494 311.296 148.683 311.437 148.024 311.715C147.365 311.997 146.861 312.392 146.514 312.901C146.166 313.411 145.992 314.019 145.992 314.72C145.992 315.505 146.159 316.159 146.492 316.68C146.825 317.201 147.354 317.663 148.085 318.065C148.817 318.466 149.784 318.889 150.989 319.327C152.307 319.808 153.426 320.314 154.346 320.849C155.266 321.384 155.965 322.039 156.446 322.809C156.928 323.579 157.167 324.555 157.167 325.737V325.745Z" fill="white"/>
<path d="M181.274 325.745C181.274 327.072 180.945 328.2 180.286 329.133C179.627 330.066 178.703 330.778 177.519 331.266C176.335 331.754 174.941 332 173.337 332C172.49 332 171.686 331.96 170.933 331.877C170.176 331.794 169.481 331.678 168.847 331.526C168.213 331.374 167.656 331.186 167.178 330.959V328.464C167.945 328.782 168.88 329.075 169.98 329.342C171.085 329.614 172.236 329.747 173.442 329.747C174.564 329.747 175.517 329.596 176.292 329.295C177.067 328.995 177.657 328.561 178.062 327.994C178.464 327.426 178.667 326.746 178.667 325.951C178.667 325.155 178.497 324.544 178.16 324.031C177.823 323.517 177.262 323.047 176.484 322.624C175.701 322.201 174.637 321.749 173.29 321.272C172.341 320.936 171.501 320.567 170.777 320.162C170.053 319.757 169.444 319.301 168.956 318.792C168.467 318.282 168.094 317.689 167.844 317.016C167.594 316.344 167.467 315.573 167.467 314.706C167.467 313.512 167.772 312.489 168.38 311.64C168.988 310.786 169.832 310.135 170.907 309.68C171.986 309.228 173.225 309 174.622 309C175.817 309 176.922 309.112 177.939 309.336C178.957 309.56 179.887 309.861 180.735 310.24L179.923 312.475C179.116 312.138 178.261 311.856 177.356 311.632C176.451 311.408 175.52 311.296 174.561 311.296C173.601 311.296 172.79 311.437 172.131 311.715C171.472 311.997 170.969 312.392 170.621 312.901C170.274 313.411 170.1 314.019 170.1 314.72C170.1 315.505 170.266 316.159 170.6 316.68C170.933 317.201 171.461 317.663 172.193 318.065C172.924 318.466 173.891 318.889 175.097 319.327C176.415 319.808 177.534 320.314 178.453 320.849C179.373 321.384 180.072 322.039 180.554 322.809C181.035 323.579 181.274 324.555 181.274 325.737V325.745Z" fill="white"/>
<path d="M208.896 331.695H205.814L197.739 320.815L195.35 322.956V331.691H192.746V309.324H195.35V320.479C195.933 319.817 196.53 319.156 197.142 318.497C197.754 317.839 198.362 317.174 198.963 316.502L205.506 309.324H208.555L199.637 319.025L208.892 331.695H208.896Z" fill="white"/>
<path d="M231.334 331.695H218.863V309.328H231.334V311.624H221.467V318.859H230.769V321.123H221.467V329.399H231.334V331.695Z" fill="white"/>
<path d="M248.918 320.54L254.878 309.324H257.68L250.217 323.017V331.691H247.614V323.14L240.137 309.324H242.986L248.918 320.54Z" fill="white"/>
<path d="M280.29 325.745C280.29 327.072 279.96 328.2 279.301 329.133C278.642 330.066 277.719 330.778 276.535 331.266C275.351 331.754 273.957 332 272.353 332C271.505 332 270.701 331.96 269.948 331.877C269.192 331.794 268.496 331.678 267.863 331.526C267.229 331.374 266.671 331.186 266.193 330.959V328.464C266.961 328.782 267.895 329.075 268.996 329.342C270.1 329.614 271.252 329.747 272.458 329.747C273.58 329.747 274.532 329.596 275.307 329.295C276.082 328.995 276.672 328.561 277.078 327.994C277.48 327.426 277.683 326.746 277.683 325.951C277.683 325.155 277.512 324.544 277.176 324.031C276.839 323.517 276.278 323.047 275.499 322.624C274.717 322.201 273.653 321.749 272.306 321.272C271.357 320.936 270.517 320.567 269.793 320.162C269.068 319.757 268.46 319.301 267.971 318.792C267.482 318.282 267.109 317.689 266.86 317.016C266.61 316.344 266.483 315.573 266.483 314.706C266.483 313.512 266.787 312.489 267.396 311.64C268.004 310.786 268.848 310.135 269.923 309.68C271.002 309.228 272.24 309 273.638 309C274.833 309 275.937 309.112 276.955 309.336C277.972 309.56 278.903 309.861 279.75 310.24L278.939 312.475C278.132 312.138 277.277 311.856 276.372 311.632C275.467 311.408 274.536 311.296 273.576 311.296C272.617 311.296 271.806 311.437 271.147 311.715C270.488 311.997 269.985 312.392 269.637 312.901C269.289 313.411 269.115 314.019 269.115 314.72C269.115 315.505 269.282 316.159 269.615 316.68C269.948 317.201 270.477 317.663 271.208 318.065C271.94 318.466 272.907 318.889 274.112 319.327C275.43 319.808 276.549 320.314 277.469 320.849C278.389 321.384 279.088 322.039 279.569 322.809C280.051 323.579 280.29 324.555 280.29 325.737V325.745Z" fill="white"/>
<path d="M186.076 98.9648C163.489 98.9648 145.182 117.277 145.182 139.859C145.182 162.442 163.493 180.754 186.076 180.754C208.659 180.754 226.97 162.442 226.97 139.859C226.97 117.277 208.659 98.9648 186.076 98.9648ZM189.692 139.212V152.234C189.692 154.231 188.073 155.85 186.076 155.85C184.079 155.85 182.46 154.231 182.46 152.234V139.212C179.808 137.886 177.984 135.142 177.984 131.972C177.984 127.504 181.608 123.88 186.076 123.88C190.544 123.88 194.168 127.504 194.168 131.972C194.168 135.142 192.344 137.886 189.692 139.212Z" fill="#0D87C5"/>
<path d="M169.181 99.3089V86.263C169.181 76.9473 176.76 69.3684 186.076 69.3684C195.391 69.3684 202.97 76.9473 202.97 86.263V99.3089C206.823 100.919 210.395 103.063 213.6 105.648V86.2669C213.6 71.0894 201.253 58.7422 186.076 58.7422C170.898 58.7422 158.551 71.0894 158.551 86.2669V105.648C161.756 103.063 165.328 100.919 169.181 99.3089Z" fill="#0D87C5"/>
<path d="M193.166 172.886C175.166 172.886 160.577 158.296 160.577 140.296C160.577 122.297 175.166 107.707 193.166 107.707C201.885 107.695 210.242 111.193 216.36 117.41C209.322 107.759 198.092 102.055 186.143 102.063C165.471 102.063 148.715 118.819 148.715 139.491C148.715 160.163 165.471 176.92 186.143 176.92C195.104 176.932 203.768 173.711 210.55 167.853C205.351 171.145 199.32 172.89 193.166 172.882" fill="#33CFFF"/>
<path d="M204.372 112.949C216.979 120.311 221.231 136.499 213.865 149.107C209.124 157.223 200.436 162.212 191.037 162.208C177.455 162.208 166.272 151.961 164.776 138.781C164.748 139.298 164.732 139.819 164.732 140.344C164.732 156.516 177.842 169.625 194.014 169.625C210.186 169.625 223.295 156.516 223.295 140.344C223.295 128.166 215.756 117.26 204.368 112.949" fill="#33CFFF"/>
<path d="M190.253 114.969C180.658 114.969 172.206 121.273 169.463 130.466C173.769 120.854 185.055 116.552 194.667 120.862C204.278 125.169 208.581 136.454 204.27 146.066C200.434 154.624 190.948 159.124 181.893 156.68C192.95 161.295 205.652 156.072 210.27 145.02C214.885 133.963 209.663 121.261 198.61 116.642C195.961 115.537 193.123 114.969 190.253 114.969Z" fill="#33CFFF"/>
<path d="M202.386 197.126C194.973 201.231 188.938 203.513 186.127 204.468C173.184 200.067 91.8885 167.644 122.926 58.0853C131.058 55.6617 136.943 48.5288 139.624 44.696H232.635C235.315 48.5288 241.192 55.6696 249.332 58.0853C257.223 85.9496 257.846 108.816 254.183 127.511C255.971 127.176 257.803 126.998 259.662 126.998C261.15 126.998 262.623 127.108 264.067 127.326C267.809 107.241 266.894 82.8548 258.174 53.3801L257.333 50.538L254.025 50.1591C247.741 49.4486 241.579 41.2026 239.921 38.3645L238.524 36H133.711L132.333 38.3684C130.679 41.2026 124.565 49.4446 118.225 50.1591L114.905 50.538L114.069 53.3801C76.2452 181.23 183.617 212.975 184.722 213.263L186.147 213.63L187.58 213.251C187.832 213.18 193.817 211.36 202.382 207.006V197.126H202.386Z" fill="#33CFFF"/>
<path d="M277.468 138.612C272.562 133.682 266.108 131.219 259.654 131.219C253.2 131.219 246.746 133.682 241.839 138.612C235.097 145.307 232.761 155.211 235.693 164.199C225.332 174.517 217.607 182.238 207.288 192.604C206.831 193.018 206.602 193.614 206.602 194.21V207.189C206.602 207.833 206.831 208.381 207.288 208.796C207.703 209.254 208.252 209.483 208.895 209.483H221.874C222.47 209.483 223.066 209.254 223.48 208.796C224.672 207.647 225.545 206.731 226.737 205.587C227.242 205.081 227.471 204.394 227.38 203.708C227.242 202.425 227.104 201.462 226.966 200.222C228.707 200.041 230.037 199.902 231.825 199.764C232.926 199.626 233.751 198.801 233.889 197.7C234.028 195.955 234.166 194.581 234.347 192.841C235.587 193.022 236.55 193.117 237.833 193.255C237.932 193.271 238.03 193.275 238.125 193.275C239.297 193.275 240.355 192.276 240.355 191.009V186.714H244.575C245.171 186.714 245.767 186.56 246.181 186.102C248.289 183.995 249.777 182.554 251.885 180.399C254.447 181.235 257.084 181.642 259.697 181.642C266.258 181.642 272.684 179.072 277.472 174.253C287.332 164.44 287.332 148.437 277.472 138.624L277.468 138.612ZM271.002 154.8C269.672 156.154 267.908 156.829 266.143 156.829C264.379 156.829 262.614 156.154 261.284 154.8C258.58 152.14 258.58 147.738 261.284 145.078C262.614 143.724 264.379 143.049 266.143 143.049C267.908 143.049 269.676 143.724 271.002 145.078C273.706 147.738 273.706 152.14 271.002 154.8Z" fill="#FCBF29"/>
<path d="M277.469 174.246C270.774 180.988 260.87 183.325 251.882 180.392C249.774 182.547 248.286 183.988 246.178 186.096C245.764 186.554 245.172 186.708 244.572 186.708H240.352V191.002C240.352 192.38 239.113 193.434 237.83 193.248C236.547 193.11 235.584 193.019 234.344 192.834C234.163 194.575 234.024 195.952 233.886 197.693C233.748 198.794 232.923 199.619 231.822 199.758C230.034 199.896 228.703 200.034 226.963 200.215C227.101 201.455 227.239 202.418 227.377 203.701C227.468 204.388 227.239 205.079 226.734 205.58C225.542 206.725 224.669 207.644 223.477 208.789C223.063 209.247 222.467 209.476 221.871 209.476H208.892C208.248 209.476 207.7 209.247 207.285 208.789L261.277 154.797C263.937 157.501 268.339 157.501 270.999 154.797C273.703 152.137 273.703 147.736 270.999 145.075L277.465 138.609C287.325 148.422 287.325 164.425 277.465 174.238L277.469 174.246Z" fill="#FE9923"/>
<defs>
<clipPath id="clip0_914_5078">
<rect width="337.433" height="39.05" fill="white" transform="translate(18 252)"/>
</clipPath>
</defs>
</svg>
