<svg width="746" height="664" viewBox="0 0 746 664" fill="none" xmlns="http://www.w3.org/2000/svg">
<path d="M187.588 7.14844H558.193C588.235 7.14844 612.625 31.5115 612.625 61.5202V431.715C612.625 461.724 588.235 486.087 558.193 486.087H187.588C157.546 486.087 133.156 461.724 133.156 431.715V61.5202C133.156 31.5115 157.546 7.14844 187.588 7.14844Z" fill="#343433"/>
<path d="M558.191 14.293C584.194 14.293 605.469 35.5441 605.469 61.5183V431.713C605.469 457.687 584.194 478.938 558.191 478.938H187.586C161.583 478.938 140.309 457.687 140.309 431.713V61.5183C140.309 35.5441 161.583 14.293 187.586 14.293H558.191ZM558.191 0H187.586C153.629 0 126 27.5985 126 61.5183V431.713C126 465.633 153.629 493.231 187.586 493.231H558.191C592.149 493.231 619.778 465.633 619.778 431.713V61.5183C619.778 27.5985 592.149 0 558.191 0Z" fill="white"/>
<path d="M0 502C0 493.163 7.16344 486 16 486H730C738.837 486 746 493.163 746 502V584C746 592.837 738.837 600 730 600H16C7.16344 600 0 592.837 0 584V502Z" fill="white"/>
<g clip-path="url(#clip0_914_5156)">
<path d="M40.888 522.737C44.1467 516.836 48.6908 512.237 54.5202 508.942C60.3497 505.647 66.9576 504 74.344 504C83.3959 504 91.1443 506.39 97.5893 511.169C104.034 515.949 108.343 522.466 110.515 530.721H90.0943C88.5736 527.535 86.4192 525.109 83.6312 523.444C80.8432 521.778 77.6751 520.945 74.1267 520.945C68.4059 520.945 63.7713 522.937 60.2229 526.919C56.6746 530.902 54.9004 536.225 54.9004 542.887C54.9004 549.549 56.6746 554.872 60.2229 558.855C63.7713 562.838 68.4059 564.829 74.1267 564.829C77.6751 564.829 80.8432 563.996 83.6312 562.331C86.4192 560.665 88.5736 558.239 90.0943 555.053H110.515C108.343 563.308 104.034 569.807 97.5893 574.551C91.1443 579.294 83.3959 581.666 74.344 581.666C66.9576 581.666 60.3497 580.018 54.5202 576.723C48.6908 573.428 44.1467 568.848 40.888 562.982C37.6293 557.117 36 550.418 36 542.887C36 535.356 37.6293 528.639 40.888 522.737Z" fill="#343433"/>
<path d="M178.73 547.721C181.409 551.161 182.749 555.089 182.749 559.506C182.749 565.879 180.522 570.93 176.069 574.659C171.615 578.389 165.405 580.253 157.44 580.253H121.92V504H156.245C163.993 504 170.058 505.774 174.439 509.323C178.82 512.871 181.011 517.687 181.011 523.769C181.011 528.259 179.834 531.989 177.481 534.958C175.127 537.927 171.995 539.99 168.085 541.149C172.502 542.09 176.05 544.281 178.73 547.721ZM140.494 534.849H152.66C155.702 534.849 158.037 534.179 159.666 532.839C161.296 531.5 162.11 529.526 162.11 526.919C162.11 524.313 161.296 522.321 159.666 520.945C158.037 519.569 155.702 518.881 152.66 518.881H140.494V534.849ZM161.404 563.145C163.106 561.733 163.957 559.687 163.957 557.008C163.957 554.329 163.07 552.229 161.296 550.708C159.522 549.187 157.078 548.427 153.964 548.427H140.494V565.263H154.181C157.295 565.263 159.703 564.557 161.404 563.145Z" fill="#343433"/>
<path d="M206.103 579.384C201.685 577.574 198.155 574.895 195.512 571.346C192.869 567.798 191.475 563.525 191.33 558.529H211.099C211.389 561.353 212.367 563.507 214.032 564.992C215.698 566.476 217.87 567.219 220.55 567.219C223.229 567.219 225.474 566.585 227.067 565.318C228.66 564.05 229.457 562.294 229.457 560.05C229.457 558.167 228.823 556.61 227.556 555.379C226.289 554.148 224.732 553.134 222.885 552.337C221.038 551.541 218.413 550.636 215.01 549.622C210.086 548.101 206.067 546.58 202.953 545.06C199.839 543.539 197.16 541.294 194.915 538.325C192.67 535.356 191.547 531.482 191.547 526.702C191.547 519.606 194.118 514.048 199.26 510.029C204.401 506.01 211.099 504 219.355 504C227.61 504 234.526 506.01 239.667 510.029C244.809 514.048 247.561 519.642 247.923 526.811H227.827C227.683 524.349 226.777 522.412 225.112 521C223.446 519.587 221.31 518.881 218.703 518.881C216.458 518.881 214.648 519.479 213.272 520.674C211.896 521.868 211.208 523.588 211.208 525.833C211.208 528.295 212.367 530.214 214.684 531.59C217.001 532.966 220.622 534.451 225.546 536.044C230.471 537.709 234.472 539.303 237.549 540.823C240.627 542.344 243.288 544.553 245.533 547.449C247.778 550.346 248.9 554.075 248.9 558.637C248.9 563.2 247.796 566.929 245.587 570.477C243.379 574.026 240.174 576.85 235.974 578.95C231.774 581.05 226.814 582.1 221.093 582.1C215.372 582.1 210.52 581.195 206.103 579.384Z" fill="#343433"/>
<path d="M278.881 518.881V534.306H303.756V548.644H278.881V565.372H307.015V580.253H260.307V504H307.015V518.881H278.881Z" fill="#343433"/>
<path d="M320.806 522.737C324.065 516.836 328.609 512.237 334.438 508.942C340.268 505.647 346.876 504 354.262 504C363.314 504 371.062 506.39 377.507 511.169C383.952 515.949 388.261 522.466 390.433 530.721H370.012C368.492 527.535 366.337 525.109 363.549 523.444C360.761 521.778 357.593 520.945 354.045 520.945C348.324 520.945 343.689 522.937 340.141 526.919C336.593 530.902 334.818 536.225 334.818 542.887C334.818 549.549 336.593 554.872 340.141 558.855C343.689 562.838 348.324 564.829 354.045 564.829C357.593 564.829 360.761 563.996 363.549 562.331C366.337 560.665 368.492 558.239 370.012 555.053H390.433C388.261 563.308 383.952 569.807 377.507 574.551C371.062 579.294 363.314 581.666 354.262 581.666C346.876 581.666 340.268 580.018 334.438 576.723C328.609 573.428 324.065 568.848 320.806 562.982C317.547 557.117 315.918 550.418 315.918 542.887C315.918 535.356 317.547 528.639 320.806 522.737Z" fill="#343433"/>
<path d="M420.086 504V549.622C420.086 554.184 421.209 557.696 423.454 560.158C425.698 562.62 428.993 563.851 433.338 563.851C437.683 563.851 441.014 562.62 443.332 560.158C445.649 557.696 446.808 554.184 446.808 549.622V504H465.382V549.513C465.382 556.32 463.934 562.077 461.037 566.784C458.141 571.491 454.248 575.039 449.36 577.429C444.472 579.819 439.023 581.014 433.012 581.014C427.002 581.014 421.625 579.837 416.882 577.484C412.139 575.13 408.391 571.582 405.639 566.838C402.888 562.095 401.512 556.32 401.512 549.513V504H420.086Z" fill="#343433"/>
<path d="M517.305 580.253L501.446 551.468H496.993V580.253H478.418V504H509.593C515.603 504 520.727 505.05 524.963 507.15C529.199 509.25 532.367 512.129 534.467 515.786C536.568 519.443 537.618 523.516 537.618 528.006C537.618 533.075 536.187 537.601 533.327 541.584C530.467 545.566 526.248 548.391 520.672 550.056L538.269 580.253H517.305ZM496.993 538.325H508.507C511.91 538.325 514.463 537.492 516.165 535.827C517.866 534.161 518.717 531.808 518.717 528.766C518.717 525.725 517.866 523.588 516.165 521.923C514.463 520.257 511.91 519.424 508.507 519.424H496.993V538.325Z" fill="#343433"/>
<path d="M567.815 504V580.253H549.24V504H567.815Z" fill="#343433"/>
<path d="M636.139 504V518.881H615.935V580.253H597.36V518.881H577.156V504H636.139Z" fill="#343433"/>
<path d="M710.865 504L684.47 555.053V580.253H665.895V555.053L639.5 504H660.573L675.346 535.935L690.01 504H710.865Z" fill="#343433"/>
</g>
<path d="M195.703 618.648C201.482 618.648 205.711 619.777 208.376 622.033C211.041 624.289 212.374 627.514 212.374 631.716C212.374 633.611 212.062 635.411 211.44 637.118C210.817 638.825 209.81 640.321 208.42 641.616C207.029 642.91 205.204 643.93 202.952 644.675C200.693 645.42 197.933 645.789 194.66 645.789H189.207V663.383H184V618.648H195.703ZM195.218 623.089H189.214V641.327H194.088C196.949 641.327 199.331 641.023 201.243 640.408C203.155 639.794 204.589 638.803 205.552 637.422C206.515 636.048 206.993 634.211 206.993 631.933C206.993 628.953 206.044 626.733 204.14 625.28C202.242 623.819 199.266 623.089 195.225 623.089H195.218Z" fill="#343433"/>
<path d="M263.662 663.391L258.144 649.196H240.184L234.702 663.391H229.43L246.955 618.469H251.641L269.043 663.391H263.648H263.662ZM256.58 644.575L251.344 630.466C251.221 630.097 251.025 629.497 250.743 628.658C250.467 627.819 250.185 626.951 249.903 626.055C249.62 625.158 249.381 624.435 249.2 623.885C248.997 624.724 248.773 625.556 248.541 626.38C248.309 627.204 248.078 627.971 247.853 628.673C247.629 629.374 247.433 629.974 247.274 630.466L241.944 644.575H256.594H256.58Z" fill="#343433"/>
<path d="M314.333 651.489C314.333 654.143 313.674 656.4 312.356 658.265C311.038 660.131 309.192 661.556 306.824 662.532C304.455 663.508 301.667 664 298.459 664C296.764 664 295.157 663.92 293.65 663.754C292.137 663.588 290.746 663.356 289.479 663.053C288.212 662.749 287.097 662.373 286.141 661.917V656.928C287.676 657.564 289.544 658.15 291.746 658.685C293.955 659.227 296.258 659.495 298.669 659.495C300.914 659.495 302.819 659.191 304.368 658.591C305.918 657.991 307.099 657.123 307.91 655.987C308.721 654.852 309.119 653.493 309.119 651.902C309.119 650.311 308.779 649.089 308.105 648.062C307.432 647.035 306.309 646.095 304.752 645.249C303.188 644.402 301.059 643.499 298.365 642.544C296.468 641.871 294.787 641.134 293.339 640.324C291.891 639.514 290.674 638.603 289.696 637.583C288.719 636.563 287.973 635.377 287.473 634.032C286.973 632.687 286.72 631.147 286.72 629.411C286.72 627.025 287.328 624.978 288.545 623.279C289.762 621.572 291.449 620.271 293.6 619.36C295.758 618.456 298.235 618 301.03 618C303.42 618 305.629 618.224 307.664 618.673C309.699 619.121 311.56 619.721 313.254 620.48L311.632 624.95C310.017 624.277 308.308 623.713 306.498 623.265C304.687 622.816 302.826 622.592 300.907 622.592C298.988 622.592 297.366 622.874 296.048 623.431C294.73 623.995 293.723 624.783 293.028 625.803C292.332 626.822 291.985 628.037 291.985 629.44C291.985 631.01 292.318 632.319 292.984 633.36C293.65 634.401 294.708 635.327 296.171 636.13C297.634 636.932 299.567 637.778 301.979 638.653C304.615 639.615 306.852 640.628 308.692 641.698C310.531 642.768 311.929 644.077 312.892 645.617C313.855 647.158 314.333 649.11 314.333 651.475V651.489Z" fill="#343433"/>
<path d="M362.548 651.489C362.548 654.143 361.889 656.4 360.571 658.265C359.253 660.131 357.406 661.556 355.038 662.532C352.67 663.508 349.882 664 346.674 664C344.979 664 343.372 663.92 341.865 663.754C340.352 663.588 338.961 663.356 337.694 663.053C336.427 662.749 335.311 662.373 334.355 661.917V656.928C335.891 657.564 337.759 658.15 339.961 658.685C342.169 659.227 344.472 659.495 346.884 659.495C349.129 659.495 351.034 659.191 352.583 658.591C354.133 657.991 355.314 657.123 356.125 655.987C356.928 654.852 357.334 653.493 357.334 651.902C357.334 650.311 356.994 649.089 356.32 648.062C355.647 647.035 354.524 646.095 352.967 645.249C351.403 644.402 349.274 643.499 346.58 642.544C344.682 641.871 343.002 641.134 341.554 640.324C340.106 639.514 338.889 638.603 337.911 637.583C336.934 636.563 336.188 635.377 335.688 634.032C335.188 632.687 334.935 631.147 334.935 629.411C334.935 627.025 335.543 624.978 336.76 623.279C337.976 621.572 339.664 620.271 341.815 619.36C343.973 618.456 346.449 618 349.245 618C351.635 618 353.843 618.224 355.878 618.673C357.913 619.121 359.775 619.721 361.469 620.48L359.847 624.95C358.232 624.277 356.523 623.713 354.712 623.265C352.902 622.816 351.041 622.592 349.122 622.592C347.203 622.592 345.58 622.874 344.262 623.431C342.944 623.995 341.938 624.783 341.243 625.803C340.547 626.822 340.2 628.037 340.2 629.44C340.2 631.01 340.533 632.319 341.199 633.36C341.865 634.401 342.923 635.327 344.386 636.13C345.848 636.932 347.782 637.778 350.194 638.653C352.83 639.615 355.067 640.628 356.907 641.698C358.746 642.768 360.144 644.077 361.107 645.617C362.07 647.158 362.548 649.11 362.548 651.475V651.489Z" fill="#343433"/>
<path d="M417.791 663.39H411.628L395.479 641.63L390.699 645.911V663.383H385.492V618.648H390.699V640.958C391.865 639.634 393.06 638.311 394.284 636.995C395.508 635.679 396.724 634.348 397.927 633.003L411.013 618.648H417.11L399.274 638.051L417.784 663.39H417.791Z" fill="#343433"/>
<path d="M462.668 663.391H437.727V618.656H462.668V623.248H442.933V637.719H461.538V642.246H442.933V658.799H462.668V663.391Z" fill="#343433"/>
<path d="M497.835 641.081L509.755 618.648H515.36L500.435 646.034V663.383H495.228V646.28L480.273 618.648H485.973L497.835 641.081Z" fill="#343433"/>
<path d="M560.579 651.489C560.579 654.143 559.92 656.4 558.602 658.265C557.284 660.131 555.438 661.556 553.07 662.532C550.701 663.508 547.913 664 544.705 664C543.011 664 541.403 663.92 539.897 663.754C538.383 663.588 536.993 663.356 535.725 663.053C534.458 662.749 533.343 662.373 532.387 661.917V656.928C533.922 657.564 535.79 658.15 537.992 658.685C540.201 659.227 542.504 659.495 544.915 659.495C547.16 659.495 549.065 659.191 550.615 658.591C552.164 657.991 553.345 657.123 554.156 655.987C554.96 654.852 555.365 653.493 555.365 651.902C555.365 650.311 555.025 649.089 554.351 648.062C553.678 647.035 552.555 646.095 550.998 645.249C549.434 644.402 547.305 643.499 544.611 642.544C542.714 641.871 541.034 641.134 539.585 640.324C538.137 639.514 536.92 638.603 535.942 637.583C534.965 636.563 534.219 635.377 533.719 634.032C533.22 632.687 532.966 631.147 532.966 629.411C532.966 627.025 533.574 624.978 534.791 623.279C536.008 621.572 537.695 620.271 539.846 619.36C542.004 618.456 544.481 618 547.276 618C549.666 618 551.875 618.224 553.91 618.673C555.945 619.121 557.806 619.721 559.5 620.48L557.878 624.95C556.263 624.277 554.554 623.713 552.744 623.265C550.933 622.816 549.072 622.592 547.153 622.592C545.234 622.592 543.612 622.874 542.294 623.431C540.976 623.995 539.969 624.783 539.274 625.803C538.579 626.822 538.231 628.037 538.231 629.44C538.231 631.01 538.564 632.319 539.23 633.36C539.897 634.401 540.954 635.327 542.417 636.13C543.88 636.932 545.813 637.778 548.225 638.653C550.861 639.615 553.099 640.628 554.938 641.698C556.777 642.768 558.175 644.077 559.138 645.617C560.101 647.158 560.579 649.11 560.579 651.475V651.489Z" fill="#343433"/>
<path d="M372.152 197.93C326.979 197.93 290.363 234.553 290.363 279.718C290.363 324.884 326.987 361.507 372.152 361.507C417.317 361.507 453.941 324.884 453.941 279.718C453.941 234.553 417.317 197.93 372.152 197.93ZM379.384 278.424V304.468C379.384 308.463 376.147 311.7 372.152 311.7C368.157 311.7 364.921 308.463 364.921 304.468V278.424C359.615 275.771 355.968 270.284 355.968 263.945C355.968 255.008 363.215 247.761 372.152 247.761C381.089 247.761 388.336 255.008 388.336 263.945C388.336 270.284 384.689 275.771 379.384 278.424Z" fill="#0D87C5"/>
<path d="M338.362 198.618V172.526C338.362 153.895 353.52 138.737 372.151 138.737C390.783 138.737 405.94 153.895 405.94 172.526V198.618C413.645 201.839 420.79 206.126 427.201 211.297V172.534C427.201 142.179 402.506 117.484 372.151 117.484C341.796 117.484 317.102 142.179 317.102 172.534V211.297C323.512 206.126 330.657 201.839 338.362 198.618Z" fill="#0D87C5"/>
<path d="M386.332 345.771C350.332 345.771 321.153 316.592 321.153 280.593C321.153 244.593 350.332 215.414 386.332 215.414C403.771 215.391 420.484 222.385 432.721 234.819C418.644 215.517 396.184 204.109 372.287 204.125C330.943 204.125 297.43 237.638 297.43 278.982C297.43 320.327 330.943 353.839 372.287 353.839C390.208 353.863 407.537 347.421 421.1 335.705C410.702 342.29 398.639 345.779 386.332 345.763" fill="#33CFFF"/>
<path d="M408.743 225.898C433.959 240.622 442.461 272.998 427.73 298.214C418.248 314.445 400.872 324.424 382.075 324.416C354.909 324.416 332.544 303.921 329.552 277.561C329.496 278.595 329.465 279.637 329.465 280.687C329.465 313.032 355.683 339.25 388.027 339.25C420.372 339.25 446.59 313.032 446.59 280.687C446.59 256.332 431.511 234.519 408.735 225.898" fill="#33CFFF"/>
<path d="M380.507 229.938C361.315 229.938 344.413 242.545 338.926 260.932C347.539 241.708 370.11 233.103 389.333 241.724C408.557 250.337 417.162 272.908 408.541 292.132C400.867 309.247 381.896 318.247 363.786 313.36C385.899 322.589 411.304 312.145 420.541 290.04C429.77 267.927 419.325 242.522 397.22 233.285C391.923 231.074 386.246 229.938 380.507 229.938Z" fill="#33CFFF"/>
<path d="M404.772 394.252C389.946 402.463 377.875 407.026 372.254 408.936C346.368 400.134 183.777 335.287 245.853 116.171C262.116 111.323 273.887 97.0577 279.247 89.392H465.269C470.63 97.0577 482.385 111.339 498.664 116.171C514.445 171.899 515.693 217.633 508.366 255.022C511.943 254.351 515.606 253.996 519.324 253.996C522.3 253.996 525.245 254.217 528.134 254.651C535.619 214.483 533.787 165.71 516.348 106.76L514.666 101.076L508.05 100.318C495.482 98.8971 483.159 82.4052 479.843 76.7289L477.048 72H267.421L264.666 76.7368C261.358 82.4052 249.129 98.8892 236.45 100.318L229.811 101.076L228.137 106.76C152.49 362.461 367.233 425.949 369.444 426.526L372.294 427.26L375.16 426.502C375.665 426.36 387.633 422.721 404.765 414.013V394.252H404.772Z" fill="#33CFFF"/>
<path d="M554.936 277.224C545.123 267.364 532.215 262.438 519.307 262.438C506.4 262.438 493.492 267.364 483.679 277.224C470.195 290.614 465.521 310.421 471.387 328.397C450.663 349.034 435.213 364.476 414.577 385.207C413.661 386.036 413.203 387.228 413.203 388.421V414.378C413.203 415.665 413.661 416.762 414.577 417.591C415.406 418.507 416.503 418.965 417.79 418.965H443.748C444.94 418.965 446.132 418.507 446.961 417.591C449.345 415.294 451.09 413.462 453.474 411.173C454.484 410.163 454.942 408.789 454.761 407.415C454.484 404.849 454.208 402.923 453.932 400.444C457.413 400.081 460.074 399.805 463.65 399.528C465.853 399.252 467.503 397.602 467.779 395.399C468.055 391.91 468.332 389.163 468.695 385.681C471.174 386.044 473.1 386.234 475.666 386.51C475.863 386.542 476.06 386.55 476.25 386.55C478.595 386.55 480.71 384.552 480.71 382.018V373.429H489.15C490.342 373.429 491.534 373.121 492.363 372.205C496.579 367.989 499.555 365.108 503.771 360.797C508.894 362.471 514.168 363.284 519.394 363.284C532.515 363.284 545.368 358.145 554.944 348.505C574.665 328.879 574.665 296.874 554.944 277.248L554.936 277.224ZM542.005 309.6C539.344 312.308 535.815 313.658 532.286 313.658C528.757 313.658 525.228 312.308 522.568 309.6C517.16 304.279 517.16 295.477 522.568 290.156C525.228 287.448 528.757 286.098 532.286 286.098C535.815 286.098 539.352 287.448 542.005 290.156C547.412 295.477 547.412 304.279 542.005 309.6Z" fill="#FCBF29"/>
<path d="M554.938 348.492C541.548 361.976 521.74 366.65 503.764 360.784C499.549 365.094 496.572 367.976 492.356 372.192C491.528 373.107 490.343 373.415 489.143 373.415H480.704V382.005C480.704 384.76 478.225 386.868 475.659 386.497C473.093 386.22 471.167 386.039 468.688 385.668C468.325 389.149 468.049 391.905 467.772 395.386C467.496 397.589 465.846 399.239 463.644 399.515C460.067 399.791 457.407 400.068 453.925 400.431C454.202 402.91 454.478 404.836 454.754 407.402C454.936 408.775 454.478 410.157 453.467 411.16C451.083 413.449 449.338 415.289 446.954 417.578C446.125 418.494 444.933 418.952 443.741 418.952H417.783C416.497 418.952 415.399 418.494 414.57 417.578L522.554 309.595C527.875 315.003 536.677 315.003 541.998 309.595C547.406 304.274 547.406 295.471 541.998 290.15L554.93 277.219C574.65 296.845 574.65 328.85 554.93 348.476L554.938 348.492Z" fill="#FE9923"/>
<defs>
<clipPath id="clip0_914_5156">
<rect width="674.866" height="78.1" fill="white" transform="translate(36 504)"/>
</clipPath>
</defs>
</svg>
