<svg width="252" height="250" viewBox="0 0 252 250" fill="none" xmlns="http://www.w3.org/2000/svg">
<g clip-path="url(#clip0_914_4900)">
<path d="M112.814 88.6211C80.9912 88.6211 55.1973 114.393 55.1973 146.177C55.1973 177.96 80.9968 203.732 112.814 203.732C144.631 203.732 170.43 177.96 170.43 146.177C170.43 114.393 144.631 88.6211 112.814 88.6211ZM117.908 145.266V163.593C117.908 166.404 115.628 168.682 112.814 168.682C110 168.682 107.72 166.404 107.72 163.593V145.266C103.982 143.399 101.413 139.538 101.413 135.077C101.413 128.788 106.518 123.688 112.814 123.688C119.109 123.688 124.215 128.788 124.215 135.077C124.215 139.538 121.645 143.399 117.908 145.266Z" fill="#0D87C5"/>
<path d="M89.0102 89.1062V70.7451C89.0102 57.6339 99.6881 46.9673 112.813 46.9673C125.938 46.9673 136.616 57.6339 136.616 70.7451V89.1062C142.044 91.3728 147.077 94.3895 151.593 98.0284V70.7506C151.593 49.3895 134.197 32.0117 112.813 32.0117C91.4294 32.0117 74.0332 49.3895 74.0332 70.7506V98.0284C78.5491 94.3895 83.5822 91.3728 89.0102 89.1062Z" fill="#0D87C5"/>
<path d="M122.801 192.662C97.441 192.662 76.886 172.129 76.886 146.796C76.886 121.462 97.441 100.929 122.801 100.929C135.086 100.912 146.86 105.834 155.48 114.584C145.564 101.001 129.742 92.9733 112.907 92.9844C83.7822 92.9844 60.1738 116.568 60.1738 145.662C60.1738 174.757 83.7822 198.34 112.907 198.34C125.532 198.357 137.739 193.823 147.294 185.579C139.969 190.212 131.472 192.668 122.801 192.657" fill="#33CFFF"/>
<path d="M138.59 108.305C156.353 118.666 162.343 141.449 151.965 159.194C145.286 170.616 133.045 177.638 119.804 177.632C100.667 177.632 84.9111 163.21 82.8034 144.66C82.7644 145.388 82.7422 146.121 82.7422 146.86C82.7422 169.621 101.212 188.071 123.997 188.071C146.782 188.071 165.252 169.621 165.252 146.86C165.252 129.721 154.629 114.371 138.585 108.305" fill="#33CFFF"/>
<path d="M118.696 111.152C105.177 111.152 93.2695 120.025 89.4043 132.963C95.4718 119.436 111.372 113.38 124.914 119.447C138.456 125.508 144.518 141.391 138.445 154.919C133.039 166.963 119.675 173.297 106.917 169.858C122.495 176.352 140.392 169.002 146.898 153.447C153.4 137.886 146.042 120.008 130.47 113.508C126.738 111.952 122.74 111.152 118.696 111.152Z" fill="#33CFFF"/>
<path d="M241.583 144.417C234.67 137.478 225.577 134.012 216.484 134.012C207.391 134.012 198.298 137.478 191.385 144.417C181.886 153.84 178.594 167.778 182.726 180.428C168.127 194.951 157.244 205.817 142.706 220.406C142.061 220.99 141.738 221.828 141.738 222.667V240.934C141.738 241.839 142.061 242.612 142.706 243.195C143.29 243.84 144.063 244.162 144.969 244.162H163.255C164.095 244.162 164.935 243.84 165.519 243.195C167.199 241.578 168.428 240.289 170.107 238.678C170.819 237.967 171.142 237.001 171.014 236.034C170.819 234.228 170.624 232.873 170.43 231.128C172.882 230.873 174.757 230.678 177.276 230.484C178.828 230.289 179.99 229.128 180.185 227.578C180.379 225.123 180.574 223.189 180.83 220.739C182.576 220.995 183.933 221.128 185.74 221.323C185.879 221.345 186.018 221.351 186.152 221.351C187.804 221.351 189.294 219.945 189.294 218.162V212.117H195.239C196.079 212.117 196.919 211.901 197.503 211.256C200.473 208.29 202.569 206.262 205.539 203.228C209.148 204.406 212.864 204.978 216.545 204.978C225.788 204.978 234.842 201.362 241.588 194.578C255.481 180.767 255.481 158.245 241.588 144.434L241.583 144.417ZM232.473 167.201C230.599 169.106 228.113 170.056 225.627 170.056C223.141 170.056 220.655 169.106 218.781 167.201C214.971 163.456 214.971 157.262 218.781 153.517C220.655 151.612 223.141 150.662 225.627 150.662C228.113 150.662 230.605 151.612 232.473 153.517C236.283 157.262 236.283 163.456 232.473 167.201Z" fill="#FCBF29"/>
<path d="M135.794 226.772C125.349 232.55 116.846 235.761 112.886 237.106C94.6502 230.911 -19.8877 185.278 23.8419 31.0833C35.2985 27.6722 43.5906 17.6333 47.3668 12.2389H178.411C182.187 17.6333 190.468 27.6833 201.936 31.0833C213.053 70.3 213.932 102.483 208.771 128.794C211.29 128.322 213.871 128.072 216.49 128.072C218.587 128.072 220.661 128.228 222.697 128.533C227.969 100.267 226.679 65.9444 214.394 24.4611L213.209 20.4611L208.549 19.9278C199.695 18.9278 191.013 7.32222 188.677 3.32778L186.709 0H39.0358L37.0948 3.33333C34.7646 7.32222 26.1499 18.9222 17.2183 19.9278L12.5411 20.4611L11.3621 24.4611C-41.9277 204.4 109.349 249.078 110.906 249.483L112.914 250L114.933 249.467C115.289 249.367 123.72 246.806 135.788 240.678V226.772H135.794Z" fill="#33CFFF"/>
<path d="M241.584 194.566C232.151 204.055 218.198 207.343 205.534 203.216C202.565 206.249 200.468 208.277 197.498 211.243C196.914 211.888 196.08 212.105 195.235 212.105H189.289V218.149C189.289 220.088 187.543 221.571 185.736 221.31C183.928 221.116 182.571 220.988 180.825 220.727C180.569 223.177 180.374 225.116 180.18 227.566C179.985 229.116 178.823 230.277 177.271 230.471C174.752 230.666 172.878 230.86 170.425 231.116C170.62 232.86 170.814 234.216 171.009 236.021C171.137 236.988 170.814 237.96 170.102 238.666C168.423 240.277 167.194 241.571 165.514 243.182C164.93 243.827 164.09 244.149 163.251 244.149H144.965C144.058 244.149 143.285 243.827 142.701 243.182L218.771 167.193C222.519 170.999 228.72 170.999 232.468 167.193C236.278 163.449 236.278 157.255 232.468 153.51L241.578 144.41C255.471 158.221 255.471 180.743 241.578 194.555L241.584 194.566Z" fill="#FE9923"/>
</g>
<defs>
<clipPath id="clip0_914_4900">
<rect width="252" height="250" fill="white"/>
</clipPath>
</defs>
</svg>
