<svg width="225" height="200" viewBox="0 0 225 200" fill="none" xmlns="http://www.w3.org/2000/svg">
<path d="M56.5027 2.15234H168.131C177.18 2.15234 184.526 9.49065 184.526 18.5295V130.035C184.526 139.073 177.18 146.412 168.131 146.412H56.5027C47.4538 146.412 40.1074 139.073 40.1074 130.035V18.5295C40.1074 9.49065 47.4538 2.15234 56.5027 2.15234Z" fill="#343433"/>
<path d="M168.13 4.30514C175.962 4.30514 182.37 10.7061 182.37 18.5297V130.035C182.37 137.858 175.962 144.259 168.13 144.259H56.5014C48.6691 144.259 42.2611 137.858 42.2611 130.035V18.5297C42.2611 10.7061 48.6691 4.30514 56.5014 4.30514H168.13ZM168.13 0H56.5014C46.2732 0 37.9512 8.31283 37.9512 18.5297V130.035C37.9512 140.252 46.2732 148.564 56.5014 148.564H168.13C178.358 148.564 186.68 140.252 186.68 130.035V18.5297C186.68 8.31283 178.358 0 168.13 0Z" fill="white"/>
<path d="M0 151.206C0 148.544 2.15768 146.387 4.8193 146.387H219.881C222.542 146.387 224.7 148.544 224.7 151.206V175.905C224.7 178.567 222.542 180.724 219.881 180.724H4.8193C2.15768 180.724 0 178.567 0 175.905V151.206Z" fill="white"/>
<g clip-path="url(#clip0_914_5234)">
<path d="M12.3161 157.452C13.2976 155.675 14.6663 154.29 16.4222 153.297C18.178 152.305 20.1684 151.809 22.3932 151.809C25.1197 151.809 27.4536 152.528 29.3948 153.968C31.3361 155.408 32.6339 157.371 33.2883 159.857H27.1373C26.6792 158.897 26.0303 158.167 25.1906 157.665C24.3508 157.163 23.3965 156.913 22.3278 156.913C20.6046 156.913 19.2086 157.512 18.1399 158.712C17.0711 159.912 16.5367 161.515 16.5367 163.522C16.5367 165.528 17.0711 167.132 18.1399 168.331C19.2086 169.531 20.6046 170.131 22.3278 170.131C23.3965 170.131 24.3508 169.88 25.1906 169.378C26.0303 168.876 26.6792 168.146 27.1373 167.186H33.2883C32.6339 169.673 31.3361 171.63 29.3948 173.059C27.4536 174.488 25.1197 175.202 22.3932 175.202C20.1684 175.202 18.178 174.706 16.4222 173.713C14.6663 172.721 13.2976 171.341 12.3161 169.574C11.3345 167.808 10.8438 165.79 10.8438 163.522C10.8438 161.253 11.3345 159.23 12.3161 157.452Z" fill="#343433"/>
<path d="M53.8361 164.978C54.6432 166.014 55.0467 167.197 55.0467 168.527C55.0467 170.447 54.376 171.968 53.0345 173.092C51.6931 174.215 49.8227 174.777 47.4234 174.777H36.7246V151.809H47.0635C49.3974 151.809 51.2241 152.343 52.5438 153.412C53.8634 154.481 54.5232 155.931 54.5232 157.763C54.5232 159.116 54.1687 160.239 53.4599 161.133C52.751 162.028 51.8076 162.649 50.6297 162.998C51.9603 163.282 53.0291 163.942 53.8361 164.978ZM42.3194 161.1H45.9838C46.8999 161.1 47.6033 160.899 48.0941 160.495C48.5849 160.092 48.8303 159.497 48.8303 158.712C48.8303 157.927 48.5849 157.327 48.0941 156.913C47.6033 156.498 46.8999 156.291 45.9838 156.291H42.3194V161.1ZM48.6176 169.624C49.1302 169.198 49.3865 168.582 49.3865 167.775C49.3865 166.968 49.1193 166.335 48.5849 165.877C48.0505 165.419 47.3143 165.19 46.3764 165.19H42.3194V170.262H46.4418C47.3798 170.262 48.105 170.049 48.6176 169.624Z" fill="#343433"/>
<path d="M62.0805 174.515C60.75 173.97 59.6866 173.163 58.8905 172.094C58.0944 171.025 57.6745 169.738 57.6309 168.233H63.5855C63.6728 169.084 63.9672 169.733 64.4689 170.18C64.9706 170.627 65.625 170.85 66.432 170.85C67.239 170.85 67.9152 170.66 68.3951 170.278C68.8749 169.896 69.1149 169.367 69.1149 168.691C69.1149 168.124 68.924 167.655 68.5423 167.284C68.1606 166.913 67.6916 166.608 67.1354 166.368C66.5792 166.128 65.7885 165.856 64.7634 165.55C63.2802 165.092 62.0696 164.634 61.1317 164.176C60.1938 163.718 59.3867 163.042 58.7106 162.147C58.0344 161.253 57.6963 160.086 57.6963 158.647C57.6963 156.509 58.4706 154.835 60.0193 153.624C61.5679 152.414 63.5855 151.809 66.0721 151.809C68.5587 151.809 70.6417 152.414 72.1904 153.624C73.739 154.835 74.5679 156.52 74.6769 158.679H68.6241C68.5805 157.938 68.3078 157.354 67.8061 156.929C67.3045 156.504 66.661 156.291 65.8758 156.291C65.1996 156.291 64.6543 156.471 64.2399 156.831C63.8255 157.191 63.6182 157.709 63.6182 158.385C63.6182 159.127 63.9672 159.705 64.6652 160.119C65.3632 160.533 66.4538 160.981 67.937 161.46C69.4202 161.962 70.6253 162.442 71.5524 162.9C72.4794 163.358 73.281 164.023 73.9571 164.896C74.6333 165.768 74.9714 166.892 74.9714 168.266C74.9714 169.64 74.6387 170.763 73.9735 171.832C73.3082 172.901 72.343 173.751 71.0779 174.384C69.8128 175.017 68.3187 175.333 66.5956 175.333C64.8724 175.333 63.411 175.06 62.0805 174.515Z" fill="#343433"/>
<path d="M84.001 156.291V160.937H91.4934V165.256H84.001V170.294H92.475V174.777H78.4062V151.809H92.475V156.291H84.001Z" fill="#343433"/>
<path d="M96.6286 157.452C97.6101 155.675 98.9788 154.29 100.735 153.297C102.491 152.305 104.481 151.809 106.706 151.809C109.432 151.809 111.766 152.528 113.707 153.968C115.649 155.408 116.946 157.371 117.601 159.857H111.45C110.992 158.897 110.343 158.167 109.503 157.665C108.663 157.163 107.709 156.913 106.64 156.913C104.917 156.913 103.521 157.512 102.452 158.712C101.384 159.912 100.849 161.515 100.849 163.522C100.849 165.528 101.384 167.132 102.452 168.331C103.521 169.531 104.917 170.131 106.64 170.131C107.709 170.131 108.663 169.88 109.503 169.378C110.343 168.876 110.992 168.146 111.45 167.186H117.601C116.946 169.673 115.649 171.63 113.707 173.059C111.766 174.488 109.432 175.202 106.706 175.202C104.481 175.202 102.491 174.706 100.735 173.713C98.9788 172.721 97.6101 171.341 96.6286 169.574C95.647 167.808 95.1562 165.79 95.1562 163.522C95.1562 161.253 95.647 159.23 96.6286 157.452Z" fill="#343433"/>
<path d="M126.532 151.809V165.55C126.532 166.924 126.87 167.982 127.547 168.724C128.223 169.465 129.215 169.836 130.524 169.836C131.833 169.836 132.836 169.465 133.534 168.724C134.232 167.982 134.581 166.924 134.581 165.55V151.809H140.176V165.517C140.176 167.568 139.739 169.302 138.867 170.72C137.994 172.137 136.822 173.206 135.35 173.926C133.877 174.646 132.236 175.006 130.426 175.006C128.615 175.006 126.996 174.651 125.567 173.942C124.138 173.233 123.01 172.165 122.181 170.736C121.352 169.307 120.938 167.568 120.938 165.517V151.809H126.532Z" fill="#343433"/>
<path d="M155.817 174.777L151.04 166.106H149.698V174.777H144.104V151.809H153.494C155.304 151.809 156.847 152.125 158.123 152.757C159.399 153.39 160.353 154.257 160.986 155.358C161.619 156.46 161.935 157.687 161.935 159.039C161.935 160.566 161.504 161.929 160.642 163.129C159.781 164.329 158.51 165.179 156.831 165.681L162.131 174.777H155.817ZM149.698 162.147H153.166C154.192 162.147 154.96 161.897 155.473 161.395C155.986 160.893 156.242 160.184 156.242 159.268C156.242 158.352 155.986 157.709 155.473 157.207C154.96 156.705 154.192 156.455 153.166 156.455H149.698V162.147Z" fill="#343433"/>
<path d="M171.03 151.809V174.777H165.436V151.809H171.03Z" fill="#343433"/>
<path d="M191.61 151.809V156.291H185.524V174.777H179.929V156.291H173.844V151.809H191.61Z" fill="#343433"/>
<path d="M214.119 151.809L206.168 167.186V174.777H200.574V167.186L192.623 151.809H198.97L203.42 161.428L207.837 151.809H214.119Z" fill="#343433"/>
</g>
<path d="M58.9469 186.34C60.6876 186.34 61.9614 186.68 62.7642 187.359C63.5669 188.039 63.9682 189.01 63.9682 190.276C63.9682 190.847 63.8744 191.389 63.6869 191.903C63.4993 192.417 63.1961 192.868 62.7772 193.258C62.3584 193.648 61.8087 193.955 61.1304 194.179C60.4498 194.404 59.6187 194.515 58.6328 194.515H56.9902V199.814H55.4219V186.34H58.9469ZM58.8007 187.677H56.9924V193.171H58.4604C59.3221 193.171 60.0397 193.079 60.6156 192.894C61.1914 192.709 61.6233 192.41 61.9135 191.994C62.2036 191.581 62.3475 191.027 62.3475 190.341C62.3475 189.444 62.0618 188.775 61.4881 188.337C60.9166 187.897 60.0201 187.677 58.8029 187.677H58.8007Z" fill="white"/>
<path d="M79.4165 199.816L77.7544 195.54H72.3447L70.6935 199.816H69.1055L74.3842 186.285H75.7955L81.0372 199.816H79.4122H79.4165ZM77.2832 194.148L75.7061 189.899C75.669 189.788 75.6101 189.607 75.5251 189.354C75.4422 189.102 75.3571 188.84 75.272 188.57C75.187 188.3 75.115 188.082 75.0604 187.917C74.9994 188.169 74.9317 188.42 74.8619 188.668C74.7921 188.916 74.7223 189.147 74.6547 189.359C74.5871 189.57 74.5282 189.751 74.4802 189.899L72.8748 194.148H77.2876H77.2832Z" fill="white"/>
<path d="M94.6793 196.232C94.6793 197.031 94.4808 197.711 94.0838 198.273C93.6868 198.835 93.1306 199.264 92.4173 199.558C91.704 199.852 90.8642 200 89.8979 200C89.3875 200 88.9032 199.976 88.4495 199.926C87.9936 199.876 87.5748 199.806 87.1931 199.715C86.8114 199.623 86.4754 199.51 86.1875 199.373V197.87C86.6499 198.061 87.2127 198.238 87.8758 198.399C88.5411 198.562 89.2348 198.643 89.9612 198.643C90.6374 198.643 91.211 198.552 91.6778 198.371C92.1446 198.19 92.5002 197.929 92.7445 197.587C92.9888 197.245 93.1088 196.835 93.1088 196.356C93.1088 195.877 93.0063 195.509 92.8034 195.199C92.6005 194.89 92.2624 194.607 91.7935 194.352C91.3223 194.097 90.681 193.825 89.8695 193.537C89.298 193.335 88.792 193.113 88.3557 192.869C87.9195 192.625 87.553 192.35 87.2585 192.043C86.964 191.736 86.7394 191.379 86.5889 190.974C86.4383 190.568 86.362 190.104 86.362 189.582C86.362 188.863 86.5452 188.246 86.9117 187.735C87.2781 187.221 87.7864 186.828 88.4342 186.554C89.0843 186.282 89.8303 186.145 90.6723 186.145C91.3921 186.145 92.0574 186.212 92.6703 186.347C93.2833 186.482 93.8439 186.663 94.3543 186.892L93.8657 188.238C93.3793 188.035 92.8645 187.865 92.3192 187.73C91.7738 187.595 91.2132 187.528 90.6352 187.528C90.0571 187.528 89.5685 187.613 89.1715 187.78C88.7745 187.95 88.4713 188.188 88.2619 188.495C88.0525 188.802 87.9478 189.168 87.9478 189.59C87.9478 190.063 88.0482 190.457 88.2488 190.771C88.4495 191.085 88.768 191.363 89.2086 191.605C89.6492 191.847 90.2316 192.102 90.958 192.365C91.752 192.655 92.426 192.96 92.9801 193.282C93.5341 193.605 93.9551 193.999 94.2453 194.463C94.5354 194.927 94.6793 195.515 94.6793 196.227V196.232Z" fill="white"/>
<path d="M109.203 196.232C109.203 197.031 109.004 197.711 108.607 198.273C108.21 198.835 107.654 199.264 106.941 199.558C106.227 199.852 105.388 200 104.421 200C103.911 200 103.427 199.976 102.973 199.926C102.517 199.876 102.098 199.806 101.717 199.715C101.335 199.623 100.999 199.51 100.711 199.373V197.87C101.173 198.061 101.736 198.238 102.399 198.399C103.065 198.562 103.758 198.643 104.485 198.643C105.161 198.643 105.734 198.552 106.201 198.371C106.668 198.19 107.024 197.929 107.268 197.587C107.51 197.245 107.632 196.835 107.632 196.356C107.632 195.877 107.53 195.509 107.327 195.199C107.124 194.89 106.786 194.607 106.317 194.352C105.846 194.097 105.204 193.825 104.393 193.537C103.821 193.335 103.315 193.113 102.879 192.869C102.443 192.625 102.076 192.35 101.782 192.043C101.487 191.736 101.263 191.379 101.112 190.974C100.962 190.568 100.885 190.104 100.885 189.582C100.885 188.863 101.069 188.246 101.435 187.735C101.802 187.221 102.31 186.828 102.958 186.554C103.608 186.282 104.354 186.145 105.196 186.145C105.916 186.145 106.581 186.212 107.194 186.347C107.807 186.482 108.367 186.663 108.878 186.892L108.389 188.238C107.903 188.035 107.388 187.865 106.843 187.73C106.297 187.595 105.737 187.528 105.159 187.528C104.581 187.528 104.092 187.613 103.695 187.78C103.298 187.95 102.995 188.188 102.785 188.495C102.576 188.802 102.471 189.168 102.471 189.59C102.471 190.063 102.572 190.457 102.772 190.771C102.973 191.085 103.291 191.363 103.732 191.605C104.173 191.847 104.755 192.102 105.481 192.365C106.275 192.655 106.949 192.96 107.504 193.282C108.058 193.605 108.479 193.999 108.769 194.463C109.059 194.927 109.203 195.515 109.203 196.227V196.232Z" fill="white"/>
<path d="M125.842 199.816H123.986L119.121 193.262L117.682 194.552V199.814H116.113V186.34H117.682V193.06C118.033 192.661 118.393 192.262 118.761 191.866C119.13 191.469 119.497 191.069 119.859 190.664L123.8 186.34H125.637L120.264 192.184L125.84 199.816H125.842Z" fill="white"/>
<path d="M139.358 199.818H131.846V186.344H139.358V187.727H133.414V192.085H139.018V193.449H133.414V198.435H139.358V199.818Z" fill="white"/>
<path d="M149.952 193.097L153.542 186.34H155.231L150.735 194.589V199.814H149.167V194.663L144.662 186.34H146.379L149.952 193.097Z" fill="white"/>
<path d="M168.849 196.232C168.849 197.031 168.651 197.711 168.254 198.273C167.857 198.835 167.301 199.264 166.587 199.558C165.874 199.852 165.034 200 164.068 200C163.557 200 163.073 199.976 162.619 199.926C162.164 199.876 161.745 199.806 161.363 199.715C160.981 199.623 160.645 199.51 160.357 199.373V197.87C160.82 198.061 161.383 198.238 162.046 198.399C162.711 198.562 163.405 198.643 164.131 198.643C164.807 198.643 165.381 198.552 165.848 198.371C166.315 198.19 166.67 197.929 166.914 197.587C167.157 197.245 167.279 196.835 167.279 196.356C167.279 195.877 167.176 195.509 166.973 195.199C166.77 194.89 166.432 194.607 165.963 194.352C165.492 194.097 164.851 193.825 164.039 193.537C163.468 193.335 162.962 193.113 162.526 192.869C162.089 192.625 161.723 192.35 161.428 192.043C161.134 191.736 160.909 191.379 160.759 190.974C160.608 190.568 160.532 190.104 160.532 189.582C160.532 188.863 160.715 188.246 161.082 187.735C161.448 187.221 161.956 186.828 162.604 186.554C163.254 186.282 164 186.145 164.842 186.145C165.562 186.145 166.227 186.212 166.84 186.347C167.453 186.482 168.014 186.663 168.524 186.892L168.036 188.238C167.549 188.035 167.034 187.865 166.489 187.73C165.944 187.595 165.383 187.528 164.805 187.528C164.227 187.528 163.738 187.613 163.341 187.78C162.944 187.95 162.641 188.188 162.432 188.495C162.222 188.802 162.118 189.168 162.118 189.59C162.118 190.063 162.218 190.457 162.419 190.771C162.619 191.085 162.938 191.363 163.379 191.605C163.819 191.847 164.402 192.102 165.128 192.365C165.922 192.655 166.596 192.96 167.15 193.282C167.704 193.605 168.125 193.999 168.415 194.463C168.705 194.927 168.849 195.515 168.849 196.227V196.232Z" fill="white"/>
<path d="M112.094 59.6172C98.4878 59.6172 87.459 70.6484 87.459 84.2525C87.459 97.8566 98.4902 108.888 112.094 108.888C125.698 108.888 136.73 97.8566 136.73 84.2525C136.73 70.6484 125.698 59.6172 112.094 59.6172ZM114.272 83.8625V91.7073C114.272 92.9105 113.298 93.8855 112.094 93.8855C110.891 93.8855 109.916 92.9105 109.916 91.7073V83.8625C108.318 83.0635 107.22 81.4109 107.22 79.5014C107.22 76.8096 109.402 74.6266 112.094 74.6266C114.786 74.6266 116.969 76.8096 116.969 79.5014C116.969 81.4109 115.87 83.0635 114.272 83.8625Z" fill="#0D87C5"/>
<path d="M101.917 59.8246V51.9656C101.917 46.3537 106.483 41.7881 112.095 41.7881C117.707 41.7881 122.272 46.3537 122.272 51.9656V59.8246C124.593 60.7948 126.745 62.0861 128.676 63.6436V51.968C128.676 42.8249 121.238 35.3867 112.095 35.3867C102.952 35.3867 95.5137 42.8249 95.5137 51.968V63.6436C97.4445 62.0861 99.5966 60.7948 101.917 59.8246Z" fill="#0D87C5"/>
<path d="M116.366 104.149C105.522 104.149 96.7336 95.3603 96.7336 84.517C96.7336 73.6736 105.522 64.8848 116.366 64.8848C121.619 64.8777 126.653 66.9845 130.338 70.7298C126.099 64.9157 119.333 61.4796 112.135 61.4844C99.6822 61.4844 89.5879 71.5787 89.5879 84.0319C89.5879 96.4851 99.6822 106.579 112.135 106.579C117.533 106.586 122.753 104.646 126.838 101.117C123.706 103.1 120.073 104.151 116.366 104.147" fill="#33CFFF"/>
<path d="M123.115 68.043C130.711 72.4778 133.272 82.2297 128.834 89.8248C125.978 94.7138 120.745 97.7195 115.083 97.7171C106.9 97.7171 100.164 91.544 99.2625 83.6041C99.2458 83.9156 99.2363 84.2295 99.2363 84.5458C99.2363 94.2881 107.133 102.185 116.876 102.185C126.618 102.185 134.515 94.2881 134.515 84.5458C134.515 77.2099 129.973 70.6397 123.113 68.043" fill="#33CFFF"/>
<path d="M114.61 69.2578C108.83 69.2578 103.739 73.0554 102.086 78.5935C104.68 72.8033 111.479 70.2114 117.269 72.8081C123.059 75.4024 125.651 82.2009 123.054 87.9911C120.743 93.1464 115.029 95.8573 109.574 94.3853C116.235 97.1651 123.887 94.0191 126.669 87.361C129.449 80.7004 126.303 73.0482 119.645 70.2661C118.049 69.6002 116.339 69.2578 114.61 69.2578Z" fill="#33CFFF"/>
<path d="M121.92 118.752C117.454 121.225 113.818 122.599 112.125 123.175C104.328 120.524 55.3545 100.991 74.0521 34.992C78.9507 33.5319 82.4962 29.235 84.1108 26.9261H140.142C141.756 29.235 145.297 33.5367 150.2 34.992C154.954 51.7778 155.33 65.5531 153.123 76.8149C154.2 76.6128 155.303 76.5058 156.423 76.5058C157.32 76.5058 158.207 76.5724 159.077 76.7032C161.331 64.6043 160.78 49.9135 155.527 32.1575L155.02 30.4454L153.028 30.2171C149.242 29.7891 145.53 24.8216 144.531 23.1119L143.69 21.6875H80.5486L79.7187 23.1143C78.7224 24.8216 75.039 29.7867 71.22 30.2171L69.2202 30.4454L68.7161 32.1575C45.9308 109.176 110.613 128.299 111.279 128.473L112.137 128.694L113 128.466C113.152 128.423 116.757 127.327 121.917 124.704V118.752H121.92Z" fill="#33CFFF"/>
<path d="M167.15 83.5007C164.194 80.5307 160.306 79.0469 156.418 79.0469C152.53 79.0469 148.642 80.5307 145.687 83.5007C141.625 87.5337 140.217 93.4999 141.984 98.9144C135.742 105.13 131.089 109.782 124.873 116.026C124.597 116.276 124.459 116.635 124.459 116.994V124.812C124.459 125.2 124.597 125.531 124.873 125.78C125.122 126.056 125.453 126.194 125.841 126.194H133.659C134.018 126.194 134.377 126.056 134.627 125.78C135.345 125.088 135.871 124.537 136.589 123.847C136.893 123.543 137.031 123.129 136.976 122.715C136.893 121.942 136.81 121.362 136.727 120.615C137.775 120.506 138.577 120.423 139.654 120.34C140.317 120.256 140.814 119.759 140.898 119.096C140.981 118.045 141.064 117.217 141.173 116.169C141.92 116.278 142.5 116.335 143.273 116.418C143.333 116.428 143.392 116.43 143.449 116.43C144.155 116.43 144.793 115.829 144.793 115.065V112.478H147.335C147.694 112.478 148.053 112.385 148.302 112.11C149.572 110.84 150.469 109.972 151.739 108.673C153.282 109.178 154.87 109.422 156.444 109.422C160.397 109.422 164.268 107.874 167.152 104.971C173.092 99.0595 173.092 89.4194 167.152 83.5079L167.15 83.5007ZM163.255 93.2526C162.453 94.0682 161.391 94.4749 160.328 94.4749C159.265 94.4749 158.202 94.0682 157.4 93.2526C155.771 91.6499 155.771 88.9985 157.4 87.3958C158.202 86.5801 159.265 86.1735 160.328 86.1735C161.391 86.1735 162.456 86.5801 163.255 87.3958C164.884 88.9985 164.884 91.6499 163.255 93.2526Z" fill="#FCBF29"/>
<path d="M167.151 104.968C163.118 109.029 157.151 110.437 151.737 108.67C150.467 109.969 149.571 110.837 148.301 112.106C148.051 112.382 147.694 112.475 147.333 112.475H144.791V115.062C144.791 115.892 144.044 116.527 143.271 116.415C142.499 116.332 141.918 116.277 141.172 116.166C141.062 117.214 140.979 118.044 140.896 119.093C140.813 119.756 140.316 120.253 139.652 120.336C138.575 120.42 137.774 120.503 136.725 120.612C136.808 121.359 136.892 121.939 136.975 122.712C137.029 123.126 136.891 123.542 136.587 123.844C135.869 124.533 135.343 125.088 134.625 125.777C134.376 126.053 134.017 126.191 133.658 126.191H125.839C125.451 126.191 125.121 126.053 124.871 125.777L157.396 93.2519C158.999 94.8807 161.65 94.8807 163.253 93.2519C164.882 91.6491 164.882 88.9978 163.253 87.395L167.148 83.5C173.088 89.4115 173.088 99.0516 167.148 104.963L167.151 104.968Z" fill="#FE9923"/>
<defs>
<clipPath id="clip0_914_5234">
<rect width="203.274" height="23.5242" fill="white" transform="translate(10.8438 151.809)"/>
</clipPath>
</defs>
</svg>
