<svg width="76" height="75" viewBox="0 0 76 75" fill="none" xmlns="http://www.w3.org/2000/svg">
<g clip-path="url(#clip0_914_4912)">
<path d="M34.0229 26.5859C24.4256 26.5859 16.6465 34.3176 16.6465 43.8526C16.6465 53.3876 24.4273 61.1193 34.0229 61.1193C43.6185 61.1193 51.3993 53.3876 51.3993 43.8526C51.3993 34.3176 43.6185 26.5859 34.0229 26.5859ZM35.5593 43.5793V49.0776C35.5593 49.9209 34.8716 50.6043 34.0229 50.6043C33.1742 50.6043 32.4865 49.9209 32.4865 49.0776V43.5793C31.3594 43.0193 30.5845 41.8609 30.5845 40.5226C30.5845 38.6359 32.1242 37.1059 34.0229 37.1059C35.9216 37.1059 37.4613 38.6359 37.4613 40.5226C37.4613 41.8609 36.6864 43.0193 35.5593 43.5793Z" fill="#0D87C5"/>
<path d="M26.845 26.7299V21.2216C26.845 17.2882 30.0653 14.0882 34.0237 14.0882C37.982 14.0882 41.2023 17.2882 41.2023 21.2216V26.7299C42.8393 27.4099 44.3573 28.3149 45.7192 29.4066V21.2232C45.7192 14.8149 40.4727 9.60156 34.0237 9.60156C27.5746 9.60156 22.3281 14.8149 22.3281 21.2232V29.4066C23.6901 28.3149 25.208 27.4099 26.845 26.7299Z" fill="#0D87C5"/>
<path d="M37.0361 57.7979C29.3878 57.7979 23.1886 51.6379 23.1886 44.0379C23.1886 36.4379 29.3878 30.2779 37.0361 30.2779C40.7411 30.2729 44.2919 31.7495 46.8916 34.3745C43.9011 30.2995 39.1293 27.8912 34.0522 27.8945C25.2684 27.8945 18.1484 34.9695 18.1484 43.6979C18.1484 52.4262 25.2684 59.5012 34.0522 59.5012C37.8596 59.5062 41.5412 58.1462 44.4227 55.6729C42.2138 57.0629 39.6509 57.7995 37.0361 57.7962" fill="#33CFFF"/>
<path d="M41.7981 32.4922C47.1553 35.6005 48.9617 42.4355 45.8319 47.7589C43.8175 51.1855 40.1259 53.2922 36.1323 53.2905C30.3609 53.2905 25.6092 48.9639 24.9735 43.3989C24.9618 43.6172 24.9551 43.8372 24.9551 44.0589C24.9551 50.8872 30.5253 56.4222 37.397 56.4222C44.2687 56.4222 49.8389 50.8872 49.8389 44.0589C49.8389 38.9172 46.6353 34.3122 41.7964 32.4922" fill="#33CFFF"/>
<path d="M35.799 33.3438C31.7216 33.3438 28.1305 36.0054 26.9648 39.8871C28.7947 35.8287 33.59 34.0121 37.6741 35.8321C41.7583 37.6504 43.5865 42.4154 41.7549 46.4737C40.1246 50.0871 36.0942 51.9871 32.2465 50.9554C36.9445 52.9037 42.342 50.6987 44.3044 46.0321C46.2651 41.3638 44.0461 36.0004 39.3497 34.0504C38.2243 33.5837 37.0183 33.3438 35.799 33.3438Z" fill="#33CFFF"/>
<path d="M72.8579 43.3248C70.7731 41.2431 68.0308 40.2031 65.2885 40.2031C62.5461 40.2031 59.8038 41.2431 57.719 43.3248C54.8542 46.1515 53.8613 50.3331 55.1075 54.1281C50.7047 58.4848 47.4223 61.7448 43.0379 66.1215C42.8434 66.2965 42.7461 66.5481 42.7461 66.7998V72.2798C42.7461 72.5515 42.8434 72.7831 43.0379 72.9581C43.2141 73.1515 43.4472 73.2481 43.7206 73.2481H49.2354C49.4887 73.2481 49.7419 73.1515 49.9181 72.9581C50.4246 72.4731 50.7953 72.0865 51.3018 71.6031C51.5165 71.3898 51.6138 71.0998 51.5752 70.8098C51.5165 70.2681 51.4578 69.8615 51.3991 69.3381C52.1388 69.2615 52.704 69.2031 53.4638 69.1448C53.9317 69.0865 54.2823 68.7381 54.341 68.2731C54.3997 67.5365 54.4584 66.9565 54.5356 66.2215C55.0622 66.2981 55.4715 66.3381 56.0166 66.3965C56.0585 66.4031 56.1004 66.4048 56.1407 66.4048C56.6388 66.4048 57.0883 65.9831 57.0883 65.4481V63.6348H58.8813C59.1346 63.6348 59.3879 63.5698 59.564 63.3765C60.4596 62.4865 61.092 61.8781 61.9876 60.9681C63.0762 61.3215 64.1966 61.4931 65.3069 61.4931C68.0945 61.4931 70.8251 60.4081 72.8596 58.3731C77.0494 54.2298 77.0494 47.4731 72.8596 43.3298L72.8579 43.3248ZM70.1106 50.1598C69.5454 50.7315 68.7956 51.0165 68.0459 51.0165C67.2961 51.0165 66.5464 50.7315 65.9812 50.1598C64.8323 49.0365 64.8323 47.1781 65.9812 46.0548C66.5464 45.4831 67.2961 45.1981 68.0459 45.1981C68.7956 45.1981 69.547 45.4831 70.1106 46.0548C71.2595 47.1781 71.2595 49.0365 70.1106 50.1598Z" fill="#FCBF29"/>
<path d="M40.9535 68.0317C37.8036 69.765 35.2391 70.7283 34.0448 71.1317C28.5451 69.2733 -5.99806 55.5833 7.19024 9.325C10.6454 8.30167 13.1462 5.29 14.285 3.67167H53.8063C54.9452 5.29 57.4426 8.305 60.9011 9.325C64.254 21.09 64.519 30.745 62.9625 38.6383C63.7223 38.4967 64.5005 38.4217 65.2905 38.4217C65.9229 38.4217 66.5485 38.4683 67.1623 38.56C68.7524 30.08 68.3633 19.7833 64.6582 7.33833L64.3009 6.13833L62.8954 5.97833C60.2252 5.67833 57.607 2.19667 56.9026 0.998333L56.3088 0H11.7725L11.1871 1C10.4844 2.19667 7.8863 5.67667 5.19262 5.97833L3.78204 6.13833L3.42647 7.33833C-12.645 61.32 32.9781 74.7233 33.4477 74.845L34.0532 75L34.6621 74.84C34.7694 74.81 37.3122 74.0417 40.9518 72.2033V68.0317H40.9535Z" fill="#33CFFF"/>
<path d="M72.8588 58.3709C70.0142 61.2175 65.8059 62.2042 61.9868 60.9659C61.0911 61.8759 60.4588 62.4842 59.5632 63.3742C59.387 63.5675 59.1354 63.6326 58.8805 63.6326H57.0875V65.4459C57.0875 66.0276 56.5609 66.4725 56.0157 66.3942C55.4706 66.3359 55.0614 66.2975 54.5347 66.2192C54.4576 66.9542 54.3989 67.5359 54.3402 68.2709C54.2815 68.7359 53.9309 69.0842 53.463 69.1425C52.7032 69.2009 52.1379 69.2592 51.3983 69.3359C51.457 69.8592 51.5157 70.2659 51.5744 70.8075C51.6129 71.0975 51.5157 71.3892 51.301 71.6009C50.7944 72.0842 50.4238 72.4725 49.9172 72.9559C49.7411 73.1492 49.4879 73.2459 49.2346 73.2459H43.7198C43.4464 73.2459 43.2132 73.1492 43.0371 72.9559L65.9787 50.1592C67.1091 51.3009 68.9793 51.3009 70.1098 50.1592C71.2587 49.0359 71.2587 47.1776 70.1098 46.0542L72.8571 43.3242C77.0469 47.4676 77.0469 54.2242 72.8571 58.3676L72.8588 58.3709Z" fill="#FE9923"/>
</g>
<defs>
<clipPath id="clip0_914_4912">
<rect width="76" height="75" fill="white"/>
</clipPath>
</defs>
</svg>
