<svg width="252" height="250" viewBox="0 0 252 250" fill="none" xmlns="http://www.w3.org/2000/svg">
<g clip-path="url(#clip0_914_4924)">
<path d="M89.0102 89.1062V70.7451C89.0102 57.6339 99.6881 46.9673 112.813 46.9673C125.938 46.9673 136.616 57.6339 136.616 70.7451V89.1062C142.044 91.3728 147.077 94.3895 151.593 98.0284V70.7506C151.593 49.3895 134.197 32.0117 112.813 32.0117C91.4294 32.0117 74.0332 49.3895 74.0332 70.7506V98.0284C78.5491 94.3895 83.5822 91.3728 89.0102 89.1062Z" fill="#343433"/>
<path d="M112.814 88.6211C80.9912 88.6211 55.1973 114.393 55.1973 146.177C55.1973 177.96 80.9968 203.738 112.814 203.738C144.631 203.738 170.43 177.966 170.43 146.177C170.43 114.388 144.631 88.6211 112.814 88.6211ZM112.908 198.338C83.7831 198.338 60.1748 174.754 60.1748 145.66C60.1748 116.566 83.7831 92.9822 112.908 92.9822C129.737 92.9711 145.56 100.999 155.481 114.582C146.867 105.832 135.087 100.916 122.802 100.927C97.442 100.927 76.8869 121.46 76.8869 146.793C76.8869 172.127 97.442 192.66 122.802 192.66C131.472 192.671 139.97 190.216 147.295 185.582C137.74 193.827 125.533 198.354 112.908 198.343V198.338ZM101.413 135.077C101.413 128.788 106.518 123.688 112.814 123.688C119.109 123.688 124.215 128.788 124.215 135.077C124.215 139.538 121.645 143.399 117.908 145.266V163.593C117.908 166.404 115.628 168.682 112.814 168.682C110 168.682 107.72 166.404 107.72 163.593V145.266C103.982 143.399 101.413 139.538 101.413 135.077ZM138.446 154.921C144.514 141.393 138.458 125.51 124.915 119.449C111.373 113.388 95.4732 119.438 89.4057 132.966C93.2653 120.027 105.178 111.154 118.698 111.154C122.741 111.154 126.74 111.954 130.471 113.51C146.049 120.004 153.407 137.888 146.9 153.449C140.399 169.01 122.496 176.36 106.919 169.86C119.677 173.304 133.041 166.966 138.446 154.921ZM124.003 188.071C101.218 188.071 82.7486 169.621 82.7486 146.86C82.7486 146.121 82.7709 145.388 82.8098 144.66C84.912 163.216 100.673 177.632 119.81 177.632C133.052 177.632 145.298 170.61 151.972 159.193C162.344 141.449 156.354 118.666 138.597 108.304C154.647 114.366 165.264 129.716 165.264 146.86C165.264 169.621 146.794 188.071 124.009 188.071H124.003Z" fill="#343433"/>
<path d="M241.583 144.417C234.67 137.478 225.577 134.012 216.484 134.012C207.391 134.012 198.298 137.478 191.385 144.417C181.886 153.84 178.594 167.778 182.726 180.428C168.127 194.951 157.244 205.817 142.706 220.406C142.061 220.99 141.738 221.828 141.738 222.667V240.934C141.738 241.839 142.061 242.612 142.706 243.195C143.29 243.84 144.063 244.162 144.969 244.162H163.255C164.095 244.162 164.935 243.84 165.519 243.195C167.199 241.578 168.428 240.289 170.107 238.678C170.819 237.967 171.142 237.001 171.014 236.034C170.819 234.228 170.624 232.873 170.43 231.128C172.882 230.873 174.757 230.678 177.276 230.484C178.828 230.289 179.99 229.128 180.185 227.578C180.379 225.123 180.574 223.189 180.83 220.739C182.576 220.995 183.933 221.128 185.74 221.323C185.879 221.345 186.018 221.351 186.152 221.351C187.804 221.351 189.294 219.945 189.294 218.162V212.117H195.239C196.079 212.117 196.919 211.901 197.503 211.256C200.473 208.29 202.569 206.262 205.539 203.228C209.148 204.406 212.864 204.978 216.545 204.978C225.788 204.978 234.842 201.362 241.588 194.578C255.481 180.767 255.481 158.245 241.588 144.434L241.583 144.417ZM232.473 167.201C230.599 169.106 228.113 170.056 225.627 170.056C223.141 170.056 220.655 169.106 218.781 167.201C214.971 163.456 214.971 157.262 218.781 153.517C220.655 151.612 223.141 150.662 225.627 150.662C228.113 150.662 230.605 151.612 232.473 153.517C236.283 157.262 236.283 163.456 232.473 167.201Z" fill="#343433"/>
<path d="M135.794 226.772C125.349 232.55 116.846 235.761 112.886 237.106C94.6502 230.911 -19.8877 185.278 23.8419 31.0833C35.2985 27.6722 43.5906 17.6333 47.3668 12.2389H178.411C182.187 17.6333 190.468 27.6833 201.936 31.0833C213.053 70.3 213.932 102.483 208.771 128.794C211.29 128.322 213.871 128.072 216.49 128.072C218.587 128.072 220.661 128.228 222.697 128.533C227.969 100.267 226.679 65.9444 214.394 24.4611L213.209 20.4611L208.549 19.9278C199.695 18.9278 191.013 7.32222 188.677 3.32778L186.709 0H39.0358L37.0948 3.33333C34.7646 7.32222 26.1499 18.9222 17.2183 19.9278L12.5411 20.4611L11.3621 24.4611C-41.9277 204.4 109.349 249.078 110.906 249.483L112.914 250L114.933 249.467C115.289 249.367 123.72 246.806 135.788 240.678V226.772H135.794Z" fill="#343433"/>
</g>
<defs>
<clipPath id="clip0_914_4924">
<rect width="252" height="250" fill="white"/>
</clipPath>
</defs>
</svg>
