<svg width="503" height="500" viewBox="0 0 503 500" fill="none" xmlns="http://www.w3.org/2000/svg">
<g clip-path="url(#clip0_914_4803)">
<path d="M225.18 177.246C161.661 177.246 110.176 228.791 110.176 292.357C110.176 355.924 161.672 407.468 225.18 407.468C288.688 407.468 340.185 355.924 340.185 292.357C340.185 228.791 288.688 177.246 225.18 177.246ZM235.349 290.535V327.191C235.349 332.813 230.797 337.368 225.18 337.368C219.563 337.368 215.012 332.813 215.012 327.191V290.535C207.552 286.802 202.424 279.079 202.424 270.157C202.424 257.579 212.614 247.379 225.18 247.379C237.746 247.379 247.937 257.579 247.937 270.157C247.937 279.079 242.808 286.802 235.349 290.535Z" fill="#0D87C5"/>
<path d="M177.668 178.212V141.49C177.668 115.268 198.981 93.9346 225.179 93.9346C251.377 93.9346 272.691 115.268 272.691 141.49V178.212C283.525 182.746 293.571 188.779 302.585 196.057V141.501C302.585 98.779 267.862 64.0234 225.179 64.0234C182.497 64.0234 147.773 98.779 147.773 141.501V196.057C156.787 188.779 166.834 182.746 177.668 178.212Z" fill="#0D87C5"/>
<path d="M245.118 385.324C194.498 385.324 153.469 344.258 153.469 293.591C153.469 242.924 194.498 201.858 245.118 201.858C269.639 201.824 293.14 211.669 310.346 229.169C290.553 202.002 258.971 185.947 225.369 185.969C167.234 185.969 120.111 233.135 120.111 291.324C120.111 349.513 167.234 396.68 225.369 396.68C250.568 396.713 274.934 387.647 294.006 371.158C279.386 380.424 262.424 385.335 245.118 385.313" fill="#33CFFF"/>
<path d="M276.633 216.613C312.089 237.336 324.044 282.902 303.33 318.391C289.998 341.235 265.565 355.28 239.134 355.269C200.936 355.269 169.488 326.424 165.28 289.324C165.203 290.78 165.158 292.247 165.158 293.724C165.158 339.247 202.024 376.147 247.504 376.147C292.984 376.147 329.85 339.247 329.85 293.724C329.85 259.447 308.647 228.747 276.621 216.613" fill="#33CFFF"/>
<path d="M236.925 222.301C209.939 222.301 186.172 240.045 178.457 265.923C190.568 238.867 222.305 226.756 249.336 238.89C276.366 251.012 288.466 282.779 276.344 309.834C265.554 333.923 238.879 346.59 213.413 339.712C244.507 352.701 280.229 338.001 293.217 306.89C306.194 275.767 291.508 240.012 260.425 227.012C252.977 223.901 244.995 222.301 236.925 222.301Z" fill="#33CFFF"/>
<path d="M482.209 288.835C468.411 274.957 450.261 268.023 432.111 268.023C413.961 268.023 395.811 274.957 382.013 288.835C363.053 307.679 356.481 335.557 364.729 360.857C335.589 389.901 313.865 411.635 284.848 440.812C283.56 441.979 282.916 443.657 282.916 445.335V481.868C282.916 483.679 283.56 485.223 284.848 486.39C286.013 487.679 287.556 488.323 289.366 488.323H325.865C327.541 488.323 329.217 487.679 330.383 486.39C333.736 483.157 336.189 480.579 339.541 477.357C340.962 475.935 341.606 474.001 341.351 472.068C340.962 468.457 340.574 465.746 340.185 462.257C345.081 461.746 348.822 461.357 353.85 460.968C356.947 460.579 359.267 458.257 359.656 455.157C360.044 450.246 360.433 446.379 360.944 441.479C364.429 441.99 367.138 442.257 370.746 442.646C371.023 442.69 371.301 442.701 371.567 442.701C374.864 442.701 377.839 439.89 377.839 436.323V424.235H389.706C391.382 424.235 393.058 423.801 394.224 422.512C400.152 416.579 404.337 412.523 410.265 406.457C417.469 408.812 424.884 409.957 432.233 409.957C450.683 409.957 468.755 402.723 482.22 389.157C509.95 361.535 509.95 316.49 482.22 288.868L482.209 288.835ZM464.026 334.401C460.285 338.212 455.323 340.112 450.361 340.112C445.399 340.112 440.437 338.212 436.696 334.401C429.092 326.912 429.092 314.523 436.696 307.035C440.437 303.223 445.399 301.323 450.361 301.323C455.323 301.323 460.296 303.223 464.026 307.035C471.63 314.523 471.63 326.912 464.026 334.401Z" fill="#FCBF29"/>
<path d="M271.049 453.544C250.201 465.1 233.228 471.522 225.324 474.211C188.925 461.822 -39.6965 370.556 47.5892 62.1667C70.4569 55.3444 87.0082 35.2667 94.5457 24.4778H356.114C363.652 35.2667 380.181 55.3667 403.071 62.1667C425.261 140.6 427.015 204.967 416.713 257.589C421.742 256.644 426.893 256.144 432.121 256.144C436.306 256.144 440.447 256.456 444.51 257.067C455.033 200.533 452.458 131.889 427.936 48.9222L425.572 40.9222L416.269 39.8556C398.597 37.8556 381.269 14.6444 376.606 6.65556L372.677 0H77.9166L74.0425 6.66667C69.3912 14.6444 52.1961 37.8444 34.3682 39.8556L25.0324 40.9222L22.679 48.9222C-83.689 408.8 218.264 498.156 221.372 498.967L225.38 500L229.409 498.933C230.12 498.733 246.949 493.611 271.037 481.356V453.544H271.049Z" fill="#33CFFF"/>
<path d="M482.208 389.131C463.381 408.109 435.529 414.687 410.253 406.431C404.325 412.498 400.14 416.554 394.212 422.487C393.047 423.776 391.382 424.209 389.694 424.209H377.827V436.298C377.827 440.176 374.342 443.143 370.734 442.62C367.126 442.231 364.418 441.976 360.932 441.454C360.421 446.354 360.033 450.231 359.644 455.131C359.256 458.231 356.936 460.554 353.839 460.943C348.81 461.331 345.069 461.72 340.173 462.231C340.562 465.72 340.951 468.431 341.339 472.043C341.594 473.976 340.951 475.92 339.53 477.331C336.177 480.554 333.724 483.143 330.371 486.365C329.206 487.654 327.53 488.298 325.853 488.298H289.354C287.545 488.298 286.002 487.654 284.836 486.365L436.673 334.387C444.155 341.998 456.532 341.998 464.014 334.387C471.618 326.898 471.618 314.509 464.014 307.02L482.197 288.82C509.927 316.443 509.927 361.487 482.197 389.109L482.208 389.131Z" fill="#FE9923"/>
</g>
<defs>
<clipPath id="clip0_914_4803">
<rect width="503" height="500" fill="white"/>
</clipPath>
</defs>
</svg>
