<svg width="518" height="178" viewBox="0 0 518 178" fill="none" xmlns="http://www.w3.org/2000/svg">
<g clip-path="url(#clip0_687_485)">
<path d="M89.0006 178C65.2281 178 42.8787 168.743 26.0696 151.934C9.26046 135.125 0 112.775 0 89.002C0 65.2291 9.25645 42.8794 26.0656 26.066C42.8747 9.25258 65.2281 0 89.0006 0C112.773 0 135.123 9.25659 151.932 26.066C168.741 42.8754 177.997 65.2251 177.997 88.998C177.997 112.771 168.741 135.121 151.932 151.93C135.123 168.739 112.773 177.996 89.0006 177.996V178ZM89.0006 6.01338C43.2395 6.01338 6.01329 43.2402 6.01329 89.002C6.01329 134.764 43.2395 171.991 89.0006 171.991C134.762 171.991 171.988 134.764 171.988 89.002C171.988 43.2402 134.758 6.01338 89.0006 6.01338Z" fill="url(#paint0_linear_687_485)"/>
<path d="M89.0006 159.916C95.18 159.916 100.189 154.906 100.189 148.727C100.189 142.548 95.18 137.538 89.0006 137.538C82.8213 137.538 77.8119 142.548 77.8119 148.727C77.8119 154.906 82.8213 159.916 89.0006 159.916Z" fill="#33CFFF"/>
<path d="M130.589 112.041V110.946C130.589 106.14 127.638 101.822 123.16 100.074L92.2077 88.0113C91.6144 87.7788 91.2256 87.2096 91.2256 86.5721V79.5605C90.3957 79.6848 89.5499 79.749 88.6839 79.749C87.818 79.749 86.9722 79.6848 86.1423 79.5605V86.5721C86.1423 87.2096 85.7535 87.7788 85.1601 88.0113L54.2078 100.074C49.7259 101.818 46.7794 106.136 46.7794 110.946V112.137C40.726 113.239 36.1238 118.547 36.1238 124.917C36.1238 132.081 41.9527 137.91 49.1165 137.91C56.2803 137.91 62.1092 132.081 62.1092 124.917C62.1092 118.696 57.7115 113.484 51.8626 112.217V110.946C51.8626 108.212 53.5102 105.803 56.0558 104.809L85.5891 93.2991C85.8577 93.1949 86.1503 93.3913 86.1503 93.684V136.054C80.3575 137.361 76.0159 142.545 76.0159 148.726C76.0159 155.89 81.8448 161.719 89.0087 161.719C96.1725 161.719 102.001 155.89 102.001 148.726C102.001 142.32 97.3391 136.984 91.2296 135.926V93.684C91.2296 93.3953 91.5222 93.1949 91.7908 93.2991L121.32 104.809C123.85 105.795 125.513 108.232 125.513 110.946V112.374C119.985 113.865 115.904 118.924 115.904 124.917C115.904 132.081 121.733 137.91 128.897 137.91C136.061 137.91 141.889 132.081 141.889 124.917C141.889 118.327 136.959 112.875 130.593 112.041H130.589ZM58.4932 124.917C58.4932 130.093 54.2839 134.302 49.1085 134.302C43.9331 134.302 39.7238 130.093 39.7238 124.917C39.7238 119.742 43.9331 115.533 49.1085 115.533C54.2839 115.533 58.4932 119.742 58.4932 124.917ZM98.3854 148.726C98.3854 153.902 94.1761 158.111 89.0006 158.111C83.8252 158.111 79.6159 153.902 79.6159 148.726C79.6159 143.551 83.8252 139.342 89.0006 139.342C94.1761 139.342 98.3854 143.551 98.3854 148.726ZM128.893 134.302C123.717 134.302 119.508 130.093 119.508 124.917C119.508 119.742 123.717 115.533 128.893 115.533C134.068 115.533 138.278 119.742 138.278 124.917C138.278 130.093 134.068 134.302 128.893 134.302Z" fill="#0D87C5"/>
<path d="M88.6799 80.6632C105.96 80.6632 119.969 66.6544 119.969 49.3736C119.969 32.0928 105.96 18.084 88.6799 18.084C71.3994 18.084 57.3908 32.0928 57.3908 49.3736C57.3908 66.6544 71.3994 80.6632 88.6799 80.6632Z" fill="url(#paint1_linear_687_485)"/>
<path d="M89.5218 25.3965C89.3454 25.2442 89.1209 25.156 88.8924 25.148C88.4274 25.0919 87.9664 25.3605 87.802 25.8175L87.794 25.8375C87.794 25.8375 87.7819 25.8696 87.7779 25.8856L78.5536 52.8416C78.4373 53.1824 78.5095 53.5632 78.742 53.8398C78.9745 54.1164 79.3353 54.2487 79.6961 54.1926L88.3312 52.7735L88.0024 72.6376C87.9944 73.1508 88.3672 73.5958 88.8764 73.6719C89.2091 73.7241 89.5338 73.6078 89.7583 73.3833C89.8786 73.263 89.9668 73.1147 90.0189 72.9463L98.678 43.4567C98.7782 43.116 98.6981 42.7512 98.4615 42.4866C98.229 42.222 97.8722 42.0937 97.5235 42.1538L89.5258 43.4688L89.8826 26.1983C89.8906 25.8936 89.7583 25.601 89.5298 25.4006L89.5218 25.3965Z" fill="white"/>
</g>
<g clip-path="url(#clip1_687_485)">
<path d="M202.531 62.6229C207.009 54.4841 213.271 48.1337 221.28 43.6081C229.288 39.046 238.353 36.7832 248.51 36.7832C260.96 36.7832 271.59 40.0679 280.472 46.6738C289.319 53.2797 295.252 62.258 298.237 73.645H270.17C268.095 69.2653 265.11 65.9076 261.287 63.6083C257.465 61.309 253.097 60.1776 248.218 60.1776C240.355 60.1776 233.985 62.9149 229.106 68.4259C224.228 73.9004 221.789 81.2728 221.789 90.4335C221.789 99.5942 224.228 106.967 229.106 112.441C233.985 117.916 240.355 120.689 248.218 120.689C253.097 120.689 257.465 119.558 261.287 117.259C265.11 114.959 268.095 111.638 270.17 107.222H298.237C295.252 118.609 289.319 127.551 280.472 134.084C271.59 140.617 260.96 143.901 248.51 143.901C238.353 143.901 229.252 141.638 221.243 137.076C213.234 132.551 206.973 126.237 202.495 118.135C198.017 110.032 195.76 100.799 195.76 90.4335C195.76 80.0684 198.017 70.7982 202.495 62.6594L202.531 62.6229Z" fill="#1D3366"/>
<path d="M392.051 98.2425C395.727 102.987 397.584 108.389 397.584 114.484C397.584 123.279 394.526 130.25 388.41 135.36C382.294 140.506 373.739 143.061 362.782 143.061H313.928V37.9863H361.107C371.774 37.9863 380.11 40.4316 386.117 45.3222C392.123 50.2128 395.145 56.8552 395.145 65.2494C395.145 71.4539 393.507 76.5634 390.303 80.6876C387.063 84.7752 382.768 87.622 377.38 89.2278C383.459 90.5417 388.337 93.5344 392.014 98.279L392.051 98.2425ZM339.483 80.5051H356.193C360.379 80.5051 363.583 79.5927 365.84 77.7313C368.097 75.87 369.189 73.1692 369.189 69.556C369.189 65.9429 368.06 63.2056 365.84 61.3078C363.619 59.4099 360.379 58.461 356.193 58.461H339.483V80.4686V80.5051ZM368.242 119.52C370.572 117.586 371.737 114.739 371.737 111.053C371.737 107.367 370.499 104.483 368.06 102.367C365.621 100.286 362.272 99.2279 357.976 99.2279H339.447V122.44H358.268C362.527 122.44 365.84 121.454 368.206 119.52H368.242Z" fill="#1D3366"/>
<path d="M487.065 161.09L473.632 142.987C469.664 143.79 465.769 144.192 461.983 144.192C452.117 144.192 443.089 141.893 434.862 137.294C426.634 132.695 420.118 126.308 415.276 118.06C410.435 109.812 408.032 100.578 408.032 90.2861C408.032 79.994 410.435 70.7603 415.276 62.5851C420.118 54.4098 426.634 48.0229 434.862 43.4243C443.089 38.8257 452.117 36.5264 461.983 36.5264C471.848 36.5264 480.876 38.8257 489.104 43.4243C497.331 48.0229 503.774 54.4098 508.507 62.5851C513.239 70.7603 515.606 79.994 515.606 90.2861C515.606 99.2643 513.785 107.476 510.145 114.921C506.505 122.367 501.444 128.535 494.965 133.425L517.972 161.126H487.065V161.09ZM441.706 112.476C446.729 118.024 453.464 120.797 461.946 120.797C470.428 120.797 477.017 117.987 482.041 112.403C487.065 106.819 489.577 99.4468 489.577 90.2496C489.577 81.0524 487.065 73.5706 482.041 68.0231C477.017 62.4756 470.319 59.7018 461.946 59.7018C453.573 59.7018 446.729 62.4391 441.706 67.9501C436.682 73.4246 434.17 80.8699 434.17 90.2496C434.17 99.6293 436.682 106.965 441.706 112.476Z" fill="#1D3366"/>
</g>
<defs>
<linearGradient id="paint0_linear_687_485" x1="141.191" y1="41.8795" x2="32.3045" y2="169.909" gradientUnits="userSpaceOnUse">
<stop offset="0.278846" stop-color="#33CFFF"/>
<stop offset="1" stop-color="#0D87C5"/>
</linearGradient>
<linearGradient id="paint1_linear_687_485" x1="107.029" y1="32.8075" x2="68.7481" y2="77.8187" gradientUnits="userSpaceOnUse">
<stop offset="0.278846" stop-color="#33CFFF"/>
<stop offset="1" stop-color="#0D87C5"/>
</linearGradient>
<clipPath id="clip0_687_485">
<rect width="177.997" height="178" fill="white"/>
</clipPath>
<clipPath id="clip1_687_485">
<rect width="322.175" height="124.6" fill="white" transform="translate(195.797 36.4902)"/>
</clipPath>
</defs>
</svg>
