<svg width="75" height="75" viewBox="0 0 75 75" fill="none" xmlns="http://www.w3.org/2000/svg">
<g clip-path="url(#clip0_682_4331)">
<path d="M37.5008 75C27.4842 75 18.0672 71.0997 10.9845 64.0171C3.90194 56.9345 0 47.5175 0 37.5008C0 27.4842 3.90025 18.0672 10.9829 10.9829C18.0655 3.89856 27.4842 0 37.5008 0C47.5175 0 56.9345 3.90025 64.0171 10.9829C71.0997 18.0655 75 27.4825 75 37.4992C75 47.5158 71.0997 56.9328 64.0171 64.0154C56.9345 71.0981 47.5175 74.9983 37.5008 74.9983V75ZM37.5008 2.53373C18.2192 2.53373 2.53373 18.2192 2.53373 37.5008C2.53373 56.7825 18.2192 72.468 37.5008 72.468C56.7825 72.468 72.468 56.7825 72.468 37.5008C72.468 18.2192 56.7808 2.53373 37.5008 2.53373Z" fill="url(#paint0_linear_682_4331)"/>
<path d="M37.5008 67.38C40.1045 67.38 42.2152 65.2693 42.2152 62.6656C42.2152 60.0619 40.1045 57.9512 37.5008 57.9512C34.8971 57.9512 32.7864 60.0619 32.7864 62.6656C32.7864 65.2693 34.8971 67.38 37.5008 67.38Z" fill="#33CFFF"/>
<path d="M55.0241 47.208V46.7468C55.0241 44.7215 53.7809 42.9023 51.8941 42.1658L38.8522 37.0832C38.6022 36.9852 38.4383 36.7454 38.4383 36.4768V33.5225C38.0887 33.5748 37.7323 33.6018 37.3674 33.6018C37.0026 33.6018 36.6461 33.5748 36.2965 33.5225V36.4768C36.2965 36.7454 36.1326 36.9852 35.8826 37.0832L22.8407 42.1658C20.9522 42.9006 19.7107 44.7198 19.7107 46.7468V47.2485C17.1601 47.713 15.2209 49.9495 15.2209 52.6335C15.2209 55.652 17.677 58.1081 20.6955 58.1081C23.714 58.1081 26.17 55.652 26.17 52.6335C26.17 50.012 24.317 47.8161 21.8526 47.2823V46.7468C21.8526 45.5948 22.5468 44.5796 23.6194 44.1607L36.0634 39.3112C36.1766 39.2673 36.2999 39.35 36.2999 39.4733V57.326C33.859 57.8766 32.0297 60.0607 32.0297 62.6654C32.0297 65.6839 34.4857 68.1399 37.5042 68.1399C40.5227 68.1399 42.9788 65.6839 42.9788 62.6654C42.9788 59.9661 41.0143 57.7179 38.44 57.2719V39.4733C38.44 39.3517 38.5633 39.2673 38.6765 39.3112L51.1188 44.1607C52.1846 44.5763 52.8856 45.6033 52.8856 46.7468V47.3482C50.5563 47.9765 48.8367 50.1082 48.8367 52.6335C48.8367 55.652 51.2928 58.1081 54.3113 58.1081C57.3298 58.1081 59.7858 55.652 59.7858 52.6335C59.7858 49.8566 57.7082 47.5593 55.0258 47.208H55.0241ZM24.6464 52.6335C24.6464 54.8142 22.8728 56.5878 20.6921 56.5878C18.5114 56.5878 16.7378 54.8142 16.7378 52.6335C16.7378 50.4528 18.5114 48.6792 20.6921 48.6792C22.8728 48.6792 24.6464 50.4528 24.6464 52.6335ZM41.4552 62.6654C41.4552 64.8461 39.6815 66.6197 37.5008 66.6197C35.3202 66.6197 33.5465 64.8461 33.5465 62.6654C33.5465 60.4847 35.3202 58.7111 37.5008 58.7111C39.6815 58.7111 41.4552 60.4847 41.4552 62.6654ZM54.3096 56.5878C52.1289 56.5878 50.3553 54.8142 50.3553 52.6335C50.3553 50.4528 52.1289 48.6792 54.3096 48.6792C56.4903 48.6792 58.2639 50.4528 58.2639 52.6335C58.2639 54.8142 56.4903 56.5878 54.3096 56.5878Z" fill="#0D87C5"/>
<path d="M37.3657 33.9878C44.6469 33.9878 50.5495 28.0852 50.5495 20.8039C50.5495 13.5227 44.6469 7.62012 37.3657 7.62012C30.0845 7.62012 24.1819 13.5227 24.1819 20.8039C24.1819 28.0852 30.0845 33.9878 37.3657 33.9878Z" fill="url(#paint1_linear_682_4331)"/>
<path d="M37.7205 10.7006C37.6462 10.6364 37.5516 10.5993 37.4553 10.5959C37.2593 10.5722 37.0651 10.6854 36.9958 10.878L36.9925 10.8864C36.9925 10.8864 36.9874 10.8999 36.9857 10.9067L33.099 22.2645C33.05 22.4081 33.0804 22.5686 33.1783 22.6851C33.2763 22.8017 33.4283 22.8574 33.5804 22.8338L37.2188 22.2358L37.0803 30.6056C37.0769 30.8218 37.234 31.0093 37.4485 31.0414C37.5887 31.0633 37.7255 31.0143 37.8201 30.9197C37.8708 30.8691 37.908 30.8066 37.9299 30.7356L41.5785 18.3102C41.6207 18.1667 41.5869 18.0129 41.4873 17.9015C41.3893 17.79 41.239 17.7359 41.092 17.7613L37.7222 18.3153L37.8725 11.0384C37.8759 10.9101 37.8201 10.7868 37.7239 10.7023L37.7205 10.7006Z" fill="white"/>
</g>
<defs>
<linearGradient id="paint0_linear_682_4331" x1="59.4916" y1="17.6458" x2="13.6125" y2="71.5917" gradientUnits="userSpaceOnUse">
<stop offset="0.278846" stop-color="#33CFFF"/>
<stop offset="1" stop-color="#0D87C5"/>
</linearGradient>
<linearGradient id="paint1_linear_682_4331" x1="45.0973" y1="13.8238" x2="28.9676" y2="32.7895" gradientUnits="userSpaceOnUse">
<stop offset="0.278846" stop-color="#33CFFF"/>
<stop offset="1" stop-color="#0D87C5"/>
</linearGradient>
<clipPath id="clip0_682_4331">
<rect width="75" height="75" fill="white"/>
</clipPath>
</defs>
</svg>
