<svg width="490" height="500" viewBox="0 0 490 500" fill="none" xmlns="http://www.w3.org/2000/svg">
<g clip-path="url(#clip0_902_2071)">
<path d="M389.078 444.485C383.892 440.728 377.662 438.719 371.275 438.719C371.207 438.719 371.14 438.719 371.084 438.719H370.994C367.526 438.719 364.091 439.329 360.836 440.525L321.358 393.429C321.358 384.154 321.358 358.034 321.358 349.143H351.306C366.201 349.132 378.268 337.002 378.279 322.03C378.279 322.03 378.257 273.67 378.279 263.91C378.268 248.938 366.201 236.808 351.306 236.797H145.385C130.501 236.842 118.457 248.96 118.412 263.91C118.389 281.049 118.423 304.834 118.412 322.03C118.457 336.991 130.512 349.098 145.385 349.143H169.934C169.754 357.605 170.069 379.63 169.934 388.374L130.725 434.928C126.797 433.225 122.711 432.412 118.681 432.412C106.906 432.412 95.6926 439.329 90.7312 450.883C84.0749 466.386 91.1802 484.382 106.603 491.084C110.532 492.788 114.618 493.601 118.648 493.601C130.422 493.601 141.636 486.684 146.597 475.13C150.582 465.867 149.752 455.215 144.386 446.685L185.75 397.514C187.164 395.889 187.939 393.801 187.905 391.635V349.154H239.337V408.718C223.275 413.705 214.284 430.844 219.245 446.99C223.286 460.124 235.319 468.563 248.317 468.563C251.292 468.563 254.323 468.123 257.32 467.187C273.383 462.2 282.374 445.061 277.412 428.914C274.438 419.256 266.928 411.708 257.32 408.718C257.32 398.755 257.32 358.305 257.32 349.154H303.353V396.701C303.342 398.845 304.071 400.921 305.418 402.58L346.513 451.481C336.68 465.212 339.789 484.36 353.45 494.244C358.838 498.136 365.056 500.021 371.23 500.021C380.704 500.021 390.043 495.598 396.003 487.271C405.836 473.539 402.727 454.392 389.066 444.508L389.078 444.485ZM118.681 475.502C111.8 475.502 106.222 469.895 106.222 462.989C106.222 456.084 111.8 450.465 118.681 450.477C125.562 450.646 130.995 456.4 130.815 463.305C130.647 469.974 125.315 475.345 118.681 475.514V475.502ZM260.844 437.997C260.698 444.846 255.131 450.285 248.351 450.285C248.261 450.285 248.16 450.285 248.07 450.285C241.38 450.138 235.992 444.722 235.847 437.997C235.992 431.149 241.56 425.71 248.34 425.71C248.43 425.71 248.531 425.71 248.62 425.71C255.311 425.857 260.698 431.273 260.844 437.997ZM259.767 293.009C259.756 297.996 255.737 302.036 250.776 302.047H166.342C161.381 302.047 157.351 297.996 157.351 293.009C157.351 288.022 161.381 283.972 166.342 283.972H250.809C255.748 283.972 259.756 287.988 259.767 292.953C259.767 292.976 259.767 292.998 259.767 293.021V293.009ZM312.064 310.882C302.309 310.746 294.429 302.826 294.283 293.009C294.418 283.092 302.466 275.137 312.311 275.137C312.4 275.137 312.479 275.137 312.569 275.137C322.323 275.272 330.203 283.193 330.338 293.009C330.203 302.927 322.155 310.882 312.311 310.882C312.221 310.882 312.142 310.882 312.052 310.882H312.064ZM371.084 481.923C364.181 481.923 358.579 476.304 358.579 469.364C358.579 462.425 364.169 456.806 371.073 456.806C377.976 457.043 383.375 462.865 383.14 469.804C382.915 476.405 377.639 481.697 371.073 481.934L371.084 481.923Z" fill="white"/>
<path d="M417.375 114.095C413.244 94.812 402.906 77.2555 387.91 64.2235C371.432 49.9052 350.374 42.0296 328.62 42.0296C314.117 42.0296 299.918 45.4935 287.155 52.1054C277.041 37.0989 263.616 24.5746 248.014 15.6045C230.245 5.39333 209.928 0 189.252 0C125.404 0 73.175 50.9546 70.7056 114.535C52.0386 118.992 35.0104 129.338 22.259 144.063C7.90232 160.638 0 181.681 0 203.31C0 227.614 9.63095 250.53 27.1193 267.839C44.5179 285.068 67.4504 294.546 91.6961 294.546H104.111C104.111 283.77 104.111 272.916 104.111 263.867C104.133 256.443 106.12 249.47 109.566 243.433C108.511 238.491 107.961 233.403 107.961 228.246C107.961 210.78 114.325 193.81 125.887 180.462C134.609 170.398 145.811 162.883 158.204 158.652C163.401 112.177 202.733 75.9354 250.337 75.9354C266.49 75.9354 282.373 80.1553 296.27 88.1437C306.204 93.853 315.015 101.413 322.21 110.36C330.506 107.167 339.362 105.497 348.364 105.497C365.886 105.497 382.847 111.85 396.126 123.381C406.711 132.577 414.412 144.571 418.396 157.851C431.642 161.845 443.664 169.551 452.947 180.146C464.688 193.551 471.142 210.633 471.142 228.257C471.142 245.882 464.688 263.032 452.891 276.448C456.393 273.841 459.726 270.975 462.892 267.85C480.38 250.542 490.011 227.626 490.011 203.322C490.011 160.57 459.132 123.088 417.386 114.106L417.375 114.095Z" fill="white"/>
<path d="M406.475 169.832C402.086 141.568 377.695 119.87 348.364 119.87C337.33 119.87 326.723 122.939 317.518 128.66C303.521 105.022 278.332 90.3086 250.337 90.3086C207.099 90.3086 171.92 125.67 171.92 169.132C171.92 169.403 171.92 169.685 171.92 169.945C144.127 174.65 122.25 198.999 122.25 228.245C122.25 228.696 122.272 229.147 122.284 229.61C128.884 225.097 136.831 222.456 145.373 222.423H351.305C374.035 222.445 392.545 241.051 392.568 263.899V263.944C392.568 267.668 392.568 277.134 392.568 287.357H397.372C429.801 287.357 456.841 260.842 456.841 228.233C456.841 198.739 434.605 174.232 406.475 169.821V169.832Z" fill="white"/>
</g>
<defs>
<clipPath id="clip0_902_2071">
<rect width="490" height="500" fill="white"/>
</clipPath>
</defs>
</svg>
