<svg width="276" height="50" viewBox="0 0 276 50" fill="none" xmlns="http://www.w3.org/2000/svg">
<path d="M58.1336 17.2186C59.3893 14.9457 61.138 13.1747 63.3842 11.9058C65.6305 10.6368 68.1791 10 71.0253 10C74.5133 10 77.499 10.9203 79.9825 12.761C82.4659 14.6017 84.1262 17.1117 84.9634 20.2911H77.0944C76.5084 19.064 75.676 18.1297 74.6063 17.4882C73.532 16.8468 72.3089 16.5261 70.9416 16.5261C68.7372 16.5261 66.9513 17.293 65.584 18.8269C64.2167 20.3608 63.5331 22.4107 63.5331 24.9765C63.5331 27.5423 64.2167 29.5921 65.584 31.126C66.9513 32.6599 68.7372 33.4269 70.9416 33.4269C72.3089 33.4269 73.5274 33.1061 74.6063 32.4647C75.6806 31.8232 76.5084 30.889 77.0944 29.6618H84.9634C84.1262 32.8412 82.4659 35.3466 79.9825 37.1733C77.499 39 74.5133 39.9157 71.0253 39.9157C68.1791 39.9157 65.6305 39.2836 63.3842 38.01C61.138 36.741 59.3893 34.9794 58.1336 32.7203C56.878 30.4567 56.2501 27.8769 56.2501 24.9765C56.2501 22.076 56.878 19.4916 58.1336 17.2186Z" fill="#1D3366"/>
<path d="M104.212 34.5143H93.2453L91.4873 39.7017H83.9951L94.6265 10.3345H102.914L113.545 39.7017H105.97L104.212 34.5143ZM102.37 28.9923L98.7284 18.241L95.1288 28.9923H102.37Z" fill="#1D3366"/>
<path d="M114.001 17.2184C115.257 14.9454 117.006 13.1745 119.252 11.9055C121.498 10.6365 124.047 10.0044 126.893 10.0044C130.381 10.0044 133.367 10.9247 135.85 12.7654C138.334 14.6061 139.994 17.1161 140.831 20.2955H132.962C132.376 19.0684 131.544 18.1341 130.474 17.4926C129.4 16.8512 128.177 16.5304 126.809 16.5304C124.605 16.5304 122.819 17.2974 121.452 18.8313C120.084 20.3652 119.401 22.4151 119.401 24.9809C119.401 27.5467 120.084 29.5965 121.452 31.1304C122.819 32.6643 124.605 33.4313 126.809 33.4313C128.177 33.4313 129.395 33.1105 130.474 32.4691C131.548 31.8276 132.376 30.8933 132.962 29.6662H140.831C139.994 32.8456 138.334 35.351 135.85 37.1777C133.367 39.0044 130.381 39.9201 126.893 39.9201C124.047 39.9201 121.498 39.288 119.252 38.0144C117.006 36.7454 115.257 34.9838 114.001 32.7247C112.746 30.4657 112.118 27.886 112.118 24.9855C112.118 22.085 112.746 19.5006 114.001 17.2277V17.2184Z" fill="#1D3366"/>
<path d="M168.955 10.3345V39.7017H161.798V27.6118H150.664V39.7017H143.506V10.3345H150.664V21.8387H161.798V10.3345H168.955Z" fill="#1D3366"/>
<path d="M181.261 16.0657V22.0061H190.846V27.5281H181.261V33.9705H192.101V39.7017H174.103V10.3345H192.101V16.0657H181.261Z" fill="#1D3366"/>
<path d="M217.062 27.264C218.095 28.5888 218.611 30.1042 218.611 31.8055C218.611 34.2599 217.751 36.2076 216.035 37.644C214.318 39.0804 211.923 39.7962 208.853 39.7962H195.166V10.4272H208.393C211.379 10.4272 213.714 11.1106 215.407 12.4772C217.095 13.8439 217.937 15.6986 217.937 18.0414C217.937 19.7707 217.481 21.207 216.579 22.3506C215.672 23.4941 214.463 24.289 212.956 24.7352C214.658 25.0978 216.025 25.9438 217.058 27.264H217.062ZM202.328 22.3087H207.016C208.188 22.3087 209.091 22.0531 209.719 21.5324C210.346 21.0164 210.658 20.2587 210.658 19.2547C210.658 18.2506 210.346 17.4836 209.719 16.9537C209.091 16.4238 208.188 16.1588 207.016 16.1588H202.328V22.3087ZM210.384 33.2094C211.039 32.6655 211.37 31.8799 211.37 30.8479C211.37 29.816 211.025 29.0071 210.342 28.4214C209.658 27.8357 208.714 27.5429 207.514 27.5429H202.324V34.0275H207.598C208.798 34.0275 209.723 33.7579 210.379 33.214L210.384 33.2094Z" fill="#1D3366"/>
<path d="M267.33 39.7962L261.344 30.8015L256.07 39.7962H247.95L257.368 24.8607L247.74 10.4272H256.07L261.972 19.2965L267.163 10.4272H275.283L265.949 25.2372L275.66 39.7962H267.33Z" fill="#1D3366"/>
<path d="M237.888 38.2114C230.801 38.2114 225.057 32.4875 225.057 25.4261C225.057 18.3647 230.801 12.6408 237.888 12.6408C241.462 12.6408 244.693 14.0976 247.02 16.448C244.34 12.7995 240.011 10.4272 235.123 10.4272C226.983 10.4272 220.384 17.0011 220.384 25.1117C220.384 33.2224 226.983 39.7962 235.122 39.7962C238.794 39.7962 242.15 38.4544 244.733 36.2394C242.751 37.488 240.405 38.2128 237.888 38.2128" fill="#1D3366"/>
<path d="M242.299 14.6958C245.384 16.4961 247.458 19.8317 247.458 23.6506C247.458 29.3788 242.797 34.0214 237.05 34.0229C231.701 34.0229 227.297 30.0032 226.71 24.8309C226.7 25.0346 226.693 25.2384 226.693 25.4436C226.693 31.7889 231.856 36.9321 238.223 36.9321C244.59 36.9321 249.753 31.7874 249.753 25.4436C249.753 20.5288 246.655 16.3374 242.299 14.6958Z" fill="#1D3366"/>
<path d="M236.741 15.4907C232.872 15.4907 229.604 18.0551 228.554 21.5712C229.727 18.9632 232.355 17.1469 235.409 17.1469C239.557 17.1469 242.919 20.4971 242.919 24.6303C242.919 28.7635 239.557 32.1137 235.409 32.1137C234.731 32.1137 234.074 32.0221 233.449 31.8547C234.461 32.2767 235.574 32.5096 236.741 32.5111C241.459 32.5111 245.281 28.6995 245.281 24.0002C245.281 19.2994 241.457 15.4907 236.741 15.4907Z" fill="#1D3366"/>
<g clip-path="url(#clip0_677_3913)">
<g opacity="0.95">
<path fill-rule="evenodd" clip-rule="evenodd" d="M25 14.0107C36.0457 14.0107 44.9998 20.0022 44.9998 24.9994C44.9998 29.9966 36.0457 35.9881 25 35.9881C38.8071 35.9881 50 31.0679 50 24.9994C50 18.9309 38.8071 14.0107 25 14.0107ZM5.00019 25.0004C5.00019 20.0032 13.9543 14.0117 25 14.0117C11.1929 14.0117 0 18.9319 0 25.0004C0 31.0688 11.1929 35.989 25 35.989C13.9543 35.989 5.00019 29.9966 5.00019 25.0004Z" fill="#1D3366"/>
<path fill-rule="evenodd" clip-rule="evenodd" d="M25 5.0001C29.9973 5.0001 35.9889 13.9541 35.9889 24.9995C35.9889 11.1927 31.0695 0 25 0C18.9304 0 14.0111 11.1927 14.0111 24.9995C14.0111 13.9541 20.0027 5.0001 25 5.0001ZM25 44.9999C20.0027 44.9999 14.0111 36.0459 14.0111 25.0005C14.0111 38.8073 18.9304 50 25 50C31.0695 50 35.9889 38.8073 35.9889 25.0005C35.9889 36.0459 29.9973 44.9999 25 44.9999Z" fill="#1D3366"/>
<path fill-rule="evenodd" clip-rule="evenodd" d="M12.7387 25.0004C12.7387 21.9628 18.1807 18.3218 24.8951 18.3218C16.503 18.3218 9.70007 21.3122 9.70007 25.0004C9.70007 28.6887 16.503 31.6791 24.8951 31.6791C18.1816 31.6791 12.7387 28.0371 12.7387 25.0004ZM24.8951 18.3208C31.6085 18.3208 37.0505 21.9628 37.0505 24.9995C37.0505 28.0361 31.6085 31.6781 24.8951 31.6781C33.2871 31.6781 40.0901 28.6877 40.0901 24.9995C40.0901 21.3112 33.2871 18.3208 24.8951 18.3208Z" fill="#1D3366"/>
<path fill-rule="evenodd" clip-rule="evenodd" d="M24.8951 12.8442C27.9318 12.8442 31.5739 18.2861 31.5739 24.9994C31.5739 16.6075 28.5834 9.80469 24.8951 9.80469C21.2068 9.80469 18.2163 16.6075 18.2163 24.9994C18.2163 18.2861 21.8584 12.8442 24.8951 12.8442ZM24.8951 37.1556C21.8575 37.1556 18.2163 31.7137 18.2163 24.9994C18.2163 33.3913 21.2068 40.1941 24.8951 40.1941C28.5834 40.1941 31.5739 33.3913 31.5739 24.9994C31.5739 31.7127 27.9318 37.1556 24.8951 37.1556Z" fill="#1D3366"/>
<path fill-rule="evenodd" clip-rule="evenodd" d="M24.7121 26.1113C24.7121 25.7494 24.457 25.3019 24.1461 25.1161L21.4126 23.4934C21.1008 23.3086 20.8467 23.4539 20.8467 23.8158V26.9621C20.8467 27.324 21.1037 27.7687 21.4174 27.9497L24.1432 29.5233C24.457 29.7043 24.714 29.556 24.714 29.1941V26.1103L24.7121 26.1113Z" fill="#1D3366"/>
<path fill-rule="evenodd" clip-rule="evenodd" d="M24.4618 24.5685C24.7736 24.7533 25.2828 24.7533 25.5947 24.5685L28.3243 22.9448C28.6352 22.76 28.6333 22.4597 28.3195 22.2787L25.5985 20.708C25.2847 20.527 24.7717 20.527 24.4579 20.708L21.7321 22.2816C21.4184 22.4626 21.4164 22.7619 21.7283 22.9467L24.4618 24.5695V24.5685Z" fill="#1D3366"/>
<path fill-rule="evenodd" clip-rule="evenodd" d="M25.9117 25.1162C25.6008 25.301 25.3457 25.7495 25.3457 26.1114V29.1942C25.3457 29.5561 25.6027 29.7044 25.9165 29.5234L28.6413 27.9507C28.9551 27.7698 29.2121 27.3251 29.2121 26.9632V23.812C29.2121 23.4501 28.957 23.3048 28.6461 23.4906L25.9126 25.1172H25.9117V25.1162Z" fill="#1D3366"/>
</g>
</g>
<defs>
<clipPath id="clip0_677_3913">
<rect width="50" height="50" fill="white"/>
</clipPath>
</defs>
</svg>
