<svg width="500" height="500" viewBox="0 0 500 500" fill="none" xmlns="http://www.w3.org/2000/svg">
<g clip-path="url(#clip0_677_4145)">
<g opacity="0.95">
<path fill-rule="evenodd" clip-rule="evenodd" d="M250 140.108C360.457 140.108 449.998 200.023 449.998 249.995C449.998 299.967 360.457 359.882 250 359.882C388.071 359.882 500 310.679 500 249.995C500 189.31 388.071 140.108 250 140.108ZM50.0019 250.005C50.0019 200.033 139.543 140.118 250 140.118C111.929 140.118 0 189.32 0 250.005C0 310.689 111.929 359.891 250 359.891C139.543 359.891 50.0019 299.967 50.0019 250.005Z" fill="#1D3366"/>
<path fill-rule="evenodd" clip-rule="evenodd" d="M250 50.001C299.973 50.001 359.889 139.541 359.889 249.995C359.889 111.927 310.695 0 250 0C189.305 0 140.111 111.927 140.111 249.995C140.111 139.541 200.027 50.001 250 50.001ZM250 449.999C200.027 449.999 140.111 360.459 140.111 250.005C140.111 388.073 189.305 500 250 500C310.695 500 359.889 388.073 359.889 250.005C359.889 360.459 299.973 449.999 250 449.999Z" fill="#1D3366"/>
<path fill-rule="evenodd" clip-rule="evenodd" d="M127.387 250.005C127.387 219.629 181.807 183.219 248.951 183.219C165.031 183.219 97.001 213.123 97.001 250.005C97.001 286.888 165.031 316.792 248.951 316.792C181.817 316.792 127.387 280.372 127.387 250.005ZM248.951 183.209C316.086 183.209 370.505 219.629 370.505 249.996C370.505 280.362 316.086 316.782 248.951 316.782C332.872 316.782 400.901 286.878 400.901 249.996C400.901 213.113 332.872 183.209 248.951 183.209Z" fill="#1D3366"/>
<path fill-rule="evenodd" clip-rule="evenodd" d="M248.951 128.443C279.318 128.443 315.739 182.862 315.739 249.995C315.739 166.076 285.834 98.0479 248.951 98.0479C212.068 98.0479 182.163 166.076 182.163 249.995C182.163 182.862 218.584 128.443 248.951 128.443ZM248.951 371.557C218.574 371.557 182.163 317.138 182.163 249.995C182.163 333.914 212.068 401.942 248.951 401.942C285.834 401.942 315.739 333.914 315.739 249.995C315.739 317.128 279.318 371.557 248.951 371.557Z" fill="#1D3366"/>
<path fill-rule="evenodd" clip-rule="evenodd" d="M247.121 261.113C247.121 257.494 244.57 253.019 241.461 251.161L214.126 234.934C211.008 233.086 208.467 234.539 208.467 238.158V269.621C208.467 273.24 211.037 277.687 214.174 279.497L241.432 295.233C244.57 297.043 247.14 295.56 247.14 291.941V261.103L247.121 261.113Z" fill="#1D3366"/>
<path fill-rule="evenodd" clip-rule="evenodd" d="M244.618 245.685C247.736 247.533 252.828 247.533 255.947 245.685L283.243 229.448C286.352 227.6 286.333 224.597 283.195 222.787L255.985 207.08C252.847 205.27 247.717 205.27 244.579 207.08L217.321 222.816C214.184 224.626 214.164 227.619 217.283 229.467L244.618 245.695V245.685Z" fill="#1D3366"/>
<path fill-rule="evenodd" clip-rule="evenodd" d="M259.117 251.162C256.008 253.01 253.457 257.495 253.457 261.114V291.942C253.457 295.561 256.027 297.044 259.165 295.234L286.413 279.507C289.551 277.698 292.121 273.251 292.121 269.632V238.12C292.121 234.501 289.57 233.048 286.461 234.906L259.126 251.172H259.117V251.162Z" fill="#1D3366"/>
</g>
</g>
<defs>
<clipPath id="clip0_677_4145">
<rect width="500" height="500" fill="white"/>
</clipPath>
</defs>
</svg>
