<svg width="982" height="178" viewBox="0 0 982 178" fill="none" xmlns="http://www.w3.org/2000/svg">
<path d="M206.956 61.2984C211.426 53.2067 217.651 46.9021 225.648 42.3846C233.644 37.8671 242.717 35.6001 252.85 35.6001C265.267 35.6001 275.896 38.8765 284.737 45.4293C293.579 51.9822 299.489 60.9178 302.469 72.2364H274.456C272.37 67.8678 269.406 64.5418 265.598 62.2582C261.774 59.9746 257.419 58.8329 252.552 58.8329C244.704 58.8329 238.346 61.5632 233.479 67.0239C228.611 72.4846 226.178 79.782 226.178 88.9163C226.178 98.0505 228.611 105.348 233.479 110.809C238.346 116.269 244.704 119 252.552 119C257.419 119 261.757 117.858 265.598 115.574C269.423 113.291 272.37 109.965 274.456 105.596H302.469C299.489 116.915 293.579 125.834 284.737 132.337C275.896 138.84 265.267 142.1 252.85 142.1C242.717 142.1 233.644 139.85 225.648 135.316C217.651 130.798 211.426 124.527 206.956 116.485C202.485 108.426 200.25 99.242 200.25 88.9163C200.25 78.5906 202.485 69.3902 206.956 61.2984Z" fill="#1D3366"/>
<path d="M370.993 122.871H331.953L325.695 141.338H299.022L336.87 36.7905H366.374L404.222 141.338H377.251L370.993 122.871ZM364.437 103.212L351.473 64.9379L338.658 103.212H364.437Z" fill="#1D3366"/>
<path d="M405.844 61.2985C410.314 53.2067 416.54 46.9021 424.536 42.3846C432.533 37.8672 441.606 35.6167 451.739 35.6167C464.156 35.6167 474.785 38.8931 483.626 45.4459C492.467 51.9988 498.378 60.9344 501.358 72.253H473.345C471.258 67.8844 468.295 64.5584 464.487 62.2748C460.662 59.9912 456.308 58.8495 451.441 58.8495C443.593 58.8495 437.235 61.5798 432.368 67.0405C427.5 72.5012 425.066 79.7986 425.066 88.9329C425.066 98.0671 427.5 105.365 432.368 110.825C437.235 116.286 443.593 119.016 451.441 119.016C456.308 119.016 460.646 117.875 464.487 115.591C468.311 113.307 471.258 109.981 473.345 105.613H501.358C498.378 116.931 492.467 125.85 483.626 132.354C474.785 138.857 464.156 142.117 451.739 142.117C441.606 142.117 432.533 139.866 424.536 135.332C416.54 130.815 410.314 124.543 405.844 116.501C401.374 108.459 399.139 99.2751 399.139 88.9494C399.139 78.6238 401.374 69.4233 405.844 61.3316V61.2985Z" fill="#1D3366"/>
<path d="M601.479 36.7905V141.338H575.999V98.2977H536.363V141.338H510.883V36.7905H536.363V77.7457H575.999V36.7905H601.479Z" fill="#1D3366"/>
<path d="M645.288 57.1936V78.3414H679.411V97.9999H645.288V120.935H683.881V141.338H619.808V36.7905H683.881V57.1936H645.288Z" fill="#1D3366"/>
<path d="M772.742 97.0598C776.418 101.776 778.256 107.171 778.256 113.228C778.256 121.965 775.193 128.899 769.083 134.013C762.973 139.126 754.446 141.675 743.518 141.675H694.79V37.1211H741.879C752.509 37.1211 760.821 39.5537 766.848 44.419C772.858 49.2843 775.855 55.8871 775.855 64.2276C775.855 70.3836 774.232 75.4971 771.02 79.5681C767.791 83.639 763.487 86.4688 758.122 88.0575C764.182 89.3482 769.05 92.3601 772.726 97.0598H772.742ZM720.288 79.4191H736.978C741.151 79.4191 744.363 78.509 746.598 76.6555C748.833 74.8186 749.943 72.1212 749.943 68.5467C749.943 64.9723 748.833 62.2418 746.598 60.3552C744.363 58.4687 741.151 57.5254 736.978 57.5254H720.288V79.4191ZM748.966 118.225C751.3 116.289 752.476 113.493 752.476 109.819C752.476 106.145 751.251 103.266 748.817 101.18C746.383 99.0953 743.022 98.0528 738.75 98.0528H720.272V121.138H739.048C743.32 121.138 746.615 120.178 748.949 118.242L748.966 118.225Z" fill="#1D3366"/>
<path d="M951.695 141.675L930.385 109.653L911.609 141.675H882.7L916.229 88.5043L881.955 37.1211H911.609L932.621 68.6957L951.099 37.1211H980.008L946.777 89.8447L981.349 141.675H951.695Z" fill="#1D3366"/>
<path d="M846.882 136.033C821.653 136.033 801.202 115.655 801.202 90.517C801.202 65.3785 821.653 45.0015 846.882 45.0015C859.606 45.0015 871.108 50.1877 879.391 58.5551C869.85 45.5662 854.438 37.1211 837.039 37.1211C808.061 37.1211 784.568 60.5239 784.568 89.3979C784.568 118.272 808.061 141.675 837.034 141.675C850.106 141.675 862.055 136.898 871.249 129.012C864.192 133.458 855.842 136.038 846.882 136.038" fill="#1D3366"/>
<path d="M862.585 52.3179C873.567 58.7268 880.951 70.6018 880.951 84.1969C880.951 104.589 864.359 121.117 843.897 121.122C824.856 121.122 809.178 106.812 807.088 88.3987C807.052 89.124 807.026 89.8494 807.026 90.5799C807.026 113.169 825.407 131.479 848.073 131.479C870.739 131.479 889.12 113.164 889.12 90.5799C889.12 73.0835 878.091 58.1621 862.585 52.3179Z" fill="#1D3366"/>
<path d="M842.797 55.147C829.023 55.147 817.391 64.276 813.652 76.7934C817.828 67.509 827.182 61.043 838.055 61.043C852.822 61.043 864.792 72.9698 864.792 87.684C864.792 102.398 852.822 114.325 838.055 114.325C835.642 114.325 833.302 113.999 831.077 113.403C834.68 114.905 838.643 115.734 842.797 115.739C859.593 115.739 873.2 102.17 873.2 85.4406C873.2 68.7058 859.587 55.147 842.797 55.147Z" fill="#1D3366"/>
<g clip-path="url(#clip0_677_3775)">
<g opacity="0.95">
<path fill-rule="evenodd" clip-rule="evenodd" d="M89 49.8784C128.323 49.8784 160.199 71.208 160.199 88.998C160.199 106.788 128.323 128.118 89 128.118C138.153 128.118 178 110.602 178 88.998C178 67.3944 138.153 49.8784 89 49.8784ZM17.8007 89.0015C17.8007 71.2114 49.6775 49.8818 89 49.8818C39.8468 49.8818 0 67.3978 0 89.0015C0 110.605 39.8468 128.121 89 128.121C49.6775 128.121 17.8007 106.788 17.8007 89.0015Z" fill="#0D87C5"/>
<path fill-rule="evenodd" clip-rule="evenodd" d="M89 17.8003C106.79 17.8003 128.12 49.6765 128.12 88.9983C128.12 39.846 110.608 0 89 0C67.3925 0 49.8796 39.846 49.8796 88.9983C49.8796 49.6765 71.2096 17.8003 89 17.8003ZM89 160.2C71.2096 160.2 49.8796 128.324 49.8796 89.0017C49.8796 138.154 67.3925 178 89 178C110.608 178 128.12 138.154 128.12 89.0017C128.12 128.324 106.79 160.2 89 160.2Z" fill="#33CFFF"/>
<path fill-rule="evenodd" clip-rule="evenodd" d="M45.3498 89.0016C45.3498 78.1878 64.7233 65.2256 88.6266 65.2256C58.7509 65.2256 34.5323 75.8715 34.5323 89.0016C34.5323 102.132 58.7509 112.778 88.6266 112.778C64.7267 112.778 45.3498 99.8121 45.3498 89.0016ZM88.6266 65.2222C112.526 65.2222 131.9 78.1878 131.9 88.9982C131.9 99.8086 112.526 112.774 88.6266 112.774C118.502 112.774 142.721 102.128 142.721 88.9982C142.721 75.8681 118.502 65.2222 88.6266 65.2222Z" fill="#0D87C5"/>
<path fill-rule="evenodd" clip-rule="evenodd" d="M88.6265 45.726C99.4371 45.726 112.403 65.099 112.403 88.9984C112.403 59.1233 101.757 34.9053 88.6265 34.9053C75.4962 34.9053 64.85 59.1233 64.85 88.9984C64.85 65.099 77.8159 45.726 88.6265 45.726ZM88.6265 132.274C77.8125 132.274 64.85 112.901 64.85 88.9984C64.85 118.874 75.4962 143.092 88.6265 143.092C101.757 143.092 112.403 118.874 112.403 88.9984C112.403 112.898 99.4371 132.274 88.6265 132.274Z" fill="#33CFFF"/>
<path fill-rule="evenodd" clip-rule="evenodd" d="M87.975 92.9563C87.975 91.6679 87.067 90.0746 85.9603 89.4133L76.229 83.6364C75.1188 82.9785 74.2142 83.4959 74.2142 84.7842V95.9852C74.2142 97.2736 75.1291 98.8566 76.2461 99.5008L85.95 105.103C87.067 105.747 87.9819 105.219 87.9819 103.931V92.9528L87.975 92.9563Z" fill="url(#paint0_linear_677_3775)"/>
<path fill-rule="evenodd" clip-rule="evenodd" d="M87.084 87.4639C88.1942 88.1218 90.0068 88.1218 91.117 87.4639L100.835 81.6835C101.941 81.0256 101.934 79.9566 100.817 79.3124L91.1307 73.7204C90.0137 73.0763 88.1873 73.0763 87.0703 73.7204L77.3664 79.3227C76.2494 79.9668 76.2425 81.0325 77.3527 81.6903L87.084 87.4673V87.4639Z" fill="url(#paint1_linear_677_3775)"/>
<path fill-rule="evenodd" clip-rule="evenodd" d="M92.2455 89.4136C91.1387 90.0715 90.2307 91.6682 90.2307 92.9566V103.931C90.2307 105.22 91.1456 105.747 92.2626 105.103L101.963 99.5045C103.08 98.8603 103.995 97.2773 103.995 95.989V84.7708C103.995 83.4825 103.087 82.9651 101.98 83.6264L92.2489 89.4171H92.2455V89.4136Z" fill="url(#paint2_linear_677_3775)"/>
</g>
</g>
<defs>
<linearGradient id="paint0_linear_677_3775" x1="85.135" y1="88.5331" x2="72.1062" y2="98.1083" gradientUnits="userSpaceOnUse">
<stop offset="0.278846" stop-color="#33CFFF"/>
<stop offset="1" stop-color="#0D87C5"/>
</linearGradient>
<linearGradient id="paint1_linear_677_3775" x1="96.4625" y1="76.7006" x2="89.1812" y2="91.32" gradientUnits="userSpaceOnUse">
<stop offset="0.278846" stop-color="#33CFFF"/>
<stop offset="1" stop-color="#0D87C5"/>
</linearGradient>
<linearGradient id="paint2_linear_677_3775" x1="101.149" y1="88.5238" x2="88.1158" y2="98.0944" gradientUnits="userSpaceOnUse">
<stop offset="0.278846" stop-color="#33CFFF"/>
<stop offset="1" stop-color="#0D87C5"/>
</linearGradient>
<clipPath id="clip0_677_3775">
<rect width="178" height="178" fill="white"/>
</clipPath>
</defs>
</svg>
