<svg width="600" height="280" viewBox="0 0 600 280" fill="none" xmlns="http://www.w3.org/2000/svg">
<path d="M60.8057 278.821V265.175L56.4753 274.767H52.6862L48.3559 265.175V278.821H41.2388V252.914H48.9974L54.5708 265.095L60.1842 252.914H67.9228V278.821H60.8057Z" fill="#093D39"/>
<path d="M84.0421 279.007C82.0774 279.007 80.2931 278.646 78.6892 277.903C77.0854 277.161 75.7021 276.157 74.5593 274.913C73.3965 273.669 72.5144 272.244 71.8929 270.679C71.2714 269.114 70.9707 267.488 70.9707 265.803C70.9707 264.117 71.2915 262.431 71.9531 260.866C72.6146 259.301 73.5369 257.916 74.6996 256.692C75.8624 255.468 77.2859 254.505 78.8897 253.782C80.5136 253.08 82.2778 252.719 84.2025 252.719C86.1271 252.719 87.9515 253.08 89.5553 253.822C91.1592 254.565 92.5224 255.568 93.6852 256.833C94.828 258.097 95.7101 259.522 96.3316 261.087C96.9531 262.652 97.2538 264.278 97.2538 265.923C97.2538 267.569 96.933 269.254 96.2915 270.82C95.6499 272.385 94.7277 273.769 93.5649 274.994C92.3821 276.218 90.9988 277.201 89.3949 277.923C87.7911 278.646 86.0068 279.007 84.0621 279.007H84.0421ZM78.168 265.883C78.168 266.766 78.2883 267.609 78.5288 268.411C78.7694 269.234 79.1303 269.957 79.6315 270.599C80.1126 271.241 80.7341 271.763 81.4759 272.124C82.2177 272.505 83.0998 272.686 84.1223 272.686C85.1447 272.686 86.0268 272.485 86.7887 272.104C87.5505 271.723 88.1519 271.181 88.6331 270.519C89.1142 269.856 89.4551 269.114 89.6957 268.291C89.9362 267.468 90.0365 266.646 90.0365 265.783C90.0365 264.92 89.9162 264.077 89.6756 263.274C89.435 262.472 89.0742 261.749 88.573 261.107C88.0918 260.465 87.4703 259.963 86.7085 259.602C85.9466 259.241 85.0846 259.06 84.0822 259.06C83.0798 259.06 82.1776 259.261 81.4358 259.642C80.694 260.023 80.0725 260.545 79.5914 261.187C79.1102 261.829 78.7494 262.572 78.5088 263.375C78.2682 264.177 78.168 265.02 78.168 265.883Z" fill="#093D39"/>
<path d="M100.261 278.821V252.914H110.225C113.092 252.914 115.497 253.496 117.422 254.64C119.347 255.784 120.81 257.349 121.792 259.316C122.775 261.282 123.276 263.449 123.276 265.837C123.276 268.466 122.735 270.754 121.652 272.701C120.569 274.647 119.046 276.152 117.101 277.236C115.136 278.299 112.851 278.841 110.225 278.841H100.261V278.821ZM116.059 265.837C116.059 264.493 115.818 263.329 115.357 262.326C114.896 261.322 114.234 260.54 113.352 259.978C112.47 259.416 111.428 259.135 110.225 259.135H107.378V272.64H110.225C111.468 272.64 112.51 272.339 113.372 271.757C114.234 271.175 114.896 270.373 115.357 269.329C115.818 268.286 116.059 267.142 116.059 265.837Z" fill="#093D39"/>
<path d="M144.828 272.62V278.821H126.384V252.914H144.507V259.115H133.501V262.767H142.903V268.526H133.501V272.62H144.848H144.828Z" fill="#093D39"/>
<path d="M148.136 278.821V252.914H160.024C161.287 252.914 162.45 253.175 163.533 253.677C164.595 254.178 165.517 254.881 166.299 255.744C167.081 256.606 167.683 257.57 168.104 258.653C168.525 259.717 168.745 260.801 168.745 261.904C168.745 262.908 168.605 263.871 168.304 264.794C168.003 265.717 167.582 266.56 167.021 267.322C166.46 268.085 165.798 268.747 165.016 269.309L170.489 278.841H162.691L158.14 270.894H155.253V278.841H148.136V278.821ZM155.253 264.674H159.744C160.044 264.674 160.305 264.573 160.586 264.352C160.846 264.132 161.087 263.811 161.267 263.409C161.448 262.988 161.548 262.506 161.548 261.904C161.548 261.302 161.448 260.801 161.247 260.399C161.047 259.998 160.786 259.697 160.485 259.476C160.185 259.255 159.884 259.155 159.583 259.155H155.273V264.694L155.253 264.674Z" fill="#093D39"/>
<path d="M179.851 266.078V278.821H172.734V252.914H178.268L188.653 266.098V252.914H195.77V278.821H190.116L179.831 266.078H179.851Z" fill="#093D39"/>
<path d="M200.24 278.821V252.914H207.357V278.821H200.24Z" fill="#093D39"/>
<path d="M210.565 273.539L222.314 259.131H211.127V252.93H230.894V258.227L219.888 272.636H231.115V278.837H210.585V273.539H210.565Z" fill="#093D39"/>
<path d="M252.927 272.62V278.821H234.482V252.914H252.606V259.115H241.6V262.767H251.002V268.526H241.6V272.62H252.947H252.927Z" fill="#093D39"/>
<path d="M276.122 279.007C274.157 279.007 272.373 278.646 270.769 277.903C269.165 277.161 267.782 276.157 266.639 274.913C265.477 273.669 264.594 272.244 263.973 270.679C263.351 269.114 263.051 267.488 263.051 265.803C263.051 264.117 263.372 262.431 264.033 260.866C264.695 259.301 265.617 257.916 266.78 256.692C267.943 255.468 269.366 254.505 270.97 253.782C272.594 253.08 274.358 252.719 276.283 252.719C278.207 252.719 280.032 253.08 281.635 253.822C283.239 254.565 284.602 255.568 285.765 256.833C286.908 258.097 287.79 259.522 288.412 261.087C289.033 262.652 289.334 264.278 289.334 265.923C289.334 267.569 289.013 269.254 288.372 270.82C287.73 272.385 286.808 273.769 285.645 274.994C284.462 276.218 283.079 277.201 281.475 277.923C279.871 278.646 278.087 279.007 276.142 279.007H276.122ZM270.248 265.883C270.248 266.766 270.368 267.609 270.609 268.411C270.849 269.234 271.21 269.957 271.712 270.599C272.193 271.241 272.814 271.763 273.556 272.124C274.298 272.505 275.18 272.686 276.202 272.686C277.225 272.686 278.107 272.485 278.869 272.104C279.631 271.723 280.232 271.181 280.713 270.519C281.194 269.856 281.535 269.114 281.776 268.291C282.016 267.468 282.117 266.646 282.117 265.783C282.117 264.92 281.996 264.077 281.756 263.274C281.515 262.472 281.154 261.749 280.653 261.107C280.172 260.465 279.55 259.963 278.789 259.602C278.027 259.241 277.165 259.06 276.162 259.06C275.16 259.06 274.258 259.261 273.516 259.642C272.774 260.023 272.153 260.545 271.671 261.187C271.19 261.829 270.829 262.572 270.589 263.375C270.348 264.177 270.248 265.02 270.248 265.883Z" fill="#093D39"/>
<path d="M292.342 278.821V252.914H304.23C305.493 252.914 306.656 253.175 307.739 253.677C308.801 254.178 309.724 254.881 310.505 255.744C311.287 256.606 311.889 257.57 312.31 258.653C312.731 259.717 312.951 260.801 312.951 261.904C312.951 262.908 312.811 263.871 312.51 264.794C312.209 265.717 311.788 266.56 311.227 267.322C310.666 268.085 310.004 268.747 309.222 269.309L314.695 278.841H306.897L302.346 270.894H299.459V278.841H292.342V278.821ZM299.459 264.674H303.95C304.25 264.674 304.511 264.573 304.792 264.352C305.052 264.132 305.293 263.811 305.473 263.409C305.654 262.988 305.754 262.506 305.754 261.904C305.754 261.302 305.654 260.801 305.453 260.399C305.253 259.998 304.992 259.697 304.691 259.476C304.391 259.255 304.09 259.155 303.789 259.155H299.479V264.694L299.459 264.674Z" fill="#093D39"/>
<path d="M325.16 278.821V252.914H335.124C337.991 252.914 340.397 253.496 342.321 254.64C344.246 255.784 345.709 257.349 346.692 259.316C347.674 261.282 348.175 263.449 348.175 265.837C348.175 268.466 347.634 270.754 346.551 272.701C345.469 274.647 343.945 276.152 342.001 277.236C340.036 278.299 337.75 278.841 335.124 278.841H325.16V278.821ZM340.938 265.837C340.938 264.493 340.697 263.329 340.236 262.326C339.775 261.322 339.114 260.54 338.232 259.978C337.349 259.416 336.307 259.135 335.104 259.135H332.257V272.64H335.104C336.347 272.64 337.39 272.339 338.252 271.757C339.114 271.175 339.775 270.373 340.236 269.329C340.697 268.286 340.938 267.142 340.938 265.837Z" fill="#093D39"/>
<path d="M351.264 278.821V252.914H358.381V278.821H351.264Z" fill="#093D39"/>
<path d="M381.275 272.62V278.821H362.831V252.914H380.955V259.115H369.948V262.767H379.351V268.526H369.948V272.62H381.295H381.275Z" fill="#093D39"/>
<path d="M392.783 278.821V252.914H403.95C405.213 252.914 406.376 253.175 407.458 253.677C408.521 254.178 409.443 254.881 410.225 255.744C411.007 256.606 411.608 257.57 412.029 258.653C412.45 259.717 412.671 260.801 412.671 261.904C412.671 263.429 412.31 264.894 411.588 266.239C410.867 267.603 409.884 268.707 408.601 269.57C407.318 270.433 405.835 270.874 404.13 270.874H399.9V278.821H392.783ZM399.9 264.674H403.649C403.95 264.674 404.211 264.593 404.491 264.413C404.752 264.252 404.993 263.951 405.173 263.53C405.353 263.108 405.454 262.566 405.454 261.884C405.454 261.162 405.353 260.58 405.153 260.178C404.952 259.777 404.692 259.496 404.391 259.336C404.09 259.175 403.79 259.095 403.489 259.095H399.92V264.633L399.9 264.674Z" fill="#093D39"/>
<path d="M427.165 279.007C425.2 279.007 423.416 278.646 421.812 277.903C420.208 277.161 418.825 276.157 417.682 274.913C416.52 273.669 415.637 272.244 415.016 270.679C414.394 269.114 414.094 267.488 414.094 265.803C414.094 264.117 414.415 262.431 415.076 260.866C415.738 259.301 416.66 257.916 417.823 256.692C418.985 255.468 420.409 254.505 422.013 253.782C423.637 253.08 425.401 252.719 427.325 252.719C429.25 252.719 431.075 253.08 432.678 253.822C434.282 254.565 435.645 255.568 436.808 256.833C437.951 258.097 438.833 259.522 439.455 261.087C440.076 262.652 440.377 264.278 440.377 265.923C440.377 267.569 440.056 269.254 439.415 270.82C438.773 272.385 437.851 273.769 436.688 274.994C435.505 276.218 434.122 277.201 432.518 277.923C430.914 278.646 429.13 279.007 427.185 279.007H427.165ZM421.311 265.883C421.311 266.766 421.431 267.609 421.672 268.411C421.913 269.234 422.273 269.957 422.775 270.599C423.256 271.241 423.877 271.763 424.619 272.124C425.361 272.505 426.243 272.686 427.265 272.686C428.288 272.686 429.17 272.485 429.932 272.104C430.694 271.723 431.295 271.181 431.776 270.519C432.257 269.856 432.598 269.114 432.839 268.291C433.079 267.468 433.18 266.646 433.18 265.783C433.18 264.92 433.059 264.077 432.819 263.274C432.578 262.472 432.217 261.749 431.716 261.107C431.235 260.465 430.613 259.963 429.852 259.602C429.09 259.241 428.228 259.06 427.225 259.06C426.223 259.06 425.321 259.261 424.579 259.642C423.837 260.023 423.216 260.545 422.734 261.187C422.253 261.829 421.892 262.572 421.652 263.375C421.411 264.177 421.311 265.02 421.311 265.883Z" fill="#093D39"/>
<path d="M443.404 278.821V252.914H453.368C456.235 252.914 458.641 253.496 460.565 254.64C462.49 255.784 463.954 257.349 464.936 259.316C465.918 261.282 466.42 263.449 466.42 265.837C466.42 268.466 465.878 270.754 464.796 272.701C463.713 274.647 462.189 276.152 460.245 277.236C458.28 278.299 455.995 278.841 453.368 278.841H443.404V278.821ZM459.182 265.837C459.182 264.493 458.942 263.329 458.48 262.326C458.019 261.322 457.358 260.54 456.476 259.978C455.594 259.416 454.551 259.135 453.348 259.135H450.501V272.64H453.348C454.591 272.64 455.634 272.339 456.496 271.757C457.358 271.175 458.019 270.373 458.48 269.329C458.942 268.286 459.182 267.142 459.182 265.837Z" fill="#093D39"/>
<path d="M468.083 265.621C468.083 264.036 468.384 262.491 468.985 260.965C469.587 259.44 470.449 258.056 471.591 256.831C472.734 255.607 474.117 254.604 475.761 253.862C477.405 253.119 479.25 252.758 481.315 252.758C483.801 252.758 485.966 253.28 487.81 254.303C489.655 255.326 491.038 256.711 491.94 258.417L486.507 262.29C486.186 261.447 485.745 260.785 485.144 260.323C484.543 259.862 483.901 259.541 483.219 259.36C482.518 259.179 481.856 259.079 481.194 259.079C480.172 259.079 479.29 259.28 478.548 259.681C477.806 260.082 477.205 260.604 476.724 261.266C476.243 261.929 475.902 262.651 475.661 263.454C475.421 264.256 475.32 265.059 475.32 265.862C475.32 266.765 475.461 267.628 475.721 268.451C475.982 269.273 476.383 270.016 476.884 270.658C477.385 271.3 478.027 271.802 478.769 272.163C479.51 272.524 480.352 272.705 481.275 272.705C481.936 272.705 482.598 272.604 483.279 272.404C483.961 272.203 484.583 271.862 485.144 271.4C485.705 270.939 486.126 270.317 486.427 269.534L492.221 273.006C491.72 274.27 490.858 275.354 489.675 276.257C488.492 277.16 487.129 277.842 485.625 278.324C484.122 278.805 482.618 279.026 481.134 279.026C479.21 279.026 477.466 278.645 475.862 277.882C474.278 277.12 472.895 276.096 471.732 274.812C470.569 273.528 469.687 272.103 469.045 270.497C468.404 268.912 468.103 267.287 468.103 265.621H468.083Z" fill="#093D39"/>
<path d="M500.28 252.914H508.219L516.459 278.821H509.242L507.899 273.744H500.581L499.238 278.821H491.98L500.26 252.914H500.28ZM506.656 269.008L504.25 259.877L501.844 269.008H506.656Z" fill="#093D39"/>
<path d="M534.001 261.427C533.179 260.945 532.417 260.544 531.736 260.243C531.054 259.942 530.312 259.661 529.51 259.42C528.708 259.179 527.926 259.059 527.145 259.059C526.543 259.059 526.042 259.159 525.641 259.34C525.26 259.541 525.06 259.862 525.06 260.323C525.06 260.765 525.26 261.106 525.641 261.367C526.022 261.628 526.583 261.868 527.305 262.089C528.027 262.31 528.869 262.571 529.871 262.892C531.475 263.373 532.858 263.935 534.021 264.557C535.184 265.18 536.086 265.982 536.728 266.966C537.349 267.949 537.67 269.233 537.67 270.859C537.67 272.484 537.389 273.708 536.828 274.752C536.266 275.795 535.525 276.638 534.562 277.26C533.62 277.882 532.558 278.344 531.395 278.625C530.232 278.906 529.029 279.046 527.826 279.046C526.623 279.046 525.3 278.926 523.937 278.665C522.594 278.404 521.29 278.063 520.007 277.601C518.744 277.16 517.582 276.618 516.539 276.016L519.606 269.775C520.569 270.357 521.471 270.839 522.273 271.2C523.075 271.561 523.977 271.902 524.959 272.183C525.942 272.484 526.924 272.625 527.926 272.625C528.708 272.625 529.25 272.524 529.55 272.324C529.851 272.123 530.011 271.862 530.011 271.541C530.011 271.039 529.751 270.638 529.209 270.357C528.668 270.076 527.967 269.815 527.104 269.554C526.242 269.293 525.28 269.012 524.238 268.671C522.734 268.17 521.491 267.588 520.529 266.945C519.566 266.303 518.845 265.541 518.384 264.658C517.922 263.775 517.682 262.711 517.682 261.447C517.682 259.541 518.123 257.935 519.025 256.671C519.927 255.387 521.11 254.423 522.574 253.761C524.037 253.099 525.621 252.758 527.325 252.758C528.588 252.758 529.811 252.918 530.994 253.219C532.177 253.52 533.279 253.902 534.302 254.323C535.344 254.765 536.246 255.166 537.008 255.567L533.941 261.447L534.001 261.427Z" fill="#093D39"/>
<path d="M560.987 259.115H553.549V278.821H546.432V259.115H538.954V252.914H560.987V259.115Z" fill="#093D39"/>
<path d="M332.417 229.133C283.921 229.133 244.607 189.821 244.607 141.278C244.607 92.7358 283.881 53.3839 332.377 53.3839C355.874 53.3839 378.388 62.7955 394.908 79.5516C375.942 53.5445 345.689 38.1328 313.492 38.1328C257.778 38.1328 212.63 83.3243 212.63 139.091C212.63 194.858 257.778 240.049 313.492 240.049C337.61 240.09 360.986 231.401 379.23 215.608C365.236 224.457 348.997 229.193 332.417 229.133Z" fill="#093D39"/>
<path d="M362.55 67.5078C396.511 87.3543 407.979 131.021 388.111 165.015C368.284 199.009 324.659 210.487 290.697 190.6C271.291 179.262 258.4 159.476 255.874 137.141C255.773 138.526 255.773 139.971 255.773 141.355C255.773 184.961 291.078 220.3 334.643 220.3C378.207 220.3 413.512 184.961 413.512 141.355C413.552 108.545 393.264 79.1468 362.53 67.5279" fill="#093D39"/>
<path d="M324.519 72.9498C298.677 72.9498 275.882 89.9268 268.524 114.75C280.132 88.8231 310.525 77.2041 336.407 88.8231C362.31 100.442 373.917 130.864 362.31 156.771C351.985 179.869 326.423 191.97 302.025 185.367C331.796 197.809 366.038 183.742 378.468 153.902C390.898 124.102 376.844 89.8265 347.033 77.3847C339.916 74.4749 332.277 72.9297 324.539 72.9297" fill="#093D39"/>
<path d="M470.71 136.598C472.113 127.006 465.417 118.116 455.854 116.731L446.492 115.327C445.088 107.641 443.104 100.256 440.517 93.0518C442.803 91.7475 443.805 89.0585 442.803 86.6705C432.438 60.5028 414.595 38.8502 392.262 23.7596C370.028 8.58879 343.304 0 315.197 0C287.089 0 260.164 8.68912 237.831 23.9603C215.497 39.2315 197.654 61.0045 187.29 87.3728C186.387 89.8612 187.39 92.5702 189.675 93.8545C187.189 100.738 185.285 108.042 184.002 115.527H184.102L174.719 116.832C165.156 118.236 158.46 127.206 159.864 136.798L165.457 175.849C166.72 184.498 174.278 190.82 182.779 190.82C183.601 190.82 184.443 190.759 185.285 190.639L192.161 189.736L202.626 188.13C199.238 180.344 196.652 172.257 194.948 163.97C193.244 155.782 192.362 147.294 192.362 138.805C192.362 133.507 192.662 128.41 193.364 123.333L193.404 123.032C196.893 95.2793 209.523 70.416 228.368 51.5528C250.602 29.2781 281.315 15.512 315.217 15.512C349.118 15.512 379.932 29.2982 402.165 51.5528C421.011 70.416 433.781 95.3796 437.27 123.253C437.871 128.25 438.172 133.447 438.172 138.625C438.172 147.213 437.37 155.601 435.586 163.889C433.882 172.177 431.295 180.264 427.907 188.05L438.473 189.555L445.249 190.559C446.091 190.679 446.953 190.739 447.775 190.739C456.335 190.739 463.813 184.418 465.076 175.669L470.75 136.618L470.71 136.598Z" fill="#093D39"/>
<path d="M343.725 127.393L311.828 108.891C307.618 106.443 302.566 106.443 298.356 108.891C294.126 111.339 291.6 115.714 291.6 120.61V157.594C291.6 162.491 294.126 166.866 298.356 169.314C300.461 170.538 302.766 171.14 305.072 171.14C307.398 171.14 309.703 170.538 311.828 169.294L343.725 150.792C347.935 148.343 350.461 143.969 350.461 139.092C350.461 134.216 347.935 129.841 343.725 127.393Z" fill="#093D39"/>
<path d="M589.495 81.2156C582.498 67.309 572.133 56.2319 558.4 48.0244C544.667 39.8169 527.606 35.7031 507.217 35.7031H436.487V57.3356C441.9 65.5632 446.531 74.3727 450.22 83.6638C451.744 87.3964 451.403 91.4901 449.579 94.8413C451.002 99.236 452.225 103.711 453.228 108.226L457.017 108.788C470.97 110.835 480.673 123.818 478.649 137.765L472.975 176.816C471.612 186.127 465.256 193.713 456.916 197.004C499.178 200.756 531.556 205.974 548.596 212.034C551.163 210.95 553.669 209.787 556.074 208.462C569.988 200.857 580.774 190.141 588.472 176.294C596.151 162.468 600 146.213 600 127.531C600 110.594 596.491 95.1624 589.515 81.2357L589.495 81.2156ZM543.765 152.274C540.477 159.618 535.766 165.378 529.651 169.512C523.516 173.665 516.038 175.732 507.237 175.732H487.029V79.7708H507.237C515.878 79.7708 523.296 81.7575 529.531 85.7308C535.746 89.7041 540.497 95.2828 543.785 102.467C547.073 109.651 548.717 117.979 548.717 127.491C548.717 137.003 547.073 144.909 543.785 152.254L543.765 152.274Z" fill="#093D39"/>
<path d="M50.5213 212.312V122.832L81.3553 191.04H108.3L139.134 122.832V197.321C148.697 196.438 158.801 195.636 169.347 194.913C163.132 191.04 158.581 184.599 157.458 176.973L151.885 137.942C149.84 123.956 159.543 110.912 173.577 108.865L177.165 108.363C178.108 104.009 179.23 99.7544 180.553 95.6406C178.749 92.3697 178.348 88.3763 179.691 84.6237C179.711 84.5434 179.752 84.4833 179.772 84.403C182.558 77.3393 185.866 70.5365 189.655 64.0749V35.6797H134.723L94.8277 122.31L55.1925 35.6998H0V219.837H38.5726C39.9559 217.228 44.0457 214.72 50.5413 212.312H50.5213Z" fill="#093D39"/>
</svg>
