<svg width="500" height="383" viewBox="0 0 500 383" fill="none" xmlns="http://www.w3.org/2000/svg">
<path d="M277.505 365.169C199.596 365.169 136.438 302.23 136.438 224.513C136.438 146.795 199.531 83.7922 277.44 83.7922C315.187 83.7922 351.355 98.8602 377.894 125.687C347.426 84.0493 298.826 59.375 247.101 59.375C157.598 59.375 85.0674 131.727 85.0674 221.011C85.0674 310.294 157.598 382.646 247.101 382.646C285.846 382.711 323.4 368.799 352.708 343.514C330.227 357.683 304.14 365.265 277.505 365.169Z" fill="#ABFB42"/>
<path d="M325.943 106.414C380.502 138.189 398.924 208.099 367.007 262.524C335.154 316.948 265.072 335.326 210.513 303.487C179.336 285.335 158.627 253.656 154.569 217.898C154.408 220.115 154.408 222.428 154.408 224.645C154.408 294.459 211.125 351.036 281.111 351.036C351.097 351.036 407.813 294.459 407.813 224.645C407.878 172.116 375.284 125.048 325.911 106.446" fill="#ABFB42"/>
<path d="M264.847 115.11C223.332 115.11 186.713 142.29 174.893 182.033C193.54 140.523 242.366 121.921 283.946 140.523C325.557 159.126 344.205 207.831 325.557 249.309C308.971 286.288 267.907 305.661 228.711 295.091C276.538 315.01 331.548 292.489 351.516 244.714C371.484 197.004 348.907 142.13 301.015 122.211C289.582 117.552 277.311 115.078 264.879 115.078" fill="#ABFB42"/>
<path d="M499.701 218.695C501.956 203.338 491.199 189.105 475.836 186.888L460.795 184.639C458.541 172.334 455.352 160.511 451.197 148.977C454.869 146.889 456.479 142.584 454.869 138.761C438.218 96.8657 409.554 62.1997 373.675 38.0395C337.925 13.7508 294.993 0 249.839 0C204.685 0 161.431 13.9114 125.552 38.3607C89.6733 62.8101 61.009 97.6689 44.3579 139.885C42.9086 143.869 44.519 148.206 48.1906 150.262C44.1969 161.282 41.1372 172.977 39.076 184.96H39.237L24.1641 187.049C8.80134 189.298 -1.95581 203.659 0.298681 219.016L9.28445 281.537C11.3135 295.384 23.4556 305.504 37.1113 305.504C38.4318 305.504 39.7845 305.408 41.1372 305.215L52.1842 303.77L68.9963 301.199C63.5533 288.734 59.3986 275.786 56.661 262.517C53.9234 249.409 52.5063 235.819 52.5063 222.229C52.5063 213.747 52.9894 205.587 54.1167 197.458L54.1811 196.976C59.7851 152.543 80.0756 112.737 110.35 82.5367C146.068 46.8747 195.409 24.8349 249.871 24.8349C304.333 24.8349 353.836 46.9068 389.553 82.5367C419.828 112.737 440.344 152.704 445.948 197.33C446.914 205.33 447.397 213.651 447.397 221.94C447.397 235.691 446.109 249.12 443.242 262.389C440.505 275.658 436.35 288.605 430.907 301.071L447.88 303.48L458.766 305.087C460.119 305.28 461.504 305.376 462.824 305.376C476.577 305.376 488.59 295.256 490.619 281.248L499.733 218.727L499.701 218.695Z" fill="#ABFB42"/>
<path d="M295.702 202.28L244.461 172.658C237.697 168.739 229.581 168.739 222.818 172.658C216.022 176.578 211.964 183.582 211.964 191.421V250.633C211.964 258.472 216.022 265.476 222.818 269.396C226.199 271.355 229.903 272.319 233.607 272.319C237.343 272.319 241.047 271.355 244.461 269.364L295.702 239.742C302.466 235.822 306.524 228.818 306.524 221.011C306.524 213.204 302.466 206.2 295.702 202.28Z" fill="#ABFB42"/>
</svg>
