<svg width="600" height="280" viewBox="0 0 600 280" fill="none" xmlns="http://www.w3.org/2000/svg">
<path d="M60.8062 278.821V265.175L56.4758 274.767H52.6867L48.3563 265.175V278.821H41.2393V252.914H48.9979L54.5713 265.095L60.1847 252.914H67.9233V278.821H60.8062Z" fill="white"/>
<path d="M84.0421 279.007C82.0773 279.007 80.2931 278.646 78.6892 277.903C77.0854 277.161 75.7021 276.157 74.5593 274.913C73.3965 273.669 72.5144 272.244 71.8929 270.679C71.2714 269.114 70.9707 267.488 70.9707 265.803C70.9707 264.117 71.2915 262.431 71.9531 260.866C72.6146 259.301 73.5369 257.916 74.6996 256.692C75.8624 255.468 77.2859 254.505 78.8897 253.782C80.5136 253.08 82.2778 252.719 84.2025 252.719C86.1271 252.719 87.9514 253.08 89.5553 253.822C91.1591 254.565 92.5224 255.568 93.6852 256.833C94.8279 258.097 95.7101 259.522 96.3316 261.087C96.953 262.652 97.2538 264.278 97.2538 265.923C97.2538 267.569 96.933 269.254 96.2915 270.819C95.6499 272.385 94.7277 273.769 93.5649 274.993C92.3821 276.218 90.9988 277.201 89.3949 277.923C87.7911 278.646 86.0068 279.007 84.0621 279.007H84.0421ZM78.168 265.883C78.168 266.766 78.2883 267.609 78.5288 268.411C78.7694 269.234 79.1303 269.957 79.6315 270.599C80.1126 271.241 80.7341 271.763 81.4759 272.124C82.2177 272.505 83.0998 272.686 84.1223 272.686C85.1447 272.686 86.0268 272.485 86.7887 272.104C87.5505 271.722 88.1519 271.181 88.6331 270.518C89.1142 269.856 89.4551 269.114 89.6956 268.291C89.9362 267.468 90.0365 266.645 90.0365 265.783C90.0365 264.92 89.9162 264.077 89.6756 263.274C89.435 262.471 89.0741 261.749 88.5729 261.107C88.0918 260.465 87.4703 259.963 86.7085 259.602C85.9466 259.241 85.0846 259.06 84.0822 259.06C83.0798 259.06 82.1776 259.261 81.4358 259.642C80.694 260.023 80.0725 260.545 79.5914 261.187C79.1102 261.829 78.7494 262.572 78.5088 263.374C78.2682 264.177 78.168 265.02 78.168 265.883Z" fill="white"/>
<path d="M100.26 278.821V252.914H110.224C113.091 252.914 115.497 253.496 117.421 254.64C119.346 255.784 120.81 257.349 121.792 259.316C122.774 261.282 123.275 263.449 123.275 265.837C123.275 268.466 122.734 270.754 121.652 272.7C120.569 274.647 119.045 276.152 117.101 277.236C115.136 278.299 112.85 278.841 110.224 278.841H100.26V278.821ZM116.058 265.837C116.058 264.493 115.818 263.329 115.356 262.326C114.895 261.322 114.234 260.54 113.352 259.978C112.47 259.416 111.427 259.135 110.224 259.135H107.377V272.64H110.224C111.467 272.64 112.51 272.339 113.372 271.757C114.234 271.175 114.895 270.373 115.356 269.329C115.818 268.286 116.058 267.142 116.058 265.837Z" fill="white"/>
<path d="M144.828 272.62V278.821H126.384V252.914H144.507V259.115H133.501V262.767H142.903V268.526H133.501V272.62H144.848H144.828Z" fill="white"/>
<path d="M148.136 278.821V252.914H160.024C161.287 252.914 162.45 253.175 163.533 253.677C164.595 254.178 165.517 254.881 166.299 255.744C167.081 256.606 167.683 257.57 168.104 258.653C168.525 259.717 168.745 260.801 168.745 261.904C168.745 262.908 168.605 263.871 168.304 264.794C168.003 265.717 167.582 266.56 167.021 267.322C166.46 268.085 165.798 268.747 165.016 269.309L170.489 278.841H162.691L158.14 270.894H155.253V278.841H148.136V278.821ZM155.253 264.673H159.744C160.044 264.673 160.305 264.573 160.586 264.352C160.846 264.132 161.087 263.811 161.267 263.409C161.448 262.988 161.548 262.506 161.548 261.904C161.548 261.302 161.448 260.801 161.247 260.399C161.047 259.998 160.786 259.697 160.485 259.476C160.185 259.255 159.884 259.155 159.583 259.155H155.273V264.694L155.253 264.673Z" fill="white"/>
<path d="M179.851 266.078V278.821H172.734V252.914H178.268L188.653 266.098V252.914H195.77V278.821H190.116L179.831 266.078H179.851Z" fill="white"/>
<path d="M200.241 278.821V252.914H207.358V278.821H200.241Z" fill="white"/>
<path d="M210.565 273.547L222.314 259.138H211.127V252.938H230.894V258.235L219.888 272.644H231.115V278.844H210.585V273.547H210.565Z" fill="white"/>
<path d="M252.928 272.62V278.821H234.483V252.914H252.607V259.115H241.6V262.767H251.003V268.526H241.6V272.62H252.948H252.928Z" fill="white"/>
<path d="M276.123 279.007C274.158 279.007 272.374 278.646 270.77 277.903C269.166 277.161 267.783 276.157 266.64 274.913C265.478 273.669 264.595 272.244 263.974 270.679C263.352 269.114 263.052 267.488 263.052 265.803C263.052 264.117 263.373 262.431 264.034 260.866C264.696 259.301 265.618 257.916 266.781 256.692C267.943 255.468 269.367 254.505 270.971 253.782C272.595 253.08 274.359 252.719 276.283 252.719C278.208 252.719 280.032 253.08 281.636 253.822C283.24 254.565 284.603 255.568 285.766 256.833C286.909 258.097 287.791 259.522 288.413 261.087C289.034 262.652 289.335 264.278 289.335 265.923C289.335 267.569 289.014 269.254 288.372 270.819C287.731 272.385 286.809 273.769 285.646 274.993C284.463 276.218 283.08 277.201 281.476 277.923C279.872 278.646 278.088 279.007 276.143 279.007H276.123ZM270.249 265.883C270.249 266.766 270.369 267.609 270.61 268.411C270.85 269.234 271.211 269.957 271.713 270.599C272.194 271.241 272.815 271.763 273.557 272.124C274.299 272.505 275.181 272.686 276.203 272.686C277.226 272.686 278.108 272.485 278.87 272.104C279.632 271.722 280.233 271.181 280.714 270.518C281.195 269.856 281.536 269.114 281.777 268.291C282.017 267.468 282.117 266.645 282.117 265.783C282.117 264.92 281.997 264.077 281.757 263.274C281.516 262.471 281.155 261.749 280.654 261.107C280.173 260.465 279.551 259.963 278.79 259.602C278.028 259.241 277.166 259.06 276.163 259.06C275.161 259.06 274.259 259.261 273.517 259.642C272.775 260.023 272.154 260.545 271.672 261.187C271.191 261.829 270.83 262.572 270.59 263.374C270.349 264.177 270.249 265.02 270.249 265.883Z" fill="white"/>
<path d="M292.342 278.821V252.914H304.23C305.493 252.914 306.656 253.175 307.739 253.677C308.801 254.178 309.724 254.881 310.505 255.744C311.287 256.606 311.889 257.57 312.31 258.653C312.731 259.717 312.951 260.801 312.951 261.904C312.951 262.908 312.811 263.871 312.51 264.794C312.209 265.717 311.788 266.56 311.227 267.322C310.666 268.085 310.004 268.747 309.222 269.309L314.695 278.841H306.897L302.346 270.894H299.459V278.841H292.342V278.821ZM299.459 264.673H303.95C304.25 264.673 304.511 264.573 304.792 264.352C305.052 264.132 305.293 263.811 305.473 263.409C305.654 262.988 305.754 262.506 305.754 261.904C305.754 261.302 305.654 260.801 305.453 260.399C305.253 259.998 304.992 259.697 304.691 259.476C304.391 259.255 304.09 259.155 303.789 259.155H299.479V264.694L299.459 264.673Z" fill="white"/>
<path d="M325.161 278.821V252.914H335.125C337.991 252.914 340.397 253.496 342.322 254.64C344.246 255.784 345.71 257.349 346.692 259.316C347.675 261.282 348.176 263.449 348.176 265.837C348.176 268.466 347.635 270.754 346.552 272.7C345.469 274.647 343.946 276.152 342.001 277.236C340.036 278.299 337.751 278.841 335.125 278.841H325.161V278.821ZM340.938 265.837C340.938 264.493 340.698 263.329 340.237 262.326C339.776 261.322 339.114 260.54 338.232 259.978C337.35 259.416 336.307 259.135 335.104 259.135H332.258V272.64H335.104C336.347 272.64 337.39 272.339 338.252 271.757C339.114 271.175 339.776 270.373 340.237 269.329C340.698 268.286 340.938 267.142 340.938 265.837Z" fill="white"/>
<path d="M351.263 278.821V252.914H358.38V278.821H351.263Z" fill="white"/>
<path d="M381.275 272.62V278.821H362.831V252.914H380.955V259.115H369.948V262.767H379.351V268.526H369.948V272.62H381.295H381.275Z" fill="white"/>
<path d="M392.783 278.821V252.914H403.95C405.213 252.914 406.375 253.175 407.458 253.677C408.52 254.178 409.443 254.881 410.225 255.744C411.006 256.606 411.608 257.57 412.029 258.653C412.45 259.717 412.67 260.801 412.67 261.904C412.67 263.429 412.31 264.894 411.588 266.239C410.866 267.603 409.884 268.707 408.601 269.57C407.318 270.433 405.834 270.874 404.13 270.874H399.9V278.821H392.783ZM399.9 264.673H403.649C403.95 264.673 404.21 264.593 404.491 264.413C404.751 264.252 404.992 263.951 405.172 263.53C405.353 263.108 405.453 262.566 405.453 261.884C405.453 261.162 405.353 260.58 405.152 260.178C404.952 259.777 404.691 259.496 404.391 259.336C404.09 259.175 403.789 259.095 403.488 259.095H399.92V264.633L399.9 264.673Z" fill="white"/>
<path d="M427.166 279.007C425.201 279.007 423.417 278.646 421.813 277.903C420.209 277.161 418.826 276.157 417.683 274.913C416.52 273.669 415.638 272.244 415.016 270.679C414.395 269.114 414.094 267.488 414.094 265.803C414.094 264.117 414.415 262.431 415.077 260.866C415.738 259.301 416.66 257.916 417.823 256.692C418.986 255.468 420.409 254.505 422.013 253.782C423.637 253.08 425.401 252.719 427.326 252.719C429.251 252.719 431.075 253.08 432.679 253.822C434.283 254.565 435.646 255.568 436.809 256.833C437.951 258.097 438.834 259.522 439.455 261.087C440.077 262.652 440.377 264.278 440.377 265.923C440.377 267.569 440.057 269.254 439.415 270.819C438.773 272.385 437.851 273.769 436.688 274.993C435.506 276.218 434.122 277.201 432.518 277.923C430.915 278.646 429.13 279.007 427.186 279.007H427.166ZM421.312 265.883C421.312 266.766 421.432 267.609 421.672 268.411C421.913 269.234 422.274 269.957 422.775 270.599C423.256 271.241 423.878 271.763 424.619 272.124C425.361 272.505 426.243 272.686 427.266 272.686C428.288 272.686 429.17 272.485 429.932 272.104C430.694 271.722 431.295 271.181 431.777 270.518C432.258 269.856 432.599 269.114 432.839 268.291C433.08 267.468 433.18 266.645 433.18 265.783C433.18 264.92 433.06 264.077 432.819 263.274C432.579 262.471 432.218 261.749 431.717 261.107C431.235 260.465 430.614 259.963 429.852 259.602C429.09 259.241 428.228 259.06 427.226 259.06C426.223 259.06 425.321 259.261 424.579 259.642C423.838 260.023 423.216 260.545 422.735 261.187C422.254 261.829 421.893 262.572 421.652 263.374C421.412 264.177 421.312 265.02 421.312 265.883Z" fill="white"/>
<path d="M443.405 278.821V252.914H453.369C456.236 252.914 458.641 253.496 460.566 254.64C462.491 255.784 463.954 257.349 464.936 259.316C465.919 261.282 466.42 263.449 466.42 265.837C466.42 268.466 465.879 270.754 464.796 272.7C463.714 274.647 462.19 276.152 460.245 277.236C458.28 278.299 455.995 278.841 453.369 278.841H443.405V278.821ZM459.183 265.837C459.183 264.493 458.942 263.329 458.481 262.326C458.02 261.322 457.358 260.54 456.476 259.978C455.594 259.416 454.552 259.135 453.349 259.135H450.502V272.64H453.349C454.592 272.64 455.634 272.339 456.496 271.757C457.358 271.175 458.02 270.373 458.481 269.329C458.942 268.286 459.183 267.142 459.183 265.837Z" fill="white"/>
<path d="M468.083 265.621C468.083 264.036 468.384 262.49 468.985 260.965C469.587 259.44 470.449 258.056 471.591 256.831C472.734 255.607 474.117 254.604 475.761 253.862C477.405 253.119 479.25 252.758 481.315 252.758C483.801 252.758 485.966 253.28 487.81 254.303C489.655 255.326 491.038 256.711 491.94 258.417L486.507 262.29C486.186 261.447 485.745 260.785 485.144 260.323C484.543 259.862 483.901 259.541 483.219 259.36C482.518 259.179 481.856 259.079 481.194 259.079C480.172 259.079 479.29 259.28 478.548 259.681C477.806 260.082 477.205 260.604 476.724 261.266C476.243 261.929 475.902 262.651 475.661 263.454C475.421 264.256 475.32 265.059 475.32 265.862C475.32 266.765 475.461 267.628 475.721 268.45C475.982 269.273 476.383 270.016 476.884 270.658C477.385 271.3 478.027 271.802 478.769 272.163C479.51 272.524 480.352 272.705 481.275 272.705C481.936 272.705 482.598 272.604 483.279 272.404C483.961 272.203 484.583 271.862 485.144 271.4C485.705 270.939 486.126 270.317 486.427 269.534L492.221 273.006C491.72 274.27 490.858 275.354 489.675 276.257C488.492 277.16 487.129 277.842 485.625 278.324C484.121 278.805 482.618 279.026 481.134 279.026C479.21 279.026 477.466 278.645 475.862 277.882C474.278 277.12 472.895 276.096 471.732 274.812C470.569 273.527 469.687 272.103 469.045 270.497C468.404 268.912 468.103 267.287 468.103 265.621H468.083Z" fill="white"/>
<path d="M500.281 252.914H508.22L516.46 278.821H509.242L507.899 273.744H500.582L499.238 278.821H491.981L500.261 252.914H500.281ZM506.656 269.008L504.25 259.877L501.845 269.008H506.656Z" fill="white"/>
<path d="M534.001 261.427C533.179 260.945 532.418 260.544 531.736 260.243C531.054 259.942 530.313 259.661 529.511 259.42C528.709 259.179 527.927 259.059 527.145 259.059C526.544 259.059 526.042 259.159 525.641 259.34C525.26 259.541 525.06 259.862 525.06 260.323C525.06 260.765 525.26 261.106 525.641 261.367C526.022 261.628 526.584 261.868 527.305 262.089C528.027 262.31 528.869 262.571 529.872 262.892C531.475 263.373 532.859 263.935 534.022 264.557C535.184 265.179 536.086 265.982 536.728 266.965C537.35 267.949 537.67 269.233 537.67 270.859C537.67 272.484 537.39 273.708 536.828 274.752C536.267 275.795 535.525 276.638 534.563 277.26C533.621 277.882 532.558 278.344 531.395 278.625C530.232 278.906 529.03 279.046 527.827 279.046C526.624 279.046 525.301 278.926 523.937 278.665C522.594 278.404 521.291 278.063 520.008 277.601C518.745 277.16 517.582 276.618 516.54 276.016L519.607 269.775C520.569 270.357 521.471 270.838 522.273 271.2C523.075 271.561 523.977 271.902 524.96 272.183C525.942 272.484 526.924 272.624 527.927 272.624C528.709 272.624 529.25 272.524 529.551 272.323C529.852 272.123 530.012 271.862 530.012 271.541C530.012 271.039 529.751 270.638 529.21 270.357C528.669 270.076 527.967 269.815 527.105 269.554C526.243 269.293 525.281 269.012 524.238 268.671C522.734 268.17 521.491 267.588 520.529 266.945C519.567 266.303 518.845 265.541 518.384 264.658C517.923 263.775 517.682 262.711 517.682 261.447C517.682 259.541 518.123 257.935 519.026 256.671C519.928 255.387 521.111 254.423 522.574 253.761C524.038 253.099 525.621 252.758 527.325 252.758C528.588 252.758 529.811 252.918 530.994 253.219C532.177 253.52 533.28 253.902 534.302 254.323C535.345 254.765 536.247 255.166 537.009 255.567L533.941 261.447L534.001 261.427Z" fill="white"/>
<path d="M560.986 259.115H553.548V278.821H546.431V259.115H538.953V252.914H560.986V259.115Z" fill="white"/>
<path d="M332.418 229.133C283.922 229.133 244.608 189.822 244.608 141.279C244.608 92.7359 283.882 53.384 332.378 53.384C355.875 53.384 378.389 62.7955 394.908 79.5517C375.943 53.5445 345.69 38.1328 313.493 38.1328C257.779 38.1328 212.631 83.3244 212.631 139.091C212.631 194.858 257.779 240.05 313.493 240.05C337.611 240.09 360.987 231.401 379.231 215.608C365.237 224.458 348.998 229.194 332.418 229.133Z" fill="#ABFB42"/>
<path d="M362.55 67.5078C396.512 87.3544 407.979 131.021 388.111 165.015C368.284 199.009 324.659 210.487 290.698 190.601C271.291 179.263 258.4 159.476 255.874 137.141C255.774 138.526 255.774 139.971 255.774 141.355C255.774 184.962 291.079 220.3 334.643 220.3C378.208 220.3 413.512 184.962 413.512 141.355C413.553 108.545 393.264 79.1468 362.53 67.5279" fill="#ABFB42"/>
<path d="M324.519 72.9498C298.677 72.9498 275.882 89.9267 268.524 114.75C280.132 88.823 310.525 77.204 336.407 88.823C362.309 100.442 373.917 130.864 362.309 156.771C351.985 179.868 326.423 191.969 302.025 185.367C331.796 197.809 366.038 183.741 378.468 153.901C390.898 124.101 376.844 89.8264 347.033 77.3846C339.916 74.4749 332.277 72.9297 324.539 72.9297" fill="#ABFB42"/>
<path d="M470.71 136.598C472.113 127.006 465.417 118.116 455.854 116.731L446.491 115.327C445.088 107.641 443.103 100.256 440.517 93.0521C442.803 91.7477 443.805 89.0587 442.803 86.6707C432.438 60.5029 414.595 38.8503 392.261 23.7597C370.028 8.58881 343.304 0 315.196 0C287.089 0 260.164 8.68914 237.831 23.9604C215.497 39.2316 197.654 61.0046 187.289 87.373C186.387 89.8614 187.39 92.5705 189.675 93.8548C187.189 100.738 185.285 108.042 184.002 115.527H184.102L174.719 116.832C165.156 118.237 158.46 127.207 159.864 136.799L165.457 175.85C166.72 184.499 174.278 190.82 182.779 190.82C183.601 190.82 184.443 190.76 185.285 190.639L192.161 189.736L202.626 188.131C199.238 180.345 196.652 172.258 194.948 163.97C193.244 155.782 192.362 147.294 192.362 138.806C192.362 133.508 192.662 128.411 193.364 123.334L193.404 123.033C196.893 95.2795 209.523 70.4162 228.368 51.5529C250.601 29.2782 281.315 15.512 315.216 15.512C349.118 15.512 379.932 29.2983 402.165 51.5529C421.01 70.4162 433.781 95.3799 437.269 123.253C437.871 128.25 438.171 133.448 438.171 138.625C438.171 147.214 437.37 155.602 435.585 163.89C433.881 172.177 431.295 180.265 427.907 188.051L438.472 189.556L445.248 190.559C446.09 190.679 446.953 190.74 447.775 190.74C456.335 190.74 463.813 184.419 465.076 175.669L470.75 136.618L470.71 136.598Z" fill="#ABFB42"/>
<path d="M343.725 127.401L311.829 108.899C307.619 106.45 302.566 106.45 298.356 108.899C294.126 111.347 291.6 115.722 291.6 120.618V157.602C291.6 162.498 294.126 166.873 298.356 169.321C300.461 170.545 302.767 171.147 305.072 171.147C307.398 171.147 309.704 170.545 311.829 169.301L343.725 150.799C347.935 148.351 350.461 143.976 350.461 139.1C350.461 134.224 347.935 129.849 343.725 127.401Z" fill="white"/>
<path d="M589.495 81.2158C582.498 67.3091 572.133 56.232 558.4 48.0244C544.667 39.8169 527.606 35.7031 507.218 35.7031H436.488V57.3357C441.901 65.5633 446.532 74.3728 450.221 83.664C451.744 87.3965 451.404 91.4902 449.579 94.8415C451.003 99.2362 452.226 103.711 453.228 108.226L457.017 108.788C470.971 110.835 480.674 123.819 478.649 137.765L472.975 176.816C471.612 186.128 465.257 193.713 456.917 197.004C499.178 200.757 531.556 205.974 548.597 212.035C551.163 210.951 553.669 209.787 556.075 208.463C569.988 200.857 580.774 190.141 588.473 176.295C596.151 162.468 600 146.214 600 127.531C600 110.594 596.492 95.1625 589.515 81.2358L589.495 81.2158ZM543.765 152.274C540.477 159.619 535.766 165.378 529.651 169.512C523.517 173.666 516.039 175.733 507.238 175.733H487.029V79.7709H507.238C515.878 79.7709 523.296 81.7576 529.531 85.7309C535.746 89.7042 540.497 95.2829 543.785 102.467C547.073 109.651 548.717 117.979 548.717 127.491C548.717 137.003 547.073 144.909 543.785 152.254L543.765 152.274Z" fill="white"/>
<path d="M50.5212 212.304V122.824L81.3552 191.033H108.3L139.134 122.824V197.314C148.697 196.431 158.801 195.628 169.346 194.906C163.131 191.033 158.581 184.591 157.458 176.966L151.884 137.935C149.84 123.948 159.543 110.904 173.577 108.857L177.165 108.356C178.107 104.001 179.23 99.7468 180.553 95.633C178.749 92.362 178.348 88.3686 179.691 84.616C179.711 84.5358 179.751 84.4756 179.771 84.3953C182.558 77.3316 185.866 70.5288 189.655 64.0671V35.6719H134.723L94.8276 122.302L55.1924 35.6919H0V219.83H38.5726C39.9559 217.221 44.0457 214.712 50.5413 212.304H50.5212Z" fill="white"/>
</svg>
