<svg width="400" height="187" viewBox="0 0 400 187" fill="none" xmlns="http://www.w3.org/2000/svg">
<path d="M40.5378 185.888V176.791L37.6509 183.186H35.1248L32.2379 176.791V185.888H27.4932V168.617H32.6656L36.3812 176.738L40.1235 168.617H45.2825V185.888H40.5378Z" fill="#093D39"/>
<path d="M56.0277 186.001C54.7179 186.001 53.5284 185.761 52.4592 185.266C51.3899 184.771 50.4677 184.102 49.7059 183.272C48.9307 182.443 48.3426 181.493 47.9283 180.45C47.514 179.406 47.3135 178.323 47.3135 177.199C47.3135 176.075 47.5273 174.951 47.9684 173.908C48.4094 172.864 49.0242 171.941 49.7994 171.125C50.5746 170.309 51.5236 169.667 52.5928 169.186C53.6754 168.717 54.8516 168.477 56.1346 168.477C57.4177 168.477 58.634 168.717 59.7032 169.212C60.7724 169.707 61.6813 170.376 62.4565 171.219C63.2183 172.062 63.8064 173.012 64.2207 174.055C64.635 175.099 64.8355 176.182 64.8355 177.279C64.8355 178.376 64.6217 179.5 64.194 180.543C63.7663 181.587 63.1515 182.51 62.3763 183.326C61.5877 184.142 60.6655 184.797 59.5963 185.279C58.5271 185.761 57.3375 186.001 56.0411 186.001H56.0277ZM52.1117 177.252C52.1117 177.841 52.1918 178.403 52.3522 178.938C52.5126 179.486 52.7532 179.968 53.0873 180.396C53.4081 180.824 53.8224 181.172 54.3169 181.413C54.8115 181.667 55.3995 181.787 56.0812 181.787C56.7628 181.787 57.3509 181.654 57.8588 181.4C58.3667 181.145 58.7676 180.784 59.0884 180.343C59.4092 179.901 59.6364 179.406 59.7968 178.858C59.9572 178.309 60.024 177.761 60.024 177.186C60.024 176.61 59.9438 176.048 59.7834 175.513C59.623 174.978 59.3824 174.497 59.0483 174.068C58.7275 173.64 58.3132 173.306 57.8053 173.065C57.2974 172.824 56.7227 172.704 56.0545 172.704C55.3862 172.704 54.7847 172.838 54.2902 173.092C53.7957 173.346 53.3814 173.694 53.0606 174.122C52.7398 174.55 52.4993 175.045 52.3389 175.58C52.1785 176.115 52.1117 176.677 52.1117 177.252Z" fill="#093D39"/>
<path d="M66.8398 185.888V168.617H73.4825C75.3937 168.617 76.9976 169.005 78.2806 169.768C79.5637 170.53 80.5394 171.574 81.1943 172.885C81.8492 174.196 82.1833 175.641 82.1833 177.232C82.1833 178.985 81.8225 180.51 81.1007 181.808C80.379 183.105 79.3632 184.109 78.0668 184.831C76.757 185.54 75.2333 185.901 73.4825 185.901H66.8398V185.888ZM77.3718 177.232C77.3718 176.336 77.2114 175.56 76.904 174.891C76.5966 174.222 76.1555 173.701 75.5675 173.326C74.9794 172.952 74.2844 172.764 73.4825 172.764H71.5846V181.768H73.4825C74.3111 181.768 75.0061 181.567 75.5808 181.179C76.1555 180.791 76.5966 180.256 76.904 179.56C77.2114 178.865 77.3718 178.102 77.3718 177.232Z" fill="#093D39"/>
<path d="M96.552 181.754V185.888H84.2559V168.617H96.3382V172.751H89.0006V175.186H95.269V179.025H89.0006V181.754H96.5654H96.552Z" fill="#093D39"/>
<path d="M98.7573 185.888V168.617H106.683C107.525 168.617 108.3 168.791 109.022 169.126C109.73 169.46 110.345 169.928 110.866 170.503C111.388 171.079 111.789 171.721 112.069 172.443C112.35 173.152 112.497 173.875 112.497 174.61C112.497 175.279 112.403 175.921 112.203 176.537C112.002 177.152 111.722 177.714 111.348 178.222C110.973 178.731 110.532 179.172 110.011 179.547L113.66 185.901H108.461L105.427 180.604H103.502V185.901H98.7573V185.888ZM103.502 176.457H106.496C106.696 176.457 106.87 176.39 107.057 176.243C107.231 176.095 107.391 175.881 107.512 175.614C107.632 175.333 107.699 175.012 107.699 174.61C107.699 174.209 107.632 173.875 107.498 173.607C107.365 173.34 107.191 173.139 106.99 172.992C106.79 172.845 106.589 172.778 106.389 172.778H103.515V176.47L103.502 176.457Z" fill="#093D39"/>
<path d="M119.901 177.393V185.888H115.156V168.617H118.845L125.768 177.406V168.617H130.513V185.888H126.744L119.888 177.393H119.901Z" fill="#093D39"/>
<path d="M133.494 185.888V168.617H138.238V185.888H133.494Z" fill="#093D39"/>
<path d="M140.377 182.356L148.209 172.751H140.751V168.617H153.929V172.149L146.592 181.754H154.077V185.888H140.39V182.356H140.377Z" fill="#093D39"/>
<path d="M168.618 181.754V185.888H156.322V168.617H168.405V172.751H161.067V175.186H167.335V179.025H161.067V181.754H168.632H168.618Z" fill="#093D39"/>
<path d="M184.082 186.001C182.773 186.001 181.583 185.761 180.514 185.266C179.445 184.771 178.522 184.102 177.761 183.272C176.985 182.443 176.397 181.493 175.983 180.45C175.569 179.406 175.368 178.323 175.368 177.199C175.368 176.075 175.582 174.951 176.023 173.908C176.464 172.864 177.079 171.941 177.854 171.125C178.629 170.309 179.578 169.667 180.647 169.186C181.73 168.717 182.906 168.477 184.189 168.477C185.472 168.477 186.689 168.717 187.758 169.212C188.827 169.707 189.736 170.376 190.511 171.219C191.273 172.062 191.861 173.012 192.275 174.055C192.69 175.099 192.89 176.182 192.89 177.279C192.89 178.376 192.676 179.5 192.249 180.543C191.821 181.587 191.206 182.51 190.431 183.326C189.642 184.142 188.72 184.797 187.651 185.279C186.582 185.761 185.392 186.001 184.096 186.001H184.082ZM180.166 177.252C180.166 177.841 180.247 178.403 180.407 178.938C180.567 179.486 180.808 179.968 181.142 180.396C181.463 180.824 181.877 181.172 182.372 181.413C182.866 181.667 183.454 181.787 184.136 181.787C184.818 181.787 185.406 181.654 185.913 181.4C186.421 181.145 186.822 180.784 187.143 180.343C187.464 179.901 187.691 179.406 187.851 178.858C188.012 178.309 188.079 177.761 188.079 177.186C188.079 176.61 187.998 176.048 187.838 175.513C187.678 174.978 187.437 174.497 187.103 174.068C186.782 173.64 186.368 173.306 185.86 173.065C185.352 172.824 184.777 172.704 184.109 172.704C183.441 172.704 182.839 172.838 182.345 173.092C181.85 173.346 181.436 173.694 181.115 174.122C180.795 174.55 180.554 175.045 180.394 175.58C180.233 176.115 180.166 176.677 180.166 177.252Z" fill="#093D39"/>
<path d="M194.895 185.888V168.617H202.82C203.662 168.617 204.437 168.791 205.159 169.126C205.868 169.46 206.482 169.928 207.004 170.503C207.525 171.079 207.926 171.721 208.206 172.443C208.487 173.152 208.634 173.875 208.634 174.61C208.634 175.279 208.541 175.921 208.34 176.537C208.14 177.152 207.859 177.714 207.485 178.222C207.111 178.731 206.669 179.172 206.148 179.547L209.797 185.901H204.598L201.564 180.604H199.639V185.901H194.895V185.888ZM199.639 176.457H202.633C202.834 176.457 203.007 176.39 203.194 176.243C203.368 176.095 203.529 175.881 203.649 175.614C203.769 175.333 203.836 175.012 203.836 174.61C203.836 174.209 203.769 173.875 203.636 173.607C203.502 173.34 203.328 173.139 203.128 172.992C202.927 172.845 202.727 172.778 202.526 172.778H199.653V176.47L199.639 176.457Z" fill="#093D39"/>
<path d="M216.773 185.888V168.617H223.416C225.327 168.617 226.931 169.005 228.214 169.768C229.497 170.53 230.473 171.574 231.128 172.885C231.783 174.196 232.117 175.641 232.117 177.232C232.117 178.985 231.756 180.51 231.034 181.808C230.313 183.105 229.297 184.109 228 184.831C226.691 185.54 225.167 185.901 223.416 185.901H216.773V185.888ZM227.292 177.232C227.292 176.336 227.132 175.56 226.824 174.891C226.517 174.222 226.076 173.701 225.488 173.326C224.9 172.952 224.205 172.764 223.403 172.764H221.505V181.768H223.403C224.231 181.768 224.926 181.567 225.501 181.179C226.076 180.791 226.517 180.256 226.824 179.56C227.132 178.865 227.292 178.102 227.292 177.232Z" fill="#093D39"/>
<path d="M234.175 185.888V168.617H238.92V185.888H234.175Z" fill="#093D39"/>
<path d="M254.184 181.754V185.888H241.888V168.617H253.97V172.751H246.632V175.186H252.901V179.025H246.632V181.754H254.197H254.184Z" fill="#093D39"/>
<path d="M261.855 185.888V168.617H269.3C270.142 168.617 270.917 168.791 271.638 169.126C272.347 169.46 272.962 169.928 273.483 170.503C274.004 171.079 274.405 171.721 274.686 172.443C274.966 173.152 275.113 173.875 275.113 174.61C275.113 175.627 274.873 176.604 274.392 177.5C273.911 178.41 273.256 179.146 272.4 179.721C271.545 180.296 270.556 180.59 269.42 180.59H266.6V185.888H261.855ZM266.6 176.457H269.099C269.3 176.457 269.473 176.403 269.66 176.283C269.834 176.176 269.995 175.975 270.115 175.694C270.235 175.413 270.302 175.052 270.302 174.597C270.302 174.115 270.235 173.728 270.101 173.46C269.968 173.192 269.794 173.005 269.594 172.898C269.393 172.791 269.193 172.738 268.992 172.738H266.613V176.43L266.6 176.457Z" fill="#093D39"/>
<path d="M284.777 186.001C283.467 186.001 282.277 185.761 281.208 185.266C280.139 184.771 279.217 184.102 278.455 183.272C277.68 182.443 277.092 181.493 276.677 180.45C276.263 179.406 276.062 178.323 276.062 177.199C276.062 176.075 276.276 174.951 276.717 173.908C277.158 172.864 277.773 171.941 278.548 171.125C279.324 170.309 280.273 169.667 281.342 169.186C282.424 168.717 283.601 168.477 284.884 168.477C286.167 168.477 287.383 168.717 288.452 169.212C289.521 169.707 290.43 170.376 291.206 171.219C291.967 172.062 292.555 173.012 292.97 174.055C293.384 175.099 293.585 176.182 293.585 177.279C293.585 178.376 293.371 179.5 292.943 180.543C292.515 181.587 291.901 182.51 291.125 183.326C290.337 184.142 289.415 184.797 288.345 185.279C287.276 185.761 286.087 186.001 284.79 186.001H284.777ZM280.874 177.252C280.874 177.841 280.954 178.403 281.115 178.938C281.275 179.486 281.516 179.968 281.85 180.396C282.17 180.824 282.585 181.172 283.079 181.413C283.574 181.667 284.162 181.787 284.844 181.787C285.525 181.787 286.113 181.654 286.621 181.4C287.129 181.145 287.53 180.784 287.851 180.343C288.172 179.901 288.399 179.406 288.559 178.858C288.72 178.309 288.786 177.761 288.786 177.186C288.786 176.61 288.706 176.048 288.546 175.513C288.385 174.978 288.145 174.497 287.811 174.068C287.49 173.64 287.076 173.306 286.568 173.065C286.06 172.824 285.485 172.704 284.817 172.704C284.149 172.704 283.547 172.838 283.053 173.092C282.558 173.346 282.144 173.694 281.823 174.122C281.502 174.55 281.262 175.045 281.101 175.58C280.941 176.115 280.874 176.677 280.874 177.252Z" fill="#093D39"/>
<path d="M295.603 185.888V168.617H302.246C304.157 168.617 305.761 169.005 307.044 169.768C308.327 170.53 309.303 171.574 309.957 172.885C310.612 174.196 310.947 175.641 310.947 177.232C310.947 178.985 310.586 180.51 309.864 181.808C309.142 183.105 308.126 184.109 306.83 184.831C305.52 185.54 303.997 185.901 302.246 185.901H295.603V185.888ZM306.122 177.232C306.122 176.336 305.961 175.56 305.654 174.891C305.346 174.222 304.905 173.701 304.317 173.326C303.729 172.952 303.034 172.764 302.232 172.764H300.334V181.768H302.232C303.061 181.768 303.756 181.567 304.331 181.179C304.905 180.791 305.346 180.256 305.654 179.56C305.961 178.865 306.122 178.102 306.122 177.232Z" fill="#093D39"/>
<path d="M312.056 177.083C312.056 176.026 312.256 174.996 312.657 173.979C313.058 172.963 313.633 172.04 314.395 171.224C315.156 170.407 316.079 169.739 317.175 169.244C318.271 168.749 319.5 168.508 320.877 168.508C322.534 168.508 323.978 168.856 325.207 169.538C326.437 170.22 327.359 171.143 327.961 172.28L324.338 174.862C324.125 174.3 323.831 173.859 323.43 173.551C323.029 173.244 322.601 173.03 322.147 172.909C321.679 172.789 321.238 172.722 320.797 172.722C320.115 172.722 319.527 172.856 319.032 173.123C318.538 173.391 318.137 173.739 317.816 174.18C317.495 174.621 317.268 175.103 317.108 175.638C316.947 176.173 316.881 176.708 316.881 177.244C316.881 177.846 316.974 178.421 317.148 178.969C317.322 179.518 317.589 180.013 317.923 180.441C318.257 180.869 318.685 181.203 319.179 181.444C319.674 181.685 320.235 181.805 320.85 181.805C321.291 181.805 321.732 181.738 322.187 181.605C322.641 181.471 323.055 181.243 323.43 180.936C323.804 180.628 324.085 180.213 324.285 179.692L328.148 182.006C327.813 182.849 327.239 183.571 326.45 184.173C325.662 184.775 324.753 185.23 323.75 185.551C322.748 185.872 321.746 186.019 320.757 186.019C319.473 186.019 318.311 185.765 317.241 185.257C316.186 184.748 315.263 184.066 314.488 183.21C313.713 182.354 313.125 181.404 312.697 180.334C312.27 179.277 312.069 178.193 312.069 177.083H312.056Z" fill="#093D39"/>
<path d="M333.521 168.617H338.813L344.306 185.888H339.495L338.599 182.503H333.721L332.826 185.888H327.987L333.507 168.617H333.521ZM337.771 179.346L336.167 173.259L334.563 179.346H337.771Z" fill="#093D39"/>
<path d="M356.001 174.287C355.453 173.966 354.945 173.698 354.491 173.498C354.036 173.297 353.542 173.11 353.007 172.949C352.473 172.789 351.951 172.708 351.43 172.708C351.029 172.708 350.695 172.775 350.428 172.896C350.174 173.03 350.04 173.244 350.04 173.551C350.04 173.846 350.174 174.073 350.428 174.247C350.682 174.421 351.056 174.581 351.537 174.729C352.018 174.876 352.58 175.05 353.248 175.264C354.317 175.585 355.239 175.959 356.015 176.374C356.79 176.789 357.391 177.324 357.819 177.979C358.233 178.635 358.447 179.491 358.447 180.575C358.447 181.658 358.26 182.474 357.886 183.17C357.511 183.866 357.017 184.427 356.375 184.842C355.747 185.257 355.039 185.565 354.264 185.752C353.488 185.939 352.687 186.033 351.885 186.033C351.083 186.033 350.201 185.952 349.292 185.779C348.396 185.605 347.527 185.377 346.672 185.07C345.83 184.775 345.055 184.414 344.36 184.013L346.405 179.852C347.046 180.24 347.648 180.561 348.182 180.802C348.717 181.043 349.318 181.27 349.973 181.458C350.628 181.658 351.283 181.752 351.951 181.752C352.473 181.752 352.834 181.685 353.034 181.551C353.235 181.417 353.341 181.243 353.341 181.029C353.341 180.695 353.168 180.427 352.807 180.24C352.446 180.053 351.978 179.879 351.403 179.705C350.829 179.531 350.187 179.344 349.492 179.116C348.49 178.782 347.661 178.394 347.02 177.966C346.378 177.538 345.897 177.029 345.589 176.441C345.282 175.852 345.122 175.143 345.122 174.3C345.122 173.03 345.416 171.959 346.017 171.116C346.619 170.26 347.407 169.618 348.383 169.177C349.359 168.735 350.414 168.508 351.55 168.508C352.392 168.508 353.208 168.615 353.996 168.816C354.785 169.016 355.52 169.27 356.202 169.551C356.897 169.846 357.498 170.113 358.006 170.381L355.961 174.3L356.001 174.287Z" fill="#093D39"/>
<path d="M373.991 172.751H369.032V185.888H364.288V172.751H359.302V168.617H373.991V172.751Z" fill="#093D39"/>
<path d="M221.612 152.768C189.281 152.768 163.072 126.56 163.072 94.1995C163.072 61.8385 189.255 35.6046 221.586 35.6046C237.25 35.6046 252.259 41.8788 263.272 53.0493C250.629 35.7117 230.46 25.4375 208.995 25.4375C171.853 25.4375 141.754 55.5644 141.754 92.7413C141.754 129.918 171.853 160.045 208.995 160.045C225.074 160.072 240.658 154.279 252.82 143.751C243.491 149.651 232.665 152.808 221.612 152.768Z" fill="#ABFB42"/>
<path d="M241.7 45.0156C264.341 58.2463 271.986 87.3564 258.741 110.018C245.522 132.68 216.439 140.333 193.798 127.075C180.86 119.517 172.266 106.326 170.582 91.4366C170.516 92.3597 170.516 93.3229 170.516 94.246C170.516 123.316 194.052 146.874 223.095 146.874C252.138 146.874 275.675 123.316 275.675 94.246C275.701 72.3733 262.176 52.7748 241.686 45.029" fill="#ABFB42"/>
<path d="M216.346 48.6462C199.118 48.6462 183.922 59.9638 179.017 76.5122C186.755 59.228 207.017 51.4823 224.272 59.228C241.54 66.9738 249.279 87.2546 241.54 104.525C234.657 119.923 217.616 127.99 201.35 123.589C221.198 131.883 244.026 122.505 252.313 102.612C260.599 82.7463 251.23 59.8969 231.356 51.6027C226.611 49.6629 221.519 48.6328 216.36 48.6328" fill="#ABFB42"/>
<path d="M313.807 91.0628C314.742 84.6682 310.278 78.7418 303.903 77.8188L297.661 76.8823C296.726 71.7586 295.403 66.8356 293.679 62.0329C295.202 61.1634 295.87 59.3708 295.202 57.7788C288.292 40.3341 276.397 25.8995 261.508 15.8393C246.686 5.72571 228.87 0 210.131 0C191.393 0 173.443 5.79259 158.554 15.9731C143.665 26.1536 131.77 40.6686 124.86 58.247C124.259 59.9059 124.927 61.7119 126.45 62.5681C124.793 67.1567 123.523 72.0262 122.668 77.0161H122.735L116.48 77.8857C110.105 78.8221 105.641 84.802 106.576 91.1966L110.305 117.23C111.147 122.996 116.186 127.21 121.853 127.21C122.401 127.21 122.962 127.17 123.523 127.089L128.108 126.487L135.085 125.417C132.826 120.226 131.102 114.835 129.966 109.31C128.83 103.852 128.241 98.1932 128.241 92.5344C128.241 89.0026 128.442 85.6047 128.91 82.2201L128.936 82.0194C131.262 63.5179 139.682 46.9428 152.246 34.3676C167.068 19.5182 187.544 10.3411 210.145 10.3411C232.746 10.3411 253.288 19.5316 268.11 34.3676C280.674 46.9428 289.188 63.5848 291.513 82.1666C291.914 85.4976 292.115 88.9625 292.115 92.414C292.115 98.1397 291.58 103.732 290.391 109.257C289.255 114.782 287.53 120.173 285.272 125.364L292.315 126.367L296.833 127.036C297.394 127.116 297.969 127.156 298.517 127.156C304.224 127.156 309.209 122.942 310.051 117.109L313.834 91.0762L313.807 91.0628Z" fill="#ABFB42"/>
<path d="M229.15 84.9334L207.886 72.5991C205.079 70.967 201.711 70.967 198.904 72.5991C196.084 74.2312 194.4 77.1475 194.4 80.4117V105.067C194.4 108.331 196.084 111.248 198.904 112.88C200.307 113.696 201.844 114.097 203.381 114.097C204.932 114.097 206.469 113.696 207.886 112.866L229.15 100.532C231.957 98.8999 233.641 95.9835 233.641 92.7327C233.641 89.4819 231.957 86.5655 229.15 84.9334Z" fill="#093D39"/>
<path d="M392.997 54.1456C388.332 44.8747 381.422 37.4902 372.267 32.0187C363.111 26.5471 351.738 23.8047 338.145 23.8047H290.992V38.226C294.6 43.7109 297.688 49.5837 300.147 55.7777C301.163 58.2659 300.936 60.995 299.719 63.2291C300.668 66.1589 301.484 69.1421 302.152 72.1521L304.678 72.5267C313.98 73.8912 320.449 82.5467 319.099 91.8443L315.317 117.877C314.408 124.085 310.171 129.142 304.611 131.336C332.785 133.837 354.371 137.315 365.731 141.356C367.442 140.633 369.113 139.857 370.716 138.974C379.992 133.904 387.183 126.76 392.315 117.53C397.434 108.312 400 97.4763 400 85.0216C400 73.7307 397.661 63.4432 393.01 54.159L392.997 54.1456ZM362.51 101.516C360.318 106.413 357.177 110.252 353.101 113.008C349.011 115.777 344.026 117.155 338.158 117.155H324.686V53.1824H338.158C343.919 53.1824 348.864 54.5068 353.021 57.1556C357.164 59.8044 360.331 63.5234 362.523 68.3127C364.715 73.1019 365.811 78.6537 365.811 84.9948C365.811 91.3359 364.715 96.6068 362.523 101.503L362.51 101.516Z" fill="#093D39"/>
<path d="M33.6808 141.533V81.8811L54.2368 127.352H72.2L92.756 81.8811V131.54C99.1313 130.951 105.867 130.416 112.898 129.934C108.754 127.352 105.72 123.058 104.972 117.974L101.256 91.9546C99.8931 82.6303 106.362 73.9347 115.718 72.5702L118.11 72.2357C118.738 69.3327 119.487 66.4966 120.369 63.7542C119.166 61.5736 118.899 58.9114 119.794 56.4098C119.808 56.3562 119.834 56.3161 119.848 56.2626C121.705 51.5536 123.911 47.0185 126.437 42.7109V23.7812H89.8156L63.2184 81.5333L36.795 23.7946H0V146.55H25.7151C26.6373 144.81 29.3638 143.138 33.6942 141.533H33.6808Z" fill="#093D39"/>
</svg>
