<svg width="250" height="192" viewBox="0 0 250 192" fill="none" xmlns="http://www.w3.org/2000/svg">
<path d="M138.752 182.584C99.7973 182.584 68.2183 151.115 68.2183 112.256C68.2183 73.3975 99.7651 41.8961 138.72 41.8961C157.593 41.8961 175.677 49.4301 188.946 62.8435C173.713 42.0246 149.412 29.6875 123.55 29.6875C78.7984 29.6875 42.5332 65.8635 42.5332 110.505C42.5332 155.147 78.7984 191.323 123.55 191.323C142.923 191.355 161.699 184.399 176.354 171.757C165.113 178.841 152.069 182.632 138.752 182.584Z" fill="#093D39"/>
<path d="M162.971 53.2031C190.251 69.0904 199.462 104.045 183.503 131.258C167.577 158.47 132.536 167.659 105.256 151.739C89.6682 142.663 79.3137 126.824 77.2846 108.945C77.2041 110.053 77.2041 111.21 77.2041 112.318C77.2041 147.225 105.562 175.514 140.555 175.514C175.548 175.514 203.907 147.225 203.907 112.318C203.939 86.0539 187.642 62.5202 162.955 53.2192" fill="#093D39"/>
<path d="M132.423 57.5551C111.666 57.5551 93.3563 71.1452 87.4463 91.0163C96.7702 70.2617 121.183 60.9607 141.973 70.2617C162.779 79.5627 172.103 103.916 162.779 124.654C154.485 143.144 133.953 152.83 114.355 147.545C138.269 157.505 165.774 146.244 175.758 122.357C185.742 98.5021 174.454 71.0649 150.508 61.1053C144.791 58.776 138.656 57.5391 132.44 57.5391" fill="#093D39"/>
<path d="M249.851 109.347C250.978 101.669 245.599 94.5523 237.918 93.4439L230.398 92.3194C229.27 86.1669 227.676 80.2554 225.599 74.4885C227.435 73.4443 228.24 71.2917 227.435 69.3801C219.109 48.4328 204.777 31.0998 186.838 19.0197C168.963 6.87536 147.497 0 124.919 0C102.342 0 80.7153 6.95568 62.776 19.1803C44.8366 31.405 30.5045 48.8344 22.179 69.9424C21.4543 71.9343 22.2595 74.1029 24.0953 75.131C22.0984 80.6409 20.5686 86.4882 19.538 92.4801H19.6185L12.0821 93.5242C4.40067 94.6487 -0.977906 101.829 0.149341 109.508L4.64223 140.768C5.65675 147.692 11.7278 152.752 18.5557 152.752C19.2159 152.752 19.8923 152.704 20.5686 152.607L26.0921 151.884L34.4982 150.599C31.7767 144.367 29.6993 137.893 28.3305 131.258C26.9617 124.704 26.2532 117.909 26.2532 111.114C26.2532 106.873 26.4947 102.793 27.0583 98.7289L27.0905 98.488C29.8926 76.2716 40.0378 56.3683 55.1751 41.2682C73.0339 23.4373 97.7045 12.4174 124.936 12.4174C152.167 12.4174 176.918 23.4533 194.777 41.2682C209.914 56.3683 220.172 76.3519 222.974 98.6647C223.457 102.665 223.699 106.825 223.699 110.97C223.699 117.845 223.054 124.56 221.621 131.194C220.252 137.829 218.175 144.302 215.454 150.535L223.94 151.74L229.383 152.543C230.059 152.639 230.752 152.688 231.412 152.688C238.288 152.688 244.295 147.628 245.309 140.624L249.867 109.363L249.851 109.347Z" fill="#093D39"/>
<path d="M147.852 101.14L122.231 86.3292C118.849 84.3694 114.791 84.3694 111.409 86.3292C108.011 88.289 105.982 91.791 105.982 95.7106V125.316C105.982 129.236 108.011 132.738 111.409 134.698C113.1 135.678 114.952 136.16 116.804 136.16C118.672 136.16 120.524 135.678 122.231 134.682L147.852 119.871C151.233 117.911 153.262 114.409 153.262 110.505C153.262 106.602 151.233 103.1 147.852 101.14Z" fill="#093D39"/>
</svg>
