<svg width="400" height="187" viewBox="0 0 400 187" fill="none" xmlns="http://www.w3.org/2000/svg">
<path d="M40.5378 185.88V176.783L37.6509 183.178H35.1248L32.2379 176.783V185.88H27.4932V168.609H32.6656L36.3812 176.73L40.1235 168.609H45.2825V185.88H40.5378Z" fill="white"/>
<path d="M56.0277 185.994C54.7179 185.994 53.5284 185.753 52.4592 185.258C51.3899 184.763 50.4677 184.094 49.7059 183.265C48.9307 182.435 48.3426 181.485 47.9283 180.442C47.514 179.398 47.3135 178.315 47.3135 177.191C47.3135 176.067 47.5273 174.944 47.9684 173.9C48.4094 172.857 49.0242 171.934 49.7994 171.118C50.5746 170.302 51.5236 169.659 52.5928 169.178C53.6754 168.71 54.8516 168.469 56.1346 168.469C57.4177 168.469 58.634 168.71 59.7032 169.205C60.7724 169.7 61.6813 170.368 62.4565 171.211C63.2183 172.054 63.8064 173.004 64.2207 174.047C64.635 175.091 64.8355 176.174 64.8355 177.271C64.8355 178.368 64.6217 179.492 64.194 180.536C63.7663 181.579 63.1515 182.502 62.3763 183.318C61.5877 184.134 60.6655 184.79 59.5963 185.271C58.5271 185.753 57.3375 185.994 56.0411 185.994H56.0277ZM52.1117 177.245C52.1117 177.833 52.1918 178.395 52.3522 178.93C52.5126 179.479 52.7532 179.96 53.0873 180.388C53.4081 180.816 53.8224 181.164 54.3169 181.405C54.8115 181.659 55.3995 181.78 56.0812 181.78C56.7628 181.78 57.3509 181.646 57.8588 181.392C58.3667 181.138 58.7676 180.776 59.0884 180.335C59.4092 179.893 59.6364 179.398 59.7968 178.85C59.9572 178.301 60.024 177.753 60.024 177.178C60.024 176.602 59.9438 176.041 59.7834 175.505C59.623 174.97 59.3824 174.489 59.0483 174.061C58.7275 173.633 58.3132 173.298 57.8053 173.057C57.2974 172.817 56.7227 172.696 56.0545 172.696C55.3862 172.696 54.7847 172.83 54.2902 173.084C53.7957 173.338 53.3814 173.686 53.0606 174.114C52.7398 174.542 52.4993 175.037 52.3389 175.572C52.1785 176.107 52.1117 176.669 52.1117 177.245Z" fill="white"/>
<path d="M66.8398 185.88V168.609H73.4825C75.3937 168.609 76.9976 168.997 78.2806 169.76C79.5637 170.522 80.5394 171.566 81.1943 172.877C81.8492 174.188 82.1833 175.633 82.1833 177.225C82.1833 178.977 81.8225 180.502 81.1007 181.8C80.379 183.098 79.3632 184.101 78.0668 184.823C76.757 185.532 75.2333 185.894 73.4825 185.894H66.8398V185.88ZM77.3718 177.225C77.3718 176.328 77.2114 175.552 76.904 174.884C76.5966 174.215 76.1555 173.693 75.5675 173.318C74.9794 172.944 74.2844 172.756 73.4825 172.756H71.5846V181.76H73.4825C74.3111 181.76 75.0061 181.559 75.5808 181.171C76.1555 180.783 76.5966 180.248 76.904 179.552C77.2114 178.857 77.3718 178.094 77.3718 177.225Z" fill="white"/>
<path d="M96.552 181.746V185.88H84.2559V168.609H96.3382V172.743H89.0006V175.178H95.269V179.017H89.0006V181.746H96.5654H96.552Z" fill="white"/>
<path d="M98.7573 185.88V168.609H106.683C107.525 168.609 108.3 168.783 109.022 169.118C109.73 169.452 110.345 169.92 110.866 170.496C111.388 171.071 111.789 171.713 112.069 172.435C112.35 173.144 112.497 173.867 112.497 174.603C112.497 175.272 112.403 175.914 112.203 176.529C112.002 177.144 111.722 177.706 111.348 178.215C110.973 178.723 110.532 179.164 110.011 179.539L113.66 185.894H108.461L105.427 180.596H103.502V185.894H98.7573V185.88ZM103.502 176.449H106.496C106.696 176.449 106.87 176.382 107.057 176.235C107.231 176.088 107.391 175.874 107.512 175.606C107.632 175.325 107.699 175.004 107.699 174.603C107.699 174.201 107.632 173.867 107.498 173.599C107.365 173.332 107.191 173.131 106.99 172.984C106.79 172.837 106.589 172.77 106.389 172.77H103.515V176.462L103.502 176.449Z" fill="white"/>
<path d="M119.901 177.385V185.88H115.156V168.609H118.845L125.768 177.399V168.609H130.513V185.88H126.744L119.888 177.385H119.901Z" fill="white"/>
<path d="M133.494 185.88V168.609H138.238V185.88H133.494Z" fill="white"/>
<path d="M140.377 182.348L148.209 172.743H140.751V168.609H153.929V172.141L146.592 181.746H154.077V185.88H140.39V182.348H140.377Z" fill="white"/>
<path d="M168.618 181.746V185.88H156.322V168.609H168.405V172.743H161.067V175.178H167.335V179.017H161.067V181.746H168.632H168.618Z" fill="white"/>
<path d="M184.082 185.994C182.773 185.994 181.583 185.753 180.514 185.258C179.445 184.763 178.522 184.094 177.761 183.265C176.985 182.435 176.397 181.485 175.983 180.442C175.569 179.398 175.368 178.315 175.368 177.191C175.368 176.067 175.582 174.944 176.023 173.9C176.464 172.857 177.079 171.934 177.854 171.118C178.629 170.302 179.578 169.659 180.647 169.178C181.73 168.71 182.906 168.469 184.189 168.469C185.472 168.469 186.689 168.71 187.758 169.205C188.827 169.7 189.736 170.368 190.511 171.211C191.273 172.054 191.861 173.004 192.275 174.047C192.69 175.091 192.89 176.174 192.89 177.271C192.89 178.368 192.676 179.492 192.249 180.536C191.821 181.579 191.206 182.502 190.431 183.318C189.642 184.134 188.72 184.79 187.651 185.271C186.582 185.753 185.392 185.994 184.096 185.994H184.082ZM180.166 177.245C180.166 177.833 180.247 178.395 180.407 178.93C180.567 179.479 180.808 179.96 181.142 180.388C181.463 180.816 181.877 181.164 182.372 181.405C182.866 181.659 183.454 181.78 184.136 181.78C184.818 181.78 185.406 181.646 185.913 181.392C186.421 181.138 186.822 180.776 187.143 180.335C187.464 179.893 187.691 179.398 187.851 178.85C188.012 178.301 188.079 177.753 188.079 177.178C188.079 176.602 187.998 176.041 187.838 175.505C187.678 174.97 187.437 174.489 187.103 174.061C186.782 173.633 186.368 173.298 185.86 173.057C185.352 172.817 184.777 172.696 184.109 172.696C183.441 172.696 182.839 172.83 182.345 173.084C181.85 173.338 181.436 173.686 181.115 174.114C180.795 174.542 180.554 175.037 180.394 175.572C180.233 176.107 180.166 176.669 180.166 177.245Z" fill="white"/>
<path d="M194.895 185.88V168.609H202.82C203.662 168.609 204.437 168.783 205.159 169.118C205.868 169.452 206.482 169.92 207.004 170.496C207.525 171.071 207.926 171.713 208.206 172.435C208.487 173.144 208.634 173.867 208.634 174.603C208.634 175.272 208.541 175.914 208.34 176.529C208.14 177.144 207.859 177.706 207.485 178.215C207.111 178.723 206.669 179.164 206.148 179.539L209.797 185.894H204.598L201.564 180.596H199.639V185.894H194.895V185.88ZM199.639 176.449H202.633C202.834 176.449 203.007 176.382 203.194 176.235C203.368 176.088 203.529 175.874 203.649 175.606C203.769 175.325 203.836 175.004 203.836 174.603C203.836 174.201 203.769 173.867 203.636 173.599C203.502 173.332 203.328 173.131 203.128 172.984C202.927 172.837 202.727 172.77 202.526 172.77H199.653V176.462L199.639 176.449Z" fill="white"/>
<path d="M216.773 185.88V168.609H223.416C225.327 168.609 226.931 168.997 228.214 169.76C229.497 170.522 230.473 171.566 231.128 172.877C231.783 174.188 232.117 175.633 232.117 177.225C232.117 178.977 231.756 180.502 231.034 181.8C230.313 183.098 229.297 184.101 228 184.823C226.691 185.532 225.167 185.894 223.416 185.894H216.773V185.88ZM227.292 177.225C227.292 176.328 227.132 175.552 226.824 174.884C226.517 174.215 226.076 173.693 225.488 173.318C224.9 172.944 224.205 172.756 223.403 172.756H221.505V181.76H223.403C224.231 181.76 224.926 181.559 225.501 181.171C226.076 180.783 226.517 180.248 226.824 179.552C227.132 178.857 227.292 178.094 227.292 177.225Z" fill="white"/>
<path d="M234.175 185.88V168.609H238.92V185.88H234.175Z" fill="white"/>
<path d="M254.184 181.746V185.88H241.888V168.609H253.97V172.743H246.632V175.178H252.901V179.017H246.632V181.746H254.197H254.184Z" fill="white"/>
<path d="M261.855 185.88V168.609H269.3C270.142 168.609 270.917 168.783 271.638 169.118C272.347 169.452 272.962 169.92 273.483 170.496C274.004 171.071 274.405 171.713 274.686 172.435C274.966 173.144 275.113 173.867 275.113 174.603C275.113 175.619 274.873 176.596 274.392 177.492C273.911 178.402 273.256 179.138 272.4 179.713C271.545 180.288 270.556 180.583 269.42 180.583H266.6V185.88H261.855ZM266.6 176.449H269.099C269.3 176.449 269.473 176.395 269.66 176.275C269.834 176.168 269.995 175.967 270.115 175.686C270.235 175.405 270.302 175.044 270.302 174.589C270.302 174.108 270.235 173.72 270.101 173.452C269.968 173.185 269.794 172.997 269.594 172.89C269.393 172.783 269.193 172.73 268.992 172.73H266.613V176.422L266.6 176.449Z" fill="white"/>
<path d="M284.777 185.994C283.467 185.994 282.277 185.753 281.208 185.258C280.139 184.763 279.217 184.094 278.455 183.265C277.68 182.435 277.092 181.485 276.677 180.442C276.263 179.398 276.062 178.315 276.062 177.191C276.062 176.067 276.276 174.944 276.717 173.9C277.158 172.857 277.773 171.934 278.548 171.118C279.324 170.302 280.273 169.659 281.342 169.178C282.424 168.71 283.601 168.469 284.884 168.469C286.167 168.469 287.383 168.71 288.452 169.205C289.521 169.7 290.43 170.368 291.206 171.211C291.967 172.054 292.555 173.004 292.97 174.047C293.384 175.091 293.585 176.174 293.585 177.271C293.585 178.368 293.371 179.492 292.943 180.536C292.515 181.579 291.901 182.502 291.125 183.318C290.337 184.134 289.415 184.79 288.345 185.271C287.276 185.753 286.087 185.994 284.79 185.994H284.777ZM280.874 177.245C280.874 177.833 280.954 178.395 281.115 178.93C281.275 179.479 281.516 179.96 281.85 180.388C282.17 180.816 282.585 181.164 283.079 181.405C283.574 181.659 284.162 181.78 284.844 181.78C285.525 181.78 286.113 181.646 286.621 181.392C287.129 181.138 287.53 180.776 287.851 180.335C288.172 179.893 288.399 179.398 288.559 178.85C288.72 178.301 288.786 177.753 288.786 177.178C288.786 176.602 288.706 176.041 288.546 175.505C288.385 174.97 288.145 174.489 287.811 174.061C287.49 173.633 287.076 173.298 286.568 173.057C286.06 172.817 285.485 172.696 284.817 172.696C284.149 172.696 283.547 172.83 283.053 173.084C282.558 173.338 282.144 173.686 281.823 174.114C281.502 174.542 281.262 175.037 281.101 175.572C280.941 176.107 280.874 176.669 280.874 177.245Z" fill="white"/>
<path d="M295.603 185.88V168.609H302.246C304.157 168.609 305.761 168.997 307.044 169.76C308.327 170.522 309.303 171.566 309.957 172.877C310.612 174.188 310.947 175.633 310.947 177.225C310.947 178.977 310.586 180.502 309.864 181.8C309.142 183.098 308.126 184.101 306.83 184.823C305.52 185.532 303.997 185.894 302.246 185.894H295.603V185.88ZM306.122 177.225C306.122 176.328 305.961 175.552 305.654 174.884C305.346 174.215 304.905 173.693 304.317 173.318C303.729 172.944 303.034 172.756 302.232 172.756H300.334V181.76H302.232C303.061 181.76 303.756 181.559 304.331 181.171C304.905 180.783 305.346 180.248 305.654 179.552C305.961 178.857 306.122 178.094 306.122 177.225Z" fill="white"/>
<path d="M312.056 177.075C312.056 176.018 312.256 174.988 312.657 173.972C313.058 172.955 313.633 172.032 314.395 171.216C315.156 170.4 316.079 169.731 317.175 169.236C318.271 168.741 319.5 168.5 320.877 168.5C322.534 168.5 323.978 168.848 325.207 169.53C326.437 170.212 327.359 171.135 327.961 172.273L324.338 174.854C324.125 174.293 323.831 173.851 323.43 173.543C323.029 173.236 322.601 173.022 322.147 172.901C321.679 172.781 321.238 172.714 320.797 172.714C320.115 172.714 319.527 172.848 319.032 173.115C318.538 173.383 318.137 173.731 317.816 174.172C317.495 174.614 317.268 175.095 317.108 175.63C316.947 176.165 316.881 176.701 316.881 177.236C316.881 177.838 316.974 178.413 317.148 178.961C317.322 179.51 317.589 180.005 317.923 180.433C318.257 180.861 318.685 181.196 319.179 181.436C319.674 181.677 320.235 181.798 320.85 181.798C321.291 181.798 321.732 181.731 322.187 181.597C322.641 181.463 323.055 181.236 323.43 180.928C323.804 180.62 324.085 180.206 324.285 179.684L328.148 181.998C327.813 182.841 327.239 183.563 326.45 184.165C325.662 184.767 324.753 185.222 323.75 185.543C322.748 185.864 321.746 186.012 320.757 186.012C319.473 186.012 318.311 185.757 317.241 185.249C316.186 184.741 315.263 184.058 314.488 183.202C313.713 182.346 313.125 181.396 312.697 180.326C312.27 179.269 312.069 178.186 312.069 177.075H312.056Z" fill="white"/>
<path d="M333.521 168.609H338.813L344.306 185.88H339.495L338.599 182.496H333.721L332.826 185.88H327.987L333.507 168.609H333.521ZM337.771 179.338L336.167 173.251L334.563 179.338H337.771Z" fill="white"/>
<path d="M356.001 174.279C355.453 173.958 354.945 173.691 354.491 173.49C354.036 173.289 353.542 173.102 353.007 172.941C352.473 172.781 351.951 172.701 351.43 172.701C351.029 172.701 350.695 172.768 350.428 172.888C350.174 173.022 350.04 173.236 350.04 173.543C350.04 173.838 350.174 174.065 350.428 174.239C350.682 174.413 351.056 174.574 351.537 174.721C352.018 174.868 352.58 175.042 353.248 175.256C354.317 175.577 355.239 175.951 356.015 176.366C356.79 176.781 357.391 177.316 357.819 177.971C358.233 178.627 358.447 179.483 358.447 180.567C358.447 181.65 358.26 182.466 357.886 183.162C357.511 183.858 357.017 184.42 356.375 184.834C355.747 185.249 355.039 185.557 354.264 185.744C353.488 185.931 352.687 186.025 351.885 186.025C351.083 186.025 350.201 185.945 349.292 185.771C348.396 185.597 347.527 185.369 346.672 185.062C345.83 184.767 345.055 184.406 344.36 184.005L346.405 179.844C347.046 180.232 347.648 180.553 348.182 180.794C348.717 181.035 349.318 181.262 349.973 181.45C350.628 181.65 351.283 181.744 351.951 181.744C352.473 181.744 352.834 181.677 353.034 181.543C353.235 181.41 353.341 181.236 353.341 181.022C353.341 180.687 353.168 180.42 352.807 180.232C352.446 180.045 351.978 179.871 351.403 179.697C350.829 179.523 350.187 179.336 349.492 179.109C348.49 178.774 347.661 178.386 347.02 177.958C346.378 177.53 345.897 177.022 345.589 176.433C345.282 175.844 345.122 175.135 345.122 174.293C345.122 173.022 345.416 171.951 346.017 171.109C346.619 170.252 347.407 169.61 348.383 169.169C349.359 168.727 350.414 168.5 351.55 168.5C352.392 168.5 353.208 168.607 353.996 168.808C354.785 169.008 355.52 169.263 356.202 169.543C356.897 169.838 357.498 170.105 358.006 170.373L355.961 174.293L356.001 174.279Z" fill="white"/>
<path d="M373.991 172.743H369.032V185.88H364.288V172.743H359.302V168.609H373.991V172.743Z" fill="white"/>
<path d="M221.612 152.768C189.281 152.768 163.072 126.56 163.072 94.1995C163.072 61.8385 189.255 35.6046 221.586 35.6046C237.25 35.6046 252.259 41.8788 263.272 53.0493C250.629 35.7117 230.46 25.4375 208.995 25.4375C171.853 25.4375 141.754 55.5644 141.754 92.7413C141.754 129.918 171.853 160.045 208.995 160.045C225.074 160.072 240.658 154.279 252.82 143.751C243.491 149.651 232.665 152.808 221.612 152.768Z" fill="#ABFB42"/>
<path d="M241.7 45.0156C264.341 58.2463 271.986 87.3564 258.741 110.018C245.522 132.68 216.439 140.333 193.798 127.075C180.86 119.517 172.266 106.326 170.582 91.4366C170.516 92.3597 170.516 93.3229 170.516 94.246C170.516 123.316 194.052 146.874 223.095 146.874C252.138 146.874 275.675 123.316 275.675 94.246C275.701 72.3733 262.176 52.7748 241.686 45.029" fill="#ABFB42"/>
<path d="M216.346 48.6462C199.118 48.6462 183.922 59.9638 179.017 76.5122C186.755 59.228 207.017 51.4823 224.272 59.228C241.54 66.9738 249.279 87.2546 241.54 104.525C234.657 119.923 217.616 127.99 201.35 123.589C221.198 131.883 244.026 122.505 252.313 102.612C260.599 82.7463 251.23 59.8969 231.356 51.6027C226.611 49.6629 221.519 48.6328 216.36 48.6328" fill="#ABFB42"/>
<path d="M313.807 91.0628C314.742 84.6682 310.278 78.7418 303.903 77.8188L297.661 76.8823C296.726 71.7586 295.403 66.8356 293.679 62.0329C295.202 61.1634 295.87 59.3708 295.202 57.7788C288.292 40.3341 276.397 25.8995 261.508 15.8393C246.686 5.72571 228.87 0 210.131 0C191.393 0 173.443 5.79259 158.554 15.9731C143.665 26.1536 131.77 40.6686 124.86 58.247C124.259 59.9059 124.927 61.7119 126.45 62.5681C124.793 67.1567 123.523 72.0262 122.668 77.0161H122.735L116.48 77.8857C110.105 78.8221 105.641 84.802 106.576 91.1966L110.305 117.23C111.147 122.996 116.186 127.21 121.853 127.21C122.401 127.21 122.962 127.17 123.523 127.089L128.108 126.487L135.085 125.417C132.826 120.226 131.102 114.835 129.966 109.31C128.83 103.852 128.241 98.1932 128.241 92.5344C128.241 89.0026 128.442 85.6047 128.91 82.2201L128.936 82.0194C131.262 63.5179 139.682 46.9428 152.246 34.3676C167.068 19.5182 187.544 10.3411 210.145 10.3411C232.746 10.3411 253.288 19.5316 268.11 34.3676C280.674 46.9428 289.188 63.5848 291.513 82.1666C291.914 85.4976 292.115 88.9625 292.115 92.414C292.115 98.1397 291.58 103.732 290.391 109.257C289.255 114.782 287.53 120.173 285.272 125.364L292.315 126.367L296.833 127.036C297.394 127.116 297.969 127.156 298.517 127.156C304.224 127.156 309.209 122.942 310.051 117.109L313.834 91.0762L313.807 91.0628Z" fill="#ABFB42"/>
<path d="M229.15 84.9334L207.886 72.5991C205.079 70.967 201.711 70.967 198.904 72.5991C196.084 74.2312 194.4 77.1475 194.4 80.4117V105.067C194.4 108.331 196.084 111.248 198.904 112.88C200.307 113.696 201.844 114.097 203.381 114.097C204.932 114.097 206.469 113.696 207.886 112.866L229.15 100.532C231.957 98.8999 233.641 95.9835 233.641 92.7327C233.641 89.4819 231.957 86.5655 229.15 84.9334Z" fill="white"/>
<path d="M392.997 54.1456C388.332 44.8747 381.422 37.4902 372.267 32.0187C363.111 26.5471 351.738 23.8047 338.145 23.8047H290.992V38.226C294.6 43.7109 297.688 49.5837 300.147 55.7777C301.163 58.2659 300.936 60.995 299.719 63.2291C300.668 66.1589 301.484 69.1421 302.152 72.1521L304.678 72.5267C313.98 73.8912 320.449 82.5467 319.099 91.8443L315.317 117.877C314.408 124.085 310.171 129.142 304.611 131.336C332.785 133.837 354.371 137.315 365.731 141.356C367.442 140.633 369.113 139.857 370.716 138.974C379.992 133.904 387.183 126.76 392.315 117.53C397.434 108.312 400 97.4763 400 85.0216C400 73.7307 397.661 63.4432 393.01 54.159L392.997 54.1456ZM362.51 101.516C360.318 106.413 357.177 110.252 353.101 113.008C349.011 115.777 344.026 117.155 338.158 117.155H324.686V53.1824H338.158C343.919 53.1824 348.864 54.5068 353.021 57.1556C357.164 59.8044 360.331 63.5234 362.523 68.3127C364.715 73.1019 365.811 78.6537 365.811 84.9948C365.811 91.3359 364.715 96.6068 362.523 101.503L362.51 101.516Z" fill="white"/>
<path d="M33.6808 141.533V81.8811L54.2368 127.352H72.2L92.756 81.8811V131.54C99.1313 130.951 105.867 130.416 112.898 129.934C108.754 127.352 105.72 123.058 104.972 117.974L101.256 91.9546C99.8931 82.6303 106.362 73.9347 115.718 72.5702L118.11 72.2357C118.738 69.3327 119.487 66.4966 120.369 63.7542C119.166 61.5736 118.899 58.9114 119.794 56.4098C119.808 56.3562 119.834 56.3161 119.848 56.2626C121.705 51.5536 123.911 47.0185 126.437 42.7109V23.7812H89.8156L63.2184 81.5333L36.795 23.7946H0V146.55H25.7151C26.6373 144.81 29.3638 143.138 33.6942 141.533H33.6808Z" fill="white"/>
</svg>
