<svg width="400" height="187" viewBox="0 0 400 187" fill="none" xmlns="http://www.w3.org/2000/svg">
<path d="M40.5378 185.873V176.776L37.6509 183.17H35.1248L32.2379 176.776V185.873H27.4932V168.602H32.6656L36.3812 176.722L40.1235 168.602H45.2825V185.873H40.5378Z" fill="#ABFB42"/>
<path d="M56.0287 186.002C54.7189 186.002 53.5294 185.761 52.4601 185.266C51.3909 184.771 50.4687 184.102 49.7069 183.273C48.9317 182.443 48.3436 181.494 47.9293 180.45C47.5149 179.407 47.3145 178.323 47.3145 177.199C47.3145 176.075 47.5283 174.952 47.9694 173.908C48.4104 172.865 49.0252 171.942 49.8004 171.125C50.5756 170.309 51.5246 169.667 52.5938 169.186C53.6764 168.717 54.8525 168.477 56.1356 168.477C57.4187 168.477 58.635 168.717 59.7042 169.212C60.7734 169.707 61.6823 170.376 62.4575 171.219C63.2193 172.062 63.8074 173.012 64.2217 174.055C64.636 175.099 64.8365 176.182 64.8365 177.279C64.8365 178.376 64.6227 179.5 64.195 180.544C63.7673 181.587 63.1525 182.51 62.3773 183.326C61.5887 184.142 60.6665 184.798 59.5973 185.28C58.528 185.761 57.3385 186.002 56.0421 186.002H56.0287ZM52.1126 177.253C52.1126 177.841 52.1928 178.403 52.3532 178.938C52.5136 179.487 52.7542 179.968 53.0883 180.397C53.4091 180.825 53.8234 181.173 54.3179 181.413C54.8124 181.668 55.4005 181.788 56.0822 181.788C56.7638 181.788 57.3519 181.654 57.8598 181.4C58.3677 181.146 58.7686 180.785 59.0894 180.343C59.4102 179.902 59.6374 179.407 59.7978 178.858C59.9581 178.31 60.025 177.761 60.025 177.186C60.025 176.611 59.9448 176.049 59.7844 175.514C59.624 174.978 59.3834 174.497 59.0493 174.069C58.7285 173.641 58.3142 173.306 57.8063 173.065C57.2984 172.824 56.7237 172.704 56.0554 172.704C55.3872 172.704 54.7857 172.838 54.2912 173.092C53.7967 173.346 53.3824 173.694 53.0616 174.122C52.7408 174.55 52.5002 175.045 52.3398 175.58C52.1795 176.116 52.1126 176.677 52.1126 177.253Z" fill="#ABFB42"/>
<path d="M66.8418 185.873V168.602H73.4844C75.3957 168.602 76.9995 168.99 78.2826 169.752C79.5657 170.515 80.5413 171.558 81.1963 172.869C81.8512 174.18 82.1853 175.625 82.1853 177.217C82.1853 178.97 81.8244 180.495 81.1027 181.793C80.381 183.09 79.3652 184.094 78.0687 184.816C76.7589 185.525 75.2353 185.886 73.4844 185.886H66.8418V185.873ZM77.3737 177.217C77.3737 176.321 77.2134 175.545 76.906 174.876C76.5986 174.207 76.1575 173.685 75.5694 173.311C74.9813 172.936 74.2863 172.749 73.4844 172.749H71.5865V181.752H73.4844C74.3131 181.752 75.0081 181.552 75.5828 181.164C76.1575 180.776 76.5986 180.241 76.906 179.545C77.2134 178.849 77.3737 178.087 77.3737 177.217Z" fill="#ABFB42"/>
<path d="M96.552 181.739V185.873H84.2559V168.602H96.3382V172.735H89.0006V175.17H95.269V179.01H89.0006V181.739H96.5654H96.552Z" fill="#ABFB42"/>
<path d="M98.7578 185.873V168.602H106.684C107.526 168.602 108.301 168.775 109.022 169.11C109.731 169.444 110.346 169.913 110.867 170.488C111.388 171.063 111.789 171.705 112.07 172.428C112.35 173.137 112.497 173.859 112.497 174.595C112.497 175.264 112.404 175.906 112.203 176.521C112.003 177.137 111.722 177.699 111.348 178.207C110.974 178.716 110.533 179.157 110.011 179.532L113.66 185.886H108.461L105.427 180.588H103.503V185.886H98.7578V185.873ZM103.503 176.441H106.496C106.697 176.441 106.871 176.374 107.058 176.227C107.231 176.08 107.392 175.866 107.512 175.598C107.632 175.317 107.699 174.996 107.699 174.595C107.699 174.194 107.632 173.859 107.499 173.592C107.365 173.324 107.191 173.123 106.991 172.976C106.79 172.829 106.59 172.762 106.389 172.762H103.516V176.455L103.503 176.441Z" fill="#ABFB42"/>
<path d="M119.901 177.378V185.873H115.156V168.602H118.845L125.768 177.391V168.602H130.513V185.873H126.744L119.888 177.378H119.901Z" fill="#ABFB42"/>
<path d="M133.493 185.873V168.602H138.238V185.873H133.493Z" fill="#ABFB42"/>
<path d="M140.378 182.357L148.21 172.751H140.752V168.617H153.93V172.149L146.593 181.755H154.077V185.889H140.391V182.357H140.378Z" fill="#ABFB42"/>
<path d="M168.617 181.739V185.873H156.321V168.602H168.404V172.735H161.066V175.17H167.334V179.01H161.066V181.739H168.631H168.617Z" fill="#ABFB42"/>
<path d="M184.081 186.002C182.772 186.002 181.582 185.761 180.513 185.266C179.444 184.771 178.521 184.102 177.76 183.273C176.984 182.443 176.396 181.494 175.982 180.45C175.568 179.407 175.367 178.323 175.367 177.199C175.367 176.075 175.581 174.952 176.022 173.908C176.463 172.865 177.078 171.942 177.853 171.125C178.628 170.309 179.577 169.667 180.647 169.186C181.729 168.717 182.905 168.477 184.188 168.477C185.471 168.477 186.688 168.717 187.757 169.212C188.826 169.707 189.735 170.376 190.51 171.219C191.272 172.062 191.86 173.012 192.274 174.055C192.689 175.099 192.889 176.182 192.889 177.279C192.889 178.376 192.675 179.5 192.248 180.544C191.82 181.587 191.205 182.51 190.43 183.326C189.641 184.142 188.719 184.798 187.65 185.28C186.581 185.761 185.391 186.002 184.095 186.002H184.081ZM180.165 177.253C180.165 177.841 180.246 178.403 180.406 178.938C180.566 179.487 180.807 179.968 181.141 180.397C181.462 180.825 181.876 181.173 182.371 181.413C182.865 181.668 183.453 181.788 184.135 181.788C184.817 181.788 185.405 181.654 185.912 181.4C186.42 181.146 186.821 180.785 187.142 180.343C187.463 179.902 187.69 179.407 187.85 178.858C188.011 178.31 188.078 177.761 188.078 177.186C188.078 176.611 187.997 176.049 187.837 175.514C187.677 174.978 187.436 174.497 187.102 174.069C186.781 173.641 186.367 173.306 185.859 173.065C185.351 172.824 184.776 172.704 184.108 172.704C183.44 172.704 182.838 172.838 182.344 173.092C181.849 173.346 181.435 173.694 181.114 174.122C180.794 174.55 180.553 175.045 180.393 175.58C180.232 176.116 180.165 176.677 180.165 177.253Z" fill="#ABFB42"/>
<path d="M194.895 185.873V168.602H202.82C203.662 168.602 204.437 168.775 205.159 169.11C205.868 169.444 206.482 169.913 207.004 170.488C207.525 171.063 207.926 171.705 208.206 172.428C208.487 173.137 208.634 173.859 208.634 174.595C208.634 175.264 208.541 175.906 208.34 176.521C208.14 177.137 207.859 177.699 207.485 178.207C207.111 178.716 206.669 179.157 206.148 179.532L209.797 185.886H204.598L201.564 180.588H199.639V185.886H194.895V185.873ZM199.639 176.441H202.633C202.834 176.441 203.007 176.374 203.194 176.227C203.368 176.08 203.529 175.866 203.649 175.598C203.769 175.317 203.836 174.996 203.836 174.595C203.836 174.194 203.769 173.859 203.636 173.592C203.502 173.324 203.328 173.123 203.128 172.976C202.927 172.829 202.727 172.762 202.526 172.762H199.653V176.455L199.639 176.441Z" fill="#ABFB42"/>
<path d="M216.773 185.873V168.602H223.416C225.327 168.602 226.931 168.99 228.214 169.752C229.497 170.515 230.473 171.558 231.128 172.869C231.783 174.18 232.117 175.625 232.117 177.217C232.117 178.97 231.756 180.495 231.034 181.793C230.313 183.09 229.297 184.094 228 184.816C226.691 185.525 225.167 185.886 223.416 185.886H216.773V185.873ZM227.292 177.217C227.292 176.321 227.132 175.545 226.824 174.876C226.517 174.207 226.076 173.685 225.488 173.311C224.9 172.936 224.205 172.749 223.403 172.749H221.505V181.752H223.403C224.231 181.752 224.926 181.552 225.501 181.164C226.076 180.776 226.517 180.241 226.824 179.545C227.132 178.849 227.292 178.087 227.292 177.217Z" fill="#ABFB42"/>
<path d="M234.176 185.873V168.602H238.92V185.873H234.176Z" fill="#ABFB42"/>
<path d="M254.184 181.739V185.873H241.888V168.602H253.97V172.735H246.632V175.17H252.901V179.01H246.632V181.739H254.197H254.184Z" fill="#ABFB42"/>
<path d="M261.855 185.873V168.602H269.3C270.142 168.602 270.917 168.775 271.639 169.11C272.347 169.444 272.962 169.913 273.483 170.488C274.005 171.063 274.406 171.705 274.686 172.428C274.967 173.137 275.114 173.859 275.114 174.595C275.114 175.612 274.873 176.588 274.392 177.485C273.911 178.394 273.256 179.13 272.401 179.706C271.545 180.281 270.556 180.575 269.42 180.575H266.6V185.873H261.855ZM266.6 176.441H269.1C269.3 176.441 269.474 176.388 269.661 176.267C269.835 176.16 269.995 175.96 270.115 175.679C270.236 175.398 270.302 175.036 270.302 174.582C270.302 174.1 270.236 173.712 270.102 173.444C269.968 173.177 269.795 172.99 269.594 172.883C269.394 172.776 269.193 172.722 268.993 172.722H266.614V176.414L266.6 176.441Z" fill="#ABFB42"/>
<path d="M284.777 186.002C283.467 186.002 282.277 185.761 281.208 185.266C280.139 184.771 279.217 184.102 278.455 183.273C277.68 182.443 277.092 181.494 276.677 180.45C276.263 179.407 276.062 178.323 276.062 177.199C276.062 176.075 276.276 174.952 276.717 173.908C277.158 172.865 277.773 171.942 278.548 171.125C279.324 170.309 280.273 169.667 281.342 169.186C282.424 168.717 283.601 168.477 284.884 168.477C286.167 168.477 287.383 168.717 288.452 169.212C289.521 169.707 290.43 170.376 291.206 171.219C291.967 172.062 292.555 173.012 292.97 174.055C293.384 175.099 293.585 176.182 293.585 177.279C293.585 178.376 293.371 179.5 292.943 180.544C292.515 181.587 291.901 182.51 291.125 183.326C290.337 184.142 289.415 184.798 288.345 185.28C287.276 185.761 286.087 186.002 284.79 186.002H284.777ZM280.874 177.253C280.874 177.841 280.954 178.403 281.115 178.938C281.275 179.487 281.516 179.968 281.85 180.397C282.17 180.825 282.585 181.173 283.079 181.413C283.574 181.668 284.162 181.788 284.844 181.788C285.525 181.788 286.113 181.654 286.621 181.4C287.129 181.146 287.53 180.785 287.851 180.343C288.172 179.902 288.399 179.407 288.559 178.858C288.72 178.31 288.786 177.761 288.786 177.186C288.786 176.611 288.706 176.049 288.546 175.514C288.385 174.978 288.145 174.497 287.811 174.069C287.49 173.641 287.076 173.306 286.568 173.065C286.06 172.824 285.485 172.704 284.817 172.704C284.149 172.704 283.547 172.838 283.053 173.092C282.558 173.346 282.144 173.694 281.823 174.122C281.502 174.55 281.262 175.045 281.101 175.58C280.941 176.116 280.874 176.677 280.874 177.253Z" fill="#ABFB42"/>
<path d="M295.603 185.873V168.602H302.245C304.156 168.602 305.76 168.99 307.043 169.752C308.326 170.515 309.302 171.558 309.957 172.869C310.612 174.18 310.946 175.625 310.946 177.217C310.946 178.97 310.585 180.495 309.863 181.793C309.142 183.09 308.126 184.094 306.83 184.816C305.52 185.525 303.996 185.886 302.245 185.886H295.603V185.873ZM306.121 177.217C306.121 176.321 305.961 175.545 305.653 174.876C305.346 174.207 304.905 173.685 304.317 173.311C303.729 172.936 303.034 172.749 302.232 172.749H300.334V181.752H302.232C303.06 181.752 303.755 181.552 304.33 181.164C304.905 180.776 305.346 180.241 305.653 179.545C305.961 178.849 306.121 178.087 306.121 177.217Z" fill="#ABFB42"/>
<path d="M312.056 177.083C312.056 176.026 312.256 174.996 312.657 173.98C313.058 172.963 313.633 172.04 314.395 171.224C315.156 170.408 316.079 169.739 317.175 169.244C318.271 168.749 319.5 168.508 320.877 168.508C322.534 168.508 323.978 168.856 325.207 169.538C326.437 170.22 327.359 171.143 327.961 172.28L324.338 174.862C324.125 174.301 323.831 173.859 323.43 173.551C323.029 173.244 322.601 173.03 322.147 172.909C321.679 172.789 321.238 172.722 320.797 172.722C320.115 172.722 319.527 172.856 319.032 173.123C318.538 173.391 318.137 173.739 317.816 174.18C317.495 174.622 317.268 175.103 317.108 175.638C316.947 176.174 316.881 176.709 316.881 177.244C316.881 177.846 316.974 178.421 317.148 178.97C317.322 179.518 317.589 180.013 317.923 180.441C318.257 180.869 318.685 181.204 319.179 181.445C319.674 181.685 320.235 181.806 320.85 181.806C321.291 181.806 321.732 181.739 322.187 181.605C322.641 181.471 323.055 181.244 323.43 180.936C323.804 180.629 324.085 180.214 324.285 179.692L328.148 182.006C327.813 182.849 327.239 183.572 326.45 184.174C325.662 184.776 324.753 185.231 323.75 185.552C322.748 185.873 321.746 186.02 320.757 186.02C319.473 186.02 318.311 185.766 317.241 185.257C316.186 184.749 315.263 184.067 314.488 183.211C313.713 182.354 313.125 181.404 312.697 180.334C312.27 179.277 312.069 178.194 312.069 177.083H312.056Z" fill="#ABFB42"/>
<path d="M333.521 168.602H338.813L344.306 185.873H339.495L338.599 182.488H333.721L332.826 185.873H327.987L333.507 168.602H333.521ZM337.771 179.331L336.167 173.244L334.563 179.331H337.771Z" fill="#ABFB42"/>
<path d="M356.001 174.287C355.453 173.966 354.945 173.699 354.49 173.498C354.036 173.297 353.541 173.11 353.007 172.949C352.472 172.789 351.951 172.709 351.43 172.709C351.029 172.709 350.695 172.775 350.427 172.896C350.173 173.03 350.04 173.244 350.04 173.551C350.04 173.846 350.173 174.073 350.427 174.247C350.681 174.421 351.055 174.582 351.537 174.729C352.018 174.876 352.579 175.05 353.247 175.264C354.317 175.585 355.239 175.959 356.014 176.374C356.789 176.789 357.391 177.324 357.818 177.98C358.233 178.635 358.447 179.491 358.447 180.575C358.447 181.659 358.259 182.475 357.885 183.17C357.511 183.866 357.016 184.428 356.375 184.843C355.747 185.257 355.038 185.565 354.263 185.752C353.488 185.94 352.686 186.033 351.884 186.033C351.082 186.033 350.2 185.953 349.291 185.779C348.396 185.605 347.527 185.378 346.672 185.07C345.83 184.776 345.054 184.415 344.359 184.013L346.404 179.853C347.046 180.241 347.647 180.562 348.182 180.802C348.717 181.043 349.318 181.271 349.973 181.458C350.628 181.659 351.283 181.752 351.951 181.752C352.472 181.752 352.833 181.685 353.034 181.552C353.234 181.418 353.341 181.244 353.341 181.03C353.341 180.695 353.167 180.428 352.806 180.241C352.445 180.053 351.978 179.879 351.403 179.705C350.828 179.531 350.187 179.344 349.492 179.117C348.489 178.782 347.661 178.394 347.019 177.966C346.378 177.538 345.896 177.03 345.589 176.441C345.282 175.852 345.121 175.143 345.121 174.301C345.121 173.03 345.415 171.959 346.017 171.117C346.618 170.26 347.407 169.618 348.382 169.177C349.358 168.735 350.414 168.508 351.55 168.508C352.392 168.508 353.207 168.615 353.996 168.816C354.784 169.016 355.52 169.27 356.201 169.551C356.896 169.846 357.498 170.113 358.005 170.381L355.961 174.301L356.001 174.287Z" fill="#ABFB42"/>
<path d="M373.992 172.735H369.034V185.873H364.289V172.735H359.304V168.602H373.992V172.735Z" fill="#ABFB42"/>
<path d="M221.612 152.764C189.281 152.764 163.072 126.556 163.072 94.1939C163.072 61.8319 189.255 35.5972 221.586 35.5972C237.25 35.5972 252.259 41.8716 263.272 53.0424C250.629 35.7042 230.46 25.4297 208.995 25.4297C171.853 25.4297 141.754 55.5575 141.754 92.7357C141.754 129.914 171.853 160.042 208.995 160.042C225.074 160.068 240.658 154.276 252.821 143.747C243.491 149.647 232.665 152.804 221.612 152.764Z" fill="#ABFB42"/>
<path d="M241.7 45.0156C264.341 58.2467 271.986 87.3578 258.741 110.021C245.522 132.683 216.439 140.336 193.798 127.078C180.86 119.519 172.266 106.328 170.582 91.4381C170.516 92.3612 170.516 93.3245 170.516 94.2476C170.516 123.318 194.052 146.878 223.095 146.878C252.138 146.878 275.675 123.318 275.675 94.2476C275.701 72.3741 262.176 52.775 241.686 45.029" fill="#ABFB42"/>
<path d="M216.346 48.6384C199.118 48.6384 183.922 59.9564 179.017 76.5053C186.755 59.2206 207.017 51.4746 224.272 59.2206C241.54 66.9666 249.279 87.248 241.54 104.519C234.657 119.918 217.616 127.985 201.35 123.583C221.198 131.878 244.026 122.5 252.313 102.606C260.599 82.7395 251.23 59.8895 231.356 51.595C226.611 49.6551 221.519 48.625 216.36 48.625" fill="#ABFB42"/>
<path d="M313.806 91.0657C314.741 84.6709 310.277 78.7444 303.902 77.8213L297.66 76.8848C296.725 71.7609 295.402 66.8377 293.678 62.0349C295.201 61.1653 295.869 59.3727 295.201 57.7807C288.291 40.3354 276.396 25.9003 261.507 15.8398C246.685 5.72589 228.869 0 210.13 0C191.392 0 173.442 5.79278 158.553 15.9736C143.664 26.1545 131.769 40.6699 124.859 58.2489C124.258 59.9078 124.926 61.7139 126.449 62.5701C124.792 67.1588 123.522 72.0285 122.667 77.0186H122.734L116.479 77.8882C110.104 78.8246 105.64 84.8047 106.575 91.1995L110.304 117.234C111.146 123 116.185 127.214 121.852 127.214C122.4 127.214 122.961 127.174 123.522 127.093L128.107 126.491L135.084 125.421C132.825 120.23 131.101 114.839 129.965 109.314C128.829 103.855 128.24 98.1963 128.24 92.5373C128.24 89.0055 128.441 85.6074 128.909 82.2227L128.935 82.022C131.261 63.5199 139.681 46.9443 152.245 34.3687C167.067 19.5189 187.543 10.3414 210.144 10.3414C232.745 10.3414 253.287 19.5322 268.11 34.3687C280.673 46.9443 289.187 63.5868 291.512 82.1692C291.913 85.5004 292.114 88.9654 292.114 92.4169C292.114 98.1428 291.579 103.735 290.39 109.26C289.254 114.785 287.529 120.177 285.271 125.368L292.314 126.371L296.832 127.04C297.393 127.12 297.968 127.16 298.516 127.16C304.223 127.16 309.208 122.946 310.05 117.113L313.833 91.0791L313.806 91.0657Z" fill="#ABFB42"/>
<path d="M229.149 84.9338L207.884 72.5991C205.077 70.967 201.709 70.967 198.903 72.5991C196.082 74.2313 194.398 77.1477 194.398 80.412V105.068C194.398 108.332 196.082 111.249 198.903 112.881C200.306 113.697 201.843 114.098 203.38 114.098C204.93 114.098 206.467 113.697 207.884 112.868L229.149 100.533C231.955 98.9007 233.639 95.9843 233.639 92.7334C233.639 89.4825 231.955 86.566 229.149 84.9338Z" fill="#ABFB42"/>
<path d="M392.997 54.1465C388.332 44.8754 381.423 37.4906 372.267 32.0189C363.112 26.5472 351.738 23.8047 338.145 23.8047H290.992V38.2264C294.601 43.7115 297.688 49.5846 300.148 55.7787C301.163 58.267 300.936 60.9962 299.72 63.2304C300.669 66.1602 301.484 69.1436 302.152 72.1537L304.678 72.5283C313.981 73.8928 320.45 82.5486 319.1 91.8464L315.317 117.881C314.408 124.088 310.172 129.145 304.612 131.339C332.786 133.841 354.371 137.319 365.732 141.359C367.442 140.637 369.113 139.861 370.717 138.978C379.992 133.908 387.183 126.764 392.315 117.533C397.434 108.315 400 97.4787 400 85.0235C400 73.7323 397.662 63.4444 393.01 54.1599L392.997 54.1465ZM362.511 101.519C360.319 106.415 357.178 110.255 353.101 113.011C349.011 115.78 344.026 117.158 338.159 117.158H324.686V53.1833H338.159C343.919 53.1833 348.864 54.5078 353.021 57.1567C357.164 59.8055 360.332 63.5247 362.524 68.3141C364.716 73.1035 365.812 78.6555 365.812 84.9968C365.812 91.3381 364.716 96.6091 362.524 101.506L362.511 101.519Z" fill="#ABFB42"/>
<path d="M33.6808 141.537V81.883L54.2369 127.356H72.2L92.756 81.883V131.543C99.1313 130.954 105.867 130.419 112.898 129.938C108.754 127.356 105.72 123.061 104.972 117.978L101.256 91.9568C99.8931 82.6322 106.362 73.9363 115.718 72.5717L118.11 72.2373C118.738 69.3342 119.487 66.498 120.369 63.7555C119.166 61.5748 118.899 58.9125 119.794 56.4108C119.808 56.3573 119.834 56.3172 119.848 56.2636C121.705 51.5545 123.911 47.0193 126.437 42.7115V23.7812H89.8156L63.2184 81.5351L36.795 23.7946H0V146.553H25.7151C26.6373 144.814 29.3638 143.142 33.6942 141.537H33.6808Z" fill="#ABFB42"/>
</svg>
