<svg width="250" height="250" viewBox="0 0 250 250" fill="none" xmlns="http://www.w3.org/2000/svg">
<path fill-rule="evenodd" clip-rule="evenodd" d="M202.395 94.5571C198.943 67.7578 176.219 46.9609 148.416 46.9609C125.81 46.9609 106.369 60.7069 98.0883 80.3245C94.2313 79.0703 90.175 78.2154 85.913 78.2154C67.0019 78.2154 51.2126 91.6744 47.6422 109.514C47.3992 109.514 47.1126 109.433 46.8322 109.433C20.9798 109.476 0 130.392 0 156.218C0.043617 182.044 20.9798 203.04 46.8322 203.04H195.373C225.568 203.04 250 178.593 250 148.43C250 120.701 229.22 98.0014 202.395 94.5509V94.5571Z" fill="url(#paint0_linear_749_2941)"/>
<path d="M136.19 188.97C109.689 189.02 88.1114 167.574 88.0616 141.043C88.0117 114.512 109.428 92.9037 135.928 92.8538C148.814 92.8038 161.17 97.9952 170.23 107.168C152.322 82.5209 117.858 77.0674 93.1897 95.0002C68.5212 112.933 63.1314 147.438 81.0393 172.135C98.9534 196.832 133.411 202.235 158.079 184.302C159.282 183.41 160.491 182.468 161.587 181.526C154.048 186.455 145.194 189.026 136.19 188.97Z" fill="white"/>
<path d="M152.528 100.561C171.121 111.418 177.352 135.272 166.56 153.835C155.718 172.448 131.891 178.688 113.354 167.887C102.724 161.697 95.6514 150.79 94.293 138.573V140.826C94.293 164.736 113.615 184.085 137.499 184.085C161.382 184.085 180.704 164.736 180.704 140.826C180.443 122.893 169.289 106.9 152.528 100.555V100.561Z" fill="white"/>
<path d="M131.841 103.547C117.647 103.497 105.185 112.882 101.203 126.515C107.646 112.357 124.352 106.118 138.49 112.57C152.628 119.021 158.859 135.75 152.422 149.908C147.867 159.979 137.811 166.374 126.813 166.374C124.352 166.324 121.89 166.006 119.479 165.432C123.405 167.111 127.598 167.947 131.891 167.897C149.643 167.791 163.887 153.265 163.788 135.488C163.576 117.923 149.388 103.709 131.841 103.553V103.547Z" fill="white"/>
<defs>
<linearGradient id="paint0_linear_749_2941" x1="198.305" y1="83.6829" x2="118.174" y2="234.601" gradientUnits="userSpaceOnUse">
<stop offset="0.278846" stop-color="#33CFFF"/>
<stop offset="1" stop-color="#0D87C5"/>
</linearGradient>
</defs>
</svg>
