<svg width="75" height="75" viewBox="0 0 75 75" fill="none" xmlns="http://www.w3.org/2000/svg">
<path fill-rule="evenodd" clip-rule="evenodd" d="M60.7186 28.3687C59.683 20.3289 52.8656 14.0898 44.5248 14.0898C37.743 14.0898 31.9108 18.2136 29.4265 24.0989C28.2694 23.7226 27.0525 23.4662 25.7739 23.4662C20.1006 23.4662 15.3638 27.5039 14.2927 32.8556C14.2198 32.8556 14.1338 32.8313 14.0497 32.8313C6.29393 32.8444 0 39.119 0 46.8668C0.0130851 54.6146 6.29393 60.9136 14.0497 60.9136H58.6119C67.6705 60.9136 75 53.5795 75 44.5307C75 36.212 68.7659 29.402 60.7186 28.3668V28.3687Z" fill="url(#paint0_linear_749_2948)"/>
<path d="M40.857 56.6917C32.9068 56.7066 26.4334 50.2729 26.4185 42.3136C26.4035 34.3543 32.8283 27.8719 40.7784 27.8569C44.6442 27.8419 48.351 29.3994 51.0689 32.151C45.6966 24.757 35.3575 23.121 27.9569 28.5008C20.5564 33.8807 18.9394 44.2323 24.3118 51.6413C29.686 59.0503 40.0232 60.6713 47.4238 55.2915C47.7846 55.0238 48.1472 54.7411 48.4762 54.4585C46.2144 55.9373 43.5581 56.7085 40.857 56.6917Z" fill="white"/>
<path d="M45.7584 30.1698C51.3364 33.4269 53.2057 40.5832 49.968 46.1521C46.7155 51.736 39.5673 53.6079 34.0061 50.3676C30.8171 48.5107 28.6954 45.2386 28.2879 41.5735V42.2492C28.2879 49.4223 34.0846 55.2271 41.2496 55.2271C48.4147 55.2271 54.2113 49.4223 54.2113 42.2492C54.1328 36.8694 50.7868 32.0717 45.7584 30.168V30.1698Z" fill="white"/>
<path d="M39.5524 31.0665C35.2941 31.0515 31.5555 33.8668 30.3611 37.9569C32.2939 33.7096 37.3055 31.8377 41.5469 33.7732C45.7884 35.7088 47.6577 40.7273 45.7267 44.9747C44.3602 47.9959 41.3432 49.9146 38.0439 49.9146C37.3055 49.8997 36.5671 49.8042 35.8437 49.632C37.0214 50.1355 38.2794 50.3864 39.5674 50.3714C44.893 50.3396 49.1662 45.9818 49.1363 40.6487C49.0727 35.3793 44.8163 31.1151 39.5524 31.0683V31.0665Z" fill="white"/>
<defs>
<linearGradient id="paint0_linear_749_2948" x1="59.4916" y1="25.1064" x2="35.4522" y2="70.3817" gradientUnits="userSpaceOnUse">
<stop offset="0.278846" stop-color="#33CFFF"/>
<stop offset="1" stop-color="#0D87C5"/>
</linearGradient>
</defs>
</svg>
