<svg width="250" height="250" viewBox="0 0 250 250" fill="none" xmlns="http://www.w3.org/2000/svg">
<g clip-path="url(#clip0_749_2998)">
<path fill-rule="evenodd" clip-rule="evenodd" d="M202.395 94.6003C198.943 67.8382 176.219 47.0703 148.416 47.0703C125.81 47.0703 106.369 60.7972 98.0883 80.3874C94.2313 79.135 90.175 78.2814 85.913 78.2814C67.0019 78.2814 51.2126 91.7216 47.6422 109.536C47.3992 109.536 47.1126 109.455 46.8322 109.455C20.9798 109.492 0 130.385 0 156.175C0.043617 181.965 20.9798 202.932 46.8322 202.932H195.373C225.568 202.932 250 178.519 250 148.399C250 120.708 229.22 98.0399 202.395 94.5941V94.6003ZM158.08 184.215C133.412 202.122 98.9544 196.733 81.0403 172.064C63.1324 147.402 68.5223 112.944 93.1908 95.0365C117.859 77.1286 152.317 82.5745 170.231 107.187C161.171 98.0212 148.809 92.837 135.929 92.8931C109.429 92.9429 88.0128 114.521 88.0627 141.015C88.1125 167.509 109.69 188.925 136.191 188.875C145.201 188.925 154.049 186.364 161.588 181.442C160.492 182.383 159.283 183.33 158.08 184.215ZM138.496 112.583C124.358 106.14 107.647 112.371 101.21 126.509C105.192 112.895 117.654 103.523 131.848 103.573C149.394 103.729 163.582 117.923 163.794 135.463C163.9 153.215 149.656 167.721 131.898 167.827C127.605 167.877 123.411 167.042 119.486 165.366C121.897 165.939 124.358 166.257 126.819 166.307C137.817 166.307 147.874 159.92 152.429 149.863C158.872 135.725 152.641 119.02 138.496 112.577V112.583ZM137.499 184.009C113.616 184.009 94.2937 164.687 94.2937 140.809V138.56C95.6582 150.76 102.724 161.652 113.354 167.833C131.891 178.619 155.719 172.388 166.561 153.801C177.347 135.264 171.116 111.436 152.522 100.601C169.277 106.938 180.437 122.908 180.699 140.816C180.699 164.693 161.377 184.015 137.493 184.015L137.499 184.009Z" fill="#232530"/>
</g>
<defs>
<clipPath id="clip0_749_2998">
<rect width="250" height="155.862" fill="white" transform="translate(0 47.0703)"/>
</clipPath>
</defs>
</svg>
