<svg width="845" height="800" viewBox="0 0 845 800" fill="none" xmlns="http://www.w3.org/2000/svg">
<path d="M171.226 10.1875H671.666C712.239 10.1875 745.181 43.0807 745.181 83.6166V583.497C745.181 624.033 712.253 656.926 671.666 656.926H171.226C130.652 656.926 97.7104 624.033 97.7104 583.497V83.6166C97.7104 43.0807 130.639 10.1875 171.226 10.1875Z" fill="#343433"/>
<path d="M673.165 19.2957C708.291 19.2957 737.012 47.9896 737.012 83.0703V582.95C737.012 618.044 708.291 646.725 673.165 646.725H172.739C137.613 646.725 108.891 618.031 108.891 582.95V83.0838C108.891 47.9896 137.613 19.3092 172.739 19.3092H673.178L673.165 19.2957ZM673.165 0H172.739C126.893 0 89.5684 37.2817 89.5684 83.0838V582.964C89.5684 628.766 126.893 666.047 172.739 666.047H673.178C719.024 666.047 756.349 628.766 756.349 582.964V83.0838C756.349 37.2952 719.024 0 673.178 0H673.165Z" fill="white"/>
<path fill-rule="evenodd" clip-rule="evenodd" d="M590.666 267.891C583.195 209.896 534.019 164.891 473.852 164.891C424.931 164.891 382.861 194.638 364.94 237.091C356.593 234.377 347.815 232.527 338.592 232.527C297.667 232.527 263.499 261.653 255.772 300.258C255.246 300.258 254.626 300.082 254.019 300.082C198.073 300.177 152.672 345.439 152.672 401.328C152.766 457.216 198.073 502.654 254.019 502.654H575.469C640.813 502.654 693.685 449.749 693.685 384.476C693.685 324.469 648.715 275.345 590.666 267.878V267.891Z" fill="url(#paint0_linear_751_3332)"/>
<path d="M447.395 472.205C390.047 472.313 343.351 425.903 343.243 368.489C343.135 311.074 389.48 264.313 446.829 264.205C474.714 264.097 501.453 275.332 521.059 295.181C482.305 241.844 407.724 230.043 354.34 268.85C300.956 307.658 289.293 382.329 328.046 435.774C366.813 489.219 441.381 500.912 494.765 462.105C497.367 460.174 499.983 458.135 502.356 456.096C486.041 466.763 466.88 472.327 447.395 472.205Z" fill="white"/>
<path d="M482.751 280.881C522.988 304.376 536.472 355.998 513.118 396.169C489.655 436.448 438.092 449.951 397.976 426.578C374.972 413.183 359.668 389.58 356.728 363.141V368.015C356.728 419.759 398.543 461.631 450.227 461.631C501.912 461.631 543.727 419.759 543.727 368.015C543.161 329.208 519.024 294.6 482.751 280.867V280.881Z" fill="white"/>
<path d="M437.983 287.352C407.266 287.244 380.298 307.552 371.682 337.056C385.624 306.418 421.775 292.915 452.371 306.877C482.967 320.839 496.451 357.041 482.522 387.679C472.665 409.473 450.901 423.313 427.102 423.313C421.775 423.205 416.449 422.517 411.231 421.274C419.726 424.907 428.801 426.716 438.091 426.608C476.508 426.379 507.333 394.944 507.117 356.474C506.658 318.463 475.955 287.703 437.983 287.365V287.352Z" fill="white"/>
<path d="M0 687.328C0 665.237 17.9086 647.328 40 647.328H804.784C826.875 647.328 844.784 665.237 844.784 687.328V760C844.784 782.091 826.875 800 804.784 800H40C17.9087 800 0 782.091 0 760V687.328Z" fill="white"/>
<path d="M113.759 675.203V694.702H73.0391V715.777H103.506V734.707H73.0391V775.134H48.6982V675.203H113.759Z" fill="#343433"/>
<path d="M147.996 769.601C140.164 765.23 133.957 759.136 129.342 751.304C124.744 743.472 122.437 734.665 122.437 724.9C122.437 715.134 124.744 706.343 129.342 698.56C133.941 690.777 140.164 684.7 147.996 680.345C155.828 675.974 164.44 673.797 173.832 673.797C183.224 673.797 191.836 675.974 199.668 680.345C207.5 684.716 213.674 690.793 218.175 698.56C222.676 706.343 224.935 715.118 224.935 724.9C224.935 734.682 222.66 743.472 218.094 751.304C213.528 759.136 207.37 765.23 199.586 769.601C191.803 773.972 183.208 776.149 173.816 776.149C164.424 776.149 155.812 773.972 147.98 769.601H147.996ZM192.989 745.958C197.783 740.645 200.171 733.625 200.171 724.884C200.171 716.142 197.767 709.008 192.989 703.744C188.196 698.479 181.81 695.847 173.832 695.847C165.854 695.847 159.338 698.463 154.544 703.679C149.751 708.895 147.362 715.979 147.362 724.884C147.362 733.788 149.751 740.759 154.544 746.023C159.338 751.288 165.772 753.92 173.832 753.92C181.891 753.92 188.18 751.272 192.989 745.942V745.958Z" fill="#343433"/>
<path d="M289.443 775.134L268.661 737.404H262.827V775.134H238.486V675.203H279.352C287.233 675.203 293.944 676.584 299.501 679.33C305.058 682.093 309.202 685.862 311.964 690.656C314.71 695.449 316.091 700.795 316.091 706.677C316.091 713.323 314.223 719.254 310.469 724.47C306.716 729.686 301.191 733.391 293.879 735.568L316.936 775.15H289.459L289.443 775.134ZM262.811 720.18H277.906C282.375 720.18 285.706 719.091 287.948 716.914C290.174 714.737 291.295 711.649 291.295 707.652C291.295 703.655 290.174 700.86 287.948 698.683C285.722 696.505 282.375 695.401 277.906 695.401H262.811V720.18Z" fill="#343433"/>
<path d="M397.644 706.811C395.84 703.497 393.257 700.945 389.877 699.191C386.514 697.436 382.549 696.558 377.983 696.558C370.102 696.558 363.798 699.142 359.053 704.325C354.308 709.492 351.936 716.398 351.936 725.043C351.936 734.256 354.422 741.438 359.41 746.605C364.399 751.772 371.256 754.372 379.982 754.372C385.961 754.372 391.015 752.861 395.142 749.822C399.269 746.784 402.275 742.413 404.176 736.726H373.287V718.787H426.242V741.422C424.439 747.499 421.384 753.137 417.062 758.369C412.739 763.585 407.263 767.81 400.618 771.043C393.972 774.277 386.481 775.886 378.129 775.886C368.25 775.886 359.459 773.724 351.725 769.402C343.99 765.08 337.962 759.084 333.64 751.398C329.317 743.713 327.156 734.938 327.156 725.059C327.156 715.179 329.317 706.389 333.64 698.654C337.962 690.92 343.958 684.891 351.643 680.569C359.329 676.247 368.104 674.086 377.983 674.086C389.942 674.086 400.033 676.978 408.238 682.763C416.444 688.547 421.888 696.574 424.536 706.828H397.628L397.644 706.811Z" fill="#343433"/>
<path d="M464.118 694.702V714.916H496.714V733.716H464.118V755.635H500.987V775.134H439.777V675.203H500.987V694.702H464.118Z" fill="#343433"/>
<path d="M591.25 732.497C594.759 737.014 596.514 742.149 596.514 747.95C596.514 756.302 593.589 762.915 587.756 767.806C581.923 772.697 573.782 775.134 563.334 775.134H516.781V675.203H561.774C571.93 675.203 579.875 677.527 585.627 682.174C591.363 686.821 594.239 693.142 594.239 701.104C594.239 706.986 592.696 711.877 589.608 715.76C586.521 719.66 582.426 722.358 577.292 723.869C583.076 725.104 587.724 727.98 591.25 732.481V732.497ZM541.138 715.63H557.078C561.059 715.63 564.13 714.753 566.259 712.998C568.387 711.243 569.46 708.66 569.46 705.231C569.46 701.803 568.387 699.203 566.259 697.399C564.13 695.596 561.059 694.702 557.078 694.702H541.138V715.63ZM568.55 752.711C570.776 750.858 571.897 748.177 571.897 744.667C571.897 741.158 570.727 738.395 568.404 736.413C566.08 734.414 562.879 733.423 558.8 733.423H541.154V755.489H559.093C563.171 755.489 566.324 754.563 568.566 752.711H568.55Z" fill="#343433"/>
<path d="M770.749 775.134L750.389 744.521L732.45 775.134H704.827L736.853 724.307L704.112 675.203H732.45L752.517 705.394L770.164 675.203H797.787L766.036 725.607L799.071 775.15H770.732L770.749 775.134Z" fill="#343433"/>
<path d="M666.269 772.177C641.706 772.223 621.706 752.346 621.66 727.755C621.614 703.164 641.464 683.136 666.026 683.09C677.97 683.044 689.422 687.855 697.819 696.357C681.221 673.513 649.278 668.458 626.413 685.079C603.549 701.701 598.553 733.683 615.151 756.573C631.755 779.464 663.693 784.472 686.557 767.851C687.672 767.024 688.793 766.151 689.809 765.277C682.821 769.846 674.614 772.229 666.269 772.177Z" fill="#343433"/>
<path d="M681.413 690.24C698.646 700.303 704.422 722.413 694.419 739.619C684.37 756.87 662.285 762.654 645.103 752.643C635.251 746.906 628.696 736.796 627.437 725.472V727.56C627.437 749.722 645.346 767.656 667.483 767.656C689.619 767.656 707.529 749.722 707.529 727.56C707.286 710.939 696.948 696.116 681.413 690.234V690.24Z" fill="#343433"/>
<path d="M662.238 693.008C649.082 692.962 637.531 701.66 633.841 714.297C639.813 701.174 655.296 695.391 668.4 701.371C681.505 707.351 687.28 722.856 681.314 735.978C677.092 745.313 667.771 751.241 657.577 751.241C655.296 751.194 653.015 750.899 650.78 750.367C654.418 751.923 658.305 752.698 662.284 752.652C678.738 752.554 691.941 739.09 691.848 722.613C691.652 706.333 678.501 693.158 662.238 693.014V693.008Z" fill="#343433"/>
<defs>
<linearGradient id="paint0_linear_751_3332" x1="581.815" y1="244.359" x2="408.407" y2="570.953" gradientUnits="userSpaceOnUse">
<stop offset="0.278846" stop-color="#33CFFF"/>
<stop offset="1" stop-color="#0D87C5"/>
</linearGradient>
</defs>
</svg>
