<svg width="845" height="800" viewBox="0 0 845 800" fill="none" xmlns="http://www.w3.org/2000/svg">
<path d="M171.225 10.1875H671.665C712.239 10.1875 745.18 43.0807 745.18 83.6167V583.497C745.18 624.033 712.252 656.926 671.665 656.926H171.225C130.651 656.926 97.7095 624.033 97.7095 583.497V83.6167C97.7095 43.0807 130.638 10.1875 171.225 10.1875Z" fill="#343433"/>
<path d="M673.164 19.2957C708.29 19.2957 737.011 47.9896 737.011 83.0703V582.95C737.011 618.044 708.29 646.725 673.164 646.725H172.738C137.612 646.725 108.89 618.031 108.89 582.95V83.0838C108.89 47.9896 137.612 19.3092 172.738 19.3092H673.177L673.164 19.2957ZM673.164 0H172.738C126.892 0 89.5674 37.2817 89.5674 83.0838V582.964C89.5674 628.766 126.892 666.048 172.738 666.048H673.177C719.023 666.048 756.348 628.766 756.348 582.964V83.0838C756.348 37.2952 719.023 0 673.177 0H673.164Z" fill="white"/>
<path fill-rule="evenodd" clip-rule="evenodd" d="M590.666 267.891C583.195 209.896 534.019 164.891 473.852 164.891C424.931 164.891 382.861 194.638 364.94 237.091C356.593 234.377 347.815 232.527 338.592 232.527C297.667 232.527 263.499 261.653 255.772 300.258C255.246 300.258 254.626 300.082 254.019 300.082C198.073 300.177 152.672 345.439 152.672 401.328C152.766 457.216 198.073 502.654 254.019 502.654H575.469C640.813 502.654 693.685 449.749 693.685 384.476C693.685 324.469 648.715 275.345 590.666 267.878V267.891Z" fill="url(#paint0_linear_749_2895)"/>
<path d="M447.394 472.205C390.046 472.313 343.35 425.903 343.242 368.489C343.134 311.074 389.479 264.313 446.828 264.205C474.713 264.097 501.452 275.332 521.058 295.181C482.304 241.844 407.723 230.043 354.339 268.85C300.955 307.658 289.292 382.329 328.045 435.774C366.812 489.219 441.38 500.912 494.764 462.105C497.366 460.174 499.982 458.135 502.355 456.096C486.04 466.763 466.879 472.327 447.394 472.205Z" fill="white"/>
<path d="M482.75 280.881C522.987 304.376 536.471 355.998 513.117 396.169C489.654 436.448 438.091 449.951 397.975 426.578C374.971 413.183 359.667 389.58 356.727 363.141V368.015C356.727 419.759 398.542 461.631 450.226 461.631C501.911 461.631 543.726 419.759 543.726 368.015C543.16 329.208 519.023 294.6 482.75 280.867V280.881Z" fill="white"/>
<path d="M437.983 287.352C407.266 287.244 380.298 307.552 371.682 337.056C385.624 306.418 421.775 292.915 452.371 306.877C482.967 320.839 496.451 357.041 482.522 387.679C472.665 409.473 450.901 423.313 427.102 423.313C421.775 423.205 416.449 422.517 411.231 421.274C419.726 424.907 428.801 426.716 438.091 426.608C476.508 426.379 507.333 394.944 507.117 356.474C506.658 318.463 475.955 287.703 437.983 287.365V287.352Z" fill="white"/>
<path d="M0 687.328C0 665.237 17.9086 647.328 40 647.328H804.784C826.875 647.328 844.784 665.237 844.784 687.328V760C844.784 782.091 826.875 800 804.784 800H40C17.9087 800 0 782.091 0 760V687.328Z" fill="white"/>
<path d="M105.772 675.203V694.702H65.0523V715.777H95.5191V734.707H65.0523V775.134H40.7114V675.203H105.772Z" fill="#343433"/>
<path d="M140.009 769.601C132.177 765.23 125.97 759.136 121.356 751.304C116.757 743.472 114.45 734.665 114.45 724.9C114.45 715.134 116.757 706.343 121.356 698.56C125.954 690.777 132.177 684.7 140.009 680.345C147.841 675.974 156.453 673.797 165.845 673.797C175.237 673.797 183.849 675.974 191.681 680.345C199.513 684.716 205.687 690.793 210.188 698.56C214.689 706.343 216.948 715.118 216.948 724.9C216.948 734.682 214.673 743.472 210.107 751.304C205.541 759.136 199.383 765.23 191.6 769.601C183.816 773.972 175.221 776.149 165.829 776.149C156.437 776.149 147.825 773.972 139.993 769.601H140.009ZM185.003 745.958C189.796 740.645 192.185 733.625 192.185 724.884C192.185 716.142 189.78 709.008 185.003 703.744C180.209 698.479 173.823 695.847 165.845 695.847C157.867 695.847 151.351 698.463 146.558 703.679C141.764 708.895 139.376 715.979 139.376 724.884C139.376 733.788 141.764 740.759 146.558 746.023C151.351 751.288 157.786 753.92 165.845 753.92C173.905 753.92 180.193 751.272 185.003 745.942V745.958Z" fill="#343433"/>
<path d="M281.456 775.134L260.674 737.404H254.84V775.134H230.5V675.203H271.366C279.246 675.203 285.957 676.584 291.514 679.33C297.071 682.093 301.215 685.862 303.977 690.656C306.723 695.449 308.104 700.795 308.104 706.677C308.104 713.323 306.236 719.254 302.482 724.47C298.729 729.686 293.204 733.391 285.892 735.568L308.949 775.15H281.472L281.456 775.134ZM254.824 720.18H269.919C274.388 720.18 277.719 719.091 279.961 716.914C282.187 714.737 283.309 711.649 283.309 707.652C283.309 703.655 282.187 700.86 279.961 698.683C277.735 696.505 274.388 695.401 269.919 695.401H254.824V720.18Z" fill="#343433"/>
<path d="M389.658 706.811C387.854 703.497 385.271 700.945 381.891 699.191C378.527 697.436 374.563 696.558 369.997 696.558C362.116 696.558 355.811 699.142 351.067 704.325C346.322 709.492 343.95 716.398 343.95 725.043C343.95 734.256 346.436 741.438 351.424 746.605C356.412 751.772 363.27 754.372 371.995 754.372C377.975 754.372 383.028 752.861 387.155 749.822C391.283 746.784 394.289 742.413 396.19 736.726H365.301V718.787H418.256V741.422C416.452 747.499 413.397 753.137 409.075 758.369C404.753 763.585 399.277 767.81 392.631 771.043C385.986 774.277 378.495 775.886 370.143 775.886C360.263 775.886 351.473 773.724 343.738 769.402C336.004 765.08 329.975 759.084 325.653 751.398C321.331 743.713 319.17 734.938 319.17 725.059C319.17 715.179 321.331 706.389 325.653 698.654C329.975 690.92 335.971 684.891 343.657 680.569C351.343 676.247 360.117 674.086 369.997 674.086C381.956 674.086 392.046 676.978 400.252 682.763C408.458 688.547 413.901 696.574 416.55 706.828H389.642L389.658 706.811Z" fill="#343433"/>
<path d="M456.132 694.702V714.916H488.727V733.716H456.132V755.635H493.001V775.134H431.791V675.203H493.001V694.702H456.132Z" fill="#343433"/>
<path d="M583.264 732.497C586.774 737.014 588.528 742.149 588.528 747.95C588.528 756.302 585.604 762.915 579.77 767.806C573.937 772.697 565.796 775.134 555.348 775.134H508.795V675.203H553.788C563.944 675.203 571.89 677.527 577.642 682.174C583.378 686.821 586.254 693.142 586.254 701.104C586.254 706.986 584.71 711.877 581.623 715.76C578.535 719.66 574.441 722.358 569.306 723.869C575.091 725.104 579.738 727.98 583.264 732.481V732.497ZM533.152 715.63H549.092C553.073 715.63 556.144 714.753 558.273 712.998C560.402 711.243 561.474 708.66 561.474 705.231C561.474 701.803 560.402 699.203 558.273 697.399C556.144 695.596 553.073 694.702 549.092 694.702H533.152V715.63ZM560.564 752.711C562.79 750.858 563.911 748.177 563.911 744.667C563.911 741.158 562.741 738.395 560.418 736.413C558.094 734.414 554.893 733.423 550.815 733.423H533.168V755.489H551.107C555.186 755.489 558.338 754.563 560.58 752.711H560.564Z" fill="#343433"/>
<path d="M624.049 769.601C616.217 765.23 610.01 759.136 605.395 751.304C600.797 743.472 598.489 734.665 598.489 724.9C598.489 715.134 600.797 706.343 605.395 698.56C609.994 690.777 616.217 684.7 624.049 680.345C631.881 675.974 640.493 673.797 649.885 673.797C659.277 673.797 667.888 675.974 675.72 680.345C683.552 684.716 689.727 690.793 694.228 698.56C698.729 706.343 700.988 715.118 700.988 724.9C700.988 734.682 698.713 743.472 694.147 751.304C689.581 759.136 683.422 765.23 675.639 769.601C667.856 773.972 659.26 776.149 649.868 776.149C640.477 776.149 631.865 773.972 624.033 769.601H624.049ZM669.042 745.958C673.836 740.645 676.224 733.625 676.224 724.884C676.224 716.142 673.819 709.008 669.042 703.744C664.249 698.479 657.863 695.847 649.885 695.847C641.906 695.847 635.391 698.463 630.597 703.679C625.804 708.895 623.415 715.979 623.415 724.884C623.415 733.788 625.804 740.759 630.597 746.023C635.391 751.288 641.825 753.92 649.885 753.92C657.944 753.92 664.232 751.272 669.042 745.942V745.958Z" fill="#343433"/>
<path d="M775.748 775.134L755.388 744.521L737.449 775.134H709.826L741.853 724.307L709.111 675.203H737.449L757.517 705.394L775.163 675.203H802.786L771.036 725.607L804.07 775.15H775.732L775.748 775.134Z" fill="#343433"/>
<defs>
<linearGradient id="paint0_linear_749_2895" x1="581.815" y1="244.359" x2="408.407" y2="570.953" gradientUnits="userSpaceOnUse">
<stop offset="0.278846" stop-color="#33CFFF"/>
<stop offset="1" stop-color="#0D87C5"/>
</linearGradient>
</defs>
</svg>
