<svg width="500" height="500" viewBox="0 0 500 500" fill="none" xmlns="http://www.w3.org/2000/svg">
<path fill-rule="evenodd" clip-rule="evenodd" d="M404.79 189.114C397.886 135.516 352.438 93.9219 296.832 93.9219C251.62 93.9219 212.739 121.414 196.177 160.649C188.463 158.141 180.35 156.431 171.826 156.431C134.004 156.431 102.425 183.349 95.2844 219.027C94.7984 219.027 94.2251 218.865 93.6643 218.865C41.9595 218.952 0 260.783 0 312.435C0.0872339 364.087 41.9595 406.08 93.6643 406.08H390.746C451.137 406.08 500 357.186 500 296.861C500 241.403 458.439 196.003 404.79 189.102V189.114Z" fill="url(#paint0_linear_749_2940)"/>
<path d="M272.38 377.939C219.379 378.039 176.223 335.148 176.123 282.085C176.023 229.023 218.855 185.807 271.856 185.708C297.628 185.608 322.34 195.99 340.459 214.335C304.644 165.042 235.716 154.135 186.379 190C137.042 225.866 126.263 294.877 162.079 344.27C197.907 393.663 266.822 404.47 316.159 368.605C318.564 366.82 320.981 364.936 323.175 363.051C308.096 372.91 290.387 378.052 272.38 377.939Z" fill="white"/>
<path d="M305.056 201.118C342.242 222.832 354.704 270.541 333.12 307.667C311.436 344.892 263.782 357.372 226.707 335.77C205.447 323.39 191.303 301.577 188.586 277.142V281.647C188.586 329.468 227.231 368.166 274.997 368.166C322.764 368.166 361.409 329.468 361.409 281.647C360.886 245.781 338.579 213.797 305.056 201.105V201.118Z" fill="white"/>
<path d="M263.683 207.098C235.294 206.998 210.37 225.767 202.407 253.034C215.293 224.719 248.703 212.24 276.98 225.143C305.256 238.047 317.718 271.504 304.845 299.82C295.735 319.961 275.621 332.753 253.626 332.753C248.703 332.653 243.781 332.016 238.958 330.868C246.809 334.225 255.196 335.897 263.782 335.797C299.287 335.585 327.775 306.533 327.575 270.98C327.152 235.85 298.776 207.423 263.683 207.111V207.098Z" fill="white"/>
<defs>
<linearGradient id="paint0_linear_749_2940" x1="396.611" y1="167.366" x2="236.348" y2="469.201" gradientUnits="userSpaceOnUse">
<stop offset="0.278846" stop-color="#33CFFF"/>
<stop offset="1" stop-color="#0D87C5"/>
</linearGradient>
</defs>
</svg>
