<svg width="159" height="150" viewBox="0 0 159 150" fill="none" xmlns="http://www.w3.org/2000/svg">
<path d="M32.1048 1.91016H125.937C133.545 1.91016 139.721 8.07764 139.721 15.6781V109.406C139.721 117.006 133.547 123.174 125.937 123.174H32.1048C24.4972 123.174 18.3206 117.006 18.3206 109.406V15.6781C18.3206 8.07764 24.4946 1.91016 32.1048 1.91016Z" fill="#343433"/>
<path d="M126.218 3.61795C132.804 3.61795 138.19 8.99804 138.19 15.5757V109.303C138.19 115.883 132.804 121.261 126.218 121.261H32.3884C25.8022 121.261 20.417 115.881 20.417 109.303V15.5782C20.417 8.99804 25.8022 3.62048 32.3884 3.62048H126.221L126.218 3.61795ZM126.218 0H32.3884C23.7922 0 16.7939 6.99032 16.7939 15.5782V109.306C16.7939 117.894 23.7922 124.884 32.3884 124.884H126.221C134.817 124.884 141.815 117.894 141.815 109.306V15.5782C141.815 6.99285 134.817 0 126.221 0H126.218Z" fill="white"/>
<path fill-rule="evenodd" clip-rule="evenodd" d="M110.75 50.2306C109.349 39.3565 100.128 30.918 88.8473 30.918C79.6746 30.918 71.7864 36.4955 68.4263 44.4555C66.8613 43.9467 65.2154 43.5998 63.486 43.5998C55.8127 43.5998 49.406 49.0609 47.9573 56.2993C47.8587 56.2993 47.7424 56.2664 47.6286 56.2664C37.1387 56.2841 28.626 64.7708 28.626 75.2499C28.6437 85.7291 37.1387 94.2486 47.6286 94.2486H107.9C120.153 94.2486 130.066 84.329 130.066 72.0902C130.066 60.8389 121.634 51.6282 110.75 50.2281V50.2306Z" fill="url(#paint0_linear_749_2914)"/>
<path d="M83.8864 88.5399C73.1336 88.5602 64.3781 79.8584 64.3579 69.0931C64.3377 58.3279 73.0274 49.5602 83.7802 49.54C89.0087 49.5197 94.0223 51.6262 97.6984 55.3479C90.4321 45.3473 76.4482 43.1345 66.4387 50.4109C56.4292 57.6873 54.2422 71.6882 61.5085 81.7091C68.7773 91.73 82.7588 93.9226 92.7683 86.6461C93.2562 86.2841 93.7467 85.9018 94.1917 85.5195C91.1325 87.5196 87.5398 88.5627 83.8864 88.5399Z" fill="white"/>
<path d="M90.5157 52.6666C98.0601 57.0719 100.588 66.751 96.2094 74.2832C91.8102 81.8355 82.142 84.3674 74.6204 79.9848C70.3071 77.4732 67.4375 73.0476 66.8864 68.0904V69.0043C66.8864 78.7062 74.7266 86.5574 84.4175 86.5574C94.1084 86.5574 101.949 78.7062 101.949 69.0043C101.842 61.7279 97.3168 55.2389 90.5157 52.6641V52.6666Z" fill="white"/>
<path d="M82.1219 53.879C76.3625 53.8587 71.3059 57.6666 69.6903 63.1986C72.3046 57.4539 79.0829 54.9221 84.8196 57.54C90.5563 60.1579 93.0846 66.9456 90.4728 72.6903C88.6247 76.7767 84.544 79.3718 80.0816 79.3718C79.0829 79.3515 78.0842 79.2224 77.1058 78.9895C78.6986 79.6705 80.4001 80.0098 82.1421 79.9895C89.3452 79.9465 95.1249 74.0524 95.0844 66.8393C94.9985 59.7123 89.2416 53.9448 82.1219 53.8815V53.879Z" fill="white"/>
<path d="M0 128.875C0 124.733 3.35786 121.375 7.5 121.375H150.897C155.039 121.375 158.397 124.733 158.397 128.875V142.501C158.397 146.643 155.039 150.001 150.897 150.001H7.50001C3.35787 150.001 0 146.643 0 142.501V128.875Z" fill="white"/>
<path d="M19.8323 126.602V130.258H12.1973V134.209H17.9099V137.758H12.1973V145.339H7.63342V126.602H19.8323Z" fill="#343433"/>
<path d="M26.2518 144.299C24.7833 143.48 23.6194 142.337 22.7542 140.869C21.892 139.4 21.4594 137.749 21.4594 135.918C21.4594 134.087 21.892 132.438 22.7542 130.979C23.6164 129.52 24.7833 128.38 26.2518 127.564C27.7203 126.744 29.335 126.336 31.096 126.336C32.857 126.336 34.4717 126.744 35.9402 127.564C37.4087 128.383 38.5664 129.523 39.4104 130.979C40.2543 132.438 40.6778 134.084 40.6778 135.918C40.6778 137.752 40.2512 139.4 39.3951 140.869C38.539 142.337 37.3843 143.48 35.925 144.299C34.4656 145.119 32.8539 145.527 31.0929 145.527C29.332 145.527 27.7172 145.119 26.2487 144.299H26.2518ZM34.688 139.866C35.5868 138.87 36.0346 137.554 36.0346 135.915C36.0346 134.276 35.5837 132.938 34.688 131.951C33.7892 130.964 32.5919 130.47 31.096 130.47C29.6001 130.47 28.3783 130.961 27.4796 131.939C26.5808 132.917 26.1329 134.245 26.1329 135.915C26.1329 137.584 26.5808 138.891 27.4796 139.878C28.3783 140.866 29.5848 141.359 31.096 141.359C32.6071 141.359 33.7862 140.862 34.688 139.863V139.866Z" fill="#343433"/>
<path d="M52.773 145.339L48.8763 138.264H47.7825V145.339H43.2186V126.602H50.881C52.3587 126.602 53.6169 126.861 54.6589 127.375C55.7009 127.893 56.4778 128.6 56.9957 129.499C57.5106 130.398 57.7695 131.4 57.7695 132.503C57.7695 133.749 57.4192 134.861 56.7154 135.839C56.0116 136.817 54.9757 137.512 53.6047 137.92L57.928 145.342H52.776L52.773 145.339ZM47.7795 135.035H50.6099C51.4477 135.035 52.0723 134.831 52.4927 134.422C52.9101 134.014 53.1203 133.435 53.1203 132.686C53.1203 131.936 52.9101 131.412 52.4927 131.004C52.0753 130.596 51.4477 130.389 50.6099 130.389H47.7795V135.035Z" fill="#343433"/>
<path d="M73.0608 132.527C72.7227 131.905 72.2382 131.427 71.6045 131.098C70.9739 130.769 70.2305 130.604 69.3744 130.604C67.8967 130.604 66.7146 131.089 65.825 132.06C64.9354 133.029 64.4905 134.324 64.4905 135.945C64.4905 137.672 64.9567 139.019 65.892 139.988C66.8273 140.957 68.113 141.444 69.7491 141.444C70.8703 141.444 71.8178 141.161 72.5917 140.591C73.3655 140.021 73.9291 139.202 74.2856 138.136H68.4939V134.772H78.423V139.016C78.0848 140.156 77.512 141.213 76.7016 142.194C75.8912 143.172 74.8645 143.964 73.6184 144.57C72.3723 145.176 70.9678 145.478 69.4018 145.478C67.5494 145.478 65.9012 145.073 64.4509 144.262C63.0007 143.452 61.8704 142.328 61.06 140.887C60.2496 139.446 59.8444 137.8 59.8444 135.948C59.8444 134.096 60.2496 132.447 61.06 130.997C61.8704 129.547 62.9946 128.417 64.4357 127.606C65.8768 126.796 67.522 126.391 69.3744 126.391C71.6167 126.391 73.5087 126.933 75.0473 128.018C76.5858 129.102 77.6065 130.607 78.1031 132.53H73.0578L73.0608 132.527Z" fill="#343433"/>
<path d="M85.5247 130.258V134.048H91.6364V137.573H85.5247V141.683H92.4376V145.339H80.9608V126.602H92.4376V130.258H85.5247Z" fill="#343433"/>
<path d="M109.362 137.344C110.02 138.191 110.349 139.154 110.349 140.242C110.349 141.808 109.801 143.048 108.707 143.965C107.613 144.882 106.087 145.339 104.128 145.339H95.399V126.602H103.835C105.739 126.602 107.229 127.037 108.308 127.909C109.383 128.78 109.923 129.965 109.923 131.458C109.923 132.561 109.633 133.478 109.054 134.206C108.475 134.937 107.708 135.443 106.745 135.726C107.829 135.958 108.701 136.497 109.362 137.341V137.344ZM99.966 134.182H102.955C103.701 134.182 104.277 134.017 104.676 133.688C105.075 133.359 105.276 132.875 105.276 132.232C105.276 131.589 105.075 131.102 104.676 130.763C104.277 130.425 103.701 130.258 102.955 130.258H99.966V134.182ZM105.106 141.134C105.523 140.787 105.733 140.284 105.733 139.626C105.733 138.968 105.514 138.45 105.078 138.078C104.643 137.704 104.042 137.518 103.278 137.518H99.9691V141.655H103.333C104.097 141.655 104.688 141.482 105.109 141.134H105.106Z" fill="#343433"/>
<path d="M117.009 144.299C115.541 143.48 114.377 142.337 113.512 140.869C112.649 139.4 112.217 137.749 112.217 135.918C112.217 134.087 112.649 132.438 113.512 130.979C114.374 129.52 115.541 128.38 117.009 127.564C118.478 126.744 120.092 126.336 121.853 126.336C123.614 126.336 125.229 126.744 126.698 127.564C128.166 128.383 129.324 129.523 130.168 130.979C131.012 132.438 131.435 134.084 131.435 135.918C131.435 137.752 131.009 139.4 130.153 140.869C129.296 142.337 128.142 143.48 126.682 144.299C125.223 145.119 123.611 145.527 121.85 145.527C120.089 145.527 118.475 145.119 117.006 144.299H117.009ZM125.445 139.866C126.344 138.87 126.792 137.554 126.792 135.915C126.792 134.276 126.341 132.938 125.445 131.951C124.547 130.964 123.349 130.47 121.853 130.47C120.358 130.47 119.136 130.961 118.237 131.939C117.338 132.917 116.89 134.245 116.89 135.915C116.89 137.584 117.338 138.891 118.237 139.878C119.136 140.866 120.342 141.359 121.853 141.359C123.365 141.359 124.544 140.862 125.445 139.863V139.866Z" fill="#343433"/>
<path d="M145.453 145.339L141.635 139.599L138.272 145.339H133.092L139.097 135.809L132.958 126.602H138.272L142.034 132.262L145.343 126.602H150.522L144.569 136.052L150.763 145.342H145.45L145.453 145.339Z" fill="#343433"/>
<defs>
<linearGradient id="paint0_linear_749_2914" x1="109.09" y1="45.8183" x2="76.5763" y2="107.055" gradientUnits="userSpaceOnUse">
<stop offset="0.278846" stop-color="#33CFFF"/>
<stop offset="1" stop-color="#0D87C5"/>
</linearGradient>
</defs>
</svg>
