<svg width="423" height="400" viewBox="0 0 423 400" fill="none" xmlns="http://www.w3.org/2000/svg">
<path d="M85.6132 5.09375H335.833C356.12 5.09375 372.591 21.5404 372.591 41.8083V291.748C372.591 312.016 356.126 328.463 335.833 328.463H85.6132C65.3262 328.463 48.8552 312.016 48.8552 291.748V41.8083C48.8552 21.5404 65.3194 5.09375 85.6132 5.09375Z" fill="#343433"/>
<path d="M336.582 9.64787C354.145 9.64787 368.506 23.9948 368.506 41.5351V291.475C368.506 309.022 354.145 323.362 336.582 323.362H86.3695C68.8063 323.362 54.4456 309.015 54.4456 291.475V41.5419C54.4456 23.9948 68.8063 9.65462 86.3695 9.65462H336.589L336.582 9.64787ZM336.582 0H86.3695C63.4463 0 44.7842 18.6408 44.7842 41.5419V291.482C44.7842 314.383 63.4463 333.024 86.3695 333.024H336.589C359.512 333.024 378.174 314.383 378.174 291.482V41.5419C378.174 18.6476 359.512 0 336.589 0H336.582Z" fill="white"/>
<path fill-rule="evenodd" clip-rule="evenodd" d="M295.333 133.946C291.598 104.948 267.009 82.4453 236.926 82.4453C212.466 82.4453 191.43 97.3188 182.47 118.545C178.297 117.188 173.908 116.263 169.296 116.263C148.834 116.263 131.749 130.826 127.886 150.129C127.623 150.129 127.313 150.041 127.01 150.041C99.0366 150.088 76.3359 172.719 76.3359 200.664C76.3831 228.608 99.0366 251.327 127.01 251.327H287.734C320.407 251.327 346.842 224.875 346.842 192.238C346.842 162.234 324.358 137.672 295.333 133.939V133.946Z" fill="url(#paint0_linear_751_3239)"/>
<path d="M223.697 236.103C195.023 236.157 171.675 212.952 171.621 184.244C171.568 155.537 194.74 132.157 223.414 132.103C237.357 132.049 250.726 137.666 260.53 147.591C241.153 120.922 203.862 115.021 177.17 134.425C150.478 153.829 144.646 191.165 164.023 217.887C183.407 244.609 220.69 250.456 247.382 231.052C248.684 230.087 249.992 229.068 251.178 228.048C243.02 233.382 233.44 236.163 223.697 236.103Z" fill="white"/>
<path d="M241.376 140.44C261.494 152.188 268.236 177.999 256.559 198.085C244.828 218.224 219.046 224.976 198.988 213.289C187.486 206.591 179.834 194.79 178.364 181.57V184.008C178.364 209.879 199.271 230.816 225.114 230.816C250.956 230.816 271.863 209.879 271.863 184.008C271.58 164.604 259.512 147.3 241.376 140.434V140.44Z" fill="white"/>
<path d="M218.992 143.676C203.633 143.622 190.149 153.776 185.841 168.528C192.812 153.209 210.888 146.458 226.186 153.439C241.483 160.42 248.225 178.52 241.261 193.84C236.332 204.736 225.451 211.657 213.551 211.657C210.888 211.603 208.225 211.258 205.615 210.637C209.863 212.453 214.4 213.358 219.046 213.304C238.254 213.189 253.666 197.472 253.558 178.237C253.329 159.231 237.977 143.852 218.992 143.683V143.676Z" fill="white"/>
<path d="M0 343.664C0 332.618 8.95431 323.664 20 323.664H402.392C413.438 323.664 422.392 332.618 422.392 343.664V380C422.392 391.046 413.438 400 402.392 400H20C8.95433 400 0 391.046 0 380V343.664Z" fill="white"/>
<path d="M56.8795 337.602V347.351H36.5196V357.888H51.7529V367.353H36.5196V387.567H24.3491V337.602H56.8795Z" fill="#343433"/>
<path d="M73.998 384.8C70.0821 382.615 66.9785 379.568 64.6712 375.652C62.3719 371.736 61.2183 367.333 61.2183 362.45C61.2183 357.567 62.3719 353.172 64.6712 349.28C66.9704 345.389 70.0821 342.35 73.998 340.173C77.914 337.987 82.22 336.898 86.9159 336.898C91.6119 336.898 95.9179 337.987 99.8339 340.173C103.75 342.358 106.837 345.397 109.088 349.28C111.338 353.172 112.467 357.559 112.467 362.45C112.467 367.341 111.33 371.736 109.047 375.652C106.764 379.568 103.685 382.615 99.7932 384.8C95.9016 386.986 91.6038 388.074 86.9078 388.074C82.2119 388.074 77.9059 386.986 73.9899 384.8H73.998ZM96.4947 372.979C98.8914 370.322 100.086 366.813 100.086 362.442C100.086 358.071 98.8833 354.504 96.4947 351.872C94.098 349.24 90.9051 347.923 86.9159 347.923C82.9268 347.923 79.6689 349.231 77.2722 351.839C74.8755 354.447 73.6812 357.99 73.6812 362.442C73.6812 366.894 74.8755 370.379 77.2722 373.012C79.6689 375.644 82.8862 376.96 86.9159 376.96C90.9457 376.96 94.0899 375.636 96.4947 372.971V372.979Z" fill="#343433"/>
<path d="M144.721 387.567L134.33 368.702H131.414V387.567H119.243V337.602H139.676C143.617 337.602 146.972 338.292 149.751 339.665C152.529 341.046 154.601 342.931 155.982 345.328C157.355 347.725 158.046 350.398 158.046 353.339C158.046 356.662 157.111 359.627 155.235 362.235C153.358 364.843 150.595 366.695 146.939 367.784L158.468 387.575H144.73L144.721 387.567ZM131.405 360.09H138.953C141.187 360.09 142.853 359.546 143.974 358.457C145.087 357.368 145.648 355.825 145.648 353.826C145.648 351.828 145.087 350.43 143.974 349.341C142.861 348.253 141.187 347.7 138.953 347.7H131.405V360.09Z" fill="#343433"/>
<path d="M198.822 353.406C197.92 351.748 196.628 350.473 194.939 349.595C193.257 348.718 191.274 348.279 188.991 348.279C185.051 348.279 181.899 349.571 179.526 352.163C177.154 354.746 175.968 358.199 175.968 362.521C175.968 367.128 177.211 370.719 179.705 373.302C182.199 375.886 185.628 377.186 189.991 377.186C192.981 377.186 195.507 376.43 197.571 374.911C199.635 373.392 201.138 371.206 202.088 368.363H186.643V359.393H213.121V370.711C212.219 373.749 210.692 376.568 208.531 379.185C206.37 381.793 203.632 383.905 200.309 385.522C196.986 387.138 193.241 387.943 189.065 387.943C184.125 387.943 179.73 386.862 175.862 384.701C171.995 382.54 168.981 379.542 166.82 375.699C164.659 371.856 163.578 367.469 163.578 362.529C163.578 357.59 164.659 353.194 166.82 349.327C168.981 345.46 171.979 342.446 175.822 340.285C179.665 338.124 184.052 337.043 188.991 337.043C194.971 337.043 200.016 338.489 204.119 341.381C208.222 344.274 210.944 348.287 212.268 353.414H198.814L198.822 353.406Z" fill="#343433"/>
<path d="M232.059 347.351V357.458H248.357V366.858H232.059V377.818H250.494V387.567H219.889V337.602H250.494V347.351H232.059Z" fill="#343433"/>
<path d="M295.625 366.248C297.38 368.507 298.257 371.074 298.257 373.975C298.257 378.151 296.795 381.457 293.878 383.903C290.961 386.348 286.891 387.567 281.667 387.567H258.39V337.602H280.887C285.965 337.602 289.938 338.763 292.814 341.087C295.682 343.411 297.12 346.571 297.12 350.552C297.12 353.493 296.348 355.938 294.804 357.88C293.261 359.83 291.213 361.179 288.646 361.934C291.538 362.552 293.862 363.99 295.625 366.24V366.248ZM270.569 357.815H278.539C280.53 357.815 282.065 357.377 283.129 356.499C284.194 355.622 284.73 354.33 284.73 352.616C284.73 350.901 284.194 349.601 283.129 348.7C282.065 347.798 280.53 347.351 278.539 347.351H270.569V357.815ZM284.275 376.355C285.388 375.429 285.949 374.089 285.949 372.334C285.949 370.579 285.364 369.198 284.202 368.206C283.04 367.207 281.439 366.712 279.4 366.712H270.577V377.745H279.546C281.586 377.745 283.162 377.281 284.283 376.355H284.275Z" fill="#343433"/>
<path d="M385.374 387.567L375.194 372.261L366.225 387.567H352.413L368.427 362.154L352.056 337.602H366.225L376.259 352.697L385.082 337.602H398.893L383.018 362.804L399.535 387.575H385.366L385.374 387.567Z" fill="#343433"/>
<path d="M333.134 386.088C320.853 386.112 310.853 376.173 310.83 363.877C310.807 351.582 320.732 341.568 333.013 341.545C338.985 341.522 344.711 343.928 348.91 348.178C340.611 336.756 324.639 334.229 313.207 342.54C301.774 350.85 299.277 366.841 307.576 378.287C315.878 389.732 331.846 392.236 343.279 383.925C343.836 383.512 344.396 383.075 344.904 382.639C341.41 384.923 337.307 386.114 333.134 386.088Z" fill="#343433"/>
<path d="M340.706 345.12C349.323 350.152 352.211 361.207 347.209 369.809C342.185 378.435 331.142 381.327 322.552 376.321C317.625 373.453 314.348 368.398 313.718 362.736V363.78C313.718 374.861 322.673 383.828 333.741 383.828C344.81 383.828 353.764 374.861 353.764 363.78C353.643 355.469 348.474 348.058 340.706 345.117V345.12Z" fill="#343433"/>
<path d="M331.119 346.504C324.541 346.481 318.766 350.83 316.92 357.148C319.906 350.587 327.648 347.695 334.2 350.685C340.752 353.675 343.64 361.428 340.657 367.989C338.546 372.656 333.885 375.62 328.789 375.62C327.648 375.597 326.507 375.45 325.39 375.184C327.209 375.962 329.153 376.349 331.142 376.326C339.369 376.277 345.97 369.545 345.924 361.307C345.826 353.166 339.251 346.579 331.119 346.507V346.504Z" fill="#343433"/>
<defs>
<linearGradient id="paint0_linear_751_3239" x1="290.908" y1="122.179" x2="204.203" y2="285.476" gradientUnits="userSpaceOnUse">
<stop offset="0.278846" stop-color="#33CFFF"/>
<stop offset="1" stop-color="#0D87C5"/>
</linearGradient>
</defs>
</svg>
