<svg width="75" height="75" viewBox="0 0 75 75" fill="none" xmlns="http://www.w3.org/2000/svg">
<g clip-path="url(#clip0_749_3001)">
<path fill-rule="evenodd" clip-rule="evenodd" d="M60.7186 28.3801C59.683 20.3515 52.8656 14.1211 44.5248 14.1211C37.743 14.1211 31.9108 18.2392 29.4265 24.1162C28.2694 23.7405 27.0525 23.4844 25.7739 23.4844C20.1006 23.4844 15.3638 27.5165 14.2927 32.8608C14.2198 32.8608 14.1338 32.8365 14.0496 32.8365C6.29393 32.8477 0 39.1155 0 46.8525C0.0130851 54.5895 6.29393 60.8797 14.0496 60.8797H58.6119C67.6705 60.8797 75 53.5558 75 44.5196C75 36.2125 68.7659 29.412 60.7186 28.3782V28.3801ZM47.4241 55.2644C40.0236 60.6367 29.6863 59.0198 24.3121 51.6192C18.9397 44.2205 20.5567 33.8833 27.9572 28.511C35.3578 23.1386 45.695 24.7724 51.0692 32.1561C48.3513 29.4063 44.6426 27.8511 40.7787 27.8679C32.8286 27.8829 26.4038 34.3563 26.4188 42.3045C26.4338 50.2528 32.9071 56.6775 40.8573 56.6626C43.5603 56.6775 46.2147 55.9093 48.4765 54.4325C48.1475 54.7148 47.7849 54.9989 47.4241 55.2644ZM41.5489 33.7749C37.3075 31.842 32.294 33.7113 30.363 37.9528C31.5575 33.8684 35.2961 31.0569 39.5544 31.0719C44.8183 31.1186 49.0747 35.3769 49.1383 40.639C49.17 45.9646 44.8968 50.3163 39.5693 50.3481C38.2814 50.3631 37.0233 50.1126 35.8457 49.6097C36.5691 49.7817 37.3075 49.877 38.0458 49.892C41.3451 49.892 44.3622 47.976 45.7287 44.9589C47.6615 40.7175 45.7922 35.7059 41.5489 33.773V33.7749ZM41.2498 55.2027C34.0848 55.2027 28.2881 49.406 28.2881 42.2428V41.568C28.6975 45.2281 30.8173 48.4956 34.0063 50.35C39.5674 53.5857 46.7156 51.7164 49.9682 46.1403C53.204 40.5791 51.3347 33.4309 45.7567 30.1802C50.7832 32.0813 54.1312 36.8723 54.2097 42.2447C54.2097 49.4078 48.413 55.2045 41.2479 55.2045L41.2498 55.2027Z" fill="#232530"/>
</g>
<defs>
<clipPath id="clip0_749_3001">
<rect width="75" height="46.7586" fill="white" transform="translate(0 14.1211)"/>
</clipPath>
</defs>
</svg>
