<svg width="423" height="400" viewBox="0 0 423 400" fill="none" xmlns="http://www.w3.org/2000/svg">
<path d="M85.6127 5.09375H335.832C356.119 5.09375 372.59 21.5404 372.59 41.8083V291.748C372.59 312.016 356.126 328.463 335.832 328.463H85.6127C65.3257 328.463 48.8547 312.016 48.8547 291.748V41.8083C48.8547 21.5404 65.3189 5.09375 85.6127 5.09375Z" fill="#343433"/>
<path d="M336.582 9.64787C354.145 9.64787 368.506 23.9948 368.506 41.5351V291.475C368.506 309.022 354.145 323.362 336.582 323.362H86.369C68.8058 323.362 54.4451 309.015 54.4451 291.475V41.5419C54.4451 23.9948 68.8058 9.65462 86.369 9.65462H336.589L336.582 9.64787ZM336.582 0H86.369C63.4458 0 44.7837 18.6408 44.7837 41.5419V291.482C44.7837 314.383 63.4458 333.024 86.369 333.024H336.589C359.512 333.024 378.174 314.383 378.174 291.482V41.5419C378.174 18.6476 359.512 0 336.589 0H336.582Z" fill="white"/>
<path fill-rule="evenodd" clip-rule="evenodd" d="M295.333 133.946C291.598 104.948 267.009 82.4453 236.926 82.4453C212.466 82.4453 191.43 97.3188 182.47 118.545C178.297 117.188 173.908 116.263 169.296 116.263C148.834 116.263 131.749 130.826 127.886 150.129C127.623 150.129 127.313 150.041 127.01 150.041C99.0366 150.088 76.3359 172.719 76.3359 200.664C76.3831 228.608 99.0366 251.327 127.01 251.327H287.734C320.407 251.327 346.842 224.875 346.842 192.238C346.842 162.234 324.358 137.672 295.333 133.939V133.946Z" fill="url(#paint0_linear_749_2874)"/>
<path d="M223.697 236.103C195.023 236.157 171.675 212.952 171.621 184.244C171.567 155.537 194.74 132.157 223.414 132.103C237.356 132.049 250.726 137.666 260.529 147.591C241.152 120.922 203.862 115.021 177.17 134.425C150.478 153.829 144.646 191.165 164.023 217.887C183.406 244.609 220.69 250.456 247.382 231.052C248.683 230.087 249.991 229.068 251.178 228.048C243.02 233.382 233.439 236.163 223.697 236.103Z" fill="white"/>
<path d="M241.375 140.44C261.494 152.188 268.236 177.999 256.558 198.085C244.827 218.224 219.045 224.976 198.988 213.289C187.486 206.591 179.833 194.79 178.364 181.57V184.008C178.364 209.879 199.271 230.816 225.113 230.816C250.956 230.816 271.863 209.879 271.863 184.008C271.58 164.604 259.511 147.3 241.375 140.434V140.44Z" fill="white"/>
<path d="M218.992 143.676C203.633 143.622 190.149 153.776 185.841 168.528C192.812 153.209 210.888 146.458 226.186 153.439C241.483 160.42 248.225 178.52 241.261 193.84C236.332 204.736 225.451 211.657 213.551 211.657C210.888 211.603 208.225 211.258 205.615 210.637C209.863 212.453 214.4 213.358 219.046 213.304C238.254 213.189 253.666 197.472 253.558 178.237C253.329 159.231 237.977 143.852 218.992 143.683V143.676Z" fill="white"/>
<path d="M0 343.664C0 332.618 8.95431 323.664 20 323.664H402.392C413.438 323.664 422.392 332.618 422.392 343.664V380C422.392 391.046 413.438 400 402.392 400H20C8.95433 400 0 391.046 0 380V343.664Z" fill="white"/>
<path d="M52.8861 337.602V347.351H32.5262V357.888H47.7595V367.353H32.5262V387.567H20.3557V337.602H52.8861Z" fill="#343433"/>
<path d="M70.0046 384.8C66.0886 382.615 62.9851 379.568 60.6778 375.652C58.3785 371.736 57.2249 367.333 57.2249 362.45C57.2249 357.567 58.3785 353.172 60.6778 349.28C62.977 345.389 66.0886 342.35 70.0046 340.173C73.9206 337.987 78.2266 336.898 82.9225 336.898C87.6185 336.898 91.9244 337.987 95.8404 340.173C99.7564 342.358 102.844 345.397 105.094 349.28C107.345 353.172 108.474 357.559 108.474 362.45C108.474 367.341 107.337 371.736 105.054 375.652C102.771 379.568 99.6914 382.615 95.7998 384.8C91.9082 386.986 87.6104 388.074 82.9144 388.074C78.2185 388.074 73.9125 386.986 69.9965 384.8H70.0046ZM92.5013 372.979C94.898 370.322 96.0923 366.813 96.0923 362.442C96.0923 358.071 94.8899 354.504 92.5013 351.872C90.1046 349.24 86.9117 347.923 82.9225 347.923C78.9334 347.923 75.6755 349.231 73.2788 351.839C70.8821 354.447 69.6878 357.99 69.6878 362.442C69.6878 366.894 70.8821 370.379 73.2788 373.012C75.6755 375.644 78.8928 376.96 82.9225 376.96C86.9523 376.96 90.0964 375.636 92.5013 372.971V372.979Z" fill="#343433"/>
<path d="M140.728 387.567L130.337 368.702H127.42V387.567H115.25V337.602H135.683C139.623 337.602 142.979 338.292 145.757 339.665C148.536 341.046 150.607 342.931 151.989 345.328C153.362 347.725 154.052 350.398 154.052 353.339C154.052 356.662 153.118 359.627 151.241 362.235C149.364 364.843 146.602 366.695 142.946 367.784L154.475 387.575H140.736L140.728 387.567ZM127.412 360.09H134.96C137.194 360.09 138.859 359.546 139.981 358.457C141.094 357.368 141.654 355.825 141.654 353.826C141.654 351.828 141.094 350.43 139.981 349.341C138.868 348.253 137.194 347.7 134.96 347.7H127.412V360.09Z" fill="#343433"/>
<path d="M194.829 353.406C193.927 351.748 192.635 350.473 190.945 349.595C189.264 348.718 187.281 348.279 184.998 348.279C181.058 348.279 177.906 349.571 175.533 352.163C173.161 354.746 171.975 358.199 171.975 362.521C171.975 367.128 173.218 370.719 175.712 373.302C178.206 375.886 181.635 377.186 185.998 377.186C188.987 377.186 191.514 376.43 193.578 374.911C195.641 373.392 197.144 371.206 198.095 368.363H182.65V359.393H209.128V370.711C208.226 373.749 206.699 376.569 204.538 379.185C202.377 381.793 199.639 383.905 196.316 385.522C192.993 387.138 189.247 387.943 185.071 387.943C180.132 387.943 175.736 386.862 171.869 384.701C168.002 382.54 164.988 379.542 162.827 375.699C160.666 371.856 159.585 367.469 159.585 362.529C159.585 357.59 160.666 353.194 162.827 349.327C164.988 345.46 167.986 342.446 171.829 340.285C175.671 338.124 180.059 337.043 184.998 337.043C190.978 337.043 196.023 338.489 200.126 341.381C204.229 344.274 206.951 348.287 208.275 353.414H194.821L194.829 353.406Z" fill="#343433"/>
<path d="M228.066 347.351V357.458H244.364V366.858H228.066V377.818H246.5V387.567H215.896V337.602H246.5V347.351H228.066Z" fill="#343433"/>
<path d="M291.632 366.248C293.387 368.507 294.264 371.074 294.264 373.975C294.264 378.151 292.802 381.457 289.885 383.903C286.968 386.348 282.898 387.567 277.674 387.567H254.397V337.602H276.894C281.972 337.602 285.945 338.763 288.821 341.087C291.689 343.411 293.127 346.571 293.127 350.552C293.127 353.493 292.355 355.938 290.811 357.88C289.268 359.83 287.22 361.179 284.653 361.934C287.545 362.552 289.869 363.99 291.632 366.24V366.248ZM266.576 357.815H274.546C276.537 357.815 278.072 357.377 279.136 356.499C280.201 355.622 280.737 354.33 280.737 352.616C280.737 350.901 280.201 349.601 279.136 348.7C278.072 347.798 276.537 347.351 274.546 347.351H266.576V357.815ZM280.282 376.355C281.395 375.429 281.956 374.089 281.956 372.334C281.956 370.579 281.371 369.198 280.209 368.206C279.047 367.207 277.447 366.712 275.407 366.712H266.584V377.745H275.554C277.593 377.745 279.169 377.281 280.29 376.355H280.282Z" fill="#343433"/>
<path d="M312.024 384.8C308.108 382.615 305.005 379.568 302.698 375.652C300.398 371.736 299.245 367.333 299.245 362.45C299.245 357.567 300.398 353.172 302.698 349.28C304.997 345.389 308.108 342.35 312.024 340.173C315.94 337.987 320.246 336.898 324.942 336.898C329.638 336.898 333.944 337.987 337.86 340.173C341.776 342.358 344.864 345.397 347.114 349.28C349.364 353.172 350.494 357.559 350.494 362.45C350.494 367.341 349.356 371.736 347.073 375.652C344.79 379.568 341.711 382.615 337.82 384.8C333.928 386.986 329.63 388.074 324.934 388.074C320.238 388.074 315.932 386.986 312.016 384.8H312.024ZM334.521 372.979C336.918 370.322 338.112 366.813 338.112 362.442C338.112 358.071 336.91 354.504 334.521 351.872C332.124 349.24 328.931 347.923 324.942 347.923C320.953 347.923 317.695 349.231 315.299 351.839C312.902 354.447 311.708 357.99 311.708 362.442C311.708 366.894 312.902 370.379 315.299 373.012C317.695 375.644 320.913 376.96 324.942 376.96C328.972 376.96 332.116 375.636 334.521 372.971V372.979Z" fill="#343433"/>
<path d="M387.874 387.567L377.694 372.261L368.725 387.567H354.913L370.926 362.154L354.556 337.602H368.725L378.758 352.697L387.582 337.602H401.393L385.518 362.804L402.035 387.575H387.866L387.874 387.567Z" fill="#343433"/>
<defs>
<linearGradient id="paint0_linear_749_2874" x1="290.908" y1="122.179" x2="204.203" y2="285.476" gradientUnits="userSpaceOnUse">
<stop offset="0.278846" stop-color="#33CFFF"/>
<stop offset="1" stop-color="#0D87C5"/>
</linearGradient>
</defs>
</svg>
