<svg width="75" height="75" viewBox="0 0 75 75" fill="none" xmlns="http://www.w3.org/2000/svg">
<path d="M0 16.0752L17.5192 34.2407V41.7765L0 60.0657V51.7737L13.2838 38.0086L0 24.3535V16.0752Z" fill="url(#paint0_linear_710_2938)"/>
<path d="M52.6818 62.1982C39.398 62.2257 28.5757 51.4859 28.5482 38.2021C28.5207 24.9183 39.2605 14.096 52.5443 14.0685C59.0074 14.041 65.1955 16.64 69.7472 21.2329C60.7676 8.88422 43.4821 6.16145 31.1197 15.1411C18.7572 24.1207 16.0482 41.4062 25.0279 53.7686C34.0075 66.1173 51.2929 68.8401 63.6554 59.8605C64.2604 59.4204 64.8655 58.9391 65.4155 58.4716C61.6339 60.9331 57.1922 62.2532 52.6818 62.1982Z" fill="url(#paint1_linear_710_2938)"/>
<path d="M60.8774 17.9186C70.1733 23.3504 73.3223 35.3003 67.9181 44.5962C62.4863 53.8921 50.5364 57.0412 41.2405 51.6369C35.905 48.5428 32.3709 43.0973 31.6833 36.9504V38.0781C31.6833 50.0555 41.378 59.7364 53.3417 59.7364C65.3053 59.7364 75 50.0417 75 38.0781C74.8762 29.1122 69.2794 21.0951 60.8774 17.9186Z" fill="url(#paint2_linear_710_2938)"/>
<path d="M50.4945 19.4444C43.3713 19.4169 37.1282 24.1199 35.1342 30.9406C38.3658 23.8449 46.7403 20.7233 53.836 23.9549C60.9317 27.1864 64.0533 35.561 60.8217 42.6567C58.539 47.7035 53.4922 50.9075 47.978 50.9075C46.7403 50.88 45.5027 50.7287 44.3064 50.44C46.2728 51.2788 48.3768 51.7051 50.5357 51.6776C59.4328 51.6226 66.611 44.3756 66.556 35.4785C66.4735 26.6089 59.3228 19.4719 50.4945 19.4444Z" fill="url(#paint3_linear_710_2938)"/>
<defs>
<linearGradient id="paint0_linear_710_2938" x1="0" y1="37.5008" x2="75" y2="37.5008" gradientUnits="userSpaceOnUse">
<stop stop-color="#00DBFF"/>
<stop offset="1" stop-color="#00FF75"/>
</linearGradient>
<linearGradient id="paint1_linear_710_2938" x1="0" y1="37.5008" x2="75" y2="37.5008" gradientUnits="userSpaceOnUse">
<stop stop-color="#00DBFF"/>
<stop offset="1" stop-color="#00FF75"/>
</linearGradient>
<linearGradient id="paint2_linear_710_2938" x1="0" y1="37.5008" x2="75" y2="37.5008" gradientUnits="userSpaceOnUse">
<stop stop-color="#00DBFF"/>
<stop offset="1" stop-color="#00FF75"/>
</linearGradient>
<linearGradient id="paint3_linear_710_2938" x1="0" y1="37.5008" x2="75" y2="37.5008" gradientUnits="userSpaceOnUse">
<stop stop-color="#00DBFF"/>
<stop offset="1" stop-color="#00FF75"/>
</linearGradient>
</defs>
</svg>
