<svg width="748" height="600" viewBox="0 0 748 600" fill="none" xmlns="http://www.w3.org/2000/svg">
<path d="M4.39811 546.153C7.30654 540.88 11.3736 536.766 16.5757 533.834C21.7778 530.878 27.6656 529.412 34.2627 529.412C42.3496 529.412 49.2541 531.54 55.0237 535.82C60.7696 540.1 64.6239 545.917 66.5628 553.294H48.332C46.9842 550.457 45.0452 548.281 42.5624 546.792C40.0796 545.302 37.2421 544.569 34.0736 544.569C28.9661 544.569 24.8281 546.342 21.6595 549.913C18.491 553.46 16.9067 558.236 16.9067 564.171C16.9067 570.106 18.491 574.883 21.6595 578.429C24.8281 581.976 28.9661 583.773 34.0736 583.773C37.2421 583.773 40.0796 583.04 42.5624 581.551C45.0452 580.061 46.9842 577.909 48.332 575.048H66.5628C64.6239 582.426 60.7696 588.219 55.0237 592.451C49.2541 596.684 42.3496 598.812 34.2627 598.812C27.6656 598.812 21.7541 597.346 16.552 594.39C11.35 591.458 7.2829 587.367 4.37447 582.118C1.46604 576.869 0 570.886 0 564.171C0 557.456 1.46604 551.45 4.37447 546.177L4.39811 546.153Z" fill="#303446"/>
<path d="M91.3679 594.698C86.0239 591.718 81.7913 587.58 78.6464 582.236C75.5015 576.892 73.9409 570.91 73.9409 564.242C73.9409 557.574 75.5015 551.592 78.6464 546.295C81.7913 540.998 86.0239 536.86 91.3679 533.881C96.7118 530.902 102.576 529.412 108.984 529.412C115.392 529.412 121.256 530.902 126.6 533.881C131.944 536.86 136.129 540.998 139.203 546.295C142.277 551.592 143.814 557.574 143.814 564.242C143.814 570.91 142.254 576.892 139.156 582.236C136.058 587.58 131.849 591.718 126.553 594.698C121.256 597.677 115.392 599.167 108.984 599.167C102.576 599.167 96.7118 597.677 91.3679 594.698ZM122.013 578.595C125.276 574.977 126.907 570.201 126.907 564.242C126.907 558.283 125.276 553.436 122.013 549.842C118.75 546.248 114.399 544.451 108.96 544.451C103.522 544.451 99.0764 546.224 95.8133 549.795C92.5501 553.341 90.9186 558.165 90.9186 564.242C90.9186 570.319 92.5501 575.072 95.8133 578.642C99.0764 582.236 103.451 584.033 108.96 584.033C114.47 584.033 118.75 582.213 122.013 578.595Z" fill="#303446"/>
<path d="M230.145 530.387V598.486H213.545V557.65L198.318 598.486H184.934L169.612 557.556V598.486H153.012V530.387H172.615L191.72 577.536L210.637 530.387H230.145Z" fill="#303446"/>
<path d="M319.196 530.387V598.486H302.596V557.65L287.368 598.486H273.985L258.662 557.556V598.486H242.063V530.387H261.665L280.771 577.536L299.711 530.387H319.219H319.196Z" fill="#303446"/>
<path d="M373.533 586.45H348.114L344.047 598.486H326.691L351.306 530.387H370.507L395.145 598.486H377.577L373.51 586.45H373.533ZM369.253 573.658L360.812 548.736L352.465 573.658H369.253Z" fill="#303446"/>
<path d="M463.553 598.486H446.954L419.217 556.468V598.486H402.618V530.387H419.217L446.954 572.594V530.387H463.553V598.486Z" fill="#303446"/>
<path d="M519.924 534.643C525.291 537.48 529.453 541.477 532.385 546.631C535.317 551.786 536.807 557.697 536.807 564.436C536.807 571.175 535.341 577.016 532.385 582.194C529.429 587.373 525.268 591.369 519.876 594.23C514.485 597.067 508.219 598.51 501.102 598.51H475.588V530.387H501.102C508.29 530.387 514.556 531.805 519.924 534.643ZM514.698 578.978C518.198 575.55 519.947 570.702 519.947 564.436C519.947 558.17 518.198 553.276 514.698 549.776C511.198 546.277 506.327 544.55 500.038 544.55H492.187V584.133H500.038C506.304 584.133 511.198 582.431 514.698 579.002V578.978Z" fill="#303446"/>
<path d="M596.866 569.426C599.254 572.5 600.46 575.999 600.46 579.948C600.46 585.646 598.474 590.163 594.501 593.473C590.529 596.807 584.972 598.462 577.855 598.462H546.122V530.387H576.767C583.695 530.387 589.11 531.971 593.012 535.139C596.913 538.308 598.876 542.611 598.876 548.05C598.876 552.07 597.812 555.38 595.731 558.052C593.626 560.7 590.836 562.545 587.337 563.585C591.286 564.436 594.454 566.375 596.842 569.449L596.866 569.426ZM562.698 557.934H573.551C576.27 557.934 578.351 557.343 579.817 556.137C581.283 554.931 581.993 553.181 581.993 550.84C581.993 548.499 581.26 546.726 579.817 545.496C578.375 544.267 576.27 543.652 573.551 543.652H562.698V557.91V557.934ZM581.378 583.211C582.891 581.958 583.648 580.113 583.648 577.725C583.648 575.337 582.844 573.469 581.26 572.098C579.675 570.75 577.5 570.064 574.71 570.064H562.674V585.103H574.899C577.666 585.103 579.817 584.464 581.354 583.211H581.378Z" fill="#303446"/>
<path d="M728.029 598.486L714.149 577.631L701.924 598.486H683.102L704.927 563.845L682.605 530.387H701.924L715.615 550.958L727.651 530.387H746.473L724.837 564.72L747.348 598.486H728.029Z" fill="#303446"/>
<path d="M650.684 596.236C633.852 596.236 620.207 582.641 620.207 565.87C620.207 549.098 633.852 535.504 650.684 535.504C659.173 535.504 666.847 538.964 672.374 544.546C666.008 535.88 655.725 530.246 644.117 530.246C624.783 530.246 609.109 545.86 609.109 565.123C609.109 584.387 624.783 600.001 644.114 600.001C652.835 600.001 660.807 596.814 666.941 591.553C662.233 594.518 656.662 596.24 650.684 596.24" fill="#303446"/>
<path d="M661.162 540.383C668.489 544.659 673.415 552.581 673.415 561.651C673.415 575.257 662.345 586.283 648.693 586.287C635.989 586.287 625.53 576.739 624.135 564.455C624.111 564.939 624.093 565.423 624.093 565.91C624.093 580.981 636.357 593.196 651.479 593.196C666.601 593.196 678.865 580.977 678.865 565.91C678.865 554.237 671.507 544.282 661.162 540.383Z" fill="#303446"/>
<path d="M647.96 542.273C638.77 542.273 631.009 548.364 628.515 556.715C631.3 550.521 637.542 546.207 644.796 546.207C654.648 546.207 662.634 554.164 662.634 563.981C662.634 573.798 654.648 581.755 644.796 581.755C643.186 581.755 641.625 581.537 640.14 581.14C642.544 582.142 645.188 582.695 647.96 582.699C659.165 582.699 668.244 573.646 668.244 562.484C668.244 551.319 659.162 542.273 647.96 542.273Z" fill="#303446"/>
<path d="M128.431 105.061L242.936 223.79V273.043L128.431 392.581V338.385L215.253 248.417L128.431 159.168V105.061Z" fill="#303446"/>
<path d="M472.756 406.519C385.934 406.698 315.2 336.504 315.021 249.681C314.841 162.859 385.036 92.1251 471.858 91.9454C514.1 91.7656 554.545 108.753 584.295 138.772C525.605 58.0613 412.628 40.2655 331.828 98.9559C251.028 157.646 233.322 270.623 292.012 351.423C350.702 432.134 463.679 449.93 544.479 391.239C548.434 388.363 552.388 385.217 555.983 382.162C531.267 398.25 502.236 406.878 472.756 406.519Z" fill="#303446"/>
<path d="M526.322 117.11C587.08 152.611 607.662 230.715 572.34 291.473C536.838 352.23 458.734 372.813 397.977 337.49C363.104 317.268 340.005 281.676 335.511 241.501V248.871C335.511 327.154 398.875 390.429 477.069 390.429C555.263 390.429 618.627 327.065 618.627 248.871C617.818 190.27 581.238 137.871 526.322 117.11Z" fill="#303446"/>
<path d="M458.46 127.082C411.903 126.903 371.099 157.641 358.066 202.22C379.188 155.843 433.923 135.441 480.301 156.562C526.678 177.684 547.08 232.419 525.958 278.797C511.039 311.782 478.054 332.723 442.013 332.723C433.923 332.544 425.834 331.555 418.015 329.667C430.868 335.15 444.619 337.936 458.73 337.757C516.881 337.397 563.797 290.031 563.438 231.88C562.898 173.909 516.162 127.262 458.46 127.082Z" fill="#303446"/>
</svg>
