<svg width="250" height="250" viewBox="0 0 250 250" fill="none" xmlns="http://www.w3.org/2000/svg">
<path d="M0 53.582L58.3973 114.134V139.253L0 200.217V172.577L44.2793 126.693L0 81.1764V53.582Z" fill="url(#paint0_linear_710_2934)"/>
<path d="M175.606 207.325C131.327 207.417 95.2523 171.618 95.1607 127.338C95.069 83.059 130.868 46.9846 175.148 46.893C196.691 46.8013 217.318 55.4646 232.491 70.7745C202.559 29.6121 144.94 20.5362 103.732 50.4683C62.5242 80.4004 53.4941 138.019 83.4262 179.227C113.358 220.389 170.976 229.465 212.185 199.533C214.201 198.066 216.218 196.462 218.052 194.903C205.446 203.108 190.641 207.509 175.606 207.325Z" fill="url(#paint1_linear_710_2934)"/>
<path d="M202.925 59.7267C233.911 77.8326 244.408 117.666 226.394 148.652C208.288 179.638 168.455 190.135 137.468 172.121C119.683 161.807 107.903 143.656 105.611 123.166V126.925C105.611 166.85 137.927 199.119 177.806 199.119C217.684 199.119 250 166.804 250 126.925C249.587 97.0386 230.932 70.3152 202.925 59.7267Z" fill="url(#paint2_linear_710_2934)"/>
<path d="M168.315 64.8128C144.571 64.7212 123.761 80.3977 117.114 103.133C127.886 79.4809 155.801 69.0758 179.453 79.8477C203.106 90.6195 213.511 118.535 202.739 142.187C195.13 159.01 178.307 169.69 159.927 169.69C155.801 169.598 151.676 169.094 147.688 168.131C154.243 170.927 161.256 172.348 168.452 172.257C198.109 172.073 222.037 147.917 221.853 118.26C221.578 88.6943 197.743 64.9045 168.315 64.8128Z" fill="url(#paint3_linear_710_2934)"/>
<defs>
<linearGradient id="paint0_linear_710_2934" x1="0" y1="125.001" x2="250" y2="125.001" gradientUnits="userSpaceOnUse">
<stop stop-color="#00DBFF"/>
<stop offset="1" stop-color="#00FF75"/>
</linearGradient>
<linearGradient id="paint1_linear_710_2934" x1="0" y1="125.001" x2="250" y2="125.001" gradientUnits="userSpaceOnUse">
<stop stop-color="#00DBFF"/>
<stop offset="1" stop-color="#00FF75"/>
</linearGradient>
<linearGradient id="paint2_linear_710_2934" x1="0" y1="125.001" x2="250" y2="125.001" gradientUnits="userSpaceOnUse">
<stop stop-color="#00DBFF"/>
<stop offset="1" stop-color="#00FF75"/>
</linearGradient>
<linearGradient id="paint3_linear_710_2934" x1="0" y1="125.001" x2="250" y2="125.001" gradientUnits="userSpaceOnUse">
<stop stop-color="#00DBFF"/>
<stop offset="1" stop-color="#00FF75"/>
</linearGradient>
</defs>
</svg>
