<svg width="373" height="50" viewBox="0 0 373 50" fill="none" xmlns="http://www.w3.org/2000/svg">
<path d="M56.8696 17.1167C58.106 14.8751 59.8349 13.1261 62.0463 11.8797C64.2578 10.6232 66.7607 10 69.5651 10C73.0029 10 75.938 10.9047 78.3907 12.7241C80.8333 14.5434 82.4717 17.0162 83.296 20.1524H75.546C74.973 18.9462 74.1488 18.0214 73.0933 17.3881C72.0379 16.7548 70.8317 16.4432 69.4847 16.4432C67.3135 16.4432 65.5544 17.1971 64.2075 18.715C62.8605 20.2227 62.1871 22.2532 62.1871 24.7762C62.1871 27.2992 62.8605 29.3297 64.2075 30.8375C65.5544 32.3453 67.3135 33.1092 69.4847 33.1092C70.8317 33.1092 72.0379 32.7976 73.0933 32.1643C74.1488 31.5311 74.973 30.6164 75.546 29.4001H83.296C82.4717 32.5363 80.8333 34.999 78.3907 36.7982C75.938 38.5975 73.0029 39.5022 69.5651 39.5022C66.7607 39.5022 64.2477 38.879 62.0363 37.6225C59.8249 36.3761 58.096 34.6371 56.8596 32.4056C55.6232 30.1741 55 27.631 55 24.7762C55 21.9215 55.6232 19.3683 56.8596 17.1268L56.8696 17.1167Z" fill="#303446"/>
<path d="M93.8408 37.7532C91.5691 36.4866 89.7698 34.7276 88.4329 32.4558C87.096 30.1841 86.4326 27.641 86.4326 24.8064C86.4326 21.9718 87.096 19.4286 88.4329 17.177C89.7698 14.9254 91.5691 13.1663 93.8408 11.8998C96.1126 10.6333 98.6054 10 101.329 10C104.054 10 106.546 10.6333 108.818 11.8998C111.09 13.1663 112.869 14.9254 114.176 17.177C115.482 19.4286 116.136 21.9718 116.136 24.8064C116.136 27.641 115.472 30.1841 114.156 32.4558C112.839 34.7276 111.05 36.4866 108.798 37.7532C106.546 39.0197 104.054 39.653 101.329 39.653C98.6054 39.653 96.1126 39.0197 93.8408 37.7532ZM106.868 30.9079C108.255 29.3699 108.949 27.3394 108.949 24.8064C108.949 22.2733 108.255 20.2127 106.868 18.6848C105.481 17.1569 103.631 16.393 101.319 16.393C99.0075 16.393 97.1177 17.1469 95.7306 18.6647C94.3434 20.1725 93.6498 22.2231 93.6498 24.8064C93.6498 27.3897 94.3434 29.4101 95.7306 30.928C97.1177 32.4558 98.9773 33.2198 101.319 33.2198C103.661 33.2198 105.481 32.4458 106.868 30.9079Z" fill="#303446"/>
<path d="M152.835 10.4141V39.3634H145.779V22.0038L139.305 39.3634H133.616L127.102 21.9636V39.3634H120.046V10.4141H128.379L136.501 30.4575L144.542 10.4141H152.835Z" fill="#303446"/>
<path d="M190.691 10.4141V39.3634H183.634V22.0038L177.161 39.3634H171.471L164.958 21.9636V39.3634H157.901V10.4141H166.234L174.356 30.4575L182.408 10.4141H190.701H190.691Z" fill="#303446"/>
<path d="M213.789 34.247H202.983L201.254 39.3634H193.876L204.34 10.4141H212.502L222.976 39.3634H215.508L213.779 34.247H213.789ZM211.969 28.809L208.381 18.2143L204.833 28.809H211.969Z" fill="#303446"/>
<path d="M252.057 39.3634H245.001L233.21 21.5013V39.3634H226.153V10.4141H233.21L245.001 28.3566V10.4141H252.057V39.3634Z" fill="#303446"/>
<path d="M276.02 12.2234C278.302 13.4296 280.071 15.1284 281.317 17.3197C282.564 19.511 283.197 22.024 283.197 24.8887C283.197 27.7535 282.574 30.2363 281.317 32.4377C280.061 34.639 278.292 36.3378 276 37.5541C273.708 38.7603 271.044 39.3735 268.019 39.3735H257.173V10.4141H268.019C271.075 10.4141 273.738 11.0172 276.02 12.2234ZM273.799 31.0706C275.286 29.6131 276.03 27.5525 276.03 24.8887C276.03 22.225 275.286 20.1443 273.799 18.6566C272.311 17.1689 270.24 16.4351 267.566 16.4351H264.229V33.2619H267.566C270.23 33.2619 272.311 32.5382 273.799 31.0807V31.0706Z" fill="#303446"/>
<path d="M308.729 27.0097C309.744 28.3164 310.256 29.8041 310.256 31.4827C310.256 33.9052 309.412 35.8251 307.723 37.2324C306.035 38.6497 303.672 39.3534 300.647 39.3534H287.157V10.4141H300.184C303.13 10.4141 305.431 11.0875 307.09 12.4345C308.749 13.7814 309.583 15.6109 309.583 17.9228C309.583 19.6316 309.131 21.0389 308.246 22.1747C307.351 23.3005 306.165 24.0846 304.678 24.5269C306.356 24.8887 307.703 25.713 308.718 27.0197L308.729 27.0097ZM294.204 22.1245H298.817C299.973 22.1245 300.858 21.8732 301.481 21.3605C302.104 20.8479 302.406 20.1041 302.406 19.1089C302.406 18.1138 302.094 17.3599 301.481 16.8372C300.868 16.3145 299.973 16.0532 298.817 16.0532H294.204V22.1144V22.1245ZM302.145 32.8699C302.788 32.3372 303.11 31.5531 303.11 30.5379C303.11 29.5226 302.768 28.7285 302.094 28.1455C301.421 27.5726 300.496 27.2811 299.31 27.2811H294.194V33.6741H299.39C300.566 33.6741 301.481 33.4027 302.134 32.8699H302.145Z" fill="#303446"/>
<path d="M364.486 39.3634L358.586 30.4977L353.389 39.3634H345.388L354.666 24.6374L345.177 10.4141H353.389L359.209 19.1592L364.326 10.4141H372.327L363.129 25.0094L372.699 39.3634H364.486Z" fill="#303446"/>
<path d="M331.608 38.4082C324.453 38.4082 318.652 32.629 318.652 25.4993C318.652 18.3697 324.453 12.5905 331.608 12.5905C335.217 12.5905 338.479 14.0614 340.828 16.4345C338.122 12.7506 333.751 10.3555 328.816 10.3555C320.598 10.3555 313.935 16.9929 313.935 25.182C313.935 33.371 320.598 40.0084 328.815 40.0084C332.522 40.0084 335.911 38.6536 338.519 36.4172C336.518 37.6779 334.149 38.4097 331.608 38.4097" fill="#303446"/>
<path d="M336.062 14.6641C339.176 16.4817 341.27 19.8497 341.27 23.7054C341.27 29.4891 336.564 34.1765 330.761 34.178C325.361 34.178 320.914 30.1195 320.321 24.8971C320.311 25.1028 320.304 25.3086 320.304 25.5158C320.304 31.9224 325.517 37.1154 331.945 37.1154C338.374 37.1154 343.587 31.921 343.587 25.5158C343.587 20.5535 340.459 16.3216 336.062 14.6641Z" fill="#303446"/>
<path d="M330.449 15.4688C326.542 15.4688 323.243 18.0579 322.183 21.608C323.367 18.9748 326.02 17.141 329.104 17.141C333.292 17.141 336.687 20.5236 336.687 24.6967C336.687 28.8699 333.292 32.2525 329.104 32.2525C328.419 32.2525 327.756 32.1599 327.125 31.9909C328.147 32.4171 329.27 32.6522 330.449 32.6537C335.212 32.6537 339.072 28.8052 339.072 24.0605C339.072 19.3142 335.211 15.4688 330.449 15.4688Z" fill="#303446"/>
<path d="M0 10.7168L11.6795 22.8271V27.851L0 40.0438V34.5158L8.85586 25.339L0 16.2357V10.7168Z" fill="url(#paint0_linear_710_2647)"/>
<path d="M35.1212 41.4654C26.2653 41.4838 19.0505 34.3239 19.0321 25.4681C19.0138 16.6122 26.1736 9.39732 35.0295 9.37898C39.3383 9.36065 43.4637 11.0933 46.4981 14.1553C40.5117 5.92281 28.9881 4.10764 20.7465 10.0941C12.5048 16.0805 10.6988 27.6041 16.6852 35.8457C22.6716 44.0782 34.1953 45.8934 42.4369 39.907C42.8403 39.6136 43.2436 39.2927 43.6103 38.981C41.0893 40.622 38.1281 41.5021 35.1212 41.4654Z" fill="url(#paint1_linear_710_2647)"/>
<path d="M40.5849 11.9457C46.7822 15.5669 48.8815 23.5335 45.2787 29.7308C41.6575 35.9281 33.6909 38.0274 27.4936 34.4246C23.9366 32.3619 21.5806 28.7315 21.1222 24.6336V25.3854C21.1222 33.3703 27.5853 39.8243 35.5611 39.8243C43.5369 39.8243 50 33.3611 50 25.3854C49.9175 19.4081 46.1863 14.0634 40.5849 11.9457Z" fill="url(#paint2_linear_710_2647)"/>
<path d="M33.663 12.963C28.9142 12.9446 24.7521 16.0799 23.4228 20.627C25.5772 15.8966 31.1602 13.8155 35.8907 15.9699C40.6211 18.1243 42.7022 23.7073 40.5478 28.4378C39.026 31.8023 35.6615 33.9383 31.9853 33.9383C31.1602 33.92 30.3351 33.8192 29.5376 33.6266C30.8485 34.1859 32.2512 34.4701 33.6905 34.4517C39.6219 34.4151 44.4073 29.5837 44.3707 23.6523C44.3157 17.7393 39.5485 12.9813 33.663 12.963Z" fill="url(#paint3_linear_710_2647)"/>
<defs>
<linearGradient id="paint0_linear_710_2647" x1="0" y1="25.0005" x2="50" y2="25.0005" gradientUnits="userSpaceOnUse">
<stop stop-color="#00DBFF"/>
<stop offset="1" stop-color="#00FF75"/>
</linearGradient>
<linearGradient id="paint1_linear_710_2647" x1="0" y1="25.0005" x2="50" y2="25.0005" gradientUnits="userSpaceOnUse">
<stop stop-color="#00DBFF"/>
<stop offset="1" stop-color="#00FF75"/>
</linearGradient>
<linearGradient id="paint2_linear_710_2647" x1="0" y1="25.0005" x2="50" y2="25.0005" gradientUnits="userSpaceOnUse">
<stop stop-color="#00DBFF"/>
<stop offset="1" stop-color="#00FF75"/>
</linearGradient>
<linearGradient id="paint3_linear_710_2647" x1="0" y1="25.0005" x2="50" y2="25.0005" gradientUnits="userSpaceOnUse">
<stop stop-color="#00DBFF"/>
<stop offset="1" stop-color="#00FF75"/>
</linearGradient>
</defs>
</svg>
