<svg width="748" height="600" viewBox="0 0 748 600" fill="none" xmlns="http://www.w3.org/2000/svg">
<path d="M4.39811 546.151C7.30654 540.878 11.3736 536.764 16.5757 533.832C21.7778 530.876 27.6656 529.41 34.2627 529.41C42.3496 529.41 49.2541 531.538 55.0237 535.818C60.7696 540.098 64.6239 545.915 66.5628 553.292H48.332C46.9842 550.455 45.0452 548.279 42.5624 546.79C40.0796 545.3 37.2421 544.567 34.0736 544.567C28.9661 544.567 24.8281 546.34 21.6595 549.911C18.491 553.458 16.9067 558.234 16.9067 564.169C16.9067 570.104 18.491 574.881 21.6595 578.427C24.8281 581.974 28.9661 583.771 34.0736 583.771C37.2421 583.771 40.0796 583.038 42.5624 581.549C45.0452 580.059 46.9842 577.907 48.332 575.046H66.5628C64.6239 582.424 60.7696 588.217 55.0237 592.449C49.2541 596.682 42.3496 598.81 34.2627 598.81C27.6656 598.81 21.7541 597.344 16.552 594.388C11.35 591.456 7.2829 587.366 4.37447 582.116C1.46604 576.867 0 570.885 0 564.169C0 557.454 1.46604 551.448 4.37447 546.175L4.39811 546.151Z" fill="white"/>
<path d="M91.3679 594.696C86.0239 591.716 81.7913 587.578 78.6464 582.234C75.5015 576.891 73.9409 570.908 73.9409 564.24C73.9409 557.572 75.5015 551.59 78.6464 546.293C81.7913 540.996 86.0239 536.859 91.3679 533.879C96.7118 530.9 102.576 529.41 108.984 529.41C115.392 529.41 121.256 530.9 126.6 533.879C131.944 536.859 136.129 540.996 139.203 546.293C142.277 551.59 143.814 557.572 143.814 564.24C143.814 570.908 142.254 576.891 139.156 582.234C136.058 587.578 131.849 591.716 126.553 594.696C121.256 597.675 115.392 599.165 108.984 599.165C102.576 599.165 96.7118 597.675 91.3679 594.696ZM122.013 578.593C125.276 574.975 126.907 570.199 126.907 564.24C126.907 558.281 125.276 553.434 122.013 549.84C118.75 546.246 114.399 544.449 108.96 544.449C103.522 544.449 99.0764 546.222 95.8133 549.793C92.5501 553.339 90.9186 558.163 90.9186 564.24C90.9186 570.317 92.5501 575.07 95.8133 578.64C99.0764 582.234 103.451 584.031 108.96 584.031C114.47 584.031 118.75 582.211 122.013 578.593Z" fill="white"/>
<path d="M230.145 530.383V598.482H213.545V557.646L198.318 598.482H184.934L169.612 557.552V598.482H153.012V530.383H172.615L191.72 577.532L210.637 530.383H230.145Z" fill="white"/>
<path d="M319.196 530.383V598.482H302.596V557.646L287.368 598.482H273.985L258.662 557.552V598.482H242.063V530.383H261.665L280.771 577.532L299.711 530.383H319.219H319.196Z" fill="white"/>
<path d="M373.533 586.447H348.114L344.047 598.482H326.691L351.306 530.383H370.507L395.145 598.482H377.577L373.51 586.447H373.533ZM369.253 573.654L360.812 548.732L352.465 573.654H369.253Z" fill="white"/>
<path d="M463.553 598.482H446.954L419.217 556.464V598.482H402.618V530.383H419.217L446.954 572.59V530.383H463.553V598.482Z" fill="white"/>
<path d="M519.924 534.639C525.291 537.476 529.453 541.473 532.385 546.627C535.317 551.782 536.807 557.693 536.807 564.432C536.807 571.171 535.341 577.012 532.385 582.19C529.429 587.369 525.268 591.365 519.876 594.226C514.485 597.063 508.219 598.506 501.102 598.506H475.588V530.383H501.102C508.29 530.383 514.556 531.802 519.924 534.639ZM514.698 578.975C518.198 575.546 519.947 570.699 519.947 564.432C519.947 558.166 518.198 553.272 514.698 549.772C511.198 546.273 506.327 544.547 500.038 544.547H492.187V584.129H500.038C506.304 584.129 511.198 582.427 514.698 578.998V578.975Z" fill="white"/>
<path d="M596.866 569.422C599.254 572.496 600.46 575.995 600.46 579.944C600.46 585.643 598.474 590.159 594.501 593.469C590.529 596.803 584.972 598.458 577.855 598.458H546.122V530.383H576.767C583.695 530.383 589.11 531.967 593.012 535.136C596.913 538.304 598.876 542.608 598.876 548.046C598.876 552.066 597.812 555.376 595.731 558.048C593.626 560.696 590.836 562.541 587.337 563.581C591.286 564.432 594.454 566.371 596.842 569.445L596.866 569.422ZM562.698 557.93H573.551C576.27 557.93 578.351 557.339 579.817 556.133C581.283 554.927 581.993 553.177 581.993 550.836C581.993 548.495 581.26 546.722 579.817 545.492C578.375 544.263 576.27 543.648 573.551 543.648H562.698V557.906V557.93ZM581.378 583.207C582.891 581.954 583.648 580.109 583.648 577.721C583.648 575.333 582.844 573.465 581.26 572.094C579.675 570.746 577.5 570.06 574.71 570.06H562.674V585.099H574.899C577.666 585.099 579.817 584.46 581.354 583.207H581.378Z" fill="white"/>
<path d="M728.029 598.482L714.149 577.627L701.924 598.482H683.102L704.927 563.841L682.605 530.383H701.924L715.615 550.954L727.651 530.383H746.473L724.837 564.716L747.348 598.482H728.029Z" fill="white"/>
<path d="M650.684 596.232C633.852 596.232 620.207 582.638 620.207 565.866C620.207 549.095 633.852 535.5 650.684 535.5C659.173 535.5 666.847 538.96 672.374 544.542C666.008 535.876 655.725 530.242 644.117 530.242C624.783 530.242 609.109 545.856 609.109 565.119C609.109 584.383 624.783 599.997 644.114 599.997C652.835 599.997 660.807 596.81 666.941 591.549C662.233 594.514 656.662 596.236 650.684 596.236" fill="white"/>
<path d="M661.162 540.379C668.489 544.655 673.415 552.577 673.415 561.647C673.415 575.253 662.345 586.279 648.693 586.283C635.989 586.283 625.53 576.736 624.135 564.451C624.111 564.935 624.093 565.419 624.093 565.906C624.093 580.977 636.357 593.193 651.479 593.193C666.601 593.193 678.865 580.973 678.865 565.906C678.865 554.233 671.507 544.278 661.162 540.379Z" fill="white"/>
<path d="M647.96 542.27C638.77 542.27 631.009 548.36 628.515 556.711C631.3 550.517 637.542 546.203 644.796 546.203C654.648 546.203 662.634 554.16 662.634 563.977C662.634 573.794 654.648 581.751 644.796 581.751C643.186 581.751 641.625 581.533 640.14 581.136C642.544 582.138 645.188 582.691 647.96 582.695C659.165 582.695 668.244 573.642 668.244 562.48C668.244 551.315 659.162 542.27 647.96 542.27Z" fill="white"/>
<path d="M128.431 105.061L242.936 223.79V273.043L128.431 392.581V338.385L215.253 248.417L128.431 159.168V105.061Z" fill="white"/>
<path d="M472.756 406.519C385.934 406.698 315.2 336.504 315.021 249.681C314.841 162.859 385.036 92.1251 471.858 91.9454C514.1 91.7656 554.545 108.753 584.295 138.772C525.605 58.0613 412.628 40.2655 331.828 98.9559C251.028 157.646 233.322 270.623 292.012 351.423C350.702 432.134 463.679 449.93 544.479 391.239C548.434 388.363 552.388 385.217 555.983 382.162C531.267 398.25 502.236 406.878 472.756 406.519Z" fill="white"/>
<path d="M526.322 117.11C587.08 152.611 607.662 230.715 572.34 291.473C536.838 352.23 458.734 372.813 397.977 337.49C363.104 317.268 340.005 281.676 335.511 241.501V248.871C335.511 327.154 398.875 390.429 477.069 390.429C555.263 390.429 618.627 327.065 618.627 248.871C617.818 190.27 581.238 137.871 526.322 117.11Z" fill="white"/>
<path d="M458.46 127.082C411.903 126.903 371.099 157.641 358.066 202.22C379.188 155.843 433.923 135.441 480.301 156.562C526.678 177.684 547.08 232.419 525.958 278.797C511.039 311.782 478.054 332.723 442.013 332.723C433.923 332.544 425.834 331.555 418.015 329.667C430.868 335.15 444.619 337.936 458.73 337.757C516.881 337.397 563.797 290.031 563.438 231.88C562.898 173.909 516.162 127.262 458.46 127.082Z" fill="white"/>
</svg>
