<svg width="332" height="72" viewBox="0 0 332 72" fill="none" xmlns="http://www.w3.org/2000/svg">
<path d="M183.843 62.0413H178.15V56.3478C178.15 55.5618 177.513 54.9258 176.727 54.9258C175.942 54.9258 175.305 55.5646 175.305 56.3478V62.0413H169.612C168.826 62.0413 168.19 62.6802 168.19 63.4633C168.19 64.2463 168.826 64.8853 169.612 64.8853H175.305V70.5788C175.305 71.3647 175.942 72.0008 176.727 72.0008C177.513 72.0008 178.15 71.3619 178.15 70.5788V64.8853H183.843C184.629 64.8853 185.265 64.2463 185.265 63.4633C185.265 62.6802 184.629 62.0413 183.843 62.0413Z" fill="#303446"/>
<path d="M195.068 54.9258V65.0407C195.068 66.0522 195.317 66.8309 195.814 67.3768C196.311 67.9227 197.04 68.1956 198.002 68.1956C198.964 68.1956 199.701 67.9227 200.214 67.3768C200.727 66.8309 200.983 66.0522 200.983 65.0407V54.9258H205.095V65.0166C205.095 66.5259 204.774 67.8023 204.133 68.8459C203.492 69.8895 202.626 70.6762 201.536 71.206C200.462 71.7359 199.26 72.0008 197.93 72.0008C196.599 72.0008 195.405 71.7439 194.347 71.2301C193.305 70.7003 192.48 69.9136 191.87 68.87C191.261 67.8103 190.957 66.5259 190.957 65.0166V54.9258H195.068Z" fill="#303446"/>
<path d="M214.979 68.6532H220.365V71.8322H210.867V54.9258H214.979V68.6532Z" fill="#303446"/>
<path d="M237.354 54.9258V58.2252H232.882V71.8322H228.77V58.2252H224.298V54.9258H237.354Z" fill="#303446"/>
<path d="M246.414 54.9258V71.8322H242.303V54.9258H246.414Z" fill="#303446"/>
<path d="M271.395 54.9258V71.8322H267.283V61.6932L263.508 71.8322H260.19L256.391 61.6691V71.8322H252.279V54.9258H257.136L261.873 66.6302L266.562 54.9258H271.395Z" fill="#303446"/>
<path d="M287.744 68.8459H281.445L280.435 71.8322H276.131L282.238 54.9258H286.999L293.106 71.8322H288.754L287.744 68.8459ZM286.686 65.6669L284.595 59.4775L282.527 65.6669H286.686Z" fill="#303446"/>
<path d="M309.993 54.9258V58.2252H305.521V71.8322H301.409V58.2252H296.937V54.9258H309.993Z" fill="#303446"/>
<path d="M319.053 58.2252V61.645H324.559V64.824H319.053V68.5328H325.281V71.8322H314.942V54.9258H325.281V58.2252H319.053Z" fill="#303446"/>
<path d="M29.8205 25.0212C32.6739 25.6298 34.966 27.0579 36.6967 29.3054C38.4275 31.506 39.2929 34.0344 39.2929 36.8906C39.2929 41.011 37.8428 44.2885 34.9426 46.7233C32.0892 49.1112 28.0897 50.3052 22.9442 50.3052H0V1.00132H22.1724C27.1776 1.00132 31.0835 2.14847 33.8901 4.44276C36.7435 6.73705 38.1702 9.85073 38.1702 13.7838C38.1702 16.6868 37.3984 19.0981 35.8547 21.0178C34.3579 22.9376 32.3464 24.272 29.8205 25.0212ZM11.9984 20.9476H19.8569C21.8216 20.9476 23.3184 20.5262 24.3475 19.6834C25.4234 18.7938 25.9614 17.5062 25.9614 15.8206C25.9614 14.135 25.4234 12.8474 24.3475 11.9577C23.3184 11.0681 21.8216 10.6233 19.8569 10.6233H11.9984V20.9476ZM20.8393 40.613C22.8507 40.613 24.3943 40.1682 25.4702 39.2785C26.5929 38.3421 27.1542 37.0077 27.1542 35.2752C27.1542 33.5428 26.5695 32.185 25.4 31.2017C24.2774 30.2184 22.7103 29.7268 20.6989 29.7268H11.9984V40.613H20.8393Z" fill="#303446"/>
<path d="M120.693 50.3052L110.66 35.205L101.819 50.3052H88.2065L103.994 25.2319L87.8557 1.00132H101.819L111.712 15.8908L120.413 1.00132H134.025L118.378 25.864L134.656 50.3052H120.693Z" fill="#303446"/>
<path d="M152.678 41.0344H168.395V50.3052H140.68V1.00132H152.678V41.0344Z" fill="#303446"/>
<path d="M204.78 41.5962H186.397L183.45 50.3052H170.89L188.713 1.00132H202.605L220.427 50.3052H207.727L204.78 41.5962ZM201.693 32.3254L195.589 14.2754L189.555 32.3254H201.693Z" fill="#303446"/>
<path d="M269.916 50.3052H257.917L237.85 19.8941V50.3052H225.852V1.00132H237.85L257.917 31.5529V1.00132H269.916V50.3052Z" fill="#303446"/>
<path d="M311.31 16.5931C310.422 14.9544 309.135 13.7136 307.451 12.8708C305.814 11.9811 303.873 11.5363 301.627 11.5363C297.745 11.5363 294.634 12.8239 292.295 15.3992C289.957 17.9276 288.787 21.3222 288.787 25.583C288.787 30.1248 290.003 33.6833 292.436 36.2585C294.915 38.7869 298.306 40.0511 302.61 40.0511C305.557 40.0511 308.036 39.302 310.047 37.8036C312.106 36.3053 313.602 34.1515 314.538 31.3422H299.312V22.4927H325.414V33.6599C324.525 36.6565 323.005 39.4424 320.853 42.0176C318.748 44.5929 316.058 46.6765 312.784 48.2684C309.509 49.8604 305.814 50.6564 301.698 50.6564C296.833 50.6564 292.482 49.6029 288.647 47.4958C284.858 45.342 281.887 42.3688 279.736 38.5762C277.631 34.7836 276.578 30.4525 276.578 25.583C276.578 20.7135 277.631 16.3824 279.736 12.5898C281.887 8.75041 284.858 5.77719 288.647 3.67019C292.436 1.51637 296.763 0.439453 301.627 0.439453C307.521 0.439453 312.48 1.86753 316.503 4.72369C320.572 7.57985 323.262 11.5363 324.572 16.5931H311.31Z" fill="#303446"/>
<path d="M59.9602 7.6063L64.5583 3.79171L64.5629 3.78711L64.5722 3.79401C64.735 3.8193 64.8955 3.84459 65.0583 3.87448C74.936 5.81972 81.332 15.3206 79.362 25.0698C77.413 34.7362 67.9726 41.0271 58.2158 39.259C60.3207 38.7876 62.3441 37.8311 64.1117 36.3664C70.0356 31.4504 70.81 22.7175 65.8375 16.8611C62.9884 13.5041 58.8694 11.8233 54.7573 11.9222L59.9625 7.60401L59.9602 7.6063Z" fill="#303446"/>
<path d="M44.1713 42.3667C43.2545 41.2103 43.398 39.484 44.4896 38.5128C45.5813 37.5416 47.211 37.6936 48.1278 38.85C49.0446 40.0064 48.9011 41.7327 47.8095 42.7039C46.7178 43.6751 45.0882 43.5231 44.1713 42.3667Z" fill="#303446"/>
<path d="M69.9505 49.9951C61.5842 51.6326 53.3541 49.1718 47.4409 44.0376C47.786 43.8935 48.117 43.7014 48.4175 43.4522C49.0372 42.9445 49.455 42.2904 49.6592 41.586C50.955 42.311 52.3236 42.9285 53.7649 43.4087C66.0749 47.5321 79.4717 41.1446 83.6901 29.1541C87.9225 17.1613 81.3661 4.10966 69.0585 0C79.7769 1.71979 88.2723 9.7127 90.392 20.0703C93.2277 33.8355 84.0798 47.2279 69.9505 49.9929V49.9951Z" fill="#303446"/>
<path d="M328.845 0C329.54 0 330.186 0.258007 330.644 0.750344C330.867 0.972842 331.044 1.25451 331.174 1.55986C331.42 2.18119 331.42 2.87354 331.174 3.48305C331.056 3.78839 330.867 4.07007 330.621 4.29257C330.374 4.53874 330.115 4.71507 329.785 4.84408C329.479 4.96124 329.162 5.03226 328.832 5.03226C328.502 5.03226 328.162 4.97308 327.856 4.83343C327.549 4.69377 327.267 4.50441 327.02 4.27008C326.55 3.80141 326.292 3.17888 326.292 2.53388C326.292 1.88887 326.315 2.0877 326.373 1.8652C326.432 1.6427 326.538 1.41902 326.632 1.24386C327.138 0.469852 327.961 0 328.843 0M328.857 0.422511C328.598 0.422511 328.304 0.458017 328.069 0.563348C327.822 0.66868 327.599 0.809512 327.399 1.00952C327.198 1.20954 327.034 1.45571 326.929 1.70188C326.599 2.46405 326.764 3.3789 327.376 3.96592C327.576 4.16475 327.8 4.32925 328.07 4.43458C328.317 4.53991 328.6 4.59909 328.882 4.59909C329.165 4.59909 329.435 4.53991 329.67 4.43458C329.929 4.32925 330.152 4.17658 330.364 3.98841C330.577 3.80023 330.705 3.58956 330.812 3.31972C330.917 3.07356 330.977 2.81555 330.977 2.53388C330.977 2.2522 330.941 1.97053 330.812 1.70069C330.706 1.44269 330.553 1.22019 330.364 1.03201C330.165 0.833182 329.941 0.66868 329.67 0.563348C329.411 0.493522 329.129 0.422511 328.858 0.422511M327.81 1.07935H328.905C329.211 1.05568 329.528 1.11486 329.798 1.27818C329.998 1.41902 330.104 1.64152 330.104 1.88769C330.104 2.13386 330.045 2.22735 329.939 2.35635C329.822 2.49719 329.657 2.57886 329.492 2.61436L330.115 3.86887H329.363L328.833 2.74336H328.493V3.89254H327.822V1.07698H327.81V1.07935ZM328.481 1.52554V2.33505H328.822C328.963 2.35872 329.128 2.31138 329.269 2.22972C329.375 2.17055 329.41 2.04154 329.41 1.92438C329.41 1.80721 329.375 1.6782 329.269 1.59536C329.128 1.5137 328.963 1.4782 328.799 1.49003L328.481 1.52554Z" fill="#303446"/>
</svg>
