<svg width="659" height="143" viewBox="0 0 659 143" fill="none" xmlns="http://www.w3.org/2000/svg">
<path d="M365.133 123.22H353.825V111.912C353.825 110.351 352.56 109.088 351 109.088C349.44 109.088 348.175 110.357 348.175 111.912V123.22H336.867C335.306 123.22 334.043 124.489 334.043 126.044C334.043 127.6 335.306 128.869 336.867 128.869H348.175V140.177C348.175 141.738 349.44 143.001 351 143.001C352.56 143.001 353.825 141.732 353.825 140.177V128.869H365.133C366.694 128.869 367.956 127.6 367.956 126.044C367.956 124.489 366.694 123.22 365.133 123.22Z" fill="white"/>
<path d="M387.427 109.088V129.177C387.427 131.186 387.92 132.733 388.907 133.817C389.894 134.901 391.343 135.443 393.253 135.443C395.163 135.443 396.628 134.901 397.647 133.817C398.665 132.733 399.175 131.186 399.175 129.177V109.088H407.341V129.13C407.341 132.127 406.704 134.662 405.431 136.735C404.157 138.808 402.438 140.37 400.273 141.422C398.14 142.475 395.752 143.001 393.11 143.001C390.467 143.001 388.096 142.491 385.994 141.47C383.925 140.418 382.285 138.855 381.076 136.783C379.866 134.678 379.261 132.127 379.261 129.13V109.088H387.427Z" fill="white"/>
<path d="M426.972 136.352H437.669V142.666H418.806V109.088H426.972V136.352Z" fill="white"/>
<path d="M471.411 109.088V115.641H462.529V142.666H454.362V115.641H445.48V109.088H471.411Z" fill="white"/>
<path d="M489.406 109.088V142.666H481.24V109.088H489.406Z" fill="white"/>
<path d="M539.02 109.088V142.666H530.854V122.529L523.356 142.666H516.766L509.221 122.481V142.666H501.055V109.088H510.701L520.109 132.334L529.421 109.088H539.02Z" fill="white"/>
<path d="M571.492 136.735H558.98L556.974 142.666H548.426L560.556 109.088H570.011L582.141 142.666H573.498L571.492 136.735ZM569.391 130.421L565.236 118.128L561.129 130.421H569.391Z" fill="white"/>
<path d="M615.68 109.088V115.641H606.797V142.666H598.631V115.641H589.749V109.088H615.68Z" fill="white"/>
<path d="M633.675 115.641V122.433H644.611V128.747H633.675V136.113H646.043V142.666H625.509V109.088H646.043V115.641H633.675Z" fill="white"/>
<path d="M59.2268 49.6954C64.894 50.9043 69.4463 53.7406 72.8838 58.2044C76.3213 62.5751 78.04 67.5969 78.04 73.2695C78.04 81.4531 75.16 87.9627 69.3999 92.7985C63.7327 97.5412 55.7893 99.9126 45.5698 99.9126H0V1.98899H44.0369C53.9777 1.98899 61.7352 4.26736 67.3095 8.82411C72.9767 13.3809 75.8103 19.565 75.8103 27.3766C75.8103 33.1423 74.2774 37.9315 71.2115 41.7443C68.2386 45.5571 64.2436 48.2074 59.2268 49.6954ZM23.8301 41.6048H39.4381C43.3401 41.6048 46.313 40.7678 48.3569 39.0939C50.4938 37.327 51.5621 34.7697 51.5621 31.4219C51.5621 28.074 50.4938 25.5167 48.3569 23.7498C46.313 21.9829 43.3401 21.0994 39.4381 21.0994H23.8301V41.6048ZM41.3891 80.6626C45.384 80.6626 48.4499 79.7792 50.5867 78.0123C52.8164 76.1524 53.9312 73.502 53.9312 70.0612C53.9312 66.6204 52.7699 63.9236 50.4473 61.9707C48.2176 60.0178 45.1053 59.0413 41.1104 59.0413H23.8301V80.6626H41.3891Z" fill="white"/>
<path d="M239.71 99.9126L219.782 69.9217L202.223 99.9126H175.188L206.543 50.1138L174.491 1.98899H202.223L221.873 31.5614L239.153 1.98899H266.188L235.112 51.3693L267.442 99.9126H239.71Z" fill="white"/>
<path d="M303.235 81.4996H334.451V99.9126H279.405V1.98899H303.235V81.4996Z" fill="white"/>
<path d="M406.717 82.6155H370.205L364.352 99.9126H339.407L374.804 1.98899H402.397L437.794 99.9126H412.57L406.717 82.6155ZM400.585 64.2026L388.461 28.353L376.476 64.2026H400.585Z" fill="white"/>
<path d="M536.083 99.9126H512.253L472.397 39.5124V99.9126H448.566V1.98899H472.397L512.253 62.6681V1.98899H536.083V99.9126Z" fill="white"/>
<path d="M618.297 32.9563C616.532 29.7015 613.977 27.2371 610.632 25.5632C607.381 23.7963 603.525 22.9128 599.066 22.9128C591.355 22.9128 585.176 25.4702 580.531 30.5849C575.886 35.6066 573.563 42.3488 573.563 50.8113C573.563 59.8318 575.979 66.8994 580.81 72.0141C585.734 77.0358 592.469 79.5467 601.017 79.5467C606.87 79.5467 611.794 78.0588 615.788 75.083C619.876 72.1071 622.849 67.8293 624.707 62.2497H594.467V44.6736H646.308V66.8529C644.543 72.8046 641.523 78.3378 637.249 83.4525C633.069 88.5672 627.727 92.7055 621.223 95.8673C614.72 99.0291 607.381 100.61 599.205 100.61C589.543 100.61 580.903 98.5177 573.285 94.3329C565.759 90.0551 559.86 84.1499 555.586 76.6174C551.406 69.0848 549.315 60.4828 549.315 50.8113C549.315 41.1398 551.406 32.5378 555.586 25.0052C559.86 17.3796 565.759 11.4745 573.285 7.28969C580.81 3.01193 589.404 0.873047 599.066 0.873047C610.772 0.873047 620.62 3.70939 628.609 9.38208C636.692 15.0548 642.034 22.9128 644.635 32.9563H618.297Z" fill="white"/>
<path d="M119.085 15.1069L128.218 7.53062L128.227 7.52148L128.245 7.53518C128.569 7.58542 128.888 7.63565 129.211 7.69502C148.829 11.5585 161.532 30.4284 157.62 49.7915C153.749 68.9901 134.999 81.4848 115.621 77.973C119.801 77.0368 123.82 75.137 127.331 72.228C139.096 62.4642 140.634 45.1197 130.758 33.4881C125.1 26.8206 116.919 23.4823 108.752 23.6787L119.09 15.1023L119.085 15.1069Z" fill="white"/>
<path d="M87.7269 84.1456C85.906 81.8489 86.1909 78.4203 88.3591 76.4914C90.5272 74.5625 93.7639 74.8643 95.5848 77.1611C97.4057 79.4578 97.1208 82.8864 94.9526 84.8153C92.7844 86.7442 89.5478 86.4424 87.7269 84.1456Z" fill="white"/>
<path d="M138.927 99.2966C122.311 102.549 105.965 97.6614 94.2207 87.4642C94.9061 87.178 95.5634 86.7965 96.1602 86.3014C97.3911 85.293 98.2209 83.994 98.6265 82.595C101.2 84.0348 103.918 85.2612 106.781 86.2151C131.23 94.4046 157.837 81.7183 166.216 57.9037C174.622 34.0845 161.6 8.16229 137.156 0C158.444 3.41572 175.316 19.2906 179.526 39.8622C185.158 67.2015 166.99 93.8005 138.927 99.292V99.2966Z" fill="white"/>
<path d="M653.124 0C654.503 0 655.787 0.512433 656.697 1.49028C657.14 1.93219 657.491 2.49162 657.748 3.09807C658.238 4.33212 658.238 5.70721 657.748 6.91776C657.515 7.52422 657.14 8.08366 656.65 8.52557C656.16 9.01449 655.646 9.36472 654.991 9.62094C654.382 9.85364 653.753 9.99468 653.098 9.99468C652.443 9.99468 651.766 9.87716 651.158 9.59979C650.55 9.32242 649.989 8.94632 649.499 8.48091C648.566 7.55008 648.052 6.31366 648.052 5.03259C648.052 3.75152 648.099 4.14643 648.214 3.70452C648.33 3.26261 648.542 2.81835 648.728 2.47047C649.732 0.933184 651.368 0 653.119 0M653.147 0.83916C652.634 0.83916 652.049 0.909678 651.582 1.11888C651.092 1.32808 650.649 1.60779 650.251 2.00504C649.852 2.40229 649.527 2.89122 649.317 3.38014C648.662 4.89392 648.99 6.71092 650.206 7.87681C650.602 8.2717 651.047 8.59843 651.585 8.80763C652.075 9.01683 652.636 9.13436 653.197 9.13436C653.758 9.13436 654.295 9.01683 654.762 8.80763C655.276 8.59843 655.719 8.29521 656.141 7.92147C656.563 7.54773 656.817 7.12932 657.029 6.59338C657.239 6.10446 657.357 5.59203 657.357 5.03259C657.357 4.47315 657.286 3.91372 657.029 3.37779C656.82 2.86536 656.516 2.42344 656.141 2.0497C655.745 1.6548 655.299 1.32808 654.762 1.11888C654.248 0.980196 653.687 0.83916 653.15 0.83916M651.069 2.14373H653.242C653.85 2.09672 654.479 2.21425 655.016 2.53863C655.412 2.81835 655.625 3.26026 655.625 3.74918C655.625 4.2381 655.507 4.42379 655.297 4.68C655.064 4.95972 654.736 5.12193 654.408 5.19244L655.646 7.68406H654.152L653.1 5.44865H652.424V7.73107H651.092V2.13902H651.069V2.14373ZM652.4 3.02991V4.6377H653.077C653.357 4.68471 653.685 4.5907 653.965 4.42851C654.175 4.31098 654.246 4.05476 654.246 3.82205C654.246 3.58934 654.175 3.33312 653.965 3.16858C653.685 3.00639 653.357 2.93588 653.032 2.95939L652.4 3.02991Z" fill="white"/>
</svg>
