<svg width="247" height="200" viewBox="0 0 247 200" fill="none" xmlns="http://www.w3.org/2000/svg">
<path d="M61.8608 2.38281H185.396C195.41 2.38281 203.54 10.5051 203.54 20.5095V143.926C203.54 153.931 195.41 162.053 185.396 162.053H61.8608C51.8468 162.053 43.7168 153.931 43.7168 143.926V20.5095C43.7168 10.5051 51.8468 2.38281 61.8608 2.38281Z" fill="#343433"/>
<path d="M185.398 4.76505C194.065 4.76505 201.157 11.8498 201.157 20.5092V143.926C201.157 152.586 194.065 159.67 185.398 159.67H61.8628C53.1951 159.67 46.1036 152.586 46.1036 143.926V20.5092C46.1036 11.8498 53.1951 4.76505 61.8628 4.76505H185.398ZM185.398 0H61.8628C50.5437 0 41.334 9.20088 41.334 20.5092V143.926C41.334 155.235 50.5437 164.435 61.8628 164.435H185.398C196.717 164.435 205.926 155.235 205.926 143.926V20.5092C205.926 9.20088 196.717 0 185.398 0Z" fill="white"/>
<path d="M123.632 123.272C123.094 123.272 122.658 122.837 122.658 122.3V116.226C122.658 115.689 123.094 115.254 123.632 115.254C124.169 115.254 124.605 115.689 124.605 116.226V122.3C124.605 122.837 124.169 123.272 123.632 123.272Z" fill="white"/>
<path d="M123.632 49.1784C123.094 49.1784 122.658 48.7431 122.658 48.2059V42.1327C122.658 41.5955 123.094 41.1602 123.632 41.1602C124.169 41.1602 124.605 41.5955 124.605 42.1327V48.2059C124.605 48.7431 124.169 49.1784 123.632 49.1784Z" fill="white"/>
<path d="M150.62 67.4354C150.284 67.4354 149.957 67.2621 149.777 66.9502C149.508 66.4845 149.669 65.8911 150.132 65.6225L157.894 61.1498C158.36 60.8813 158.954 61.0415 159.223 61.505C159.492 61.9707 159.331 62.5642 158.867 62.8328L151.106 67.3054C150.952 67.3942 150.785 67.4354 150.62 67.4354Z" fill="white"/>
<path d="M88.7691 103.03C88.433 103.03 88.1057 102.855 87.9257 102.543C87.659 102.077 87.8195 101.484 88.2856 101.217L95.9733 96.8074C96.4395 96.5432 97.0335 96.7013 97.3001 97.167C97.5668 97.6327 97.4064 98.2261 96.9403 98.4925L89.2525 102.902C89.1008 102.989 88.9338 103.03 88.7691 103.03Z" fill="white"/>
<path d="M158.497 103.037C158.276 103.037 158.074 102.965 157.912 102.842L150.326 98.4772C149.86 98.2086 149.699 97.6152 149.968 97.1517C150.235 96.686 150.831 96.5257 151.295 96.7943L158.981 101.217C159.282 101.39 159.468 101.711 159.468 102.06C159.468 102.597 159.033 103.037 158.495 103.037H158.497Z" fill="white"/>
<path d="M96.6431 67.4223C96.4784 67.4223 96.3114 67.3811 96.1597 67.2923L88.3982 62.8327C87.9321 62.5663 87.7717 61.9706 88.0405 61.5071C88.3093 61.0415 88.9034 60.8812 89.3673 61.1498L97.1288 65.6094C97.5949 65.8758 97.7553 66.4715 97.4865 66.935C97.3065 67.2469 96.9792 67.4223 96.6431 67.4223Z" fill="white"/>
<path d="M89.8117 51.023C89.4756 51.023 89.1483 50.8497 88.9683 50.5378C88.6995 50.0721 88.8599 49.4787 89.3239 49.2101L112.259 35.9936C112.725 35.725 113.319 35.8853 113.588 36.3488C113.857 36.8145 113.697 37.4079 113.233 37.6765L90.2973 50.893C90.1434 50.9818 89.9764 51.023 89.8117 51.023Z" fill="white"/>
<path d="M134.527 128.571C134.19 128.571 133.863 128.398 133.683 128.086C133.414 127.622 133.575 127.027 134.039 126.76L157.037 113.494C157.501 113.225 158.097 113.384 158.366 113.849C158.635 114.313 158.474 114.908 158.01 115.175L135.012 128.441C134.858 128.53 134.691 128.571 134.527 128.571Z" fill="white"/>
<path d="M168.413 96.4461C167.875 96.4461 167.439 96.0107 167.439 95.4736V68.7655C167.439 68.2283 167.875 67.793 168.413 67.793C168.951 67.793 169.386 68.2283 169.386 68.7655V95.4736C169.386 96.0107 168.951 96.4461 168.413 96.4461Z" fill="white"/>
<path d="M78.8387 96.4461C78.301 96.4461 77.8652 96.0107 77.8652 95.4736V68.7655C77.8652 68.2283 78.301 67.793 78.8387 67.793C79.3763 67.793 79.8121 68.2283 79.8121 68.7655V95.4736C79.8121 96.0107 79.3763 96.4461 78.8387 96.4461Z" fill="white"/>
<path d="M112.743 128.57C112.578 128.57 112.411 128.529 112.257 128.44L89.2457 115.185C88.7818 114.916 88.6214 114.323 88.8902 113.857C89.159 113.394 89.7531 113.233 90.2192 113.5L113.23 126.755C113.694 127.024 113.855 127.617 113.586 128.083C113.406 128.395 113.079 128.568 112.743 128.568V128.57Z" fill="white"/>
<path d="M157.441 51.0244C157.276 51.0244 157.11 50.9833 156.956 50.8945L134.033 37.6779C133.567 37.4094 133.409 36.8159 133.678 36.3502C133.947 35.8846 134.543 35.7243 135.007 35.995L157.929 49.2115C158.395 49.4801 158.553 50.0736 158.285 50.5392C158.105 50.8511 157.777 51.0244 157.441 51.0244Z" fill="white"/>
<path d="M98.2355 55.2083C97.8995 55.2083 97.5721 55.0351 97.3921 54.7232C97.1233 54.2575 97.2837 53.664 97.7477 53.3954L111.658 45.3793C112.124 45.1129 112.718 45.271 112.987 45.7345C113.255 46.2002 113.095 46.7937 112.631 47.0623L98.7211 55.0784C98.5672 55.1672 98.4003 55.2083 98.2355 55.2083Z" fill="white"/>
<path d="M135.13 119.179C134.794 119.179 134.467 119.006 134.287 118.694C134.018 118.231 134.178 117.635 134.642 117.369L148.589 109.322C149.053 109.054 149.649 109.212 149.918 109.677C150.187 110.141 150.026 110.737 149.562 111.003L135.616 119.049C135.462 119.138 135.295 119.179 135.13 119.179Z" fill="white"/>
<path d="M160.577 91.2082C160.039 91.2082 159.604 90.7729 159.604 90.2357V74.0389C159.604 73.5018 160.039 73.0664 160.577 73.0664C161.115 73.0664 161.55 73.5018 161.55 74.0389V90.2357C161.55 90.7729 161.115 91.2082 160.577 91.2082Z" fill="white"/>
<path d="M86.6746 91.2082C86.1369 91.2082 85.7012 90.7729 85.7012 90.2357V74.0389C85.7012 73.5018 86.1369 73.0664 86.6746 73.0664C87.2123 73.0664 87.648 73.5018 87.648 74.0389V90.2357C87.648 90.7729 87.2123 91.2082 86.6746 91.2082Z" fill="white"/>
<path d="M112.13 119.181C111.965 119.181 111.798 119.14 111.645 119.051L97.6891 111.014C97.2252 110.745 97.0647 110.152 97.3335 109.686C97.6024 109.22 98.1964 109.062 98.6625 109.328L112.618 117.366C113.082 117.635 113.242 118.228 112.974 118.694C112.794 119.006 112.466 119.179 112.13 119.179V119.181Z" fill="white"/>
<path d="M149.018 55.2068C148.853 55.2068 148.686 55.1657 148.532 55.0769L134.631 47.0608C134.165 46.7922 134.007 46.1987 134.275 45.733C134.544 45.2674 135.138 45.1071 135.604 45.3778L149.506 53.3939C149.972 53.6625 150.13 54.256 149.861 54.7217C149.681 55.0336 149.354 55.2068 149.018 55.2068Z" fill="white"/>
<path d="M168.418 116.046C164.006 116.046 160.416 112.459 160.416 108.049C160.416 103.639 164.006 100.055 168.418 100.055C172.83 100.055 176.42 103.641 176.42 108.049C176.42 112.457 172.83 116.046 168.418 116.046ZM168.418 102C165.077 102 162.361 104.714 162.361 108.051C162.361 111.389 165.077 114.103 168.418 114.103C171.759 114.103 174.476 111.389 174.476 108.051C174.476 104.714 171.759 102 168.418 102Z" fill="white"/>
<path d="M168.416 111.833C166.331 111.833 164.631 110.137 164.631 108.051C164.631 105.965 166.328 104.27 168.416 104.27C170.504 104.27 172.202 105.965 172.202 108.051C172.202 110.137 170.504 111.833 168.416 111.833ZM168.416 106.212C167.402 106.212 166.576 107.038 166.576 108.051C166.576 109.065 167.402 109.89 168.416 109.89C169.431 109.89 170.255 109.065 170.255 108.051C170.255 107.038 169.429 106.212 168.416 106.212Z" fill="white"/>
<path d="M123.631 141.876C119.219 141.876 115.629 138.289 115.629 133.881C115.629 129.474 119.219 125.887 123.631 125.887C128.043 125.887 131.633 129.474 131.633 133.881C131.633 138.289 128.043 141.876 123.631 141.876ZM123.631 127.83C120.29 127.83 117.574 130.543 117.574 133.881C117.574 137.219 120.29 139.933 123.631 139.933C126.972 139.933 129.688 137.219 129.688 133.881C129.688 130.543 126.972 127.83 123.631 127.83Z" fill="white"/>
<path d="M123.631 137.665C121.543 137.665 119.846 135.969 119.846 133.883C119.846 131.797 121.543 130.102 123.631 130.102C125.719 130.102 127.416 131.797 127.416 133.883C127.416 135.969 125.719 137.665 123.631 137.665ZM123.631 132.047C122.616 132.047 121.79 132.872 121.79 133.885C121.79 134.899 122.616 135.724 123.631 135.724C124.646 135.724 125.47 134.899 125.47 133.885C125.47 132.872 124.643 132.047 123.631 132.047Z" fill="white"/>
<path d="M123.631 38.5475C119.219 38.5475 115.629 34.9607 115.629 30.553C115.629 26.1454 119.219 22.5586 123.631 22.5586C128.043 22.5586 131.633 26.1454 131.633 30.553C131.633 34.9607 128.043 38.5475 123.631 38.5475ZM123.631 24.4993C120.29 24.4993 117.574 27.2132 117.574 30.5509C117.574 33.8886 120.29 36.6025 123.631 36.6025C126.972 36.6025 129.688 33.8886 129.688 30.5509C129.688 27.2132 126.972 24.4993 123.631 24.4993Z" fill="white"/>
<path d="M123.631 34.333C121.543 34.333 119.846 32.637 119.846 30.5513C119.846 28.4655 121.543 26.7695 123.631 26.7695C125.719 26.7695 127.416 28.4655 127.416 30.5513C127.416 32.637 125.719 34.333 123.631 34.333ZM123.631 28.7145C122.616 28.7145 121.79 29.5398 121.79 30.5534C121.79 31.5671 122.616 32.3901 123.631 32.3901C124.646 32.3901 125.47 31.5649 125.47 30.5534C125.47 29.5419 124.643 28.7145 123.631 28.7145Z" fill="white"/>
<path d="M168.418 64.1881C164.006 64.1881 160.416 60.6013 160.416 56.1937C160.416 51.786 164.006 48.1992 168.418 48.1992C172.83 48.1992 176.42 51.786 176.42 56.1937C176.42 60.6013 172.83 64.1881 168.418 64.1881ZM168.418 50.1421C165.077 50.1421 162.361 52.856 162.361 56.1937C162.361 59.5314 165.077 62.2453 168.418 62.2453C171.759 62.2453 174.476 59.5314 174.476 56.1937C174.476 52.856 171.759 50.1421 168.418 50.1421Z" fill="white"/>
<path d="M168.416 59.9736C166.331 59.9736 164.631 58.2777 164.631 56.1919C164.631 54.1061 166.328 52.4102 168.416 52.4102C170.504 52.4102 172.202 54.1061 172.202 56.1919C172.202 58.2777 170.504 59.9736 168.416 59.9736ZM168.416 54.353C167.402 54.353 166.576 55.1782 166.576 56.1919C166.576 57.2055 167.402 58.0307 168.416 58.0307C169.431 58.0307 170.255 57.2055 170.255 56.1919C170.255 55.1782 169.429 54.353 168.416 54.353Z" fill="white"/>
<path d="M78.8419 116.046C74.4301 116.046 70.8398 112.459 70.8398 108.049C70.8398 103.639 74.4301 100.055 78.8419 100.055C83.2538 100.055 86.844 103.641 86.844 108.049C86.844 112.457 83.2538 116.046 78.8419 116.046ZM78.8419 102C75.501 102 72.7845 104.714 72.7845 108.051C72.7845 111.389 75.501 114.103 78.8419 114.103C82.1828 114.103 84.8993 111.389 84.8993 108.051C84.8993 104.714 82.1828 102 78.8419 102Z" fill="white"/>
<path d="M78.842 111.833C76.7564 111.833 75.0566 110.137 75.0566 108.051C75.0566 105.965 76.7542 104.27 78.842 104.27C80.9298 104.27 82.6273 105.965 82.6273 108.051C82.6273 110.137 80.9298 111.833 78.842 111.833ZM78.842 106.212C77.8274 106.212 77.0013 107.038 77.0013 108.051C77.0013 109.065 77.8274 109.89 78.842 109.89C79.8566 109.89 80.6804 109.065 80.6804 108.051C80.6804 107.038 79.8544 106.212 78.842 106.212Z" fill="white"/>
<path d="M78.8419 64.1881C74.4301 64.1881 70.8398 60.6013 70.8398 56.1937C70.8398 51.786 74.4301 48.1992 78.8419 48.1992C83.2538 48.1992 86.844 51.786 86.844 56.1937C86.844 60.6013 83.2538 64.1881 78.8419 64.1881ZM78.8419 50.1421C75.501 50.1421 72.7845 52.856 72.7845 56.1937C72.7845 59.5314 75.501 62.2453 78.8419 62.2453C82.1828 62.2453 84.8993 59.5314 84.8993 56.1937C84.8993 52.856 82.1828 50.1421 78.8419 50.1421Z" fill="white"/>
<path d="M78.842 59.9736C76.7564 59.9736 75.0566 58.2777 75.0566 56.1919C75.0566 54.1061 76.7542 52.4102 78.842 52.4102C80.9298 52.4102 82.6273 54.1061 82.6273 56.1919C82.6273 58.2777 80.9298 59.9736 78.842 59.9736ZM78.842 54.353C77.8274 54.353 77.0013 55.1782 77.0013 56.1919C77.0013 57.2055 77.8274 58.0307 78.842 58.0307C79.8566 58.0307 80.6804 57.2055 80.6804 56.1919C80.6804 55.1782 79.8544 54.353 78.842 54.353Z" fill="white"/>
<path d="M147.394 95.9232V68.509L123.631 54.8008L99.8652 68.509V95.9232L123.631 109.631L147.394 95.9232Z" fill="#33CFFF"/>
<path d="M133.831 79.5425H126.386L132.519 63.6836L113.43 84.9401H120.896L114.78 100.754L133.831 79.5425Z" fill="white"/>
<g style="mix-blend-mode:screen">
<path d="M129.694 67.5977L129.238 68.15L128.777 68.6979L127.855 69.7939C127.235 70.5195 126.615 71.2451 125.991 71.9663C125.369 72.6898 124.738 73.4045 124.109 74.1236L122.214 76.27L120.304 78.4035C119.662 79.1096 119.027 79.8222 118.381 80.5239C117.737 81.23 117.091 81.9296 116.441 82.6292L115.461 83.6732L114.971 84.1952L114.477 84.7128L114.932 84.1605L115.394 83.6126L116.315 82.5166C116.935 81.791 117.555 81.0654 118.18 80.3442C118.802 79.6207 119.433 78.906 120.061 78.1869L121.956 76.0426L123.866 73.9092C124.508 73.2031 125.143 72.4927 125.791 71.7887C126.435 71.0826 127.081 70.383 127.732 69.6834L128.712 68.6395L129.202 68.1175L129.696 67.5998L129.694 67.5977Z" fill="#343433"/>
</g>
<path opacity="0.25" d="M126.385 79.5425L132.518 63.6836L121.561 81.9186H127.972L114.779 100.754L133.83 79.5425H126.385Z" fill="#33CFFF"/>
<g style="mix-blend-mode:screen">
<path d="M126.145 79.9849C126.736 79.9091 127.328 79.8679 127.918 79.8419C128.51 79.8159 129.102 79.8008 129.691 79.8008C130.283 79.8008 130.875 79.8138 131.465 79.8419C132.057 79.8701 132.649 79.9091 133.238 79.987C132.646 80.065 132.054 80.104 131.465 80.1322C130.873 80.1582 130.281 80.1733 129.691 80.1733C129.1 80.1733 128.508 80.1603 127.918 80.1322C127.326 80.104 126.734 80.065 126.145 79.9892V79.9849Z" fill="#343433"/>
</g>
<path d="M0 172.667C0 166.776 4.77563 162 10.6667 162H236C241.891 162 246.667 166.776 246.667 172.667V189.333C246.667 195.224 241.891 200 236 200H10.6667C4.77563 200 0 195.224 0 189.333V172.667Z" fill="white"/>
<g clip-path="url(#clip0_916_6355)">
<path d="M12.9248 174.237C13.9853 172.294 15.4636 170.783 17.3597 169.698C19.259 168.613 21.409 168.07 23.8129 168.07C26.7598 168.07 29.2794 168.857 31.378 170.429C33.4765 172.001 34.8777 174.146 35.5847 176.862H28.9387C28.4438 175.812 27.7432 175.016 26.837 174.467C25.9307 173.918 24.8991 173.645 23.7454 173.645C21.8846 173.645 20.3742 174.302 19.2205 175.611C18.0667 176.92 17.4883 178.671 17.4883 180.864C17.4883 183.057 18.0667 184.808 19.2205 186.118C20.3742 187.427 21.8846 188.083 23.7454 188.083C24.8991 188.083 25.9307 187.81 26.837 187.261C27.7432 186.712 28.447 185.916 28.9387 184.867H35.5847C34.8777 187.583 33.4765 189.721 31.378 191.283C29.2794 192.843 26.7598 193.626 23.8129 193.626C21.409 193.626 19.259 193.083 17.3629 192.001C15.4668 190.916 13.9853 189.412 12.928 187.479C11.8642 185.546 11.334 183.343 11.334 180.864C11.334 178.385 11.8642 176.176 12.9248 174.233V174.237Z" fill="#343433"/>
<path d="M57.7841 182.741C58.6551 183.872 59.0921 185.165 59.0921 186.62C59.0921 188.716 58.369 190.379 56.9197 191.604C55.4703 192.832 53.4488 193.446 50.8586 193.446H39.2988V168.355H50.4697C52.9925 168.355 54.9657 168.94 56.3894 170.107C57.8163 171.273 58.5297 172.858 58.5297 174.86C58.5297 176.338 58.1473 177.563 57.3824 178.541C56.6176 179.518 55.5988 180.197 54.3262 180.578C55.7627 180.886 56.9197 181.607 57.7906 182.738L57.7841 182.741ZM45.3406 178.505H49.2999C50.2897 178.505 51.0514 178.284 51.5785 177.845C52.1087 177.403 52.3755 176.754 52.3755 175.896C52.3755 175.038 52.1119 174.382 51.5785 173.93C51.0482 173.479 50.2897 173.251 49.2999 173.251H45.3406V178.505ZM52.1441 187.816C52.6968 187.351 52.9732 186.679 52.9732 185.798C52.9732 184.918 52.684 184.226 52.1087 183.726C51.5302 183.225 50.7365 182.975 49.7209 182.975H45.3374V188.514H49.7916C50.8039 188.514 51.5881 188.284 52.1409 187.816H52.1441Z" fill="#343433"/>
<path d="M80.4455 168.355V173.251H73.8703V193.443H67.8253V173.251H61.25V168.355H80.4455Z" fill="#343433"/>
<path d="M98.9339 189.012H89.6719L88.1872 193.443H81.8594L90.8385 168.355H97.838L106.817 193.443H100.419L98.9339 189.012ZM97.3784 184.294L94.3029 175.11L91.2627 184.294H97.3784Z" fill="#343433"/>
<path d="M113.64 192.802C112.203 192.207 111.053 191.323 110.191 190.157C109.33 188.991 108.877 187.584 108.832 185.94H115.266C115.359 186.869 115.677 187.577 116.22 188.065C116.763 188.552 117.471 188.796 118.341 188.796C119.212 188.796 119.945 188.588 120.462 188.172C120.98 187.756 121.24 187.178 121.24 186.44C121.24 185.82 121.035 185.31 120.62 184.904C120.209 184.498 119.701 184.166 119.1 183.903C118.499 183.64 117.644 183.344 116.539 183.01C114.935 182.509 113.627 182.009 112.615 181.509C111.602 181.008 110.728 180.271 109.999 179.293C109.269 178.315 108.903 177.042 108.903 175.469C108.903 173.133 109.738 171.307 111.413 169.985C113.087 168.663 115.266 168 117.953 168C120.639 168 122.889 168.663 124.563 169.985C126.238 171.307 127.131 173.146 127.25 175.508H120.71C120.662 174.699 120.369 174.059 119.826 173.594C119.283 173.13 118.589 172.899 117.74 172.899C117.011 172.899 116.42 173.097 115.973 173.491C115.526 173.884 115.301 174.449 115.301 175.186C115.301 175.995 115.677 176.629 116.432 177.08C117.188 177.532 118.364 178.023 119.968 178.546C121.571 179.095 122.873 179.618 123.875 180.118C124.878 180.618 125.743 181.346 126.472 182.298C127.202 183.25 127.568 184.478 127.568 185.979C127.568 187.48 127.208 188.708 126.491 189.874C125.772 191.041 124.73 191.97 123.364 192.662C121.999 193.354 120.382 193.698 118.521 193.698C116.661 193.698 115.08 193.399 113.643 192.805L113.64 192.802Z" fill="#343433"/>
<path d="M145.667 193.443L137.324 182.364V193.443H131.279V168.355H137.324V179.363L145.596 168.355H152.702L143.086 180.649L153.055 193.443H145.667Z" fill="#343433"/>
<path d="M160.021 192.802C158.584 192.207 157.434 191.323 156.572 190.157C155.711 188.991 155.258 187.584 155.213 185.94H161.647C161.74 186.869 162.058 187.577 162.601 188.065C163.144 188.552 163.851 188.796 164.722 188.796C165.593 188.796 166.326 188.588 166.843 188.172C167.361 187.756 167.621 187.178 167.621 186.44C167.621 185.82 167.415 185.31 167.001 184.904C166.589 184.498 166.082 184.166 165.481 183.903C164.88 183.64 164.025 183.344 162.919 183.01C161.316 182.509 160.008 182.009 158.995 181.509C157.983 181.008 157.109 180.271 156.379 179.293C155.65 178.315 155.284 177.042 155.284 175.469C155.284 173.133 156.119 171.307 157.794 169.985C159.468 168.663 161.647 168 164.333 168C167.02 168 169.27 168.663 170.944 169.985C172.618 171.307 173.512 173.146 173.631 175.508H167.091C167.043 174.699 166.75 174.059 166.207 173.594C165.664 173.13 164.97 172.899 164.121 172.899C163.392 172.899 162.8 173.097 162.354 173.491C161.907 173.884 161.682 174.449 161.682 175.186C161.682 175.995 162.058 176.629 162.813 177.08C163.569 177.532 164.745 178.023 166.348 178.546C167.952 179.095 169.254 179.618 170.256 180.118C171.259 180.618 172.123 181.346 172.853 182.298C173.583 183.25 173.949 184.478 173.949 185.979C173.949 187.48 173.589 188.708 172.872 189.874C172.152 191.041 171.111 191.97 169.745 192.662C168.379 193.354 166.763 193.698 164.902 193.698C163.042 193.698 161.46 193.399 160.024 192.805L160.021 192.802Z" fill="#343433"/>
<path d="M206.644 168.355V193.443H200.599V183.115H191.195V193.443H185.15V168.355H191.195V178.183H200.599V168.355H206.644Z" fill="#343433"/>
<path d="M228.669 197.733L225.487 193.409C224.545 193.601 223.626 193.695 222.73 193.695C220.397 193.695 218.256 193.146 216.312 192.051C214.368 190.956 212.825 189.426 211.681 187.461C210.537 185.495 209.965 183.286 209.965 180.83C209.965 178.374 210.537 176.171 211.681 174.218C212.825 172.266 214.368 170.739 216.312 169.644C218.256 168.549 220.397 168 222.73 168C225.063 168 227.2 168.549 229.144 169.644C231.089 170.739 232.622 172.266 233.74 174.218C234.858 176.171 235.421 178.377 235.421 180.83C235.421 182.974 234.99 184.933 234.129 186.707C233.268 188.481 232.072 189.952 230.539 191.119L235.983 197.73H228.665L228.669 197.733ZM217.941 186.138C219.13 187.461 220.728 188.123 222.733 188.123C224.738 188.123 226.297 187.457 227.486 186.122C228.675 184.787 229.27 183.026 229.27 180.833C229.27 178.64 228.675 176.85 227.486 175.528C226.297 174.205 224.709 173.546 222.733 173.546C220.757 173.546 219.134 174.202 217.941 175.511C216.752 176.821 216.154 178.598 216.154 180.836C216.154 183.075 216.749 184.819 217.941 186.141V186.138Z" fill="#343433"/>
</g>
<defs>
<clipPath id="clip0_916_6355">
<rect width="224.652" height="29.7333" fill="white" transform="translate(11.334 168)"/>
</clipPath>
</defs>
</svg>
