<svg width="221" height="250" viewBox="0 0 221 250" fill="none" xmlns="http://www.w3.org/2000/svg">
<g clip-path="url(#clip0_916_6417)">
<path d="M110.506 211.015C109.385 211.015 108.469 210.104 108.469 208.977V196.252C108.469 195.126 109.38 194.215 110.506 194.215C111.633 194.215 112.544 195.126 112.544 196.252V208.977C112.544 210.104 111.633 211.015 110.506 211.015Z" fill="white"/>
<path d="M110.506 55.7846C109.385 55.7846 108.469 54.8736 108.469 53.747V41.022C108.469 39.9003 109.38 38.9844 110.506 38.9844C111.633 38.9844 112.544 39.8954 112.544 41.022V53.747C112.544 54.8687 111.633 55.7846 110.506 55.7846Z" fill="white"/>
<path d="M166.997 94.0313C166.292 94.0313 165.611 93.664 165.234 93.0126C164.671 92.0378 165.009 90.7938 165.978 90.2305L182.226 80.8606C183.2 80.3022 184.444 80.6353 185.008 81.6051C185.571 82.5798 185.233 83.8239 184.263 84.3871L168.016 93.7571C167.698 93.9432 167.345 94.0313 167.002 94.0313H166.997Z" fill="white"/>
<path d="M37.529 168.611C36.8237 168.611 36.1379 168.244 35.7608 167.588C35.2024 166.613 35.5355 165.369 36.5102 164.811L52.6007 155.573C53.5754 155.019 54.8195 155.348 55.3779 156.327C55.9363 157.302 55.6032 158.546 54.6285 159.104L38.538 168.342C38.2197 168.523 37.8719 168.611 37.5241 168.611H37.529Z" fill="white"/>
<path d="M183.486 168.618C183.025 168.618 182.599 168.466 182.256 168.211L166.381 159.067C165.407 158.503 165.073 157.259 165.632 156.289C166.19 155.315 167.439 154.982 168.409 155.54L184.5 164.807C185.131 165.17 185.518 165.846 185.518 166.57C185.518 167.697 184.607 168.618 183.481 168.618H183.486Z" fill="white"/>
<path d="M54.0174 94.004C53.6745 94.004 53.3219 93.9158 53.0035 93.7346L36.7563 84.3891C35.7816 83.8308 35.4485 82.5867 36.0069 81.612C36.5653 80.6373 37.8094 80.2993 38.7841 80.8626L55.0313 90.208C56.0061 90.7664 56.3391 92.0105 55.7807 92.9852C55.4036 93.6415 54.7178 94.004 54.0174 94.004Z" fill="white"/>
<path d="M39.7101 59.6507C39.0047 59.6507 38.3239 59.2834 37.9467 58.6319C37.3834 57.6572 37.7214 56.4131 38.6912 55.8499L86.6981 28.1613C87.6728 27.603 88.917 27.936 89.4802 28.9058C90.0435 29.8805 89.7056 31.1246 88.7357 31.6879L40.7289 59.3764C40.4105 59.5626 40.0578 59.6507 39.715 59.6507H39.7101Z" fill="white"/>
<path d="M133.309 222.112C132.603 222.112 131.923 221.75 131.545 221.094C130.982 220.119 131.315 218.875 132.29 218.316L180.429 190.52C181.404 189.957 182.648 190.29 183.211 191.265C183.775 192.234 183.441 193.483 182.467 194.042L134.328 221.838C134.009 222.024 133.657 222.112 133.314 222.112H133.309Z" fill="white"/>
<path d="M204.239 154.812C203.117 154.812 202.201 153.901 202.201 152.775V96.8149C202.201 95.6933 203.112 94.7773 204.239 94.7773C205.365 94.7773 206.276 95.6884 206.276 96.8149V152.775C206.276 153.901 205.365 154.812 204.239 154.812Z" fill="white"/>
<path d="M16.7427 154.812C15.621 154.812 14.7051 153.901 14.7051 152.775V96.8149C14.7051 95.6933 15.6161 94.7773 16.7427 94.7773C17.8693 94.7773 18.7803 95.6884 18.7803 96.8149V152.775C18.7803 153.901 17.8693 154.812 16.7427 154.812Z" fill="white"/>
<path d="M87.7077 222.117C87.3599 222.117 87.0122 222.029 86.6938 221.848L38.5302 194.076C37.5555 193.513 37.2224 192.269 37.7857 191.294C38.3441 190.324 39.5931 189.991 40.5678 190.545L88.7314 218.316C89.7062 218.88 90.0392 220.124 89.4759 221.099C89.0988 221.75 88.4131 222.117 87.7126 222.117H87.7077Z" fill="white"/>
<path d="M181.276 59.6501C180.929 59.6501 180.581 59.5619 180.263 59.3758L132.28 31.6873C131.305 31.124 130.972 29.8799 131.536 28.9052C132.099 27.9305 133.343 27.5974 134.318 28.1607L182.3 55.8492C183.275 56.4125 183.608 57.6566 183.045 58.6313C182.668 59.2827 181.982 59.6501 181.281 59.6501H181.276Z" fill="white"/>
<path d="M57.3429 68.4167C56.6375 68.4167 55.9567 68.0493 55.5795 67.3979C55.0163 66.4232 55.3542 65.1791 56.3241 64.6158L85.4387 47.8254C86.4134 47.267 87.6576 47.6001 88.2209 48.5699C88.7842 49.5446 88.4462 50.7887 87.4763 51.352L58.3617 68.1424C58.0433 68.3285 57.6906 68.4167 57.3478 68.4167H57.3429Z" fill="white"/>
<path d="M134.572 202.437C133.867 202.437 133.186 202.074 132.809 201.418C132.246 200.448 132.579 199.199 133.554 198.641L162.747 181.782C163.721 181.219 164.966 181.552 165.529 182.526C166.092 183.501 165.759 184.745 164.784 185.303L135.591 202.162C135.273 202.349 134.92 202.437 134.577 202.437H134.572Z" fill="white"/>
<path d="M187.835 143.834C186.713 143.834 185.797 142.923 185.797 141.796V107.858C185.797 106.736 186.708 105.82 187.835 105.82C188.961 105.82 189.872 106.731 189.872 107.858V141.796C189.872 142.923 188.961 143.834 187.835 143.834Z" fill="white"/>
<path d="M33.1509 143.834C32.0292 143.834 31.1133 142.923 31.1133 141.796V107.858C31.1133 106.736 32.0243 105.82 33.1509 105.82C34.2775 105.82 35.1885 106.731 35.1885 107.858V141.796C35.1885 142.923 34.2775 143.834 33.1509 143.834Z" fill="white"/>
<path d="M86.4276 202.44C86.0799 202.44 85.7321 202.352 85.4137 202.17L56.206 185.331C55.2313 184.768 54.8982 183.524 55.4615 182.549C56.0248 181.574 57.2689 181.246 58.2436 181.8L87.4513 198.639C88.4261 199.202 88.7591 200.446 88.1959 201.421C87.8187 202.073 87.133 202.44 86.4325 202.44H86.4276Z" fill="white"/>
<path d="M163.642 68.416C163.294 68.416 162.947 68.3279 162.628 68.1417L133.528 51.3513C132.554 50.788 132.22 49.5439 132.784 48.5692C133.347 47.5945 134.591 47.2615 135.566 47.8247L164.666 64.6152C165.641 65.1784 165.974 66.4225 165.41 67.3972C165.033 68.0487 164.347 68.416 163.647 68.416H163.642Z" fill="white"/>
<path d="M204.248 195.877C195.01 195.877 187.496 188.364 187.496 179.126C187.496 169.889 195.01 162.375 204.248 162.375C213.486 162.375 220.999 169.889 220.999 179.126C220.999 188.364 213.486 195.877 204.248 195.877ZM204.248 166.445C197.253 166.445 191.566 172.132 191.566 179.126C191.566 186.121 197.253 191.807 204.248 191.807C211.242 191.807 216.929 186.121 216.929 179.126C216.929 172.132 211.242 166.445 204.248 166.445Z" fill="white"/>
<path d="M204.248 187.047C199.879 187.047 196.328 183.491 196.328 179.127C196.328 174.763 199.884 171.207 204.248 171.207C208.613 171.207 212.169 174.763 212.169 179.127C212.169 183.491 208.613 187.047 204.248 187.047ZM204.248 175.277C202.123 175.277 200.398 177.006 200.398 179.127C200.398 181.248 202.128 182.977 204.248 182.977C206.369 182.977 208.098 181.248 208.098 179.127C208.098 177.006 206.369 175.277 204.248 175.277Z" fill="white"/>
<path d="M110.502 249.999C101.264 249.999 93.75 242.485 93.75 233.247C93.75 224.01 101.264 216.496 110.502 216.496C119.74 216.496 127.253 224.01 127.253 233.247C127.253 242.485 119.74 249.999 110.502 249.999ZM110.502 220.571C103.507 220.571 97.8204 226.258 97.8204 233.252C97.8204 240.247 103.507 245.933 110.502 245.933C117.496 245.933 123.183 240.247 123.183 233.252C123.183 226.258 117.496 220.571 110.502 220.571Z" fill="white"/>
<path d="M110.502 241.172C106.133 241.172 102.582 237.616 102.582 233.252C102.582 228.888 106.138 225.332 110.502 225.332C114.867 225.332 118.423 228.888 118.423 233.252C118.423 237.616 114.867 241.172 110.502 241.172ZM110.502 229.397C108.377 229.397 106.652 231.126 106.652 233.247C106.652 235.368 108.381 237.097 110.502 237.097C112.623 237.097 114.352 235.368 114.352 233.247C114.352 231.126 112.623 229.397 110.502 229.397Z" fill="white"/>
<path d="M110.502 33.5025C101.264 33.5025 93.75 25.9889 93.75 16.7512C93.75 7.51357 101.264 0 110.502 0C119.74 0 127.253 7.51357 127.253 16.7512C127.253 25.9889 119.74 33.5025 110.502 33.5025ZM110.502 4.07026C103.507 4.07026 97.8204 9.75686 97.8204 16.7512C97.8204 23.7456 103.507 29.4322 110.502 29.4322C117.496 29.4322 123.183 23.7456 123.183 16.7512C123.183 9.75686 117.496 4.07026 110.502 4.07026Z" fill="white"/>
<path d="M110.502 24.6722C106.133 24.6722 102.582 21.1163 102.582 16.7521C102.582 12.388 106.138 8.83203 110.502 8.83203C114.867 8.83203 118.423 12.388 118.423 16.7521C118.423 21.1163 114.867 24.6722 110.502 24.6722ZM110.502 12.9023C108.377 12.9023 106.652 14.6313 106.652 16.7521C106.652 18.873 108.381 20.602 110.502 20.602C112.623 20.602 114.352 18.873 114.352 16.7521C114.352 14.6313 112.623 12.9023 110.502 12.9023Z" fill="white"/>
<path d="M204.248 87.229C195.01 87.229 187.496 79.7155 187.496 70.4778C187.496 61.2401 195.01 53.7266 204.248 53.7266C213.486 53.7266 220.999 61.2401 220.999 70.4778C220.999 79.7155 213.486 87.229 204.248 87.229ZM204.248 57.8017C197.253 57.8017 191.566 63.4883 191.566 70.4827C191.566 77.4771 197.253 83.1637 204.248 83.1637C211.242 83.1637 216.929 77.4771 216.929 70.4827C216.929 63.4883 211.242 57.8017 204.248 57.8017Z" fill="white"/>
<path d="M204.248 78.4027C199.879 78.4027 196.328 74.8467 196.328 70.4826C196.328 66.1185 199.884 62.5625 204.248 62.5625C208.613 62.5625 212.169 66.1185 212.169 70.4826C212.169 74.8467 208.613 78.4027 204.248 78.4027ZM204.248 66.6279C202.123 66.6279 200.398 68.3569 200.398 70.4777C200.398 72.5985 202.128 74.3275 204.248 74.3275C206.369 74.3275 208.098 72.5985 208.098 70.4777C208.098 68.3569 206.369 66.6279 204.248 66.6279Z" fill="white"/>
<path d="M16.7517 195.877C7.51377 195.877 0 188.364 0 179.126C0 169.889 7.51377 162.375 16.7517 162.375C25.9896 162.375 33.5034 169.889 33.5034 179.126C33.5034 188.364 25.9896 195.877 16.7517 195.877ZM16.7517 166.445C9.75713 166.445 4.07037 172.132 4.07037 179.126C4.07037 186.121 9.75713 191.807 16.7517 191.807C23.7463 191.807 29.433 186.121 29.433 179.126C29.433 172.132 23.7463 166.445 16.7517 166.445Z" fill="white"/>
<path d="M16.7524 187.047C12.3832 187.047 8.83203 183.491 8.83203 179.127C8.83203 174.763 12.3881 171.207 16.7524 171.207C21.1166 171.207 24.6727 174.763 24.6727 179.127C24.6727 183.491 21.1166 187.047 16.7524 187.047ZM16.7524 175.277C14.6266 175.277 12.9024 177.006 12.9024 179.127C12.9024 181.248 14.6315 182.977 16.7524 182.977C18.8733 182.977 20.6023 181.248 20.6023 179.127C20.6023 177.006 18.8733 175.277 16.7524 175.277Z" fill="white"/>
<path d="M16.7517 87.229C7.51377 87.229 0 79.7155 0 70.4778C0 61.2401 7.51377 53.7266 16.7517 53.7266C25.9896 53.7266 33.5034 61.2401 33.5034 70.4778C33.5034 79.7155 25.9896 87.229 16.7517 87.229ZM16.7517 57.8017C9.75713 57.8017 4.07037 63.4883 4.07037 70.4827C4.07037 77.4771 9.75713 83.1637 16.7517 83.1637C23.7463 83.1637 29.433 77.4771 29.433 70.4827C29.433 63.4883 23.7463 57.8017 16.7517 57.8017Z" fill="white"/>
<path d="M16.7524 78.4027C12.3832 78.4027 8.83203 74.8467 8.83203 70.4826C8.83203 66.1185 12.3881 62.5625 16.7524 62.5625C21.1166 62.5625 24.6727 66.1185 24.6727 70.4826C24.6727 74.8467 21.1166 78.4027 16.7524 78.4027ZM16.7524 66.6279C14.6266 66.6279 12.9024 68.3569 12.9024 70.4777C12.9024 72.5985 14.6315 74.3275 16.7524 74.3275C18.8733 74.3275 20.6023 72.5985 20.6023 70.4777C20.6023 68.3569 18.8733 66.6279 16.7524 66.6279Z" fill="white"/>
<path d="M160.242 153.719V96.2796L110.502 67.5625L60.7559 96.2796V153.719L110.502 182.436L160.242 153.719Z" fill="#33CFFF"/>
<path d="M131.853 119.392H116.271L129.105 86.1641L89.1504 130.702H104.78L91.9815 163.832L131.853 119.392Z" fill="white"/>
<g style="mix-blend-mode:screen">
<path d="M123.198 94.3672L122.243 95.5231L121.278 96.6693L119.349 98.9664C118.05 100.49 116.752 102.008 115.445 103.517C114.142 105.035 112.819 106.534 111.507 108.038L107.539 112.534L103.542 117.001C102.2 118.48 100.868 119.969 99.5159 121.443C98.1689 122.923 96.8121 124.387 95.4553 125.857L93.403 128.041L92.3743 129.133L91.3359 130.216L92.2911 129.06L93.256 127.914L95.1859 125.617C96.4839 124.093 97.7819 122.575 99.0897 121.066C100.393 119.548 101.715 118.054 103.028 116.545L106.995 112.049L110.992 107.582C112.334 106.103 113.667 104.614 115.019 103.14C116.366 101.66 117.722 100.196 119.079 98.7264L121.131 96.5419L122.16 95.4497L123.198 94.3672Z" fill="#30302F"/>
</g>
<path opacity="0.25" d="M116.272 119.392L129.106 86.1641L106.172 124.369H119.593L91.9824 163.832L131.853 119.392H116.272Z" fill="#33CFFF"/>
<g style="mix-blend-mode:screen">
<path d="M115.768 120.322C117.007 120.16 118.246 120.077 119.48 120.018C120.72 119.959 121.959 119.93 123.193 119.93C124.432 119.93 125.672 119.959 126.906 120.013C128.145 120.072 129.384 120.155 130.619 120.317C129.38 120.478 128.14 120.562 126.906 120.62C125.667 120.674 124.428 120.708 123.193 120.704C121.954 120.704 120.715 120.674 119.48 120.615C118.241 120.557 117.002 120.473 115.768 120.312V120.322Z" fill="#30302F"/>
</g>
</g>
<defs>
<clipPath id="clip0_916_6417">
<rect width="221" height="250" fill="white"/>
</clipPath>
</defs>
</svg>
