<svg width="740" height="600" viewBox="0 0 740 600" fill="none" xmlns="http://www.w3.org/2000/svg">
<path d="M185.584 7.14844H556.189C586.231 7.14844 610.621 31.5152 610.621 61.5285V431.779C610.621 461.793 586.231 486.159 556.189 486.159H185.584C155.542 486.159 131.152 461.793 131.152 431.779V61.5285C131.152 31.5152 155.542 7.14844 185.584 7.14844Z" fill="#343433"/>
<path d="M556.191 14.2952C582.194 14.2952 603.469 35.5494 603.469 61.5276V431.779C603.469 457.757 582.194 479.011 556.191 479.011H185.586C159.583 479.011 138.309 457.757 138.309 431.779V61.5276C138.309 35.5494 159.583 14.2952 185.586 14.2952H556.191ZM556.191 0H185.586C151.629 0 124 27.6026 124 61.5276V431.779C124 465.704 151.629 493.306 185.586 493.306H556.191C590.148 493.306 617.777 465.704 617.777 431.779V61.5276C617.777 27.6026 590.148 0 556.191 0Z" fill="white"/>
<path d="M370.897 369.82C369.284 369.82 367.977 368.514 367.977 366.903V348.683C367.977 347.072 369.284 345.766 370.897 345.766C372.51 345.766 373.817 347.072 373.817 348.683V366.903C373.817 368.514 372.51 369.82 370.897 369.82Z" fill="white"/>
<path d="M370.897 147.539C369.284 147.539 367.977 146.233 367.977 144.622V126.402C367.977 124.79 369.284 123.484 370.897 123.484C372.51 123.484 373.817 124.79 373.817 126.402V144.622C373.817 146.233 372.51 147.539 370.897 147.539Z" fill="white"/>
<path d="M451.859 202.31C450.851 202.31 449.869 201.79 449.329 200.854C448.522 199.457 449.004 197.677 450.395 196.871L473.68 183.453C475.078 182.648 476.86 183.129 477.667 184.519C478.473 185.916 477.992 187.696 476.6 188.502L453.316 201.92C452.854 202.187 452.353 202.31 451.859 202.31Z" fill="white"/>
<path d="M266.307 309.09C265.299 309.09 264.317 308.564 263.777 307.628C262.977 306.231 263.458 304.451 264.857 303.652L287.92 290.422C289.318 289.63 291.1 290.104 291.9 291.501C292.7 292.898 292.219 294.678 290.821 295.478L267.758 308.707C267.302 308.967 266.801 309.09 266.307 309.09Z" fill="white"/>
<path d="M475.489 309.11C474.826 309.11 474.221 308.895 473.733 308.525L450.976 295.432C449.578 294.626 449.096 292.846 449.903 291.455C450.703 290.058 452.491 289.577 453.883 290.383L476.94 303.651C477.844 304.171 478.403 305.133 478.403 306.179C478.403 307.79 477.096 309.11 475.483 309.11H475.489Z" fill="white"/>
<path d="M289.929 202.271C289.435 202.271 288.934 202.147 288.479 201.881L265.195 188.502C263.796 187.703 263.315 185.916 264.122 184.525C264.928 183.128 266.71 182.647 268.102 183.453L291.386 196.832C292.785 197.631 293.266 199.418 292.459 200.809C291.92 201.744 290.938 202.271 289.929 202.271Z" fill="white"/>
<path d="M269.433 153.073C268.425 153.073 267.443 152.553 266.903 151.617C266.096 150.22 266.578 148.44 267.97 147.634L336.775 107.985C338.174 107.179 339.956 107.66 340.762 109.05C341.569 110.447 341.088 112.228 339.696 113.033L270.89 152.683C270.428 152.949 269.927 153.073 269.433 153.073Z" fill="white"/>
<path d="M403.578 385.709C402.569 385.709 401.587 385.19 401.048 384.254C400.241 382.863 400.722 381.076 402.114 380.277L471.109 340.478C472.5 339.673 474.289 340.147 475.096 341.544C475.902 342.934 475.421 344.721 474.029 345.521L405.034 385.32C404.573 385.586 404.072 385.709 403.578 385.709Z" fill="white"/>
<path d="M505.241 289.342C503.628 289.342 502.32 288.036 502.32 286.425V206.3C502.32 204.689 503.628 203.383 505.241 203.383C506.854 203.383 508.161 204.689 508.161 206.3V286.425C508.161 288.036 506.854 289.342 505.241 289.342Z" fill="white"/>
<path d="M236.514 289.342C234.901 289.342 233.594 288.036 233.594 286.425V206.3C233.594 204.689 234.901 203.383 236.514 203.383C238.127 203.383 239.434 204.689 239.434 206.3V286.425C239.434 288.036 238.127 289.342 236.514 289.342Z" fill="white"/>
<path d="M338.226 385.707C337.731 385.707 337.231 385.584 336.769 385.318L267.735 345.551C266.343 344.745 265.862 342.965 266.669 341.568C267.475 340.177 269.257 339.697 270.656 340.496L339.689 380.262C341.081 381.068 341.562 382.848 340.756 384.245C340.216 385.181 339.234 385.701 338.226 385.701V385.707Z" fill="white"/>
<path d="M472.324 153.077C471.829 153.077 471.329 152.954 470.867 152.687L402.1 113.038C400.702 112.232 400.227 110.452 401.033 109.055C401.84 107.658 403.628 107.177 405.02 107.989L473.787 147.639C475.185 148.444 475.66 150.225 474.854 151.622C474.314 152.557 473.332 153.077 472.324 153.077Z" fill="white"/>
<path d="M294.706 165.625C293.698 165.625 292.716 165.105 292.176 164.17C291.37 162.772 291.851 160.992 293.243 160.186L334.973 136.138C336.371 135.339 338.153 135.813 338.96 137.204C339.766 138.601 339.285 140.381 337.893 141.187L296.163 165.235C295.702 165.502 295.201 165.625 294.706 165.625Z" fill="white"/>
<path d="M405.39 357.534C404.382 357.534 403.4 357.014 402.86 356.079C402.054 354.688 402.535 352.901 403.927 352.102L445.767 327.963C447.159 327.157 448.947 327.631 449.754 329.028C450.56 330.419 450.079 332.206 448.687 333.005L406.847 357.144C406.385 357.411 405.884 357.534 405.39 357.534Z" fill="white"/>
<path d="M481.729 273.621C480.116 273.621 478.809 272.315 478.809 270.703V222.113C478.809 220.501 480.116 219.195 481.729 219.195C483.342 219.195 484.649 220.501 484.649 222.113V270.703C484.649 272.315 483.342 273.621 481.729 273.621Z" fill="white"/>
<path d="M260.026 273.621C258.413 273.621 257.105 272.315 257.105 270.703V222.113C257.105 220.501 258.413 219.195 260.026 219.195C261.639 219.195 262.946 220.501 262.946 222.113V270.703C262.946 272.315 261.639 273.621 260.026 273.621Z" fill="white"/>
<path d="M336.39 357.54C335.896 357.54 335.395 357.417 334.934 357.15L293.067 333.037C291.675 332.231 291.194 330.451 292.001 329.054C292.807 327.657 294.589 327.182 295.988 327.982L337.854 352.095C339.246 352.901 339.727 354.681 338.921 356.078C338.381 357.014 337.399 357.533 336.39 357.533V357.54Z" fill="white"/>
<path d="M447.054 165.624C446.559 165.624 446.058 165.501 445.597 165.235L403.893 141.186C402.495 140.38 402.02 138.6 402.826 137.203C403.633 135.806 405.415 135.325 406.813 136.137L448.517 160.186C449.915 160.991 450.39 162.772 449.584 164.169C449.044 165.105 448.062 165.624 447.054 165.624Z" fill="white"/>
<path d="M505.252 348.137C492.017 348.137 481.246 337.377 481.246 324.147C481.246 310.918 492.017 300.164 505.252 300.164C518.488 300.164 529.259 310.924 529.259 324.147C529.259 337.37 518.488 348.137 505.252 348.137ZM505.252 305.999C495.23 305.999 487.08 314.141 487.08 324.154C487.08 334.167 495.23 342.309 505.252 342.309C515.275 342.309 523.425 334.167 523.425 324.154C523.425 314.141 515.275 305.999 505.252 305.999Z" fill="white"/>
<path d="M505.251 335.503C498.994 335.503 493.895 330.415 493.895 324.158C493.895 317.9 498.987 312.812 505.251 312.812C511.514 312.812 516.607 317.9 516.607 324.158C516.607 330.415 511.514 335.503 505.251 335.503ZM505.251 318.641C502.207 318.641 499.729 321.117 499.729 324.158C499.729 327.199 502.207 329.674 505.251 329.674C508.294 329.674 510.766 327.199 510.766 324.158C510.766 321.117 508.288 318.641 505.251 318.641Z" fill="white"/>
<path d="M370.893 425.631C357.657 425.631 346.887 414.87 346.887 401.647C346.887 388.424 357.657 377.664 370.893 377.664C384.129 377.664 394.899 388.424 394.899 401.647C394.899 414.87 384.129 425.631 370.893 425.631ZM370.893 383.493C360.87 383.493 352.721 391.634 352.721 401.647C352.721 411.661 360.87 419.802 370.893 419.802C380.916 419.802 389.065 411.661 389.065 401.647C389.065 391.634 380.916 383.493 370.893 383.493Z" fill="white"/>
<path d="M370.891 412.995C364.628 412.995 359.535 407.907 359.535 401.65C359.535 395.392 364.628 390.305 370.891 390.305C377.154 390.305 382.247 395.392 382.247 401.65C382.247 407.907 377.154 412.995 370.891 412.995ZM370.891 396.14C367.847 396.14 365.369 398.615 365.369 401.656C365.369 404.697 367.847 407.173 370.891 407.173C373.935 407.173 376.407 404.697 376.407 401.656C376.407 398.615 373.929 396.14 370.891 396.14Z" fill="white"/>
<path d="M370.893 115.639C357.657 115.639 346.887 104.878 346.887 91.6552C346.887 78.4322 357.657 67.6719 370.893 67.6719C384.129 67.6719 394.899 78.4322 394.899 91.6552C394.899 104.878 384.129 115.639 370.893 115.639ZM370.893 73.4939C360.87 73.4939 352.721 81.6356 352.721 91.6487C352.721 101.662 360.87 109.804 370.893 109.804C380.916 109.804 389.065 101.662 389.065 91.6487C389.065 81.6356 380.916 73.4939 370.893 73.4939Z" fill="white"/>
<path d="M370.891 102.995C364.628 102.995 359.535 97.9072 359.535 91.6498C359.535 85.3925 364.628 80.3047 370.891 80.3047C377.154 80.3047 382.247 85.3925 382.247 91.6498C382.247 97.9072 377.154 102.995 370.891 102.995ZM370.891 86.1397C367.847 86.1397 365.369 88.6154 365.369 91.6563C365.369 94.6973 367.847 97.1665 370.891 97.1665C373.935 97.1665 376.407 94.6908 376.407 91.6563C376.407 88.6219 373.929 86.1397 370.891 86.1397Z" fill="white"/>
<path d="M505.252 192.568C492.017 192.568 481.246 181.808 481.246 168.585C481.246 155.362 492.017 144.602 505.252 144.602C518.488 144.602 529.259 155.362 529.259 168.585C529.259 181.808 518.488 192.568 505.252 192.568ZM505.252 150.43C495.23 150.43 487.08 158.572 487.08 168.585C487.08 178.598 495.23 186.74 505.252 186.74C515.275 186.74 523.425 178.598 523.425 168.585C523.425 158.572 515.275 150.43 505.252 150.43Z" fill="white"/>
<path d="M505.251 179.925C498.994 179.925 493.895 174.837 493.895 168.58C493.895 162.322 498.987 157.234 505.251 157.234C511.514 157.234 516.607 162.322 516.607 168.58C516.607 174.837 511.514 179.925 505.251 179.925ZM505.251 163.063C502.207 163.063 499.729 165.539 499.729 168.58C499.729 171.62 502.207 174.096 505.251 174.096C508.294 174.096 510.766 171.62 510.766 168.58C510.766 165.539 508.288 163.063 505.251 163.063Z" fill="white"/>
<path d="M236.526 348.137C223.29 348.137 212.52 337.377 212.52 324.147C212.52 310.918 223.29 300.164 236.526 300.164C249.761 300.164 260.532 310.924 260.532 324.147C260.532 337.37 249.761 348.137 236.526 348.137ZM236.526 305.999C226.503 305.999 218.354 314.141 218.354 324.154C218.354 334.167 226.503 342.309 236.526 342.309C246.548 342.309 254.698 334.167 254.698 324.154C254.698 314.141 246.548 305.999 236.526 305.999Z" fill="white"/>
<path d="M236.524 335.503C230.267 335.503 225.168 330.415 225.168 324.158C225.168 317.9 230.261 312.812 236.524 312.812C242.787 312.812 247.88 317.9 247.88 324.158C247.88 330.415 242.787 335.503 236.524 335.503ZM236.524 318.641C233.48 318.641 231.002 321.117 231.002 324.158C231.002 327.199 233.48 329.674 236.524 329.674C239.568 329.674 242.039 327.199 242.039 324.158C242.039 321.117 239.561 318.641 236.524 318.641Z" fill="white"/>
<path d="M236.526 192.568C223.29 192.568 212.52 181.808 212.52 168.585C212.52 155.362 223.29 144.602 236.526 144.602C249.761 144.602 260.532 155.362 260.532 168.585C260.532 181.808 249.761 192.568 236.526 192.568ZM236.526 150.43C226.503 150.43 218.354 158.572 218.354 168.585C218.354 178.598 226.503 186.74 236.526 186.74C246.548 186.74 254.698 178.598 254.698 168.585C254.698 158.572 246.548 150.43 236.526 150.43Z" fill="white"/>
<path d="M236.524 179.925C230.267 179.925 225.168 174.837 225.168 168.58C225.168 162.322 230.261 157.234 236.524 157.234C242.787 157.234 247.88 162.322 247.88 168.58C247.88 174.837 242.787 179.925 236.524 179.925ZM236.524 163.063C233.48 163.063 231.002 165.539 231.002 168.58C231.002 171.62 233.48 174.096 236.524 174.096C239.568 174.096 242.039 171.62 242.039 168.58C242.039 165.539 239.561 163.063 236.524 163.063Z" fill="white"/>
<path d="M442.181 287.773V205.531L370.891 164.406L299.594 205.531V287.773L370.891 328.898L442.181 287.773Z" fill="#33CFFF"/>
<path d="M401.492 238.624H379.157L397.557 191.047L340.289 254.816H362.689L344.341 302.257L401.492 238.624Z" fill="white"/>
<g style="mix-blend-mode:screen">
<path d="M389.081 202.797L387.715 204.454L386.33 206.098L383.566 209.386C381.706 211.562 379.846 213.739 377.972 215.903C376.106 218.073 374.213 220.217 372.327 222.375L366.642 228.814L360.912 235.214C358.987 237.333 357.082 239.47 355.143 241.576C353.212 243.694 351.274 245.793 349.322 247.892L346.382 251.024L344.913 252.589L343.43 254.142L344.796 252.486L346.181 250.842L348.945 247.554C350.805 245.377 352.665 243.2 354.539 241.036C356.405 238.866 358.298 236.722 360.184 234.565L365.869 228.132L371.599 221.731C373.524 219.613 375.429 217.482 377.374 215.37C379.306 213.252 381.244 211.153 383.195 209.054L386.135 205.922L387.605 204.356L389.088 202.803L389.081 202.797Z" fill="#343433"/>
</g>
<path opacity="0.25" d="M379.156 238.624L397.556 191.047L364.684 245.752H383.917L344.34 302.257L401.491 238.624H379.156Z" fill="#33CFFF"/>
<g style="mix-blend-mode:screen">
<path d="M378.434 239.959C380.209 239.731 381.985 239.608 383.754 239.53C385.529 239.452 387.305 239.406 389.074 239.406C390.85 239.406 392.625 239.445 394.394 239.53C396.17 239.614 397.946 239.731 399.715 239.965C397.939 240.199 396.163 240.316 394.394 240.4C392.619 240.478 390.843 240.524 389.074 240.524C387.299 240.524 385.523 240.485 383.754 240.4C381.978 240.316 380.203 240.199 378.434 239.972V239.959Z" fill="#343433"/>
</g>
<path d="M0 518C0 500.327 14.3269 486 32 486H708C725.673 486 740 500.327 740 518V568C740 585.673 725.673 600 708 600H32C14.3269 600 0 585.673 0 568V518Z" fill="white"/>
<g clip-path="url(#clip0_916_6153)">
<path d="M38.7724 522.714C41.954 516.885 46.3889 512.353 52.0772 509.098C57.7751 505.843 64.225 504.215 71.4366 504.215C80.2776 504.215 87.8362 506.573 94.1319 511.291C100.428 516.008 104.631 522.441 106.752 530.589H86.8143C85.3295 527.441 83.2278 525.053 80.5089 523.406C77.7901 521.759 74.6953 520.94 71.2341 520.94C65.6519 520.94 61.1206 522.909 57.6594 526.836C54.1982 530.764 52.4628 536.018 52.4628 542.597C52.4628 549.175 54.1982 554.429 57.6594 558.357C61.1206 562.285 65.6519 564.253 71.2341 564.253C74.6953 564.253 77.7901 563.435 80.5089 561.787C83.2278 560.14 85.3392 557.752 86.8143 554.604H106.752C104.631 562.752 100.428 569.166 94.1319 573.854C87.8362 578.532 80.2776 580.881 71.4366 580.881C64.225 580.881 57.7751 579.253 52.0868 576.008C46.3985 572.752 41.954 568.24 38.782 562.44C35.5908 556.641 34 550.033 34 542.597C34 535.16 35.5908 528.532 38.7724 522.704V522.714Z" fill="#343433"/>
<path d="M173.352 548.228C175.965 551.62 177.276 555.499 177.276 559.865C177.276 566.152 175.107 571.142 170.759 574.816C166.411 578.5 160.347 580.343 152.576 580.343H117.896V505.07H151.409C158.977 505.07 164.897 506.825 169.168 510.324C173.449 513.823 175.589 518.579 175.589 524.583C175.589 529.017 174.442 532.692 172.147 535.626C169.853 538.559 166.796 540.596 162.979 541.737C167.288 542.663 170.759 544.826 173.372 548.218L173.352 548.228ZM136.022 535.518H147.9C150.869 535.518 153.154 534.856 154.735 533.54C156.326 532.214 157.126 530.265 157.126 527.692C157.126 525.119 156.336 523.15 154.735 521.795C153.145 520.441 150.869 519.758 147.9 519.758H136.022V535.518ZM156.432 563.452C158.09 562.058 158.92 560.041 158.92 557.399C158.92 554.758 158.052 552.682 156.326 551.181C154.591 549.68 152.209 548.93 149.163 548.93H136.012V565.547H149.375C152.412 565.547 154.764 564.855 156.423 563.452H156.432Z" fill="#343433"/>
<path d="M241.333 505.07V519.758H221.607V580.333H203.472V519.758H183.746V505.07H241.333Z" fill="#343433"/>
<path d="M296.8 567.039H269.014L264.56 580.333H245.576L272.514 505.07H293.512L320.449 580.333H301.254L296.8 567.039ZM292.133 552.887L282.907 525.333L273.786 552.887H292.133Z" fill="#343433"/>
<path d="M340.917 578.405C336.608 576.621 333.156 573.97 330.572 570.471C327.989 566.972 326.629 562.752 326.494 557.82H345.796C346.075 560.608 347.03 562.732 348.659 564.194C350.289 565.656 352.41 566.387 355.022 566.387C357.635 566.387 359.833 565.764 361.385 564.516C362.938 563.268 363.719 561.534 363.719 559.321C363.719 557.46 363.102 555.929 361.858 554.711C360.624 553.493 359.101 552.499 357.298 551.709C355.495 550.92 352.93 550.033 349.614 549.029C344.803 547.528 340.879 546.027 337.842 544.526C334.805 543.025 332.182 540.813 329.994 537.879C327.805 534.945 326.706 531.125 326.706 526.407C326.706 519.399 329.213 513.922 334.236 509.955C339.259 505.988 345.796 504 353.856 504C361.916 504 368.665 505.988 373.688 509.955C378.711 513.922 381.391 519.438 381.748 526.524H362.128C361.983 524.097 361.106 522.177 359.477 520.783C357.847 519.39 355.765 518.698 353.219 518.698C351.031 518.698 349.257 519.292 347.917 520.472C346.577 521.651 345.902 523.347 345.902 525.559C345.902 527.986 347.03 529.887 349.295 531.241C351.561 532.596 355.09 534.068 359.901 535.637C364.712 537.284 368.616 538.853 371.624 540.354C374.632 541.855 377.226 544.039 379.414 546.894C381.603 549.75 382.702 553.434 382.702 557.937C382.702 562.44 381.622 566.124 379.472 569.623C377.313 573.122 374.189 575.91 370.091 577.986C365.994 580.062 361.144 581.095 355.562 581.095C349.98 581.095 345.237 580.198 340.927 578.415L340.917 578.405Z" fill="#343433"/>
<path d="M436.999 580.333L411.971 547.097V580.333H393.836V505.07H411.971V538.091L436.787 505.07H458.104L429.258 541.951L459.164 580.333H436.999Z" fill="#343433"/>
<path d="M480.058 578.405C475.748 576.621 472.297 573.97 469.713 570.471C467.129 566.972 465.77 562.752 465.635 557.82H484.936C485.216 560.608 486.17 562.732 487.8 564.194C489.429 565.656 491.55 566.387 494.163 566.387C496.776 566.387 498.974 565.764 500.526 564.516C502.078 563.268 502.859 561.534 502.859 559.321C502.859 557.46 502.242 555.929 500.999 554.711C499.764 553.493 498.241 552.499 496.438 551.709C494.635 550.92 492.071 550.033 488.754 549.029C483.943 547.528 480.019 546.027 476.982 544.526C473.945 543.025 471.323 540.813 469.134 537.879C466.946 534.945 465.847 531.125 465.847 526.407C465.847 519.399 468.354 513.922 473.377 509.955C478.4 505.988 484.936 504 492.996 504C501.056 504 507.805 505.988 512.828 509.955C517.851 513.922 520.532 519.438 520.888 526.524H501.268C501.124 524.097 500.247 522.177 498.617 520.783C496.988 519.39 494.905 518.698 492.36 518.698C490.172 518.698 488.398 519.292 487.057 520.472C485.717 521.651 485.042 523.347 485.042 525.559C485.042 527.986 486.17 529.887 488.436 531.241C490.702 532.596 494.23 534.068 499.041 535.637C503.852 537.284 507.757 538.853 510.765 540.354C513.773 541.855 516.367 544.039 518.555 546.894C520.744 549.75 521.843 553.434 521.843 557.937C521.843 562.44 520.763 566.124 518.613 569.623C516.453 573.122 513.33 575.91 509.232 577.986C505.135 580.062 500.285 581.095 494.703 581.095C489.121 581.095 484.377 580.198 480.068 578.415L480.058 578.405Z" fill="#343433"/>
<path d="M619.931 505.07V580.333H601.796V549.349H573.586V580.333H555.451V505.07H573.586V534.553H601.796V505.07H619.931Z" fill="#343433"/>
<path d="M686.002 593.2L676.457 580.227C673.633 580.802 670.875 581.085 668.185 581.085C661.186 581.085 654.765 579.438 648.932 576.153C643.099 572.869 638.471 568.278 635.039 562.382C631.607 556.485 629.891 549.857 629.891 542.489C629.891 535.121 631.607 528.512 635.039 522.655C638.471 516.797 643.099 512.216 648.932 508.932C654.765 505.647 661.186 504 668.185 504C675.185 504 681.596 505.647 687.429 508.932C693.262 512.216 697.861 516.797 701.216 522.655C704.571 528.512 706.258 535.13 706.258 542.489C706.258 548.922 704.966 554.799 702.382 560.12C699.799 565.442 696.212 569.857 691.613 573.356L707.945 593.19H685.993L686.002 593.2ZM653.82 558.415C657.387 562.382 662.179 564.37 668.195 564.37C674.211 564.37 678.887 562.372 682.454 558.366C686.021 554.36 687.805 549.078 687.805 542.499C687.805 535.92 686.021 530.549 682.454 526.583C678.887 522.616 674.124 520.637 668.195 520.637C662.266 520.637 657.397 522.606 653.82 526.534C650.253 530.462 648.46 535.793 648.46 542.508C648.46 549.224 650.243 554.458 653.82 558.424V558.415Z" fill="#343433"/>
</g>
<defs>
<clipPath id="clip0_916_6153">
<rect width="673.955" height="89.2" fill="white" transform="translate(34 504)"/>
</clipPath>
</defs>
</svg>
