<svg width="66" height="75" viewBox="0 0 66 75" fill="none" xmlns="http://www.w3.org/2000/svg">
<g clip-path="url(#clip0_916_6684)">
<path d="M33.0031 63.3057C32.6681 63.3057 32.3945 63.0324 32.3945 62.6944V58.8769C32.3945 58.5389 32.6666 58.2656 33.0031 58.2656C33.3395 58.2656 33.6116 58.5389 33.6116 58.8769V62.6944C33.6116 63.0324 33.3395 63.3057 33.0031 63.3057Z" fill="white"/>
<path d="M33.0031 16.7354C32.6681 16.7354 32.3945 16.4621 32.3945 16.1241V12.3066C32.3945 11.9701 32.6666 11.6953 33.0031 11.6953C33.3395 11.6953 33.6116 11.9686 33.6116 12.3066V16.1241C33.6116 16.4606 33.3395 16.7354 33.0031 16.7354Z" fill="white"/>
<path d="M49.8718 28.2082C49.6611 28.2082 49.4578 28.098 49.3452 27.9026C49.1769 27.6102 49.2779 27.237 49.5675 27.068L54.4196 24.257C54.7107 24.0895 55.0823 24.1894 55.2505 24.4803C55.4187 24.7728 55.3178 25.146 55.0281 25.315L50.176 28.1259C50.081 28.1818 49.9756 28.2082 49.8732 28.2082H49.8718Z" fill="white"/>
<path d="M11.2085 50.5819C10.9978 50.5819 10.793 50.4717 10.6804 50.2748C10.5136 49.9823 10.6131 49.6091 10.9042 49.4416L15.7095 46.6703C16.0006 46.5043 16.3722 46.6027 16.5389 46.8966C16.7057 47.189 16.6062 47.5622 16.3151 47.7297L11.5098 50.501C11.4147 50.5554 11.3109 50.5819 11.207 50.5819H11.2085Z" fill="white"/>
<path d="M54.7955 50.5865C54.658 50.5865 54.5307 50.541 54.4283 50.4645L49.6874 47.7212C49.3963 47.5522 49.2969 47.179 49.4636 46.888C49.6304 46.5956 50.0034 46.4957 50.293 46.6632L55.0983 49.4433C55.287 49.552 55.4026 49.7548 55.4026 49.9723C55.4026 50.3103 55.1305 50.5865 54.794 50.5865H54.7955Z" fill="white"/>
<path d="M16.1314 28.2C16.029 28.2 15.9237 28.1736 15.8286 28.1192L10.9765 25.3156C10.6854 25.1481 10.5859 24.7748 10.7527 24.4824C10.9194 24.19 11.291 24.0886 11.5821 24.2576L16.4342 27.0612C16.7253 27.2287 16.8247 27.602 16.658 27.8944C16.5454 28.0913 16.3406 28.2 16.1314 28.2Z" fill="white"/>
<path d="M11.8581 17.8952C11.6475 17.8952 11.4441 17.785 11.3315 17.5896C11.1633 17.2972 11.2642 16.9239 11.5538 16.755L25.8907 8.4484C26.1818 8.28089 26.5534 8.38081 26.7216 8.67175C26.8898 8.96416 26.7889 9.33739 26.4993 9.50638L12.1624 17.8129C12.0673 17.8688 11.962 17.8952 11.8596 17.8952H11.8581Z" fill="white"/>
<path d="M39.8116 66.6341C39.6009 66.6341 39.3976 66.5253 39.2849 66.3284C39.1167 66.036 39.2162 65.6628 39.5073 65.4953L53.8837 57.1564C54.1748 56.9874 54.5463 57.0873 54.7145 57.3798C54.8828 57.6707 54.7833 58.0454 54.4922 58.2129L40.1158 66.5518C40.0207 66.6076 39.9154 66.6341 39.813 66.6341H39.8116Z" fill="white"/>
<path d="M60.9933 46.4441C60.6583 46.4441 60.3848 46.1708 60.3848 45.8328V29.0449C60.3848 28.7084 60.6568 28.4336 60.9933 28.4336C61.3297 28.4336 61.6018 28.7069 61.6018 29.0449V45.8328C61.6018 46.1708 61.3297 46.4441 60.9933 46.4441Z" fill="white"/>
<path d="M4.99915 46.4441C4.66417 46.4441 4.39062 46.1708 4.39062 45.8328V29.0449C4.39062 28.7084 4.66271 28.4336 4.99915 28.4336C5.33559 28.4336 5.60767 28.7069 5.60767 29.0449V45.8328C5.60767 46.1708 5.33559 46.4441 4.99915 46.4441Z" fill="white"/>
<path d="M26.1918 66.6379C26.088 66.6379 25.9841 66.6115 25.889 66.5571L11.5053 58.2256C11.2142 58.0566 11.1148 57.6834 11.283 57.3909C11.4497 57.1 11.8228 57.0001 12.1139 57.1661L26.4976 65.4977C26.7887 65.6666 26.8881 66.0399 26.7199 66.3323C26.6073 66.5277 26.4025 66.6379 26.1933 66.6379H26.1918Z" fill="white"/>
<path d="M54.1358 17.8962C54.0319 17.8962 53.928 17.8697 53.833 17.8139L39.5034 9.50735C39.2123 9.33837 39.1128 8.96514 39.281 8.67272C39.4493 8.38031 39.8208 8.28039 40.1119 8.44938L54.4415 16.7559C54.7326 16.9249 54.832 17.2981 54.6638 17.5906C54.5512 17.786 54.3464 17.8962 54.1372 17.8962H54.1358Z" fill="white"/>
<path d="M17.1237 20.5242C16.9131 20.5242 16.7098 20.414 16.5971 20.2186C16.4289 19.9262 16.5298 19.5529 16.8195 19.384L25.5143 14.3468C25.8054 14.1793 26.177 14.2792 26.3452 14.5702C26.5134 14.8626 26.4125 15.2358 26.1229 15.4048L17.428 20.4419C17.3329 20.4978 17.2276 20.5242 17.1252 20.5242H17.1237Z" fill="white"/>
<path d="M40.1885 60.7318C39.9779 60.7318 39.7745 60.6231 39.6619 60.4262C39.4937 60.1352 39.5931 59.7605 39.8842 59.593L48.6025 54.5353C48.8936 54.3663 49.2652 54.4662 49.4334 54.7587C49.6016 55.0511 49.5021 55.4243 49.211 55.5918L40.4928 60.6495C40.3977 60.7054 40.2924 60.7318 40.19 60.7318H40.1885Z" fill="white"/>
<path d="M56.0949 43.1502C55.7599 43.1502 55.4863 42.8769 55.4863 42.5389V32.3574C55.4863 32.0209 55.7584 31.7461 56.0949 31.7461C56.4313 31.7461 56.7034 32.0194 56.7034 32.3574V42.5389C56.7034 42.8769 56.4313 43.1502 56.0949 43.1502Z" fill="white"/>
<path d="M9.89954 43.1502C9.56456 43.1502 9.29102 42.8769 9.29102 42.5389V32.3574C9.29102 32.0209 9.5631 31.7461 9.89954 31.7461C10.236 31.7461 10.5081 32.0194 10.5081 32.3574V42.5389C10.5081 42.8769 10.236 43.1502 9.89954 43.1502Z" fill="white"/>
<path d="M25.8101 60.7335C25.7062 60.7335 25.6024 60.7071 25.5073 60.6527L16.7846 55.6009C16.4935 55.4319 16.3941 55.0587 16.5623 54.7663C16.7305 54.4739 17.1021 54.3754 17.3932 54.5414L26.1158 59.5933C26.4069 59.7622 26.5064 60.1355 26.3382 60.4279C26.2255 60.6233 26.0207 60.7335 25.8116 60.7335H25.8101Z" fill="white"/>
<path d="M48.8697 20.5252C48.7659 20.5252 48.662 20.4988 48.5669 20.4429L39.8764 15.4058C39.5853 15.2368 39.4859 14.8636 39.6541 14.5712C39.8223 14.2788 40.1939 14.1788 40.485 14.3478L49.1754 19.3849C49.4665 19.5539 49.566 19.9272 49.3978 20.2196C49.2851 20.415 49.0804 20.5252 48.8712 20.5252H48.8697Z" fill="white"/>
<path d="M60.9969 58.7617C58.2381 58.7617 55.9941 56.5076 55.9941 53.7363C55.9941 50.965 58.2381 48.7109 60.9969 48.7109C63.7557 48.7109 65.9997 50.965 65.9997 53.7363C65.9997 56.5076 63.7557 58.7617 60.9969 58.7617ZM60.9969 49.932C58.908 49.932 57.2097 51.638 57.2097 53.7363C57.2097 55.8346 58.908 57.5406 60.9969 57.5406C63.0858 57.5406 64.7841 55.8346 64.7841 53.7363C64.7841 51.638 63.0858 49.932 60.9969 49.932Z" fill="white"/>
<path d="M60.9982 56.1153C59.6933 56.1153 58.6328 55.0486 58.6328 53.7393C58.6328 52.4301 59.6948 51.3633 60.9982 51.3633C62.3015 51.3633 63.3635 52.4301 63.3635 53.7393C63.3635 55.0486 62.3015 56.1153 60.9982 56.1153ZM60.9982 52.5844C60.3633 52.5844 59.8484 53.1031 59.8484 53.7393C59.8484 54.3756 60.3648 54.8943 60.9982 54.8943C61.6315 54.8943 62.1479 54.3756 62.1479 53.7393C62.1479 53.1031 61.6315 52.5844 60.9982 52.5844Z" fill="white"/>
<path d="M33.0008 75C30.242 75 27.998 72.7459 27.998 69.9746C27.998 67.2033 30.242 64.9492 33.0008 64.9492C35.7597 64.9492 38.0036 67.2033 38.0036 69.9746C38.0036 72.7459 35.7597 75 33.0008 75ZM33.0008 66.1718C30.9119 66.1718 29.2136 67.8777 29.2136 69.9761C29.2136 72.0744 30.9119 73.7804 33.0008 73.7804C35.0897 73.7804 36.788 72.0744 36.788 69.9761C36.788 67.8777 35.0897 66.1718 33.0008 66.1718Z" fill="white"/>
<path d="M33.0001 72.3536C31.6953 72.3536 30.6348 71.2868 30.6348 69.9776C30.6348 68.6684 31.6968 67.6016 33.0001 67.6016C34.3035 67.6016 35.3655 68.6684 35.3655 69.9776C35.3655 71.2868 34.3035 72.3536 33.0001 72.3536ZM33.0001 68.8212C32.3653 68.8212 31.8504 69.3399 31.8504 69.9761C31.8504 70.6124 32.3667 71.1311 33.0001 71.1311C33.6335 71.1311 34.1499 70.6124 34.1499 69.9761C34.1499 69.3399 33.6335 68.8212 33.0001 68.8212Z" fill="white"/>
<path d="M33.0008 10.0507C30.242 10.0507 27.998 7.79667 27.998 5.02537C27.998 2.25407 30.242 0 33.0008 0C35.7597 0 38.0036 2.25407 38.0036 5.02537C38.0036 7.79667 35.7597 10.0507 33.0008 10.0507ZM33.0008 1.22108C30.9119 1.22108 29.2136 2.92706 29.2136 5.02537C29.2136 7.12368 30.9119 8.82967 33.0008 8.82967C35.0897 8.82967 36.788 7.12368 36.788 5.02537C36.788 2.92706 35.0897 1.22108 33.0008 1.22108Z" fill="white"/>
<path d="M33.0001 7.4005C31.6953 7.4005 30.6348 6.33371 30.6348 5.02447C30.6348 3.71523 31.6968 2.64844 33.0001 2.64844C34.3035 2.64844 35.3655 3.71523 35.3655 5.02447C35.3655 6.33371 34.3035 7.4005 33.0001 7.4005ZM33.0001 3.86951C32.3653 3.86951 31.8504 4.38822 31.8504 5.02447C31.8504 5.66072 32.3667 6.17942 33.0001 6.17942C33.6335 6.17942 34.1499 5.66072 34.1499 5.02447C34.1499 4.38822 33.6335 3.86951 33.0001 3.86951Z" fill="white"/>
<path d="M60.9969 26.1679C58.2381 26.1679 55.9941 23.9139 55.9941 21.1426C55.9941 18.3713 58.2381 16.1172 60.9969 16.1172C63.7557 16.1172 65.9997 18.3713 65.9997 21.1426C65.9997 23.9139 63.7557 26.1679 60.9969 26.1679ZM60.9969 17.3397C58.908 17.3397 57.2097 19.0457 57.2097 21.144C57.2097 23.2423 58.908 24.9483 60.9969 24.9483C63.0858 24.9483 64.7841 23.2423 64.7841 21.144C64.7841 19.0457 63.0858 17.3397 60.9969 17.3397Z" fill="white"/>
<path d="M60.9982 23.5216C59.6933 23.5216 58.6328 22.4548 58.6328 21.1456C58.6328 19.8363 59.6948 18.7695 60.9982 18.7695C62.3015 18.7695 63.3635 19.8363 63.3635 21.1456C63.3635 22.4548 62.3015 23.5216 60.9982 23.5216ZM60.9982 19.9891C60.3633 19.9891 59.8484 20.5078 59.8484 21.1441C59.8484 21.7803 60.3648 22.299 60.9982 22.299C61.6315 22.299 62.1479 21.7803 62.1479 21.1441C62.1479 20.5078 61.6315 19.9891 60.9982 19.9891Z" fill="white"/>
<path d="M5.00277 58.7617C2.24393 58.7617 0 56.5076 0 53.7363C0 50.965 2.24393 48.7109 5.00277 48.7109C7.76161 48.7109 10.0055 50.965 10.0055 53.7363C10.0055 56.5076 7.76161 58.7617 5.00277 58.7617ZM5.00277 49.932C2.91389 49.932 1.21559 51.638 1.21559 53.7363C1.21559 55.8346 2.91389 57.5406 5.00277 57.5406C7.09165 57.5406 8.78995 55.8346 8.78995 53.7363C8.78995 51.638 7.09165 49.932 5.00277 49.932Z" fill="white"/>
<path d="M5.00206 56.1153C3.69725 56.1153 2.63672 55.0486 2.63672 53.7393C2.63672 52.4301 3.69871 51.3633 5.00206 51.3633C6.30542 51.3633 7.36741 52.4301 7.36741 53.7393C7.36741 55.0486 6.30542 56.1153 5.00206 56.1153ZM5.00206 52.5844C4.36721 52.5844 3.8523 53.1031 3.8523 53.7393C3.8523 54.3756 4.36867 54.8943 5.00206 54.8943C5.63546 54.8943 6.15182 54.3756 6.15182 53.7393C6.15182 53.1031 5.63546 52.5844 5.00206 52.5844Z" fill="white"/>
<path d="M5.00277 26.1679C2.24393 26.1679 0 23.9139 0 21.1426C0 18.3713 2.24393 16.1172 5.00277 16.1172C7.76161 16.1172 10.0055 18.3713 10.0055 21.1426C10.0055 23.9139 7.76161 26.1679 5.00277 26.1679ZM5.00277 17.3397C2.91389 17.3397 1.21559 19.0457 1.21559 21.144C1.21559 23.2423 2.91389 24.9483 5.00277 24.9483C7.09165 24.9483 8.78995 23.2423 8.78995 21.144C8.78995 19.0457 7.09165 17.3397 5.00277 17.3397Z" fill="white"/>
<path d="M5.00206 23.5216C3.69725 23.5216 2.63672 22.4548 2.63672 21.1456C2.63672 19.8363 3.69871 18.7695 5.00206 18.7695C6.30542 18.7695 7.36741 19.8363 7.36741 21.1456C7.36741 22.4548 6.30542 23.5216 5.00206 23.5216ZM5.00206 19.9891C4.36721 19.9891 3.8523 20.5078 3.8523 21.1441C3.8523 21.7803 4.36867 22.299 5.00206 22.299C5.63546 22.299 6.15182 21.7803 6.15182 21.1441C6.15182 20.5078 5.63546 19.9891 5.00206 19.9891Z" fill="white"/>
<path d="M33.0007 20.2695L18.1445 28.8847V46.1164L33.0007 54.7315L47.8569 46.1164V28.8847L33.0007 20.2695ZM27.4699 49.1507L31.2922 39.2102H26.6244L38.5579 25.8489L34.7239 35.8173H39.377L27.4699 49.1493V49.1507Z" fill="white"/>
</g>
<defs>
<clipPath id="clip0_916_6684">
<rect width="66" height="75" fill="white"/>
</clipPath>
</defs>
</svg>
