<svg width="250" height="250" viewBox="0 0 250 250" fill="none" xmlns="http://www.w3.org/2000/svg">
<g clip-path="url(#clip0_723_5236)">
<path d="M189.634 161.209C174.163 164.118 175.978 181.802 180.167 183.213C186.544 185.346 185.768 178.172 185.768 178.172C185.768 178.172 185.047 182.946 181.498 180.491C178.433 178.384 180.777 167.954 191.928 172.809C200.704 176.65 205.397 188.335 196.571 197.565C173.684 221.545 153.253 181.318 123.828 179.77C106.679 178.863 106.039 187.508 106.039 187.508C106.039 187.508 105.398 178.863 88.2488 179.77C58.8545 181.318 38.4181 221.54 15.5066 197.565C6.67978 188.335 11.373 176.625 20.1494 172.809C31.275 167.954 33.6443 178.384 30.5793 180.491C27.0556 182.946 26.3096 178.172 26.3096 178.172C26.3096 178.172 25.5332 185.32 31.9102 183.213C36.0993 181.827 37.9392 164.113 22.4381 161.209C13.3188 159.5 -0.312134 166.623 0.00545071 186.737C0.514595 219.544 43.2726 224.429 71.1193 224.429C98.966 224.429 106.008 206.851 106.008 206.851C106.008 206.851 113.051 224.429 140.897 224.429C168.744 224.429 211.507 219.574 212.011 186.737C212.334 166.623 198.703 159.5 189.579 161.209H189.634Z" fill="white"/>
<path d="M243.97 173.131L243.945 173.106L241.999 174.25C242.08 174.411 250.67 189.323 246.667 196.284C245.331 198.603 242.559 199.803 238.425 199.803C228.903 199.803 228.101 194.55 227.118 181.64C226.317 171.049 225.198 163.018 216.819 145.763C203.698 118.662 206.576 100.177 208.895 85.3462C209.722 80.0934 210.498 75.1582 210.468 70.3844C210.468 65.7416 208.92 62.2734 205.906 60.141C201.53 57.0206 195.158 57.3936 190.596 58.2204L190.742 59.4252C187.723 49.5347 180.232 41.5849 170.618 37.9453C179.556 43.1729 185.555 52.8819 185.555 63.9772C185.555 80.6227 172.06 94.1176 155.415 94.1176C139.918 94.1176 127.165 82.4325 125.461 67.39C125.436 67.9748 125.405 68.5646 125.405 69.1796C125.405 87.6096 140.342 102.576 158.802 102.576C177.262 102.576 192.199 87.6096 192.199 69.1796C192.199 66.1449 191.791 63.2009 191.029 60.4031C195.309 59.6772 200.996 59.3949 204.63 61.9759C207.03 63.6848 208.229 66.5129 208.229 70.3793C208.229 74.9667 207.483 79.8212 206.682 84.9681C204.308 100.121 201.374 119.005 214.818 146.721C223.005 163.608 224.099 171.397 224.9 181.796C225.833 193.986 226.448 202.066 238.476 202.066C243.461 202.066 246.904 200.494 248.664 197.424C253.306 189.343 244.369 173.791 243.97 173.121V173.131Z" fill="white"/>
<path d="M120.682 69.1551C120.682 48.6431 137.328 31.9976 157.84 31.9976C168.189 31.9976 177.55 36.2371 184.275 43.0677C176.512 32.4513 163.975 25.5703 149.809 25.5703C126.227 25.5703 107.132 44.6708 107.132 68.2477C107.132 91.8246 126.232 110.925 149.809 110.925C160.451 110.925 170.16 107.028 177.631 100.576C171.899 104.2 165.104 106.308 157.824 106.313C137.318 106.308 120.677 89.6671 120.677 69.1551H120.682Z" fill="white"/>
<path d="M150.636 88.5727C148.66 88.5727 146.769 88.3056 144.954 87.8267C147.888 89.0516 151.115 89.7221 154.477 89.7473C168.133 89.7473 179.203 78.6772 179.203 65.021C179.203 51.3648 168.133 40.2947 154.477 40.2947L154.502 40.2695C143.301 40.2695 133.829 47.7101 130.789 57.9535C134.177 50.3768 141.804 45.0938 150.636 45.0938C162.638 45.0938 172.378 54.828 172.378 66.8358C172.378 78.8435 162.643 88.5778 150.636 88.5778V88.5727Z" fill="white"/>
</g>
<defs>
<clipPath id="clip0_723_5236">
<rect width="250" height="198.859" fill="white" transform="translate(0 25.5703)"/>
</clipPath>
</defs>
</svg>
