<svg width="586" height="600" viewBox="0 0 586 600" fill="none" xmlns="http://www.w3.org/2000/svg">
<g clip-path="url(#clip0_1201_5460)">
<path d="M418.889 316.098C388.554 321.802 392.112 356.476 400.326 359.244C412.83 363.425 411.308 349.359 411.308 349.359C411.308 349.359 409.894 358.72 402.936 353.906C396.926 349.774 401.522 329.324 423.386 338.842C440.595 346.374 449.798 369.286 432.49 387.384C387.615 434.404 347.553 355.527 289.858 352.493C256.232 350.713 254.976 367.665 254.976 367.665C254.976 367.665 253.721 350.713 220.094 352.493C162.459 355.527 122.387 434.395 77.4628 387.384C60.1552 369.286 69.3576 346.325 86.5663 338.842C108.381 329.324 113.027 349.774 107.017 353.906C100.108 358.72 98.645 349.359 98.645 349.359C98.645 349.359 97.1228 363.375 109.627 359.244C117.84 356.525 121.448 321.792 91.0538 316.098C73.173 312.747 46.4456 326.714 47.0683 366.153C48.0666 430.48 131.906 440.058 186.507 440.058C241.109 440.058 254.917 405.591 254.917 405.591C254.917 405.591 268.726 440.058 323.327 440.058C377.928 440.058 461.777 430.54 462.766 366.153C463.398 326.714 436.671 312.747 418.78 316.098H418.889Z" fill="url(#paint0_linear_1201_5460)"/>
<path d="M525.433 339.474L525.383 339.424L521.568 341.668C521.726 341.984 538.569 371.222 530.721 384.873C528.102 389.42 522.665 391.772 514.56 391.772C495.888 391.772 494.317 381.473 492.389 356.159C490.818 335.392 488.623 319.646 472.195 285.811C446.466 232.673 452.11 196.427 456.657 167.347C458.278 157.048 459.8 147.371 459.741 138.01C459.741 128.907 456.707 122.106 450.796 117.925C442.216 111.807 429.722 112.538 420.777 114.159L421.064 116.522C415.143 97.1285 400.455 81.5408 381.605 74.4043C399.13 84.6544 410.893 103.692 410.893 125.447C410.893 158.085 384.432 184.546 351.794 184.546C321.409 184.546 296.402 161.634 293.061 132.139C293.011 133.286 292.952 134.442 292.952 135.648C292.952 171.785 322.24 201.132 358.436 201.132C394.633 201.132 423.92 171.785 423.92 135.648C423.92 129.698 423.12 123.925 421.627 118.439C430.019 117.016 441.168 116.462 448.295 121.523C453 124.874 455.353 130.419 455.353 138C455.353 146.995 453.89 156.514 452.318 166.606C447.662 196.318 441.91 233.345 468.271 287.689C484.324 320.802 486.469 336.074 488.04 356.465C489.869 380.365 491.075 396.21 514.659 396.21C524.434 396.21 531.185 393.126 534.635 387.107C543.739 371.262 526.214 340.769 525.433 339.454V339.474Z" fill="url(#paint1_linear_1201_5460)"/>
<path d="M283.69 135.599C283.69 95.3795 316.329 62.7413 356.548 62.7413C376.841 62.7413 395.196 71.054 408.382 84.4474C393.16 63.6309 368.577 50.1387 340.802 50.1387C294.563 50.1387 257.121 87.5906 257.121 133.82C257.121 180.049 294.573 217.501 340.802 217.501C361.668 217.501 380.705 209.86 395.354 197.208C384.116 204.315 370.791 208.447 356.518 208.457C316.309 208.447 283.68 175.819 283.68 135.599H283.69Z" fill="url(#paint2_linear_1201_5460)"/>
<path d="M342.424 173.673C338.549 173.673 334.842 173.149 331.284 172.21C337.037 174.612 343.363 175.927 349.955 175.976C376.732 175.976 398.438 154.27 398.438 127.493C398.438 100.716 376.732 79.0104 349.955 79.0104L350.005 78.9609C328.042 78.9609 309.469 93.5503 303.509 113.635C310.151 98.7791 325.106 88.4203 342.424 88.4203C365.958 88.4203 385.055 107.507 385.055 131.052C385.055 154.596 365.968 173.683 342.424 173.683V173.673Z" fill="url(#paint3_linear_1201_5460)"/>
</g>
<path d="M495.074 595.225C478.287 595.225 464.679 581.667 464.679 564.94C464.679 548.214 478.287 534.655 495.074 534.655C503.54 534.655 511.193 538.106 516.705 543.674C510.356 535.031 500.101 529.412 488.524 529.412C469.243 529.412 453.611 544.984 453.611 564.196C453.611 583.408 469.243 598.979 488.521 598.979C497.219 598.979 505.17 595.801 511.287 590.554C506.592 593.512 501.035 595.228 495.074 595.228" fill="#1D3366"/>
<path d="M505.523 539.523C512.83 543.788 517.743 551.689 517.743 560.735C517.743 574.304 506.703 585.3 493.088 585.304C480.418 585.304 469.987 575.782 468.596 563.531C468.572 564.013 468.555 564.496 468.555 564.982C468.555 580.012 480.785 592.195 495.867 592.195C510.948 592.195 523.178 580.009 523.178 564.982C523.178 553.34 515.84 543.412 505.523 539.523Z" fill="#1D3366"/>
<path d="M492.357 541.406C483.192 541.406 475.452 547.48 472.965 555.809C475.743 549.632 481.967 545.329 489.202 545.329C499.028 545.329 506.992 553.265 506.992 563.055C506.992 572.846 499.028 580.782 489.202 580.782C487.596 580.782 486.04 580.564 484.559 580.168C486.956 581.168 489.593 581.719 492.357 581.723C503.532 581.723 512.587 572.694 512.587 561.563C512.587 550.428 503.529 541.406 492.357 541.406Z" fill="#1D3366"/>
<path d="M13.3475 597.513C9.35281 595.886 6.17142 593.446 3.77939 590.241C1.38737 587.036 0.119601 583.185 0 578.688H17.8684C18.1315 581.247 19.0166 583.185 20.5235 584.524C22.0305 585.864 23.992 586.533 26.4079 586.533C28.8239 586.533 30.8571 585.959 32.2923 584.811C33.7275 583.663 34.4451 582.084 34.4451 580.051C34.4451 578.353 33.871 576.941 32.7229 575.841C31.5747 574.741 30.1634 573.808 28.5129 573.09C26.8385 572.373 24.4704 571.559 21.4086 570.626C16.9594 569.263 13.3236 567.876 10.5249 566.512C7.70231 565.125 5.28637 563.116 3.25315 560.436C1.21993 557.734 0.191362 554.241 0.191362 549.912C0.191362 543.501 2.51162 538.478 7.17607 534.866C11.8166 531.23 17.8684 529.412 25.3076 529.412C32.7468 529.412 39.0139 531.23 43.6544 534.866C48.2949 538.502 50.7826 543.549 51.1175 550.031H32.9621C32.8425 547.807 32.0053 546.061 30.4983 544.793C28.9913 543.525 27.0538 542.879 24.7096 542.879C22.6764 542.879 21.0498 543.429 19.8059 544.506C18.5621 545.582 17.9402 547.137 17.9402 549.17C17.9402 551.395 18.9927 553.141 21.0737 554.361C23.1787 555.605 26.4318 556.944 30.881 558.379C35.3302 559.886 38.9421 561.322 41.7169 562.709C44.4916 564.072 46.9075 566.082 48.9408 568.689C50.974 571.296 51.9786 574.669 51.9786 578.807C51.9786 582.945 50.974 586.294 48.9886 589.499C47.0032 592.705 44.1089 595.264 40.3056 597.154C36.5023 599.044 32.0292 600 26.8624 600C21.6956 600 17.3182 599.187 13.3236 597.537L13.3475 597.513Z" fill="#1D3366"/>
<path d="M111.874 530.395V543.838H93.6232V599.284H76.8312V543.838H58.5801V530.395H111.874Z" fill="#1D3366"/>
<path d="M163.208 587.109H137.494L133.38 599.284H115.822L140.723 530.395H160.146L185.071 599.284H167.299L163.184 587.109H163.208ZM158.879 574.168L150.339 548.957L141.895 574.168H158.879Z" fill="#1D3366"/>
<path d="M194.207 546.539C197.15 541.205 201.264 537.043 206.526 534.077C211.789 531.11 217.769 529.604 224.443 529.604C232.623 529.604 239.632 531.756 245.445 536.086C251.257 540.415 255.156 546.3 257.118 553.763H238.675C237.312 550.892 235.35 548.692 232.839 547.185C230.327 545.678 227.457 544.936 224.251 544.936C219.085 544.936 214.898 546.73 211.693 550.342C208.488 553.93 206.885 558.762 206.885 564.766C206.885 570.77 208.488 575.602 211.693 579.19C214.898 582.778 219.085 584.596 224.251 584.596C227.457 584.596 230.327 583.854 232.839 582.347C235.35 580.84 237.312 578.664 238.675 575.769H257.118C255.156 583.232 251.257 589.093 245.445 593.375C239.632 597.656 232.623 599.809 224.443 599.809C217.769 599.809 211.789 598.326 206.526 595.336C201.264 592.37 197.15 588.232 194.207 582.921C191.265 577.611 189.782 571.559 189.782 564.766C189.782 557.973 191.265 551.897 194.207 546.563V546.539Z" fill="#1D3366"/>
<path d="M327.108 530.395V599.284H310.316V570.915H284.219V599.284H267.427V530.395H284.219V557.376H310.316V530.395H327.108Z" fill="#1D3366"/>
<path d="M355.957 543.838V557.783H378.442V570.748H355.957V585.865H381.384V599.308H339.188V530.395H381.384V543.838H355.957Z" fill="#1D3366"/>
<path d="M443.6 569.887C446.016 572.996 447.236 576.536 447.236 580.531C447.236 586.296 445.227 590.865 441.208 594.213C437.19 597.586 431.569 599.261 424.369 599.261H392.268V530.395H423.268C430.277 530.395 435.755 531.997 439.701 535.202C443.648 538.408 445.634 542.761 445.634 548.263C445.634 552.329 444.557 555.678 442.452 558.381C440.323 561.06 437.501 562.926 433.961 563.978C437.955 564.839 441.161 566.801 443.576 569.911L443.6 569.887ZM409.036 558.261H420.015C422.766 558.261 424.871 557.663 426.354 556.444C427.837 555.224 428.555 553.454 428.555 551.085C428.555 548.717 427.813 546.923 426.354 545.679C424.895 544.436 422.766 543.814 420.015 543.814H409.036V558.238V558.261ZM427.933 583.832C429.463 582.564 430.229 580.699 430.229 578.283C430.229 575.867 429.416 573.977 427.813 572.59C426.21 571.226 424.01 570.532 421.187 570.532H409.012V585.746H421.378C424.177 585.746 426.354 585.1 427.909 583.832H427.933Z" fill="#1D3366"/>
<path d="M565.627 599.284L551.586 578.187L539.219 599.284H520.179L542.257 564.241L519.7 530.395H539.219L553.069 551.205L565.244 530.395H584.285L562.398 565.127L585.17 599.284H565.651H565.627Z" fill="#1D3366"/>
<defs>
<linearGradient id="paint0_linear_1201_5460" x1="376.815" y1="344.897" x2="339.938" y2="489.755" gradientUnits="userSpaceOnUse">
<stop offset="0.278846" stop-color="#33CFFF"/>
<stop offset="1" stop-color="#0D87C5"/>
</linearGradient>
<linearGradient id="paint1_linear_1201_5460" x1="486.735" y1="150.118" x2="288.571" y2="327.004" gradientUnits="userSpaceOnUse">
<stop offset="0.278846" stop-color="#33CFFF"/>
<stop offset="1" stop-color="#0D87C5"/>
</linearGradient>
<linearGradient id="paint2_linear_1201_5460" x1="377.104" y1="89.5153" x2="273.571" y2="199.54" gradientUnits="userSpaceOnUse">
<stop offset="0.278846" stop-color="#33CFFF"/>
<stop offset="1" stop-color="#0D87C5"/>
</linearGradient>
<linearGradient id="paint3_linear_1201_5460" x1="378.809" y1="101.786" x2="319.269" y2="170.29" gradientUnits="userSpaceOnUse">
<stop offset="0.278846" stop-color="#33CFFF"/>
<stop offset="1" stop-color="#0D87C5"/>
</linearGradient>
<clipPath id="clip0_1201_5460">
<rect width="490.196" height="389.919" fill="white" transform="translate(47.0586 50.1387)"/>
</clipPath>
</defs>
</svg>
