<svg width="75" height="75" viewBox="0 0 75 75" fill="none" xmlns="http://www.w3.org/2000/svg">
<g clip-path="url(#clip0_723_5243)">
<path d="M56.8902 48.3643C52.2489 49.2369 52.7934 54.5421 54.0501 54.9656C55.9632 55.6053 55.7303 53.4532 55.7303 53.4532C55.7303 53.4532 55.514 54.8854 54.4493 54.1489C53.5299 53.5168 54.2331 50.3878 57.5783 51.8441C60.2112 52.9965 61.6192 56.5021 58.9711 59.2711C52.1053 66.4652 45.9759 54.3969 37.1485 53.9326C32.0036 53.6604 31.8116 56.254 31.8116 56.254C31.8116 56.254 31.6195 53.6604 26.4746 53.9326C17.6563 54.3969 11.5254 66.4637 4.65199 59.2711C2.00393 56.5021 3.41189 52.989 6.04483 51.8441C9.3825 50.3878 10.0933 53.5168 9.1738 54.1489C8.11669 54.8854 7.89287 53.4532 7.89287 53.4532C7.89287 53.4532 7.65997 55.5977 9.57305 54.9656C10.8298 54.5497 11.3818 49.2354 6.73142 48.3643C3.99565 47.8516 -0.0936403 49.9885 0.00163521 56.0227C0.154379 65.8648 12.9818 67.3302 21.3358 67.3302C29.6898 67.3302 31.8025 62.0568 31.8025 62.0568C31.8025 62.0568 33.9152 67.3302 42.2692 67.3302C50.6232 67.3302 63.4521 65.8738 63.6034 56.0227C63.7001 49.9885 59.6109 47.8516 56.8736 48.3643H56.8902Z" fill="white"/>
<path d="M73.1916 51.9404L73.184 51.9328L72.6003 52.2761C72.6245 52.3245 75.2015 56.7979 74.0007 58.8864C73.5999 59.5821 72.7682 59.942 71.5281 59.942C68.6713 59.942 68.4309 58.3662 68.136 54.4932C67.8955 51.3158 67.5598 48.9067 65.0463 43.7301C61.1098 35.5999 61.9733 30.0542 62.669 25.605C62.917 24.0292 63.1499 22.5486 63.1408 21.1165C63.1408 19.7236 62.6765 18.6832 61.7722 18.0435C60.4595 17.1073 58.5479 17.2193 57.1793 17.4673L57.2231 17.8287C56.3173 14.8616 54.07 12.4767 51.186 11.3848C53.8673 12.953 55.667 15.8657 55.667 19.1943C55.667 24.188 51.6185 28.2364 46.6249 28.2364C41.976 28.2364 38.1499 24.7309 37.6387 20.2182C37.6311 20.3936 37.6221 20.5705 37.6221 20.755C37.6221 26.284 42.103 30.7741 47.6411 30.7741C53.1792 30.7741 57.6602 26.284 57.6602 20.755C57.6602 19.8446 57.5377 18.9614 57.3093 18.1221C58.5933 17.9043 60.2992 17.8196 61.3895 18.5939C62.1094 19.1066 62.4693 19.955 62.4693 21.115C62.4693 22.4912 62.2455 23.9475 62.005 25.4916C61.2928 30.0376 60.4126 35.7027 64.4459 44.0174C66.9019 49.0836 67.2301 51.4202 67.4705 54.5401C67.7503 58.1968 67.9348 60.6211 71.5432 60.6211C73.0389 60.6211 74.0718 60.1492 74.5996 59.2282C75.9924 56.804 73.3111 52.1385 73.1916 51.9374V51.9404Z" fill="white"/>
<path d="M36.2047 20.7473C36.2047 14.5937 41.1984 9.60007 47.352 9.60007C50.4567 9.60007 53.2651 10.8719 55.2825 12.9211C52.9536 9.73618 49.1925 7.67188 44.9429 7.67188C37.8683 7.67188 32.1396 13.402 32.1396 20.4751C32.1396 27.5482 37.8698 33.2783 44.9429 33.2783C48.1354 33.2783 51.0481 32.1093 53.2893 30.1735C51.5698 31.2609 49.5312 31.893 47.3474 31.8945C41.1954 31.893 36.2032 26.9009 36.2032 20.7473H36.2047Z" fill="white"/>
<path d="M45.1913 26.573C44.5984 26.573 44.0313 26.4928 43.4869 26.3492C44.3671 26.7167 45.3349 26.9178 46.3436 26.9254C50.4405 26.9254 53.7615 23.6043 53.7615 19.5075C53.7615 15.4106 50.4405 12.0896 46.3436 12.0896L46.3512 12.082C42.9909 12.082 40.1492 14.3142 39.2373 17.3872C40.2536 15.1142 42.5417 13.5293 45.1913 13.5293C48.7921 13.5293 51.7139 16.4496 51.7139 20.0519C51.7139 23.6542 48.7936 26.5745 45.1913 26.5745V26.573Z" fill="white"/>
</g>
<defs>
<clipPath id="clip0_723_5243">
<rect width="75" height="59.6576" fill="white" transform="translate(0 7.67188)"/>
</clipPath>
</defs>
</svg>
