<svg width="1076" height="178" viewBox="0 0 1076 178" fill="none" xmlns="http://www.w3.org/2000/svg">
<g clip-path="url(#clip0_713_3453)">
<path d="M135.02 114.781C124.004 116.852 125.296 129.443 128.279 130.448C132.819 131.967 132.267 126.859 132.267 126.859C132.267 126.859 131.753 130.258 129.227 128.51C127.044 127.01 128.713 119.584 136.653 123.04C142.902 125.775 146.243 134.095 139.958 140.667C123.663 157.741 109.116 129.099 88.1657 127.997C75.9552 127.351 75.4993 133.506 75.4993 133.506C75.4993 133.506 75.0435 127.351 62.8329 127.997C41.9041 129.099 27.3534 157.737 11.0403 140.667C4.75554 134.095 8.09712 125.757 14.346 123.04C22.2674 119.584 23.9543 127.01 21.7721 128.51C19.2632 130.258 18.732 126.859 18.732 126.859C18.732 126.859 18.1793 131.949 22.7197 130.448C25.7023 129.461 27.0124 116.849 15.9755 114.781C9.48256 113.565 -0.222729 118.636 0.00339265 132.957C0.365905 156.316 30.8098 159.794 50.6367 159.794C70.4636 159.794 75.4778 147.278 75.4778 147.278C75.4778 147.278 80.492 159.794 100.319 159.794C120.146 159.794 150.593 156.338 150.952 132.957C151.182 118.636 141.477 113.565 134.98 114.781H135.02Z" fill="url(#paint0_linear_713_3453)"/>
<path d="M173.708 123.27L173.69 123.252L172.304 124.067C172.362 124.182 178.478 134.799 175.628 139.755C174.677 141.406 172.703 142.261 169.76 142.261C162.98 142.261 162.409 138.521 161.709 129.329C161.138 121.788 160.342 116.07 154.376 103.784C145.033 84.4884 147.083 71.3267 148.734 60.7671C149.323 57.0272 149.875 53.5133 149.854 50.1143C149.854 46.8086 148.752 44.3392 146.606 42.821C143.49 40.5992 138.953 40.8648 135.705 41.4535L135.809 42.3113C133.659 35.2692 128.326 29.609 121.481 27.0176C127.845 30.7396 132.116 37.6525 132.116 45.5524C132.116 57.404 122.507 67.0124 110.656 67.0124C99.6225 67.0124 90.5417 58.6926 89.3285 47.9823C89.3106 48.3986 89.2891 48.8186 89.2891 49.2565C89.2891 62.3787 99.924 73.0351 113.068 73.0351C126.212 73.0351 136.846 62.3787 136.846 49.2565C136.846 47.0958 136.556 44.9996 136.014 43.0076C139.061 42.4908 143.11 42.2898 145.697 44.1275C147.406 45.3442 148.26 47.3578 148.26 50.1107C148.26 53.3769 147.729 56.8333 147.158 60.498C145.468 71.2872 143.379 84.7325 152.951 104.466C158.78 116.49 159.559 122.035 160.13 129.44C160.794 138.119 161.232 143.872 169.796 143.872C173.345 143.872 175.797 142.752 177.049 140.567C180.355 134.813 173.991 123.74 173.708 123.263V123.27Z" fill="url(#paint1_linear_713_3453)"/>
<path d="M85.9262 49.2376C85.9262 34.633 97.7778 22.7814 112.382 22.7814C119.751 22.7814 126.416 25.7999 131.204 30.6633C125.677 23.1044 116.751 18.2051 106.665 18.2051C89.8743 18.2051 76.2783 31.8047 76.2783 48.5915C76.2783 65.3784 89.8779 78.978 106.665 78.978C114.242 78.978 121.155 76.2035 126.474 71.6093C122.393 74.1899 117.555 75.6902 112.372 75.6938C97.7706 75.6902 85.9226 63.8422 85.9226 49.2376H85.9262Z" fill="url(#paint2_linear_713_3453)"/>
<path d="M107.253 63.0639C105.846 63.0639 104.5 62.8737 103.208 62.5327C105.297 63.4049 107.594 63.8823 109.988 63.9002C119.712 63.9002 127.594 56.0183 127.594 46.295C127.594 36.5718 119.712 28.6898 109.988 28.6898L110.006 28.6719C102.031 28.6719 95.2869 33.9696 93.1226 41.2629C95.5345 35.8683 100.965 32.1068 107.253 32.1068C115.799 32.1068 122.734 39.0376 122.734 47.5871C122.734 56.1367 115.803 63.0675 107.253 63.0675V63.0639Z" fill="url(#paint3_linear_713_3453)"/>
</g>
<path d="M939.858 134.911C914.628 134.911 894.177 114.534 894.177 89.3959C894.177 64.2574 914.628 43.8804 939.858 43.8804C952.582 43.8804 964.084 49.0666 972.367 57.434C962.825 44.4451 947.413 36 930.014 36C901.036 36 877.543 59.4028 877.543 88.2768C877.543 117.151 901.036 140.554 930.009 140.554C943.082 140.554 955.031 135.777 964.224 127.891C957.168 132.336 948.817 134.917 939.858 134.917" fill="#1D3366"/>
<path d="M955.561 51.1973C966.543 57.6062 973.927 69.4812 973.927 83.0763C973.927 103.469 957.334 119.996 936.873 120.002C917.831 120.002 902.154 105.692 900.063 87.2781C900.027 88.0034 900.001 88.7288 900.001 89.4593C900.001 112.049 918.382 130.359 941.048 130.359C963.714 130.359 982.096 112.043 982.096 89.4593C982.096 71.9629 971.067 57.0415 955.561 51.1973Z" fill="#1D3366"/>
<path d="M935.772 54.0254C921.997 54.0254 910.365 63.1544 906.626 75.6718C910.802 66.3874 920.156 59.9214 931.029 59.9214C945.797 59.9214 957.767 71.8482 957.767 86.5624C957.767 101.277 945.797 113.203 931.029 113.203C928.617 113.203 926.277 112.877 924.051 112.281C927.655 113.784 931.617 114.613 935.772 114.618C952.567 114.618 966.175 101.049 966.175 84.319C966.175 67.5842 952.562 54.0254 935.772 54.0254Z" fill="#1D3366"/>
<path d="M215.861 138.35C209.857 135.905 205.076 132.238 201.481 127.421C197.886 122.603 195.981 116.816 195.801 110.057H222.656C223.051 113.904 224.381 116.816 226.646 118.829C228.911 120.842 231.859 121.849 235.49 121.849C239.121 121.849 242.176 120.986 244.333 119.26C246.49 117.535 247.569 115.162 247.569 112.106C247.569 109.554 246.706 107.433 244.981 105.779C243.255 104.125 241.134 102.723 238.653 101.645C236.137 100.566 232.578 99.3438 227.976 97.9418C221.289 95.8926 215.825 93.8076 211.619 91.7584C207.377 89.6733 203.746 86.6535 200.69 82.6271C197.634 78.5648 196.088 73.3161 196.088 66.8091C196.088 57.1745 199.576 49.625 206.586 44.1966C213.56 38.7322 222.656 36 233.836 36C245.017 36 254.435 38.7322 261.41 44.1966C268.384 49.661 272.123 57.2464 272.626 66.9889H245.34C245.16 63.6455 243.902 61.0212 241.637 59.1158C239.372 57.2105 236.46 56.2398 232.937 56.2398C229.882 56.2398 227.437 57.0667 225.567 58.6844C223.698 60.3022 222.763 62.6389 222.763 65.6947C222.763 69.038 224.345 71.6624 227.473 73.4958C230.636 75.3652 235.526 77.3784 242.212 79.5354C248.899 81.8003 254.328 83.9573 258.498 86.0424C262.668 88.0915 266.299 91.1113 269.355 95.0298C272.411 98.9484 273.92 104.017 273.92 110.237C273.92 116.456 272.411 121.489 269.427 126.306C266.443 131.124 262.093 134.97 256.377 137.81C250.661 140.65 243.938 142.088 236.173 142.088C228.408 142.088 221.829 140.866 215.825 138.386L215.861 138.35Z" fill="#1D3366"/>
<path d="M363.939 37.4746V57.6785H336.509V141.011H311.272V57.6785H283.842V37.4746H363.939Z" fill="#1D3366"/>
<path d="M441.09 122.712H402.443L396.26 141.011H369.873L407.297 37.4746H436.488L473.948 141.011H447.237L441.054 122.712H441.09ZM434.583 103.263L421.749 65.3718L409.058 103.263H434.583Z" fill="#1D3366"/>
<path d="M487.68 61.7416C492.102 53.7248 498.285 47.4695 506.194 43.0117C514.103 38.5539 523.091 36.2891 533.121 36.2891C545.416 36.2891 555.949 39.5246 564.685 46.0315C573.421 52.5384 579.281 61.3821 582.229 72.5985H554.511C552.462 68.2845 549.514 64.9771 545.74 62.7123C541.965 60.4474 537.651 59.333 532.833 59.333C525.068 59.333 518.777 62.0292 513.96 67.4577C509.142 72.8502 506.734 80.1121 506.734 89.1355C506.734 98.159 509.142 105.421 513.96 110.813C518.777 116.206 525.068 118.938 532.833 118.938C537.651 118.938 541.965 117.824 545.74 115.559C549.514 113.294 552.462 110.022 554.511 105.673H582.229C579.281 116.889 573.421 125.697 564.685 132.132C555.949 138.567 545.416 141.802 533.121 141.802C523.091 141.802 514.103 139.573 506.194 135.08C498.285 130.622 492.102 124.402 487.68 116.422C483.258 108.441 481.029 99.3453 481.029 89.1355C481.029 78.9257 483.258 69.7944 487.68 61.7776V61.7416Z" fill="#1D3366"/>
<path d="M687.419 37.4746V141.011H662.182V98.3739H622.96V141.011H597.723V37.4746H622.96V78.0262H662.182V37.4746H687.419Z" fill="#1D3366"/>
<path d="M730.776 57.6785V78.6373H764.569V98.1222H730.776V120.843H768.991V141.046H705.575V37.4746H768.991V57.6785H730.776Z" fill="#1D3366"/>
<path d="M862.497 96.828C866.128 101.502 867.961 106.822 867.961 112.826C867.961 121.49 864.941 128.356 858.902 133.389C852.862 138.458 844.414 140.975 833.593 140.975H785.348V37.4746H831.939C842.472 37.4746 850.705 39.8833 856.637 44.7006C862.569 49.5178 865.552 56.0607 865.552 64.3292C865.552 70.4407 863.935 75.4737 860.771 79.5361C857.571 83.5625 853.329 86.3666 848.009 87.9484C854.012 89.2426 858.83 92.1905 862.461 96.864L862.497 96.828ZM810.549 79.3563H827.05C831.184 79.3563 834.348 78.4576 836.577 76.6241C838.806 74.7907 839.884 72.1304 839.884 68.5713C839.884 65.0123 838.77 62.316 836.577 60.4466C834.384 58.5772 831.184 57.6425 827.05 57.6425H810.549V79.3204V79.3563ZM838.949 117.787C841.25 115.881 842.401 113.077 842.401 109.446C842.401 105.816 841.178 102.975 838.77 100.89C836.361 98.8412 833.053 97.7987 828.811 97.7987H810.513V120.663H829.099C833.305 120.663 836.577 119.692 838.913 117.787H838.949Z" fill="#1D3366"/>
<path d="M1045.89 141.011L1024.79 109.303L1006.2 141.011H977.586L1010.77 88.3438L976.867 37.4746H1006.2L1027.02 68.7511L1045.32 37.4746H1073.93L1041.04 89.674L1075.26 141.011H1045.93H1045.89Z" fill="#1D3366"/>
<defs>
<linearGradient id="paint0_linear_713_3453" x1="119.742" y1="125.239" x2="106.351" y2="177.84" gradientUnits="userSpaceOnUse">
<stop offset="0.278846" stop-color="#33CFFF"/>
<stop offset="1" stop-color="#0D87C5"/>
</linearGradient>
<linearGradient id="paint1_linear_713_3453" x1="159.656" y1="54.5109" x2="87.6982" y2="118.742" gradientUnits="userSpaceOnUse">
<stop offset="0.278846" stop-color="#33CFFF"/>
<stop offset="1" stop-color="#0D87C5"/>
</linearGradient>
<linearGradient id="paint2_linear_713_3453" x1="119.847" y1="32.5036" x2="82.2515" y2="72.4561" gradientUnits="userSpaceOnUse">
<stop offset="0.278846" stop-color="#33CFFF"/>
<stop offset="1" stop-color="#0D87C5"/>
</linearGradient>
<linearGradient id="paint3_linear_713_3453" x1="120.466" y1="36.9603" x2="98.8454" y2="61.8355" gradientUnits="userSpaceOnUse">
<stop offset="0.278846" stop-color="#33CFFF"/>
<stop offset="1" stop-color="#0D87C5"/>
</linearGradient>
<clipPath id="clip0_713_3453">
<rect width="178.001" height="141.588" fill="white" transform="translate(0 18.2051)"/>
</clipPath>
</defs>
</svg>
