<svg width="1076" height="178" viewBox="0 0 1076 178" fill="none" xmlns="http://www.w3.org/2000/svg">
<g clip-path="url(#clip0_722_4913)">
<path d="M135.02 114.781C124.005 116.852 125.297 129.443 128.28 130.448C132.82 131.967 132.267 126.859 132.267 126.859C132.267 126.859 131.754 130.258 129.227 128.51C127.045 127.01 128.714 119.584 136.653 123.04C142.902 125.775 146.244 134.095 139.959 140.667C123.664 157.741 109.117 129.099 88.1662 127.997C75.9557 127.351 75.4998 133.506 75.4998 133.506C75.4998 133.506 75.044 127.351 62.8334 127.997C41.9046 129.099 27.3538 157.737 11.0408 140.667C4.75603 134.095 8.0976 125.757 14.3465 123.04C22.2679 119.584 23.9548 127.01 21.7726 128.51C19.2637 130.258 18.7325 126.859 18.7325 126.859C18.7325 126.859 18.1798 131.949 22.7201 130.448C25.7028 129.461 27.0129 116.849 15.976 114.781C9.48305 113.565 -0.222241 118.636 0.00388093 132.957C0.366394 156.316 30.8103 159.794 50.6372 159.794C70.4641 159.794 75.4783 147.278 75.4783 147.278C75.4783 147.278 80.4925 159.794 100.319 159.794C120.146 159.794 150.594 156.338 150.953 132.957C151.182 118.636 141.477 113.565 134.981 114.781H135.02Z" fill="#1D3366"/>
<path d="M173.708 123.27L173.69 123.252L172.304 124.067C172.362 124.182 178.478 134.799 175.628 139.755C174.677 141.406 172.703 142.261 169.76 142.261C162.98 142.261 162.409 138.521 161.709 129.329C161.138 121.788 160.342 116.07 154.376 103.784C145.033 84.4884 147.083 71.3267 148.734 60.7671C149.323 57.0272 149.875 53.5133 149.854 50.1143C149.854 46.8086 148.752 44.3392 146.606 42.821C143.49 40.5992 138.953 40.8648 135.705 41.4535L135.809 42.3113C133.659 35.2692 128.326 29.609 121.481 27.0176C127.845 30.7396 132.116 37.6525 132.116 45.5524C132.116 57.404 122.507 67.0124 110.656 67.0124C99.6225 67.0124 90.5417 58.6926 89.3285 47.9823C89.3106 48.3986 89.2891 48.8186 89.2891 49.2565C89.2891 62.3787 99.924 73.0351 113.068 73.0351C126.212 73.0351 136.846 62.3787 136.846 49.2565C136.846 47.0958 136.556 44.9996 136.014 43.0076C139.061 42.4908 143.11 42.2898 145.697 44.1275C147.406 45.3442 148.26 47.3578 148.26 50.1107C148.26 53.3769 147.729 56.8333 147.158 60.498C145.468 71.2872 143.379 84.7325 152.951 104.466C158.78 116.49 159.559 122.035 160.13 129.44C160.794 138.119 161.232 143.872 169.796 143.872C173.345 143.872 175.797 142.752 177.049 140.567C180.355 134.813 173.991 123.74 173.708 123.263V123.27Z" fill="#1D3366"/>
<path d="M85.9262 49.2376C85.9262 34.633 97.7778 22.7814 112.382 22.7814C119.751 22.7814 126.416 25.7999 131.204 30.6633C125.677 23.1044 116.751 18.2051 106.665 18.2051C89.8743 18.2051 76.2783 31.8047 76.2783 48.5915C76.2783 65.3784 89.8779 78.978 106.665 78.978C114.242 78.978 121.155 76.2035 126.474 71.6093C122.393 74.1899 117.555 75.6902 112.372 75.6938C97.7706 75.6902 85.9226 63.8422 85.9226 49.2376H85.9262Z" fill="#1D3366"/>
<path d="M107.254 63.0639C105.847 63.0639 104.501 62.8737 103.209 62.5327C105.298 63.4049 107.595 63.8823 109.989 63.9002C119.712 63.9002 127.594 56.0183 127.594 46.295C127.594 36.5718 119.712 28.6898 109.989 28.6898L110.007 28.6719C102.032 28.6719 95.2874 33.9696 93.123 41.2629C95.535 35.8683 100.966 32.1068 107.254 32.1068C115.8 32.1068 122.734 39.0376 122.734 47.5871C122.734 56.1367 115.803 63.0675 107.254 63.0675V63.0639Z" fill="#1D3366"/>
</g>
<path d="M939.858 134.868C914.628 134.868 894.177 114.491 894.177 89.3529C894.177 64.2145 914.628 43.8374 939.858 43.8374C952.582 43.8374 964.084 49.0236 972.367 57.391C962.825 44.4021 947.413 35.957 930.014 35.957C901.036 35.957 877.543 59.3598 877.543 88.2338C877.543 117.108 901.036 140.511 930.009 140.511C943.082 140.511 955.031 135.734 964.224 127.848C957.168 132.293 948.817 134.874 939.858 134.874" fill="#1D3366"/>
<path d="M955.561 51.1543C966.543 57.5633 973.927 69.4382 973.927 83.0333C973.927 103.426 957.334 119.953 936.873 119.959C917.831 119.959 902.154 105.649 900.063 87.2351C900.027 87.9605 900.001 88.6858 900.001 89.4163C900.001 112.006 918.382 130.316 941.048 130.316C963.714 130.316 982.096 112.001 982.096 89.4163C982.096 71.9199 971.067 56.9985 955.561 51.1543Z" fill="#1D3366"/>
<path d="M935.772 53.9824C921.998 53.9824 910.366 63.1114 906.627 75.6288C910.802 66.3444 920.157 59.8785 931.03 59.8785C945.797 59.8785 957.767 71.8052 957.767 86.5194C957.767 101.234 945.797 113.16 931.03 113.16C928.617 113.16 926.277 112.834 924.052 112.238C927.655 113.741 931.617 114.57 935.772 114.575C952.567 114.575 966.175 101.006 966.175 84.276C966.175 67.5412 952.562 53.9824 935.772 53.9824Z" fill="#1D3366"/>
<path d="M215.861 138.307C209.857 135.862 205.076 132.195 201.481 127.378C197.886 122.561 195.981 116.773 195.801 110.014H222.656C223.051 113.861 224.381 116.773 226.646 118.786C228.911 120.799 231.859 121.806 235.49 121.806C239.121 121.806 242.176 120.943 244.333 119.217C246.49 117.492 247.569 115.119 247.569 112.063C247.569 109.511 246.706 107.39 244.981 105.736C243.255 104.082 241.134 102.68 238.653 101.602C236.137 100.523 232.578 99.3009 227.976 97.8988C221.289 95.8497 215.825 93.7646 211.619 91.7154C207.377 89.6303 203.746 86.6105 200.69 82.5841C197.634 78.5218 196.088 73.2731 196.088 66.7662C196.088 57.1316 199.576 49.5821 206.586 44.1536C213.56 38.6892 222.656 35.957 233.836 35.957C245.017 35.957 254.435 38.6892 261.41 44.1536C268.384 49.618 272.123 57.2035 272.626 66.9459H245.34C245.16 63.6026 243.902 60.9782 241.637 59.0729C239.372 57.1675 236.46 56.1969 232.937 56.1969C229.882 56.1969 227.437 57.0237 225.567 58.6415C223.698 60.2592 222.763 62.596 222.763 65.6517C222.763 68.9951 224.345 71.6194 227.473 73.4529C230.636 75.3222 235.526 77.3354 242.212 79.4924C248.899 81.7573 254.328 83.9143 258.498 85.9994C262.668 88.0485 266.299 91.0683 269.355 94.9869C272.411 98.9054 273.92 103.974 273.92 110.194C273.92 116.413 272.411 121.446 269.427 126.263C266.443 131.081 262.093 134.927 256.377 137.767C250.661 140.607 243.938 142.045 236.173 142.045C228.408 142.045 221.829 140.823 215.825 138.343L215.861 138.307Z" fill="#1D3366"/>
<path d="M363.94 37.4316V57.6355H336.51V140.968H311.273V57.6355H283.843V37.4316H363.94Z" fill="#1D3366"/>
<path d="M441.089 122.669H402.443L396.259 140.968H369.872L407.296 37.4316H436.488L473.948 140.968H447.237L441.053 122.669H441.089ZM434.582 103.22L421.748 65.3288L409.058 103.22H434.582Z" fill="#1D3366"/>
<path d="M487.68 61.6987C492.102 53.6818 498.285 47.4265 506.194 42.9687C514.103 38.5109 523.091 36.2461 533.121 36.2461C545.416 36.2461 555.949 39.4816 564.685 45.9885C573.421 52.4955 579.281 61.3392 582.229 72.5556H554.511C552.462 68.2416 549.514 64.9342 545.74 62.6693C541.965 60.4045 537.651 59.29 532.833 59.29C525.068 59.29 518.777 61.9863 513.96 67.4147C509.142 72.8072 506.734 80.0691 506.734 89.0926C506.734 98.116 509.142 105.378 513.96 110.77C518.777 116.163 525.068 118.895 532.833 118.895C537.651 118.895 541.965 117.781 545.74 115.516C549.514 113.251 552.462 109.979 554.511 105.63H582.229C579.281 116.846 573.421 125.654 564.685 132.089C555.949 138.524 545.416 141.759 533.121 141.759C523.091 141.759 514.103 139.53 506.194 135.037C498.285 130.579 492.102 124.359 487.68 116.379C483.258 108.398 481.029 99.3023 481.029 89.0926C481.029 78.8828 483.258 69.7515 487.68 61.7346V61.6987Z" fill="#1D3366"/>
<path d="M687.419 37.4316V140.968H662.182V98.3309H622.961V140.968H597.724V37.4316H622.961V77.9832H662.182V37.4316H687.419Z" fill="#1D3366"/>
<path d="M730.775 57.6355V78.5944H764.568V98.0792H730.775V120.8H768.99V141.004H705.574V37.4316H768.99V57.6355H730.775Z" fill="#1D3366"/>
<path d="M862.497 96.785C866.128 101.459 867.961 106.779 867.961 112.783C867.961 121.447 864.941 128.313 858.902 133.346C852.862 138.415 844.414 140.932 833.593 140.932H785.348V37.4316H831.939C842.472 37.4316 850.705 39.8403 856.637 44.6576C862.569 49.4749 865.552 56.0178 865.552 64.2863C865.552 70.3978 863.935 75.4308 860.771 79.4931C857.571 83.5195 853.329 86.3236 848.009 87.9054C854.012 89.1996 858.83 92.1475 862.461 96.821L862.497 96.785ZM810.549 79.3134H827.05C831.184 79.3134 834.348 78.4146 836.577 76.5812C838.806 74.7477 839.884 72.0874 839.884 68.5284C839.884 64.9693 838.77 62.2731 836.577 60.4037C834.384 58.5343 831.184 57.5996 827.05 57.5996H810.549V79.2774V79.3134ZM838.949 117.744C841.25 115.839 842.401 113.034 842.401 109.403C842.401 105.773 841.178 102.932 838.77 100.847C836.361 98.7982 833.053 97.7557 828.811 97.7557H810.513V120.62H829.099C833.305 120.62 836.577 119.649 838.913 117.744H838.949Z" fill="#1D3366"/>
<path d="M1045.89 140.968L1024.79 109.26L1006.2 140.968H977.586L1010.77 88.3008L976.867 37.4316H1006.2L1027.02 68.7081L1045.32 37.4316H1073.93L1041.04 89.631L1075.26 140.968H1045.93H1045.89Z" fill="#1D3366"/>
<defs>
<clipPath id="clip0_722_4913">
<rect width="178.001" height="141.588" fill="white" transform="translate(0 18.2051)"/>
</clipPath>
</defs>
</svg>
