<svg width="605" height="100" viewBox="0 0 605 100" fill="none" xmlns="http://www.w3.org/2000/svg">
<g clip-path="url(#clip0_722_4976)">
<path d="M75.854 64.4845C69.6656 65.6479 70.3915 72.7215 72.0671 73.2861C74.6179 74.1391 74.3074 71.2697 74.3074 71.2697C74.3074 71.2697 74.019 73.1793 72.5995 72.1973C71.3735 71.3544 72.3111 67.1824 76.7714 69.1242C80.282 70.6608 82.1593 75.3348 78.6286 79.0269C69.474 88.619 61.3014 72.528 49.5316 71.9089C42.6717 71.546 42.4156 75.0041 42.4156 75.0041C42.4156 75.0041 42.1595 71.546 35.2997 71.9089C23.5419 72.528 15.3673 88.617 6.20268 79.0269C2.67192 75.3348 4.54921 70.6507 8.05981 69.1242C12.5101 67.1824 13.4578 71.3544 12.2318 72.1973C10.8223 73.1793 10.5239 71.2697 10.5239 71.2697C10.5239 71.2697 10.2133 74.129 12.7641 73.2861C14.4398 72.7316 15.1758 65.6459 8.97526 64.4845C5.32755 63.8009 -0.124854 66.6501 0.0021803 74.6956C0.205839 87.8185 17.3091 89.7724 28.4479 89.7724C39.5866 89.7724 42.4035 82.7411 42.4035 82.7411C42.4035 82.7411 45.2205 89.7724 56.3592 89.7724C67.4979 89.7724 84.6032 87.8306 84.8049 74.6956C84.9339 66.6501 79.4815 63.8009 75.8318 64.4845H75.854Z" fill="url(#paint0_linear_722_4976)"/>
<path d="M97.5889 69.2541L97.5788 69.244L96.8004 69.7018C96.8327 69.7663 100.269 75.7309 98.6677 78.5155C98.1333 79.4431 97.0243 79.923 95.3708 79.923C91.5618 79.923 91.2412 77.8219 90.848 72.6578C90.5274 68.4213 90.0797 65.2092 86.7284 58.3069C81.4797 47.4667 82.631 40.0724 83.5586 34.1401C83.8893 32.039 84.1998 30.0649 84.1877 28.1554C84.1877 26.2982 83.5687 24.9109 82.3629 24.058C80.6126 22.8098 78.0638 22.959 76.239 23.2897L76.2975 23.7717C75.0896 19.8154 72.0932 16.6355 68.2479 15.1797C71.823 17.2707 74.2226 21.1544 74.2226 25.5925C74.2226 32.2507 68.8246 37.6487 62.1664 37.6487C55.9679 37.6487 50.8663 32.9746 50.1848 26.9576C50.1747 27.1915 50.1626 27.4274 50.1626 27.6734C50.1626 35.0455 56.1373 41.0322 63.5214 41.0322C70.9055 41.0322 76.8802 35.0455 76.8802 27.6734C76.8802 26.4596 76.7169 25.282 76.4124 24.1629C78.1243 23.8725 80.3989 23.7596 81.8527 24.792C82.8125 25.4755 83.2924 26.6068 83.2924 28.1534C83.2924 29.9883 82.994 31.9301 82.6734 33.9889C81.7236 40.0503 80.5501 47.6038 85.9279 58.6901C89.2026 65.4451 89.6401 68.5605 89.9607 72.7203C90.3338 77.5961 90.5798 80.8284 95.391 80.8284C97.3852 80.8284 98.7624 80.1993 99.4662 78.9713C101.323 75.7389 97.7482 69.5183 97.5889 69.2501V69.2541Z" fill="url(#paint1_linear_722_4976)"/>
<path d="M48.2732 27.6625C48.2732 19.4577 54.9314 12.7995 63.1362 12.7995C67.2759 12.7995 71.0204 14.4953 73.7103 17.2275C70.6051 12.9809 65.5902 10.2285 59.9241 10.2285C50.4912 10.2285 42.853 17.8687 42.853 27.2996C42.853 36.7304 50.4933 44.3706 59.9241 44.3706C64.1807 44.3706 68.0644 42.8119 71.0527 40.2309C68.76 41.6807 66.0419 42.5235 63.1302 42.5256C54.9274 42.5235 48.2712 35.8673 48.2712 27.6625H48.2732Z" fill="url(#paint2_linear_722_4976)"/>
<path d="M60.2546 35.4307C59.4641 35.4307 58.708 35.3239 57.9821 35.1323C59.1556 35.6223 60.4461 35.8905 61.7911 35.9006C67.2536 35.9006 71.6816 31.4725 71.6816 26.01C71.6816 20.5475 67.2536 16.1195 61.7911 16.1195L61.8012 16.1094C57.3207 16.1094 53.5318 19.0856 52.3159 23.183C53.671 20.1523 56.7218 18.0391 60.2546 18.0391C65.0557 18.0391 68.9514 21.9328 68.9514 26.7359C68.9514 31.539 65.0577 35.4328 60.2546 35.4328V35.4307Z" fill="url(#paint3_linear_722_4976)"/>
</g>
<path d="M528.01 75.7694C513.836 75.7694 502.347 64.3216 502.347 50.1989C502.347 36.0761 513.836 24.6283 528.01 24.6283C535.158 24.6283 541.62 27.542 546.273 32.2427C540.913 24.9456 532.254 20.2012 522.48 20.2012C506.2 20.2012 493.001 33.3488 493.001 49.5701C493.001 65.7915 506.2 78.9391 522.477 78.9391C529.821 78.9391 536.534 76.2555 541.699 71.8254C537.735 74.3228 533.043 75.7723 528.01 75.7723" fill="#1D3366"/>
<path d="M536.832 28.7383C543.001 32.3388 547.15 39.0101 547.15 46.6478C547.15 58.1043 537.828 67.3895 526.333 67.3924C515.635 67.3924 506.828 59.353 505.653 49.0084C505.633 49.4159 505.618 49.8234 505.618 50.2338C505.618 62.9245 515.945 73.2109 528.679 73.2109C541.412 73.2109 551.739 62.9216 551.739 50.2338C551.739 40.4044 545.543 32.0216 536.832 28.7383Z" fill="#1D3366"/>
<path d="M525.714 30.3281C517.976 30.3281 511.441 35.4568 509.34 42.489C511.686 37.2731 516.941 33.6405 523.05 33.6405C531.346 33.6405 538.071 40.3409 538.071 48.6073C538.071 56.8737 531.346 63.5742 523.05 63.5742C521.694 63.5742 520.38 63.3908 519.129 63.0561C521.154 63.9002 523.38 64.3659 525.714 64.3688C535.15 64.3688 542.794 56.7457 542.794 47.347C542.794 37.9454 535.147 30.3281 525.714 30.3281Z" fill="#1D3366"/>
<path d="M121.27 77.7009C117.897 76.3276 115.211 74.2675 113.192 71.5612C111.172 68.8548 110.101 65.6032 110 61.8062H125.087C125.31 63.9672 126.057 65.6032 127.329 66.7342C128.602 67.8652 130.258 68.4307 132.298 68.4307C134.338 68.4307 136.054 67.946 137.266 66.9765C138.478 66.0071 139.084 64.6741 139.084 62.9574C139.084 61.5234 138.599 60.3318 137.63 59.4028C136.66 58.4738 135.469 57.6861 134.075 57.0802C132.661 56.4743 130.662 55.7876 128.077 54.9999C124.32 53.8487 121.25 52.6773 118.887 51.5261C116.504 50.3547 114.464 48.6582 112.747 46.3962C111.031 44.114 110.162 41.1653 110.162 37.5097C110.162 32.097 112.121 27.8557 116.059 24.806C119.978 21.7361 125.087 20.2012 131.369 20.2012C137.65 20.2012 142.941 21.7361 146.859 24.806C150.778 27.8759 152.878 32.1374 153.161 37.6107H137.832C137.731 35.7324 137.024 34.258 135.751 33.1876C134.479 32.1172 132.843 31.5719 130.864 31.5719C129.147 31.5719 127.774 32.0364 126.723 32.9452C125.673 33.8541 125.148 35.1669 125.148 36.8836C125.148 38.7619 126.037 40.2362 127.794 41.2662C129.571 42.3165 132.318 43.4475 136.074 44.6593C139.831 45.9317 142.881 47.1435 145.224 48.3149C147.566 49.4661 149.606 51.1626 151.323 53.364C153.04 55.5654 153.888 58.4132 153.888 61.9072C153.888 65.4012 153.04 68.2287 151.363 70.9351C149.687 73.6414 147.243 75.8024 144.032 77.398C140.821 78.9935 137.044 79.8014 132.681 79.8014C128.319 79.8014 124.623 79.1147 121.25 77.7211L121.27 77.7009Z" fill="#1D3366"/>
<path d="M204.46 21.0293V32.3798H189.05V79.1955H174.872V32.3798H159.462V21.0293H204.46Z" fill="#1D3366"/>
<path d="M247.803 68.9155H226.092L222.618 79.1955H207.793L228.818 21.0293H245.218L266.263 79.1955H251.257L247.783 68.9155H247.803ZM244.148 57.9891L236.937 36.7019L229.808 57.9891H244.148Z" fill="#1D3366"/>
<path d="M273.978 34.6625C276.462 30.1586 279.936 26.6444 284.379 24.14C288.822 21.6357 293.871 20.3633 299.506 20.3633C306.414 20.3633 312.331 22.181 317.239 25.8366C322.147 29.4922 325.439 34.4605 327.095 40.7619H311.523C310.372 38.3383 308.716 36.4802 306.595 35.2078C304.475 33.9354 302.051 33.3093 299.345 33.3093C294.982 33.3093 291.448 34.8241 288.741 37.8737C286.035 40.9032 284.682 44.983 284.682 50.0523C284.682 55.1217 286.035 59.2014 288.741 62.2309C291.448 65.2604 294.982 66.7953 299.345 66.7953C302.051 66.7953 304.475 66.1692 306.595 64.8968C308.716 63.6244 310.372 61.7865 311.523 59.3427H327.095C325.439 65.6441 322.147 70.5923 317.239 74.2075C312.331 77.8226 306.414 79.6403 299.506 79.6403C293.871 79.6403 288.822 78.3882 284.379 75.8636C279.936 73.3592 276.462 69.8652 273.978 65.3815C271.493 60.8979 270.241 55.7881 270.241 50.0523C270.241 44.3165 271.493 39.1865 273.978 34.6827V34.6625Z" fill="#1D3366"/>
<path d="M386.19 21.0293V79.1955H372.012V55.2424H349.977V79.1955H335.799V21.0293H349.977V43.8111H372.012V21.0293H386.19Z" fill="#1D3366"/>
<path d="M410.548 32.3798V44.1544H429.533V55.101H410.548V67.8652H432.017V79.2157H396.39V21.0293H432.017V32.3798H410.548Z" fill="#1D3366"/>
<path d="M484.549 54.3739C486.589 56.9995 487.619 59.9886 487.619 63.3614C487.619 68.2288 485.922 72.0863 482.529 74.9139C479.136 77.7616 474.39 79.1753 468.311 79.1753H441.207V21.0293H467.381C473.299 21.0293 477.924 22.3825 481.257 25.0888C484.589 27.7952 486.265 31.4709 486.265 36.1162C486.265 39.5496 485.357 42.3771 483.579 44.6593C481.782 46.9214 479.398 48.4967 476.409 49.3853C479.782 50.1124 482.489 51.7685 484.528 54.3941L484.549 54.3739ZM455.364 44.5584H464.635C466.957 44.5584 468.735 44.0534 469.987 43.0234C471.239 41.9934 471.845 40.4988 471.845 38.4994C471.845 36.4999 471.219 34.9852 469.987 33.9349C468.755 32.8847 466.957 32.3596 464.635 32.3596H455.364V44.5382V44.5584ZM471.32 66.1485C472.612 65.0781 473.259 63.5028 473.259 61.4629C473.259 59.4231 472.572 57.8275 471.219 56.6561C469.866 55.5049 468.008 54.9192 465.624 54.9192H455.344V67.7643H465.786C468.149 67.7643 469.987 67.2189 471.3 66.1485H471.32Z" fill="#1D3366"/>
<path d="M587.579 79.1955L575.724 61.3821L565.282 79.1955H549.206L567.847 49.6075L548.802 21.0293H565.282L576.976 38.6003L587.256 21.0293H603.333L584.853 50.3548L604.08 79.1955H587.6H587.579Z" fill="#1D3366"/>
<defs>
<linearGradient id="paint0_linear_722_4976" x1="67.2709" y1="70.3594" x2="59.7479" y2="99.9105" gradientUnits="userSpaceOnUse">
<stop offset="0.278846" stop-color="#33CFFF"/>
<stop offset="1" stop-color="#0D87C5"/>
</linearGradient>
<linearGradient id="paint1_linear_722_4976" x1="89.6944" y1="30.6254" x2="49.2688" y2="66.7102" gradientUnits="userSpaceOnUse">
<stop offset="0.278846" stop-color="#33CFFF"/>
<stop offset="1" stop-color="#0D87C5"/>
</linearGradient>
<linearGradient id="paint2_linear_722_4976" x1="67.3297" y1="18.2614" x2="46.2088" y2="40.7066" gradientUnits="userSpaceOnUse">
<stop offset="0.278846" stop-color="#33CFFF"/>
<stop offset="1" stop-color="#0D87C5"/>
</linearGradient>
<linearGradient id="paint3_linear_722_4976" x1="67.6772" y1="20.7658" x2="55.531" y2="34.7406" gradientUnits="userSpaceOnUse">
<stop offset="0.278846" stop-color="#33CFFF"/>
<stop offset="1" stop-color="#0D87C5"/>
</linearGradient>
<clipPath id="clip0_722_4976">
<rect width="100" height="79.5439" fill="white" transform="translate(0 10.2285)"/>
</clipPath>
</defs>
</svg>
