<svg width="303" height="50" viewBox="0 0 303 50" fill="none" xmlns="http://www.w3.org/2000/svg">
<g clip-path="url(#clip0_722_5165)">
<path d="M37.927 32.2403C34.8328 32.822 35.1957 36.3588 36.0335 36.6411C37.3089 37.0676 37.1537 35.6329 37.1537 35.6329C37.1537 35.6329 37.0095 36.5877 36.2997 36.0967C35.6867 35.6753 36.1555 33.5893 38.3857 34.5602C40.141 35.3284 41.0796 37.6655 39.3143 39.5115C34.737 44.3076 30.6507 36.262 24.7658 35.9525C21.3358 35.771 21.2078 37.5001 21.2078 37.5001C21.2078 37.5001 21.0798 35.771 17.6498 35.9525C11.7709 36.262 7.68366 44.3065 3.10134 39.5115C1.33596 37.6655 2.27461 35.3234 4.0299 34.5602C6.25502 33.5893 6.72888 35.6753 6.11589 36.0967C5.41115 36.5877 5.26194 35.6329 5.26194 35.6329C5.26194 35.6329 5.10667 37.0626 6.38206 36.6411C7.21988 36.3639 7.58788 32.821 4.48763 32.2403C2.66378 31.8985 -0.0624271 33.3231 0.00109015 37.3459C0.102919 43.9073 8.65457 44.8843 14.2239 44.8843C19.7933 44.8843 21.2018 41.3686 21.2018 41.3686C21.2018 41.3686 22.6102 44.8843 28.1796 44.8843C33.7489 44.8843 42.3016 43.9133 42.4024 37.3459C42.4669 33.3231 39.7407 31.8985 37.9159 32.2403H37.927Z" fill="white"/>
<path d="M48.7942 34.6251L48.7891 34.6201L48.4 34.8489C48.4161 34.8812 50.1341 37.8635 49.3336 39.2558C49.0664 39.7196 48.5119 39.9595 47.6851 39.9595C45.7806 39.9595 45.6203 38.909 45.4237 36.327C45.2634 34.2087 45.0396 32.6026 43.364 29.1515C40.7396 23.7314 41.3153 20.0343 41.779 17.0681C41.9444 16.0175 42.0997 15.0305 42.0936 14.0757C42.0936 13.1472 41.7841 12.4535 41.1812 12.027C40.306 11.403 39.0317 11.4776 38.1192 11.6429L38.1485 11.8839C37.5446 9.90577 36.0464 8.31582 34.1237 7.58789C35.9113 8.63341 37.111 10.5752 37.111 12.7943C37.111 16.1234 34.412 18.8224 31.0829 18.8224C27.9837 18.8224 25.4329 16.4854 25.0921 13.4769C25.0871 13.5938 25.0811 13.7118 25.0811 13.8348C25.0811 17.5208 28.0684 20.5142 31.7605 20.5142C35.4525 20.5142 38.4399 17.5208 38.4399 13.8348C38.4399 13.2278 38.3582 12.639 38.2059 12.0795C39.0619 11.9343 40.1992 11.8778 40.9261 12.394C41.406 12.7358 41.646 13.3014 41.646 14.0747C41.646 14.9922 41.4967 15.9631 41.3364 16.9925C40.8616 20.0232 40.2748 23.7999 42.9637 29.3431C44.601 32.7206 44.8198 34.2783 44.9801 36.3582C45.1666 38.7961 45.2896 40.4122 47.6952 40.4122C48.6924 40.4122 49.381 40.0977 49.7328 39.4837C50.6614 37.8675 48.8738 34.7572 48.7942 34.6231V34.6251Z" fill="white"/>
<path d="M24.1368 13.8303C24.1368 9.72786 27.4659 6.39875 31.5684 6.39875C33.6382 6.39875 35.5105 7.24666 36.8554 8.61278C35.3028 6.48949 32.7953 5.11328 29.9623 5.11328C25.2459 5.11328 21.4268 8.93339 21.4268 13.6488C21.4268 18.3642 25.2469 22.1843 29.9623 22.1843C32.0906 22.1843 34.0324 21.405 35.5266 20.1145C34.3803 20.8394 33.0212 21.2608 31.5653 21.2618C27.4639 21.2608 24.1358 17.9327 24.1358 13.8303H24.1368Z" fill="white"/>
<path d="M30.1275 17.7134C29.7323 17.7134 29.3542 17.66 28.9913 17.5642C29.5781 17.8092 30.2233 17.9433 30.8958 17.9483C33.627 17.9483 35.8411 15.7343 35.8411 13.0031C35.8411 10.2718 33.627 8.05778 30.8958 8.05778L30.9008 8.05273C28.6606 8.05273 26.7662 9.54085 26.1582 11.5895C26.8357 10.0742 28.3611 9.01759 30.1275 9.01759C32.5281 9.01759 34.4759 10.9644 34.4759 13.366C34.4759 15.7676 32.5291 17.7144 30.1275 17.7144V17.7134Z" fill="white"/>
</g>
<path d="M264.005 37.8857C256.918 37.8857 251.174 32.1618 251.174 25.1004C251.174 18.039 256.918 12.3152 264.005 12.3152C267.579 12.3152 270.81 13.772 273.137 16.1223C270.457 12.4738 266.127 10.1016 261.24 10.1016C253.1 10.1016 246.501 16.6754 246.501 24.7861C246.501 32.8967 253.1 39.4705 261.239 39.4705C264.911 39.4705 268.267 38.1287 270.85 35.9137C268.868 37.1624 266.522 37.8871 264.005 37.8871" fill="white"/>
<path d="M268.415 14.3691C271.5 16.1694 273.574 19.5051 273.574 23.3239C273.574 29.0522 268.913 33.6947 263.166 33.6962C257.817 33.6962 253.413 29.6765 252.826 24.5042C252.816 24.708 252.809 24.9117 252.809 25.1169C252.809 31.4622 257.972 36.6054 264.339 36.6054C270.706 36.6054 275.869 31.4608 275.869 25.1169C275.869 20.2022 272.771 16.0108 268.415 14.3691Z" fill="white"/>
<path d="M262.857 15.1641C258.988 15.1641 255.72 17.7284 254.67 21.2445C255.843 18.6365 258.47 16.8203 261.525 16.8203C265.673 16.8203 269.035 20.1705 269.035 24.3037C269.035 28.4369 265.673 31.7871 261.525 31.7871C260.847 31.7871 260.19 31.6954 259.564 31.528C260.577 31.9501 261.69 32.1829 262.857 32.1844C267.575 32.1844 271.397 28.3728 271.397 23.6735C271.397 18.9727 267.573 15.1641 262.857 15.1641Z" fill="white"/>
<path d="M60.6349 38.8514C58.9485 38.1648 57.6054 37.1347 56.5955 35.7816C55.5857 34.4284 55.0505 32.8026 55 30.9041H62.5435C62.6545 31.9846 63.0282 32.8026 63.6644 33.3681C64.3006 33.9336 65.1286 34.2163 66.1486 34.2163C67.1685 34.2163 68.0269 33.974 68.6328 33.4892C69.2387 33.0045 69.5416 32.338 69.5416 31.4797C69.5416 30.7627 69.2993 30.1669 68.8145 29.7024C68.3298 29.2379 67.734 28.844 67.0372 28.5411C66.3303 28.2381 65.3306 27.8948 64.038 27.5009C62.1597 26.9253 60.6248 26.3396 59.4433 25.764C58.2517 25.1783 57.2317 24.3301 56.3734 23.1991C55.515 22.058 55.0808 20.5836 55.0808 18.7558C55.0808 16.0495 56.0603 13.9288 58.0295 12.404C59.9886 10.869 62.5435 10.1016 65.6841 10.1016C68.8246 10.1016 71.4704 10.869 73.4295 12.404C75.3886 13.9389 76.4388 16.0697 76.5802 18.8063H68.9155C68.865 17.8672 68.5116 17.13 67.8754 16.5948C67.2392 16.0596 66.4212 15.7869 65.4316 15.7869C64.5732 15.7869 63.8865 16.0192 63.3614 16.4736C62.8363 16.928 62.5738 17.5844 62.5738 18.4428C62.5738 19.3819 63.0181 20.1191 63.8966 20.6341C64.7853 21.1592 66.1587 21.7247 68.037 22.3306C69.9153 22.9668 71.4401 23.5727 72.6115 24.1584C73.7829 24.734 74.8029 25.5823 75.6612 26.683C76.5196 27.7837 76.9437 29.2076 76.9437 30.9546C76.9437 32.7016 76.5196 34.1153 75.6814 35.4685C74.8433 36.8217 73.6214 37.9022 72.0157 38.7C70.4101 39.4977 68.5217 39.9017 66.3404 39.9017C64.1592 39.9017 62.3112 39.5583 60.6248 38.8615L60.6349 38.8514Z" fill="white"/>
<path d="M102.23 10.5156V16.1909H94.5245V39.5987H87.4355V16.1909H79.7305V10.5156H102.23Z" fill="white"/>
<path d="M123.901 34.4587H113.046L111.309 39.5987H103.896L114.409 10.5156H122.609L133.131 39.5987H125.628L123.891 34.4587H123.901ZM122.074 28.9955L118.468 18.3519L114.904 28.9955H122.074Z" fill="white"/>
<path d="M136.988 17.3312C138.23 15.0793 139.967 13.3222 142.189 12.07C144.411 10.8178 146.935 10.1816 149.753 10.1816C153.206 10.1816 156.165 11.0905 158.619 12.9183C161.073 14.7461 162.719 17.2303 163.547 20.3809H155.761C155.186 19.1691 154.357 18.2401 153.297 17.6039C152.237 16.9677 151.025 16.6547 149.672 16.6547C147.491 16.6547 145.723 17.412 144.37 18.9369C143.017 20.4516 142.34 22.4915 142.34 25.0262C142.34 27.5608 143.017 29.6007 144.37 31.1154C145.723 32.6302 147.491 33.3976 149.672 33.3976C151.025 33.3976 152.237 33.0846 153.297 32.4484C154.357 31.8122 155.186 30.8933 155.761 29.6714H163.547C162.719 32.822 161.073 35.2961 158.619 37.1037C156.165 38.9113 153.206 39.8202 149.753 39.8202C146.935 39.8202 144.411 39.1941 142.189 37.9318C139.967 36.6796 138.23 34.9326 136.988 32.6908C135.746 30.4489 135.12 27.8941 135.12 25.0262C135.12 22.1582 135.746 19.5933 136.988 17.3413V17.3312Z" fill="white"/>
<path d="M193.095 10.5156V39.5987H186.006V27.6222H174.988V39.5987H167.899V10.5156H174.988V21.9065H186.006V10.5156H193.095Z" fill="white"/>
<path d="M205.273 16.1909V22.0782H214.766V27.5515H205.273V33.9336H216.008V39.6088H198.194V10.5156H216.008V16.1909H205.273Z" fill="white"/>
<path d="M242.274 27.1879C243.294 28.5007 243.809 29.9953 243.809 31.6817C243.809 34.1154 242.96 36.0441 241.264 37.4579C239.567 38.8818 237.194 39.5886 234.155 39.5886H220.603V10.5156H233.69C236.649 10.5156 238.961 11.1922 240.628 12.5454C242.294 13.8986 243.132 15.7364 243.132 18.0591C243.132 19.7758 242.678 21.1895 241.789 22.3306C240.89 23.4617 239.699 24.2493 238.204 24.6936C239.89 25.0572 241.244 25.8852 242.263 27.198L242.274 27.1879ZM227.681 22.2802H232.317C233.478 22.2802 234.367 22.0277 234.993 21.5127C235.619 20.9977 235.922 20.2504 235.922 19.2507C235.922 18.2509 235.609 17.4936 234.993 16.9684C234.377 16.4433 233.478 16.1808 232.317 16.1808H227.681V22.2701V22.2802ZM235.659 33.0752C236.305 32.54 236.629 31.7524 236.629 30.7324C236.629 29.7125 236.285 28.9147 235.609 28.329C234.932 27.7534 234.003 27.4606 232.811 27.4606H227.671V33.8831H232.892C234.074 33.8831 234.993 33.6105 235.649 33.0752H235.659Z" fill="white"/>
<path d="M293.789 39.5987L287.861 30.692L282.641 39.5987H274.602L283.923 24.8047L274.4 10.5156H282.641L288.488 19.3011L293.628 10.5156H301.666L292.426 25.1784L302.04 39.5987H293.799H293.789Z" fill="white"/>
<defs>
<clipPath id="clip0_722_5165">
<rect width="50.0002" height="39.7719" fill="white" transform="translate(0 5.11328)"/>
</clipPath>
</defs>
</svg>
