<svg width="500" height="500" viewBox="0 0 500 500" fill="none" xmlns="http://www.w3.org/2000/svg">
<g clip-path="url(#clip0_723_5186)">
<path d="M379.267 322.418C348.325 328.236 351.955 363.604 360.333 366.427C373.087 370.691 371.534 356.345 371.534 356.345C371.534 356.345 370.092 365.892 362.995 360.982C356.865 356.768 361.553 335.908 383.854 345.617C401.407 353.3 410.794 376.67 393.14 395.13C347.367 443.091 306.505 362.636 247.656 359.541C213.357 357.726 212.076 375.017 212.076 375.017C212.076 375.017 210.796 357.726 176.497 359.541C117.708 362.636 76.8353 443.081 31.0123 395.13C13.3586 376.67 22.745 353.249 40.2979 345.617C62.549 335.908 67.2876 356.768 61.1577 360.982C54.1103 365.892 52.6182 356.345 52.6182 356.345C52.6182 356.345 51.0655 370.641 63.8193 366.427C72.1975 363.654 75.8775 328.226 44.8751 322.418C26.6367 319.001 -0.625245 333.247 0.00992487 373.474C1.02821 439.088 86.5443 448.858 142.238 448.858C197.931 448.858 212.016 413.701 212.016 413.701C212.016 413.701 226.1 448.858 281.794 448.858C337.487 448.858 423.013 439.149 424.021 373.474C424.667 333.247 397.405 319.001 379.156 322.418H379.267Z" fill="url(#paint0_linear_723_5186)"/>
<path d="M487.942 346.263L487.891 346.213L484 348.502C484.161 348.824 501.341 378.647 493.336 392.57C490.664 397.208 485.119 399.608 476.851 399.608C457.806 399.608 456.203 389.102 454.237 363.282C452.634 342.1 450.396 326.039 433.64 291.528C407.396 237.327 413.153 200.356 417.791 170.694C419.444 160.189 420.997 150.318 420.936 140.771C420.936 131.485 417.841 124.549 411.812 120.284C403.061 114.043 390.317 114.789 381.193 116.443L381.485 118.852C375.446 99.0713 360.464 83.1718 341.238 75.8926C359.113 86.3477 371.111 105.766 371.111 127.956C371.111 161.247 344.121 188.237 310.83 188.237C279.838 188.237 254.33 164.867 250.922 134.782C250.872 135.951 250.812 137.131 250.812 138.361C250.812 175.221 280.685 205.155 317.605 205.155C354.526 205.155 384.399 175.221 384.399 138.361C384.399 132.292 383.582 126.404 382.06 120.808C390.62 119.356 401.992 118.792 409.261 123.954C414.06 127.372 416.46 133.028 416.46 140.761C416.46 149.935 414.968 159.644 413.365 169.938C408.616 200.245 402.748 238.012 429.637 293.443C446.01 327.218 448.198 342.795 449.801 363.594C451.667 387.973 452.897 404.134 476.952 404.134C486.923 404.134 493.81 400.989 497.328 394.849C506.614 378.687 488.738 347.584 487.942 346.243V346.263Z" fill="url(#paint1_linear_723_5186)"/>
<path d="M241.364 138.31C241.364 97.2862 274.655 63.9953 315.679 63.9953C336.378 63.9953 355.1 72.4743 368.55 86.1355C353.023 64.9026 327.949 51.1406 299.618 51.1406C252.455 51.1406 214.264 89.3416 214.264 136.495C214.264 183.649 252.465 221.85 299.618 221.85C320.902 221.85 340.32 214.057 355.261 201.152C343.798 208.401 330.207 212.615 315.649 212.625C274.635 212.615 241.354 179.334 241.354 138.31H241.364Z" fill="url(#paint2_linear_723_5186)"/>
<path d="M301.272 177.145C297.32 177.145 293.539 176.611 289.91 175.653C295.777 178.103 302.23 179.444 308.955 179.495C336.267 179.495 358.407 157.354 358.407 130.042C358.407 102.73 336.267 80.5895 308.955 80.5895L309.005 80.5391C286.603 80.5391 267.659 95.4202 261.579 115.907C268.354 100.754 283.608 90.1876 301.272 90.1876C325.278 90.1876 344.756 109.656 344.756 133.672C344.756 157.687 325.288 177.156 301.272 177.156V177.145Z" fill="url(#paint3_linear_723_5186)"/>
</g>
<defs>
<linearGradient id="paint0_linear_723_5186" x1="336.352" y1="351.793" x2="298.737" y2="499.548" gradientUnits="userSpaceOnUse">
<stop offset="0.278846" stop-color="#33CFFF"/>
<stop offset="1" stop-color="#0D87C5"/>
</linearGradient>
<linearGradient id="paint1_linear_723_5186" x1="448.47" y1="153.121" x2="246.343" y2="333.544" gradientUnits="userSpaceOnUse">
<stop offset="0.278846" stop-color="#33CFFF"/>
<stop offset="1" stop-color="#0D87C5"/>
</linearGradient>
<linearGradient id="paint2_linear_723_5186" x1="336.647" y1="91.3048" x2="231.042" y2="203.53" gradientUnits="userSpaceOnUse">
<stop offset="0.278846" stop-color="#33CFFF"/>
<stop offset="1" stop-color="#0D87C5"/>
</linearGradient>
<linearGradient id="paint3_linear_723_5186" x1="338.385" y1="103.821" x2="277.654" y2="173.695" gradientUnits="userSpaceOnUse">
<stop offset="0.278846" stop-color="#33CFFF"/>
<stop offset="1" stop-color="#0D87C5"/>
</linearGradient>
<clipPath id="clip0_723_5186">
<rect width="500" height="397.717" fill="white" transform="translate(0 51.1406)"/>
</clipPath>
</defs>
</svg>
