<svg width="250" height="250" viewBox="0 0 250 250" fill="none" xmlns="http://www.w3.org/2000/svg">
<g clip-path="url(#clip0_960_123287)">
<path d="M125 11.5783C155.294 11.5783 183.781 23.3746 205.2 44.7998C226.625 66.225 238.422 94.7055 238.422 125C238.422 155.294 226.625 183.781 205.2 205.2C183.775 226.625 155.294 238.422 125 238.422C94.7055 238.422 66.2191 226.625 44.7998 205.2C23.3746 183.775 11.5783 155.294 11.5783 125C11.5783 94.7055 23.3746 66.2191 44.7998 44.7998C66.225 23.3746 94.7055 11.5783 125 11.5783ZM125 0C55.9658 0 0 55.9658 0 125C0 194.034 55.9658 250 125 250C194.034 250 250 194.034 250 125C250 55.9658 194.034 0 125 0Z" fill="white"/>
<path d="M182.273 155.562C170.206 155.562 160.395 165.374 160.395 177.441C160.395 189.508 170.206 199.32 182.273 199.32C194.34 199.32 204.152 189.508 204.152 177.441C204.152 165.374 194.34 155.562 182.273 155.562ZM174.982 190.604L168.404 184.025L171.843 180.586L174.988 183.731L192.715 166.004L196.154 169.444L174.988 190.61L174.982 190.604Z" fill="white"/>
<path d="M191.997 80.2037H184.706V77.7714C184.706 73.749 181.432 70.4805 177.415 70.4805H138.523C134.5 70.4805 131.232 73.7549 131.232 77.7714V80.2037H116.644V85.0682H131.232V87.5005C131.232 91.5229 134.506 94.7914 138.523 94.7914H177.415C181.438 94.7914 184.706 91.517 184.706 87.5005V85.0682H191.997C198.699 85.0682 204.153 90.5217 204.153 97.2237V114.238C204.153 120.94 198.699 126.393 191.997 126.393H160.395V123.961C160.395 119.939 157.121 116.67 153.104 116.67H114.212C110.189 116.67 106.921 119.945 106.921 123.961V126.393H75.3188C65.9372 126.393 58.3047 134.026 58.3047 143.407V162.854C58.3047 172.235 65.9372 179.868 75.3188 179.868H82.6098V182.3C82.6098 186.323 85.8842 189.591 89.9007 189.591H128.794C132.816 189.591 136.084 186.317 136.084 182.3V179.868H155.655C155.584 179.067 155.531 178.26 155.531 177.436C155.531 176.611 155.584 175.804 155.655 175.003H136.084V172.571C136.084 168.549 132.81 165.28 128.794 165.28H89.9007C85.8783 165.28 82.6098 168.555 82.6098 172.571V175.003H75.3188C68.6168 175.003 63.1633 169.55 63.1633 162.848V143.402C63.1633 136.7 68.6168 131.246 75.3188 131.246H106.921V133.678C106.921 137.701 110.195 140.969 114.212 140.969H153.104C157.127 140.969 160.395 137.695 160.395 133.678V131.246H191.997C201.379 131.246 209.011 123.614 209.011 114.232V97.2178C209.011 87.8362 201.379 80.2037 191.997 80.2037ZM145.814 85.0682H140.949V80.2037H145.814V85.0682ZM155.537 85.0682H150.672V80.2037H155.537V85.0682ZM165.26 85.0682H160.395V80.2037H165.26V85.0682ZM174.983 85.0682H170.119V80.2037H174.983V85.0682ZM121.503 175.009H126.367V179.874H121.503V175.009ZM111.779 175.009H116.644V179.874H111.779V175.009ZM102.056 175.009H106.921V179.874H102.056V175.009ZM92.333 175.009H97.1975V179.874H92.333V175.009ZM121.503 131.252H116.638V126.387H121.503V131.252ZM131.226 131.252H126.361V126.387H131.226V131.252ZM140.955 131.252H136.09V126.387H140.955V131.252ZM150.678 131.252H145.814V126.387H150.678V131.252Z" fill="white"/>
<path d="M102.616 67.8313C101.662 61.7359 96.379 57.0539 90.0126 57.0539C87.6216 57.0539 85.3189 57.7135 83.3224 58.9502C80.2894 53.8501 74.8242 50.6758 68.7582 50.6758C59.3825 50.6758 51.7559 58.3024 51.7559 67.6781C51.7559 67.737 51.7559 67.7959 51.7559 67.8548C45.7311 68.8678 40.9844 74.121 40.9844 80.4284C40.9844 87.4602 46.8442 93.1787 53.876 93.1787H100.637C107.669 93.1787 113.529 87.4602 113.529 80.4284C113.529 74.068 108.705 68.7794 102.61 67.8254L102.616 67.8313Z" fill="white"/>
</g>
<defs>
<clipPath id="clip0_960_123287">
<rect width="250" height="250" fill="white"/>
</clipPath>
</defs>
</svg>
