<svg width="333" height="50" viewBox="0 0 333 50" fill="none" xmlns="http://www.w3.org/2000/svg">
<g clip-path="url(#clip0_721_4376)">
<g opacity="0.23">
<path d="M29.6916 47.3038C17.6691 47.3038 7.92448 37.5591 7.92448 25.5366C7.92448 13.5163 17.6691 3.76949 29.6916 3.76949C35.7544 3.76949 41.2345 6.25109 45.1814 10.2506C40.6343 4.03671 33.2903 0 25.0022 0C11.1946 0 0 11.1924 0 25C0 38.8076 11.1946 50 25 50C31.2292 50 36.924 47.7155 41.3024 43.9438C37.9403 46.0684 33.9605 47.3038 29.6916 47.3038Z" fill="#1D3366"/>
<path d="M37.1762 7.26977C42.4088 10.334 45.9287 16.0134 45.9287 22.5142C45.9287 32.2654 38.0217 40.1723 28.2705 40.1723C19.1983 40.1723 11.7272 33.3299 10.7306 24.5227C10.7131 24.8688 10.7021 25.217 10.7021 25.5653C10.7021 36.3678 19.4589 45.1246 30.2615 45.1246C41.064 45.1246 49.8208 36.3678 49.8208 25.5653C49.8208 17.1984 44.5641 10.0624 37.1762 7.26758" fill="#1D3366"/>
<path d="M27.7449 8.62328C21.1806 8.62328 15.6369 12.9907 13.8584 18.9746C15.8494 14.5349 20.3044 11.4422 25.4867 11.4422C32.5241 11.4422 38.2276 17.1457 38.2276 24.1831C38.2276 31.2205 32.5241 36.9241 25.4867 36.9241C24.3368 36.9241 23.2219 36.7685 22.1618 36.4838C23.879 37.2022 25.7648 37.6009 27.7449 37.6009C35.746 37.6009 42.2315 31.1132 42.2337 23.1099C42.2337 15.1087 35.7482 8.62109 27.7449 8.62109" fill="#1D3366"/>
</g>
<path d="M46.8938 24.2418H45.3584C44.9663 13.5575 36.3519 4.94311 25.6676 4.55105V3.01565C25.6676 2.59731 25.3281 2.25781 24.9098 2.25781C24.4914 2.25781 24.1519 2.59731 24.1519 3.01565V4.55105C13.4677 4.94311 4.85327 13.5575 4.46121 24.2418H2.92581C2.50746 24.2418 2.16797 24.5813 2.16797 24.9996C2.16797 25.418 2.50746 25.7575 2.92581 25.7575H4.46121C4.85327 36.4417 13.4677 45.0561 24.1519 45.4482V46.9836C24.1519 47.4019 24.4914 47.7414 24.9098 47.7414C25.3281 47.7414 25.6676 47.4019 25.6676 46.9836V45.4482C36.3519 45.0561 44.9663 36.4417 45.3584 25.7575H46.8938C47.3121 25.7575 47.6516 25.418 47.6516 24.9996C47.6516 24.5813 47.3121 24.2418 46.8938 24.2418ZM39.3132 25.7575H40.7916C40.4039 33.9294 33.8418 40.4916 25.6698 40.8792V39.4008C25.6698 38.9824 25.3303 38.6429 24.912 38.6429C24.4936 38.6429 24.1541 38.9824 24.1541 39.4008V40.8792C15.9822 40.4916 9.42003 33.9294 9.03235 25.7575H10.5108C10.9291 25.7575 11.2686 25.418 11.2686 24.9996C11.2686 24.5813 10.9291 24.2418 10.5108 24.2418H9.03235C9.42003 16.0698 15.9822 9.50768 24.1541 9.12V10.5984C24.1541 11.0168 24.4936 11.3563 24.912 11.3563C25.3303 11.3563 25.6698 11.0168 25.6698 10.5984V9.12C33.8418 9.50768 40.4039 16.0698 40.7916 24.2418H39.3132C38.8948 24.2418 38.5553 24.5813 38.5553 24.9996C38.5553 25.418 38.8948 25.7575 39.3132 25.7575Z" fill="#1D3366"/>
<path d="M32.7716 21.7457C32.4387 21.7457 32.1671 22.0173 32.1671 22.3502V23.5593C32.1671 23.8922 31.8955 24.1638 31.5626 24.1638H30.3536V22.3502C30.3536 22.0173 30.082 21.7457 29.749 21.7457H28.54V19.3276C28.54 18.2237 27.7931 17.2994 26.779 17.0103C27.0112 15.9174 27.9815 15.0938 29.1445 15.0938C29.4774 15.0938 29.749 14.8222 29.749 14.4893C29.749 14.1564 29.4774 13.8848 29.1445 13.8848C27.3507 13.8848 25.8591 15.1946 25.57 16.9096H24.2514C23.9623 15.1968 22.4729 13.8848 20.6768 13.8848C20.3439 13.8848 20.0723 14.1564 20.0723 14.4893C20.0723 14.8222 20.3439 15.0938 20.6768 15.0938C21.8377 15.0938 22.8102 15.9174 23.0424 17.0103C22.0304 17.2994 21.2814 18.2237 21.2814 19.3276V21.7457H20.0723C19.7394 21.7457 19.4678 22.0173 19.4678 22.3502V24.1638H17.663C17.6499 24.0499 17.6499 23.8615 17.652 23.7258V22.3502C17.652 22.0173 17.3805 21.7457 17.0475 21.7457C16.7146 21.7457 16.443 22.0173 16.443 22.3502V23.717C16.4386 24.1967 16.4342 24.6961 16.7891 25.0531C17.0015 25.2677 17.2906 25.375 17.652 25.375H19.4656V26.5841H17.0475C16.7146 26.5841 16.443 26.8557 16.443 27.1886C16.443 27.5215 16.7146 27.7931 17.0475 27.7931H19.4656V29.0022H17.652C17.2906 29.0022 17.0015 29.1095 16.7891 29.3241C16.4342 29.6833 16.4386 30.1805 16.4408 30.6602V32.027C16.4408 32.3599 16.7124 32.6315 17.0453 32.6315C17.3783 32.6315 17.6499 32.3599 17.6499 32.027V30.6515C17.6499 30.5157 17.6477 30.3273 17.6608 30.2134H19.4656V30.8179C19.4656 32.4847 20.8214 33.8427 22.4882 33.8427H27.3266C28.9934 33.8427 30.3492 32.4869 30.3492 30.8179V30.2134H31.5582C31.8911 30.2134 32.1627 30.485 32.1627 30.8179V32.027C32.1627 32.3599 32.4343 32.6315 32.7673 32.6315C33.1002 32.6315 33.3718 32.3599 33.3718 32.027V30.8179C33.3718 29.817 32.557 29.0044 31.5582 29.0044H30.3492V27.7953H32.7695C33.1024 27.7953 33.374 27.5237 33.374 27.1908C33.374 26.8579 33.1024 26.5863 32.7695 26.5863H30.3492V25.3772H31.5582C32.5592 25.3772 33.3718 24.5624 33.3718 23.5637V22.3546C33.3718 22.0217 33.1024 21.7501 32.7673 21.7501L32.7716 21.7457ZM22.4904 19.3276C22.4904 18.6596 23.0336 18.1186 23.6994 18.1186H26.1175C26.7856 18.1186 27.3266 18.6618 27.3266 19.3276V21.7457H22.4882V19.3276H22.4904ZM23.0949 27.1886C23.0949 27.5215 22.8233 27.7931 22.4904 27.7931C22.1575 27.7931 21.8859 27.5215 21.8859 27.1886V24.7705C21.8859 24.4376 22.1575 24.166 22.4904 24.166C22.8233 24.166 23.0949 24.4376 23.0949 24.7705V27.1886ZM27.9333 30.8179C27.9333 31.1508 27.6617 31.4224 27.3288 31.4224C26.9958 31.4224 26.7242 31.1508 26.7242 30.8179V28.3998C26.7242 28.0669 26.9958 27.7953 27.3288 27.7953C27.6617 27.7953 27.9333 28.0669 27.9333 28.3998V30.8179Z" fill="#1D3366"/>
</g>
<g clip-path="url(#clip1_721_4376)">
<path d="M56.6693 17.1433C57.9103 14.8934 59.6456 13.1378 61.8653 11.8867C64.085 10.6356 66.6073 10 69.4223 10C72.8728 10 75.829 10.908 78.2808 12.7342C80.7325 14.5604 82.3771 17.0424 83.2044 20.1903H75.4255C74.8504 18.9796 74.023 18.0513 72.9637 17.4157C71.9043 16.7801 70.6935 16.4673 69.3416 16.4673C67.1622 16.4673 65.3966 17.224 64.0446 18.7475C62.6926 20.2609 62.0167 22.299 62.0167 24.8314C62.0167 27.3638 62.6926 29.4019 64.0446 30.9153C65.3966 32.4287 67.1622 33.1955 69.3416 33.1955C70.6935 33.1955 71.9043 32.8827 72.9637 32.2471C74.023 31.6115 74.8504 30.6933 75.4255 29.4725H83.2044C82.3771 32.6204 80.7325 35.0923 78.2808 36.8983C75.829 38.7043 72.8728 39.6124 69.4223 39.6124C66.6073 39.6124 64.085 38.9868 61.8653 37.7256C59.6456 36.4746 57.9103 34.7291 56.6693 32.4893C55.4283 30.2494 54.8027 27.6968 54.8027 24.8314C54.8027 21.966 55.4283 19.4033 56.6693 17.1534V17.1433Z" fill="#1D3366"/>
<path d="M109.195 26.9896C110.214 28.3012 110.728 29.7945 110.728 31.4794C110.728 33.9109 109.881 35.838 108.186 37.2505C106.491 38.6731 104.12 39.3794 101.083 39.3794H87.543V10.332H100.619C103.575 10.332 105.885 11.008 107.55 12.36C109.225 13.712 110.052 15.5482 110.052 17.8688C110.052 19.584 109.608 20.9965 108.711 22.1366C107.813 23.2666 106.622 24.0536 105.129 24.4975C106.814 24.8608 108.166 25.6881 109.185 26.9997L109.195 26.9896ZM94.6257 22.0862H99.2668C100.427 22.0862 101.315 21.8339 101.941 21.3194C102.566 20.8048 102.869 20.0582 102.869 19.0594C102.869 18.0605 102.556 17.3038 101.941 16.7792C101.315 16.2545 100.427 15.9922 99.2668 15.9922H94.6257V22.0761V22.0862ZM102.596 32.8717C103.242 32.337 103.565 31.55 103.565 30.531C103.565 29.512 103.232 28.7149 102.556 28.1297C101.88 27.5546 100.952 27.262 99.7612 27.262H94.6257V33.6789H99.8419C101.032 33.6789 101.941 33.4065 102.596 32.8717Z" fill="#1D3366"/>
<path d="M133.742 12.1481C136.032 13.3588 137.808 15.064 139.059 17.2634C140.31 19.4629 140.946 21.9853 140.946 24.8608C140.946 27.7362 140.32 30.2283 139.059 32.4379C137.798 34.6475 136.022 36.3526 133.722 37.5734C131.421 38.7841 128.748 39.3996 125.711 39.3996H114.824V10.332H125.711C128.778 10.332 131.452 10.9374 133.742 12.1481ZM131.512 31.0657C133.005 29.6028 133.752 27.5344 133.752 24.8608C133.752 22.1871 133.005 20.0986 131.512 18.6053C130.019 17.1121 127.94 16.3756 125.257 16.3756H121.907V33.2652H125.257C127.93 33.2652 130.019 32.5388 131.512 31.0758V31.0657Z" fill="#1D3366"/>
<path d="M151.994 16.0023V21.8844H161.478V27.3528H151.994V33.7293H162.719V39.3996H144.921V10.332H162.719V16.0023H151.994Z" fill="#1D3366"/>
<path d="M188.961 26.9896C189.98 28.3012 190.495 29.7945 190.495 31.4794C190.495 33.9109 189.647 35.838 187.952 37.2505C186.257 38.6731 183.886 39.3794 180.85 39.3794H167.31V10.332H180.385C183.342 10.332 185.652 11.008 187.317 12.36C188.992 13.712 189.819 15.5482 189.819 17.8688C189.819 19.584 189.375 20.9965 188.477 22.1366C187.579 23.2666 186.389 24.0536 184.895 24.4975C186.58 24.8608 187.932 25.6881 188.951 26.9997L188.961 26.9896ZM174.392 22.0862H179.033C180.194 22.0862 181.082 21.8339 181.707 21.3194C182.333 20.8048 182.635 20.0582 182.635 19.0594C182.635 18.0605 182.323 17.3038 181.707 16.7792C181.082 16.2545 180.194 15.9922 179.033 15.9922H174.392V22.0761V22.0862ZM182.363 32.8717C183.009 32.337 183.332 31.55 183.332 30.531C183.332 29.512 182.999 28.7149 182.323 28.1297C181.647 27.5546 180.718 27.262 179.528 27.262H174.392V33.6789H179.609C180.799 33.6789 181.707 33.4065 182.363 32.8717Z" fill="#1D3366"/>
<path d="M201.543 10.332V27.7161C201.543 29.4514 201.967 30.7933 202.825 31.7316C203.682 32.6699 204.933 33.1341 206.588 33.1341C208.243 33.1341 209.514 32.6699 210.402 31.7316C211.29 30.7933 211.724 29.4514 211.724 27.7161V10.332H218.806V27.6757C218.806 30.2687 218.251 32.4682 217.152 34.254C216.052 36.0499 214.569 37.4019 212.702 38.3099C210.836 39.218 208.767 39.672 206.477 39.672C204.187 39.672 202.139 39.2281 200.333 38.3301C198.527 37.4321 197.094 36.0802 196.045 34.2742C194.995 32.4682 194.471 30.2687 194.471 27.6757V10.332H201.553H201.543Z" fill="#1D3366"/>
<path d="M243.071 19.5247C242.547 18.5561 241.79 17.8196 240.811 17.305C239.833 16.7905 238.682 16.5383 237.351 16.5383C235.06 16.5383 233.224 17.295 231.842 18.7983C230.46 20.3016 229.773 22.3094 229.773 24.8216C229.773 27.4953 230.5 29.5939 231.943 31.0972C233.396 32.6006 235.383 33.3573 237.926 33.3573C239.661 33.3573 241.134 32.9133 242.335 32.0356C243.535 31.1477 244.413 29.8865 244.958 28.2218H235.978V23.0056H251.375V29.5838C250.85 31.3495 249.962 32.9941 248.701 34.5075C247.44 36.0209 245.846 37.2518 243.919 38.1901C241.982 39.1284 239.802 39.5925 237.381 39.5925C234.516 39.5925 231.953 38.967 229.703 37.7058C227.453 36.4547 225.697 34.7092 224.446 32.4694C223.185 30.2296 222.56 27.6769 222.56 24.8116C222.56 21.9462 223.185 19.3835 224.446 17.1335C225.697 14.8836 227.443 13.128 229.683 11.877C231.923 10.6259 234.475 9.99023 237.341 9.99023C240.821 9.99023 243.747 10.8277 246.138 12.5126C248.53 14.1975 250.104 16.5282 250.881 19.5045H243.061L243.071 19.5247Z" fill="#1D3366"/>
<path d="M274.61 19.5247C274.086 18.5561 273.329 17.8196 272.35 17.305C271.372 16.7905 270.221 16.5383 268.89 16.5383C266.599 16.5383 264.763 17.295 263.381 18.7983C261.999 20.3016 261.313 22.3094 261.313 24.8216C261.313 27.4953 262.039 29.5939 263.482 31.0972C264.935 32.6006 266.922 33.3573 269.465 33.3573C271.2 33.3573 272.673 32.9133 273.874 32.0356C275.074 31.1477 275.952 29.8865 276.497 28.2218H267.518V23.0056H282.914V29.5838C282.389 31.3495 281.501 32.9941 280.24 34.5075C278.979 36.0209 277.385 37.2518 275.458 38.1901C273.521 39.1284 271.341 39.5925 268.92 39.5925C266.055 39.5925 263.492 38.967 261.242 37.7058C258.992 36.4547 257.236 34.7092 255.985 32.4694C254.724 30.2296 254.099 27.6769 254.099 24.8116C254.099 21.9462 254.724 19.3835 255.985 17.1335C257.236 14.8836 258.982 13.128 261.222 11.877C263.462 10.6259 266.014 9.99023 268.88 9.99023C272.36 9.99023 275.286 10.8277 277.678 12.5126C280.069 14.1975 281.643 16.5282 282.42 19.5045H274.6L274.61 19.5247Z" fill="#1D3366"/>
<path d="M293.942 16.0023V21.8844H303.426V27.3528H293.942V33.7293H304.667V39.3996H286.869V10.332H304.667V16.0023H293.942Z" fill="#1D3366"/>
<path d="M324.079 39.3895L318.036 28.4223H316.341V39.3895H309.258V10.332H321.133C323.423 10.332 325.381 10.7356 326.995 11.5327C328.609 12.3297 329.82 13.4295 330.617 14.8218C331.414 16.2141 331.818 17.7679 331.818 19.4831C331.818 21.4102 331.273 23.1355 330.183 24.659C329.094 26.1724 327.489 27.2519 325.36 27.8876L332.07 39.3996H324.079V39.3895ZM316.33 23.4079H320.719C322.021 23.4079 322.989 23.0951 323.635 22.4595C324.281 21.8238 324.604 20.9259 324.604 19.7656C324.604 18.6053 324.281 17.7881 323.635 17.1625C322.989 16.5269 322.011 16.2141 320.719 16.2141H316.33V23.418V23.4079Z" fill="#1D3366"/>
</g>
<defs>
<clipPath id="clip0_721_4376">
<rect width="49.8204" height="50" fill="white"/>
</clipPath>
<clipPath id="clip1_721_4376">
<rect width="277.267" height="29.683" fill="white" transform="translate(54.8027 10)"/>
</clipPath>
</defs>
</svg>
