<svg width="75" height="75" viewBox="0 0 75 75" fill="none" xmlns="http://www.w3.org/2000/svg">
<g clip-path="url(#clip0_721_4573)">
<g opacity="0.23">
<path d="M44.698 70.9556C26.5992 70.9556 11.9296 56.3387 11.9296 38.3049C11.9296 20.2744 26.5992 5.65424 44.698 5.65424C53.8248 5.65424 62.0747 9.37664 68.0164 15.3759C61.1712 6.05506 50.1154 0 37.6385 0C16.8524 0 0 16.7886 0 37.5C0 58.2114 16.8524 75 37.6352 75C47.0127 75 55.5856 71.5733 62.1769 65.9158C57.1155 69.1026 51.1244 70.9556 44.698 70.9556Z" fill="#1D3366"/>
<path d="M55.9646 10.9037C63.8418 15.5 69.1406 24.0191 69.1406 33.7703C69.1406 48.3971 57.2374 60.2575 42.5579 60.2575C28.9005 60.2575 17.6535 49.9938 16.1532 36.7831C16.1268 37.3022 16.1104 37.8246 16.1104 38.3469C16.1104 54.5507 29.2929 67.6859 45.5551 67.6859C61.8173 67.6859 74.9998 54.5507 74.9998 38.3469C74.9998 25.7966 67.0864 15.0926 55.9646 10.9004" fill="#1D3366"/>
<path d="M41.7671 12.9349C31.8851 12.9349 23.5397 19.4861 20.8623 28.4619C23.8595 21.8023 30.5662 17.1633 38.3676 17.1633C48.9617 17.1633 57.5479 25.7186 57.5479 36.2747C57.5479 46.8308 48.9617 55.3861 38.3676 55.3861C36.6365 55.3861 34.9582 55.1528 33.3623 54.7257C35.9474 55.8033 38.7863 56.4013 41.7671 56.4013C53.8121 56.4013 63.5753 46.6698 63.5786 34.6648C63.5786 22.6631 53.8153 12.9316 41.7671 12.9316" fill="#1D3366"/>
</g>
<path d="M70.5952 36.3627H68.2838C67.6936 20.3363 54.7253 7.41467 38.6412 6.82657V4.52348C38.6412 3.89596 38.1301 3.38672 37.5003 3.38672C36.8706 3.38672 36.3595 3.89596 36.3595 4.52348V6.82657C20.2753 7.41467 7.30712 20.3363 6.7169 36.3627H4.40551C3.77573 36.3627 3.26465 36.8719 3.26465 37.4994C3.26465 38.1269 3.77573 38.6362 4.40551 38.6362H6.7169C7.30712 54.6626 20.2753 67.5842 36.3595 68.1723V70.4754C36.3595 71.1029 36.8706 71.6121 37.5003 71.6121C38.1301 71.6121 38.6412 71.1029 38.6412 70.4754V68.1723C54.7253 67.5842 67.6936 54.6626 68.2838 38.6362H70.5952C71.225 38.6362 71.736 38.1269 71.736 37.4994C71.736 36.8719 71.225 36.3627 70.5952 36.3627ZM59.1833 38.6362H61.4089C60.8253 50.8942 50.9467 60.7373 38.6445 61.3189V59.1012C38.6445 58.4737 38.1334 57.9644 37.5036 57.9644C36.8739 57.9644 36.3628 58.4737 36.3628 59.1012V61.3189C24.0606 60.7373 14.182 50.8942 13.5983 38.6362H15.824C16.4538 38.6362 16.9649 38.1269 16.9649 37.4994C16.9649 36.8719 16.4538 36.3627 15.824 36.3627H13.5983C14.182 24.1047 24.0606 14.2615 36.3628 13.68V15.8977C36.3628 16.5252 36.8739 17.0344 37.5036 17.0344C38.1334 17.0344 38.6445 16.5252 38.6445 15.8977V13.68C50.9467 14.2615 60.8253 24.1047 61.4089 36.3627H59.1833C58.5535 36.3627 58.0424 36.8719 58.0424 37.4994C58.0424 38.1269 58.5535 38.6362 59.1833 38.6362Z" fill="#1D3366"/>
<path d="M49.3341 32.6176C48.833 32.6176 48.4241 33.025 48.4241 33.5244V35.338C48.4241 35.8373 48.0152 36.2447 47.514 36.2447H45.6939V33.5244C45.6939 33.025 45.2851 32.6176 44.7839 32.6176H42.9638V28.9905C42.9638 27.3346 41.8394 25.9482 40.3128 25.5145C40.6623 23.8751 42.123 22.6397 43.8738 22.6397C44.375 22.6397 44.7839 22.2323 44.7839 21.733C44.7839 21.2336 44.375 20.8262 43.8738 20.8262C41.1734 20.8262 38.9279 22.7909 38.4927 25.3634H36.5077C36.0725 22.7941 33.8303 20.8262 31.1265 20.8262C30.6254 20.8262 30.2165 21.2336 30.2165 21.733C30.2165 22.2323 30.6254 22.6397 31.1265 22.6397C32.8741 22.6397 34.3381 23.8751 34.6876 25.5145C33.1643 25.9482 32.0366 27.3346 32.0366 28.9905V32.6176H30.2165C29.7153 32.6176 29.3064 33.025 29.3064 33.5244V36.2447H26.5895C26.5697 36.0739 26.5697 35.7913 26.573 35.5877V33.5244C26.573 33.025 26.1641 32.6176 25.663 32.6176C25.1618 32.6176 24.7529 33.025 24.7529 33.5244V35.5745C24.7463 36.294 24.7397 37.0431 25.2739 37.5786C25.5937 37.9006 26.0289 38.0616 26.573 38.0616H29.3032V39.8752H25.663C25.1618 39.8752 24.7529 40.2825 24.7529 40.7819C24.7529 41.2813 25.1618 41.6887 25.663 41.6887H29.3032V43.5023H26.573C26.0289 43.5023 25.5937 43.6633 25.2739 43.9852C24.7397 44.524 24.7463 45.2698 24.7496 45.9894V48.0395C24.7496 48.5389 25.1585 48.9462 25.6597 48.9462C26.1608 48.9462 26.5697 48.5389 26.5697 48.0395V45.9762C26.5697 45.7725 26.5664 45.49 26.5862 45.3191H29.3032V46.2259C29.3032 48.7261 31.3442 50.7631 33.8534 50.7631H41.1371C43.6463 50.7631 45.6873 48.7294 45.6873 46.2259V45.3191H47.5074C48.0086 45.3191 48.4175 45.7265 48.4175 46.2259V48.0395C48.4175 48.5389 48.8264 48.9462 49.3276 48.9462C49.8287 48.9462 50.2376 48.5389 50.2376 48.0395V46.2259C50.2376 44.7245 49.011 43.5056 47.5074 43.5056H45.6873V41.692H49.3308C49.832 41.692 50.2409 41.2846 50.2409 40.7852C50.2409 40.2858 49.832 39.8784 49.3308 39.8784H45.6873V38.0649H47.5074C49.0143 38.0649 50.2376 36.8427 50.2376 35.3445V33.531C50.2376 33.0316 49.832 32.6242 49.3276 32.6242L49.3341 32.6176ZM33.8567 28.9905C33.8567 27.9884 34.6744 27.1769 35.6768 27.1769H39.317C40.3227 27.1769 41.1371 27.9917 41.1371 28.9905V32.6176H33.8534V28.9905H33.8567ZM34.7667 40.7819C34.7667 41.2813 34.3579 41.6887 33.8567 41.6887C33.3555 41.6887 32.9466 41.2813 32.9466 40.7819V37.1548C32.9466 36.6554 33.3555 36.248 33.8567 36.248C34.3579 36.248 34.7667 36.6554 34.7667 37.1548V40.7819ZM42.0504 46.2259C42.0504 46.7253 41.6416 47.1327 41.1404 47.1327C40.6392 47.1327 40.2303 46.7253 40.2303 46.2259V42.5988C40.2303 42.0994 40.6392 41.692 41.1404 41.692C41.6416 41.692 42.0504 42.0994 42.0504 42.5988V46.2259Z" fill="#1D3366"/>
</g>
<defs>
<clipPath id="clip0_721_4573">
<rect width="75" height="75" fill="white"/>
</clipPath>
</defs>
</svg>
