<svg width="333" height="50" viewBox="0 0 333 50" fill="none" xmlns="http://www.w3.org/2000/svg">
<g clip-path="url(#clip0_721_4433)">
<g opacity="0.23">
<path d="M29.6916 47.3038C17.6691 47.3038 7.92448 37.5591 7.92448 25.5366C7.92448 13.5163 17.6691 3.76949 29.6916 3.76949C35.7543 3.76949 41.2344 6.25109 45.1813 10.2506C40.6343 4.03671 33.2903 0 25.0022 0C11.1946 0 0 11.1924 0 25C0 38.8076 11.1946 50 25 50C31.2292 50 36.9239 47.7155 41.3023 43.9438C37.9402 46.0684 33.9605 47.3038 29.6916 47.3038Z" fill="url(#paint0_linear_721_4433)"/>
<path d="M37.1757 7.26977C42.4083 10.334 45.9281 16.0134 45.9281 22.5142C45.9281 32.2654 38.0212 40.1723 28.27 40.1723C19.1978 40.1723 11.7267 33.3299 10.7301 24.5227C10.7126 24.8688 10.7017 25.217 10.7017 25.5653C10.7017 36.3678 19.4585 45.1246 30.261 45.1246C41.0635 45.1246 49.8203 36.3678 49.8203 25.5653C49.8203 17.1984 44.5636 10.0624 37.1757 7.26758" fill="url(#paint1_linear_721_4433)"/>
<path d="M27.7444 8.62328C21.1801 8.62328 15.6364 12.9907 13.8579 18.9746C15.8489 14.5349 20.3039 11.4422 25.4862 11.4422C32.5236 11.4422 38.2271 17.1457 38.2271 24.1831C38.2271 31.2205 32.5236 36.9241 25.4862 36.9241C24.3363 36.9241 23.2214 36.7685 22.1613 36.4838C23.8785 37.2022 25.7643 37.6009 27.7444 37.6009C35.7455 37.6009 42.231 31.1132 42.2331 23.1099C42.2331 15.1087 35.7477 8.62109 27.7444 8.62109" fill="url(#paint2_linear_721_4433)"/>
</g>
<path d="M46.8942 24.2418H45.3588C44.9668 13.5575 36.3523 4.94311 25.6681 4.55105V3.01565C25.6681 2.59731 25.3286 2.25781 24.9103 2.25781C24.4919 2.25781 24.1524 2.59731 24.1524 3.01565V4.55105C13.4682 4.94311 4.85376 13.5575 4.46169 24.2418H2.9263C2.50795 24.2418 2.16846 24.5813 2.16846 24.9996C2.16846 25.418 2.50795 25.7575 2.9263 25.7575H4.46169C4.85376 36.4417 13.4682 45.0561 24.1524 45.4482V46.9836C24.1524 47.4019 24.4919 47.7414 24.9103 47.7414C25.3286 47.7414 25.6681 47.4019 25.6681 46.9836V45.4482C36.3523 45.0561 44.9668 36.4417 45.3588 25.7575H46.8942C47.3126 25.7575 47.6521 25.418 47.6521 24.9996C47.6521 24.5813 47.3126 24.2418 46.8942 24.2418ZM39.3136 25.7575H40.7921C40.4044 33.9294 33.8423 40.4916 25.6703 40.8792V39.4008C25.6703 38.9824 25.3308 38.6429 24.9125 38.6429C24.4941 38.6429 24.1546 38.9824 24.1546 39.4008V40.8792C15.9826 40.4916 9.42052 33.9294 9.03283 25.7575H10.5113C10.9296 25.7575 11.2691 25.418 11.2691 24.9996C11.2691 24.5813 10.9296 24.2418 10.5113 24.2418H9.03283C9.42052 16.0698 15.9826 9.50768 24.1546 9.12V10.5984C24.1546 11.0168 24.4941 11.3563 24.9125 11.3563C25.3308 11.3563 25.6703 11.0168 25.6703 10.5984V9.12C33.8423 9.50768 40.4044 16.0698 40.7921 24.2418H39.3136C38.8953 24.2418 38.5558 24.5813 38.5558 24.9996C38.5558 25.418 38.8953 25.7575 39.3136 25.7575Z" fill="url(#paint3_linear_721_4433)"/>
<path d="M32.7711 21.7457C32.4382 21.7457 32.1666 22.0173 32.1666 22.3502V23.5593C32.1666 23.8922 31.895 24.1638 31.5621 24.1638H30.3531V22.3502C30.3531 22.0173 30.0815 21.7457 29.7485 21.7457H28.5395V19.3276C28.5395 18.2237 27.7926 17.2994 26.7785 17.0103C27.0107 15.9174 27.981 15.0938 29.144 15.0938C29.4769 15.0938 29.7485 14.8222 29.7485 14.4893C29.7485 14.1564 29.4769 13.8848 29.144 13.8848C27.3502 13.8848 25.8586 15.1946 25.5695 16.9096H24.2509C23.9618 15.1968 22.4724 13.8848 20.6764 13.8848C20.3434 13.8848 20.0718 14.1564 20.0718 14.4893C20.0718 14.8222 20.3434 15.0938 20.6764 15.0938C21.8372 15.0938 22.8097 15.9174 23.0419 17.0103C22.03 17.2994 21.2809 18.2237 21.2809 19.3276V21.7457H20.0718C19.7389 21.7457 19.4673 22.0173 19.4673 22.3502V24.1638H17.6625C17.6494 24.0499 17.6494 23.8615 17.6516 23.7258V22.3502C17.6516 22.0173 17.38 21.7457 17.047 21.7457C16.7141 21.7457 16.4425 22.0173 16.4425 22.3502V23.717C16.4381 24.1967 16.4338 24.6961 16.7886 25.0531C17.001 25.2677 17.2902 25.375 17.6516 25.375H19.4651V26.5841H17.047C16.7141 26.5841 16.4425 26.8557 16.4425 27.1886C16.4425 27.5215 16.7141 27.7931 17.047 27.7931H19.4651V29.0022H17.6516C17.2902 29.0022 17.001 29.1095 16.7886 29.3241C16.4338 29.6833 16.4381 30.1805 16.4403 30.6602V32.027C16.4403 32.3599 16.7119 32.6315 17.0448 32.6315C17.3778 32.6315 17.6494 32.3599 17.6494 32.027V30.6515C17.6494 30.5157 17.6472 30.3273 17.6603 30.2134H19.4651V30.8179C19.4651 32.4847 20.8209 33.8427 22.4877 33.8427H27.3261C28.9929 33.8427 30.3487 32.4869 30.3487 30.8179V30.2134H31.5577C31.8906 30.2134 32.1622 30.485 32.1622 30.8179V32.027C32.1622 32.3599 32.4338 32.6315 32.7668 32.6315C33.0997 32.6315 33.3713 32.3599 33.3713 32.027V30.8179C33.3713 29.817 32.5565 29.0044 31.5577 29.0044H30.3487V27.7953H32.769C33.1019 27.7953 33.3735 27.5237 33.3735 27.1908C33.3735 26.8579 33.1019 26.5863 32.769 26.5863H30.3487V25.3772H31.5577C32.5587 25.3772 33.3713 24.5624 33.3713 23.5637V22.3546C33.3713 22.0217 33.1019 21.7501 32.7668 21.7501L32.7711 21.7457ZM22.4899 19.3276C22.4899 18.6596 23.0331 18.1186 23.699 18.1186H26.117C26.7851 18.1186 27.3261 18.6618 27.3261 19.3276V21.7457H22.4877V19.3276H22.4899ZM23.0944 27.1886C23.0944 27.5215 22.8228 27.7931 22.4899 27.7931C22.157 27.7931 21.8854 27.5215 21.8854 27.1886V24.7705C21.8854 24.4376 22.157 24.166 22.4899 24.166C22.8228 24.166 23.0944 24.4376 23.0944 24.7705V27.1886ZM27.9328 30.8179C27.9328 31.1508 27.6612 31.4224 27.3283 31.4224C26.9953 31.4224 26.7237 31.1508 26.7237 30.8179V28.3998C26.7237 28.0669 26.9953 27.7953 27.3283 27.7953C27.6612 27.7953 27.9328 28.0669 27.9328 28.3998V30.8179Z" fill="url(#paint4_linear_721_4433)"/>
</g>
<g clip-path="url(#clip1_721_4433)">
<path d="M56.6688 14.407C57.9098 12.157 59.6452 10.4015 61.8648 9.15039C64.0845 7.8993 66.6068 7.26367 69.4218 7.26367C72.8723 7.26367 75.8285 8.17172 78.2803 9.9979C80.732 11.8241 82.3765 14.3061 83.2039 17.454H75.425C74.8499 16.2432 74.0225 15.315 72.9631 14.6794C71.9038 14.0437 70.693 13.731 69.3411 13.731C67.1617 13.731 65.3961 14.4877 64.0441 16.0112C62.6921 17.5246 62.0162 19.5626 62.0162 22.0951C62.0162 24.6275 62.6921 26.6656 64.0441 28.179C65.3961 29.6924 67.1617 30.4592 69.3411 30.4592C70.693 30.4592 71.9038 30.1464 72.9631 29.5108C74.0225 28.8751 74.8499 27.957 75.425 26.7362H83.2039C82.3765 29.8841 80.732 32.356 78.2803 34.162C75.8285 35.968 72.8723 36.876 69.4218 36.876C66.6068 36.876 64.0845 36.2505 61.8648 34.9893C59.6452 33.7382 57.9098 31.9928 56.6688 29.7529C55.4278 27.5131 54.8022 24.9605 54.8022 22.0951C54.8022 19.2297 55.4278 16.667 56.6688 14.4171V14.407Z" fill="white"/>
<path d="M109.194 24.2533C110.213 25.5649 110.728 27.0581 110.728 28.7431C110.728 31.1746 109.88 33.1017 108.185 34.5142C106.49 35.9368 104.119 36.6431 101.082 36.6431H87.5425V7.5957H100.618C103.575 7.5957 105.885 8.27169 107.55 9.62367C109.225 10.9756 110.052 12.8119 110.052 15.1325C110.052 16.8477 109.608 18.2602 108.71 19.4003C107.812 20.5303 106.622 21.3173 105.128 21.7612C106.813 22.1244 108.165 22.9518 109.184 24.2634L109.194 24.2533ZM94.6252 19.3498H99.2664C100.427 19.3498 101.314 19.0976 101.94 18.5831C102.566 18.0685 102.868 17.3219 102.868 16.323C102.868 15.3242 102.555 14.5675 101.94 14.0428C101.314 13.5182 100.427 13.2559 99.2664 13.2559H94.6252V19.3398V19.3498ZM102.596 30.1354C103.242 29.6007 103.564 28.8137 103.564 27.7947C103.564 26.7756 103.231 25.9786 102.555 25.3934C101.88 24.8183 100.951 24.5257 99.7607 24.5257H94.6252V30.9426H99.8414C101.032 30.9426 101.94 30.6701 102.596 30.1354Z" fill="white"/>
<path d="M133.742 9.41179C136.032 10.6225 137.808 12.3276 139.059 14.5271C140.31 16.7266 140.946 19.2489 140.946 22.1244C140.946 24.9999 140.32 27.492 139.059 29.7016C137.798 31.9111 136.022 33.6162 133.722 34.8371C131.421 36.0478 128.748 36.6632 125.711 36.6632H114.824V7.5957H125.711C128.778 7.5957 131.452 8.20107 133.742 9.41179ZM131.512 28.3294C133.005 26.8664 133.752 24.7981 133.752 22.1244C133.752 19.4507 133.005 17.3622 131.512 15.869C130.019 14.3758 127.94 13.6392 125.257 13.6392H121.907V30.5289H125.257C127.93 30.5289 130.019 29.8025 131.512 28.3395V28.3294Z" fill="white"/>
<path d="M151.994 13.2659V19.1481H161.478V24.6165H151.994V30.993H162.719V36.6632H144.921V7.5957H162.719V13.2659H151.994Z" fill="white"/>
<path d="M188.961 24.2533C189.98 25.5649 190.495 27.0581 190.495 28.7431C190.495 31.1746 189.647 33.1017 187.952 34.5142C186.257 35.9368 183.886 36.6431 180.849 36.6431H167.309V7.5957H180.385C183.341 7.5957 185.652 8.27169 187.316 9.62367C188.991 10.9756 189.819 12.8119 189.819 15.1325C189.819 16.8477 189.375 18.2602 188.477 19.4003C187.579 20.5303 186.388 21.3173 184.895 21.7612C186.58 22.1244 187.932 22.9518 188.951 24.2634L188.961 24.2533ZM174.392 19.3498H179.033C180.193 19.3498 181.081 19.0976 181.707 18.5831C182.332 18.0685 182.635 17.3219 182.635 16.323C182.635 15.3242 182.322 14.5675 181.707 14.0428C181.081 13.5182 180.193 13.2559 179.033 13.2559H174.392V19.3398V19.3498ZM182.362 30.1354C183.008 29.6007 183.331 28.8137 183.331 27.7947C183.331 26.7756 182.998 25.9786 182.322 25.3934C181.646 24.8183 180.718 24.5257 179.527 24.5257H174.392V30.9426H179.608C180.799 30.9426 181.707 30.6701 182.362 30.1354Z" fill="white"/>
<path d="M201.542 7.5957V24.9797C201.542 26.7151 201.966 28.057 202.824 28.9953C203.681 29.9336 204.932 30.3977 206.587 30.3977C208.242 30.3977 209.513 29.9336 210.401 28.9953C211.289 28.057 211.723 26.7151 211.723 24.9797V7.5957H218.805V24.9394C218.805 27.5323 218.25 29.7318 217.151 31.5177C216.051 33.3136 214.568 34.6655 212.701 35.5736C210.835 36.4816 208.766 36.9357 206.476 36.9357C204.186 36.9357 202.138 36.4917 200.332 35.5938C198.526 34.6958 197.093 33.3438 196.044 31.5378C194.994 29.7318 194.47 27.5323 194.47 24.9394V7.5957H201.552H201.542Z" fill="white"/>
<path d="M243.07 16.7884C242.546 15.8198 241.789 15.0833 240.81 14.5687C239.832 14.0542 238.681 13.8019 237.35 13.8019C235.059 13.8019 233.223 14.5586 231.841 16.0619C230.459 17.5653 229.773 19.5731 229.773 22.0853C229.773 24.759 230.499 26.8576 231.942 28.3609C233.395 29.8642 235.382 30.6209 237.925 30.6209C239.66 30.6209 241.133 30.177 242.334 29.2992C243.534 28.4114 244.412 27.1502 244.957 25.4854H235.977V20.2692H251.374V26.8475C250.849 28.6132 249.961 30.2577 248.7 31.7711C247.439 33.2845 245.845 34.5154 243.918 35.4538C241.981 36.3921 239.801 36.8562 237.38 36.8562C234.515 36.8562 231.952 36.2306 229.702 34.9695C227.452 33.7184 225.696 31.9729 224.445 29.7331C223.184 27.4932 222.559 24.9406 222.559 22.0752C222.559 19.2098 223.184 16.6471 224.445 14.3972C225.696 12.1473 227.442 10.3917 229.682 9.14062C231.922 7.88954 234.474 7.25391 237.34 7.25391C240.82 7.25391 243.746 8.09133 246.137 9.77625C248.529 11.4612 250.103 13.7918 250.88 16.7682H243.06L243.07 16.7884Z" fill="white"/>
<path d="M274.61 16.7884C274.085 15.8198 273.329 15.0833 272.35 14.5687C271.371 14.0542 270.221 13.8019 268.889 13.8019C266.599 13.8019 264.763 14.5586 263.38 16.0619C261.998 17.5653 261.312 19.5731 261.312 22.0853C261.312 24.759 262.038 26.8576 263.481 28.3609C264.934 29.8642 266.922 30.6209 269.464 30.6209C271.2 30.6209 272.673 30.177 273.873 29.2992C275.074 28.4114 275.952 27.1502 276.497 25.4854H267.517V20.2692H282.913V26.8475C282.389 28.6132 281.501 30.2577 280.24 31.7711C278.979 33.2845 277.384 34.5154 275.457 35.4538C273.52 36.3921 271.341 36.8562 268.919 36.8562C266.054 36.8562 263.491 36.2306 261.241 34.9695C258.992 33.7184 257.236 31.9729 255.985 29.7331C254.724 27.4932 254.098 24.9406 254.098 22.0752C254.098 19.2098 254.724 16.6471 255.985 14.3972C257.236 12.1473 258.981 10.3917 261.221 9.14062C263.461 7.88954 266.014 7.25391 268.879 7.25391C272.36 7.25391 275.286 8.09133 277.677 9.77625C280.068 11.4612 281.642 13.7918 282.419 16.7682H274.6L274.61 16.7884Z" fill="white"/>
<path d="M293.941 13.2659V19.1481H303.425V24.6165H293.941V30.993H304.666V36.6632H286.868V7.5957H304.666V13.2659H293.941Z" fill="white"/>
<path d="M324.078 36.6531L318.035 25.686H316.34V36.6531H309.257V7.5957H321.132C323.422 7.5957 325.38 7.99928 326.994 8.79634C328.608 9.5934 329.819 10.6931 330.616 12.0855C331.413 13.4778 331.817 15.0316 331.817 16.7468C331.817 18.6739 331.272 20.3991 330.182 21.9226C329.093 23.436 327.488 24.5156 325.36 25.1512L332.069 36.6632H324.078V36.6531ZM316.329 20.6716H320.718C322.02 20.6716 322.989 20.3588 323.634 19.7232C324.28 19.0875 324.603 18.1896 324.603 17.0293C324.603 15.869 324.28 15.0518 323.634 14.4262C322.989 13.7906 322.01 13.4778 320.718 13.4778H316.329V20.6816V20.6716Z" fill="white"/>
</g>
<defs>
<linearGradient id="paint0_linear_721_4433" x1="35.8388" y1="11.7639" x2="4.90751" y2="44.6286" gradientUnits="userSpaceOnUse">
<stop offset="0.278846" stop-color="#33CFFF"/>
<stop offset="1" stop-color="#0D87C5"/>
</linearGradient>
<linearGradient id="paint1_linear_721_4433" x1="41.7314" y1="16.1745" x2="18.707" y2="44.1493" gradientUnits="userSpaceOnUse">
<stop offset="0.278846" stop-color="#33CFFF"/>
<stop offset="1" stop-color="#0D87C5"/>
</linearGradient>
<linearGradient id="paint2_linear_721_4433" x1="36.3658" y1="15.4394" x2="18.582" y2="35.9138" gradientUnits="userSpaceOnUse">
<stop offset="0.278846" stop-color="#33CFFF"/>
<stop offset="1" stop-color="#0D87C5"/>
</linearGradient>
<linearGradient id="paint3_linear_721_4433" x1="38.2471" y1="12.9591" x2="10.4237" y2="45.6744" gradientUnits="userSpaceOnUse">
<stop offset="0.278846" stop-color="#33CFFF"/>
<stop offset="1" stop-color="#0D87C5"/>
</linearGradient>
<linearGradient id="paint4_linear_721_4433" x1="29.872" y1="18.5804" x2="17.5028" y2="30.9204" gradientUnits="userSpaceOnUse">
<stop offset="0.278846" stop-color="#33CFFF"/>
<stop offset="1" stop-color="#0D87C5"/>
</linearGradient>
<clipPath id="clip0_721_4433">
<rect width="49.8204" height="50" fill="white"/>
</clipPath>
<clipPath id="clip1_721_4433">
<rect width="277.267" height="29.683" fill="white" transform="translate(54.8022 7.26367)"/>
</clipPath>
</defs>
</svg>
