<svg width="665" height="100" viewBox="0 0 665 100" fill="none" xmlns="http://www.w3.org/2000/svg">
<g clip-path="url(#clip0_721_4319)">
<g opacity="0.23">
<path d="M59.3832 94.6075C35.3382 94.6075 15.849 75.1183 15.849 51.0732C15.849 27.0326 35.3382 7.53899 59.3832 7.53899C71.5087 7.53899 82.4689 12.5022 90.3627 20.5011C81.2686 8.07342 66.5805 0 50.0044 0C22.3892 0 0 22.3848 0 50C0 77.6152 22.3892 100 50 100C62.4584 100 73.8479 95.4311 82.6047 87.8877C75.8805 92.1369 67.921 94.6075 59.3832 94.6075Z" fill="url(#paint0_linear_721_4319)"/>
<path d="M74.3515 14.5395C84.8167 20.668 91.8563 32.0268 91.8563 45.0284C91.8563 64.5308 76.0424 80.3447 56.54 80.3447C38.3956 80.3447 23.4534 66.6597 21.4603 49.0454C21.4252 49.7375 21.4033 50.4341 21.4033 51.1306C21.4033 72.7356 38.9169 90.2492 60.522 90.2492C82.127 90.2492 99.6406 72.7356 99.6406 51.1306C99.6406 34.3967 89.1272 20.1248 74.3515 14.5352" fill="url(#paint1_linear_721_4319)"/>
<path d="M55.4887 17.2466C42.3601 17.2466 31.2729 25.9815 27.7158 37.9492C31.6978 29.0698 40.6079 22.8844 50.9723 22.8844C65.0472 22.8844 76.4542 34.2914 76.4542 48.3662C76.4542 62.4411 65.0472 73.8481 50.9723 73.8481C48.6725 73.8481 46.4428 73.5371 44.3226 72.9676C47.757 74.4045 51.5287 75.2017 55.4887 75.2017C71.491 75.2017 84.4619 62.2264 84.4663 46.2198C84.4663 30.2175 71.4954 17.2422 55.4887 17.2422" fill="url(#paint2_linear_721_4319)"/>
</g>
<path d="M93.7885 48.4836H90.7177C89.9335 27.1151 72.7047 9.88622 51.3362 9.1021V6.03131C51.3362 5.19462 50.6572 4.51562 49.8205 4.51562C48.9838 4.51562 48.3048 5.19462 48.3048 6.03131V9.1021C26.9364 9.88622 9.70751 27.1151 8.92339 48.4836H5.8526C5.0159 48.4836 4.33691 49.1625 4.33691 49.9992C4.33691 50.8359 5.0159 51.5149 5.8526 51.5149H8.92339C9.70751 72.8834 26.9364 90.1123 48.3048 90.8964V93.9672C48.3048 94.8039 48.9838 95.4828 49.8205 95.4828C50.6572 95.4828 51.3362 94.8039 51.3362 93.9672V90.8964C72.7047 90.1123 89.9335 72.8834 90.7177 51.5149H93.7885C94.6252 51.5149 95.3041 50.8359 95.3041 49.9992C95.3041 49.1625 94.6252 48.4836 93.7885 48.4836ZM78.6273 51.5149H81.5842C80.8088 67.8589 67.6846 80.9831 51.3406 81.7585V78.8016C51.3406 77.9649 50.6616 77.2859 49.8249 77.2859C48.9882 77.2859 48.3092 77.9649 48.3092 78.8016V81.7585C31.9653 80.9831 18.841 67.8589 18.0657 51.5149H21.0226C21.8593 51.5149 22.5382 50.8359 22.5382 49.9992C22.5382 49.1625 21.8593 48.4836 21.0226 48.4836H18.0657C18.841 32.1396 31.9653 19.0154 48.3092 18.24V21.1969C48.3092 22.0336 48.9882 22.7126 49.8249 22.7126C50.6616 22.7126 51.3406 22.0336 51.3406 21.1969V18.24C67.6846 19.0154 80.8088 32.1396 81.5842 48.4836H78.6273C77.7906 48.4836 77.1116 49.1625 77.1116 49.9992C77.1116 50.8359 77.7906 51.5149 78.6273 51.5149Z" fill="url(#paint3_linear_721_4319)"/>
<path d="M65.5423 43.4895C64.8764 43.4895 64.3333 44.0327 64.3333 44.6985V47.1166C64.3333 47.7825 63.7901 48.3257 63.1242 48.3257H60.7061V44.6985C60.7061 44.0327 60.1629 43.4895 59.4971 43.4895H57.079V38.6533C57.079 36.4455 55.5852 34.5969 53.557 34.0187C54.0214 31.8328 55.962 30.1857 58.288 30.1857C58.9539 30.1857 59.4971 29.6425 59.4971 28.9766C59.4971 28.3108 58.9539 27.7676 58.288 27.7676C54.7003 27.7676 51.7172 30.3872 51.1389 33.8172H48.5018C47.9236 30.3915 44.9448 27.7676 41.3527 27.7676C40.6869 27.7676 40.1437 28.3108 40.1437 28.9766C40.1437 29.6425 40.6869 30.1857 41.3527 30.1857C43.6744 30.1857 45.6194 31.8328 46.0837 34.0187C44.0599 34.5969 42.5617 36.4455 42.5617 38.6533V43.4895H40.1437C39.4778 43.4895 38.9346 44.0327 38.9346 44.6985V48.3257H35.325C35.2987 48.0979 35.2987 47.7211 35.3031 47.4495V44.6985C35.3031 44.0327 34.7599 43.4895 34.0941 43.4895C33.4282 43.4895 32.885 44.0327 32.885 44.6985V47.432C32.8763 48.3914 32.8675 49.3901 33.5772 50.1042C34.0021 50.5335 34.5803 50.7481 35.3031 50.7481H38.9302V53.1662H34.0941C33.4282 53.1662 32.885 53.7094 32.885 54.3753C32.885 55.0411 33.4282 55.5843 34.0941 55.5843H38.9302V58.0024H35.3031C34.5803 58.0024 34.0021 58.217 33.5772 58.6463C32.8675 59.3647 32.8763 60.3591 32.8807 61.3185V64.052C32.8807 64.7178 33.4238 65.261 34.0897 65.261C34.7555 65.261 35.2987 64.7178 35.2987 64.052V61.301C35.2987 61.0294 35.2944 60.6526 35.3206 60.4248H38.9302V61.6339C38.9302 64.9675 41.6418 67.6835 44.9754 67.6835H54.6522C57.9858 67.6835 60.6974 64.9719 60.6974 61.6339V60.4248H63.1155C63.7813 60.4248 64.3245 60.968 64.3245 61.6339V64.052C64.3245 64.7178 64.8677 65.261 65.5335 65.261C66.1994 65.261 66.7426 64.7178 66.7426 64.052V61.6339C66.7426 59.632 65.113 58.0068 63.1155 58.0068H60.6974V55.5887H65.5379C66.2038 55.5887 66.747 55.0455 66.747 54.3796C66.747 53.7138 66.2038 53.1706 65.5379 53.1706H60.6974V50.7525H63.1155C65.1174 50.7525 66.7426 49.1229 66.7426 47.1254V44.7073C66.7426 44.0415 66.2038 43.4983 65.5335 43.4983L65.5423 43.4895ZM44.9798 38.6533C44.9798 37.3173 46.0662 36.2353 47.3979 36.2353H52.2341C53.5702 36.2353 54.6522 37.3216 54.6522 38.6533V43.4895H44.9754V38.6533H44.9798ZM46.1889 54.3753C46.1889 55.0411 45.6457 55.5843 44.9798 55.5843C44.314 55.5843 43.7708 55.0411 43.7708 54.3753V49.5391C43.7708 48.8732 44.314 48.33 44.9798 48.33C45.6457 48.33 46.1889 48.8732 46.1889 49.5391V54.3753ZM55.8656 61.6339C55.8656 62.2997 55.3224 62.8429 54.6565 62.8429C53.9907 62.8429 53.4475 62.2997 53.4475 61.6339V56.7977C53.4475 56.1319 53.9907 55.5887 54.6565 55.5887C55.3224 55.5887 55.8656 56.1319 55.8656 56.7977V61.6339Z" fill="url(#paint4_linear_721_4319)"/>
</g>
<g clip-path="url(#clip1_721_4319)">
<path d="M113.338 28.8139C115.82 24.3141 119.291 20.8029 123.73 18.3008C128.169 15.7986 133.214 14.5273 138.844 14.5273C145.745 14.5273 151.658 16.3434 156.561 19.9958C161.464 23.6482 164.754 28.6121 166.408 34.9079H150.85C149.7 32.4865 148.046 30.63 145.927 29.3587C143.808 28.0875 141.387 27.4619 138.683 27.4619C134.324 27.4619 130.793 28.9754 128.089 32.0223C125.385 35.0492 124.033 39.1253 124.033 44.1902C124.033 49.255 125.385 53.3311 128.089 56.358C130.793 59.3848 134.324 60.9184 138.683 60.9184C141.387 60.9184 143.808 60.2928 145.927 59.0216C148.046 57.7503 149.7 55.914 150.85 53.4724H166.408C164.754 59.7682 161.464 64.712 156.561 68.324C151.658 71.936 145.745 73.7521 138.844 73.7521C133.214 73.7521 128.169 72.501 123.73 69.9786C119.291 67.4765 115.82 63.9855 113.338 59.5059C110.856 55.0262 109.605 49.9209 109.605 44.1902C109.605 38.4594 110.856 33.334 113.338 28.8341V28.8139Z" fill="#1D3366"/>
<path d="M218.389 48.5085C220.427 51.1318 221.456 54.1182 221.456 57.4881C221.456 62.3512 219.761 66.2053 216.371 69.0304C212.981 71.8756 208.239 73.2881 202.165 73.2881H175.085V15.1934H201.237C207.149 15.1934 211.77 16.5453 215.099 19.2493C218.449 21.9533 220.104 25.6258 220.104 30.2669C220.104 33.6973 219.216 36.5223 217.42 38.8025C215.624 41.0626 213.243 42.6365 210.257 43.5244C213.626 44.2508 216.33 45.9055 218.368 48.5287L218.389 48.5085ZM189.25 38.7016H198.533C200.853 38.7016 202.629 38.1972 203.88 37.1681C205.131 36.1389 205.737 34.6457 205.737 32.648C205.737 30.6503 205.111 29.1369 203.88 28.0876C202.629 27.0383 200.853 26.5137 198.533 26.5137H189.25V38.6815V38.7016ZM205.192 60.2728C206.483 59.2033 207.129 57.6293 207.129 55.5913C207.129 53.5532 206.463 51.9591 205.111 50.7887C203.759 49.6385 201.903 49.0534 199.521 49.0534H189.25V61.8871H199.683C202.064 61.8871 203.88 61.3422 205.192 60.2728Z" fill="#1D3366"/>
<path d="M267.484 18.8255C272.064 21.247 275.616 24.6572 278.118 29.0562C280.62 33.4552 281.891 38.4999 281.891 44.2508C281.891 50.0018 280.64 54.9859 278.118 59.4051C275.596 63.8242 272.044 67.2344 267.443 69.6761C262.843 72.0975 257.495 73.3284 251.421 73.3284H229.648V15.1934H251.421C257.556 15.1934 262.903 16.4041 267.484 18.8255ZM263.024 56.6608C266.011 53.7348 267.504 49.5982 267.504 44.2508C267.504 38.9034 266.011 34.7264 263.024 31.74C260.038 28.7535 255.881 27.2805 250.513 27.2805H243.814V61.0597H250.513C255.861 61.0597 260.038 59.6069 263.024 56.6809V56.6608Z" fill="#1D3366"/>
<path d="M303.987 26.5338V38.2981H322.955V49.235H303.987V61.988H325.437V73.3284H289.842V15.1934H325.437V26.5338H303.987Z" fill="#1D3366"/>
<path d="M377.922 48.5085C379.96 51.1318 380.99 54.1182 380.99 57.4881C380.99 62.3512 379.294 66.2053 375.904 69.0304C372.514 71.8756 367.772 73.2881 361.699 73.2881H334.619V15.1934H360.77C366.683 15.1934 371.304 16.5453 374.633 19.2493C377.983 21.9533 379.638 25.6258 379.638 30.2669C379.638 33.6973 378.75 36.5223 376.954 38.8025C375.158 41.0626 372.777 42.6365 369.79 43.5244C373.16 44.2508 375.864 45.9055 377.902 48.5287L377.922 48.5085ZM348.784 38.7016H358.066C360.387 38.7016 362.163 38.1972 363.414 37.1681C364.665 36.1389 365.27 34.6457 365.27 32.648C365.27 30.6503 364.645 29.1369 363.414 28.0876C362.163 27.0383 360.387 26.5137 358.066 26.5137H348.784V38.6815V38.7016ZM364.725 60.2728C366.017 59.2033 366.663 57.6293 366.663 55.5913C366.663 53.5532 365.997 51.9591 364.645 50.7887C363.293 49.6385 361.436 49.0534 359.055 49.0534H348.784V61.8871H359.217C361.598 61.8871 363.414 61.3422 364.725 60.2728Z" fill="#1D3366"/>
<path d="M403.085 15.1934V49.9614C403.085 53.4322 403.933 56.1159 405.648 57.9926C407.363 59.8692 409.865 60.7974 413.175 60.7974C416.484 60.7974 419.027 59.8692 420.802 57.9926C422.578 56.1159 423.446 53.4322 423.446 49.9614V15.1934H437.611V49.8807C437.611 55.0666 436.501 59.4656 434.302 63.0373C432.102 66.6291 429.136 69.333 425.403 71.1491C421.67 72.9652 417.533 73.8733 412.953 73.8733C408.372 73.8733 404.276 72.9854 400.664 71.1895C397.052 69.3936 394.186 66.6896 392.088 63.0776C389.989 59.4656 388.94 55.0666 388.94 49.8807V15.1934H403.105H403.085Z" fill="#1D3366"/>
<path d="M486.141 33.5768C485.092 31.6396 483.578 30.1665 481.621 29.1374C479.664 28.1083 477.363 27.6038 474.7 27.6038C470.119 27.6038 466.447 29.1173 463.682 32.1239C460.918 35.1305 459.545 39.1461 459.545 44.1706C459.545 49.518 460.998 53.7152 463.884 56.7218C466.79 59.7285 470.765 61.2419 475.85 61.2419C479.321 61.2419 482.267 60.354 484.668 58.5985C487.069 56.8227 488.825 54.3004 489.915 50.9709H471.955V40.5384H502.748V53.695C501.699 57.2263 499.923 60.5154 497.401 63.5423C494.879 66.5691 491.69 69.0309 487.836 70.9075C483.962 72.7841 479.603 73.7124 474.76 73.7124C469.03 73.7124 463.904 72.4613 459.404 69.9389C454.904 67.4368 451.393 63.9458 448.891 59.4661C446.369 54.9865 445.118 49.8812 445.118 44.1504C445.118 38.4197 446.369 33.2943 448.891 28.7944C451.393 24.2945 454.884 20.7834 459.364 18.2812C463.844 15.7791 468.949 14.5078 474.68 14.5078C481.641 14.5078 487.493 16.1827 492.275 19.5525C497.058 22.9224 500.206 27.5837 501.76 33.5364H486.121L486.141 33.5768Z" fill="#1D3366"/>
<path d="M549.22 33.5768C548.17 31.6396 546.657 30.1665 544.7 29.1374C542.742 28.1083 540.442 27.6038 537.778 27.6038C533.198 27.6038 529.525 29.1173 526.761 32.1239C523.996 35.1305 522.624 39.1461 522.624 44.1706C522.624 49.518 524.077 53.7152 526.963 56.7218C529.868 59.7285 533.844 61.2419 538.929 61.2419C542.399 61.2419 545.345 60.354 547.747 58.5985C550.148 56.8227 551.904 54.3004 552.993 50.9709H535.034V40.5384H565.827V53.695C564.778 57.2263 563.002 60.5154 560.48 63.5423C557.957 66.5691 554.769 69.0309 550.915 70.9075C547.04 72.7841 542.682 73.7124 537.839 73.7124C532.108 73.7124 526.983 72.4613 522.483 69.9389C517.983 67.4368 514.472 63.9458 511.97 59.4661C509.447 54.9865 508.196 49.8812 508.196 44.1504C508.196 38.4197 509.447 33.2943 511.97 28.7944C514.472 24.2945 517.963 20.7834 522.443 18.2812C526.922 15.7791 532.027 14.5078 537.758 14.5078C544.72 14.5078 550.572 16.1827 555.354 19.5525C560.136 22.9224 563.284 27.5837 564.838 33.5364H549.2L549.22 33.5768Z" fill="#1D3366"/>
<path d="M587.883 26.5338V38.2981H606.851V49.235H587.883V61.988H609.333V73.3284H573.737V15.1934H609.333V26.5338H587.883Z" fill="#1D3366"/>
<path d="M648.156 73.3083L636.069 51.3739H632.679V73.3083H618.514V15.1934H642.264C646.845 15.1934 650.759 16.0005 653.988 17.5946C657.217 19.1888 659.638 21.3882 661.232 24.1729C662.826 26.9576 663.633 30.0651 663.633 33.4955C663.633 37.3497 662.544 40.8002 660.364 43.8472C658.185 46.874 654.977 49.0332 650.719 50.3044L664.138 73.3284H648.156V73.3083ZM632.659 41.3451H641.437C644.04 41.3451 645.977 40.7195 647.268 39.4483C648.56 38.177 649.206 36.3811 649.206 34.0605C649.206 31.74 648.56 30.1055 647.268 28.8544C645.977 27.5831 644.02 26.9576 641.437 26.9576H632.659V41.3652V41.3451Z" fill="#1D3366"/>
</g>
<defs>
<linearGradient id="paint0_linear_721_4319" x1="71.6777" y1="23.5278" x2="9.81504" y2="89.2572" gradientUnits="userSpaceOnUse">
<stop offset="0.278846" stop-color="#33CFFF"/>
<stop offset="1" stop-color="#0D87C5"/>
</linearGradient>
<linearGradient id="paint1_linear_721_4319" x1="83.4628" y1="32.349" x2="37.414" y2="88.2987" gradientUnits="userSpaceOnUse">
<stop offset="0.278846" stop-color="#33CFFF"/>
<stop offset="1" stop-color="#0D87C5"/>
</linearGradient>
<linearGradient id="paint2_linear_721_4319" x1="72.7315" y1="30.8788" x2="37.1639" y2="71.8276" gradientUnits="userSpaceOnUse">
<stop offset="0.278846" stop-color="#33CFFF"/>
<stop offset="1" stop-color="#0D87C5"/>
</linearGradient>
<linearGradient id="paint3_linear_721_4319" x1="76.4941" y1="25.9182" x2="20.8474" y2="91.3489" gradientUnits="userSpaceOnUse">
<stop offset="0.278846" stop-color="#33CFFF"/>
<stop offset="1" stop-color="#0D87C5"/>
</linearGradient>
<linearGradient id="paint4_linear_721_4319" x1="59.744" y1="37.1589" x2="35.0056" y2="61.8389" gradientUnits="userSpaceOnUse">
<stop offset="0.278846" stop-color="#33CFFF"/>
<stop offset="1" stop-color="#0D87C5"/>
</linearGradient>
<clipPath id="clip0_721_4319">
<rect width="99.6408" height="100" fill="white"/>
</clipPath>
<clipPath id="clip1_721_4319">
<rect width="554.533" height="59.366" fill="white" transform="translate(109.605 14.5273)"/>
</clipPath>
</defs>
</svg>
