<svg width="249" height="250" viewBox="0 0 249 250" fill="none" xmlns="http://www.w3.org/2000/svg">
<g clip-path="url(#clip0_721_4587)">
<g opacity="0.23">
<path d="M148.397 236.519C88.3093 236.519 39.6062 187.796 39.6062 127.683C39.6062 67.5815 88.3093 18.8475 148.397 18.8475C178.698 18.8475 206.088 31.2555 225.814 51.2528C203.088 20.1835 166.383 0 124.96 0C55.95 0 0 55.962 0 125C0 194.038 55.95 250 124.949 250C156.082 250 184.544 238.578 206.427 219.719C189.624 230.342 169.733 236.519 148.397 236.519Z" fill="white"/>
<path d="M185.803 36.3488C211.956 51.6699 229.548 80.0671 229.548 112.571C229.548 161.327 190.029 200.862 141.293 200.862C95.9507 200.862 58.6105 166.649 53.6296 122.614C53.542 124.344 53.4873 126.085 53.4873 127.826C53.4873 181.839 97.2533 225.623 151.244 225.623C205.234 225.623 249 181.839 249 127.826C249 85.9918 222.728 50.312 185.803 36.3379" fill="white"/>
<path d="M138.666 43.1164C105.857 43.1164 78.1507 64.9536 69.2617 94.873C79.2125 72.6744 101.479 57.211 127.379 57.211C162.552 57.211 191.058 85.7286 191.058 120.916C191.058 156.103 162.552 184.62 127.379 184.62C121.632 184.62 116.06 183.843 110.762 182.419C119.344 186.011 128.769 188.004 138.666 188.004C178.655 188.004 211.069 155.566 211.08 115.549C211.08 75.5437 178.666 43.1055 138.666 43.1055" fill="white"/>
</g>
<path d="M234.375 121.211H226.701C224.742 67.7896 181.687 24.7175 128.288 22.7572V15.0802C128.288 12.9885 126.591 11.291 124.5 11.291C122.41 11.291 120.713 12.9885 120.713 15.0802V22.7572C67.3134 24.7175 24.2589 67.7896 22.2994 121.211H14.6255C12.5347 121.211 10.8379 122.908 10.8379 125C10.8379 127.092 12.5347 128.789 14.6255 128.789H22.2994C24.2589 182.21 67.3134 225.283 120.713 227.243V234.92C120.713 237.012 122.41 238.709 124.5 238.709C126.591 238.709 128.288 237.012 128.288 234.92V227.243C181.687 225.283 224.742 182.21 226.701 128.789H234.375C236.466 128.789 238.163 127.092 238.163 125C238.163 122.908 236.466 121.211 234.375 121.211ZM196.488 128.789H203.877C201.939 169.649 169.142 202.46 128.299 204.398V197.006C128.299 194.914 126.602 193.217 124.511 193.217C122.42 193.217 120.724 194.914 120.724 197.006V204.398C79.8805 202.46 47.0833 169.649 45.1457 128.789H52.5349C54.6258 128.789 56.3226 127.092 56.3226 125C56.3226 122.908 54.6258 121.211 52.5349 121.211H45.1457C47.0833 80.3509 79.8805 47.5404 120.724 45.6019V52.9942C120.724 55.0859 122.42 56.7834 124.511 56.7834C126.602 56.7834 128.299 55.0859 128.299 52.9942V45.6019C169.142 47.5404 201.939 80.3509 203.877 121.211H196.488C194.397 121.211 192.7 122.908 192.7 125C192.7 127.092 194.397 128.789 196.488 128.789Z" fill="white"/>
<path d="M163.789 108.727C162.125 108.727 160.767 110.085 160.767 111.749V117.794C160.767 119.459 159.41 120.817 157.746 120.817H151.703V111.749C151.703 110.085 150.346 108.727 148.682 108.727H142.639V96.6363C142.639 91.1167 138.906 86.4952 133.838 85.0496C134.998 79.5848 139.848 75.4671 145.66 75.4671C147.324 75.4671 148.682 74.1091 148.682 72.4445C148.682 70.7799 147.324 69.4219 145.66 69.4219C136.695 69.4219 129.24 75.9708 127.795 84.5458H121.205C119.76 75.9818 112.316 69.4219 103.339 69.4219C101.675 69.4219 100.318 70.7799 100.318 72.4445C100.318 74.1091 101.675 75.4671 103.339 75.4671C109.141 75.4671 114.002 79.5848 115.162 85.0496C110.105 86.4952 106.361 91.1167 106.361 96.6363V108.727H100.318C98.6541 108.727 97.2967 110.085 97.2967 111.749V120.817H88.2764C88.2107 120.248 88.2107 119.306 88.2216 118.627V111.749C88.2216 110.085 86.8642 108.727 85.2003 108.727C83.5363 108.727 82.1789 110.085 82.1789 111.749V118.583C82.157 120.981 82.1351 123.478 83.9085 125.263C84.9704 126.337 86.4154 126.873 88.2216 126.873H97.2857V132.918H85.2003C83.5363 132.918 82.1789 134.276 82.1789 135.941C82.1789 137.606 83.5363 138.964 85.2003 138.964H97.2857V145.009H88.2216C86.4154 145.009 84.9704 145.546 83.9085 146.619C82.1351 148.415 82.157 150.901 82.1679 153.299V160.133C82.1679 161.797 83.5254 163.155 85.1893 163.155C86.8532 163.155 88.2107 161.797 88.2107 160.133V153.255C88.2107 152.576 88.1997 151.635 88.2654 151.065H97.2857V154.088C97.2857 162.422 104.062 169.212 112.393 169.212H136.574C144.905 169.212 151.681 162.433 151.681 154.088V151.065H157.724C159.388 151.065 160.745 152.423 160.745 154.088V160.133C160.745 161.797 162.103 163.155 163.767 163.155C165.431 163.155 166.788 161.797 166.788 160.133V154.088C166.788 149.083 162.716 145.02 157.724 145.02H151.681V138.975H163.778C165.442 138.975 166.799 137.617 166.799 135.952C166.799 134.287 165.442 132.929 163.778 132.929H151.681V126.884H157.724C162.727 126.884 166.788 122.81 166.788 117.816V111.771C166.788 110.107 165.442 108.749 163.767 108.749L163.789 108.727ZM112.403 96.6363C112.403 93.2961 115.118 90.5911 118.446 90.5911H130.532C133.871 90.5911 136.574 93.307 136.574 96.6363V108.727H112.393V96.6363H112.403ZM115.425 135.941C115.425 137.606 114.067 138.964 112.403 138.964C110.74 138.964 109.382 137.606 109.382 135.941V123.851C109.382 122.186 110.74 120.828 112.403 120.828C114.067 120.828 115.425 122.186 115.425 123.851V135.941ZM139.607 154.088C139.607 155.752 138.249 157.11 136.585 157.11C134.921 157.11 133.564 155.752 133.564 154.088V141.997C133.564 140.333 134.921 138.975 136.585 138.975C138.249 138.975 139.607 140.333 139.607 141.997V154.088Z" fill="white"/>
</g>
<defs>
<clipPath id="clip0_721_4587">
<rect width="249" height="250" fill="white"/>
</clipPath>
</defs>
</svg>
