<svg width="333" height="50" viewBox="0 0 333 50" fill="none" xmlns="http://www.w3.org/2000/svg">
<g clip-path="url(#clip0_721_4376)">
<g opacity="0.23">
<path d="M29.6916 47.3038C17.6691 47.3038 7.92448 37.5591 7.92448 25.5366C7.92448 13.5163 17.6691 3.76949 29.6916 3.76949C35.7544 3.76949 41.2345 6.25109 45.1814 10.2506C40.6343 4.03671 33.2903 0 25.0022 0C11.1946 0 0 11.1924 0 25C0 38.8076 11.1946 50 25 50C31.2292 50 36.924 47.7155 41.3024 43.9438C37.9403 46.0684 33.9605 47.3038 29.6916 47.3038Z" fill="#1D3366"/>
<path d="M37.1762 7.26977C42.4088 10.334 45.9287 16.0134 45.9287 22.5142C45.9287 32.2654 38.0217 40.1723 28.2705 40.1723C19.1983 40.1723 11.7272 33.3299 10.7306 24.5227C10.7131 24.8688 10.7021 25.217 10.7021 25.5653C10.7021 36.3678 19.4589 45.1246 30.2615 45.1246C41.064 45.1246 49.8208 36.3678 49.8208 25.5653C49.8208 17.1984 44.5641 10.0624 37.1762 7.26758" fill="#1D3366"/>
<path d="M27.7449 8.62328C21.1806 8.62328 15.6369 12.9907 13.8584 18.9746C15.8494 14.5349 20.3044 11.4422 25.4867 11.4422C32.5241 11.4422 38.2276 17.1457 38.2276 24.1831C38.2276 31.2205 32.5241 36.9241 25.4867 36.9241C24.3368 36.9241 23.2219 36.7685 22.1618 36.4838C23.879 37.2022 25.7648 37.6009 27.7449 37.6009C35.746 37.6009 42.2315 31.1132 42.2337 23.1099C42.2337 15.1087 35.7482 8.62109 27.7449 8.62109" fill="#1D3366"/>
</g>
<path d="M46.8938 24.2418H45.3584C44.9663 13.5575 36.3519 4.94311 25.6676 4.55105V3.01565C25.6676 2.59731 25.3281 2.25781 24.9098 2.25781C24.4914 2.25781 24.1519 2.59731 24.1519 3.01565V4.55105C13.4677 4.94311 4.85327 13.5575 4.46121 24.2418H2.92581C2.50746 24.2418 2.16797 24.5813 2.16797 24.9996C2.16797 25.418 2.50746 25.7575 2.92581 25.7575H4.46121C4.85327 36.4417 13.4677 45.0561 24.1519 45.4482V46.9836C24.1519 47.4019 24.4914 47.7414 24.9098 47.7414C25.3281 47.7414 25.6676 47.4019 25.6676 46.9836V45.4482C36.3519 45.0561 44.9663 36.4417 45.3584 25.7575H46.8938C47.3121 25.7575 47.6516 25.418 47.6516 24.9996C47.6516 24.5813 47.3121 24.2418 46.8938 24.2418ZM39.3132 25.7575H40.7916C40.4039 33.9294 33.8418 40.4916 25.6698 40.8792V39.4008C25.6698 38.9824 25.3303 38.6429 24.912 38.6429C24.4936 38.6429 24.1541 38.9824 24.1541 39.4008V40.8792C15.9822 40.4916 9.42003 33.9294 9.03235 25.7575H10.5108C10.9291 25.7575 11.2686 25.418 11.2686 24.9996C11.2686 24.5813 10.9291 24.2418 10.5108 24.2418H9.03235C9.42003 16.0698 15.9822 9.50768 24.1541 9.12V10.5984C24.1541 11.0168 24.4936 11.3563 24.912 11.3563C25.3303 11.3563 25.6698 11.0168 25.6698 10.5984V9.12C33.8418 9.50768 40.4039 16.0698 40.7916 24.2418H39.3132C38.8948 24.2418 38.5553 24.5813 38.5553 24.9996C38.5553 25.418 38.8948 25.7575 39.3132 25.7575Z" fill="#1D3366"/>
<path d="M32.7716 21.7457C32.4387 21.7457 32.1671 22.0173 32.1671 22.3502V23.5593C32.1671 23.8922 31.8955 24.1638 31.5626 24.1638H30.3536V22.3502C30.3536 22.0173 30.082 21.7457 29.749 21.7457H28.54V19.3276C28.54 18.2237 27.7931 17.2994 26.779 17.0103C27.0112 15.9174 27.9815 15.0938 29.1445 15.0938C29.4774 15.0938 29.749 14.8222 29.749 14.4893C29.749 14.1564 29.4774 13.8848 29.1445 13.8848C27.3507 13.8848 25.8591 15.1946 25.57 16.9096H24.2514C23.9623 15.1968 22.4729 13.8848 20.6768 13.8848C20.3439 13.8848 20.0723 14.1564 20.0723 14.4893C20.0723 14.8222 20.3439 15.0938 20.6768 15.0938C21.8377 15.0938 22.8102 15.9174 23.0424 17.0103C22.0304 17.2994 21.2814 18.2237 21.2814 19.3276V21.7457H20.0723C19.7394 21.7457 19.4678 22.0173 19.4678 22.3502V24.1638H17.663C17.6499 24.0499 17.6499 23.8615 17.652 23.7258V22.3502C17.652 22.0173 17.3805 21.7457 17.0475 21.7457C16.7146 21.7457 16.443 22.0173 16.443 22.3502V23.717C16.4386 24.1967 16.4342 24.6961 16.7891 25.0531C17.0015 25.2677 17.2906 25.375 17.652 25.375H19.4656V26.5841H17.0475C16.7146 26.5841 16.443 26.8557 16.443 27.1886C16.443 27.5215 16.7146 27.7931 17.0475 27.7931H19.4656V29.0022H17.652C17.2906 29.0022 17.0015 29.1095 16.7891 29.3241C16.4342 29.6833 16.4386 30.1805 16.4408 30.6602V32.027C16.4408 32.3599 16.7124 32.6315 17.0453 32.6315C17.3783 32.6315 17.6499 32.3599 17.6499 32.027V30.6515C17.6499 30.5157 17.6477 30.3273 17.6608 30.2134H19.4656V30.8179C19.4656 32.4847 20.8214 33.8427 22.4882 33.8427H27.3266C28.9934 33.8427 30.3492 32.4869 30.3492 30.8179V30.2134H31.5582C31.8911 30.2134 32.1627 30.485 32.1627 30.8179V32.027C32.1627 32.3599 32.4343 32.6315 32.7673 32.6315C33.1002 32.6315 33.3718 32.3599 33.3718 32.027V30.8179C33.3718 29.817 32.557 29.0044 31.5582 29.0044H30.3492V27.7953H32.7695C33.1024 27.7953 33.374 27.5237 33.374 27.1908C33.374 26.8579 33.1024 26.5863 32.7695 26.5863H30.3492V25.3772H31.5582C32.5592 25.3772 33.3718 24.5624 33.3718 23.5637V22.3546C33.3718 22.0217 33.1024 21.7501 32.7673 21.7501L32.7716 21.7457ZM22.4904 19.3276C22.4904 18.6596 23.0336 18.1186 23.6994 18.1186H26.1175C26.7856 18.1186 27.3266 18.6618 27.3266 19.3276V21.7457H22.4882V19.3276H22.4904ZM23.0949 27.1886C23.0949 27.5215 22.8233 27.7931 22.4904 27.7931C22.1575 27.7931 21.8859 27.5215 21.8859 27.1886V24.7705C21.8859 24.4376 22.1575 24.166 22.4904 24.166C22.8233 24.166 23.0949 24.4376 23.0949 24.7705V27.1886ZM27.9333 30.8179C27.9333 31.1508 27.6617 31.4224 27.3288 31.4224C26.9958 31.4224 26.7242 31.1508 26.7242 30.8179V28.3998C26.7242 28.0669 26.9958 27.7953 27.3288 27.7953C27.6617 27.7953 27.9333 28.0669 27.9333 28.3998V30.8179Z" fill="#1D3366"/>
</g>
<g clip-path="url(#clip1_721_4376)">
<path d="M56.6693 14.407C57.9103 12.157 59.6456 10.4015 61.8653 9.15039C64.085 7.8993 66.6073 7.26367 69.4223 7.26367C72.8728 7.26367 75.829 8.17172 78.2808 9.9979C80.7325 11.8241 82.3771 14.3061 83.2044 17.454H75.4255C74.8504 16.2432 74.023 15.315 72.9637 14.6794C71.9043 14.0437 70.6935 13.731 69.3416 13.731C67.1622 13.731 65.3966 14.4877 64.0446 16.0112C62.6926 17.5246 62.0167 19.5626 62.0167 22.0951C62.0167 24.6275 62.6926 26.6656 64.0446 28.179C65.3966 29.6924 67.1622 30.4592 69.3416 30.4592C70.6935 30.4592 71.9043 30.1464 72.9637 29.5108C74.023 28.8751 74.8504 27.957 75.4255 26.7362H83.2044C82.3771 29.8841 80.7325 32.356 78.2808 34.162C75.829 35.968 72.8728 36.876 69.4223 36.876C66.6073 36.876 64.085 36.2505 61.8653 34.9893C59.6456 33.7382 57.9103 31.9928 56.6693 29.7529C55.4283 27.5131 54.8027 24.9605 54.8027 22.0951C54.8027 19.2297 55.4283 16.667 56.6693 14.4171V14.407Z" fill="#1D3366"/>
<path d="M109.195 24.2533C110.214 25.5649 110.728 27.0581 110.728 28.7431C110.728 31.1746 109.881 33.1017 108.186 34.5142C106.491 35.9368 104.12 36.6431 101.083 36.6431H87.543V7.5957H100.619C103.575 7.5957 105.885 8.27169 107.55 9.62367C109.225 10.9756 110.052 12.8119 110.052 15.1325C110.052 16.8477 109.608 18.2602 108.711 19.4003C107.813 20.5303 106.622 21.3173 105.129 21.7612C106.814 22.1244 108.166 22.9518 109.185 24.2634L109.195 24.2533ZM94.6257 19.3498H99.2668C100.427 19.3498 101.315 19.0976 101.941 18.5831C102.566 18.0685 102.869 17.3219 102.869 16.323C102.869 15.3242 102.556 14.5675 101.941 14.0428C101.315 13.5182 100.427 13.2559 99.2668 13.2559H94.6257V19.3398V19.3498ZM102.596 30.1354C103.242 29.6007 103.565 28.8137 103.565 27.7947C103.565 26.7756 103.232 25.9786 102.556 25.3934C101.88 24.8183 100.952 24.5257 99.7612 24.5257H94.6257V30.9426H99.8419C101.032 30.9426 101.941 30.6701 102.596 30.1354Z" fill="#1D3366"/>
<path d="M133.742 9.41179C136.032 10.6225 137.808 12.3276 139.059 14.5271C140.31 16.7266 140.946 19.2489 140.946 22.1244C140.946 24.9999 140.32 27.492 139.059 29.7016C137.798 31.9111 136.022 33.6162 133.722 34.8371C131.421 36.0478 128.748 36.6632 125.711 36.6632H114.824V7.5957H125.711C128.778 7.5957 131.452 8.20107 133.742 9.41179ZM131.512 28.3294C133.005 26.8664 133.752 24.7981 133.752 22.1244C133.752 19.4507 133.005 17.3622 131.512 15.869C130.019 14.3758 127.94 13.6392 125.257 13.6392H121.907V30.5289H125.257C127.93 30.5289 130.019 29.8025 131.512 28.3395V28.3294Z" fill="#1D3366"/>
<path d="M151.994 13.2659V19.1481H161.478V24.6165H151.994V30.993H162.719V36.6632H144.921V7.5957H162.719V13.2659H151.994Z" fill="#1D3366"/>
<path d="M188.961 24.2533C189.98 25.5649 190.495 27.0581 190.495 28.7431C190.495 31.1746 189.647 33.1017 187.952 34.5142C186.257 35.9368 183.886 36.6431 180.85 36.6431H167.31V7.5957H180.385C183.342 7.5957 185.652 8.27169 187.317 9.62367C188.992 10.9756 189.819 12.8119 189.819 15.1325C189.819 16.8477 189.375 18.2602 188.477 19.4003C187.579 20.5303 186.389 21.3173 184.895 21.7612C186.58 22.1244 187.932 22.9518 188.951 24.2634L188.961 24.2533ZM174.392 19.3498H179.033C180.194 19.3498 181.082 19.0976 181.707 18.5831C182.333 18.0685 182.635 17.3219 182.635 16.323C182.635 15.3242 182.323 14.5675 181.707 14.0428C181.082 13.5182 180.194 13.2559 179.033 13.2559H174.392V19.3398V19.3498ZM182.363 30.1354C183.009 29.6007 183.332 28.8137 183.332 27.7947C183.332 26.7756 182.999 25.9786 182.323 25.3934C181.647 24.8183 180.718 24.5257 179.528 24.5257H174.392V30.9426H179.609C180.799 30.9426 181.707 30.6701 182.363 30.1354Z" fill="#1D3366"/>
<path d="M201.543 7.5957V24.9797C201.543 26.7151 201.967 28.057 202.825 28.9953C203.682 29.9336 204.933 30.3977 206.588 30.3977C208.243 30.3977 209.514 29.9336 210.402 28.9953C211.29 28.057 211.724 26.7151 211.724 24.9797V7.5957H218.806V24.9394C218.806 27.5323 218.251 29.7318 217.152 31.5177C216.052 33.3136 214.569 34.6655 212.702 35.5736C210.836 36.4816 208.767 36.9357 206.477 36.9357C204.187 36.9357 202.139 36.4917 200.333 35.5938C198.527 34.6958 197.094 33.3438 196.045 31.5378C194.995 29.7318 194.471 27.5323 194.471 24.9394V7.5957H201.553H201.543Z" fill="#1D3366"/>
<path d="M243.071 16.7884C242.547 15.8198 241.79 15.0833 240.811 14.5687C239.833 14.0542 238.682 13.8019 237.351 13.8019C235.06 13.8019 233.224 14.5586 231.842 16.0619C230.46 17.5653 229.773 19.5731 229.773 22.0853C229.773 24.759 230.5 26.8576 231.943 28.3609C233.396 29.8642 235.383 30.6209 237.926 30.6209C239.661 30.6209 241.134 30.177 242.335 29.2992C243.535 28.4114 244.413 27.1502 244.958 25.4854H235.978V20.2692H251.375V26.8475C250.85 28.6132 249.962 30.2577 248.701 31.7711C247.44 33.2845 245.846 34.5154 243.919 35.4538C241.982 36.3921 239.802 36.8562 237.381 36.8562C234.516 36.8562 231.953 36.2306 229.703 34.9695C227.453 33.7184 225.697 31.9729 224.446 29.7331C223.185 27.4932 222.56 24.9406 222.56 22.0752C222.56 19.2098 223.185 16.6471 224.446 14.3972C225.697 12.1473 227.443 10.3917 229.683 9.14062C231.923 7.88954 234.475 7.25391 237.341 7.25391C240.821 7.25391 243.747 8.09133 246.138 9.77625C248.53 11.4612 250.104 13.7918 250.881 16.7682H243.061L243.071 16.7884Z" fill="#1D3366"/>
<path d="M274.61 16.7884C274.086 15.8198 273.329 15.0833 272.35 14.5687C271.372 14.0542 270.221 13.8019 268.89 13.8019C266.599 13.8019 264.763 14.5586 263.381 16.0619C261.999 17.5653 261.313 19.5731 261.313 22.0853C261.313 24.759 262.039 26.8576 263.482 28.3609C264.935 29.8642 266.922 30.6209 269.465 30.6209C271.2 30.6209 272.673 30.177 273.874 29.2992C275.074 28.4114 275.952 27.1502 276.497 25.4854H267.518V20.2692H282.914V26.8475C282.389 28.6132 281.501 30.2577 280.24 31.7711C278.979 33.2845 277.385 34.5154 275.458 35.4538C273.521 36.3921 271.341 36.8562 268.92 36.8562C266.055 36.8562 263.492 36.2306 261.242 34.9695C258.992 33.7184 257.236 31.9729 255.985 29.7331C254.724 27.4932 254.099 24.9406 254.099 22.0752C254.099 19.2098 254.724 16.6471 255.985 14.3972C257.236 12.1473 258.982 10.3917 261.222 9.14062C263.462 7.88954 266.014 7.25391 268.88 7.25391C272.36 7.25391 275.286 8.09133 277.678 9.77625C280.069 11.4612 281.643 13.7918 282.42 16.7682H274.6L274.61 16.7884Z" fill="#1D3366"/>
<path d="M293.942 13.2659V19.1481H303.426V24.6165H293.942V30.993H304.667V36.6632H286.869V7.5957H304.667V13.2659H293.942Z" fill="#1D3366"/>
<path d="M324.079 36.6531L318.036 25.686H316.341V36.6531H309.258V7.5957H321.133C323.423 7.5957 325.381 7.99928 326.995 8.79634C328.609 9.5934 329.82 10.6931 330.617 12.0855C331.414 13.4778 331.818 15.0316 331.818 16.7468C331.818 18.6739 331.273 20.3991 330.183 21.9226C329.094 23.436 327.489 24.5156 325.36 25.1512L332.07 36.6632H324.079V36.6531ZM316.33 20.6716H320.719C322.021 20.6716 322.989 20.3588 323.635 19.7232C324.281 19.0875 324.604 18.1896 324.604 17.0293C324.604 15.869 324.281 15.0518 323.635 14.4262C322.989 13.7906 322.011 13.4778 320.719 13.4778H316.33V20.6816V20.6716Z" fill="#1D3366"/>
</g>
<defs>
<clipPath id="clip0_721_4376">
<rect width="49.8204" height="50" fill="white"/>
</clipPath>
<clipPath id="clip1_721_4376">
<rect width="277.267" height="29.683" fill="white" transform="translate(54.8027 7.26367)"/>
</clipPath>
</defs>
</svg>
