<svg width="333" height="50" viewBox="0 0 333 50" fill="none" xmlns="http://www.w3.org/2000/svg">
<g clip-path="url(#clip0_721_4433)">
<g opacity="0.23">
<path d="M29.6916 47.3038C17.6691 47.3038 7.92448 37.5591 7.92448 25.5366C7.92448 13.5163 17.6691 3.76949 29.6916 3.76949C35.7543 3.76949 41.2344 6.25109 45.1813 10.2506C40.6343 4.03671 33.2903 0 25.0022 0C11.1946 0 0 11.1924 0 25C0 38.8076 11.1946 50 25 50C31.2292 50 36.9239 47.7155 41.3023 43.9438C37.9402 46.0684 33.9605 47.3038 29.6916 47.3038Z" fill="url(#paint0_linear_721_4433)"/>
<path d="M37.1757 7.26977C42.4083 10.334 45.9281 16.0134 45.9281 22.5142C45.9281 32.2654 38.0212 40.1723 28.27 40.1723C19.1978 40.1723 11.7267 33.3299 10.7301 24.5227C10.7126 24.8688 10.7017 25.217 10.7017 25.5653C10.7017 36.3678 19.4585 45.1246 30.261 45.1246C41.0635 45.1246 49.8203 36.3678 49.8203 25.5653C49.8203 17.1984 44.5636 10.0624 37.1757 7.26758" fill="url(#paint1_linear_721_4433)"/>
<path d="M27.7444 8.62328C21.1801 8.62328 15.6364 12.9907 13.8579 18.9746C15.8489 14.5349 20.3039 11.4422 25.4862 11.4422C32.5236 11.4422 38.2271 17.1457 38.2271 24.1831C38.2271 31.2205 32.5236 36.9241 25.4862 36.9241C24.3363 36.9241 23.2214 36.7685 22.1613 36.4838C23.8785 37.2022 25.7643 37.6009 27.7444 37.6009C35.7455 37.6009 42.231 31.1132 42.2331 23.1099C42.2331 15.1087 35.7477 8.62109 27.7444 8.62109" fill="url(#paint2_linear_721_4433)"/>
</g>
<path d="M46.8942 24.2418H45.3588C44.9668 13.5575 36.3523 4.94311 25.6681 4.55105V3.01565C25.6681 2.59731 25.3286 2.25781 24.9103 2.25781C24.4919 2.25781 24.1524 2.59731 24.1524 3.01565V4.55105C13.4682 4.94311 4.85376 13.5575 4.46169 24.2418H2.9263C2.50795 24.2418 2.16846 24.5813 2.16846 24.9996C2.16846 25.418 2.50795 25.7575 2.9263 25.7575H4.46169C4.85376 36.4417 13.4682 45.0561 24.1524 45.4482V46.9836C24.1524 47.4019 24.4919 47.7414 24.9103 47.7414C25.3286 47.7414 25.6681 47.4019 25.6681 46.9836V45.4482C36.3523 45.0561 44.9668 36.4417 45.3588 25.7575H46.8942C47.3126 25.7575 47.6521 25.418 47.6521 24.9996C47.6521 24.5813 47.3126 24.2418 46.8942 24.2418ZM39.3136 25.7575H40.7921C40.4044 33.9294 33.8423 40.4916 25.6703 40.8792V39.4008C25.6703 38.9824 25.3308 38.6429 24.9125 38.6429C24.4941 38.6429 24.1546 38.9824 24.1546 39.4008V40.8792C15.9826 40.4916 9.42052 33.9294 9.03283 25.7575H10.5113C10.9296 25.7575 11.2691 25.418 11.2691 24.9996C11.2691 24.5813 10.9296 24.2418 10.5113 24.2418H9.03283C9.42052 16.0698 15.9826 9.50768 24.1546 9.12V10.5984C24.1546 11.0168 24.4941 11.3563 24.9125 11.3563C25.3308 11.3563 25.6703 11.0168 25.6703 10.5984V9.12C33.8423 9.50768 40.4044 16.0698 40.7921 24.2418H39.3136C38.8953 24.2418 38.5558 24.5813 38.5558 24.9996C38.5558 25.418 38.8953 25.7575 39.3136 25.7575Z" fill="url(#paint3_linear_721_4433)"/>
<path d="M32.7711 21.7457C32.4382 21.7457 32.1666 22.0173 32.1666 22.3502V23.5593C32.1666 23.8922 31.895 24.1638 31.5621 24.1638H30.3531V22.3502C30.3531 22.0173 30.0815 21.7457 29.7485 21.7457H28.5395V19.3276C28.5395 18.2237 27.7926 17.2994 26.7785 17.0103C27.0107 15.9174 27.981 15.0938 29.144 15.0938C29.4769 15.0938 29.7485 14.8222 29.7485 14.4893C29.7485 14.1564 29.4769 13.8848 29.144 13.8848C27.3502 13.8848 25.8586 15.1946 25.5695 16.9096H24.2509C23.9618 15.1968 22.4724 13.8848 20.6764 13.8848C20.3434 13.8848 20.0718 14.1564 20.0718 14.4893C20.0718 14.8222 20.3434 15.0938 20.6764 15.0938C21.8372 15.0938 22.8097 15.9174 23.0419 17.0103C22.03 17.2994 21.2809 18.2237 21.2809 19.3276V21.7457H20.0718C19.7389 21.7457 19.4673 22.0173 19.4673 22.3502V24.1638H17.6625C17.6494 24.0499 17.6494 23.8615 17.6516 23.7258V22.3502C17.6516 22.0173 17.38 21.7457 17.047 21.7457C16.7141 21.7457 16.4425 22.0173 16.4425 22.3502V23.717C16.4381 24.1967 16.4338 24.6961 16.7886 25.0531C17.001 25.2677 17.2902 25.375 17.6516 25.375H19.4651V26.5841H17.047C16.7141 26.5841 16.4425 26.8557 16.4425 27.1886C16.4425 27.5215 16.7141 27.7931 17.047 27.7931H19.4651V29.0022H17.6516C17.2902 29.0022 17.001 29.1095 16.7886 29.3241C16.4338 29.6833 16.4381 30.1805 16.4403 30.6602V32.027C16.4403 32.3599 16.7119 32.6315 17.0448 32.6315C17.3778 32.6315 17.6494 32.3599 17.6494 32.027V30.6515C17.6494 30.5157 17.6472 30.3273 17.6603 30.2134H19.4651V30.8179C19.4651 32.4847 20.8209 33.8427 22.4877 33.8427H27.3261C28.9929 33.8427 30.3487 32.4869 30.3487 30.8179V30.2134H31.5577C31.8906 30.2134 32.1622 30.485 32.1622 30.8179V32.027C32.1622 32.3599 32.4338 32.6315 32.7668 32.6315C33.0997 32.6315 33.3713 32.3599 33.3713 32.027V30.8179C33.3713 29.817 32.5565 29.0044 31.5577 29.0044H30.3487V27.7953H32.769C33.1019 27.7953 33.3735 27.5237 33.3735 27.1908C33.3735 26.8579 33.1019 26.5863 32.769 26.5863H30.3487V25.3772H31.5577C32.5587 25.3772 33.3713 24.5624 33.3713 23.5637V22.3546C33.3713 22.0217 33.1019 21.7501 32.7668 21.7501L32.7711 21.7457ZM22.4899 19.3276C22.4899 18.6596 23.0331 18.1186 23.699 18.1186H26.117C26.7851 18.1186 27.3261 18.6618 27.3261 19.3276V21.7457H22.4877V19.3276H22.4899ZM23.0944 27.1886C23.0944 27.5215 22.8228 27.7931 22.4899 27.7931C22.157 27.7931 21.8854 27.5215 21.8854 27.1886V24.7705C21.8854 24.4376 22.157 24.166 22.4899 24.166C22.8228 24.166 23.0944 24.4376 23.0944 24.7705V27.1886ZM27.9328 30.8179C27.9328 31.1508 27.6612 31.4224 27.3283 31.4224C26.9953 31.4224 26.7237 31.1508 26.7237 30.8179V28.3998C26.7237 28.0669 26.9953 27.7953 27.3283 27.7953C27.6612 27.7953 27.9328 28.0669 27.9328 28.3998V30.8179Z" fill="url(#paint4_linear_721_4433)"/>
</g>
<g clip-path="url(#clip1_721_4433)">
<path d="M56.6688 17.1433C57.9098 14.8934 59.6452 13.1378 61.8648 11.8867C64.0845 10.6356 66.6068 10 69.4218 10C72.8723 10 75.8285 10.908 78.2803 12.7342C80.732 14.5604 82.3765 17.0424 83.2039 20.1903H75.425C74.8499 18.9796 74.0225 18.0513 72.9631 17.4157C71.9038 16.7801 70.693 16.4673 69.3411 16.4673C67.1617 16.4673 65.3961 17.224 64.0441 18.7475C62.6921 20.2609 62.0162 22.299 62.0162 24.8314C62.0162 27.3638 62.6921 29.4019 64.0441 30.9153C65.3961 32.4287 67.1617 33.1955 69.3411 33.1955C70.693 33.1955 71.9038 32.8827 72.9631 32.2471C74.0225 31.6115 74.8499 30.6933 75.425 29.4725H83.2039C82.3765 32.6204 80.732 35.0923 78.2803 36.8983C75.8285 38.7043 72.8723 39.6124 69.4218 39.6124C66.6068 39.6124 64.0845 38.9868 61.8648 37.7256C59.6452 36.4746 57.9098 34.7291 56.6688 32.4893C55.4278 30.2494 54.8022 27.6968 54.8022 24.8314C54.8022 21.966 55.4278 19.4033 56.6688 17.1534V17.1433Z" fill="white"/>
<path d="M109.194 26.9896C110.213 28.3012 110.728 29.7945 110.728 31.4794C110.728 33.9109 109.88 35.838 108.185 37.2505C106.49 38.6731 104.119 39.3794 101.082 39.3794H87.5425V10.332H100.618C103.575 10.332 105.885 11.008 107.55 12.36C109.225 13.712 110.052 15.5482 110.052 17.8688C110.052 19.584 109.608 20.9965 108.71 22.1366C107.812 23.2666 106.622 24.0536 105.128 24.4975C106.813 24.8608 108.165 25.6881 109.184 26.9997L109.194 26.9896ZM94.6252 22.0862H99.2664C100.427 22.0862 101.314 21.8339 101.94 21.3194C102.566 20.8048 102.868 20.0582 102.868 19.0594C102.868 18.0605 102.555 17.3038 101.94 16.7792C101.314 16.2545 100.427 15.9922 99.2664 15.9922H94.6252V22.0761V22.0862ZM102.596 32.8717C103.242 32.337 103.564 31.55 103.564 30.531C103.564 29.512 103.231 28.7149 102.555 28.1297C101.88 27.5546 100.951 27.262 99.7607 27.262H94.6252V33.6789H99.8414C101.032 33.6789 101.94 33.4065 102.596 32.8717Z" fill="white"/>
<path d="M133.742 12.1481C136.032 13.3588 137.808 15.064 139.059 17.2634C140.31 19.4629 140.946 21.9853 140.946 24.8608C140.946 27.7362 140.32 30.2283 139.059 32.4379C137.798 34.6475 136.022 36.3526 133.722 37.5734C131.421 38.7841 128.748 39.3996 125.711 39.3996H114.824V10.332H125.711C128.778 10.332 131.452 10.9374 133.742 12.1481ZM131.512 31.0657C133.005 29.6028 133.752 27.5344 133.752 24.8608C133.752 22.1871 133.005 20.0986 131.512 18.6053C130.019 17.1121 127.94 16.3756 125.257 16.3756H121.907V33.2652H125.257C127.93 33.2652 130.019 32.5388 131.512 31.0758V31.0657Z" fill="white"/>
<path d="M151.994 16.0023V21.8844H161.478V27.3528H151.994V33.7293H162.719V39.3996H144.921V10.332H162.719V16.0023H151.994Z" fill="white"/>
<path d="M188.961 26.9896C189.98 28.3012 190.495 29.7945 190.495 31.4794C190.495 33.9109 189.647 35.838 187.952 37.2505C186.257 38.6731 183.886 39.3794 180.849 39.3794H167.309V10.332H180.385C183.341 10.332 185.652 11.008 187.316 12.36C188.991 13.712 189.819 15.5482 189.819 17.8688C189.819 19.584 189.375 20.9965 188.477 22.1366C187.579 23.2666 186.388 24.0536 184.895 24.4975C186.58 24.8608 187.932 25.6881 188.951 26.9997L188.961 26.9896ZM174.392 22.0862H179.033C180.193 22.0862 181.081 21.8339 181.707 21.3194C182.332 20.8048 182.635 20.0582 182.635 19.0594C182.635 18.0605 182.322 17.3038 181.707 16.7792C181.081 16.2545 180.193 15.9922 179.033 15.9922H174.392V22.0761V22.0862ZM182.362 32.8717C183.008 32.337 183.331 31.55 183.331 30.531C183.331 29.512 182.998 28.7149 182.322 28.1297C181.646 27.5546 180.718 27.262 179.527 27.262H174.392V33.6789H179.608C180.799 33.6789 181.707 33.4065 182.362 32.8717Z" fill="white"/>
<path d="M201.542 10.332V27.7161C201.542 29.4514 201.966 30.7933 202.824 31.7316C203.681 32.6699 204.932 33.1341 206.587 33.1341C208.242 33.1341 209.513 32.6699 210.401 31.7316C211.289 30.7933 211.723 29.4514 211.723 27.7161V10.332H218.805V27.6757C218.805 30.2687 218.25 32.4682 217.151 34.254C216.051 36.0499 214.568 37.4019 212.701 38.3099C210.835 39.218 208.766 39.672 206.476 39.672C204.186 39.672 202.138 39.2281 200.332 38.3301C198.526 37.4321 197.093 36.0802 196.044 34.2742C194.994 32.4682 194.47 30.2687 194.47 27.6757V10.332H201.552H201.542Z" fill="white"/>
<path d="M243.07 19.5247C242.546 18.5561 241.789 17.8196 240.81 17.305C239.832 16.7905 238.681 16.5383 237.35 16.5383C235.059 16.5383 233.223 17.295 231.841 18.7983C230.459 20.3016 229.773 22.3094 229.773 24.8216C229.773 27.4953 230.499 29.5939 231.942 31.0972C233.395 32.6006 235.382 33.3573 237.925 33.3573C239.66 33.3573 241.133 32.9133 242.334 32.0356C243.534 31.1477 244.412 29.8865 244.957 28.2218H235.977V23.0056H251.374V29.5838C250.849 31.3495 249.961 32.9941 248.7 34.5075C247.439 36.0209 245.845 37.2518 243.918 38.1901C241.981 39.1284 239.801 39.5925 237.38 39.5925C234.515 39.5925 231.952 38.967 229.702 37.7058C227.452 36.4547 225.696 34.7092 224.445 32.4694C223.184 30.2296 222.559 27.6769 222.559 24.8116C222.559 21.9462 223.184 19.3835 224.445 17.1335C225.696 14.8836 227.442 13.128 229.682 11.877C231.922 10.6259 234.474 9.99023 237.34 9.99023C240.82 9.99023 243.746 10.8277 246.137 12.5126C248.529 14.1975 250.103 16.5282 250.88 19.5045H243.06L243.07 19.5247Z" fill="white"/>
<path d="M274.61 19.5247C274.085 18.5561 273.329 17.8196 272.35 17.305C271.371 16.7905 270.221 16.5383 268.889 16.5383C266.599 16.5383 264.763 17.295 263.38 18.7983C261.998 20.3016 261.312 22.3094 261.312 24.8216C261.312 27.4953 262.038 29.5939 263.481 31.0972C264.934 32.6006 266.922 33.3573 269.464 33.3573C271.2 33.3573 272.673 32.9133 273.873 32.0356C275.074 31.1477 275.952 29.8865 276.497 28.2218H267.517V23.0056H282.913V29.5838C282.389 31.3495 281.501 32.9941 280.24 34.5075C278.979 36.0209 277.384 37.2518 275.457 38.1901C273.52 39.1284 271.341 39.5925 268.919 39.5925C266.054 39.5925 263.491 38.967 261.241 37.7058C258.992 36.4547 257.236 34.7092 255.985 32.4694C254.724 30.2296 254.098 27.6769 254.098 24.8116C254.098 21.9462 254.724 19.3835 255.985 17.1335C257.236 14.8836 258.981 13.128 261.221 11.877C263.461 10.6259 266.014 9.99023 268.879 9.99023C272.36 9.99023 275.286 10.8277 277.677 12.5126C280.068 14.1975 281.642 16.5282 282.419 19.5045H274.6L274.61 19.5247Z" fill="white"/>
<path d="M293.941 16.0023V21.8844H303.425V27.3528H293.941V33.7293H304.666V39.3996H286.868V10.332H304.666V16.0023H293.941Z" fill="white"/>
<path d="M324.078 39.3895L318.035 28.4223H316.34V39.3895H309.257V10.332H321.132C323.422 10.332 325.38 10.7356 326.994 11.5327C328.608 12.3297 329.819 13.4295 330.616 14.8218C331.413 16.2141 331.817 17.7679 331.817 19.4831C331.817 21.4102 331.272 23.1355 330.182 24.659C329.093 26.1724 327.488 27.2519 325.36 27.8876L332.069 39.3996H324.078V39.3895ZM316.329 23.4079H320.718C322.02 23.4079 322.989 23.0951 323.634 22.4595C324.28 21.8238 324.603 20.9259 324.603 19.7656C324.603 18.6053 324.28 17.7881 323.634 17.1625C322.989 16.5269 322.01 16.2141 320.718 16.2141H316.329V23.418V23.4079Z" fill="white"/>
</g>
<defs>
<linearGradient id="paint0_linear_721_4433" x1="35.8388" y1="11.7639" x2="4.90751" y2="44.6286" gradientUnits="userSpaceOnUse">
<stop offset="0.278846" stop-color="#33CFFF"/>
<stop offset="1" stop-color="#0D87C5"/>
</linearGradient>
<linearGradient id="paint1_linear_721_4433" x1="41.7314" y1="16.1745" x2="18.707" y2="44.1493" gradientUnits="userSpaceOnUse">
<stop offset="0.278846" stop-color="#33CFFF"/>
<stop offset="1" stop-color="#0D87C5"/>
</linearGradient>
<linearGradient id="paint2_linear_721_4433" x1="36.3658" y1="15.4394" x2="18.582" y2="35.9138" gradientUnits="userSpaceOnUse">
<stop offset="0.278846" stop-color="#33CFFF"/>
<stop offset="1" stop-color="#0D87C5"/>
</linearGradient>
<linearGradient id="paint3_linear_721_4433" x1="38.2471" y1="12.9591" x2="10.4237" y2="45.6744" gradientUnits="userSpaceOnUse">
<stop offset="0.278846" stop-color="#33CFFF"/>
<stop offset="1" stop-color="#0D87C5"/>
</linearGradient>
<linearGradient id="paint4_linear_721_4433" x1="29.872" y1="18.5804" x2="17.5028" y2="30.9204" gradientUnits="userSpaceOnUse">
<stop offset="0.278846" stop-color="#33CFFF"/>
<stop offset="1" stop-color="#0D87C5"/>
</linearGradient>
<clipPath id="clip0_721_4433">
<rect width="49.8204" height="50" fill="white"/>
</clipPath>
<clipPath id="clip1_721_4433">
<rect width="277.267" height="29.683" fill="white" transform="translate(54.8022 10)"/>
</clipPath>
</defs>
</svg>
