<svg width="660" height="600" viewBox="0 0 660 600" fill="none" xmlns="http://www.w3.org/2000/svg">
<g clip-path="url(#clip0_1205_6158)">
<g opacity="0.23">
<path d="M377.249 463.762C259.43 463.762 163.934 368.227 163.934 250.359C163.934 132.513 259.43 36.9558 377.249 36.9558C436.664 36.9558 490.368 61.2852 529.048 100.496C484.487 39.5756 412.516 0 331.294 0C195.98 0 86.2744 109.729 86.2744 245.098C86.2744 380.467 195.98 490.196 331.272 490.196C392.318 490.196 448.126 467.799 491.034 430.822C458.085 451.651 419.084 463.762 377.249 463.762Z" fill="url(#paint0_linear_1205_6158)"/>
<path d="M450.594 71.2695C501.873 101.311 536.367 156.992 536.367 220.725C536.367 316.325 458.879 393.844 363.319 393.844C274.412 393.844 201.196 326.761 191.429 240.416C191.258 243.809 191.15 247.223 191.15 250.637C191.15 356.544 276.966 442.395 382.83 442.395C488.694 442.395 574.509 356.544 574.509 250.637C574.509 168.609 522.994 98.6482 450.594 71.248" fill="url(#paint1_linear_1205_6158)"/>
<path d="M358.167 84.541C293.837 84.541 239.51 127.359 222.081 186.025C241.592 142.498 285.252 112.177 336.037 112.177C405.003 112.177 460.897 168.094 460.897 237.088C460.897 306.083 405.003 362 336.037 362C324.768 362 313.842 360.475 303.454 357.683C320.282 364.727 338.763 368.635 358.167 368.635C436.577 368.635 500.134 305.03 500.156 226.566C500.156 148.124 436.599 84.5195 358.167 84.5195" fill="url(#paint2_linear_1205_6158)"/>
</g>
<path d="M545.833 237.668H530.786C526.944 132.92 442.523 48.4651 337.819 44.6214V29.5685C337.819 25.4671 334.492 22.1387 330.392 22.1387C326.292 22.1387 322.965 25.4671 322.965 29.5685V44.6214C218.261 48.4651 133.84 132.92 129.998 237.668H114.951C110.851 237.668 107.524 240.996 107.524 245.098C107.524 249.199 110.851 252.527 114.951 252.527H129.998C133.84 357.275 218.261 441.73 322.965 445.574V460.627C322.965 464.728 326.292 468.056 330.392 468.056C334.492 468.056 337.819 464.728 337.819 460.627V445.574C442.523 441.73 526.944 357.275 530.786 252.527H545.833C549.933 252.527 553.26 249.199 553.26 245.098C553.26 240.996 549.933 237.668 545.833 237.668ZM471.544 252.527H486.032C482.233 332.645 417.925 396.979 337.84 400.78V386.285C337.84 382.184 334.513 378.856 330.413 378.856C326.314 378.856 322.987 382.184 322.987 386.285V400.78C242.902 396.979 178.594 332.645 174.795 252.527H189.283C193.383 252.527 196.71 249.199 196.71 245.098C196.71 240.996 193.383 237.668 189.283 237.668H174.795C178.594 157.55 242.902 93.2158 322.987 89.415V103.91C322.987 108.011 326.314 111.339 330.413 111.339C334.513 111.339 337.84 108.011 337.84 103.91V89.415C417.925 93.2158 482.233 157.55 486.032 237.668H471.544C467.444 237.668 464.117 240.996 464.117 245.098C464.117 249.199 467.444 252.527 471.544 252.527Z" fill="url(#paint3_linear_1205_6158)"/>
<path d="M407.429 213.189C404.166 213.189 401.505 215.852 401.505 219.116V230.969C401.505 234.233 398.843 236.896 395.581 236.896H383.732V219.116C383.732 215.852 381.07 213.189 377.808 213.189H365.959V189.483C365.959 178.66 358.64 169.598 348.702 166.764C350.977 156.048 360.486 147.974 371.884 147.974C375.146 147.974 377.808 145.312 377.808 142.048C377.808 138.784 375.146 136.121 371.884 136.121C354.304 136.121 339.687 148.962 336.853 165.776H323.932C321.098 148.984 306.502 136.121 288.901 136.121C285.639 136.121 282.977 138.784 282.977 142.048C282.977 145.312 285.639 147.974 288.901 147.974C300.277 147.974 309.808 156.048 312.083 166.764C302.166 169.598 294.825 178.66 294.825 189.483V213.189H282.977C279.714 213.189 277.053 215.852 277.053 219.116V236.896H259.366C259.237 235.779 259.237 233.933 259.258 232.601V219.116C259.258 215.852 256.597 213.189 253.334 213.189C250.072 213.189 247.41 215.852 247.41 219.116V232.515C247.367 237.218 247.324 242.114 250.801 245.614C252.883 247.719 255.717 248.771 259.258 248.771H277.031V260.624H253.334C250.072 260.624 247.41 263.287 247.41 266.551C247.41 269.815 250.072 272.478 253.334 272.478H277.031V284.331H259.258C255.717 284.331 252.883 285.383 250.801 287.488C247.324 291.009 247.367 295.884 247.389 300.586V313.986C247.389 317.25 250.05 319.912 253.313 319.912C256.575 319.912 259.237 317.25 259.237 313.986V300.5C259.237 299.169 259.216 297.322 259.344 296.206H277.031V302.132C277.031 318.474 290.318 331.787 306.652 331.787H354.068C370.403 331.787 383.689 318.495 383.689 302.132V296.206H395.538C398.8 296.206 401.462 298.868 401.462 302.132V313.986C401.462 317.25 404.124 319.912 407.386 319.912C410.649 319.912 413.31 317.25 413.31 313.986V302.132C413.31 292.319 405.326 284.352 395.538 284.352H383.689V272.499H407.408C410.67 272.499 413.332 269.836 413.332 266.572C413.332 263.308 410.67 260.646 407.408 260.646H383.689V248.792H395.538C405.347 248.792 413.31 240.804 413.31 231.012V219.159C413.31 215.895 410.67 213.232 407.386 213.232L407.429 213.189ZM306.674 189.483C306.674 182.933 311.997 177.629 318.522 177.629H342.219C348.766 177.629 354.068 182.955 354.068 189.483V213.189H306.652V189.483H306.674ZM312.598 266.551C312.598 269.815 309.937 272.478 306.674 272.478C303.411 272.478 300.75 269.815 300.75 266.551V242.844C300.75 239.58 303.411 236.918 306.674 236.918C309.937 236.918 312.598 239.58 312.598 242.844V266.551ZM360.014 302.132C360.014 305.396 357.352 308.059 354.089 308.059C350.827 308.059 348.165 305.396 348.165 302.132V278.426C348.165 275.162 350.827 272.499 354.089 272.499C357.352 272.499 360.014 275.162 360.014 278.426V302.132Z" fill="url(#paint4_linear_1205_6158)"/>
</g>
<g clip-path="url(#clip1_1205_6158)">
<path d="M4.44175 546.399C7.39491 541.049 11.5245 536.874 16.8066 533.899C22.0887 530.924 28.0911 529.412 34.7897 529.412C43.0009 529.412 50.0357 531.572 55.87 535.914C61.7043 540.257 65.6178 546.159 67.5866 553.645H49.0753C47.7068 550.766 45.738 548.559 43.217 547.047C40.696 545.536 37.8149 544.792 34.5976 544.792C29.4116 544.792 25.2099 546.591 21.9927 550.214C18.7754 553.813 17.1668 558.66 17.1668 564.682C17.1668 570.705 18.7754 575.551 21.9927 579.15C25.2099 582.749 29.4116 584.573 34.5976 584.573C37.8149 584.573 40.696 583.829 43.217 582.317C45.738 580.806 47.7068 578.622 49.0753 575.719H67.5866C65.6178 583.205 61.7043 589.083 55.87 593.378C50.0357 597.673 43.0009 599.832 34.7897 599.832C28.0911 599.832 22.0887 598.345 16.8066 595.346C11.5245 592.37 7.39491 588.22 4.44175 582.893C1.48859 577.567 0 571.496 0 564.682C0 557.868 1.48859 551.774 4.44175 546.423V546.399Z" fill="#1D3366"/>
<path d="M129.435 569.816C131.86 572.935 133.085 576.486 133.085 580.493C133.085 586.275 131.068 590.858 127.034 594.217C123.001 597.6 117.359 599.28 110.132 599.28H77.9111V530.203H109.027C116.062 530.203 121.56 531.811 125.522 535.026C129.507 538.241 131.476 542.608 131.476 548.126C131.476 552.205 130.42 555.564 128.283 558.275C126.146 560.963 123.313 562.834 119.76 563.89C123.769 564.753 126.986 566.721 129.411 569.84L129.435 569.816ZM94.7658 558.155H105.81C108.571 558.155 110.684 557.555 112.173 556.332C113.661 555.108 114.381 553.333 114.381 550.957C114.381 548.582 113.637 546.782 112.173 545.535C110.684 544.287 108.571 543.663 105.81 543.663H94.7658V558.131V558.155ZM113.733 583.804C115.27 582.532 116.038 580.661 116.038 578.238C116.038 575.814 115.246 573.919 113.637 572.527C112.029 571.16 109.82 570.464 106.987 570.464H94.7658V585.724H107.179C110.012 585.724 112.173 585.076 113.733 583.804Z" fill="#1D3366"/>
<path d="M187.85 534.522C193.3 537.401 197.526 541.456 200.503 546.687C203.48 551.917 204.992 557.915 204.992 564.753C204.992 571.592 203.504 577.518 200.503 582.772C197.502 588.027 193.276 592.082 187.802 594.985C182.328 597.864 175.965 599.328 168.738 599.328H142.832V530.203H168.738C176.037 530.203 182.4 531.643 187.85 534.522ZM182.544 579.509C186.097 576.03 187.874 571.112 187.874 564.753C187.874 558.395 186.097 553.429 182.544 549.878C178.99 546.327 174.044 544.575 167.658 544.575H159.687V584.74H167.658C174.02 584.74 178.99 583.012 182.544 579.533V579.509Z" fill="#1D3366"/>
<path d="M231.283 543.687V557.675H253.852V570.68H231.283V585.844H256.805V599.328H214.452V530.203H256.805V543.687H231.283Z" fill="#1D3366"/>
<path d="M319.254 569.816C321.679 572.935 322.903 576.486 322.903 580.493C322.903 586.275 320.886 590.858 316.853 594.217C312.819 597.6 307.177 599.28 299.95 599.28H267.729V530.203H298.846C305.881 530.203 311.379 531.811 315.34 535.026C319.326 538.241 321.295 542.608 321.295 548.126C321.295 552.205 320.238 555.564 318.101 558.275C315.964 560.963 313.131 562.834 309.578 563.89C313.588 564.753 316.805 566.721 319.23 569.84L319.254 569.816ZM284.584 558.155H295.628C298.39 558.155 300.502 557.555 301.991 556.332C303.48 555.108 304.2 553.333 304.2 550.957C304.2 548.582 303.456 546.782 301.991 545.535C300.502 544.287 298.39 543.663 295.628 543.663H284.584V558.131V558.155ZM303.552 583.804C305.088 582.532 305.857 580.661 305.857 578.238C305.857 575.814 305.064 573.919 303.456 572.527C301.847 571.16 299.638 570.464 296.805 570.464H284.584V585.724H296.997C299.83 585.724 301.991 585.076 303.552 583.804Z" fill="#1D3366"/>
<path d="M349.194 530.203V571.544C349.194 575.67 350.202 578.861 352.243 581.093C354.284 583.324 357.261 584.428 361.199 584.428C365.136 584.428 368.161 583.324 370.274 581.093C372.387 578.861 373.419 575.67 373.419 571.544V530.203H390.274V571.448C390.274 577.614 388.954 582.844 386.337 587.091C383.72 591.362 380.19 594.577 375.748 596.736C371.307 598.896 366.385 599.976 360.935 599.976C355.484 599.976 350.61 598.92 346.313 596.784C342.015 594.649 338.606 591.434 336.109 587.139C333.612 582.844 332.363 577.614 332.363 571.448V530.203H349.218H349.194Z" fill="#1D3366"/>
<path d="M448.016 552.062C446.768 549.759 444.967 548.007 442.638 546.784C440.309 545.56 437.572 544.96 434.403 544.96C428.953 544.96 424.583 546.76 421.294 550.335C418.004 553.91 416.372 558.684 416.372 564.659C416.372 571.017 418.101 576.008 421.534 579.583C424.991 583.158 429.721 584.957 435.771 584.957C439.901 584.957 443.406 583.901 446.264 581.814C449.121 579.703 451.21 576.703 452.506 572.745H431.138V560.34H467.776V575.984C466.528 580.182 464.415 584.093 461.414 587.692C458.412 591.291 454.619 594.219 450.033 596.45C445.423 598.681 440.237 599.785 434.475 599.785C427.656 599.785 421.558 598.297 416.204 595.298C410.85 592.323 406.672 588.172 403.695 582.846C400.694 577.519 399.205 571.449 399.205 564.635C399.205 557.821 400.694 551.726 403.695 546.376C406.672 541.025 410.826 536.851 416.156 533.875C421.486 530.9 427.56 529.389 434.379 529.389C442.662 529.389 449.625 531.38 455.315 535.387C461.005 539.394 464.751 544.936 466.6 552.014H447.992L448.016 552.062Z" fill="#1D3366"/>
<path d="M523.07 552.062C521.822 549.759 520.021 548.007 517.692 546.784C515.363 545.56 512.626 544.96 509.457 544.96C504.007 544.96 499.637 546.76 496.347 550.335C493.058 553.91 491.426 558.684 491.426 564.659C491.426 571.017 493.154 576.008 496.588 579.583C500.045 583.158 504.775 584.957 510.825 584.957C514.955 584.957 518.46 583.901 521.317 581.814C524.174 579.703 526.263 576.703 527.56 572.745H506.191V560.34H542.83V575.984C541.581 580.182 539.468 584.093 536.467 587.692C533.466 591.291 529.673 594.219 525.087 596.45C520.477 598.681 515.291 599.785 509.529 599.785C502.71 599.785 496.612 598.297 491.257 595.298C485.903 592.323 481.726 588.172 478.749 582.846C475.747 577.519 474.259 571.449 474.259 564.635C474.259 557.821 475.747 551.726 478.749 546.376C481.726 541.025 485.879 536.851 491.209 533.875C496.54 530.9 502.614 529.389 509.433 529.389C517.716 529.389 524.679 531.38 530.369 535.387C536.059 539.394 539.805 544.936 541.653 552.014H523.046L523.07 552.062Z" fill="#1D3366"/>
<path d="M569.072 543.687V557.675H591.641V570.68H569.072V585.844H594.594V599.328H552.241V530.203H594.594V543.687H569.072Z" fill="#1D3366"/>
<path d="M640.788 599.304L626.407 573.223H622.373V599.304H605.519V530.203H633.778C639.228 530.203 643.886 531.163 647.727 533.058C651.569 534.954 654.45 537.569 656.347 540.88C658.243 544.191 659.204 547.886 659.204 551.965C659.204 556.548 657.907 560.651 655.314 564.274C652.721 567.873 648.904 570.44 643.838 571.951L659.804 599.328H640.788V599.304ZM622.349 561.298H632.793C635.891 561.298 638.195 560.555 639.732 559.043C641.269 557.531 642.037 555.396 642.037 552.637C642.037 549.878 641.269 547.934 639.732 546.447C638.195 544.935 635.867 544.191 632.793 544.191H622.349V561.322V561.298Z" fill="#1D3366"/>
</g>
<defs>
<linearGradient id="paint0_linear_1205_6158" x1="437.492" y1="115.332" x2="134.236" y2="437.411" gradientUnits="userSpaceOnUse">
<stop offset="0.278846" stop-color="#33CFFF"/>
<stop offset="1" stop-color="#0D87C5"/>
</linearGradient>
<linearGradient id="paint1_linear_1205_6158" x1="495.239" y1="158.571" x2="269.492" y2="432.743" gradientUnits="userSpaceOnUse">
<stop offset="0.278846" stop-color="#33CFFF"/>
<stop offset="1" stop-color="#0D87C5"/>
</linearGradient>
<linearGradient id="paint2_linear_1205_6158" x1="442.656" y1="151.366" x2="268.295" y2="352.025" gradientUnits="userSpaceOnUse">
<stop offset="0.278846" stop-color="#33CFFF"/>
<stop offset="1" stop-color="#0D87C5"/>
</linearGradient>
<linearGradient id="paint3_linear_1205_6158" x1="461.091" y1="127.053" x2="188.296" y2="447.682" gradientUnits="userSpaceOnUse">
<stop offset="0.278846" stop-color="#33CFFF"/>
<stop offset="1" stop-color="#0D87C5"/>
</linearGradient>
<linearGradient id="paint4_linear_1205_6158" x1="379.018" y1="182.157" x2="257.751" y2="303.088" gradientUnits="userSpaceOnUse">
<stop offset="0.278846" stop-color="#33CFFF"/>
<stop offset="1" stop-color="#0D87C5"/>
</linearGradient>
<clipPath id="clip0_1205_6158">
<rect width="488.235" height="490.196" fill="white" transform="translate(86.2744)"/>
</clipPath>
<clipPath id="clip1_1205_6158">
<rect width="659.804" height="70.5882" fill="white" transform="translate(0 529.412)"/>
</clipPath>
</defs>
</svg>
