<svg width="50" height="50" viewBox="0 0 50 50" fill="none" xmlns="http://www.w3.org/2000/svg">
<g clip-path="url(#clip0_721_4573)">
<g opacity="0.23">
<path d="M29.7986 47.3038C17.7328 47.3038 7.95305 37.5591 7.95305 25.5366C7.95305 13.5163 17.7328 3.76949 29.7986 3.76949C35.8832 3.76949 41.3831 6.25109 45.3442 10.2506C40.7808 4.03671 33.4103 0 25.0923 0C11.2349 0 0 11.1924 0 25C0 38.8076 11.2349 50 25.0901 50C31.3418 50 37.0571 47.7155 41.4512 43.9438C38.077 46.0684 34.0829 47.3038 29.7986 47.3038Z" fill="#1D3366"/>
<path d="M37.3097 7.26977C42.5612 10.334 46.0937 16.0134 46.0937 22.5142C46.0937 32.2654 38.1582 40.1723 28.3719 40.1723C19.267 40.1723 11.769 33.3299 10.7688 24.5227C10.7512 24.8688 10.7402 25.217 10.7402 25.5653C10.7402 36.3678 19.5286 45.1246 30.3701 45.1246C41.2115 45.1246 49.9999 36.3678 49.9999 25.5653C49.9999 17.1984 44.7242 10.0624 37.3097 7.26758" fill="#1D3366"/>
<path d="M27.8447 8.62328C21.2567 8.62328 15.6931 12.9907 13.9082 18.9746C15.9064 14.5349 20.3775 11.4422 25.5784 11.4422C32.6412 11.4422 38.3652 17.1457 38.3652 24.1831C38.3652 31.2205 32.6412 36.9241 25.5784 36.9241C24.4243 36.9241 23.3055 36.7685 22.2415 36.4838C23.9649 37.2022 25.8576 37.6009 27.8447 37.6009C35.8747 37.6009 42.3835 31.1132 42.3857 23.1099C42.3857 15.1087 35.8769 8.62109 27.8447 8.62109" fill="#1D3366"/>
</g>
<path d="M47.0628 24.2418H45.5219C45.1284 13.5575 36.4829 4.94311 25.7601 4.55105V3.01565C25.7601 2.59731 25.4194 2.25781 24.9996 2.25781C24.5797 2.25781 24.239 2.59731 24.239 3.01565V4.55105C13.5162 4.94311 4.87076 13.5575 4.47728 24.2418H2.93635C2.5165 24.2418 2.17578 24.5813 2.17578 24.9996C2.17578 25.418 2.5165 25.7575 2.93635 25.7575H4.47728C4.87076 36.4417 13.5162 45.0561 24.239 45.4482V46.9836C24.239 47.4019 24.5797 47.7414 24.9996 47.7414C25.4194 47.7414 25.7601 47.4019 25.7601 46.9836V45.4482C36.4829 45.0561 45.1284 36.4417 45.5219 25.7575H47.0628C47.4826 25.7575 47.8234 25.418 47.8234 24.9996C47.8234 24.5813 47.4826 24.2418 47.0628 24.2418ZM39.4549 25.7575H40.9386C40.5496 33.9294 33.9638 40.4916 25.7623 40.8792V39.4008C25.7623 38.9824 25.4216 38.6429 25.0018 38.6429C24.5819 38.6429 24.2412 38.9824 24.2412 39.4008V40.8792C16.0398 40.4916 9.45398 33.9294 9.0649 25.7575H10.5487C10.9685 25.7575 11.3093 25.418 11.3093 24.9996C11.3093 24.5813 10.9685 24.2418 10.5487 24.2418H9.0649C9.45398 16.0698 16.0398 9.50768 24.2412 9.12V10.5984C24.2412 11.0168 24.5819 11.3563 25.0018 11.3563C25.4216 11.3563 25.7623 11.0168 25.7623 10.5984V9.12C33.9638 9.50768 40.5496 16.0698 40.9386 24.2418H39.4549C39.035 24.2418 38.6943 24.5813 38.6943 24.9996C38.6943 25.418 39.035 25.7575 39.4549 25.7575Z" fill="#1D3366"/>
<path d="M32.8891 21.7457C32.555 21.7457 32.2824 22.0173 32.2824 22.3502V23.5593C32.2824 23.8922 32.0098 24.1638 31.6757 24.1638H30.4623V22.3502C30.4623 22.0173 30.1897 21.7457 29.8556 21.7457H28.6422V19.3276C28.6422 18.2237 27.8926 17.2994 26.8749 17.0103C27.1079 15.9174 28.0817 15.0938 29.2489 15.0938C29.583 15.0938 29.8556 14.8222 29.8556 14.4893C29.8556 14.1564 29.583 13.8848 29.2489 13.8848C27.4486 13.8848 25.9516 15.1946 25.6615 16.9096H24.3382C24.048 15.1968 22.5532 13.8848 20.7507 13.8848C20.4166 13.8848 20.144 14.1564 20.144 14.4893C20.144 14.8222 20.4166 15.0938 20.7507 15.0938C21.9157 15.0938 22.8917 15.9174 23.1247 17.0103C22.1092 17.2994 21.3574 18.2237 21.3574 19.3276V21.7457H20.144C19.8099 21.7457 19.5373 22.0173 19.5373 22.3502V24.1638H17.726C17.7128 24.0499 17.7128 23.8615 17.715 23.7258V22.3502C17.715 22.0173 17.4424 21.7457 17.1083 21.7457C16.7742 21.7457 16.5016 22.0173 16.5016 22.3502V23.717C16.4972 24.1967 16.4928 24.6961 16.8489 25.0531C17.0621 25.2677 17.3523 25.375 17.715 25.375H19.5351V26.5841H17.1083C16.7742 26.5841 16.5016 26.8557 16.5016 27.1886C16.5016 27.5215 16.7742 27.7931 17.1083 27.7931H19.5351V29.0022H17.715C17.3523 29.0022 17.0621 29.1095 16.8489 29.3241C16.4928 29.6833 16.4972 30.1805 16.4994 30.6602V32.027C16.4994 32.3599 16.772 32.6315 17.1061 32.6315C17.4402 32.6315 17.7128 32.3599 17.7128 32.027V30.6515C17.7128 30.5157 17.7106 30.3273 17.7238 30.2134H19.5351V30.8179C19.5351 32.4847 20.8958 33.8427 22.5686 33.8427H27.4244C29.0972 33.8427 30.4579 32.4869 30.4579 30.8179V30.2134H31.6713C32.0054 30.2134 32.278 30.485 32.278 30.8179V32.027C32.278 32.3599 32.5506 32.6315 32.8847 32.6315C33.2188 32.6315 33.4914 32.3599 33.4914 32.027V30.8179C33.4914 29.817 32.6737 29.0044 31.6713 29.0044H30.4579V27.7953H32.8869C33.221 27.7953 33.4936 27.5237 33.4936 27.1908C33.4936 26.8579 33.221 26.5863 32.8869 26.5863H30.4579V25.3772H31.6713C32.6759 25.3772 33.4914 24.5624 33.4914 23.5637V22.3546C33.4914 22.0217 33.221 21.7501 32.8847 21.7501L32.8891 21.7457ZM22.5708 19.3276C22.5708 18.6596 23.116 18.1186 23.7842 18.1186H26.211C26.8815 18.1186 27.4244 18.6618 27.4244 19.3276V21.7457H22.5686V19.3276H22.5708ZM23.1775 27.1886C23.1775 27.5215 22.9049 27.7931 22.5708 27.7931C22.2367 27.7931 21.9641 27.5215 21.9641 27.1886V24.7705C21.9641 24.4376 22.2367 24.166 22.5708 24.166C22.9049 24.166 23.1775 24.4376 23.1775 24.7705V27.1886ZM28.0333 30.8179C28.0333 31.1508 27.7607 31.4224 27.4266 31.4224C27.0925 31.4224 26.8199 31.1508 26.8199 30.8179V28.3998C26.8199 28.0669 27.0925 27.7953 27.4266 27.7953C27.7607 27.7953 28.0333 28.0669 28.0333 28.3998V30.8179Z" fill="#1D3366"/>
</g>
<defs>
<clipPath id="clip0_721_4573">
<rect width="50" height="50" fill="white"/>
</clipPath>
</defs>
</svg>
