<svg width="665" height="100" viewBox="0 0 665 100" fill="none" xmlns="http://www.w3.org/2000/svg">
<g clip-path="url(#clip0_721_4414)">
<g opacity="0.23">
<path d="M59.3832 94.6075C35.3382 94.6075 15.849 75.1183 15.849 51.0732C15.849 27.0326 35.3382 7.53899 59.3832 7.53899C71.5087 7.53899 82.4689 12.5022 90.3627 20.5011C81.2686 8.07342 66.5805 0 50.0044 0C22.3892 0 0 22.3848 0 50C0 77.6152 22.3892 100 50 100C62.4584 100 73.8479 95.4311 82.6047 87.8877C75.8805 92.1369 67.921 94.6075 59.3832 94.6075Z" fill="url(#paint0_linear_721_4414)"/>
<path d="M74.3515 14.5395C84.8167 20.668 91.8563 32.0268 91.8563 45.0284C91.8563 64.5308 76.0424 80.3447 56.54 80.3447C38.3956 80.3447 23.4534 66.6597 21.4603 49.0454C21.4252 49.7375 21.4033 50.4341 21.4033 51.1306C21.4033 72.7356 38.9169 90.2492 60.522 90.2492C82.127 90.2492 99.6406 72.7356 99.6406 51.1306C99.6406 34.3967 89.1272 20.1248 74.3515 14.5352" fill="url(#paint1_linear_721_4414)"/>
<path d="M55.4887 17.2466C42.3601 17.2466 31.2729 25.9815 27.7158 37.9492C31.6978 29.0698 40.6079 22.8844 50.9723 22.8844C65.0472 22.8844 76.4542 34.2914 76.4542 48.3662C76.4542 62.4411 65.0472 73.8481 50.9723 73.8481C48.6725 73.8481 46.4428 73.5371 44.3226 72.9676C47.757 74.4045 51.5287 75.2017 55.4887 75.2017C71.491 75.2017 84.4619 62.2264 84.4663 46.2198C84.4663 30.2175 71.4954 17.2422 55.4887 17.2422" fill="url(#paint2_linear_721_4414)"/>
</g>
<path d="M93.7885 48.4836H90.7177C89.9335 27.1151 72.7047 9.88622 51.3362 9.1021V6.03131C51.3362 5.19462 50.6572 4.51562 49.8205 4.51562C48.9838 4.51562 48.3048 5.19462 48.3048 6.03131V9.1021C26.9364 9.88622 9.70751 27.1151 8.92339 48.4836H5.8526C5.0159 48.4836 4.33691 49.1625 4.33691 49.9992C4.33691 50.8359 5.0159 51.5149 5.8526 51.5149H8.92339C9.70751 72.8834 26.9364 90.1123 48.3048 90.8964V93.9672C48.3048 94.8039 48.9838 95.4828 49.8205 95.4828C50.6572 95.4828 51.3362 94.8039 51.3362 93.9672V90.8964C72.7047 90.1123 89.9335 72.8834 90.7177 51.5149H93.7885C94.6252 51.5149 95.3041 50.8359 95.3041 49.9992C95.3041 49.1625 94.6252 48.4836 93.7885 48.4836ZM78.6273 51.5149H81.5842C80.8088 67.8589 67.6846 80.9831 51.3406 81.7585V78.8016C51.3406 77.9649 50.6616 77.2859 49.8249 77.2859C48.9882 77.2859 48.3092 77.9649 48.3092 78.8016V81.7585C31.9653 80.9831 18.841 67.8589 18.0657 51.5149H21.0226C21.8593 51.5149 22.5382 50.8359 22.5382 49.9992C22.5382 49.1625 21.8593 48.4836 21.0226 48.4836H18.0657C18.841 32.1396 31.9653 19.0154 48.3092 18.24V21.1969C48.3092 22.0336 48.9882 22.7126 49.8249 22.7126C50.6616 22.7126 51.3406 22.0336 51.3406 21.1969V18.24C67.6846 19.0154 80.8088 32.1396 81.5842 48.4836H78.6273C77.7906 48.4836 77.1116 49.1625 77.1116 49.9992C77.1116 50.8359 77.7906 51.5149 78.6273 51.5149Z" fill="url(#paint3_linear_721_4414)"/>
<path d="M65.5423 43.4895C64.8764 43.4895 64.3333 44.0327 64.3333 44.6985V47.1166C64.3333 47.7825 63.7901 48.3257 63.1242 48.3257H60.7061V44.6985C60.7061 44.0327 60.1629 43.4895 59.4971 43.4895H57.079V38.6533C57.079 36.4455 55.5852 34.5969 53.557 34.0187C54.0214 31.8328 55.962 30.1857 58.288 30.1857C58.9539 30.1857 59.4971 29.6425 59.4971 28.9766C59.4971 28.3108 58.9539 27.7676 58.288 27.7676C54.7003 27.7676 51.7172 30.3872 51.1389 33.8172H48.5018C47.9236 30.3915 44.9448 27.7676 41.3527 27.7676C40.6869 27.7676 40.1437 28.3108 40.1437 28.9766C40.1437 29.6425 40.6869 30.1857 41.3527 30.1857C43.6744 30.1857 45.6194 31.8328 46.0837 34.0187C44.0599 34.5969 42.5617 36.4455 42.5617 38.6533V43.4895H40.1437C39.4778 43.4895 38.9346 44.0327 38.9346 44.6985V48.3257H35.325C35.2987 48.0979 35.2987 47.7211 35.3031 47.4495V44.6985C35.3031 44.0327 34.7599 43.4895 34.0941 43.4895C33.4282 43.4895 32.885 44.0327 32.885 44.6985V47.432C32.8763 48.3914 32.8675 49.3901 33.5772 50.1042C34.0021 50.5335 34.5803 50.7481 35.3031 50.7481H38.9302V53.1662H34.0941C33.4282 53.1662 32.885 53.7094 32.885 54.3753C32.885 55.0411 33.4282 55.5843 34.0941 55.5843H38.9302V58.0024H35.3031C34.5803 58.0024 34.0021 58.217 33.5772 58.6463C32.8675 59.3647 32.8763 60.3591 32.8807 61.3185V64.052C32.8807 64.7178 33.4238 65.261 34.0897 65.261C34.7555 65.261 35.2987 64.7178 35.2987 64.052V61.301C35.2987 61.0294 35.2944 60.6526 35.3206 60.4248H38.9302V61.6339C38.9302 64.9675 41.6418 67.6835 44.9754 67.6835H54.6522C57.9858 67.6835 60.6974 64.9719 60.6974 61.6339V60.4248H63.1155C63.7813 60.4248 64.3245 60.968 64.3245 61.6339V64.052C64.3245 64.7178 64.8677 65.261 65.5335 65.261C66.1994 65.261 66.7426 64.7178 66.7426 64.052V61.6339C66.7426 59.632 65.113 58.0068 63.1155 58.0068H60.6974V55.5887H65.5379C66.2038 55.5887 66.747 55.0455 66.747 54.3796C66.747 53.7138 66.2038 53.1706 65.5379 53.1706H60.6974V50.7525H63.1155C65.1174 50.7525 66.7426 49.1229 66.7426 47.1254V44.7073C66.7426 44.0415 66.2038 43.4983 65.5335 43.4983L65.5423 43.4895ZM44.9798 38.6533C44.9798 37.3173 46.0662 36.2353 47.3979 36.2353H52.2341C53.5702 36.2353 54.6522 37.3216 54.6522 38.6533V43.4895H44.9754V38.6533H44.9798ZM46.1889 54.3753C46.1889 55.0411 45.6457 55.5843 44.9798 55.5843C44.314 55.5843 43.7708 55.0411 43.7708 54.3753V49.5391C43.7708 48.8732 44.314 48.33 44.9798 48.33C45.6457 48.33 46.1889 48.8732 46.1889 49.5391V54.3753ZM55.8656 61.6339C55.8656 62.2997 55.3224 62.8429 54.6565 62.8429C53.9907 62.8429 53.4475 62.2997 53.4475 61.6339V56.7977C53.4475 56.1319 53.9907 55.5887 54.6565 55.5887C55.3224 55.5887 55.8656 56.1319 55.8656 56.7977V61.6339Z" fill="url(#paint4_linear_721_4414)"/>
</g>
<g clip-path="url(#clip1_721_4414)">
<path d="M113.338 34.2866C115.82 29.7867 119.291 26.2756 123.73 23.7734C128.169 21.2713 133.214 20 138.844 20C145.745 20 151.658 21.8161 156.561 25.4685C161.464 29.1208 164.754 34.0848 166.408 40.3806H150.85C149.7 37.9591 148.046 36.1027 145.927 34.8314C143.808 33.5601 141.387 32.9346 138.683 32.9346C134.324 32.9346 130.793 34.448 128.089 37.495C125.385 40.5218 124.033 44.5979 124.033 49.6628C124.033 54.7277 125.385 58.8038 128.089 61.8306C130.793 64.8574 134.324 66.391 138.683 66.391C141.387 66.391 143.808 65.7655 145.927 64.4942C148.046 63.223 149.7 61.3867 150.85 58.945H166.408C164.754 65.2408 161.464 70.1846 156.561 73.7966C151.658 77.4086 145.745 79.2247 138.844 79.2247C133.214 79.2247 128.169 77.9736 123.73 75.4513C119.291 72.9491 115.82 69.4582 113.338 64.9785C110.856 60.4988 109.605 55.3936 109.605 49.6628C109.605 43.932 110.856 38.8066 113.338 34.3068V34.2866Z" fill="white"/>
<path d="M218.389 53.9812C220.427 56.6044 221.456 59.5909 221.456 62.9608C221.456 67.8238 219.761 71.678 216.371 74.503C212.981 77.3482 208.239 78.7607 202.165 78.7607H175.085V20.666H201.237C207.149 20.666 211.77 22.018 215.099 24.722C218.449 27.4259 220.104 31.0984 220.104 35.7396C220.104 39.17 219.216 41.995 217.42 44.2752C215.624 46.5352 213.243 48.1092 210.257 48.997C213.626 49.7235 216.33 51.3781 218.368 54.0014L218.389 53.9812ZM189.25 44.1743H198.533C200.853 44.1743 202.629 43.6698 203.88 42.6407C205.131 41.6116 205.737 40.1184 205.737 38.1207C205.737 36.123 205.111 34.6096 203.88 33.5603C202.629 32.511 200.853 31.9863 198.533 31.9863H189.25V44.1541V44.1743ZM205.192 65.7454C206.483 64.6759 207.129 63.102 207.129 61.0639C207.129 59.0259 206.463 57.4318 205.111 56.2614C203.759 55.1112 201.903 54.526 199.521 54.526H189.25V67.3597H199.683C202.064 67.3597 203.88 66.8149 205.192 65.7454Z" fill="white"/>
<path d="M267.484 24.2982C272.064 26.7197 275.616 30.1299 278.118 34.5288C280.62 38.9278 281.891 43.9725 281.891 49.7235C281.891 55.4744 280.64 60.4586 278.118 64.8777C275.596 69.2969 272.044 72.7071 267.443 75.1487C262.843 77.5702 257.495 78.8011 251.421 78.8011H229.648V20.666H251.421C257.556 20.666 262.903 21.8767 267.484 24.2982ZM263.024 62.1334C266.011 59.2075 267.504 55.0708 267.504 49.7235C267.504 44.3761 266.011 40.1991 263.024 37.2126C260.038 34.2262 255.881 32.7531 250.513 32.7531H243.814V66.5324H250.513C255.861 66.5324 260.038 65.0795 263.024 62.1536V62.1334Z" fill="white"/>
<path d="M303.987 32.0065V43.7707H322.955V54.7076H303.987V67.4606H325.437V78.8011H289.842V20.666H325.437V32.0065H303.987Z" fill="white"/>
<path d="M377.922 53.9812C379.96 56.6044 380.99 59.5909 380.99 62.9608C380.99 67.8238 379.294 71.678 375.904 74.503C372.514 77.3482 367.772 78.7607 361.699 78.7607H334.619V20.666H360.77C366.683 20.666 371.304 22.018 374.633 24.722C377.983 27.4259 379.638 31.0984 379.638 35.7396C379.638 39.17 378.75 41.995 376.954 44.2752C375.158 46.5352 372.777 48.1092 369.79 48.997C373.16 49.7235 375.864 51.3781 377.902 54.0014L377.922 53.9812ZM348.784 44.1743H358.066C360.387 44.1743 362.163 43.6698 363.414 42.6407C364.665 41.6116 365.27 40.1184 365.27 38.1207C365.27 36.123 364.645 34.6096 363.414 33.5603C362.163 32.511 360.387 31.9863 358.066 31.9863H348.784V44.1541V44.1743ZM364.725 65.7454C366.017 64.6759 366.663 63.102 366.663 61.0639C366.663 59.0259 365.997 57.4318 364.645 56.2614C363.293 55.1112 361.436 54.526 359.055 54.526H348.784V67.3597H359.217C361.598 67.3597 363.414 66.8149 364.725 65.7454Z" fill="white"/>
<path d="M403.085 20.666V55.4341C403.085 58.9048 403.933 61.5886 405.648 63.4652C407.363 65.3418 409.865 66.2701 413.175 66.2701C416.484 66.2701 419.027 65.3418 420.802 63.4652C422.578 61.5886 423.446 58.9048 423.446 55.4341V20.666H437.611V55.3533C437.611 60.5393 436.501 64.9383 434.302 68.5099C432.102 72.1017 429.136 74.8057 425.403 76.6218C421.67 78.4379 417.533 79.3459 412.953 79.3459C408.372 79.3459 404.276 78.4581 400.664 76.6621C397.052 74.8662 394.186 72.1623 392.088 68.5503C389.989 64.9383 388.94 60.5393 388.94 55.3533V20.666H403.105H403.085Z" fill="white"/>
<path d="M486.141 39.0494C485.092 37.1123 483.578 35.6392 481.621 34.6101C479.664 33.581 477.363 33.0765 474.7 33.0765C470.119 33.0765 466.447 34.5899 463.682 37.5965C460.918 40.6032 459.545 44.6188 459.545 49.6433C459.545 54.9907 460.998 59.1878 463.884 62.1945C466.79 65.2011 470.765 66.7145 475.85 66.7145C479.321 66.7145 482.267 65.8267 484.668 64.0711C487.069 62.2954 488.825 59.773 489.915 56.4435H471.955V46.0111H502.748V59.1677C501.699 62.699 499.923 65.9881 497.401 69.0149C494.879 72.0417 491.69 74.5035 487.836 76.3802C483.962 78.2568 479.603 79.185 474.76 79.185C469.03 79.185 463.904 77.9339 459.404 75.4116C454.904 72.9094 451.393 69.4185 448.891 64.9388C446.369 60.4591 445.118 55.3539 445.118 49.6231C445.118 43.8923 446.369 38.7669 448.891 34.267C451.393 29.7672 454.884 26.2561 459.364 23.7539C463.844 21.2517 468.949 19.9805 474.68 19.9805C481.641 19.9805 487.493 21.6553 492.275 25.0252C497.058 28.395 500.206 33.0563 501.76 39.0091H486.121L486.141 39.0494Z" fill="white"/>
<path d="M549.22 39.0494C548.17 37.1123 546.657 35.6392 544.7 34.6101C542.742 33.581 540.442 33.0765 537.778 33.0765C533.198 33.0765 529.525 34.5899 526.761 37.5965C523.996 40.6032 522.624 44.6188 522.624 49.6433C522.624 54.9907 524.077 59.1878 526.963 62.1945C529.868 65.2011 533.844 66.7145 538.929 66.7145C542.399 66.7145 545.345 65.8267 547.747 64.0711C550.148 62.2954 551.904 59.773 552.993 56.4435H535.034V46.0111H565.827V59.1677C564.778 62.699 563.002 65.9881 560.48 69.0149C557.957 72.0417 554.769 74.5035 550.915 76.3802C547.04 78.2568 542.682 79.185 537.839 79.185C532.108 79.185 526.983 77.9339 522.483 75.4116C517.983 72.9094 514.472 69.4185 511.97 64.9388C509.447 60.4591 508.196 55.3539 508.196 49.6231C508.196 43.8923 509.447 38.7669 511.97 34.267C514.472 29.7672 517.963 26.2561 522.443 23.7539C526.922 21.2517 532.027 19.9805 537.758 19.9805C544.72 19.9805 550.572 21.6553 555.354 25.0252C560.136 28.395 563.284 33.0563 564.838 39.0091H549.2L549.22 39.0494Z" fill="white"/>
<path d="M587.883 32.0065V43.7707H606.851V54.7076H587.883V67.4606H609.333V78.8011H573.737V20.666H609.333V32.0065H587.883Z" fill="white"/>
<path d="M648.156 78.7809L636.069 56.8466H632.679V78.7809H618.514V20.666H642.264C646.845 20.666 650.759 21.4732 653.988 23.0673C657.217 24.6614 659.638 26.8609 661.232 29.6456C662.826 32.4302 663.633 35.5378 663.633 38.9682C663.633 42.8223 662.544 46.2729 660.364 49.3199C658.185 52.3467 654.977 54.5058 650.719 55.7771L664.138 78.8011H648.156V78.7809ZM632.659 46.8177H641.437C644.04 46.8177 645.977 46.1922 647.268 44.9209C648.56 43.6497 649.206 41.8537 649.206 39.5332C649.206 37.2126 648.56 35.5781 647.268 34.3271C645.977 33.0558 644.02 32.4302 641.437 32.4302H632.659V46.8379V46.8177Z" fill="white"/>
</g>
<defs>
<linearGradient id="paint0_linear_721_4414" x1="71.6777" y1="23.5278" x2="9.81504" y2="89.2572" gradientUnits="userSpaceOnUse">
<stop offset="0.278846" stop-color="#33CFFF"/>
<stop offset="1" stop-color="#0D87C5"/>
</linearGradient>
<linearGradient id="paint1_linear_721_4414" x1="83.4628" y1="32.349" x2="37.414" y2="88.2987" gradientUnits="userSpaceOnUse">
<stop offset="0.278846" stop-color="#33CFFF"/>
<stop offset="1" stop-color="#0D87C5"/>
</linearGradient>
<linearGradient id="paint2_linear_721_4414" x1="72.7315" y1="30.8788" x2="37.1639" y2="71.8276" gradientUnits="userSpaceOnUse">
<stop offset="0.278846" stop-color="#33CFFF"/>
<stop offset="1" stop-color="#0D87C5"/>
</linearGradient>
<linearGradient id="paint3_linear_721_4414" x1="76.4941" y1="25.9182" x2="20.8474" y2="91.3489" gradientUnits="userSpaceOnUse">
<stop offset="0.278846" stop-color="#33CFFF"/>
<stop offset="1" stop-color="#0D87C5"/>
</linearGradient>
<linearGradient id="paint4_linear_721_4414" x1="59.744" y1="37.1589" x2="35.0056" y2="61.8389" gradientUnits="userSpaceOnUse">
<stop offset="0.278846" stop-color="#33CFFF"/>
<stop offset="1" stop-color="#0D87C5"/>
</linearGradient>
<clipPath id="clip0_721_4414">
<rect width="99.6408" height="100" fill="white"/>
</clipPath>
<clipPath id="clip1_721_4414">
<rect width="554.533" height="59.366" fill="white" transform="translate(109.605 20)"/>
</clipPath>
</defs>
</svg>
