<svg width="1183" height="178" viewBox="0 0 1183 178" fill="none" xmlns="http://www.w3.org/2000/svg">
<g clip-path="url(#clip0_721_4281)">
<g opacity="0.23">
<path d="M105.702 168.401C62.902 168.401 28.2111 133.711 28.2111 90.9104C28.2111 48.118 62.902 13.4194 105.702 13.4194C127.285 13.4194 146.795 22.2539 160.846 36.492C144.658 14.3707 118.513 0 89.0078 0C39.8527 0 0 39.8449 0 89C0 138.155 39.8527 178 89 178C111.176 178 131.449 169.867 147.036 156.44C135.067 164.004 120.899 168.401 105.702 168.401Z" fill="#1D3366"/>
<path d="M132.346 25.8789C150.974 36.7875 163.505 57.0063 163.505 80.1491C163.505 114.863 135.356 143.012 100.642 143.012C68.3449 143.012 41.7478 118.653 38.2 87.2993C38.1376 88.5313 38.0986 89.7711 38.0986 91.0109C38.0986 129.468 69.2728 160.642 107.73 160.642C146.187 160.642 177.361 129.468 177.361 91.0109C177.361 61.2247 158.647 35.8206 132.346 25.8711" fill="#1D3366"/>
<path d="M98.7698 30.6992C75.4008 30.6992 55.6655 46.2473 49.334 67.5499C56.4219 51.7445 72.2819 40.7345 90.7306 40.7345C115.784 40.7345 136.088 61.0391 136.088 86.0922C136.088 111.145 115.784 131.45 90.7306 131.45C86.6369 131.45 82.668 130.896 78.8941 129.883C85.0073 132.44 91.7209 133.859 98.7698 133.859C127.254 133.859 150.342 110.763 150.35 82.2715C150.35 53.7874 127.262 30.6914 98.7698 30.6914" fill="#1D3366"/>
</g>
<path d="M166.943 86.302H161.477C160.082 48.2661 129.414 17.5987 91.3785 16.203V10.737C91.3785 9.24767 90.1699 8.03906 88.6806 8.03906C87.1913 8.03906 85.9826 9.24767 85.9826 10.737V16.203C47.9467 17.5987 17.2794 48.2661 15.8836 86.302H10.4176C8.92833 86.302 7.71973 87.5106 7.71973 88.9999C7.71973 90.4892 8.92833 91.6978 10.4176 91.6978H15.8836C17.2794 129.734 47.9467 160.401 85.9826 161.797V167.263C85.9826 168.752 87.1913 169.961 88.6806 169.961C90.1699 169.961 91.3785 168.752 91.3785 167.263V161.797C129.414 160.401 160.082 129.734 161.477 91.6978H166.943C168.433 91.6978 169.641 90.4892 169.641 88.9999C169.641 87.5106 168.433 86.302 166.943 86.302ZM139.957 91.6978H145.22C143.84 120.79 120.479 144.151 91.3863 145.531V140.268C91.3863 138.779 90.1777 137.57 88.6884 137.57C87.199 137.57 85.9904 138.779 85.9904 140.268V145.531C56.8982 144.151 33.5371 120.79 32.1569 91.6978H37.4202C38.9095 91.6978 40.1181 90.4892 40.1181 88.9999C40.1181 87.5106 38.9095 86.302 37.4202 86.302H32.1569C33.5371 57.2097 56.8982 33.8486 85.9904 32.4684V37.7317C85.9904 39.221 87.199 40.4296 88.6884 40.4296C90.1777 40.4296 91.3863 39.221 91.3863 37.7317V32.4684C120.479 33.8486 143.84 57.2097 145.22 86.302H139.957C138.467 86.302 137.259 87.5106 137.259 88.9999C137.259 90.4892 138.467 91.6978 139.957 91.6978Z" fill="#1D3366"/>
<path d="M116.665 77.4128C115.48 77.4128 114.513 78.3796 114.513 79.5649V83.869C114.513 85.0542 113.546 86.0211 112.361 86.0211H108.057V79.5649C108.057 78.3796 107.09 77.4128 105.905 77.4128H101.601V68.8044C101.601 64.8745 98.9419 61.584 95.3317 60.5547C96.1582 56.6638 99.6125 53.7319 103.753 53.7319C104.938 53.7319 105.905 52.765 105.905 51.5798C105.905 50.3946 104.938 49.4277 103.753 49.4277C97.3668 49.4277 92.0567 54.0906 91.0275 60.196H86.3334C85.3042 54.0984 80.0019 49.4277 73.608 49.4277C72.4228 49.4277 71.4559 50.3946 71.4559 51.5798C71.4559 52.765 72.4228 53.7319 73.608 53.7319C77.7406 53.7319 81.2027 56.6638 82.0292 60.5547C78.4268 61.584 75.7601 64.8745 75.7601 68.8044V77.4128H71.4559C70.2707 77.4128 69.3038 78.3796 69.3038 79.5649V86.0211H62.8787C62.8319 85.6157 62.8319 84.9451 62.8397 84.4616V79.5649C62.8397 78.3796 61.8728 77.4128 60.6876 77.4128C59.5024 77.4128 58.5355 78.3796 58.5355 79.5649V84.4305C58.5199 86.1381 58.5043 87.9159 59.7675 89.1869C60.5239 89.951 61.5531 90.3331 62.8397 90.3331H69.296V94.6373H60.6876C59.5024 94.6373 58.5355 95.6042 58.5355 96.7894C58.5355 97.9746 59.5024 98.9415 60.6876 98.9415H69.296V103.246H62.8397C61.5531 103.246 60.5239 103.628 59.7675 104.392C58.5043 105.671 58.5199 107.441 58.5277 109.148V114.014C58.5277 115.199 59.4946 116.166 60.6798 116.166C61.865 116.166 62.8319 115.199 62.8319 114.014V109.117C62.8319 108.634 62.8241 107.963 62.8709 107.558H69.296V109.71C69.296 115.644 74.1226 120.478 80.0565 120.478H97.281C103.215 120.478 108.041 115.651 108.041 109.71V107.558H112.346C113.531 107.558 114.498 108.525 114.498 109.71V114.014C114.498 115.199 115.465 116.166 116.65 116.166C117.835 116.166 118.802 115.199 118.802 114.014V109.71C118.802 106.146 115.901 103.253 112.346 103.253H108.041V98.9493H116.658C117.843 98.9493 118.81 97.9824 118.81 96.7972C118.81 95.612 117.843 94.6451 116.658 94.6451H108.041V90.3409H112.346C115.909 90.3409 118.802 87.4403 118.802 83.8846V79.5804C118.802 78.3952 117.843 77.4284 116.65 77.4284L116.665 77.4128ZM80.0643 68.8044C80.0643 66.4262 81.998 64.5002 84.3685 64.5002H92.9768C95.3551 64.5002 97.281 66.434 97.281 68.8044V77.4128H80.0565V68.8044H80.0643ZM82.2164 96.7894C82.2164 97.9746 81.2495 98.9415 80.0643 98.9415C78.8791 98.9415 77.9122 97.9746 77.9122 96.7894V88.181C77.9122 86.9958 78.8791 86.0289 80.0643 86.0289C81.2495 86.0289 82.2164 86.9958 82.2164 88.181V96.7894ZM99.4409 109.71C99.4409 110.895 98.474 111.862 97.2888 111.862C96.1036 111.862 95.1367 110.895 95.1367 109.71V101.101C95.1367 99.9162 96.1036 98.9493 97.2888 98.9493C98.474 98.9493 99.4409 99.9162 99.4409 101.101V109.71Z" fill="#1D3366"/>
</g>
<g clip-path="url(#clip1_721_4281)">
<path d="M201.742 61.4301C206.159 53.4203 212.337 47.1706 220.239 42.7167C228.141 38.2628 237.121 36 247.142 36C259.426 36 269.95 39.2326 278.678 45.7338C287.407 52.235 293.261 61.0709 296.207 72.2774H268.514C266.466 67.9672 263.521 64.6627 259.75 62.3999C255.978 60.1371 251.668 59.0236 246.855 59.0236C239.097 59.0236 232.811 61.7175 227.998 67.1411C223.185 72.5288 220.778 79.7843 220.778 88.7998C220.778 97.8153 223.185 105.071 227.998 110.458C232.811 115.846 239.097 118.576 246.855 118.576C251.668 118.576 255.978 117.463 259.75 115.2C263.521 112.937 266.466 109.668 268.514 105.322H296.207C293.261 116.529 287.407 125.329 278.678 131.758C269.95 138.187 259.426 141.42 247.142 141.42C237.121 141.42 228.141 139.193 220.239 134.703C212.337 130.249 206.159 124.036 201.742 116.062C197.324 108.088 195.097 99.0006 195.097 88.7998C195.097 78.599 197.324 69.4758 201.742 61.466V61.4301Z" fill="#1D3366"/>
<path d="M388.732 96.4866C392.36 101.156 394.191 106.472 394.191 112.47C394.191 121.126 391.174 127.987 385.14 133.015C379.106 138.08 370.665 140.594 359.854 140.594H311.651V37.1855H358.201C368.725 37.1855 376.951 39.5921 382.877 44.4051C388.84 49.2182 391.785 55.7553 391.785 64.0165C391.785 70.1226 390.205 75.1511 387.008 79.2099C383.811 83.2327 379.573 86.0343 374.257 87.6147C380.255 88.9078 385.068 91.8531 388.696 96.5225L388.732 96.4866ZM336.866 79.0303H353.388C357.519 79.0303 360.68 78.1323 362.907 76.3005C365.134 74.4687 366.211 71.8107 366.211 68.2548C366.211 64.6989 365.098 62.005 362.907 60.1373C360.68 58.2696 357.519 57.3357 353.388 57.3357H336.866V78.9944V79.0303ZM365.241 117.427C367.54 115.523 368.69 112.722 368.69 109.094C368.69 105.466 367.504 102.629 365.098 100.545C362.691 98.498 359.387 97.4563 355.148 97.4563H336.866V120.3H355.436C359.674 120.3 362.907 119.331 365.241 117.427Z" fill="#1D3366"/>
<path d="M476.121 43.6508C484.275 47.961 490.596 54.0312 495.05 61.8614C499.504 69.6915 501.767 78.6711 501.767 88.9078C501.767 99.1445 499.54 108.016 495.05 115.882C490.56 123.748 484.239 129.819 476.049 134.165C467.86 138.475 458.342 140.666 447.53 140.666H408.774V37.1855H447.53C458.449 37.1855 467.968 39.3406 476.121 43.6508ZM468.183 110.998C473.499 105.789 476.157 98.4261 476.157 88.9078C476.157 79.3895 473.499 71.9544 468.183 66.6385C462.867 61.3226 455.468 58.7006 445.914 58.7006H433.989V118.828H445.914C455.432 118.828 462.867 116.242 468.183 111.033V110.998Z" fill="#1D3366"/>
<path d="M541.097 57.3716V78.3119H574.86V97.7796H541.097V120.48H579.278V140.666H515.918V37.1855H579.278V57.3716H541.097Z" fill="#1D3366"/>
<path d="M672.702 96.4866C676.329 101.156 678.161 106.472 678.161 112.47C678.161 121.126 675.144 127.987 669.11 133.015C663.076 138.08 654.635 140.594 643.823 140.594H595.621V37.1855H642.171C652.695 37.1855 660.92 39.5921 666.847 44.4051C672.809 49.2182 675.755 55.7553 675.755 64.0165C675.755 70.1226 674.174 75.1511 670.978 79.2099C667.781 83.2327 663.542 86.0343 658.227 87.6147C664.225 88.9078 669.038 91.8531 672.666 96.5225L672.702 96.4866ZM620.836 79.0303H637.358C641.489 79.0303 644.649 78.1323 646.876 76.3005C649.103 74.4687 650.181 71.8107 650.181 68.2548C650.181 64.6989 649.067 62.005 646.876 60.1373C644.649 58.2696 641.489 57.3357 637.358 57.3357H620.836V78.9944V79.0303ZM649.211 117.427C651.51 115.523 652.659 112.722 652.659 109.094C652.659 105.466 651.474 102.629 649.067 100.545C646.661 98.498 643.356 97.4563 639.118 97.4563H620.836V120.3H639.405C643.644 120.3 646.876 119.331 649.211 117.427Z" fill="#1D3366"/>
<path d="M717.491 37.1855V99.0727C717.491 105.251 719 110.028 722.053 113.368C725.106 116.709 729.56 118.361 735.45 118.361C741.341 118.361 745.867 116.709 749.027 113.368C752.188 110.028 753.733 105.251 753.733 99.0727V37.1855H778.947V98.929C778.947 108.16 776.972 115.99 773.057 122.348C769.142 128.741 763.862 133.554 757.217 136.787C750.572 140.019 743.209 141.636 735.055 141.636C726.902 141.636 719.61 140.055 713.181 136.859C706.752 133.662 701.651 128.849 697.916 122.42C694.18 115.99 692.312 108.16 692.312 98.929V37.1855H717.527H717.491Z" fill="#1D3366"/>
<path d="M865.331 69.9076C863.464 66.4594 860.77 63.8374 857.286 62.0056C853.802 60.1737 849.707 59.2758 844.966 59.2758C836.812 59.2758 830.275 61.9696 825.354 67.3215C820.434 72.6733 817.991 79.821 817.991 88.7647C817.991 98.283 820.577 105.754 825.714 111.106C830.886 116.458 837.962 119.151 847.013 119.151C853.191 119.151 858.435 117.571 862.709 114.446C866.984 111.285 870.108 106.796 872.048 100.869H840.081V82.2994H894.892V105.718C893.024 112.004 889.863 117.858 885.374 123.246C880.884 128.634 875.209 133.016 868.348 136.356C861.452 139.697 853.694 141.349 845.073 141.349C834.873 141.349 825.749 139.122 817.74 134.632C809.73 130.178 803.48 123.965 799.026 115.991C794.536 108.017 792.31 98.9295 792.31 88.7287C792.31 78.528 794.536 69.4047 799.026 61.395C803.48 53.3852 809.694 47.1354 817.668 42.6816C825.642 38.2277 834.729 35.9648 844.93 35.9648C857.322 35.9648 867.738 38.9461 876.25 44.9444C884.763 50.9427 890.366 59.2399 893.132 69.8357H865.295L865.331 69.9076Z" fill="#1D3366"/>
<path d="M977.612 69.9076C975.744 66.4594 973.05 63.8374 969.566 62.0056C966.082 60.1737 961.987 59.2758 957.246 59.2758C949.093 59.2758 942.555 61.9696 937.635 67.3215C932.714 72.6733 930.271 79.821 930.271 88.7647C930.271 98.283 932.858 105.754 937.994 111.106C943.166 116.458 950.242 119.151 959.293 119.151C965.471 119.151 970.715 117.571 974.99 114.446C979.264 111.285 982.389 106.796 984.328 100.869H952.361V82.2994H1007.17V105.718C1005.3 112.004 1002.14 117.858 997.654 123.246C993.164 128.634 987.489 133.016 980.629 136.356C973.732 139.697 965.974 141.349 957.354 141.349C947.153 141.349 938.03 139.122 930.02 134.632C922.01 130.178 915.76 123.965 911.307 115.991C906.817 108.017 904.59 98.9295 904.59 88.7287C904.59 78.528 906.817 69.4047 911.307 61.395C915.76 53.3852 921.974 47.1354 929.948 42.6816C937.922 38.2277 947.009 35.9648 957.21 35.9648C969.602 35.9648 980.018 38.9461 988.531 44.9444C997.043 50.9427 1002.65 59.2399 1005.41 69.8357H977.576L977.612 69.9076Z" fill="#1D3366"/>
<path d="M1046.43 57.3716V78.3119H1080.19V97.7796H1046.43V120.48H1084.61V140.666H1021.25V37.1855H1084.61V57.3716H1046.43Z" fill="#1D3366"/>
<path d="M1153.72 140.63L1132.2 101.587H1126.17V140.63H1100.95V37.1855H1143.23C1151.38 37.1855 1158.35 38.6223 1164.1 41.4598C1169.85 44.2974 1174.16 48.2124 1176.99 53.1692C1179.83 58.1259 1181.27 63.6573 1181.27 69.7634C1181.27 76.6238 1179.33 82.7658 1175.45 88.1894C1171.57 93.5772 1165.86 97.4204 1158.28 99.6833L1182.17 140.666H1153.72V140.63ZM1126.13 83.7356H1141.76C1146.39 83.7356 1149.84 82.6221 1152.14 80.3593C1154.44 78.0964 1155.59 74.8997 1155.59 70.7691C1155.59 66.6385 1154.44 63.7291 1152.14 61.5022C1149.84 59.2393 1146.35 58.1259 1141.76 58.1259H1126.13V83.7715V83.7356Z" fill="#1D3366"/>
</g>
<defs>
<clipPath id="clip0_721_4281">
<rect width="177.361" height="178" fill="white"/>
</clipPath>
<clipPath id="clip1_721_4281">
<rect width="987.069" height="105.671" fill="white" transform="translate(195.097 36)"/>
</clipPath>
</defs>
</svg>
