<svg width="1183" height="178" viewBox="0 0 1183 178" fill="none" xmlns="http://www.w3.org/2000/svg">
<g clip-path="url(#clip0_721_4395)">
<g opacity="0.23">
<path d="M105.702 168.401C62.902 168.401 28.2111 133.711 28.2111 90.9104C28.2111 48.118 62.902 13.4194 105.702 13.4194C127.285 13.4194 146.795 22.2539 160.846 36.492C144.658 14.3707 118.513 0 89.0078 0C39.8527 0 0 39.8449 0 89C0 138.155 39.8527 178 89 178C111.176 178 131.449 169.867 147.036 156.44C135.067 164.004 120.899 168.401 105.702 168.401Z" fill="url(#paint0_linear_721_4395)"/>
<path d="M132.346 25.8789C150.974 36.7875 163.504 57.0063 163.504 80.1491C163.504 114.863 135.356 143.012 100.641 143.012C68.3444 143.012 41.7473 118.653 38.1995 87.2993C38.1371 88.5313 38.0981 89.7711 38.0981 91.0109C38.0981 129.468 69.2723 160.642 107.729 160.642C146.186 160.642 177.36 129.468 177.36 91.0109C177.36 61.2247 158.647 35.8206 132.346 25.8711" fill="url(#paint1_linear_721_4395)"/>
<path d="M98.7702 30.6992C75.4013 30.6992 55.666 46.2473 49.3345 67.5499C56.4223 51.7445 72.2823 40.7345 90.7311 40.7345C115.784 40.7345 136.089 61.0391 136.089 86.0922C136.089 111.145 115.784 131.45 90.7311 131.45C86.6374 131.45 82.6685 130.896 78.8946 129.883C85.0078 132.44 91.7214 133.859 98.7702 133.859C127.254 133.859 150.343 110.763 150.35 82.2715C150.35 53.7874 127.262 30.6914 98.7702 30.6914" fill="url(#paint2_linear_721_4395)"/>
</g>
<path d="M166.943 86.302H161.477C160.081 48.2661 129.414 17.5987 91.378 16.203V10.737C91.378 9.24767 90.1694 8.03906 88.6801 8.03906C87.1908 8.03906 85.9822 9.24767 85.9822 10.737V16.203C47.9462 17.5987 17.2789 48.2661 15.8832 86.302H10.4172C8.92784 86.302 7.71924 87.5106 7.71924 88.9999C7.71924 90.4892 8.92784 91.6978 10.4172 91.6978H15.8832C17.2789 129.734 47.9462 160.401 85.9822 161.797V167.263C85.9822 168.752 87.1908 169.961 88.6801 169.961C90.1694 169.961 91.378 168.752 91.378 167.263V161.797C129.414 160.401 160.081 129.734 161.477 91.6978H166.943C168.432 91.6978 169.641 90.4892 169.641 88.9999C169.641 87.5106 168.432 86.302 166.943 86.302ZM139.956 91.6978H145.219C143.839 120.79 120.478 144.151 91.3858 145.531V140.268C91.3858 138.779 90.1772 137.57 88.6879 137.57C87.1986 137.57 85.99 138.779 85.99 140.268V145.531C56.8977 144.151 33.5366 120.79 32.1564 91.6978H37.4197C38.909 91.6978 40.1176 90.4892 40.1176 88.9999C40.1176 87.5106 38.909 86.302 37.4197 86.302H32.1564C33.5366 57.2097 56.8977 33.8486 85.99 32.4684V37.7317C85.99 39.221 87.1986 40.4296 88.6879 40.4296C90.1772 40.4296 91.3858 39.221 91.3858 37.7317V32.4684C120.478 33.8486 143.839 57.2097 145.219 86.302H139.956C138.467 86.302 137.258 87.5106 137.258 88.9999C137.258 90.4892 138.467 91.6978 139.956 91.6978Z" fill="url(#paint3_linear_721_4395)"/>
<path d="M116.665 77.4128C115.48 77.4128 114.513 78.3796 114.513 79.5649V83.869C114.513 85.0542 113.546 86.0211 112.361 86.0211H108.057V79.5649C108.057 78.3796 107.09 77.4128 105.905 77.4128H101.601V68.8044C101.601 64.8745 98.9419 61.584 95.3317 60.5547C96.1582 56.6638 99.6125 53.7319 103.753 53.7319C104.938 53.7319 105.905 52.765 105.905 51.5798C105.905 50.3946 104.938 49.4277 103.753 49.4277C97.3668 49.4277 92.0567 54.0906 91.0275 60.196H86.3334C85.3042 54.0984 80.0019 49.4277 73.608 49.4277C72.4228 49.4277 71.4559 50.3946 71.4559 51.5798C71.4559 52.765 72.4228 53.7319 73.608 53.7319C77.7406 53.7319 81.2027 56.6638 82.0292 60.5547C78.4268 61.584 75.7601 64.8745 75.7601 68.8044V77.4128H71.4559C70.2707 77.4128 69.3038 78.3796 69.3038 79.5649V86.0211H62.8787C62.8319 85.6157 62.8319 84.9451 62.8397 84.4616V79.5649C62.8397 78.3796 61.8728 77.4128 60.6876 77.4128C59.5024 77.4128 58.5355 78.3796 58.5355 79.5649V84.4305C58.5199 86.1381 58.5043 87.9159 59.7675 89.1869C60.5239 89.951 61.5531 90.3331 62.8397 90.3331H69.296V94.6373H60.6876C59.5024 94.6373 58.5355 95.6042 58.5355 96.7894C58.5355 97.9746 59.5024 98.9415 60.6876 98.9415H69.296V103.246H62.8397C61.5531 103.246 60.5239 103.628 59.7675 104.392C58.5043 105.671 58.5199 107.441 58.5277 109.148V114.014C58.5277 115.199 59.4946 116.166 60.6798 116.166C61.865 116.166 62.8319 115.199 62.8319 114.014V109.117C62.8319 108.634 62.8241 107.963 62.8709 107.558H69.296V109.71C69.296 115.644 74.1226 120.478 80.0565 120.478H97.281C103.215 120.478 108.041 115.651 108.041 109.71V107.558H112.346C113.531 107.558 114.498 108.525 114.498 109.71V114.014C114.498 115.199 115.465 116.166 116.65 116.166C117.835 116.166 118.802 115.199 118.802 114.014V109.71C118.802 106.146 115.901 103.253 112.346 103.253H108.041V98.9493H116.658C117.843 98.9493 118.81 97.9824 118.81 96.7972C118.81 95.612 117.843 94.6451 116.658 94.6451H108.041V90.3409H112.346C115.909 90.3409 118.802 87.4403 118.802 83.8846V79.5804C118.802 78.3952 117.843 77.4284 116.65 77.4284L116.665 77.4128ZM80.0643 68.8044C80.0643 66.4262 81.998 64.5002 84.3685 64.5002H92.9768C95.3551 64.5002 97.281 66.434 97.281 68.8044V77.4128H80.0565V68.8044H80.0643ZM82.2164 96.7894C82.2164 97.9746 81.2495 98.9415 80.0643 98.9415C78.8791 98.9415 77.9122 97.9746 77.9122 96.7894V88.181C77.9122 86.9958 78.8791 86.0289 80.0643 86.0289C81.2495 86.0289 82.2164 86.9958 82.2164 88.181V96.7894ZM99.4409 109.71C99.4409 110.895 98.474 111.862 97.2888 111.862C96.1036 111.862 95.1367 110.895 95.1367 109.71V101.101C95.1367 99.9162 96.1036 98.9493 97.2888 98.9493C98.474 98.9493 99.4409 99.9162 99.4409 101.101V109.71Z" fill="url(#paint4_linear_721_4395)"/>
</g>
<g clip-path="url(#clip1_721_4395)">
<path d="M201.742 51.2875C206.159 43.2778 212.337 37.028 220.239 32.5741C228.141 28.1203 237.121 25.8574 247.142 25.8574C259.426 25.8574 269.95 29.0901 278.678 35.5913C287.407 42.0925 293.261 50.9284 296.207 62.1348H268.514C266.466 57.8247 263.521 54.5202 259.75 52.2573C255.978 49.9945 251.668 48.881 246.855 48.881C239.097 48.881 232.811 51.5749 227.998 56.9985C223.185 62.3863 220.778 69.6417 220.778 78.6572C220.778 87.6727 223.185 94.9282 227.998 100.316C232.811 105.704 239.097 108.433 246.855 108.433C251.668 108.433 255.978 107.32 259.75 105.057C263.521 102.794 266.466 99.5257 268.514 95.1796H296.207C293.261 106.386 287.407 115.186 278.678 121.615C269.95 128.045 259.426 131.277 247.142 131.277C237.121 131.277 228.141 129.051 220.239 124.561C212.337 120.107 206.159 113.893 201.742 105.919C197.324 97.9453 195.097 88.858 195.097 78.6572C195.097 68.4564 197.324 59.3332 201.742 51.3234V51.2875Z" fill="white"/>
<path d="M388.732 86.344C392.36 91.0133 394.191 96.3292 394.191 102.328C394.191 110.984 391.174 117.844 385.14 122.873C379.106 127.937 370.665 130.452 359.854 130.452H311.651V27.043H358.201C368.725 27.043 376.951 29.4495 382.877 34.2625C388.84 39.0756 391.785 45.6127 391.785 53.8739C391.785 59.98 390.205 65.0085 387.008 69.0673C383.811 73.0901 379.573 75.8918 374.257 77.4722C380.255 78.7652 385.068 81.7105 388.696 86.3799L388.732 86.344ZM336.866 68.8877H353.388C357.519 68.8877 360.68 67.9898 362.907 66.1579C365.134 64.3261 366.211 61.6681 366.211 58.1122C366.211 54.5563 365.098 51.8625 362.907 49.9947C360.68 48.127 357.519 47.1931 353.388 47.1931H336.866V68.8518V68.8877ZM365.241 107.284C367.54 105.381 368.69 102.579 368.69 98.9513C368.69 95.3235 367.504 92.486 365.098 90.4027C362.691 88.3554 359.387 87.3138 355.148 87.3138H336.866V110.158H355.436C359.674 110.158 362.907 109.188 365.241 107.284Z" fill="white"/>
<path d="M476.121 33.5083C484.275 37.8184 490.596 43.8886 495.05 51.7188C499.504 59.549 501.767 68.5285 501.767 78.7652C501.767 89.0019 499.54 97.8737 495.05 105.74C490.56 113.606 484.239 119.676 476.049 124.022C467.86 128.332 458.342 130.523 447.53 130.523H408.774V27.043H447.53C458.449 27.043 467.968 29.1981 476.121 33.5083ZM468.183 100.855C473.499 95.6468 476.157 88.2836 476.157 78.7652C476.157 69.2469 473.499 61.8118 468.183 56.4959C462.867 51.18 455.468 48.558 445.914 48.558H433.989V108.685H445.914C455.432 108.685 462.867 106.099 468.183 100.891V100.855Z" fill="white"/>
<path d="M541.097 47.229V68.1693H574.86V87.637H541.097V110.337H579.278V130.523H515.918V27.043H579.278V47.229H541.097Z" fill="white"/>
<path d="M672.702 86.344C676.329 91.0133 678.161 96.3292 678.161 102.328C678.161 110.984 675.144 117.844 669.11 122.873C663.076 127.937 654.635 130.452 643.823 130.452H595.621V27.043H642.171C652.695 27.043 660.92 29.4495 666.847 34.2625C672.809 39.0756 675.755 45.6127 675.755 53.8739C675.755 59.98 674.174 65.0085 670.978 69.0673C667.781 73.0901 663.542 75.8918 658.227 77.4722C664.225 78.7652 669.038 81.7105 672.666 86.3799L672.702 86.344ZM620.836 68.8877H637.358C641.489 68.8877 644.649 67.9898 646.876 66.1579C649.103 64.3261 650.181 61.6681 650.181 58.1122C650.181 54.5563 649.067 51.8625 646.876 49.9947C644.649 48.127 641.489 47.1931 637.358 47.1931H620.836V68.8518V68.8877ZM649.211 107.284C651.51 105.381 652.659 102.579 652.659 98.9513C652.659 95.3235 651.474 92.486 649.067 90.4027C646.661 88.3554 643.356 87.3138 639.118 87.3138H620.836V110.158H639.405C643.644 110.158 646.876 109.188 649.211 107.284Z" fill="white"/>
<path d="M717.492 27.043V88.9301C717.492 95.108 719 99.8852 722.053 103.226C725.106 106.566 729.56 108.218 735.451 108.218C741.341 108.218 745.867 106.566 749.028 103.226C752.189 99.8852 753.733 95.108 753.733 88.9301V27.043H778.948V88.7864C778.948 98.0174 776.972 105.848 773.057 112.205C769.142 118.599 763.862 123.412 757.217 126.644C750.572 129.877 743.209 131.493 735.056 131.493C726.902 131.493 719.611 129.913 713.182 126.716C706.752 123.519 701.652 118.706 697.916 112.277C694.181 105.848 692.313 98.0174 692.313 88.7864V27.043H717.528H717.492Z" fill="white"/>
<path d="M865.331 59.765C863.463 56.3168 860.769 53.6948 857.285 51.863C853.801 50.0312 849.706 49.1332 844.965 49.1332C836.812 49.1332 830.275 51.8271 825.354 57.1789C820.433 62.5307 817.991 69.6784 817.991 78.6221C817.991 88.1404 820.577 95.6114 825.713 100.963C830.885 106.315 837.961 109.009 847.013 109.009C853.19 109.009 858.435 107.429 862.709 104.304C866.983 101.143 870.108 96.653 872.048 90.7265H840.08V72.1568H894.892V95.5755C893.024 101.861 889.863 107.716 885.373 113.104C880.883 118.491 875.208 122.873 868.348 126.214C861.452 129.554 853.693 131.206 845.073 131.206C834.872 131.206 825.749 128.979 817.739 124.49C809.729 120.036 803.48 113.822 799.026 105.848C794.536 97.8743 792.309 88.7869 792.309 78.5862C792.309 68.3854 794.536 59.2621 799.026 51.2524C803.48 43.2426 809.693 36.9928 817.667 32.539C825.641 28.0851 834.728 25.8223 844.929 25.8223C857.321 25.8223 867.737 28.8035 876.25 34.8018C884.763 40.8002 890.366 49.0973 893.132 59.6932H865.295L865.331 59.765Z" fill="white"/>
<path d="M977.612 59.765C975.744 56.3168 973.05 53.6948 969.566 51.863C966.082 50.0312 961.987 49.1332 957.246 49.1332C949.093 49.1332 942.555 51.8271 937.635 57.1789C932.714 62.5307 930.271 69.6784 930.271 78.6221C930.271 88.1404 932.858 95.6114 937.994 100.963C943.166 106.315 950.242 109.009 959.293 109.009C965.471 109.009 970.715 107.429 974.99 104.304C979.264 101.143 982.389 96.653 984.328 90.7265H952.361V72.1568H1007.17V95.5755C1005.3 101.861 1002.14 107.716 997.654 113.104C993.164 118.491 987.489 122.873 980.629 126.214C973.732 129.554 965.974 131.206 957.354 131.206C947.153 131.206 938.03 128.979 930.02 124.49C922.01 120.036 915.76 113.822 911.307 105.848C906.817 97.8743 904.59 88.7869 904.59 78.5862C904.59 68.3854 906.817 59.2621 911.307 51.2524C915.76 43.2426 921.974 36.9928 929.948 32.539C937.922 28.0851 947.009 25.8223 957.21 25.8223C969.602 25.8223 980.018 28.8035 988.531 34.8018C997.043 40.8002 1002.65 49.0973 1005.41 59.6932H977.576L977.612 59.765Z" fill="white"/>
<path d="M1046.43 47.229V68.1693H1080.19V87.637H1046.43V110.337H1084.61V130.523H1021.25V27.043H1084.61V47.229H1046.43Z" fill="white"/>
<path d="M1153.72 130.487L1132.2 91.4444H1126.17V130.487H1100.95V27.043H1143.23C1151.38 27.043 1158.35 28.4797 1164.1 31.3172C1169.85 34.1548 1174.16 38.0699 1176.99 43.0266C1179.83 47.9833 1181.27 53.5147 1181.27 59.6208C1181.27 66.4812 1179.33 72.6232 1175.45 78.0469C1171.57 83.4346 1165.86 87.2778 1158.28 89.5407L1182.17 130.523H1153.72V130.487ZM1126.13 73.593H1141.76C1146.39 73.593 1149.84 72.4795 1152.14 70.2167C1154.44 67.9538 1155.59 64.7571 1155.59 60.6265C1155.59 56.4959 1154.44 53.5865 1152.14 51.3596C1149.84 49.0968 1146.35 47.9833 1141.76 47.9833H1126.13V73.6289V73.593Z" fill="white"/>
</g>
<defs>
<linearGradient id="paint0_linear_721_4395" x1="127.586" y1="41.8795" x2="17.4708" y2="158.878" gradientUnits="userSpaceOnUse">
<stop offset="0.278846" stop-color="#33CFFF"/>
<stop offset="1" stop-color="#0D87C5"/>
</linearGradient>
<linearGradient id="paint1_linear_721_4395" x1="148.564" y1="57.5797" x2="66.5972" y2="157.17" gradientUnits="userSpaceOnUse">
<stop offset="0.278846" stop-color="#33CFFF"/>
<stop offset="1" stop-color="#0D87C5"/>
</linearGradient>
<linearGradient id="paint2_linear_721_4395" x1="129.462" y1="54.9645" x2="66.1521" y2="127.854" gradientUnits="userSpaceOnUse">
<stop offset="0.278846" stop-color="#33CFFF"/>
<stop offset="1" stop-color="#0D87C5"/>
</linearGradient>
<linearGradient id="paint3_linear_721_4395" x1="136.159" y1="46.1356" x2="37.108" y2="162.602" gradientUnits="userSpaceOnUse">
<stop offset="0.278846" stop-color="#33CFFF"/>
<stop offset="1" stop-color="#0D87C5"/>
</linearGradient>
<linearGradient id="paint4_linear_721_4395" x1="106.344" y1="66.1443" x2="62.3102" y2="110.075" gradientUnits="userSpaceOnUse">
<stop offset="0.278846" stop-color="#33CFFF"/>
<stop offset="1" stop-color="#0D87C5"/>
</linearGradient>
<clipPath id="clip0_721_4395">
<rect width="177.361" height="178" fill="white"/>
</clipPath>
<clipPath id="clip1_721_4395">
<rect width="987.069" height="105.671" fill="white" transform="translate(195.097 25.8574)"/>
</clipPath>
</defs>
</svg>
