<svg width="355" height="50" viewBox="0 0 355 50" fill="none" xmlns="http://www.w3.org/2000/svg">
<path d="M7.44956 50C6.71404 50 5.99416 49.8513 5.31341 49.554C4.62484 49.2566 4.02233 48.8185 3.51372 48.2707C3.00512 47.7152 2.62953 47.0735 2.38696 46.3615C2.1444 45.6494 2.05833 44.9139 2.12875 44.1627L5.04737 12.0188C5.17257 10.6807 5.7829 9.44444 6.77664 8.53678C7.77038 7.62911 9.09275 7.1205 10.4073 7.14397H16.1976C16.5106 4.84351 17.4261 3.05947 18.9128 1.84664C20.4073 0.625978 22.4574 0 25.0004 0C27.5435 0 29.5935 0.618153 31.0881 1.84664C32.5748 3.05947 33.4903 4.84351 33.8032 7.14397H39.6014C40.9316 7.14397 42.2148 7.63693 43.2007 8.53678C44.1945 9.44444 44.8126 10.6807 44.93 12.0188L47.8721 44.1627C47.9425 44.9139 47.8486 45.6494 47.6139 46.3615C47.3713 47.0735 46.9957 47.7152 46.4871 48.2707C45.9785 48.8263 45.376 49.2566 44.6874 49.554C44.0067 49.8513 43.2868 50 42.5435 50H7.44956ZM10.3917 10.2739C9.82828 10.2739 9.2962 10.4773 8.88931 10.8529C8.4746 11.2285 8.22421 11.7449 8.16944 12.3005L5.24299 44.4444C5.21169 44.7496 5.25081 45.0626 5.35254 45.3599C5.45426 45.6573 5.61075 45.9233 5.82202 46.1502C6.03329 46.3771 6.28368 46.5571 6.57319 46.6823C6.86271 46.8075 7.18352 46.8466 7.47304 46.8701H42.5278C42.8095 46.8701 43.146 46.8075 43.4355 46.6823C43.725 46.5571 43.9754 46.3771 44.1867 46.1502C44.3979 45.9233 44.5544 45.6573 44.6561 45.3599C44.7579 45.0626 44.797 44.7574 44.7657 44.4444L41.8236 12.3005C41.7688 11.7371 41.5184 11.2285 41.1037 10.8529C40.689 10.4773 40.1726 10.2426 39.5935 10.2739H10.3917ZM19.8126 7.14397H30.1726C29.93 5.89984 29.4057 5.01565 28.5607 4.43662C27.7156 3.85759 26.5497 3.5759 24.9926 3.5759C23.4355 3.5759 22.2696 3.85759 21.4245 4.43662C20.5873 5.01565 20.0552 5.89984 19.8126 7.14397Z" fill="url(#paint0_linear_723_5667)"/>
<path d="M26.8873 38.5475C22.1429 38.5475 18.2964 34.7143 18.2964 29.9866C18.2964 25.2588 22.1429 21.4257 26.8873 21.4257C29.2798 21.4257 31.4431 22.4012 32.9999 23.974C31.2043 21.5304 28.308 19.9434 25.0345 19.9434C19.5857 19.9434 15.1685 24.3451 15.1685 29.7748C15.1685 35.2045 19.5857 39.6063 25.0345 39.6063C27.4938 39.6063 29.7406 38.7069 31.4669 37.2246C30.1394 38.0597 28.5707 38.5451 26.8849 38.5451L26.8873 38.5475Z" fill="url(#paint1_linear_723_5667)"/>
<path d="M29.8411 22.8058C31.9064 24.0098 33.2937 26.244 33.2937 28.8018C33.2937 32.6373 30.173 35.7447 26.3264 35.7447C22.7472 35.7447 19.7984 33.0537 19.4044 29.5917C19.3972 29.7273 19.3925 29.8653 19.3925 30.0033C19.3925 34.2505 22.8475 37.6958 27.1119 37.6958C31.3764 37.6958 34.8314 34.2528 34.8314 30.0033C34.8314 26.7127 32.7565 23.9074 29.8411 22.8082V22.8058Z" fill="url(#paint2_linear_723_5667)"/>
<path d="M26.1186 23.3364C23.5279 23.3364 21.3408 25.0542 20.6388 27.4074C21.4243 25.661 23.1817 24.4451 25.228 24.4451C28.0049 24.4451 30.2565 26.6889 30.2565 29.456C30.2565 32.2232 28.0049 34.4669 25.228 34.4669C24.7743 34.4669 24.335 34.4051 23.9171 34.2932C24.5952 34.5764 25.3402 34.731 26.121 34.731C29.2775 34.731 31.8395 32.1804 31.8395 29.0325C31.8395 25.8846 29.2799 23.334 26.121 23.334L26.1186 23.3364Z" fill="url(#paint3_linear_723_5667)"/>
<g clip-path="url(#clip0_723_5667)">
<path d="M56.867 17.3429C58.1091 15.091 59.846 13.3339 62.0676 12.0817C64.2892 10.8194 66.8036 10.1934 69.621 10.1934C73.0746 10.1934 76.0232 11.1022 78.4872 12.93C80.941 14.7577 82.587 17.2419 83.4151 20.3925H75.6294C75.0538 19.1807 74.2257 18.2517 73.1654 17.6155C72.1051 16.9793 70.8934 16.6663 69.5402 16.6663C67.359 16.6663 65.5918 17.4237 64.2387 18.9485C62.8855 20.4632 62.2089 22.503 62.2089 25.0377C62.2089 27.5723 62.8855 29.6122 64.2387 31.1269C65.5918 32.6416 67.359 33.4091 69.5402 33.4091C70.8934 33.4091 72.1051 33.096 73.1654 32.4598C74.2257 31.8237 75.0538 30.9047 75.6294 29.6828H83.4151C82.587 32.8335 80.941 35.3075 78.4872 37.1151C76.0232 38.9227 73.0746 39.8315 69.621 39.8315C66.8036 39.8315 64.2791 39.2054 62.0575 37.9432C59.8359 36.691 58.099 34.944 56.8569 32.7022C55.6149 30.4604 54.9888 27.9056 54.9888 25.0377C54.9888 22.1698 55.6149 19.6049 56.8569 17.353L56.867 17.3429Z" fill="#1D3366"/>
<path d="M109.438 27.1994C110.458 28.5122 110.973 30.0067 110.973 31.6931C110.973 34.1268 110.125 36.0555 108.428 37.4693C106.732 38.8931 104.359 39.6 101.319 39.6H87.7676V10.5273H100.855C103.814 10.5273 106.126 11.2039 107.792 12.5571C109.458 13.9102 110.297 15.7481 110.297 18.0707C110.297 19.7874 109.842 21.2011 108.953 22.3422C108.055 23.4732 106.863 24.2609 105.369 24.7052C107.055 25.0687 108.408 25.8968 109.428 27.2095L109.438 27.1994ZM94.8565 22.2917H99.4915C100.653 22.2917 101.541 22.0393 102.168 21.5243C102.794 21.0093 103.097 20.262 103.097 19.2623C103.097 18.2625 102.784 17.5052 102.168 16.9801C101.552 16.455 100.653 16.1924 99.4915 16.1924H94.8565V22.2816V22.2917ZM102.834 33.0867C103.48 32.5515 103.803 31.7638 103.803 30.7439C103.803 29.724 103.46 28.9262 102.784 28.3405C102.107 27.7649 101.178 27.4721 99.9863 27.4721H94.8464V33.8945H100.067C101.249 33.8945 102.168 33.6219 102.824 33.0867H102.834Z" fill="#1D3366"/>
<path d="M115.739 17.3429C116.981 15.091 118.718 13.3339 120.94 12.0817C123.161 10.8295 125.686 10.1934 128.503 10.1934C131.957 10.1934 134.916 11.1022 137.369 12.93C139.823 14.7577 141.469 17.2419 142.297 20.3925H134.512C133.936 19.1807 133.108 18.2517 132.048 17.6155C130.987 16.9793 129.776 16.6663 128.423 16.6663C126.241 16.6663 124.474 17.4237 123.121 18.9485C121.768 20.4632 121.091 22.503 121.091 25.0377C121.091 27.5723 121.768 29.6122 123.121 31.1269C124.474 32.6416 126.241 33.4091 128.423 33.4091C129.776 33.4091 130.987 33.096 132.048 32.4598C133.108 31.8237 133.936 30.9047 134.512 29.6828H142.297C141.469 32.8335 139.823 35.3075 137.369 37.1151C134.916 38.9227 131.957 39.8315 128.503 39.8315C125.686 39.8315 123.161 39.2054 120.94 37.9432C118.718 36.691 116.981 34.944 115.739 32.7022C114.497 30.4604 113.871 27.9056 113.871 25.0377C113.871 22.1698 114.497 19.6049 115.739 17.353V17.3429Z" fill="#1D3366"/>
<path d="M152.88 37.9944C150.598 36.722 148.791 34.9548 147.448 32.6726C146.104 30.3904 145.438 27.8356 145.438 24.9879C145.438 22.1402 146.104 19.5854 147.448 17.3234C148.791 15.0614 150.598 13.2942 152.88 12.0218C155.163 10.7495 157.667 10.1133 160.403 10.1133C163.14 10.1133 165.644 10.7495 167.927 12.0218C170.209 13.2942 171.996 15.0614 173.309 17.3234C174.622 19.5854 175.278 22.1402 175.278 24.9879C175.278 27.8356 174.612 30.3904 173.289 32.6726C171.966 34.9548 170.168 36.722 167.906 37.9944C165.644 39.2667 163.14 39.9029 160.403 39.9029C157.667 39.9029 155.163 39.2667 152.88 37.9944ZM165.968 31.1175C167.361 29.5725 168.058 27.5326 168.058 24.9879C168.058 22.4432 167.361 20.373 165.968 18.8381C164.574 17.3032 162.716 16.5357 160.393 16.5357C158.071 16.5357 156.172 17.2931 154.779 18.8179C153.385 20.3326 152.688 22.3927 152.688 24.9879C152.688 27.5831 153.385 29.6129 154.779 31.1377C156.172 32.6726 158.04 33.4401 160.393 33.4401C162.746 33.4401 164.574 32.6625 165.968 31.1175Z" fill="#1D3366"/>
<path d="M212.146 10.5273V39.6101H205.057V22.1705L198.554 39.6101H192.839L186.295 22.1302V39.6101H179.206V10.5273H187.577L195.737 30.6631L203.815 10.5273H212.146Z" fill="#1D3366"/>
<path d="M250.186 10.5273V39.6101H243.097V22.1705L236.594 39.6101H230.879L224.335 22.1302V39.6101H217.246V10.5273H225.617L233.777 30.6631L241.855 10.5273H250.186Z" fill="#1D3366"/>
<path d="M262.364 16.2025V22.0898H271.857V27.563H262.364V33.945H273.099V39.6202H255.286V10.5273H273.099V16.2025H262.364Z" fill="#1D3366"/>
<path d="M292.518 39.6101L286.469 28.6334H284.772V39.6101H277.684V10.5273H289.569C291.861 10.5273 293.82 10.9313 295.436 11.729C297.052 12.5268 298.264 13.6275 299.061 15.021C299.859 16.4146 300.263 17.9697 300.263 19.6864C300.263 21.6151 299.718 23.3419 298.627 24.8668C297.537 26.3815 295.931 27.462 293.8 28.0982L300.516 39.6202H292.518V39.6101ZM284.772 23.6247H289.165C290.468 23.6247 291.437 23.3116 292.084 22.6755C292.73 22.0393 293.053 21.1405 293.053 19.9792C293.053 18.8179 292.73 18 292.084 17.3739C291.437 16.7377 290.458 16.4247 289.165 16.4247H284.772V23.6348V23.6247Z" fill="#1D3366"/>
<path d="M305.362 17.3429C306.604 15.091 308.341 13.3339 310.563 12.0817C312.784 10.8295 315.309 10.1934 318.126 10.1934C321.58 10.1934 324.539 11.1022 326.993 12.93C329.446 14.7577 331.092 17.2419 331.92 20.3925H324.135C323.559 19.1807 322.731 18.2517 321.671 17.6155C320.61 16.9793 319.399 16.6663 318.046 16.6663C315.864 16.6663 314.097 17.4237 312.744 18.9485C311.391 20.4632 310.714 22.503 310.714 25.0377C310.714 27.5723 311.391 29.6122 312.744 31.1269C314.097 32.6416 315.864 33.4091 318.046 33.4091C319.399 33.4091 320.61 33.096 321.671 32.4598C322.731 31.8237 323.559 30.9047 324.135 29.6828H331.92C331.092 32.8335 329.446 35.3075 326.993 37.1151C324.539 38.9227 321.58 39.8315 318.126 39.8315C315.309 39.8315 312.784 39.2054 310.563 37.9432C308.341 36.691 306.604 34.944 305.362 32.7022C304.12 30.4604 303.494 27.9056 303.494 25.0377C303.494 22.1698 304.12 19.6049 305.362 17.353V17.3429Z" fill="#1D3366"/>
<path d="M343.362 16.2025V22.0898H352.854V27.563H343.362V33.945H354.096V39.6202H336.283V10.5273H354.096V16.2025H343.362Z" fill="#1D3366"/>
</g>
<defs>
<linearGradient id="paint0_linear_723_5667" x1="38.4266" y1="11.7639" x2="7.52309" y2="45.0414" gradientUnits="userSpaceOnUse">
<stop offset="0.278846" stop-color="#33CFFF"/>
<stop offset="1" stop-color="#0D87C5"/>
</linearGradient>
<linearGradient id="paint1_linear_723_5667" x1="30.7655" y1="24.5696" x2="18.7373" y2="38.7127" gradientUnits="userSpaceOnUse">
<stop offset="0.278846" stop-color="#33CFFF"/>
<stop offset="1" stop-color="#0D87C5"/>
</linearGradient>
<linearGradient id="paint2_linear_723_5667" x1="30.7655" y1="24.5696" x2="18.7373" y2="38.7127" gradientUnits="userSpaceOnUse">
<stop offset="0.278846" stop-color="#33CFFF"/>
<stop offset="1" stop-color="#0D87C5"/>
</linearGradient>
<linearGradient id="paint3_linear_723_5667" x1="30.7655" y1="24.5696" x2="18.7373" y2="38.7127" gradientUnits="userSpaceOnUse">
<stop offset="0.278846" stop-color="#33CFFF"/>
<stop offset="1" stop-color="#0D87C5"/>
</linearGradient>
<clipPath id="clip0_723_5667">
<rect width="299.087" height="29.7896" fill="white" transform="translate(54.999 10.1133)"/>
</clipPath>
</defs>
</svg>
