<svg width="1261" height="178" viewBox="0 0 1261 178" fill="none" xmlns="http://www.w3.org/2000/svg">
<path d="M26.5204 178C23.9019 178 21.3391 177.471 18.9157 176.412C16.4643 175.354 14.3194 173.794 12.5088 171.844C10.6981 169.866 9.36105 167.582 8.49751 165.047C7.63398 162.512 7.32756 159.894 7.57827 157.219L17.9686 42.7868C18.4143 38.0235 20.587 33.6222 24.1247 30.3909C27.6625 27.1596 32.3701 25.349 37.0499 25.4326H57.6634C58.7776 17.2429 62.0368 10.8917 67.3294 6.57402C72.6499 2.22848 79.9482 0 89.0014 0C98.0546 0 105.353 2.20063 110.673 6.57402C115.966 10.8917 119.225 17.2429 120.339 25.4326H140.981C145.716 25.4326 150.285 27.1875 153.795 30.3909C157.332 33.6222 159.533 38.0235 159.951 42.7868L170.425 157.219C170.675 159.894 170.341 162.512 169.505 165.047C168.642 167.582 167.305 169.866 165.494 171.844C163.683 173.822 161.539 175.354 159.087 176.412C156.664 177.471 154.101 178 151.455 178H26.5204ZM36.9942 36.575C34.9886 36.575 33.0944 37.2992 31.6459 38.6363C30.1695 39.9734 29.2781 41.8119 29.0831 43.7897L18.665 158.222C18.5535 159.309 18.6928 160.423 19.0549 161.481C19.4171 162.54 19.9742 163.487 20.7263 164.295C21.4784 165.103 22.3698 165.743 23.4005 166.189C24.4312 166.635 25.5733 166.774 26.6039 166.858H151.399C152.402 166.858 153.6 166.635 154.63 166.189C155.661 165.743 156.552 165.103 157.304 164.295C158.057 163.487 158.614 162.54 158.976 161.481C159.338 160.423 159.477 159.336 159.366 158.222L148.892 43.7897C148.697 41.784 147.806 39.9734 146.329 38.6363C144.853 37.2992 143.014 36.4635 140.953 36.575H36.9942ZM70.5329 25.4326H107.414C106.551 21.0034 104.684 17.8557 101.676 15.7944C98.6675 13.733 94.5169 12.7302 88.9736 12.7302C83.4302 12.7302 79.2797 13.733 76.2712 15.7944C73.2906 17.8557 71.3964 21.0034 70.5329 25.4326Z" fill="url(#paint0_linear_723_5827)"/>
<path d="M95.7187 137.231C78.8287 137.231 65.1348 123.585 65.1348 106.754C65.1348 89.923 78.8287 76.2771 95.7187 76.2771C104.236 76.2771 111.937 79.75 117.479 85.349C111.087 76.6498 100.776 71 89.1225 71C69.7249 71 53.9995 86.6704 53.9995 106C53.9995 125.33 69.7249 141 89.1225 141C97.8777 141 105.876 137.798 112.022 132.521C107.296 135.494 101.711 137.222 95.7102 137.222L95.7187 137.231Z" fill="url(#paint1_linear_723_5827)"/>
<path d="M106.234 81.1903C113.587 85.4764 118.525 93.4302 118.525 102.536C118.525 116.19 107.416 127.253 93.7217 127.253C80.9798 127.253 70.482 117.673 69.0795 105.348C69.054 105.831 69.037 106.322 69.037 106.814C69.037 121.933 81.3368 134.199 96.5183 134.199C111.7 134.199 124 121.942 124 106.814C124 95.0988 116.613 85.1122 106.234 81.1988V81.1903Z" fill="url(#paint2_linear_723_5827)"/>
<path d="M92.9819 83.0791C83.7592 83.0791 75.973 89.1947 73.4739 97.572C76.2705 91.3547 82.5266 87.0263 89.8113 87.0263C99.6971 87.0263 107.713 95.014 107.713 104.865C107.713 114.716 99.6971 122.704 89.8113 122.704C88.1963 122.704 86.6323 122.484 85.1447 122.086C87.5588 123.094 90.2109 123.644 92.9904 123.644C104.228 123.644 113.348 114.564 113.348 103.357C113.348 92.1509 104.236 83.0706 92.9904 83.0706L92.9819 83.0791Z" fill="url(#paint3_linear_723_5827)"/>
<g clip-path="url(#clip0_723_5827)">
<path d="M202.448 61.7413C206.87 53.7246 213.053 47.4694 220.962 43.0116C228.871 38.5179 237.822 36.2891 247.852 36.2891C260.147 36.2891 270.644 39.5245 279.416 46.0314C288.151 52.5382 294.011 61.3818 296.959 72.5981H269.242C267.193 68.2841 264.245 64.9768 260.47 62.712C256.696 60.4471 252.382 59.3327 247.564 59.3327C239.799 59.3327 233.508 62.0289 228.691 67.4573C223.874 72.8497 221.465 80.1115 221.465 89.1349C221.465 98.1582 223.874 105.42 228.691 110.812C233.508 116.205 239.799 118.937 247.564 118.937C252.382 118.937 256.696 117.823 260.47 115.558C264.245 113.293 267.193 110.022 269.242 105.672H296.959C294.011 116.888 288.151 125.696 279.416 132.13C270.644 138.565 260.147 141.801 247.852 141.801C237.822 141.801 228.835 139.572 220.926 135.078C213.017 130.621 206.834 124.401 202.412 116.421C197.99 108.44 195.761 99.3445 195.761 89.1349C195.761 78.9252 197.99 69.794 202.412 61.7773L202.448 61.7413Z" fill="white"/>
<path d="M389.601 96.8273C393.231 101.501 395.065 106.821 395.065 112.825C395.065 121.489 392.045 128.355 386.006 133.388C379.966 138.457 371.518 140.973 360.697 140.973H312.453V37.4746H359.044C369.577 37.4746 377.809 39.8832 383.741 44.7005C389.672 49.5177 392.656 56.0605 392.656 64.3289C392.656 70.4403 391.039 75.4732 387.875 79.5355C384.676 83.5619 380.433 86.3659 375.113 87.9477C381.117 89.2419 385.934 92.1898 389.565 96.8632L389.601 96.8273ZM337.69 79.3558H354.19C358.325 79.3558 361.488 78.4571 363.717 76.6236C365.946 74.7902 367.024 72.1299 367.024 68.5709C367.024 65.0119 365.91 62.3157 363.717 60.4463C361.524 58.577 358.325 57.6423 354.19 57.6423H337.69V79.3198V79.3558ZM366.09 117.786C368.39 115.88 369.541 113.076 369.541 109.446C369.541 105.815 368.319 102.975 365.91 100.89C363.501 98.8404 360.194 97.7979 355.952 97.7979H337.654V120.662H356.24C360.446 120.662 363.717 119.691 366.054 117.786H366.09Z" fill="white"/>
<path d="M412.033 61.7394C416.455 53.7226 422.638 47.4674 430.547 43.0097C438.456 38.5519 447.443 36.2871 457.473 36.2871C469.768 36.2871 480.301 39.5226 489.037 46.0294C497.772 52.5363 503.632 61.3799 506.58 72.5961H478.863C476.814 68.2822 473.866 64.9748 470.091 62.71C466.317 60.4452 462.003 59.3308 457.185 59.3308C449.42 59.3308 443.129 62.027 438.312 67.4553C433.495 72.8478 431.086 80.1096 431.086 89.1329C431.086 98.1562 433.495 105.418 438.312 110.81C443.129 116.203 449.42 118.935 457.185 118.935C462.003 118.935 466.317 117.821 470.091 115.556C473.866 113.291 476.814 110.02 478.863 105.67H506.58C503.632 116.886 497.772 125.694 489.037 132.129C480.301 138.563 469.768 141.799 457.473 141.799C447.443 141.799 438.456 139.57 430.547 135.076C422.638 130.619 416.455 124.399 412.033 116.419C407.611 108.438 405.382 99.3426 405.382 89.1329C405.382 78.9232 407.611 69.7921 412.033 61.7753V61.7394Z" fill="white"/>
<path d="M544.255 135.257C536.13 130.727 529.695 124.436 524.914 116.311C520.133 108.187 517.76 99.0914 517.76 88.9536C517.76 78.8159 520.133 69.7206 524.914 61.668C529.695 53.6153 536.13 47.3241 544.255 42.7945C552.38 38.2648 561.295 36 571.037 36C580.78 36 589.695 38.2648 597.82 42.7945C605.944 47.3241 612.307 53.6153 616.981 61.668C621.654 69.7206 623.991 78.8159 623.991 88.9536C623.991 99.0914 621.618 108.187 616.909 116.311C612.199 124.436 605.8 130.727 597.748 135.257C589.695 139.786 580.78 142.051 571.037 142.051C561.295 142.051 552.38 139.786 544.255 135.257ZM590.845 110.775C595.806 105.275 598.287 98.0129 598.287 88.9536C598.287 79.8944 595.806 72.5247 590.845 67.0604C585.884 61.5961 579.27 58.8639 571.001 58.8639C562.733 58.8639 555.974 61.5601 551.013 66.9885C546.052 72.3809 543.572 79.7146 543.572 88.9536C543.572 98.1927 546.052 105.419 551.013 110.847C555.974 116.311 562.625 119.043 571.001 119.043C579.378 119.043 585.884 116.275 590.845 110.775Z" fill="white"/>
<path d="M755.242 37.4746V141.009H730.006V78.9244L706.854 141.009H686.507L663.212 78.7806V141.009H637.975V37.4746H667.777L696.824 109.158L725.584 37.4746H755.242Z" fill="white"/>
<path d="M890.664 37.4746V141.009H865.428V78.9244L842.276 141.009H821.929L798.633 78.7806V141.009H773.397V37.4746H803.199L832.246 109.158L861.006 37.4746H890.664Z" fill="white"/>
<path d="M934.019 57.6782V78.6368H967.811V98.1215H934.019V120.842H972.233V141.045H908.818V37.4746H972.233V57.6782H934.019Z" fill="white"/>
<path d="M1041.36 141.009L1019.83 101.932H1013.79V141.009H988.555V37.4746H1030.87C1039.03 37.4746 1046 38.9126 1051.75 41.7526C1057.51 44.5926 1061.82 48.5111 1064.66 53.4721C1067.5 58.4332 1068.94 63.9694 1068.94 70.0808C1068.94 76.9472 1067 83.0945 1063.11 88.5229C1059.23 93.9154 1053.52 97.762 1045.93 100.027L1069.84 141.045H1041.36V141.009ZM1013.79 84.1011H1029.43C1034.07 84.1011 1037.52 82.9867 1039.82 80.7219C1042.12 78.4571 1043.27 75.2576 1043.27 71.1234C1043.27 66.9892 1042.12 64.0773 1039.82 61.8484C1037.52 59.5836 1034.03 58.4691 1029.43 58.4691H1013.79V84.1371V84.1011Z" fill="white"/>
<path d="M1087.09 61.7394C1091.51 53.7226 1097.7 47.4674 1105.61 43.0097C1113.51 38.5519 1122.5 36.2871 1132.53 36.2871C1144.83 36.2871 1155.36 39.5226 1164.09 46.0294C1172.83 52.5363 1178.69 61.3799 1181.64 72.5961H1153.92C1151.87 68.2822 1148.92 64.9748 1145.15 62.71C1141.37 60.4452 1137.06 59.3308 1132.24 59.3308C1124.48 59.3308 1118.19 62.027 1113.37 67.4553C1108.55 72.8478 1106.14 80.1096 1106.14 89.1329C1106.14 98.1562 1108.55 105.418 1113.37 110.81C1118.19 116.203 1124.48 118.935 1132.24 118.935C1137.06 118.935 1141.37 117.821 1145.15 115.556C1148.92 113.291 1151.87 110.02 1153.92 105.67H1181.64C1178.69 116.886 1172.83 125.694 1164.09 132.129C1155.36 138.563 1144.83 141.799 1132.53 141.799C1122.5 141.799 1113.51 139.57 1105.61 135.076C1097.7 130.619 1091.51 124.399 1087.09 116.419C1082.67 108.438 1080.44 99.3426 1080.44 89.1329C1080.44 78.9232 1082.67 69.7921 1087.09 61.7753V61.7394Z" fill="white"/>
<path d="M1222.37 57.6782V78.6368H1256.16V98.1215H1222.37V120.842H1260.58V141.045H1197.17V37.4746H1260.58V57.6782H1222.37Z" fill="white"/>
</g>
<defs>
<linearGradient id="paint0_linear_723_5827" x1="136.799" y1="41.8795" x2="26.7821" y2="160.347" gradientUnits="userSpaceOnUse">
<stop offset="0.278846" stop-color="#33CFFF"/>
<stop offset="1" stop-color="#0D87C5"/>
</linearGradient>
<linearGradient id="paint1_linear_723_5827" x1="109.525" y1="87.4694" x2="66.7045" y2="137.819" gradientUnits="userSpaceOnUse">
<stop offset="0.278846" stop-color="#33CFFF"/>
<stop offset="1" stop-color="#0D87C5"/>
</linearGradient>
<linearGradient id="paint2_linear_723_5827" x1="109.525" y1="87.4694" x2="66.7045" y2="137.819" gradientUnits="userSpaceOnUse">
<stop offset="0.278846" stop-color="#33CFFF"/>
<stop offset="1" stop-color="#0D87C5"/>
</linearGradient>
<linearGradient id="paint3_linear_723_5827" x1="109.525" y1="87.4694" x2="66.7045" y2="137.819" gradientUnits="userSpaceOnUse">
<stop offset="0.278846" stop-color="#33CFFF"/>
<stop offset="1" stop-color="#0D87C5"/>
</linearGradient>
<clipPath id="clip0_723_5827">
<rect width="1064.75" height="106.051" fill="white" transform="translate(195.797 36)"/>
</clipPath>
</defs>
</svg>
