<svg width="355" height="50" viewBox="0 0 355 50" fill="none" xmlns="http://www.w3.org/2000/svg">
<path d="M7.44907 50C6.71355 50 5.99367 49.8513 5.31292 49.554C4.62435 49.2566 4.02184 48.8185 3.51324 48.2707C3.00463 47.7152 2.62904 47.0735 2.38648 46.3615C2.14391 45.6494 2.05784 44.9139 2.12826 44.1627L5.04688 12.0188C5.17208 10.6807 5.78241 9.44444 6.77615 8.53678C7.76989 7.62911 9.09227 7.1205 10.4068 7.14397H16.1971C16.5101 4.84351 17.4256 3.05947 18.9123 1.84664C20.4068 0.625978 22.4569 0 24.9999 0C27.543 0 29.593 0.618153 31.0876 1.84664C32.5743 3.05947 33.4898 4.84351 33.8028 7.14397H39.6009C40.9311 7.14397 42.2143 7.63693 43.2002 8.53678C44.194 9.44444 44.8121 10.6807 44.9295 12.0188L47.8716 44.1627C47.942 44.9139 47.8481 45.6494 47.6134 46.3615C47.3708 47.0735 46.9952 47.7152 46.4866 48.2707C45.978 48.8263 45.3755 49.2566 44.6869 49.554C44.0062 49.8513 43.2863 50 42.543 50H7.44907ZM10.3912 10.2739C9.82779 10.2739 9.29571 10.4773 8.88882 10.8529C8.47411 11.2285 8.22372 11.7449 8.16895 12.3005L5.2425 44.4444C5.2112 44.7496 5.25033 45.0626 5.35205 45.3599C5.45377 45.6573 5.61026 45.9233 5.82153 46.1502C6.0328 46.3771 6.28319 46.5571 6.5727 46.6823C6.86222 46.8075 7.18303 46.8466 7.47255 46.8701H42.5273C42.809 46.8701 43.1455 46.8075 43.435 46.6823C43.7245 46.5571 43.9749 46.3771 44.1862 46.1502C44.3974 45.9233 44.5539 45.6573 44.6556 45.3599C44.7574 45.0626 44.7965 44.7574 44.7652 44.4444L41.8231 12.3005C41.7683 11.7371 41.5179 11.2285 41.1032 10.8529C40.6885 10.4773 40.1721 10.2426 39.593 10.2739H10.3912ZM19.8121 7.14397H30.1721C29.9295 5.89984 29.4053 5.01565 28.5602 4.43662C27.7151 3.85759 26.5492 3.5759 24.9921 3.5759C23.435 3.5759 22.2691 3.85759 21.424 4.43662C20.5868 5.01565 20.0547 5.89984 19.8121 7.14397Z" fill="white"/>
<path d="M26.8868 38.5475C22.1425 38.5475 18.2959 34.7143 18.2959 29.9866C18.2959 25.2588 22.1425 21.4257 26.8868 21.4257C29.2793 21.4257 31.4426 22.4012 32.9994 23.974C31.2038 21.5304 28.3075 19.9434 25.034 19.9434C19.5852 19.9434 15.168 24.3451 15.168 29.7748C15.168 35.2045 19.5852 39.6063 25.034 39.6063C27.4933 39.6063 29.7401 38.7069 31.4665 37.2246C30.1389 38.0597 28.5702 38.5451 26.8844 38.5451L26.8868 38.5475Z" fill="white"/>
<path d="M29.8406 22.8058C31.906 24.0098 33.2932 26.244 33.2932 28.8018C33.2932 32.6373 30.1725 35.7447 26.3259 35.7447C22.7467 35.7447 19.7979 33.0537 19.4039 29.5917C19.3968 29.7273 19.392 29.8653 19.392 30.0033C19.392 34.2505 22.847 37.6958 27.1114 37.6958C31.3759 37.6958 34.8309 34.2528 34.8309 30.0033C34.8309 26.7127 32.756 23.9074 29.8406 22.8082V22.8058Z" fill="white"/>
<path d="M26.1181 23.3364C23.5274 23.3364 21.3403 25.0542 20.6383 27.4074C21.4239 25.661 23.1812 24.4451 25.2275 24.4451C28.0044 24.4451 30.256 26.6889 30.256 29.456C30.256 32.2232 28.0044 34.4669 25.2275 34.4669C24.7738 34.4669 24.3345 34.4051 23.9166 34.2932C24.5947 34.5764 25.3397 34.731 26.1205 34.731C29.277 34.731 31.839 32.1804 31.839 29.0325C31.839 25.8846 29.2794 23.334 26.1205 23.334L26.1181 23.3364Z" fill="white"/>
<g clip-path="url(#clip0_723_5811)">
<path d="M56.8675 17.3429C58.1096 15.091 59.8465 13.3339 62.0681 12.0817C64.2896 10.8194 66.8041 10.1934 69.6215 10.1934C73.075 10.1934 76.0237 11.1022 78.4876 12.93C80.9415 14.7577 82.5875 17.2419 83.4155 20.3925H75.6299C75.0543 19.1807 74.2262 18.2517 73.1659 17.6155C72.1056 16.9793 70.8938 16.6663 69.5407 16.6663C67.3595 16.6663 65.5923 17.4237 64.2392 18.9485C62.886 20.4632 62.2094 22.503 62.2094 25.0377C62.2094 27.5723 62.886 29.6122 64.2392 31.1269C65.5923 32.6416 67.3595 33.4091 69.5407 33.4091C70.8938 33.4091 72.1056 33.096 73.1659 32.4598C74.2262 31.8237 75.0543 30.9047 75.6299 29.6828H83.4155C82.5875 32.8335 80.9415 35.3075 78.4876 37.1151C76.0237 38.9227 73.075 39.8315 69.6215 39.8315C66.8041 39.8315 64.2796 39.2054 62.058 37.9432C59.8364 36.691 58.0995 34.944 56.8574 32.7022C55.6153 30.4604 54.9893 27.9056 54.9893 25.0377C54.9893 22.1698 55.6153 19.6049 56.8574 17.353L56.8675 17.3429Z" fill="white"/>
<path d="M109.438 27.1994C110.458 28.5122 110.973 30.0067 110.973 31.6931C110.973 34.1268 110.125 36.0555 108.428 37.4693C106.732 38.8931 104.359 39.6 101.319 39.6H87.7676V10.5273H100.855C103.814 10.5273 106.126 11.2039 107.792 12.5571C109.458 13.9102 110.297 15.7481 110.297 18.0707C110.297 19.7874 109.842 21.2011 108.953 22.3422C108.055 23.4732 106.863 24.2609 105.369 24.7052C107.055 25.0687 108.408 25.8968 109.428 27.2095L109.438 27.1994ZM94.8565 22.2917H99.4915C100.653 22.2917 101.541 22.0393 102.168 21.5243C102.794 21.0093 103.097 20.262 103.097 19.2623C103.097 18.2625 102.784 17.5052 102.168 16.9801C101.552 16.455 100.653 16.1924 99.4915 16.1924H94.8565V22.2816V22.2917ZM102.834 33.0867C103.48 32.5515 103.803 31.7638 103.803 30.7439C103.803 29.724 103.46 28.9262 102.784 28.3405C102.107 27.7649 101.178 27.4721 99.9863 27.4721H94.8464V33.8945H100.067C101.249 33.8945 102.168 33.6219 102.824 33.0867H102.834Z" fill="white"/>
<path d="M115.739 17.3429C116.981 15.091 118.718 13.3339 120.94 12.0817C123.161 10.8295 125.686 10.1934 128.503 10.1934C131.957 10.1934 134.916 11.1022 137.369 12.93C139.823 14.7577 141.469 17.2419 142.297 20.3925H134.512C133.936 19.1807 133.108 18.2517 132.048 17.6155C130.987 16.9793 129.776 16.6663 128.423 16.6663C126.241 16.6663 124.474 17.4237 123.121 18.9485C121.768 20.4632 121.091 22.503 121.091 25.0377C121.091 27.5723 121.768 29.6122 123.121 31.1269C124.474 32.6416 126.241 33.4091 128.423 33.4091C129.776 33.4091 130.987 33.096 132.048 32.4598C133.108 31.8237 133.936 30.9047 134.512 29.6828H142.297C141.469 32.8335 139.823 35.3075 137.369 37.1151C134.916 38.9227 131.957 39.8315 128.503 39.8315C125.686 39.8315 123.161 39.2054 120.94 37.9432C118.718 36.691 116.981 34.944 115.739 32.7022C114.497 30.4604 113.871 27.9056 113.871 25.0377C113.871 22.1698 114.497 19.6049 115.739 17.353V17.3429Z" fill="white"/>
<path d="M152.88 37.9944C150.598 36.722 148.79 34.9548 147.447 32.6726C146.104 30.3904 145.438 27.8356 145.438 24.9879C145.438 22.1402 146.104 19.5854 147.447 17.3234C148.79 15.0614 150.598 13.2942 152.88 12.0218C155.162 10.7495 157.666 10.1133 160.403 10.1133C163.14 10.1133 165.644 10.7495 167.926 12.0218C170.208 13.2942 171.996 15.0614 173.308 17.3234C174.621 19.5854 175.278 22.1402 175.278 24.9879C175.278 27.8356 174.611 30.3904 173.288 32.6726C171.965 34.9548 170.168 36.722 167.906 37.9944C165.644 39.2667 163.14 39.9029 160.403 39.9029C157.666 39.9029 155.162 39.2667 152.88 37.9944ZM165.967 31.1175C167.361 29.5725 168.057 27.5326 168.057 24.9879C168.057 22.4432 167.361 20.373 165.967 18.8381C164.573 17.3032 162.715 16.5357 160.393 16.5357C158.07 16.5357 156.172 17.2931 154.778 18.8179C153.385 20.3326 152.688 22.3927 152.688 24.9879C152.688 27.5831 153.385 29.6129 154.778 31.1377C156.172 32.6726 158.04 33.4401 160.393 33.4401C162.746 33.4401 164.573 32.6625 165.967 31.1175Z" fill="white"/>
<path d="M212.146 10.5273V39.6101H205.057V22.1705L198.554 39.6101H192.839L186.295 22.1302V39.6101H179.206V10.5273H187.577L195.737 30.6631L203.815 10.5273H212.146Z" fill="white"/>
<path d="M250.186 10.5273V39.6101H243.097V22.1705L236.594 39.6101H230.879L224.335 22.1302V39.6101H217.246V10.5273H225.617L233.777 30.6631L241.855 10.5273H250.186Z" fill="white"/>
<path d="M262.364 16.2025V22.0898H271.856V27.563H262.364V33.945H273.098V39.6202H255.285V10.5273H273.098V16.2025H262.364Z" fill="white"/>
<path d="M292.518 39.6101L286.469 28.6334H284.772V39.6101H277.684V10.5273H289.569C291.861 10.5273 293.82 10.9313 295.436 11.729C297.052 12.5268 298.264 13.6275 299.061 15.021C299.859 16.4146 300.263 17.9697 300.263 19.6864C300.263 21.6151 299.718 23.3419 298.627 24.8668C297.537 26.3815 295.931 27.462 293.8 28.0982L300.515 39.6202H292.518V39.6101ZM284.772 23.6247H289.165C290.468 23.6247 291.437 23.3116 292.084 22.6755C292.73 22.0393 293.053 21.1405 293.053 19.9792C293.053 18.8179 292.73 18 292.084 17.3739C291.437 16.7377 290.458 16.4247 289.165 16.4247H284.772V23.6348V23.6247Z" fill="white"/>
<path d="M305.362 17.3429C306.604 15.091 308.341 13.3339 310.563 12.0817C312.784 10.8295 315.309 10.1934 318.126 10.1934C321.58 10.1934 324.539 11.1022 326.993 12.93C329.446 14.7577 331.092 17.2419 331.92 20.3925H324.135C323.559 19.1807 322.731 18.2517 321.671 17.6155C320.61 16.9793 319.399 16.6663 318.046 16.6663C315.864 16.6663 314.097 17.4237 312.744 18.9485C311.391 20.4632 310.714 22.503 310.714 25.0377C310.714 27.5723 311.391 29.6122 312.744 31.1269C314.097 32.6416 315.864 33.4091 318.046 33.4091C319.399 33.4091 320.61 33.096 321.671 32.4598C322.731 31.8237 323.559 30.9047 324.135 29.6828H331.92C331.092 32.8335 329.446 35.3075 326.993 37.1151C324.539 38.9227 321.58 39.8315 318.126 39.8315C315.309 39.8315 312.784 39.2054 310.563 37.9432C308.341 36.691 306.604 34.944 305.362 32.7022C304.12 30.4604 303.494 27.9056 303.494 25.0377C303.494 22.1698 304.12 19.6049 305.362 17.353V17.3429Z" fill="white"/>
<path d="M343.362 16.2025V22.0898H352.854V27.563H343.362V33.945H354.096V39.6202H336.283V10.5273H354.096V16.2025H343.362Z" fill="white"/>
</g>
<defs>
<clipPath id="clip0_723_5811">
<rect width="299.087" height="29.7896" fill="white" transform="translate(54.999 10.1133)"/>
</clipPath>
</defs>
</svg>
