<svg width="500" height="500" viewBox="0 0 500 500" fill="none" xmlns="http://www.w3.org/2000/svg">
<path d="M74.4956 500C67.1404 500 59.9416 498.513 53.1341 495.54C46.2484 492.567 40.2233 488.185 35.1372 482.707C30.0512 477.152 26.2953 470.735 23.8696 463.615C21.444 456.494 20.5833 449.139 21.2875 441.628L50.4737 120.188C51.7257 106.808 57.829 94.4444 67.7664 85.3678C77.7038 76.2911 90.9275 71.205 104.073 71.4397H161.976C165.106 48.4351 174.261 30.5947 189.128 18.4664C204.073 6.25978 224.574 0 250.004 0C275.435 0 295.935 6.18153 310.881 18.4664C325.748 30.5947 334.903 48.4351 338.032 71.4397H396.014C409.316 71.4397 422.148 76.3693 432.007 85.3678C441.945 94.4444 448.126 106.808 449.3 120.188L478.721 441.628C479.425 449.139 478.486 456.494 476.139 463.615C473.713 470.735 469.957 477.152 464.871 482.707C459.785 488.263 453.76 492.567 446.874 495.54C440.067 498.513 432.868 500 425.435 500H74.4956ZM103.917 102.739C98.2828 102.739 92.962 104.773 88.8931 108.529C84.746 112.285 82.2421 117.449 81.6944 123.005L52.4299 444.444C52.1169 447.496 52.5081 450.626 53.5254 453.599C54.5426 456.573 56.1075 459.233 58.2202 461.502C60.3329 463.772 62.8368 465.571 65.7319 466.823C68.6271 468.075 71.8352 468.466 74.7304 468.701H425.278C428.095 468.701 431.46 468.075 434.355 466.823C437.25 465.571 439.754 463.772 441.867 461.502C443.979 459.233 445.544 456.573 446.561 453.599C447.579 450.626 447.97 447.574 447.657 444.444L418.236 123.005C417.688 117.371 415.184 112.285 411.037 108.529C406.89 104.773 401.726 102.426 395.935 102.739H103.917ZM198.126 71.4397H301.726C299.3 58.9984 294.057 50.1565 285.607 44.3662C277.156 38.5759 265.497 35.759 249.926 35.759C234.355 35.759 222.696 38.5759 214.245 44.3662C205.873 50.1565 200.552 58.9984 198.126 71.4397Z" fill="white"/>
<path d="M268.873 385.479C221.429 385.479 182.964 347.147 182.964 299.87C182.964 252.592 221.429 214.261 268.873 214.261C292.798 214.261 314.431 224.016 329.999 239.744C312.043 215.308 283.08 199.438 250.345 199.438C195.857 199.438 151.685 243.455 151.685 297.752C151.685 352.049 195.857 396.067 250.345 396.067C274.938 396.067 297.406 387.073 314.669 372.249C301.394 380.601 285.707 385.455 268.849 385.455L268.873 385.479Z" fill="white"/>
<path d="M298.411 228.062C319.064 240.102 332.937 262.444 332.937 288.022C332.937 326.377 301.73 357.451 263.264 357.451C227.472 357.451 197.984 330.54 194.044 295.921C193.972 297.277 193.925 298.657 193.925 300.037C193.925 342.509 228.475 376.962 271.119 376.962C313.764 376.962 348.314 342.532 348.314 300.037C348.314 267.131 327.565 239.078 298.411 228.086V228.062Z" fill="white"/>
<path d="M261.186 233.367C235.279 233.367 213.408 250.546 206.388 274.078C214.243 256.614 231.817 244.455 252.28 244.455C280.049 244.455 302.565 266.892 302.565 294.564C302.565 322.236 280.049 344.673 252.28 344.673C247.743 344.673 243.35 344.055 239.171 342.936C245.952 345.768 253.402 347.314 261.21 347.314C292.775 347.314 318.395 321.808 318.395 290.329C318.395 258.85 292.799 233.344 261.21 233.344L261.186 233.367Z" fill="white"/>
</svg>
