<svg width="250" height="250" viewBox="0 0 250 250" fill="none" xmlns="http://www.w3.org/2000/svg">
<path d="M61.8218 109.401L91.1185 160.143C77.8178 167.823 62.3638 176.744 48.8336 184.557C34.82 192.647 16.9051 187.848 8.81427 173.834C0.772323 159.918 5.43538 141.954 19.5369 133.815L61.8218 109.401Z" fill="#8FC73E"/>
<path d="M199.931 125.773C203.637 132.189 199.121 140.236 191.714 140.416L186.221 141.495L186.099 140.875L123.237 31.9988L122.827 31.6766L126.343 27.199C130.205 20.8709 139.429 20.9784 143.135 27.3992C240.688 196.358 117.617 -16.8046 199.927 125.768L199.931 125.773Z" fill="#E3F1D2"/>
<path d="M184.463 59.9088L194.228 76.8228L182.197 95.0454L162.666 61.2174L184.463 59.9088Z" fill="#E3F1D2"/>
<path d="M66.8755 157.223C69.2095 155.875 70.0102 152.887 68.6626 150.553C67.3149 148.219 64.3267 147.418 61.9927 148.766C59.6587 150.113 58.858 153.102 60.2056 155.436C61.5533 157.77 64.5415 158.57 66.8755 157.223Z" fill="white"/>
<path d="M46.8658 190.924L71.4555 233.516C76.7631 242.715 88.6967 246.124 98.1351 240.665C107.476 235.269 110.684 223.331 105.283 213.985L90.6351 188.609L103.321 181.285C105.655 179.933 106.455 176.949 105.108 174.615L98.7601 163.619C99.5169 163.473 104.497 162.496 192.285 145.275C203.139 144.684 209.638 132.814 204.16 123.326L187.934 95.2211L198.305 79.5132C199.326 77.9703 199.385 75.983 198.462 74.3814L188.696 57.4674C187.773 55.8659 186.015 54.9284 184.175 55.0358L165.391 56.1637L147.378 24.9578C144.771 20.4364 140.093 17.702 134.873 17.6337C134.81 17.6337 134.751 17.6337 134.688 17.6337C129.644 17.6337 125.069 20.1434 122.354 24.3866L58.5601 105.646L17.0906 129.586C0.782087 139 -4.8673 159.923 4.5809 176.275C13.2137 191.226 31.4118 197.11 46.8658 190.924ZM96.8314 218.873C99.5267 223.536 97.93 229.508 93.2523 232.213C88.5599 234.927 82.5785 233.258 79.9125 228.638L55.4986 186.349L72.4126 176.583C100.669 225.528 96.3724 218.092 96.8265 218.878L96.8314 218.873ZM85.7523 180.157L80.8696 171.7L89.3265 166.817L94.2093 175.274L85.7523 180.157ZM181.743 64.9625L188.491 76.6519L182.475 85.7632L170.845 65.6168L181.743 64.9625ZM130.513 29.743C131.821 27.5994 133.902 27.3797 134.746 27.3992C135.581 27.409 137.656 27.6678 138.911 29.8406L195.703 128.209C197.554 131.412 195.303 135.436 191.597 135.529C190.932 135.543 190.625 135.665 188.921 135.983L128.843 31.9256C130.103 30.3045 130.264 30.1482 130.518 29.7381L130.513 29.743ZM122.339 40.2117L178.784 137.975L93.599 154.684L67.6958 109.821L122.339 40.2117ZM13.0379 171.393C10.8943 167.682 9.76153 163.473 9.76153 159.21C9.76153 150.499 14.4441 142.389 21.9734 138.043L60.0298 116.071L84.4438 158.356L46.3873 180.328C34.7272 187.057 19.7664 183.048 13.0379 171.393Z" fill="#8FC73E"/>
<path d="M51.7486 160.318C50.401 157.984 47.4127 157.184 45.0787 158.531L36.6217 163.414C34.2927 164.762 31.2995 163.956 29.9519 161.627C28.6042 159.293 25.6159 158.492 23.282 159.84C20.948 161.188 20.1472 164.176 21.4949 166.51C25.5134 173.473 34.4782 175.929 41.5045 171.871L49.9615 166.988C52.2955 165.641 53.0963 162.652 51.7486 160.318Z" fill="white"/>
<path d="M242.744 28.0828L215.537 43.2243C213.183 44.5378 212.334 47.5114 213.642 49.8649C214.951 52.2184 217.925 53.0729 220.283 51.7595L247.49 36.6179C249.848 35.3045 250.693 32.3308 249.384 29.9773C248.076 27.619 245.102 26.7742 242.744 28.0828Z" fill="#8FC73E"/>
<path d="M239.887 78.6539L221.02 73.6002C218.413 72.9019 215.737 74.4449 215.039 77.0523C214.341 79.6597 215.888 82.3355 218.491 83.0337L237.358 88.0874C239.98 88.7905 242.641 87.2231 243.339 84.6353C244.038 82.0279 242.49 79.3521 239.887 78.6539Z" fill="#8FC73E"/>
<path d="M192.48 10.3388L187.422 29.2059C186.724 31.8133 188.266 34.489 190.874 35.1873C193.476 35.8855 196.157 34.3426 196.855 31.7351L201.914 12.8681C202.612 10.2607 201.069 7.58488 198.462 6.88665C195.859 6.18841 193.179 7.73137 192.48 10.3388Z" fill="#8FC73E"/>
</svg>
