<svg width="75" height="75" viewBox="0 0 75 75" fill="none" xmlns="http://www.w3.org/2000/svg">
<path d="M20.0626 47.1668C20.7628 46.7625 21.0031 45.8661 20.5988 45.1659C20.1945 44.4657 19.298 44.2254 18.5978 44.6297C17.8976 45.034 17.6574 45.9305 18.0617 46.6307C18.466 47.3309 19.3625 47.5711 20.0626 47.1668Z" fill="#343433"/>
<path d="M14.0597 57.2771L21.4367 70.0549C23.0289 72.8146 26.609 73.8371 29.4405 72.1994C32.2428 70.5808 33.2052 66.9992 31.585 64.1955L27.1905 56.5828L30.9962 54.3855C31.6964 53.9798 31.9366 53.0848 31.5323 52.3846L29.628 49.0858C29.8551 49.0418 31.3492 48.7489 57.6855 43.5824C60.9418 43.4051 62.8915 39.8441 61.248 36.9979L56.3803 28.5663L59.4916 23.854C59.7978 23.3911 59.8154 22.7949 59.5385 22.3144L56.6088 17.2402C56.332 16.7598 55.8046 16.4785 55.2524 16.5107L49.6172 16.8491L44.2134 7.48735C43.4312 6.13091 42.0279 5.31061 40.462 5.2901C40.4429 5.2901 40.4253 5.2901 40.4063 5.2901C38.8931 5.2901 37.5206 6.04302 36.7061 7.31597L17.568 31.6938L5.12718 38.8759C0.234626 41.7001 -1.46019 47.9769 1.37427 52.8826C3.9641 57.3679 9.42354 59.1331 14.0597 57.2771ZM29.0494 65.6618C29.858 67.0608 29.379 68.8523 27.9757 69.6638C26.568 70.4782 24.7736 69.9773 23.9738 68.5915L16.6496 55.9046L21.7238 52.9749C30.2008 67.6584 28.9117 65.4275 29.048 65.6633L29.0494 65.6618ZM25.7257 54.0472L24.2609 51.5101L26.798 50.0452L28.2628 52.5823L25.7257 54.0472ZM54.5229 19.4888L56.5473 22.9956L54.7426 25.729L51.2534 19.685L54.5229 19.4888ZM39.1539 8.92289C39.5464 8.27983 40.1705 8.21391 40.4239 8.21977C40.6744 8.2227 41.2969 8.30034 41.6734 8.95219L58.7109 38.4628C59.2661 39.4237 58.5908 40.6307 57.479 40.6586C57.2797 40.663 57.1875 40.6996 56.6762 40.7948L38.6529 9.57767C39.0308 9.09135 39.0791 9.04447 39.1553 8.92143L39.1539 8.92289ZM36.7017 12.0635L53.6352 41.3924L28.0797 46.4051L20.3087 32.9462L36.7017 12.0635ZM3.91137 51.4178C3.2683 50.3045 2.92846 49.0418 2.92846 47.763C2.92846 45.1497 4.33324 42.7167 6.59201 41.413L18.0089 34.8212L25.3331 47.5067L13.9162 54.0984C10.4182 56.117 5.92991 54.9143 3.91137 51.4178Z" fill="#343433"/>
<path d="M15.5246 48.0955C15.1203 47.3953 14.2238 47.1551 13.5236 47.5594L10.9865 49.0242C10.2878 49.4285 9.38985 49.1868 8.98556 48.4881C8.58126 47.7879 7.68478 47.5477 6.98459 47.952C6.2844 48.3563 6.04417 49.2528 6.44846 49.9529C7.65402 52.0418 10.3435 52.7786 12.4514 51.5613L14.9885 50.0965C15.6886 49.6922 15.9289 48.7957 15.5246 48.0955Z" fill="#343433"/>
<path d="M72.8231 8.42485L64.661 12.9673C63.955 13.3613 63.7001 14.2534 64.0927 14.9595C64.4853 15.6655 65.3774 15.9219 66.0849 15.5278L74.2469 10.9854C74.9544 10.5913 75.2079 9.69925 74.8153 8.9932C74.4227 8.28569 73.5306 8.03227 72.8231 8.42485Z" fill="#343433"/>
<path d="M71.9662 23.5962L66.3061 22.08C65.5238 21.8706 64.7211 22.3335 64.5116 23.1157C64.3022 23.8979 64.7665 24.7006 65.5473 24.9101L71.2074 26.4262C71.994 26.6372 72.7923 26.1669 73.0018 25.3906C73.2113 24.6084 72.7469 23.8056 71.9662 23.5962Z" fill="#343433"/>
<path d="M57.7441 3.10163L56.2265 8.76176C56.017 9.54398 56.4799 10.3467 57.2622 10.5562C58.0429 10.7657 58.8471 10.3028 59.0566 9.52054L60.5742 3.86042C60.7836 3.0782 60.3207 2.27547 59.5385 2.06599C58.7578 1.85652 57.9536 2.31941 57.7441 3.10163Z" fill="#343433"/>
</svg>
