<svg width="600" height="565" viewBox="0 0 600 565" fill="none" xmlns="http://www.w3.org/2000/svg">
<g clip-path="url(#clip0_801_697)">
<path d="M573.782 457.758H26.2181C11.7382 457.758 0 469.504 0 483.995V538.762C0 553.253 11.7382 564.999 26.2181 564.999H573.782C588.262 564.999 600 553.253 600 538.762V483.995C600 469.504 588.262 457.758 573.782 457.758Z" fill="white"/>
<path d="M23.9314 483.227H42.299L57.4703 528.898L72.6417 483.227H90.9283V542.746H78.6666L79.676 496.382L64.4236 542.746H51.1526L35.4143 495.896L36.6666 542.746H23.9189V483.227H23.9314Z" fill="#343433"/>
<path d="M127.738 493.596C123.209 493.596 119.794 494.731 117.495 497C115.19 499.27 113.919 502.737 113.676 507.406L148.268 507.444V517.806H113.595C113.62 522.988 114.717 526.716 116.891 528.979C119.059 531.249 122.679 532.384 127.745 532.384H148.274V542.746H127.14C122.474 542.746 118.81 542.347 116.143 541.549C113.477 540.751 110.966 539.411 108.623 537.521C105.576 535.09 103.29 531.929 101.77 528.026C100.243 524.122 99.4829 519.465 99.4829 514.034C99.4829 503.51 101.763 495.741 106.318 490.728C110.872 485.721 117.938 483.215 127.508 483.215H148.28V493.577H127.751L127.738 493.596Z" fill="#343433"/>
<path d="M180.841 517.968V507.443H210.418V542.752H183.508C178.542 542.752 174.735 542.346 172.075 541.536C169.415 540.725 166.929 539.391 164.611 537.527C161.564 535.095 159.277 531.934 157.751 528.031C156.224 524.128 155.464 519.47 155.464 514.04C155.464 503.54 157.751 495.778 162.324 490.758C166.897 485.739 173.957 483.227 183.508 483.227H210.418V493.471H183.508C178.598 493.471 175.016 495.061 172.767 498.247C170.511 501.433 169.39 506.508 169.39 513.472C169.39 519.975 170.511 524.689 172.748 527.601C174.985 530.519 178.573 531.972 183.508 531.972H197.589V517.962H180.835L180.841 517.968Z" fill="#343433"/>
<path d="M239.309 483.227H252.58L277.95 542.746H264.031L258.567 528.573H232.71L227.408 542.746H214.137L239.302 483.227H239.309ZM245.458 495.054L236.76 517.974H254.48L245.458 495.054Z" fill="#343433"/>
<path d="M282.118 483.227H309.271C313.856 483.227 317.514 483.463 320.237 483.937C322.959 484.411 325.134 485.159 326.754 486.188C329.452 487.915 331.495 490.179 332.885 492.972C334.274 495.765 334.966 498.982 334.966 502.63C334.966 506.277 334.399 509.251 333.265 511.801C332.131 514.351 330.405 516.465 328.087 518.136C326.143 519.514 323.913 520.493 321.389 521.073C318.866 521.653 315.003 521.946 309.794 521.946H294.623V542.758H282.118V483.239V483.227ZM309.103 493.838H294.617V511.409H309.869C313.645 511.409 316.448 510.685 318.286 509.245C320.118 507.805 321.04 505.598 321.04 502.624C321.04 499.437 320.143 497.18 318.349 495.84C316.554 494.506 313.47 493.838 309.103 493.838Z" fill="#8FC73E"/>
<path d="M356.118 483.227V507.362H379.059V483.227H391.564V542.746H379.059V517.88H356.118V542.746H343.614V483.227H356.118Z" fill="#8FC73E"/>
<path d="M400.019 512.382C400.019 502.15 402.467 494.537 407.358 489.543C412.249 484.549 419.695 482.055 429.701 482.055C439.707 482.055 447.24 484.58 452.081 489.624C456.922 494.674 459.339 502.462 459.339 512.986C459.339 523.511 456.922 531.317 452.081 536.392C447.24 541.468 439.782 544.005 429.701 544.005C419.62 544.005 412.019 541.455 407.221 536.349C402.424 531.249 400.025 523.255 400.025 512.375L400.019 512.382ZM429.701 492.261C424.343 492.261 420.33 493.939 417.676 497.28C415.022 500.629 413.695 505.691 413.695 512.463C413.695 519.807 414.978 525.182 417.551 528.599C420.124 532.015 424.174 533.718 429.695 533.718C435.215 533.718 439.171 532.022 441.8 528.636C444.424 525.25 445.738 520.032 445.738 512.986C445.738 505.941 444.424 500.691 441.8 497.318C439.171 493.945 435.14 492.255 429.695 492.255L429.701 492.261Z" fill="#8FC73E"/>
<path d="M467.919 483.227H483.738L508.093 525.986L507.489 483.227H520.274V542.746H505.751L480.181 497.723L480.748 542.746H467.919V483.227Z" fill="#8FC73E"/>
<path d="M556.878 493.596C552.349 493.596 548.935 494.731 546.635 497C544.336 499.27 543.059 502.737 542.816 507.406L577.408 507.444V517.806H542.735C542.76 522.988 543.857 526.716 546.031 528.979C548.199 531.249 551.819 532.384 556.885 532.384H577.414V542.746H556.28C551.614 542.746 547.95 542.347 545.283 541.549C542.617 540.751 540.106 539.411 537.763 537.521C534.716 535.09 532.43 531.929 530.91 528.026C529.383 524.122 528.623 519.465 528.623 514.034C528.623 503.51 530.903 495.741 535.458 490.728C540.012 485.721 547.078 483.215 556.648 483.215H577.421V493.577H556.891L556.878 493.596Z" fill="#8FC73E"/>
<path d="M485.346 6.23438H114.648C94.105 6.23438 77.4517 22.8996 77.4517 43.4571V414.419C77.4517 434.976 94.105 451.642 114.648 451.642H485.346C505.889 451.642 522.542 434.976 522.542 414.419V43.4571C522.542 22.8996 505.889 6.23438 485.346 6.23438Z" fill="#343433"/>
<path d="M485.346 457.877H114.654C90.7104 457.877 71.2275 438.38 71.2275 414.419V43.4577C71.2213 19.4967 90.7042 0 114.654 0H485.352C509.296 0 528.779 19.4967 528.779 43.4577V414.419C528.779 438.38 509.296 457.877 485.352 457.877H485.346ZM114.654 12.4699C97.5765 12.4699 83.6886 26.3739 83.6886 43.4577V414.419C83.6886 431.509 97.5827 445.407 114.654 445.407H485.352C502.43 445.407 516.318 431.503 516.318 414.419V43.4577C516.318 26.3677 502.424 12.4699 485.352 12.4699H114.654Z" fill="white"/>
<path d="M231.844 215.875L269.228 280.669C252.256 290.476 232.536 301.868 215.271 311.844C197.39 322.175 174.53 316.046 164.206 298.152C153.944 280.382 159.894 257.444 177.888 247.05L231.844 215.875Z" fill="#8FC73E"/>
<path d="M408.075 236.781C412.804 244.973 407.041 255.249 397.589 255.479L390.58 256.857L390.424 256.065L310.218 117.044L309.695 116.633L314.181 110.915C319.109 102.835 330.879 102.972 335.608 111.171C460.087 326.919 303.047 54.7259 408.075 236.781Z" fill="#E3F1D2"/>
<path d="M388.337 152.684L400.798 174.281L385.446 197.55L360.523 154.355L388.337 152.684Z" fill="#E3F1D2"/>
<path d="M238.299 276.943C241.277 275.222 242.299 271.407 240.579 268.426C238.86 265.446 235.047 264.423 232.069 266.144C229.09 267.865 228.069 271.681 229.788 274.661C231.508 277.641 235.321 278.664 238.299 276.943Z" fill="white"/>
<path d="M212.76 319.978L244.137 374.366C250.909 386.112 266.137 390.464 278.181 383.494C290.1 376.604 294.193 361.36 287.302 349.426L268.61 317.023L284.797 307.67C287.776 305.943 288.797 302.134 287.078 299.153L278.978 285.112C279.944 284.925 286.299 283.678 398.318 261.687C412.168 260.933 420.461 245.776 413.47 233.661L392.766 197.773L406 177.715C407.302 175.745 407.377 173.207 406.199 171.162L393.738 149.564C392.561 147.519 390.318 146.322 387.969 146.459L364 147.899L341.015 108.052C337.688 102.278 331.719 98.7865 325.059 98.6992C324.978 98.6992 324.903 98.6992 324.822 98.6992C318.386 98.6992 312.548 101.904 309.084 107.322L227.695 211.078L174.779 241.648C153.969 253.669 146.76 280.386 158.816 301.267C169.832 320.358 193.053 327.872 212.772 319.972L212.76 319.978ZM276.517 355.661C279.956 361.615 277.919 369.241 271.95 372.695C265.962 376.161 258.33 374.029 254.928 368.131L223.776 314.13L245.358 301.66C281.414 364.159 275.931 354.663 276.511 355.667L276.517 355.661ZM262.386 306.224L256.156 295.425L266.947 289.19L273.177 299.989L262.386 306.224ZM384.866 159.135L393.476 174.061L385.8 185.696L370.959 159.97L384.866 159.135ZM319.495 114.156C321.165 111.419 323.819 111.138 324.897 111.163C325.962 111.175 328.61 111.506 330.212 114.28L402.679 239.89C405.04 243.98 402.168 249.118 397.439 249.236C396.592 249.255 396.199 249.411 394.025 249.816L317.364 116.943C318.972 114.873 319.177 114.673 319.501 114.149L319.495 114.156ZM309.065 127.523L381.09 252.36L272.392 273.696L239.339 216.409L309.065 127.523ZM169.595 295.038C166.86 290.3 165.414 284.925 165.414 279.482C165.414 268.359 171.389 258.003 180.997 252.453L229.557 224.396L260.71 278.391L212.149 306.448C197.271 315.04 178.181 309.921 169.595 295.038Z" fill="#8FC73E"/>
<path d="M218.991 280.899C217.271 277.919 213.458 276.896 210.48 278.617L199.688 284.852C196.717 286.573 192.897 285.544 191.178 282.57C189.458 279.59 185.645 278.567 182.667 280.288C179.688 282.009 178.667 285.825 180.386 288.805C185.514 297.696 196.953 300.832 205.919 295.651L216.71 289.416C219.688 287.695 220.71 283.879 218.991 280.899Z" fill="white"/>
<path d="M462.704 112.036L427.987 131.371C424.984 133.048 423.9 136.845 425.57 139.85C427.24 142.856 431.034 143.947 434.044 142.27L468.76 122.935C471.769 121.258 472.847 117.461 471.177 114.455C469.508 111.444 465.713 110.365 462.704 112.036Z" fill="#8FC73E"/>
<path d="M459.059 176.613L434.984 170.16C431.657 169.268 428.243 171.238 427.352 174.568C426.461 177.897 428.436 181.314 431.757 182.206L455.832 188.659C459.178 189.557 462.573 187.555 463.464 184.251C464.355 180.921 462.38 177.504 459.059 176.613Z" fill="#8FC73E"/>
<path d="M398.567 89.3842L392.112 113.476C391.221 116.806 393.19 120.222 396.517 121.114C399.838 122.006 403.259 120.035 404.15 116.706L410.604 92.6139C411.495 89.2845 409.527 85.8677 406.199 84.9761C402.879 84.0845 399.458 86.0548 398.567 89.3842Z" fill="#8FC73E"/>
</g>
<defs>
<clipPath id="clip0_801_697">
<rect width="600" height="565" fill="white"/>
</clipPath>
</defs>
</svg>
