<svg width="500" height="500" viewBox="0 0 500 500" fill="none" xmlns="http://www.w3.org/2000/svg">
<path d="M123.644 218.802L182.237 320.285C155.636 335.647 124.728 353.488 97.6672 369.113C69.64 385.295 33.8101 375.695 17.6285 347.668C1.54465 319.836 10.8708 283.909 39.0737 267.629L123.644 218.802Z" fill="#8FC73E"/>
<path d="M399.863 251.545C407.275 264.377 398.242 280.471 383.427 280.832L372.441 282.991L372.197 281.75L246.475 63.9976L245.655 63.3531L252.686 54.3981C260.41 41.7419 278.858 41.9567 286.27 54.7985C481.376 392.717 235.235 -33.6093 399.853 251.536L399.863 251.545Z" fill="#E3F1D2"/>
<path d="M368.926 119.818L388.457 153.646L364.394 190.091L325.332 122.435L368.926 119.818Z" fill="#E3F1D2"/>
<path d="M133.751 314.446C138.419 311.75 140.02 305.774 137.325 301.106C134.63 296.438 128.653 294.836 123.985 297.532C119.317 300.227 117.716 306.203 120.411 310.871C123.107 315.539 129.083 317.141 133.751 314.446Z" fill="white"/>
<path d="M93.7317 381.848L142.911 467.033C153.526 485.431 177.393 492.247 196.27 481.329C214.952 470.538 221.368 446.662 210.567 427.97L181.27 377.219L206.641 362.57C211.309 359.865 212.911 353.898 210.215 349.231L197.52 327.238C199.034 326.945 208.995 324.992 384.57 290.549C406.279 289.368 419.277 265.627 408.32 246.653L375.869 190.442L396.611 159.026C398.652 155.941 398.769 151.966 396.923 148.763L377.392 114.935C375.547 111.732 372.031 109.857 368.349 110.072L330.781 112.327L294.756 49.9157C289.541 40.8728 280.186 35.404 269.746 35.2673C269.619 35.2673 269.502 35.2673 269.375 35.2673C259.287 35.2673 250.137 40.2868 244.707 48.7731L117.12 211.292L34.1812 259.172C1.56417 278 -9.73459 319.846 9.16179 352.551C26.4273 382.453 62.8236 394.221 93.7317 381.848ZM193.663 437.746C199.053 447.072 195.86 459.015 186.505 464.425C177.12 469.855 165.157 466.515 159.825 457.277L110.997 372.697L144.825 353.166C201.339 451.056 192.745 436.183 193.653 437.755L193.663 437.746ZM171.505 360.314L161.739 343.4L178.653 333.635L188.419 350.549L171.505 360.314ZM363.486 129.925L376.982 153.304L364.951 171.526L341.689 131.234L363.486 129.925ZM261.026 59.4859C263.643 55.1989 267.803 54.7594 269.492 54.7985C271.162 54.818 275.313 55.3356 277.822 59.6813L391.406 256.418C395.107 262.825 390.605 270.872 383.193 271.057C381.865 271.086 381.25 271.331 377.842 271.965L257.686 63.8512C260.205 60.609 260.528 60.2965 261.035 59.4762L261.026 59.4859ZM244.678 80.4233L357.568 275.95L187.198 309.367L135.392 219.641L244.678 80.4233ZM26.0758 342.785C21.7887 335.363 19.5231 326.945 19.5231 318.42C19.5231 300.998 28.8883 284.778 43.9468 276.086L120.06 232.141L168.888 316.711L92.7746 360.656C69.4544 374.113 39.5327 366.096 26.0758 342.785Z" fill="#8FC73E"/>
<path d="M103.497 320.637C100.802 315.969 94.8254 314.367 90.1575 317.063L73.2435 326.828C68.5853 329.524 62.599 327.912 59.9037 323.254C57.2084 318.586 51.2319 316.985 46.5639 319.68C41.896 322.375 40.2944 328.352 42.9897 333.02C51.0268 346.945 68.9564 351.857 83.0091 343.742L99.923 333.977C104.591 331.281 106.193 325.305 103.497 320.637Z" fill="white"/>
<path d="M485.487 56.1656L431.074 86.4487C426.367 89.0756 424.667 95.0229 427.285 99.7299C429.902 104.437 435.849 106.146 440.566 103.519L494.98 73.2359C499.696 70.6089 501.386 64.6617 498.769 59.9547C496.151 55.2379 490.204 53.5485 485.487 56.1656Z" fill="#8FC73E"/>
<path d="M479.775 157.308L442.04 147.2C436.826 145.804 431.474 148.89 430.078 154.105C428.681 159.319 431.777 164.671 436.982 166.067L474.716 176.175C479.96 177.581 485.282 174.446 486.679 169.271C488.075 164.056 484.98 158.704 479.775 157.308Z" fill="#8FC73E"/>
<path d="M384.961 20.6776L374.843 58.4117C373.447 63.6265 376.533 68.9781 381.748 70.3746C386.953 71.771 392.314 68.6851 393.711 63.4703L403.828 25.7361C405.224 20.5213 402.138 15.1698 396.923 13.7733C391.718 12.3768 386.357 15.4627 384.961 20.6776Z" fill="#8FC73E"/>
</svg>
