<svg width="332" height="72" viewBox="0 0 332 72" fill="none" xmlns="http://www.w3.org/2000/svg">
<path d="M254.989 62.0395H249.296V56.3459C249.296 55.5599 248.659 54.9238 247.874 54.9238C247.088 54.9238 246.451 55.5627 246.451 56.3459V62.0395H240.758C239.972 62.0395 239.336 62.6785 239.336 63.4616C239.336 64.2447 239.972 64.8836 240.758 64.8836H246.451V70.5773C246.451 71.3632 247.088 71.9993 247.874 71.9993C248.659 71.9993 249.296 71.3604 249.296 70.5773V64.8836H254.989C255.775 64.8836 256.411 64.2447 256.411 63.4616C256.411 62.6785 255.775 62.0395 254.989 62.0395Z" fill="white"/>
<path d="M274.792 60.5286C274.792 61.4944 274.571 62.381 274.128 63.1885C273.685 63.9801 273.005 64.6213 272.088 65.1121C271.171 65.6029 270.033 65.8483 268.673 65.8483H266.159V71.8331H262.103V55.1613H268.673C270.001 55.1613 271.124 55.3909 272.041 55.85C272.958 56.3092 273.646 56.9425 274.104 57.7499C274.563 58.5574 274.792 59.4836 274.792 60.5286ZM268.364 62.6185C269.139 62.6185 269.716 62.4364 270.096 62.0723C270.475 61.7081 270.665 61.1935 270.665 60.5286C270.665 59.8636 270.475 59.349 270.096 58.9849C269.716 58.6207 269.139 58.4387 268.364 58.4387H266.159V62.6185H268.364Z" fill="white"/>
<path d="M283.806 68.6982H289.119V71.8331H279.75V55.1613H283.806V68.6982Z" fill="white"/>
<path d="M297.884 55.1613V65.1359C297.884 66.1333 298.129 66.9012 298.619 67.4395C299.109 67.9778 299.829 68.247 300.778 68.247C301.726 68.247 302.454 67.9778 302.96 67.4395C303.466 66.9012 303.719 66.1333 303.719 65.1359V55.1613H307.775V65.1121C307.775 66.6004 307.458 67.8591 306.826 68.8882C306.193 69.9173 305.339 70.6931 304.264 71.2156C303.205 71.7381 302.019 71.9993 300.706 71.9993C299.394 71.9993 298.216 71.746 297.172 71.2393C296.145 70.7169 295.33 69.9411 294.729 68.9119C294.129 67.867 293.828 66.6004 293.828 65.1121V55.1613H297.884Z" fill="white"/>
<path d="M319.493 71.9993C318.276 71.9993 317.185 71.8014 316.22 71.4056C315.256 71.0098 314.481 70.424 313.896 69.6482C313.327 68.8724 313.026 67.9382 312.994 66.8458H317.311C317.374 67.4633 317.588 67.9382 317.952 68.2707C318.315 68.5874 318.79 68.7457 319.375 68.7457C319.976 68.7457 320.45 68.6111 320.798 68.342C321.146 68.057 321.32 67.6691 321.32 67.1783C321.32 66.7666 321.177 66.4262 320.893 66.1571C320.624 65.8879 320.284 65.6663 319.873 65.4921C319.478 65.3179 318.908 65.12 318.165 64.8984C317.09 64.5659 316.212 64.2334 315.532 63.9009C314.852 63.5684 314.267 63.0776 313.777 62.4285C313.287 61.7794 313.042 60.9323 313.042 59.8874C313.042 58.3358 313.603 57.1246 314.726 56.2538C315.849 55.3671 317.311 54.9238 319.114 54.9238C320.948 54.9238 322.426 55.3671 323.549 56.2538C324.672 57.1246 325.273 58.3437 325.352 59.9111H320.964C320.932 59.3728 320.735 58.9532 320.371 58.6524C320.007 58.3358 319.541 58.1774 318.972 58.1774C318.481 58.1774 318.086 58.312 317.786 58.5812C317.485 58.8345 317.335 59.2065 317.335 59.6974C317.335 60.2357 317.588 60.6552 318.094 60.9561C318.6 61.2569 319.391 61.5814 320.466 61.9298C321.541 62.2939 322.411 62.6422 323.075 62.9747C323.755 63.3072 324.34 63.7901 324.83 64.4234C325.32 65.0567 325.565 65.8721 325.565 66.8695C325.565 67.8195 325.32 68.6824 324.83 69.4582C324.356 70.234 323.66 70.8514 322.743 71.3106C321.826 71.7697 320.742 71.9993 319.493 71.9993Z" fill="white"/>
<path d="M29.8217 25.0219C32.6752 25.6306 34.9674 27.0587 36.6982 29.3062C38.429 31.5069 39.2944 34.0354 39.2944 36.8917C39.2944 41.0121 37.8443 44.2898 34.944 46.7246C32.0905 49.1126 28.0908 50.3066 22.9451 50.3066H0V1.00134H22.1733C27.1787 1.00134 31.0847 2.14852 33.8915 4.44287C36.745 6.73723 38.1717 9.851 38.1717 13.7842C38.1717 16.6873 37.3999 19.0987 35.8562 21.0184C34.3592 22.9382 32.3477 24.2727 29.8217 25.0219ZM11.9988 20.9482H19.8577C21.8225 20.9482 23.3194 20.5268 24.3485 19.684C25.4244 18.7943 25.9624 17.5067 25.9624 15.821C25.9624 14.1354 25.4244 12.8477 24.3485 11.9581C23.3194 11.0684 21.8225 10.6236 19.8577 10.6236H11.9988V20.9482ZM20.8401 40.6141C22.8516 40.6141 24.3953 40.1693 25.4712 39.2797C26.5939 38.3432 27.1553 37.0087 27.1553 35.2762C27.1553 33.5438 26.5705 32.1859 25.401 31.2026C24.2783 30.2193 22.7113 29.7276 20.6998 29.7276H11.9988V40.6141H20.8401Z" fill="white"/>
<path d="M120.698 50.3066L110.664 35.206L101.823 50.3066H88.21L103.998 25.2326L87.8592 1.00134H101.823L111.717 15.8913L120.417 1.00134H134.03L118.383 25.8647L134.662 50.3066H120.698Z" fill="white"/>
<path d="M152.684 41.0355H168.402V50.3066H140.685V1.00134H152.684V41.0355Z" fill="white"/>
<path d="M204.789 41.5974H186.404L183.457 50.3066H170.897L188.72 1.00134H202.613L220.436 50.3066H207.736L204.789 41.5974ZM201.701 32.3263L195.597 14.2758L189.562 32.3263H201.701Z" fill="white"/>
<path d="M269.927 50.3066H257.928L237.859 19.8947V50.3066H225.861V1.00134H237.859L257.928 31.5538V1.00134H269.927V50.3066Z" fill="white"/>
<path d="M311.323 16.5936C310.434 14.9548 309.148 13.714 307.463 12.8711C305.826 11.9815 303.885 11.5367 301.639 11.5367C297.757 11.5367 294.646 12.8243 292.307 15.3996C289.968 17.9281 288.799 21.3228 288.799 25.5837C288.799 30.1256 290.015 33.6842 292.447 36.2595C294.927 38.788 298.318 40.0522 302.622 40.0522C305.569 40.0522 308.048 39.3031 310.06 37.8047C312.118 36.3064 313.615 34.1525 314.55 31.3431H299.324V22.4934H325.427V33.6608C324.538 36.6575 323.017 39.4435 320.866 42.0188C318.761 44.5941 316.071 46.6778 312.796 48.2698C309.522 49.8618 305.826 50.6578 301.71 50.6578C296.845 50.6578 292.494 49.6043 288.658 47.4972C284.869 45.3433 281.899 42.37 279.747 38.5773C277.642 34.7846 276.589 30.4534 276.589 25.5837C276.589 20.7141 277.642 16.3829 279.747 12.5902C281.899 8.75065 284.869 5.77735 288.658 3.67028C292.447 1.5164 296.774 0.439453 301.639 0.439453C307.534 0.439453 312.492 1.86757 316.515 4.72382C320.585 7.58006 323.275 11.5367 324.585 16.5936H311.323Z" fill="white"/>
<path d="M59.9623 7.60446L64.5606 3.78976L64.5653 3.78516L64.5746 3.79205C64.7374 3.81735 64.8979 3.84264 65.0607 3.87253C74.9388 5.81783 81.335 15.319 79.365 25.0684C77.4159 34.7351 67.975 41.0263 58.2179 39.258C60.3228 38.7866 62.3464 37.8301 64.114 36.3654C70.0381 31.4493 70.8126 22.7161 65.8399 16.8596C62.9906 13.5024 58.8715 11.8216 54.7593 11.9204L59.9646 7.60216L59.9623 7.60446Z" fill="white"/>
<path d="M44.1743 42.3668C43.2574 41.2104 43.4009 39.4841 44.4926 38.5128C45.5843 37.5416 47.214 37.6936 48.1309 38.85C49.0477 40.0065 48.9043 41.7328 47.8126 42.704C46.7209 43.6752 45.0912 43.5233 44.1743 42.3668Z" fill="white"/>
<path d="M69.9534 49.9966C61.5868 51.6341 53.3563 49.1733 47.4429 44.0389C47.788 43.8948 48.119 43.7027 48.4194 43.4534C49.0392 42.9457 49.4571 42.2916 49.6613 41.5872C50.9571 42.3122 52.3257 42.9297 53.7671 43.41C66.0776 47.5335 79.475 41.1458 83.6935 29.155C87.9261 17.1618 81.3694 4.10978 69.0613 0C79.7801 1.71984 88.2759 9.71298 90.3957 20.0709C93.2315 33.8365 84.0832 47.2293 69.9534 49.9943V49.9966Z" fill="white"/>
<path d="M328.859 0C329.553 0 330.2 0.258014 330.658 0.750366C330.881 0.97287 331.058 1.25455 331.187 1.5599C331.434 2.18126 331.434 2.87363 331.187 3.48315C331.07 3.7885 330.881 4.07019 330.634 4.29269C330.387 4.53887 330.128 4.71521 329.798 4.84422C329.492 4.96139 329.175 5.0324 328.846 5.0324C328.516 5.0324 328.175 4.97322 327.869 4.83357C327.563 4.69391 327.28 4.50454 327.033 4.2702C326.563 3.80152 326.305 3.17898 326.305 2.53395C326.305 1.88892 326.328 2.08776 326.387 1.86526C326.445 1.64275 326.552 1.41906 326.645 1.2439C327.151 0.469865 327.974 0 328.856 0M328.87 0.422524C328.612 0.422524 328.317 0.45803 328.082 0.563365C327.836 0.668699 327.612 0.809535 327.412 1.00955C327.211 1.20957 327.048 1.45575 326.942 1.70193C326.612 2.46412 326.777 3.379 327.389 3.96603C327.589 4.16487 327.813 4.32937 328.084 4.43471C328.33 4.54004 328.613 4.59922 328.895 4.59922C329.178 4.59922 329.448 4.54004 329.683 4.43471C329.942 4.32937 330.165 4.1767 330.378 3.98852C330.59 3.80034 330.718 3.58967 330.825 3.31982C330.931 3.07364 330.99 2.81563 330.99 2.53395C330.99 2.25227 330.954 1.97059 330.825 1.70074C330.719 1.44273 330.566 1.22022 330.378 1.03204C330.178 0.833206 329.954 0.668699 329.683 0.563365C329.425 0.493536 329.142 0.422524 328.872 0.422524M327.824 1.07939H328.918C329.224 1.05571 329.541 1.11489 329.812 1.27822C330.011 1.41906 330.118 1.64157 330.118 1.88774C330.118 2.13392 330.058 2.22741 329.953 2.35642C329.835 2.49726 329.67 2.57893 329.505 2.61444L330.128 3.86898H329.376L328.847 2.74344H328.506V3.89265H327.836V1.07702H327.824V1.07939ZM328.494 1.52558V2.33512H328.835C328.976 2.35879 329.141 2.31145 329.282 2.22979C329.388 2.17061 329.423 2.0416 329.423 1.92443C329.423 1.80726 329.388 1.67825 329.282 1.59541C329.141 1.51374 328.976 1.47824 328.812 1.49008L328.494 1.52558Z" fill="white"/>
</svg>
