<svg width="507" height="100" viewBox="0 0 507 100" fill="none" xmlns="http://www.w3.org/2000/svg">
<mask id="mask0_675_3376" style="mask-type:alpha" maskUnits="userSpaceOnUse" x="0" y="0" width="100" height="100">
<path d="M59.6008 94.6036C35.47 94.6036 15.9098 75.114 15.9098 51.0704C15.9098 27.0268 35.47 7.53717 59.6008 7.53717C71.7706 7.53717 82.7717 12.4975 90.6943 20.5005C81.5682 8.07731 66.8271 0 50.1862 0C22.4697 0 0 22.3835 0 50C0 77.6164 22.4697 100 50.1812 100C62.6843 100 74.1131 95.4311 82.906 87.889C76.1571 92.1407 68.1699 94.6085 59.6008 94.6085" fill="url(#paint0_linear_675_3376)"/>
<path d="M74.6209 14.5339C85.1246 20.6638 92.1868 32.0215 92.1868 45.0245C92.1868 64.529 76.3168 80.3367 56.7466 80.3416C38.5341 80.3416 23.5394 66.6548 21.5401 49.0433C21.5053 49.7371 21.4805 50.4308 21.4805 51.1296C21.4805 72.7351 39.0613 90.2475 60.7402 90.2475C82.4191 90.2475 100 72.7301 100 51.1296C100 34.3952 89.4515 20.1236 74.6209 14.5339Z" fill="url(#paint1_linear_675_3376)"/>
<path d="M55.693 17.2422C42.5186 17.2422 31.3931 25.9736 27.8173 37.9459C31.8109 29.0658 40.758 22.8814 51.1573 22.8814C65.2817 22.8814 76.7303 34.2888 76.7303 48.3621C76.7303 62.4355 65.2817 73.8428 51.1573 73.8428C48.8497 73.8428 46.6116 73.5306 44.483 72.9607C47.9296 74.3978 51.7193 75.1907 55.693 75.1956C71.757 75.1956 84.7723 62.2174 84.7723 46.2164C84.7723 30.2105 71.752 17.2422 55.693 17.2422Z" fill="url(#paint2_linear_675_3376)"/>
</mask>
<g mask="url(#mask0_675_3376)">
<rect x="-2.85941" y="-2.85449" width="104.285" height="104.286" fill="url(#paint3_linear_675_3376)"/>
</g>
<path d="M503.773 20.9072C504.649 20.9072 505.464 21.2326 506.042 21.8536C506.324 22.1342 506.547 22.4894 506.71 22.8745C507.021 23.6581 507.021 24.5313 506.71 25.3C506.561 25.6851 506.324 26.0404 506.012 26.321C505.701 26.6315 505.375 26.8539 504.958 27.0166C504.572 27.1643 504.173 27.2539 503.757 27.2539C503.341 27.2539 502.911 27.1793 502.525 27.0031C502.139 26.827 501.782 26.5882 501.471 26.2926C500.878 25.7016 500.552 24.9164 500.552 24.1029C500.552 23.2895 500.582 23.5402 500.655 23.2596C500.729 22.979 500.863 22.6969 500.982 22.476C501.619 21.4998 502.658 20.9072 503.77 20.9072M503.788 21.4401C503.462 21.4401 503.091 21.4849 502.794 21.6177C502.483 21.7506 502.202 21.9282 501.949 22.1804C501.696 22.4327 501.489 22.7432 501.356 23.0536C500.94 24.0149 501.148 25.1687 501.92 25.909C502.172 26.1598 502.454 26.3673 502.796 26.5001C503.107 26.633 503.463 26.7076 503.819 26.7076C504.176 26.7076 504.517 26.633 504.813 26.5001C505.14 26.3673 505.421 26.1747 505.689 25.9374C505.957 25.7001 506.118 25.4344 506.253 25.0941C506.386 24.7836 506.461 24.4582 506.461 24.1029C506.461 23.7477 506.416 23.3925 506.253 23.0521C506.12 22.7267 505.927 22.4461 505.689 22.2088C505.437 21.958 505.155 21.7506 504.813 21.6177C504.487 21.5297 504.131 21.4401 503.79 21.4401M502.468 22.2685H503.848C504.234 22.2387 504.634 22.3133 504.975 22.5193C505.226 22.6969 505.361 22.9775 505.361 23.288C505.361 23.5984 505.286 23.7164 505.153 23.879C505.005 24.0567 504.797 24.1597 504.589 24.2045L505.375 25.7866H504.426L503.758 24.3671H503.329V25.8165H502.483V22.2655H502.468V22.2685ZM503.314 22.8312V23.8522H503.743C503.921 23.882 504.129 23.8223 504.307 23.7193C504.441 23.6447 504.486 23.482 504.486 23.3342C504.486 23.1865 504.441 23.0238 504.307 22.9193C504.129 22.8163 503.921 22.7715 503.715 22.7865L503.314 22.8312Z" fill="#1D3366"/>
<path d="M381.379 54.5306C383.424 57.1541 384.446 60.1551 384.446 63.5243C384.446 68.3848 382.742 72.2418 379.343 75.0863C375.945 77.9308 371.201 79.3484 365.123 79.3484H338.016V21.1885H364.211C370.124 21.1885 374.747 22.5417 378.1 25.2481C381.443 27.9545 383.11 31.6274 383.11 36.267C383.11 39.6914 382.208 42.5359 380.421 44.8004C378.625 47.065 376.23 48.6391 373.246 49.5228C376.617 50.2408 379.325 51.9162 381.37 54.5306H381.379ZM352.2 44.7176H361.484C363.805 44.7176 365.592 44.2113 366.836 43.1803C368.079 42.1585 368.696 40.658 368.696 38.6696C368.696 36.6812 368.079 35.1623 366.836 34.1129C365.592 33.0635 363.805 32.5388 361.484 32.5388H352.2V44.7176ZM368.153 66.3043C369.451 65.2273 370.105 63.6716 370.105 61.628C370.105 59.5844 369.424 57.9826 368.07 56.8227C366.716 55.6628 364.846 55.0829 362.47 55.0829H352.191V67.9245H362.636C365.012 67.9245 366.845 67.3906 368.144 66.3135L368.153 66.3043Z" fill="#1D3366"/>
<path d="M481.74 79.3484L469.806 61.5359L459.29 79.3484H443.099L461.877 49.7714L442.682 21.1885H459.29L471.058 38.7525L481.407 21.1885H497.598L478.986 50.517L498.349 79.3484H481.74Z" fill="#1D3366"/>
<path d="M422.914 75.246C408.879 75.246 397.503 63.9109 397.503 49.9271C397.503 35.9434 408.879 24.6082 422.914 24.6082C429.992 24.6082 436.39 27.4932 440.998 32.1477C435.69 24.9224 427.117 20.2246 417.438 20.2246C401.318 20.2246 388.25 33.2429 388.25 49.3046C388.25 65.3663 401.318 78.3846 417.435 78.3846C424.707 78.3846 431.354 75.7273 436.468 71.3408C432.543 73.8136 427.898 75.2489 422.914 75.2489" fill="#1D3366"/>
<path d="M431.649 28.6782C437.758 32.2433 441.866 38.849 441.866 46.4115C441.866 57.7553 432.636 66.9491 421.254 66.952C410.661 66.952 401.941 58.9917 400.778 48.7489C400.758 49.1524 400.743 49.5559 400.743 49.9622C400.743 62.528 410.968 72.7132 423.576 72.7132C436.185 72.7132 446.41 62.5251 446.41 49.9622C446.41 40.2295 440.275 31.9292 431.649 28.6782Z" fill="#1D3366"/>
<path d="M420.64 30.2527C412.978 30.2527 406.508 35.3309 404.428 42.2939C406.751 37.1293 411.954 33.5325 418.002 33.5325C426.217 33.5325 432.876 40.167 432.876 48.352C432.876 56.5371 426.217 63.1716 418.002 63.1716C416.66 63.1716 415.359 62.99 414.121 62.6586C416.125 63.4944 418.329 63.9555 420.64 63.9584C429.983 63.9584 437.553 56.4103 437.553 47.1041C437.553 37.795 429.98 30.2527 420.64 30.2527Z" fill="#1D3366"/>
<path d="M116.183 34.5794C118.639 30.1115 122.059 26.6304 126.451 24.136C130.844 21.6416 135.828 20.3899 141.394 20.3899C148.215 20.3899 154.054 22.199 158.911 25.8172C163.767 29.4354 167.014 34.3693 168.651 40.6189H153.263C152.117 38.2068 150.489 36.3703 148.397 35.1094C146.296 33.8485 143.904 33.218 141.23 33.218C136.919 33.218 133.427 34.7256 130.753 37.7408C128.079 40.7559 126.742 44.7853 126.742 49.8288C126.742 54.8724 128.079 58.9017 130.753 61.9169C133.427 64.9321 136.919 66.4396 141.23 66.4396C143.904 66.4396 146.287 65.8092 148.397 64.5483C150.498 63.2874 152.117 61.4509 153.263 59.0388H168.651C167.014 65.2884 163.767 70.2132 158.911 73.8039C154.054 77.3947 148.215 79.1947 141.394 79.1947C135.828 79.1947 130.844 77.9521 126.451 75.4486C122.059 72.9542 118.639 69.4914 116.183 65.0508C113.728 60.6012 112.5 55.5302 112.5 49.8288C112.5 44.1274 113.728 39.0474 116.183 34.5794Z" fill="#1D3366"/>
<path d="M189.56 75.5665C185.058 73.0448 181.484 69.5179 178.837 64.9952C176.191 60.4725 174.872 55.3924 174.872 49.7458C174.872 44.0992 176.191 39.0283 178.837 34.5329C181.484 30.0376 185.058 26.529 189.56 24.0073C194.062 21.4855 199.019 20.2246 204.412 20.2246C209.805 20.2246 214.771 21.4855 219.264 24.0073C223.765 26.529 227.312 30.0376 229.904 34.5329C232.496 39.0283 233.788 44.0992 233.788 49.7458C233.788 55.3924 232.478 60.4816 229.859 64.9952C227.24 69.5179 223.693 73.0448 219.218 75.5665C214.743 78.0883 209.805 79.3492 204.403 79.3492C199 79.3492 194.053 78.0883 189.551 75.5665H189.56ZM215.426 61.9161C218.181 58.8461 219.555 54.7893 219.555 49.7458C219.555 44.7022 218.172 40.5724 215.426 37.5389C212.67 34.4964 209.005 32.9705 204.421 32.9705C199.837 32.9705 196.081 34.4781 193.334 37.4933C190.579 40.5084 189.205 44.5926 189.205 49.7458C189.205 54.899 190.579 58.9192 193.334 61.9618C196.09 65.0043 199.783 66.521 204.421 66.521C209.059 66.521 212.67 64.9861 215.426 61.9161Z" fill="#1D3366"/>
<path d="M255.578 67.9199H273.913V78.7745H241.582V21.0479H255.578V67.9199Z" fill="#1D3366"/>
<path d="M318.031 24.666C322.56 27.0782 326.062 30.4679 328.545 34.8262C331.028 39.1845 332.274 44.2189 332.274 49.9203C332.274 55.6217 331.028 60.583 328.545 64.9687C326.062 69.3544 322.542 72.7533 317.986 75.1654C313.429 77.5776 308.145 78.7836 302.143 78.7836H280.616V21.0479H302.143C308.2 21.0479 313.493 22.2539 318.022 24.666H318.031ZM313.611 62.2459C316.558 59.3404 318.031 55.2288 318.031 49.9112C318.031 44.5935 316.558 40.4545 313.611 37.4942C310.665 34.5338 306.545 33.0537 301.252 33.0537H294.621V66.6042H301.252C306.545 66.6042 310.665 65.1514 313.611 62.2459Z" fill="#1D3366"/>
<defs>
<linearGradient id="paint0_linear_675_3376" x1="80.6702" y1="10" x2="16.9908" y2="85.2989" gradientUnits="userSpaceOnUse">
<stop offset="0.278846" stop-color="#00BFF3"/>
<stop offset="0.735577" stop-color="#034DC7"/>
<stop offset="1" stop-color="#1D1E63"/>
</linearGradient>
<linearGradient id="paint1_linear_675_3376" x1="91.3215" y1="22.1053" x2="44.5722" y2="85.3158" gradientUnits="userSpaceOnUse">
<stop offset="0.278846" stop-color="#00BFF3"/>
<stop offset="0.735577" stop-color="#034DC7"/>
<stop offset="1" stop-color="#1D1E63"/>
</linearGradient>
<linearGradient id="paint2_linear_675_3376" x1="78.4772" y1="23.0375" x2="42.1745" y2="69.5535" gradientUnits="userSpaceOnUse">
<stop offset="0.278846" stop-color="#00BFF3"/>
<stop offset="0.735577" stop-color="#034DC7"/>
<stop offset="1" stop-color="#1D1E63"/>
</linearGradient>
<linearGradient id="paint3_linear_675_3376" x1="79.8618" y1="21.6816" x2="16.0679" y2="96.6916" gradientUnits="userSpaceOnUse">
<stop offset="0.278846" stop-color="#33CFFF"/>
<stop offset="1" stop-color="#0D87C5"/>
</linearGradient>
</defs>
</svg>
