<svg width="75" height="75" viewBox="0 0 75 75" fill="none" xmlns="http://www.w3.org/2000/svg">
<mask id="mask0_675_3180" style="mask-type:alpha" maskUnits="userSpaceOnUse" x="0" y="0" width="75" height="75">
<path d="M44.7006 70.9527C26.6025 70.9527 11.9323 56.3355 11.9323 38.3028C11.9323 20.2701 26.6025 5.65287 44.7006 5.65287C53.828 5.65287 62.0788 9.37314 68.0207 15.3754C61.1761 6.05798 50.1203 0 37.6397 0C16.8523 0 0 16.7877 0 37.5C0 58.2123 16.8523 75 37.636 75C47.0132 75 55.5848 71.5733 62.1795 65.9168C57.1179 69.1056 51.1275 70.9564 44.7006 70.9564" fill="url(#paint0_linear_675_3180)"/>
<path d="M55.9657 10.9006C63.8435 15.498 69.1401 24.0163 69.1401 33.7686C69.1401 48.3969 57.2376 60.2527 42.56 60.2564C28.9006 60.2564 17.6546 49.9913 16.1551 36.7827C16.129 37.303 16.1104 37.8233 16.1104 38.3474C16.1104 54.5515 29.296 67.6858 45.5552 67.6858C61.8144 67.6858 75 54.5478 75 38.3474C75 25.7966 67.0886 15.0929 55.9657 10.9006Z" fill="url(#paint1_linear_675_3180)"/>
<path d="M41.7698 12.9316C31.889 12.9316 23.5449 19.4802 20.863 28.4594C23.8582 21.7993 30.5686 17.1611 38.3681 17.1611C48.9613 17.1611 57.5478 25.7166 57.5478 36.2716C57.5478 46.8266 48.9613 55.3821 38.3681 55.3821C36.6373 55.3821 34.9588 55.148 33.3624 54.7206C35.9473 55.7984 38.7895 56.393 41.7698 56.3967C53.8178 56.3967 63.5793 46.6631 63.5793 34.6623C63.5793 22.6579 53.8141 12.9316 41.7698 12.9316Z" fill="url(#paint2_linear_675_3180)"/>
</mask>
<g mask="url(#mask0_675_3180)">
<rect x="-2.14453" y="-2.14087" width="78.2139" height="78.2143" fill="#1D3366"/>
</g>
<defs>
<linearGradient id="paint0_linear_675_3180" x1="60.5027" y1="7.5" x2="12.7431" y2="63.9742" gradientUnits="userSpaceOnUse">
<stop offset="0.278846" stop-color="#00BFF3"/>
<stop offset="0.735577" stop-color="#034DC7"/>
<stop offset="1" stop-color="#1D1E63"/>
</linearGradient>
<linearGradient id="paint1_linear_675_3180" x1="68.4911" y1="16.5791" x2="33.4292" y2="63.987" gradientUnits="userSpaceOnUse">
<stop offset="0.278846" stop-color="#00BFF3"/>
<stop offset="0.735577" stop-color="#034DC7"/>
<stop offset="1" stop-color="#1D1E63"/>
</linearGradient>
<linearGradient id="paint2_linear_675_3180" x1="58.858" y1="17.2781" x2="31.631" y2="52.1651" gradientUnits="userSpaceOnUse">
<stop offset="0.278846" stop-color="#00BFF3"/>
<stop offset="0.735577" stop-color="#034DC7"/>
<stop offset="1" stop-color="#1D1E63"/>
</linearGradient>
</defs>
</svg>
