<svg width="75" height="75" viewBox="0 0 75 75" fill="none" xmlns="http://www.w3.org/2000/svg">
<mask id="mask0_675_3201" style="mask-type:alpha" maskUnits="userSpaceOnUse" x="0" y="0" width="75" height="75">
<path d="M44.7006 70.9527C26.6025 70.9527 11.9323 56.3355 11.9323 38.3028C11.9323 20.2701 26.6025 5.65287 44.7006 5.65287C53.828 5.65287 62.0788 9.37314 68.0207 15.3754C61.1761 6.05798 50.1203 0 37.6397 0C16.8523 0 0 16.7877 0 37.5C0 58.2123 16.8523 75 37.636 75C47.0132 75 55.5848 71.5733 62.1795 65.9168C57.1179 69.1056 51.1275 70.9564 44.7006 70.9564" fill="url(#paint0_linear_675_3201)"/>
<path d="M55.9657 10.9004C63.8435 15.4978 69.1401 24.0161 69.1401 33.7683C69.1401 48.3967 57.2376 60.2525 42.56 60.2562C28.9006 60.2562 17.6546 49.9911 16.1551 36.7824C16.129 37.3028 16.1104 37.8231 16.1104 38.3471C16.1104 54.5513 29.296 67.6856 45.5552 67.6856C61.8144 67.6856 75 54.5476 75 38.3471C75 25.7963 67.0886 15.0927 55.9657 10.9004Z" fill="url(#paint1_linear_675_3201)"/>
<path d="M41.7698 12.9312C31.889 12.9312 23.5449 19.4797 20.863 28.4589C23.8582 21.7988 30.5686 17.1606 38.3681 17.1606C48.9613 17.1606 57.5478 25.7161 57.5478 36.2711C57.5478 46.8261 48.9613 55.3816 38.3681 55.3816C36.6373 55.3816 34.9588 55.1475 33.3624 54.7201C35.9473 55.7979 38.7895 56.3925 41.7698 56.3962C53.8178 56.3962 63.5793 46.6626 63.5793 34.6618C63.5793 22.6574 53.8141 12.9312 41.7698 12.9312Z" fill="url(#paint2_linear_675_3201)"/>
</mask>
<g mask="url(#mask0_675_3201)">
<rect x="-2.14453" y="-2.14111" width="78.2139" height="78.2143" fill="white"/>
</g>
<defs>
<linearGradient id="paint0_linear_675_3201" x1="60.5027" y1="7.5" x2="12.7431" y2="63.9742" gradientUnits="userSpaceOnUse">
<stop offset="0.278846" stop-color="#00BFF3"/>
<stop offset="0.735577" stop-color="#034DC7"/>
<stop offset="1" stop-color="#1D1E63"/>
</linearGradient>
<linearGradient id="paint1_linear_675_3201" x1="68.4911" y1="16.5789" x2="33.4292" y2="63.9868" gradientUnits="userSpaceOnUse">
<stop offset="0.278846" stop-color="#00BFF3"/>
<stop offset="0.735577" stop-color="#034DC7"/>
<stop offset="1" stop-color="#1D1E63"/>
</linearGradient>
<linearGradient id="paint2_linear_675_3201" x1="58.858" y1="17.2777" x2="31.631" y2="52.1646" gradientUnits="userSpaceOnUse">
<stop offset="0.278846" stop-color="#00BFF3"/>
<stop offset="0.735577" stop-color="#034DC7"/>
<stop offset="1" stop-color="#1D1E63"/>
</linearGradient>
</defs>
</svg>
