<svg width="250" height="250" viewBox="0 0 250 250" fill="none" xmlns="http://www.w3.org/2000/svg">
<mask id="mask0_557_1949" style="mask-type:alpha" maskUnits="userSpaceOnUse" x="0" y="0" width="250" height="250">
<path d="M149.002 236.509C88.6751 236.509 39.7745 187.785 39.7745 127.676C39.7745 67.5669 88.6751 18.8429 149.002 18.8429C179.427 18.8429 206.929 31.2438 226.736 51.2512C203.92 20.1933 167.068 0 125.466 0C56.1742 0 0 55.9589 0 125C0 194.041 56.1742 250 125.453 250C156.711 250 185.283 238.578 207.265 219.723C190.393 230.352 170.425 236.521 149.002 236.521" fill="url(#paint0_linear_557_1949)"/>
<path d="M186.552 36.3354C212.812 51.66 230.467 80.0545 230.467 112.562C230.467 161.323 190.792 200.842 141.867 200.855C96.3354 200.855 58.8486 166.638 53.8504 122.609C53.7633 124.343 53.7012 126.078 53.7012 127.825C53.7012 181.838 97.6533 225.619 151.851 225.619C206.048 225.619 250 181.826 250 127.825C250 85.9885 223.629 50.3097 186.552 36.3354Z" fill="url(#paint1_linear_557_1949)"/>
<path d="M139.233 43.105C106.296 43.105 78.4828 64.9335 69.5432 94.8642C79.5272 72.664 101.895 57.2031 127.893 57.2031C163.204 57.2031 191.826 85.7214 191.826 120.905C191.826 156.088 163.204 184.607 127.893 184.607C122.124 184.607 116.529 183.826 111.208 182.401C119.824 185.994 129.298 187.976 139.233 187.989C179.392 187.989 211.931 155.543 211.931 115.541C211.931 75.5257 179.38 43.105 139.233 43.105Z" fill="url(#paint2_linear_557_1949)"/>
</mask>
<g mask="url(#mask0_557_1949)">
<rect x="-7.14844" y="-7.13623" width="260.713" height="260.714" fill="url(#paint3_linear_557_1949)"/>
</g>
<defs>
<linearGradient id="paint0_linear_557_1949" x1="201.676" y1="25" x2="42.4771" y2="213.247" gradientUnits="userSpaceOnUse">
<stop offset="0.278846" stop-color="#00BFF3"/>
<stop offset="0.735577" stop-color="#034DC7"/>
<stop offset="1" stop-color="#1D1E63"/>
</linearGradient>
<linearGradient id="paint1_linear_557_1949" x1="228.304" y1="55.2638" x2="111.431" y2="213.29" gradientUnits="userSpaceOnUse">
<stop offset="0.278846" stop-color="#00BFF3"/>
<stop offset="0.735577" stop-color="#034DC7"/>
<stop offset="1" stop-color="#1D1E63"/>
</linearGradient>
<linearGradient id="paint2_linear_557_1949" x1="196.193" y1="57.5933" x2="105.436" y2="173.883" gradientUnits="userSpaceOnUse">
<stop offset="0.278846" stop-color="#00BFF3"/>
<stop offset="0.735577" stop-color="#034DC7"/>
<stop offset="1" stop-color="#1D1E63"/>
</linearGradient>
<linearGradient id="paint3_linear_557_1949" x1="199.655" y1="54.2041" x2="40.17" y2="241.729" gradientUnits="userSpaceOnUse">
<stop offset="0.278846" stop-color="#33CFFF"/>
<stop offset="1" stop-color="#0D87C5"/>
</linearGradient>
</defs>
</svg>
