<svg width="254" height="50" viewBox="0 0 254 50" fill="none" xmlns="http://www.w3.org/2000/svg">
<mask id="mask0_675_3397" style="mask-type:alpha" maskUnits="userSpaceOnUse" x="0" y="0" width="50" height="50">
<path d="M29.8004 47.3018C17.735 47.3018 7.9549 37.557 7.9549 25.5352C7.9549 13.5134 17.735 3.76858 29.8004 3.76858C35.8853 3.76858 41.3859 6.24876 45.3471 10.2502C40.7841 4.03865 33.4135 0 25.0931 0C11.2348 0 0 11.1918 0 25C0 38.8082 11.2348 50 25.0906 50C31.3421 50 37.0565 47.7156 41.453 43.9445C38.0786 46.0704 34.085 47.3043 29.8004 47.3043" fill="url(#paint0_linear_675_3397)"/>
<path d="M37.3104 7.26709C42.5623 10.332 46.0934 16.0109 46.0934 22.5124C46.0934 32.2646 38.1584 40.1685 28.3733 40.1709C19.2671 40.1709 11.7697 33.3275 10.7701 24.5218C10.7527 24.8687 10.7402 25.2155 10.7402 25.5649C10.7402 36.3677 19.5307 45.1239 30.3701 45.1239C41.2096 45.1239 50 36.3652 50 25.5649C50 17.1977 44.7257 10.0619 37.3104 7.26709Z" fill="url(#paint1_linear_675_3397)"/>
<path d="M27.8465 8.62109C21.2593 8.62109 15.6966 12.9868 13.9087 18.9729C15.9055 14.5329 20.379 11.4407 25.5787 11.4407C32.6409 11.4407 38.3652 17.1444 38.3652 24.1811C38.3652 31.2177 32.6409 36.9214 25.5787 36.9214C24.4249 36.9214 23.3059 36.7653 22.2416 36.4804C23.9648 37.1989 25.8597 37.5953 27.8465 37.5978C35.8785 37.5978 42.3862 31.1087 42.3862 23.1082C42.3862 15.1052 35.876 8.62109 27.8465 8.62109Z" fill="url(#paint2_linear_675_3397)"/>
</mask>
<g mask="url(#mask0_675_3397)">
<rect x="-1.42969" y="-1.42725" width="52.1426" height="52.1428" fill="#1D3366"/>
</g>
<path d="M251.887 10.4536C252.324 10.4536 252.732 10.6163 253.021 10.9268C253.162 11.0671 253.273 11.2447 253.355 11.4373C253.511 11.8291 253.511 12.2657 253.355 12.65C253.281 12.8426 253.162 13.0202 253.006 13.1605C252.85 13.3157 252.687 13.4269 252.479 13.5083C252.286 13.5822 252.086 13.6269 251.878 13.6269C251.67 13.6269 251.456 13.5896 251.262 13.5016C251.069 13.4135 250.891 13.2941 250.736 13.1463C250.439 12.8508 250.276 12.4582 250.276 12.0515C250.276 11.6447 250.291 11.7701 250.328 11.6298C250.364 11.4895 250.432 11.3484 250.491 11.238C250.81 10.7499 251.329 10.4536 251.885 10.4536M251.894 10.72C251.731 10.72 251.545 10.7424 251.397 10.8089C251.242 10.8753 251.101 10.9641 250.974 11.0902C250.848 11.2163 250.745 11.3716 250.678 11.5268C250.47 12.0074 250.574 12.5843 250.96 12.9545C251.086 13.0799 251.227 13.1836 251.398 13.2501C251.554 13.3165 251.732 13.3538 251.91 13.3538C252.088 13.3538 252.259 13.3165 252.407 13.2501C252.57 13.1836 252.711 13.0874 252.845 12.9687C252.978 12.85 253.059 12.7172 253.127 12.547C253.193 12.3918 253.231 12.2291 253.231 12.0515C253.231 11.8738 253.208 11.6962 253.127 11.5261C253.06 11.3634 252.963 11.2231 252.845 11.1044C252.719 10.979 252.577 10.8753 252.407 10.8089C252.244 10.7648 252.065 10.72 251.895 10.72M251.234 11.1343H251.924C252.117 11.1193 252.317 11.1566 252.488 11.2596C252.613 11.3484 252.681 11.4888 252.681 11.644C252.681 11.7992 252.643 11.8582 252.577 11.9395C252.503 12.0283 252.398 12.0798 252.294 12.1022L252.687 12.8933H252.213L251.879 12.1836H251.664V12.9082H251.242V11.1328H251.234V11.1343ZM251.657 11.4156V11.9261H251.872C251.961 11.941 252.065 11.9112 252.154 11.8597C252.22 11.8224 252.243 11.741 252.243 11.6671C252.243 11.5932 252.22 11.5119 252.154 11.4596C252.065 11.4081 251.961 11.3858 251.857 11.3932L251.657 11.4156Z" fill="#1D3366"/>
<path d="M190.689 27.2653C191.712 28.5771 192.223 30.0775 192.223 31.7621C192.223 34.1924 191.371 36.1209 189.672 37.5432C187.972 38.9654 185.601 39.6742 182.561 39.6742H169.008V10.5942H182.105C185.062 10.5942 187.374 11.2708 189.05 12.624C190.722 13.9772 191.555 15.8137 191.555 18.1335C191.555 19.8457 191.104 21.2679 190.211 22.4002C189.313 23.5325 188.115 24.3195 186.623 24.7614C188.309 25.1204 189.663 25.9581 190.685 27.2653H190.689ZM176.1 22.3588H180.742C181.903 22.3588 182.796 22.1056 183.418 21.5901C184.04 21.0792 184.348 20.329 184.348 19.3348C184.348 18.3406 184.04 17.5812 183.418 17.0565C182.796 16.5317 181.903 16.2694 180.742 16.2694H176.1V22.3588ZM184.076 33.1522C184.726 32.6136 185.053 31.8358 185.053 30.814C185.053 29.7922 184.712 28.9913 184.035 28.4114C183.358 27.8314 182.423 27.5414 181.235 27.5414H176.096V33.9622H181.318C182.506 33.9622 183.423 33.6953 184.072 33.1568L184.076 33.1522Z" fill="#1D3366"/>
<path d="M240.87 39.6742L234.903 30.768L229.645 39.6742H221.549L230.939 24.8857L221.341 10.5942H229.645L235.529 19.3762L240.703 10.5942H248.799L239.493 25.2585L249.175 39.6742H240.87Z" fill="#1D3366"/>
<path d="M211.457 37.623C204.44 37.623 198.752 31.9554 198.752 24.9636C198.752 17.9717 204.44 12.3041 211.457 12.3041C214.996 12.3041 218.195 13.7466 220.499 16.0738C217.845 12.4612 213.558 10.1123 208.719 10.1123C200.659 10.1123 194.125 16.6214 194.125 24.6523C194.125 32.6832 200.659 39.1923 208.718 39.1923C212.354 39.1923 215.677 37.8637 218.234 35.6704C216.271 36.9068 213.949 37.6244 211.457 37.6244" fill="#1D3366"/>
<path d="M215.825 14.3391C218.879 16.1217 220.933 19.4245 220.933 23.2058C220.933 28.8777 216.318 33.4745 210.627 33.476C205.331 33.476 200.97 29.4959 200.389 24.3744C200.379 24.5762 200.372 24.7779 200.372 24.9811C200.372 31.264 205.484 36.3566 211.788 36.3566C218.092 36.3566 223.205 31.2626 223.205 24.9811C223.205 20.1148 220.137 15.9646 215.825 14.3391Z" fill="#1D3366"/>
<path d="M210.32 15.1262C206.489 15.1262 203.254 17.6653 202.214 21.1468C203.375 18.5645 205.977 16.7661 209.001 16.7661C213.109 16.7661 216.438 20.0834 216.438 24.1759C216.438 28.2684 213.109 31.5857 209.001 31.5857C208.33 31.5857 207.679 31.4949 207.06 31.3292C208.063 31.7471 209.165 31.9776 210.32 31.9791C214.992 31.9791 218.776 28.205 218.776 23.5519C218.776 18.8974 214.99 15.1262 210.32 15.1262Z" fill="#1D3366"/>
<path d="M58.0918 17.2896C59.3196 15.0556 61.0294 13.3151 63.2258 12.0679C65.4222 10.8207 67.9141 10.1948 70.6971 10.1948C74.1076 10.1948 77.027 11.0994 79.4553 12.9085C81.8836 14.7176 83.507 17.1845 84.3255 20.3093H76.6314C76.0584 19.1033 75.2445 18.185 74.1986 17.5546C73.1481 16.9241 71.9522 16.6089 70.6152 16.6089C68.4598 16.6089 66.7136 17.3627 65.3767 18.8703C64.0398 20.3778 63.3713 22.3925 63.3713 24.9143C63.3713 27.4361 64.0398 29.4507 65.3767 30.9583C66.7136 32.4659 68.4598 33.2197 70.6152 33.2197C71.9522 33.2197 73.1436 32.9045 74.1986 32.274C75.249 31.6436 76.0584 30.7253 76.6314 29.5193H84.3255C83.507 32.6441 81.8836 35.1065 79.4553 36.9019C77.027 38.6972 74.1076 39.5972 70.6971 39.5972C67.9141 39.5972 65.4222 38.9759 63.2258 37.7242C61.0294 36.477 59.3196 34.7456 58.0918 32.5253C56.864 30.3005 56.2501 27.765 56.2501 24.9143C56.2501 22.0636 56.864 19.5236 58.0918 17.2896Z" fill="#1D3366"/>
<path d="M94.7802 37.7833C92.5292 36.5224 90.7421 34.759 89.4188 32.4976C88.0955 30.2362 87.4362 27.6962 87.4362 24.8729C87.4362 22.0496 88.0955 19.5141 89.4188 17.2665C90.7421 15.0188 92.5292 13.2645 94.7802 12.0036C97.0311 10.7427 99.5094 10.1123 102.206 10.1123C104.903 10.1123 107.385 10.7427 109.632 12.0036C111.883 13.2645 113.656 15.0188 114.952 17.2665C116.248 19.5141 116.894 22.0496 116.894 24.8729C116.894 27.6962 116.239 30.2408 114.93 32.4976C113.62 34.759 111.846 36.5224 109.609 37.7833C107.372 39.0442 104.903 39.6746 102.201 39.6746C99.5003 39.6746 97.0265 39.0442 94.7756 37.7833H94.7802ZM107.713 30.958C109.091 29.423 109.777 27.3947 109.777 24.8729C109.777 22.3511 109.086 20.2862 107.713 18.7695C106.335 17.2482 104.502 16.4853 102.211 16.4853C99.9187 16.4853 98.0406 17.2391 96.6673 18.7466C95.2895 20.2542 94.6028 22.2963 94.6028 24.8729C94.6028 27.4495 95.2895 29.4596 96.6673 30.9809C98.0452 32.5022 99.8914 33.2605 102.211 33.2605C104.53 33.2605 106.335 32.493 107.713 30.958Z" fill="#1D3366"/>
<path d="M127.789 33.96H136.957V39.3872H120.791V10.5239H127.789V33.96Z" fill="#1D3366"/>
<path d="M159.016 12.333C161.28 13.5391 163.031 15.234 164.272 17.4131C165.514 19.5923 166.137 22.1095 166.137 24.9602C166.137 27.8108 165.514 30.2915 164.272 32.4843C163.031 34.6772 161.271 36.3766 158.993 37.5827C156.715 38.7888 154.073 39.3918 151.071 39.3918H140.308V10.5239H151.071C154.1 10.5239 156.747 11.127 159.011 12.333H159.016ZM156.806 31.123C158.279 29.6702 159.016 27.6144 159.016 24.9556C159.016 22.2968 158.279 20.2273 156.806 18.7471C155.332 17.2669 153.272 16.5268 150.626 16.5268H147.311V33.3021H150.626C153.272 33.3021 155.332 32.5757 156.806 31.123Z" fill="#1D3366"/>
<defs>
<linearGradient id="paint0_linear_675_3397" x1="40.3351" y1="5" x2="8.49542" y2="42.6495" gradientUnits="userSpaceOnUse">
<stop offset="0.278846" stop-color="#00BFF3"/>
<stop offset="0.735577" stop-color="#034DC7"/>
<stop offset="1" stop-color="#1D1E63"/>
</linearGradient>
<linearGradient id="paint1_linear_675_3397" x1="45.6608" y1="11.0528" x2="22.2861" y2="42.658" gradientUnits="userSpaceOnUse">
<stop offset="0.278846" stop-color="#00BFF3"/>
<stop offset="0.735577" stop-color="#034DC7"/>
<stop offset="1" stop-color="#1D1E63"/>
</linearGradient>
<linearGradient id="paint2_linear_675_3397" x1="39.2387" y1="11.5188" x2="21.0873" y2="34.7767" gradientUnits="userSpaceOnUse">
<stop offset="0.278846" stop-color="#00BFF3"/>
<stop offset="0.735577" stop-color="#034DC7"/>
<stop offset="1" stop-color="#1D1E63"/>
</linearGradient>
</defs>
</svg>
