<svg width="491" height="600" viewBox="0 0 491 600" fill="none" xmlns="http://www.w3.org/2000/svg">
<mask id="mask0_1156_1702" style="mask-type:alpha" maskUnits="userSpaceOnUse" x="0" y="0" width="491" height="491">
<path d="M292.161 463.743C173.873 463.743 77.9892 368.206 77.9892 250.345C77.9892 132.484 173.873 36.9469 292.161 36.9469C351.817 36.9469 405.744 61.2624 444.58 100.493C399.844 39.5946 327.584 0 246.011 0C110.145 0 0 109.723 0 245.098C0 380.473 110.145 490.196 245.987 490.196C307.276 490.196 363.299 467.8 406.402 430.828C373.319 451.67 334.166 463.767 292.161 463.767" fill="url(#paint0_linear_1156_1702)"/>
<path d="M365.789 71.2466C417.278 101.295 451.897 156.97 451.897 220.71C451.897 316.32 374.102 393.809 278.17 393.833C188.893 393.833 115.39 326.741 105.589 240.41C105.419 243.811 105.297 247.212 105.297 250.637C105.297 356.546 191.477 442.391 297.747 442.391C404.016 442.391 490.196 356.522 490.196 250.637C490.196 168.606 438.488 98.647 365.789 71.2466Z" fill="url(#paint1_linear_1156_1702)"/>
<path d="M273.004 84.52C208.423 84.52 153.887 127.321 136.358 186.009C155.935 142.479 199.793 112.163 250.77 112.163C320.007 112.163 376.128 168.082 376.128 237.069C376.128 306.056 320.007 361.974 250.77 361.974C239.458 361.974 228.488 360.444 218.053 357.65C234.948 364.695 253.525 368.581 273.004 368.606C351.749 368.606 415.549 304.987 415.549 226.551C415.549 148.09 351.725 84.52 273.004 84.52Z" fill="url(#paint2_linear_1156_1702)"/>
</mask>
<g mask="url(#mask0_1156_1702)">
<rect x="-14.0166" y="-13.9927" width="511.202" height="511.204" fill="url(#paint3_linear_1156_1702)"/>
</g>
<path d="M476.939 530.227C477.985 530.227 478.958 530.615 479.648 531.356C479.984 531.691 480.25 532.116 480.445 532.575C480.817 533.511 480.817 534.553 480.445 535.471C480.268 535.931 479.984 536.355 479.612 536.69C479.241 537.061 478.851 537.326 478.354 537.52C477.893 537.697 477.416 537.804 476.92 537.804C476.423 537.804 475.91 537.715 475.449 537.504C474.988 537.294 474.563 537.009 474.191 536.656C473.483 535.95 473.094 535.013 473.094 534.042C473.094 533.071 473.129 533.37 473.217 533.035C473.305 532.7 473.465 532.363 473.607 532.099C474.368 530.934 475.608 530.227 476.936 530.227M476.957 530.863C476.568 530.863 476.124 530.916 475.771 531.075C475.399 531.233 475.063 531.445 474.761 531.747C474.459 532.048 474.212 532.418 474.053 532.789C473.557 533.937 473.805 535.314 474.727 536.198C475.027 536.498 475.365 536.745 475.772 536.904C476.144 537.062 476.569 537.152 476.995 537.152C477.42 537.152 477.827 537.062 478.181 536.904C478.571 536.745 478.907 536.515 479.226 536.232C479.546 535.949 479.739 535.631 479.9 535.225C480.059 534.855 480.149 534.466 480.149 534.042C480.149 533.618 480.095 533.194 479.9 532.787C479.741 532.399 479.511 532.064 479.226 531.78C478.926 531.481 478.589 531.233 478.181 531.075C477.792 530.97 477.366 530.863 476.959 530.863M475.381 531.852H477.029C477.49 531.816 477.967 531.905 478.374 532.151C478.674 532.363 478.835 532.698 478.835 533.069C478.835 533.44 478.746 533.58 478.587 533.775C478.41 533.987 478.161 534.11 477.913 534.163L478.851 536.052H477.718L476.921 534.357H476.409V536.088H475.399V531.848H475.381V531.852ZM476.391 532.524V533.743H476.903C477.116 533.778 477.365 533.707 477.577 533.584C477.736 533.495 477.79 533.301 477.79 533.124C477.79 532.948 477.736 532.753 477.577 532.629C477.365 532.506 477.116 532.452 476.87 532.47L476.391 532.524Z" fill="white"/>
<path d="M330.814 570.369C333.255 573.501 334.476 577.084 334.476 581.106C334.476 586.909 332.441 591.514 328.384 594.91C324.326 598.306 318.663 599.999 311.406 599.999H279.044V530.562H310.317C317.377 530.562 322.897 532.178 326.899 535.409C330.891 538.64 332.881 543.025 332.881 548.564C332.881 552.652 331.803 556.048 329.67 558.752C327.526 561.456 324.667 563.335 321.104 564.39C325.129 565.247 328.362 567.248 330.803 570.369H330.814ZM295.978 558.653H307.062C309.833 558.653 311.966 558.049 313.451 556.818C314.935 555.598 315.672 553.806 315.672 551.433C315.672 549.059 314.935 547.245 313.451 545.992C311.966 544.739 309.833 544.113 307.062 544.113H295.978V558.653ZM315.023 584.425C316.574 583.139 317.355 581.282 317.355 578.842C317.355 576.402 316.541 574.49 314.924 573.105C313.308 571.721 311.076 571.028 308.239 571.028H295.967V586.36H308.437C311.274 586.36 313.462 585.722 315.012 584.436L315.023 584.425Z" fill="white"/>
<path d="M450.634 599.999L436.385 578.732L423.831 599.999H404.5L426.919 564.687L404.002 530.562H423.831L437.88 551.531L450.236 530.562H469.566L447.346 565.577L470.463 599.999H450.634Z" fill="white"/>
<path d="M380.402 595.101C363.647 595.101 350.065 581.568 350.065 564.873C350.065 548.178 363.647 534.645 380.402 534.645C388.852 534.645 396.491 538.089 401.992 543.646C395.655 535.02 385.42 529.412 373.865 529.412C354.62 529.412 339.018 544.954 339.018 564.13C339.018 583.306 354.62 598.848 373.862 598.848C382.543 598.848 390.479 595.676 396.584 590.439C391.898 593.391 386.352 595.105 380.402 595.105" fill="white"/>
<path d="M390.83 539.504C398.124 543.761 403.027 551.647 403.027 560.676C403.027 574.219 392.008 585.196 378.419 585.199C365.773 585.199 355.361 575.695 353.973 563.467C353.949 563.948 353.932 564.43 353.932 564.915C353.932 579.917 366.139 592.077 381.192 592.077C396.245 592.077 408.453 579.914 408.453 564.915C408.453 553.295 401.128 543.386 390.83 539.504Z" fill="white"/>
<path d="M377.686 541.384C368.538 541.384 360.813 547.447 358.33 555.76C361.103 549.594 367.316 545.299 374.537 545.299C384.344 545.299 392.293 553.22 392.293 562.992C392.293 572.764 384.344 580.685 374.537 580.685C372.934 580.685 371.38 580.469 369.902 580.073C372.295 581.071 374.927 581.621 377.686 581.625C388.84 581.625 397.877 572.613 397.877 561.503C397.877 550.389 388.837 541.384 377.686 541.384Z" fill="white"/>
<path d="M14.1993 546.55C17.131 541.215 21.2136 537.059 26.4581 534.081C31.7025 531.103 37.6528 529.609 44.2979 529.609C52.4415 529.609 59.4124 531.769 65.2106 536.088C71.0089 540.408 74.8852 546.299 76.8397 553.76H58.4678C57.0996 550.88 55.156 548.688 52.6587 547.182C50.1505 545.677 47.2948 544.924 44.1025 544.924C38.9558 544.924 34.7862 546.724 31.594 550.324C28.4017 553.924 26.8055 558.734 26.8055 564.756C26.8055 570.777 28.4017 575.588 31.594 579.188C34.7862 582.787 38.9558 584.587 44.1025 584.587C47.2948 584.587 50.1396 583.835 52.6587 582.329C55.1669 580.824 57.0996 578.631 58.4678 575.751H76.8397C74.8852 583.213 71.0089 589.092 65.2106 593.379C59.4124 597.666 52.4415 599.815 44.2979 599.815C37.6528 599.815 31.7025 598.332 26.4581 595.343C21.2136 592.365 17.131 588.231 14.1993 582.929C11.2676 577.617 9.80176 571.563 9.80176 564.756C9.80176 557.949 11.2676 551.884 14.1993 546.55Z" fill="white"/>
<path d="M101.803 595.484C96.4287 592.473 92.1614 588.262 89.0017 582.863C85.842 577.463 84.2676 571.398 84.2676 564.657C84.2676 557.915 85.842 551.861 89.0017 546.494C92.1614 541.127 96.4287 536.938 101.803 533.928C107.178 530.917 113.096 529.412 119.535 529.412C125.974 529.412 131.902 530.917 137.266 533.928C142.641 536.938 146.875 541.127 149.97 546.494C153.064 551.861 154.606 557.915 154.606 564.657C154.606 571.398 153.043 577.474 149.916 582.863C146.789 588.262 142.554 592.473 137.212 595.484C131.869 598.494 125.974 600 119.524 600C113.074 600 107.167 598.494 101.793 595.484H101.803ZM132.684 579.187C135.974 575.521 137.613 570.678 137.613 564.657C137.613 558.635 135.963 553.705 132.684 550.083C129.394 546.451 125.018 544.629 119.546 544.629C114.073 544.629 109.589 546.429 106.31 550.028C103.02 553.628 101.38 558.504 101.38 564.657C101.38 570.809 103.02 575.609 106.31 579.241C109.6 582.874 114.008 584.684 119.546 584.684C125.083 584.684 129.394 582.852 132.684 579.187Z" fill="white"/>
<path d="M180.622 586.355H202.512V599.314H163.911V530.395H180.622V586.355Z" fill="white"/>
<path d="M255.185 534.714C260.592 537.594 264.773 541.641 267.737 546.844C270.701 552.048 272.189 558.058 272.189 564.865C272.189 571.672 270.701 577.595 267.737 582.831C264.773 588.067 260.57 592.125 255.131 595.005C249.691 597.885 243.382 599.325 236.216 599.325H210.515V530.395H236.216C243.447 530.395 249.767 531.834 255.174 534.714H255.185ZM249.908 579.58C253.426 576.112 255.185 571.203 255.185 564.854C255.185 558.505 253.426 553.564 249.908 550.03C246.39 546.495 241.471 544.728 235.152 544.728H227.236V584.784H235.152C241.471 584.784 246.39 583.049 249.908 579.58Z" fill="white"/>
<defs>
<linearGradient id="paint0_linear_1156_1702" x1="395.442" y1="49.0196" x2="83.2883" y2="418.132" gradientUnits="userSpaceOnUse">
<stop offset="0.278846" stop-color="#00BFF3"/>
<stop offset="0.735577" stop-color="#034DC7"/>
<stop offset="1" stop-color="#1D1E63"/>
</linearGradient>
<linearGradient id="paint1_linear_1156_1702" x1="447.655" y1="108.361" x2="218.492" y2="418.216" gradientUnits="userSpaceOnUse">
<stop offset="0.278846" stop-color="#00BFF3"/>
<stop offset="0.735577" stop-color="#034DC7"/>
<stop offset="1" stop-color="#1D1E63"/>
</linearGradient>
<linearGradient id="paint2_linear_1156_1702" x1="384.691" y1="112.929" x2="206.737" y2="340.948" gradientUnits="userSpaceOnUse">
<stop offset="0.278846" stop-color="#00BFF3"/>
<stop offset="0.735577" stop-color="#034DC7"/>
<stop offset="1" stop-color="#1D1E63"/>
</linearGradient>
<linearGradient id="paint3_linear_1156_1702" x1="391.48" y1="106.282" x2="78.7644" y2="473.979" gradientUnits="userSpaceOnUse">
<stop offset="0.278846" stop-color="#33CFFF"/>
<stop offset="1" stop-color="#0D87C5"/>
</linearGradient>
</defs>
</svg>
