<svg width="327" height="400" viewBox="0 0 327 400" fill="none" xmlns="http://www.w3.org/2000/svg">
<mask id="mask0_1155_1534" style="mask-type:alpha" maskUnits="userSpaceOnUse" x="0" y="0" width="327" height="327">
<path d="M194.774 309.162C115.915 309.162 51.9928 245.47 51.9928 166.897C51.9928 88.3227 115.915 24.6312 194.774 24.6312C234.544 24.6312 270.496 40.8416 296.386 66.9951C266.562 26.3964 218.389 0 164.007 0C73.4302 0 0 73.1488 0 163.399C0 253.648 73.4302 326.797 163.991 326.797C204.85 326.797 242.199 311.866 270.934 287.219C248.879 301.113 222.777 309.178 194.774 309.178" fill="url(#paint0_linear_1155_1534)"/>
<path d="M243.859 47.498C278.185 67.5302 301.264 104.647 301.264 147.14C301.264 210.88 249.401 262.54 185.446 262.556C125.928 262.556 76.9259 217.828 70.3923 160.274C70.2785 162.541 70.1973 164.808 70.1973 167.092C70.1973 237.698 127.651 294.928 198.497 294.928C269.343 294.928 326.797 237.682 326.797 167.092C326.797 112.404 292.325 65.765 243.859 47.498Z" fill="url(#paint1_linear_1155_1534)"/>
<path d="M182.001 56.3472C138.948 56.3472 102.59 84.8812 90.9043 124.006C103.955 94.9863 133.194 74.7761 167.179 74.7761C213.337 74.7761 250.751 112.055 250.751 158.046C250.751 204.038 213.337 241.316 167.179 241.316C159.637 241.316 152.324 240.296 145.367 238.434C156.631 243.13 169.015 245.721 182.001 245.737C234.498 245.737 277.032 203.325 277.032 151.034C277.032 98.7272 234.482 56.3472 182.001 56.3472Z" fill="url(#paint2_linear_1155_1534)"/>
</mask>
<g mask="url(#mask0_1155_1534)">
<rect x="-9.34375" y="-9.32861" width="340.801" height="340.803" fill="#1D3366"/>
</g>
<path d="M317.959 353.484C318.656 353.484 319.305 353.743 319.765 354.238C319.989 354.461 320.167 354.744 320.296 355.05C320.544 355.674 320.544 356.369 320.296 356.981C320.179 357.287 319.989 357.57 319.741 357.793C319.494 358.04 319.234 358.217 318.903 358.347C318.595 358.465 318.277 358.536 317.946 358.536C317.615 358.536 317.273 358.476 316.966 358.336C316.658 358.196 316.375 358.006 316.127 357.771C315.655 357.3 315.396 356.675 315.396 356.028C315.396 355.38 315.419 355.58 315.478 355.357C315.536 355.133 315.643 354.909 315.737 354.733C316.245 353.956 317.072 353.484 317.957 353.484M317.971 353.909C317.711 353.909 317.416 353.944 317.18 354.05C316.932 354.156 316.708 354.297 316.507 354.498C316.306 354.699 316.141 354.946 316.035 355.193C315.704 355.958 315.87 356.876 316.484 357.465C316.684 357.665 316.91 357.83 317.181 357.936C317.429 358.042 317.713 358.101 317.996 358.101C318.28 358.101 318.551 358.042 318.787 357.936C319.047 357.83 319.271 357.677 319.484 357.488C319.697 357.299 319.826 357.088 319.933 356.817C320.039 356.57 320.099 356.311 320.099 356.028C320.099 355.745 320.063 355.462 319.933 355.192C319.827 354.933 319.673 354.709 319.484 354.52C319.284 354.321 319.059 354.156 318.787 354.05C318.527 353.98 318.244 353.909 317.972 353.909M316.92 354.568H318.019C318.326 354.544 318.644 354.603 318.916 354.767C319.116 354.909 319.223 355.132 319.223 355.379C319.223 355.626 319.164 355.72 319.058 355.85C318.94 355.991 318.774 356.073 318.608 356.109L319.234 357.368H318.479L317.947 356.238H317.605V357.392H316.932V354.565H316.92V354.568ZM317.593 355.016V355.828H317.935C318.077 355.852 318.243 355.805 318.384 355.723C318.49 355.663 318.526 355.534 318.526 355.416C318.526 355.298 318.49 355.169 318.384 355.086C318.243 355.004 318.077 354.968 317.913 354.98L317.593 355.016Z" fill="#1D3366"/>
<path d="M220.542 380.246C222.169 382.334 222.983 384.723 222.983 387.404C222.983 391.273 221.627 394.343 218.921 396.607C216.216 398.871 212.441 399.999 207.603 399.999H186.028V353.708H206.877C211.583 353.708 215.263 354.785 217.932 356.939C220.593 359.093 221.92 362.017 221.92 365.709C221.92 368.435 221.201 370.699 219.779 372.501C218.35 374.304 216.444 375.557 214.069 376.26C216.752 376.832 218.907 378.165 220.534 380.246H220.542ZM197.318 372.435H204.707C206.554 372.435 207.977 372.032 208.966 371.212C209.956 370.399 210.447 369.204 210.447 367.622C210.447 366.039 209.956 364.83 208.966 363.995C207.977 363.16 206.554 362.742 204.707 362.742H197.318V372.435ZM210.015 389.617C211.048 388.76 211.569 387.521 211.569 385.895C211.569 384.268 211.026 382.993 209.949 382.07C208.871 381.147 207.383 380.685 205.491 380.685H197.31V390.906H205.623C207.515 390.906 208.974 390.481 210.007 389.624L210.015 389.617Z" fill="#1D3366"/>
<path d="M300.423 399.999L290.924 385.822L282.554 399.999H269.667L284.613 376.458L269.335 353.708H282.554L291.92 367.688L300.157 353.708H313.044L298.231 377.051L313.642 399.999H300.423Z" fill="#1D3366"/>
<path d="M253.601 396.734C242.431 396.734 233.376 387.712 233.376 376.582C233.376 365.452 242.431 356.43 253.601 356.43C259.235 356.43 264.327 358.727 267.995 362.431C263.77 356.68 256.947 352.941 249.243 352.941C236.413 352.941 226.012 363.303 226.012 376.087C226.012 388.871 236.413 399.232 249.241 399.232C255.029 399.232 260.319 397.117 264.39 393.626C261.265 395.594 257.568 396.737 253.601 396.737" fill="#1D3366"/>
<path d="M260.553 359.67C265.415 362.507 268.685 367.765 268.685 373.784C268.685 382.813 261.338 390.131 252.279 390.133C243.848 390.133 236.907 383.797 235.982 375.645C235.966 375.966 235.954 376.287 235.954 376.61C235.954 386.612 244.092 394.719 254.128 394.719C264.163 394.719 272.301 386.61 272.301 376.61C272.301 368.864 267.418 362.257 260.553 359.67Z" fill="#1D3366"/>
<path d="M251.791 360.922C245.692 360.922 240.542 364.964 238.887 370.506C240.735 366.396 244.877 363.533 249.691 363.533C256.229 363.533 261.529 368.813 261.529 375.328C261.529 381.843 256.229 387.123 249.691 387.123C248.623 387.123 247.587 386.979 246.601 386.715C248.197 387.38 249.951 387.747 251.791 387.75C259.227 387.75 265.252 381.742 265.252 374.335C265.252 366.926 259.224 360.922 251.791 360.922Z" fill="#1D3366"/>
<path d="M9.46587 364.367C11.4203 360.81 14.1421 358.04 17.6384 356.054C21.1347 354.069 25.1015 353.073 29.5316 353.073C34.9607 353.073 39.6079 354.513 43.4734 357.392C47.3389 360.272 49.9231 364.199 51.2261 369.174H38.9782C38.0661 367.254 36.7704 365.792 35.1054 364.788C33.4333 363.785 31.5295 363.283 29.4013 363.283C25.9702 363.283 23.1905 364.483 21.0623 366.883C18.9341 369.283 17.87 372.49 17.87 376.504C17.87 380.518 18.9341 383.725 21.0623 386.125C23.1905 388.525 25.9702 389.725 29.4013 389.725C31.5295 389.725 33.4261 389.223 35.1054 388.22C36.7776 387.216 38.0661 385.754 38.9782 383.834H51.2261C49.9231 388.809 47.3389 392.728 43.4734 395.586C39.6079 398.444 34.9607 399.877 29.5316 399.877C25.1015 399.877 21.1347 398.888 17.6384 396.895C14.1421 394.91 11.4203 392.154 9.46587 388.62C7.51141 385.078 6.53418 381.042 6.53418 376.504C6.53418 371.966 7.51141 367.923 9.46587 364.367Z" fill="#1D3366"/>
<path d="M67.8693 396.989C64.2861 394.982 61.4413 392.175 59.3348 388.575C57.2283 384.976 56.1787 380.932 56.1787 376.438C56.1787 371.944 57.2283 367.908 59.3348 364.33C61.4413 360.752 64.2861 357.959 67.8693 355.952C71.4524 353.945 75.3975 352.941 79.6901 352.941C83.9827 352.941 87.935 353.945 91.5109 355.952C95.0941 357.959 97.9172 360.752 99.9803 364.33C102.043 367.908 103.071 371.944 103.071 376.438C103.071 380.932 102.029 384.983 99.9441 388.575C97.8593 392.175 95.0362 394.982 91.4747 396.989C87.9133 398.997 83.9827 400 79.6829 400C75.3831 400 71.4452 398.997 67.862 396.989H67.8693ZM88.4562 386.125C90.6495 383.681 91.7426 380.452 91.7426 376.438C91.7426 372.424 90.6423 369.137 88.4562 366.722C86.2629 364.301 83.3457 363.086 79.6973 363.086C76.049 363.086 73.0594 364.286 70.8733 366.686C68.68 369.086 67.5869 372.337 67.5869 376.438C67.5869 380.54 68.68 383.739 70.8733 386.161C73.0667 388.583 76.0056 389.79 79.6973 389.79C83.3891 389.79 86.2629 388.568 88.4562 386.125Z" fill="#1D3366"/>
<path d="M120.414 390.903H135.007V399.542H109.273V353.596H120.414V390.903Z" fill="#1D3366"/>
<path d="M170.123 356.476C173.728 358.396 176.515 361.094 178.491 364.563C180.467 368.032 181.459 372.039 181.459 376.577C181.459 381.114 180.467 385.063 178.491 388.554C176.515 392.045 173.713 394.75 170.087 396.67C166.46 398.59 162.254 399.55 157.477 399.55H140.343V353.596H157.477C162.298 353.596 166.511 354.556 170.116 356.476H170.123ZM166.605 386.387C168.95 384.074 170.123 380.802 170.123 376.569C170.123 372.337 168.95 369.042 166.605 366.686C164.26 364.33 160.98 363.152 156.767 363.152H151.49V389.856H156.767C160.98 389.856 164.26 388.699 166.605 386.387Z" fill="#1D3366"/>
<defs>
<linearGradient id="paint0_linear_1155_1534" x1="263.628" y1="32.6797" x2="55.5255" y2="278.754" gradientUnits="userSpaceOnUse">
<stop offset="0.278846" stop-color="#00BFF3"/>
<stop offset="0.735577" stop-color="#034DC7"/>
<stop offset="1" stop-color="#1D1E63"/>
</linearGradient>
<linearGradient id="paint1_linear_1155_1534" x1="298.436" y1="72.241" x2="145.66" y2="278.811" gradientUnits="userSpaceOnUse">
<stop offset="0.278846" stop-color="#00BFF3"/>
<stop offset="0.735577" stop-color="#034DC7"/>
<stop offset="1" stop-color="#1D1E63"/>
</linearGradient>
<linearGradient id="paint2_linear_1155_1534" x1="256.46" y1="75.2862" x2="137.823" y2="227.299" gradientUnits="userSpaceOnUse">
<stop offset="0.278846" stop-color="#00BFF3"/>
<stop offset="0.735577" stop-color="#034DC7"/>
<stop offset="1" stop-color="#1D1E63"/>
</linearGradient>
</defs>
</svg>
