<svg width="491" height="612" viewBox="0 0 491 612" fill="none" xmlns="http://www.w3.org/2000/svg">
<g clip-path="url(#clip0_1185_6646)">
<path d="M245.198 490.385C179.704 490.385 118.131 464.883 71.8221 418.574C25.5127 372.264 0 310.691 0 245.198C0 179.704 25.5016 118.131 71.811 71.811C118.12 25.4906 179.704 0 245.198 0C310.691 0 372.264 25.5016 418.574 71.811C464.883 118.12 490.385 179.693 490.385 245.187C490.385 310.68 464.883 372.253 418.574 418.563C372.264 464.872 310.691 490.374 245.198 490.374V490.385ZM245.198 16.5667C119.125 16.5667 16.5667 119.125 16.5667 245.198C16.5667 371.27 119.125 473.829 245.198 473.829C371.27 473.829 473.829 371.27 473.829 245.198C473.829 119.125 371.259 16.5667 245.198 16.5667Z" fill="url(#paint0_linear_1185_6646)"/>
<path d="M245.198 440.563C262.222 440.563 276.022 426.762 276.022 409.738C276.022 392.714 262.222 378.913 245.198 378.913C228.174 378.913 214.373 392.714 214.373 409.738C214.373 426.762 228.174 440.563 245.198 440.563Z" fill="#33CFFF"/>
<path d="M359.773 308.671V305.655C359.773 292.413 351.644 280.518 339.308 275.703L254.033 242.47C252.399 241.83 251.327 240.261 251.327 238.505V219.188C249.041 219.531 246.711 219.708 244.325 219.708C241.94 219.708 239.609 219.531 237.323 219.188V238.505C237.323 240.261 236.252 241.83 234.617 242.47L149.343 275.703C136.995 280.507 128.878 292.402 128.878 305.655V308.936C112.201 311.973 99.5215 326.596 99.5215 344.145C99.5215 363.882 115.58 379.94 135.317 379.94C155.053 379.94 171.112 363.882 171.112 344.145C171.112 327.004 158.996 312.647 142.882 309.157V305.655C142.882 298.123 147.421 291.485 154.434 288.746L235.799 257.038C236.539 256.751 237.345 257.292 237.345 258.098V374.827C221.386 378.427 209.425 392.708 209.425 409.738C209.425 429.475 225.483 445.533 245.22 445.533C264.956 445.533 281.015 429.475 281.015 409.738C281.015 392.089 268.17 377.389 251.338 374.473V258.098C251.338 257.303 252.145 256.751 252.885 257.038L334.238 288.746C341.207 291.463 345.791 298.178 345.791 305.655V309.587C330.56 313.696 319.317 327.634 319.317 344.145C319.317 363.882 335.376 379.94 355.112 379.94C374.849 379.94 390.907 363.882 390.907 344.145C390.907 325.988 377.323 310.968 359.784 308.671H359.773ZM161.15 344.145C161.15 358.404 149.553 370 135.294 370C121.036 370 109.439 358.404 109.439 344.145C109.439 329.887 121.036 318.29 135.294 318.29C149.553 318.29 161.15 329.887 161.15 344.145ZM271.053 409.738C271.053 423.997 259.456 435.593 245.198 435.593C230.939 435.593 219.343 423.997 219.343 409.738C219.343 395.48 230.939 383.883 245.198 383.883C259.456 383.883 271.053 395.48 271.053 409.738ZM355.101 370C340.843 370 329.246 358.404 329.246 344.145C329.246 329.887 340.843 318.29 355.101 318.29C369.359 318.29 380.956 329.887 380.956 344.145C380.956 358.404 369.359 370 355.101 370Z" fill="#0D87C5"/>
<path d="M244.313 222.225C291.92 222.225 330.514 183.631 330.514 136.023C330.514 88.4152 291.92 49.8213 244.313 49.8213C196.706 49.8213 158.112 88.4152 158.112 136.023C158.112 183.631 196.706 222.225 244.313 222.225Z" fill="url(#paint1_linear_1185_6646)"/>
<path d="M246.633 69.9668C246.147 69.5471 245.529 69.3041 244.899 69.282C243.618 69.1274 242.348 69.8674 241.895 71.1264L241.873 71.1817C241.873 71.1817 241.84 71.27 241.829 71.3142L216.416 145.577C216.096 146.516 216.295 147.565 216.935 148.327C217.576 149.089 218.57 149.454 219.564 149.299L243.353 145.389L242.448 200.115C242.425 201.528 243.453 202.754 244.855 202.964C245.772 203.108 246.666 202.787 247.285 202.169C247.616 201.838 247.859 201.429 248.003 200.965L271.858 119.722C272.135 118.783 271.914 117.778 271.262 117.049C270.622 116.32 269.639 115.967 268.678 116.133L246.644 119.755L247.627 72.1757C247.649 71.3363 247.285 70.53 246.655 69.9778L246.633 69.9668Z" fill="white"/>
</g>
<g clip-path="url(#clip1_1185_6646)">
<path d="M142.758 546.894C145.73 541.512 149.885 537.313 155.2 534.321C160.515 531.305 166.531 529.809 173.271 529.809C181.534 529.809 188.588 531.98 194.483 536.348C200.353 540.716 204.291 546.652 206.272 554.181H187.646C186.269 551.286 184.288 549.065 181.751 547.545C179.214 546.025 176.315 545.277 173.078 545.277C167.859 545.277 163.632 547.087 160.394 550.731C157.157 554.35 155.538 559.225 155.538 565.282C155.538 571.339 157.157 576.213 160.394 579.833C163.632 583.453 167.859 585.287 173.078 585.287C176.315 585.287 179.214 584.539 181.751 583.018C184.288 581.498 186.269 579.302 187.646 576.382H206.272C204.291 583.911 200.353 589.823 194.483 594.143C188.588 598.462 181.534 600.634 173.271 600.634C166.531 600.634 160.491 599.138 155.176 596.122C149.861 593.129 145.706 588.955 142.734 583.597C139.763 578.24 138.265 572.135 138.265 565.282C138.265 558.428 139.763 552.299 142.734 546.918L142.758 546.894Z" fill="white"/>
<path d="M268.53 570.445C270.97 573.583 272.202 577.154 272.202 581.184C272.202 587 270.173 591.609 266.114 594.987C262.055 598.39 256.378 600.079 249.106 600.079H216.685V530.604H247.995C255.073 530.604 260.606 532.221 264.592 535.455C268.578 538.689 270.583 543.08 270.583 548.631C270.583 552.733 269.496 556.111 267.37 558.838C265.22 561.541 262.369 563.423 258.794 564.485C262.828 565.354 266.066 567.332 268.506 570.47L268.53 570.445ZM233.644 558.718H244.733C247.512 558.718 249.638 558.114 251.135 556.884C252.633 555.653 253.358 553.867 253.358 551.478C253.358 549.089 252.609 547.279 251.135 546.024C249.662 544.77 247.512 544.142 244.733 544.142H233.644V558.693V558.718ZM252.73 584.514C254.276 583.235 255.049 581.353 255.049 578.916C255.049 576.478 254.228 574.572 252.609 573.172C250.99 571.797 248.768 571.097 245.917 571.097H233.62V586.445H246.11C248.937 586.445 251.135 585.793 252.706 584.514H252.73Z" fill="white"/>
<path d="M331.585 612L322.67 600.031C320.037 600.562 317.452 600.827 314.939 600.827C308.392 600.827 302.401 599.307 296.941 596.266C291.481 593.226 287.157 589.003 283.943 583.549C280.73 578.096 279.136 571.99 279.136 565.185C279.136 558.38 280.73 552.275 283.943 546.869C287.157 541.464 291.481 537.241 296.941 534.2C302.401 531.16 308.392 529.64 314.939 529.64C321.487 529.64 327.478 531.16 332.938 534.2C338.398 537.241 342.674 541.464 345.815 546.869C348.955 552.275 350.526 558.38 350.526 565.185C350.526 571.122 349.318 576.551 346.902 581.474C344.486 586.397 341.128 590.475 336.828 593.709L352.096 612.024H331.585V612ZM301.483 579.857C304.817 583.525 309.286 585.359 314.915 585.359C320.544 585.359 324.917 583.501 328.251 579.809C331.585 576.117 333.252 571.242 333.252 565.161C333.252 559.08 331.585 554.133 328.251 550.465C324.917 546.797 320.472 544.963 314.915 544.963C309.359 544.963 304.817 546.773 301.483 550.417C298.149 554.036 296.482 558.959 296.482 565.161C296.482 571.363 298.149 576.213 301.483 579.857Z" fill="white"/>
</g>
<defs>
<linearGradient id="paint0_linear_1185_6646" x1="388.984" y1="115.377" x2="89.0046" y2="468.099" gradientUnits="userSpaceOnUse">
<stop offset="0.278846" stop-color="#33CFFF"/>
<stop offset="1" stop-color="#0D87C5"/>
</linearGradient>
<linearGradient id="paint1_linear_1185_6646" x1="294.865" y1="90.3841" x2="189.401" y2="214.389" gradientUnits="userSpaceOnUse">
<stop offset="0.278846" stop-color="#33CFFF"/>
<stop offset="1" stop-color="#0D87C5"/>
</linearGradient>
<clipPath id="clip0_1185_6646">
<rect width="490.385" height="490.385" fill="white"/>
</clipPath>
<clipPath id="clip1_1185_6646">
<rect width="213.808" height="82.3846" fill="white" transform="translate(138.289 529.615)"/>
</clipPath>
</defs>
</svg>
