<svg width="146" height="50" viewBox="0 0 146 50" fill="none" xmlns="http://www.w3.org/2000/svg">
<g clip-path="url(#clip0_682_4305)">
<path d="M25.0002 50C18.3225 50 12.0446 47.3998 7.32293 42.6781C2.60125 37.9563 0 31.6783 0 25.0006C0 18.3228 2.60013 12.0448 7.3218 7.32191C12.0435 2.59904 18.3225 0 25.0002 0C31.6779 0 37.9558 2.60017 42.6775 7.32191C47.3991 12.0436 49.9993 18.3217 49.9993 24.9994C49.9993 31.6772 47.3991 37.9552 42.6775 42.677C37.9558 47.3987 31.6779 49.9989 25.0002 49.9989V50ZM25.0002 1.68915C12.1459 1.68915 1.68913 12.1461 1.68913 25.0006C1.68913 37.855 12.1459 48.312 25.0002 48.312C37.8544 48.312 48.3113 37.855 48.3113 25.0006C48.3113 12.1461 37.8533 1.68915 25.0002 1.68915Z" fill="white"/>
<path d="M25.0002 44.9197C26.736 44.9197 28.1431 43.5125 28.1431 41.7767C28.1431 40.0409 26.736 38.6338 25.0002 38.6338C23.2644 38.6338 21.8573 40.0409 21.8573 41.7767C21.8573 43.5125 23.2644 44.9197 25.0002 44.9197Z" fill="white"/>
<path d="M36.6821 31.4723V31.1649C36.6821 29.8147 35.8533 28.6019 34.5955 28.1109L25.901 24.7225C25.7344 24.6571 25.6251 24.4972 25.6251 24.3182V22.3486C25.392 22.3835 25.1544 22.4016 24.9112 22.4016C24.668 22.4016 24.4303 22.3835 24.1972 22.3486V24.3182C24.1972 24.4972 24.088 24.6571 23.9214 24.7225L15.2269 28.1109C13.9679 28.6007 13.1402 29.8136 13.1402 31.1649V31.4993C11.4398 31.809 10.1471 33.3 10.1471 35.0893C10.1471 37.1017 11.7844 38.739 13.7967 38.739C15.809 38.739 17.4464 37.1017 17.4464 35.0893C17.4464 33.3416 16.2111 31.8777 14.5681 31.5219V31.1649C14.5681 30.3969 15.0309 29.7201 15.746 29.4408L24.0418 26.2078C24.1173 26.1785 24.1995 26.2337 24.1995 26.3159V38.2176C22.5723 38.5848 21.3528 40.0408 21.3528 41.7772C21.3528 43.7896 22.9901 45.4269 25.0024 45.4269C27.0147 45.4269 28.652 43.7896 28.652 41.7772C28.652 39.9777 27.3424 38.4789 25.6262 38.1816V26.3159C25.6262 26.2348 25.7085 26.1785 25.7839 26.2078L34.0786 29.4408C34.7892 29.7178 35.2565 30.4025 35.2565 31.1649V31.5658C33.7036 31.9847 32.5573 33.4058 32.5573 35.0893C32.5573 37.1017 34.1946 38.739 36.2069 38.739C38.2192 38.739 39.8566 37.1017 39.8566 35.0893C39.8566 33.238 38.4715 31.7065 36.6833 31.4723H36.6821ZM16.4306 35.0893C16.4306 36.5431 15.2483 37.7255 13.7945 37.7255C12.3407 37.7255 11.1583 36.5431 11.1583 35.0893C11.1583 33.6355 12.3407 32.4531 13.7945 32.4531C15.2483 32.4531 16.4306 33.6355 16.4306 35.0893ZM27.6363 41.7772C27.6363 43.231 26.4539 44.4135 25.0001 44.4135C23.5464 44.4135 22.364 43.231 22.364 41.7772C22.364 40.3235 23.5464 39.141 25.0001 39.141C26.4539 39.141 27.6363 40.3235 27.6363 41.7772ZM36.2058 37.7255C34.752 37.7255 33.5696 36.5431 33.5696 35.0893C33.5696 33.6355 34.752 32.4531 36.2058 32.4531C37.6596 32.4531 38.842 33.6355 38.842 35.0893C38.842 36.5431 37.6596 37.7255 36.2058 37.7255Z" fill="white"/>
<path d="M24.9102 5.08008C29.7641 5.08013 33.6991 9.01509 33.6992 13.8691C33.6992 18.7233 29.7642 22.6582 24.9102 22.6582C20.0561 22.6582 16.1211 18.7233 16.1211 13.8691C16.1212 9.01506 20.0561 5.08008 24.9102 5.08008ZM24.9697 7.06348C24.8391 7.04776 24.7092 7.12361 24.6631 7.25195L24.6611 7.25684C24.6611 7.25684 24.6584 7.2659 24.6572 7.27051L22.0654 14.8428C22.0329 14.9384 22.053 15.0454 22.1182 15.123C22.1835 15.2007 22.2854 15.2384 22.3867 15.2227L24.8125 14.8232L24.7197 20.4033C24.7175 20.5473 24.822 20.6728 24.9648 20.6943C25.0582 20.709 25.1498 20.6761 25.2129 20.6133C25.2466 20.5795 25.2715 20.5375 25.2861 20.4902L27.7188 12.2061C27.7467 12.1105 27.7245 12.0078 27.6582 11.9336C27.5929 11.8593 27.4924 11.824 27.3945 11.8408L25.1475 12.21L25.248 7.3584C25.2502 7.2729 25.2126 7.19102 25.1484 7.13477L25.1465 7.13379C25.0969 7.091 25.0339 7.06573 24.9697 7.06348Z" fill="white"/>
</g>
<g clip-path="url(#clip1_682_4305)">
<path d="M56.891 17.5904C58.1488 15.3042 59.9076 13.5204 62.1573 12.2491C64.407 10.9676 66.9532 10.332 69.8063 10.332C73.3035 10.332 76.2894 11.2547 78.7845 13.1103C81.2694 14.9659 82.9362 17.4879 83.7747 20.6865H75.8906C75.3078 19.4562 74.4692 18.5131 73.3955 17.8672C72.3218 17.2213 71.0947 16.9035 69.7244 16.9035C67.5157 16.9035 65.7261 17.6724 64.3559 19.2204C62.9856 20.7582 62.3005 22.8291 62.3005 25.4023C62.3005 27.9756 62.9856 30.0464 64.3559 31.5842C65.7261 33.122 67.5157 33.9012 69.7244 33.9012C71.0947 33.9012 72.3218 33.5834 73.3955 32.9375C74.4692 32.2916 75.3078 31.3587 75.8906 30.1182H83.7747C82.9362 33.3168 81.2694 35.8285 78.7845 37.6636C76.2894 39.4987 73.3035 40.4214 69.8063 40.4214C66.9532 40.4214 64.3968 39.7858 62.1471 38.5043C59.8974 37.233 58.1386 35.4595 56.8808 33.1835C55.623 30.9076 54.989 28.3139 54.989 25.4023C54.989 22.4908 55.623 19.8868 56.8808 17.6006L56.891 17.5904Z" fill="white"/>
<path d="M110.127 27.5958C111.16 28.9286 111.681 30.4458 111.681 32.1579C111.681 34.6286 110.822 36.5867 109.104 38.022C107.386 39.4675 104.983 40.1852 101.905 40.1852H88.1821V10.6699H101.435C104.431 10.6699 106.773 11.3568 108.46 12.7306C110.147 14.1043 110.996 15.9702 110.996 18.3281C110.996 20.0709 110.536 21.5062 109.636 22.6647C108.726 23.8129 107.519 24.6125 106.006 25.0636C107.713 25.4327 109.084 26.2733 110.117 27.6061L110.127 27.5958ZM95.3607 22.6134H100.054C101.23 22.6134 102.13 22.3571 102.764 21.8342C103.398 21.3114 103.705 20.5528 103.705 19.5378C103.705 18.5229 103.388 17.754 102.764 17.2209C102.14 16.6878 101.23 16.4212 100.054 16.4212H95.3607V22.6031V22.6134ZM103.439 33.5727C104.094 33.0293 104.421 32.2297 104.421 31.1942C104.421 30.1588 104.073 29.3489 103.388 28.7543C102.703 28.1699 101.762 27.8726 100.555 27.8726H95.3504V34.3928H100.637C101.834 34.3928 102.764 34.116 103.429 33.5727H103.439Z" fill="white"/>
<path d="M136.816 45.2495L133.043 40.1646C131.928 40.3901 130.834 40.5029 129.771 40.5029C126.999 40.5029 124.463 39.857 122.152 38.5653C119.841 37.2735 118.011 35.4794 116.651 33.1625C115.291 30.8456 114.616 28.2519 114.616 25.3608C114.616 22.4698 115.291 19.8761 116.651 17.5796C118.011 15.2832 119.841 13.4891 122.152 12.1974C124.463 10.9056 126.999 10.2598 129.771 10.2598C132.542 10.2598 135.078 10.9056 137.389 12.1974C139.7 13.4891 141.51 15.2832 142.839 17.5796C144.169 19.8761 144.833 22.4698 144.833 25.3608C144.833 27.8828 144.322 30.1895 143.299 32.2809C142.277 34.3722 140.855 36.1048 139.035 37.4786L145.498 45.2598H136.816V45.2495ZM124.075 31.594C125.486 33.1523 127.378 33.9314 129.76 33.9314C132.143 33.9314 133.994 33.142 135.405 31.5735C136.816 30.0049 137.522 27.934 137.522 25.3506C137.522 22.7671 136.816 20.6654 135.405 19.1072C133.994 17.5489 132.112 16.7697 129.76 16.7697C127.408 16.7697 125.486 17.5386 124.075 19.0867C122.664 20.6244 121.958 22.7158 121.958 25.3506C121.958 27.9853 122.664 30.0459 124.075 31.594Z" fill="white"/>
</g>
<defs>
<clipPath id="clip0_682_4305">
<rect width="49.9993" height="50" fill="white"/>
</clipPath>
<clipPath id="clip1_682_4305">
<rect width="90.4987" height="35" fill="white" transform="translate(54.9993 10.25)"/>
</clipPath>
</defs>
</svg>
