<svg width="250" height="250" viewBox="0 0 250 250" fill="none" xmlns="http://www.w3.org/2000/svg">
<g clip-path="url(#clip0_682_4324)">
<path d="M125.003 250C91.6139 250 60.2239 236.999 36.6152 213.39C13.0065 189.782 0 158.392 0 125.003C0 91.6139 13.0008 60.2239 36.6095 36.6095C60.2182 12.9952 91.6139 0 125.003 0C158.392 0 189.782 13.0008 213.39 36.6095C236.999 60.2182 250 91.6083 250 124.997C250 158.386 236.999 189.776 213.39 213.385C189.782 236.994 158.392 249.994 125.003 249.994V250ZM125.003 8.44576C60.7306 8.44576 8.44576 60.7306 8.44576 125.003C8.44576 189.275 60.7306 241.56 125.003 241.56C189.275 241.56 241.56 189.275 241.56 125.003C241.56 60.7306 189.269 8.44576 125.003 8.44576Z" fill="url(#paint0_linear_682_4324)"/>
<path d="M125.003 224.6C133.682 224.6 140.718 217.565 140.718 208.886C140.718 200.207 133.682 193.171 125.003 193.171C116.324 193.171 109.288 200.207 109.288 208.886C109.288 217.565 116.324 224.6 125.003 224.6Z" fill="#33CFFF"/>
<path d="M183.414 157.362V155.824C183.414 149.073 179.27 143.009 172.98 140.554L129.507 123.612C128.674 123.286 128.128 122.486 128.128 121.591V111.743C126.962 111.918 125.774 112.008 124.558 112.008C123.342 112.008 122.154 111.918 120.988 111.743V121.591C120.988 122.486 120.442 123.286 119.609 123.612L76.1358 140.554C69.8409 143.004 65.7025 149.068 65.7025 155.824V157.497C57.2004 159.045 50.7366 166.5 50.7366 175.447C50.7366 185.508 58.9233 193.695 68.985 193.695C79.0467 193.695 87.2335 185.508 87.2335 175.447C87.2335 166.708 81.0568 159.388 72.8419 157.609V155.824C72.8419 151.984 75.1561 148.6 78.7314 147.204L120.211 131.039C120.589 130.893 121 131.168 121 131.579V191.088C112.864 192.924 106.766 200.204 106.766 208.886C106.766 218.948 114.952 227.135 125.014 227.135C135.076 227.135 143.263 218.948 143.263 208.886C143.263 199.889 136.714 192.395 128.133 190.908V131.579C128.133 131.174 128.545 130.893 128.922 131.039L170.396 147.204C173.949 148.589 176.286 152.013 176.286 155.824V157.829C168.521 159.923 162.789 167.029 162.789 175.447C162.789 185.508 170.976 193.695 181.038 193.695C191.099 193.695 199.286 185.508 199.286 175.447C199.286 166.19 192.361 158.533 183.419 157.362H183.414ZM82.1548 175.447C82.1548 182.716 76.2428 188.628 68.9738 188.628C61.7048 188.628 55.7928 182.716 55.7928 175.447C55.7928 168.178 61.7048 162.266 68.9738 162.266C76.2428 162.266 82.1548 168.178 82.1548 175.447ZM138.184 208.886C138.184 216.155 132.272 222.067 125.003 222.067C117.734 222.067 111.822 216.155 111.822 208.886C111.822 201.617 117.734 195.705 125.003 195.705C132.272 195.705 138.184 201.617 138.184 208.886ZM181.032 188.628C173.763 188.628 167.851 182.716 167.851 175.447C167.851 168.178 173.763 162.266 181.032 162.266C188.301 162.266 194.213 168.178 194.213 175.447C194.213 182.716 188.301 188.628 181.032 188.628Z" fill="#0D87C5"/>
<path d="M124.552 113.292C148.823 113.292 168.498 93.6162 168.498 69.3455C168.498 45.0747 148.823 25.3994 124.552 25.3994C100.282 25.3994 80.6062 45.0747 80.6062 69.3455C80.6062 93.6162 100.282 113.292 124.552 113.292Z" fill="url(#paint1_linear_682_4324)"/>
<path d="M125.735 35.669C125.487 35.455 125.172 35.3312 124.851 35.3199C124.198 35.2411 123.55 35.6183 123.319 36.2602L123.308 36.2884C123.308 36.2884 123.291 36.3334 123.285 36.3559L110.33 74.2154C110.166 74.694 110.268 75.2289 110.594 75.6174C110.921 76.0059 111.428 76.1917 111.934 76.1129L124.062 74.1197L123.601 102.019C123.59 102.74 124.113 103.365 124.828 103.472C125.296 103.545 125.752 103.381 126.067 103.066C126.236 102.897 126.36 102.689 126.433 102.452L138.595 61.0344C138.736 60.5558 138.623 60.0435 138.291 59.6718C137.964 59.3002 137.463 59.1201 136.973 59.2045L125.74 61.0513L126.242 36.7951C126.253 36.3672 126.067 35.9562 125.746 35.6746L125.735 35.669Z" fill="white"/>
</g>
<defs>
<linearGradient id="paint0_linear_682_4324" x1="198.305" y1="58.8195" x2="45.3749" y2="238.639" gradientUnits="userSpaceOnUse">
<stop offset="0.278846" stop-color="#33CFFF"/>
<stop offset="1" stop-color="#0D87C5"/>
</linearGradient>
<linearGradient id="paint1_linear_682_4324" x1="150.324" y1="46.0785" x2="96.5586" y2="109.297" gradientUnits="userSpaceOnUse">
<stop offset="0.278846" stop-color="#33CFFF"/>
<stop offset="1" stop-color="#0D87C5"/>
</linearGradient>
<clipPath id="clip0_682_4324">
<rect width="250" height="250" fill="white"/>
</clipPath>
</defs>
</svg>
