<svg width="519" height="178" viewBox="0 0 519 178" fill="none" xmlns="http://www.w3.org/2000/svg">
<g clip-path="url(#clip0_682_4261)">
<path d="M89.0006 178C65.2281 178 42.8787 168.743 26.0696 151.934C9.26046 135.125 0 112.775 0 89.002C0 65.2291 9.25645 42.8794 26.0656 26.066C42.8747 9.25258 65.2281 0 89.0006 0C112.773 0 135.123 9.25659 151.932 26.066C168.741 42.8754 177.997 65.2251 177.997 88.998C177.997 112.771 168.741 135.121 151.932 151.93C135.123 168.739 112.773 177.996 89.0006 177.996V178ZM89.0006 6.01338C43.2395 6.01338 6.01329 43.2402 6.01329 89.002C6.01329 134.764 43.2395 171.991 89.0006 171.991C134.762 171.991 171.988 134.764 171.988 89.002C171.988 43.2402 134.758 6.01338 89.0006 6.01338Z" fill="white"/>
<path d="M89.0007 159.916C95.1801 159.916 100.189 154.906 100.189 148.727C100.189 142.548 95.1801 137.538 89.0007 137.538C82.8214 137.538 77.812 142.548 77.812 148.727C77.812 154.906 82.8214 159.916 89.0007 159.916Z" fill="white"/>
<path d="M130.589 112.041V110.946C130.589 106.14 127.638 101.822 123.16 100.074L92.2079 88.0113C91.6146 87.7788 91.2258 87.2096 91.2258 86.5721V79.5605C90.3959 79.6848 89.5501 79.749 88.6842 79.749C87.8182 79.749 86.9724 79.6848 86.1425 79.5605V86.5721C86.1425 87.2096 85.7537 87.7788 85.1604 88.0113L54.208 100.074C49.7261 101.818 46.7796 106.136 46.7796 110.946V112.137C40.7262 113.239 36.124 118.547 36.124 124.917C36.124 132.081 41.9529 137.91 49.1167 137.91C56.2806 137.91 62.1094 132.081 62.1094 124.917C62.1094 118.696 57.7117 113.484 51.8628 112.217V110.946C51.8628 108.212 53.5104 105.803 56.0561 104.809L85.5893 93.2991C85.8579 93.1949 86.1506 93.3913 86.1506 93.684V136.054C80.3578 137.361 76.0162 142.545 76.0162 148.726C76.0162 155.89 81.845 161.719 89.0089 161.719C96.1727 161.719 102.002 155.89 102.002 148.726C102.002 142.32 97.3393 136.984 91.2298 135.926V93.684C91.2298 93.3953 91.5224 93.1949 91.791 93.2991L121.32 104.809C123.85 105.795 125.514 108.232 125.514 110.946V112.374C119.985 113.865 115.904 118.924 115.904 124.917C115.904 132.081 121.733 137.91 128.897 137.91C136.061 137.91 141.89 132.081 141.89 124.917C141.89 118.327 136.959 112.875 130.593 112.041H130.589ZM58.4934 124.917C58.4934 130.093 54.2841 134.302 49.1087 134.302C43.9333 134.302 39.724 130.093 39.724 124.917C39.724 119.742 43.9333 115.533 49.1087 115.533C54.2841 115.533 58.4934 119.742 58.4934 124.917ZM98.3856 148.726C98.3856 153.902 94.1763 158.111 89.0008 158.111C83.8254 158.111 79.6161 153.902 79.6161 148.726C79.6161 143.551 83.8254 139.342 89.0008 139.342C94.1763 139.342 98.3856 143.551 98.3856 148.726ZM128.893 134.302C123.718 134.302 119.508 130.093 119.508 124.917C119.508 119.742 123.718 115.533 128.893 115.533C134.068 115.533 138.278 119.742 138.278 124.917C138.278 130.093 134.068 134.302 128.893 134.302Z" fill="white"/>
<path d="M88.6797 18.084C105.96 18.084 119.969 32.0932 119.969 49.374C119.969 66.6546 105.96 80.6631 88.6797 80.6631C71.3994 80.663 57.3909 66.6545 57.3906 49.374C57.3906 32.0933 71.3993 18.0841 88.6797 18.084ZM88.8926 25.1484C88.4276 25.0923 87.9661 25.3604 87.8018 25.8174L87.7939 25.8379C87.7927 25.8413 87.7821 25.8707 87.7783 25.8857L78.5537 52.8418C78.4375 53.1825 78.5097 53.5633 78.7422 53.8398C78.9747 54.1164 79.3355 54.2485 79.6963 54.1924L88.3311 52.7734L88.002 72.6377C87.994 73.1507 88.3671 73.5955 88.876 73.6719C89.2087 73.724 89.5343 73.6083 89.7588 73.3838C89.879 73.2635 89.9664 73.1146 90.0186 72.9463L98.6777 43.457C98.778 43.1163 98.6984 42.7509 98.4619 42.4863C98.2294 42.2217 97.8722 42.0942 97.5234 42.1543L89.5254 43.4688L89.8828 26.1982C89.8908 25.8937 89.7586 25.6008 89.5303 25.4004L89.5215 25.3965C89.3452 25.2443 89.1209 25.1565 88.8926 25.1484Z" fill="white"/>
</g>
<g clip-path="url(#clip1_682_4261)">
<path d="M202.549 62.6229C207.038 54.4841 213.315 48.1337 221.344 43.6081C229.374 39.046 238.461 36.7832 248.644 36.7832C261.126 36.7832 271.783 40.0679 280.688 46.6738C289.557 53.2797 295.506 62.258 298.499 73.645H270.36C268.279 69.2653 265.287 65.9076 261.454 63.6083C257.622 61.309 253.243 60.1776 248.352 60.1776C240.469 60.1776 234.082 62.9149 229.191 68.4259C224.301 73.9004 221.855 81.2728 221.855 90.4335C221.855 99.5942 224.301 106.967 229.191 112.441C234.082 117.916 240.469 120.689 248.352 120.689C253.243 120.689 257.622 119.558 261.454 117.259C265.287 114.959 268.279 111.638 270.36 107.222H298.499C295.506 118.609 289.557 127.551 280.688 134.084C271.783 140.617 261.126 143.901 248.644 143.901C238.461 143.901 229.337 141.638 221.308 137.076C213.279 132.551 207.001 126.237 202.512 118.135C198.023 110.032 195.76 100.799 195.76 90.4335C195.76 80.0684 198.023 70.7982 202.512 62.6594L202.549 62.6229Z" fill="white"/>
<path d="M392.551 98.2425C396.237 102.987 398.099 108.389 398.099 114.484C398.099 123.279 395.033 130.25 388.901 135.36C382.77 140.506 374.193 143.061 363.208 143.061H314.229V37.9863H361.529C372.222 37.9863 380.58 40.4316 386.602 45.3222C392.624 50.2128 395.653 56.8552 395.653 65.2494C395.653 71.4539 394.011 76.5634 390.799 80.6876C387.551 84.7752 383.244 87.622 377.843 89.2278C383.938 90.5417 388.828 93.5344 392.515 98.279L392.551 98.2425ZM339.85 80.5051H356.602C360.799 80.5051 364.011 79.5927 366.273 77.7313C368.536 75.87 369.631 73.1692 369.631 69.556C369.631 65.9429 368.5 63.2056 366.273 61.3078C364.047 59.4099 360.799 58.461 356.602 58.461H339.85V80.4686V80.5051ZM368.682 119.52C371.018 117.586 372.186 114.739 372.186 111.053C372.186 107.367 370.945 104.483 368.5 102.367C366.054 100.286 362.697 99.2279 358.39 99.2279H339.813V122.44H358.682C362.952 122.44 366.273 121.454 368.646 119.52H368.682Z" fill="white"/>
<path d="M487.808 161.09L474.34 142.987C470.362 143.79 466.457 144.192 462.661 144.192C452.771 144.192 443.72 141.893 435.471 137.294C427.223 132.695 420.69 126.308 415.836 118.06C410.982 109.812 408.573 100.578 408.573 90.2861C408.573 79.994 410.982 70.7603 415.836 62.5851C420.69 54.4098 427.223 48.0229 435.471 43.4243C443.72 38.8257 452.771 36.5264 462.661 36.5264C472.552 36.5264 481.603 38.8257 489.852 43.4243C498.1 48.0229 504.56 54.4098 509.304 62.5851C514.049 70.7603 516.421 79.994 516.421 90.2861C516.421 99.2643 514.596 107.476 510.947 114.921C507.297 122.367 502.224 128.535 495.728 133.425L518.794 161.126H487.808V161.09ZM442.333 112.476C447.369 118.024 454.121 120.797 462.625 120.797C471.129 120.797 477.735 117.987 482.771 112.403C487.808 106.819 490.326 99.4468 490.326 90.2496C490.326 81.0524 487.808 73.5706 482.771 68.0231C477.735 62.4756 471.019 59.7018 462.625 59.7018C454.231 59.7018 447.369 62.4391 442.333 67.9501C437.296 73.4246 434.778 80.8699 434.778 90.2496C434.778 99.6293 437.296 106.965 442.333 112.476Z" fill="white"/>
</g>
<defs>
<clipPath id="clip0_682_4261">
<rect width="177.997" height="178" fill="white"/>
</clipPath>
<clipPath id="clip1_682_4261">
<rect width="322.997" height="124.6" fill="white" transform="translate(195.797 36.4902)"/>
</clipPath>
</defs>
</svg>
