<svg width="291" height="100" viewBox="0 0 291 100" fill="none" xmlns="http://www.w3.org/2000/svg">
<g clip-path="url(#clip0_682_4283)">
<path d="M50.0004 100C36.645 100 24.0892 94.7997 14.6459 85.3562C5.20251 75.9127 0 63.3567 0 50.0011C0 36.6456 5.20026 24.0895 14.6436 14.6438C24.0869 5.19808 36.645 0 50.0004 0C63.3558 0 75.9116 5.20033 85.3549 14.6438C94.7983 24.0873 99.9985 36.6433 99.9985 49.9989C99.9985 63.3544 94.7983 75.9105 85.3549 85.3539C75.9116 94.7974 63.3558 99.9977 50.0004 99.9977V100ZM50.0004 3.3783C24.2919 3.3783 3.37825 24.2922 3.37825 50.0011C3.37825 75.71 24.2919 96.6239 50.0004 96.6239C75.7089 96.6239 96.6225 75.71 96.6225 50.0011C96.6225 24.2922 75.7066 3.3783 50.0004 3.3783Z" fill="white"/>
<path d="M50.0004 89.8403C53.472 89.8403 56.2862 87.0261 56.2862 83.5544C56.2862 80.0828 53.472 77.2686 50.0004 77.2686C46.5288 77.2686 43.7146 80.0828 43.7146 83.5544C43.7146 87.0261 46.5288 89.8403 50.0004 89.8403Z" fill="white"/>
<path d="M73.3644 62.9446V62.3298C73.3644 59.6294 71.7068 57.2037 69.1911 56.2218L51.8021 49.4449C51.4688 49.3143 51.2504 48.9945 51.2504 48.6364V44.6973C50.7842 44.7671 50.309 44.8031 49.8225 44.8031C49.336 44.8031 48.8608 44.7671 48.3946 44.6973V48.6364C48.3946 48.9945 48.1762 49.3143 47.8428 49.4449L30.4538 56.2218C27.9359 57.2015 26.2806 59.6271 26.2806 62.3298V62.9987C22.8798 63.618 20.2943 66.5999 20.2943 70.1787C20.2943 74.2034 23.569 77.4781 27.5936 77.4781C31.6182 77.4781 34.8929 74.2034 34.8929 70.1787C34.8929 66.6833 32.4222 63.7554 29.1363 63.0437V62.3298C29.1363 60.7938 30.062 59.4402 31.4921 58.8816L48.0838 52.4156C48.2347 52.357 48.3991 52.4674 48.3991 52.6318V76.4353C45.1447 77.1695 42.7056 80.0816 42.7056 83.5545C42.7056 87.5792 45.9803 90.8539 50.0049 90.8539C54.0295 90.8539 57.3042 87.5792 57.3042 83.5545C57.3042 79.9555 54.6849 76.9578 51.2526 76.3632V52.6318C51.2526 52.4696 51.417 52.357 51.5679 52.4156L68.1574 58.8816C69.5785 59.4357 70.5132 60.805 70.5132 62.3298V63.1315C67.4074 63.9694 65.1147 66.8116 65.1147 70.1787C65.1147 74.2034 68.3894 77.4781 72.414 77.4781C76.4386 77.4781 79.7133 74.2034 79.7133 70.1787C79.7133 66.4761 76.9431 63.4131 73.3667 62.9446H73.3644ZM32.8614 70.1787C32.8614 73.0863 30.4966 75.4511 27.5891 75.4511C24.6815 75.4511 22.3168 73.0863 22.3168 70.1787C22.3168 67.2711 24.6815 64.9063 27.5891 64.9063C30.4966 64.9063 32.8614 67.2711 32.8614 70.1787ZM55.2727 83.5545C55.2727 86.4621 52.908 88.8269 50.0004 88.8269C47.0929 88.8269 44.7281 86.4621 44.7281 83.5545C44.7281 80.6469 47.0929 78.2821 50.0004 78.2821C52.908 78.2821 55.2727 80.6469 55.2727 83.5545ZM72.4117 75.4511C69.5042 75.4511 67.1394 73.0863 67.1394 70.1787C67.1394 67.2711 69.5042 64.9063 72.4117 64.9063C75.3193 64.9063 77.6841 67.2711 77.6841 70.1787C77.6841 73.0863 75.3193 75.4511 72.4117 75.4511Z" fill="white"/>
<path d="M49.8203 10.1602C59.5283 10.1602 67.3983 18.0301 67.3984 27.7383C67.3984 37.4466 59.5284 45.3173 49.8203 45.3174C40.1122 45.3174 32.2422 37.4466 32.2422 27.7383C32.2424 18.0301 40.1123 10.1602 49.8203 10.1602ZM49.9395 14.1279C49.6784 14.0965 49.4196 14.2474 49.3271 14.5039L49.3223 14.5156C49.3216 14.5174 49.3156 14.5345 49.3135 14.543L44.1309 29.6865C44.0657 29.8779 44.1067 30.0917 44.2373 30.2471C44.3679 30.4025 44.5708 30.4768 44.7734 30.4453L49.624 29.6484L49.4395 40.8076C49.4349 41.0959 49.6446 41.3459 49.9307 41.3887C50.1175 41.4179 50.2997 41.3526 50.4258 41.2266C50.4933 41.1591 50.543 41.0759 50.5723 40.9814L55.4375 24.4141C55.4938 24.2226 55.4483 24.0178 55.3154 23.8691C55.1848 23.7205 54.984 23.6479 54.7881 23.6816L50.2959 24.4209L50.4961 14.7178C50.5004 14.5469 50.4259 14.383 50.2979 14.2705L50.293 14.2676C50.1939 14.1821 50.0677 14.1324 49.9395 14.1279Z" fill="white"/>
</g>
<g clip-path="url(#clip1_682_4283)">
<path d="M113.782 35.1808C116.297 30.6084 119.815 27.0407 124.315 24.4983C128.814 21.9353 133.906 20.6641 139.612 20.6641C146.607 20.6641 152.579 22.5094 157.569 26.2206C162.539 29.9318 165.872 34.9757 167.549 41.3729H151.781C150.615 38.9125 148.938 37.0261 146.791 35.7344C144.643 34.4426 142.189 33.807 139.449 33.807C135.031 33.807 131.452 35.3448 128.712 38.4409C125.971 41.5164 124.601 45.6582 124.601 50.8047C124.601 55.9511 125.971 60.0929 128.712 63.1685C131.452 66.244 135.031 67.8023 139.449 67.8023C142.189 67.8023 144.643 67.1667 146.791 65.875C148.938 64.5832 150.615 62.7174 151.781 60.2364H167.549C165.872 66.6336 162.539 71.657 157.569 75.3272C152.579 78.9974 146.607 80.8427 139.612 80.8427C133.906 80.8427 128.793 79.5715 124.294 77.0085C119.795 74.4661 116.277 70.9189 113.761 66.3671C111.246 61.8152 109.978 56.6277 109.978 50.8047C109.978 44.9816 111.246 39.7736 113.761 35.2013L113.782 35.1808Z" fill="white"/>
<path d="M220.253 55.1926C222.319 57.8581 223.362 60.8927 223.362 64.3168C223.362 69.2582 221.644 73.1745 218.208 76.045C214.772 78.936 209.966 80.3713 203.81 80.3713H176.364V21.3408H202.87C208.862 21.3408 213.545 22.7146 216.92 25.4621C220.294 28.2096 221.992 31.9413 221.992 36.6572C221.992 40.1428 221.072 43.0133 219.272 45.3303C217.452 47.6267 215.038 49.226 212.011 50.1282C215.427 50.8663 218.167 52.5476 220.233 55.2131L220.253 55.1926ZM190.721 45.2278H200.109C202.46 45.2278 204.26 44.7152 205.528 43.6695C206.796 42.6238 207.41 41.1065 207.41 39.0766C207.41 37.0467 206.776 35.509 205.528 34.4428C204.281 33.3766 202.46 32.8435 200.109 32.8435H190.721V45.2073V45.2278ZM206.878 67.1463C208.187 66.0596 208.841 64.4603 208.841 62.3894C208.841 60.3186 208.146 58.6988 206.776 57.5095C205.406 56.3408 203.524 55.7462 201.111 55.7462H190.701V68.7866H201.274C203.667 68.7866 205.528 68.233 206.858 67.1463H206.878Z" fill="white"/>
<path d="M273.632 90.5L266.086 80.3301C263.856 80.7812 261.668 81.0067 259.541 81.0067C253.999 81.0067 248.927 79.715 244.305 77.1315C239.682 74.548 236.022 70.9599 233.302 66.326C230.582 61.6922 229.232 56.5047 229.232 50.7226C229.232 44.9405 230.582 39.7531 233.302 35.1602C236.022 30.5674 239.682 26.9792 244.305 24.3957C248.927 21.8122 253.999 20.5205 259.541 20.5205C265.083 20.5205 270.155 21.8122 274.778 24.3957C279.4 26.9792 283.02 30.5674 285.678 35.1602C288.337 39.7531 289.666 44.9405 289.666 50.7226C289.666 55.7666 288.644 60.3799 286.599 64.5627C284.553 68.7455 281.711 72.2106 278.07 74.9581L290.996 90.5205H273.632V90.5ZM248.149 63.1889C250.972 66.3055 254.755 67.8638 259.521 67.8638C264.286 67.8638 267.988 66.285 270.81 63.1479C273.632 60.0108 275.043 55.8691 275.043 50.7021C275.043 45.5352 273.632 41.3319 270.81 38.2153C267.988 35.0987 264.225 33.5404 259.521 33.5404C254.817 33.5404 250.972 35.0782 248.149 38.1743C245.327 41.2499 243.916 45.4326 243.916 50.7021C243.916 55.9716 245.327 60.0929 248.149 63.1889Z" fill="white"/>
</g>
<defs>
<clipPath id="clip0_682_4283">
<rect width="99.9985" height="100" fill="white"/>
</clipPath>
<clipPath id="clip1_682_4283">
<rect width="180.997" height="70" fill="white" transform="translate(109.998 20.5)"/>
</clipPath>
</defs>
</svg>
