<svg width="500" height="500" viewBox="0 0 500 500" fill="none" xmlns="http://www.w3.org/2000/svg">
<g clip-path="url(#clip0_682_4359)">
<path d="M250.006 500C183.228 500 120.448 473.998 73.2303 426.781C26.0129 379.564 0 316.783 0 250.006C0 183.228 26.0017 120.448 73.2191 73.2191C120.436 25.9904 183.228 0 250.006 0C316.783 0 379.564 26.0017 426.781 73.2191C473.998 120.436 500 183.217 500 249.994C500 316.772 473.998 379.552 426.781 426.77C379.564 473.987 316.783 499.989 250.006 499.989V500ZM250.006 16.8915C121.461 16.8915 16.8915 121.461 16.8915 250.006C16.8915 378.55 121.461 483.12 250.006 483.12C378.55 483.12 483.12 378.55 483.12 250.006C483.12 121.461 378.539 16.8915 250.006 16.8915Z" fill="white"/>
<path d="M250.006 449.202C267.364 449.202 281.435 435.13 281.435 417.772C281.435 400.414 267.364 386.343 250.006 386.343C232.648 386.343 218.576 400.414 218.576 417.772C218.576 435.13 232.648 449.202 250.006 449.202Z" fill="white"/>
<path d="M366.827 314.723V311.649C366.827 298.147 358.539 286.019 345.96 281.109L259.014 247.225C257.348 246.571 256.255 244.972 256.255 243.182V223.486C253.924 223.835 251.548 224.016 249.116 224.016C246.683 224.016 244.307 223.835 241.976 223.486V243.182C241.976 244.972 240.884 246.571 239.217 247.225L152.271 281.109C139.681 286.007 131.404 298.136 131.404 311.649V314.993C114.4 318.09 101.473 333 101.473 350.893C101.473 371.017 117.846 387.39 137.97 387.39C158.093 387.39 174.466 371.017 174.466 350.893C174.466 333.416 162.113 318.777 145.683 315.219V311.649C145.683 303.969 150.312 297.201 157.462 294.408L240.422 262.078C241.177 261.785 241.999 262.337 241.999 263.159V382.176C225.727 385.848 213.531 400.408 213.531 417.772C213.531 437.896 229.904 454.269 250.028 454.269C270.151 454.269 286.525 437.896 286.525 417.772C286.525 399.777 273.428 384.789 256.266 381.816V263.159C256.266 262.348 257.089 261.785 257.843 262.078L340.792 294.408C347.897 297.178 352.571 304.025 352.571 311.649V315.658C337.042 319.847 325.578 334.058 325.578 350.893C325.578 371.017 341.951 387.39 362.075 387.39C382.198 387.39 398.572 371.017 398.572 350.893C398.572 332.38 384.721 317.065 366.838 314.723H366.827ZM164.309 350.893C164.309 365.431 152.485 377.255 137.947 377.255C123.409 377.255 111.585 365.431 111.585 350.893C111.585 336.355 123.409 324.531 137.947 324.531C152.485 324.531 164.309 336.355 164.309 350.893ZM276.367 417.772C276.367 432.31 264.543 444.135 250.005 444.135C235.467 444.135 223.643 432.31 223.643 417.772C223.643 403.235 235.467 391.41 250.005 391.41C264.543 391.41 276.367 403.235 276.367 417.772ZM362.064 377.255C347.526 377.255 335.702 365.431 335.702 350.893C335.702 336.355 347.526 324.531 362.064 324.531C376.602 324.531 388.426 336.355 388.426 350.893C388.426 365.431 376.602 377.255 362.064 377.255Z" fill="white"/>
<path d="M249.104 50.7979C297.646 50.7979 336.997 90.1481 336.997 138.689C336.997 187.231 297.646 226.582 249.104 226.582C200.563 226.582 161.213 187.231 161.213 138.689C161.213 90.1482 200.563 50.7979 249.104 50.7979ZM249.701 70.6406C248.395 70.4832 247.1 71.2379 246.639 72.5215L246.616 72.5771C246.616 72.5771 246.583 72.6678 246.571 72.7129L220.659 148.432C220.333 149.389 220.536 150.458 221.188 151.235C221.842 152.012 222.856 152.384 223.869 152.227L248.125 148.24L247.201 204.038C247.179 205.479 248.226 206.729 249.656 206.943C250.591 207.09 251.503 206.763 252.134 206.133C252.472 205.795 252.72 205.378 252.866 204.905L277.189 122.069C277.471 121.112 277.246 120.088 276.582 119.345C275.929 118.602 274.926 118.24 273.946 118.409L251.48 122.104L252.483 73.5908C252.506 72.735 252.134 71.9127 251.492 71.3496L251.47 71.3389C250.974 70.9109 250.343 70.6631 249.701 70.6406Z" fill="white"/>
</g>
<defs>
<clipPath id="clip0_682_4359">
<rect width="500" height="500" fill="white"/>
</clipPath>
</defs>
</svg>
