<svg width="491" height="612" viewBox="0 0 491 612" fill="none" xmlns="http://www.w3.org/2000/svg">
<g clip-path="url(#clip0_1186_6672)">
<path d="M245.196 490.38C179.703 490.38 118.13 464.879 71.8214 418.57C25.5124 372.261 0 310.688 0 245.196C0 179.703 25.5014 118.13 71.8103 71.8103C118.119 25.4903 179.703 0 245.196 0C310.688 0 372.261 25.5014 418.57 71.8103C464.879 118.119 490.38 179.692 490.38 245.184C490.38 310.677 464.879 372.25 418.57 418.559C372.261 464.868 310.688 490.369 245.196 490.369V490.38ZM245.196 16.5665C119.124 16.5665 16.5665 119.124 16.5665 245.196C16.5665 371.267 119.124 473.825 245.196 473.825C371.267 473.825 473.825 371.267 473.825 245.196C473.825 119.124 371.256 16.5665 245.196 16.5665Z" fill="white"/>
<path d="M245.196 440.559C262.22 440.559 276.021 426.758 276.021 409.734C276.021 392.71 262.22 378.909 245.196 378.909C228.172 378.909 214.371 392.71 214.371 409.734C214.371 426.758 228.172 440.559 245.196 440.559Z" fill="white"/>
<path d="M359.77 308.668V305.653C359.77 292.411 351.641 280.516 339.304 275.7L254.031 242.468C252.396 241.827 251.325 240.259 251.325 238.503V219.187C249.039 219.529 246.709 219.706 244.323 219.706C241.937 219.706 239.607 219.529 237.321 219.187V238.503C237.321 240.259 236.25 241.827 234.615 242.468L149.342 275.7C136.994 280.505 128.876 292.4 128.876 305.653V308.933C112.199 311.97 99.5205 326.593 99.5205 344.142C99.5205 363.879 115.579 379.937 135.315 379.937C155.051 379.937 171.11 363.879 171.11 344.142C171.11 327.001 158.994 312.644 142.881 309.154V305.653C142.881 298.12 147.42 291.483 154.433 288.744L235.797 257.035C236.537 256.748 237.343 257.29 237.343 258.096V374.823C221.384 378.424 209.423 392.704 209.423 409.735C209.423 429.471 225.481 445.529 245.218 445.529C264.954 445.529 281.012 429.471 281.012 409.735C281.012 392.086 268.168 377.386 251.336 374.47V258.096C251.336 257.301 252.142 256.748 252.882 257.035L334.235 288.744C341.204 291.461 345.787 298.176 345.787 305.653V309.584C330.557 313.693 319.314 327.631 319.314 344.142C319.314 363.879 335.373 379.937 355.109 379.937C374.845 379.937 390.904 363.879 390.904 344.142C390.904 325.985 377.319 310.965 359.781 308.668H359.77ZM161.148 344.142C161.148 358.401 149.551 369.997 135.293 369.997C121.035 369.997 109.438 358.401 109.438 344.142C109.438 329.884 121.035 318.287 135.293 318.287C149.551 318.287 161.148 329.884 161.148 344.142ZM271.05 409.735C271.05 423.993 259.454 435.589 245.195 435.589C230.937 435.589 219.341 423.993 219.341 409.735C219.341 395.476 230.937 383.88 245.195 383.88C259.454 383.88 271.05 395.476 271.05 409.735ZM355.098 369.997C340.839 369.997 329.243 358.401 329.243 344.142C329.243 329.884 340.839 318.287 355.098 318.287C369.356 318.287 380.953 329.884 380.953 344.142C380.953 358.401 369.356 369.997 355.098 369.997Z" fill="white"/>
<path d="M244.312 49.8203C291.919 49.8203 330.513 88.4139 330.513 136.021C330.513 183.629 291.919 222.223 244.312 222.223C196.704 222.222 158.11 183.629 158.11 136.021C158.11 88.414 196.704 49.8205 244.312 49.8203ZM244.897 69.2812C243.616 69.1266 242.346 69.8669 241.894 71.126L241.871 71.1807C241.871 71.1807 241.838 71.2693 241.827 71.3135L216.414 145.575C216.094 146.514 216.292 147.564 216.933 148.326C217.573 149.088 218.568 149.452 219.562 149.298L243.352 145.388L242.445 200.112C242.423 201.526 243.451 202.752 244.854 202.962C245.77 203.105 246.665 202.785 247.283 202.167C247.614 201.836 247.857 201.427 248.001 200.963L271.856 119.721C272.133 118.782 271.911 117.777 271.26 117.048C270.619 116.319 269.636 115.966 268.676 116.132L246.643 119.754L247.625 72.1748C247.647 71.3356 247.283 70.5297 246.653 69.9775L246.631 69.9658C246.145 69.5464 245.527 69.3034 244.897 69.2812Z" fill="white"/>
</g>
<g clip-path="url(#clip1_1186_6672)">
<path d="M142.469 546.894C145.441 541.512 149.596 537.313 154.911 534.321C160.226 531.305 166.242 529.809 172.982 529.809C181.244 529.809 188.299 531.98 194.194 536.348C200.064 540.716 204.002 546.652 205.983 554.181H187.357C185.98 551.286 183.999 549.065 181.462 547.545C178.925 546.025 176.026 545.277 172.789 545.277C167.57 545.277 163.343 547.087 160.105 550.731C156.868 554.35 155.249 559.225 155.249 565.282C155.249 571.339 156.868 576.213 160.105 579.833C163.343 583.453 167.57 585.287 172.789 585.287C176.026 585.287 178.925 584.539 181.462 583.018C183.999 581.498 185.98 579.302 187.357 576.382H205.983C204.002 583.911 200.064 589.823 194.194 594.143C188.299 598.462 181.244 600.634 172.982 600.634C166.242 600.634 160.202 599.138 154.887 596.122C149.572 593.129 145.417 588.955 142.445 583.597C139.473 578.24 137.976 572.135 137.976 565.282C137.976 558.428 139.473 552.299 142.445 546.918L142.469 546.894Z" fill="white"/>
<path d="M268.242 570.445C270.682 573.583 271.914 577.154 271.914 581.184C271.914 587 269.885 591.609 265.826 594.987C261.767 598.39 256.09 600.079 248.818 600.079H216.396V530.604H247.707C254.785 530.604 260.318 532.221 264.304 535.455C268.29 538.689 270.295 543.08 270.295 548.631C270.295 552.733 269.208 556.111 267.082 558.838C264.932 561.541 262.081 563.423 258.506 564.485C262.54 565.354 265.778 567.332 268.218 570.47L268.242 570.445ZM233.356 558.718H244.445C247.223 558.718 249.349 558.114 250.847 556.884C252.345 555.653 253.07 553.867 253.07 551.478C253.07 549.089 252.321 547.279 250.847 546.024C249.374 544.77 247.223 544.142 244.445 544.142H233.356V558.693V558.718ZM252.442 584.514C253.988 583.235 254.761 581.353 254.761 578.916C254.761 576.478 253.94 574.572 252.321 573.172C250.702 571.797 248.48 571.097 245.629 571.097H233.332V586.445H245.822C248.649 586.445 250.847 585.793 252.418 584.514H252.442Z" fill="white"/>
<path d="M331.297 612L322.382 600.031C319.749 600.562 317.164 600.827 314.651 600.827C308.104 600.827 302.113 599.307 296.653 596.266C291.193 593.226 286.868 589.003 283.655 583.549C280.442 578.096 278.848 571.99 278.848 565.185C278.848 558.38 280.442 552.275 283.655 546.869C286.868 541.464 291.193 537.241 296.653 534.2C302.113 531.16 308.104 529.64 314.651 529.64C321.199 529.64 327.19 531.16 332.65 534.2C338.11 537.241 342.386 541.464 345.527 546.869C348.667 552.275 350.238 558.38 350.238 565.185C350.238 571.122 349.03 576.551 346.614 581.474C344.198 586.397 340.84 590.475 336.539 593.709L351.808 612.024H331.297V612ZM301.195 579.857C304.529 583.525 308.998 585.359 314.627 585.359C320.256 585.359 324.629 583.501 327.963 579.809C331.297 576.117 332.964 571.242 332.964 565.161C332.964 559.08 331.297 554.133 327.963 550.465C324.629 546.797 320.184 544.963 314.627 544.963C309.071 544.963 304.529 546.773 301.195 550.417C297.861 554.036 296.194 558.959 296.194 565.161C296.194 571.363 297.861 576.213 301.195 579.857Z" fill="white"/>
</g>
<defs>
<clipPath id="clip0_1186_6672">
<rect width="490.38" height="490.38" fill="white"/>
</clipPath>
<clipPath id="clip1_1186_6672">
<rect width="213.808" height="82.3846" fill="white" transform="translate(138 529.615)"/>
</clipPath>
</defs>
</svg>
