<svg width="75" height="75" viewBox="0 0 75 75" fill="none" xmlns="http://www.w3.org/2000/svg">
<g clip-path="url(#clip0_682_4352)">
<path d="M37.5008 75C27.4842 75 18.0672 71.0997 10.9845 64.0171C3.90194 56.9345 0 47.5175 0 37.5008C0 27.4842 3.90025 18.0672 10.9829 10.9829C18.0655 3.89856 27.4842 0 37.5008 0C47.5175 0 56.9345 3.90025 64.0171 10.9829C71.0997 18.0655 75 27.4825 75 37.4992C75 47.5158 71.0997 56.9328 64.0171 64.0154C56.9345 71.0981 47.5175 74.9983 37.5008 74.9983V75ZM37.5008 2.53373C18.2192 2.53373 2.53373 18.2192 2.53373 37.5008C2.53373 56.7825 18.2192 72.468 37.5008 72.468C56.7825 72.468 72.468 56.7825 72.468 37.5008C72.468 18.2192 56.7808 2.53373 37.5008 2.53373Z" fill="#1D3366"/>
<path d="M37.5008 67.38C40.1045 67.38 42.2152 65.2693 42.2152 62.6656C42.2152 60.0619 40.1045 57.9512 37.5008 57.9512C34.8971 57.9512 32.7864 60.0619 32.7864 62.6656C32.7864 65.2693 34.8971 67.38 37.5008 67.38Z" fill="#1D3366"/>
<path d="M55.0241 47.208V46.7468C55.0241 44.7215 53.7809 42.9023 51.8941 42.1658L38.8522 37.0832C38.6022 36.9852 38.4383 36.7454 38.4383 36.4768V33.5225C38.0887 33.5748 37.7323 33.6018 37.3674 33.6018C37.0026 33.6018 36.6461 33.5748 36.2965 33.5225V36.4768C36.2965 36.7454 36.1326 36.9852 35.8826 37.0832L22.8407 42.1658C20.9522 42.9006 19.7107 44.7198 19.7107 46.7468V47.2485C17.1601 47.713 15.2209 49.9495 15.2209 52.6335C15.2209 55.652 17.677 58.1081 20.6955 58.1081C23.714 58.1081 26.17 55.652 26.17 52.6335C26.17 50.012 24.317 47.8161 21.8526 47.2823V46.7468C21.8526 45.5948 22.5468 44.5796 23.6194 44.1607L36.0634 39.3112C36.1766 39.2673 36.2999 39.35 36.2999 39.4733V57.326C33.859 57.8766 32.0297 60.0607 32.0297 62.6654C32.0297 65.6839 34.4857 68.1399 37.5042 68.1399C40.5227 68.1399 42.9788 65.6839 42.9788 62.6654C42.9788 59.9661 41.0143 57.7179 38.44 57.2719V39.4733C38.44 39.3517 38.5633 39.2673 38.6765 39.3112L51.1188 44.1607C52.1846 44.5763 52.8856 45.6033 52.8856 46.7468V47.3482C50.5563 47.9765 48.8367 50.1082 48.8367 52.6335C48.8367 55.652 51.2928 58.1081 54.3113 58.1081C57.3298 58.1081 59.7858 55.652 59.7858 52.6335C59.7858 49.8566 57.7082 47.5593 55.0258 47.208H55.0241ZM24.6464 52.6335C24.6464 54.8142 22.8728 56.5878 20.6921 56.5878C18.5114 56.5878 16.7378 54.8142 16.7378 52.6335C16.7378 50.4528 18.5114 48.6792 20.6921 48.6792C22.8728 48.6792 24.6464 50.4528 24.6464 52.6335ZM41.4552 62.6654C41.4552 64.8461 39.6815 66.6197 37.5008 66.6197C35.3202 66.6197 33.5465 64.8461 33.5465 62.6654C33.5465 60.4847 35.3202 58.7111 37.5008 58.7111C39.6815 58.7111 41.4552 60.4847 41.4552 62.6654ZM54.3096 56.5878C52.1289 56.5878 50.3553 54.8142 50.3553 52.6335C50.3553 50.4528 52.1289 48.6792 54.3096 48.6792C56.4903 48.6792 58.2639 50.4528 58.2639 52.6335C58.2639 54.8142 56.4903 56.5878 54.3096 56.5878Z" fill="#1D3366"/>
<path d="M37.3652 7.62012C44.6465 7.62012 50.5498 13.5225 50.5498 20.8037C50.5497 28.0848 44.6464 33.9873 37.3652 33.9873C30.0843 33.9871 24.1818 28.0847 24.1816 20.8037C24.1816 13.5226 30.0842 7.62037 37.3652 7.62012ZM37.4551 10.5957C37.2593 10.5722 37.0654 10.6856 36.9961 10.8779L36.9922 10.8867C36.9916 10.8883 36.9869 10.9009 36.9854 10.9072L33.0986 22.2646C33.0497 22.4082 33.0807 22.569 33.1787 22.6855C33.2766 22.8018 33.4283 22.8575 33.5801 22.834L37.2188 22.2363L37.0801 30.6055C37.0767 30.8216 37.2338 31.0098 37.4482 31.042C37.5884 31.064 37.7257 31.0145 37.8203 30.9199C37.8709 30.8693 37.9077 30.8062 37.9297 30.7354L41.5781 18.3105C41.6204 18.167 41.587 18.0129 41.4873 17.9014C41.3893 17.79 41.2387 17.7364 41.0918 17.7617L37.7217 18.3154L37.8721 11.0391C37.8754 10.9107 37.8199 10.7866 37.7236 10.7021L37.7207 10.7012C37.6464 10.637 37.5514 10.5991 37.4551 10.5957Z" fill="#1D3366"/>
</g>
<defs>
<clipPath id="clip0_682_4352">
<rect width="75" height="75" fill="white"/>
</clipPath>
</defs>
</svg>
