<svg width="146" height="50" viewBox="0 0 146 50" fill="none" xmlns="http://www.w3.org/2000/svg">
<g clip-path="url(#clip0_682_4294)">
<path d="M25.0002 50C18.3225 50 12.0446 47.3998 7.32293 42.6781C2.60125 37.9563 0 31.6783 0 25.0006C0 18.3228 2.60013 12.0448 7.3218 7.32191C12.0435 2.59904 18.3225 0 25.0002 0C31.6779 0 37.9558 2.60017 42.6775 7.32191C47.3991 12.0436 49.9993 18.3217 49.9993 24.9994C49.9993 31.6772 47.3991 37.9552 42.6775 42.677C37.9558 47.3987 31.6779 49.9989 25.0002 49.9989V50ZM25.0002 1.68915C12.1459 1.68915 1.68913 12.1461 1.68913 25.0006C1.68913 37.855 12.1459 48.312 25.0002 48.312C37.8544 48.312 48.3113 37.855 48.3113 25.0006C48.3113 12.1461 37.8533 1.68915 25.0002 1.68915Z" fill="url(#paint0_linear_682_4294)"/>
<path d="M25.0002 44.9197C26.736 44.9197 28.1431 43.5125 28.1431 41.7767C28.1431 40.0409 26.736 38.6338 25.0002 38.6338C23.2644 38.6338 21.8573 40.0409 21.8573 41.7767C21.8573 43.5125 23.2644 44.9197 25.0002 44.9197Z" fill="#33CFFF"/>
<path d="M36.6822 31.4723V31.1649C36.6822 29.8147 35.8534 28.6019 34.5956 28.1109L25.9011 24.7225C25.7344 24.6571 25.6252 24.4972 25.6252 24.3182V22.3486C25.3921 22.3835 25.1545 22.4016 24.9112 22.4016C24.668 22.4016 24.4304 22.3835 24.1973 22.3486V24.3182C24.1973 24.4972 24.0881 24.6571 23.9214 24.7225L15.2269 28.1109C13.968 28.6007 13.1403 29.8136 13.1403 31.1649V31.4993C11.4399 31.809 10.1472 33.3 10.1472 35.0893C10.1472 37.1017 11.7845 38.739 13.7968 38.739C15.8091 38.739 17.4464 37.1017 17.4464 35.0893C17.4464 33.3416 16.2111 31.8777 14.5682 31.5219V31.1649C14.5682 30.3969 15.031 29.7201 15.746 29.4408L24.0419 26.2078C24.1174 26.1785 24.1996 26.2337 24.1996 26.3159V38.2176C22.5724 38.5848 21.3528 40.0408 21.3528 41.7772C21.3528 43.7896 22.9901 45.4269 25.0025 45.4269C27.0148 45.4269 28.6521 43.7896 28.6521 41.7772C28.6521 39.9777 27.3425 38.4789 25.6263 38.1816V26.3159C25.6263 26.2348 25.7085 26.1785 25.784 26.2078L34.0787 29.4408C34.7893 29.7178 35.2566 30.4025 35.2566 31.1649V31.5658C33.7037 31.9847 32.5574 33.4058 32.5574 35.0893C32.5574 37.1017 34.1947 38.739 36.207 38.739C38.2193 38.739 39.8566 37.1017 39.8566 35.0893C39.8566 33.238 38.4716 31.7065 36.6833 31.4723H36.6822ZM16.4307 35.0893C16.4307 36.5431 15.2483 37.7255 13.7945 37.7255C12.3408 37.7255 11.1584 36.5431 11.1584 35.0893C11.1584 33.6355 12.3408 32.4531 13.7945 32.4531C15.2483 32.4531 16.4307 33.6355 16.4307 35.0893ZM27.6364 41.7772C27.6364 43.231 26.454 44.4135 25.0002 44.4135C23.5464 44.4135 22.364 43.231 22.364 41.7772C22.364 40.3235 23.5464 39.141 25.0002 39.141C26.454 39.141 27.6364 40.3235 27.6364 41.7772ZM36.2059 37.7255C34.7521 37.7255 33.5697 36.5431 33.5697 35.0893C33.5697 33.6355 34.7521 32.4531 36.2059 32.4531C37.6596 32.4531 38.842 33.6355 38.842 35.0893C38.842 36.5431 37.6596 37.7255 36.2059 37.7255Z" fill="#0D87C5"/>
<path d="M24.9101 22.6585C29.7642 22.6585 33.6992 18.7234 33.6992 13.8693C33.6992 9.01515 29.7642 5.08008 24.9101 5.08008C20.056 5.08008 16.121 9.01515 16.121 13.8693C16.121 18.7234 20.056 22.6585 24.9101 22.6585Z" fill="url(#paint1_linear_682_4294)"/>
<path d="M25.1466 7.13341C25.097 7.09062 25.034 7.06584 24.9698 7.06359C24.8392 7.04783 24.7097 7.12328 24.6635 7.25165L24.6612 7.25728C24.6612 7.25728 24.6579 7.26629 24.6567 7.2708L22.0656 14.8427C22.033 14.9384 22.0532 15.0454 22.1185 15.1231C22.1839 15.2008 22.2852 15.238 22.3865 15.2222L24.8121 14.8236L24.7198 20.4034C24.7175 20.5475 24.8223 20.6725 24.9653 20.6939C25.0587 20.7086 25.15 20.6759 25.213 20.6128C25.2468 20.5791 25.2716 20.5374 25.2862 20.4901L27.7186 12.2065C27.7467 12.1108 27.7242 12.0083 27.6577 11.934C27.5924 11.8597 27.4922 11.8236 27.3942 11.8405L25.1477 12.2099L25.2479 7.35863C25.2502 7.27305 25.213 7.19084 25.1488 7.13454L25.1466 7.13341Z" fill="white"/>
</g>
<g clip-path="url(#clip1_682_4294)">
<path d="M56.891 17.5904C58.1488 15.3042 59.9076 13.5204 62.1573 12.2491C64.407 10.9676 66.9532 10.332 69.8062 10.332C73.3035 10.332 76.2894 11.2547 78.7845 13.1103C81.2694 14.9659 82.9362 17.4879 83.7747 20.6865H75.8906C75.3077 19.4562 74.4692 18.5131 73.3955 17.8672C72.3218 17.2213 71.0947 16.9035 69.7244 16.9035C67.5156 16.9035 65.7261 17.6724 64.3559 19.2204C62.9856 20.7582 62.3005 22.8291 62.3005 25.4023C62.3005 27.9756 62.9856 30.0464 64.3559 31.5842C65.7261 33.122 67.5156 33.9012 69.7244 33.9012C71.0947 33.9012 72.3218 33.5834 73.3955 32.9375C74.4692 32.2916 75.3077 31.3587 75.8906 30.1182H83.7747C82.9362 33.3168 81.2694 35.8285 78.7845 37.6636C76.2894 39.4987 73.3035 40.4214 69.8062 40.4214C66.9532 40.4214 64.3968 39.7858 62.1471 38.5043C59.8974 37.233 58.1385 35.4595 56.8808 33.1835C55.623 30.9076 54.989 28.3139 54.989 25.4023C54.989 22.4908 55.623 19.8868 56.8808 17.6006L56.891 17.5904Z" fill="white"/>
<path d="M110.127 27.5958C111.16 28.9286 111.681 30.4458 111.681 32.1579C111.681 34.6286 110.822 36.5867 109.104 38.022C107.386 39.4675 104.983 40.1852 101.905 40.1852H88.1821V10.6699H101.435C104.431 10.6699 106.773 11.3568 108.46 12.7306C110.147 14.1043 110.996 15.9702 110.996 18.3281C110.996 20.0709 110.536 21.5062 109.636 22.6647C108.726 23.8129 107.519 24.6125 106.006 25.0636C107.713 25.4327 109.084 26.2733 110.116 27.6061L110.127 27.5958ZM95.3606 22.6134H100.054C101.23 22.6134 102.13 22.3571 102.764 21.8342C103.398 21.3114 103.705 20.5528 103.705 19.5378C103.705 18.5229 103.388 17.754 102.764 17.2209C102.14 16.6878 101.23 16.4212 100.054 16.4212H95.3606V22.6031V22.6134ZM103.439 33.5727C104.093 33.0293 104.421 32.2297 104.421 31.1942C104.421 30.1588 104.073 29.3489 103.388 28.7543C102.703 28.1699 101.762 27.8726 100.555 27.8726H95.3504V34.3928H100.637C101.834 34.3928 102.764 34.116 103.429 33.5727H103.439Z" fill="white"/>
<path d="M136.816 45.2495L133.043 40.1646C131.928 40.3901 130.834 40.5029 129.771 40.5029C126.999 40.5029 124.463 39.857 122.152 38.5653C119.841 37.2735 118.011 35.4794 116.651 33.1625C115.291 30.8456 114.616 28.2519 114.616 25.3608C114.616 22.4698 115.291 19.8761 116.651 17.5796C118.011 15.2832 119.841 13.4891 122.152 12.1974C124.463 10.9056 126.999 10.2598 129.771 10.2598C132.542 10.2598 135.078 10.9056 137.389 12.1974C139.7 13.4891 141.51 15.2832 142.839 17.5796C144.169 19.8761 144.833 22.4698 144.833 25.3608C144.833 27.8828 144.322 30.1895 143.299 32.2809C142.277 34.3722 140.855 36.1048 139.035 37.4786L145.498 45.2598H136.816V45.2495ZM124.075 31.594C125.486 33.1523 127.378 33.9314 129.76 33.9314C132.143 33.9314 133.994 33.142 135.405 31.5735C136.816 30.0049 137.522 27.934 137.522 25.3506C137.522 22.7671 136.816 20.6654 135.405 19.1072C133.994 17.5489 132.112 16.7697 129.76 16.7697C127.408 16.7697 125.486 17.5386 124.075 19.0867C122.664 20.6244 121.958 22.7158 121.958 25.3506C121.958 27.9853 122.664 30.0459 124.075 31.594Z" fill="white"/>
</g>
<defs>
<linearGradient id="paint0_linear_682_4294" x1="39.6605" y1="11.7639" x2="9.07432" y2="47.7273" gradientUnits="userSpaceOnUse">
<stop offset="0.278846" stop-color="#33CFFF"/>
<stop offset="1" stop-color="#0D87C5"/>
</linearGradient>
<linearGradient id="paint1_linear_682_4294" x1="30.0644" y1="9.21589" x2="19.3113" y2="21.8595" gradientUnits="userSpaceOnUse">
<stop offset="0.278846" stop-color="#33CFFF"/>
<stop offset="1" stop-color="#0D87C5"/>
</linearGradient>
<clipPath id="clip0_682_4294">
<rect width="49.9993" height="50" fill="white"/>
</clipPath>
<clipPath id="clip1_682_4294">
<rect width="90.4987" height="35" fill="white" transform="translate(54.9992 10.25)"/>
</clipPath>
</defs>
</svg>
