<svg width="536" height="536" viewBox="0 0 536 536" fill="none" xmlns="http://www.w3.org/2000/svg">
<path d="M207.466 118.784C289.882 58.9197 405.119 77.0723 464.983 159.397C434.639 128.778 393.385 111.45 350.297 111.634C261.738 111.817 190.139 183.966 190.322 272.525C190.506 361.085 262.655 432.683 351.214 432.5C381.283 432.867 410.895 424.066 436.105 407.656C432.438 410.773 428.405 413.982 424.371 416.916C341.954 476.78 226.718 458.628 166.854 376.303C106.989 293.886 125.049 178.649 207.466 118.784ZM116.796 246.116V296.355L0 418.284V363.003L88.5596 271.235L0 180.201V125.012L116.796 246.116ZM211.224 264.182C215.808 305.161 239.368 341.465 274.938 362.092C336.911 398.12 416.577 377.126 452.789 315.153C454.54 312.142 456.154 309.088 457.638 306H495.905C480.514 369.193 423.551 416.089 355.613 416.089C275.855 416.089 211.224 351.548 211.224 271.698V264.182ZM430.843 306C412.781 339.366 377.532 362.111 336.906 362.362C322.513 362.546 308.487 359.705 295.377 354.112C303.353 356.038 311.604 357.045 319.854 357.229C355.221 357.229 387.703 337.459 403.668 306H430.843ZM336.632 147.474C386.781 147.63 428.809 182.197 440.487 229H407.545C398.969 206.962 382.133 188.121 358.909 177.544C311.604 156 255.773 176.81 234.229 224.115C247.522 178.644 289.144 147.29 336.632 147.474ZM405.852 137.302C448.045 153.254 479.626 187.516 492.994 229H468.713C462.693 191.928 440.782 157.713 405.852 137.302Z" fill="white"/>
<path d="M506.125 222.852C522.459 222.852 535.7 236.093 535.7 252.427V284.276C535.7 300.61 522.459 313.851 506.125 313.852H311.576C295.242 313.852 282.001 300.61 282.001 284.276V252.427C282.001 236.093 295.242 222.852 311.576 222.852H506.125ZM468.177 239.98C462.956 239.98 458.157 241.193 453.78 243.619C449.456 246.045 446.001 249.42 443.417 253.744C440.886 258.068 439.62 262.946 439.62 268.378C439.62 273.81 440.886 278.715 443.417 283.092C446.001 287.416 449.456 290.791 453.78 293.217C458.157 295.642 462.956 296.855 468.177 296.855C473.397 296.855 478.17 295.643 482.494 293.217C486.818 290.791 490.246 287.416 492.777 283.092C495.309 278.715 496.574 273.81 496.574 268.378C496.574 262.946 495.309 258.068 492.777 253.744C490.299 249.42 486.871 246.045 482.494 243.619C478.17 241.193 473.397 239.981 468.177 239.98ZM321.966 240.771V296.302H335.492V276.367H343.877C348.412 276.367 352.209 275.55 355.268 273.915C358.326 272.28 360.595 270.145 362.071 267.508C363.548 264.818 364.286 261.865 364.286 258.648C364.286 255.168 363.521 252.083 361.992 249.394C360.463 246.704 358.168 244.595 355.109 243.065C352.051 241.536 348.307 240.771 343.877 240.771H321.966ZM380.82 240.771V296.302H394.347V275.339H397.59L409.139 296.302H424.405L411.591 274.311C415.651 273.098 418.71 271.041 420.767 268.141C422.876 265.24 423.931 261.944 423.931 258.253C423.931 254.983 423.166 252.03 421.637 249.394C420.107 246.704 417.787 244.595 414.676 243.065C411.617 241.536 407.899 240.771 403.522 240.771H380.82ZM468.177 252.241C472.606 252.241 476.14 253.718 478.776 256.671C481.466 259.571 482.81 263.474 482.811 268.378C482.811 273.23 481.466 277.133 478.776 280.086C476.14 283.039 472.606 284.516 468.177 284.516C463.694 284.516 460.108 283.065 457.419 280.165C454.782 277.212 453.464 273.282 453.464 268.378C453.464 263.421 454.782 259.492 457.419 256.592C460.108 253.692 463.694 252.241 468.177 252.241ZM402.731 252.004C405.21 252.004 407.056 252.61 408.269 253.823C409.534 255.036 410.167 256.697 410.167 258.807C410.167 261.021 409.534 262.735 408.269 263.948C407.056 265.161 405.21 265.768 402.731 265.768H394.347V252.004H402.731ZM342.849 251.688C345.432 251.688 347.357 252.294 348.623 253.507C349.889 254.72 350.521 256.434 350.521 258.648C350.521 260.863 349.889 262.577 348.623 263.79C347.357 265.003 345.433 265.609 342.849 265.609H335.492V251.688H342.849Z" fill="white"/>
</svg>
