<svg width="536" height="536" viewBox="0 0 536 536" fill="none" xmlns="http://www.w3.org/2000/svg">
<path d="M207.465 118.784C289.881 58.92 405.118 77.0719 464.982 159.397C434.638 128.777 393.383 111.451 350.296 111.634C261.737 111.817 190.138 183.967 190.321 272.526C190.505 361.085 262.654 432.684 351.213 432.5C381.282 432.867 410.894 424.066 436.104 407.657C432.438 410.773 428.404 413.982 424.37 416.915C341.953 476.78 226.717 458.628 166.853 376.303C106.988 293.886 125.048 178.649 207.465 118.784ZM116.795 246.116V296.355L0 418.284V363.003L88.5586 271.236L0 180.201V125.012L116.795 246.116ZM211.223 264.181C215.806 305.16 239.367 341.464 274.938 362.091C336.91 398.12 416.576 377.126 452.788 315.154C454.539 312.142 456.153 309.088 457.637 306H495.904C480.513 369.194 423.55 416.089 355.612 416.089C275.854 416.089 211.223 351.548 211.223 271.699V264.181ZM430.842 306C412.78 339.366 377.531 362.111 336.905 362.363C322.512 362.546 308.486 359.704 295.376 354.112C303.352 356.037 311.603 357.045 319.854 357.229C355.22 357.229 387.702 337.459 403.667 306H430.842ZM336.631 147.474C386.78 147.63 428.809 182.197 440.486 229H407.544C398.968 206.962 382.132 188.12 358.908 177.543C311.603 155.999 255.772 176.811 234.229 224.116C247.522 178.644 289.143 147.291 336.631 147.474ZM405.851 137.301C448.044 153.253 479.625 187.516 492.993 229H468.712C462.692 191.929 440.781 157.712 405.851 137.301Z" fill="#303446"/>
<path d="M506.125 222.852C522.458 222.852 535.7 236.093 535.7 252.427V284.277C535.699 300.611 522.458 313.852 506.125 313.853H311.576C295.242 313.853 282.001 300.611 282 284.277V252.427C282 236.093 295.242 222.852 311.576 222.852H506.125ZM468.176 239.98C462.956 239.98 458.157 241.193 453.78 243.619C449.456 246.045 446.001 249.42 443.417 253.744C440.885 258.068 439.62 262.946 439.62 268.378C439.62 273.81 440.885 278.715 443.417 283.092C446.001 287.416 449.456 290.791 453.78 293.217C458.157 295.642 462.956 296.855 468.176 296.855C473.397 296.855 478.169 295.643 482.494 293.217C486.818 290.791 490.246 287.416 492.777 283.092C495.308 278.715 496.574 273.81 496.574 268.378C496.574 262.946 495.308 258.068 492.777 253.744C490.298 249.42 486.871 246.045 482.494 243.619C478.169 241.193 473.397 239.981 468.176 239.98ZM321.965 240.771V296.302H335.492V276.367H343.876C348.412 276.367 352.208 275.55 355.267 273.915C358.326 272.28 360.594 270.145 362.071 267.508C363.547 264.818 364.286 261.865 364.286 258.648C364.286 255.168 363.521 252.083 361.992 249.394C360.462 246.704 358.168 244.595 355.109 243.065C352.05 241.536 348.306 240.771 343.876 240.771H321.965ZM380.82 240.771V296.302H394.346V275.339H397.589L409.138 296.302H424.405L411.59 274.311C415.651 273.098 418.709 271.041 420.766 268.141C422.875 265.24 423.93 261.944 423.93 258.253C423.93 254.983 423.166 252.03 421.636 249.394C420.107 246.704 417.787 244.595 414.675 243.065C411.617 241.536 407.899 240.771 403.522 240.771H380.82ZM468.176 252.241C472.606 252.241 476.139 253.718 478.776 256.671C481.465 259.571 482.81 263.474 482.81 268.378C482.81 273.23 481.465 277.133 478.776 280.086C476.139 283.039 472.606 284.516 468.176 284.516C463.694 284.516 460.108 283.065 457.418 280.165C454.782 277.212 453.463 273.282 453.463 268.378C453.463 263.421 454.782 259.492 457.418 256.592C460.108 253.692 463.694 252.241 468.176 252.241ZM402.731 252.004C405.209 252.004 407.055 252.61 408.268 253.823C409.534 255.036 410.166 256.697 410.167 258.807C410.167 261.021 409.534 262.735 408.268 263.948C407.055 265.161 405.21 265.768 402.731 265.768H394.346V252.004H402.731ZM342.848 251.688C345.432 251.688 347.357 252.294 348.623 253.507C349.888 254.72 350.521 256.434 350.521 258.648C350.521 260.863 349.888 262.577 348.623 263.79C347.357 265.003 345.432 265.609 342.848 265.609H335.492V251.688H342.848Z" fill="#303446"/>
</svg>
