<svg width="748" height="600" viewBox="0 0 748 600" fill="none" xmlns="http://www.w3.org/2000/svg">
<path d="M4.39808 546.151C7.30648 540.878 11.3735 536.764 16.5755 533.832C21.7776 530.876 27.6653 529.41 34.2624 529.41C42.3492 529.41 49.2537 531.538 55.0232 535.818C60.7691 540.098 64.6233 545.915 66.5623 553.292H48.3315C46.9837 550.455 45.0448 548.279 42.562 546.79C40.0792 545.3 37.2418 544.567 34.0733 544.567C28.9658 544.567 24.8278 546.34 21.6593 549.911C18.4908 553.458 16.9066 558.234 16.9066 564.169C16.9066 570.104 18.4908 574.881 21.6593 578.427C24.8278 581.974 28.9658 583.771 34.0733 583.771C37.2418 583.771 40.0792 583.038 42.562 581.549C45.0448 580.059 46.9837 577.907 48.3315 575.046H66.5623C64.6233 582.424 60.7691 588.217 55.0232 592.449C49.2537 596.682 42.3492 598.81 34.2624 598.81C27.6653 598.81 21.7539 597.344 16.5519 594.388C11.3499 591.456 7.28284 587.366 4.37443 582.116C1.46603 576.867 0 570.885 0 564.169C0 557.454 1.46603 551.448 4.37443 546.175L4.39808 546.151Z" fill="white"/>
<path d="M91.3658 594.696C86.0219 591.716 81.7893 587.578 78.6444 582.234C75.4996 576.891 73.939 570.908 73.939 564.24C73.939 557.572 75.4996 551.59 78.6444 546.293C81.7893 540.996 86.0219 536.859 91.3658 533.879C96.7097 530.9 102.574 529.41 108.982 529.41C115.39 529.41 121.254 530.9 126.598 533.879C131.942 536.859 136.127 540.996 139.201 546.293C142.275 551.59 143.812 557.572 143.812 564.24C143.812 570.908 142.251 576.891 139.153 582.234C136.056 587.578 131.847 591.716 126.55 594.696C121.254 597.675 115.39 599.165 108.982 599.165C102.574 599.165 96.7097 597.675 91.3658 594.696ZM122.01 578.593C125.273 574.975 126.905 570.199 126.905 564.24C126.905 558.281 125.273 553.434 122.01 549.84C118.747 546.246 114.397 544.449 108.958 544.449C103.52 544.449 99.0742 546.222 95.8111 549.793C92.548 553.339 90.9165 558.163 90.9165 564.24C90.9165 570.317 92.548 575.07 95.8111 578.64C99.0742 582.234 103.449 584.031 108.958 584.031C114.467 584.031 118.747 582.211 122.01 578.593Z" fill="white"/>
<path d="M230.142 530.387V598.486H213.543V557.65L198.315 598.486H184.932L169.609 557.556V598.486H153.01V530.387H172.612L191.718 577.536L210.635 530.387H230.142Z" fill="white"/>
<path d="M319.191 530.387V598.486H302.592V557.65L287.364 598.486H273.981L258.658 557.556V598.486H242.059V530.387H261.661L280.767 577.536L299.707 530.387H319.215H319.191Z" fill="white"/>
<path d="M373.529 586.45H348.11L344.043 598.486H326.687L351.302 530.387H370.502L395.141 598.486H377.572L373.505 586.45H373.529ZM369.249 573.658L360.808 548.736L352.461 573.658H369.249Z" fill="white"/>
<path d="M463.548 598.486H446.949L419.213 556.468V598.486H402.614V530.387H419.213L446.949 572.594V530.387H463.548V598.486Z" fill="white"/>
<path d="M519.919 534.643C525.287 537.48 529.449 541.477 532.381 546.631C535.313 551.786 536.802 557.697 536.802 564.436C536.802 571.175 535.336 577.016 532.381 582.194C529.425 587.373 525.263 591.369 519.872 594.23C514.481 597.067 508.215 598.51 501.098 598.51H475.584V530.387H501.098C508.286 530.387 514.552 531.805 519.919 534.643ZM514.694 578.978C518.193 575.55 519.943 570.702 519.943 564.436C519.943 558.17 518.193 553.276 514.694 549.776C511.194 546.277 506.323 544.55 500.034 544.55H492.183V584.133H500.034C506.3 584.133 511.194 582.431 514.694 579.002V578.978Z" fill="white"/>
<path d="M596.862 569.426C599.25 572.5 600.456 575.999 600.456 579.948C600.456 585.646 598.47 590.163 594.498 593.473C590.525 596.807 584.968 598.462 577.851 598.462H546.119V530.387H576.763C583.691 530.387 589.106 531.971 593.008 535.139C596.909 538.308 598.872 542.611 598.872 548.05C598.872 552.07 597.808 555.38 595.727 558.052C593.623 560.7 590.832 562.545 587.333 563.585C591.282 564.436 594.45 566.375 596.838 569.449L596.862 569.426ZM562.694 557.934H573.548C576.267 557.934 578.348 557.343 579.814 556.137C581.28 554.931 581.989 553.181 581.989 550.84C581.989 548.499 581.256 546.726 579.814 545.496C578.371 544.267 576.267 543.652 573.548 543.652H562.694V557.91V557.934ZM581.374 583.211C582.888 581.958 583.644 580.113 583.644 577.725C583.644 575.337 582.84 573.469 581.256 572.098C579.672 570.75 577.496 570.064 574.706 570.064H562.671V585.103H574.895C577.662 585.103 579.814 584.464 581.351 583.211H581.374Z" fill="white"/>
<path d="M728.023 598.486L714.143 577.631L701.918 598.486H683.096L704.921 563.845L682.6 530.387H701.918L715.609 550.958L727.644 530.387H746.466L724.831 564.72L747.341 598.486H728.023Z" fill="white"/>
<path d="M650.681 596.232C633.849 596.232 620.204 582.638 620.204 565.866C620.204 549.095 633.849 535.5 650.681 535.5C659.17 535.5 666.844 538.96 672.37 544.542C666.004 535.876 655.722 530.242 644.114 530.242C624.78 530.242 609.106 545.856 609.106 565.119C609.106 584.383 624.78 599.997 644.11 599.997C652.832 599.997 660.804 596.81 666.938 591.549C662.23 594.514 656.658 596.236 650.681 596.236" fill="white"/>
<path d="M661.158 540.379C668.485 544.655 673.411 552.577 673.411 561.647C673.411 575.253 662.341 586.279 648.69 586.283C635.986 586.283 625.526 576.736 624.131 564.451C624.107 564.935 624.09 565.419 624.09 565.906C624.09 580.977 636.353 593.193 651.475 593.193C666.598 593.193 678.861 580.973 678.861 565.906C678.861 554.233 671.503 544.278 661.158 540.379Z" fill="white"/>
<path d="M647.954 542.27C638.764 542.27 631.004 548.36 628.509 556.711C631.295 550.517 637.536 546.203 644.79 546.203C654.643 546.203 662.629 554.16 662.629 563.977C662.629 573.794 654.643 581.751 644.79 581.751C643.18 581.751 641.619 581.533 640.134 581.136C642.539 582.138 645.182 582.691 647.954 582.695C659.159 582.695 668.238 573.642 668.238 562.48C668.238 551.315 659.156 542.27 647.954 542.27Z" fill="white"/>
<path d="M110.784 104.983L225.353 223.778V273.059L110.784 392.665V338.438L197.655 248.419L110.784 159.12V104.983Z" fill="url(#paint0_linear_1207_7711)"/>
<path d="M455.304 406.61C368.433 406.79 297.659 336.556 297.479 249.684C297.299 162.813 367.533 92.0392 454.404 91.8594C496.671 91.6795 537.139 108.676 566.905 138.712C508.182 57.9562 395.141 40.1503 314.296 98.8738C233.45 157.597 215.734 270.638 274.457 351.484C333.181 432.24 446.221 450.046 527.067 391.322C531.024 388.444 534.981 385.297 538.578 382.239C513.847 398.337 484.8 406.97 455.304 406.61Z" fill="url(#paint1_linear_1207_7711)"/>
<path d="M508.9 117.038C569.692 152.56 590.285 230.708 554.943 291.499C519.422 352.291 441.274 372.885 380.482 337.543C345.589 317.309 322.478 281.697 317.981 241.499V248.873C317.981 327.201 381.381 390.511 459.619 390.511C537.857 390.511 601.257 327.111 601.257 248.873C600.447 190.24 563.846 137.811 508.9 117.038Z" fill="url(#paint2_linear_1207_7711)"/>
<path d="M440.999 127.016C394.416 126.836 353.589 157.592 340.549 202.197C361.682 155.793 416.449 135.38 462.852 156.513C509.255 177.646 529.669 232.413 508.536 278.816C493.608 311.82 460.604 332.773 424.542 332.773C416.449 332.593 408.355 331.604 400.532 329.716C413.391 335.201 427.15 337.989 441.269 337.809C499.453 337.449 546.396 290.057 546.036 231.873C545.497 173.869 498.734 127.196 440.999 127.016Z" fill="url(#paint3_linear_1207_7711)"/>
<path d="M387.411 229.965C387.411 213.942 400.4 200.953 416.422 200.953H607.263C623.285 200.953 636.274 213.942 636.274 229.965V261.208C636.274 277.23 623.285 290.219 607.263 290.219H416.422C400.4 290.219 387.411 277.23 387.411 261.208V229.965Z" fill="url(#paint4_linear_1207_7711)"/>
<path d="M468.127 236.07C468.127 239.226 467.402 242.123 465.954 244.761C464.505 247.347 462.281 249.442 459.281 251.046C456.28 252.65 452.556 253.451 448.107 253.451H439.882V273.005H426.613V218.534H448.107C452.452 218.534 456.125 219.284 459.126 220.784C462.126 222.284 464.376 224.353 465.876 226.992C467.376 229.63 468.127 232.656 468.127 236.07ZM447.098 242.899C449.633 242.899 451.521 242.304 452.763 241.114C454.004 239.924 454.625 238.243 454.625 236.07C454.625 233.898 454.004 232.216 452.763 231.027C451.521 229.837 449.633 229.242 447.098 229.242H439.882V242.899H447.098Z" fill="#303446"/>
<path d="M512.125 273.005L500.796 252.443H497.614V273.005H484.346V218.534H506.615C510.909 218.534 514.556 219.284 517.556 220.784C520.608 222.284 522.884 224.353 524.385 226.992C525.885 229.578 526.635 232.475 526.635 235.682C526.635 239.303 525.6 242.536 523.531 245.382C521.514 248.227 518.513 250.244 514.53 251.434L527.1 273.005H512.125ZM497.614 243.054H505.839C508.271 243.054 510.081 242.459 511.271 241.269C512.513 240.079 513.133 238.398 513.133 236.225C513.133 234.156 512.513 232.527 511.271 231.337C510.081 230.147 508.271 229.552 505.839 229.552H497.614V243.054Z" fill="#303446"/>
<path d="M570.037 273.549C564.916 273.549 560.208 272.359 555.915 269.979C551.673 267.6 548.285 264.289 545.75 260.047C543.267 255.753 542.025 250.943 542.025 245.614C542.025 240.286 543.267 235.501 545.75 231.259C548.285 227.017 551.673 223.707 555.915 221.327C560.208 218.948 564.916 217.758 570.037 217.758C575.158 217.758 579.84 218.948 584.082 221.327C588.375 223.707 591.738 227.017 594.169 231.259C596.652 235.501 597.894 240.286 597.894 245.614C597.894 250.943 596.652 255.753 594.169 260.047C591.686 264.289 588.324 267.6 584.082 269.979C579.84 272.359 575.158 273.549 570.037 273.549ZM570.037 261.444C574.382 261.444 577.848 259.995 580.435 257.098C583.073 254.202 584.392 250.374 584.392 245.614C584.392 240.803 583.073 236.975 580.435 234.13C577.848 231.233 574.382 229.785 570.037 229.785C565.64 229.785 562.122 231.208 559.484 234.053C556.898 236.898 555.604 240.752 555.604 245.614C555.604 250.425 556.898 254.279 559.484 257.176C562.122 260.021 565.64 261.444 570.037 261.444Z" fill="#303446"/>
<defs>
<linearGradient id="paint0_linear_1207_7711" x1="110.784" y1="245.098" x2="601.257" y2="245.098" gradientUnits="userSpaceOnUse">
<stop stop-color="#00DBFF"/>
<stop offset="1" stop-color="#00FF75"/>
</linearGradient>
<linearGradient id="paint1_linear_1207_7711" x1="110.784" y1="245.098" x2="601.257" y2="245.098" gradientUnits="userSpaceOnUse">
<stop stop-color="#00DBFF"/>
<stop offset="1" stop-color="#00FF75"/>
</linearGradient>
<linearGradient id="paint2_linear_1207_7711" x1="110.784" y1="245.098" x2="601.257" y2="245.098" gradientUnits="userSpaceOnUse">
<stop stop-color="#00DBFF"/>
<stop offset="1" stop-color="#00FF75"/>
</linearGradient>
<linearGradient id="paint3_linear_1207_7711" x1="110.784" y1="245.098" x2="601.257" y2="245.098" gradientUnits="userSpaceOnUse">
<stop stop-color="#00DBFF"/>
<stop offset="1" stop-color="#00FF75"/>
</linearGradient>
<linearGradient id="paint4_linear_1207_7711" x1="387.411" y1="245.586" x2="636.274" y2="245.586" gradientUnits="userSpaceOnUse">
<stop stop-color="#00DBFF"/>
<stop offset="1" stop-color="#00FF75"/>
</linearGradient>
</defs>
</svg>
