<svg width="536" height="536" viewBox="0 0 536 536" fill="none" xmlns="http://www.w3.org/2000/svg">
<path d="M0 125.012L116.795 246.116V296.354L0 418.283V363.003L88.559 271.235L0 180.201V125.012Z" fill="url(#paint0_linear_1148_274)"/>
<path d="M351.213 432.5C262.654 432.683 190.505 361.084 190.322 272.525C190.139 183.966 261.738 111.817 350.297 111.634C393.384 111.45 434.638 128.777 464.983 159.397C405.119 77.0718 289.882 58.92 207.466 118.784C125.049 178.649 106.989 293.886 166.853 376.302C226.717 458.627 341.954 476.779 424.371 416.915C428.405 413.981 432.438 410.773 436.105 407.656C410.894 424.066 381.283 432.866 351.213 432.5Z" fill="url(#paint1_linear_1148_274)"/>
<path d="M405.851 137.301C467.824 173.513 488.818 253.18 452.789 315.153C416.577 377.126 336.911 398.119 274.938 362.091C239.367 341.464 215.807 305.16 211.223 264.181V271.698C211.223 351.548 275.854 416.088 355.612 416.088C435.371 416.088 500.002 351.456 500.002 271.698C499.177 211.925 461.865 158.478 405.851 137.301Z" fill="url(#paint2_linear_1148_274)"/>
<path d="M336.631 147.474C289.143 147.29 247.522 178.643 234.229 224.115C255.773 176.81 311.604 156 358.908 177.543C406.213 199.087 427.024 254.918 405.48 302.223C390.261 335.868 356.616 357.228 319.854 357.228C311.604 357.045 303.353 356.037 295.377 354.111C308.487 359.704 322.513 362.546 336.906 362.362C396.22 361.995 444.075 313.682 443.709 254.368C443.159 195.237 395.487 147.657 336.631 147.474Z" fill="url(#paint3_linear_1148_274)"/>
<path d="M282.001 252.423C282.001 236.089 295.242 222.848 311.576 222.848H506.125C522.459 222.848 535.7 236.089 535.7 252.423V284.273C535.7 300.607 522.459 313.848 506.125 313.848H311.576C295.242 313.848 282.001 300.607 282.001 284.273V252.423Z" fill="url(#paint4_linear_1148_274)"/>
<path d="M364.285 258.645C364.285 261.861 363.547 264.815 362.071 267.504C360.594 270.141 358.326 272.277 355.268 273.911C352.209 275.546 348.412 276.364 343.877 276.364H335.492V296.297H321.966V240.768H343.877C348.307 240.768 352.051 241.532 355.11 243.062C358.168 244.591 360.462 246.7 361.992 249.39C363.521 252.079 364.285 255.164 364.285 258.645ZM342.849 265.606C345.433 265.606 347.358 264.999 348.623 263.786C349.889 262.573 350.522 260.86 350.522 258.645C350.522 256.43 349.889 254.716 348.623 253.503C347.358 252.29 345.433 251.684 342.849 251.684H335.492V265.606H342.849Z" fill="#303446"/>
<path d="M409.138 296.297L397.589 275.335H394.346V296.297H380.82V240.768H403.522C407.899 240.768 411.617 241.532 414.675 243.062C417.787 244.591 420.107 246.7 421.636 249.39C423.166 252.026 423.93 254.98 423.93 258.249C423.93 261.941 422.876 265.237 420.766 268.137C418.71 271.037 415.651 273.094 411.59 274.307L424.405 296.297H409.138ZM394.346 265.764H402.731C405.21 265.764 407.055 265.157 408.268 263.945C409.534 262.732 410.167 261.018 410.167 258.803C410.167 256.693 409.534 255.032 408.268 253.819C407.055 252.607 405.21 252 402.731 252H394.346V265.764Z" fill="#303446"/>
<path d="M468.176 296.851C462.955 296.851 458.156 295.638 453.779 293.212C449.455 290.787 446.001 287.411 443.417 283.087C440.885 278.71 439.62 273.806 439.62 268.374C439.62 262.943 440.885 258.065 443.417 253.74C446.001 249.416 449.455 246.041 453.779 243.615C458.156 241.189 462.955 239.977 468.176 239.977C473.396 239.977 478.169 241.189 482.493 243.615C486.87 246.041 490.298 249.416 492.776 253.74C495.308 258.065 496.573 262.943 496.573 268.374C496.573 273.806 495.308 278.71 492.776 283.087C490.245 287.411 486.817 290.787 482.493 293.212C478.169 295.638 473.396 296.851 468.176 296.851ZM468.176 284.511C472.605 284.511 476.139 283.035 478.775 280.081C481.465 277.128 482.81 273.226 482.81 268.374C482.81 263.47 481.465 259.568 478.775 256.667C476.139 253.714 472.605 252.237 468.176 252.237C463.693 252.237 460.107 253.688 457.418 256.588C454.781 259.488 453.463 263.417 453.463 268.374C453.463 273.279 454.781 277.207 457.418 280.16C460.107 283.061 463.693 284.511 468.176 284.511Z" fill="#303446"/>
<defs>
<linearGradient id="paint0_linear_1148_274" x1="0" y1="267.85" x2="500.002" y2="267.85" gradientUnits="userSpaceOnUse">
<stop stop-color="#00DBFF"/>
<stop offset="1" stop-color="#00FF75"/>
</linearGradient>
<linearGradient id="paint1_linear_1148_274" x1="0" y1="267.85" x2="500.002" y2="267.85" gradientUnits="userSpaceOnUse">
<stop stop-color="#00DBFF"/>
<stop offset="1" stop-color="#00FF75"/>
</linearGradient>
<linearGradient id="paint2_linear_1148_274" x1="0" y1="267.85" x2="500.002" y2="267.85" gradientUnits="userSpaceOnUse">
<stop stop-color="#00DBFF"/>
<stop offset="1" stop-color="#00FF75"/>
</linearGradient>
<linearGradient id="paint3_linear_1148_274" x1="0" y1="267.85" x2="500.002" y2="267.85" gradientUnits="userSpaceOnUse">
<stop stop-color="#00DBFF"/>
<stop offset="1" stop-color="#00FF75"/>
</linearGradient>
<linearGradient id="paint4_linear_1148_274" x1="282.001" y1="268.348" x2="535.7" y2="268.348" gradientUnits="userSpaceOnUse">
<stop stop-color="#00DBFF"/>
<stop offset="1" stop-color="#00FF75"/>
</linearGradient>
</defs>
</svg>
