<svg width="748" height="600" viewBox="0 0 748 600" fill="none" xmlns="http://www.w3.org/2000/svg">
<path d="M313.512 98.8778C394.357 40.1544 507.398 57.9599 566.121 138.716C536.355 108.68 495.886 91.6833 453.62 91.8632C366.749 92.0432 296.515 162.817 296.695 249.688C296.875 336.559 367.649 406.794 454.52 406.614C484.016 406.974 513.064 398.34 537.794 382.243C534.197 385.301 530.24 388.448 526.283 391.326C445.437 450.05 332.397 432.243 273.674 351.487C214.951 270.641 232.666 157.601 313.512 98.8778ZM224.569 223.782V273.063L110 392.669V338.441L196.871 248.423L110 159.124V104.986L224.569 223.782ZM317.197 241.503C321.694 281.701 344.806 317.313 379.698 337.547C440.49 372.889 518.637 352.295 554.159 291.504C555.876 288.55 557.46 285.554 558.915 282.525H596.453C581.355 344.514 525.478 390.515 458.835 390.515C380.597 390.514 317.197 327.205 317.197 248.877V241.503ZM532.632 282.525C514.914 315.255 480.337 337.567 440.485 337.813C426.367 337.993 412.608 335.205 399.748 329.72C407.572 331.608 415.665 332.597 423.759 332.777C458.451 332.777 490.314 313.384 505.975 282.525H532.632ZM440.216 127.02C489.409 127.174 530.635 161.081 542.091 206.992H509.777C501.365 185.374 484.849 166.892 462.068 156.516C415.665 135.383 360.899 155.797 339.766 202.2C352.805 157.596 393.633 126.841 440.216 127.02ZM508.116 117.042C549.505 132.69 580.484 166.299 593.598 206.992H569.779C563.874 170.627 542.381 137.064 508.116 117.042Z" fill="white"/>
<path d="M606.479 200.961C622.501 200.961 635.49 213.95 635.49 229.973V261.216C635.49 277.238 622.501 290.227 606.479 290.228H415.638C399.615 290.228 386.626 277.238 386.626 261.216V229.973C386.626 213.95 399.615 200.961 415.638 200.961H606.479ZM569.253 217.762C564.132 217.762 559.424 218.952 555.131 221.331C550.889 223.711 547.501 227.022 544.966 231.264C542.483 235.505 541.241 240.29 541.241 245.618C541.241 250.946 542.483 255.757 544.966 260.051C547.501 264.293 550.889 267.604 555.131 269.983C559.424 272.363 564.132 273.553 569.253 273.553C574.374 273.553 579.056 272.363 583.298 269.983C587.54 267.604 590.902 264.293 593.385 260.051C595.868 255.757 597.109 250.946 597.109 245.618C597.109 240.29 595.868 235.505 593.385 231.264C590.953 227.022 587.591 223.711 583.298 221.331C579.056 218.952 574.374 217.762 569.253 217.762ZM425.829 218.538V273.01H439.098V253.455H447.323C451.772 253.455 455.497 252.653 458.497 251.05C461.497 249.446 463.722 247.351 465.17 244.765C466.618 242.126 467.343 239.23 467.343 236.074C467.343 232.66 466.592 229.634 465.092 226.996C463.592 224.358 461.342 222.288 458.342 220.788C455.342 219.288 451.668 218.538 447.323 218.538H425.829ZM483.562 218.538V273.01H496.83V252.447H500.012L511.341 273.01H526.316L513.746 251.438C517.729 250.249 520.73 248.231 522.747 245.386C524.816 242.541 525.851 239.308 525.851 235.687C525.851 232.479 525.101 229.583 523.601 226.996C522.1 224.358 519.824 222.288 516.772 220.788C513.772 219.288 510.125 218.538 505.831 218.538H483.562ZM569.253 229.789C573.598 229.789 577.065 231.238 579.651 234.135C582.289 236.98 583.608 240.808 583.608 245.618C583.608 250.377 582.289 254.206 579.651 257.103C577.065 259.999 573.598 261.448 569.253 261.448C564.856 261.448 561.338 260.025 558.7 257.18C556.114 254.283 554.82 250.429 554.82 245.618C554.82 240.756 556.114 236.902 558.7 234.057C561.338 231.212 564.856 229.789 569.253 229.789ZM505.056 229.557C507.487 229.557 509.298 230.151 510.487 231.341C511.729 232.531 512.35 234.16 512.35 236.229C512.35 238.402 511.729 240.084 510.487 241.273C509.298 242.463 507.487 243.058 505.056 243.058H496.83V229.557H505.056ZM446.314 229.246C448.849 229.246 450.737 229.841 451.979 231.03C453.22 232.22 453.841 233.902 453.841 236.074C453.841 238.247 453.22 239.928 451.979 241.118C450.737 242.308 448.849 242.902 446.314 242.902H439.098V229.246H446.314Z" fill="white"/>
<path d="M4.39808 546.151C7.30648 540.878 11.3735 536.764 16.5755 533.832C21.7776 530.876 27.6653 529.41 34.2624 529.41C42.3492 529.41 49.2537 531.538 55.0232 535.818C60.7691 540.098 64.6233 545.915 66.5623 553.292H48.3315C46.9837 550.455 45.0448 548.279 42.562 546.79C40.0792 545.3 37.2418 544.567 34.0733 544.567C28.9658 544.567 24.8278 546.34 21.6593 549.911C18.4908 553.458 16.9066 558.234 16.9066 564.169C16.9066 570.104 18.4908 574.881 21.6593 578.427C24.8278 581.974 28.9658 583.771 34.0733 583.771C37.2418 583.771 40.0792 583.038 42.562 581.549C45.0448 580.059 46.9837 577.907 48.3315 575.046H66.5623C64.6233 582.424 60.7691 588.217 55.0232 592.449C49.2537 596.682 42.3492 598.81 34.2624 598.81C27.6653 598.81 21.7539 597.344 16.5519 594.388C11.3499 591.456 7.28284 587.366 4.37443 582.116C1.46603 576.867 0 570.885 0 564.169C0 557.454 1.46603 551.448 4.37443 546.175L4.39808 546.151Z" fill="white"/>
<path d="M91.3658 594.696C86.0219 591.716 81.7893 587.578 78.6444 582.234C75.4996 576.891 73.939 570.908 73.939 564.24C73.939 557.572 75.4996 551.59 78.6444 546.293C81.7893 540.996 86.0219 536.859 91.3658 533.879C96.7097 530.9 102.574 529.41 108.982 529.41C115.39 529.41 121.254 530.9 126.598 533.879C131.942 536.859 136.127 540.996 139.201 546.293C142.275 551.59 143.812 557.572 143.812 564.24C143.812 570.908 142.251 576.891 139.153 582.234C136.056 587.578 131.847 591.716 126.55 594.696C121.254 597.675 115.39 599.165 108.982 599.165C102.574 599.165 96.7097 597.675 91.3658 594.696ZM122.01 578.593C125.273 574.975 126.905 570.199 126.905 564.24C126.905 558.281 125.273 553.434 122.01 549.84C118.747 546.246 114.397 544.449 108.958 544.449C103.52 544.449 99.0742 546.222 95.8111 549.793C92.548 553.339 90.9165 558.163 90.9165 564.24C90.9165 570.317 92.548 575.07 95.8111 578.64C99.0742 582.234 103.449 584.031 108.958 584.031C114.467 584.031 118.747 582.211 122.01 578.593Z" fill="white"/>
<path d="M230.142 530.387V598.486H213.543V557.65L198.315 598.486H184.932L169.609 557.556V598.486H153.01V530.387H172.612L191.718 577.536L210.635 530.387H230.142Z" fill="white"/>
<path d="M319.191 530.387V598.486H302.592V557.65L287.364 598.486H273.981L258.658 557.556V598.486H242.059V530.387H261.661L280.767 577.536L299.707 530.387H319.215H319.191Z" fill="white"/>
<path d="M373.529 586.45H348.11L344.043 598.486H326.687L351.302 530.387H370.502L395.141 598.486H377.572L373.505 586.45H373.529ZM369.249 573.658L360.808 548.736L352.461 573.658H369.249Z" fill="white"/>
<path d="M463.548 598.486H446.949L419.213 556.468V598.486H402.614V530.387H419.213L446.949 572.594V530.387H463.548V598.486Z" fill="white"/>
<path d="M519.919 534.643C525.287 537.48 529.449 541.477 532.381 546.631C535.313 551.786 536.802 557.697 536.802 564.436C536.802 571.175 535.336 577.016 532.381 582.194C529.425 587.373 525.263 591.369 519.872 594.23C514.481 597.067 508.215 598.51 501.098 598.51H475.584V530.387H501.098C508.286 530.387 514.552 531.805 519.919 534.643ZM514.694 578.978C518.193 575.55 519.943 570.702 519.943 564.436C519.943 558.17 518.193 553.276 514.694 549.776C511.194 546.277 506.323 544.55 500.034 544.55H492.183V584.133H500.034C506.3 584.133 511.194 582.431 514.694 579.002V578.978Z" fill="white"/>
<path d="M596.862 569.426C599.25 572.5 600.456 575.999 600.456 579.948C600.456 585.646 598.47 590.163 594.498 593.473C590.525 596.807 584.968 598.462 577.851 598.462H546.119V530.387H576.763C583.691 530.387 589.106 531.971 593.008 535.139C596.909 538.308 598.872 542.611 598.872 548.05C598.872 552.07 597.808 555.38 595.727 558.052C593.623 560.7 590.832 562.545 587.333 563.585C591.282 564.436 594.45 566.375 596.838 569.449L596.862 569.426ZM562.694 557.934H573.548C576.267 557.934 578.348 557.343 579.814 556.137C581.28 554.931 581.989 553.181 581.989 550.84C581.989 548.499 581.256 546.726 579.814 545.496C578.371 544.267 576.267 543.652 573.548 543.652H562.694V557.91V557.934ZM581.374 583.211C582.888 581.958 583.644 580.113 583.644 577.725C583.644 575.337 582.84 573.469 581.256 572.098C579.672 570.75 577.496 570.064 574.706 570.064H562.671V585.103H574.895C577.662 585.103 579.814 584.464 581.351 583.211H581.374Z" fill="white"/>
<path d="M728.023 598.486L714.143 577.631L701.918 598.486H683.096L704.921 563.845L682.6 530.387H701.918L715.609 550.958L727.644 530.387H746.466L724.831 564.72L747.341 598.486H728.023Z" fill="white"/>
<path d="M650.681 596.232C633.849 596.232 620.204 582.638 620.204 565.866C620.204 549.095 633.849 535.5 650.681 535.5C659.17 535.5 666.844 538.96 672.37 544.542C666.004 535.876 655.722 530.242 644.114 530.242C624.78 530.242 609.106 545.856 609.106 565.119C609.106 584.383 624.78 599.997 644.11 599.997C652.832 599.997 660.804 596.81 666.938 591.549C662.23 594.514 656.658 596.236 650.681 596.236" fill="white"/>
<path d="M661.158 540.379C668.485 544.655 673.411 552.577 673.411 561.647C673.411 575.253 662.341 586.279 648.69 586.283C635.986 586.283 625.526 576.736 624.131 564.451C624.107 564.935 624.09 565.419 624.09 565.906C624.09 580.977 636.353 593.193 651.475 593.193C666.598 593.193 678.861 580.973 678.861 565.906C678.861 554.233 671.503 544.278 661.158 540.379Z" fill="white"/>
<path d="M647.954 542.27C638.764 542.27 631.004 548.36 628.509 556.711C631.295 550.517 637.536 546.203 644.79 546.203C654.643 546.203 662.629 554.16 662.629 563.977C662.629 573.794 654.643 581.751 644.79 581.751C643.18 581.751 641.619 581.533 640.134 581.136C642.539 582.138 645.182 582.691 647.954 582.695C659.159 582.695 668.238 573.642 668.238 562.48C668.238 551.315 659.156 542.27 647.954 542.27Z" fill="white"/>
</svg>
