<svg width="490" height="511" viewBox="0 0 490 511" fill="none" xmlns="http://www.w3.org/2000/svg">
<g clip-path="url(#clip0_1206_7041)">
<path d="M410.135 37.5586H79.8326C35.7488 37.5586 0 73.6981 0 118.303V311.698C0 356.303 35.7488 392.442 79.8326 392.442H410.135C454.219 392.442 489.967 356.303 489.967 311.698V118.303C489.967 73.6981 454.219 37.5586 410.135 37.5586ZM269.744 172.577C270.2 172.121 271.079 171.242 271.958 170.786C272.837 170.363 273.293 169.907 274.172 169.452C275.051 168.996 275.93 168.996 276.842 168.573C278.6 168.117 280.391 168.117 282.149 168.573C283.028 168.573 283.907 169.028 284.819 169.452C285.73 169.875 286.577 170.331 287.033 170.786C287.912 171.242 288.367 171.666 289.246 172.577C291.46 175.28 293.219 178.405 293.219 181.987C293.219 185.568 291.884 189.149 289.246 191.396C288.791 191.852 287.912 192.731 287.033 193.187C286.153 193.61 285.698 194.066 284.819 194.521C283.94 194.977 283.06 194.977 282.149 195.4C281.237 195.824 280.391 195.856 279.512 195.856C278.633 195.856 277.753 195.856 276.874 195.4C275.995 195.4 275.116 194.945 274.205 194.521C273.293 194.098 272.447 193.642 271.991 193.187C271.112 192.731 270.656 192.307 269.777 191.396C267.107 188.693 265.805 185.568 265.805 181.987C265.805 178.405 267.14 174.824 269.777 172.577H269.744ZM320.177 237.433L198.084 316.159C193.656 318.828 188.805 320.163 183.953 320.163C179.526 320.163 175.098 319.284 171.126 317.038C162.726 312.154 157.419 303.2 157.419 293.368V136.373C157.419 126.507 162.726 117.587 171.126 113.093C179.526 108.633 189.716 108.633 197.66 113.973L259.163 153.791C265.349 157.373 267.107 165.87 263.135 172.121C259.586 178.373 251.186 180.163 245 176.126L183.953 137.219V292.88L305.591 215.066L301.163 211.94C294.977 208.359 293.219 199.861 297.191 193.61C300.74 187.359 309.14 185.568 315.326 189.605L320.209 192.731C328.186 197.647 332.581 206.145 332.581 215.098C332.581 224.052 327.698 232.517 320.209 237.466L320.177 237.433Z" fill="#0E1F3D"/>
</g>
<path d="M28.3687 457.134C31.2812 451.799 35.3411 447.643 40.5523 444.667C45.7596 441.691 51.6684 440.199 58.2711 440.199C66.3604 440.199 73.287 442.358 79.0472 446.679C84.8073 451.001 88.6575 456.891 90.5979 464.351H72.3454C70.9883 461.471 69.0594 459.277 66.5701 457.774C64.0769 456.271 61.2445 455.515 58.0766 455.515C52.9646 455.515 48.8208 457.315 45.6491 460.916C42.4774 464.516 40.8916 469.327 40.8916 475.349C40.8916 481.37 42.4774 486.181 45.6491 489.782C48.8208 493.382 52.9608 495.183 58.0766 495.183C61.2483 495.183 64.0807 494.431 66.5701 492.924C69.0594 491.42 70.9883 489.227 72.3454 486.347H90.5979C88.6575 493.806 84.8035 499.681 79.0472 503.968C73.287 508.255 66.3604 510.398 58.2711 510.398C51.6684 510.398 45.7634 508.91 40.5523 505.93C35.3411 502.954 31.2812 498.814 28.3687 493.513C25.4562 488.213 24 482.161 24 475.353C24 468.545 25.4562 462.477 28.3687 457.142V457.134Z" fill="#0E1F3D"/>
<path d="M145.154 440.988V454.438H117.39V468.968H138.166V482.024H117.39V509.904H100.788V440.988H145.154Z" fill="#0E1F3D"/>
<path d="M155.446 457.134C158.358 451.799 162.418 447.643 167.629 444.667C172.837 441.691 178.746 440.199 185.348 440.199C193.438 440.199 200.364 442.358 206.124 446.679C211.884 451.001 215.735 456.891 217.675 464.351H199.423C198.065 461.471 196.137 459.277 193.647 457.774C191.154 456.271 188.322 455.515 185.154 455.515C180.042 455.515 175.898 457.315 172.726 460.916C169.555 464.516 167.969 469.327 167.969 475.349C167.969 481.37 169.555 486.181 172.726 489.782C175.898 493.382 180.038 495.183 185.154 495.183C188.325 495.183 191.158 494.431 193.647 492.924C196.137 491.42 198.065 489.227 199.423 486.347H217.675C215.735 493.806 211.881 499.681 206.124 503.968C200.364 508.255 193.438 510.398 185.348 510.398C178.746 510.398 172.841 508.91 167.629 505.93C162.418 502.954 158.358 498.814 155.446 493.513C152.533 488.213 151.077 482.161 151.077 475.353C151.077 468.545 152.533 462.477 155.446 457.142V457.134Z" fill="#0E1F3D"/>
<path d="M270.29 497.73H244.855L240.776 509.904H223.4L248.061 440.988H267.282L291.939 509.904H274.369L270.29 497.73ZM266.02 484.773L257.572 459.542L249.224 484.773H266.02Z" fill="#0E1F3D"/>
<path d="M310.677 508.136C306.728 506.502 303.575 504.081 301.211 500.87C298.848 497.663 297.601 493.8 297.476 489.286H315.145C315.404 491.838 316.277 493.784 317.768 495.126C319.254 496.468 321.198 497.138 323.593 497.138C325.987 497.138 327.992 496.568 329.417 495.419C330.839 494.274 331.552 492.686 331.552 490.658C331.552 488.958 330.984 487.551 329.852 486.437C328.72 485.327 327.328 484.409 325.678 483.688C324.027 482.967 321.679 482.15 318.641 481.233C314.238 479.856 310.647 478.484 307.864 477.108C305.081 475.736 302.687 473.704 300.678 471.021C298.673 468.338 297.67 464.838 297.67 460.516C297.67 454.101 299.965 449.078 304.562 445.447C309.156 441.816 315.145 440 322.521 440C329.898 440 336.081 441.816 340.675 445.447C345.268 449.078 347.727 454.136 348.051 460.616H330.092C329.963 458.392 329.154 456.642 327.664 455.366C326.173 454.09 324.267 453.45 321.934 453.45C319.929 453.45 318.309 453.99 317.081 455.069C315.85 456.148 315.236 457.706 315.236 459.734C315.236 461.958 316.269 463.693 318.343 464.938C320.413 466.183 323.65 467.524 328.053 468.962C332.452 470.47 336.028 471.908 338.78 473.284C341.529 474.66 343.907 476.657 345.916 479.271C347.922 481.888 348.924 485.257 348.924 489.382C348.924 493.507 347.937 496.876 345.962 500.083C343.987 503.291 341.124 505.843 337.37 507.739C333.615 509.64 329.181 510.588 324.069 510.588C318.957 510.588 314.619 509.771 310.673 508.133L310.677 508.136Z" fill="#0E1F3D"/>
<path d="M408.148 440.988V454.438H390.09V509.907H373.488V454.438H355.43V440.988H408.144H408.148Z" fill="#0E1F3D"/>
<path d="M427.754 508.136C423.805 506.502 420.652 504.081 418.289 500.87C415.925 497.663 414.679 493.8 414.553 489.286H432.222C432.481 491.838 433.354 493.784 434.845 495.126C436.331 496.468 438.276 497.138 440.67 497.138C443.064 497.138 445.069 496.568 446.495 495.419C447.916 494.274 448.629 492.686 448.629 490.658C448.629 488.958 448.061 487.551 446.929 486.437C445.797 485.327 444.406 484.409 442.755 483.688C441.104 482.967 438.756 482.15 435.718 481.233C431.315 479.856 427.724 478.484 424.941 477.108C422.158 475.736 419.764 473.704 417.755 471.021C415.75 468.338 414.747 464.838 414.747 460.516C414.747 454.101 417.042 449.078 421.639 445.447C426.233 441.816 432.222 440 439.598 440C446.975 440 453.158 441.816 457.752 445.447C462.345 449.078 464.804 454.136 465.128 460.616H447.169C447.04 458.392 446.232 456.642 444.741 455.366C443.25 454.09 441.344 453.45 439.011 453.45C437.006 453.45 435.386 453.99 434.158 455.069C432.927 456.148 432.313 457.706 432.313 459.734C432.313 461.958 433.347 463.693 435.42 464.938C437.49 466.183 440.727 467.524 445.13 468.962C449.529 470.47 453.105 471.908 455.857 473.284C458.606 474.66 460.984 476.657 462.993 479.271C464.999 481.888 466.001 485.257 466.001 489.382C466.001 493.507 465.014 496.876 463.039 500.083C461.065 503.291 458.202 505.843 454.447 507.739C450.692 509.64 446.258 510.588 441.146 510.588C436.034 510.588 431.696 509.771 427.75 508.133L427.754 508.136Z" fill="#0E1F3D"/>
<defs>
<clipPath id="clip0_1206_7041">
<rect width="490" height="354.884" fill="white" transform="translate(0 37.5586)"/>
</clipPath>
</defs>
</svg>
