<svg width="800" height="109" viewBox="0 0 800 109" fill="none" xmlns="http://www.w3.org/2000/svg">
<g clip-path="url(#clip0_978_188095)">
<path d="M166.24 29.4692C170.46 21.7392 176.34 15.7292 183.88 11.4192C191.42 7.10922 199.98 4.94922 209.54 4.94922C221.26 4.94922 231.29 8.07922 239.63 14.3292C247.97 20.5892 253.55 29.1192 256.36 39.9192H229.93C227.97 35.7492 225.17 32.5692 221.57 30.3992C217.96 28.2192 213.86 27.1292 209.27 27.1292C201.87 27.1292 195.87 29.7392 191.27 34.9492C186.68 40.1592 184.38 47.1292 184.38 55.8492C184.38 64.5692 186.68 71.5392 191.27 76.7492C195.86 81.9592 201.86 84.5692 209.27 84.5692C213.86 84.5692 217.97 83.4792 221.57 81.2992C225.17 79.1192 227.97 75.9492 229.93 71.7792H256.36C253.55 82.5792 247.97 91.0892 239.63 97.2992C231.29 103.509 221.26 106.609 209.54 106.609C199.98 106.609 191.43 104.459 183.88 100.139C176.33 95.8292 170.45 89.8292 166.24 82.1592C162.02 74.4792 159.91 65.7192 159.91 55.8592C159.91 45.9992 162.02 37.2092 166.24 29.4892V29.4692Z" fill="#0E1F3D"/>
<path d="M335.36 6.08984V25.5698H295.15V46.6098H325.24V65.5198H295.15V105.89H271.11V6.08984H335.36Z" fill="#0E1F3D"/>
<path d="M350.26 29.4692C354.48 21.7392 360.36 15.7292 367.9 11.4192C375.44 7.10922 384 4.94922 393.56 4.94922C405.27 4.94922 415.31 8.07922 423.65 14.3292C431.99 20.5892 437.57 29.1192 440.38 39.9192H413.95C411.99 35.7492 409.19 32.5692 405.59 30.3992C401.98 28.2192 397.88 27.1292 393.29 27.1292C385.89 27.1292 379.89 29.7392 375.29 34.9492C370.7 40.1592 368.4 47.1292 368.4 55.8492C368.4 64.5692 370.7 71.5392 375.29 76.7492C379.88 81.9592 385.88 84.5692 393.29 84.5692C397.88 84.5692 401.99 83.4792 405.59 81.2992C409.19 79.1192 411.99 75.9492 413.95 71.7792H440.38C437.57 82.5792 431.99 91.0892 423.65 97.2992C415.31 103.509 405.28 106.609 393.56 106.609C384 106.609 375.45 104.459 367.9 100.139C360.35 95.8292 354.47 89.8292 350.26 82.1592C346.04 74.4792 343.93 65.7192 343.93 55.8592C343.93 45.9992 346.04 37.2092 350.26 29.4892V29.4692Z" fill="#0E1F3D"/>
<path d="M516.58 88.2598H479.75L473.84 105.89H448.68L484.38 6.08984H512.21L547.92 105.89H522.48L516.57 88.2598H516.58ZM510.39 69.4898L498.16 32.9498L486.07 69.4898H510.39Z" fill="#0E1F3D"/>
<path d="M575.06 103.332C569.34 100.962 564.78 97.4619 561.35 92.8119C557.93 88.1719 556.12 82.5719 555.94 76.0319H581.53C581.91 79.7319 583.17 82.5419 585.33 84.4919C587.48 86.4319 590.3 87.4019 593.77 87.4019C597.24 87.4019 600.14 86.5719 602.2 84.9119C604.26 83.2519 605.29 80.9519 605.29 78.0219C605.29 75.5619 604.47 73.5219 602.83 71.9119C601.19 70.3019 599.18 68.9719 596.79 67.9319C594.4 66.8919 591 65.7019 586.6 64.3719C580.22 62.3819 575.02 60.3919 570.99 58.4019C566.96 56.4119 563.49 53.4719 560.58 49.5919C557.68 45.7019 556.22 40.6419 556.22 34.3819C556.22 25.0919 559.54 17.8219 566.2 12.5619C572.85 7.30188 581.53 4.67188 592.21 4.67188C602.89 4.67188 611.85 7.30188 618.5 12.5619C625.15 17.8219 628.71 25.1419 629.18 34.5319H603.17C602.98 31.3119 601.81 28.7719 599.65 26.9319C597.49 25.0819 594.73 24.1619 591.35 24.1619C588.45 24.1619 586.1 24.9419 584.32 26.5019C582.54 28.0619 581.65 30.3219 581.65 33.2519C581.65 36.4719 583.15 38.9819 586.15 40.7919C589.15 42.5919 593.83 44.5419 600.21 46.6219C606.58 48.8019 611.76 50.8919 615.74 52.8819C619.72 54.8719 623.16 57.7619 626.07 61.5519C628.97 65.3419 630.43 70.2219 630.43 76.1919C630.43 82.1619 629 87.0419 626.14 91.6919C623.28 96.3319 619.13 100.032 613.7 102.782C608.26 105.532 601.84 106.912 594.44 106.912C587.04 106.912 580.75 105.732 575.04 103.352L575.06 103.332Z" fill="#0E1F3D"/>
<path d="M716.22 6.08984V25.5698H690.07V105.9H666.03V25.5598H639.88V6.08984H716.22Z" fill="#0E1F3D"/>
<path d="M744.61 103.332C738.89 100.962 734.33 97.4619 730.9 92.8119C727.48 88.1719 725.67 82.5719 725.49 76.0319H751.08C751.46 79.7319 752.72 82.5419 754.88 84.4919C757.03 86.4319 759.85 87.4019 763.31 87.4019C766.77 87.4019 769.68 86.5719 771.74 84.9119C773.8 83.2519 774.83 80.9519 774.83 78.0219C774.83 75.5619 774.01 73.5219 772.37 71.9119C770.73 70.3019 768.71 68.9719 766.33 67.9319C763.94 66.8919 760.54 65.7019 756.14 64.3719C749.76 62.3819 744.56 60.3919 740.53 58.4019C736.5 56.4119 733.03 53.4719 730.12 49.5919C727.22 45.7019 725.76 40.6419 725.76 34.3819C725.76 25.0919 729.08 17.8219 735.74 12.5619C742.39 7.30188 751.07 4.67188 761.75 4.67188C772.43 4.67188 781.39 7.30188 788.04 12.5619C794.69 17.8219 798.25 25.1419 798.72 34.5319H772.71C772.52 31.3119 771.35 28.7719 769.19 26.9319C767.03 25.0819 764.27 24.1619 760.89 24.1619C757.99 24.1619 755.64 24.9419 753.86 26.5019C752.08 28.0619 751.19 30.3219 751.19 33.2519C751.19 36.4719 752.69 38.9819 755.69 40.7919C758.69 42.5919 763.37 44.5419 769.75 46.6219C776.12 48.8019 781.3 50.8919 785.29 52.8819C789.27 54.8719 792.71 57.7619 795.62 61.5519C798.52 65.3419 799.98 70.2219 799.98 76.1919C799.98 82.1619 798.55 87.0419 795.69 91.6919C792.83 96.3319 788.68 100.032 783.25 102.782C777.81 105.532 771.39 106.912 763.99 106.912C756.59 106.912 750.31 105.732 744.59 103.352L744.61 103.332Z" fill="#0E1F3D"/>
<path d="M125.97 0H24.52C10.98 0 0 11.1 0 24.8V84.2C0 97.9 10.98 109 24.52 109H125.97C139.51 109 150.49 97.9 150.49 84.2V24.8C150.5 11.1 139.52 0 125.97 0ZM82.85 41.47C82.99 41.33 83.26 41.06 83.53 40.92C83.8 40.79 83.94 40.65 84.21 40.51C84.48 40.37 84.75 40.37 85.03 40.24C85.57 40.1 86.12 40.1 86.66 40.24C86.93 40.24 87.2 40.38 87.48 40.51C87.76 40.64 88.02 40.78 88.16 40.92C88.43 41.06 88.57 41.19 88.84 41.47C89.52 42.3 90.06 43.26 90.06 44.36C90.06 45.46 89.65 46.56 88.84 47.25C88.7 47.39 88.43 47.66 88.16 47.8C87.89 47.93 87.75 48.07 87.48 48.21C87.21 48.35 86.94 48.35 86.66 48.48C86.38 48.61 86.12 48.62 85.85 48.62C85.58 48.62 85.31 48.62 85.04 48.48C84.77 48.48 84.5 48.34 84.22 48.21C83.94 48.08 83.68 47.94 83.54 47.8C83.27 47.66 83.13 47.53 82.86 47.25C82.04 46.42 81.64 45.46 81.64 44.36C81.64 43.26 82.05 42.16 82.86 41.47H82.85ZM98.34 61.39L60.84 85.57C59.48 86.39 57.99 86.8 56.5 86.8C55.14 86.8 53.78 86.53 52.56 85.84C49.98 84.34 48.35 81.59 48.35 78.57V30.35C48.35 27.32 49.98 24.58 52.56 23.2C55.14 21.83 58.27 21.83 60.71 23.47L79.6 35.7C81.5 36.8 82.04 39.41 80.82 41.33C79.73 43.25 77.15 43.8 75.25 42.56L56.5 30.61V78.42L93.86 54.52L92.5 53.56C90.6 52.46 90.06 49.85 91.28 47.93C92.37 46.01 94.95 45.46 96.85 46.7L98.35 47.66C100.8 49.17 102.15 51.78 102.15 54.53C102.15 57.28 100.65 59.88 98.35 61.4L98.34 61.39Z" fill="#0E1F3D"/>
</g>
<defs>
<clipPath id="clip0_978_188095">
<rect width="800" height="109" fill="white"/>
</clipPath>
</defs>
</svg>
