<svg width="550" height="75" viewBox="0 0 550 75" fill="none" xmlns="http://www.w3.org/2000/svg">
<g clip-path="url(#clip0_978_188145)">
<path d="M114.29 20.2778C117.192 14.959 121.234 10.8237 126.418 7.85809C131.602 4.89249 137.487 3.40625 144.059 3.40625C152.117 3.40625 159.012 5.55992 164.746 9.86038C170.48 14.1677 174.316 20.037 176.248 27.4682H158.077C156.73 24.5989 154.805 22.4108 152.33 20.9177C149.848 19.4177 147.029 18.6677 143.873 18.6677C138.786 18.6677 134.661 20.4636 131.498 24.0485C128.343 27.6333 126.762 32.4292 126.762 38.4292C126.762 44.4292 128.343 49.2251 131.498 52.8099C134.654 56.3948 138.779 58.1907 143.873 58.1907C147.029 58.1907 149.855 57.4407 152.33 55.9407C154.805 54.4407 156.73 52.2595 158.077 49.3902H176.248C174.316 56.8214 170.48 62.6769 164.746 66.9498C159.012 71.2228 152.117 73.3558 144.059 73.3558C137.487 73.3558 131.608 71.8764 126.418 68.904C121.227 65.9384 117.185 61.8099 114.29 56.5324C111.389 51.248 109.938 45.2205 109.938 38.4361C109.938 31.6517 111.389 25.6035 114.29 20.2916V20.2778Z" fill="white"/>
<path d="M230.56 4.19141V17.5951H202.915V32.0721H223.602V45.0836H202.915V72.8611H186.388V4.19141H230.56Z" fill="white"/>
<path d="M240.804 20.2778C243.705 14.959 247.748 10.8237 252.932 7.85809C258.115 4.89249 264 3.40625 270.573 3.40625C278.623 3.40625 285.526 5.55992 291.26 9.86038C296.993 14.1677 300.83 20.037 302.762 27.4682H284.591C283.243 24.5989 281.318 22.4108 278.843 20.9177C276.362 19.4177 273.543 18.6677 270.387 18.6677C265.3 18.6677 261.175 20.4636 258.012 24.0485C254.857 27.6333 253.275 32.4292 253.275 38.4292C253.275 44.4292 254.857 49.2251 258.012 52.8099C261.168 56.3948 265.293 58.1907 270.387 58.1907C273.543 58.1907 276.368 57.4407 278.843 55.9407C281.318 54.4407 283.243 52.2595 284.591 49.3902H302.762C300.83 56.8214 296.993 62.6769 291.26 66.9498C285.526 71.2228 278.63 73.3558 270.573 73.3558C264 73.3558 258.122 71.8764 252.932 68.904C247.741 65.9384 243.698 61.8099 240.804 56.5324C237.903 51.248 236.452 45.2205 236.452 38.4361C236.452 31.6517 237.903 25.6035 240.804 20.2916V20.2778Z" fill="white"/>
<path d="M355.149 60.7304H329.828L325.765 72.8611H308.468L333.012 4.19141H352.145L376.695 72.8611H359.205L355.142 60.7304H355.149ZM350.893 47.8153L342.485 22.6731L334.173 47.8153H350.893Z" fill="white"/>
<path d="M395.354 71.1002C391.421 69.4694 388.286 67.0612 385.928 63.8616C383.577 60.669 382.333 56.8158 382.209 52.3158H399.802C400.063 54.8616 400.93 56.7951 402.415 58.1369C403.893 59.4717 405.831 60.1392 408.217 60.1392C410.603 60.1392 412.596 59.5681 414.013 58.4259C415.429 57.2837 416.137 55.7011 416.137 53.685C416.137 51.9924 415.573 50.5887 414.446 49.4809C413.318 48.3731 411.936 47.458 410.293 46.7424C408.65 46.0268 406.313 45.208 403.288 44.2928C398.901 42.9236 395.326 41.5543 392.556 40.185C389.785 38.8158 387.4 36.7928 385.399 34.1231C383.405 31.4465 382.401 27.9648 382.401 23.6575C382.401 17.2653 384.684 12.263 389.263 8.64374C393.835 5.02448 399.802 3.21484 407.145 3.21484C414.487 3.21484 420.647 5.02448 425.219 8.64374C429.791 12.263 432.238 17.2997 432.561 23.7607H414.68C414.549 21.5451 413.745 19.7974 412.26 18.5314C410.775 17.2584 408.877 16.6254 406.553 16.6254C404.56 16.6254 402.944 17.1621 401.72 18.2355C400.496 19.3089 399.885 20.8639 399.885 22.88C399.885 25.0956 400.916 26.8226 402.978 28.0681C405.041 29.3066 408.258 30.6483 412.645 32.0795C417.024 33.5795 420.585 35.0176 423.321 36.3869C426.058 37.7561 428.423 39.7447 430.423 42.3525C432.417 44.9603 433.421 48.3181 433.421 52.4259C433.421 56.5337 432.438 59.8915 430.471 63.091C428.505 66.2837 425.652 68.8295 421.919 70.7217C418.179 72.6139 413.765 73.5635 408.678 73.5635C403.59 73.5635 399.266 72.7515 395.34 71.1139L395.354 71.1002Z" fill="white"/>
<path d="M492.401 4.19141V17.5951H474.423V72.868H457.895V17.5882H439.917V4.19141H492.401Z" fill="white"/>
<path d="M511.919 71.1002C507.987 69.4694 504.852 67.0612 502.494 63.8616C500.143 60.669 498.898 56.8158 498.774 52.3158H516.368C516.629 54.8616 517.495 56.7951 518.98 58.1369C520.458 59.4717 522.397 60.1392 524.776 60.1392C527.154 60.1392 529.155 59.5681 530.571 58.4259C531.988 57.2837 532.696 55.7011 532.696 53.685C532.696 51.9924 532.132 50.5887 531.004 49.4809C529.877 48.3731 528.488 47.458 526.852 46.7424C525.209 46.0268 522.871 45.208 519.846 44.2928C515.46 42.9236 511.885 41.5543 509.114 40.185C506.344 38.8158 503.958 36.7928 501.958 34.1231C499.964 31.4465 498.96 27.9648 498.96 23.6575C498.96 17.2653 501.243 12.263 505.821 8.64374C510.393 5.02448 516.361 3.21484 523.703 3.21484C531.046 3.21484 537.206 5.02448 541.778 8.64374C546.349 12.263 548.797 17.2997 549.12 23.7607H531.238C531.108 21.5451 530.303 19.7974 528.818 18.5314C527.333 17.2584 525.436 16.6254 523.112 16.6254C521.118 16.6254 519.503 17.1621 518.279 18.2355C517.055 19.3089 516.443 20.8639 516.443 22.88C516.443 25.0956 517.474 26.8226 519.537 28.0681C521.599 29.3066 524.817 30.6483 529.203 32.0795C533.583 33.5795 537.144 35.0176 539.887 36.3869C542.623 37.7561 544.988 39.7447 546.989 42.3525C548.983 44.9603 549.986 48.3181 549.986 52.4259C549.986 56.5337 549.003 59.8915 547.037 63.091C545.071 66.2837 542.218 68.8295 538.484 70.7217C534.744 72.6139 530.331 73.5635 525.243 73.5635C520.156 73.5635 515.838 72.7515 511.906 71.1139L511.919 71.1002Z" fill="white"/>
<path d="M86.6044 0H16.8575C7.54875 0 0 7.63761 0 17.0642V57.9358C0 67.3624 7.54875 75 16.8575 75H86.6044C95.9131 75 103.462 67.3624 103.462 57.9358V17.0642C103.469 7.63761 95.92 0 86.6044 0ZM56.9594 28.5344C57.0556 28.4381 57.2412 28.2523 57.4269 28.156C57.6125 28.0665 57.7087 27.9702 57.8944 27.8739C58.08 27.7775 58.2656 27.7775 58.4581 27.6881C58.8294 27.5917 59.2075 27.5917 59.5788 27.6881C59.7644 27.6881 59.95 27.7844 60.1425 27.8739C60.335 27.9633 60.5138 28.0596 60.61 28.156C60.7956 28.2523 60.8919 28.3417 61.0775 28.5344C61.545 29.1055 61.9162 29.7661 61.9162 30.5229C61.9162 31.2798 61.6344 32.0367 61.0775 32.5115C60.9812 32.6078 60.7956 32.7936 60.61 32.8899C60.4244 32.9794 60.3281 33.0757 60.1425 33.172C59.9569 33.2683 59.7713 33.2683 59.5788 33.3578C59.3863 33.4472 59.2075 33.4541 59.0219 33.4541C58.8362 33.4541 58.6506 33.4541 58.465 33.3578C58.2794 33.3578 58.0938 33.2615 57.9013 33.172C57.7088 33.0826 57.53 32.9862 57.4338 32.8899C57.2481 32.7936 57.1519 32.7041 56.9663 32.5115C56.4025 31.9404 56.1275 31.2798 56.1275 30.5229C56.1275 29.7661 56.4094 29.0092 56.9663 28.5344H56.9594ZM67.6087 42.2408L41.8275 58.8784C40.8925 59.4427 39.8681 59.7248 38.8438 59.7248C37.9087 59.7248 36.9738 59.539 36.135 59.0642C34.3613 58.0321 33.2406 56.1399 33.2406 54.0619V20.883C33.2406 18.7982 34.3613 16.9128 36.135 15.9633C37.9088 15.0206 40.0606 15.0206 41.7381 16.1491L54.725 24.5642C56.0312 25.3211 56.4025 27.117 55.5637 28.4381C54.8144 29.7592 53.0406 30.1376 51.7344 29.2844L38.8438 21.0619V53.9587L64.5288 37.5138L63.5938 36.8532C62.2875 36.0963 61.9162 34.3005 62.755 32.9794C63.5044 31.6583 65.2781 31.2798 66.5844 32.133L67.6156 32.7936C69.3 33.8326 70.2281 35.6284 70.2281 37.5206C70.2281 39.4128 69.1969 41.2018 67.6156 42.2477L67.6087 42.2408Z" fill="white"/>
</g>
<defs>
<clipPath id="clip0_978_188145">
<rect width="550" height="75" fill="white"/>
</clipPath>
</defs>
</svg>
