<svg width="75" height="54" viewBox="0 0 75 54" fill="none" xmlns="http://www.w3.org/2000/svg">
<g clip-path="url(#clip0_978_188167)">
<path d="M62.7757 0H12.2193C5.47176 0 0 5.49908 0 12.2862V41.7138C0 48.5009 5.47176 54 12.2193 54H62.7757C69.5233 54 74.995 48.5009 74.995 41.7138V12.2862C74.995 5.49908 69.5233 0 62.7757 0ZM41.2874 20.5448C41.3571 20.4754 41.4917 20.3417 41.6262 20.2723C41.7608 20.2079 41.8306 20.1385 41.9651 20.0692C42.0997 19.9998 42.2342 19.9998 42.3738 19.9354C42.6429 19.8661 42.9169 19.8661 43.186 19.9354C43.3206 19.9354 43.4551 20.0048 43.5947 20.0692C43.7342 20.1336 43.8638 20.2029 43.9336 20.2723C44.0681 20.3417 44.1379 20.4061 44.2724 20.5448C44.6113 20.956 44.8804 21.4316 44.8804 21.9765C44.8804 22.5215 44.6761 23.0664 44.2724 23.4083C44.2027 23.4776 44.0681 23.6114 43.9336 23.6807C43.799 23.7451 43.7292 23.8145 43.5947 23.8839C43.4601 23.9532 43.3256 23.9532 43.186 24.0176C43.0465 24.082 42.9169 24.087 42.7824 24.087C42.6478 24.087 42.5133 24.087 42.3787 24.0176C42.2442 24.0176 42.1096 23.9483 41.9701 23.8839C41.8306 23.8194 41.701 23.7501 41.6312 23.6807C41.4967 23.6114 41.4269 23.547 41.2924 23.4083C40.8837 22.9971 40.6844 22.5215 40.6844 21.9765C40.6844 21.4316 40.8887 20.8866 41.2924 20.5448H41.2874ZM49.0066 30.4134L30.3189 42.3925C29.6412 42.7987 28.8987 43.0018 28.1561 43.0018C27.4784 43.0018 26.8007 42.8681 26.1927 42.5262C24.907 41.7831 24.0947 40.4207 24.0947 38.9246V15.0358C24.0947 13.5347 24.907 12.1772 26.1927 11.4936C27.4784 10.8149 29.0382 10.8149 30.2542 11.6273L39.6678 17.6862C40.6146 18.2312 40.8837 19.5242 40.2757 20.4754C39.7326 21.4266 38.4468 21.6991 37.5 21.0848L28.1561 15.1646V38.8503L46.7741 27.0099L46.0963 26.5343C45.1495 25.9894 44.8804 24.6963 45.4884 23.7451C46.0316 22.7939 47.3173 22.5215 48.2641 23.1358L49.0116 23.6114C50.2326 24.3595 50.9053 25.6525 50.9053 27.0149C50.9053 28.3772 50.1578 29.6653 49.0116 30.4184L49.0066 30.4134Z" fill="white"/>
</g>
<defs>
<clipPath id="clip0_978_188167">
<rect width="75" height="54" fill="white"/>
</clipPath>
</defs>
</svg>
