<svg width="550" height="75" viewBox="0 0 550 75" fill="none" xmlns="http://www.w3.org/2000/svg">
<g clip-path="url(#clip0_978_187934)">
<path d="M114.286 20.2769C117.186 14.9606 121.228 10.8198 126.416 7.85433C131.601 4.8889 137.483 3.40234 144.057 3.40234C152.111 3.40234 159.007 5.55343 164.742 9.85945C170.477 14.1655 174.31 20.0349 176.242 27.4676H158.07C156.718 24.5982 154.798 22.4126 152.32 20.9145C149.837 19.4164 147.017 18.6635 143.863 18.6635C138.774 18.6635 134.648 20.4574 131.49 24.0451C128.333 27.6328 126.754 32.4267 126.754 38.4267C126.754 44.4267 128.333 49.2205 131.49 52.8082C134.648 56.3959 138.77 58.1898 143.863 58.1898C147.021 58.1898 149.841 57.4408 152.32 55.9388C154.798 54.4408 156.718 52.2551 158.07 49.3857H176.242C174.31 56.8185 170.473 62.6725 164.742 66.944C159.007 71.2154 152.111 73.3511 144.057 73.3511C137.483 73.3511 131.604 71.8684 126.416 68.8991C121.228 65.9337 117.186 61.8082 114.286 56.5265C111.386 51.2449 109.937 45.2141 109.937 38.4305C109.937 31.6469 111.386 25.6008 114.286 20.2845V20.2769Z" fill="#00C3FF"/>
<path d="M230.558 4.1875V17.5895H202.917V32.0671H223.601V45.0774H202.917V72.8572H186.388V4.1875H230.558Z" fill="#00C3FF"/>
<path d="M240.806 20.2769C243.705 14.9606 247.747 10.8198 252.936 7.85433C258.12 4.8889 264.003 3.40234 270.577 3.40234C278.63 3.40234 285.527 5.55343 291.261 9.85945C296.996 14.1655 300.83 20.0349 302.761 27.4676H284.589C283.238 24.5982 281.317 22.4126 278.839 20.9145C276.357 19.4164 273.537 18.6635 270.383 18.6635C265.293 18.6635 261.168 20.4574 258.01 24.0451C254.852 27.6328 253.273 32.4267 253.273 38.4267C253.273 44.4267 254.852 49.2205 258.01 52.8082C261.168 56.3959 265.29 58.1898 270.383 58.1898C273.541 58.1898 276.361 57.4408 278.839 55.9388C281.317 54.4408 283.238 52.2551 284.589 49.3857H302.761C300.83 56.8185 296.992 62.6725 291.261 66.944C285.527 71.2154 278.63 73.3511 270.577 73.3511C264.003 73.3511 258.124 71.8684 252.936 68.8991C247.747 65.9337 243.705 61.8082 240.806 56.5265C237.906 51.2449 236.456 45.2141 236.456 38.4305C236.456 31.6469 237.906 25.6008 240.806 20.2845V20.2769Z" fill="white"/>
<path d="M355.145 60.7266H329.822L325.761 72.8572H308.462L333.014 4.1875H352.151L376.699 72.8572H359.206L355.145 60.7266ZM350.894 47.8162L342.484 22.6753L334.172 47.8162H350.894Z" fill="white"/>
<path d="M395.353 71.0968C391.421 69.4682 388.283 67.0559 385.929 63.8561C383.576 60.6602 382.335 56.8113 382.21 52.3132H399.802C400.06 54.8561 400.929 56.796 402.413 58.1327C403.893 59.4694 405.829 60.1378 408.212 60.1378C410.596 60.1378 412.592 59.5693 414.011 58.4246C415.427 57.2838 416.137 55.7012 416.137 53.6807C416.137 51.9867 415.571 50.5847 414.444 49.4746C413.317 48.3683 411.932 47.4541 410.288 46.7358C408.645 46.0175 406.307 45.2031 403.282 44.2889C398.898 42.9176 395.323 41.5501 392.552 40.1788C389.782 38.8113 387.398 36.787 385.398 34.1135C383.402 31.44 382.404 27.9522 382.404 23.6461C382.404 17.2543 384.688 12.2492 389.266 8.63078C393.839 5.01234 399.802 3.20312 407.146 3.20312C414.49 3.20312 420.646 5.01234 425.219 8.63078C429.793 12.2492 432.241 17.2889 432.563 23.746H414.683C414.554 21.5296 413.75 19.7857 412.266 18.5143C410.782 17.2428 408.884 16.6052 406.561 16.6052C404.565 16.6052 402.952 17.1429 401.73 18.2185C400.504 19.294 399.893 20.8459 399.893 22.8664C399.893 25.0828 400.921 26.8113 402.986 28.052C405.047 29.2928 408.269 30.6295 412.653 32.0623C417.033 33.5642 420.593 34.997 423.333 36.3683C426.069 37.7396 428.438 39.7294 430.438 42.3337C432.434 44.9419 433.432 48.2992 433.432 52.4093C433.432 56.5194 432.449 59.8766 430.483 63.0725C428.517 66.2684 425.667 68.8113 421.929 70.7012C418.19 72.5949 413.776 73.5399 408.687 73.5399C403.597 73.5399 399.278 72.7255 395.35 71.093L395.353 71.0968Z" fill="white"/>
<path d="M492.397 4.1875V17.5895H474.419V72.861H457.89V17.5895H439.911V4.1875H492.394H492.397Z" fill="white"/>
<path d="M511.917 71.0968C507.985 69.4682 504.846 67.0559 502.493 63.8561C500.14 60.6602 498.899 56.8113 498.773 52.3132H516.365C516.623 54.8561 517.492 56.796 518.976 58.1327C520.456 59.4694 522.392 60.1378 524.776 60.1378C527.159 60.1378 529.155 59.5693 530.575 58.4246C531.991 57.2838 532.7 55.7012 532.7 53.6807C532.7 51.9867 532.135 50.5847 531.008 49.4746C529.88 48.3683 528.495 47.4541 526.852 46.7358C525.208 46.0175 522.87 45.2031 519.845 44.2889C515.462 42.9176 511.886 41.5501 509.116 40.1788C506.345 38.8113 503.962 36.787 501.962 34.1135C499.965 31.44 498.967 27.9522 498.967 23.6461C498.967 17.2543 501.252 12.2492 505.829 8.63078C510.402 5.01234 516.365 3.20312 523.709 3.20312C531.053 3.20312 537.209 5.01234 541.783 8.63078C546.356 12.2492 548.804 17.2889 549.127 23.746H531.247C531.118 21.5296 530.313 19.7857 528.829 18.5143C527.345 17.2428 525.447 16.6052 523.125 16.6052C521.128 16.6052 519.515 17.1429 518.293 18.2185C517.067 19.294 516.456 20.8459 516.456 22.8664C516.456 25.0828 517.485 26.8113 519.549 28.052C521.61 29.2928 524.833 30.6295 529.216 32.0623C533.596 33.5642 537.156 34.997 539.896 36.3683C542.633 37.7396 545.001 39.7294 547.001 42.3337C548.998 44.9419 549.996 48.2992 549.996 52.4093C549.996 56.5194 549.013 59.8766 547.047 63.0725C545.081 66.2684 542.231 68.8113 538.492 70.7012C534.754 72.5949 530.34 73.5399 525.25 73.5399C520.16 73.5399 515.841 72.7255 511.913 71.093L511.917 71.0968Z" fill="white"/>
<path d="M86.6068 0H16.8591C7.54807 0 0 7.63925 0 17.0627V57.9373C0 67.3607 7.54807 75 16.8591 75H86.6068C95.9178 75 103.466 67.3607 103.466 57.9373V17.0627C103.466 7.63925 95.9178 0 86.6068 0Z" fill="#00C3FF"/>
<path d="M36.136 59.0666C36.9748 59.539 37.9122 59.7273 38.8459 59.7273C39.8744 59.7273 40.8992 59.443 41.8329 58.8783L67.6111 42.242C69.1976 41.201 70.2261 39.4071 70.2261 37.5173C70.2261 35.6274 69.2924 33.8297 67.6111 32.7926L66.5825 32.1319C65.2731 31.2829 63.5007 31.6594 62.753 32.9808C61.9142 34.306 62.2862 36.0998 63.5918 36.8566L64.5254 37.5173L38.8421 53.9654V21.0653L51.7312 29.2893C53.0406 30.1383 54.8131 29.7618 55.5608 28.4404C56.3995 27.1152 56.0276 25.3214 54.722 24.5646L41.738 16.1523C40.0566 15.0192 37.9084 15.0192 36.1322 15.9641C34.356 16.9091 33.2363 18.799 33.2363 20.8809V54.0614C33.2363 56.1395 34.356 58.0333 36.1322 59.0704L36.136 59.0666Z" fill="#0E1F3D"/>
<path d="M59.0179 33.451C58.832 33.451 58.646 33.451 58.4562 33.355C58.2703 33.355 58.0843 33.2589 57.8945 33.1667C57.7047 33.0745 57.5226 32.9785 57.4277 32.8825C57.2417 32.7865 57.1468 32.6943 56.9609 32.506C56.3991 31.9375 56.1221 31.2769 56.1221 30.5201C56.1221 29.7634 56.4029 29.0067 56.9609 28.5342C57.0557 28.4382 57.2417 28.25 57.4277 28.1578C57.6137 28.0656 57.7085 27.9696 57.8945 27.8735C58.0805 27.7775 58.2665 27.7775 58.4562 27.6853C58.8282 27.5893 59.2039 27.5893 59.5759 27.6853C59.7618 27.6853 59.9478 27.7813 60.1376 27.8735C60.3274 27.9657 60.5095 28.0617 60.6044 28.1578C60.7904 28.2538 60.8853 28.346 61.0713 28.5342C61.5381 29.1027 61.91 29.7634 61.91 30.5201C61.91 31.2769 61.6292 32.0336 61.0713 32.506C60.9764 32.6021 60.7904 32.7903 60.6044 32.8825C60.4184 32.9747 60.3236 33.0707 60.1376 33.1667C59.9516 33.2628 59.7656 33.2628 59.5759 33.355C59.3861 33.4471 59.2039 33.451 59.0142 33.451H59.0179Z" fill="white"/>
</g>
<defs>
<clipPath id="clip0_978_187934">
<rect width="550" height="75" fill="white"/>
</clipPath>
</defs>
</svg>
