<svg width="300" height="41" viewBox="0 0 300 41" fill="none" xmlns="http://www.w3.org/2000/svg">
<g clip-path="url(#clip0_978_187945)">
<path d="M62.3383 11.0841C63.9199 8.17789 66.1247 5.91423 68.9547 4.29313C71.7826 2.67203 74.9914 1.85938 78.577 1.85938C82.97 1.85938 86.7315 3.0353 89.8596 5.38926C92.9877 7.74322 95.0786 10.9518 96.1323 15.0151H86.2202C85.4832 13.4465 84.4357 12.2516 83.0838 11.4327C81.7299 10.6137 80.1917 10.2022 78.4714 10.2022C75.6953 10.2022 73.4449 11.1828 71.7225 13.1441C70.0001 15.1054 69.1389 17.726 69.1389 21.006C69.1389 24.286 70.0001 26.9066 71.7225 28.8679C73.4449 30.8292 75.6932 31.8098 78.4714 31.8098C80.1938 31.8098 81.732 31.4004 83.0838 30.5793C84.4357 29.7604 85.4832 28.5655 86.2202 26.9969H96.1323C95.0786 31.0602 92.9856 34.2604 89.8596 36.5955C86.7315 38.9305 82.97 40.098 78.577 40.098C74.9914 40.098 71.7846 39.2875 68.9547 37.6643C66.1247 36.0432 63.9199 33.7879 62.3383 30.9006C60.7566 28.0133 59.9658 24.7165 59.9658 21.0081C59.9658 17.2997 60.7566 13.9945 62.3383 11.0883V11.0841Z" fill="#00C3FF"/>
<path d="M125.759 2.28906V9.61552H110.682V17.5299H121.964V24.6422H110.682V39.8285H101.666V2.28906H125.759Z" fill="#00C3FF"/>
<path d="M131.348 11.0841C132.93 8.17789 135.134 5.91423 137.964 4.29313C140.792 2.67203 144.001 1.85938 147.587 1.85938C151.98 1.85938 155.741 3.0353 158.869 5.38926C161.997 7.74322 164.088 10.9518 165.142 15.0151H155.23C154.493 13.4465 153.445 12.2516 152.094 11.4327C150.74 10.6137 149.202 10.2022 147.481 10.2022C144.705 10.2022 142.455 11.1828 140.732 13.1441C139.01 15.1054 138.149 17.726 138.149 21.006C138.149 24.286 139.01 26.9066 140.732 28.8679C142.455 30.8292 144.703 31.8098 147.481 31.8098C149.204 31.8098 150.742 31.4004 152.094 30.5793C153.445 29.7604 154.493 28.5655 155.23 26.9969H165.142C164.088 31.0602 161.995 34.2604 158.869 36.5955C155.741 38.9305 151.98 40.098 147.587 40.098C144.001 40.098 140.794 39.2875 137.964 37.6643C135.134 36.0432 132.93 33.7879 131.348 30.9006C129.766 28.0133 128.976 24.7165 128.976 21.0081C128.976 17.2997 129.766 13.9945 131.348 11.0883V11.0841Z" fill="white"/>
<path d="M193.716 33.1971H179.903L177.688 39.8285H168.252L181.644 2.28906H192.082L205.472 39.8285H195.931L193.716 33.1971ZM191.397 26.1394L186.809 12.3957L182.276 26.1394H191.397Z" fill="white"/>
<path d="M215.648 38.8652C213.503 37.9749 211.791 36.6562 210.507 34.907C209.224 33.1599 208.547 31.0558 208.479 28.5969H218.074C218.215 29.987 218.689 31.0474 219.498 31.7782C220.306 32.5089 221.361 32.8743 222.662 32.8743C223.962 32.8743 225.051 32.5635 225.825 31.9378C226.597 31.3141 226.984 30.449 226.984 29.3444C226.984 28.4184 226.676 27.6519 226.061 27.0451C225.446 26.4403 224.69 25.9405 223.794 25.5478C222.898 25.1552 221.622 24.71 219.972 24.2102C217.581 23.4606 215.631 22.713 214.12 21.9634C212.609 21.2158 211.308 20.1092 210.217 18.6477C209.129 17.1862 208.584 15.2795 208.584 12.9255C208.584 9.43133 209.83 6.6952 212.327 4.71712C214.822 2.73904 218.074 1.75 222.08 1.75C226.086 1.75 229.444 2.73904 231.938 4.71712C234.433 6.6952 235.768 9.45023 235.944 12.9801H226.191C226.121 11.7685 225.682 10.8151 224.872 10.1201C224.063 9.42503 223.028 9.07645 221.761 9.07645C220.672 9.07645 219.792 9.37044 219.126 9.9584C218.457 10.5464 218.124 11.3947 218.124 12.4992C218.124 13.7109 218.685 14.6558 219.811 15.3341C220.935 16.0123 222.693 16.7431 225.084 17.5263C227.473 18.3474 229.415 19.1306 230.909 19.8803C232.402 20.6299 233.694 21.7177 234.785 23.1414C235.874 24.5672 236.418 26.4025 236.418 28.6494C236.418 30.8962 235.882 32.7315 234.809 34.4786C233.737 36.2257 232.182 37.6158 230.143 38.6489C228.104 39.6842 225.696 40.2008 222.92 40.2008C220.144 40.2008 217.788 39.7556 215.646 38.8631L215.648 38.8652Z" fill="white"/>
<path d="M268.58 2.28906V9.61552H258.774V39.8306H249.758V9.61552H239.951V2.28906H268.578H268.58Z" fill="white"/>
<path d="M279.228 38.8652C277.083 37.9749 275.371 36.6562 274.087 34.907C272.804 33.1599 272.127 31.0558 272.059 28.5969H281.654C281.795 29.987 282.269 31.0474 283.078 31.7782C283.886 32.5089 284.941 32.8743 286.242 32.8743C287.542 32.8743 288.631 32.5635 289.405 31.9378C290.177 31.3141 290.564 30.449 290.564 29.3444C290.564 28.4184 290.256 27.6519 289.641 27.0451C289.026 26.4403 288.27 25.9405 287.374 25.5478C286.478 25.1552 285.202 24.71 283.552 24.2102C281.161 23.4606 279.211 22.713 277.7 21.9634C276.189 21.2158 274.889 20.1092 273.798 18.6477C272.709 17.1862 272.164 15.2795 272.164 12.9255C272.164 9.43133 273.41 6.6952 275.907 4.71712C278.402 2.73904 281.654 1.75 285.66 1.75C289.666 1.75 293.024 2.73904 295.518 4.71712C298.013 6.6952 299.348 9.45023 299.524 12.9801H289.771C289.701 11.7685 289.262 10.8151 288.453 10.1201C287.643 9.42503 286.608 9.07645 285.341 9.07645C284.252 9.07645 283.372 9.37044 282.706 9.9584C282.037 10.5464 281.704 11.3947 281.704 12.4992C281.704 13.7109 282.265 14.6558 283.391 15.3341C284.515 16.0123 286.273 16.7431 288.664 17.5263C291.053 18.3474 292.995 19.1306 294.489 19.8803C295.982 20.6299 297.274 21.7177 298.365 23.1414C299.454 24.5672 299.998 26.4025 299.998 28.6494C299.998 30.8962 299.462 32.7315 298.39 34.4786C297.317 36.2257 295.762 37.6158 293.723 38.6489C291.684 39.6842 289.277 40.2008 286.5 40.2008C283.724 40.2008 281.368 39.7556 279.226 38.8631L279.228 38.8652Z" fill="white"/>
<path d="M47.2401 0H9.19586C4.11713 0 0 4.17612 0 9.32763V31.6724C0 36.8239 4.11713 41 9.19586 41H47.2401C52.3188 41 56.4359 36.8239 56.4359 31.6724V9.32763C56.4359 4.17612 52.3188 0 47.2401 0Z" fill="#00C3FF"/>
<path d="M19.7105 32.2897C20.1681 32.548 20.6794 32.6508 21.1887 32.6508C21.7497 32.6508 22.3087 32.4955 22.8179 32.1868L36.8788 23.0922C37.7441 22.5232 38.3051 21.5425 38.3051 20.5094C38.3051 19.4762 37.7959 18.4935 36.8788 17.9265L36.3177 17.5654C35.6035 17.1013 34.6367 17.3071 34.2289 18.0294C33.7714 18.7539 33.9743 19.7345 34.6864 20.1482L35.1957 20.5094L21.1866 29.501V11.5156L28.217 16.0115C28.9313 16.4755 29.898 16.2697 30.3059 15.5474C30.7634 14.8229 30.5605 13.8423 29.8483 13.4286L22.7662 8.8299C21.8491 8.21043 20.6773 8.21043 19.7085 8.727C18.7396 9.24357 18.1289 10.2767 18.1289 11.4148V29.5535C18.1289 30.6896 18.7396 31.7248 19.7085 32.2918L19.7105 32.2897Z" fill="#0E1F3D"/>
<path d="M32.1919 18.285C32.0904 18.285 31.989 18.285 31.8855 18.2325C31.784 18.2325 31.6826 18.18 31.5791 18.1296C31.4756 18.0792 31.3762 18.0267 31.3245 17.9742C31.223 17.9218 31.1713 17.8714 31.0698 17.7685C30.7634 17.4577 30.6123 17.0965 30.6123 16.6828C30.6123 16.2692 30.7655 15.8555 31.0698 15.5972C31.1216 15.5447 31.223 15.4418 31.3245 15.3914C31.4259 15.341 31.4777 15.2885 31.5791 15.236C31.6805 15.1835 31.782 15.1835 31.8855 15.1331C32.0884 15.0806 32.2933 15.0806 32.4962 15.1331C32.5976 15.1331 32.6991 15.1856 32.8026 15.236C32.9061 15.2864 33.0055 15.3389 33.0572 15.3914C33.1587 15.4439 33.2104 15.4943 33.3119 15.5972C33.5665 15.908 33.7694 16.2692 33.7694 16.6828C33.7694 17.0965 33.6162 17.5102 33.3119 17.7685C33.2601 17.821 33.1587 17.9239 33.0572 17.9742C32.9558 18.0246 32.904 18.0771 32.8026 18.1296C32.7011 18.1821 32.5997 18.1821 32.4962 18.2325C32.3927 18.2829 32.2933 18.285 32.1898 18.285H32.1919Z" fill="white"/>
</g>
<defs>
<clipPath id="clip0_978_187945">
<rect width="300" height="41" fill="white"/>
</clipPath>
</defs>
</svg>
