<svg width="250" height="181" viewBox="0 0 250 181" fill="none" xmlns="http://www.w3.org/2000/svg">
<g clip-path="url(#clip0_978_188165)">
<path d="M209.252 0H40.7309C18.2392 0 0 18.4321 0 41.1817V139.818C0 162.568 18.2392 181 40.7309 181H209.252C231.744 181 249.983 162.568 249.983 139.818V41.1817C249.983 18.4321 231.744 0 209.252 0ZM137.625 68.863C137.857 68.6306 138.306 68.1822 138.754 67.9497C139.203 67.7339 139.435 67.5014 139.884 67.2689C140.332 67.0364 140.781 67.0364 141.246 66.8206C142.143 66.5881 143.056 66.5881 143.953 66.8206C144.402 66.8206 144.851 67.053 145.316 67.2689C145.781 67.4848 146.213 67.7172 146.445 67.9497C146.894 68.1822 147.126 68.3981 147.575 68.863C148.704 70.2413 149.601 71.8354 149.601 73.662C149.601 75.4886 148.92 77.3152 147.575 78.461C147.342 78.6935 146.894 79.1418 146.445 79.3743C145.997 79.5902 145.764 79.8227 145.316 80.0551C144.867 80.2876 144.419 80.2876 143.953 80.5035C143.488 80.7194 143.056 80.736 142.608 80.736C142.159 80.736 141.711 80.736 141.262 80.5035C140.814 80.5035 140.365 80.271 139.9 80.0551C139.435 79.8393 139.003 79.6068 138.771 79.3743C138.322 79.1418 138.09 78.926 137.641 78.461C136.279 77.0828 135.615 75.4886 135.615 73.662C135.615 71.8354 136.296 70.0088 137.641 68.863H137.625ZM163.355 101.941L101.063 142.093C98.804 143.455 96.3289 144.136 93.8538 144.136C91.5947 144.136 89.3356 143.687 87.309 142.542C83.0233 140.051 80.3156 135.484 80.3156 130.469V50.3977C80.3156 45.3662 83.0233 40.8163 87.309 38.5248C91.5947 36.2498 96.794 36.2498 100.847 38.9731L132.226 59.2817C135.382 61.1083 136.279 65.4423 134.252 68.6306C132.442 71.8188 128.156 72.7321 125 70.673L93.8538 50.8295V130.22L155.914 90.5332L153.654 88.9391C150.498 87.1125 149.601 82.7784 151.628 79.5902C153.439 76.4019 157.724 75.4886 160.88 77.5477L163.372 79.1418C167.442 81.6493 169.684 85.9833 169.684 90.5498C169.684 95.1163 167.193 99.4338 163.372 101.958L163.355 101.941Z" fill="white"/>
</g>
<defs>
<clipPath id="clip0_978_188165">
<rect width="250" height="181" fill="white"/>
</clipPath>
</defs>
</svg>
