<svg width="490" height="511" viewBox="0 0 490 511" fill="none" xmlns="http://www.w3.org/2000/svg">
<path d="M410.158 37.5547H79.8423C35.7466 37.5547 0 73.703 0 118.294V311.709C0 356.3 35.7466 392.449 79.8423 392.449H410.158C454.253 392.449 490 356.3 490 311.709V118.294C490 73.703 454.253 37.5547 410.158 37.5547Z" fill="#00C3FF"/>
<path d="M171.137 317.055C175.109 319.29 179.549 320.181 183.97 320.181C188.842 320.181 193.695 318.836 198.116 316.164L320.199 237.442C327.712 232.516 332.583 224.028 332.583 215.085C332.583 206.142 328.161 197.636 320.199 192.728L315.328 189.602C309.126 185.585 300.732 187.366 297.191 193.619C293.219 199.89 294.981 208.378 301.164 211.959L305.585 215.085L183.953 292.916V137.236L244.994 176.151C251.195 180.168 259.589 178.387 263.13 172.134C267.102 165.864 265.341 157.375 259.157 153.794L197.667 113.988C189.704 108.626 179.531 108.626 171.119 113.097C162.707 117.569 157.404 126.512 157.404 136.363V293.371C157.404 303.204 162.707 312.165 171.119 317.073L171.137 317.055Z" fill="#0E1F3D"/>
<path d="M279.503 195.834C278.622 195.834 277.741 195.834 276.842 195.38C275.962 195.38 275.081 194.926 274.182 194.489C273.283 194.053 272.421 193.599 271.971 193.144C271.091 192.69 270.641 192.254 269.76 191.363C267.1 188.673 265.788 185.547 265.788 181.966C265.788 178.385 267.118 174.804 269.76 172.569C270.21 172.114 271.091 171.224 271.971 170.787C272.852 170.351 273.301 169.897 274.182 169.442C275.063 168.988 275.944 168.988 276.842 168.552C278.604 168.097 280.383 168.097 282.145 168.552C283.026 168.552 283.906 169.006 284.805 169.442C285.704 169.879 286.566 170.333 287.016 170.787C287.897 171.242 288.346 171.678 289.227 172.569C291.438 175.259 293.199 178.385 293.199 181.966C293.199 185.547 291.869 189.127 289.227 191.363C288.777 191.818 287.897 192.708 287.016 193.144C286.135 193.581 285.686 194.035 284.805 194.489C283.924 194.944 283.044 194.944 282.145 195.38C281.246 195.816 280.383 195.834 279.485 195.834H279.503Z" fill="white"/>
<path d="M28.3677 457.134C31.2802 451.799 35.3401 447.643 40.5513 444.667C45.7587 441.691 51.6675 440.199 58.2701 440.199C66.3594 440.199 73.2861 442.358 79.0462 446.679C84.8063 451.001 88.6566 456.891 90.5969 464.351H72.3445C70.9873 461.471 69.0584 459.277 66.5691 457.774C64.0759 456.271 61.2435 455.515 58.0757 455.515C52.9636 455.515 48.8198 457.315 45.6481 460.916C42.4764 464.516 40.8906 469.327 40.8906 475.349C40.8906 481.37 42.4764 486.181 45.6481 489.782C48.8198 493.382 52.9598 495.183 58.0757 495.183C61.2473 495.183 64.0798 494.431 66.5691 492.924C69.0584 491.42 70.9873 489.227 72.3445 486.347H90.5969C88.6566 493.806 84.8025 499.681 79.0462 503.968C73.2861 508.255 66.3594 510.398 58.2701 510.398C51.6675 510.398 45.7625 508.91 40.5513 505.93C35.3401 502.954 31.2802 498.814 28.3677 493.513C25.4553 488.213 23.999 482.161 23.999 475.353C23.999 468.545 25.4553 462.477 28.3677 457.142V457.134Z" fill="#00C3FF"/>
<path d="M145.153 440.988V454.438H117.389V468.968H138.165V482.024H117.389V509.904H100.787V440.988H145.153Z" fill="#00C3FF"/>
<path d="M155.445 457.134C158.357 451.799 162.417 447.643 167.628 444.667C172.836 441.691 178.745 440.199 185.347 440.199C193.437 440.199 200.363 442.358 206.123 446.679C211.883 451.001 215.734 456.891 217.674 464.351H199.422C198.064 461.471 196.136 459.277 193.646 457.774C191.153 456.271 188.321 455.515 185.153 455.515C180.041 455.515 175.897 457.315 172.725 460.916C169.554 464.516 167.968 469.327 167.968 475.349C167.968 481.37 169.554 486.181 172.725 489.782C175.897 493.382 180.037 495.183 185.153 495.183C188.325 495.183 191.157 494.431 193.646 492.924C196.136 491.42 198.064 489.227 199.422 486.347H217.674C215.734 493.806 211.88 499.681 206.123 503.968C200.363 508.255 193.437 510.398 185.347 510.398C178.745 510.398 172.84 508.91 167.628 505.93C162.417 502.954 158.357 498.814 155.445 493.513C152.532 488.213 151.076 482.161 151.076 475.353C151.076 468.545 152.532 462.477 155.445 457.142V457.134Z" fill="white"/>
<path d="M270.289 497.73H244.854L240.775 509.904H223.399L248.06 440.988H267.281L291.938 509.904H274.368L270.289 497.73ZM266.019 484.773L257.571 459.542L249.223 484.773H266.019Z" fill="white"/>
<path d="M310.676 508.136C306.727 506.502 303.574 504.081 301.211 500.87C298.847 497.663 297.6 493.8 297.475 489.286H315.144C315.403 491.838 316.276 493.784 317.767 495.126C319.253 496.468 321.198 497.138 323.592 497.138C325.986 497.138 327.991 496.568 329.416 495.419C330.838 494.274 331.551 492.686 331.551 490.658C331.551 488.958 330.983 487.551 329.851 486.437C328.719 485.327 327.327 484.409 325.677 483.688C324.026 482.967 321.678 482.15 318.64 481.233C314.237 479.856 310.646 478.484 307.863 477.108C305.08 475.736 302.686 473.704 300.677 471.021C298.672 468.338 297.669 464.838 297.669 460.516C297.669 454.101 299.964 449.078 304.561 445.447C309.155 441.816 315.144 440 322.52 440C329.897 440 336.08 441.816 340.674 445.447C345.267 449.078 347.726 454.136 348.05 460.616H330.091C329.962 458.392 329.153 456.642 327.663 455.366C326.172 454.09 324.266 453.45 321.933 453.45C319.928 453.45 318.308 453.99 317.08 455.069C315.849 456.148 315.235 457.706 315.235 459.734C315.235 461.958 316.268 463.693 318.342 464.938C320.412 466.183 323.649 467.524 328.052 468.962C332.451 470.47 336.027 471.908 338.779 473.284C341.528 474.66 343.906 476.657 345.915 479.271C347.921 481.888 348.923 485.257 348.923 489.382C348.923 493.507 347.936 496.876 345.961 500.083C343.986 503.291 341.123 505.843 337.369 507.739C333.614 509.64 329.18 510.588 324.068 510.588C318.956 510.588 314.618 509.771 310.672 508.133L310.676 508.136Z" fill="white"/>
<path d="M408.147 440.988V454.438H390.089V509.907H373.487V454.438H355.429V440.988H408.143H408.147Z" fill="white"/>
<path d="M427.753 508.136C423.804 506.502 420.651 504.081 418.288 500.87C415.924 497.663 414.678 493.8 414.552 489.286H432.221C432.48 491.838 433.353 493.784 434.844 495.126C436.33 496.468 438.275 497.138 440.669 497.138C443.063 497.138 445.068 496.568 446.494 495.419C447.915 494.274 448.628 492.686 448.628 490.658C448.628 488.958 448.06 487.551 446.928 486.437C445.796 485.327 444.405 484.409 442.754 483.688C441.103 482.967 438.755 482.15 435.717 481.233C431.314 479.856 427.723 478.484 424.94 477.108C422.157 475.736 419.763 473.704 417.754 471.021C415.749 468.338 414.746 464.838 414.746 460.516C414.746 454.101 417.041 449.078 421.638 445.447C426.232 441.816 432.221 440 439.597 440C446.974 440 453.157 441.816 457.751 445.447C462.344 449.078 464.803 454.136 465.127 460.616H447.168C447.039 458.392 446.231 456.642 444.74 455.366C443.249 454.09 441.343 453.45 439.01 453.45C437.005 453.45 435.385 453.99 434.158 455.069C432.926 456.148 432.312 457.706 432.312 459.734C432.312 461.958 433.346 463.693 435.419 464.938C437.489 466.183 440.726 467.524 445.129 468.962C449.528 470.47 453.104 471.908 455.856 473.284C458.605 474.66 460.983 476.657 462.992 479.271C464.998 481.888 466 485.257 466 489.382C466 493.507 465.013 496.876 463.038 500.083C461.064 503.291 458.201 505.843 454.446 507.739C450.691 509.64 446.257 510.588 441.145 510.588C436.033 510.588 431.695 509.771 427.749 508.133L427.753 508.136Z" fill="white"/>
</svg>
