<svg width="498" height="500" viewBox="0 0 498 500" fill="none" xmlns="http://www.w3.org/2000/svg">
<g clip-path="url(#clip0_721_4580)">
<g opacity="0.23">
<path d="M296.795 473.037C176.619 473.037 79.2123 375.591 79.2123 255.366C79.2123 135.163 176.619 37.6949 296.795 37.6949C357.397 37.6949 412.176 62.5109 451.629 102.506C406.177 40.3671 332.766 0 249.92 0C111.9 0 0 111.924 0 250C0 388.076 111.9 500 249.898 500C312.164 500 369.088 477.155 412.854 439.438C379.247 460.684 339.466 473.037 296.795 473.037Z" fill="white"/>
<path d="M371.606 72.6957C423.911 103.338 459.094 160.132 459.094 225.14C459.094 322.652 380.057 401.722 282.585 401.722C191.9 401.722 117.22 333.297 107.258 245.225C107.083 248.686 106.974 252.168 106.974 255.651C106.974 363.676 194.506 451.244 302.487 451.244C410.468 451.244 498 363.676 498 255.651C498 171.982 445.454 100.622 371.606 72.6738" fill="white"/>
<path d="M277.331 86.2309C211.715 86.2309 156.301 129.905 138.523 189.744C158.425 145.347 202.957 114.42 254.758 114.42C325.104 114.42 382.116 171.455 382.116 241.829C382.116 312.203 325.104 369.239 254.758 369.239C243.264 369.239 232.12 367.684 221.523 364.836C238.688 372.02 257.539 376.007 277.331 376.007C357.31 376.007 422.138 311.13 422.16 231.097C422.16 151.085 357.332 86.209 277.331 86.209" fill="white"/>
</g>
<path d="M468.749 242.422H453.402C449.483 135.579 363.374 49.435 256.575 45.5144V30.1604C256.575 25.977 253.182 22.582 249 22.582C244.818 22.582 241.424 25.977 241.424 30.1604V45.5144C134.626 49.435 48.5168 135.579 44.5978 242.422H29.2501C25.0684 242.422 21.6748 245.817 21.6748 250C21.6748 254.184 25.0684 257.579 29.2501 257.579H44.5978C48.5168 364.421 134.626 450.565 241.424 454.486V469.84C241.424 474.023 244.818 477.418 249 477.418C253.182 477.418 256.575 474.023 256.575 469.84V454.486C363.374 450.565 449.483 364.421 453.402 257.579H468.749C472.931 257.579 476.325 254.184 476.325 250C476.325 245.817 472.931 242.422 468.749 242.422ZM392.974 257.579H407.753C403.878 339.298 338.283 404.919 256.597 408.796V394.012C256.597 389.828 253.203 386.433 249.022 386.433C244.84 386.433 241.446 389.828 241.446 394.012V408.796C159.76 404.919 94.1657 339.298 90.2905 257.579H105.069C109.251 257.579 112.644 254.184 112.644 250C112.644 245.817 109.251 242.422 105.069 242.422H90.2905C94.1657 160.702 159.76 95.0807 241.446 91.2039V105.988C241.446 110.172 244.84 113.567 249.022 113.567C253.203 113.567 256.597 110.172 256.597 105.988V91.2039C338.283 95.0807 403.878 160.702 407.753 242.422H392.974C388.793 242.422 385.399 245.817 385.399 250C385.399 254.184 388.793 257.579 392.974 257.579Z" fill="white"/>
<path d="M327.577 217.451C324.249 217.451 321.534 220.167 321.534 223.497V235.587C321.534 238.916 318.82 241.632 315.492 241.632H303.406V223.497C303.406 220.167 300.691 217.451 297.364 217.451H285.278V193.271C285.278 182.231 277.812 172.988 267.675 170.097C269.996 159.168 279.695 150.932 291.321 150.932C294.649 150.932 297.364 148.216 297.364 144.887C297.364 141.558 294.649 138.842 291.321 138.842C273.39 138.842 258.48 151.94 255.59 169.09H242.41C239.52 151.962 224.632 138.842 206.679 138.842C203.351 138.842 200.636 141.558 200.636 144.887C200.636 148.216 203.351 150.932 206.679 150.932C218.283 150.932 228.003 159.168 230.324 170.097C220.209 172.988 212.722 182.231 212.722 193.271V217.451H200.636C197.308 217.451 194.593 220.167 194.593 223.497V241.632H176.553C176.421 240.493 176.421 238.61 176.443 237.252V223.497C176.443 220.167 173.728 217.451 170.401 217.451C167.073 217.451 164.358 220.167 164.358 223.497V237.164C164.314 241.961 164.27 246.955 167.817 250.525C169.941 252.671 172.831 253.745 176.443 253.745H194.571V265.835H170.401C167.073 265.835 164.358 268.551 164.358 271.88C164.358 275.209 167.073 277.925 170.401 277.925H194.571V290.016H176.443C172.831 290.016 169.941 291.089 167.817 293.236C164.27 296.828 164.314 301.8 164.336 306.596V320.264C164.336 323.593 167.051 326.309 170.379 326.309C173.706 326.309 176.421 323.593 176.421 320.264V306.509C176.421 305.151 176.399 303.267 176.531 302.128H194.571V308.173C194.571 324.841 208.124 338.421 224.785 338.421H273.149C289.81 338.421 303.362 324.863 303.362 308.173V302.128H315.448C318.776 302.128 321.491 304.844 321.491 308.173V320.264C321.491 323.593 324.206 326.309 327.533 326.309C330.861 326.309 333.576 323.593 333.576 320.264V308.173C333.576 298.164 325.432 290.038 315.448 290.038H303.362V277.947H327.555C330.883 277.947 333.598 275.231 333.598 271.902C333.598 268.573 330.883 265.857 327.555 265.857H303.362V253.766H315.448C325.454 253.766 333.576 245.619 333.576 235.631V223.54C333.576 220.211 330.883 217.495 327.533 217.495L327.577 217.451ZM224.807 193.271C224.807 186.59 230.237 181.18 236.892 181.18H261.063C267.741 181.18 273.149 186.612 273.149 193.271V217.451H224.785V193.271H224.807ZM230.85 271.88C230.85 275.209 228.135 277.925 224.807 277.925C221.479 277.925 218.764 275.209 218.764 271.88V247.699C218.764 244.37 221.479 241.654 224.807 241.654C228.135 241.654 230.85 244.37 230.85 247.699V271.88ZM279.213 308.173C279.213 311.503 276.499 314.219 273.171 314.219C269.843 314.219 267.128 311.503 267.128 308.173V283.993C267.128 280.663 269.843 277.947 273.171 277.947C276.499 277.947 279.213 280.663 279.213 283.993V308.173Z" fill="white"/>
</g>
<defs>
<clipPath id="clip0_721_4580">
<rect width="498" height="500" fill="white"/>
</clipPath>
</defs>
</svg>
