<svg width="165" height="200" viewBox="0 0 165 200" fill="none" xmlns="http://www.w3.org/2000/svg">
<path d="M20.5288 2.38281H144.064C154.078 2.38281 162.208 10.5051 162.208 20.5095V143.926C162.208 153.931 154.078 162.053 144.064 162.053H20.5288C10.5148 162.053 2.38477 153.931 2.38477 143.926V20.5095C2.38477 10.5051 10.5148 2.38281 20.5288 2.38281Z" fill="#343433"/>
<path d="M144.064 4.76505C152.731 4.76505 159.823 11.8498 159.823 20.5092V143.926C159.823 152.586 152.731 159.67 144.064 159.67H20.5288C11.8611 159.67 4.7696 152.586 4.7696 143.926V20.5092C4.7696 11.8498 11.8611 4.76505 20.5288 4.76505H144.064ZM144.064 0H20.5288C9.20967 0 0 9.20088 0 20.5092V143.926C0 155.235 9.20967 164.435 20.5288 164.435H144.064C155.383 164.435 164.592 155.235 164.592 143.926V20.5092C164.592 9.20088 155.383 0 144.064 0Z" fill="white"/>
<path d="M1.33301 172.667C1.33301 166.776 6.10864 162 11.9997 162H152.666C158.557 162 163.333 166.776 163.333 172.667V189.333C163.333 195.224 158.557 200 152.666 200H11.9997C6.10864 200 1.33301 195.224 1.33301 189.333V172.667Z" fill="white"/>
<path d="M82.4168 135.243C52.3979 135.243 27.9756 110.85 27.9756 80.8659C27.9756 50.8821 52.3979 26.4883 82.4168 26.4883C112.436 26.4883 136.858 50.8821 136.858 80.8659C136.858 110.85 112.436 135.243 82.4168 135.243Z" fill="#0D87C5"/>
<path d="M82.417 29.1292C96.2528 29.1292 109.259 34.5099 119.043 44.2819C128.826 54.054 134.213 67.0452 134.213 80.8649C134.213 94.6846 128.826 107.676 119.043 117.448C109.259 127.22 96.2528 132.601 82.417 132.601C68.5811 132.601 55.5747 127.22 45.7912 117.448C36.0077 107.676 30.6207 94.6846 30.6207 80.8649C30.6207 67.0452 36.0077 54.054 45.7912 44.2819C55.5747 34.5099 68.5811 29.1292 82.417 29.1292ZM82.417 23.8477C50.8914 23.8477 25.333 49.3762 25.333 80.8649C25.333 112.354 50.8914 137.882 82.417 137.882C113.943 137.882 139.501 112.354 139.501 80.8649C139.501 49.3762 113.943 23.8477 82.417 23.8477Z" fill="white"/>
<path d="M108.572 94.8086C103.061 94.8086 98.5811 99.2859 98.5811 104.788C98.5811 110.29 103.064 114.767 108.572 114.767C114.08 114.767 118.563 110.29 118.563 104.788C118.563 99.2859 114.08 94.8086 108.572 94.8086ZM105.243 110.792L102.239 107.791L103.809 106.222L105.245 107.657L113.341 99.5701L114.912 101.139L105.245 110.794L105.243 110.792Z" fill="#33CFFF"/>
<path d="M113.012 60.4354H109.681V59.3271C109.681 57.4939 108.188 56 106.35 56H88.5877C86.7523 56 85.2567 57.4917 85.2567 59.3271V60.4354H78.5969V62.652H85.2567V63.7604C85.2567 65.5936 86.7501 67.0875 88.5877 67.0875H106.35C108.186 67.0875 109.681 65.5958 109.681 63.7604V62.652H113.012C116.072 62.652 118.562 65.1397 118.562 68.1958V75.9584C118.562 79.0145 116.072 81.5021 113.012 81.5021H98.5808V80.3938C98.5808 78.5606 97.0873 77.0667 95.2497 77.0667H77.4873C75.6519 77.0667 74.1562 78.5584 74.1562 80.3938V81.5021H59.7248C55.4408 81.5021 51.9531 84.9857 51.9531 89.2647V98.1355C51.9531 102.415 55.4408 105.898 59.7248 105.898H63.0558V107.006C63.0558 108.84 64.5492 110.334 66.3868 110.334H84.1493C85.9847 110.334 87.4803 108.842 87.4803 107.006V105.898H96.4167C96.3836 105.532 96.3616 105.164 96.3616 104.79C96.3616 104.415 96.3858 104.047 96.4167 103.681H87.4803V102.573C87.4803 100.74 85.9869 99.246 84.1493 99.246H66.3868C64.5514 99.246 63.0558 100.738 63.0558 102.573V103.681H59.7248C56.6651 103.681 54.1745 101.194 54.1745 98.1377V89.2669C54.1745 86.2108 56.6651 83.7231 59.7248 83.7231H74.1562V84.8314C74.1562 86.6647 75.6497 88.1586 77.4873 88.1586H95.2497C97.0851 88.1586 98.5808 86.6669 98.5808 84.8314V83.7231H113.012C117.296 83.7231 120.784 80.2418 120.784 75.9606V68.198C120.784 63.919 117.296 60.4354 113.012 60.4354ZM91.9209 62.6543H89.7017V60.4376H91.9209V62.6543ZM96.3616 62.6543H94.1423V60.4376H96.3616V62.6543ZM100.802 62.6543H98.583V60.4376H100.802V62.6543ZM105.243 62.6543H103.024V60.4376H105.243V62.6543ZM80.8205 103.679H83.0397V105.896H80.8205V103.679ZM76.3799 103.679H78.5991V105.896H76.3799V103.679ZM71.9392 103.679H74.1584V105.896H71.9392V103.679ZM67.4986 103.679H69.7178V105.896H67.4986V103.679ZM80.8205 83.7209H78.6013V81.5043H80.8205V83.7209ZM85.2611 83.7209H83.0419V81.5043H85.2611V83.7209ZM89.7017 83.7209H87.4825V81.5043H89.7017V83.7209ZM94.1423 83.7209H91.9231V81.5043H94.1423V83.7209Z" fill="white"/>
<path d="M72.1929 54.793C71.7583 52.0123 69.3428 49.8772 66.4375 49.8772C65.3455 49.8772 64.2933 50.1791 63.3844 50.7432C61.9991 48.4164 59.5041 46.9688 56.7312 46.9688C52.4494 46.9688 48.9662 50.4479 48.9662 54.7247C48.9662 54.7511 48.9662 54.7776 48.9662 54.8062C46.2153 55.2689 44.0469 57.6662 44.0469 60.5417C44.0469 63.7498 46.7249 66.3586 49.9346 66.3586H71.2884C74.5003 66.3586 77.1762 63.7498 77.1762 60.5417C77.1762 57.6398 74.9746 55.2293 72.1885 54.793H72.1929Z" fill="#33CFFF"/>
<g clip-path="url(#clip0_958_123227)">
<path d="M47.1569 168V194H40.8316V183.296H30.9923V194H24.667V168H30.9923V178.185H40.8316V168H47.1569Z" fill="#343433"/>
<path d="M73.9743 168L64.9857 185.407V194H58.6604V185.407L49.6719 168H56.8479L61.8786 178.889L66.8722 168H73.9743Z" fill="#343433"/>
<path d="M95.2793 180.501C94.5892 181.747 93.528 182.754 92.0981 183.519C90.6683 184.285 88.8928 184.667 86.7716 184.667H82.8507V194H76.5254V168H86.7716C88.843 168 90.5943 168.358 92.0242 169.074C93.454 169.791 94.5267 170.778 95.2423 172.037C95.9566 173.296 96.315 174.741 96.315 176.37C96.315 177.876 95.9693 179.254 95.2793 180.499V180.501ZM88.991 178.778C89.5828 178.211 89.8788 177.407 89.8788 176.37C89.8788 175.333 89.5828 174.531 88.991 173.963C88.3992 173.395 87.4986 173.111 86.2907 173.111H82.8507V179.63H86.2907C87.4986 179.63 88.3992 179.346 88.991 178.778Z" fill="#343433"/>
<path d="M105.933 173.074V178.333H114.403V183.222H105.933V188.926H115.513V194H99.6074V168H115.513V173.074H105.933Z" fill="#343433"/>
<path d="M132.862 194L127.461 184.185H125.944V194H119.619V168H130.235C132.282 168 134.027 168.358 135.47 169.074C136.913 169.791 137.992 170.771 138.707 172.018C139.422 173.264 139.78 174.654 139.78 176.184C139.78 177.913 139.293 179.456 138.319 180.814C137.345 182.171 135.909 183.134 134.01 183.702L140.002 193.999H132.863L132.862 194ZM125.944 179.704H129.865C131.024 179.704 131.893 179.42 132.473 178.852C133.052 178.285 133.341 177.481 133.341 176.444C133.341 175.407 133.052 174.679 132.473 174.111C131.893 173.544 131.024 173.259 129.865 173.259H125.944V179.704Z" fill="#343433"/>
</g>
<defs>
<clipPath id="clip0_958_123227">
<rect width="115.333" height="26" fill="white" transform="translate(24.667 168)"/>
</clipPath>
</defs>
</svg>
