<svg width="75" height="75" viewBox="0 0 75 75" fill="none" xmlns="http://www.w3.org/2000/svg">
<g clip-path="url(#clip0_960_123257)">
<path d="M37.4996 73.2648C17.7787 73.2648 1.73633 57.2206 1.73633 37.5015C1.73633 17.7824 17.7805 1.73828 37.4996 1.73828C57.2187 1.73828 73.2628 17.7824 73.2628 37.5015C73.2628 57.2206 57.2187 73.2648 37.4996 73.2648Z" fill="#0D87C5"/>
<path d="M37.5 3.4735C46.5883 3.4735 55.1343 7.01237 61.5601 13.4399C67.9876 19.8675 71.5265 28.4117 71.5265 37.5C71.5265 46.5883 67.9876 55.1343 61.5601 61.5601C55.1325 67.9876 46.5883 71.5265 37.5 71.5265C28.4117 71.5265 19.8657 67.9876 13.4399 61.5601C7.01237 55.1325 3.4735 46.5883 3.4735 37.5C3.4735 28.4117 7.01237 19.8657 13.4399 13.4399C19.8675 7.01237 28.4117 3.4735 37.5 3.4735ZM37.5 0C16.7898 0 0 16.7898 0 37.5C0 58.2102 16.7898 75 37.5 75C58.2102 75 75 58.2102 75 37.5C75 16.7898 58.2102 0 37.5 0Z" fill="white"/>
<path d="M54.6808 46.668C51.0606 46.668 48.1172 49.6114 48.1172 53.2316C48.1172 56.8517 51.0606 59.7952 54.6808 59.7952C58.3009 59.7952 61.2444 56.8517 61.2444 53.2316C61.2444 49.6114 58.3009 46.668 54.6808 46.668ZM52.4935 57.1803L50.52 55.2068L51.5518 54.175L52.4953 55.1185L57.8133 49.8005L58.8451 50.8323L52.4953 57.1821L52.4935 57.1803Z" fill="#33CFFF"/>
<path d="M57.598 24.0615H55.4107V23.3318C55.4107 22.1251 54.4284 21.1445 53.2235 21.1445H41.5556C40.3489 21.1445 39.3683 22.1269 39.3683 23.3318V24.0615H34.992V25.5209H39.3683V26.2505C39.3683 27.4573 40.3507 28.4378 41.5556 28.4378H53.2235C54.4302 28.4378 55.4107 27.4555 55.4107 26.2505V25.5209H57.598C59.6086 25.5209 61.2447 27.1569 61.2447 29.1675V34.2717C61.2447 36.2823 59.6086 37.9184 57.598 37.9184H48.1174V37.1887C48.1174 35.982 47.1351 35.0014 45.9302 35.0014H34.2623C33.0556 35.0014 32.075 35.9838 32.075 37.1887V37.9184H22.5945C19.78 37.9184 17.4902 40.2081 17.4902 43.0226V48.8565C17.4902 51.671 19.78 53.9608 22.5945 53.9608H24.7818V54.6905C24.7818 55.8972 25.7641 56.8778 26.969 56.8778H38.6369C39.8436 56.8778 40.8242 55.8954 40.8242 54.6905V53.9608H46.6952C46.674 53.7205 46.6581 53.4785 46.6581 53.2311C46.6581 52.9838 46.674 52.7417 46.6952 52.5014H40.8242V51.7717C40.8242 50.565 39.8418 49.5845 38.6369 49.5845H26.969C25.7623 49.5845 24.7818 50.5668 24.7818 51.7717V52.5014H22.5945C20.5839 52.5014 18.9478 50.8654 18.9478 48.8548V43.0209C18.9478 41.0103 20.5839 39.3742 22.5945 39.3742H32.075V40.1039C32.075 41.3106 33.0574 42.2912 34.2623 42.2912H45.9302C47.1369 42.2912 48.1174 41.3088 48.1174 40.1039V39.3742H57.598C60.4125 39.3742 62.7022 37.0845 62.7022 34.27V29.1657C62.7022 26.3512 60.4125 24.0615 57.598 24.0615ZM43.7429 25.5209H42.2835V24.0615H43.7429V25.5209ZM46.6598 25.5209H45.2005V24.0615H46.6598V25.5209ZM49.5768 25.5209H48.1174V24.0615H49.5768V25.5209ZM52.4938 25.5209H51.0344V24.0615H52.4938V25.5209ZM36.4496 52.5032H37.909V53.9626H36.4496V52.5032ZM33.5326 52.5032H34.992V53.9626H33.5326V52.5032ZM30.6157 52.5032H32.075V53.9626H30.6157V52.5032ZM27.6987 52.5032H29.1581V53.9626H27.6987V52.5032ZM36.4496 39.376H34.9902V37.9166H36.4496V39.376ZM39.3666 39.376H37.9072V37.9166H39.3666V39.376ZM42.2853 39.376H40.8259V37.9166H42.2853V39.376ZM45.2023 39.376H43.7429V37.9166H45.2023V39.376Z" fill="white"/>
<path d="M30.7843 20.3498C30.4981 18.5211 28.9133 17.1166 27.0034 17.1166C26.2861 17.1166 25.5953 17.3144 24.9963 17.6855C24.0864 16.1554 22.4469 15.2031 20.6271 15.2031C17.8144 15.2031 15.5264 17.4911 15.5264 20.3038C15.5264 20.3215 15.5264 20.3392 15.5264 20.3568C13.719 20.6607 12.2949 22.2367 12.2949 24.1289C12.2949 26.2385 14.0529 27.954 16.1624 27.954H30.1907C32.3002 27.954 34.0582 26.2385 34.0582 24.1289C34.0582 22.2208 32.6112 20.6342 30.7826 20.348L30.7843 20.3498Z" fill="#33CFFF"/>
</g>
<defs>
<clipPath id="clip0_960_123257">
<rect width="75" height="75" fill="white"/>
</clipPath>
</defs>
</svg>
