<svg width="500" height="500" viewBox="0 0 500 500" fill="none" xmlns="http://www.w3.org/2000/svg">
<g clip-path="url(#clip0_958_123198)">
<path d="M250 23.1567C310.589 23.1567 367.562 46.7491 410.4 89.5995C453.251 132.45 476.843 189.411 476.843 250C476.843 310.589 453.251 367.562 410.4 410.4C367.55 453.251 310.589 476.843 250 476.843C189.411 476.843 132.438 453.251 89.5995 410.4C46.7491 367.55 23.1567 310.589 23.1567 250C23.1567 189.411 46.7491 132.438 89.5995 89.5995C132.45 46.7491 189.411 23.1567 250 23.1567ZM250 0C111.932 0 0 111.932 0 250C0 388.068 111.932 500 250 500C388.068 500 500 388.068 500 250C500 111.932 388.068 0 250 0Z" fill="#343433"/>
<path d="M364.546 311.129C340.412 311.129 320.789 330.752 320.789 354.886C320.789 379.021 340.412 398.644 364.546 398.644C388.681 398.644 408.304 379.021 408.304 354.886C408.304 330.752 388.681 311.129 364.546 311.129ZM349.965 381.211L336.808 368.055L343.687 361.176L349.976 367.466L385.43 332.012L392.309 338.891L349.976 381.223L349.965 381.211Z" fill="#343433"/>
<path d="M383.993 160.411H369.411V155.547C369.411 147.502 362.862 140.965 354.829 140.965H277.043C268.998 140.965 262.461 147.514 262.461 155.547V160.411H233.286V170.14H262.461V175.005C262.461 183.05 269.01 189.587 277.043 189.587H354.829C362.874 189.587 369.411 183.038 369.411 175.005V170.14H383.993C397.397 170.14 408.304 181.047 408.304 194.451V228.48C408.304 241.884 397.397 252.791 383.993 252.791H320.789V247.926C320.789 239.881 314.24 233.344 306.207 233.344H228.421C220.377 233.344 213.839 239.893 213.839 247.926V252.791H150.636C131.872 252.791 116.607 268.056 116.607 286.819V325.712C116.607 344.475 131.872 359.74 150.636 359.74H165.218V364.604C165.218 372.649 171.766 379.186 179.799 379.186H257.585C265.63 379.186 272.167 372.637 272.167 364.604V359.74H311.307C311.166 358.138 311.06 356.524 311.06 354.875C311.06 353.226 311.166 351.613 311.307 350.011H272.167V345.146C272.167 337.101 265.618 330.564 257.585 330.564H179.799C171.755 330.564 165.218 337.113 165.218 345.146V350.011H150.636C137.232 350.011 126.325 339.104 126.325 325.7V286.807C126.325 273.403 137.232 262.496 150.636 262.496H213.839V267.361C213.839 275.405 220.388 281.942 228.421 281.942H306.207C314.252 281.942 320.789 275.394 320.789 267.361V262.496H383.993C402.756 262.496 418.021 247.231 418.021 228.468V194.44C418.021 175.676 402.756 160.411 383.993 160.411ZM291.625 170.14H281.896V160.411H291.625V170.14ZM311.072 170.14H301.342V160.411H311.072V170.14ZM330.518 170.14H320.789V160.411H330.518V170.14ZM349.964 170.14H340.235V160.411H349.964V170.14ZM243.003 350.023H252.732V359.752H243.003V350.023ZM223.557 350.023H233.286V359.752H223.557V350.023ZM204.11 350.023H213.839V359.752H204.11V350.023ZM184.664 350.023H194.393V359.752H184.664V350.023ZM243.003 262.508H233.274V252.779H243.003V262.508ZM262.45 262.508H252.72V252.779H262.45V262.508ZM281.908 262.508H272.179V252.779H281.908V262.508ZM301.354 262.508H291.625V252.779H301.354V262.508Z" fill="#343433"/>
<path d="M205.229 135.666C203.321 123.476 192.756 114.112 180.023 114.112C175.241 114.112 170.636 115.431 166.643 117.904C160.577 107.704 149.646 101.355 137.515 101.355C118.763 101.355 103.51 116.609 103.51 135.36C103.51 135.478 103.51 135.596 103.51 135.714C91.4603 137.739 81.9668 148.246 81.9668 160.861C81.9668 174.924 93.6865 186.361 107.75 186.361H201.272C215.335 186.361 227.055 174.924 227.055 160.861C227.055 148.14 217.408 137.563 205.218 135.655L205.229 135.666Z" fill="#343433"/>
</g>
<defs>
<clipPath id="clip0_958_123198">
<rect width="500" height="500" fill="white"/>
</clipPath>
</defs>
</svg>
