<svg width="247" height="300" viewBox="0 0 247 300" fill="none" xmlns="http://www.w3.org/2000/svg">
<path d="M30.7932 3.57422H216.095C231.116 3.57422 243.311 15.7576 243.311 30.7642V215.89C243.311 230.896 231.116 243.08 216.095 243.08H30.7932C15.7722 243.08 3.57715 230.896 3.57715 215.89V30.7642C3.57715 15.7576 15.7722 3.57422 30.7932 3.57422Z" fill="#343433"/>
<path d="M216.096 7.14758C229.097 7.14758 239.734 17.7747 239.734 30.7638V215.889C239.734 228.878 229.097 239.506 216.096 239.506H30.7932C17.7917 239.506 7.1544 228.878 7.1544 215.889V30.7638C7.1544 17.7747 17.7917 7.14758 30.7932 7.14758H216.096ZM216.096 0H30.7932C13.8145 0 0 13.8013 0 30.7638V215.889C0 232.852 13.8145 246.653 30.7932 246.653H216.096C233.074 246.653 246.889 232.852 246.889 215.889V30.7638C246.889 13.8013 233.074 0 216.096 0Z" fill="white"/>
<path d="M2 259C2 250.163 9.16344 243 18 243H229C237.837 243 245 250.163 245 259V284C245 292.837 237.837 300 229 300H18C9.16345 300 2 292.837 2 284V259Z" fill="white"/>
<path d="M123.626 202.863C78.5974 202.863 41.9639 166.273 41.9639 121.297C41.9639 76.3212 78.5974 39.7305 123.626 39.7305C168.654 39.7305 205.287 76.3212 205.287 121.297C205.287 166.273 168.654 202.863 123.626 202.863Z" fill="#0D87C5"/>
<path d="M123.626 43.6957C144.38 43.6957 163.889 51.7668 178.565 66.4249C193.24 81.083 201.32 100.57 201.32 121.299C201.32 142.029 193.24 161.516 178.565 176.174C163.889 190.832 144.38 198.903 123.626 198.903C102.872 198.903 83.3625 190.832 68.6873 176.174C54.0121 161.516 45.9316 142.029 45.9316 121.299C45.9316 100.57 54.0121 81.083 68.6873 66.4249C83.3625 51.7668 102.872 43.6957 123.626 43.6957ZM123.626 35.7734C76.3376 35.7734 38 74.0662 38 121.299C38 168.532 76.3376 206.825 123.626 206.825C170.914 206.825 209.252 168.532 209.252 121.299C209.252 74.0662 170.914 35.7734 123.626 35.7734Z" fill="white"/>
<path d="M162.857 142.215C154.592 142.215 147.871 148.931 147.871 157.184C147.871 165.436 154.595 172.152 162.857 172.152C171.12 172.152 177.844 165.436 177.844 157.184C177.844 148.931 171.12 142.215 162.857 142.215ZM157.864 166.19L153.357 161.688L155.713 159.335L157.867 161.487L170.011 149.357L172.367 151.71L157.867 166.193L157.864 166.19Z" fill="#33CFFF"/>
<path d="M169.518 90.6531H164.522V88.9907C164.522 86.2409 162.282 84 159.525 84H132.882C130.129 84 127.885 86.2375 127.885 88.9907V90.6531H117.895V93.9781H127.885V95.6405C127.885 98.3904 130.125 100.631 132.882 100.631H159.525C162.278 100.631 164.522 98.3937 164.522 95.6405V93.9781H169.518C174.108 93.9781 177.844 97.7095 177.844 102.294V113.938C177.844 118.522 174.108 122.253 169.518 122.253H147.871V120.591C147.871 117.841 145.631 115.6 142.875 115.6H116.231C113.478 115.6 111.234 117.838 111.234 120.591V122.253H89.5872C83.1612 122.253 77.9297 127.478 77.9297 133.897V147.203C77.9297 153.622 83.1612 158.847 89.5872 158.847H94.5837V160.51C94.5837 163.259 96.8238 165.5 99.5802 165.5H126.224C128.977 165.5 131.22 163.263 131.22 160.51V158.847H144.625C144.575 158.299 144.542 157.747 144.542 157.185C144.542 156.623 144.579 156.071 144.625 155.522H131.22V153.86C131.22 151.11 128.98 148.869 126.224 148.869H99.5802C96.8271 148.869 94.5837 151.107 94.5837 153.86V155.522H89.5872C84.9976 155.522 81.2618 151.791 81.2618 147.207V133.9C81.2618 129.316 84.9976 125.585 89.5872 125.585H111.234V127.247C111.234 129.997 113.475 132.238 116.231 132.238H142.875C145.628 132.238 147.871 130 147.871 127.247V125.585H169.518C175.944 125.585 181.176 120.363 181.176 113.941V102.297C181.176 95.8785 175.944 90.6531 169.518 90.6531ZM137.881 93.9814H134.553V90.6565H137.881V93.9814ZM144.542 93.9814H141.214V90.6565H144.542V93.9814ZM151.203 93.9814H147.874V90.6565H151.203V93.9814ZM157.864 93.9814H154.535V90.6565H157.864V93.9814ZM121.231 155.519H124.56V158.844H121.231V155.519ZM114.57 155.519H117.899V158.844H114.57V155.519ZM107.909 155.519H111.238V158.844H107.909V155.519ZM101.248 155.519H104.577V158.844H101.248V155.519ZM121.231 125.581H117.902V122.256H121.231V125.581ZM127.892 125.581H124.563V122.256H127.892V125.581ZM134.553 125.581H131.224V122.256H134.553V125.581ZM141.214 125.581H137.885V122.256H141.214V125.581Z" fill="white"/>
<path d="M108.289 82.1895C107.637 78.0185 104.014 74.8159 99.6562 74.8159C98.0183 74.8159 96.4399 75.2686 95.0766 76.1148C92.9986 72.6246 89.2562 70.4531 85.0968 70.4531C78.6741 70.4531 73.4493 75.6719 73.4493 82.0871C73.4493 82.1267 73.4493 82.1664 73.4493 82.2093C69.323 82.9034 66.0703 86.4994 66.0703 90.8125C66.0703 95.6247 70.0874 99.5379 74.9019 99.5379H106.933C111.75 99.5379 115.764 95.6247 115.764 90.8125C115.764 86.4597 112.462 82.8439 108.283 82.1895H108.289Z" fill="#33CFFF"/>
<g clip-path="url(#clip0_958_123206)">
<path d="M70.7348 252V291H61.2469V274.944H46.4879V291H37V252H46.4879V267.278H61.2469V252H70.7348Z" fill="#343433"/>
<path d="M110.961 252L97.4786 278.111V291H87.9906V278.111L74.5078 252H85.2719L92.8178 268.333L100.308 252H110.961Z" fill="#343433"/>
<path d="M142.919 270.751C141.884 272.621 140.292 274.13 138.147 275.278C136.002 276.427 133.339 277 130.157 277H124.276V291H114.788V252H130.157C133.265 252 135.891 252.536 138.036 253.611C140.181 254.686 141.79 256.167 142.863 258.056C143.935 259.944 144.473 262.111 144.473 264.556C144.473 266.814 143.954 268.881 142.919 270.749V270.751ZM133.486 268.167C134.374 267.316 134.818 266.111 134.818 264.556C134.818 263 134.374 261.797 133.486 260.944C132.599 260.092 131.248 259.667 129.436 259.667H124.276V269.444H129.436C131.248 269.444 132.599 269.019 133.486 268.167Z" fill="#343433"/>
<path d="M158.898 259.611V267.5H171.604V274.833H158.898V283.389H173.269V291H149.41V252H173.269V259.611H158.898Z" fill="#343433"/>
<path d="M199.291 291L191.191 276.278H188.916V291H179.428V252H195.352C198.423 252 201.04 252.536 203.204 253.611C205.368 254.686 206.987 256.157 208.06 258.027C209.131 259.897 209.669 261.981 209.669 264.276C209.669 266.87 208.938 269.184 207.478 271.22C206.016 273.257 203.862 274.701 201.013 275.554L210.002 290.998H199.293L199.291 291ZM188.916 269.556H194.797C196.534 269.556 197.839 269.13 198.708 268.278C199.576 267.427 200.011 266.222 200.011 264.667C200.011 263.111 199.576 262.019 198.708 261.167C197.839 260.316 196.534 259.889 194.797 259.889H188.916V269.556Z" fill="#343433"/>
</g>
<defs>
<clipPath id="clip0_958_123206">
<rect width="173" height="39" fill="white" transform="translate(37 252)"/>
</clipPath>
</defs>
</svg>
