<svg width="494" height="600" viewBox="0 0 494 600" fill="none" xmlns="http://www.w3.org/2000/svg">
<path d="M61.5863 7.14844H432.191C462.233 7.14844 486.623 31.5152 486.623 61.5285V431.779C486.623 461.793 462.233 486.159 432.191 486.159H61.5863C31.5443 486.159 7.1543 461.793 7.1543 431.779V61.5285C7.1543 31.5152 31.5443 7.14844 61.5863 7.14844Z" fill="#343433"/>
<path d="M432.191 14.2952C458.194 14.2952 479.469 35.5494 479.469 61.5276V431.779C479.469 457.757 458.194 479.011 432.191 479.011H61.5864C35.5834 479.011 14.3088 457.757 14.3088 431.779V61.5276C14.3088 35.5494 35.5834 14.2952 61.5864 14.2952H432.191ZM432.191 0H61.5864C27.629 0 0 27.6026 0 61.5276V431.779C0 465.704 27.629 493.306 61.5864 493.306H432.191C466.148 493.306 493.777 465.704 493.777 431.779V61.5276C493.777 27.6026 466.148 0 432.191 0Z" fill="white"/>
<path d="M4 518C4 500.327 18.3269 486 36 486H458C475.673 486 490 500.327 490 518V568C490 585.673 475.673 600 458 600H36C18.3269 600 4 585.673 4 568V518Z" fill="white"/>
<path d="M247.251 405.727C157.195 405.727 83.9277 332.545 83.9277 242.594C83.9277 152.642 157.195 79.4609 247.251 79.4609C337.308 79.4609 410.575 152.642 410.575 242.594C410.575 332.545 337.308 405.727 247.251 405.727Z" fill="#0D87C5"/>
<path d="M247.252 87.3915C288.759 87.3915 327.779 103.534 357.129 132.85C386.48 162.166 402.641 201.14 402.641 242.599C402.641 284.058 386.48 323.031 357.129 352.348C327.779 381.664 288.759 397.806 247.252 397.806C205.744 397.806 166.725 381.664 137.375 352.348C108.024 323.031 91.8631 284.058 91.8631 242.599C91.8631 201.14 108.024 162.166 137.375 132.85C166.725 103.534 205.744 87.3915 247.252 87.3915ZM247.252 71.5469C152.675 71.5469 76 148.132 76 242.599C76 337.065 152.675 413.65 247.252 413.65C341.829 413.65 418.504 337.065 418.504 242.599C418.504 148.132 341.829 71.5469 247.252 71.5469Z" fill="white"/>
<path d="M325.715 284.43C309.183 284.43 295.742 297.862 295.742 314.367C295.742 330.873 309.19 344.305 325.715 344.305C342.24 344.305 355.687 330.873 355.687 314.367C355.687 297.862 342.24 284.43 325.715 284.43ZM315.728 332.38L306.715 323.377L311.427 318.67L315.735 322.974L340.023 298.714L344.735 303.421L315.735 332.387L315.728 332.38Z" fill="#33CFFF"/>
<path d="M339.037 181.306H329.044V177.981C329.044 172.482 324.563 168 319.051 168H265.763C260.257 168 255.77 172.475 255.77 177.981V181.306H235.791V187.956H255.77V191.281C255.77 196.781 260.25 201.262 265.763 201.262H319.051C324.557 201.262 329.044 196.787 329.044 191.281V187.956H339.037C348.216 187.956 355.687 195.419 355.687 204.587V227.875C355.687 237.043 348.216 244.506 339.037 244.506H295.742V241.181C295.742 235.682 291.262 231.2 285.749 231.2H232.462C226.956 231.2 222.469 235.675 222.469 241.181V244.506H179.174C166.322 244.506 155.859 254.957 155.859 267.794V294.407C155.859 307.244 166.322 317.694 179.174 317.694H189.167V321.019C189.167 326.519 193.648 331.001 199.16 331.001H252.448C257.954 331.001 262.441 326.526 262.441 321.019V317.694H289.25C289.151 316.597 289.085 315.493 289.085 314.369C289.085 313.246 289.157 312.142 289.25 311.044H262.441V307.72C262.441 302.22 257.961 297.738 252.448 297.738H199.16C193.654 297.738 189.167 302.213 189.167 307.72V311.044H179.174C169.995 311.044 162.524 303.582 162.524 294.413V267.801C162.524 258.632 169.995 251.169 179.174 251.169H222.469V254.494C222.469 259.994 226.949 264.476 232.462 264.476H285.749C291.255 264.476 295.742 260.001 295.742 254.494V251.169H339.037C351.889 251.169 362.352 240.725 362.352 227.882V204.594C362.352 191.757 351.889 181.306 339.037 181.306ZM275.763 187.963H269.105V181.313H275.763V187.963ZM289.085 187.963H282.427V181.313H289.085V187.963ZM302.407 187.963H295.749V181.313H302.407V187.963ZM315.728 187.963H309.071V181.313H315.728V187.963ZM242.461 311.038H249.119V317.688H242.461V311.038ZM229.14 311.038H235.797V317.688H229.14V311.038ZM215.818 311.038H222.475V317.688H215.818V311.038ZM202.496 311.038H209.153V317.688H202.496V311.038ZM242.461 251.163H235.804V244.513H242.461V251.163ZM255.783 251.163H249.126V244.513H255.783V251.163ZM269.105 251.163H262.448V244.513H269.105V251.163ZM282.427 251.163H275.769V244.513H282.427V251.163Z" fill="white"/>
<path d="M216.579 164.379C215.275 156.037 208.028 149.632 199.312 149.632C196.037 149.632 192.88 150.537 190.153 152.23C185.997 145.249 178.512 140.906 170.194 140.906C157.348 140.906 146.899 151.344 146.899 164.174C146.899 164.253 146.899 164.333 146.899 164.419C138.646 165.807 132.141 172.999 132.141 181.625C132.141 191.249 140.175 199.076 149.804 199.076H213.865C223.501 199.076 231.529 191.249 231.529 181.625C231.529 172.919 224.924 165.688 216.565 164.379H216.579Z" fill="#33CFFF"/>
<g clip-path="url(#clip0_958_123168)">
<path d="M141.47 504V582H122.494V549.889H92.9758V582H74V504H92.9758V534.556H122.494V504H141.47Z" fill="#343433"/>
<path d="M221.923 504L194.957 556.222V582H175.981V556.222L149.016 504H170.544L185.636 536.667L200.617 504H221.923Z" fill="#343433"/>
<path d="M285.838 541.502C283.768 545.241 280.584 548.261 276.294 550.556C272.005 552.854 266.678 554 260.315 554H248.552V582H229.576V504H260.315C266.529 504 271.783 505.073 276.073 507.222C280.362 509.372 283.58 512.333 285.727 516.111C287.87 519.889 288.945 524.222 288.945 529.111C288.945 533.628 287.908 537.762 285.838 541.498V541.502ZM266.973 536.333C268.749 534.632 269.636 532.222 269.636 529.111C269.636 526 268.749 523.594 266.973 521.889C265.197 520.184 262.496 519.333 258.872 519.333H248.552V538.889H258.872C262.496 538.889 265.197 538.038 266.973 536.333Z" fill="#343433"/>
<path d="M317.797 519.222V535H343.209V549.667H317.797V566.778H346.538V582H298.821V504H346.538V519.222H317.797Z" fill="#343433"/>
<path d="M398.583 582L382.381 552.556H377.831V582H358.855V504H390.704C396.845 504 402.08 505.073 406.408 507.222C410.736 509.372 413.973 512.314 416.12 516.054C418.263 519.793 419.338 523.962 419.338 528.552C419.338 533.739 417.876 538.368 414.956 542.441C412.033 546.513 407.724 549.402 402.027 551.107L420.004 581.996H398.586L398.583 582ZM377.831 539.111H389.594C393.069 539.111 395.678 538.261 397.416 536.556C399.153 534.854 400.021 532.444 400.021 529.333C400.021 526.222 399.153 524.038 397.416 522.333C395.678 520.632 393.069 519.778 389.594 519.778H377.831V539.111Z" fill="#343433"/>
</g>
<defs>
<clipPath id="clip0_958_123168">
<rect width="346" height="78" fill="white" transform="translate(74 504)"/>
</clipPath>
</defs>
</svg>
