<svg width="500" height="500" viewBox="0 0 500 500" fill="none" xmlns="http://www.w3.org/2000/svg">
<path d="M58.8292 343.494C35.8271 296.602 30.9808 242.948 45.1704 192.423C59.4577 141.535 91.9847 98.0083 136.774 69.8613C168.938 49.6346 205.906 38.3758 243.656 37.2862C274.144 36.4062 305.065 42.2451 333.235 54.1744C332.453 58.0298 332.048 61.969 332.048 65.9081C332.048 98.3994 358.471 124.842 390.97 124.842C423.469 124.842 449.893 98.4134 449.893 65.9081C449.893 33.4029 423.469 6.97413 390.97 6.97413C376.557 6.97413 362.773 12.2124 351.977 21.781C317.732 6.51317 279.954 -0.974066 242.581 0.101525C198.197 1.38665 154.762 14.615 116.984 38.3618C64.3737 71.4398 26.1486 122.579 9.36134 182.365C-7.30019 241.718 -1.58806 304.759 25.4363 359.88L27.2798 363.637L60.6587 347.252L58.8152 343.494H58.8292ZM390.956 44.1589C402.939 44.1589 412.688 53.909 412.688 65.8942C412.688 77.8793 402.939 87.6295 390.956 87.6295C378.974 87.6295 369.225 77.8793 369.225 65.8942C369.225 53.909 378.974 44.1589 390.956 44.1589Z" fill="#303446"/>
<path d="M467.574 127.007L465.507 123.361L433.148 141.688L435.215 145.334C462.197 192.996 469.697 248.591 456.332 301.854C442.924 355.284 409.853 400.864 363.206 430.198C329.185 451.584 290.107 462.885 250.178 462.885C217.707 462.885 185.138 455.23 155.865 440.731C157.206 435.744 157.891 430.617 157.891 425.477C157.891 392.986 131.453 366.543 98.9677 366.543C66.4826 366.543 40.0448 392.972 40.0448 425.477C40.0448 457.982 66.4686 484.411 98.9677 484.411C112.04 484.411 124.847 479.983 135.168 471.923C170.656 490.292 210.459 500 250.402 500L253.991 499.972C299.576 499.316 344.198 486.073 382.996 461.684C437.799 427.237 476.652 373.681 492.406 310.919C508.104 248.34 499.291 183.036 467.574 127.021V127.007ZM98.9677 447.198C86.9848 447.198 77.2365 437.448 77.2365 425.463C77.2365 413.478 86.9848 403.728 98.9677 403.728C110.951 403.728 120.699 413.478 120.699 425.463C120.699 437.448 110.951 447.198 98.9677 447.198Z" fill="#303446"/>
<path d="M196.577 296.727C199.021 299.549 202.414 301.253 206.143 301.519C209.858 301.784 213.476 300.583 216.297 298.138L294.507 230.404L310.987 249.429C316.028 255.254 324.883 255.883 330.707 250.84C333.528 248.395 335.232 245.001 335.497 241.271L342.438 144.566L342.466 143.896C342.62 136.702 337.341 130.625 330.162 129.731L232.874 122.733C229.146 122.467 225.542 123.669 222.721 126.113C219.9 128.558 218.196 131.952 217.931 135.682C217.665 139.412 218.866 143.015 221.311 145.837L237.79 164.863L189.175 206.978C186.353 209.423 184.65 212.817 184.384 216.547C184.119 220.276 185.32 223.88 187.764 226.702C192.806 232.527 201.646 233.17 207.484 228.113L266.658 176.848C269.48 174.403 271.183 171.009 271.449 167.279C271.714 163.549 270.513 159.946 268.069 157.124L264.536 153.031L313.57 156.551L310.051 205.595L306.518 201.502C304.074 198.681 300.68 196.977 296.951 196.711C293.236 196.446 289.619 197.647 286.797 200.092L208.587 267.826L192.107 248.801C187.066 242.976 178.211 242.347 172.387 247.39C169.762 249.667 168.086 252.81 167.667 256.316L160.67 353.594C160.125 361.277 165.921 367.982 173.602 368.54L270.234 375.483C270.569 375.511 270.918 375.525 271.253 375.525C274.605 375.525 277.817 374.337 280.373 372.116L280.443 372.047C281.812 370.845 282.915 369.42 283.725 367.8C286.267 362.729 285.499 356.681 281.784 352.393L265.304 333.367L313.92 291.252C316.741 288.807 318.445 285.413 318.71 281.683C318.975 277.953 317.774 274.349 315.33 271.528C310.288 265.703 301.448 265.06 295.61 270.103L236.436 321.368C233.615 323.813 231.911 327.207 231.645 330.937C231.38 334.666 232.581 338.27 235.025 341.092L238.559 345.185L189.524 341.665L193.043 292.62L196.591 296.713L196.577 296.727Z" fill="#303446"/>
</svg>
