<svg width="307" height="50" viewBox="0 0 307 50" fill="none" xmlns="http://www.w3.org/2000/svg">
<path d="M5.88293 34.3494C3.58271 29.6601 3.09809 24.2948 4.51704 19.2423C5.94578 14.1535 9.19848 9.80082 13.6774 6.98613C16.8938 4.96346 20.5906 3.83758 24.3657 3.72862C27.4145 3.64062 30.5066 4.22451 33.3235 5.41744C33.2453 5.80298 33.2048 6.1969 33.2048 6.59081C33.2048 9.83994 35.8472 12.4842 39.0971 12.4842C42.347 12.4842 44.9894 9.84133 44.9894 6.59081C44.9894 3.34029 42.347 0.697413 39.0971 0.697413C37.6558 0.697413 36.2774 1.22124 35.1978 2.1781C31.7733 0.651316 27.9955 -0.0974066 24.2581 0.0101525C19.8197 0.138665 15.4762 1.4615 11.6984 3.83618C6.43738 7.14398 2.61486 12.2579 0.936136 18.2365C-0.73002 24.1718 -0.158807 30.4759 2.54363 35.988L2.72799 36.3637L6.06588 34.7252L5.88153 34.3494H5.88293ZM39.0957 4.41589C40.294 4.41589 41.2688 5.3909 41.2688 6.58942C41.2688 7.78793 40.294 8.76295 39.0957 8.76295C37.8974 8.76295 36.9226 7.78793 36.9226 6.58942C36.9226 5.3909 37.8974 4.41589 39.0957 4.41589Z" fill="#303446"/>
<path d="M46.7575 12.7007L46.5508 12.3361L43.3149 14.1688L43.5216 14.5334C46.2198 19.2996 46.9698 24.8591 45.6332 30.1854C44.2925 35.5284 40.9853 40.0864 36.3206 43.0198C32.9185 45.1584 29.0108 46.2885 25.0179 46.2885C21.7708 46.2885 18.5139 45.523 15.5866 44.0731C15.7206 43.5744 15.7891 43.0617 15.7891 42.5477C15.7891 39.2986 13.1453 36.6543 9.89679 36.6543C6.64827 36.6543 4.00449 39.2972 4.00449 42.5477C4.00449 45.7982 6.64687 48.4411 9.89679 48.4411C11.204 48.4411 12.4847 47.9983 13.5168 47.1923C17.0656 49.0292 21.0459 50 25.0402 50L25.3992 49.9972C29.9577 49.9316 34.4199 48.6073 38.2996 46.1684C43.7799 42.7237 47.6653 37.3681 49.2407 31.0919C50.8105 24.834 49.9292 18.3036 46.7575 12.7021V12.7007ZM9.89679 44.7198C8.69849 44.7198 7.72366 43.7448 7.72366 42.5463C7.72366 41.3478 8.69849 40.3728 9.89679 40.3728C11.0951 40.3728 12.0699 41.3478 12.0699 42.5463C12.0699 43.7448 11.0951 44.7198 9.89679 44.7198Z" fill="#303446"/>
<path d="M19.6577 29.6727C19.9021 29.9549 20.2415 30.1253 20.6144 30.1519C20.9859 30.1784 21.3476 30.0583 21.6297 29.8138L29.4507 23.0404L31.0987 24.9429C31.6029 25.5254 32.4883 25.5883 33.0707 25.084C33.3528 24.8395 33.5232 24.5001 33.5498 24.1271L34.2439 14.4566L34.2467 14.3896C34.262 13.6702 33.7341 13.0625 33.0163 12.9731L23.2875 12.2733C22.9146 12.2467 22.5543 12.3669 22.2721 12.6113C21.99 12.8558 21.8196 13.1952 21.7931 13.5682C21.7666 13.9412 21.8867 14.3015 22.1311 14.5837L23.7791 16.4863L18.9175 20.6978C18.6354 20.9423 18.465 21.2817 18.4385 21.6547C18.4119 22.0276 18.532 22.388 18.7764 22.6702C19.2806 23.2527 20.1647 23.317 20.7484 22.8113L26.6659 17.6848C26.948 17.4403 27.1184 17.1009 27.1449 16.7279C27.1715 16.3549 27.0513 15.9946 26.8069 15.7124L26.4536 15.3031L31.3571 15.6551L31.0051 20.5595L30.6518 20.1502C30.4074 19.8681 30.068 19.6977 29.6951 19.6711C29.3236 19.6446 28.9619 19.7647 28.6798 20.0092L20.8588 26.7826L19.2108 24.8801C18.7066 24.2976 17.8212 24.2347 17.2388 24.739C16.9762 24.9667 16.8086 25.281 16.7667 25.6316L16.067 35.3594C16.0125 36.1277 16.5921 36.7982 17.3603 36.854L27.0234 37.5483C27.0569 37.5511 27.0918 37.5525 27.1254 37.5525C27.4606 37.5525 27.7818 37.4337 28.0374 37.2116L28.0443 37.2047C28.1812 37.0845 28.2915 36.942 28.3725 36.78C28.6267 36.2729 28.5499 35.6681 28.1784 35.2393L26.5304 33.3367L31.392 29.1252C31.6741 28.8807 31.8445 28.5413 31.871 28.1683C31.8976 27.7953 31.7775 27.4349 31.5331 27.1528C31.0289 26.5703 30.1448 26.506 29.5611 27.0103L23.6436 32.1368C23.3615 32.3813 23.1911 32.7207 23.1646 33.0937C23.138 33.4666 23.2582 33.827 23.5026 34.1092L23.8559 34.5185L18.9524 34.1665L19.3044 29.262L19.6591 29.6713L19.6577 29.6727Z" fill="#303446"/>
<path d="M60.6649 38.953C58.971 38.2576 57.6149 37.2284 56.606 35.8654C55.5924 34.5024 55.0555 32.8612 55 30.9419H62.581C62.6921 32.0267 63.067 32.8566 63.7056 33.4268C64.3443 33.997 65.1774 34.2798 66.2049 34.2798C67.2323 34.2798 68.0932 34.0387 68.7041 33.5473C69.315 33.0605 69.6205 32.3883 69.6205 31.526C69.6205 30.8028 69.3752 30.2047 68.8892 29.7318C68.4033 29.259 67.8062 28.8695 67.0981 28.5635C66.39 28.2576 65.3811 27.9099 64.0805 27.5204C62.1922 26.9363 60.651 26.3521 59.457 25.768C58.2629 25.1839 57.2354 24.3215 56.3746 23.1811C55.5137 22.0406 55.0833 20.5524 55.0833 18.7165C55.0833 15.9905 56.0691 13.8579 58.0407 12.3141C60.0123 10.7703 62.581 9.99609 65.7467 9.99609C68.9124 9.99609 71.5643 10.7703 73.5359 12.3141C75.5076 13.8579 76.5628 16.0044 76.7016 18.7629H68.9957C68.9401 17.8171 68.593 17.0707 67.9543 16.5283C67.3156 15.9859 66.4964 15.717 65.4968 15.717C64.6359 15.717 63.9417 15.9488 63.4141 16.4078C62.8865 16.8667 62.6226 17.5297 62.6226 18.3874C62.6226 19.3331 63.067 20.0703 63.9556 20.5988C64.8442 21.1273 66.2326 21.6975 68.1209 22.3095C70.0093 22.9493 71.5412 23.5612 72.726 24.1454C73.9062 24.7295 74.9244 25.5779 75.7852 26.6906C76.6461 27.8032 77.0765 29.2358 77.0765 30.9882C77.0765 32.7406 76.6507 34.1732 75.8038 35.5362C74.9568 36.8992 73.7257 37.984 72.1197 38.7907C70.5091 39.5974 68.6069 40.0007 66.4131 40.0007C64.2194 40.0007 62.3588 39.653 60.6649 38.9576V38.953Z" fill="#303446"/>
<path d="M87.5512 38.0807C85.2602 36.8011 83.4414 35.0116 82.0946 32.7167C80.7477 30.4219 80.0767 27.8442 80.0767 24.9791C80.0767 22.114 80.7477 19.541 82.0946 17.2601C83.4414 14.9791 85.2602 13.1989 87.5512 11.9193C89.8422 10.6398 92.3645 10 95.1091 10C97.8536 10 100.381 10.6398 102.667 11.9193C104.958 13.1989 106.763 14.9791 108.082 17.2601C109.401 19.541 110.058 22.114 110.058 24.9791C110.058 27.8442 109.392 30.4219 108.059 32.7167C106.726 35.0116 104.921 36.8011 102.644 38.0807C100.367 39.3602 97.8536 40 95.1044 40C92.3553 40 89.8375 39.3602 87.5466 38.0807H87.5512ZM100.714 31.1544C102.116 29.5967 102.815 27.5382 102.815 24.9791C102.815 22.42 102.112 20.3245 100.714 18.7807C99.3115 17.2369 97.4463 16.4627 95.1137 16.4627C92.7811 16.4627 90.8696 17.2276 89.4719 18.7575C88.0696 20.2874 87.3707 22.3598 87.3707 24.9745C87.3707 27.5892 88.0696 29.6245 89.4719 31.1683C90.8742 32.7121 92.7533 33.4863 95.1137 33.4863C97.4741 33.4863 99.3115 32.7075 100.714 31.1497V31.1544Z" fill="#303446"/>
<path d="M114.933 17.2818C116.182 15.0148 117.922 13.2485 120.158 11.9828C122.393 10.7172 124.929 10.082 127.762 10.082C131.233 10.082 134.204 11 136.676 12.8359C139.147 14.6717 140.8 17.1752 141.633 20.3463H133.802C133.219 19.1224 132.39 18.1905 131.326 17.5507C130.256 16.911 129.039 16.5911 127.679 16.5911C125.485 16.5911 123.708 17.356 122.347 18.8859C120.986 20.4158 120.306 22.4603 120.306 25.0194C120.306 27.5786 120.986 29.6231 122.347 31.153C123.708 32.6829 125.485 33.4478 127.679 33.4478C129.039 33.4478 130.252 33.1279 131.326 32.4882C132.395 31.8484 133.219 30.9165 133.802 29.6926H141.633C140.8 32.8637 139.147 35.3625 136.676 37.1799C134.204 39.0018 131.233 39.9151 127.762 39.9151C124.929 39.9151 122.393 39.2846 120.158 38.019C117.922 36.7533 116.182 34.9916 114.933 32.7385C113.683 30.4854 113.058 27.9124 113.058 25.0194C113.058 22.1265 113.683 19.5489 114.933 17.2772V17.2818Z" fill="#303446"/>
<path d="M161.586 39.6462L151.756 26.7115V39.6462H144.633V10.3555H151.756V23.2067L161.503 10.3555H169.875L158.545 24.7087L170.292 39.6462H161.586Z" fill="#303446"/>
<path d="M180.414 16.0717V21.9966H189.953V27.5043H180.414V33.9299H191.202V39.6462H173.291V10.3555H191.202V16.0717H180.414Z" fill="#303446"/>
<path d="M216.821 10.3555V16.0717H209.073V39.6462H201.95V16.0717H194.203V10.3555H216.821Z" fill="#303446"/>
<path d="M241.61 27.1493C242.638 28.4705 243.152 29.9819 243.152 31.6741C243.152 34.1219 242.295 36.0644 240.588 37.497C238.88 38.9295 236.496 39.6435 233.442 39.6435H219.821V10.3574H232.983C235.955 10.3574 238.278 11.0389 239.963 12.4019C241.643 13.7649 242.48 15.6147 242.48 17.9513C242.48 19.6759 242.027 21.1085 241.129 22.2489C240.227 23.3894 239.023 24.1822 237.524 24.6272C239.218 24.9889 240.578 25.8326 241.606 27.1539L241.61 27.1493ZM226.948 22.2072H231.613C232.78 22.2072 233.678 21.9522 234.302 21.433C234.927 20.9184 235.237 20.1581 235.237 19.1567C235.237 18.1553 234.927 17.3903 234.302 16.8618C233.678 16.3333 232.78 16.0691 231.613 16.0691H226.948V22.2026V22.2072ZM234.964 33.0788C235.617 32.5364 235.945 31.7529 235.945 30.7237C235.945 29.6945 235.603 28.8878 234.923 28.3036C234.242 27.7195 233.303 27.4274 232.109 27.4274H226.944V33.8947H232.192C233.386 33.8947 234.307 33.6259 234.96 33.0834L234.964 33.0788Z" fill="#303446"/>
<path d="M263.688 38.1246C256.587 38.1246 250.832 32.3897 250.832 25.3148C250.832 18.2399 256.587 12.505 263.688 12.505C267.269 12.505 270.506 13.9646 272.837 16.3195C270.152 12.6639 265.814 10.2871 260.918 10.2871C252.762 10.2871 246.15 16.8736 246.15 24.9998C246.15 33.1261 252.762 39.7126 260.916 39.7126C264.595 39.7126 267.958 38.3681 270.546 36.1488C268.56 37.3999 266.209 38.1261 263.688 38.1261" fill="#303446"/>
<path d="M268.107 14.5645C271.198 16.3682 273.276 19.7103 273.276 23.5364C273.276 29.2757 268.606 33.9272 262.848 33.9287C257.489 33.9287 253.077 29.9013 252.488 24.719C252.478 24.9231 252.471 25.1273 252.471 25.3329C252.471 31.6904 257.644 36.8435 264.023 36.8435C270.402 36.8435 275.575 31.689 275.575 25.3329C275.575 20.4087 272.471 16.2092 268.107 14.5645Z" fill="#303446"/>
<path d="M262.538 15.3613C258.662 15.3613 255.388 17.9306 254.336 21.4535C255.511 18.8405 258.144 17.0207 261.204 17.0207C265.36 17.0207 268.729 20.3774 268.729 24.5185C268.729 28.6596 265.36 32.0163 261.204 32.0163C260.525 32.0163 259.866 31.9244 259.24 31.7568C260.254 32.1796 261.369 32.4129 262.538 32.4144C267.265 32.4144 271.095 28.5955 271.095 23.8871C271.095 19.1773 267.264 15.3613 262.538 15.3613Z" fill="#303446"/>
<path d="M298.069 39.6462L292.113 30.6754L286.864 39.6462H278.783L288.156 24.7505L278.575 10.3555H286.864L292.737 19.2011L297.903 10.3555H305.983L296.695 25.126L306.358 39.6462H298.069Z" fill="#303446"/>
</svg>
