<svg width="1091" height="178" viewBox="0 0 1091 178" fill="none" xmlns="http://www.w3.org/2000/svg">
<path d="M20.9432 122.284C12.7544 105.59 11.0292 86.4894 16.0806 68.5025C21.1669 50.3864 32.7465 34.8909 48.6915 24.8706C60.1418 17.6699 73.3025 13.6618 86.7416 13.2739C97.5953 12.9606 108.603 15.0393 118.632 19.2861C118.353 20.6586 118.209 22.061 118.209 23.4633C118.209 35.0302 127.616 44.4438 139.185 44.4438C150.755 44.4438 160.162 35.0352 160.162 23.4633C160.162 11.8914 150.755 2.48279 139.185 2.48279C134.054 2.48279 129.147 4.34762 125.304 7.75403C113.113 2.31869 99.6637 -0.346768 86.3588 0.0361428C70.558 0.493646 55.0953 5.20295 41.6463 13.6568C22.917 25.4326 9.30889 43.6382 3.33264 64.9221C-2.59887 86.0518 -0.565351 108.494 9.05532 128.117L9.71162 129.455L21.5945 123.622L20.9382 122.284H20.9432ZM139.18 15.7206C143.446 15.7206 146.917 19.1916 146.917 23.4583C146.917 27.725 143.446 31.1961 139.18 31.1961C134.915 31.1961 131.444 27.725 131.444 23.4583C131.444 19.1916 134.915 15.7206 139.18 15.7206Z" fill="url(#paint0_linear_682_4658)"/>
<path d="M166.456 45.2146L165.721 43.9167L154.201 50.4411L154.937 51.739C164.542 68.7064 167.212 88.4984 162.454 107.46C157.681 126.481 145.908 142.708 129.301 153.151C117.19 160.764 103.278 164.787 89.0635 164.787C77.5038 164.787 65.9093 162.062 55.4881 156.9C55.9654 155.125 56.209 153.3 56.209 151.47C56.209 139.903 46.7972 130.489 35.2325 130.489C23.6678 130.489 14.256 139.898 14.256 151.47C14.256 163.042 23.6628 172.45 35.2325 172.45C39.8862 172.45 44.4455 170.874 48.1197 168.005C60.7534 174.544 74.9234 178 89.1431 178L90.4208 177.99C106.649 177.756 122.535 173.042 136.347 164.359C155.856 152.096 169.688 133.03 175.297 110.687C180.885 88.4089 177.748 65.1608 166.456 45.2196V45.2146ZM35.2325 159.203C30.9666 159.203 27.4962 155.732 27.4962 151.465C27.4962 147.198 30.9666 143.727 35.2325 143.727C39.4984 143.727 42.9688 147.198 42.9688 151.465C42.9688 155.732 39.4984 159.203 35.2325 159.203Z" fill="url(#paint1_linear_682_4658)"/>
<path d="M69.9813 105.635C70.8514 106.639 72.0595 107.246 73.387 107.341C74.7096 107.435 75.9973 107.007 77.0016 106.137L104.844 82.0237L110.711 88.7968C112.506 90.8705 115.658 91.0942 117.732 89.299C118.736 88.4288 119.343 87.2204 119.437 85.8926L121.908 51.4655L121.918 51.2268C121.973 48.6658 120.093 46.5026 117.538 46.1843L82.9033 43.6929C81.5758 43.5984 80.293 44.0261 79.2887 44.8963C78.2844 45.7666 77.6778 46.975 77.5833 48.3028C77.4889 49.6305 77.9165 50.9135 78.7865 51.918L84.6534 58.6911L67.3461 73.6842C66.3418 74.5545 65.7352 75.7629 65.6408 77.0907C65.5463 78.4184 65.9739 79.7014 66.844 80.7059C68.6389 82.7796 71.7861 83.0084 73.8643 81.2082L94.9304 62.9578C95.9347 62.0875 96.5413 60.8791 96.6357 59.5514C96.7302 58.2236 96.3026 56.9406 95.4325 55.9361L94.1746 54.4791L111.631 55.7322L110.378 73.1919L109.12 71.7349C108.25 70.7304 107.042 70.1237 105.714 70.0292C104.392 69.9347 103.104 70.3624 102.1 71.2326L74.2571 95.346L68.3903 88.573C66.5954 86.4993 63.4432 86.2755 61.3699 88.0707C60.4352 88.8813 59.8385 90.0002 59.6894 91.2484L57.1985 125.879C57.0045 128.615 59.0679 131.001 61.8025 131.2L96.2032 133.672C96.3225 133.682 96.4468 133.687 96.5661 133.687C97.7594 133.687 98.9029 133.264 99.8128 132.473L99.8377 132.449C100.325 132.021 100.718 131.514 101.006 130.937C101.911 129.132 101.638 126.978 100.315 125.452L94.4481 118.679L111.755 103.686C112.76 102.815 113.366 101.607 113.461 100.279C113.555 98.9514 113.128 97.6684 112.258 96.6639C110.463 94.5902 107.315 94.3614 105.237 96.1566L84.1711 114.407C83.1668 115.277 82.5602 116.486 82.4658 117.813C82.3713 119.141 82.7989 120.424 83.669 121.429L84.9269 122.886L67.4704 121.633L68.7234 104.173L69.9862 105.63L69.9813 105.635Z" fill="url(#paint2_linear_682_4658)"/>
<path d="M215.967 138.676C209.937 136.201 205.109 132.537 201.517 127.684C197.909 122.832 195.998 116.99 195.8 110.157H222.788C223.184 114.019 224.518 116.973 226.792 119.003C229.066 121.033 232.031 122.04 235.689 122.04C239.347 122.04 242.411 121.182 244.586 119.432C246.761 117.699 247.849 115.306 247.849 112.236C247.849 109.662 246.975 107.533 245.245 105.849C243.515 104.166 241.39 102.779 238.869 101.69C236.348 100.601 232.756 99.3629 228.126 97.9765C221.404 95.8969 215.917 93.8174 211.667 91.7378C207.416 89.6583 203.758 86.5885 200.693 82.5284C197.629 78.4683 196.096 73.1704 196.096 66.6346C196.096 56.93 199.606 49.338 206.625 43.842C213.644 38.3461 222.788 35.5898 234.058 35.5898C245.328 35.5898 254.769 38.3461 261.788 43.842C268.807 49.338 272.563 56.9796 273.057 66.7997H245.624C245.427 63.4328 244.191 60.7756 241.917 58.8446C239.643 56.9135 236.727 55.9563 233.168 55.9563C230.104 55.9563 227.632 56.7815 225.754 58.4154C223.876 60.0494 222.936 62.4095 222.936 65.4628C222.936 68.8297 224.518 71.4539 227.682 73.3354C230.845 75.2169 235.788 77.247 242.51 79.4255C249.233 81.7032 254.686 83.8817 258.904 85.9613C263.106 88.0408 266.731 91.0611 269.795 95.0222C272.86 98.9833 274.392 104.083 274.392 110.322C274.392 116.56 272.876 121.66 269.861 126.513C266.846 131.365 262.463 135.227 256.746 138.099C251.012 140.97 244.24 142.406 236.431 142.406C228.621 142.406 221.997 141.169 215.967 138.693V138.676Z" fill="#303446"/>
<path d="M311.682 135.567C303.526 131.012 297.051 124.641 292.256 116.471C287.461 108.302 285.072 99.1251 285.072 88.9253C285.072 78.7256 287.461 69.5657 292.256 61.4455C297.051 53.3253 303.526 46.9876 311.682 42.4324C319.837 37.8772 328.817 35.5996 338.587 35.5996C348.358 35.5996 357.354 37.8772 365.493 42.4324C373.649 46.9876 380.075 53.3253 384.771 61.4455C389.467 69.5657 391.806 78.7256 391.806 88.9253C391.806 99.1251 389.434 108.302 384.688 116.471C379.943 124.641 373.517 131.012 365.411 135.567C357.305 140.122 348.358 142.4 338.571 142.4C328.784 142.4 319.821 140.122 311.665 135.567H311.682ZM358.54 110.909C363.533 105.364 366.021 98.0358 366.021 88.9253C366.021 79.8149 363.516 72.3549 358.54 66.859C353.548 61.363 346.908 58.6067 338.604 58.6067C330.3 58.6067 323.495 61.33 318.519 66.7764C313.527 72.2229 311.039 79.6004 311.039 88.9088C311.039 98.2173 313.527 105.463 318.519 110.959C323.512 116.455 330.201 119.211 338.604 119.211C347.007 119.211 353.548 116.438 358.54 110.893V110.909Z" fill="#303446"/>
<path d="M409.159 61.5239C413.608 53.4533 419.803 47.1651 427.761 42.6594C435.719 38.1537 444.748 35.8926 454.832 35.8926C467.189 35.8926 477.767 39.1605 486.565 45.6962C495.364 52.2319 501.246 61.1443 504.211 72.4333H476.333C474.257 68.0762 471.308 64.7588 467.519 62.4812C463.713 60.2036 459.379 59.0648 454.535 59.0648C446.725 59.0648 440.398 61.788 435.554 67.2344C430.71 72.6809 428.288 79.9593 428.288 89.0698C428.288 98.1802 430.71 105.459 435.554 110.905C440.398 116.352 446.725 119.075 454.535 119.075C459.379 119.075 463.696 117.936 467.519 115.658C471.325 113.381 474.257 110.063 476.333 105.706H504.211C501.246 116.995 495.364 125.891 486.565 132.361C477.767 138.847 467.189 142.098 454.832 142.098C444.748 142.098 435.719 139.854 427.761 135.348C419.803 130.842 413.608 124.571 409.159 116.55C404.711 108.528 402.486 99.3685 402.486 89.0698C402.486 78.771 404.711 69.5946 409.159 61.5074V61.5239Z" fill="#303446"/>
<path d="M575.245 141.136L540.249 95.0889V141.136H514.892V36.8613H540.249V82.6115L574.948 36.8613H604.754L564.42 87.959L606.237 141.136H575.245Z" fill="#303446"/>
<path d="M642.273 57.2113V78.3039H676.231V97.9111H642.273V120.786H680.68V141.136H616.916V36.8613H680.68V57.2113H642.273Z" fill="#303446"/>
<path d="M771.88 36.8613V57.2113H744.299V141.136H718.942V57.2113H691.36V36.8613H771.88Z" fill="#303446"/>
<path d="M860.131 96.6501C863.789 101.354 865.618 106.734 865.618 112.758C865.618 121.473 862.57 128.388 856.49 133.488C850.41 138.588 841.925 141.129 831.05 141.129H782.561V36.8711H829.419C839.997 36.8711 848.268 39.2972 854.266 44.1495C860.247 49.0018 863.229 55.5871 863.229 63.9053C863.229 70.045 861.614 75.1448 858.418 79.2049C855.205 83.265 850.921 86.0872 845.583 87.6717C851.613 88.959 856.457 91.9628 860.115 96.6666L860.131 96.6501ZM807.934 79.0564H824.542C828.694 79.0564 831.891 78.1486 834.115 76.3001C836.339 74.4681 837.443 71.7614 837.443 68.1965C837.443 64.6315 836.339 61.9083 834.115 60.0268C831.891 58.1453 828.694 57.2045 824.542 57.2045H807.934V79.0399V79.0564ZM836.471 117.759C838.794 115.828 839.964 113.039 839.964 109.375C839.964 105.711 838.745 102.839 836.323 100.76C833.901 98.6801 830.556 97.6403 826.305 97.6403H807.918V120.664H826.602C830.853 120.664 834.132 119.707 836.455 117.776L836.471 117.759Z" fill="#303446"/>
<path d="M938.731 135.725C913.453 135.725 892.963 115.308 892.963 90.1216C892.963 64.9348 913.453 44.5186 938.731 44.5186C951.479 44.5186 963.003 49.7148 971.302 58.0983C961.742 45.0844 946.3 36.623 928.868 36.623C899.835 36.623 876.297 60.0708 876.297 89.0003C876.297 117.93 899.835 141.378 928.863 141.378C941.961 141.378 953.933 136.592 963.143 128.691C956.074 133.145 947.707 135.73 938.731 135.73" fill="#303446"/>
<path d="M954.463 51.8496C965.466 58.2709 972.864 70.1687 972.864 83.7899C972.864 104.222 956.24 120.781 935.739 120.786C916.661 120.786 900.954 106.449 898.859 87.9998C898.823 88.7265 898.797 89.4533 898.797 90.1852C898.797 112.818 917.213 131.163 939.923 131.163C962.632 131.163 981.048 112.813 981.048 90.1852C981.048 72.6552 969.999 57.7051 954.463 51.8496Z" fill="#303446"/>
<path d="M934.637 54.6855C920.837 54.6855 909.182 63.8321 905.437 76.3736C909.62 67.0713 918.992 60.5929 929.886 60.5929C944.682 60.5929 956.674 72.5426 956.674 87.2851C956.674 102.028 944.682 113.977 929.886 113.977C927.469 113.977 925.124 113.65 922.894 113.053C926.505 114.559 930.475 115.389 934.637 115.394C951.465 115.394 965.099 101.799 965.099 85.0374C965.099 68.2704 951.459 54.6855 934.637 54.6855Z" fill="#303446"/>
<path d="M1061.13 141.136L1039.92 109.2L1021.24 141.136H992.469L1025.83 88.1075L991.728 36.8613H1021.24L1042.15 68.3517L1060.53 36.8613H1089.3L1056.23 89.4444L1090.64 141.136H1061.13Z" fill="#303446"/>
<defs>
<linearGradient id="paint0_linear_682_4658" x1="0" y1="89" x2="178" y2="89" gradientUnits="userSpaceOnUse">
<stop stop-color="#00DBFF"/>
<stop offset="1" stop-color="#00FF75"/>
</linearGradient>
<linearGradient id="paint1_linear_682_4658" x1="0" y1="89" x2="178" y2="89" gradientUnits="userSpaceOnUse">
<stop stop-color="#00DBFF"/>
<stop offset="1" stop-color="#00FF75"/>
</linearGradient>
<linearGradient id="paint2_linear_682_4658" x1="0" y1="89" x2="178" y2="89" gradientUnits="userSpaceOnUse">
<stop stop-color="#00DBFF"/>
<stop offset="1" stop-color="#00FF75"/>
</linearGradient>
</defs>
</svg>
