<svg width="250" height="250" viewBox="0 0 250 250" fill="none" xmlns="http://www.w3.org/2000/svg">
<path d="M29.4146 171.747C17.9135 148.301 15.4904 121.474 22.5852 96.2114C29.7288 70.7674 45.9923 49.0041 68.3869 34.9306C84.4689 24.8173 102.953 19.1879 121.828 18.6431C137.072 18.2031 152.533 21.1226 166.617 27.0872C166.226 29.0149 166.024 30.9845 166.024 32.9541C166.024 49.1997 179.236 62.4211 195.485 62.4211C211.735 62.4211 224.947 49.2067 224.947 32.9541C224.947 16.7015 211.735 3.48707 195.485 3.48707C188.279 3.48707 181.386 6.1062 175.989 10.8905C158.866 3.25658 139.977 -0.487033 121.29 0.0507624C99.0983 0.693323 77.3811 7.30751 58.492 19.1809C32.1869 35.7199 13.0743 61.2896 4.68067 91.1827C-3.65009 120.859 -0.794032 152.38 12.7181 179.94L13.6399 181.819L30.3294 173.626L29.4076 171.747H29.4146ZM195.478 22.0794C201.47 22.0794 206.344 26.9545 206.344 32.9471C206.344 38.9397 201.47 43.8148 195.478 43.8148C189.487 43.8148 184.613 38.9397 184.613 32.9471C184.613 26.9545 189.487 22.0794 195.478 22.0794Z" fill="white"/>
<path d="M233.787 63.5037L232.754 61.6807L216.574 70.8442L217.607 72.6671C231.099 96.4978 234.849 124.296 228.166 150.927C221.462 177.642 204.926 200.432 181.603 215.099C164.592 225.792 145.054 231.443 125.089 231.443C108.854 231.443 92.5692 227.615 77.9327 220.365C78.6031 217.872 78.9453 215.309 78.9453 212.738C78.9453 196.493 65.7264 183.271 49.4838 183.271C33.2413 183.271 20.0224 196.486 20.0224 212.738C20.0224 228.991 33.2343 242.205 49.4838 242.205C56.02 242.205 62.4234 239.991 67.5839 235.961C85.3278 245.146 105.229 250 125.201 250L126.996 249.986C149.788 249.658 172.099 243.037 191.498 230.842C218.899 213.618 238.326 186.84 246.203 155.46C254.052 124.17 249.646 91.5179 233.787 63.5106V63.5037ZM49.4838 223.599C43.4924 223.599 38.6182 218.724 38.6182 212.731C38.6182 206.739 43.4924 201.864 49.4838 201.864C55.4753 201.864 60.3494 206.739 60.3494 212.731C60.3494 218.724 55.4753 223.599 49.4838 223.599Z" fill="white"/>
<path d="M98.2883 148.364C99.5103 149.774 101.207 150.627 103.072 150.759C104.929 150.892 106.738 150.291 108.148 149.069L147.253 115.202L155.493 124.715C158.014 127.627 162.441 127.941 165.353 125.42C166.764 124.198 167.616 122.501 167.749 120.636L171.219 72.283L171.233 71.9478C171.31 68.3508 168.67 65.3126 165.081 64.8656L116.437 61.3664C114.573 61.2337 112.771 61.8344 111.361 63.0567C109.95 64.2789 109.098 65.9761 108.965 67.8409C108.833 69.7058 109.433 71.5077 110.655 72.9186L118.895 82.4313L94.5873 103.489C93.1767 104.711 92.3248 106.409 92.1921 108.273C92.0594 110.138 92.66 111.94 93.882 113.351C96.4029 116.264 100.823 116.585 103.742 114.056L133.329 88.4239C134.74 87.2016 135.592 85.5044 135.724 83.6396C135.857 81.7747 135.257 79.9728 134.034 78.5619L132.268 76.5155L156.785 78.2756L155.025 102.798L153.259 100.751C152.037 99.3404 150.34 98.4883 148.475 98.3556C146.618 98.2229 144.809 98.8236 143.399 100.046L104.294 133.913L96.0537 124.4C93.5329 121.488 89.1056 121.174 86.1937 123.695C84.8809 124.833 84.0429 126.405 83.8334 128.158L80.3349 176.797C80.0626 180.638 82.9605 183.991 86.8012 184.27L135.117 187.741C135.284 187.755 135.459 187.762 135.627 187.762C137.303 187.762 138.909 187.169 140.187 186.058L140.221 186.023C140.906 185.423 141.457 184.71 141.862 183.9C143.133 181.365 142.749 178.34 140.892 176.196L132.652 166.684L156.96 145.626C158.37 144.403 159.222 142.706 159.355 140.841C159.488 138.977 158.887 137.175 157.665 135.764C155.144 132.851 150.724 132.53 147.805 135.051L118.218 160.684C116.807 161.906 115.955 163.603 115.823 165.468C115.69 167.333 116.291 169.135 117.513 170.546L119.279 172.592L94.7619 170.832L96.5216 146.31L98.2953 148.357L98.2883 148.364Z" fill="white"/>
</svg>
