<svg width="592" height="600" viewBox="0 0 592 600" fill="none" xmlns="http://www.w3.org/2000/svg">
<path d="M108.656 336.759C86.1048 290.786 81.3536 238.184 95.2648 188.65C109.272 138.76 141.161 96.0865 185.072 68.4915C216.605 48.6614 252.848 37.6233 289.858 36.5551C319.748 35.6924 350.062 41.4168 377.679 53.1122C376.912 56.8919 376.515 60.7539 376.515 64.6158C376.515 96.47 402.421 122.394 434.282 122.394C466.144 122.394 492.049 96.4837 492.049 64.6158C492.049 32.748 466.144 6.83738 434.282 6.83738C420.152 6.83738 406.638 11.9729 396.054 21.3539C362.481 6.38546 325.443 -0.954967 288.803 0.0995341C245.29 1.35946 202.707 14.3285 165.67 37.6096C114.092 70.039 76.6162 120.176 60.1582 178.79C43.8235 236.979 49.4236 298.784 75.9179 352.823L77.7252 356.507L110.449 340.443L108.642 336.759H108.656ZM434.269 43.293C446.016 43.293 455.574 52.852 455.574 64.6021C455.574 76.3523 446.016 85.9113 434.269 85.9113C422.521 85.9113 412.964 76.3523 412.964 64.6021C412.964 52.852 422.521 43.293 434.269 43.293Z" fill="url(#paint0_linear_1206_7362)"/>
<path d="M509.384 124.517L507.357 120.943L475.633 138.91L477.659 142.485C504.112 189.211 511.465 243.717 498.362 295.935C485.217 348.318 452.794 393.004 407.062 421.763C373.708 442.73 335.398 453.809 296.252 453.809C264.418 453.809 232.488 446.304 203.789 432.089C205.103 427.2 205.774 422.174 205.774 417.134C205.774 385.28 179.855 359.356 148.007 359.356C116.159 359.356 90.2398 385.266 90.2398 417.134C90.2398 449.002 116.145 474.913 148.007 474.913C160.823 474.913 173.379 470.571 183.497 462.669C218.289 480.678 257.311 490.196 296.471 490.196L299.99 490.169C344.681 489.525 388.427 476.542 426.464 452.631C480.192 418.86 518.284 366.354 533.728 304.823C549.118 243.47 540.479 179.447 509.384 124.531V124.517ZM148.007 438.43C136.259 438.43 126.702 428.871 126.702 417.12C126.702 405.37 136.259 395.811 148.007 395.811C159.755 395.811 169.312 405.37 169.312 417.12C169.312 428.871 159.755 438.43 148.007 438.43Z" fill="url(#paint1_linear_1206_7362)"/>
<path d="M243.701 290.909C246.097 293.675 249.425 295.346 253.08 295.606C256.723 295.867 260.269 294.689 263.035 292.292L339.711 225.886L355.867 244.538C360.81 250.249 369.491 250.865 375.201 245.922C377.967 243.525 379.637 240.197 379.897 236.541L386.702 141.731L386.73 141.074C386.88 134.021 381.704 128.064 374.667 127.187L279.287 120.326C275.631 120.066 272.099 121.244 269.333 123.641C266.567 126.037 264.897 129.365 264.637 133.021C264.376 136.678 265.554 140.211 267.95 142.978L284.107 161.63L236.445 202.92C233.679 205.316 232.008 208.644 231.748 212.301C231.488 215.957 232.666 219.491 235.062 222.257C240.004 227.968 248.672 228.598 254.395 223.64L312.409 173.38C315.174 170.984 316.845 167.656 317.105 163.999C317.365 160.343 316.188 156.809 313.791 154.043L310.327 150.03L358.4 153.482L354.95 201.564L351.486 197.551C349.09 194.785 345.763 193.114 342.107 192.854C338.465 192.594 334.918 193.772 332.153 196.168L255.477 262.574L239.32 243.922C234.377 238.211 225.696 237.595 219.987 242.539C217.412 244.771 215.769 247.853 215.359 251.29L208.499 346.661C207.965 354.193 213.647 360.766 221.178 361.314L315.914 368.12C316.242 368.148 316.585 368.162 316.913 368.162C320.199 368.162 323.349 366.998 325.854 364.82L325.923 364.752C327.265 363.574 328.346 362.177 329.14 360.588C331.632 355.617 330.879 349.687 327.237 345.483L311.08 326.831L358.743 285.541C361.509 283.144 363.179 279.816 363.439 276.16C363.699 272.503 362.522 268.97 360.126 266.204C355.183 260.493 346.516 259.863 340.792 264.807L282.779 315.067C280.013 317.463 278.342 320.791 278.082 324.448C277.822 328.104 279 331.637 281.396 334.404L284.86 338.416L236.787 334.965L240.237 286.883L243.715 290.895L243.701 290.909Z" fill="url(#paint2_linear_1206_7362)"/>
<path d="M13.3271 597.535C9.34206 595.899 6.15182 593.478 3.7782 590.272C1.39369 587.065 0.130658 583.204 0 578.689H17.8348C18.0962 581.241 18.9781 583.193 20.4807 584.535C21.9832 585.876 23.9431 586.541 26.3603 586.541C28.7775 586.541 30.8027 585.974 32.2399 584.818C33.6771 583.673 34.3958 582.092 34.3958 580.063C34.3958 578.361 33.8187 576.954 32.6754 575.842C31.5322 574.729 30.1276 573.813 28.4617 573.093C26.7958 572.374 24.4222 571.556 21.3626 570.639C16.9202 569.265 13.2945 567.891 10.4853 566.517C7.67617 565.142 5.25899 563.114 3.23379 560.431C1.20859 557.748 0.195987 554.247 0.195987 549.928C0.195987 543.514 2.51517 538.497 7.15354 534.865C11.7919 531.234 17.8348 529.412 25.2824 529.412C32.7299 529.412 38.9688 531.234 43.6072 534.865C48.2455 538.497 50.728 543.547 51.0547 550.037H32.9259C32.7952 547.812 31.9786 546.056 30.476 544.78C28.9735 543.504 27.0462 542.871 24.6944 542.871C22.6692 542.871 21.036 543.416 19.7947 544.496C18.5535 545.576 17.9328 547.136 17.9328 549.153C17.9328 551.378 18.9781 553.112 21.0686 554.356C23.1592 555.599 26.4256 556.941 30.868 558.38C35.3104 559.885 38.9144 561.325 41.7017 562.699C44.4782 564.074 46.8736 566.07 48.8988 568.687C50.924 571.305 51.9366 574.675 51.9366 578.798C51.9366 582.92 50.9349 586.291 48.9424 589.497C46.9498 592.704 44.0536 595.256 40.2754 597.154C36.4863 599.051 32.0113 600 26.8503 600C21.6893 600 17.3122 599.182 13.3271 597.546V597.535Z" fill="white"/>
<path d="M76.5786 595.48C71.1889 592.47 66.9098 588.26 63.7414 582.861C60.5729 577.462 58.9941 571.398 58.9941 564.658C58.9941 557.917 60.5729 551.864 63.7414 546.498C66.9098 541.132 71.1889 536.944 76.5786 533.933C81.9682 530.923 87.9023 529.418 94.359 529.418C100.816 529.418 106.761 530.923 112.139 533.933C117.529 536.944 121.775 541.132 124.879 546.498C127.982 551.864 129.528 557.917 129.528 564.658C129.528 571.398 127.96 577.462 124.824 582.861C121.688 588.26 117.442 592.47 112.085 595.48C106.728 598.49 100.816 599.995 94.3481 599.995C87.8805 599.995 81.9573 598.49 76.5677 595.48H76.5786ZM107.545 579.185C110.844 575.521 112.488 570.678 112.488 564.658C112.488 558.637 110.833 553.707 107.545 550.075C104.245 546.443 99.8575 544.622 94.3698 544.622C88.8822 544.622 84.3854 546.422 81.0971 550.021C77.798 553.62 76.1539 558.495 76.1539 564.647C76.1539 570.798 77.798 575.586 81.0971 579.218C84.3963 582.85 88.8169 584.671 94.3698 584.671C99.9228 584.671 104.245 582.839 107.545 579.174V579.185Z" fill="white"/>
<path d="M140.996 546.551C143.936 541.218 148.03 537.063 153.289 534.085C158.548 531.108 164.515 529.613 171.178 529.613C179.344 529.613 186.335 531.773 192.149 536.092C197.963 540.411 201.85 546.301 203.81 553.761H185.387C184.015 550.881 182.066 548.689 179.562 547.184C177.047 545.679 174.183 544.926 170.982 544.926C165.821 544.926 161.64 546.726 158.439 550.325C155.238 553.924 153.637 558.734 153.637 564.755C153.637 570.775 155.238 575.585 158.439 579.184C161.64 582.783 165.821 584.583 170.982 584.583C174.183 584.583 177.036 583.831 179.562 582.325C182.077 580.82 184.015 578.628 185.387 575.749H203.81C201.85 583.209 197.963 589.088 192.149 593.363C186.335 597.649 179.344 599.798 171.178 599.798C164.515 599.798 158.548 598.315 153.289 595.337C148.03 592.36 143.936 588.215 140.996 582.914C138.056 577.614 136.586 571.56 136.586 564.755C136.586 557.949 138.056 551.885 140.996 546.54V546.551Z" fill="white"/>
<path d="M250.75 599.161L227.624 568.731V599.161H210.867V530.252H227.624V560.485L250.554 530.252H270.251L243.597 564.019L271.231 599.161H250.75Z" fill="white"/>
<path d="M295.046 543.7V557.639H317.487V570.596H295.046V585.713H320.427V599.161H278.29V530.252H320.427V543.7H295.046Z" fill="white"/>
<path d="M380.694 530.252V543.7H362.467V599.161H345.71V543.7H327.483V530.252H380.694Z" fill="white"/>
<path d="M439.014 569.764C441.432 572.872 442.64 576.428 442.64 580.409C442.64 586.168 440.626 590.737 436.608 594.108C432.59 597.478 426.983 599.157 419.797 599.157H387.753V530.26H418.719C425.709 530.26 431.175 531.863 435.138 535.07C439.091 538.276 441.061 542.628 441.061 548.125C441.061 552.182 439.994 555.552 437.882 558.235C435.759 560.919 432.928 562.784 429.4 563.831C433.385 564.681 436.586 566.666 439.004 569.775L439.014 569.764ZM404.521 558.137H415.496C418.24 558.137 420.352 557.537 421.822 556.316C423.292 555.105 424.021 553.317 424.021 550.961C424.021 548.605 423.292 546.805 421.822 545.562C420.352 544.319 418.24 543.697 415.496 543.697H404.521V558.126V558.137ZM423.379 583.714C424.914 582.437 425.687 580.594 425.687 578.173C425.687 575.752 424.882 573.854 423.281 572.48C421.681 571.105 419.47 570.418 416.661 570.418H404.51V585.633H416.857C419.666 585.633 421.833 585.001 423.368 583.724L423.379 583.714Z" fill="white"/>
<path d="M490.956 595.586C474.251 595.586 460.711 582.094 460.711 565.449C460.711 548.805 474.251 535.313 490.956 535.313C499.38 535.313 506.996 538.747 512.48 544.287C506.162 535.687 495.958 530.096 484.438 530.096C465.252 530.096 449.697 545.591 449.697 564.709C449.697 583.826 465.252 599.321 484.435 599.321C493.09 599.321 501.002 596.159 507.089 590.937C502.417 593.881 496.888 595.589 490.956 595.589" fill="white"/>
<path d="M501.352 540.158C508.623 544.402 513.512 552.264 513.512 561.266C513.512 574.768 502.526 585.711 488.979 585.714C476.371 585.714 465.991 576.239 464.607 564.048C464.583 564.528 464.566 565.008 464.566 565.492C464.566 580.448 476.736 592.571 491.743 592.571C506.75 592.571 518.921 580.445 518.921 565.492C518.921 553.907 511.619 544.028 501.352 540.158Z" fill="white"/>
<path d="M488.25 542.033C479.13 542.033 471.428 548.078 468.953 556.365C471.718 550.218 477.911 545.937 485.11 545.937C494.888 545.937 502.813 553.834 502.813 563.576C502.813 573.319 494.888 581.215 485.11 581.215C483.513 581.215 481.963 580.999 480.49 580.605C482.876 581.6 485.499 582.148 488.25 582.152C499.37 582.152 508.38 573.168 508.38 562.091C508.38 551.011 499.367 542.033 488.25 542.033Z" fill="white"/>
<path d="M571.84 599.161L557.826 578.056L545.479 599.161H526.468L548.517 564.117L525.979 530.252H545.479L559.296 551.062L571.448 530.252H590.458L568.606 565.001L591.34 599.161H571.84Z" fill="white"/>
<defs>
<linearGradient id="paint0_linear_1206_7362" x1="50.9805" y1="245.098" x2="541.173" y2="245.098" gradientUnits="userSpaceOnUse">
<stop stop-color="#00DBFF"/>
<stop offset="1" stop-color="#00FF75"/>
</linearGradient>
<linearGradient id="paint1_linear_1206_7362" x1="50.9805" y1="245.098" x2="541.173" y2="245.098" gradientUnits="userSpaceOnUse">
<stop stop-color="#00DBFF"/>
<stop offset="1" stop-color="#00FF75"/>
</linearGradient>
<linearGradient id="paint2_linear_1206_7362" x1="50.9805" y1="245.098" x2="541.173" y2="245.098" gradientUnits="userSpaceOnUse">
<stop stop-color="#00DBFF"/>
<stop offset="1" stop-color="#00FF75"/>
</linearGradient>
</defs>
</svg>
