<svg width="1121" height="253" viewBox="0 0 1121 253" fill="none" xmlns="http://www.w3.org/2000/svg">
<path d="M100.802 84.578C110.447 86.6355 118.195 91.4629 124.045 99.06C129.896 106.499 132.821 115.046 132.821 124.7C132.821 138.628 127.919 149.708 118.116 157.938C108.47 166.01 94.9512 170.046 77.558 170.046H0V3.38366H74.949C91.8678 3.38366 105.071 7.26136 114.558 15.0168C124.203 22.7722 129.026 33.2973 129.026 46.5923C129.026 56.4053 126.417 64.5564 121.199 71.0456C116.139 77.5348 109.34 82.0456 100.802 84.578ZM40.5578 70.8082H67.122C73.7631 70.8082 78.8229 69.3837 82.3016 66.5348C85.9383 63.5276 87.7567 59.1751 87.7567 53.4772C87.7567 47.7794 85.9383 43.4269 82.3016 40.4197C78.8229 37.4125 73.7631 35.9089 67.122 35.9089H40.5578V70.8082ZM70.4425 137.283C77.2417 137.283 82.4597 135.779 86.0965 132.772C89.8913 129.607 91.7888 125.096 91.7888 119.24C91.7888 113.384 89.8123 108.794 85.8593 105.47C82.0644 102.146 76.7674 100.484 69.9682 100.484H40.5578V137.283H70.4425Z" fill="#303446"/>
<path d="M407.977 170.046L374.061 119.002L344.176 170.046H298.163L351.528 85.2902L296.977 3.38366H344.176L377.618 53.7146L407.029 3.38366H453.042L400.15 87.4269L455.176 170.046H407.977Z" fill="#303446"/>
<path d="M516.094 138.708H569.223V170.046H475.537V3.38366H516.094V138.708Z" fill="#303446"/>
<path d="M692.216 140.607H630.074L620.113 170.046H577.658L637.901 3.38366H684.863L745.107 170.046H702.177L692.216 140.607ZM681.78 109.269L661.145 48.2542L640.748 109.269H681.78Z" fill="#303446"/>
<path d="M912.391 170.046H871.833L804 67.247V170.046H763.442V3.38366H804L871.833 106.657V3.38366H912.391V170.046Z" fill="#303446"/>
<path d="M1052.32 56.0887C1049.31 50.5492 1044.96 46.3549 1039.27 43.506C1033.74 40.4988 1027.18 38.9952 1019.59 38.9952C1006.46 38.9952 995.947 43.3477 988.041 52.0528C980.135 60.5995 976.181 72.0744 976.181 86.4772C976.181 101.83 980.293 113.859 988.515 122.564C996.895 131.11 1008.36 135.384 1022.91 135.384C1032.87 135.384 1041.25 132.851 1048.05 127.787C1055 122.722 1060.06 115.441 1063.23 105.945H1011.76V76.0312H1099.99V113.779C1096.99 123.909 1091.85 133.326 1084.57 142.031C1077.46 150.736 1068.37 157.779 1057.3 163.161C1046.23 168.542 1033.74 171.233 1019.82 171.233C1003.38 171.233 988.673 167.672 975.707 160.549C962.899 153.269 952.859 143.218 945.585 130.398C938.47 117.578 934.912 102.938 934.912 86.4772C934.912 70.0168 938.47 55.3765 945.585 42.5564C952.859 29.5779 962.899 19.5276 975.707 12.4052C988.515 5.12467 1003.14 1.48438 1019.59 1.48438C1039.51 1.48438 1056.27 6.31172 1069.87 15.9664C1083.62 25.6211 1092.72 38.9952 1097.14 56.0887H1052.32Z" fill="#303446"/>
<path d="M202.68 25.7108L218.223 12.8163L218.238 12.8008L218.27 12.8241C218.82 12.9096 219.363 12.9951 219.913 13.0961C253.302 19.6716 274.923 51.7874 268.264 84.7426C261.675 117.418 229.764 138.683 196.783 132.706C203.898 131.113 210.738 127.88 216.713 122.929C236.737 106.311 239.355 76.7914 222.547 56.9949C212.916 45.6472 198.993 39.9655 185.093 40.2997L202.688 25.703L202.68 25.7108Z" fill="#303446"/>
<path d="M149.309 143.213C146.21 139.304 146.695 133.469 150.385 130.186C154.075 126.903 159.584 127.417 162.683 131.326C165.782 135.235 165.297 141.07 161.607 144.353C157.917 147.636 152.408 147.122 149.309 143.213Z" fill="#303446"/>
<path d="M236.45 168.999C208.17 174.534 180.35 166.216 160.361 148.861C161.528 148.374 162.647 147.724 163.662 146.881C165.757 145.165 167.17 142.954 167.86 140.573C172.24 143.024 176.866 145.111 181.738 146.735C223.349 160.673 268.635 139.081 282.894 98.5497C297.201 58.0105 275.038 13.8919 233.435 0C269.666 5.81341 298.383 32.8319 305.548 67.8438C315.134 114.374 284.211 159.645 236.45 168.991V168.999Z" fill="#303446"/>
<path d="M1111.59 0C1113.94 0 1116.12 0.872141 1117.67 2.53639C1118.43 3.2885 1119.02 4.24063 1119.46 5.27279C1120.29 7.3731 1120.29 9.71345 1119.46 11.7738C1119.06 12.8059 1118.43 13.7581 1117.59 14.5102C1116.76 15.3423 1115.88 15.9384 1114.77 16.3744C1113.73 16.7705 1112.66 17.0106 1111.55 17.0106C1110.43 17.0106 1109.28 16.8105 1108.24 16.3385C1107.21 15.8664 1106.25 15.2263 1105.42 14.4342C1103.83 12.8499 1102.96 10.7456 1102.96 8.56527C1102.96 6.38494 1103.04 7.05706 1103.23 6.30495C1103.43 5.55283 1103.79 4.79672 1104.11 4.20463C1105.82 1.58824 1108.6 0 1111.58 0M1111.63 1.42822C1110.76 1.42822 1109.76 1.54824 1108.97 1.90429C1108.13 2.26034 1107.38 2.7364 1106.7 3.4125C1106.02 4.0886 1105.47 4.92074 1105.11 5.75286C1104 8.32925 1104.55 11.4217 1106.62 13.406C1107.3 14.0781 1108.06 14.6342 1108.97 14.9902C1109.8 15.3463 1110.76 15.5463 1111.71 15.5463C1112.67 15.5463 1113.58 15.3463 1114.38 14.9902C1115.25 14.6342 1116.01 14.1181 1116.72 13.482C1117.44 12.8459 1117.88 12.1338 1118.24 11.2217C1118.59 10.3895 1118.79 9.51741 1118.79 8.56527C1118.79 7.61313 1118.67 6.66099 1118.24 5.74886C1117.88 4.87673 1117.36 4.1246 1116.72 3.48851C1116.05 2.81641 1115.29 2.26034 1114.38 1.90429C1113.5 1.66825 1112.55 1.42822 1111.63 1.42822M1108.09 3.64854H1111.79C1112.83 3.56853 1113.9 3.76856 1114.81 4.32064C1115.49 4.79671 1115.85 5.54883 1115.85 6.38096C1115.85 7.21308 1115.65 7.52911 1115.29 7.96518C1114.89 8.44125 1114.33 8.71731 1113.78 8.83733L1115.88 13.078H1113.34L1111.55 9.27338H1110.4V13.158H1108.13V3.64053H1108.09V3.64854ZM1110.36 5.15678V7.89317H1111.51C1111.99 7.97318 1112.54 7.81318 1113.02 7.53714C1113.38 7.33711 1113.5 6.90104 1113.5 6.50498C1113.5 6.10892 1113.38 5.67284 1113.02 5.3928C1112.54 5.11676 1111.99 4.99676 1111.43 5.03676L1110.36 5.15678Z" fill="#303446"/>
<path d="M697.152 221.013H685.512L691.299 203.724L697.152 221.013Z" fill="#303446"/>
<path d="M814.172 221.013H802.53L808.317 203.724L814.172 221.013Z" fill="#303446"/>
<path d="M862.372 200.831C866.723 200.831 870.11 202.042 872.532 204.464C874.955 206.886 876.166 210.272 876.166 214.622C876.166 218.972 874.955 222.336 872.532 224.713C870.11 227.09 866.723 228.278 862.372 228.278H856.921V200.831H862.372Z" fill="#303446"/>
<path fill-rule="evenodd" clip-rule="evenodd" d="M1074.56 176.045C1088.37 176.045 1099.57 187.243 1099.57 201.057V227.991C1099.57 241.804 1088.37 253.003 1074.56 253.003H650.297C636.484 253.003 625.285 241.804 625.285 227.991V201.057C625.285 187.243 636.483 176.045 650.297 176.045H1074.56ZM750.197 190.472C745.622 190.472 741.517 191.504 737.884 193.566C734.295 195.584 731.491 198.432 729.473 202.109C727.454 205.742 726.444 209.891 726.444 214.555C726.444 219.219 727.454 223.367 729.473 227C731.491 230.633 734.295 233.48 737.884 235.543C741.517 237.561 745.622 238.57 750.197 238.57C755.805 238.57 760.605 237.113 764.598 234.198C768.59 231.238 771.26 227.201 772.605 222.089H759.955C759.013 224.062 757.667 225.565 755.917 226.597C754.213 227.628 752.261 228.143 750.063 228.144C746.52 228.144 743.648 226.91 741.45 224.443C739.252 221.977 738.152 218.681 738.152 214.555C738.152 210.429 739.252 207.133 741.45 204.666C743.648 202.199 746.52 200.966 750.063 200.966C752.261 200.966 754.212 201.482 755.917 202.514C757.667 203.545 759.013 205.047 759.955 207.021H772.605C771.26 201.908 768.59 197.871 764.598 194.911C760.605 191.951 755.805 190.472 750.197 190.472ZM684.704 191.01L667.612 238.234H679.657L682.483 229.893H700.113L702.939 238.234H715.119L698.027 191.01H684.704ZM801.723 191.01L784.631 238.234H796.676L799.502 229.893H817.132L819.958 238.234H832.138L815.046 191.01H801.723ZM845.415 191.01V238.234H863.112C868.047 238.234 872.375 237.248 876.099 235.274C879.867 233.301 882.761 230.52 884.779 226.933C886.843 223.345 887.875 219.241 887.875 214.622C887.875 209.958 886.843 205.854 884.779 202.312C882.761 198.724 879.889 195.943 876.166 193.97C872.443 191.997 868.092 191.01 863.112 191.01H845.415ZM902.38 191.01V238.234H931.314V229.018H913.887V218.658H929.296V209.778H913.887V200.226H931.314V191.01H902.38ZM946.859 191.01V238.234H958.366V209.846L968.998 238.234H978.284L988.849 209.913V238.234H1000.36V191.01H986.83L973.708 223.704L960.452 191.01H946.859ZM1013 191.01L1029.36 222.627V238.234H1040.86V222.627L1057.21 191.01H1044.29L1035.21 210.787L1026.06 191.01H1013Z" fill="#303446"/>
</svg>
