<svg width="173" height="200" viewBox="0 0 173 200" fill="none" xmlns="http://www.w3.org/2000/svg">
<g clip-path="url(#clip0_1053_7249)">
<path d="M172.343 85.9524C172.343 38.4822 133.91 0 86.5003 0C39.0905 0 0.657227 38.4822 0.657227 85.9524C0.657227 133.423 39.0905 171.905 86.5003 171.905C133.91 171.905 172.343 133.423 172.343 85.9524Z" fill="url(#paint0_linear_1053_7249)"/>
<g opacity="0.4">
<path d="M72.4741 32.9164L86.1717 21.4062H86.209C86.6942 21.481 87.1719 21.5632 87.6571 21.6529C117.068 27.5201 136.117 56.1833 130.25 85.5865C124.443 114.751 96.331 133.727 67.2712 128.383C73.5415 126.956 79.5655 124.071 84.8355 119.661C102.474 104.84 104.788 78.4936 89.9712 60.8173C81.4764 50.6899 69.2195 45.6224 56.9775 45.9214L72.4741 32.9014V32.9164Z" fill="url(#paint1_linear_1053_7249)"/>
<path d="M102.616 160.991C77.9381 165.954 53.6408 158.495 36.1885 142.926C37.2037 142.486 38.1815 141.91 39.0773 141.148C40.8987 139.615 42.1378 137.62 42.7424 135.49C46.5568 137.687 50.6027 139.556 54.8575 141.021C91.1803 153.525 130.713 134.152 143.164 97.7978C155.652 61.4287 136.304 21.8457 99.996 9.37891C131.616 14.5884 156.697 38.8419 162.938 70.2407C171.313 111.984 144.306 152.598 102.616 160.984V160.991Z" fill="url(#paint2_linear_1053_7249)"/>
</g>
<path d="M157.84 169.507H151.823V163.475C151.823 162.645 151.151 161.973 150.323 161.973C149.494 161.973 148.823 162.653 148.823 163.475V169.507H142.806C141.977 169.507 141.306 170.187 141.306 171.009C141.306 171.831 141.977 172.511 142.806 172.511H148.823V178.543C148.823 179.372 149.494 180.045 150.323 180.045C151.151 180.045 151.823 179.365 151.823 178.543V172.511H157.84C158.668 172.511 159.34 171.831 159.34 171.009C159.34 170.187 158.668 169.507 157.84 169.507Z" fill="#00DBFF"/>
<path d="M171.5 162.772H165.483V156.741C165.483 155.911 164.812 155.238 163.983 155.238C163.154 155.238 162.483 155.918 162.483 156.741V162.772H156.466C155.638 162.772 154.966 163.452 154.966 164.274C154.966 165.097 155.638 165.777 156.466 165.777H162.483V171.808C162.483 172.638 163.154 173.311 163.983 173.311C164.812 173.311 165.483 172.631 165.483 171.808V165.777H171.5C172.329 165.777 173 165.097 173 164.274C173 163.452 172.329 162.772 171.5 162.772Z" fill="#00FF78"/>
<path d="M12.4883 192.674C13.078 193.428 13.3691 194.295 13.3691 195.267C13.3691 196.672 12.8765 197.778 11.8986 198.601C10.9207 199.423 9.55471 199.834 7.80053 199.834H0V183.047H7.54673C9.24866 183.047 10.5848 183.436 11.5478 184.22C12.5107 185.005 12.9959 186.059 12.9959 187.397C12.9959 188.383 12.7346 189.206 12.2196 189.863C11.7045 190.521 11.0178 190.969 10.1519 191.224C11.1223 191.433 11.9061 191.911 12.4883 192.674ZM4.08315 189.841H6.75548C7.4273 189.841 7.94235 189.691 8.29319 189.4C8.65149 189.108 8.83064 188.675 8.83064 188.099C8.83064 187.524 8.65149 187.083 8.29319 186.784C7.93489 186.477 7.41983 186.328 6.75548 186.328H4.08315V189.841ZM8.68135 196.067C9.05458 195.753 9.2412 195.304 9.2412 194.714C9.2412 194.124 9.04712 193.66 8.65896 193.331C8.2708 193.002 7.73334 192.83 7.0466 192.83H4.08315V196.538H7.09139C7.77813 196.538 8.30812 196.381 8.68135 196.074V196.067Z" fill="#303446"/>
<path d="M26.0066 199.834L22.5952 194.692L19.587 199.834H14.9515L20.326 191.298L14.832 183.047H19.587L22.9535 188.114L25.917 183.047H30.5451L25.2228 191.508L30.7615 199.826H26.0066V199.834Z" fill="#303446"/>
<path d="M43.0785 189.746V193.139H32.5684V189.746H43.0785Z" fill="#303446"/>
<path d="M65.6437 183.047V199.834H61.5605V189.766L57.8133 199.834H54.5214L50.7443 189.744V199.834H46.6611V183.047H51.4833L56.186 194.669L60.8439 183.047H65.6437Z" fill="#303446"/>
<path d="M72.1753 198.9C70.8615 198.168 69.8165 197.144 69.0476 195.829C68.2788 194.513 67.8906 193.033 67.8906 191.389C67.8906 189.745 68.2788 188.272 69.0476 186.964C69.824 185.656 70.8615 184.64 72.1753 183.907C73.4891 183.175 74.9298 182.809 76.5123 182.809C78.0948 182.809 79.5354 183.175 80.8492 183.907C82.163 184.64 83.1931 185.664 83.9545 186.964C84.7159 188.265 85.0891 189.745 85.0891 191.389C85.0891 193.033 84.7084 194.513 83.9396 195.829C83.1707 197.144 82.1406 198.168 80.8343 198.9C79.528 199.633 78.0873 199.999 76.5123 199.999C74.9372 199.999 73.4891 199.633 72.1753 198.9ZM79.7146 194.932C80.5208 194.042 80.9239 192.861 80.9239 191.389C80.9239 189.916 80.5208 188.721 79.7146 187.839C78.9084 186.957 77.841 186.508 76.5048 186.508C75.1686 186.508 74.0713 186.949 73.2726 187.824C72.4664 188.698 72.0708 189.887 72.0708 191.389C72.0708 192.891 72.4739 194.057 73.2726 194.939C74.0788 195.821 75.1537 196.269 76.5048 196.269C77.8559 196.269 78.9159 195.821 79.7146 194.932Z" fill="#303446"/>
<path d="M102.34 199.834H98.257L91.4269 189.482V199.834H87.3438V183.047H91.4269L98.257 193.443V183.047H102.34V199.834Z" fill="#303446"/>
<path d="M116.433 188.356C116.127 187.796 115.694 187.37 115.134 187.078C114.567 186.787 113.903 186.637 113.141 186.637C111.82 186.637 110.76 187.071 109.969 187.938C109.17 188.805 108.774 189.963 108.774 191.413C108.774 192.96 109.192 194.163 110.028 195.03C110.864 195.897 112.014 196.331 113.477 196.331C114.477 196.331 115.328 196.077 116.022 195.569C116.717 195.06 117.217 194.328 117.538 193.371H112.357V190.359H121.24V194.163C120.934 195.18 120.427 196.129 119.703 197.011C118.978 197.886 118.06 198.596 116.948 199.141C115.836 199.679 114.574 199.956 113.178 199.956C111.521 199.956 110.043 199.597 108.744 198.865C107.446 198.14 106.438 197.131 105.714 195.838C104.99 194.545 104.624 193.072 104.624 191.413C104.624 189.754 104.982 188.274 105.714 186.973C106.438 185.673 107.446 184.664 108.737 183.939C110.028 183.214 111.499 182.848 113.156 182.848C115.164 182.848 116.851 183.333 118.232 184.305C119.606 185.277 120.516 186.622 120.964 188.349H116.455L116.433 188.356Z" fill="#303446"/>
<path d="M127.092 198.9C125.779 198.168 124.733 197.144 123.965 195.829C123.196 194.513 122.808 193.033 122.808 191.389C122.808 189.745 123.196 188.272 123.965 186.964C124.741 185.656 125.779 184.64 127.092 183.907C128.406 183.175 129.847 182.809 131.429 182.809C133.012 182.809 134.452 183.175 135.766 183.907C137.08 184.64 138.11 185.664 138.871 186.964C139.633 188.265 140.006 189.745 140.006 191.389C140.006 193.033 139.625 194.513 138.857 195.829C138.088 197.144 137.058 198.168 135.751 198.9C134.445 199.633 133.004 199.999 131.429 199.999C129.854 199.999 128.406 199.633 127.092 198.9ZM134.639 194.932C135.445 194.042 135.848 192.861 135.848 191.389C135.848 189.916 135.445 188.721 134.639 187.839C133.833 186.957 132.765 186.508 131.429 186.508C130.093 186.508 128.996 186.949 128.197 187.824C127.391 188.698 126.995 189.887 126.995 191.389C126.995 192.891 127.398 194.057 128.197 194.939C129.003 195.821 130.078 196.269 131.429 196.269C132.78 196.269 133.84 195.821 134.639 194.932Z" fill="#303446"/>
<path d="M153.182 184.1C154.503 184.803 155.526 185.79 156.25 187.053C156.974 188.316 157.34 189.781 157.34 191.44C157.34 193.099 156.974 194.542 156.25 195.812C155.526 197.09 154.496 198.077 153.167 198.772C151.838 199.475 150.3 199.826 148.546 199.826H142.269V183.039H148.546C150.315 183.039 151.853 183.39 153.174 184.093L153.182 184.1ZM151.89 195.028C152.749 194.183 153.182 192.987 153.182 191.44C153.182 189.893 152.749 188.69 151.89 187.83C151.032 186.97 149.83 186.537 148.285 186.537H146.352V196.291H148.285C149.83 196.291 151.032 195.872 151.89 195.028Z" fill="#303446"/>
<path d="M172.119 192.674C172.709 193.428 173 194.295 173 195.267C173 196.672 172.507 197.778 171.529 198.601C170.551 199.423 169.185 199.834 167.431 199.834H159.623V183.047H167.17C168.872 183.047 170.208 183.436 171.171 184.22C172.134 185.005 172.619 186.059 172.619 187.397C172.619 188.383 172.358 189.206 171.843 189.863C171.328 190.521 170.641 190.969 169.775 191.224C170.745 191.433 171.529 191.911 172.111 192.674H172.119ZM163.714 189.841H166.386C167.058 189.841 167.573 189.691 167.924 189.4C168.282 189.108 168.461 188.675 168.461 188.099C168.461 187.524 168.282 187.083 167.924 186.784C167.565 186.477 167.05 186.328 166.386 186.328H163.714V189.841ZM168.312 196.067C168.685 195.753 168.872 195.304 168.872 194.714C168.872 194.124 168.678 193.66 168.289 193.331C167.901 193.002 167.364 192.83 166.677 192.83H163.714V196.538H166.722C167.409 196.538 167.939 196.381 168.312 196.074V196.067Z" fill="#303446"/>
<path d="M95.6142 45.2943C91.21 40.0848 87.418 34.7932 86.6417 33.6945C86.5596 33.6123 86.4402 33.6123 86.358 33.6945C85.5817 34.7932 81.7897 40.0848 77.3856 45.2943C39.5698 93.3679 83.3423 125.813 83.3423 125.813L83.7081 126.06C84.0365 131.067 84.8502 138.272 84.8502 138.272H88.1122C88.1122 138.272 88.9259 131.105 89.2543 126.06L89.6201 125.776C89.6574 125.776 133.43 93.3753 95.6142 45.2943ZM86.4775 125.081C86.4775 125.081 84.5217 123.414 83.9918 122.554V122.472L86.358 70.1233C86.358 69.9589 86.6044 69.9589 86.6044 70.1233L88.9707 122.472V122.554C88.4407 123.406 86.4849 125.081 86.4849 125.081H86.4775Z" fill="white"/>
</g>
<defs>
<linearGradient id="paint0_linear_1053_7249" x1="0.657227" y1="85.9524" x2="172.343" y2="85.9524" gradientUnits="userSpaceOnUse">
<stop stop-color="#003A44"/>
<stop offset="0.67" stop-color="#19857C"/>
<stop offset="1" stop-color="#01634E"/>
</linearGradient>
<linearGradient id="paint1_linear_1053_7249" x1="56.9775" y1="75.3395" x2="131.318" y2="75.3395" gradientUnits="userSpaceOnUse">
<stop stop-color="#003A44" stop-opacity="0"/>
<stop offset="0.47" stop-color="#00FF78"/>
</linearGradient>
<linearGradient id="paint2_linear_1053_7249" x1="36.1885" y1="85.9513" x2="164.46" y2="85.9513" gradientUnits="userSpaceOnUse">
<stop stop-color="#003A44" stop-opacity="0"/>
<stop offset="0.47" stop-color="#00FF78"/>
</linearGradient>
<clipPath id="clip0_1053_7249">
<rect width="173" height="200" fill="white"/>
</clipPath>
</defs>
</svg>
