<svg width="520" height="600" viewBox="0 0 520 600" fill="none" xmlns="http://www.w3.org/2000/svg">
<g clip-path="url(#clip0_1053_7321)">
<path d="M518.026 257.857C518.026 115.447 402.504 0 260 0C117.497 0 1.97461 115.447 1.97461 257.857C1.97461 400.268 117.497 515.714 260 515.714C402.504 515.714 518.026 400.268 518.026 257.857Z" fill="url(#paint0_linear_1053_7321)"/>
<g opacity="0.4">
<path d="M217.841 98.7492L259.013 64.2188H259.125C260.583 64.443 262.019 64.6896 263.478 64.9587C351.88 82.5602 409.139 168.55 391.503 256.76C374.047 344.252 289.55 401.182 202.202 385.15C221.049 380.867 239.156 372.212 254.997 358.983C308.015 314.52 314.971 235.481 270.433 182.452C244.9 152.07 208.058 136.867 171.262 137.764L217.841 98.7043V98.7492Z" fill="url(#paint1_linear_1053_7321)"/>
<path d="M308.441 482.978C234.265 497.867 161.232 475.489 108.774 428.783C111.826 427.46 114.765 425.734 117.458 423.447C122.932 418.85 126.657 412.864 128.474 406.473C139.939 413.065 152.1 418.671 164.889 423.066C274.068 460.578 392.894 402.46 430.319 293.397C467.856 184.29 409.7 65.5411 300.566 28.1406C395.609 43.769 470.997 116.53 489.755 210.726C514.929 335.955 433.752 457.798 308.441 482.956V482.978Z" fill="url(#paint2_linear_1053_7321)"/>
</g>
<path d="M474.43 508.516H456.346V490.421C456.346 487.932 454.327 485.914 451.836 485.914C449.346 485.914 447.326 487.954 447.326 490.421V508.516H429.242C426.752 508.516 424.732 510.556 424.732 513.023C424.732 515.489 426.752 517.53 429.242 517.53H447.326V535.624C447.326 538.113 449.346 540.131 451.836 540.131C454.327 540.131 456.346 538.091 456.346 535.624V517.53H474.43C476.921 517.53 478.94 515.489 478.94 513.023C478.94 510.556 476.921 508.516 474.43 508.516Z" fill="#00DBFF"/>
<path d="M515.49 488.313H497.406V470.218C497.406 467.729 495.386 465.711 492.896 465.711C490.405 465.711 488.386 467.751 488.386 470.218V488.313H470.302C467.811 488.313 465.792 490.353 465.792 492.82C465.792 495.286 467.811 497.326 470.302 497.326H488.386V515.421C488.386 517.91 490.405 519.928 492.896 519.928C495.386 519.928 497.406 517.888 497.406 515.421V497.326H515.49C517.98 497.326 520 495.286 520 492.82C520 490.353 517.98 488.313 515.49 488.313Z" fill="#00FF78"/>
<path d="M37.5371 578.028C39.3096 580.293 40.1847 582.894 40.1847 585.809C40.1847 590.024 38.7038 593.343 35.7646 595.809C32.8253 598.276 28.7194 599.509 23.4467 599.509H0V549.148H22.6838C27.7994 549.148 31.8157 550.314 34.71 552.669C37.6044 555.023 39.0628 558.185 39.0628 562.198C39.0628 565.158 38.2775 567.624 36.7294 569.598C35.1812 571.571 33.117 572.916 30.5143 573.679C33.4311 574.306 35.787 575.741 37.5371 578.028ZM12.273 569.53H20.3055C22.3248 569.53 23.873 569.082 24.9275 568.207C26.0045 567.333 26.543 566.032 26.543 564.306C26.543 562.579 26.0045 561.257 24.9275 560.36C23.8505 559.44 22.3024 558.992 20.3055 558.992H12.273V569.53ZM26.0942 588.208C27.2161 587.266 27.777 585.921 27.777 584.15C27.777 582.378 27.1936 580.988 26.0269 580.002C24.8602 579.015 23.2447 578.499 21.1805 578.499H12.273V589.621H21.3152C23.3794 589.621 24.9724 589.15 26.0942 588.231V588.208Z" fill="white"/>
<path d="M78.1702 599.509L67.9165 584.082L58.8744 599.509H44.941L61.0957 573.903L44.582 549.148H58.8744L68.9935 564.351L77.901 549.148H91.8119L75.8143 574.531L92.4626 599.487H78.1702V599.509Z" fill="white"/>
<path d="M129.484 569.238V579.418H97.8926V569.238H129.484Z" fill="white"/>
<path d="M197.311 549.148V599.509H185.038V569.306L173.775 599.509H163.88L152.527 569.239V599.509H140.254V549.148H154.748L168.884 584.015L182.884 549.148H197.311Z" fill="white"/>
<path d="M216.943 596.705C212.994 594.508 209.853 591.436 207.542 587.489C205.231 583.543 204.064 579.104 204.064 574.171C204.064 569.238 205.231 564.82 207.542 560.897C209.876 556.973 212.994 553.923 216.943 551.726C220.892 549.528 225.223 548.43 229.979 548.43C234.736 548.43 239.066 549.528 243.015 551.726C246.964 553.923 250.06 556.995 252.349 560.897C254.637 564.798 255.759 569.238 255.759 574.171C255.759 579.104 254.615 583.543 252.304 587.489C249.993 591.436 246.897 594.508 242.97 596.705C239.044 598.902 234.713 600.001 229.979 600.001C225.245 600.001 220.892 598.902 216.943 596.705ZM239.605 584.799C242.028 582.131 243.239 578.588 243.239 574.171C243.239 569.753 242.028 566.166 239.605 563.52C237.181 560.874 233.973 559.529 229.957 559.529C225.941 559.529 222.642 560.852 220.242 563.475C217.818 566.099 216.629 569.664 216.629 574.171C216.629 578.677 217.841 582.175 220.242 584.821C222.665 587.467 225.896 588.812 229.957 588.812C234.018 588.812 237.204 587.467 239.605 584.799Z" fill="white"/>
<path d="M307.611 599.509H295.338L274.808 568.454V599.509H262.535V549.148H274.808L295.338 580.338V549.148H307.611V599.509Z" fill="white"/>
<path d="M349.972 565.068C349.052 563.387 347.751 562.109 346.068 561.234C344.363 560.36 342.366 559.911 340.077 559.911C336.106 559.911 332.92 561.212 330.541 563.813C328.141 566.414 326.952 569.889 326.952 574.239C326.952 578.88 328.208 582.49 330.721 585.091C333.234 587.692 336.689 588.993 341.087 588.993C344.093 588.993 346.651 588.231 348.738 586.706C350.824 585.181 352.328 582.984 353.293 580.114H337.721V571.077H364.421V582.49C363.501 585.54 361.976 588.388 359.799 591.033C357.623 593.657 354.863 595.787 351.52 597.424C348.177 599.038 344.385 599.868 340.189 599.868C335.208 599.868 330.766 598.792 326.862 596.594C322.958 594.419 319.929 591.392 317.752 587.513C315.576 583.634 314.477 579.217 314.477 574.239C314.477 569.261 315.554 564.822 317.752 560.92C319.929 557.019 322.958 553.992 326.839 551.817C330.721 549.642 335.141 548.543 340.122 548.543C346.158 548.543 351.228 550 355.379 552.915C359.508 555.83 362.245 559.866 363.591 565.046H350.039L349.972 565.068Z" fill="white"/>
<path d="M382.013 596.705C378.064 594.508 374.923 591.436 372.612 587.489C370.301 583.543 369.134 579.104 369.134 574.171C369.134 569.238 370.301 564.82 372.612 560.897C374.945 556.973 378.064 553.923 382.013 551.726C385.962 549.528 390.292 548.43 395.049 548.43C399.805 548.43 404.136 549.528 408.084 551.726C412.033 553.923 415.13 556.995 417.418 560.897C419.707 564.798 420.829 569.238 420.829 574.171C420.829 579.104 419.684 583.543 417.373 587.489C415.062 591.436 411.966 594.508 408.04 596.705C404.113 598.902 399.783 600.001 395.049 600.001C390.314 600.001 385.962 598.902 382.013 596.705ZM404.696 584.799C407.12 582.131 408.331 578.588 408.331 574.171C408.331 569.753 407.12 566.166 404.696 563.52C402.273 560.874 399.065 559.529 395.049 559.529C391.032 559.529 387.734 560.852 385.333 563.475C382.91 566.099 381.721 569.664 381.721 574.171C381.721 578.677 382.933 582.175 385.333 584.821C387.757 587.467 390.987 588.812 395.049 588.812C399.11 588.812 402.296 587.467 404.696 584.799Z" fill="white"/>
<path d="M460.43 552.309C464.401 554.417 467.475 557.376 469.651 561.166C471.828 564.955 472.927 569.35 472.927 574.328C472.927 579.306 471.828 583.633 469.651 587.445C467.475 591.279 464.379 594.239 460.385 596.324C456.391 598.432 451.769 599.486 446.496 599.486H427.627V549.125H446.496C451.814 549.125 456.436 550.179 460.407 552.287L460.43 552.309ZM456.548 585.09C459.129 582.557 460.43 578.969 460.43 574.328C460.43 569.686 459.129 566.076 456.548 563.498C453.968 560.919 450.356 559.619 445.711 559.619H439.9V588.88H445.711C450.356 588.88 453.968 587.624 456.548 585.09Z" fill="white"/>
<path d="M517.353 578.028C519.125 580.293 520 582.894 520 585.809C520 590.024 518.519 593.343 515.58 595.809C512.641 598.276 508.535 599.509 503.262 599.509H479.793V549.148H502.477C507.592 549.148 511.609 550.314 514.503 552.669C517.397 555.023 518.856 558.185 518.856 562.198C518.856 565.158 518.071 567.624 516.522 569.598C514.974 571.571 512.91 572.916 510.307 573.679C513.224 574.306 515.58 575.741 517.33 578.028H517.353ZM492.088 569.53H500.121C502.14 569.53 503.688 569.082 504.743 568.207C505.82 567.333 506.358 566.032 506.358 564.306C506.358 562.579 505.82 561.257 504.743 560.36C503.666 559.44 502.118 558.992 500.121 558.992H492.088V569.53ZM505.91 588.208C507.031 587.266 507.592 585.921 507.592 584.15C507.592 582.378 507.009 580.988 505.842 580.002C504.676 579.015 503.06 578.499 500.996 578.499H492.088V589.621H501.131C503.195 589.621 504.788 589.15 505.91 588.231V588.208Z" fill="white"/>
<path d="M287.395 135.879C274.157 120.251 262.759 104.376 260.426 101.08C260.179 100.833 259.82 100.833 259.573 101.08C257.24 104.376 245.842 120.251 232.604 135.879C118.938 280.1 250.509 377.435 250.509 377.435L251.608 378.175C252.595 393.198 255.041 414.813 255.041 414.813H264.846C264.846 414.813 267.292 393.31 268.279 378.175L269.378 377.323C269.49 377.323 401.061 280.122 287.395 135.879ZM259.932 375.238C259.932 375.238 254.054 370.238 252.461 367.659V367.412L259.573 210.366C259.573 209.873 260.314 209.873 260.314 210.366L267.426 367.412V367.659C265.833 370.215 259.955 375.238 259.955 375.238H259.932Z" fill="white"/>
</g>
<defs>
<linearGradient id="paint0_linear_1053_7321" x1="1.97461" y1="257.857" x2="518.026" y2="257.857" gradientUnits="userSpaceOnUse">
<stop stop-color="#003A44"/>
<stop offset="0.67" stop-color="#19857C"/>
<stop offset="1" stop-color="#01634E"/>
</linearGradient>
<linearGradient id="paint1_linear_1053_7321" x1="171.262" y1="226.019" x2="394.712" y2="226.019" gradientUnits="userSpaceOnUse">
<stop stop-color="#003A44" stop-opacity="0"/>
<stop offset="0.47" stop-color="#00FF78"/>
</linearGradient>
<linearGradient id="paint2_linear_1053_7321" x1="108.774" y1="257.858" x2="494.332" y2="257.858" gradientUnits="userSpaceOnUse">
<stop stop-color="#003A44" stop-opacity="0"/>
<stop offset="0.47" stop-color="#00FF78"/>
</linearGradient>
<clipPath id="clip0_1053_7321">
<rect width="520" height="600" fill="white"/>
</clipPath>
</defs>
</svg>
