<svg width="520" height="600" viewBox="0 0 520 600" fill="none" xmlns="http://www.w3.org/2000/svg">
<g clip-path="url(#clip0_1053_7387)">
<path d="M260 13.4534C325.045 13.4534 386.388 38.9476 432.72 85.2498C479.053 131.552 504.563 192.855 504.563 257.857C504.563 322.86 479.053 384.162 432.72 430.465C386.388 476.767 325.045 502.261 260 502.261C194.955 502.261 133.613 476.767 87.2801 430.465C40.9477 384.162 15.4368 322.86 15.4368 257.857C15.4368 192.855 40.9477 131.552 87.2801 85.2498C133.613 38.9476 194.955 13.4534 260 13.4534ZM260 0C118.086 0 1.97461 116.036 1.97461 257.857C1.97461 399.679 118.086 515.714 260 515.714C401.914 515.714 518.026 399.679 518.026 257.857C518.026 116.036 401.914 0 260 0Z" fill="white"/>
<g opacity="0.2">
<path d="M217.841 98.7492L259.013 64.2188H259.125C260.583 64.443 262.019 64.6896 263.478 64.9587C351.88 82.5602 409.139 168.55 391.503 256.76C374.047 344.252 289.55 401.182 202.202 385.15C221.049 380.867 239.156 372.212 254.997 358.983C308.015 314.52 314.971 235.481 270.433 182.452C244.9 152.07 208.058 136.867 171.262 137.764L217.841 98.7043V98.7492Z" fill="url(#paint0_linear_1053_7387)"/>
<path d="M308.441 482.978C234.265 497.867 161.232 475.489 108.774 428.783C111.826 427.46 114.765 425.734 117.458 423.447C122.932 418.85 126.657 412.864 128.474 406.473C139.939 413.065 152.1 418.671 164.889 423.066C274.068 460.578 392.894 402.46 430.319 293.397C467.856 184.29 409.7 65.5411 300.566 28.1406C395.609 43.769 470.997 116.53 489.755 210.726C514.929 335.955 433.752 457.798 308.441 482.956V482.978Z" fill="url(#paint1_linear_1053_7387)"/>
</g>
<path d="M474.43 508.516H456.346V490.421C456.346 487.932 454.327 485.914 451.836 485.914C449.346 485.914 447.326 487.954 447.326 490.421V508.516H429.242C426.752 508.516 424.732 510.556 424.732 513.023C424.732 515.489 426.752 517.53 429.242 517.53H447.326V535.624C447.326 538.113 449.346 540.131 451.836 540.131C454.327 540.131 456.346 538.091 456.346 535.624V517.53H474.43C476.921 517.53 478.94 515.489 478.94 513.023C478.94 510.556 476.921 508.516 474.43 508.516Z" fill="white"/>
<path d="M515.49 488.313H497.406V470.218C497.406 467.729 495.386 465.711 492.896 465.711C490.405 465.711 488.386 467.751 488.386 470.218V488.313H470.302C467.811 488.313 465.792 490.353 465.792 492.82C465.792 495.286 467.811 497.326 470.302 497.326H488.386V515.421C488.386 517.91 490.405 519.928 492.896 519.928C495.386 519.928 497.406 517.888 497.406 515.421V497.326H515.49C517.98 497.326 520 495.286 520 492.82C520 490.353 517.98 488.313 515.49 488.313Z" fill="white"/>
<path d="M37.5371 578.025C39.3096 580.289 40.1847 582.89 40.1847 585.805C40.1847 590.021 38.7038 593.339 35.7646 595.805C32.8253 598.272 28.7194 599.505 23.4467 599.505H0V549.145H22.6838C27.7994 549.145 31.8157 550.31 34.71 552.665C37.6044 555.019 39.0628 558.181 39.0628 562.194C39.0628 565.154 38.2775 567.621 36.7294 569.594C35.1812 571.567 33.117 572.912 30.5143 573.675C33.4311 574.302 35.787 575.737 37.5371 578.025ZM12.273 569.526H20.3055C22.3248 569.526 23.873 569.078 24.9275 568.204C26.0045 567.329 26.543 566.029 26.543 564.302C26.543 562.576 26.0045 561.253 24.9275 560.356C23.8505 559.436 22.3024 558.988 20.3055 558.988H12.273V569.526ZM26.0942 588.204C27.2161 587.263 27.777 585.917 27.777 584.146C27.777 582.374 27.1936 580.984 26.0269 579.998C24.8602 579.011 23.2447 578.495 21.1805 578.495H12.273V589.617H21.3152C23.3794 589.617 24.9724 589.146 26.0942 588.227V588.204Z" fill="white"/>
<path d="M78.1702 599.505L67.9165 584.079L58.8744 599.505H44.941L61.0957 573.899L44.582 549.145H58.8744L68.9935 564.347L77.901 549.145H91.8119L75.8143 574.527L92.4626 599.483H78.1702V599.505Z" fill="white"/>
<path d="M129.484 569.234V579.414H97.8926V569.234H129.484Z" fill="white"/>
<path d="M197.311 549.145V599.505H185.038V569.302L173.775 599.505H163.88L152.527 569.235V599.505H140.254V549.145H154.748L168.884 584.011L182.884 549.145H197.311Z" fill="white"/>
<path d="M216.943 596.701C212.994 594.504 209.853 591.432 207.542 587.486C205.231 583.539 204.064 579.1 204.064 574.167C204.064 569.234 205.231 564.817 207.542 560.893C209.876 556.969 212.994 553.919 216.943 551.722C220.892 549.524 225.223 548.426 229.979 548.426C234.736 548.426 239.066 549.524 243.015 551.722C246.964 553.919 250.06 556.991 252.349 560.893C254.637 564.794 255.759 569.234 255.759 574.167C255.759 579.1 254.615 583.539 252.304 587.486C249.993 591.432 246.897 594.504 242.97 596.701C239.044 598.899 234.713 599.997 229.979 599.997C225.245 599.997 220.892 598.899 216.943 596.701ZM239.605 584.795C242.028 582.127 243.239 578.584 243.239 574.167C243.239 569.749 242.028 566.162 239.605 563.516C237.181 560.87 233.973 559.525 229.957 559.525C225.941 559.525 222.642 560.848 220.242 563.471C217.818 566.095 216.629 569.66 216.629 574.167C216.629 578.674 217.841 582.171 220.242 584.817C222.665 587.463 225.896 588.808 229.957 588.808C234.018 588.808 237.204 587.463 239.605 584.795Z" fill="white"/>
<path d="M307.611 599.505H295.338L274.808 568.45V599.505H262.535V549.145H274.808L295.338 580.334V549.145H307.611V599.505Z" fill="white"/>
<path d="M349.972 565.064C349.052 563.383 347.751 562.105 346.068 561.23C344.363 560.356 342.366 559.907 340.077 559.907C336.106 559.907 332.92 561.208 330.541 563.809C328.141 566.41 326.952 569.885 326.952 574.235C326.952 578.877 328.208 582.487 330.721 585.088C333.234 587.689 336.689 588.989 341.087 588.989C344.093 588.989 346.651 588.227 348.738 586.702C350.824 585.177 352.328 582.98 353.293 580.11H337.721V571.074H364.421V582.487C363.501 585.536 361.976 588.384 359.799 591.029C357.623 593.653 354.863 595.783 351.52 597.42C348.177 599.034 344.385 599.864 340.189 599.864C335.208 599.864 330.766 598.788 326.862 596.59C322.958 594.415 319.929 591.388 317.752 587.509C315.576 583.63 314.477 579.213 314.477 574.235C314.477 569.257 315.554 564.818 317.752 560.916C319.929 557.015 322.958 553.988 326.839 551.813C330.721 549.638 335.141 548.539 340.122 548.539C346.158 548.539 351.228 549.997 355.379 552.911C359.508 555.826 362.245 559.862 363.591 565.042H350.039L349.972 565.064Z" fill="white"/>
<path d="M382.013 596.701C378.064 594.504 374.923 591.432 372.612 587.486C370.301 583.539 369.134 579.1 369.134 574.167C369.134 569.234 370.301 564.817 372.612 560.893C374.945 556.969 378.064 553.919 382.013 551.722C385.962 549.524 390.292 548.426 395.049 548.426C399.805 548.426 404.136 549.524 408.084 551.722C412.033 553.919 415.13 556.991 417.418 560.893C419.707 564.794 420.829 569.234 420.829 574.167C420.829 579.1 419.684 583.539 417.373 587.486C415.062 591.432 411.966 594.504 408.04 596.701C404.113 598.899 399.783 599.997 395.049 599.997C390.314 599.997 385.962 598.899 382.013 596.701ZM404.696 584.795C407.12 582.127 408.331 578.584 408.331 574.167C408.331 569.749 407.12 566.162 404.696 563.516C402.273 560.87 399.065 559.525 395.049 559.525C391.032 559.525 387.734 560.848 385.333 563.471C382.91 566.095 381.721 569.66 381.721 574.167C381.721 578.674 382.933 582.171 385.333 584.817C387.757 587.463 390.987 588.808 395.049 588.808C399.11 588.808 402.296 587.463 404.696 584.795Z" fill="white"/>
<path d="M460.43 552.305C464.401 554.413 467.475 557.373 469.651 561.162C471.828 564.951 472.927 569.346 472.927 574.324C472.927 579.302 471.828 583.629 469.651 587.441C467.475 591.275 464.379 594.235 460.385 596.32C456.391 598.428 451.769 599.482 446.496 599.482H427.627V549.121H446.496C451.814 549.121 456.436 550.175 460.407 552.283L460.43 552.305ZM456.548 585.087C459.129 582.553 460.43 578.965 460.43 574.324C460.43 569.682 459.129 566.072 456.548 563.494C453.968 560.915 450.356 559.615 445.711 559.615H439.9V588.876H445.711C450.356 588.876 453.968 587.62 456.548 585.087Z" fill="white"/>
<path d="M517.353 578.025C519.125 580.289 520 582.89 520 585.805C520 590.021 518.519 593.339 515.58 595.805C512.641 598.272 508.535 599.505 503.262 599.505H479.793V549.145H502.477C507.592 549.145 511.609 550.31 514.503 552.665C517.397 555.019 518.856 558.181 518.856 562.194C518.856 565.154 518.071 567.621 516.522 569.594C514.974 571.567 512.91 572.912 510.307 573.675C513.224 574.302 515.58 575.737 517.33 578.025H517.353ZM492.088 569.526H500.121C502.14 569.526 503.688 569.078 504.743 568.204C505.82 567.329 506.358 566.029 506.358 564.302C506.358 562.576 505.82 561.253 504.743 560.356C503.666 559.436 502.118 558.988 500.121 558.988H492.088V569.526ZM505.91 588.204C507.031 587.263 507.592 585.917 507.592 584.146C507.592 582.374 507.009 580.984 505.842 579.998C504.676 579.011 503.06 578.495 500.996 578.495H492.088V589.617H501.131C503.195 589.617 504.788 589.146 505.91 588.227V588.204Z" fill="white"/>
<path d="M287.395 135.879C274.157 120.251 262.759 104.376 260.426 101.08C260.179 100.833 259.82 100.833 259.573 101.08C257.24 104.376 245.842 120.251 232.604 135.879C118.938 280.1 250.509 377.435 250.509 377.435L251.608 378.175C252.595 393.198 255.041 414.813 255.041 414.813H264.846C264.846 414.813 267.292 393.31 268.279 378.175L269.378 377.323C269.49 377.323 401.061 280.122 287.395 135.879ZM259.932 375.238C259.932 375.238 254.054 370.238 252.461 367.659V367.412L259.573 210.366C259.573 209.873 260.314 209.873 260.314 210.366L267.426 367.412V367.659C265.833 370.215 259.955 375.238 259.955 375.238H259.932Z" fill="white"/>
</g>
<defs>
<linearGradient id="paint0_linear_1053_7387" x1="171.262" y1="226.019" x2="394.712" y2="226.019" gradientUnits="userSpaceOnUse">
<stop stop-color="white" stop-opacity="0"/>
<stop offset="0.52" stop-color="white"/>
</linearGradient>
<linearGradient id="paint1_linear_1053_7387" x1="108.774" y1="257.858" x2="494.332" y2="257.858" gradientUnits="userSpaceOnUse">
<stop stop-color="white" stop-opacity="0"/>
<stop offset="0.52" stop-color="white"/>
</linearGradient>
<clipPath id="clip0_1053_7387">
<rect width="520" height="600" fill="white"/>
</clipPath>
</defs>
</svg>
