<svg width="317" height="366" viewBox="0 0 317 366" fill="none" xmlns="http://www.w3.org/2000/svg">
<g clip-path="url(#clip0_1053_7409)">
<path d="M158.5 8.20658C198.153 8.20658 235.548 23.7581 263.793 52.0024C292.038 80.2467 307.59 117.641 307.59 157.293C307.59 196.944 292.038 234.339 263.793 262.583C235.548 290.828 198.153 306.379 158.5 306.379C118.848 306.379 81.4526 290.828 53.2076 262.583C24.9627 234.339 9.41087 196.944 9.41087 157.293C9.41087 117.641 24.9627 80.2467 53.2076 52.0024C81.4526 23.7581 118.848 8.20658 158.5 8.20658ZM158.5 0C71.9875 0 1.2041 70.7818 1.2041 157.293C1.2041 243.804 71.9875 314.586 158.5 314.586C245.013 314.586 315.797 243.804 315.797 157.293C315.797 70.7818 245.013 0 158.5 0Z" fill="white"/>
<g opacity="0.2">
<path d="M132.8 60.2354L157.899 39.1719H157.967C158.856 39.3087 159.732 39.4591 160.621 39.6232C214.512 50.3602 249.418 102.814 238.667 156.622C228.026 209.992 176.514 244.719 123.266 234.94C134.756 232.328 145.794 227.048 155.45 218.978C187.771 191.855 192.012 143.642 164.861 111.294C149.295 92.7609 126.836 83.4874 104.404 84.0345L132.8 60.2081V60.2354Z" fill="url(#paint0_linear_1053_7409)"/>
<path d="M188.032 294.615C142.812 303.697 98.2906 290.047 66.3115 261.556C68.1717 260.749 69.9635 259.696 71.6049 258.301C74.9423 255.497 77.2128 251.845 78.3208 247.947C85.3102 251.968 92.7236 255.388 100.52 258.068C167.077 280.951 239.515 245.499 262.33 178.971C285.213 112.415 249.76 39.9784 183.231 17.1641C241.17 26.6974 287.128 71.0813 298.563 128.541C313.91 204.931 264.423 279.255 188.032 294.601V294.615Z" fill="url(#paint1_linear_1053_7409)"/>
</g>
<path d="M289.22 310.197H278.196V299.159C278.196 297.641 276.965 296.41 275.447 296.41C273.929 296.41 272.698 297.655 272.698 299.159V310.197H261.673C260.155 310.197 258.924 311.442 258.924 312.946C258.924 314.451 260.155 315.696 261.673 315.696H272.698V326.733C272.698 328.252 273.929 329.483 275.447 329.483C276.965 329.483 278.196 328.238 278.196 326.733V315.696H289.22C290.739 315.696 291.97 314.451 291.97 312.946C291.97 311.442 290.739 310.197 289.22 310.197Z" fill="white"/>
<path d="M314.251 297.873H303.226V286.835C303.226 285.317 301.995 284.086 300.477 284.086C298.959 284.086 297.728 285.331 297.728 286.835V297.873H286.703C285.185 297.873 283.954 299.118 283.954 300.622C283.954 302.127 285.185 303.371 286.703 303.371H297.728V314.409C297.728 315.927 298.959 317.158 300.477 317.158C301.995 317.158 303.226 315.914 303.226 314.409V303.371H314.251C315.769 303.371 317 302.127 317 300.622C317 299.118 315.769 297.873 314.251 297.873Z" fill="white"/>
<path d="M22.8832 352.597C23.9638 353.979 24.4972 355.565 24.4972 357.343C24.4972 359.915 23.5945 361.939 21.8026 363.444C20.0108 364.948 17.5078 365.7 14.2934 365.7H0V334.98H13.8284C16.947 334.98 19.3953 335.692 21.1598 337.128C22.9242 338.564 23.8133 340.493 23.8133 342.941C23.8133 344.746 23.3346 346.251 22.3908 347.454C21.447 348.658 20.1886 349.479 18.602 349.944C20.3801 350.327 21.8163 351.202 22.8832 352.597ZM7.48183 347.413H12.3785C13.6096 347.413 14.5533 347.14 15.1962 346.606C15.8527 346.073 16.181 345.28 16.181 344.227C16.181 343.173 15.8527 342.366 15.1962 341.819C14.5397 341.259 13.5959 340.985 12.3785 340.985H7.48183V347.413ZM15.9074 358.807C16.5913 358.232 16.9333 357.412 16.9333 356.331C16.9333 355.251 16.5777 354.403 15.8664 353.801C15.1552 353.199 14.1703 352.884 12.912 352.884H7.48183V359.669H12.994C14.2524 359.669 15.2236 359.381 15.9074 358.821V358.807Z" fill="white"/>
<path d="M47.6536 365.7L41.4028 356.29L35.8906 365.7H27.3966L37.2447 350.081L27.1777 334.98H35.8906L42.0593 344.254L47.4895 334.98H55.9698L46.2174 350.464L56.3665 365.687H47.6536V365.7Z" fill="white"/>
<path d="M78.9353 347.234V353.444H59.6768V347.234H78.9353Z" fill="white"/>
<path d="M120.284 334.98V365.7H112.802V347.277L105.936 365.7H99.9039L92.9828 347.236V365.7H85.501V334.98H94.3369L102.954 356.249L111.489 334.98H120.284Z" fill="white"/>
<path d="M132.253 363.991C129.845 362.651 127.93 360.777 126.521 358.369C125.113 355.962 124.401 353.254 124.401 350.245C124.401 347.236 125.113 344.541 126.521 342.148C127.944 339.754 129.845 337.894 132.253 336.554C134.66 335.213 137.3 334.543 140.199 334.543C143.099 334.543 145.739 335.213 148.146 336.554C150.554 337.894 152.441 339.768 153.836 342.148C155.231 344.528 155.915 347.236 155.915 350.245C155.915 353.254 155.218 355.962 153.809 358.369C152.4 360.777 150.513 362.651 148.119 363.991C145.725 365.331 143.085 366.002 140.199 366.002C137.313 366.002 134.66 365.331 132.253 363.991ZM146.067 356.728C147.544 355.1 148.283 352.939 148.283 350.245C148.283 347.55 147.544 345.362 146.067 343.748C144.59 342.134 142.634 341.313 140.186 341.313C137.737 341.313 135.727 342.12 134.263 343.721C132.786 345.321 132.061 347.496 132.061 350.245C132.061 352.994 132.8 355.128 134.263 356.742C135.74 358.356 137.71 359.176 140.186 359.176C142.661 359.176 144.604 358.356 146.067 356.728Z" fill="white"/>
<path d="M187.525 365.7H180.043L167.528 346.757V365.7H160.046V334.98H167.528L180.043 354.006V334.98H187.525V365.7Z" fill="white"/>
<path d="M213.348 344.694C212.788 343.668 211.994 342.888 210.969 342.355C209.929 341.821 208.712 341.548 207.316 341.548C204.896 341.548 202.953 342.341 201.503 343.928C200.04 345.514 199.315 347.634 199.315 350.288C199.315 353.119 200.081 355.321 201.613 356.908C203.145 358.494 205.251 359.288 207.932 359.288C209.765 359.288 211.324 358.823 212.596 357.893C213.868 356.963 214.785 355.622 215.373 353.871H205.88V348.359H222.157V355.321C221.596 357.181 220.666 358.918 219.339 360.532C218.013 362.133 216.33 363.432 214.292 364.431C212.254 365.415 209.943 365.921 207.385 365.921C204.348 365.921 201.64 365.265 199.26 363.924C196.88 362.598 195.034 360.751 193.707 358.385C192.38 356.019 191.71 353.324 191.71 350.288C191.71 347.251 192.366 344.543 193.707 342.163C195.034 339.783 196.88 337.937 199.246 336.61C201.613 335.283 204.307 334.613 207.344 334.613C211.023 334.613 214.114 335.502 216.645 337.28C219.162 339.059 220.83 341.52 221.651 344.68H213.389L213.348 344.694Z" fill="white"/>
<path d="M232.88 363.991C230.473 362.651 228.558 360.777 227.149 358.369C225.741 355.962 225.029 353.254 225.029 350.245C225.029 347.236 225.741 344.541 227.149 342.148C228.572 339.754 230.473 337.894 232.88 336.554C235.288 335.213 237.928 334.543 240.827 334.543C243.727 334.543 246.367 335.213 248.774 336.554C251.182 337.894 253.069 339.768 254.464 342.148C255.859 344.528 256.543 347.236 256.543 350.245C256.543 353.254 255.846 355.962 254.437 358.369C253.028 360.777 251.14 362.651 248.747 363.991C246.353 365.331 243.713 366.002 240.827 366.002C237.941 366.002 235.288 365.331 232.88 363.991ZM246.709 356.728C248.186 355.1 248.925 352.939 248.925 350.245C248.925 347.55 248.186 345.362 246.709 343.748C245.232 342.134 243.276 341.313 240.827 341.313C238.379 341.313 236.368 342.12 234.905 343.721C233.428 345.321 232.703 347.496 232.703 350.245C232.703 352.994 233.441 355.128 234.905 356.742C236.382 358.356 238.352 359.176 240.827 359.176C243.303 359.176 245.245 358.356 246.709 356.728Z" fill="white"/>
<path d="M280.685 336.911C283.106 338.197 284.98 340.002 286.306 342.314C287.633 344.625 288.303 347.306 288.303 350.342C288.303 353.379 287.633 356.019 286.306 358.344C284.98 360.683 283.092 362.488 280.657 363.76C278.223 365.046 275.405 365.689 272.191 365.689H260.688V334.969H272.191C275.432 334.969 278.25 335.612 280.671 336.897L280.685 336.911ZM278.318 356.908C279.891 355.362 280.685 353.174 280.685 350.342C280.685 347.511 279.891 345.309 278.318 343.736C276.745 342.163 274.543 341.37 271.712 341.37H268.169V359.219H271.712C274.543 359.219 276.745 358.453 278.318 356.908Z" fill="white"/>
<path d="M315.386 352.597C316.467 353.979 317 355.565 317 357.343C317 359.915 316.097 361.939 314.306 363.444C312.514 364.948 310.011 365.7 306.796 365.7H292.489V334.98H306.318C309.436 334.98 311.885 335.692 313.649 337.128C315.413 338.564 316.303 340.493 316.303 342.941C316.303 344.746 315.824 346.251 314.88 347.454C313.936 348.658 312.678 349.479 311.091 349.944C312.869 350.327 314.306 351.202 315.372 352.597H315.386ZM299.985 347.413H304.881C306.112 347.413 307.056 347.14 307.699 346.606C308.356 346.073 308.684 345.28 308.684 344.227C308.684 343.173 308.356 342.366 307.699 341.819C307.043 341.259 306.099 340.985 304.881 340.985H299.985V347.413ZM308.41 358.807C309.094 358.232 309.436 357.412 309.436 356.331C309.436 355.251 309.081 354.403 308.369 353.801C307.658 353.199 306.673 352.884 305.415 352.884H299.985V359.669H305.497C306.755 359.669 307.726 359.381 308.41 358.821V358.807Z" fill="white"/>
<path d="M175.201 82.8874C167.131 73.3541 160.183 63.6703 158.76 61.6597C158.61 61.5093 158.391 61.5093 158.241 61.6597C156.818 63.6703 149.87 73.3541 141.8 82.8874C72.5072 170.862 152.715 230.237 152.715 230.237L153.385 230.688C153.987 239.852 155.478 253.037 155.478 253.037H161.455C161.455 253.037 162.946 239.92 163.548 230.688L164.218 230.168C164.286 230.168 244.494 170.876 175.201 82.8874ZM158.459 228.896C158.459 228.896 154.876 225.846 153.905 224.273V224.123L158.241 128.325C158.241 128.024 158.692 128.024 158.692 128.325L163.028 224.123V224.273C162.057 225.832 158.473 228.896 158.473 228.896H158.459Z" fill="white"/>
</g>
<defs>
<linearGradient id="paint0_linear_1053_7409" x1="104.404" y1="137.87" x2="240.623" y2="137.87" gradientUnits="userSpaceOnUse">
<stop stop-color="white" stop-opacity="0"/>
<stop offset="0.52" stop-color="white"/>
</linearGradient>
<linearGradient id="paint1_linear_1053_7409" x1="66.3115" y1="157.291" x2="301.353" y2="157.291" gradientUnits="userSpaceOnUse">
<stop stop-color="white" stop-opacity="0"/>
<stop offset="0.52" stop-color="white"/>
</linearGradient>
<clipPath id="clip0_1053_7409">
<rect width="317" height="366" fill="white"/>
</clipPath>
</defs>
</svg>
