<svg width="159" height="150" viewBox="0 0 159 150" fill="none" xmlns="http://www.w3.org/2000/svg">
<path d="M32.1049 1.91016H125.937C133.545 1.91016 139.721 8.07764 139.721 15.6781V109.406C139.721 117.006 133.547 123.174 125.937 123.174H32.1049C24.4973 123.174 18.3207 117.006 18.3207 109.406V15.6781C18.3207 8.07764 24.4948 1.91016 32.1049 1.91016Z" fill="#343433"/>
<path d="M126.218 3.61795C132.805 3.61795 138.19 8.99804 138.19 15.5757V109.303C138.19 115.883 132.805 121.261 126.218 121.261H32.3885C25.8024 121.261 20.4171 115.881 20.4171 109.303V15.5782C20.4171 8.99804 25.8024 3.62048 32.3885 3.62048H126.221L126.218 3.61795ZM126.218 0H32.3885C23.7924 0 16.7941 6.99032 16.7941 15.5782V109.306C16.7941 117.894 23.7924 124.884 32.3885 124.884H126.221C134.817 124.884 141.815 117.894 141.815 109.306V15.5782C141.815 6.99285 134.817 0 126.221 0H126.218Z" fill="white"/>
<path fill-rule="evenodd" clip-rule="evenodd" d="M110.75 50.2306C109.349 39.3565 100.129 30.918 88.8474 30.918C79.6748 30.918 71.7865 36.4955 68.4264 44.4555C66.8614 43.9466 65.2155 43.5998 63.4861 43.5998C55.8128 43.5998 49.4061 49.0609 47.9574 56.2993C47.8588 56.2993 47.7425 56.2664 47.6287 56.2664C37.1388 56.2841 28.6261 64.7708 28.6261 75.2499C28.6438 85.7291 37.1388 94.2486 47.6287 94.2486H107.901C120.153 94.2486 130.066 84.329 130.066 72.0902C130.066 60.8389 121.634 51.6281 110.75 50.2281V50.2306Z" fill="url(#paint0_linear_751_3374)"/>
<path d="M83.8866 88.5399C73.1338 88.5602 64.3784 79.8584 64.3581 69.0931C64.3379 58.3279 73.0276 49.5602 83.7804 49.54C89.0089 49.5197 94.0225 51.6262 97.6987 55.3479C90.4324 45.3473 76.4484 43.1345 66.4389 50.4109C56.4294 57.6873 54.2425 71.6882 61.5088 81.7091C68.7776 91.73 82.759 93.9225 92.7685 86.6461C93.2565 86.2841 93.7469 85.9018 94.1919 85.5195C91.1327 87.5196 87.54 88.5627 83.8866 88.5399Z" fill="white"/>
<path d="M90.5158 52.6666C98.0603 57.0719 100.589 66.751 96.2096 74.2832C91.8103 81.8355 82.1422 84.3673 74.6205 79.9848C70.3072 77.4732 67.4376 73.0476 66.8865 68.0904V69.0043C66.8865 78.7062 74.7267 86.5574 84.4176 86.5574C94.1085 86.5574 101.949 78.7062 101.949 69.0043C101.843 61.7279 97.3169 55.2389 90.5158 52.6641V52.6666Z" fill="white"/>
<path d="M82.1219 53.879C76.3625 53.8587 71.3059 57.6666 69.6903 63.1986C72.3046 57.4539 79.0829 54.9221 84.8196 57.54C90.5563 60.1579 93.0846 66.9456 90.4728 72.6903C88.6247 76.7766 84.544 79.3718 80.0816 79.3718C79.0829 79.3515 78.0842 79.2224 77.1058 78.9894C78.6986 79.6705 80.4001 80.0098 82.1421 79.9895C89.3452 79.9465 95.1249 74.0524 95.0844 66.8393C94.9985 59.7123 89.2416 53.9448 82.1219 53.8815V53.879Z" fill="white"/>
<path d="M0 128.875C0 124.733 3.35786 121.375 7.5 121.375H150.897C155.039 121.375 158.397 124.733 158.397 128.875V142.501C158.397 146.643 155.039 150.001 150.897 150.001H7.50001C3.35787 150.001 0 146.643 0 142.501V128.875Z" fill="white"/>
<path d="M21.3299 126.602V130.258H13.6949V134.209H19.4074V137.758H13.6949V145.339H9.13098V126.602H21.3299Z" fill="#343433"/>
<path d="M27.7493 144.299C26.2808 143.48 25.117 142.337 24.2517 140.869C23.3895 139.4 22.9569 137.749 22.9569 135.918C22.9569 134.087 23.3895 132.438 24.2517 130.979C25.114 129.52 26.2808 128.38 27.7493 127.564C29.2178 126.744 30.8326 126.336 32.5935 126.336C34.3545 126.336 35.9693 126.744 37.4378 127.564C38.9063 128.383 40.064 129.523 40.9079 130.979C41.7518 132.438 42.1753 134.084 42.1753 135.918C42.1753 137.752 41.7488 139.4 40.8927 140.869C40.0366 142.337 38.8819 143.48 37.4225 144.299C35.9632 145.119 34.3515 145.527 32.5905 145.527C30.8295 145.527 29.2148 145.119 27.7463 144.299H27.7493ZM36.1856 139.866C37.0843 138.87 37.5322 137.554 37.5322 135.915C37.5322 134.276 37.0813 132.938 36.1856 131.951C35.2868 130.964 34.0895 130.47 32.5935 130.47C31.0976 130.47 29.8759 130.961 28.9771 131.939C28.0784 132.917 27.6305 134.245 27.6305 135.915C27.6305 137.584 28.0784 138.891 28.9771 139.878C29.8759 140.866 31.0824 141.359 32.5935 141.359C34.1047 141.359 35.2838 140.862 36.1856 139.863V139.866Z" fill="#343433"/>
<path d="M54.2707 145.339L50.374 138.264H49.2802V145.339H44.7163V126.602H52.3787C53.8563 126.602 55.1146 126.861 56.1566 127.375C57.1985 127.893 57.9754 128.6 58.4934 129.499C59.0083 130.398 59.2672 131.4 59.2672 132.503C59.2672 133.749 58.9169 134.861 58.2131 135.839C57.5093 136.817 56.4734 137.512 55.1024 137.92L59.4257 145.342H54.2737L54.2707 145.339ZM49.2772 135.035H52.1075C52.9454 135.035 53.5699 134.831 53.9904 134.422C54.4078 134.014 54.618 133.435 54.618 132.686C54.618 131.936 54.4078 131.412 53.9904 131.004C53.573 130.596 52.9454 130.389 52.1075 130.389H49.2772V135.035Z" fill="#343433"/>
<path d="M74.5583 132.527C74.2201 131.905 73.7357 131.427 73.102 131.098C72.4713 130.769 71.7279 130.604 70.8718 130.604C69.3942 130.604 68.212 131.089 67.3224 132.06C66.4328 133.029 65.988 134.324 65.988 135.945C65.988 137.672 66.4541 139.019 67.3894 139.988C68.3248 140.957 69.6105 141.444 71.2465 141.444C72.3677 141.444 73.3152 141.161 74.0891 140.591C74.8629 140.021 75.4266 139.202 75.783 138.136H69.9913V134.772H79.9204V139.016C79.5822 140.156 79.0095 141.213 78.199 142.194C77.3886 143.172 76.3619 143.964 75.1158 144.57C73.8697 145.176 72.4652 145.478 70.8992 145.478C69.0468 145.478 67.3986 145.073 65.9484 144.262C64.4982 143.452 63.3678 142.328 62.5574 140.887C61.747 139.446 61.3418 137.8 61.3418 135.948C61.3418 134.096 61.747 132.447 62.5574 130.997C63.3678 129.547 64.4921 128.417 65.9331 127.606C67.3742 126.796 69.0194 126.391 70.8718 126.391C73.1141 126.391 75.0061 126.933 76.5447 128.018C78.0833 129.102 79.1039 130.607 79.6005 132.53H74.5552L74.5583 132.527Z" fill="#343433"/>
<path d="M87.0222 130.258V134.048H93.1338V137.573H87.0222V141.683H93.9351V145.339H82.4583V126.602H93.9351V130.258H87.0222Z" fill="#343433"/>
<path d="M110.859 137.344C111.517 138.191 111.847 139.154 111.847 140.242C111.847 141.808 111.298 143.048 110.204 143.965C109.111 144.882 107.584 145.339 105.625 145.339H96.8965V126.602H105.333C107.237 126.602 108.727 127.037 109.805 127.909C110.881 128.78 111.42 129.965 111.42 131.458C111.42 132.561 111.131 133.478 110.552 134.206C109.973 134.937 109.205 135.443 108.242 135.726C109.327 135.958 110.198 136.497 110.859 137.341V137.344ZM101.463 134.182H104.452C105.199 134.182 105.774 134.017 106.174 133.688C106.573 133.359 106.774 132.875 106.774 132.232C106.774 131.589 106.573 131.102 106.174 130.763C105.774 130.425 105.199 130.258 104.452 130.258H101.463V134.182ZM106.603 141.134C107.021 140.787 107.231 140.284 107.231 139.626C107.231 138.968 107.011 138.45 106.576 138.078C106.14 137.704 105.54 137.518 104.775 137.518H101.466V141.655H104.83C105.595 141.655 106.186 141.482 106.606 141.134H106.603Z" fill="#343433"/>
<path d="M144.515 145.339L140.698 139.599L137.334 145.339H132.155L138.16 135.809L132.021 126.602H137.334L141.097 132.262L144.406 126.602H149.585L143.632 136.052L149.826 145.342H144.512L144.515 145.339Z" fill="#343433"/>
<path d="M124.926 144.784C120.32 144.792 116.57 141.065 116.561 136.455C116.553 131.844 120.275 128.089 124.88 128.08C127.119 128.071 129.267 128.973 130.841 130.567C127.729 126.284 121.74 125.336 117.453 128.453C113.166 131.569 112.229 137.566 115.341 141.858C118.454 146.15 124.443 147.089 128.73 143.973C128.939 143.817 129.149 143.654 129.339 143.49C128.029 144.347 126.49 144.793 124.926 144.784Z" fill="#343433"/>
<path d="M127.765 129.419C130.996 131.306 132.079 135.451 130.204 138.677C128.319 141.912 124.178 142.997 120.957 141.12C119.11 140.044 117.88 138.148 117.644 136.025V136.417C117.644 140.572 121.002 143.935 125.153 143.935C129.304 143.935 132.662 140.572 132.662 136.417C132.616 133.3 130.678 130.521 127.765 129.418V129.419Z" fill="#343433"/>
<path d="M124.17 129.938C121.703 129.929 119.537 131.56 118.845 133.929C119.965 131.469 122.868 130.384 125.325 131.506C127.782 132.627 128.865 135.534 127.746 137.994C126.955 139.745 125.207 140.856 123.296 140.856C122.868 140.847 122.44 140.792 122.021 140.692C122.703 140.984 123.432 141.129 124.178 141.121C127.263 141.102 129.739 138.578 129.722 135.488C129.685 132.436 127.219 129.966 124.17 129.939V129.938Z" fill="#343433"/>
<defs>
<linearGradient id="paint0_linear_751_3374" x1="109.09" y1="45.8183" x2="76.5764" y2="107.055" gradientUnits="userSpaceOnUse">
<stop offset="0.278846" stop-color="#33CFFF"/>
<stop offset="1" stop-color="#0D87C5"/>
</linearGradient>
</defs>
</svg>
