<svg width="500" height="500" viewBox="0 0 500 500" fill="none" xmlns="http://www.w3.org/2000/svg">
<g clip-path="url(#clip0_749_3004)">
<path fill-rule="evenodd" clip-rule="evenodd" d="M404.79 189.144C397.886 135.573 352.438 94 296.832 94C251.62 94 212.739 121.478 196.177 160.693C188.463 158.186 180.35 156.477 171.826 156.477C134.004 156.477 102.425 183.382 95.2844 219.042C94.7984 219.042 94.2251 218.88 93.6643 218.88C41.9595 218.955 0 260.777 0 312.402C0.0872339 364.028 41.9595 406 93.6643 406H390.746C451.137 406 500 357.131 500 296.836C500 241.406 458.439 196.029 404.79 189.132V189.144ZM316.161 368.531C266.824 404.379 197.909 393.589 162.081 344.209C126.265 294.84 137.045 225.865 186.382 190.017C235.719 154.17 304.633 165.071 340.462 214.34C322.342 195.992 297.617 185.614 271.858 185.727C218.857 185.826 176.026 229.02 176.125 282.056C176.225 335.091 219.381 377.961 272.382 377.861C290.402 377.961 308.098 372.834 323.177 362.981C320.983 364.864 318.566 366.76 316.161 368.531ZM276.993 225.141C248.716 212.244 215.293 224.717 202.42 253.018C210.383 225.765 235.307 207.006 263.696 207.105C298.789 207.417 327.165 235.831 327.588 270.942C327.8 306.478 299.312 335.515 263.795 335.727C255.209 335.827 246.822 334.155 238.971 330.8C243.794 331.948 248.716 332.584 253.639 332.684C275.634 332.684 295.748 319.899 304.858 299.767C317.743 271.466 305.281 238.026 276.993 225.129V225.141ZM274.999 368.119C227.232 368.119 188.587 329.441 188.587 281.644V277.141C191.316 301.563 205.448 323.366 226.709 335.739C263.783 357.33 311.438 344.857 333.121 307.65C354.693 270.543 342.231 222.846 305.045 201.156C338.555 213.841 360.874 245.809 361.398 281.657C361.398 329.453 322.753 368.132 274.986 368.132L274.999 368.119Z" fill="white"/>
</g>
<defs>
<clipPath id="clip0_749_3004">
<rect width="500" height="312" fill="white" transform="translate(0 94)"/>
</clipPath>
</defs>
</svg>
