<svg width="101" height="100" viewBox="0 0 101 100" fill="none" xmlns="http://www.w3.org/2000/svg">
<path d="M12.4074 68.6989C7.80701 59.3203 6.83777 48.5895 9.67567 38.4846C12.5331 28.307 19.0385 19.6016 27.9964 13.9723C34.4292 9.92692 41.8228 7.67516 49.3729 7.45725C55.4704 7.28124 61.6546 8.44903 67.2885 10.8349C67.1321 11.606 67.0511 12.3938 67.0511 13.1816C67.0511 19.6799 72.3359 24.9684 78.8357 24.9684C85.3355 24.9684 90.6203 19.6827 90.6203 13.1816C90.6203 6.68059 85.3355 1.39483 78.8357 1.39483C75.9531 1.39483 73.1962 2.44248 71.037 4.35619C64.1881 1.30263 56.6324 -0.194813 49.1578 0.020305C40.2809 0.277329 31.594 2.923 24.0384 7.67237C13.5163 14.288 5.87132 24.5158 2.51387 36.4731C-0.818436 48.3437 0.323989 60.9518 5.72886 71.976L6.09757 72.7275L12.7734 69.4504L12.4046 68.6989H12.4074ZM78.8329 8.83177C81.2295 8.83177 83.1791 10.7818 83.1791 13.1788C83.1791 15.5759 81.2295 17.5259 78.8329 17.5259C76.4363 17.5259 74.4866 15.5759 74.4866 13.1788C74.4866 10.7818 76.4363 8.83177 78.8329 8.83177Z" fill="#303446"/>
<path d="M94.1565 25.4015L93.7431 24.6723L87.2712 28.3377L87.6846 29.0669C93.0811 38.5991 94.581 49.7182 91.9079 60.3707C89.2264 71.0568 82.6121 80.1728 73.2828 86.0397C66.4785 90.3169 58.6631 92.577 50.6773 92.577C44.1831 92.577 37.6693 91.0461 31.8147 88.1461C32.0828 87.1488 32.2197 86.1235 32.2197 85.0954C32.2197 78.5971 26.9322 73.3086 20.4351 73.3086C13.9381 73.3086 8.65056 78.5943 8.65056 85.0954C8.65056 91.5964 13.9353 96.8822 20.4351 96.8822C23.0496 96.8822 25.611 95.9966 27.6752 94.3846C34.7727 98.0583 42.7334 100 50.722 100L51.4398 99.9944C60.5569 99.8631 69.4812 97.2146 77.2408 92.3368C88.2014 85.4474 95.9721 74.7362 99.1228 62.1839C102.262 49.6679 100.5 36.6072 94.1565 25.4043V25.4015ZM20.4351 89.4397C18.0386 89.4397 16.0889 87.4896 16.0889 85.0926C16.0889 82.6955 18.0386 80.7455 20.4351 80.7455C22.8317 80.7455 24.7814 82.6955 24.7814 85.0926C24.7814 87.4896 22.8317 89.4397 20.4351 89.4397Z" fill="#303446"/>
<path d="M39.9569 59.3454C40.4457 59.9098 41.1245 60.2506 41.8703 60.3037C42.6133 60.3568 43.3367 60.1165 43.9009 59.6276L59.5429 46.0808L62.8389 49.8858C63.8473 51.0508 65.6182 51.1765 66.783 50.168C67.3472 49.6791 67.688 49.0002 67.741 48.2543L69.1293 28.9132L69.1349 28.7791C69.1656 27.3403 68.1097 26.125 66.674 25.9462L47.2165 24.5466C46.4707 24.4935 45.7501 24.7338 45.1858 25.2227C44.6216 25.7116 44.2808 26.3904 44.2277 27.1364C44.1747 27.8823 44.4149 28.6031 44.9037 29.1674L48.1997 32.9725L38.4765 41.3956C37.9123 41.8845 37.5715 42.5634 37.5184 43.3094C37.4654 44.0553 37.7056 44.7761 38.1944 45.3404C39.2028 46.5054 40.9709 46.6339 42.1384 45.6226L53.9733 35.3695C54.5375 34.8806 54.8783 34.2018 54.9314 33.4558C54.9844 32.7099 54.7442 31.9891 54.2554 31.4248L53.5487 30.6062L63.3557 31.3102L62.6518 41.1191L61.9451 40.3005C61.4563 39.7362 60.7776 39.3953 60.0318 39.3422C59.2888 39.2892 58.5653 39.5294 58.0011 40.0183L42.3591 53.5652L39.0631 49.7601C38.0547 48.5951 36.2838 48.4694 35.1191 49.4779C34.594 49.9333 34.2588 50.5619 34.175 51.2631L32.7756 70.7188C32.6666 72.2553 33.8258 73.5963 35.3621 73.7081L54.6883 75.0966C54.7554 75.1022 54.8252 75.1049 54.8922 75.1049C55.5626 75.1049 56.2051 74.8675 56.7162 74.4233L56.7302 74.4093C57.0039 74.169 57.2246 73.8841 57.3866 73.56C57.895 72.5459 57.7413 71.3362 56.9983 70.4785L53.7023 66.6734L63.4255 58.2503C63.9898 57.7614 64.3305 57.0825 64.3836 56.3366C64.4367 55.5907 64.1964 54.8699 63.7076 54.3055C62.6993 53.1405 60.9312 53.012 59.7636 54.0206L47.9288 64.2736C47.3645 64.7625 47.0238 65.4414 46.9707 66.1873C46.9176 66.9333 47.1578 67.654 47.6466 68.2184L48.3533 69.0369L38.5463 68.3329L39.2502 58.5241L39.9597 59.3427L39.9569 59.3454Z" fill="#303446"/>
</svg>
