<svg width="614" height="100" viewBox="0 0 614 100" fill="none" xmlns="http://www.w3.org/2000/svg">
<path d="M12.4074 68.6989C7.80701 59.3203 6.83777 48.5895 9.67567 38.4846C12.5331 28.307 19.0385 19.6016 27.9964 13.9723C34.4292 9.92692 41.8228 7.67516 49.3729 7.45725C55.4704 7.28124 61.6546 8.44903 67.2885 10.8349C67.1321 11.606 67.0511 12.3938 67.0511 13.1816C67.0511 19.6799 72.3359 24.9684 78.8357 24.9684C85.3355 24.9684 90.6203 19.6827 90.6203 13.1816C90.6203 6.68059 85.3355 1.39483 78.8357 1.39483C75.9531 1.39483 73.1962 2.44248 71.037 4.35619C64.1881 1.30263 56.6324 -0.194813 49.1578 0.020305C40.2809 0.277329 31.594 2.923 24.0384 7.67237C13.5163 14.288 5.87132 24.5158 2.51387 36.4731C-0.818436 48.3437 0.323989 60.9518 5.72886 71.976L6.09757 72.7275L12.7734 69.4504L12.4046 68.6989H12.4074ZM78.8329 8.83177C81.2295 8.83177 83.1791 10.7818 83.1791 13.1788C83.1791 15.5759 81.2295 17.5259 78.8329 17.5259C76.4363 17.5259 74.4866 15.5759 74.4866 13.1788C74.4866 10.7818 76.4363 8.83177 78.8329 8.83177Z" fill="url(#paint0_linear_475_720)"/>
<path d="M94.1565 25.4015L93.7431 24.6723L87.2712 28.3377L87.6846 29.0669C93.0811 38.5991 94.581 49.7182 91.9079 60.3707C89.2264 71.0568 82.6121 80.1728 73.2828 86.0397C66.4785 90.3169 58.6631 92.577 50.6773 92.577C44.1831 92.577 37.6693 91.0461 31.8147 88.1461C32.0828 87.1488 32.2197 86.1235 32.2197 85.0954C32.2197 78.5971 26.9322 73.3086 20.4351 73.3086C13.9381 73.3086 8.65056 78.5943 8.65056 85.0954C8.65056 91.5964 13.9353 96.8822 20.4351 96.8822C23.0496 96.8822 25.611 95.9966 27.6752 94.3846C34.7727 98.0583 42.7334 100 50.722 100L51.4398 99.9944C60.5569 99.8631 69.4812 97.2146 77.2408 92.3368C88.2014 85.4474 95.9721 74.7362 99.1228 62.1839C102.262 49.6679 100.5 36.6072 94.1565 25.4043V25.4015ZM20.4351 89.4397C18.0386 89.4397 16.0889 87.4896 16.0889 85.0926C16.0889 82.6955 18.0386 80.7455 20.4351 80.7455C22.8317 80.7455 24.7814 82.6955 24.7814 85.0926C24.7814 87.4896 22.8317 89.4397 20.4351 89.4397Z" fill="url(#paint1_linear_475_720)"/>
<path d="M39.9569 59.3454C40.4457 59.9098 41.1245 60.2506 41.8703 60.3037C42.6133 60.3568 43.3367 60.1165 43.9009 59.6276L59.5429 46.0808L62.8389 49.8858C63.8473 51.0508 65.6182 51.1765 66.783 50.168C67.3472 49.6791 67.688 49.0002 67.741 48.2543L69.1293 28.9132L69.1349 28.7791C69.1656 27.3403 68.1097 26.125 66.674 25.9462L47.2165 24.5466C46.4707 24.4935 45.7501 24.7338 45.1858 25.2227C44.6216 25.7116 44.2808 26.3904 44.2277 27.1364C44.1747 27.8823 44.4149 28.6031 44.9037 29.1674L48.1997 32.9725L38.4765 41.3956C37.9123 41.8845 37.5715 42.5634 37.5184 43.3094C37.4654 44.0553 37.7056 44.7761 38.1944 45.3404C39.2028 46.5054 40.9709 46.6339 42.1384 45.6226L53.9733 35.3695C54.5375 34.8806 54.8783 34.2018 54.9314 33.4558C54.9844 32.7099 54.7442 31.9891 54.2554 31.4248L53.5487 30.6062L63.3557 31.3102L62.6518 41.1191L61.9451 40.3005C61.4563 39.7362 60.7776 39.3953 60.0318 39.3422C59.2888 39.2892 58.5653 39.5294 58.0011 40.0183L42.3591 53.5652L39.0631 49.7601C38.0547 48.5951 36.2838 48.4694 35.1191 49.4779C34.594 49.9333 34.2588 50.5619 34.175 51.2631L32.7756 70.7188C32.6666 72.2553 33.8258 73.5963 35.3621 73.7081L54.6883 75.0966C54.7554 75.1022 54.8252 75.1049 54.8922 75.1049C55.5626 75.1049 56.2051 74.8675 56.7162 74.4233L56.7302 74.4093C57.0039 74.169 57.2246 73.8841 57.3866 73.56C57.895 72.5459 57.7413 71.3362 56.9983 70.4785L53.7023 66.6734L63.4255 58.2503C63.9898 57.7614 64.3305 57.0825 64.3836 56.3366C64.4367 55.5907 64.1964 54.8699 63.7076 54.3055C62.6993 53.1405 60.9312 53.012 59.7636 54.0206L47.9288 64.2736C47.3645 64.7625 47.0238 65.4414 46.9707 66.1873C46.9176 66.9333 47.1578 67.654 47.6466 68.2184L48.3533 69.0369L38.5463 68.3329L39.2502 58.5241L39.9597 59.3427L39.9569 59.3454Z" fill="url(#paint2_linear_475_720)"/>
<g clip-path="url(#clip0_475_720)">
<path d="M121.971 77.9089C118.584 76.5181 115.871 74.4597 113.854 71.7336C111.826 69.0076 110.753 65.7253 110.642 61.8866H125.804C126.026 64.0563 126.775 65.716 128.053 66.8565C129.33 67.997 130.996 68.5626 133.051 68.5626C135.106 68.5626 136.828 68.0804 138.05 67.0976C139.272 66.124 139.883 64.7795 139.883 63.0549C139.883 61.6085 139.392 60.4124 138.42 59.4666C137.448 58.5208 136.254 57.742 134.838 57.13C133.422 56.5181 131.404 55.8227 128.803 55.0438C125.026 53.8755 121.944 52.7072 119.556 51.5389C117.167 50.3706 115.112 48.646 113.391 46.3651C111.669 44.0841 110.808 41.1078 110.808 37.436C110.808 31.984 112.78 27.7188 116.723 24.6312C120.666 21.5436 125.804 19.9951 132.135 19.9951C138.466 19.9951 143.77 21.5436 147.713 24.6312C151.657 27.7188 153.767 32.0118 154.045 37.5287H138.633C138.522 35.6372 137.828 34.1444 136.55 33.0596C135.273 31.9747 133.634 31.4369 131.635 31.4369C129.913 31.4369 128.525 31.9005 127.47 32.8185C126.414 33.7364 125.887 35.0623 125.887 36.7777C125.887 38.6692 126.775 40.1435 128.553 41.2005C130.33 42.2575 133.107 43.398 136.883 44.6219C140.66 45.9015 143.724 47.1254 146.094 48.2937C148.454 49.462 150.49 51.1588 152.212 53.3841C153.934 55.6094 154.795 58.4745 154.795 61.9794C154.795 65.4842 153.943 68.3493 152.249 71.0753C150.555 73.8013 148.093 75.971 144.881 77.5844C141.66 79.1977 137.855 80.0044 133.468 80.0044C129.08 80.0044 125.359 79.309 121.971 77.9182V77.9089Z" fill="#303446"/>
<path d="M175.743 76.1613C171.162 73.6022 167.524 70.0232 164.83 65.4335C162.137 60.8438 160.794 55.6885 160.794 49.9583C160.794 44.2281 162.137 39.0821 164.83 34.5202C167.524 29.9583 171.162 26.3978 175.743 23.8387C180.325 21.2796 185.37 20 190.859 20C196.348 20 201.402 21.2796 205.975 23.8387C210.557 26.3978 214.167 29.9583 216.805 34.5202C219.443 39.0821 220.757 44.2281 220.757 49.9583C220.757 55.6885 219.424 60.8438 216.759 65.4335C214.093 70.0232 210.483 73.6022 205.929 76.1613C201.374 78.7204 196.348 80 190.85 80C185.352 80 180.316 78.7204 175.734 76.1613H175.743ZM202.069 62.3088C204.873 59.1933 206.271 55.0765 206.271 49.9583C206.271 44.8401 204.864 40.6491 202.069 37.5614C199.264 34.4738 195.534 32.9254 190.868 32.9254C186.203 32.9254 182.38 34.4553 179.585 37.5151C176.78 40.5749 175.383 44.7195 175.383 49.949C175.383 55.1785 176.78 59.249 179.585 62.3366C182.39 65.4242 186.148 66.9726 190.868 66.9726C195.589 66.9726 199.264 65.4149 202.069 62.2995V62.3088Z" fill="#303446"/>
<path d="M230.506 34.5666C233.005 30.0325 236.486 26.4999 240.957 23.9686C245.427 21.4373 250.5 20.167 256.165 20.167C263.107 20.167 269.05 22.0029 273.993 25.6746C278.936 29.3464 282.24 34.3534 283.906 40.6955H268.244C267.078 38.2477 265.421 36.384 263.292 35.1044C261.154 33.8249 258.72 33.1851 255.998 33.1851C251.611 33.1851 248.056 34.715 245.335 37.7748C242.614 40.8346 241.253 44.9236 241.253 50.0418C241.253 55.16 242.614 59.2491 245.335 62.3089C248.056 65.3687 251.611 66.8986 255.998 66.8986C258.72 66.8986 261.145 66.2588 263.292 64.9792C265.431 63.6997 267.078 61.836 268.244 59.3881H283.906C282.24 65.7303 278.936 70.728 273.993 74.3626C269.05 78.0066 263.107 79.8332 256.165 79.8332C250.5 79.8332 245.427 78.5722 240.957 76.0409C236.486 73.5096 233.005 69.9862 230.506 65.4799C228.007 60.9737 226.757 55.8276 226.757 50.0418C226.757 44.256 228.007 39.1007 230.506 34.5573V34.5666Z" fill="#303446"/>
<path d="M323.812 79.2903L304.152 53.4211V79.2903H289.906V20.709H304.152V46.4114L323.646 20.709H340.391L317.731 49.4155L341.224 79.2903H323.812Z" fill="#303446"/>
<path d="M361.469 32.1415V43.9913H380.547V55.0066H361.469V67.8578H383.046V79.2903H347.224V20.709H383.046V32.1415H361.469Z" fill="#303446"/>
<path d="M434.282 20.709V32.1415H418.787V79.2903H404.541V32.1415H389.046V20.709H434.282Z" fill="#303446"/>
<path d="M483.861 54.2975C485.916 56.9401 486.943 59.9628 486.943 63.3472C486.943 68.2428 485.231 72.1279 481.815 74.993C478.4 77.858 473.632 79.286 467.523 79.286H440.282V20.7139H466.607C472.55 20.7139 477.196 22.0769 480.566 24.8029C483.926 27.5289 485.601 31.2285 485.601 35.9016C485.601 39.3509 484.694 42.216 482.898 44.4969C481.093 46.7778 478.686 48.3634 475.687 49.2535C479.075 49.9767 481.797 51.6643 483.852 54.3068L483.861 54.2975ZM454.537 44.4134H463.867C466.2 44.4134 467.995 43.9035 469.245 42.865C470.495 41.8358 471.115 40.3152 471.115 38.3124C471.115 36.3096 470.495 34.7797 469.245 33.7227C467.995 32.6657 466.2 32.1371 463.867 32.1371H454.537V44.4042V44.4134ZM470.569 66.1566C471.874 65.0718 472.531 63.5048 472.531 61.4464C472.531 59.388 471.846 57.7746 470.485 56.6063C469.125 55.438 467.246 54.8539 464.857 54.8539H454.527V67.7885H465.024C467.412 67.7885 469.254 67.2507 470.559 66.1659L470.569 66.1566Z" fill="#303446"/>
<path d="M528.018 76.2493C513.817 76.2493 502.306 64.7795 502.306 50.6296C502.306 36.4797 513.817 25.0099 528.018 25.0099C535.18 25.0099 541.655 27.9291 546.317 32.6389C540.946 25.3278 532.271 20.5742 522.478 20.5742C506.167 20.5742 492.943 33.7471 492.943 49.9997C492.943 66.2522 506.167 79.4251 522.475 79.4251C529.833 79.4251 536.559 76.7363 541.734 72.2977C537.762 74.7999 533.061 76.2522 528.018 76.2522" fill="#303446"/>
<path d="M536.857 29.1279C543.039 32.7354 547.195 39.4195 547.195 47.0719C547.195 58.5505 537.855 67.8534 526.338 67.8564C515.62 67.8564 506.796 59.8015 505.619 49.437C505.599 49.8453 505.584 50.2536 505.584 50.6648C505.584 63.3798 515.93 73.686 528.688 73.686C541.446 73.686 551.793 63.3769 551.793 50.6648C551.793 40.8164 545.585 32.4175 536.857 29.1279Z" fill="#303446"/>
<path d="M525.719 30.7207C517.966 30.7207 511.418 35.8592 509.314 42.905C511.664 37.679 516.93 34.0394 523.05 34.0394C531.362 34.0394 538.099 40.7528 538.099 49.0351C538.099 57.3173 531.362 64.0307 523.05 64.0307C521.692 64.0307 520.374 63.8469 519.122 63.5116C521.15 64.3573 523.38 64.8239 525.719 64.8268C535.172 64.8268 542.832 57.189 542.832 47.7723C542.832 38.3527 535.17 30.7207 525.719 30.7207Z" fill="#303446"/>
<path d="M596.781 79.2903L584.868 61.3488L574.371 79.2903H558.209L576.954 49.499L557.793 20.709H574.371L586.117 38.4002L596.448 20.709H612.609L594.032 50.25L613.359 79.2903H596.781Z" fill="#303446"/>
</g>
<defs>
<linearGradient id="paint0_linear_475_720" x1="0.641602" y1="50" x2="100.642" y2="50" gradientUnits="userSpaceOnUse">
<stop stop-color="#00DBFF"/>
<stop offset="1" stop-color="#00FF75"/>
</linearGradient>
<linearGradient id="paint1_linear_475_720" x1="0.641602" y1="50" x2="100.642" y2="50" gradientUnits="userSpaceOnUse">
<stop stop-color="#00DBFF"/>
<stop offset="1" stop-color="#00FF75"/>
</linearGradient>
<linearGradient id="paint2_linear_475_720" x1="0.641602" y1="50" x2="100.642" y2="50" gradientUnits="userSpaceOnUse">
<stop stop-color="#00DBFF"/>
<stop offset="1" stop-color="#00FF75"/>
</linearGradient>
<clipPath id="clip0_475_720">
<rect width="502.717" height="60.0093" fill="white" transform="translate(110.642 19.9951)"/>
</clipPath>
</defs>
</svg>
