<svg width="614" height="100" viewBox="0 0 614 100" fill="none" xmlns="http://www.w3.org/2000/svg">
<g clip-path="url(#clip0_475_759)">
<path d="M8.15528 38.0597C11.1188 27.5071 17.866 18.4804 27.1545 12.6423C33.8274 8.44813 41.4938 6.1122 49.325 5.887C55.9363 5.69638 62.5295 7.00146 68.5629 9.67489C68.3156 10.5956 68.1816 11.562 68.1816 12.5597C68.1816 18.6981 73.1758 23.6923 79.3145 23.6923C85.4529 23.6923 90.4471 18.6981 90.4471 12.5597C90.4471 6.42118 85.4529 1.42704 79.3145 1.42704C76.2953 1.42704 73.5549 2.63681 71.5475 4.59481C64.5522 1.38251 56.8672 -0.191513 49.1565 0.0303617C40.2805 0.285635 31.5943 2.93153 24.0367 7.68173C13.5152 14.295 5.87188 24.5208 2.51465 36.4755C-0.818549 48.3442 0.323248 60.9503 5.72989 71.9714L10.9899 69.3909C6.21895 59.6659 5.21231 48.5388 8.15528 38.0597ZM79.3143 7.28583C82.2221 7.28583 84.5879 9.65165 84.5879 12.5597C84.5879 15.4677 82.2221 17.8335 79.3143 17.8335C76.4063 17.8335 74.0404 15.4677 74.0404 12.5597C74.0404 9.65165 76.4063 7.28583 79.3143 7.28583Z" fill="url(#paint0_linear_475_759)"/>
<path d="M94.1572 25.4062L89.059 28.293C94.6563 38.1785 96.2121 49.7064 93.4398 60.7533C90.659 71.8344 83.7984 81.2863 74.1223 87.3684C66.9387 91.8834 58.8154 94.1479 50.6783 94.1477C43.7619 94.1475 36.8359 92.51 30.4713 89.2293C30.8461 88.1158 31.0523 86.9254 31.0523 85.6873C31.0523 79.5488 26.0582 74.5547 19.9197 74.5547C13.7812 74.5547 8.78711 79.5488 8.78711 85.6873C8.78711 91.8258 13.7812 96.8199 19.9197 96.8199C22.6916 96.8199 25.2281 95.7992 27.1789 94.1172C34.416 97.9672 42.5059 99.9916 50.7225 99.9914C50.8164 99.9914 50.9111 99.9912 51.0051 99.9906C60.277 99.9383 69.349 97.2889 77.24 92.3291C88.2008 85.4398 95.9721 74.7326 99.1223 62.1799C102.262 49.6666 100.499 36.6068 94.1572 25.4062ZM19.9197 90.9605C17.0117 90.9605 14.6459 88.5947 14.6459 85.6869C14.6459 82.7791 17.0117 80.4131 19.9197 80.4131C22.8277 80.4131 25.1936 82.7789 25.1936 85.6869C25.1936 88.5949 22.8275 90.9605 19.9197 90.9605Z" fill="url(#paint1_linear_475_759)"/>
</g>
<path d="M44.7144 26.7953C44.8029 25.5611 45.8756 24.6324 47.1099 24.7208L66.7657 26.1323C67.9994 26.2213 68.9279 27.2932 68.8396 28.5271L67.4281 48.1829C67.3855 48.7754 67.1092 49.327 66.6604 49.7159C65.7252 50.526 64.3099 50.4248 63.4996 49.4897L59.7533 45.1637L43.3899 59.3344C42.4544 60.1446 41.0392 60.0436 40.2291 59.1082L38.5574 57.1777L37.6938 69.2035L49.7195 70.067L48.0478 68.1366C47.238 67.2011 47.3401 65.7859 48.2754 64.9759L60.3136 54.5508C61.2489 53.7408 62.6642 53.842 63.4744 54.7771C64.2845 55.7126 64.1828 57.1284 63.2473 57.9385L52.9027 66.8971L56.6483 71.2223C57.2047 71.8643 57.3474 72.7611 57.0289 73.5384L56.9591 73.6919C56.8277 73.9556 56.6446 74.1901 56.4214 74.3823L56.422 74.3831C55.9728 74.7719 55.3871 74.9658 54.7944 74.9232L35.1386 73.5117C33.9046 73.4229 32.9762 72.351 33.0647 71.1169L34.4761 51.4611C34.5189 50.8688 34.7945 50.3175 35.2432 49.9287C36.1783 49.1185 37.5936 49.2199 38.404 50.155L42.1503 54.4809L58.5144 40.3095C59.4499 39.4996 60.8643 39.6011 61.6744 40.5365L63.3462 42.4669L64.2098 30.4412L52.184 29.5776L53.8558 31.508C54.6656 32.4434 54.5641 33.858 53.6288 34.6681L41.59 45.0938C40.6545 45.9036 39.24 45.802 38.4299 44.8669C37.6199 43.9315 37.721 42.5163 38.6562 41.7061L49.0009 32.7476L45.2552 28.4223C44.8664 27.9732 44.6719 27.3879 44.7144 26.7953Z" fill="url(#paint2_linear_475_759)" stroke="url(#paint3_linear_475_759)" stroke-width="0.5"/>
<g clip-path="url(#clip1_475_759)">
<path d="M121.971 77.9089C118.584 76.5181 115.871 74.4597 113.854 71.7336C111.826 69.0076 110.753 65.7253 110.642 61.8866H125.804C126.026 64.0563 126.775 65.716 128.053 66.8565C129.33 67.997 130.996 68.5626 133.051 68.5626C135.106 68.5626 136.828 68.0804 138.05 67.0976C139.272 66.124 139.883 64.7795 139.883 63.0549C139.883 61.6085 139.392 60.4124 138.42 59.4666C137.448 58.5208 136.254 57.742 134.838 57.13C133.422 56.5181 131.404 55.8227 128.803 55.0438C125.026 53.8755 121.944 52.7072 119.556 51.5389C117.167 50.3706 115.112 48.646 113.391 46.3651C111.669 44.0841 110.808 41.1078 110.808 37.436C110.808 31.984 112.78 27.7188 116.723 24.6312C120.666 21.5436 125.804 19.9951 132.135 19.9951C138.466 19.9951 143.77 21.5436 147.713 24.6312C151.657 27.7188 153.767 32.0118 154.045 37.5287H138.633C138.522 35.6372 137.828 34.1444 136.55 33.0596C135.273 31.9747 133.634 31.4369 131.635 31.4369C129.913 31.4369 128.525 31.9005 127.47 32.8185C126.414 33.7364 125.887 35.0623 125.887 36.7777C125.887 38.6692 126.775 40.1435 128.553 41.2005C130.33 42.2575 133.107 43.398 136.883 44.6219C140.66 45.9015 143.724 47.1254 146.094 48.2937C148.454 49.462 150.49 51.1588 152.212 53.3841C153.934 55.6094 154.795 58.4745 154.795 61.9794C154.795 65.4842 153.943 68.3493 152.249 71.0753C150.555 73.8013 148.093 75.971 144.881 77.5844C141.66 79.1977 137.855 80.0044 133.468 80.0044C129.08 80.0044 125.359 79.309 121.971 77.9182V77.9089Z" fill="white"/>
<path d="M175.743 76.1613C171.162 73.6022 167.524 70.0232 164.83 65.4335C162.137 60.8438 160.794 55.6885 160.794 49.9583C160.794 44.2281 162.137 39.0821 164.83 34.5202C167.524 29.9583 171.162 26.3978 175.743 23.8387C180.325 21.2796 185.37 20 190.859 20C196.348 20 201.402 21.2796 205.975 23.8387C210.557 26.3978 214.167 29.9583 216.805 34.5202C219.443 39.0821 220.757 44.2281 220.757 49.9583C220.757 55.6885 219.424 60.8438 216.759 65.4335C214.093 70.0232 210.483 73.6022 205.929 76.1613C201.374 78.7204 196.348 80 190.85 80C185.352 80 180.316 78.7204 175.734 76.1613H175.743ZM202.069 62.3088C204.873 59.1933 206.271 55.0765 206.271 49.9583C206.271 44.8401 204.864 40.6491 202.069 37.5614C199.264 34.4738 195.534 32.9254 190.868 32.9254C186.203 32.9254 182.38 34.4553 179.585 37.5151C176.78 40.5749 175.383 44.7195 175.383 49.949C175.383 55.1785 176.78 59.249 179.585 62.3366C182.39 65.4242 186.148 66.9726 190.868 66.9726C195.589 66.9726 199.264 65.4149 202.069 62.2995V62.3088Z" fill="white"/>
<path d="M230.506 34.5666C233.005 30.0325 236.486 26.4999 240.957 23.9686C245.427 21.4373 250.5 20.167 256.165 20.167C263.107 20.167 269.05 22.0029 273.993 25.6746C278.936 29.3464 282.24 34.3534 283.906 40.6955H268.244C267.078 38.2477 265.421 36.384 263.292 35.1044C261.154 33.8249 258.72 33.1851 255.998 33.1851C251.611 33.1851 248.056 34.715 245.335 37.7748C242.614 40.8346 241.253 44.9236 241.253 50.0418C241.253 55.16 242.614 59.2491 245.335 62.3089C248.056 65.3687 251.611 66.8986 255.998 66.8986C258.72 66.8986 261.145 66.2588 263.292 64.9792C265.431 63.6997 267.078 61.836 268.244 59.3881H283.906C282.24 65.7303 278.936 70.728 273.993 74.3626C269.05 78.0066 263.107 79.8332 256.165 79.8332C250.5 79.8332 245.427 78.5722 240.957 76.0409C236.486 73.5096 233.005 69.9862 230.506 65.4799C228.007 60.9737 226.757 55.8276 226.757 50.0418C226.757 44.256 228.007 39.1007 230.506 34.5573V34.5666Z" fill="white"/>
<path d="M323.812 79.2903L304.152 53.4211V79.2903H289.906V20.709H304.152V46.4114L323.646 20.709H340.391L317.731 49.4155L341.224 79.2903H323.812Z" fill="white"/>
<path d="M361.469 32.1415V43.9913H380.547V55.0066H361.469V67.8578H383.046V79.2903H347.224V20.709H383.046V32.1415H361.469Z" fill="white"/>
<path d="M434.282 20.709V32.1415H418.787V79.2903H404.541V32.1415H389.046V20.709H434.282Z" fill="white"/>
<path d="M483.861 54.2975C485.916 56.9401 486.943 59.9628 486.943 63.3472C486.943 68.2428 485.231 72.1279 481.815 74.993C478.4 77.858 473.632 79.286 467.523 79.286H440.282V20.7139H466.607C472.55 20.7139 477.196 22.0769 480.566 24.8029C483.926 27.5289 485.601 31.2285 485.601 35.9016C485.601 39.3509 484.694 42.216 482.898 44.4969C481.093 46.7778 478.686 48.3634 475.687 49.2535C479.075 49.9767 481.797 51.6643 483.852 54.3068L483.861 54.2975ZM454.537 44.4134H463.867C466.2 44.4134 467.995 43.9035 469.245 42.865C470.495 41.8358 471.115 40.3152 471.115 38.3124C471.115 36.3096 470.495 34.7797 469.245 33.7227C467.995 32.6657 466.2 32.1371 463.867 32.1371H454.537V44.4042V44.4134ZM470.569 66.1566C471.874 65.0718 472.531 63.5048 472.531 61.4464C472.531 59.388 471.846 57.7746 470.485 56.6063C469.125 55.438 467.246 54.8539 464.857 54.8539H454.527V67.7885H465.024C467.412 67.7885 469.254 67.2507 470.559 66.1659L470.569 66.1566Z" fill="white"/>
<path d="M528.018 76.2493C513.817 76.2493 502.306 64.7795 502.306 50.6296C502.306 36.4797 513.817 25.0099 528.018 25.0099C535.18 25.0099 541.655 27.9291 546.317 32.6389C540.946 25.3278 532.271 20.5742 522.478 20.5742C506.167 20.5742 492.943 33.7471 492.943 49.9997C492.943 66.2522 506.167 79.4251 522.475 79.4251C529.833 79.4251 536.559 76.7363 541.734 72.2977C537.762 74.7999 533.061 76.2522 528.018 76.2522" fill="white"/>
<path d="M536.857 29.1279C543.039 32.7354 547.195 39.4195 547.195 47.0719C547.195 58.5505 537.855 67.8534 526.338 67.8564C515.62 67.8564 506.796 59.8015 505.619 49.437C505.599 49.8453 505.584 50.2536 505.584 50.6648C505.584 63.3798 515.93 73.686 528.688 73.686C541.446 73.686 551.793 63.3769 551.793 50.6648C551.793 40.8164 545.585 32.4175 536.857 29.1279Z" fill="white"/>
<path d="M525.719 30.7207C517.966 30.7207 511.418 35.8592 509.314 42.905C511.664 37.679 516.93 34.0394 523.05 34.0394C531.362 34.0394 538.099 40.7528 538.099 49.0351C538.099 57.3173 531.362 64.0307 523.05 64.0307C521.692 64.0307 520.374 63.8469 519.122 63.5116C521.15 64.3573 523.38 64.8239 525.719 64.8268C535.172 64.8268 542.832 57.189 542.832 47.7723C542.832 38.3527 535.17 30.7207 525.719 30.7207Z" fill="white"/>
<path d="M596.781 79.2903L584.868 61.3488L574.371 79.2903H558.209L576.954 49.499L557.793 20.709H574.371L586.117 38.4002L596.448 20.709H612.609L594.032 50.25L613.359 79.2903H596.781Z" fill="white"/>
</g>
<defs>
<linearGradient id="paint0_linear_475_759" x1="0.641602" y1="35.9906" x2="90.4471" y2="35.9906" gradientUnits="userSpaceOnUse">
<stop stop-color="#00DBFF"/>
<stop offset="1" stop-color="#00FF75"/>
</linearGradient>
<linearGradient id="paint1_linear_475_759" x1="8.78711" y1="62.6988" x2="100.641" y2="62.6988" gradientUnits="userSpaceOnUse">
<stop stop-color="#00DBFF"/>
<stop offset="1" stop-color="#00FF75"/>
</linearGradient>
<linearGradient id="paint2_linear_475_759" x1="29.8854" y1="68.0662" x2="72.0189" y2="31.5785" gradientUnits="userSpaceOnUse">
<stop stop-color="#00DBFF"/>
<stop offset="1" stop-color="#00FF75"/>
</linearGradient>
<linearGradient id="paint3_linear_475_759" x1="29.8854" y1="68.0662" x2="72.0189" y2="31.5785" gradientUnits="userSpaceOnUse">
<stop stop-color="#00DBFF"/>
<stop offset="1" stop-color="#00FF75"/>
</linearGradient>
<clipPath id="clip0_475_759">
<rect width="100" height="100" fill="white" transform="translate(0.641602)"/>
</clipPath>
<clipPath id="clip1_475_759">
<rect width="502.717" height="60.0093" fill="white" transform="translate(110.642 19.9951)"/>
</clipPath>
</defs>
</svg>
