<svg width="76" height="75" viewBox="0 0 76 75" fill="none" xmlns="http://www.w3.org/2000/svg">
<g clip-path="url(#clip0_912_1527)">
<path d="M49.6401 9.89749C47.7114 7.21346 45.6992 5.22281 44.3861 4.05251C43.5478 3.30541 42.2822 3.30541 41.4439 4.05251C41.0461 4.40735 40.5844 4.83705 40.0801 5.33838C38.9193 6.4924 37.5342 8.02567 36.19 9.89749C21.1419 12.9868 9.83008 26.2345 9.83008 42.1092C9.83008 60.2757 24.6424 75.0012 42.9158 75.0012C61.1893 75.0012 76.0016 60.2757 76.0016 42.1092C76.0016 26.2345 64.6898 12.9868 49.6417 9.89749H49.6401ZM42.9142 15.2656C44.5924 15.2656 46.1691 15.915 47.3561 17.0951C48.5431 18.2751 49.1964 19.8426 49.1964 21.511C49.1964 23.233 48.4924 24.794 47.3545 25.9252C46.2166 27.0564 44.6464 27.7563 42.9142 27.7563C41.182 27.7563 39.6593 27.1069 38.4723 25.9268C37.2853 24.7468 36.632 23.1793 36.632 21.511C36.632 18.0684 39.4498 15.2656 42.9142 15.2656ZM44.9182 68.4075C45.208 69.6169 45.5109 70.7514 45.8187 71.8159C45.7303 71.824 45.6402 71.8305 45.5502 71.8387C45.1654 69.8513 44.9182 68.4075 44.9182 68.4075ZM42.7226 71.9526C42.4394 71.951 42.1562 71.9445 41.8745 71.9347C42.2888 69.1449 42.6621 65.8374 42.816 62.3265C42.816 62.3265 42.8635 67.2812 42.7226 71.951V71.9526ZM39.3859 71.7508C39.1747 71.7263 38.9651 71.6987 38.7556 71.671C39.4121 69.7471 40.0916 67.483 40.7137 64.8934C40.7137 64.8934 40.1407 68.235 39.3859 71.7508ZM64.1429 63.2136C61.1189 66.2199 57.5644 68.5052 53.6874 69.9831C52.2286 68.165 50.5373 65.8586 48.7674 63.0427C48.7674 63.0427 50.8042 66.8091 52.9146 70.2647C52.4922 70.4128 52.0681 70.5512 51.6392 70.6798C50.1673 68.4563 48.0585 64.8885 45.9497 60.0136C45.9497 60.0136 48.4121 66.9182 50.3801 71.0264C50.0199 71.1176 49.6581 71.2022 49.293 71.2804C45.7729 64.3286 44.5744 58.3973 44.1716 55.378V49.9562C44.1716 49.2661 43.61 48.7078 42.9158 48.7078C42.2216 48.7078 41.6601 49.2677 41.6601 49.9562V55.8321C41.2 58.9703 39.9524 64.6687 36.596 71.2934C36.1818 71.2055 35.7708 71.1095 35.3615 71.0053C37.1658 66.9166 39.0863 61.529 39.0863 61.529C37.395 65.4419 35.7004 68.5117 34.3366 70.7221C33.8913 70.5902 33.4492 70.4486 33.0104 70.2972C34.7688 67.3284 36.2669 64.5564 36.2669 64.5564C34.9244 66.6919 33.6277 68.5345 32.4423 70.0938C28.4506 68.6191 24.7881 66.2964 21.6871 63.212C16.0173 57.5753 12.8934 50.0799 12.8934 42.1076C12.8934 34.1352 16.0157 26.6414 21.6871 21.0031C25.1516 17.559 29.3151 15.0621 33.8585 13.6395C33.1005 15.067 32.4226 16.6198 31.8889 18.2882C30.3859 22.9824 29.8505 30.5625 32.1001 37.5859C32.1509 37.5794 32.2016 37.5761 32.254 37.5761H53.5744C53.6268 37.5761 53.6776 37.581 53.7283 37.5859C55.9779 30.5625 55.4425 22.9824 53.9395 18.2882C53.4058 16.6198 52.7263 15.0686 51.9683 13.6395C56.5133 15.0621 60.6768 17.559 64.1413 21.0047C69.8111 26.6414 72.935 34.1368 72.935 42.1092C72.935 50.0815 69.8128 57.5753 64.1413 63.2136H64.1429Z" fill="#343433"/>
<path d="M12.464 20.7143C12.9061 13.9888 14.7791 12.1251 21.5443 11.6872C14.7791 11.2478 12.9045 9.38571 12.464 2.66016C12.022 9.38571 10.1489 11.2494 3.38379 11.6872C10.1489 12.1267 12.0236 13.9888 12.464 20.7143Z" fill="#343433"/>
<path d="M23.2494 23.1211C23.0349 26.396 22.1213 27.3026 18.8271 27.5174C22.1213 27.7307 23.0333 28.6389 23.2494 31.9138C23.4639 28.6389 24.3775 27.7323 27.6716 27.5174C24.3775 27.3042 23.4655 26.396 23.2494 23.1211Z" fill="#343433"/>
<path d="M24.7059 11.6867C24.9924 7.33267 26.204 6.12657 30.5837 5.84335C26.204 5.55851 24.9908 4.35403 24.7059 0C24.4194 4.35403 23.2078 5.56014 18.8281 5.84335C23.2078 6.1282 24.421 7.33267 24.7059 11.6867Z" fill="#343433"/>
<path d="M6.66365 17.7617C6.33947 22.6968 4.96417 24.0641 0 24.3864C4.96417 24.7086 6.33947 26.0759 6.66365 31.011C6.98783 26.0759 8.36313 24.7086 13.3273 24.3864C8.36313 24.0641 6.98783 22.6968 6.66365 17.7617Z" fill="#343433"/>
<path d="M26.0686 35.951C25.394 36.7339 25.1255 37.7626 25.3335 38.7717L26.8856 46.3388C27.0428 47.1054 27.5749 47.7305 28.3084 48.012C29.0419 48.2936 29.8588 48.1862 30.4925 47.7256L33.2709 45.704C30.8478 42.1752 29.2154 37.8749 28.4934 33.1367L26.0686 35.951Z" fill="#343433"/>
<path d="M57.3351 33.1367C56.6131 37.8749 54.9808 42.1752 52.5576 45.704L55.336 47.7256C55.9697 48.1862 56.7867 48.2936 57.5202 48.012C57.8247 47.8948 58.0948 47.7174 58.3175 47.4961C58.6302 47.1852 58.8496 46.7848 58.9413 46.3388L60.4934 38.7717C60.7014 37.7626 60.4328 36.7339 59.7583 35.951L57.3335 33.1367H57.3351Z" fill="#343433"/>
<path d="M33.0283 40.0742C33.7176 41.6759 34.5706 43.2254 35.6119 44.6773C36.0229 45.2502 36.6909 45.5839 37.3982 45.5839H48.4317C49.0194 45.5839 49.5794 45.3528 49.9871 44.9475C50.0706 44.8645 50.1475 44.7749 50.2179 44.6773C51.2592 43.2254 52.1139 41.6759 52.8015 40.0742H33.0283Z" fill="#343433"/>
<path d="M42.9145 25.2555C44.9922 25.2555 46.6835 23.5741 46.6835 21.5086C46.6835 20.5076 46.2922 19.5668 45.5799 18.8588C44.8677 18.1507 43.9214 17.7617 42.9145 17.7617C41.9076 17.7617 40.9334 18.1817 40.2507 18.8604C39.5679 19.5391 39.1455 20.4751 39.1455 21.5086C39.1455 22.5096 39.5368 23.4504 40.249 24.1585C40.9612 24.8665 41.9076 25.2555 42.9145 25.2555Z" fill="#343433"/>
<path d="M37.5976 48.7087C36.9034 48.7087 36.3418 49.2686 36.3418 49.9571V55.7239C36.3418 56.4141 36.905 56.9724 37.5976 56.9724C37.9447 56.9724 38.259 56.8324 38.4866 56.6061C38.7142 56.3799 38.855 56.0674 38.855 55.7223V49.9555C38.855 49.2653 38.2918 48.707 37.5992 48.707L37.5976 48.7087Z" fill="#343433"/>
<path d="M48.2304 48.7087C47.5362 48.7087 46.9746 49.2686 46.9746 49.9571V55.7239C46.9746 56.4141 47.5378 56.9724 48.2304 56.9724C48.5775 56.9724 48.8918 56.8324 49.1194 56.6061C49.347 56.3799 49.4878 56.0674 49.4878 55.7223V49.9555C49.4878 49.2653 48.9246 48.707 48.232 48.707L48.2304 48.7087Z" fill="#343433"/>
</g>
<defs>
<clipPath id="clip0_912_1527">
<rect width="76" height="75" fill="white"/>
</clipPath>
</defs>
</svg>
