<svg width="213" height="201" viewBox="0 0 213 201" fill="none" xmlns="http://www.w3.org/2000/svg">
<path d="M203.703 200.133H8.79049C3.93433 200.133 0 195.716 0 190.267V171.671C0 166.222 3.93653 161.805 8.79049 161.805H206.347C209.741 161.805 212.493 164.894 212.493 168.703V190.267C212.493 195.716 208.557 200.133 203.703 200.133Z" fill="white"/>
<g clip-path="url(#clip0_912_1417)">
<path d="M8.8326 174.528C9.91892 172.56 11.4337 171.027 13.377 169.929C15.3203 168.83 17.5232 168.281 19.9855 168.281C23.003 168.281 25.5861 169.078 27.7346 170.671C29.883 172.264 31.3194 174.437 32.0436 177.189H25.236C24.7291 176.127 24.0109 175.318 23.0815 174.763C22.1521 174.208 21.0959 173.93 19.9131 173.93C18.006 173.93 16.461 174.594 15.2781 175.922C14.0952 177.249 13.5038 179.024 13.5038 181.245C13.5038 183.465 14.0952 185.24 15.2781 186.568C16.461 187.895 18.006 188.559 19.9131 188.559C21.0959 188.559 22.1521 188.281 23.0815 187.726C24.0109 187.171 24.7291 186.362 25.236 185.3H32.0436C31.3194 188.052 29.883 190.219 27.7346 191.8C25.5861 193.381 23.003 194.172 19.9855 194.172C17.5232 194.172 15.3203 193.623 13.377 192.524C11.4337 191.426 9.91892 189.899 8.8326 187.944C7.74628 185.988 7.20312 183.755 7.20312 181.245C7.20312 178.734 7.74628 176.495 8.8326 174.528Z" fill="#343433"/>
<path d="M54.7839 183.145C55.6771 184.292 56.1237 185.601 56.1237 187.074C56.1237 189.198 55.3813 190.882 53.8967 192.125C52.4121 193.368 50.342 193.99 47.6866 193.99H35.8457V168.57H47.2883C49.8713 168.57 51.893 169.162 53.3535 170.345C54.814 171.527 55.5443 173.133 55.5443 175.161C55.5443 176.657 55.152 177.901 54.3674 178.89C53.5829 179.88 52.5388 180.568 51.2352 180.954C52.7078 181.268 53.8907 181.998 54.7839 183.145ZM42.0377 178.854H46.0933C47.1072 178.854 47.8857 178.631 48.4289 178.184C48.9721 177.738 49.2436 177.08 49.2436 176.211C49.2436 175.342 48.9721 174.678 48.4289 174.219C47.8857 173.76 47.1072 173.531 46.0933 173.531H42.0377V178.854ZM49.0083 188.287C49.5756 187.816 49.8592 187.134 49.8592 186.241C49.8592 185.348 49.5635 184.648 48.9721 184.141C48.3806 183.634 47.5659 183.38 46.5278 183.38H42.0377V188.993H46.6003C47.6383 188.993 48.441 188.758 49.0083 188.287Z" fill="#343433"/>
<path d="M76.5825 176.61C76.1238 175.765 75.466 175.119 74.609 174.672C73.752 174.226 72.7441 174.003 71.5854 174.003C69.5817 174.003 67.9764 174.66 66.7694 175.976C65.5624 177.292 64.9588 179.048 64.9588 181.245C64.9588 183.586 65.5925 185.415 66.8599 186.73C68.1273 188.046 69.8714 188.704 72.0923 188.704C73.6132 188.704 74.8987 188.318 75.9488 187.545C76.9989 186.773 77.7653 185.662 78.2482 184.214H70.3904V179.651H83.8608V185.409C83.4021 186.954 82.6236 188.39 81.5252 189.718C80.4268 191.046 79.0327 192.12 77.3429 192.941C75.6531 193.761 73.746 194.172 71.6216 194.172C69.111 194.172 66.872 193.623 64.9045 192.524C62.9371 191.426 61.4042 189.899 60.3058 187.944C59.2074 185.988 58.6582 183.755 58.6582 181.245C58.6582 178.734 59.2074 176.495 60.3058 174.528C61.4042 172.56 62.9311 171.027 64.8864 169.929C66.8418 168.83 69.0748 168.281 71.5854 168.281C74.6271 168.281 77.192 169.018 79.2802 170.49C81.3683 171.963 82.7503 174.003 83.4263 176.61H76.5825Z" fill="#343433"/>
<path d="M93.4928 173.531V178.673H101.785V183.453H93.4928V189.029H102.871V193.99H87.3008V168.57H102.871V173.531H93.4928Z" fill="#343433"/>
<path d="M129.631 193.99H123.439L113.083 178.311V193.99H106.891V168.57H113.083L123.439 184.322V168.57H129.631V193.99Z" fill="#343433"/>
<path d="M140.313 173.531V178.673H148.605V183.453H140.313V189.029H149.692V193.99H134.121V168.57H149.692V173.531H140.313Z" fill="#343433"/>
<path d="M157.909 193.337C156.436 192.734 155.26 191.84 154.378 190.658C153.497 189.475 153.033 188.05 152.984 186.385H159.575C159.671 187.326 159.997 188.044 160.552 188.539C161.108 189.034 161.832 189.282 162.725 189.282C163.618 189.282 164.367 189.07 164.898 188.648C165.429 188.225 165.694 187.64 165.694 186.892C165.694 186.264 165.483 185.745 165.061 185.335C164.638 184.924 164.119 184.586 163.504 184.321C162.888 184.055 162.013 183.753 160.878 183.415C159.237 182.908 157.897 182.402 156.859 181.895C155.821 181.388 154.928 180.639 154.179 179.65C153.431 178.66 153.057 177.368 153.057 175.775C153.057 173.409 153.914 171.556 155.628 170.217C157.342 168.877 159.575 168.207 162.327 168.207C165.079 168.207 167.384 168.877 169.098 170.217C170.812 171.556 171.729 173.421 171.85 175.811H165.151C165.103 174.99 164.801 174.345 164.246 173.874C163.691 173.403 162.979 173.168 162.109 173.168C161.361 173.168 160.758 173.367 160.299 173.765C159.84 174.164 159.611 174.737 159.611 175.485C159.611 176.306 159.997 176.946 160.77 177.404C161.542 177.863 162.749 178.358 164.391 178.889C166.032 179.444 167.366 179.975 168.392 180.482C169.418 180.989 170.305 181.726 171.053 182.691C171.802 183.657 172.176 184.9 172.176 186.421C172.176 187.942 171.808 189.185 171.072 190.368C170.335 191.551 169.267 192.492 167.867 193.192C166.467 193.892 164.813 194.242 162.906 194.242C160.999 194.242 159.382 193.941 157.909 193.337Z" fill="#343433"/>
<path d="M182.17 168.57V193.99H175.978V168.57H182.17Z" fill="#343433"/>
<path d="M190.86 193.337C189.388 192.734 188.211 191.84 187.33 190.658C186.449 189.475 185.984 188.05 185.936 186.385H192.526C192.622 187.326 192.948 188.044 193.504 188.539C194.059 189.034 194.783 189.282 195.676 189.282C196.569 189.282 197.318 189.07 197.849 188.648C198.38 188.225 198.645 187.64 198.645 186.892C198.645 186.264 198.434 185.745 198.012 185.335C197.589 184.924 197.07 184.586 196.455 184.321C195.839 184.055 194.964 183.753 193.829 183.415C192.188 182.908 190.848 182.402 189.81 181.895C188.772 181.388 187.879 180.639 187.131 179.65C186.382 178.66 186.008 177.368 186.008 175.775C186.008 173.409 186.865 171.556 188.579 170.217C190.293 168.877 192.526 168.207 195.278 168.207C198.03 168.207 200.335 168.877 202.049 170.217C203.763 171.556 204.681 173.421 204.801 175.811H198.102C198.054 174.99 197.752 174.345 197.197 173.874C196.642 173.403 195.93 173.168 195.061 173.168C194.312 173.168 193.709 173.367 193.25 173.765C192.791 174.164 192.562 174.737 192.562 175.485C192.562 176.306 192.948 176.946 193.721 177.404C194.493 177.863 195.7 178.358 197.342 178.889C198.983 179.444 200.317 179.975 201.343 180.482C202.369 180.989 203.256 181.726 204.005 182.691C204.753 183.657 205.127 184.9 205.127 186.421C205.127 187.942 204.759 189.185 204.023 190.368C203.286 191.551 202.218 192.492 200.818 193.192C199.418 193.892 197.764 194.242 195.857 194.242C193.95 194.242 192.333 193.941 190.86 193.337Z" fill="#343433"/>
</g>
<path d="M171.791 2.20312H40.5799C33.3086 2.20312 27.4141 8.09226 27.4141 15.3569V146.447C27.4141 153.712 33.3086 159.601 40.5799 159.601H171.791C179.062 159.601 184.957 153.712 184.957 146.447V15.3569C184.957 8.09226 179.062 2.20312 171.791 2.20312Z" fill="#343433"/>
<path d="M171.793 161.804H40.5822C32.107 161.804 25.2109 154.915 25.2109 146.447V15.3571C25.2087 6.88975 32.1048 0 40.5822 0H171.793C180.268 0 187.165 6.88975 187.165 15.3571V146.447C187.165 154.915 180.268 161.804 171.793 161.804ZM40.5822 4.40662C34.5373 4.40662 29.6216 9.32 29.6216 15.3571V146.447C29.6216 152.487 34.5395 157.398 40.5822 157.398H171.793C177.838 157.398 182.754 152.484 182.754 146.447V15.3571C182.754 9.3178 177.836 4.40662 171.793 4.40662H40.5822Z" fill="white"/>
<path d="M107.337 127.807C83.9011 127.807 64.8359 108.76 64.8359 85.345C64.8359 61.9304 83.9011 42.8828 107.337 42.8828C130.773 42.8828 149.839 61.9304 149.839 85.345C149.839 108.76 130.773 127.807 107.337 127.807Z" fill="#0D87C5"/>
<path d="M107.337 44.9449C118.139 44.9449 128.292 49.1466 135.931 56.7789C143.569 64.4089 147.776 74.5552 147.776 85.347C147.776 96.1388 143.571 106.283 135.931 113.915C128.294 121.545 118.139 125.749 107.337 125.749C96.5352 125.749 86.3819 121.547 78.7426 113.915C71.1055 106.285 66.8977 96.1388 66.8977 85.347C66.8977 74.5552 71.1033 64.4112 78.7426 56.7789C86.3797 49.1488 96.5352 44.9449 107.337 44.9449ZM107.337 40.8203C82.7232 40.8203 62.7715 60.7537 62.7715 85.3448C62.7715 109.936 82.7232 129.869 107.337 129.869C131.951 129.869 151.903 109.936 151.903 85.3448C151.903 60.7537 131.951 40.8203 107.337 40.8203Z" fill="white"/>
<mask id="mask0_912_1417" style="mask-type:luminance" maskUnits="userSpaceOnUse" x="66" y="44" width="82" height="82">
<path d="M107.337 125.801C129.7 125.801 147.829 107.688 147.829 85.3456C147.829 63.0029 129.7 44.8906 107.337 44.8906C84.9737 44.8906 66.8447 63.0029 66.8447 85.3456C66.8447 107.688 84.9737 125.801 107.337 125.801Z" fill="white"/>
</mask>
<g mask="url(#mask0_912_1417)">
<path opacity="0.1" d="M107.336 154.472C130.612 154.472 149.481 135.621 149.481 112.367C149.481 89.1129 130.612 70.2617 107.336 70.2617C84.0609 70.2617 65.1924 89.1129 65.1924 112.367C65.1924 135.621 84.0609 154.472 107.336 154.472Z" fill="#33CFFF"/>
<path opacity="0.2" d="M130.898 135.907C143.911 122.906 143.911 101.828 130.898 88.8277C117.886 75.8273 96.7884 75.8273 83.776 88.8277C70.7635 101.828 70.7635 122.906 83.776 135.907C96.7884 148.907 117.886 148.907 130.898 135.907Z" fill="#33CFFF"/>
<path opacity="0.4" d="M134.041 116.704C136.434 101.972 126.421 88.091 111.675 85.6997C96.9299 83.3084 83.036 93.3124 80.6425 108.044C78.2489 122.776 88.2622 136.657 103.008 139.049C117.753 141.44 131.647 131.436 134.041 116.704Z" fill="#33CFFF"/>
<path d="M114.575 140.151C112.639 136.174 110.037 120.94 110.037 120.94C112.818 132.578 116.443 139.384 117.034 140.444H126.299C109.285 120.354 108.755 100.414 108.755 100.414H106.005C106.005 100.414 105.478 120.354 88.4619 140.444H116.267L114.573 140.151H114.575ZM97.2921 135.832C97.2921 135.832 101.337 128.887 104.371 116.183C104.371 116.183 101.771 131.417 99.8327 135.394L97.2899 135.834L97.2921 135.832ZM106.241 135.852L103.829 136.766C103.829 136.766 106.636 125.759 107.205 112.711C107.205 112.711 107.388 131.582 106.239 135.854L106.241 135.852Z" fill="white"/>
<path d="M111.426 109.582C111.426 109.582 116.595 124.146 119.182 127.735H121.762C121.762 127.735 116.588 121.581 111.426 109.582Z" fill="white"/>
<path d="M115.221 113.684C115.221 113.684 122.547 127.293 125.652 130.446L128.201 130.054C128.201 130.054 122.152 124.76 115.221 113.684Z" fill="white"/>
<path d="M102.178 111.633C102.178 111.633 97.0111 126.199 94.422 129.786H91.8418C91.8418 129.786 97.0155 123.632 102.178 111.633Z" fill="white"/>
<path d="M98.383 115.73C98.383 115.73 91.0568 129.34 87.9517 132.493L85.4023 132.101C85.4023 132.101 91.4516 126.807 98.383 115.73Z" fill="white"/>
</g>
<path d="M66.3226 31.9492C65.7272 41.0533 63.2043 43.5761 54.0918 44.1688C63.2043 44.7637 65.7294 47.2843 66.3226 56.3883C66.9181 47.2843 69.441 44.7615 78.5534 44.1688C69.441 43.5739 66.9159 41.0533 66.3226 31.9492Z" fill="white"/>
<path d="M80.8492 59.6445C80.5603 64.0776 79.3297 65.3048 74.8926 65.5957C79.3297 65.8843 80.5581 67.1137 80.8492 71.5468C81.1381 67.1137 82.3687 65.8865 86.8058 65.5957C82.3687 65.307 81.1403 64.0776 80.8492 59.6445Z" fill="#33CFFF"/>
<path d="M82.8117 28.3477C82.4258 34.2415 80.7938 35.8742 74.8945 36.2575C80.7938 36.6431 82.428 38.2736 82.8117 44.1674C83.1976 38.2736 84.8296 36.6409 90.7289 36.2575C84.8296 35.872 83.1954 34.2415 82.8117 28.3477Z" fill="#33CFFF"/>
<path d="M58.5089 52.3906C58.0723 59.0711 56.2198 60.9218 49.5332 61.3581C56.2198 61.7944 58.0723 63.6451 58.5089 70.3256C58.9456 63.6451 60.7981 61.7944 67.4847 61.3581C60.7981 60.9218 58.9456 59.0711 58.5089 52.3906Z" fill="#33CFFF"/>
<path d="M87.9125 73.207L84.6464 77.0166C83.7378 78.0763 83.3761 79.4688 83.6562 80.8349L85.7468 91.0781C85.9585 92.1158 86.6753 92.9619 87.6633 93.3431C88.6513 93.7243 89.7517 93.5788 90.6052 92.9553L94.3477 90.2188C91.0838 85.442 88.885 79.6209 87.9125 73.207Z" fill="white"/>
<path d="M120.326 90.2188L124.069 92.9553C124.922 93.581 126.023 93.7243 127.011 93.3431C127.421 93.1844 127.785 92.9443 128.085 92.6446C128.506 92.2238 128.802 91.6818 128.925 91.0781L131.016 80.8349C131.296 79.4688 130.934 78.0763 130.026 77.0166L126.759 73.207C125.787 79.6209 123.588 85.442 120.324 90.2188H120.326Z" fill="white"/>
<path d="M116.861 89.1905C116.974 89.0781 117.078 88.9569 117.172 88.8247C118.575 86.8594 119.726 84.7618 120.652 82.5938H94.0186C94.947 84.7618 96.096 86.8594 97.4986 88.8247C98.0521 89.6003 98.9519 90.052 99.9046 90.052H114.766C115.558 90.052 116.312 89.7391 116.861 89.1905Z" fill="white"/>
<path d="M122.19 53.1051C119.149 43.5559 112.612 36.7829 109.32 33.8327C108.19 32.8214 106.486 32.8214 105.357 33.8327C104.821 34.313 104.199 34.8947 103.52 35.5733C100.029 39.0612 95.0334 45.1092 92.4862 53.1051C90.4617 59.4594 89.7406 69.7202 92.7707 79.2275C92.8391 79.2187 92.9075 79.2143 92.978 79.2143H121.696C121.767 79.2143 121.835 79.2209 121.903 79.2275C124.933 69.7202 124.212 59.4594 122.188 53.1051H122.19ZM98.8751 57.4654C98.8751 52.8032 102.671 49.0113 107.337 49.0113C109.597 49.0113 111.721 49.8904 113.32 51.4878C114.919 53.0852 115.799 55.207 115.799 57.4654C115.799 59.7965 114.851 61.9095 113.318 63.4408C111.785 64.9721 109.67 65.9195 107.337 65.9195C105.077 65.9195 102.953 65.0404 101.354 63.443C99.755 61.8456 98.8751 59.7238 98.8751 57.4654Z" fill="white"/>
<path d="M107.337 62.5386C110.136 62.5386 112.414 60.2625 112.414 57.4665C112.414 56.1115 111.887 54.838 110.928 53.8796C109.968 52.9211 108.694 52.3945 107.337 52.3945C105.937 52.3945 104.669 52.963 103.749 53.8818C102.83 54.8005 102.261 56.0674 102.261 57.4665C102.261 58.8216 102.788 60.0951 103.747 61.0535C104.706 62.012 105.981 62.5386 107.337 62.5386Z" fill="white"/>
<path d="M101.373 104.974C101.68 104.668 101.869 104.245 101.869 103.778V95.9712C101.869 95.037 101.111 94.2812 100.178 94.2812C99.2428 94.2812 98.4863 95.0392 98.4863 95.9712V103.778C98.4863 104.712 99.245 105.467 100.178 105.467C100.645 105.467 101.069 105.278 101.375 104.972L101.373 104.974Z" fill="white"/>
<path d="M107.337 94.2795C106.402 94.2795 105.646 95.0375 105.646 95.9695V110.978C105.646 111.913 106.404 112.668 107.337 112.668C107.805 112.668 108.228 112.479 108.535 112.173C108.841 111.866 109.031 111.443 109.031 110.976V95.9673C109.031 95.0331 108.272 94.2773 107.339 94.2773L107.337 94.2795Z" fill="white"/>
<path d="M112.807 95.9695V103.776C112.807 104.71 113.565 105.466 114.498 105.466C114.966 105.466 115.389 105.276 115.696 104.97C116.002 104.664 116.192 104.241 116.192 103.774V95.9673C116.192 95.0331 115.433 94.2773 114.5 94.2773C113.565 94.2773 112.809 95.0353 112.809 95.9673L112.807 95.9695Z" fill="white"/>
<defs>
<clipPath id="clip0_912_1417">
<rect width="197.924" height="26.0353" fill="white" transform="translate(7.20312 168.207)"/>
</clipPath>
</defs>
</svg>
