<svg width="252" height="250" viewBox="0 0 252 250" fill="none" xmlns="http://www.w3.org/2000/svg">
<g clip-path="url(#clip0_912_1467)">
<path d="M142.295 244.921C84.603 244.921 37.6709 198.016 37.6709 140.359C37.6709 82.701 84.603 35.7969 142.295 35.7969C199.987 35.7969 246.919 82.701 246.919 140.359C246.919 198.016 199.987 244.921 142.295 244.921Z" fill="#0D87C5"/>
<path opacity="0.1" d="M43.5718 174.974C57.8985 215.671 96.7416 244.92 142.295 244.92C187.848 244.92 226.696 215.665 241.023 174.968C227.549 133.332 188.445 103.215 142.295 103.215C96.1444 103.215 57.0407 133.332 43.5664 174.968L43.5718 174.974Z" fill="#33CFFF"/>
<path opacity="0.2" d="M60.292 205.224C79.472 229.395 109.102 244.923 142.294 244.923C175.486 244.923 205.116 229.39 224.296 205.219C223.401 160.724 187.033 124.926 142.294 124.926C97.5553 124.926 61.1877 160.724 60.292 205.219V205.224Z" fill="#33CFFF"/>
<path opacity="0.4" d="M142.294 140.359C105.52 140.359 75.71 170.151 75.71 206.904C75.71 212.248 76.3451 217.446 77.534 222.427C95.3623 236.506 117.859 244.921 142.294 244.921C166.729 244.921 189.226 236.506 207.055 222.427C208.244 217.446 208.879 212.248 208.879 206.904C208.879 170.151 179.069 140.359 142.294 140.359Z" fill="#33CFFF"/>
<path d="M142.294 40.8754C168.885 40.8754 193.879 51.222 212.684 70.0162C231.484 88.805 241.842 113.79 241.842 140.364C241.842 166.939 231.49 191.918 212.684 210.712C193.884 229.501 168.885 239.853 142.294 239.853C115.704 239.853 90.7097 229.507 71.9043 210.712C53.1043 191.924 42.7462 166.939 42.7462 140.364C42.7462 113.79 53.0989 88.8105 71.9043 70.0162C90.7043 51.2275 115.704 40.8754 142.294 40.8754ZM142.294 30.7188C81.7033 30.7188 32.5889 79.804 32.5889 140.359C32.5889 200.914 81.7033 249.999 142.294 249.999C202.885 249.999 252 200.914 252 140.359C252 79.804 202.885 30.7188 142.294 30.7188Z" fill="white"/>
<path d="M41.3299 8.86719C39.8641 31.2857 33.6535 37.498 11.2217 38.9575C33.6535 40.4224 39.8695 46.6292 41.3299 69.0478C42.7956 46.6292 49.0062 40.417 71.4381 38.9575C49.0062 37.4926 42.7902 31.2857 41.3299 8.86719Z" fill="white"/>
<path d="M77.089 77.0703C76.3778 87.9866 73.3486 91.0086 62.4258 91.7248C73.3486 92.4356 76.3724 95.463 77.089 106.379C77.8002 95.463 80.8294 92.441 91.7522 91.7248C80.8294 91.0141 77.8056 87.9866 77.089 77.0703Z" fill="#33CFFF"/>
<path d="M81.9211 0C80.971 14.5134 76.9537 18.5338 62.4316 19.4778C76.9537 20.4273 80.9765 24.4423 81.9211 38.9557C82.8711 24.4423 86.8884 20.4219 101.411 19.4778C86.8884 18.5284 82.8657 14.5134 81.9211 0Z" fill="#33CFFF"/>
<path d="M22.0953 59.2109C21.0204 75.6613 16.4602 80.2188 0 81.2931C16.4602 82.3673 21.0204 86.9248 22.0953 103.375C23.1702 86.9248 27.7304 82.3673 44.1905 81.2931C27.7304 80.2188 23.1702 75.6613 22.0953 59.2109Z" fill="#33CFFF"/>
<path d="M94.4773 110.461L86.4372 119.842C84.2005 122.451 83.3102 125.88 83.9996 129.244L89.1462 154.468C89.6673 157.023 91.4317 159.107 93.8638 160.045C96.2959 160.984 99.0049 160.626 101.106 159.09L110.319 152.352C102.284 140.589 96.8714 126.255 94.4773 110.461Z" fill="white"/>
<path d="M174.27 152.352L183.483 159.09C185.584 160.631 188.293 160.984 190.725 160.045C191.735 159.655 192.63 159.063 193.369 158.325C194.406 157.289 195.133 155.954 195.437 154.468L200.584 129.244C201.273 125.88 200.383 122.451 198.146 119.842L190.106 110.461C187.712 126.255 182.299 140.589 174.265 152.352H174.27Z" fill="white"/>
<path d="M165.741 149.822C166.018 149.546 166.273 149.247 166.507 148.922C169.96 144.082 172.793 138.917 175.074 133.578H109.51C111.795 138.917 114.624 144.082 118.076 148.922C119.439 150.831 121.654 151.944 123.999 151.944H160.584C162.533 151.944 164.39 151.173 165.741 149.822Z" fill="white"/>
<path d="M178.857 60.962C171.371 37.4476 155.28 20.7693 147.175 13.5045C144.395 11.0141 140.199 11.0141 137.419 13.5045C136.1 14.6873 134.569 16.1196 132.897 17.7907C124.303 26.3794 112.007 41.2726 105.737 60.962C100.753 76.6094 98.9778 101.876 106.437 125.288C106.605 125.266 106.774 125.255 106.947 125.255H177.641C177.815 125.255 177.983 125.271 178.152 125.288C185.611 101.876 183.836 76.6094 178.852 60.962H178.857ZM121.464 71.6993C121.464 60.2187 130.807 50.8813 142.294 50.8813C147.859 50.8813 153.087 53.0461 157.023 56.9797C160.959 60.9132 163.125 66.138 163.125 71.6993C163.125 77.4395 160.79 82.6427 157.017 86.4135C153.244 90.1842 148.038 92.5172 142.294 92.5172C136.73 92.5172 131.502 90.3524 127.566 86.4189C123.63 82.4853 121.464 77.2605 121.464 71.6993Z" fill="white"/>
<path d="M142.295 84.1903C149.184 84.1903 154.792 78.5857 154.792 71.7006C154.792 68.3639 153.495 65.2279 151.133 62.8678C148.772 60.5077 145.634 59.2109 142.295 59.2109C138.848 59.2109 135.726 60.6107 133.462 62.8732C131.198 65.1357 129.798 68.2554 129.798 71.7006C129.798 75.0374 131.095 78.1733 133.457 80.5335C135.818 82.8936 138.956 84.1903 142.295 84.1903Z" fill="white"/>
<path d="M170.607 243.472C172.121 242.712 173.663 242.018 175.232 241.394C170.878 235.431 161.616 221.563 152.36 200.051C152.36 200.051 164.021 232.919 170.607 243.472Z" fill="white"/>
<path d="M161.703 210.145C161.703 210.145 170.981 227.382 179.042 239.996C180.237 239.595 181.436 239.226 182.647 238.884C176.952 232.243 169.558 222.71 161.697 210.145H161.703Z" fill="white"/>
<path d="M108.886 243.398C108.967 243.409 109.049 243.409 109.13 243.425C110.645 243.729 112.159 244.033 113.669 244.332C120.346 231.175 129.597 205.094 129.597 205.094C121.671 223.519 113.734 236.351 108.886 243.393V243.398Z" fill="white"/>
<path d="M102.16 240.523C103.039 241.023 103.859 241.614 104.641 242.292C112.246 230.068 120.249 215.191 120.249 215.191C113.647 225.75 107.371 234.159 102.154 240.523H102.16Z" fill="white"/>
<path d="M124.667 189.907C125.818 189.907 126.861 189.44 127.615 188.686C128.37 187.932 128.837 186.89 128.837 185.74V166.517C128.837 164.216 126.969 162.355 124.673 162.355C122.371 162.355 120.509 164.222 120.509 166.517V185.74C120.509 188.04 122.376 189.901 124.673 189.901L124.667 189.907Z" fill="white"/>
<path d="M146.464 166.521C146.464 164.22 144.602 162.359 142.3 162.359C139.998 162.359 138.136 164.226 138.136 166.521V186.107C136.502 197.295 131.888 218.243 118.924 242.289C121.513 242.88 124.135 243.374 126.796 243.77C129.483 236.424 132.398 227.233 135.004 216.301C135.004 216.301 132.528 230.809 129.505 244.139C132.328 244.486 135.183 244.714 138.071 244.828C139.732 234.601 141.372 221.645 141.975 207.755C141.975 207.755 142.17 228.101 141.486 244.915C141.757 244.915 142.029 244.926 142.3 244.926C145.579 244.926 148.82 244.769 152.023 244.47C150.205 235.404 148.945 228.025 148.945 228.025C150.367 233.988 151.882 239.424 153.402 244.334C157.637 243.884 161.801 243.19 165.872 242.246C152.311 217.087 147.897 195.32 146.47 184.593V166.521H146.464Z" fill="white"/>
<path d="M159.922 189.907C161.073 189.907 162.115 189.44 162.87 188.686C163.625 187.932 164.091 186.89 164.091 185.74V166.517C164.091 164.216 162.224 162.355 159.928 162.355C157.631 162.355 155.764 164.222 155.764 166.517V185.74C155.764 188.04 157.631 189.901 159.928 189.901L159.922 189.907Z" fill="white"/>
</g>
<defs>
<clipPath id="clip0_912_1467">
<rect width="252" height="250" fill="white"/>
</clipPath>
</defs>
</svg>
