<svg width="252" height="250" viewBox="0 0 252 250" fill="none" xmlns="http://www.w3.org/2000/svg">
<g clip-path="url(#clip0_912_1551)">
<path d="M164.596 32.9877C158.201 24.041 151.529 17.4055 147.175 13.5045C144.396 11.0141 140.199 11.0141 137.42 13.5045C136.1 14.6873 134.57 16.1196 132.897 17.7907C129.048 21.6374 124.456 26.7483 119.999 32.9877C70.1024 43.2855 32.5947 87.4443 32.5947 140.36C32.5947 200.915 81.7092 250 142.3 250C202.891 250 252.006 200.915 252.006 140.36C252.006 87.4443 214.498 43.2855 164.602 32.9877H164.596ZM142.295 50.8813C147.859 50.8813 153.087 53.0461 157.023 56.9797C160.959 60.9132 163.125 66.138 163.125 71.6993C163.125 77.4395 160.791 82.6427 157.018 86.4135C153.245 90.1842 148.038 92.5172 142.295 92.5172C136.551 92.5172 131.502 90.3524 127.566 86.4189C123.63 82.4853 121.464 77.2605 121.464 71.6993C121.464 60.2242 130.807 50.8813 142.295 50.8813ZM148.94 228.021C149.9 232.052 150.905 235.834 151.925 239.382C151.632 239.409 151.334 239.431 151.035 239.458C149.759 232.834 148.94 228.021 148.94 228.021ZM141.66 239.838C140.72 239.833 139.781 239.811 138.847 239.778C140.221 230.479 141.459 219.454 141.969 207.751C141.969 207.751 142.126 224.267 141.66 239.833V239.838ZM130.596 239.165C129.895 239.084 129.2 238.992 128.506 238.899C130.683 232.486 132.935 224.939 134.998 216.307C134.998 216.307 133.098 227.446 130.596 239.165ZM212.685 210.708C202.658 220.729 190.872 228.347 178.016 233.273C173.179 227.213 167.571 219.525 161.703 210.138C161.703 210.138 168.456 222.693 175.454 234.212C174.053 234.705 172.647 235.167 171.225 235.595C166.344 228.184 159.352 216.291 152.36 200.041C152.36 200.041 160.525 223.057 167.05 236.751C165.856 237.055 164.656 237.337 163.445 237.597C151.773 214.425 147.8 194.654 146.464 184.589V166.517C146.464 164.216 144.602 162.355 142.3 162.355C139.998 162.355 138.136 164.222 138.136 166.517V186.103C136.611 196.564 132.474 215.559 121.345 237.641C119.971 237.348 118.609 237.028 117.252 236.68C123.234 223.051 129.602 205.093 129.602 205.093C123.994 218.136 118.375 228.368 113.853 235.736C112.377 235.297 110.911 234.825 109.456 234.32C115.286 224.424 120.254 215.184 120.254 215.184C115.802 222.303 111.502 228.444 107.572 233.642C94.3366 228.726 82.1924 220.984 71.9102 210.703C53.1102 191.914 42.752 166.929 42.752 140.355C42.752 113.78 53.1048 88.8007 71.9102 70.0065C83.3976 58.526 97.203 50.2031 112.268 45.4612C109.754 50.2194 107.507 55.3954 105.737 60.9566C100.753 76.604 98.9782 101.871 106.437 125.282C106.606 125.261 106.774 125.25 106.948 125.25H177.642C177.815 125.25 177.984 125.266 178.152 125.282C185.611 101.871 183.836 76.604 178.852 60.9566C177.083 55.3954 174.83 50.2248 172.316 45.4612C187.386 50.2031 201.192 58.526 212.679 70.0119C231.479 88.8007 241.837 113.786 241.837 140.36C241.837 166.935 231.485 191.914 212.679 210.708H212.685Z" fill="white"/>
<path d="M41.3299 69.0517C42.7956 46.6332 49.0062 40.4209 71.4381 38.9614C49.0062 37.4965 42.7902 31.2896 41.3299 8.87109C39.8641 31.2896 33.6535 37.5019 11.2217 38.9614C33.6535 40.4263 39.8695 46.6332 41.3299 69.0517Z" fill="white"/>
<path d="M77.089 77.0703C76.3778 87.9866 73.3486 91.0086 62.4258 91.7248C73.3486 92.4356 76.3724 95.463 77.089 106.379C77.8002 95.463 80.8294 92.441 91.7522 91.7248C80.8294 91.0141 77.8056 87.9866 77.089 77.0703Z" fill="white"/>
<path d="M81.9211 38.9596C82.8711 24.4462 86.8884 20.4258 101.411 19.4817C86.8884 18.5323 82.8657 14.5173 81.9211 0.00390625C80.971 14.5173 76.9537 18.5377 62.4316 19.4817C76.9537 20.4312 80.9765 24.4462 81.9211 38.9596Z" fill="white"/>
<path d="M22.0953 59.2109C21.0204 75.6613 16.4602 80.2188 0 81.2931C16.4602 82.3673 21.0204 86.9248 22.0953 103.375C23.1702 86.9248 27.7304 82.3673 44.1905 81.2931C27.7304 80.2188 23.1702 75.6613 22.0953 59.2109Z" fill="white"/>
<path d="M86.4372 119.834C84.2005 122.444 83.3102 125.873 83.9996 129.236L89.1462 154.46C89.6673 157.015 91.4317 159.099 93.8638 160.038C96.2959 160.976 99.0049 160.618 101.106 159.083L110.319 152.344C102.284 140.581 96.8714 126.247 94.4773 110.453L86.4372 119.834Z" fill="white"/>
<path d="M190.112 110.461C187.718 126.255 182.305 140.589 174.271 152.352L183.483 159.09C185.584 160.626 188.293 160.984 190.725 160.045C191.735 159.655 192.631 159.063 193.369 158.325C194.406 157.289 195.133 155.954 195.437 154.468L200.584 129.244C201.273 125.88 200.383 122.451 198.146 119.842L190.106 110.461H190.112Z" fill="white"/>
<path d="M109.516 133.578C111.801 138.917 114.63 144.082 118.082 148.922C119.445 150.831 121.66 151.944 124.005 151.944H160.59C162.539 151.944 164.395 151.173 165.747 149.822C166.024 149.546 166.279 149.247 166.513 148.922C169.965 144.082 172.799 138.917 175.079 133.578H109.516Z" fill="white"/>
<path d="M142.295 84.1903C149.184 84.1903 154.792 78.5857 154.792 71.7006C154.792 68.3639 153.495 65.2279 151.133 62.8678C148.772 60.5077 145.634 59.2109 142.295 59.2109C138.956 59.2109 135.726 60.6107 133.462 62.8732C131.198 65.1357 129.798 68.2554 129.798 71.7006C129.798 75.0374 131.095 78.1733 133.457 80.5335C135.818 82.8936 138.956 84.1903 142.295 84.1903Z" fill="white"/>
<path d="M124.667 162.361C122.365 162.361 120.503 164.227 120.503 166.522V185.745C120.503 188.046 122.37 189.907 124.667 189.907C125.818 189.907 126.86 189.44 127.615 188.686C128.369 187.932 128.836 186.89 128.836 185.74V166.517C128.836 164.216 126.969 162.355 124.672 162.355L124.667 162.361Z" fill="white"/>
<path d="M159.922 162.361C157.62 162.361 155.758 164.227 155.758 166.522V185.745C155.758 188.046 157.625 189.907 159.922 189.907C161.073 189.907 162.115 189.44 162.87 188.686C163.624 187.932 164.091 186.89 164.091 185.74V166.517C164.091 164.216 162.224 162.355 159.927 162.355L159.922 162.361Z" fill="white"/>
</g>
<defs>
<clipPath id="clip0_912_1551">
<rect width="252" height="250" fill="white"/>
</clipPath>
</defs>
</svg>
