<svg width="389" height="366" viewBox="0 0 389 366" fill="none" xmlns="http://www.w3.org/2000/svg">
<path d="M372.776 366.001H16.0866C7.19982 366.001 0 357.917 0 347.946V313.915C0 303.944 7.20385 295.859 16.0866 295.859H377.615C383.826 295.859 388.863 301.512 388.863 308.484V347.946C388.863 357.917 381.659 366.001 372.776 366.001Z" fill="white"/>
<g clip-path="url(#clip0_912_1367)">
<path d="M16.1636 319.142C18.1515 315.541 20.9237 312.736 24.4799 310.726C28.0361 308.716 32.0673 307.711 36.5733 307.711C42.0955 307.711 46.8224 309.169 50.7541 312.084C54.6859 315 57.3144 318.976 58.6397 324.012H46.1818C45.2541 322.068 43.9399 320.589 42.239 319.572C40.5382 318.556 38.6055 318.048 36.4408 318.048C32.9508 318.048 30.1235 319.263 27.9588 321.693C25.7942 324.123 24.7118 327.37 24.7118 331.434C24.7118 335.498 25.7942 338.745 27.9588 341.175C30.1235 343.605 32.9508 344.82 36.4408 344.82C38.6055 344.82 40.5382 344.311 42.239 343.295C43.9399 342.279 45.2541 340.799 46.1818 338.856H58.6397C57.3144 343.892 54.6859 347.857 50.7541 350.75C46.8224 353.644 42.0955 355.091 36.5733 355.091C32.0673 355.091 28.0361 354.086 24.4799 352.076C20.9237 350.066 18.1515 347.271 16.1636 343.693C14.1756 340.115 13.1816 336.028 13.1816 331.434C13.1816 326.84 14.1756 322.742 16.1636 319.142Z" fill="#343433"/>
<path d="M100.254 334.914C101.889 337.012 102.706 339.409 102.706 342.104C102.706 345.991 101.348 349.073 98.631 351.348C95.9141 353.623 92.1259 354.76 87.2665 354.76H65.5977V308.242H86.5375C91.2645 308.242 94.9643 309.325 97.637 311.489C100.31 313.654 101.646 316.592 101.646 320.302C101.646 323.041 100.928 325.317 99.4924 327.128C98.0567 328.939 96.146 330.198 93.7605 330.905C96.4553 331.479 98.6199 332.816 100.254 334.914ZM76.929 327.062H84.3508C86.2062 327.062 87.6309 326.653 88.6249 325.836C89.6189 325.018 90.1159 323.815 90.1159 322.224C90.1159 320.634 89.6189 319.419 88.6249 318.58C87.6309 317.74 86.2062 317.321 84.3508 317.321H76.929V327.062ZM89.6851 344.324C90.7233 343.462 91.2424 342.214 91.2424 340.58C91.2424 338.945 90.7012 337.664 89.6189 336.736C88.5365 335.809 87.0456 335.345 85.146 335.345H76.929V345.616H85.2785C87.1781 345.616 88.647 345.185 89.6851 344.324Z" fill="#343433"/>
<path d="M140.146 322.952C139.307 321.406 138.103 320.224 136.535 319.407C134.966 318.589 133.122 318.181 131.001 318.181C127.335 318.181 124.397 319.385 122.188 321.792C119.979 324.2 118.875 327.414 118.875 331.434C118.875 335.719 120.035 339.065 122.354 341.473C124.673 343.881 127.865 345.085 131.929 345.085C134.712 345.085 137.065 344.378 138.986 342.964C140.908 341.55 142.311 339.518 143.194 336.868H128.815V328.518H153.465V339.054C152.626 341.882 151.201 344.51 149.191 346.94C147.181 349.37 144.63 351.336 141.538 352.838C138.445 354.34 134.955 355.091 131.068 355.091C126.473 355.091 122.376 354.086 118.776 352.076C115.175 350.066 112.37 347.271 110.36 343.693C108.35 340.115 107.345 336.028 107.345 331.434C107.345 326.84 108.35 322.742 110.36 319.142C112.37 315.541 115.164 312.736 118.742 310.726C122.321 308.716 126.407 307.711 131.001 307.711C136.568 307.711 141.262 309.058 145.083 311.753C148.904 314.448 151.433 318.181 152.67 322.952H140.146Z" fill="#343433"/>
<path d="M171.092 317.321V326.73H186.267V335.477H171.092V345.682H188.255V354.76H159.761V308.242H188.255V317.321H171.092Z" fill="#343433"/>
<path d="M237.225 354.76H225.894L206.942 326.068V354.76H195.61V308.242H206.942L225.894 337.068V308.242H237.225V354.76Z" fill="#343433"/>
<path d="M256.774 317.321V326.73H271.949V335.477H256.774V345.682H273.937V354.76H245.442V308.242H273.937V317.321H256.774Z" fill="#343433"/>
<path d="M288.973 353.566C286.278 352.462 284.125 350.827 282.512 348.663C280.9 346.498 280.049 343.892 279.961 340.843H292.021C292.198 342.566 292.794 343.88 293.81 344.786C294.826 345.692 296.152 346.145 297.786 346.145C299.421 346.145 300.79 345.758 301.762 344.985C302.734 344.212 303.22 343.141 303.22 341.771C303.22 340.622 302.834 339.673 302.06 338.922C301.287 338.171 300.338 337.552 299.211 337.066C298.085 336.58 296.483 336.028 294.407 335.41C291.403 334.482 288.951 333.554 287.051 332.626C285.152 331.699 283.517 330.329 282.148 328.518C280.778 326.707 280.093 324.343 280.093 321.428C280.093 317.098 281.662 313.708 284.798 311.256C287.935 308.804 292.021 307.578 297.057 307.578C302.094 307.578 306.313 308.804 309.449 311.256C312.586 313.708 314.264 317.12 314.485 321.494H302.226C302.138 319.992 301.586 318.81 300.569 317.949C299.553 317.087 298.25 316.656 296.66 316.656C295.29 316.656 294.186 317.021 293.347 317.75C292.507 318.479 292.088 319.528 292.088 320.897C292.088 322.399 292.794 323.57 294.208 324.41C295.622 325.249 297.831 326.155 300.835 327.126C303.839 328.142 306.279 329.114 308.157 330.042C310.034 330.97 311.658 332.317 313.027 334.084C314.397 335.851 315.082 338.126 315.082 340.91C315.082 343.693 314.408 345.968 313.061 348.133C311.713 350.297 309.758 352.02 307.196 353.301C304.634 354.582 301.608 355.223 298.118 355.223C294.628 355.223 291.668 354.671 288.973 353.566Z" fill="#343433"/>
<path d="M333.37 308.242V354.76H322.039V308.242H333.37Z" fill="#343433"/>
<path d="M349.275 353.566C346.58 352.462 344.426 350.827 342.814 348.663C341.201 346.498 340.351 343.892 340.263 340.843H352.323C352.5 342.566 353.096 343.88 354.112 344.786C355.128 345.692 356.454 346.145 358.088 346.145C359.723 346.145 361.092 345.758 362.064 344.985C363.036 344.212 363.522 343.141 363.522 341.771C363.522 340.622 363.135 339.673 362.362 338.922C361.589 338.171 360.639 337.552 359.513 337.066C358.386 336.58 356.785 336.028 354.709 335.41C351.705 334.482 349.253 333.554 347.353 332.626C345.454 331.699 343.819 330.329 342.449 328.518C341.08 326.707 340.395 324.343 340.395 321.428C340.395 317.098 341.964 313.708 345.1 311.256C348.237 308.804 352.323 307.578 357.359 307.578C362.395 307.578 366.614 308.804 369.751 311.256C372.887 313.708 374.566 317.12 374.787 321.494H362.528C362.44 319.992 361.887 318.81 360.871 317.949C359.855 317.087 358.552 316.656 356.962 316.656C355.592 316.656 354.488 317.021 353.648 317.75C352.809 318.479 352.389 319.528 352.389 320.897C352.389 322.399 353.096 323.57 354.51 324.41C355.923 325.249 358.132 326.155 361.136 327.126C364.14 328.142 366.581 329.114 368.459 330.042C370.336 330.97 371.96 332.317 373.329 334.084C374.699 335.851 375.383 338.126 375.383 340.91C375.383 343.693 374.71 345.968 373.362 348.133C372.015 350.297 370.06 352.02 367.498 353.301C364.936 354.582 361.909 355.223 358.419 355.223C354.929 355.223 351.97 354.671 349.275 353.566Z" fill="#343433"/>
</g>
<path d="M314.378 4.03125H74.2615C60.955 4.03125 50.168 14.8084 50.168 28.1027V267.999C50.168 281.293 60.955 292.07 74.2615 292.07H314.378C327.684 292.07 338.472 281.293 338.472 267.999V28.1027C338.472 14.8084 327.684 4.03125 314.378 4.03125Z" fill="#343433"/>
<path d="M314.382 296.103H74.2656C58.7561 296.103 46.1362 283.495 46.1362 268V28.1035C46.1322 12.6083 58.7521 0 74.2656 0H314.382C329.892 0 342.511 12.6083 342.511 28.1035V268C342.511 283.495 329.892 296.103 314.382 296.103ZM74.2656 8.06414C63.2035 8.06414 54.2078 17.0557 54.2078 28.1035V268C54.2078 279.052 63.2076 288.039 74.2656 288.039H314.382C325.444 288.039 334.44 279.048 334.44 268V28.1035C334.44 17.0516 325.44 8.06414 314.382 8.06414H74.2656Z" fill="white"/>
<path d="M196.428 233.889C153.54 233.889 118.65 199.031 118.65 156.183C118.65 113.334 153.54 78.4766 196.428 78.4766C239.316 78.4766 274.205 113.334 274.205 156.183C274.205 199.031 239.316 233.889 196.428 233.889Z" fill="#0D87C5"/>
<path d="M196.428 82.2512C216.195 82.2512 234.776 89.9403 248.756 103.907C262.732 117.87 270.432 136.438 270.432 156.187C270.432 175.936 262.736 194.5 248.756 208.467C234.78 222.43 216.195 230.123 196.428 230.123C176.661 230.123 158.08 222.434 144.1 208.467C130.124 194.504 122.424 175.936 122.424 156.187C122.424 136.438 130.12 117.875 144.1 103.907C158.076 89.9444 176.661 82.2512 196.428 82.2512ZM196.428 74.7031C151.385 74.7031 114.873 111.181 114.873 156.183C114.873 201.185 151.385 237.663 196.428 237.663C241.471 237.663 277.983 201.185 277.983 156.183C277.983 111.181 241.471 74.7031 196.428 74.7031Z" fill="white"/>
<mask id="mask0_912_1367" style="mask-type:luminance" maskUnits="userSpaceOnUse" x="122" y="82" width="149" height="149">
<path d="M196.428 230.214C237.353 230.214 270.529 197.069 270.529 156.181C270.529 115.294 237.353 82.1484 196.428 82.1484C155.503 82.1484 122.327 115.294 122.327 156.181C122.327 197.069 155.503 230.214 196.428 230.214Z" fill="white"/>
</mask>
<g mask="url(#mask0_912_1367)">
<path opacity="0.1" d="M196.427 282.692C239.022 282.692 273.551 248.194 273.551 205.639C273.551 163.084 239.022 128.586 196.427 128.586C153.833 128.586 119.304 163.084 119.304 205.639C119.304 248.194 153.833 282.692 196.427 282.692Z" fill="#33CFFF"/>
<path opacity="0.2" d="M239.544 248.718C263.357 224.927 263.357 186.354 239.544 162.563C215.731 138.772 177.123 138.772 153.31 162.563C129.497 186.354 129.497 224.927 153.31 248.718C177.123 272.509 215.731 272.509 239.544 248.718Z" fill="#33CFFF"/>
<path opacity="0.4" d="M245.295 213.576C249.675 186.616 231.351 161.214 204.367 156.838C177.382 152.462 151.957 170.769 147.576 197.729C143.196 224.688 161.521 250.091 188.505 254.467C215.489 258.843 240.915 240.535 245.295 213.576Z" fill="#33CFFF"/>
<path d="M209.673 256.48C206.13 249.202 201.368 221.324 201.368 221.324C206.457 242.622 213.092 255.077 214.173 257.016H231.128C199.992 220.252 199.023 183.762 199.023 183.762H193.99C193.99 183.762 193.026 220.252 161.886 257.016H212.769L209.669 256.48H209.673ZM178.045 248.577C178.045 248.577 185.447 235.868 191 212.619C191 212.619 186.242 240.497 182.694 247.775L178.041 248.581L178.045 248.577ZM194.422 248.614L190.007 250.287C190.007 250.287 195.145 230.143 196.186 206.265C196.186 206.265 196.521 240.799 194.418 248.618L194.422 248.614Z" fill="white"/>
<path d="M203.91 200.539C203.91 200.539 213.37 227.191 218.104 233.759H222.826C222.826 233.759 213.358 222.498 203.91 200.539Z" fill="white"/>
<path d="M210.855 208.043C210.855 208.043 224.262 232.949 229.945 238.719L234.61 238.001C234.61 238.001 223.54 228.312 210.855 208.043Z" fill="white"/>
<path d="M186.988 204.289C186.988 204.289 177.532 230.945 172.794 237.509H168.072C168.072 237.509 177.54 226.248 186.988 204.289Z" fill="white"/>
<path d="M180.043 211.789C180.043 211.789 166.636 236.695 160.953 242.465L156.288 241.747C156.288 241.747 167.358 232.058 180.043 211.789Z" fill="white"/>
</g>
<path d="M121.371 58.4648C120.282 75.1254 115.665 79.7421 98.9888 80.8267C115.665 81.9154 120.286 86.5281 121.371 103.189C122.461 86.5281 127.078 81.9113 143.754 80.8267C127.078 79.738 122.457 75.1254 121.371 58.4648Z" fill="white"/>
<path d="M147.954 109.148C147.426 117.261 145.174 119.507 137.054 120.039C145.174 120.567 147.422 122.817 147.954 130.93C148.483 122.817 150.735 120.571 158.855 120.039C150.735 119.511 148.487 117.261 147.954 109.148Z" fill="#33CFFF"/>
<path d="M151.546 51.875C150.84 62.6608 147.853 65.6486 137.058 66.3501C147.853 67.0557 150.844 70.0395 151.546 80.8253C152.252 70.0395 155.239 67.0517 166.034 66.3501C155.239 65.6445 152.248 62.6608 151.546 51.875Z" fill="#33CFFF"/>
<path d="M107.072 95.875C106.273 108.1 102.883 111.487 90.6465 112.286C102.883 113.084 106.273 116.471 107.072 128.696C107.871 116.471 111.261 113.084 123.498 112.286C111.261 111.487 107.871 108.1 107.072 95.875Z" fill="#33CFFF"/>
<path d="M160.881 133.969L154.904 140.94C153.241 142.88 152.579 145.428 153.091 147.928L156.917 166.673C157.305 168.572 158.616 170.12 160.424 170.818C162.233 171.515 164.246 171.249 165.808 170.108L172.657 165.1C166.684 156.359 162.66 145.706 160.881 133.969Z" fill="white"/>
<path d="M220.198 165.1L227.047 170.108C228.609 171.253 230.623 171.515 232.431 170.818C233.181 170.528 233.847 170.088 234.396 169.54C235.167 168.77 235.708 167.778 235.934 166.673L239.76 147.928C240.272 145.428 239.61 142.88 237.948 140.94L231.971 133.969C230.191 145.706 226.167 156.359 220.194 165.1H220.198Z" fill="white"/>
<path d="M213.858 163.22C214.064 163.015 214.254 162.793 214.427 162.551C216.994 158.955 219.101 155.116 220.796 151.148H172.056C173.755 155.116 175.857 158.955 178.424 162.551C179.437 163.97 181.084 164.797 182.827 164.797H210.024C211.473 164.797 212.853 164.224 213.858 163.22Z" fill="white"/>
<path d="M223.609 97.18C218.044 79.705 206.081 67.3104 200.056 61.9115C197.99 60.0608 194.87 60.0608 192.804 61.9115C191.823 62.7905 190.685 63.8549 189.442 65.0968C183.053 71.4796 173.912 82.5476 169.251 97.18C165.546 108.808 164.226 127.586 169.772 144.984C169.897 144.968 170.022 144.96 170.151 144.96H222.705C222.834 144.96 222.959 144.972 223.084 144.984C228.629 127.586 227.31 108.808 223.605 97.18H223.609ZM180.943 105.159C180.943 96.6276 187.888 89.6884 196.428 89.6884C200.565 89.6884 204.451 91.2972 207.377 94.2205C210.303 97.1437 211.913 101.027 211.913 105.159C211.913 109.425 210.178 113.292 207.373 116.094C204.568 118.897 200.698 120.631 196.428 120.631C192.291 120.631 188.405 119.022 185.479 116.098C182.553 113.175 180.943 109.292 180.943 105.159Z" fill="white"/>
<path d="M196.428 114.443C201.549 114.443 205.718 110.277 205.718 105.161C205.718 102.681 204.754 100.35 202.998 98.5965C201.243 96.8426 198.91 95.8789 196.428 95.8789C193.865 95.8789 191.545 96.9192 189.862 98.6006C188.179 100.282 187.138 102.6 187.138 105.161C187.138 107.64 188.102 109.971 189.858 111.725C191.613 113.479 193.946 114.443 196.428 114.443Z" fill="white"/>
<path d="M185.514 192.103C186.075 191.542 186.422 190.768 186.422 189.913V175.628C186.422 173.918 185.034 172.535 183.327 172.535C181.616 172.535 180.231 173.922 180.231 175.628V189.913C180.231 191.623 181.62 193.006 183.327 193.006C184.182 193.006 184.957 192.659 185.518 192.099L185.514 192.103Z" fill="white"/>
<path d="M196.428 172.535C194.717 172.535 193.333 173.922 193.333 175.628V203.094C193.333 204.804 194.721 206.187 196.428 206.187C197.284 206.187 198.059 205.84 198.62 205.28C199.181 204.719 199.528 203.945 199.528 203.09V175.624C199.528 173.914 198.14 172.531 196.432 172.531L196.428 172.535Z" fill="white"/>
<path d="M206.437 175.628V189.914C206.437 191.623 207.825 193.006 209.532 193.006C210.388 193.006 211.162 192.659 211.723 192.099C212.284 191.538 212.631 190.764 212.631 189.909V175.624C212.631 173.914 211.243 172.531 209.536 172.531C207.825 172.531 206.441 173.918 206.441 175.624L206.437 175.628Z" fill="white"/>
<defs>
<clipPath id="clip0_912_1367">
<rect width="362.201" height="47.6448" fill="white" transform="translate(13.1816 307.578)"/>
</clipPath>
</defs>
</svg>
