<svg width="504" height="500" viewBox="0 0 504 500" fill="none" xmlns="http://www.w3.org/2000/svg">
<g clip-path="url(#clip0_912_1280)">
<path d="M284.589 489.845C169.205 489.845 75.3408 396.037 75.3408 280.721C75.3408 165.406 169.205 71.5977 284.589 71.5977C399.973 71.5977 493.837 165.406 493.837 280.721C493.837 396.037 399.973 489.845 284.589 489.845Z" fill="#0D87C5"/>
<path opacity="0.1" d="M87.1437 349.951C115.797 431.346 193.483 489.844 284.59 489.844C375.696 489.844 453.393 431.335 482.046 349.94C455.098 266.668 376.89 206.434 284.59 206.434C192.289 206.434 114.081 266.668 87.1328 349.94L87.1437 349.951Z" fill="#33CFFF"/>
<path opacity="0.2" d="M120.585 410.445C158.945 458.787 218.206 489.843 284.589 489.843C350.973 489.843 410.234 458.776 448.594 410.434C446.802 321.444 374.067 249.848 284.589 249.848C195.112 249.848 122.376 321.444 120.585 410.434V410.445Z" fill="#33CFFF"/>
<path opacity="0.4" d="M284.59 280.719C211.04 280.719 151.421 340.302 151.421 413.808C151.421 424.497 152.691 434.892 155.069 444.853C190.725 473.012 235.719 489.842 284.59 489.842C333.46 489.842 378.454 473.012 414.11 444.853C416.488 434.892 417.758 424.497 417.758 413.808C417.758 340.302 358.139 280.719 284.59 280.719Z" fill="#33CFFF"/>
<path d="M284.59 81.7509C337.77 81.7509 387.759 102.444 425.37 140.032C462.969 177.61 483.686 227.58 483.686 280.729C483.686 333.878 462.98 383.836 425.37 421.425C387.77 459.002 337.77 479.706 284.59 479.706C231.409 479.706 181.42 459.013 143.81 421.425C106.21 383.847 85.4933 333.878 85.4933 280.729C85.4933 227.58 106.199 177.621 143.81 140.032C181.41 102.455 231.409 81.7509 284.59 81.7509ZM284.59 61.4375C163.408 61.4375 65.1787 159.608 65.1787 280.718C65.1787 401.828 163.408 499.998 284.59 499.998C405.771 499.998 504 401.828 504 280.718C504 159.608 405.771 61.4375 284.59 61.4375Z" fill="white"/>
<path d="M82.6588 17.7305C79.7272 62.5675 67.3061 74.9921 22.4424 77.911C67.3061 80.8409 79.7381 93.2546 82.6588 138.092C85.5903 93.2546 98.0114 80.83 142.875 77.911C98.0114 74.9812 85.5795 62.5675 82.6588 17.7305Z" fill="white"/>
<path d="M154.178 154.141C152.756 175.973 146.697 182.017 124.852 183.45C146.697 184.871 152.745 190.926 154.178 212.759C155.6 190.926 161.659 184.882 183.504 183.45C161.659 182.028 155.611 175.973 154.178 154.141Z" fill="#33CFFF"/>
<path d="M163.841 0C161.941 29.0269 153.906 37.0676 124.862 38.9557C153.906 40.8546 161.952 48.8845 163.841 77.9114C165.741 48.8845 173.776 40.8438 202.82 38.9557C173.776 37.0567 165.73 29.0269 163.841 0Z" fill="#33CFFF"/>
<path d="M44.1905 118.418C42.0407 151.319 32.9203 160.434 0 162.582C32.9203 164.731 42.0407 173.846 44.1905 206.746C46.3403 173.846 55.4607 164.731 88.381 162.582C55.4607 160.434 46.3403 151.319 44.1905 118.418Z" fill="#33CFFF"/>
<path d="M188.955 220.918L172.875 239.68C168.402 244.899 166.621 251.757 168 258.485L178.293 308.932C179.336 314.043 182.864 318.21 187.729 320.087C192.593 321.964 198.011 321.248 202.213 318.177L220.638 304.7C204.569 281.174 193.744 252.506 188.955 220.918Z" fill="white"/>
<path d="M348.54 304.7L366.966 318.177C371.167 321.259 376.585 321.964 381.45 320.087C383.469 319.305 385.261 318.123 386.737 316.647C388.811 314.574 390.266 311.905 390.874 308.932L401.167 258.485C402.546 251.757 400.765 244.899 396.292 239.68L380.212 220.918C375.424 252.506 364.599 281.174 348.529 304.7H348.54Z" fill="white"/>
<path d="M331.483 299.645C332.037 299.091 332.547 298.494 333.014 297.843C339.919 288.164 345.587 277.834 350.147 267.156H219.02C223.591 277.834 229.247 288.164 236.153 297.843C238.878 301.663 243.308 303.887 247.999 303.887H321.168C325.066 303.887 328.779 302.347 331.483 299.645Z" fill="white"/>
<path d="M357.716 121.924C342.743 74.8951 310.561 41.5387 294.351 27.009C288.791 22.0283 280.398 22.0283 274.839 27.009C272.201 29.3745 269.139 32.2392 265.795 35.5814C248.607 52.7588 224.015 82.5452 211.474 121.924C201.507 153.219 197.957 203.753 212.875 250.576C213.212 250.532 213.548 250.51 213.896 250.51H355.284C355.631 250.51 355.968 250.543 356.304 250.576C371.223 203.753 367.672 153.219 357.705 121.924H357.716ZM242.929 143.399C242.929 120.437 261.615 101.763 284.59 101.763C295.719 101.763 306.174 106.092 314.046 113.959C321.918 121.826 326.25 132.276 326.25 143.399C326.25 154.879 321.581 165.285 314.035 172.827C306.489 180.368 296.077 185.034 284.59 185.034C273.46 185.034 263.005 180.705 255.133 172.838C247.261 164.971 242.929 154.521 242.929 143.399Z" fill="white"/>
<path d="M284.589 168.377C298.367 168.377 309.583 157.167 309.583 143.397C309.583 136.724 306.988 130.452 302.265 125.732C297.542 121.011 291.266 118.418 284.589 118.418C277.694 118.418 271.451 121.218 266.924 125.743C262.396 130.267 259.595 136.507 259.595 143.397C259.595 150.071 262.19 156.343 266.913 161.063C271.636 165.783 277.912 168.377 284.589 168.377Z" fill="white"/>
<path d="M341.211 486.947C344.241 485.428 347.324 484.039 350.462 482.791C341.754 470.866 323.231 443.13 304.719 400.105C304.719 400.105 328.041 465.842 341.211 486.947Z" fill="white"/>
<path d="M323.404 420.289C323.404 420.289 341.96 454.763 358.084 479.992C360.472 479.189 362.872 478.451 365.293 477.768C353.903 464.486 339.115 445.42 323.394 420.289H323.404Z" fill="white"/>
<path d="M217.771 486.797C217.934 486.818 218.097 486.818 218.26 486.851C221.289 487.459 224.319 488.066 227.337 488.663C240.692 462.349 259.193 410.188 259.193 410.188C243.341 447.038 227.467 472.701 217.771 486.786V486.797Z" fill="white"/>
<path d="M204.318 481.043C206.077 482.041 207.717 483.224 209.28 484.58C224.492 460.133 240.496 430.379 240.496 430.379C227.293 451.495 214.742 468.315 204.308 481.043H204.318Z" fill="white"/>
<path d="M249.335 379.813C251.636 379.813 253.721 378.88 255.23 377.372C256.739 375.863 257.673 373.78 257.673 371.479V333.034C257.673 328.433 253.938 324.711 249.345 324.711C244.742 324.711 241.018 328.444 241.018 333.034V371.479C241.018 376.08 244.753 379.802 249.345 379.802L249.335 379.813Z" fill="white"/>
<path d="M292.927 333.046C292.927 328.445 289.203 324.723 284.6 324.723C279.996 324.723 276.272 328.455 276.272 333.046V372.218C273.004 394.593 263.775 436.49 237.847 484.582C243.026 485.765 248.27 486.752 253.59 487.544C258.965 472.852 264.795 454.47 270.007 432.605C270.007 432.605 265.056 461.621 259.008 488.282C264.654 488.977 270.365 489.432 276.142 489.66C279.464 469.206 282.743 443.293 283.948 415.514C283.948 415.514 284.339 456.206 282.971 489.834C283.514 489.834 284.057 489.856 284.6 489.856C291.158 489.856 297.64 489.541 304.046 488.944C300.408 470.812 297.889 456.054 297.889 456.054C300.734 467.98 303.763 478.853 306.803 488.673C315.272 487.772 323.6 486.383 331.743 484.495C304.621 434.178 295.794 390.643 292.938 369.191V333.046H292.927Z" fill="white"/>
<path d="M319.843 379.813C322.145 379.813 324.23 378.88 325.739 377.372C327.248 375.863 328.182 373.78 328.182 371.479V333.034C328.182 328.433 324.447 324.711 319.854 324.711C315.261 324.711 311.526 328.444 311.526 333.034V371.479C311.526 376.08 315.261 379.802 319.854 379.802L319.843 379.813Z" fill="white"/>
</g>
<defs>
<clipPath id="clip0_912_1280">
<rect width="504" height="500" fill="white"/>
</clipPath>
</defs>
</svg>
