<svg width="638" height="600" viewBox="0 0 638 600" fill="none" xmlns="http://www.w3.org/2000/svg">
<path d="M611.109 599.998H26.3715C11.803 599.998 0 586.745 0 570.399V514.611C0 498.265 11.8096 485.012 26.3715 485.012H619.041C629.223 485.012 637.48 494.279 637.48 505.707V570.399C637.48 586.745 625.671 599.998 611.109 599.998Z" fill="white"/>
<g clip-path="url(#clip0_912_1230)">
<path d="M26.4978 523.18C29.7568 517.278 34.3012 512.679 40.1311 509.384C45.961 506.089 52.5695 504.441 59.9564 504.441C69.0091 504.441 76.7582 506.831 83.2037 511.611C89.6491 516.391 93.9582 522.909 96.1308 531.165H75.7081C74.1872 527.978 72.0327 525.552 69.2445 523.886C66.4562 522.221 63.2878 521.388 59.7392 521.388C54.0179 521.388 49.3829 523.379 45.8343 527.363C42.2856 531.346 40.5113 536.669 40.5113 543.331C40.5113 549.994 42.2856 555.317 45.8343 559.3C49.3829 563.283 54.0179 565.275 59.7392 565.275C63.2878 565.275 66.4562 564.442 69.2445 562.776C72.0327 561.111 74.1872 558.685 75.7081 555.498H96.1308C93.9582 563.754 89.6491 570.254 83.2037 574.997C76.7582 579.741 69.0091 582.113 59.9564 582.113C52.5695 582.113 45.961 580.465 40.1311 577.17C34.3012 573.875 29.7568 569.294 26.4978 563.428C23.2389 557.562 21.6094 550.863 21.6094 543.331C21.6094 535.8 23.2389 529.083 26.4978 523.18Z" fill="#343433"/>
<path d="M164.352 549.033C167.031 552.473 168.371 556.402 168.371 560.819C168.371 567.192 166.144 572.244 161.69 575.973C157.236 579.703 151.026 581.568 143.06 581.568H107.537V505.309H141.865C149.614 505.309 155.679 507.083 160.061 510.632C164.442 514.18 166.633 518.996 166.633 525.08C166.633 529.57 165.456 533.299 163.102 536.269C160.749 539.238 157.616 541.302 153.706 542.461C158.123 543.402 161.672 545.593 164.352 549.033ZM126.113 536.16H138.28C141.322 536.16 143.657 535.49 145.287 534.15C146.916 532.81 147.731 530.837 147.731 528.23C147.731 525.623 146.916 523.631 145.287 522.255C143.657 520.879 141.322 520.191 138.28 520.191H126.113V536.16ZM147.025 564.458C148.727 563.046 149.578 561 149.578 558.321C149.578 555.641 148.69 553.541 146.916 552.02C145.142 550.499 142.698 549.739 139.584 549.739H126.113V566.577H139.801C142.915 566.577 145.323 565.871 147.025 564.458Z" fill="#343433"/>
<path d="M229.748 529.427C228.372 526.892 226.398 524.955 223.827 523.615C221.256 522.275 218.233 521.605 214.757 521.605C208.746 521.605 203.93 523.579 200.309 527.526C196.688 531.473 194.877 536.741 194.877 543.331C194.877 550.356 196.778 555.842 200.58 559.789C204.382 563.736 209.615 565.71 216.278 565.71C220.84 565.71 224.696 564.551 227.847 562.233C230.997 559.916 233.297 556.584 234.745 552.239H211.172V538.552H251.583V555.824C250.207 560.459 247.871 564.768 244.576 568.751C241.281 572.734 237.099 575.957 232.029 578.419C226.96 580.882 221.238 582.113 214.865 582.113C207.333 582.113 200.616 580.465 194.714 577.17C188.812 573.875 184.213 569.294 180.918 563.428C177.623 557.562 175.975 550.863 175.975 543.331C175.975 535.8 177.623 529.083 180.918 523.18C184.213 517.278 188.794 512.679 194.66 509.384C200.526 506.089 207.225 504.441 214.757 504.441C223.882 504.441 231.577 506.65 237.841 511.068C244.105 515.486 248.252 521.605 250.279 529.427H229.748Z" fill="#343433"/>
<path d="M280.479 520.191V535.617H305.356V549.956H280.479V566.685H308.615V581.568H261.903V505.309H308.615V520.191H280.479Z" fill="#343433"/>
<path d="M388.894 581.568H370.318L339.249 534.53V581.568H320.673V505.309H339.249L370.318 552.563V505.309H388.894V581.568Z" fill="#343433"/>
<path d="M420.94 520.191V535.617H445.817V549.956H420.94V566.685H449.076V581.568H402.364V505.309H449.076V520.191H420.94Z" fill="#343433"/>
<path d="M473.726 579.613C469.308 577.802 465.778 575.123 463.134 571.574C460.491 568.025 459.097 563.753 458.952 558.756H478.723C479.013 561.58 479.991 563.735 481.656 565.219C483.322 566.704 485.495 567.446 488.174 567.446C490.854 567.446 493.099 566.812 494.692 565.545C496.285 564.278 497.082 562.521 497.082 560.276C497.082 558.394 496.448 556.836 495.181 555.605C493.914 554.374 492.356 553.36 490.51 552.564C488.663 551.767 486.038 550.862 482.634 549.848C477.709 548.327 473.69 546.806 470.576 545.285C467.462 543.764 464.782 541.519 462.537 538.55C460.292 535.581 459.169 531.706 459.169 526.927C459.169 519.829 461.74 514.271 466.882 510.252C472.024 506.232 478.723 504.223 486.979 504.223C495.235 504.223 502.151 506.232 507.293 510.252C512.435 514.271 515.187 519.866 515.549 527.035H495.452C495.308 524.573 494.402 522.636 492.737 521.223C491.071 519.811 488.935 519.105 486.327 519.105C484.082 519.105 482.272 519.703 480.896 520.898C479.52 522.093 478.832 523.813 478.832 526.058C478.832 528.52 479.991 530.439 482.308 531.815C484.625 533.191 488.247 534.676 493.171 536.269C498.096 537.935 502.097 539.528 505.175 541.049C508.253 542.57 510.914 544.778 513.159 547.675C515.405 550.572 516.527 554.302 516.527 558.864C516.527 563.427 515.423 567.156 513.214 570.705C511.005 574.254 507.8 577.078 503.6 579.178C499.399 581.279 494.439 582.329 488.717 582.329C482.996 582.329 478.144 581.423 473.726 579.613Z" fill="#343433"/>
<path d="M546.51 505.309V581.568H527.934V505.309H546.51Z" fill="#343433"/>
<path d="M572.581 579.613C568.163 577.802 564.633 575.123 561.989 571.574C559.346 568.025 557.952 563.753 557.807 558.756H577.578C577.868 561.58 578.846 563.735 580.511 565.219C582.177 566.704 584.35 567.446 587.029 567.446C589.709 567.446 591.954 566.812 593.547 565.545C595.14 564.278 595.937 562.521 595.937 560.276C595.937 558.394 595.303 556.836 594.036 555.605C592.769 554.374 591.211 553.36 589.365 552.564C587.518 551.767 584.893 550.862 581.489 549.848C576.564 548.327 572.545 546.806 569.431 545.285C566.317 543.764 563.637 541.519 561.392 538.55C559.147 535.581 558.024 531.706 558.024 526.927C558.024 519.829 560.595 514.271 565.737 510.252C570.879 506.232 577.578 504.223 585.834 504.223C594.09 504.223 601.006 506.232 606.148 510.252C611.29 514.271 614.042 519.866 614.404 527.035H594.307C594.163 524.573 593.257 522.636 591.592 521.223C589.926 519.811 587.79 519.105 585.182 519.105C582.937 519.105 581.127 519.703 579.751 520.898C578.375 522.093 577.687 523.813 577.687 526.058C577.687 528.52 578.845 530.439 581.163 531.815C583.48 533.191 587.102 534.676 592.026 536.269C596.951 537.935 600.952 539.528 604.03 541.049C607.108 542.57 609.769 544.778 612.014 547.675C614.259 550.572 615.382 554.302 615.382 558.864C615.382 563.427 614.278 567.156 612.069 570.705C609.86 574.254 606.655 577.078 602.455 579.178C598.254 581.279 593.294 582.329 587.572 582.329C581.851 582.329 576.999 581.423 572.581 579.613Z" fill="#343433"/>
</g>
<path d="M515.373 6.60938H121.74C99.9259 6.60938 82.2422 24.2768 82.2422 46.0707V439.342C82.2422 461.136 99.9259 478.803 121.74 478.803H515.373C537.187 478.803 554.871 461.136 554.871 439.342V46.0707C554.871 24.2768 537.187 6.60938 515.373 6.60938Z" fill="#343433"/>
<path d="M515.38 485.413H121.746C96.3211 485.413 75.6328 464.744 75.6328 439.342V46.0712C75.6262 20.6693 96.3145 0 121.746 0H515.38C540.805 0 561.494 20.6693 561.494 46.0712V439.342C561.494 464.744 540.805 485.413 515.38 485.413ZM121.746 13.2199C103.612 13.2199 88.8649 27.96 88.8649 46.0712V439.342C88.8649 457.46 103.619 472.194 121.746 472.194H515.38C533.515 472.194 548.262 457.453 548.262 439.342V46.0712C548.262 27.9534 533.508 13.2199 515.38 13.2199H121.746Z" fill="white"/>
<path d="M322.013 383.422C251.704 383.422 194.509 326.279 194.509 256.035C194.509 185.791 251.704 128.648 322.013 128.648C392.321 128.648 449.517 185.791 449.517 256.035C449.517 326.279 392.321 383.422 322.013 383.422Z" fill="#0D87C5"/>
<path d="M322.013 134.835C354.418 134.835 384.878 147.44 407.796 170.337C430.708 193.227 443.331 223.666 443.331 256.041C443.331 288.416 430.714 318.849 407.796 341.745C384.885 364.636 354.418 377.247 322.013 377.247C289.608 377.247 259.148 364.642 236.23 341.745C213.318 318.855 200.695 288.416 200.695 256.041C200.695 223.666 213.312 193.233 236.23 170.337C259.141 147.446 289.608 134.835 322.013 134.835ZM322.013 122.461C248.172 122.461 188.316 182.261 188.316 256.034C188.316 329.808 248.172 389.608 322.013 389.608C395.854 389.608 455.71 329.808 455.71 256.034C455.71 182.261 395.854 122.461 322.013 122.461Z" fill="white"/>
<mask id="mask0_912_1230" style="mask-type:luminance" maskUnits="userSpaceOnUse" x="200" y="134" width="244" height="244">
<path d="M322.013 377.402C389.103 377.402 443.49 323.065 443.49 256.037C443.49 189.009 389.103 134.672 322.013 134.672C254.923 134.672 200.536 189.009 200.536 256.037C200.536 323.065 254.923 377.402 322.013 377.402Z" fill="white"/>
</mask>
<g mask="url(#mask0_912_1230)">
<path opacity="0.1" d="M322.012 463.417C391.839 463.417 448.444 406.863 448.444 337.101C448.444 267.339 391.839 210.785 322.012 210.785C252.186 210.785 195.58 267.339 195.58 337.101C195.58 406.863 252.186 463.417 322.012 463.417Z" fill="#33CFFF"/>
<path opacity="0.2" d="M392.695 407.724C431.732 368.722 431.732 305.489 392.695 266.487C353.657 227.486 290.365 227.486 251.328 266.487C212.291 305.489 212.291 368.722 251.328 407.724C290.365 446.725 353.657 446.725 392.695 407.724Z" fill="#33CFFF"/>
<path opacity="0.4" d="M402.123 350.116C409.303 305.92 379.264 264.277 335.027 257.103C290.791 249.929 249.109 279.941 241.928 324.137C234.748 368.332 264.787 409.976 309.024 417.15C353.26 424.324 394.942 394.312 402.123 350.116Z" fill="#33CFFF"/>
<path d="M343.727 420.46C337.918 408.529 330.111 362.828 330.111 362.828C338.454 397.742 349.331 418.16 351.104 421.339H378.898C327.855 361.07 326.267 301.25 326.267 301.25H318.017C318.017 301.25 316.436 361.07 265.387 421.339H348.802L343.72 420.46H343.727ZM291.877 407.505C291.877 407.505 304.011 386.67 313.115 348.557C313.115 348.557 305.314 394.258 299.499 406.189L291.871 407.511L291.877 407.505ZM318.725 407.564L311.487 410.307C311.487 410.307 319.909 377.284 321.616 338.14C321.616 338.14 322.165 394.754 318.718 407.571L318.725 407.564Z" fill="white"/>
<path d="M334.279 328.75C334.279 328.75 349.787 372.442 357.548 383.209H365.289C365.289 383.209 349.767 364.748 334.279 328.75Z" fill="white"/>
<path d="M345.665 341.055C345.665 341.055 367.643 381.884 376.959 391.343L384.607 390.167C384.607 390.167 366.459 374.283 345.665 341.055Z" fill="white"/>
<path d="M306.538 334.898C306.538 334.898 291.036 378.597 283.269 389.358H275.528C275.528 389.358 291.05 370.896 306.538 334.898Z" fill="white"/>
<path d="M295.152 347.195C295.152 347.195 273.173 388.025 263.858 397.484L256.21 396.307C256.21 396.307 274.358 380.423 295.152 347.195Z" fill="white"/>
</g>
<path d="M198.969 95.8438C197.183 123.156 189.614 130.724 162.276 132.502C189.614 134.287 197.189 141.849 198.969 169.161C200.755 141.849 208.324 134.28 235.661 132.502C208.324 130.718 200.749 123.156 198.969 95.8438Z" fill="white"/>
<path d="M242.548 178.93C241.681 192.229 237.989 195.911 224.678 196.783C237.989 197.649 241.674 201.337 242.548 214.637C243.414 201.337 247.106 197.656 260.417 196.783C247.106 195.917 243.421 192.229 242.548 178.93Z" fill="#33CFFF"/>
<path d="M248.436 85.0391C247.278 102.721 242.382 107.619 224.685 108.769C242.382 109.925 247.285 114.817 248.436 132.498C249.594 114.817 254.49 109.919 272.188 108.769C254.49 107.612 249.587 102.721 248.436 85.0391Z" fill="#33CFFF"/>
<path d="M175.528 157.172C174.218 177.213 168.66 182.766 148.601 184.074C168.66 185.383 174.218 190.935 175.528 210.977C176.838 190.935 182.395 185.383 202.455 184.074C182.395 182.766 176.838 177.213 175.528 157.172Z" fill="#33CFFF"/>
<path d="M263.739 219.617L253.941 231.046C251.215 234.225 250.13 238.403 250.97 242.501L257.242 273.23C257.878 276.344 260.028 278.882 262.992 280.025C265.956 281.169 269.257 280.733 271.818 278.862L283.045 270.652C273.253 256.322 266.657 238.859 263.739 219.617Z" fill="white"/>
<path d="M360.982 270.652L372.21 278.862C374.77 280.739 378.071 281.169 381.035 280.025C382.266 279.549 383.358 278.829 384.257 277.93C385.521 276.668 386.408 275.041 386.778 273.23L393.05 242.501C393.89 238.403 392.805 234.225 390.079 231.046L380.281 219.617C377.363 238.859 370.767 256.322 360.976 270.652H360.982Z" fill="white"/>
<path d="M350.588 267.571C350.926 267.234 351.237 266.871 351.521 266.474C355.729 260.578 359.183 254.285 361.961 247.781H282.06C284.845 254.285 288.292 260.578 292.5 266.474C294.16 268.801 296.86 270.156 299.718 270.156H344.303C346.678 270.156 348.941 269.217 350.588 267.571Z" fill="white"/>
<path d="M366.572 159.311C357.448 130.664 337.839 110.345 327.961 101.494C324.573 98.4603 319.459 98.4603 316.072 101.494C314.464 102.935 312.598 104.68 310.561 106.716C300.087 117.18 285.102 135.324 277.461 159.311C271.387 178.374 269.224 209.157 278.314 237.679C278.519 237.652 278.724 237.639 278.936 237.639H365.09C365.302 237.639 365.507 237.659 365.712 237.679C374.802 209.157 372.639 178.374 366.565 159.311H366.572ZM296.627 172.392C296.627 158.406 308.013 147.03 322.013 147.03C328.794 147.03 335.166 149.667 339.962 154.46C344.759 159.252 347.399 165.617 347.399 172.392C347.399 179.386 344.554 185.725 339.956 190.318C335.358 194.912 329.013 197.755 322.013 197.755C315.232 197.755 308.86 195.117 304.064 190.325C299.267 185.533 296.627 179.168 296.627 172.392Z" fill="white"/>
<path d="M322.013 187.612C330.409 187.612 337.243 180.784 337.243 172.396C337.243 168.331 335.662 164.51 332.784 161.635C329.906 158.759 326.082 157.18 322.013 157.18C317.812 157.18 314.008 158.885 311.249 161.641C308.49 164.398 306.783 168.198 306.783 172.396C306.783 176.461 308.364 180.281 311.242 183.157C314.12 186.032 317.944 187.612 322.013 187.612Z" fill="white"/>
<path d="M304.123 314.922C305.043 314.003 305.612 312.734 305.612 311.333V287.914C305.612 285.111 303.336 282.844 300.537 282.844C297.732 282.844 295.463 285.118 295.463 287.914V311.333C295.463 314.135 297.739 316.402 300.537 316.402C301.94 316.402 303.21 315.834 304.13 314.915L304.123 314.922Z" fill="white"/>
<path d="M322.014 282.843C319.209 282.843 316.939 285.116 316.939 287.912V332.939C316.939 335.742 319.215 338.009 322.014 338.009C323.417 338.009 324.687 337.441 325.606 336.522C326.526 335.603 327.095 334.334 327.095 332.933V287.906C327.095 285.103 324.819 282.836 322.021 282.836L322.014 282.843Z" fill="white"/>
<path d="M338.421 287.912V311.331C338.421 314.134 340.697 316.401 343.495 316.401C344.898 316.401 346.168 315.833 347.088 314.914C348.008 313.995 348.576 312.726 348.576 311.325V287.906C348.576 285.103 346.301 282.836 343.502 282.836C340.697 282.836 338.428 285.11 338.428 287.906L338.421 287.912Z" fill="white"/>
<defs>
<clipPath id="clip0_912_1230">
<rect width="593.773" height="78.106" fill="white" transform="translate(21.6094 504.223)"/>
</clipPath>
</defs>
</svg>
