<svg width="172" height="200" viewBox="0 0 172 200" fill="none" xmlns="http://www.w3.org/2000/svg">
<g clip-path="url(#clip0_1048_5477)">
<path d="M172 85.9524C172 38.4822 133.496 0 86 0C38.5035 0 0 38.4822 0 85.9524C0 133.423 38.5035 171.905 86 171.905C133.496 171.905 172 133.423 172 85.9524Z" fill="url(#paint0_linear_1048_5477)"/>
<g opacity="0.4">
<path d="M71.9487 32.9164L85.6713 21.4062H85.7087C86.1948 21.481 86.6734 21.5632 87.1595 21.6529C116.624 27.5201 135.708 56.1833 129.83 85.5865C124.012 114.751 95.8492 133.727 66.7363 128.383C73.0181 126.956 79.053 124.071 84.3327 119.661C102.004 104.84 104.322 78.4936 89.4777 60.8173C80.9675 50.6899 68.6882 45.6224 56.4238 45.9214L71.9487 32.9014V32.9164Z" fill="url(#paint1_linear_1048_5477)"/>
<path d="M102.146 160.991C77.4226 165.954 53.0809 158.495 35.5967 142.926C36.6137 142.486 37.5934 141.91 38.4908 141.148C40.3155 139.615 41.5569 137.62 42.1626 135.49C45.984 137.687 50.0372 139.556 54.2998 141.021C90.689 153.525 130.294 134.152 142.768 97.7978C155.279 61.4287 135.895 21.8457 99.5209 9.37891C131.199 14.5884 156.326 38.8419 162.578 70.2407C170.968 111.984 143.912 152.598 102.146 160.984V160.991Z" fill="url(#paint2_linear_1048_5477)"/>
</g>
<path d="M146.274 169.507H140.247V163.475C140.247 162.645 139.574 161.973 138.744 161.973C137.914 161.973 137.241 162.653 137.241 163.475V169.507H131.213C130.383 169.507 129.71 170.187 129.71 171.009C129.71 171.831 130.383 172.511 131.213 172.511H137.241V178.543C137.241 179.372 137.914 180.045 138.744 180.045C139.574 180.045 140.247 179.365 140.247 178.543V172.511H146.274C147.104 172.511 147.777 171.831 147.777 171.009C147.777 170.187 147.104 169.507 146.274 169.507Z" fill="#00DBFF"/>
<path d="M159.96 162.772H153.932V156.741C153.932 155.911 153.259 155.238 152.429 155.238C151.599 155.238 150.926 155.918 150.926 156.741V162.772H144.899C144.069 162.772 143.396 163.452 143.396 164.274C143.396 165.097 144.069 165.777 144.899 165.777H150.926V171.808C150.926 172.638 151.599 173.311 152.429 173.311C153.259 173.311 153.932 172.631 153.932 171.808V165.777H159.96C160.79 165.777 161.463 165.097 161.463 164.274C161.463 163.452 160.79 162.772 159.96 162.772Z" fill="#00FF78"/>
<path d="M42.544 192.674C43.1348 193.428 43.4264 194.295 43.4264 195.267C43.4264 196.672 42.9329 197.778 41.9532 198.601C40.9736 199.423 39.605 199.834 37.8477 199.834H30.0254V183.047H37.5859C39.291 183.047 40.6296 183.436 41.5943 184.22C42.559 184.998 43.0376 186.059 43.0376 187.397C43.0376 188.383 42.7758 189.206 42.2598 189.856C41.7438 190.506 41.0558 190.962 40.1883 191.216C41.1605 191.425 41.9457 191.904 42.5365 192.666L42.544 192.674ZM34.1235 189.833H36.8007C37.4737 189.833 37.9823 189.684 38.3412 189.392C38.7002 189.101 38.8797 188.66 38.8797 188.092C38.8797 187.524 38.7002 187.083 38.3412 186.776C37.9823 186.47 37.4663 186.321 36.8007 186.321H34.1235V189.833ZM38.7301 196.067C39.104 195.753 39.291 195.304 39.291 194.714C39.291 194.124 39.0965 193.66 38.7076 193.324C38.3188 192.987 37.7803 192.823 37.0923 192.823H34.1235V196.53H37.1372C37.8252 196.53 38.3562 196.373 38.7301 196.067Z" fill="#303446"/>
<path d="M56.0875 199.834L52.67 194.692L49.6562 199.834H45.0122L50.3966 191.298L44.8926 183.047H49.6562L53.0289 188.114L55.9978 183.047H60.6418L55.3098 191.508L60.8587 199.826H56.095L56.0875 199.834Z" fill="#303446"/>
<path d="M73.1899 189.746V193.139H62.668V189.746H73.1899Z" fill="#303446"/>
<path d="M85.3419 199.834L81.8496 193.496H80.8699V199.834H76.7793V183.047H83.6443C84.968 183.047 86.0972 183.279 87.032 183.742C87.9668 184.205 88.6623 184.841 89.1259 185.64C89.5896 186.448 89.8214 187.344 89.8214 188.331C89.8214 189.445 89.5073 190.446 88.8791 191.321C88.2509 192.195 87.3236 192.816 86.0897 193.189L89.9635 199.834H85.3494H85.3419ZM80.8699 190.603H83.405C84.1529 190.603 84.7137 190.416 85.0876 190.05C85.4616 189.684 85.6485 189.168 85.6485 188.496C85.6485 187.823 85.4616 187.359 85.0876 186.986C84.7137 186.612 84.1529 186.433 83.405 186.433H80.8699V190.596V190.603Z" fill="#303446"/>
<path d="M96.462 186.32V189.713H101.944V192.868H96.462V196.552H102.662V199.826H92.3789V183.039H102.662V186.313H96.462V186.32Z" fill="#303446"/>
<path d="M116.25 184.101C117.573 184.803 118.598 185.79 119.323 187.053C120.049 188.324 120.415 189.781 120.415 191.44C120.415 193.1 120.056 194.542 119.323 195.813C118.598 197.091 117.566 198.077 116.235 198.78C114.904 199.482 113.363 199.834 111.606 199.834H105.316V183.047H111.606C113.378 183.047 114.926 183.398 116.25 184.101ZM114.956 195.028C115.816 194.183 116.25 192.987 116.25 191.44C116.25 189.893 115.816 188.69 114.956 187.83C114.096 186.971 112.892 186.537 111.344 186.537H109.407V196.291H111.344C112.892 196.291 114.096 195.872 114.956 195.02V195.028Z" fill="#303446"/>
<path d="M126.802 183.047V199.834H122.711V183.047H126.802Z" fill="#303446"/>
<path d="M132.537 199.401C131.565 199.005 130.787 198.414 130.204 197.629C129.621 196.845 129.314 195.91 129.284 194.804H133.637C133.704 195.425 133.913 195.903 134.28 196.224C134.646 196.553 135.125 196.718 135.715 196.718C136.306 196.718 136.8 196.576 137.151 196.299C137.503 196.023 137.675 195.634 137.675 195.141C137.675 194.729 137.533 194.386 137.256 194.109C136.979 193.84 136.635 193.616 136.224 193.436C135.82 193.265 135.237 193.063 134.489 192.839C133.405 192.502 132.522 192.166 131.834 191.837C131.146 191.501 130.555 191.007 130.062 190.357C129.568 189.707 129.322 188.847 129.322 187.801C129.322 186.239 129.89 185.013 131.019 184.131C132.148 183.249 133.629 182.801 135.446 182.801C137.263 182.801 138.789 183.242 139.918 184.131C141.047 185.013 141.653 186.246 141.735 187.823H137.308C137.278 187.285 137.077 186.852 136.71 186.545C136.344 186.231 135.873 186.082 135.297 186.082C134.803 186.082 134.407 186.216 134.1 186.478C133.794 186.74 133.644 187.121 133.644 187.614C133.644 188.152 133.898 188.578 134.407 188.885C134.915 189.191 135.715 189.513 136.8 189.864C137.884 190.23 138.767 190.581 139.44 190.918C140.12 191.254 140.703 191.74 141.197 192.375C141.691 193.01 141.937 193.833 141.937 194.842C141.937 195.851 141.691 196.665 141.205 197.45C140.718 198.235 140.015 198.855 139.088 199.319C138.161 199.782 137.069 200.014 135.813 200.014C134.556 200.014 133.487 199.812 132.515 199.416L132.537 199.401Z" fill="#303446"/>
<path d="M134.242 110.096C128.656 113.004 99.715 124.902 93.5529 128.109C87.3908 131.323 83.9657 131.285 79.0974 128.961C74.229 126.636 43.4261 114.199 37.8772 111.554C35.1028 110.231 33.6445 109.109 33.6445 108.056V97.4798C33.6445 97.4798 73.743 88.7575 80.2191 86.433C86.6953 84.1086 88.9388 84.0263 94.4503 86.0444C99.9617 88.0624 132.903 94.0043 138.348 95.9924C138.348 95.9924 138.348 105.44 138.348 106.419C138.348 107.465 137.091 108.609 134.25 110.096" fill="#912626"/>
<path d="M134.242 99.5807C128.656 102.488 99.7153 114.387 93.5532 117.593C87.3912 120.807 83.9661 120.77 79.0978 118.445C74.2294 116.121 43.4265 103.684 37.8851 101.038C32.3362 98.3848 32.224 96.5611 37.6682 94.431C43.1199 92.3009 73.7508 80.29 80.227 77.9655C86.7032 75.6485 88.9466 75.5589 94.4581 77.5769C99.9696 79.5949 128.738 91.0378 134.183 93.0334C139.627 95.0289 139.836 96.6732 134.25 99.5807" fill="#C6302B"/>
<path d="M134.242 92.9789C128.656 95.8863 99.715 107.785 93.5529 110.992C87.3908 114.198 83.9657 114.168 79.0974 111.844C74.229 109.519 43.4261 97.0822 37.8772 94.4363C35.1028 93.1134 33.6445 91.9923 33.6445 90.9385V80.3626C33.6445 80.3626 73.743 71.6403 80.2191 69.3158C86.6953 66.9914 88.9388 66.9092 94.4503 68.9272C99.9617 70.9452 132.903 76.8796 138.348 78.8752C138.348 78.8752 138.348 88.3225 138.348 89.3016C138.348 90.348 137.091 91.4915 134.25 92.9714" fill="#912626"/>
<path d="M134.242 82.47C128.656 85.3775 99.7153 97.2763 93.5532 100.483C87.3912 103.697 83.9661 103.659 79.0978 101.335C74.2294 99.0103 43.4265 86.5733 37.8851 83.9275C32.3362 81.2742 32.224 79.4505 37.6682 77.3204C43.1199 75.1902 73.7508 63.1793 80.227 60.8549C86.7032 58.5304 88.9466 58.4482 94.4581 60.4662C99.9696 62.4842 128.738 73.9271 134.183 75.9227C139.627 77.9183 139.836 79.5626 134.25 82.47" fill="#C6302B"/>
<path d="M134.242 75.237C128.656 78.1445 99.715 90.0433 93.5529 93.2571C87.3908 96.471 83.9657 96.4336 79.0974 94.1092C74.229 91.7847 43.4261 79.3478 37.8772 76.702C35.1028 75.379 33.6445 74.2579 33.6445 73.2041V62.6282C33.6445 62.6282 73.743 53.9059 80.2191 51.5814C86.6953 49.257 88.9388 49.1748 94.4503 51.1928C99.9617 53.2108 132.903 59.1453 138.348 61.1409C138.348 61.1409 138.348 70.5881 138.348 71.5672C138.348 72.6136 137.091 73.7572 134.25 75.237" fill="#912626"/>
<path d="M118.03 71.9326C108.188 76.1629 97.0979 80.8866 93.5532 82.7327C87.3912 85.9466 83.9661 85.9092 79.0978 83.5847C74.2294 81.2603 43.4265 68.8233 37.8851 66.1775C32.3362 63.5242 32.224 61.7005 37.6682 59.5704C43.1199 57.4402 73.7508 45.4293 80.227 43.1049C86.7032 40.7804 88.9466 40.6982 94.4581 42.7162C99.9696 44.7342 128.738 56.1771 134.183 58.1727C139.627 60.1683 139.836 61.8126 134.25 64.72" fill="#C6302B"/>
<path d="M134.242 64.7188C131.872 65.952 125.291 68.8071 118.029 71.9313Z" fill="#C6302B"/>
<path d="M98.7951 54.4273L89.7913 55.3615L87.7797 60.2048L84.5266 54.801L74.1318 53.8667L81.8868 51.0714L79.5611 46.7812L86.8224 49.6214L93.6651 47.3792L91.8179 51.8188L98.7951 54.4348" fill="white"/>
<path d="M87.2415 77.9433L70.4453 70.9774L94.5178 67.2852L87.2415 77.9433Z" fill="white"/>
<path d="M63.9466 57.125C71.0509 57.125 76.8092 59.3598 76.8092 62.1102C76.8092 64.8607 71.0509 67.0955 63.9466 67.0955C56.8422 67.0955 51.084 64.8607 51.084 62.1102C51.084 59.3598 56.8422 57.125 63.9466 57.125Z" fill="white"/>
<path d="M109.43 55.7578L123.676 61.3858L109.445 67.0064L109.43 55.7578Z" fill="#621B1C"/>
<path d="M93.6729 61.9834L109.437 55.75L109.452 66.9986L107.904 67.604L93.6729 61.9834Z" fill="#9A2928"/>
</g>
<defs>
<linearGradient id="paint0_linear_1048_5477" x1="0" y1="85.9524" x2="172" y2="85.9524" gradientUnits="userSpaceOnUse">
<stop stop-color="#003A44"/>
<stop offset="0.67" stop-color="#19857C"/>
<stop offset="1" stop-color="#01634E"/>
</linearGradient>
<linearGradient id="paint1_linear_1048_5477" x1="56.4238" y1="75.3395" x2="130.9" y2="75.3395" gradientUnits="userSpaceOnUse">
<stop stop-color="#003A44" stop-opacity="0"/>
<stop offset="0.47" stop-color="#00FF78"/>
</linearGradient>
<linearGradient id="paint2_linear_1048_5477" x1="35.5967" y1="85.9513" x2="164.103" y2="85.9513" gradientUnits="userSpaceOnUse">
<stop stop-color="#003A44" stop-opacity="0"/>
<stop offset="0.47" stop-color="#00FF78"/>
</linearGradient>
<clipPath id="clip0_1048_5477">
<rect width="172" height="200" fill="white"/>
</clipPath>
</defs>
</svg>
