<svg width="315" height="366" viewBox="0 0 315 366" fill="none" xmlns="http://www.w3.org/2000/svg">
<g clip-path="url(#clip0_1048_5733)">
<path d="M157.5 8.20658C197.204 8.20658 234.648 23.7581 262.929 52.0024C291.211 80.2467 306.783 117.641 306.783 157.293C306.783 196.944 291.211 234.339 262.929 262.583C234.648 290.828 197.204 306.379 157.5 306.379C117.796 306.379 80.3524 290.828 52.0709 262.583C23.7893 234.339 8.21739 196.944 8.21739 157.293C8.21739 117.641 23.7893 80.2467 52.0709 52.0024C80.3524 23.7581 117.796 8.20658 157.5 8.20658ZM157.5 0C70.875 0 0 70.7818 0 157.293C0 243.804 70.875 314.586 157.5 314.586C244.125 314.586 315 243.804 315 157.293C315 70.7818 244.125 0 157.5 0Z" fill="white"/>
<g opacity="0.2">
<path d="M131.766 60.2354L156.898 39.1719H156.966C157.856 39.3087 158.733 39.4591 159.623 39.6232C213.584 50.3602 248.535 102.814 237.771 156.622C227.115 209.992 175.537 244.719 122.22 234.94C133.725 232.328 144.777 227.048 154.446 218.978C186.809 191.855 191.055 143.642 163.869 111.294C148.283 92.7609 125.795 83.4874 103.334 84.0345L131.766 60.2081V60.2354Z" fill="url(#paint0_linear_1048_5733)"/>
<path d="M187.069 294.615C141.791 303.697 97.2118 290.047 65.1914 261.556C67.054 260.749 68.8481 259.696 70.4916 258.301C73.8334 255.497 76.1068 251.845 77.2162 247.947C84.2147 251.968 91.6377 255.388 99.4442 258.068C166.087 280.951 238.619 245.499 261.464 178.971C284.377 112.415 248.878 39.9784 182.262 17.1641C240.277 26.6974 286.294 71.0813 297.744 128.541C313.11 204.931 263.559 279.255 187.069 294.601V294.615Z" fill="url(#paint1_linear_1048_5733)"/>
</g>
<path d="M267.559 310.197H256.52V299.159C256.52 297.641 255.287 296.41 253.767 296.41C252.247 296.41 251.014 297.655 251.014 299.159V310.197H239.975C238.455 310.197 237.223 311.442 237.223 312.946C237.223 314.451 238.455 315.696 239.975 315.696H251.014V326.733C251.014 328.252 252.247 329.483 253.767 329.483C255.287 329.483 256.52 328.238 256.52 326.733V315.696H267.559C269.079 315.696 270.311 314.451 270.311 312.946C270.311 311.442 269.079 310.197 267.559 310.197Z" fill="white"/>
<path d="M292.622 297.873H281.583V286.835C281.583 285.317 280.351 284.086 278.83 284.086C277.31 284.086 276.078 285.331 276.078 286.835V297.873H265.039C263.519 297.873 262.286 299.118 262.286 300.622C262.286 302.127 263.519 303.371 265.039 303.371H276.078V314.409C276.078 315.927 277.31 317.158 278.83 317.158C280.351 317.158 281.583 315.914 281.583 314.409V303.371H292.622C294.142 303.371 295.375 302.127 295.375 300.622C295.375 299.118 294.142 297.873 292.622 297.873Z" fill="white"/>
<path d="M77.9148 352.597C78.9968 353.979 79.5309 355.565 79.5309 357.343C79.5309 359.915 78.627 361.939 76.8328 363.444C75.0387 364.948 72.5324 365.7 69.3139 365.7H54.9883V334.98H68.8346C71.9572 334.98 74.4087 335.692 76.1755 337.128C77.9422 338.55 78.8187 340.493 78.8187 342.941C78.8187 344.746 78.3394 346.251 77.3944 347.441C76.4494 348.631 75.1894 349.465 73.6007 349.93C75.3811 350.313 76.8191 351.188 77.9011 352.584L77.9148 352.597ZM62.4935 347.4H67.3965C68.6291 347.4 69.5605 347.126 70.2178 346.593C70.8752 346.059 71.2039 345.252 71.2039 344.213C71.2039 343.173 70.8752 342.366 70.2178 341.806C69.5605 341.245 68.6155 340.971 67.3965 340.971H62.4935V347.4ZM70.93 358.807C71.6148 358.232 71.9572 357.412 71.9572 356.331C71.9572 355.251 71.6011 354.403 70.8889 353.787C70.1768 353.172 69.1907 352.871 67.9307 352.871H62.4935V359.655H68.0128C69.2728 359.655 70.2452 359.368 70.93 358.807Z" fill="white"/>
<path d="M102.717 365.7L96.4583 356.29L90.939 365.7H82.434L92.2948 350.081L82.2148 334.98H90.939L97.1157 344.254L102.553 334.98H111.058L101.293 350.464L111.455 365.687H102.731L102.717 365.7Z" fill="white"/>
<path d="M134.039 347.234V353.444H114.77V347.234H134.039Z" fill="white"/>
<path d="M156.295 365.7L149.899 354.102H148.105V365.7H140.613V334.98H153.186C155.61 334.98 157.678 335.404 159.39 336.252C161.102 337.1 162.376 338.263 163.225 339.727C164.074 341.204 164.499 342.845 164.499 344.651C164.499 346.689 163.923 348.521 162.773 350.122C161.622 351.722 159.924 352.857 157.664 353.541L164.759 365.7H156.308H156.295ZM148.105 348.809H152.748C154.117 348.809 155.144 348.467 155.829 347.796C156.514 347.126 156.856 346.182 156.856 344.951C156.856 343.72 156.514 342.872 155.829 342.189C155.144 341.505 154.117 341.176 152.748 341.176H148.105V348.795V348.809Z" fill="white"/>
<path d="M176.66 340.969V347.179H186.699V352.951H176.66V359.694H188.014V365.685H169.183V334.965H188.014V340.956H176.66V340.969Z" fill="white"/>
<path d="M212.899 336.909C215.323 338.195 217.199 340 218.528 342.312C219.856 344.637 220.527 347.304 220.527 350.34C220.527 353.377 219.87 356.017 218.528 358.342C217.199 360.681 215.309 362.486 212.872 363.772C210.434 365.058 207.613 365.7 204.394 365.7H192.876V334.98H204.394C207.64 334.98 210.475 335.623 212.899 336.909ZM210.53 356.906C212.105 355.36 212.899 353.172 212.899 350.34C212.899 347.509 212.105 345.307 210.53 343.734C208.955 342.161 206.75 341.368 203.915 341.368H200.367V359.217H203.915C206.75 359.217 208.955 358.451 210.53 356.892V356.906Z" fill="white"/>
<path d="M232.224 334.98V365.7H224.732V334.98H232.224Z" fill="white"/>
<path d="M242.728 364.905C240.948 364.18 239.523 363.1 238.455 361.664C237.387 360.228 236.825 358.518 236.771 356.494H244.741C244.865 357.629 245.248 358.504 245.919 359.092C246.59 359.694 247.467 359.995 248.549 359.995C249.631 359.995 250.535 359.735 251.178 359.229C251.822 358.723 252.137 358.012 252.137 357.109C252.137 356.357 251.877 355.728 251.37 355.222C250.863 354.729 250.233 354.319 249.48 353.991C248.741 353.676 247.672 353.307 246.303 352.896C244.317 352.281 242.701 351.665 241.441 351.064C240.181 350.448 239.099 349.545 238.195 348.355C237.291 347.165 236.839 345.593 236.839 343.678C236.839 340.819 237.88 338.576 239.948 336.962C242.016 335.348 244.728 334.527 248.056 334.527C251.384 334.527 254.178 335.334 256.246 336.962C258.314 338.576 259.423 340.833 259.574 343.719H251.466C251.411 342.734 251.041 341.941 250.37 341.38C249.699 340.805 248.836 340.532 247.782 340.532C246.878 340.532 246.152 340.778 245.591 341.257C245.029 341.735 244.755 342.433 244.755 343.336C244.755 344.321 245.221 345.1 246.152 345.661C247.083 346.222 248.549 346.81 250.535 347.453C252.52 348.123 254.137 348.766 255.369 349.381C256.616 349.997 257.684 350.886 258.588 352.048C259.492 353.211 259.944 354.716 259.944 356.562C259.944 358.409 259.492 359.899 258.601 361.336C257.711 362.772 256.424 363.907 254.726 364.755C253.027 365.603 251.028 366.027 248.727 366.027C246.426 366.027 244.467 365.658 242.687 364.933L242.728 364.905Z" fill="white"/>
<path d="M253.356 175.662C253.37 177.522 250.918 179.588 245.851 182.227C235.62 187.548 182.618 209.323 171.333 215.191C160.048 221.072 153.775 221.003 144.859 216.75C135.943 212.496 79.5311 189.736 69.3826 184.895C64.1919 182.419 61.6172 180.34 61.6446 178.37H61.6309V197.724C61.6309 199.653 64.3015 201.704 69.3826 204.125C79.5448 208.981 135.957 231.727 144.873 235.981C153.789 240.234 160.062 240.289 171.347 234.421C182.632 228.54 235.634 206.779 245.865 201.458C251.069 198.75 253.37 196.644 253.37 194.729C253.37 192.937 253.37 175.648 253.37 175.648L253.356 175.662Z" fill="white"/>
<path d="M253.356 144.355C253.37 146.216 250.918 148.281 245.851 150.921C235.62 156.241 182.618 178.016 171.333 183.884C160.048 189.765 153.775 189.697 144.859 185.443C135.943 181.189 79.5311 158.43 69.3826 153.588C64.1919 151.112 61.6172 149.033 61.6446 147.064H61.6309V166.418C61.6309 168.346 64.3015 170.398 69.3826 172.819C79.5448 177.674 135.957 200.42 144.873 204.674C153.789 208.928 160.062 208.982 171.347 203.115C182.632 197.233 235.634 175.472 245.865 170.152C251.069 167.443 253.37 165.337 253.37 163.436C253.37 161.644 253.37 144.355 253.37 144.355H253.356Z" fill="white"/>
<path d="M253.356 111.869C253.37 113.729 250.918 115.795 245.851 118.434L216.159 131.633C198.135 139.375 177.825 148.019 171.333 151.398C160.048 157.279 153.775 157.211 144.859 152.957C135.943 148.703 79.5311 125.943 69.3826 121.102C64.1919 118.626 61.6172 116.547 61.6446 114.577H61.6309V133.931C61.6309 135.86 64.3015 137.911 69.3826 140.332C79.5448 145.174 135.957 167.934 144.873 172.188C153.789 176.441 160.062 176.496 171.347 170.628C182.632 164.747 235.634 142.986 245.865 137.652C251.069 134.943 253.37 132.837 253.37 130.936C253.37 129.144 253.37 111.855 253.37 111.855L253.356 111.869Z" fill="white"/>
<path d="M245.85 118.434C241.509 120.69 229.457 125.915 216.158 131.633Z" fill="white"/>
<path d="M245.727 106.454C235.757 102.802 183.07 81.8613 172.976 78.1683C162.882 74.4754 158.774 74.6258 146.913 78.8796C135.053 83.1333 78.9555 105.113 68.9713 109.011C58.9872 112.91 59.2063 116.261 69.3685 121.102C79.5307 125.958 135.943 148.704 144.845 152.958C153.761 157.211 160.034 157.266 171.319 151.398C177.811 148.02 198.121 139.376 216.145 131.634L245.837 118.435C256.068 113.115 255.684 110.106 245.714 106.454H245.727ZM145.708 85.609L159.007 90.8065L171.538 86.7032L168.155 94.8277L180.933 99.6149L164.444 101.325L160.76 110.188L154.802 100.299L135.765 98.589L149.967 93.4736L145.708 85.6226V85.609ZM93.555 113.662C93.555 108.628 104.101 104.539 117.112 104.539C130.122 104.539 140.668 108.628 140.668 113.662C140.668 118.695 130.122 122.785 117.112 122.785C104.101 122.785 93.555 118.695 93.555 113.662ZM159.774 142.631L129.013 129.883L173.099 123.127L159.774 142.631ZM200.436 122.621L197.601 123.729L171.538 113.443L200.409 102.036L226.499 112.335L200.436 122.621Z" fill="white"/>
</g>
<defs>
<linearGradient id="paint0_linear_1048_5733" x1="103.334" y1="137.87" x2="239.729" y2="137.87" gradientUnits="userSpaceOnUse">
<stop stop-color="white" stop-opacity="0"/>
<stop offset="0.52" stop-color="white"/>
</linearGradient>
<linearGradient id="paint1_linear_1048_5733" x1="65.1914" y1="157.291" x2="300.537" y2="157.291" gradientUnits="userSpaceOnUse">
<stop stop-color="white" stop-opacity="0"/>
<stop offset="0.52" stop-color="white"/>
</linearGradient>
<clipPath id="clip0_1048_5733">
<rect width="315" height="366" fill="white"/>
</clipPath>
</defs>
</svg>
