<svg width="516" height="600" viewBox="0 0 516 600" fill="none" xmlns="http://www.w3.org/2000/svg">
<g clip-path="url(#clip0_1048_5613)">
<path d="M516 257.857C516 115.447 400.489 0 258 0C115.511 0 0 115.447 0 257.857C0 400.268 115.511 515.714 258 515.714C400.489 515.714 516 400.268 516 257.857Z" fill="url(#paint0_linear_1048_5613)"/>
<g opacity="0.4">
<path d="M215.845 98.7492L257.013 64.2188H257.125C258.583 64.443 260.019 64.6896 261.477 64.9587C349.871 82.5602 407.124 168.55 389.49 256.76C372.036 344.252 287.547 401.182 200.208 385.15C219.053 380.867 237.158 372.212 252.997 358.983C306.011 314.52 312.965 235.481 268.432 182.452C242.901 152.07 206.064 136.867 169.271 137.764L215.845 98.7043V98.7492Z" fill="url(#paint1_linear_1048_5613)"/>
<path d="M306.437 482.978C232.268 497.867 159.243 475.489 106.79 428.783C109.841 427.46 112.78 425.734 115.472 423.447C120.946 418.85 124.671 412.864 126.488 406.473C137.952 413.065 150.112 418.671 162.899 423.066C272.067 460.578 390.882 402.46 428.303 293.397C465.836 184.29 407.685 65.5411 298.563 28.1406C393.596 43.769 468.977 116.53 487.733 210.726C512.904 335.955 431.735 457.798 306.437 482.956V482.978Z" fill="url(#paint2_linear_1048_5613)"/>
</g>
<path d="M438.824 508.516H420.741V490.421C420.741 487.932 418.722 485.914 416.232 485.914C413.742 485.914 411.723 487.954 411.723 490.421V508.516H393.64C391.15 508.516 389.131 510.556 389.131 513.023C389.131 515.489 391.15 517.53 393.64 517.53H411.723V535.624C411.723 538.113 413.742 540.131 416.232 540.131C418.722 540.131 420.741 538.091 420.741 535.624V517.53H438.824C441.314 517.53 443.333 515.489 443.333 513.023C443.333 510.556 441.314 508.516 438.824 508.516Z" fill="#00DBFF"/>
<path d="M479.88 488.313H461.797V470.218C461.797 467.729 459.778 465.711 457.288 465.711C454.797 465.711 452.778 467.751 452.778 470.218V488.313H434.696C432.206 488.313 430.187 490.353 430.187 492.82C430.187 495.286 432.206 497.326 434.696 497.326H452.778V515.421C452.778 517.91 454.797 519.928 457.288 519.928C459.778 519.928 461.797 517.888 461.797 515.421V497.326H479.88C482.37 497.326 484.389 495.286 484.389 492.82C484.389 490.353 482.37 488.313 479.88 488.313Z" fill="#00FF78"/>
<path d="M127.631 578.025C129.403 580.289 130.278 582.89 130.278 585.805C130.278 590.021 128.798 593.339 125.859 595.805C122.92 598.272 118.814 599.505 113.542 599.505H90.0752V549.145H112.757C117.872 549.145 121.888 550.31 124.782 552.665C127.676 554.997 129.112 558.181 129.112 562.194C129.112 565.154 128.326 567.621 126.778 569.571C125.23 571.522 123.167 572.89 120.564 573.652C123.481 574.28 125.836 575.715 127.609 578.002L127.631 578.025ZM102.369 569.504H110.401C112.42 569.504 113.946 569.056 115.023 568.181C116.1 567.307 116.638 565.984 116.638 564.28C116.638 562.576 116.1 561.253 115.023 560.333C113.946 559.414 112.398 558.966 110.401 558.966H102.369V569.504ZM116.189 588.204C117.311 587.263 117.872 585.917 117.872 584.146C117.872 582.374 117.289 580.984 116.122 579.975C114.955 578.966 113.34 578.473 111.276 578.473H102.369V589.594H111.411C113.475 589.594 115.068 589.124 116.189 588.204Z" fill="white"/>
<path d="M168.261 599.505L158.008 584.079L148.967 599.505H135.035L151.188 573.899L134.676 549.145H148.967L159.085 564.347L167.991 549.145H181.923L165.927 574.527L182.574 599.483H168.283L168.261 599.505Z" fill="white"/>
<path d="M219.569 569.238V579.418H188.003V569.238H219.569Z" fill="white"/>
<path d="M256.026 599.505L245.549 580.491H242.61V599.505H230.338V549.145H250.933C254.904 549.145 258.292 549.84 261.096 551.23C263.9 552.62 265.987 554.526 267.378 556.925C268.769 559.347 269.464 562.037 269.464 564.997C269.464 568.338 268.522 571.343 266.637 573.966C264.753 576.589 261.971 578.451 258.269 579.572L269.89 599.505H256.048H256.026ZM242.61 571.814H250.215C252.459 571.814 254.141 571.253 255.263 570.154C256.385 569.056 256.946 567.508 256.946 565.49C256.946 563.472 256.385 562.082 255.263 560.961C254.141 559.84 252.459 559.302 250.215 559.302H242.61V571.791V571.814Z" fill="white"/>
<path d="M289.386 558.968V569.148H305.831V578.61H289.386V589.665H307.985V599.486H277.137V549.125H307.985V558.946H289.386V558.968Z" fill="white"/>
<path d="M348.748 552.306C352.719 554.414 355.792 557.374 357.969 561.163C360.145 564.975 361.244 569.347 361.244 574.325C361.244 579.303 360.167 583.63 357.969 587.442C355.792 591.276 352.696 594.236 348.703 596.344C344.71 598.451 340.088 599.505 334.816 599.505H315.948V549.145H334.816C340.133 549.145 344.777 550.198 348.748 552.306ZM344.867 585.088C347.447 582.554 348.748 578.966 348.748 574.325C348.748 569.683 347.447 566.073 344.867 563.495C342.287 560.916 338.675 559.616 334.031 559.616H328.22V588.877H334.031C338.675 588.877 342.287 587.621 344.867 585.065V585.088Z" fill="white"/>
<path d="M380.404 549.145V599.505H368.132V549.145H380.404Z" fill="white"/>
<path d="M397.612 598.206C394.695 597.018 392.362 595.247 390.612 592.892C388.862 590.538 387.942 587.735 387.853 584.417H400.91C401.111 586.278 401.74 587.713 402.839 588.677C403.938 589.663 405.374 590.157 407.146 590.157C408.919 590.157 410.399 589.731 411.454 588.901C412.508 588.071 413.024 586.905 413.024 585.426C413.024 584.192 412.598 583.161 411.768 582.331C410.938 581.524 409.906 580.851 408.672 580.313C407.461 579.798 405.711 579.192 403.467 578.52C400.214 577.51 397.567 576.501 395.503 575.515C393.439 574.506 391.666 573.026 390.186 571.075C388.705 569.125 387.965 566.546 387.965 563.407C387.965 558.721 389.67 555.043 393.057 552.397C396.445 549.752 400.887 548.406 406.339 548.406C411.79 548.406 416.367 549.729 419.755 552.397C423.142 555.043 424.96 558.743 425.206 563.474H411.925C411.835 561.86 411.23 560.559 410.13 559.64C409.031 558.698 407.618 558.25 405.89 558.25C404.409 558.25 403.22 558.653 402.301 559.438C401.381 560.223 400.932 561.366 400.932 562.846C400.932 564.461 401.695 565.739 403.22 566.658C404.746 567.577 407.146 568.542 410.399 569.595C413.653 570.694 416.3 571.748 418.319 572.757C420.361 573.766 422.11 575.223 423.591 577.129C425.072 579.035 425.812 581.502 425.812 584.529C425.812 587.556 425.072 590 423.614 592.354C422.155 594.708 420.046 596.569 417.265 597.96C414.483 599.35 411.207 600.045 407.438 600.045C403.669 600.045 400.461 599.44 397.544 598.251L397.612 598.206Z" fill="white"/>
<path d="M402.727 330.284C385.968 339.007 299.146 374.703 280.66 384.322C262.173 393.964 251.898 393.852 237.293 386.878C222.688 379.905 130.279 342.594 113.633 334.657C105.309 330.688 100.935 327.325 100.935 324.163V292.435C100.935 292.435 221.23 266.268 240.658 259.295C260.087 252.322 266.817 252.075 283.352 258.129C299.886 264.183 398.711 282.009 415.044 287.973C415.044 287.973 415.044 316.315 415.044 319.253C415.044 322.392 411.275 325.822 402.75 330.284" fill="#912626"/>
<path d="M402.727 298.734C385.969 307.457 299.146 343.153 280.66 352.772C262.173 362.414 251.898 362.302 237.293 355.328C222.688 348.355 130.279 311.044 113.655 303.107C97.0086 295.147 96.6721 289.676 113.005 283.285C129.36 276.895 221.252 240.862 240.681 233.889C260.109 226.938 266.84 226.669 283.374 232.723C299.909 238.777 386.215 273.105 402.548 279.092C418.88 285.079 419.509 290.012 402.75 298.734" fill="#C6302B"/>
<path d="M402.727 278.937C385.968 287.659 299.146 323.355 280.66 332.975C262.173 342.594 251.898 342.504 237.293 335.531C222.688 328.557 130.279 291.247 113.633 283.309C105.309 279.34 100.935 275.977 100.935 272.815V241.088C100.935 241.088 221.23 214.921 240.658 207.947C260.087 200.974 266.817 200.727 283.352 206.782C299.886 212.836 398.711 230.639 415.044 236.626C415.044 236.626 415.044 264.968 415.044 267.905C415.044 271.044 411.275 274.475 402.75 278.914" fill="#912626"/>
<path d="M402.727 247.41C385.969 256.132 299.146 291.829 280.66 301.448C262.173 311.09 251.898 310.978 237.293 304.004C222.688 297.031 130.279 259.72 113.655 251.782C97.0086 243.823 96.6721 238.351 113.005 231.961C129.36 225.571 221.252 189.538 240.681 182.565C260.109 175.591 266.84 175.345 283.374 181.399C299.909 187.453 386.215 221.781 402.548 227.768C418.88 233.755 419.509 238.688 402.75 247.41" fill="#C6302B"/>
<path d="M402.727 225.703C385.968 234.426 299.146 270.122 280.66 279.764C262.173 289.405 251.898 289.293 237.293 282.32C222.688 275.346 130.279 238.036 113.633 230.098C105.309 226.129 100.935 222.766 100.935 219.604V187.877C100.935 187.877 221.23 161.71 240.658 154.737C260.087 147.763 266.817 147.517 283.352 153.571C299.886 159.625 398.711 177.428 415.044 183.415C415.044 183.415 415.044 211.757 415.044 214.694C415.044 217.833 411.275 221.264 402.75 225.703" fill="#912626"/>
<path d="M354.089 215.794C324.565 228.485 291.294 242.656 280.66 248.194C262.173 257.836 251.898 257.724 237.293 250.75C222.688 243.777 130.279 206.466 113.655 198.529C97.0086 190.569 96.6721 185.098 113.005 178.707C129.36 172.317 221.252 136.284 240.681 129.311C260.109 122.337 266.84 122.091 283.374 128.145C299.909 134.199 386.215 168.527 402.548 174.514C418.88 180.501 419.509 185.434 402.75 194.156" fill="#C6302B"/>
<path d="M402.727 194.156C395.616 197.856 375.873 206.421 354.089 215.794Z" fill="#C6302B"/>
<path d="M296.386 163.282L269.375 166.085L263.34 180.614L253.581 164.403L222.396 161.6L245.661 153.214L238.684 140.344L260.468 148.864L280.996 142.138L275.455 155.456L296.386 163.304" fill="white"/>
<path d="M261.724 233.822L211.336 212.924L283.554 201.848L261.724 233.822Z" fill="white"/>
<path d="M191.841 171.375C213.154 171.375 230.429 178.079 230.429 186.331C230.429 194.582 213.154 201.286 191.841 201.286C170.528 201.286 153.253 194.582 153.253 186.331C153.253 178.079 170.528 171.375 191.841 171.375Z" fill="white"/>
<path d="M328.289 167.273L371.027 184.157L328.334 201.019L328.289 167.273Z" fill="#621B1C"/>
<path d="M281.019 185.95L328.311 167.25L328.356 200.996L323.712 202.812L281.019 185.95Z" fill="#9A2928"/>
</g>
<defs>
<linearGradient id="paint0_linear_1048_5613" x1="0" y1="257.857" x2="516" y2="257.857" gradientUnits="userSpaceOnUse">
<stop stop-color="#003A44"/>
<stop offset="0.67" stop-color="#19857C"/>
<stop offset="1" stop-color="#01634E"/>
</linearGradient>
<linearGradient id="paint1_linear_1048_5613" x1="169.271" y1="226.019" x2="392.699" y2="226.019" gradientUnits="userSpaceOnUse">
<stop stop-color="#003A44" stop-opacity="0"/>
<stop offset="0.47" stop-color="#00FF78"/>
</linearGradient>
<linearGradient id="paint2_linear_1048_5613" x1="106.79" y1="257.858" x2="492.309" y2="257.858" gradientUnits="userSpaceOnUse">
<stop stop-color="#003A44" stop-opacity="0"/>
<stop offset="0.47" stop-color="#00FF78"/>
</linearGradient>
<clipPath id="clip0_1048_5613">
<rect width="516" height="600" fill="white"/>
</clipPath>
</defs>
</svg>
