<svg width="315" height="366" viewBox="0 0 315 366" fill="none" xmlns="http://www.w3.org/2000/svg">
<g clip-path="url(#clip0_1048_5445)">
<path d="M315 157.293C315 70.4224 244.485 0 157.5 0C70.5152 0 0 70.4224 0 157.293C0 244.163 70.5152 314.586 157.5 314.586C244.485 314.586 315 244.163 315 157.293Z" fill="url(#paint0_linear_1048_5445)"/>
<g opacity="0.4">
<path d="M131.766 60.2354L156.898 39.1719H156.966C157.856 39.3087 158.733 39.4591 159.623 39.6232C213.584 50.3602 248.535 102.814 237.771 156.622C227.115 209.992 175.537 244.719 122.22 234.94C133.725 232.328 144.777 227.048 154.446 218.978C186.809 191.855 191.055 143.642 163.869 111.294C148.283 92.7609 125.795 83.4874 103.334 84.0345L131.766 60.2081V60.2354Z" fill="url(#paint1_linear_1048_5445)"/>
<path d="M187.069 294.615C141.791 303.697 97.2118 290.047 65.1914 261.556C67.054 260.749 68.8481 259.696 70.4916 258.301C73.8334 255.497 76.1068 251.845 77.2162 247.947C84.2147 251.968 91.6377 255.388 99.4442 258.068C166.087 280.951 238.619 245.499 261.464 178.971C284.377 112.415 248.878 39.9784 182.262 17.1641C240.277 26.6974 286.294 71.0813 297.744 128.541C313.11 204.931 263.559 279.255 187.069 294.601V294.615Z" fill="url(#paint2_linear_1048_5445)"/>
</g>
<path d="M267.887 310.197H256.848V299.159C256.848 297.641 255.615 296.41 254.095 296.41C252.575 296.41 251.342 297.655 251.342 299.159V310.197H240.304C238.783 310.197 237.551 311.442 237.551 312.946C237.551 314.451 238.783 315.696 240.304 315.696H251.342V326.733C251.342 328.252 252.575 329.483 254.095 329.483C255.615 329.483 256.848 328.238 256.848 326.733V315.696H267.887C269.407 315.696 270.639 314.451 270.639 312.946C270.639 311.442 269.407 310.197 267.887 310.197Z" fill="#00DBFF"/>
<path d="M292.95 297.873H281.911V286.835C281.911 285.317 280.679 284.086 279.159 284.086C277.638 284.086 276.406 285.331 276.406 286.835V297.873H265.367C263.847 297.873 262.614 299.118 262.614 300.622C262.614 302.127 263.847 303.371 265.367 303.371H276.406V314.409C276.406 315.927 277.638 317.158 279.159 317.158C280.679 317.158 281.911 315.914 281.911 314.409V303.371H292.95C294.47 303.371 295.703 302.127 295.703 300.622C295.703 299.118 294.47 297.873 292.95 297.873Z" fill="#00FF78"/>
<path d="M77.9148 352.597C78.9968 353.979 79.5309 355.565 79.5309 357.343C79.5309 359.915 78.627 361.939 76.8328 363.444C75.0387 364.948 72.5324 365.7 69.3139 365.7H54.9883V334.98H68.8346C71.9572 334.98 74.4087 335.692 76.1755 337.128C77.9422 338.55 78.8187 340.493 78.8187 342.941C78.8187 344.746 78.3394 346.251 77.3944 347.441C76.4494 348.631 75.1894 349.465 73.6007 349.93C75.3811 350.313 76.8191 351.188 77.9011 352.584L77.9148 352.597ZM62.4935 347.4H67.3965C68.6291 347.4 69.5605 347.126 70.2178 346.593C70.8752 346.059 71.2039 345.252 71.2039 344.213C71.2039 343.173 70.8752 342.366 70.2178 341.806C69.5605 341.245 68.6155 340.971 67.3965 340.971H62.4935V347.4ZM70.93 358.807C71.6148 358.232 71.9572 357.412 71.9572 356.331C71.9572 355.251 71.6011 354.403 70.8889 353.787C70.1768 353.172 69.1907 352.871 67.9307 352.871H62.4935V359.655H68.0128C69.2728 359.655 70.2452 359.368 70.93 358.807Z" fill="#303446"/>
<path d="M102.718 365.7L96.4588 356.29L90.9395 365.7H82.4345L92.2953 350.081L82.2153 334.98H90.9395L97.1162 344.254L102.553 334.98H111.058L101.293 350.464L111.456 365.687H102.731L102.718 365.7Z" fill="#303446"/>
<path d="M134.04 347.234V353.444H114.77V347.234H134.04Z" fill="#303446"/>
<path d="M156.295 365.7L149.899 354.102H148.105V365.7H140.613V334.98H153.186C155.61 334.98 157.678 335.404 159.39 336.252C161.102 337.1 162.376 338.263 163.225 339.727C164.074 341.204 164.499 342.845 164.499 344.651C164.499 346.689 163.923 348.521 162.773 350.122C161.622 351.722 159.924 352.857 157.664 353.541L164.759 365.7H156.308H156.295ZM148.105 348.809H152.748C154.117 348.809 155.144 348.467 155.829 347.796C156.514 347.126 156.856 346.182 156.856 344.951C156.856 343.72 156.514 342.872 155.829 342.189C155.144 341.505 154.117 341.176 152.748 341.176H148.105V348.795V348.809Z" fill="#303446"/>
<path d="M176.66 340.969V347.179H186.699V352.951H176.66V359.694H188.014V365.685H169.183V334.965H188.014V340.956H176.66V340.969Z" fill="#303446"/>
<path d="M212.899 336.909C215.323 338.195 217.199 340 218.528 342.312C219.856 344.637 220.527 347.304 220.527 350.34C220.527 353.377 219.87 356.017 218.528 358.342C217.199 360.681 215.309 362.486 212.872 363.772C210.434 365.058 207.613 365.7 204.394 365.7H192.876V334.98H204.394C207.64 334.98 210.475 335.623 212.899 336.909ZM210.53 356.906C212.105 355.36 212.899 353.172 212.899 350.34C212.899 347.509 212.105 345.307 210.53 343.734C208.955 342.161 206.75 341.368 203.915 341.368H200.367V359.217H203.915C206.75 359.217 208.955 358.451 210.53 356.892V356.906Z" fill="#303446"/>
<path d="M232.224 334.98V365.7H224.732V334.98H232.224Z" fill="#303446"/>
<path d="M242.728 364.905C240.948 364.18 239.523 363.1 238.455 361.664C237.387 360.228 236.825 358.518 236.771 356.494H244.741C244.865 357.629 245.248 358.504 245.919 359.092C246.59 359.694 247.467 359.995 248.549 359.995C249.631 359.995 250.535 359.735 251.178 359.229C251.822 358.723 252.137 358.012 252.137 357.109C252.137 356.357 251.877 355.728 251.37 355.222C250.863 354.729 250.233 354.319 249.48 353.991C248.741 353.676 247.672 353.307 246.303 352.896C244.317 352.281 242.701 351.665 241.441 351.064C240.181 350.448 239.099 349.545 238.195 348.355C237.291 347.165 236.839 345.593 236.839 343.678C236.839 340.819 237.88 338.576 239.948 336.962C242.016 335.348 244.728 334.527 248.056 334.527C251.384 334.527 254.178 335.334 256.246 336.962C258.314 338.576 259.423 340.833 259.574 343.719H251.466C251.411 342.734 251.041 341.941 250.37 341.38C249.699 340.805 248.836 340.532 247.782 340.532C246.878 340.532 246.152 340.778 245.591 341.257C245.029 341.735 244.755 342.433 244.755 343.336C244.755 344.321 245.221 345.1 246.152 345.661C247.083 346.222 248.549 346.81 250.535 347.453C252.52 348.123 254.137 348.766 255.369 349.381C256.616 349.997 257.684 350.886 258.588 352.048C259.492 353.211 259.944 354.716 259.944 356.562C259.944 358.409 259.492 359.899 258.601 361.336C257.711 362.772 256.424 363.907 254.726 364.755C253.027 365.603 251.028 366.027 248.727 366.027C246.426 366.027 244.467 365.658 242.687 364.933L242.728 364.905Z" fill="#303446"/>
<path d="M245.851 201.472C235.62 206.793 182.618 228.567 171.333 234.435C160.047 240.317 153.775 240.248 144.859 235.994C135.943 231.741 79.5306 208.981 69.3684 204.139C64.2874 201.718 61.6167 199.667 61.6167 197.738V178.384C61.6167 178.384 135.053 162.422 146.913 158.169C158.774 153.915 162.882 153.764 172.976 157.457C183.07 161.15 243.399 172.024 253.37 175.662C253.37 175.662 253.37 192.951 253.37 194.743C253.37 196.658 251.069 198.75 245.864 201.472" fill="#912626"/>
<path d="M245.851 182.227C235.62 187.548 182.618 209.323 171.333 215.19C160.048 221.072 153.775 221.003 144.859 216.75C135.943 212.496 79.5308 189.736 69.3823 184.894C59.2202 180.039 59.0147 176.702 68.9852 172.803C78.9693 168.905 135.067 146.925 146.927 142.672C158.788 138.432 162.896 138.267 172.99 141.96C183.084 145.653 235.771 166.594 245.741 170.246C255.712 173.898 256.095 176.907 245.864 182.227" fill="#C6302B"/>
<path d="M245.851 170.152C235.62 175.472 182.618 197.247 171.333 203.115C160.047 208.983 153.775 208.928 144.859 204.674C135.943 200.42 79.5306 177.661 69.3684 172.819C64.2874 170.398 61.6167 168.346 61.6167 166.418V147.064C61.6167 147.064 135.053 131.102 146.913 126.848C158.774 122.595 162.882 122.444 172.976 126.137C183.07 129.83 243.399 140.69 253.37 144.342C253.37 144.342 253.37 161.631 253.37 163.422C253.37 165.337 251.069 167.43 245.864 170.138" fill="#912626"/>
<path d="M245.851 150.92C235.62 156.24 182.618 178.015 171.333 183.883C160.048 189.764 153.775 189.696 144.859 185.442C135.943 181.188 79.5308 158.429 69.3823 153.587C59.2202 148.731 59.0147 145.394 68.9852 141.496C78.9693 137.598 135.067 115.618 146.927 111.364C158.788 107.11 162.896 106.96 172.99 110.653C183.084 114.346 235.771 135.286 245.741 138.938C255.712 142.59 256.095 145.599 245.864 150.92" fill="#C6302B"/>
<path d="M245.851 137.681C235.62 143.002 182.618 164.776 171.333 170.658C160.047 176.539 153.775 176.471 144.859 172.217C135.943 167.963 79.5306 145.204 69.3684 140.362C64.2874 137.941 61.6167 135.889 61.6167 133.961V114.607C61.6167 114.607 135.053 98.645 146.913 94.3913C158.774 90.1375 162.882 89.9871 172.976 93.68C183.07 97.373 243.399 108.233 253.37 111.885C253.37 111.885 253.37 129.174 253.37 130.965C253.37 132.88 251.069 134.973 245.864 137.681" fill="#912626"/>
<path d="M216.159 131.634C198.135 139.376 177.824 148.02 171.333 151.398C160.048 157.28 153.775 157.211 144.859 152.958C135.943 148.704 79.5308 125.944 69.3823 121.102C59.2202 116.247 59.0147 112.91 68.9852 109.011C78.9693 105.113 135.067 83.1333 146.927 78.8796C158.788 74.6258 162.896 74.4754 172.99 78.1683C183.084 81.8613 235.771 102.802 245.741 106.454C255.712 110.106 256.095 113.115 245.864 118.435" fill="#C6302B"/>
<path d="M245.85 118.434C241.509 120.69 229.457 125.915 216.158 131.633Z" fill="#C6302B"/>
<path d="M180.933 99.6016L164.444 101.311L160.76 110.174L154.802 100.285L135.765 98.5758L149.968 93.4603L145.708 85.6094L159.007 90.8069L171.538 86.7036L168.155 94.8281L180.933 99.6153" fill="white"/>
<path d="M159.774 142.629L129.013 129.882L173.099 123.125L159.774 142.629Z" fill="white"/>
<path d="M117.112 104.539C130.123 104.539 140.668 108.629 140.668 113.662C140.668 118.695 130.123 122.785 117.112 122.785C104.101 122.785 93.5552 118.695 93.5552 113.662C93.5552 108.629 104.101 104.539 117.112 104.539Z" fill="white"/>
<path d="M200.408 102.035L226.498 112.334L200.436 122.62L200.408 102.035Z" fill="#621B1C"/>
<path d="M171.552 113.431L200.422 102.023L200.45 122.608L197.615 123.716L171.552 113.431Z" fill="#9A2928"/>
</g>
<defs>
<linearGradient id="paint0_linear_1048_5445" x1="0" y1="157.293" x2="315" y2="157.293" gradientUnits="userSpaceOnUse">
<stop stop-color="#003A44"/>
<stop offset="0.67" stop-color="#19857C"/>
<stop offset="1" stop-color="#01634E"/>
</linearGradient>
<linearGradient id="paint1_linear_1048_5445" x1="103.334" y1="137.87" x2="239.729" y2="137.87" gradientUnits="userSpaceOnUse">
<stop stop-color="#003A44" stop-opacity="0"/>
<stop offset="0.47" stop-color="#00FF78"/>
</linearGradient>
<linearGradient id="paint2_linear_1048_5445" x1="65.1914" y1="157.291" x2="300.537" y2="157.291" gradientUnits="userSpaceOnUse">
<stop stop-color="#003A44" stop-opacity="0"/>
<stop offset="0.47" stop-color="#00FF78"/>
</linearGradient>
<clipPath id="clip0_1048_5445">
<rect width="315" height="366" fill="white"/>
</clipPath>
</defs>
</svg>
