<svg width="172" height="200" viewBox="0 0 172 200" fill="none" xmlns="http://www.w3.org/2000/svg">
<g clip-path="url(#clip0_1048_5583)">
<path d="M86 4.48447C107.679 4.48447 128.125 12.9825 143.568 28.4166C159.01 43.8507 167.513 64.2849 167.513 85.9524C167.513 107.62 159.01 128.054 143.568 143.488C128.125 158.922 107.679 167.42 86 167.42C64.3205 167.42 43.875 158.922 28.4323 143.488C12.9897 128.054 4.48696 107.62 4.48696 85.9524C4.48696 64.2849 12.9897 43.8507 28.4323 28.4166C43.875 12.9825 64.3205 4.48447 86 4.48447ZM86 0C38.7 0 0 38.6786 0 85.9524C0 133.226 38.7 171.905 86 171.905C133.3 171.905 172 133.226 172 85.9524C172 38.6786 133.3 0 86 0Z" fill="#303446"/>
<g opacity="0.2">
<path d="M71.9487 32.9164L85.6713 21.4062H85.7087C86.1948 21.481 86.6734 21.5632 87.1595 21.6529C116.624 27.5201 135.708 56.1833 129.83 85.5865C124.012 114.751 95.8492 133.727 66.7363 128.383C73.0181 126.956 79.053 124.071 84.3327 119.661C102.004 104.84 104.322 78.4936 89.4777 60.8173C80.9675 50.6899 68.6882 45.6224 56.4238 45.9214L71.9487 32.9014V32.9164Z" fill="url(#paint0_linear_1048_5583)"/>
<path d="M102.146 160.991C77.4226 165.954 53.0809 158.495 35.5967 142.926C36.6137 142.486 37.5934 141.91 38.4908 141.148C40.3155 139.615 41.5569 137.62 42.1626 135.49C45.984 137.687 50.0372 139.556 54.2998 141.021C90.689 153.525 130.294 134.152 142.768 97.7978C155.279 61.4287 135.895 21.8457 99.5209 9.37891C131.199 14.5884 156.326 38.8419 162.578 70.2407C170.968 111.984 143.912 152.598 102.146 160.984V160.991Z" fill="url(#paint1_linear_1048_5583)"/>
</g>
<path d="M146.096 169.507H140.068V163.475C140.068 162.645 139.395 161.973 138.565 161.973C137.735 161.973 137.062 162.653 137.062 163.475V169.507H131.034C130.204 169.507 129.531 170.187 129.531 171.009C129.531 171.831 130.204 172.511 131.034 172.511H137.062V178.543C137.062 179.372 137.735 180.045 138.565 180.045C139.395 180.045 140.068 179.365 140.068 178.543V172.511H146.096C146.926 172.511 147.599 171.831 147.599 171.009C147.599 170.187 146.926 169.507 146.096 169.507Z" fill="#303446"/>
<path d="M159.781 162.772H153.754V156.741C153.754 155.911 153.081 155.238 152.251 155.238C151.42 155.238 150.747 155.918 150.747 156.741V162.772H144.72C143.89 162.772 143.217 163.452 143.217 164.274C143.217 165.097 143.89 165.777 144.72 165.777H150.747V171.808C150.747 172.638 151.42 173.311 152.251 173.311C153.081 173.311 153.754 172.631 153.754 171.808V165.777H159.781C160.611 165.777 161.284 165.097 161.284 164.274C161.284 163.452 160.611 162.772 159.781 162.772Z" fill="#303446"/>
<path d="M42.544 192.674C43.1348 193.428 43.4264 194.295 43.4264 195.267C43.4264 196.672 42.9329 197.778 41.9532 198.601C40.9736 199.423 39.605 199.834 37.8477 199.834H30.0254V183.047H37.5859C39.291 183.047 40.6296 183.436 41.5943 184.22C42.559 184.998 43.0376 186.059 43.0376 187.397C43.0376 188.383 42.7758 189.206 42.2598 189.856C41.7438 190.506 41.0558 190.962 40.1883 191.216C41.1605 191.425 41.9457 191.904 42.5365 192.666L42.544 192.674ZM34.1235 189.833H36.8007C37.4737 189.833 37.9823 189.684 38.3412 189.392C38.7002 189.101 38.8797 188.66 38.8797 188.092C38.8797 187.524 38.7002 187.083 38.3412 186.776C37.9823 186.47 37.4663 186.321 36.8007 186.321H34.1235V189.833ZM38.7301 196.067C39.104 195.753 39.291 195.304 39.291 194.714C39.291 194.124 39.0965 193.66 38.7076 193.324C38.3188 192.987 37.7803 192.823 37.0923 192.823H34.1235V196.53H37.1372C37.8252 196.53 38.3562 196.373 38.7301 196.067Z" fill="#303446"/>
<path d="M56.0875 199.834L52.67 194.692L49.6562 199.834H45.0122L50.3966 191.298L44.8926 183.047H49.6562L53.0289 188.114L55.9978 183.047H60.6418L55.3098 191.508L60.8587 199.826H56.095L56.0875 199.834Z" fill="#303446"/>
<path d="M73.1899 189.746V193.139H62.668V189.746H73.1899Z" fill="#303446"/>
<path d="M85.3419 199.834L81.8496 193.496H80.8699V199.834H76.7793V183.047H83.6443C84.968 183.047 86.0972 183.279 87.032 183.742C87.9668 184.205 88.6623 184.841 89.1259 185.64C89.5896 186.448 89.8214 187.344 89.8214 188.331C89.8214 189.445 89.5073 190.446 88.8791 191.321C88.2509 192.195 87.3236 192.816 86.0897 193.189L89.9635 199.834H85.3494H85.3419ZM80.8699 190.603H83.405C84.1529 190.603 84.7137 190.416 85.0876 190.05C85.4616 189.684 85.6485 189.168 85.6485 188.496C85.6485 187.823 85.4616 187.359 85.0876 186.986C84.7137 186.612 84.1529 186.433 83.405 186.433H80.8699V190.596V190.603Z" fill="#303446"/>
<path d="M96.462 186.32V189.713H101.944V192.868H96.462V196.552H102.662V199.826H92.3789V183.039H102.662V186.313H96.462V186.32Z" fill="#303446"/>
<path d="M116.25 184.101C117.573 184.803 118.598 185.79 119.323 187.053C120.049 188.324 120.415 189.781 120.415 191.44C120.415 193.1 120.056 194.542 119.323 195.813C118.598 197.091 117.566 198.077 116.235 198.78C114.904 199.482 113.363 199.834 111.606 199.834H105.316V183.047H111.606C113.378 183.047 114.926 183.398 116.25 184.101ZM114.956 195.028C115.816 194.183 116.25 192.987 116.25 191.44C116.25 189.893 115.816 188.69 114.956 187.83C114.096 186.971 112.892 186.537 111.344 186.537H109.407V196.291H111.344C112.892 196.291 114.096 195.872 114.956 195.02V195.028Z" fill="#303446"/>
<path d="M126.802 183.047V199.834H122.711V183.047H126.802Z" fill="#303446"/>
<path d="M132.537 199.401C131.565 199.005 130.787 198.414 130.204 197.629C129.621 196.845 129.314 195.91 129.284 194.804H133.637C133.704 195.425 133.913 195.903 134.28 196.224C134.646 196.553 135.125 196.718 135.715 196.718C136.306 196.718 136.8 196.576 137.151 196.299C137.503 196.023 137.675 195.634 137.675 195.141C137.675 194.729 137.533 194.386 137.256 194.109C136.979 193.84 136.635 193.616 136.224 193.436C135.82 193.265 135.237 193.063 134.489 192.839C133.405 192.502 132.522 192.166 131.834 191.837C131.146 191.501 130.555 191.007 130.062 190.357C129.568 189.707 129.322 188.847 129.322 187.801C129.322 186.239 129.89 185.013 131.019 184.131C132.148 183.249 133.629 182.801 135.446 182.801C137.263 182.801 138.789 183.242 139.918 184.131C141.047 185.013 141.653 186.246 141.735 187.823H137.308C137.278 187.285 137.077 186.852 136.71 186.545C136.344 186.231 135.873 186.082 135.297 186.082C134.803 186.082 134.407 186.216 134.1 186.478C133.794 186.74 133.644 187.121 133.644 187.614C133.644 188.152 133.898 188.578 134.407 188.885C134.915 189.191 135.715 189.513 136.8 189.864C137.884 190.23 138.767 190.581 139.44 190.918C140.12 191.254 140.703 191.74 141.197 192.375C141.691 193.01 141.937 193.833 141.937 194.842C141.937 195.851 141.691 196.665 141.205 197.45C140.718 198.235 140.015 198.855 139.088 199.319C138.161 199.782 137.069 200.014 135.813 200.014C134.556 200.014 133.487 199.812 132.515 199.416L132.537 199.401Z" fill="#303446"/>
<path d="M138.341 95.9918C138.348 97.0083 137.009 98.1369 134.242 99.5794C128.656 102.487 99.7153 114.386 93.5532 117.592C87.3911 120.806 83.9661 120.769 79.0977 118.444C74.2294 116.12 43.4264 103.683 37.885 101.037C35.0508 99.6841 33.6449 98.548 33.6598 97.4717H33.6523V108.048C33.6523 109.101 35.1106 110.223 37.885 111.545C43.4339 114.199 74.2369 126.628 79.1052 128.953C83.9736 131.277 87.3986 131.307 93.5607 128.101C99.7228 124.887 128.664 112.995 134.25 110.088C137.092 108.608 138.348 107.457 138.348 106.411C138.348 105.432 138.348 95.9844 138.348 95.9844L138.341 95.9918Z" fill="#303446"/>
<path d="M138.341 78.8828C138.348 79.8993 137.009 81.0279 134.242 82.4704C128.656 85.3778 99.7153 97.2766 93.5532 100.483C87.3911 103.697 83.9661 103.66 79.0977 101.335C74.2294 99.0106 43.4264 86.5737 37.885 83.9278C35.0508 82.575 33.6449 81.439 33.6598 80.3627H33.6523V90.9386C33.6523 91.9924 35.1106 93.1135 37.885 94.4365C43.4339 97.0898 74.2369 109.519 79.1052 111.844C83.9736 114.168 87.3986 114.198 93.5607 110.992C99.7228 107.778 128.664 95.8864 134.25 92.979C137.092 91.4991 138.348 90.3481 138.348 89.3092C138.348 88.3301 138.348 78.8828 138.348 78.8828H138.341Z" fill="#303446"/>
<path d="M138.341 61.1325C138.348 62.149 137.009 63.2775 134.242 64.7201L118.03 71.9326C108.188 76.1629 97.0979 80.8866 93.5532 82.7327C87.3911 85.9466 83.9661 85.9092 79.0977 83.5847C74.2294 81.2603 43.4264 68.8233 37.885 66.1775C35.0508 64.8247 33.6449 63.6886 33.6598 62.6123H33.6523V73.1882C33.6523 74.2421 35.1106 75.3632 37.885 76.6861C43.4339 79.332 74.2369 91.7689 79.1052 94.0933C83.9736 96.4178 87.3986 96.4477 93.5607 93.2413C99.7228 90.0274 128.664 78.1361 134.25 75.2212C137.092 73.7413 138.348 72.5903 138.348 71.5514C138.348 70.5723 138.348 61.125 138.348 61.125L138.341 61.1325Z" fill="#303446"/>
<path d="M134.242 64.7188C131.872 65.952 125.291 68.8071 118.029 71.9313Z" fill="#303446"/>
<path d="M134.175 58.1727C128.731 56.1771 99.9617 44.7342 94.4502 42.7162C88.9387 40.6982 86.6953 40.7804 80.2191 43.1049C73.7429 45.4293 43.112 57.4402 37.6603 59.5704C32.2087 61.7005 32.3283 63.5317 37.8772 66.1775C43.426 68.8308 74.229 81.2603 79.0899 83.5847C83.9582 85.9092 87.3833 85.9391 93.5453 82.7327C97.09 80.8866 108.18 76.1629 118.022 71.9326L134.235 64.72C139.821 61.8126 139.611 60.1683 134.167 58.1727H134.175ZM79.561 46.7822L86.8224 49.6223L93.665 47.3801L91.8179 51.8197L98.7951 54.4357L89.7913 55.3699L87.7796 60.2131L84.5266 54.8094L74.1318 53.8751L81.8867 51.0798L79.561 46.7896V46.7822ZM51.0838 62.1116C51.0838 59.3611 56.842 57.1263 63.9464 57.1263C71.0507 57.1263 76.809 59.3611 76.809 62.1116C76.809 64.862 71.0507 67.0968 63.9464 67.0968C56.842 67.0968 51.0838 64.862 51.0838 62.1116ZM87.2412 77.9418L70.445 70.9759L94.5175 67.2837L87.2412 77.9418ZM109.444 67.0071L107.896 67.6125L93.665 61.992L109.429 55.7586L123.675 61.3866L109.444 67.0071Z" fill="#303446"/>
</g>
<defs>
<linearGradient id="paint0_linear_1048_5583" x1="56.4238" y1="75.3395" x2="130.9" y2="75.3395" gradientUnits="userSpaceOnUse">
<stop stop-color="#303446" stop-opacity="0"/>
<stop offset="0.52" stop-color="#303446"/>
</linearGradient>
<linearGradient id="paint1_linear_1048_5583" x1="35.5967" y1="85.9513" x2="164.103" y2="85.9513" gradientUnits="userSpaceOnUse">
<stop stop-color="#303446" stop-opacity="0"/>
<stop offset="0.52" stop-color="#303446"/>
</linearGradient>
<clipPath id="clip0_1048_5583">
<rect width="172" height="200" fill="white"/>
</clipPath>
</defs>
</svg>
