<svg width="516" height="600" viewBox="0 0 516 600" fill="none" xmlns="http://www.w3.org/2000/svg">
<g clip-path="url(#clip0_1048_5709)">
<path d="M258 13.4534C323.038 13.4534 384.375 38.9476 430.703 85.2498C477.031 131.552 502.539 192.855 502.539 257.857C502.539 322.86 477.031 384.162 430.703 430.465C384.375 476.767 323.038 502.261 258 502.261C192.962 502.261 131.625 476.767 85.297 430.465C38.9692 384.162 13.4609 322.86 13.4609 257.857C13.4609 192.855 38.9692 131.552 85.297 85.2498C131.625 38.9476 192.962 13.4534 258 13.4534ZM258 0C116.1 0 0 116.036 0 257.857C0 399.679 116.1 515.714 258 515.714C399.9 515.714 516 399.679 516 257.857C516 116.036 399.9 0 258 0Z" fill="white"/>
<g opacity="0.2">
<path d="M215.845 98.7492L257.013 64.2188H257.125C258.583 64.443 260.019 64.6896 261.477 64.9587C349.871 82.5602 407.124 168.55 389.49 256.76C372.036 344.252 287.547 401.182 200.208 385.15C219.053 380.867 237.158 372.212 252.997 358.983C306.011 314.52 312.965 235.481 268.432 182.452C242.901 152.07 206.064 136.867 169.271 137.764L215.845 98.7043V98.7492Z" fill="url(#paint0_linear_1048_5709)"/>
<path d="M306.437 482.978C232.268 497.867 159.243 475.489 106.79 428.783C109.841 427.46 112.78 425.734 115.472 423.447C120.946 418.85 124.671 412.864 126.488 406.473C137.952 413.065 150.112 418.671 162.899 423.066C272.067 460.578 390.882 402.46 428.303 293.397C465.836 184.29 407.685 65.5411 298.563 28.1406C393.596 43.769 468.977 116.53 487.733 210.726C512.904 335.955 431.735 457.798 306.437 482.956V482.978Z" fill="url(#paint1_linear_1048_5709)"/>
</g>
<path d="M438.286 508.516H420.203V490.421C420.203 487.932 418.184 485.914 415.694 485.914C413.204 485.914 411.185 487.954 411.185 490.421V508.516H393.102C390.612 508.516 388.593 510.556 388.593 513.023C388.593 515.489 390.612 517.53 393.102 517.53H411.185V535.624C411.185 538.113 413.204 540.131 415.694 540.131C418.184 540.131 420.203 538.091 420.203 535.624V517.53H438.286C440.776 517.53 442.795 515.489 442.795 513.023C442.795 510.556 440.776 508.516 438.286 508.516Z" fill="white"/>
<path d="M479.342 488.313H461.259V470.218C461.259 467.729 459.24 465.711 456.75 465.711C454.259 465.711 452.24 467.751 452.24 470.218V488.313H434.158C431.668 488.313 429.648 490.353 429.648 492.82C429.648 495.286 431.668 497.326 434.158 497.326H452.24V515.421C452.24 517.91 454.259 519.928 456.75 519.928C459.24 519.928 461.259 517.888 461.259 515.421V497.326H479.342C481.832 497.326 483.851 495.286 483.851 492.82C483.851 490.353 481.832 488.313 479.342 488.313Z" fill="white"/>
<path d="M127.631 578.025C129.403 580.289 130.278 582.89 130.278 585.805C130.278 590.021 128.798 593.339 125.859 595.805C122.92 598.272 118.814 599.505 113.542 599.505H90.0752V549.145H112.757C117.872 549.145 121.888 550.31 124.782 552.665C127.676 554.997 129.112 558.181 129.112 562.194C129.112 565.154 128.326 567.621 126.778 569.571C125.23 571.522 123.167 572.89 120.564 573.652C123.481 574.28 125.836 575.715 127.609 578.002L127.631 578.025ZM102.369 569.504H110.401C112.42 569.504 113.946 569.056 115.023 568.181C116.1 567.307 116.638 565.984 116.638 564.28C116.638 562.576 116.1 561.253 115.023 560.333C113.946 559.414 112.398 558.966 110.401 558.966H102.369V569.504ZM116.189 588.204C117.311 587.263 117.872 585.917 117.872 584.146C117.872 582.374 117.289 580.984 116.122 579.975C114.955 578.966 113.34 578.473 111.276 578.473H102.369V589.594H111.411C113.475 589.594 115.068 589.124 116.189 588.204Z" fill="white"/>
<path d="M168.261 599.505L158.008 584.079L148.967 599.505H135.035L151.188 573.899L134.676 549.145H148.967L159.085 564.347L167.991 549.145H181.923L165.927 574.527L182.574 599.483H168.283L168.261 599.505Z" fill="white"/>
<path d="M219.569 569.238V579.418H188.003V569.238H219.569Z" fill="white"/>
<path d="M256.026 599.505L245.549 580.491H242.61V599.505H230.338V549.145H250.933C254.904 549.145 258.292 549.84 261.096 551.23C263.9 552.62 265.987 554.526 267.378 556.925C268.769 559.347 269.464 562.037 269.464 564.997C269.464 568.338 268.522 571.343 266.637 573.966C264.753 576.589 261.971 578.451 258.269 579.572L269.89 599.505H256.048H256.026ZM242.61 571.814H250.215C252.459 571.814 254.141 571.253 255.263 570.154C256.385 569.056 256.946 567.508 256.946 565.49C256.946 563.472 256.385 562.082 255.263 560.961C254.141 559.84 252.459 559.302 250.215 559.302H242.61V571.791V571.814Z" fill="white"/>
<path d="M289.386 558.968V569.148H305.831V578.61H289.386V589.665H307.985V599.486H277.137V549.125H307.985V558.946H289.386V558.968Z" fill="white"/>
<path d="M348.748 552.306C352.719 554.414 355.792 557.374 357.969 561.163C360.145 564.975 361.244 569.347 361.244 574.325C361.244 579.303 360.167 583.63 357.969 587.442C355.792 591.276 352.696 594.236 348.703 596.344C344.71 598.451 340.088 599.505 334.816 599.505H315.948V549.145H334.816C340.133 549.145 344.777 550.198 348.748 552.306ZM344.867 585.088C347.447 582.554 348.748 578.966 348.748 574.325C348.748 569.683 347.447 566.073 344.867 563.495C342.287 560.916 338.675 559.616 334.031 559.616H328.22V588.877H334.031C338.675 588.877 342.287 587.621 344.867 585.065V585.088Z" fill="white"/>
<path d="M380.404 549.145V599.505H368.132V549.145H380.404Z" fill="white"/>
<path d="M397.612 598.206C394.695 597.018 392.362 595.247 390.612 592.892C388.862 590.538 387.942 587.735 387.853 584.417H400.91C401.111 586.278 401.74 587.713 402.839 588.677C403.938 589.663 405.374 590.157 407.146 590.157C408.919 590.157 410.399 589.731 411.454 588.901C412.508 588.071 413.024 586.905 413.024 585.426C413.024 584.192 412.598 583.161 411.768 582.331C410.938 581.524 409.906 580.851 408.672 580.313C407.461 579.798 405.711 579.192 403.467 578.52C400.214 577.51 397.567 576.501 395.503 575.515C393.439 574.506 391.666 573.026 390.186 571.075C388.705 569.125 387.965 566.546 387.965 563.407C387.965 558.721 389.67 555.043 393.057 552.397C396.445 549.752 400.887 548.406 406.339 548.406C411.79 548.406 416.367 549.729 419.755 552.397C423.142 555.043 424.96 558.743 425.206 563.474H411.925C411.835 561.86 411.23 560.559 410.13 559.64C409.031 558.698 407.618 558.25 405.89 558.25C404.409 558.25 403.22 558.653 402.301 559.438C401.381 560.223 400.932 561.366 400.932 562.846C400.932 564.461 401.695 565.739 403.22 566.658C404.746 567.577 407.146 568.542 410.399 569.595C413.653 570.694 416.3 571.748 418.319 572.757C420.361 573.766 422.11 575.223 423.591 577.129C425.072 579.035 425.812 581.502 425.812 584.529C425.812 587.556 425.072 590 423.614 592.354C422.155 594.708 420.046 596.569 417.265 597.96C414.483 599.35 411.207 600.045 407.438 600.045C403.669 600.045 400.461 599.44 397.544 598.251L397.612 598.206Z" fill="white"/>
<path d="M415.022 287.972C415.044 291.021 411.028 294.407 402.727 298.734C385.968 307.457 299.146 343.153 280.66 352.772C262.173 362.414 251.898 362.302 237.293 355.328C222.688 348.355 130.279 311.044 113.655 303.107C105.152 299.048 100.935 295.64 100.979 292.411H100.957V324.139C100.957 327.3 105.332 330.664 113.655 334.633C130.302 342.593 222.711 379.881 237.316 386.854C251.921 393.828 262.196 393.917 280.682 384.298C299.168 374.656 385.991 338.983 402.75 330.26C411.275 325.821 415.044 322.368 415.044 319.228C415.044 316.291 415.044 287.949 415.044 287.949L415.022 287.972Z" fill="white"/>
<path d="M415.022 236.648C415.044 239.698 411.028 243.084 402.727 247.411C385.968 256.133 299.146 291.83 280.66 301.449C262.173 311.091 251.898 310.979 237.293 304.005C222.688 297.032 130.279 259.721 113.655 251.784C105.152 247.725 100.935 244.317 100.979 241.088H100.957V272.816C100.957 275.977 105.332 279.341 113.655 283.309C130.302 291.269 222.711 328.558 237.316 335.531C251.921 342.504 262.196 342.594 280.682 332.975C299.168 323.333 385.991 287.659 402.75 278.937C411.275 274.497 415.044 271.044 415.044 267.928C415.044 264.99 415.044 236.648 415.044 236.648H415.022Z" fill="white"/>
<path d="M415.022 183.394C415.044 186.443 411.028 189.829 402.727 194.156L354.089 215.794C324.564 228.485 291.294 242.656 280.66 248.194C262.173 257.836 251.898 257.724 237.293 250.75C222.688 243.777 130.279 206.466 113.655 198.529C105.152 194.47 100.935 191.062 100.979 187.833H100.957V219.561C100.957 222.722 105.332 226.086 113.655 230.054C130.302 237.992 222.711 275.303 237.316 282.276C251.921 289.249 262.196 289.339 280.682 279.72C299.168 270.078 385.991 234.404 402.75 225.66C411.275 221.22 415.044 217.767 415.044 214.65C415.044 211.713 415.044 183.371 415.044 183.371L415.022 183.394Z" fill="white"/>
<path d="M402.727 194.156C395.616 197.856 375.873 206.421 354.089 215.794L402.727 194.156Z" fill="white"/>
<path d="M402.525 174.514C386.193 168.527 299.886 134.199 283.352 128.145C266.817 122.091 260.087 122.337 240.658 129.311C221.23 136.284 129.337 172.317 112.982 178.707C96.6269 185.098 96.9859 190.591 113.632 198.529C130.279 206.489 222.688 243.777 237.271 250.75C251.876 257.724 262.151 257.813 280.637 248.194C291.271 242.656 324.542 228.485 354.066 215.794L402.705 194.156C419.463 185.434 418.835 180.501 402.503 174.514H402.525ZM238.684 140.343L260.468 148.863L280.996 142.136L275.455 155.455L296.386 163.303L269.375 166.106L263.34 180.636L253.581 164.424L222.396 161.621L245.661 153.235L238.684 140.365V140.343ZM153.252 186.331C153.252 178.079 170.527 171.375 191.84 171.375C213.153 171.375 230.428 178.079 230.428 186.331C230.428 194.582 213.153 201.287 191.84 201.287C170.527 201.287 153.252 194.582 153.252 186.331ZM261.725 233.821L211.336 212.924L283.554 201.847L261.725 233.821ZM328.333 201.017L323.689 202.834L280.996 185.972L328.289 167.272L371.027 184.156L328.333 201.017Z" fill="white"/>
</g>
<defs>
<linearGradient id="paint0_linear_1048_5709" x1="169.271" y1="226.019" x2="392.699" y2="226.019" gradientUnits="userSpaceOnUse">
<stop stop-color="white" stop-opacity="0"/>
<stop offset="0.52" stop-color="white"/>
</linearGradient>
<linearGradient id="paint1_linear_1048_5709" x1="106.79" y1="257.858" x2="492.309" y2="257.858" gradientUnits="userSpaceOnUse">
<stop stop-color="white" stop-opacity="0"/>
<stop offset="0.52" stop-color="white"/>
</linearGradient>
<clipPath id="clip0_1048_5709">
<rect width="516" height="600" fill="white"/>
</clipPath>
</defs>
</svg>
