<svg width="73" height="75" viewBox="0 0 73 75" fill="none" xmlns="http://www.w3.org/2000/svg">
<g clip-path="url(#clip0_902_2056)">
<path d="M14.3086 43.3905C10.7989 43.3905 7.47934 42.026 4.96081 39.55C2.42928 37.0611 1.03516 33.7658 1.03516 30.271C1.03516 27.1606 2.17906 24.1347 4.25562 21.7512C6.10146 19.6322 8.568 18.1444 11.2685 17.5051C11.6276 8.36236 19.1881 1.03516 28.4303 1.03516C31.4233 1.03516 34.3642 1.81071 36.9364 3.27907C39.195 4.56734 41.1367 6.36993 42.6023 8.52785C44.4497 7.57707 46.5052 7.07896 48.6045 7.07896C51.7535 7.07896 54.8017 8.21309 57.187 10.2704C59.3578 12.1444 60.8543 14.669 61.4523 17.4419C67.4951 18.735 71.9651 24.1249 71.9651 30.271C71.9651 33.7658 70.571 37.0611 68.0394 39.55C65.5209 42.0276 62.2013 43.3905 58.69 43.3905H14.3086Z" fill="#33CFFF"/>
<path d="M28.4301 2.06706C34.1903 2.06706 39.3768 5.07518 42.2561 9.9086C44.149 8.73878 46.3328 8.11087 48.6044 8.11087C54.6424 8.11087 59.6599 12.5468 60.565 18.3261C66.3527 19.2299 70.9299 24.2401 70.9299 30.2693C70.9299 36.9346 65.3664 42.3569 58.6915 42.3569H14.3085C7.63358 42.3569 2.07007 36.9346 2.07007 30.2693C2.07007 24.2904 6.57418 19.311 12.2937 18.3505C12.2921 18.2953 12.2921 18.2385 12.2921 18.1833C12.2921 9.29692 19.5324 2.06706 28.4318 2.06706M28.4301 0C18.8906 0 11.0409 7.3629 10.2821 16.6971C7.66608 17.4711 5.29216 18.9865 3.47557 21.0714C1.23489 23.643 0 26.9091 0 30.2693C0 34.0433 1.50299 37.5998 4.23438 40.285C6.94789 42.954 10.5258 44.424 14.3085 44.424H58.6915C62.4742 44.424 66.0521 42.954 68.7656 40.285C71.4954 37.5998 73 34.0433 73 30.2693C73 26.8799 71.7472 23.5911 69.4724 21.0097C67.5665 18.8469 65.0626 17.3072 62.3101 16.5819C61.5837 13.8432 60.0369 11.3624 57.8628 9.48675C55.289 7.26555 52.002 6.04381 48.6044 6.04381C46.6432 6.04381 44.7177 6.44781 42.9401 7.22174C41.4583 5.25365 39.588 3.60032 37.4497 2.38021C34.7216 0.822607 31.6019 0 28.4301 0Z" fill="white"/>
<path d="M27.3402 43.3907C24.7907 43.3907 22.3795 42.3993 20.5499 40.6016C18.7105 38.7925 17.6982 36.3977 17.6982 33.8569C17.6982 31.5951 18.5302 29.3966 20.0397 27.6638C21.3298 26.1841 23.0343 25.1294 24.9077 24.6362C25.2831 18.1511 30.6857 12.9883 37.2729 12.9883C41.3367 12.9883 45.0316 14.9077 47.3422 18.1722C48.6209 17.5589 50.028 17.2392 51.4612 17.2392C53.749 17.2392 55.9653 18.0635 57.6974 19.5594C59.2247 20.8769 60.2923 22.6389 60.7537 24.5778C65.045 25.5886 68.1988 29.4566 68.1988 33.8585C68.1988 36.3993 67.1865 38.7941 65.3472 40.6032C63.5176 42.4026 61.1063 43.3923 58.5569 43.3923H27.3418L27.3402 43.3907Z" fill="#0D87C5"/>
<path d="M37.2728 14.0218C41.3252 14.0218 44.9714 16.1375 46.9976 19.5367C48.3299 18.7141 49.8638 18.2728 51.4627 18.2728C55.7101 18.2728 59.2392 21.3928 59.8746 25.4572C63.9448 26.0916 67.1653 29.6173 67.1653 33.8569C67.1653 38.5443 63.2526 42.3587 58.5568 42.3587H27.3417C22.6474 42.3587 18.7332 38.5459 18.7332 33.8569C18.7332 29.6513 21.9016 26.15 25.9232 25.4734C25.9232 25.4345 25.9232 25.3939 25.9232 25.3566C25.9232 19.1067 31.0155 14.0218 37.2744 14.0218M37.2728 11.9547C30.3818 11.9547 24.6883 17.1662 23.9359 23.8493C22.1421 24.4561 20.5205 25.5367 19.258 26.9856C17.5844 28.9066 16.6631 31.3468 16.6631 33.8569C16.6631 36.6768 17.7859 39.3328 19.8234 41.3382C21.848 43.329 24.5176 44.4258 27.34 44.4258H58.5552C61.3792 44.4258 64.0472 43.329 66.0718 41.3382C68.1093 39.3328 69.2321 36.6768 69.2321 33.8569C69.2321 31.3241 68.2962 28.8677 66.5982 26.9385C65.2561 25.415 63.5159 24.3068 61.5969 23.7325C61.0201 21.8228 59.9054 20.0981 58.3732 18.7757C56.4526 17.1175 53.9958 16.2041 51.4594 16.2041C50.1563 16.2041 48.8743 16.4426 47.6735 16.9034C46.632 15.6167 45.3581 14.5297 43.9185 13.7087C41.9069 12.5599 39.6077 11.9531 37.2695 11.9531L37.2728 11.9547Z" fill="white"/>
<path d="M54.7755 73.9688C53.6299 73.9688 52.5299 73.6151 51.5972 72.945C49.3858 71.3566 48.7229 68.4069 49.9269 66.0559L44.4495 59.5805C44.1001 59.157 43.91 58.62 43.9149 58.0716V52.276H39.3198V59.1051C40.6847 59.7525 41.7295 60.9434 42.1828 62.4085C43.0684 65.2706 41.4581 68.3193 38.5919 69.2052C38.0687 69.3674 37.5276 69.4485 36.9833 69.4485C34.5834 69.4485 32.4954 67.9088 31.7853 65.6194C31.3564 64.2322 31.4929 62.7622 32.1721 61.4788C32.7278 60.4274 33.5906 59.6048 34.6484 59.1067V52.2793H29.2733V57.3496C29.2782 57.9093 29.0783 58.4496 28.7111 58.8731L23.1817 65.4036C23.7975 66.7811 23.817 68.3647 23.2093 69.7714C22.3482 71.7638 20.387 73.0505 18.2129 73.0505C17.4703 73.0505 16.7457 72.9012 16.06 72.6043C13.3058 71.4182 12.0336 68.2154 13.2213 65.4653C14.0825 63.4729 16.0437 62.1862 18.2178 62.1862C18.6971 62.1862 19.1699 62.2495 19.6282 62.3728L24.6035 56.5042C24.6067 55.9201 24.6035 55.1089 24.5986 54.2603C24.5954 53.574 24.5921 52.8747 24.5921 52.2793H22.0817C19.3649 52.2711 17.1503 50.0597 17.1421 47.3501C17.1421 46.1754 17.1421 44.793 17.1421 43.3993C17.1421 41.8498 17.1421 40.2874 17.1421 38.9894C17.1503 36.2765 19.3649 34.0667 22.0784 34.0586H51.8881C54.6097 34.0602 56.826 36.2733 56.8277 38.991C56.8244 40.3798 56.8277 47.2787 56.8277 47.3485C56.826 50.0678 54.6097 52.2793 51.8881 52.2809H48.588C48.588 52.8033 48.588 56.4491 48.588 57.2392L53.6283 63.2116C53.9923 63.1338 54.3628 63.0948 54.7381 63.0948H54.7787C55.9275 63.0948 57.0275 63.4485 57.9602 64.1186C59.1415 64.9672 59.9214 66.2246 60.1554 67.6589C60.3894 69.0932 60.0514 70.5324 59.2 71.7119C58.1795 73.1284 56.5238 73.9753 54.7738 73.9753L54.7755 73.9688ZM54.7332 67.7563C54.314 67.766 53.976 68.1084 53.976 68.5286C53.976 68.9488 54.314 69.2928 54.7332 69.3009C55.1297 69.2782 55.4498 68.9537 55.4628 68.5545C55.4693 68.3485 55.3962 68.1505 55.2548 67.9996C55.1183 67.852 54.9331 67.766 54.7332 67.7546V67.7563ZM18.2015 66.846C17.7839 66.8525 17.446 67.1949 17.446 67.6119C17.446 67.8163 17.5256 68.0094 17.6702 68.1538C17.8116 68.2949 18.0001 68.3744 18.1999 68.3777C18.6029 68.3598 18.9262 68.0353 18.936 67.6297C18.9408 67.4253 18.8661 67.2306 18.7247 67.0813C18.5866 66.9353 18.3998 66.8525 18.1999 66.8428L18.2015 66.846ZM36.2098 64.0197C36.231 64.4237 36.5592 64.7449 36.967 64.753H36.9849C37.3944 64.753 37.7372 64.4253 37.7583 64.0197C37.7372 63.6157 37.409 63.2944 37.0011 63.2863H36.9833C36.5738 63.2863 36.231 63.614 36.2098 64.0197ZM44.6705 43.1705C44.69 44.0207 45.3692 44.6941 46.2222 44.7071H46.245C47.0964 44.7071 47.7983 44.0191 47.8194 43.1705C47.8 42.3204 47.1208 41.647 46.2677 41.634H46.245C45.3935 41.634 44.69 42.322 44.6705 43.1705ZM25.1121 42.9045C24.9642 42.9045 24.8456 43.0245 24.8456 43.1705C24.8456 43.3166 24.9658 43.4366 25.1121 43.4366H37.3342C37.4789 43.4366 37.6007 43.315 37.6007 43.1673C37.6007 43.0213 37.4821 42.9045 37.3391 42.9045H25.1121Z" fill="#343433"/>
<path d="M51.8868 35.0859C54.043 35.0876 55.7897 36.8317 55.7914 38.9848C55.7881 40.3883 55.7914 47.3423 55.7914 47.3423C55.7897 49.4953 54.043 51.2395 51.8868 51.2412H47.5517C47.5517 52.5197 47.5517 56.2758 47.5517 57.6095L53.2663 64.3818C53.7375 64.2098 54.2347 64.1222 54.7368 64.1222H54.7498C54.7596 64.1222 54.7693 64.1222 54.7774 64.1222C55.702 64.1222 56.6038 64.4126 57.3545 64.9513C59.3319 66.3726 59.782 69.126 58.3586 71.1005C57.4958 72.2963 56.1439 72.934 54.7726 72.934C53.8805 72.934 52.9787 72.6646 52.1988 72.1032C50.2213 70.6819 49.7713 67.9285 51.1946 65.954L45.246 58.9221C45.051 58.6836 44.9438 58.385 44.9471 58.0767V51.2395H38.2835C38.2835 52.5554 38.2835 58.372 38.2835 59.8047C39.6744 60.2347 40.7614 61.3201 41.192 62.709C41.9102 65.0308 40.6087 67.4953 38.2835 68.2125C37.8497 68.3472 37.411 68.4104 36.9804 68.4104C35.0988 68.4104 33.3569 67.1968 32.772 65.3082C32.0538 62.9864 33.3553 60.5218 35.6805 59.8047V51.2395H28.2354V57.3482C28.2386 57.6581 28.1281 57.9599 27.9234 58.1936L21.9358 65.2644C22.7125 66.491 22.8311 68.0227 22.2559 69.3547C21.5377 71.0162 19.9145 72.0108 18.21 72.0108C17.6283 72.0108 17.0352 71.8939 16.4665 71.6489C14.234 70.6868 13.2038 68.0989 14.169 65.868C14.8872 64.2065 16.5104 63.2119 18.2149 63.2119C18.7966 63.2119 19.3897 63.3288 19.9584 63.5738L25.634 56.8793C25.6535 55.6235 25.608 52.4564 25.634 51.2379H22.0804C19.9259 51.2314 18.1824 49.4889 18.1759 47.339C18.1775 44.8664 18.1726 41.4461 18.1759 38.9816C18.1824 36.8301 19.9275 35.0892 22.0804 35.0827H51.8884M46.2453 45.7393C47.6703 45.7393 48.8337 44.597 48.8548 43.1692C48.8353 41.7593 47.6947 40.6203 46.2811 40.5992C46.2681 40.5992 46.2567 40.5992 46.2437 40.5992C44.8187 40.5992 43.6553 41.7414 43.6342 43.1692C43.6537 44.5792 44.7943 45.7182 46.2079 45.7393C46.2209 45.7393 46.2323 45.7393 46.2453 45.7393ZM25.1124 44.4688H37.3346C38.0528 44.4672 38.6345 43.8864 38.6361 43.1692C38.6361 43.166 38.6361 43.1627 38.6361 43.1595C38.6329 42.4456 38.0528 41.868 37.3395 41.868H25.1124C24.3942 41.868 23.8109 42.4505 23.8109 43.1676C23.8109 43.8847 24.3942 44.4672 25.1124 44.4672M36.9852 65.7852C37.9667 65.7852 38.7726 65.0016 38.7937 64.0183C38.7726 63.0513 37.9927 62.2725 37.0242 62.2514C37.0112 62.2514 36.9966 62.2514 36.9836 62.2514C36.0022 62.2514 35.1963 63.0351 35.1752 64.0183C35.1963 64.9853 35.9762 65.7641 36.9446 65.7852C36.9576 65.7852 36.9722 65.7852 36.9852 65.7852ZM18.2149 69.4115C19.1752 69.3872 19.9486 68.6149 19.9714 67.656C19.9957 66.6614 19.2093 65.8355 18.2149 65.8112C17.2188 65.8112 16.4113 66.6176 16.4113 67.6105C16.4113 68.6051 17.2188 69.4099 18.2149 69.4099M54.7514 70.3347C55.702 70.3006 56.464 69.5397 56.4982 68.5905C56.5323 67.5927 55.7507 66.7555 54.7514 66.7214C53.7522 66.7214 52.943 67.531 52.943 68.5273C52.943 69.5251 53.7538 70.3347 54.7531 70.3347M51.8901 33.0189H22.0804C18.7933 33.0286 16.1156 35.7025 16.1058 38.9783C16.1058 40.286 16.1058 41.8599 16.1058 43.4175C16.1058 44.8031 16.1058 46.1773 16.1058 47.3407V47.3488C16.1156 50.6246 18.7933 53.2985 22.0739 53.3082H23.5574C23.5574 53.6214 23.5607 53.9426 23.5623 54.2606C23.5655 54.9129 23.5688 55.5781 23.5688 56.12L19.2369 61.2293C18.9006 61.1757 18.5594 61.1481 18.2165 61.1481C15.6297 61.1481 13.2948 62.6798 12.2712 65.0519C11.5855 66.637 11.5595 68.3942 12.198 69.9989C12.8366 71.6035 14.0618 72.8642 15.6492 73.5489C16.4665 73.901 17.3277 74.0794 18.2133 74.0794C20.8 74.0794 23.1333 72.5478 24.1586 70.1757C24.7923 68.709 24.8541 67.0816 24.3666 65.5986L29.4979 59.5402C30.0276 58.9285 30.3152 58.1498 30.3087 57.3401V53.3066H33.6137V58.4872C31.1423 59.9913 29.9041 63.0351 30.7978 65.9199C31.2154 67.2666 32.0376 68.4153 33.1766 69.2412C34.2929 70.0508 35.609 70.4775 36.9836 70.4775C37.6319 70.4775 38.2754 70.3801 38.8977 70.1871C42.3099 69.1341 44.2272 65.5045 43.1727 62.0989C42.6999 60.5738 41.6892 59.2985 40.3568 58.4872C40.3568 57.4391 40.3568 56.0356 40.3568 54.7247V53.3066H42.8819V58.0702C42.8786 58.8572 43.1516 59.6262 43.652 60.233L43.6618 60.2444L43.6715 60.2558L48.7232 66.2266C47.7061 68.9004 48.564 72.0335 50.9964 73.7809C52.1062 74.5792 53.4142 74.9994 54.7791 74.9994C56.8605 74.9994 58.8298 73.9935 60.0452 72.3061C62.1332 69.4083 61.4702 65.3553 58.5699 63.272C57.4601 62.4753 56.1505 62.0535 54.7839 62.0535H54.7563H54.7417C54.5077 62.0535 54.277 62.0665 54.0463 62.0908L49.6266 56.8534C49.6266 56.1038 49.6266 55.1059 49.6266 54.1373C49.6266 53.855 49.6266 53.5759 49.6266 53.305H51.8917C55.1837 53.3017 57.8631 50.6262 57.8663 47.3407C57.8663 47.2693 57.8631 40.3704 57.8663 38.9864V38.9832V38.9799C57.8631 35.6944 55.1837 33.0189 51.8933 33.0156L51.8901 33.0189ZM45.7059 43.1692C45.7254 42.8902 45.961 42.6662 46.2437 42.6662H46.2518C46.5362 42.6711 46.7653 42.8885 46.7831 43.1692C46.7636 43.4499 46.528 43.6722 46.2453 43.6722H46.2372C45.9528 43.669 45.7237 43.4499 45.7059 43.1692Z" fill="white"/>
</g>
<defs>
<clipPath id="clip0_902_2056">
<rect width="73" height="75" fill="white"/>
</clipPath>
</defs>
</svg>
