<svg width="74" height="75" viewBox="0 0 74 75" fill="none" xmlns="http://www.w3.org/2000/svg">
<g clip-path="url(#clip0_902_2079)">
<path d="M58.7588 66.6728C57.9756 66.1092 57.0348 65.8079 56.0702 65.8079C56.0601 65.8079 56.0499 65.8079 56.0414 65.8079H56.0278C55.504 65.8079 54.9853 65.8993 54.4937 66.0787L48.5317 59.0144C48.5317 57.6232 48.5317 53.7051 48.5317 52.3714H53.0545C55.304 52.3697 57.1263 50.5503 57.128 48.3044C57.128 48.3044 57.1246 41.0505 57.128 39.5865C57.1263 37.3406 55.304 35.5212 53.0545 35.5195H21.9563C19.7085 35.5263 17.8895 37.344 17.8827 39.5865C17.8794 42.1574 17.8844 45.7251 17.8827 48.3044C17.8895 50.5486 19.7102 52.3647 21.9563 52.3714H25.6637C25.6365 53.6408 25.684 56.9445 25.6637 58.2561L19.7424 65.2393C19.1491 64.9837 18.532 64.8618 17.9234 64.8618C16.1452 64.8618 14.4517 65.8993 13.7024 67.6324C12.6972 69.9579 13.7702 72.6573 16.0994 73.6627C16.6927 73.9182 17.3098 74.0401 17.9183 74.0401C19.6966 74.0401 21.3901 73.0026 22.1394 71.2695C22.7412 69.88 22.6157 68.2823 21.8054 67.0028L28.0522 59.627C28.2658 59.3833 28.3827 59.0702 28.3776 58.7453V52.3731H36.145V61.3077C33.7192 62.0557 32.3613 64.6266 33.1106 67.0485C33.7209 69.0185 35.5381 70.2845 37.5011 70.2845C37.9504 70.2845 38.4081 70.2185 38.8607 70.078C41.2865 69.33 42.6443 66.7591 41.8951 64.3372C41.4458 62.8884 40.3118 61.7562 38.8607 61.3077C38.8607 59.8132 38.8607 53.7457 38.8607 52.3731H45.8126V59.5052C45.811 59.8267 45.9211 60.1382 46.1246 60.387L52.3306 67.7221C50.8457 69.7818 51.3152 72.654 53.3783 74.1366C54.192 74.7205 55.1311 75.0031 56.0634 75.0031C57.4942 75.0031 58.9046 74.3397 59.8047 73.0906C61.2897 71.0309 60.8201 68.1588 58.7571 66.6762L58.7588 66.6728ZM17.9234 71.3254C16.8843 71.3254 16.0418 70.4842 16.0418 69.4484C16.0418 68.4126 16.8843 67.5698 17.9234 67.5715C18.9626 67.5969 19.7831 68.46 19.7559 69.4958C19.7305 70.4961 18.9253 71.3017 17.9234 71.3271V71.3254ZM39.393 65.6996C39.3709 66.7269 38.5301 67.5427 37.5062 67.5427C37.4927 67.5427 37.4774 67.5427 37.4639 67.5427C36.4535 67.5207 35.6398 66.7083 35.6178 65.6996C35.6398 64.6723 36.4806 63.8565 37.5045 63.8565C37.5181 63.8565 37.5334 63.8565 37.5469 63.8565C38.5572 63.8785 39.3709 64.6909 39.393 65.6996ZM39.2302 43.9514C39.2285 44.6995 38.6217 45.3054 37.8724 45.3071H25.1212C24.3719 45.3071 23.7634 44.6995 23.7634 43.9514C23.7634 43.2033 24.3719 42.5957 25.1212 42.5957H37.8775C38.6234 42.5957 39.2285 43.1983 39.2302 43.9429C39.2302 43.9463 39.2302 43.9497 39.2302 43.9531V43.9514ZM47.1281 46.6323C45.655 46.612 44.465 45.4239 44.4429 43.9514C44.4633 42.4637 45.6787 41.2705 47.1654 41.2705C47.179 41.2705 47.1908 41.2705 47.2044 41.2705C48.6775 41.2908 49.8675 42.479 49.8879 43.9514C49.8675 45.4391 48.6521 46.6323 47.1654 46.6323C47.1518 46.6323 47.14 46.6323 47.1264 46.6323H47.1281ZM56.0414 72.2884C54.9989 72.2884 54.153 71.4455 54.153 70.4047C54.153 69.3638 54.9972 68.521 56.0397 68.521C57.0822 68.5565 57.8976 69.4298 57.862 70.4707C57.8281 71.4608 57.0314 72.2545 56.0397 72.2901L56.0414 72.2884Z" fill="white"/>
<path d="M63.0321 17.1142C62.4083 14.2218 60.847 11.5883 58.5823 9.63352C56.0937 7.48578 52.9136 6.30444 49.6283 6.30444C47.4381 6.30444 45.2937 6.82403 43.3663 7.81581C41.8389 5.56483 39.8115 3.68619 37.4552 2.34068C34.7717 0.808999 31.7034 0 28.5809 0C18.9386 0 11.0509 7.64318 10.678 17.1802C7.85889 17.8488 5.28729 19.4008 3.36156 21.6094C1.19341 24.0957 0 27.2521 0 30.4966C0 34.1421 1.45447 37.5795 4.09557 40.1758C6.72311 42.7602 10.1864 44.1819 13.848 44.1819H15.7229C15.7229 42.5656 15.7229 40.9374 15.7229 39.58C15.7263 38.4664 16.0263 37.4205 16.5467 36.515C16.3874 35.7737 16.3043 35.0104 16.3043 34.2369C16.3043 31.617 17.2655 29.0715 19.0115 27.0693C20.3287 25.5596 22.0205 24.4325 23.892 23.7978C24.6768 16.8265 30.6168 11.3903 37.8061 11.3903C40.2454 11.3903 42.6441 12.0233 44.7428 13.2216C46.243 14.0779 47.5737 15.2119 48.6603 16.554C49.9131 16.0751 51.2506 15.8246 52.6101 15.8246C55.2563 15.8246 57.8177 16.7774 59.8232 18.5071C61.4217 19.8865 62.5846 21.6856 63.1864 23.6776C65.1867 24.2768 67.0023 25.4327 68.4042 27.0219C70.1774 29.0326 71.1521 31.595 71.1521 34.2386C71.1521 36.8822 70.1774 39.4548 68.3957 41.4671C68.9246 41.0762 69.4281 40.6463 69.9061 40.1775C72.5472 37.5812 74.0017 34.1438 74.0017 30.4983C74.0017 24.0855 69.3382 18.4631 63.0338 17.1159L63.0321 17.1142Z" fill="white"/>
<path d="M61.3857 25.4754C60.7229 21.2358 57.0393 17.9811 52.6098 17.9811C50.9434 17.9811 49.3414 18.4415 47.9514 19.2996C45.8375 15.7539 42.0335 13.5469 37.8057 13.5469C31.2758 13.5469 25.9631 18.8511 25.9631 25.3705C25.9631 25.4111 25.9631 25.4534 25.9631 25.4923C21.7658 26.1981 18.4619 29.8504 18.4619 34.2373C18.4619 34.305 18.4653 34.3727 18.467 34.4421C19.4638 33.7651 20.664 33.3691 21.954 33.364H53.0539C56.4867 33.3674 59.282 36.1582 59.2854 39.5855V39.5923C59.2854 40.1508 59.2854 41.5707 59.2854 43.1041H60.0109C64.9083 43.1041 68.992 39.1268 68.992 34.2356C68.992 29.8115 65.6339 26.1354 61.3857 25.4737V25.4754Z" fill="white"/>
</g>
<defs>
<clipPath id="clip0_902_2079">
<rect width="74" height="75" fill="white"/>
</clipPath>
</defs>
</svg>
