<svg width="245" height="250" viewBox="0 0 245 250" fill="none" xmlns="http://www.w3.org/2000/svg">
<g clip-path="url(#clip0_902_2052)">
<path d="M194.538 222.243C191.945 220.364 188.83 219.36 185.637 219.36C185.603 219.36 185.57 219.36 185.542 219.36H185.497C183.762 219.36 182.045 219.664 180.417 220.262L160.678 196.715C160.678 192.077 160.678 179.017 160.678 174.571H175.652C183.1 174.566 189.133 168.501 189.139 161.015C189.139 161.015 189.128 136.835 189.139 131.955C189.133 124.469 183.1 118.404 175.652 118.398H72.6921C65.25 118.421 59.2279 124.48 59.2054 131.955C59.1942 140.525 59.211 152.417 59.2054 161.015C59.2279 168.495 65.2556 174.549 72.6921 174.571H84.9665C84.8767 178.803 85.0339 189.815 84.9665 194.187L65.3623 217.464C63.3979 216.612 61.355 216.206 59.3401 216.206C53.4527 216.206 47.8458 219.664 45.3651 225.441C42.0369 233.193 45.5896 242.191 53.3011 245.542C55.2655 246.394 57.3084 246.8 59.3233 246.8C65.2107 246.8 70.8176 243.342 73.2983 237.565C75.2907 232.933 74.8754 227.608 72.1926 223.343L92.8745 198.757C93.5816 197.944 93.9689 196.901 93.952 195.818V174.577H119.668V204.359C111.637 206.852 107.141 215.422 109.622 223.495C111.642 230.062 117.659 234.282 124.158 234.282C125.646 234.282 127.161 234.062 128.659 233.593C136.691 231.1 141.186 222.53 138.706 214.457C137.218 209.628 133.464 205.854 128.659 204.359C128.659 199.377 128.659 179.152 128.659 174.577H151.676V198.351C151.67 199.422 152.035 200.461 152.709 201.29L173.256 225.74C168.339 232.606 169.894 242.18 176.724 247.122C179.418 249.068 182.528 250.01 185.614 250.01C190.351 250.01 195.021 247.799 198.001 243.635C202.918 236.77 201.363 227.196 194.533 222.254L194.538 222.243ZM59.3401 237.751C55.8997 237.751 53.1103 234.947 53.1103 231.495C53.1103 228.042 55.8997 225.233 59.3401 225.238C62.7805 225.323 65.497 228.2 65.4072 231.653C65.323 234.987 62.6571 237.672 59.3401 237.757V237.751ZM130.422 218.999C130.349 222.423 127.565 225.142 124.175 225.142C124.13 225.142 124.08 225.142 124.035 225.142C120.69 225.069 117.996 222.361 117.923 218.999C117.996 215.574 120.78 212.855 124.169 212.855C124.214 212.855 124.265 212.855 124.31 212.855C127.655 212.928 130.349 215.636 130.422 218.999ZM129.883 146.505C129.877 148.998 127.868 151.018 125.387 151.024H83.1705C80.6898 151.024 78.675 148.998 78.675 146.505C78.675 144.011 80.6898 141.986 83.1705 141.986H125.404C127.874 141.986 129.877 143.994 129.883 146.476C129.883 146.488 129.883 146.499 129.883 146.51V146.505ZM156.031 155.441C151.154 155.373 147.214 151.413 147.141 146.505C147.209 141.546 151.233 137.568 156.155 137.568C156.2 137.568 156.239 137.568 156.284 137.568C161.161 137.636 165.101 141.597 165.168 146.505C165.101 151.464 161.077 155.441 156.155 155.441C156.11 155.441 156.071 155.441 156.026 155.441H156.031ZM185.542 240.961C182.09 240.961 179.289 238.152 179.289 234.682C179.289 231.213 182.084 228.403 185.536 228.403C188.988 228.522 191.687 231.433 191.569 234.902C191.457 238.203 188.819 240.848 185.536 240.967L185.542 240.961Z" fill="#343433"/>
<path d="M208.687 57.0474C206.622 47.406 201.453 38.6277 193.955 32.1117C185.716 24.9526 175.187 21.0148 164.31 21.0148C157.059 21.0148 149.959 22.7468 143.578 26.0527C138.521 18.5494 131.808 12.2873 124.007 7.80227C115.122 2.69666 104.964 0 94.6258 0C62.7022 0 36.5875 25.4773 35.3528 57.2675C26.0193 59.4959 17.5052 64.6692 11.1295 72.0314C3.95116 80.3189 0 90.8404 0 101.655C0 113.807 4.81548 125.265 13.5597 133.919C22.259 142.534 33.7252 147.273 45.8481 147.273H52.0554C52.0554 141.885 52.0554 136.458 52.0554 131.933C52.0666 128.221 53.06 124.735 54.7831 121.717C54.2555 119.246 53.9805 116.701 53.9805 114.123C53.9805 105.39 57.1627 96.905 62.9436 90.2311C67.3044 85.1988 72.9056 81.4415 79.1018 79.3259C81.7003 56.0884 101.366 37.9677 125.169 37.9677C133.245 37.9677 141.187 40.0776 148.135 44.0718C153.102 46.9265 157.508 50.7063 161.105 55.1801C165.253 53.5835 169.681 52.7486 174.182 52.7486C182.943 52.7486 191.424 55.9248 198.063 61.6904C203.356 66.2883 207.206 72.2853 209.198 78.9254C215.821 80.9225 221.832 84.7757 226.473 90.0731C232.344 96.7753 235.571 105.317 235.571 114.129C235.571 122.941 232.344 131.516 226.445 138.224C228.196 136.921 229.863 135.488 231.446 133.925C240.19 125.271 245.006 113.813 245.006 101.661C245.006 80.285 229.566 61.5438 208.693 57.0531L208.687 57.0474Z" fill="#343433"/>
<path d="M203.238 84.918C201.043 70.7859 188.847 59.9371 174.182 59.9371C168.665 59.9371 163.361 61.4716 158.759 64.3319C151.76 52.5128 139.166 45.1562 125.169 45.1562C103.549 45.1562 85.9601 62.8369 85.9601 84.5682C85.9601 84.7036 85.9601 84.8446 85.9601 84.9744C72.0637 87.3269 61.125 99.5014 61.125 114.124C61.125 114.35 61.1362 114.576 61.1418 114.807C64.442 112.55 68.4156 111.23 72.6866 111.213H175.653C187.018 111.225 196.273 120.527 196.284 131.952V131.974C196.284 133.836 196.284 138.569 196.284 143.68H198.686C214.9 143.68 228.421 130.423 228.421 114.119C228.421 99.3716 217.302 87.1182 203.238 84.9123V84.918Z" fill="#343433"/>
</g>
<defs>
<clipPath id="clip0_902_2052">
<rect width="245" height="250" fill="white"/>
</clipPath>
</defs>
</svg>
