<svg width="164" height="200" viewBox="0 0 164 200" fill="none" xmlns="http://www.w3.org/2000/svg">
<g clip-path="url(#clip0_902_2004)">
<path d="M20.4547 2.375H143.545C153.523 2.375 161.624 10.4732 161.624 20.4481V143.5C161.624 153.475 153.523 161.573 143.545 161.573H20.4547C10.4767 161.573 2.37598 153.475 2.37598 143.5V20.4481C2.37598 10.4732 10.4767 2.375 20.4547 2.375Z" fill="#343433"/>
<path d="M143.545 4.75095C152.182 4.75095 159.248 11.8148 159.248 20.4485V143.5C159.248 152.134 152.182 159.198 143.545 159.198H20.4549C11.8184 159.198 4.75243 152.134 4.75243 143.5V20.4485C4.75243 11.8148 11.8184 4.75095 20.4549 4.75095H143.545ZM143.545 0H20.4549C9.17652 0 0 9.17366 0 20.4485V143.5C0 154.775 9.17652 163.949 20.4549 163.949H143.545C154.823 163.949 164 154.775 164 143.5V20.4485C164 9.17366 154.823 0 143.545 0Z" fill="white"/>
<path d="M50.0219 90.4674C44.9649 90.4674 40.18 88.5001 36.5509 84.9261C32.9023 81.3348 30.8955 76.5795 30.8955 71.5392C30.8955 67.0517 32.5437 62.6873 35.5378 59.2472C38.1991 56.1893 41.7505 54.0449 45.6453 53.1206C46.1616 39.9302 57.0577 29.3594 70.3753 29.3594C74.687 29.3594 78.9275 30.478 82.6344 32.5965C85.8898 34.4559 88.6873 37.0559 90.7978 40.1678C93.4613 38.7965 96.4229 38.0774 99.4472 38.0774C103.986 38.0774 108.377 39.7121 111.814 42.6815C114.944 45.3852 117.1 49.0262 117.962 53.0278C126.67 54.8914 133.112 62.67 133.112 71.537C133.112 76.5795 131.103 81.3326 127.456 84.9239C123.827 88.4979 119.042 90.4653 113.983 90.4653H50.0219V90.4674Z" fill="#33CFFF"/>
<path d="M70.3705 30.8534C78.6721 30.8534 86.1443 35.1919 90.2961 42.1671C93.0245 40.4784 96.1697 39.5736 99.4446 39.5736C108.146 39.5736 115.378 45.9744 116.681 54.3123C125.021 55.6145 131.619 62.8446 131.619 71.5431C131.619 81.1595 123.6 88.9813 113.981 88.9813H50.0214C40.4021 88.9813 32.3834 81.1595 32.3834 71.5431C32.3834 62.918 38.8748 55.7354 47.116 54.3469C47.1138 54.267 47.1138 54.1849 47.1138 54.105C47.1138 41.2839 57.5476 30.8556 70.3705 30.8556M70.3705 27.8711C56.623 27.8711 45.31 38.4938 44.217 51.9606C40.4474 53.0771 37.0257 55.2647 34.4097 58.2707C31.1802 61.9808 29.4023 66.6929 29.4023 71.541C29.4023 76.9851 31.569 82.1162 35.5027 85.9904C39.4127 89.8408 44.5691 91.9614 50.0214 91.9614H113.981C119.433 91.9614 124.589 89.8408 128.499 85.9904C132.433 82.1162 134.6 76.9851 134.6 71.541C134.6 66.6497 132.794 61.9073 129.515 58.1822C126.767 55.0617 123.159 52.8395 119.193 51.7943C118.145 47.8424 115.916 44.264 112.784 41.5582C109.075 38.3534 104.337 36.5891 99.4403 36.5891C96.6147 36.5891 93.8389 37.1722 91.279 38.2886C89.1448 35.4489 86.4488 33.0647 83.3662 31.3047C79.4325 29.0588 74.9393 27.8711 70.3683 27.8711H70.3705Z" fill="white"/>
<path d="M68.7999 90.468C65.1254 90.468 61.6496 89.0384 59.0142 86.4426C56.3636 83.8339 54.9033 80.3765 54.9033 76.7118C54.9033 73.4488 56.1022 70.2764 58.2775 67.7757C60.1353 65.6399 62.5936 64.1175 65.2939 63.407C65.8339 54.0498 73.6193 46.6016 83.1133 46.6016C88.9696 46.6016 94.2945 49.3722 97.6255 54.08C99.4682 53.1968 101.494 52.7346 103.562 52.7346C106.86 52.7346 110.051 53.9223 112.55 56.0819C114.752 57.9823 116.29 60.524 116.955 63.3228C123.14 64.7804 127.683 70.3606 127.683 76.7118C127.683 80.3765 126.222 83.8318 123.572 86.4426C120.936 89.0384 117.46 90.468 113.786 90.468H68.802H68.7999Z" fill="#0D87C5"/>
<path d="M83.1136 48.0956C88.9526 48.0956 94.2084 51.147 97.1268 56.0534C99.0451 54.8657 101.257 54.2286 103.56 54.2286C109.68 54.2286 114.767 58.7291 115.683 64.5943C121.55 65.51 126.188 70.5957 126.188 76.7136C126.188 83.4772 120.548 88.9775 113.784 88.9775H68.8002C62.0344 88.9775 56.3963 83.4751 56.3963 76.7136C56.3963 70.6475 60.9608 65.5942 66.7588 64.6181C66.7588 64.562 66.7588 64.5037 66.7588 64.4475C66.7588 55.4315 74.097 48.0956 83.1158 48.0956M83.1136 45.1133C73.1832 45.1133 64.9788 52.6327 63.8944 62.275C61.3086 63.1518 58.9713 64.711 57.1524 66.7992C54.7416 69.5699 53.4131 73.0899 53.4131 76.7136C53.4131 80.7821 55.0311 84.6153 57.9689 87.5069C60.8852 90.3791 64.7325 91.9598 68.8002 91.9598H113.784C117.852 91.9598 121.699 90.3791 124.615 87.5069C127.553 84.6153 129.171 80.7821 129.171 76.7136C129.171 73.0597 127.823 69.5137 125.376 66.7344C123.44 64.536 120.932 62.9358 118.169 62.1087C117.338 59.3532 115.733 56.8654 113.525 54.9564C110.756 52.5636 107.217 51.2463 103.562 51.2463C101.685 51.2463 99.8379 51.5897 98.1076 52.2548C96.6062 50.3998 94.7701 48.832 92.6963 47.6464C89.7973 45.99 86.4835 45.1133 83.1158 45.1133H83.1136Z" fill="white"/>
<path d="M108.335 134.588C106.683 134.588 105.099 134.076 103.756 133.111C100.569 130.819 99.6125 126.563 101.349 123.172L93.4559 113.83C92.9526 113.219 92.6782 112.446 92.6847 111.653V103.292H86.0637V113.144C88.0295 114.076 89.5351 115.795 90.1875 117.907C91.4642 122.036 89.142 126.435 85.0117 127.712C84.2578 127.945 83.4779 128.064 82.6938 128.064C79.2353 128.064 76.2262 125.844 75.2044 122.537C74.5866 120.538 74.7832 118.415 75.7617 116.564C76.5632 115.048 77.8074 113.86 79.3304 113.141V103.292H71.5839V110.606C71.5904 111.414 71.3031 112.193 70.7738 112.804L62.8049 122.226C63.6927 124.213 63.7208 126.498 62.8437 128.528C61.6038 131.402 58.7761 133.26 55.6438 133.26C54.5745 133.26 53.529 133.044 52.5418 132.616C48.5735 130.903 46.7395 126.284 48.4525 122.317C49.6925 119.443 52.5202 117.586 55.6524 117.586C56.3437 117.586 57.0242 117.676 57.6852 117.856L64.8549 109.388C64.8592 108.544 64.8549 107.375 64.8462 106.151C64.8419 105.16 64.8354 104.151 64.8376 103.294H61.2193C57.3028 103.283 54.1122 100.091 54.1014 96.1826C54.1014 94.4874 54.1014 92.492 54.1014 90.4815C54.1014 88.2464 54.1014 85.9918 54.1014 84.1195C54.1122 80.2065 57.305 77.0169 61.215 77.0039H104.175C108.098 77.0082 111.29 80.2 111.293 84.1195C111.288 86.1236 111.293 96.0768 111.293 96.1783C111.29 100.1 108.098 103.292 104.175 103.296H99.418C99.418 104.05 99.418 109.308 99.418 110.448L106.681 119.065C107.206 118.953 107.739 118.897 108.281 118.897H108.34C109.997 118.897 111.582 119.408 112.926 120.374C114.628 121.598 115.751 123.412 116.088 125.481C116.425 127.55 115.937 129.627 114.712 131.327C113.241 133.372 110.856 134.592 108.335 134.592V134.588ZM108.275 125.623C107.672 125.636 107.184 126.131 107.184 126.738C107.184 127.345 107.67 127.839 108.275 127.852C108.847 127.82 109.307 127.351 109.327 126.774C109.338 126.476 109.232 126.191 109.027 125.973C108.828 125.762 108.562 125.636 108.275 125.621V125.623ZM55.6287 124.31C55.0281 124.321 54.5399 124.814 54.5399 125.416C54.5399 125.712 54.6544 125.988 54.864 126.198C55.0692 126.403 55.3392 126.517 55.6287 126.522C56.2098 126.498 56.6742 126.027 56.6893 125.444C56.6958 125.148 56.5878 124.868 56.3848 124.654C56.186 124.444 55.9181 124.323 55.6287 124.31ZM81.5813 120.233C81.6115 120.816 82.0846 121.278 82.6722 121.291H82.6981C83.2878 121.291 83.7825 120.821 83.8128 120.233C83.7825 119.65 83.3095 119.188 82.7219 119.175H82.696C82.1062 119.175 81.6115 119.646 81.5813 120.233ZM93.7734 90.1554C93.8015 91.382 94.7801 92.3538 96.0114 92.3711H96.0438C97.2708 92.3711 98.2839 91.3799 98.312 90.1554C98.2839 88.9288 97.3054 87.957 96.0741 87.9397H96.0417C94.8147 87.9397 93.8015 88.931 93.7734 90.1554ZM65.5894 89.771C65.3777 89.771 65.2048 89.9438 65.2048 90.1554C65.2048 90.367 65.3777 90.5398 65.5894 90.5398H83.2036C83.4131 90.5398 83.5881 90.3649 83.5881 90.1511C83.5881 89.9395 83.4175 89.771 83.2101 89.771H65.5894Z" fill="#343433"/>
<path d="M104.175 78.4901C107.281 78.4923 109.8 81.0103 109.802 84.1157C109.798 86.1413 109.802 96.1723 109.802 96.1723C109.8 99.2777 107.281 101.796 104.175 101.798H97.9276C97.9276 103.642 97.9276 109.062 97.9276 110.987L106.162 120.756C106.841 120.508 107.558 120.381 108.281 120.381H108.301C108.314 120.381 108.329 120.381 108.342 120.381C109.675 120.381 110.973 120.8 112.055 121.577C114.907 123.628 115.555 127.6 113.503 130.45C112.261 132.176 110.312 133.096 108.335 133.096C107.05 133.096 105.75 132.707 104.626 131.899C101.775 129.85 101.127 125.877 103.179 123.026L94.6074 112.881C94.3244 112.537 94.1732 112.105 94.1754 111.663V101.8H84.5711C84.5711 103.698 84.5711 112.09 84.5711 114.157C86.5736 114.777 88.1441 116.344 88.7619 118.346C89.7988 121.696 87.9216 125.25 84.5711 126.287C83.9468 126.479 83.3139 126.572 82.6939 126.572C79.9829 126.572 77.4706 124.823 76.6281 122.097C75.5912 118.748 77.4684 115.193 80.8189 114.157V101.8H70.0892V110.613C70.0956 111.06 69.9336 111.494 69.6398 111.831L61.012 122.033C62.131 123.803 62.3038 126.013 61.4721 127.935C60.4374 130.332 58.0979 131.766 55.6418 131.766C54.8036 131.766 53.9482 131.597 53.1295 131.245C49.9108 129.857 48.4289 126.123 49.8179 122.905C50.8526 120.508 53.1921 119.074 55.6482 119.074C56.4864 119.074 57.3418 119.242 58.1606 119.594L66.3391 109.937C66.3671 108.125 66.3023 103.556 66.3391 101.798H61.2172C58.113 101.789 55.5986 99.2755 55.5899 96.1723C55.5921 92.6048 55.5856 87.6703 55.5899 84.1157C55.5986 81.0124 58.113 78.4988 61.2172 78.4901H104.173M96.0439 93.8594C98.0961 93.8594 99.7746 92.2117 99.8027 90.1515C99.7746 88.1173 98.1307 86.4739 96.0958 86.4458C96.0785 86.4458 96.0591 86.4458 96.0418 86.4458C93.9896 86.4458 92.3111 88.0935 92.283 90.1537C92.3111 92.188 93.955 93.8314 95.9899 93.8616C96.0072 93.8616 96.0267 93.8616 96.0439 93.8616M65.5895 92.0282H83.2037C84.2385 92.026 85.0766 91.1881 85.0788 90.1537C85.0788 90.1494 85.0788 90.1451 85.0788 90.1407C85.0745 89.1107 84.2385 88.2792 83.2102 88.2792H65.5895C64.5526 88.2792 63.7144 89.1193 63.7144 90.1537C63.7144 91.1881 64.5547 92.0282 65.5895 92.0282ZM82.6982 122.78C84.111 122.78 85.2732 121.65 85.3034 120.229C85.2732 118.834 84.1499 117.711 82.7544 117.681C82.735 117.681 82.7155 117.681 82.6961 117.681C81.2833 117.681 80.1211 118.811 80.0909 120.232C80.1211 121.627 81.2444 122.75 82.6399 122.78C82.6594 122.78 82.6788 122.78 82.6982 122.78ZM55.6482 128.012C57.0329 127.978 58.1454 126.863 58.18 125.481C58.2167 124.047 57.0826 122.855 55.6482 122.819C54.2139 122.819 53.0495 123.98 53.0495 125.417C53.0495 126.85 54.2117 128.014 55.6482 128.014M108.301 129.345C109.67 129.297 110.77 128.198 110.818 126.829C110.867 125.391 109.742 124.181 108.301 124.132C106.862 124.132 105.694 125.298 105.694 126.738C105.694 128.179 106.862 129.345 108.301 129.345ZM104.177 75.5078H61.2194C56.4821 75.5208 52.624 79.3798 52.6089 84.107C52.6089 85.9945 52.6089 88.2641 52.6089 90.51C52.6089 92.5076 52.6089 94.49 52.6089 96.1701V96.1809C52.6218 100.908 56.4821 104.765 61.2108 104.78H63.3494C63.3494 105.232 63.3537 105.694 63.3558 106.154C63.3602 107.093 63.3666 108.054 63.3645 108.836L57.1215 116.208C56.6376 116.131 56.1451 116.092 55.6504 116.092C51.9219 116.092 48.5585 118.303 47.0809 121.724C46.0937 124.011 46.057 126.546 46.9751 128.861C47.8953 131.176 49.6602 132.994 51.9478 133.983C53.1251 134.491 54.3673 134.748 55.6418 134.748C59.3703 134.748 62.7337 132.537 64.2113 129.116C65.125 127 65.2136 124.652 64.5115 122.514L71.9059 113.775C72.6684 112.893 73.0832 111.768 73.0746 110.602V104.784H77.8378V112.259C74.2756 114.429 72.4935 118.821 73.7788 122.983C74.3793 124.924 75.5653 126.583 77.207 127.775C78.8164 128.943 80.713 129.559 82.6918 129.559C83.625 129.559 84.5539 129.418 85.4503 129.14C90.3669 127.619 93.1298 122.385 91.6112 117.47C90.9307 115.269 89.4748 113.429 87.5522 112.259C87.5522 110.747 87.5522 108.721 87.5522 106.83V104.784H91.19V111.656C91.1835 112.792 91.5788 113.9 92.3003 114.777L92.3133 114.792L92.3262 114.807L99.6061 123.421C98.1393 127.28 99.3771 131.798 102.883 134.32C104.482 135.471 106.368 136.078 108.333 136.078C111.334 136.078 114.17 134.625 115.922 132.193C118.931 128.014 117.976 122.166 113.794 119.158C112.196 118.007 110.308 117.4 108.338 117.4H108.299H108.279C107.942 117.4 107.61 117.418 107.277 117.454L100.909 109.898C100.909 108.816 100.909 107.378 100.909 105.981C100.909 105.575 100.909 105.171 100.909 104.78H104.173C108.917 104.776 112.779 100.917 112.783 96.1745C112.783 96.0708 112.779 86.1197 112.783 84.1222V84.1178V84.1135C112.779 79.3734 108.919 75.5121 104.175 75.5078H104.177ZM95.2663 90.1537C95.2944 89.7499 95.6335 89.4281 96.0418 89.4281H96.0547C96.4652 89.4346 96.7935 89.7499 96.8195 90.1537C96.7914 90.5575 96.4522 90.8793 96.0439 90.8793H96.031C95.6205 90.8728 95.2922 90.5575 95.2663 90.1537Z" fill="white"/>
<path d="M154.009 162.113H9.94987C4.45471 162.113 0 166.567 0 172.06V189.742C0 195.236 4.45471 199.689 9.94987 199.689H154.009C159.504 199.689 163.959 195.236 163.959 189.742V172.06C163.959 166.567 159.504 162.113 154.009 162.113Z" fill="white"/>
<path d="M38.3547 174.634C39.4382 172.679 40.9431 171.144 42.8994 170.061C44.8256 168.978 47.0226 168.406 49.4906 168.406C52.5003 168.406 55.0886 169.189 57.2255 170.783C59.3624 172.378 60.807 174.544 61.5294 177.282H54.7275C54.2158 176.229 53.4935 175.417 52.5906 174.875C51.6576 174.333 50.6042 174.033 49.4304 174.033C47.5343 174.033 45.9994 174.695 44.7955 176.018C43.6217 177.342 43.0198 179.117 43.0198 181.314C43.0198 183.51 43.6217 185.285 44.7955 186.609C45.9693 187.933 47.5042 188.595 49.4304 188.595C50.6042 188.595 51.6576 188.324 52.5906 187.753C53.5236 187.211 54.2459 186.399 54.7275 185.346H61.5294C60.807 188.084 59.3624 190.25 57.2255 191.814C55.0886 193.379 52.5003 194.191 49.4906 194.191C47.0226 194.191 44.8256 193.65 42.8994 192.536C40.9732 191.453 39.4382 189.919 38.3547 187.963C37.2712 186.007 36.7295 183.781 36.7295 181.284C36.7295 178.786 37.2712 176.56 38.3547 174.574V174.634Z" fill="#343433"/>
<path d="M84.1919 183.239C85.0948 184.383 85.5162 185.676 85.5162 187.151C85.5162 189.257 84.7637 190.942 83.289 192.175C81.8142 193.409 79.7375 194.041 77.089 194.041H65.291V168.707H76.6978C79.2861 168.707 81.3026 169.309 82.7472 170.482C84.1919 171.656 84.9443 173.25 84.9443 175.296C84.9443 176.801 84.5531 178.034 83.7705 179.027C82.988 180.02 81.9346 180.712 80.6405 181.073C82.1152 181.374 83.289 182.126 84.1919 183.269V183.239ZM71.4609 178.967H75.4939C76.5172 178.967 77.2696 178.756 77.8113 178.305C78.3531 177.854 78.624 177.192 78.624 176.349C78.624 175.507 78.3531 174.815 77.8113 174.363C77.2696 173.912 76.4871 173.671 75.4939 173.671H71.4609V178.967ZM78.4133 188.354C78.9851 187.873 79.256 187.211 79.256 186.308C79.256 185.406 78.955 184.714 78.3832 184.202C77.8113 183.691 76.9686 183.45 75.9453 183.45H71.4609V189.046H76.0055C77.0288 189.046 77.8414 188.806 78.4133 188.354Z" fill="#343433"/>
<path d="M105.592 168.707V173.641H95.2685V178.997H103.003V183.811H95.2685V194.071H89.0986V168.707H105.592Z" fill="#343433"/>
<path d="M113.055 193.411C111.58 192.809 110.407 191.906 109.534 190.733C108.661 189.559 108.18 188.145 108.149 186.46H114.711C114.801 187.393 115.132 188.115 115.674 188.597C116.215 189.078 116.938 189.349 117.841 189.349C118.744 189.349 119.466 189.138 120.008 188.717C120.549 188.296 120.79 187.724 120.79 186.972C120.79 186.34 120.579 185.829 120.158 185.407C119.737 184.986 119.225 184.655 118.593 184.384C117.991 184.114 117.118 183.813 115.975 183.482C114.349 182.97 112.995 182.459 111.972 181.977C110.948 181.496 110.046 180.714 109.293 179.751C108.541 178.758 108.18 177.464 108.18 175.9C108.18 173.553 109.022 171.687 110.738 170.364C112.453 169.04 114.68 168.348 117.419 168.348C120.158 168.348 122.476 169.01 124.161 170.364C125.846 171.717 126.779 173.553 126.9 175.93H120.218C120.158 175.117 119.857 174.455 119.315 174.004C118.774 173.523 118.051 173.312 117.178 173.312C116.426 173.312 115.824 173.523 115.373 173.914C114.921 174.305 114.68 174.877 114.68 175.629C114.68 176.441 115.072 177.073 115.824 177.554C116.607 178.006 117.811 178.517 119.436 179.029C121.061 179.57 122.415 180.112 123.439 180.623C124.462 181.135 125.335 181.857 126.087 182.82C126.84 183.783 127.201 185.016 127.201 186.551C127.201 188.085 126.84 189.319 126.087 190.492C125.365 191.666 124.281 192.598 122.897 193.32C121.512 194.012 119.857 194.373 117.961 194.373C116.065 194.373 114.44 194.073 112.965 193.471L113.055 193.411Z" fill="#343433"/>
</g>
<defs>
<clipPath id="clip0_902_2004">
<rect width="164" height="200" fill="white"/>
</clipPath>
</defs>
</svg>
