<svg width="492" height="600" viewBox="0 0 492 600" fill="none" xmlns="http://www.w3.org/2000/svg">
<g clip-path="url(#clip0_902_1929)">
<path d="M61.3645 7.125H430.635C460.569 7.125 484.871 31.4196 484.871 61.3442V430.5C484.871 460.424 460.569 484.719 430.635 484.719H61.3645C31.4306 484.719 7.12842 460.424 7.12842 430.5V61.3442C7.12842 31.4196 31.4306 7.125 61.3645 7.125Z" fill="#343433"/>
<path d="M430.635 14.2529C456.545 14.2529 477.743 35.4443 477.743 61.3456V430.501C477.743 456.402 456.545 477.594 430.635 477.594H61.3647C35.4553 477.594 14.2573 456.402 14.2573 430.501V61.3456C14.2573 35.4443 35.4553 14.2529 61.3647 14.2529H430.635ZM430.635 0H61.3647C27.5296 0 0 27.521 0 61.3456V430.501C0 464.326 27.5296 491.847 61.3647 491.847H430.635C464.47 491.847 492 464.326 492 430.501V61.3456C492 27.521 464.47 0 430.635 0Z" fill="white"/>
<path d="M150.065 271.41C134.894 271.41 120.539 265.508 109.652 254.786C98.706 244.012 92.6855 229.746 92.6855 214.625C92.6855 201.163 97.6302 188.07 106.612 177.749C114.596 168.576 125.251 162.142 136.935 159.37C138.484 119.799 171.172 88.0859 211.125 88.0859C224.06 88.0859 236.781 91.4418 247.902 97.7973C257.668 103.375 266.061 111.176 272.392 120.511C280.383 116.397 289.268 114.24 298.341 114.24C311.956 114.24 325.131 119.144 335.442 128.052C344.832 136.163 351.3 147.086 353.886 159.091C380.009 164.682 399.334 188.018 399.334 214.619C399.334 229.746 393.307 244.006 382.368 254.78C371.481 265.502 357.126 271.404 341.949 271.404H150.065V271.41Z" fill="#33CFFF"/>
<path d="M211.112 92.5641C236.017 92.5641 258.433 105.58 270.889 126.505C279.074 121.439 288.51 118.725 298.334 118.725C324.438 118.725 346.135 137.927 350.043 162.941C375.064 166.847 394.856 188.538 394.856 214.633C394.856 243.482 370.8 266.948 341.942 266.948H150.065C121.207 266.948 97.1507 243.482 97.1507 214.633C97.1507 188.758 116.625 167.21 141.348 163.044C141.342 162.805 141.342 162.559 141.342 162.319C141.342 123.856 172.643 92.5706 211.112 92.5706M211.112 83.6172C169.869 83.6172 135.931 115.485 132.651 155.886C121.343 159.235 111.078 165.798 103.23 174.816C93.541 185.946 88.2075 200.082 88.2075 214.627C88.2075 230.959 94.7076 246.352 106.509 257.975C118.239 269.526 133.708 275.888 150.065 275.888H341.942C358.299 275.888 373.768 269.526 385.498 257.975C397.299 246.352 403.799 230.959 403.799 214.627C403.799 199.953 398.382 185.726 388.544 174.55C380.301 165.189 369.478 158.522 357.58 155.387C354.437 143.531 347.749 132.796 338.352 124.678C327.225 115.064 313.013 109.771 298.321 109.771C289.845 109.771 281.517 111.52 273.838 114.87C267.435 106.35 259.347 99.1981 250.099 93.9181C238.298 87.1804 224.818 83.6172 211.105 83.6172H211.112Z" fill="white"/>
<path d="M206.401 271.412C195.377 271.412 184.95 267.123 177.044 259.336C169.092 251.51 164.711 241.137 164.711 230.143C164.711 220.354 168.308 210.837 174.834 203.335C180.407 196.928 187.782 192.36 195.883 190.229C197.503 162.157 220.859 139.812 249.341 139.812C266.91 139.812 282.885 148.125 292.878 162.248C298.406 159.598 304.484 158.212 310.686 158.212C320.582 158.212 330.154 161.775 337.652 168.253C344.256 173.955 348.87 181.58 350.866 189.976C369.42 194.349 383.049 211.09 383.049 230.143C383.049 241.137 378.668 251.503 370.716 259.336C362.81 267.123 352.382 271.412 341.359 271.412H206.407H206.401Z" fill="#0D87C5"/>
<path d="M249.341 144.295C266.858 144.295 282.625 153.449 291.381 168.168C297.135 164.605 303.771 162.694 310.68 162.694C329.039 162.694 344.301 176.195 347.049 193.791C364.65 196.538 378.564 211.795 378.564 230.149C378.564 250.439 361.643 266.94 341.352 266.94H206.401C186.103 266.94 169.189 250.433 169.189 230.149C169.189 211.95 182.882 196.79 200.276 193.862C200.276 193.694 200.276 193.519 200.276 193.35C200.276 166.302 222.291 144.295 249.347 144.295M249.341 135.348C219.55 135.348 194.936 157.906 191.683 186.833C183.926 189.463 176.914 194.141 171.457 200.405C164.225 208.717 160.239 219.278 160.239 230.149C160.239 242.354 165.093 253.854 173.907 262.529C182.656 271.145 194.198 275.887 206.401 275.887H341.352C353.555 275.887 365.097 271.145 373.846 262.529C382.66 253.854 387.514 242.354 387.514 230.149C387.514 219.187 383.47 208.549 376.127 200.211C370.321 193.616 362.797 188.815 354.508 186.334C352.013 178.067 347.198 170.604 340.575 164.877C332.267 157.699 321.651 153.747 310.686 153.747C305.055 153.747 299.514 154.777 294.323 156.772C289.819 151.207 284.31 146.504 278.089 142.947C269.392 137.978 259.451 135.348 249.347 135.348H249.341Z" fill="white"/>
<path d="M325.008 403.759C320.051 403.759 315.301 402.224 311.27 399.328C301.711 392.454 298.84 379.685 304.05 369.513L280.37 341.487C278.86 339.653 278.037 337.334 278.057 334.957V309.871H258.194V339.427C264.091 342.225 268.608 347.382 270.565 353.718C274.395 366.105 267.428 379.302 255.037 383.131C252.776 383.831 250.436 384.187 248.084 384.187C237.708 384.187 228.681 377.527 225.616 367.608C223.762 361.609 224.352 355.241 227.288 349.689C229.692 345.141 233.425 341.578 237.994 339.42V309.871H214.754V331.814C214.774 334.237 213.912 336.576 212.324 338.41L188.417 366.676C191.081 372.636 191.165 379.49 188.534 385.58C184.814 394.203 176.331 399.775 166.934 399.775C163.726 399.775 160.589 399.127 157.628 397.844C145.723 392.707 140.221 378.849 145.36 366.948C149.08 358.325 157.563 352.753 166.96 352.753C169.034 352.753 171.075 353.025 173.058 353.563L194.567 328.16C194.58 325.627 194.567 322.122 194.541 318.449C194.528 315.475 194.509 312.45 194.515 309.878H183.66C171.911 309.846 162.339 300.27 162.307 288.544C162.307 283.458 162.307 277.472 162.307 271.441C162.307 264.735 162.307 257.972 162.307 252.355C162.339 240.616 171.917 231.047 183.647 231.008H312.527C324.296 231.021 333.874 240.596 333.88 252.355C333.867 258.367 333.88 288.227 333.88 288.531C333.874 300.296 324.296 309.871 312.527 309.884H298.257C298.257 312.145 298.257 327.921 298.257 331.341L320.044 357.191C321.619 356.854 323.22 356.686 324.846 356.686H325.021C329.992 356.686 334.749 358.221 338.78 361.117C343.886 364.79 347.256 370.232 348.267 376.439C349.278 382.645 347.814 388.878 344.139 393.976C339.726 400.111 332.571 403.772 325.008 403.772V403.759ZM324.827 376.866C323.019 376.905 321.554 378.389 321.554 380.209C321.554 382.03 323.012 383.513 324.827 383.552C326.544 383.455 327.925 382.049 327.983 380.319C328.015 379.425 327.698 378.57 327.082 377.916C326.486 377.281 325.689 376.905 324.827 376.86V376.866ZM166.888 372.927C165.087 372.96 163.622 374.437 163.622 376.244C163.622 377.132 163.966 377.961 164.594 378.59C165.21 379.205 166.02 379.549 166.888 379.561C168.632 379.49 170.025 378.078 170.07 376.329C170.09 375.441 169.766 374.599 169.157 373.957C168.56 373.329 167.757 372.966 166.888 372.927ZM244.746 360.696C244.837 362.445 246.256 363.832 248.019 363.87H248.097C249.866 363.87 251.35 362.458 251.441 360.696C251.35 358.947 249.931 357.56 248.168 357.521H248.09C246.321 357.521 244.837 358.934 244.746 360.696ZM281.323 270.462C281.407 274.142 284.343 277.058 288.037 277.109H288.134C291.815 277.109 294.854 274.136 294.938 270.462C294.854 266.782 291.919 263.867 288.225 263.815H288.127C284.446 263.815 281.407 266.789 281.323 270.462ZM196.77 269.309C196.135 269.309 195.617 269.827 195.617 270.462C195.617 271.097 196.135 271.615 196.77 271.615H249.613C250.242 271.615 250.767 271.091 250.767 270.449C250.767 269.814 250.255 269.309 249.633 269.309H196.77Z" fill="#343433"/>
<path d="M312.527 235.47C321.846 235.477 329.402 243.031 329.409 252.347C329.396 258.424 329.409 288.517 329.409 288.517C329.402 297.833 321.846 305.387 312.527 305.394H293.785C293.785 310.926 293.785 327.187 293.785 332.96L318.489 362.269C320.524 361.524 322.675 361.142 324.846 361.142H324.905C324.944 361.142 324.989 361.142 325.028 361.142C329.026 361.142 332.921 362.399 336.168 364.731C344.722 370.885 346.666 382.8 340.51 391.351C336.784 396.528 330.938 399.288 325.008 399.288C321.152 399.288 317.251 398.121 313.881 395.698C305.327 389.55 303.383 377.63 309.539 369.078L283.824 338.642C282.975 337.612 282.522 336.316 282.528 334.988V305.4H253.715C253.715 311.095 253.715 336.27 253.715 342.47C259.723 344.33 264.434 349.033 266.288 355.039C269.398 365.087 263.767 375.751 253.715 378.861C251.842 379.437 249.944 379.716 248.084 379.716C239.951 379.716 232.414 374.468 229.886 366.292C226.776 356.244 232.407 345.58 242.459 342.47V305.4H210.269V331.839C210.289 333.18 209.803 334.482 208.922 335.493L183.038 366.098C186.395 371.41 186.913 378.038 184.418 383.804C181.314 390.995 174.296 395.297 166.927 395.297C164.413 395.297 161.846 394.791 159.39 393.735C149.734 389.57 145.289 378.368 149.456 368.715C152.56 361.524 159.578 357.222 166.947 357.222C169.461 357.222 172.027 357.727 174.484 358.783L199.019 329.811C199.103 324.376 198.909 310.667 199.019 305.394H183.654C174.341 305.368 166.798 297.827 166.772 288.517C166.778 277.814 166.759 263.011 166.772 252.347C166.798 243.037 174.341 235.496 183.654 235.47H312.52M288.134 281.578C294.29 281.578 299.326 276.635 299.41 270.455C299.326 264.352 294.394 259.422 288.289 259.337C288.237 259.337 288.179 259.337 288.127 259.337C281.971 259.337 276.935 264.281 276.851 270.461C276.935 276.564 281.867 281.494 287.972 281.585C288.024 281.585 288.082 281.585 288.134 281.585M196.77 276.085H249.613C252.717 276.078 255.232 273.564 255.238 270.461C255.238 270.448 255.238 270.435 255.238 270.422C255.225 267.332 252.717 264.838 249.633 264.838H196.77C193.66 264.838 191.145 267.358 191.145 270.461C191.145 273.564 193.666 276.085 196.77 276.085ZM248.097 368.339C252.335 368.339 255.822 364.951 255.912 360.688C255.822 356.503 252.452 353.134 248.265 353.043C248.207 353.043 248.149 353.043 248.09 353.043C243.852 353.043 240.365 356.432 240.275 360.695C240.365 364.88 243.735 368.249 247.922 368.339C247.98 368.339 248.038 368.339 248.097 368.339ZM166.947 384.037C171.101 383.933 174.438 380.59 174.542 376.444C174.652 372.142 171.25 368.566 166.947 368.456C162.644 368.456 159.151 371.941 159.151 376.25C159.151 380.551 162.637 384.043 166.947 384.043M324.905 388.034C329.013 387.892 332.312 384.594 332.455 380.487C332.604 376.172 329.227 372.544 324.905 372.395C320.589 372.395 317.083 375.893 317.083 380.215C317.083 384.536 320.589 388.034 324.905 388.034ZM312.533 226.523H183.66C169.448 226.562 157.874 238.14 157.829 252.321C157.829 257.983 157.829 264.792 157.829 271.53C157.829 277.523 157.829 283.47 157.829 288.51V288.543C157.867 302.724 169.448 314.295 183.634 314.34H190.05C190.05 315.695 190.063 317.081 190.069 318.461C190.082 321.279 190.102 324.162 190.095 326.507L171.366 348.625C169.915 348.392 168.437 348.275 166.953 348.275C155.768 348.275 145.677 354.909 141.245 365.171C138.283 372.032 138.173 379.638 140.927 386.583C143.688 393.528 148.983 398.983 155.845 401.95C159.377 403.473 163.104 404.244 166.927 404.244C178.113 404.244 188.203 397.61 192.636 387.348C195.377 380.999 195.643 373.956 193.537 367.543L215.72 341.324C218.007 338.68 219.252 335.305 219.226 331.807V314.353H233.515V336.776C222.829 343.287 217.482 356.464 221.338 368.948C223.14 374.773 226.698 379.748 231.623 383.324C236.451 386.829 242.141 388.676 248.077 388.676C250.877 388.676 253.664 388.255 256.353 387.419C271.103 382.858 279.391 367.154 274.836 352.409C272.794 345.807 268.426 340.287 262.659 336.776C262.659 332.241 262.659 326.164 262.659 320.489V314.353H273.572V334.968C273.552 338.376 274.738 341.699 276.903 344.33L276.942 344.375L276.981 344.42L298.82 370.264C294.42 381.841 298.133 395.394 308.651 402.961C313.447 406.414 319.105 408.234 325.002 408.234C334.003 408.234 342.512 403.874 347.768 396.579C356.796 384.043 353.931 366.499 341.385 357.475C336.589 354.022 330.925 352.201 325.015 352.201H324.898H324.84C323.829 352.201 322.831 352.253 321.833 352.363L302.728 329.695C302.728 326.449 302.728 322.134 302.728 317.943C302.728 316.725 302.728 315.513 302.728 314.34H312.52C326.752 314.328 338.339 302.75 338.352 288.523C338.352 288.212 338.339 258.359 338.352 252.366V252.354V252.341C338.339 238.12 326.758 226.536 312.527 226.523H312.533ZM285.801 270.461C285.885 269.25 286.902 268.284 288.127 268.284H288.166C289.397 268.304 290.383 269.25 290.46 270.461C290.376 271.673 289.359 272.638 288.134 272.638H288.095C286.864 272.618 285.879 271.673 285.801 270.461Z" fill="white"/>
<path d="M462.027 486.336H29.8496C13.3641 486.336 0 499.696 0 516.176V569.223C0 585.703 13.3641 599.063 29.8496 599.063H462.027C478.513 599.063 491.877 585.703 491.877 569.223V516.176C491.877 499.696 478.513 486.336 462.027 486.336Z" fill="white"/>
<path d="M115.063 523.903C118.313 518.036 122.828 513.433 128.697 510.183C134.475 506.934 141.066 505.219 148.47 505.219C157.499 505.219 165.264 507.566 171.675 512.35C178.086 517.133 182.42 523.632 184.587 531.846H164.181C162.646 528.687 160.479 526.25 157.77 524.625C154.971 523 151.811 522.098 148.29 522.098C142.601 522.098 137.997 524.084 134.385 528.055C130.864 532.027 129.058 537.352 129.058 543.941C129.058 550.531 130.864 555.856 134.385 559.828C137.906 563.799 142.511 565.785 148.29 565.785C151.811 565.785 154.971 564.973 157.77 563.258C160.569 561.633 162.736 559.196 164.181 556.037H184.587C182.42 564.251 178.086 570.749 171.675 575.443C165.264 580.137 157.499 582.574 148.47 582.574C141.066 582.574 134.475 580.949 128.697 577.609C122.918 574.36 118.313 569.757 115.063 563.889C111.812 558.022 110.187 551.343 110.187 543.851C110.187 536.359 111.812 529.68 115.063 523.723V523.903Z" fill="#343433"/>
<path d="M252.576 549.718C255.284 553.148 256.548 557.029 256.548 561.452C256.548 567.771 254.291 572.825 249.867 576.526C245.443 580.227 239.213 582.122 231.267 582.122H195.873V506.121H230.093C237.858 506.121 243.908 507.926 248.242 511.447C252.576 514.967 254.833 519.751 254.833 525.889C254.833 530.402 253.659 534.103 251.312 537.081C248.964 540.06 245.804 542.136 241.921 543.219C246.346 544.122 249.867 546.378 252.576 549.808V549.718ZM214.383 536.901H226.482C229.552 536.901 231.809 536.269 233.434 534.915C235.059 533.561 235.872 531.575 235.872 529.048C235.872 526.52 235.059 524.444 233.434 523.09C231.809 521.737 229.461 521.014 226.482 521.014H214.383V536.901ZM235.24 565.063C236.955 563.618 237.768 561.633 237.768 558.925C237.768 556.217 236.865 554.141 235.15 552.606C233.434 551.072 230.906 550.35 227.836 550.35H214.383V567.139H228.017C231.086 567.139 233.524 566.417 235.24 565.063Z" fill="#343433"/>
<path d="M316.772 506.121V520.924H285.803V536.991H309.007V551.433H285.803V582.213H267.293V506.121H316.772Z" fill="#343433"/>
<path d="M339.165 580.228C334.74 578.423 331.219 575.715 328.601 572.195C325.982 568.674 324.538 564.432 324.447 559.377H344.131C344.402 562.175 345.395 564.342 347.02 565.786C348.645 567.23 350.812 568.042 353.521 568.042C356.23 568.042 358.397 567.411 360.022 566.147C361.647 564.883 362.369 563.168 362.369 560.912C362.369 559.016 361.737 557.482 360.473 556.218C359.209 554.954 357.674 553.961 355.778 553.149C353.972 552.337 351.354 551.434 347.923 550.441C343.047 548.907 338.984 547.372 335.914 545.928C332.844 544.484 330.136 542.137 327.878 539.249C325.621 536.27 324.538 532.389 324.538 527.695C324.538 520.655 327.066 515.058 332.212 511.087C337.359 507.115 344.04 505.039 352.257 505.039C360.473 505.039 367.426 507.025 372.482 511.087C377.538 515.148 380.337 520.655 380.698 527.785H360.654C360.473 525.348 359.57 523.362 357.945 522.008C356.32 520.564 354.153 519.932 351.535 519.932C349.277 519.932 347.471 520.564 346.117 521.738C344.763 522.911 344.04 524.626 344.04 526.883C344.04 529.32 345.214 531.215 347.471 532.659C349.819 534.013 353.431 535.548 358.306 537.082C363.182 538.707 367.245 540.332 370.315 541.866C373.385 543.401 376.003 545.567 378.261 548.455C380.518 551.344 381.601 555.045 381.601 559.648C381.601 564.251 380.518 567.952 378.261 571.472C376.094 574.993 372.843 577.791 368.69 579.957C364.536 582.033 359.57 583.116 353.882 583.116C348.194 583.116 343.318 582.214 338.894 580.408L339.165 580.228Z" fill="#343433"/>
</g>
<defs>
<clipPath id="clip0_902_1929">
<rect width="492" height="600" fill="white"/>
</clipPath>
</defs>
</svg>
