<svg width="243" height="250" viewBox="0 0 243 250" fill="none" xmlns="http://www.w3.org/2000/svg">
<g clip-path="url(#clip0_902_2041)">
<path d="M47.6296 144.63C35.9466 144.63 24.8965 140.081 16.5129 131.828C8.08604 123.532 3.44531 112.548 3.44531 100.898C3.44531 90.5302 7.25309 80.4437 14.1655 72.4989C20.3099 65.4356 28.5204 60.4761 37.5098 58.3453C38.7051 27.8693 63.8721 3.44531 94.6372 3.44531C104.6 3.44531 114.39 6.03049 122.952 10.925C130.47 15.2192 136.934 21.2279 141.813 28.421C147.962 25.2517 154.804 23.5913 161.793 23.5913C172.275 23.5913 182.422 27.3718 190.362 34.2295C197.588 40.4761 202.569 48.8915 204.56 58.1343C224.675 62.4448 239.555 80.4112 239.555 100.898C239.555 112.548 234.914 123.532 226.487 131.828C218.103 140.087 207.053 144.63 195.365 144.63H47.6296Z" fill="#33CFFF"/>
<path d="M94.6373 6.89021C113.811 6.89021 131.076 16.9173 140.661 33.0287C146.962 29.1293 154.231 27.0362 161.793 27.0362C181.892 27.0362 198.594 41.8226 201.607 61.0871C220.873 64.0995 236.109 80.8004 236.109 100.898C236.109 123.115 217.59 141.19 195.37 141.19H47.6297C25.4104 141.19 6.89078 123.115 6.89078 100.898C6.89078 80.9681 21.8839 64.3699 40.9228 61.1682C40.9174 60.9843 40.9174 60.795 40.9174 60.6111C40.9174 30.9897 65.0189 6.89021 94.6427 6.89021M94.6373 0C62.8824 0 36.7526 24.543 34.2267 55.6571C25.5186 58.2369 17.6164 63.2883 11.5694 70.238C4.11067 78.8102 0 89.6971 0 100.898C0 113.478 5.00312 125.333 14.0953 134.283C23.1279 143.18 35.038 148.08 47.6297 148.08H195.37C207.962 148.08 219.872 143.18 228.905 134.283C237.991 125.333 243 113.478 243 100.898C243 89.5998 238.83 78.6371 231.258 70.0325C224.913 62.8232 216.578 57.6906 207.416 55.2731C204.998 46.1439 199.849 37.8745 192.612 31.6225C184.044 24.2185 173.102 20.146 161.793 20.146C155.264 20.146 148.855 21.4927 142.938 24.0725C138.005 17.5122 131.779 12.0011 124.661 7.93402C115.58 2.74202 105.195 0 94.6373 0Z" fill="white"/>
<path d="M91.0078 144.626C82.5214 144.626 74.4948 141.322 68.4045 135.33C62.2818 129.299 58.9121 121.317 58.9121 112.847C58.9121 105.308 61.6814 97.9796 66.7062 92.2035C71.0007 87.2711 76.6745 83.7557 82.9108 82.1115C84.1603 60.4945 102.144 43.2852 124.072 43.2852C137.599 43.2852 149.899 49.6832 157.59 60.5648C161.846 58.5204 166.53 57.455 171.301 57.455C178.917 57.455 186.294 60.2024 192.06 65.1889C197.144 69.5805 200.698 75.4539 202.234 81.9168C216.518 85.2862 227.017 98.1797 227.017 112.852C227.017 121.322 223.647 129.305 217.524 135.335C211.434 141.333 203.408 144.632 194.921 144.632H91.0132L91.0078 144.626Z" fill="#0D87C5"/>
<path d="M124.072 46.7316C137.561 46.7316 149.698 53.784 156.443 65.1145C160.878 62.3724 165.984 60.9014 171.307 60.9014C185.445 60.9014 197.193 71.3016 199.308 84.8495C212.857 86.9641 223.577 98.7164 223.577 112.848C223.577 128.473 210.553 141.188 194.921 141.188H91.0133C75.3873 141.188 62.3576 128.478 62.3576 112.848C62.3576 98.83 72.9047 87.1588 86.2914 84.9035C86.2914 84.7737 86.2914 84.6385 86.2914 84.5141C86.2914 63.6813 103.242 46.7316 124.077 46.7316M124.072 39.8413C101.133 39.8413 82.1807 57.2129 79.6765 79.4898C73.7052 81.5125 68.3072 85.1145 64.1046 89.9441C58.5336 96.3476 55.4668 104.482 55.4668 112.848C55.4668 122.248 59.2043 131.101 65.9869 137.786C72.7262 144.422 81.6128 148.078 91.0078 148.078H194.916C204.316 148.078 213.197 144.422 219.937 137.786C226.719 131.101 230.457 122.248 230.457 112.848C230.457 104.406 227.341 96.2178 221.689 89.7873C217.222 84.7088 211.429 81.0149 205.041 79.1004C203.121 72.7348 199.411 66.9857 194.31 62.578C187.917 57.0506 179.739 54.0058 171.296 54.0058C166.958 54.0058 162.69 54.8008 158.693 56.3367C155.226 52.0479 150.986 48.4244 146.194 45.6877C139.498 41.8587 131.844 39.8359 124.061 39.8359L124.072 39.8413Z" fill="white"/>
<path d="M182.335 246.554C178.522 246.554 174.861 245.375 171.756 243.141C164.395 237.846 162.188 228.014 166.196 220.177L147.963 198.593C146.8 197.181 146.167 195.391 146.183 193.563V174.244H130.887V197.008C135.431 199.166 138.908 203.136 140.417 208.019C143.365 217.56 138.005 227.722 128.464 230.675C126.722 231.216 124.921 231.486 123.109 231.486C115.121 231.486 108.17 226.354 105.807 218.722C104.379 214.098 104.833 209.198 107.094 204.92C108.944 201.416 111.816 198.674 115.337 197.013V174.255H97.4448V191.156C97.461 193.022 96.7957 194.823 95.5733 196.235L77.1673 218.003C79.2172 222.595 79.2821 227.873 77.2592 232.562C74.3926 239.204 67.8642 243.492 60.6272 243.492C58.1554 243.492 55.7431 242.995 53.4606 242.005C44.2928 238.052 40.0577 227.376 44.0115 218.209C46.8781 211.567 53.4065 207.278 60.6435 207.278C62.2391 207.278 63.813 207.489 65.3383 207.9L81.9 188.338C81.9108 186.391 81.9 183.687 81.8837 180.859C81.8729 178.571 81.8621 176.24 81.8621 174.255H73.5055C64.4621 174.228 57.0899 166.856 57.0629 157.825C57.0629 153.909 57.0629 149.301 57.0629 144.655C57.0629 139.49 57.0629 134.282 57.0629 129.955C57.0899 120.913 64.4621 113.547 73.4947 113.52H172.724C181.784 113.525 189.161 120.902 189.167 129.961C189.156 134.59 189.167 157.587 189.167 157.819C189.161 166.884 181.784 174.255 172.724 174.26H161.739C161.739 176.002 161.739 188.154 161.739 190.788L178.517 210.696C179.728 210.437 180.962 210.307 182.211 210.307H182.346C186.17 210.307 189.832 211.486 192.937 213.72C196.869 216.548 199.465 220.74 200.244 225.521C201.023 230.302 199.898 235.099 197.064 239.031C193.667 243.752 188.155 246.575 182.33 246.575L182.335 246.554ZM182.195 225.845C180.799 225.878 179.674 227.019 179.674 228.419C179.674 229.82 180.799 230.967 182.195 230.994C183.515 230.918 184.58 229.836 184.623 228.506C184.645 227.819 184.402 227.159 183.931 226.656C183.477 226.164 182.86 225.878 182.195 225.84V225.845ZM60.5894 222.811C59.1993 222.833 58.0743 223.974 58.0743 225.364C58.0743 226.045 58.3393 226.689 58.8207 227.17C59.2913 227.641 59.9187 227.906 60.584 227.917C61.9254 227.857 63.0017 226.775 63.0342 225.423C63.0504 224.742 62.8016 224.093 62.331 223.595C61.8713 223.108 61.2493 222.833 60.584 222.8L60.5894 222.811ZM120.535 213.39C120.605 214.736 121.698 215.807 123.055 215.834H123.115C124.478 215.834 125.619 214.742 125.689 213.39C125.619 212.043 124.527 210.972 123.169 210.945H123.109C121.746 210.945 120.605 212.038 120.535 213.39ZM148.698 143.893C148.763 146.727 151.024 148.971 153.864 149.014H153.939C156.774 149.014 159.11 146.721 159.181 143.893C159.116 141.059 156.855 138.814 154.015 138.771H153.939C151.105 138.771 148.763 141.064 148.698 143.893ZM83.5929 143.006C83.1007 143.006 82.7059 143.406 82.7059 143.893C82.7059 144.379 83.1061 144.78 83.5929 144.78H124.278C124.759 144.78 125.165 144.374 125.165 143.882C125.165 143.395 124.77 143.006 124.294 143.006H83.5929Z" fill="#343433"/>
<path d="M172.719 116.948C179.896 116.953 185.711 122.767 185.716 129.944C185.705 134.622 185.716 157.802 185.716 157.802C185.711 164.979 179.896 170.793 172.719 170.799H158.288C158.288 175.06 158.288 187.581 158.288 192.026L177.311 214.601C178.879 214.027 180.534 213.735 182.206 213.735H182.249C182.281 213.735 182.314 213.735 182.341 213.735C185.419 213.735 188.42 214.703 190.919 216.499C197.502 221.237 199 230.415 194.262 236.997C191.39 240.983 186.89 243.108 182.325 243.108C179.355 243.108 176.353 242.21 173.757 240.339C167.175 235.601 165.676 226.423 170.415 219.841L150.613 196.402C149.964 195.607 149.607 194.612 149.618 193.584V170.793H127.436C127.436 175.179 127.436 194.568 127.436 199.344C132.066 200.777 135.685 204.395 137.118 209.025C139.509 216.764 135.176 224.979 127.436 227.37C125.992 227.819 124.532 228.03 123.099 228.03C116.835 228.03 111.037 223.984 109.09 217.689C106.699 209.95 111.032 201.734 118.772 199.344V170.793H93.9886V191.156C93.9994 192.189 93.6316 193.195 92.9501 193.973L73.0188 217.543C75.6042 221.632 75.999 226.737 74.0843 231.177C71.6936 236.715 66.2903 240.031 60.6165 240.031C58.6801 240.031 56.7059 239.641 54.8128 238.825C47.3812 235.617 43.952 226.991 47.1648 219.555C49.5555 214.017 54.9589 210.701 60.6327 210.701C62.569 210.701 64.5432 211.091 66.4363 211.907L85.3291 189.593C85.394 185.407 85.2426 174.849 85.3291 170.788H73.5002C66.3281 170.766 60.5245 164.958 60.5029 157.792C60.5083 149.549 60.4921 138.149 60.5029 129.933C60.5245 122.762 66.3335 116.959 73.5002 116.937H172.724M153.939 152.459C158.683 152.459 162.556 148.652 162.626 143.892C162.561 139.192 158.764 135.396 154.058 135.325C154.015 135.325 153.977 135.325 153.934 135.325C149.191 135.325 145.318 139.133 145.248 143.892C145.312 148.592 149.109 152.389 153.815 152.459C153.858 152.459 153.896 152.459 153.939 152.459ZM83.5929 148.224H124.278C126.668 148.219 128.605 146.283 128.61 143.892C128.61 143.881 128.61 143.871 128.61 143.86C128.599 141.48 126.668 139.555 124.294 139.555H83.5929C81.2022 139.555 79.2605 141.496 79.2605 143.887C79.2605 146.277 81.2022 148.219 83.5929 148.219M123.115 219.279C126.382 219.279 129.064 216.667 129.135 213.389C129.064 210.166 126.468 207.57 123.245 207.5C123.201 207.5 123.153 207.5 123.109 207.5C119.843 207.5 117.16 210.112 117.089 213.389C117.16 216.613 119.756 219.209 122.98 219.279C123.023 219.279 123.072 219.279 123.115 219.279ZM60.6327 231.367C63.8293 231.285 66.4038 228.711 66.4796 225.515C66.5607 222.199 63.9428 219.447 60.6327 219.365C57.3171 219.365 54.6289 222.053 54.6289 225.363C54.6289 228.679 57.3171 231.361 60.6327 231.361M182.254 234.444C185.418 234.33 187.955 231.794 188.069 228.63C188.182 225.304 185.581 222.513 182.254 222.399C178.928 222.399 176.234 225.098 176.234 228.419C176.234 231.745 178.933 234.444 182.26 234.444M172.73 110.058H73.5002C62.5582 110.09 53.6445 119.003 53.6121 129.922C53.6121 134.282 53.6121 139.528 53.6121 144.72C53.6121 149.338 53.6121 153.919 53.6121 157.797V157.824C53.6445 168.743 62.5582 177.656 73.4785 177.689H78.4167C78.4167 178.733 78.4275 179.804 78.433 180.864C78.4438 183.038 78.4546 185.255 78.4546 187.061L64.0348 204.092C62.9152 203.914 61.7793 203.822 60.6381 203.822C52.0273 203.822 44.2549 208.927 40.8474 216.834C38.5649 222.118 38.4783 227.975 40.604 233.324C42.7296 238.673 46.8078 242.875 52.0922 245.158C54.8128 246.331 57.6795 246.926 60.6273 246.926C69.238 246.926 77.005 241.821 80.418 233.914C82.5274 229.025 82.7329 223.6 81.1103 218.657L98.1912 198.462C99.9545 196.423 100.912 193.827 100.89 191.129V177.683H111.892V194.952C103.665 199.966 99.5434 210.112 102.518 219.728C103.908 224.217 106.645 228.046 110.437 230.799C114.152 233.497 118.534 234.92 123.109 234.92C125.268 234.92 127.409 234.595 129.481 233.952C140.839 230.442 147.222 218.343 143.711 206.991C142.138 201.907 138.773 197.656 134.338 194.952C134.338 191.458 134.338 186.78 134.338 182.41V177.683H142.743V193.562C142.732 196.185 143.641 198.749 145.307 200.772L145.339 200.809L145.372 200.847L162.188 220.75C158.802 229.663 161.658 240.106 169.755 245.931C173.449 248.592 177.803 249.993 182.346 249.993C189.275 249.993 195.83 246.64 199.876 241.015C206.826 231.356 204.62 217.846 194.965 210.901C191.271 208.246 186.911 206.84 182.363 206.84H182.271H182.222C181.443 206.84 180.675 206.883 179.907 206.964L165.195 189.506C165.195 187.007 165.195 183.681 165.195 180.453C165.195 179.511 165.195 178.581 165.195 177.678H172.735C183.693 177.667 192.612 168.749 192.623 157.797C192.623 157.559 192.612 134.563 192.623 129.95V129.939V129.928C192.612 118.976 183.693 110.058 172.74 110.047L172.73 110.058ZM152.144 143.892C152.209 142.962 152.993 142.216 153.934 142.216H153.961C154.908 142.232 155.67 142.957 155.73 143.892C155.665 144.828 154.881 145.569 153.939 145.569H153.912C152.966 145.558 152.203 144.828 152.144 143.892Z" fill="white"/>
</g>
<defs>
<clipPath id="clip0_902_2041">
<rect width="243" height="250" fill="white"/>
</clipPath>
</defs>
</svg>
