<svg width="485" height="500" viewBox="0 0 485 500" fill="none" xmlns="http://www.w3.org/2000/svg">
<g clip-path="url(#clip0_902_1966)">
<path d="M95.0637 289.259C71.7458 289.259 49.6911 280.163 32.9584 263.656C16.1393 247.064 6.87695 225.095 6.87695 201.796C6.87695 181.06 14.4768 160.887 28.2732 144.998C40.5367 130.871 56.9239 120.952 74.8657 116.691C77.2515 55.7386 127.482 6.89062 188.886 6.89062C208.77 6.89062 228.31 12.061 245.399 21.8501C260.404 30.4385 273.305 42.4558 283.042 56.8419C295.316 50.5034 308.972 47.1827 322.92 47.1827C343.841 47.1827 364.093 54.7435 379.941 68.459C394.363 80.9523 404.306 97.783 408.278 116.269C448.426 124.89 478.124 160.822 478.124 201.796C478.124 225.095 468.861 247.064 452.042 263.656C435.31 280.173 413.255 289.259 389.926 289.259H95.0637Z" fill="#33CFFF"/>
<path d="M188.885 13.7804C227.155 13.7804 261.613 33.8345 280.742 66.0573C293.319 58.2585 307.828 54.0725 322.92 54.0725C363.035 54.0725 396.371 83.6452 402.384 122.174C440.836 128.199 471.247 161.601 471.247 201.796C471.247 246.23 434.284 282.38 389.937 282.38H95.0633C50.7163 282.38 13.7532 246.23 13.7532 201.796C13.7532 161.936 43.6777 128.74 81.6772 122.336C81.6664 121.969 81.6664 121.59 81.6664 121.222C81.6664 61.9794 129.77 13.7804 188.896 13.7804M188.885 0C125.506 0 73.354 49.086 68.3126 111.314C50.9322 116.474 35.1603 126.577 23.0911 140.476C8.20442 157.62 0 179.394 0 201.796C0 226.955 9.98564 250.665 28.1325 268.567C46.1607 286.36 69.9319 296.16 95.0633 296.16H389.937C415.068 296.16 438.839 286.36 456.867 268.567C475.004 250.665 485 226.955 485 201.796C485 179.2 476.677 157.274 461.563 140.065C448.901 125.646 432.265 115.381 413.978 110.546C409.152 92.2877 398.875 75.7491 384.431 63.245C367.331 48.437 345.492 40.292 322.92 40.292C309.89 40.292 297.097 42.9854 285.287 48.1449C275.442 35.0243 263.016 24.0022 248.81 15.868C230.685 5.48405 209.958 0 188.885 0Z" fill="white"/>
<path d="M181.642 289.261C164.704 289.261 148.684 282.652 136.529 270.667C124.308 258.606 117.583 242.641 117.583 225.702C117.583 210.624 123.11 195.967 133.139 184.415C141.71 174.55 153.035 167.519 165.482 164.231C167.975 120.997 203.87 86.5781 247.634 86.5781C274.633 86.5781 299.181 99.3742 314.532 121.137C323.028 117.049 332.377 114.918 341.898 114.918C357.098 114.918 371.823 120.413 383.331 130.386C393.478 139.169 400.571 150.916 403.637 163.842C432.147 170.58 453.101 196.367 453.101 225.713C453.101 242.652 446.375 258.617 434.155 270.678C421.999 282.673 405.979 289.271 389.041 289.271H181.653L181.642 289.261Z" fill="#0D87C5"/>
<path d="M247.634 93.467C274.557 93.467 298.782 107.572 312.243 130.233C321.095 124.749 331.286 121.807 341.909 121.807C370.128 121.807 393.575 142.607 397.796 169.703C424.838 173.932 446.234 197.437 446.234 225.701C446.234 256.95 420.239 282.38 389.041 282.38H181.653C150.465 282.38 124.459 256.961 124.459 225.701C124.459 197.664 145.51 174.322 172.228 169.811C172.228 169.551 172.228 169.281 172.228 169.032C172.228 127.366 206.061 93.467 247.644 93.467M247.634 79.6866C201.851 79.6866 164.024 114.43 159.026 158.984C147.108 163.029 136.334 170.233 127.946 179.892C116.827 192.699 110.706 208.967 110.706 225.701C110.706 244.5 118.166 262.207 131.703 275.576C145.154 288.848 162.89 296.16 181.642 296.16H389.03C407.792 296.16 425.518 288.848 438.969 275.576C452.507 262.207 459.966 244.5 459.966 225.701C459.966 208.816 453.748 192.439 442.467 179.578C433.55 169.422 421.988 162.034 409.239 158.205C405.407 145.473 398.001 133.975 387.821 125.16C375.061 114.105 358.739 108.015 341.887 108.015C333.229 108.015 324.712 109.605 316.734 112.677C309.814 104.1 301.351 96.8526 291.786 91.3794C278.422 83.7212 263.146 79.6758 247.612 79.6758L247.634 79.6866Z" fill="white"/>
<path d="M363.92 493.111C356.309 493.111 349.001 490.753 342.804 486.286C328.112 475.696 323.707 456.032 331.707 440.358L295.316 397.189C292.995 394.366 291.732 390.786 291.764 387.13V348.492H261.235V394.02C270.303 398.336 277.244 406.275 280.256 416.042C286.14 435.123 275.442 455.448 256.399 461.353C252.923 462.435 249.328 462.976 245.711 462.976C229.767 462.976 215.895 452.711 211.177 437.449C208.327 428.2 209.234 418.4 213.747 409.844C217.439 402.835 223.171 397.351 230.199 394.031V348.514H194.488V382.316C194.52 386.048 193.192 389.65 190.753 392.473L154.016 436.01C158.108 445.193 158.237 455.75 154.2 465.128C148.478 478.411 135.448 486.989 121.004 486.989C116.071 486.989 111.256 485.994 106.7 484.014C88.4025 476.107 79.9498 454.755 87.8411 436.421C93.5626 423.138 106.593 414.561 121.037 414.561C124.221 414.561 127.363 414.982 130.407 415.804L163.462 376.681C163.484 372.787 163.462 367.378 163.43 361.721C163.408 357.146 163.387 352.484 163.387 348.514H146.708C128.658 348.46 113.944 333.717 113.89 315.653C113.89 307.822 113.89 298.606 113.89 289.314C113.89 278.985 113.89 268.568 113.89 259.915C113.944 241.829 128.658 227.097 146.686 227.043H344.737C362.819 227.054 377.544 241.808 377.554 259.926C377.533 269.185 377.554 315.177 377.554 315.642C377.544 333.771 362.819 348.514 344.737 348.525H322.811C322.811 352.008 322.811 376.313 322.811 381.581L356.298 421.397C358.717 420.877 361.178 420.618 363.672 420.618H363.941C371.574 420.618 378.882 422.976 385.079 427.443C392.927 433.1 398.109 441.483 399.663 451.045C401.218 460.607 398.972 470.201 393.315 478.065C386.536 487.508 375.536 493.154 363.909 493.154L363.92 493.111ZM363.639 451.694C360.854 451.759 358.609 454.041 358.609 456.843C358.609 459.644 360.854 461.937 363.639 461.992C366.273 461.84 368.4 459.677 368.486 457.016C368.529 455.642 368.044 454.323 367.104 453.317C366.198 452.332 364.967 451.759 363.639 451.683V451.694ZM120.929 445.626C118.154 445.669 115.909 447.952 115.909 450.731C115.909 452.094 116.438 453.382 117.399 454.344C118.338 455.285 119.59 455.815 120.918 455.837C123.595 455.718 125.743 453.555 125.808 450.85C125.841 449.488 125.344 448.19 124.405 447.194C123.487 446.221 122.246 445.669 120.918 445.604L120.929 445.626ZM240.573 426.783C240.713 429.477 242.894 431.618 245.603 431.672H245.722C248.443 431.672 250.72 429.488 250.861 426.783C250.72 424.09 248.54 421.948 245.83 421.894H245.711C242.991 421.894 240.713 424.079 240.573 426.783ZM296.784 287.789C296.914 293.457 301.426 297.946 307.093 298.033H307.245C312.901 298.033 317.565 293.446 317.705 287.789C317.576 282.121 313.063 277.632 307.396 277.546H307.245C301.588 277.546 296.914 282.132 296.784 287.789ZM166.841 286.015C165.859 286.015 165.071 286.816 165.071 287.789C165.071 288.763 165.869 289.563 166.841 289.563H248.043C249.004 289.563 249.814 288.752 249.814 287.768C249.814 286.794 249.026 286.015 248.076 286.015H166.841Z" fill="#343433"/>
<path d="M344.726 233.9C359.052 233.911 370.657 245.538 370.667 259.892C370.646 269.249 370.667 315.609 370.667 315.609C370.657 329.962 359.052 341.59 344.726 341.601H315.924C315.924 350.125 315.924 375.165 315.924 384.057L353.892 429.205C357.022 428.059 360.325 427.475 363.661 427.475H363.748C363.812 427.475 363.877 427.475 363.931 427.475C370.074 427.475 376.065 429.411 381.052 433.002C394.19 442.477 397.181 460.833 387.724 473.997C381.992 481.969 373.01 486.22 363.899 486.22C357.972 486.22 351.981 484.424 346.799 480.682C333.661 471.206 330.671 452.85 340.128 439.687L300.606 392.807C299.311 391.217 298.598 389.227 298.62 387.172V341.59H254.348C254.348 350.363 254.348 389.14 254.348 398.691C263.589 401.558 270.811 408.794 273.672 418.053C278.443 433.532 269.796 449.962 254.348 454.743C251.466 455.641 248.551 456.063 245.69 456.063C233.189 456.063 221.617 447.972 217.731 435.382C212.959 419.903 221.606 403.472 237.054 398.691V341.59H187.59V382.315C187.612 384.381 186.878 386.393 185.517 387.951L145.737 435.09C150.897 443.267 151.685 453.478 147.863 462.358C143.092 473.435 132.307 480.065 120.983 480.065C117.118 480.065 113.178 479.286 109.4 477.653C94.567 471.239 87.7228 453.986 94.1352 439.113C98.9067 428.037 109.691 421.406 121.015 421.406C124.88 421.406 128.82 422.185 132.599 423.819L170.307 379.189C170.436 370.817 170.134 349.703 170.307 341.58H146.697C132.383 341.536 120.8 329.919 120.756 315.587C120.767 299.103 120.735 276.301 120.756 259.871C120.8 245.528 132.394 233.921 146.697 233.878H344.737M307.245 304.922C316.713 304.922 324.442 297.307 324.582 287.788C324.453 278.389 316.874 270.795 307.483 270.655C307.396 270.655 307.321 270.655 307.234 270.655C297.767 270.655 290.037 278.27 289.897 287.788C290.027 297.188 297.605 304.781 306.997 304.922C307.083 304.922 307.159 304.922 307.245 304.922ZM166.842 296.452H248.044C252.815 296.442 256.68 292.569 256.691 287.788C256.691 287.767 256.691 287.745 256.691 287.723C256.669 282.964 252.815 279.113 248.076 279.113H166.842C162.07 279.113 158.194 282.997 158.194 287.777C158.194 292.558 162.07 296.442 166.842 296.442M245.723 438.562C252.243 438.562 257.598 433.337 257.738 426.782C257.598 420.336 252.416 415.144 245.982 415.003C245.895 415.003 245.798 415.003 245.712 415.003C239.192 415.003 233.837 420.227 233.697 426.782C233.837 433.229 239.019 438.421 245.453 438.562C245.539 438.562 245.636 438.562 245.723 438.562ZM121.015 462.737C127.396 462.575 132.534 457.426 132.685 451.033C132.847 444.403 127.622 438.897 121.015 438.735C114.398 438.735 109.033 444.111 109.033 450.73C109.033 457.361 114.398 462.726 121.015 462.726M363.758 468.892C370.074 468.664 375.137 463.591 375.363 457.264C375.59 450.611 370.397 445.03 363.758 444.803C357.119 444.803 351.743 450.2 351.743 456.842C351.743 463.494 357.13 468.892 363.769 468.892M344.748 220.119H146.697C124.859 220.184 107.068 238.01 107.003 259.849C107.003 268.567 107.003 279.059 107.003 289.443C107.003 298.681 107.003 307.842 107.003 315.598V315.652C107.068 337.491 124.859 355.317 146.654 355.382H156.51C156.51 357.469 156.532 359.611 156.543 361.731C156.564 366.079 156.586 370.514 156.586 374.127L127.806 408.189C125.571 407.832 123.304 407.648 121.026 407.648C103.84 407.648 88.3273 417.859 81.5263 433.673C76.9707 444.24 76.798 455.955 81.0405 466.653C85.2831 477.35 93.4227 485.755 103.97 490.319C109.4 492.667 115.121 493.856 121.005 493.856C138.191 493.856 153.693 483.646 160.505 467.832C164.715 458.053 165.125 447.204 161.886 437.318L195.978 396.928C199.497 392.85 201.408 387.658 201.365 382.261V355.371H223.322V389.908C206.903 399.935 198.677 420.227 204.614 439.459C207.389 448.437 212.851 456.095 220.419 461.601C227.835 466.999 236.579 469.843 245.712 469.843C250.019 469.843 254.294 469.194 258.429 467.907C281.099 460.887 293.837 436.69 286.831 413.986C283.69 403.819 276.975 395.317 268.123 389.908C268.123 382.921 268.123 373.564 268.123 364.825V355.371H284.899V387.128C284.877 392.375 286.691 397.502 290.016 401.547L290.081 401.623L290.145 401.699L323.708 441.504C316.95 459.33 322.65 480.217 338.81 491.866C346.184 497.188 354.874 499.989 363.942 499.989C377.771 499.989 390.855 493.283 398.929 482.034C412.801 462.715 408.397 435.695 389.127 421.807C381.754 416.496 373.053 413.683 363.974 413.683H363.791H363.694C362.139 413.683 360.606 413.77 359.073 413.932L329.71 379.016C329.71 374.019 329.71 367.366 329.71 360.909C329.71 359.027 329.71 357.166 329.71 355.36H344.759C366.63 355.338 384.431 337.502 384.453 315.598C384.453 315.122 384.431 269.13 384.453 259.903V259.881V259.86C384.431 237.956 366.63 220.119 344.769 220.098L344.748 220.119ZM303.661 287.788C303.791 285.928 305.356 284.435 307.234 284.435H307.288C309.177 284.468 310.7 285.917 310.818 287.788C310.689 289.66 309.123 291.141 307.245 291.141H307.191C305.302 291.12 303.78 289.66 303.661 287.788Z" fill="white"/>
</g>
<defs>
<clipPath id="clip0_902_1966">
<rect width="485" height="500" fill="white"/>
</clipPath>
</defs>
</svg>
