<svg width="300" height="366" viewBox="0 0 300 366" fill="none" xmlns="http://www.w3.org/2000/svg">
<g clip-path="url(#clip0_902_1982)">
<path d="M37.4175 4.34766H262.582C280.835 4.34766 295.653 19.1674 295.653 37.4214V262.606C295.653 280.86 280.835 295.68 262.582 295.68H37.4175C19.1651 295.68 4.34668 280.86 4.34668 262.606V37.4214C4.34668 19.1674 19.1651 4.34766 37.4175 4.34766Z" fill="#343433"/>
<path d="M262.582 8.69424C278.381 8.69424 291.307 21.621 291.307 37.4208V262.606C291.307 278.405 278.381 291.332 262.582 291.332H37.4175C21.6191 291.332 8.69348 278.405 8.69348 262.606V37.4208C8.69348 21.621 21.6191 8.69424 37.4175 8.69424H262.582ZM262.582 0H37.4175C16.7863 0 0 16.7878 0 37.4208V262.606C0 283.239 16.7863 300.026 37.4175 300.026H262.582C283.214 300.026 300 283.239 300 262.606V37.4208C300 16.7878 283.214 0 262.582 0Z" fill="white"/>
<path d="M91.5029 165.562C82.2523 165.562 73.4995 161.962 66.8609 155.421C60.1866 148.849 56.5156 140.147 56.5156 130.923C56.5156 122.711 59.5307 114.724 65.0076 108.429C69.8759 102.833 76.3723 98.9089 83.497 97.2174C84.4414 73.0791 104.373 53.7344 128.735 53.7344C136.622 53.7344 144.379 55.7815 151.16 59.6583C157.115 63.0609 162.232 67.819 166.093 73.5138C170.965 71.0043 176.383 69.6883 181.915 69.6883C190.217 69.6883 198.251 72.6799 204.538 78.1138C210.264 83.0616 214.207 89.7246 215.784 97.0475C231.713 100.458 243.496 114.693 243.496 130.919C243.496 140.147 239.822 148.845 233.151 155.417C226.513 161.958 217.76 165.558 208.505 165.558H91.5029V165.562Z" fill="#33CFFF"/>
<path d="M128.727 56.4654C143.913 56.4654 157.581 64.4048 165.176 77.1696C170.167 74.0792 175.921 72.4233 181.911 72.4233C197.828 72.4233 211.058 84.1368 213.441 99.3952C228.698 101.778 240.766 115.009 240.766 130.928C240.766 148.526 226.098 162.839 208.501 162.839H91.503C73.9066 162.839 59.2383 148.526 59.2383 130.928C59.2383 115.144 71.1128 102 86.1881 99.4585C86.1842 99.3122 86.1842 99.1621 86.1842 99.0158C86.1842 75.5532 105.27 56.4694 128.727 56.4694M128.727 51.0078C103.579 51.0078 82.8846 70.4473 80.8851 95.0916C73.9896 97.1347 67.7303 101.138 62.9449 106.639C57.0373 113.429 53.7852 122.052 53.7852 130.924C53.7852 140.887 57.7486 150.276 64.9444 157.366C72.0968 164.412 81.5292 168.293 91.503 168.293H208.501C218.475 168.293 227.908 164.412 235.06 157.366C242.256 150.276 246.219 140.887 246.219 130.924C246.219 121.973 242.916 113.294 236.917 106.477C231.891 100.767 225.292 96.7 218.037 94.7873C216.12 87.5552 212.042 81.0069 206.312 76.0551C199.527 70.1905 190.862 66.9617 181.903 66.9617C176.735 66.9617 171.657 68.0288 166.974 70.0719C163.07 64.8751 158.138 60.5122 152.5 57.2914C145.304 53.1814 137.084 51.0078 128.723 51.0078H128.727Z" fill="white"/>
<path d="M125.854 165.561C119.132 165.561 112.774 162.945 107.953 158.194C103.105 153.42 100.434 147.093 100.434 140.387C100.434 134.416 102.627 128.61 106.606 124.034C110.004 120.125 114.501 117.339 119.441 116.039C120.429 98.9154 134.67 85.2852 152.037 85.2852C162.75 85.2852 172.491 90.3555 178.584 98.9707C181.955 97.3543 185.661 96.5086 189.443 96.5086C195.477 96.5086 201.313 98.6822 205.885 102.634C209.912 106.112 212.726 110.763 213.943 115.885C225.256 118.552 233.566 128.764 233.566 140.387C233.566 147.093 230.895 153.416 226.046 158.194C221.225 162.945 214.867 165.561 208.146 165.561H125.858H125.854Z" fill="#0D87C5"/>
<path d="M152.037 88.0201C162.718 88.0201 172.333 93.6042 177.671 102.583C181.18 100.409 185.227 99.2436 189.439 99.2436C200.634 99.2436 209.94 107.479 211.615 118.213C222.348 119.888 230.832 129.195 230.832 140.391C230.832 152.769 220.514 162.834 208.142 162.834H125.854C113.478 162.834 103.164 152.765 103.164 140.391C103.164 129.29 111.514 120.043 122.12 118.256C122.12 118.154 122.12 118.047 122.12 117.944C122.12 101.445 135.543 88.0201 152.041 88.0201M152.037 82.5625C133.872 82.5625 118.864 96.3231 116.88 113.968C112.15 115.573 107.874 118.426 104.547 122.248C100.137 127.318 97.707 133.76 97.707 140.391C97.707 147.837 100.667 154.851 106.041 160.143C111.376 165.399 118.413 168.292 125.854 168.292H208.142C215.583 168.292 222.62 165.399 227.955 160.143C233.329 154.851 236.289 147.837 236.289 140.391C236.289 133.704 233.823 127.215 229.346 122.129C225.805 118.106 221.218 115.178 216.164 113.664C214.642 108.622 211.706 104.069 207.668 100.575C202.602 96.1967 196.129 93.786 189.443 93.786C186.009 93.786 182.63 94.4143 179.465 95.6315C176.719 92.2368 173.36 89.3677 169.567 87.1981C164.263 84.167 158.202 82.5625 152.041 82.5625H152.037Z" fill="white"/>
<path d="M198.176 246.292C195.153 246.292 192.257 245.356 189.799 243.589C183.97 239.396 182.22 231.607 185.397 225.402L170.958 208.306C170.037 207.188 169.535 205.773 169.547 204.323V189.021H157.435V207.05C161.031 208.757 163.785 211.903 164.979 215.768C167.314 223.324 163.066 231.374 155.511 233.709C154.132 234.136 152.705 234.353 151.271 234.353C144.944 234.353 139.44 230.291 137.571 224.24C136.441 220.581 136.8 216.696 138.59 213.309C140.056 210.535 142.332 208.362 145.118 207.046V189.021H130.948V202.406C130.96 203.884 130.434 205.311 129.466 206.429L114.889 223.671C116.513 227.307 116.564 231.488 114.96 235.203C112.692 240.463 107.519 243.862 101.789 243.862C99.8331 243.862 97.9205 243.467 96.1146 242.684C88.8556 239.55 85.5007 231.097 88.6343 223.837C90.9025 218.577 96.0751 215.179 101.805 215.179C103.069 215.179 104.314 215.345 105.523 215.673L118.639 200.177C118.647 198.632 118.639 196.494 118.623 194.253C118.615 192.439 118.603 190.594 118.607 189.025H111.988C104.824 189.005 98.9874 183.164 98.9677 176.011C98.9677 172.909 98.9677 169.257 98.9677 165.578C98.9677 161.488 98.9677 157.362 98.9677 153.936C98.9874 146.775 104.828 140.938 111.98 140.914H190.565C197.741 140.922 203.582 146.763 203.586 153.936C203.578 157.603 203.586 175.817 203.586 176.003C203.582 183.18 197.741 189.021 190.565 189.029H181.864C181.864 190.408 181.864 200.031 181.864 202.118L195.149 217.886C196.109 217.68 197.085 217.578 198.077 217.578H198.184C201.215 217.578 204.115 218.514 206.573 220.281C209.687 222.521 211.742 225.841 212.358 229.627C212.975 233.413 212.082 237.215 209.841 240.325C207.15 244.067 202.788 246.3 198.176 246.3V246.292ZM198.065 229.888C196.963 229.912 196.07 230.816 196.07 231.927C196.07 233.037 196.959 233.942 198.065 233.966C199.113 233.907 199.954 233.049 199.99 231.994C200.01 231.449 199.816 230.927 199.441 230.528C199.077 230.141 198.591 229.912 198.065 229.884V229.888ZM101.761 227.485C100.663 227.505 99.7698 228.406 99.7698 229.508C99.7698 230.05 99.9793 230.556 100.363 230.939C100.738 231.314 101.232 231.524 101.761 231.532C102.824 231.488 103.674 230.627 103.702 229.56C103.714 229.018 103.516 228.505 103.144 228.113C102.781 227.73 102.291 227.509 101.761 227.485ZM149.236 220.024C149.291 221.091 150.156 221.937 151.231 221.96H151.279C152.357 221.96 153.262 221.099 153.318 220.024C153.262 218.957 152.397 218.111 151.322 218.087H151.275C150.196 218.087 149.291 218.949 149.236 220.024ZM171.538 164.981C171.59 167.226 173.38 169.004 175.632 169.036H175.692C177.936 169.036 179.789 167.222 179.841 164.981C179.789 162.737 177.999 160.958 175.747 160.927H175.688C173.443 160.927 171.59 162.741 171.538 164.981ZM119.982 164.278C119.595 164.278 119.279 164.594 119.279 164.981C119.279 165.369 119.595 165.685 119.982 165.685H152.203C152.587 165.685 152.907 165.365 152.907 164.973C152.907 164.586 152.595 164.278 152.215 164.278H119.982Z" fill="#343433"/>
<path d="M190.566 143.637C196.248 143.641 200.856 148.249 200.859 153.932C200.852 157.639 200.859 175.996 200.859 175.996C200.856 181.679 196.248 186.287 190.566 186.29H179.138C179.138 189.665 179.138 199.585 179.138 203.106L194.201 220.984C195.442 220.53 196.754 220.297 198.078 220.297H198.113C198.137 220.297 198.164 220.297 198.188 220.297C200.626 220.297 203.001 221.063 204.981 222.486C210.197 226.241 211.383 233.508 207.629 238.725C205.356 241.882 201.792 243.566 198.176 243.566C195.825 243.566 193.446 242.854 191.391 241.376C186.175 237.626 184.99 230.354 188.744 225.138L173.064 206.572C172.546 205.943 172.27 205.153 172.274 204.343V186.294H154.705C154.705 189.768 154.705 205.125 154.705 208.907C158.368 210.042 161.241 212.911 162.371 216.574C164.268 222.704 160.834 229.208 154.705 231.105C153.563 231.457 152.405 231.627 151.271 231.627C146.312 231.627 141.716 228.426 140.175 223.439C138.278 217.309 141.712 210.804 147.841 208.907V186.294H128.214V202.422C128.225 203.24 127.929 204.035 127.392 204.651L111.609 223.32C113.656 226.561 113.972 230.603 112.451 234.121C110.558 238.507 106.278 241.131 101.785 241.131C100.252 241.131 98.6874 240.823 97.1898 240.179C91.3019 237.638 88.5911 230.805 91.132 224.917C93.0248 220.53 97.3044 217.906 101.797 217.906C103.331 217.906 104.895 218.214 106.393 218.858L121.354 201.185C121.405 197.87 121.287 189.507 121.354 186.29H111.984C106.306 186.275 101.706 181.675 101.691 175.996C101.695 169.467 101.683 160.437 101.691 153.932C101.706 148.253 106.306 143.653 111.984 143.637H190.562M175.692 171.763C179.446 171.763 182.516 168.748 182.568 164.978C182.516 161.255 179.509 158.248 175.787 158.196C175.755 158.196 175.72 158.196 175.688 158.196C171.934 158.196 168.864 161.212 168.812 164.982C168.864 168.704 171.871 171.712 175.593 171.767C175.625 171.767 175.66 171.767 175.692 171.767M119.982 168.412H152.204C154.096 168.408 155.63 166.875 155.634 164.982C155.634 164.974 155.634 164.966 155.634 164.958C155.626 163.073 154.096 161.551 152.216 161.551H119.982C118.086 161.551 116.553 163.089 116.553 164.982C116.553 166.875 118.09 168.412 119.982 168.412ZM151.279 224.687C153.863 224.687 155.989 222.621 156.045 220.02C155.989 217.467 153.934 215.412 151.382 215.357C151.346 215.357 151.311 215.357 151.275 215.357C148.691 215.357 146.565 217.424 146.509 220.024C146.565 222.577 148.62 224.632 151.172 224.687C151.208 224.687 151.243 224.687 151.279 224.687ZM101.797 234.263C104.33 234.2 106.365 232.161 106.429 229.631C106.496 227.007 104.421 224.826 101.797 224.759C99.1735 224.759 97.0436 226.885 97.0436 229.513C97.0436 232.137 99.1695 234.267 101.797 234.267M198.113 236.701C200.618 236.614 202.63 234.603 202.717 232.097C202.808 229.465 200.749 227.252 198.113 227.161C195.481 227.161 193.344 229.295 193.344 231.931C193.344 234.567 195.481 236.701 198.113 236.701ZM190.57 138.18H111.988C103.323 138.203 96.2651 145.265 96.2374 153.916C96.2374 157.37 96.2374 161.524 96.2374 165.634C96.2374 169.289 96.2374 172.917 96.2374 175.992V176.012C96.2612 184.662 103.323 191.72 111.973 191.748H115.885C115.885 192.574 115.893 193.42 115.897 194.262C115.904 195.981 115.916 197.739 115.912 199.17L104.492 212.662C103.607 212.519 102.706 212.448 101.801 212.448C94.9808 212.448 88.8282 216.495 86.1254 222.755C84.3195 226.94 84.2523 231.58 85.9317 235.816C87.6151 240.053 90.8435 243.38 95.0283 245.19C97.1819 246.119 99.454 246.589 101.785 246.589C108.606 246.589 114.759 242.542 117.461 236.282C119.133 232.409 119.295 228.114 118.011 224.201L131.537 208.208C132.932 206.595 133.691 204.537 133.675 202.402V191.756H142.388V205.434C135.872 209.405 132.612 217.444 134.963 225.059C136.061 228.612 138.231 231.647 141.234 233.828C144.178 235.966 147.647 237.093 151.267 237.093C152.974 237.093 154.673 236.836 156.313 236.326C165.307 233.544 170.361 223.964 167.583 214.97C166.338 210.943 163.675 207.576 160.158 205.434C160.158 202.667 160.158 198.96 160.158 195.498V191.756H166.813V204.331C166.801 206.41 167.524 208.437 168.844 210.042L168.867 210.069L168.891 210.097L182.208 225.861C179.525 232.923 181.789 241.191 188.203 245.807C191.127 247.913 194.576 249.023 198.172 249.023C203.661 249.023 208.85 246.364 212.054 241.914C217.559 234.267 215.812 223.565 208.162 218.06C205.238 215.954 201.784 214.843 198.18 214.843H198.109H198.074C197.457 214.843 196.849 214.875 196.24 214.942L184.591 201.114C184.591 199.134 184.591 196.502 184.591 193.945C184.591 193.202 184.591 192.463 184.591 191.748H190.562C199.239 191.74 206.305 184.678 206.313 176C206.313 175.81 206.305 157.599 206.313 153.944V153.936V153.928C206.305 145.254 199.243 138.188 190.566 138.18H190.57ZM174.269 164.982C174.321 164.243 174.941 163.654 175.688 163.654H175.712C176.462 163.666 177.063 164.243 177.11 164.982C177.059 165.721 176.439 166.31 175.692 166.31H175.668C174.917 166.298 174.317 165.721 174.269 164.982Z" fill="white"/>
<path d="M281.724 296.664H18.201C8.14886 296.664 0 304.814 0 314.867V347.225C0 357.278 8.14886 365.428 18.201 365.428H281.724C291.776 365.428 299.925 357.278 299.925 347.225V314.867C299.925 304.814 291.776 296.664 281.724 296.664Z" fill="white"/>
<path d="M70.1605 319.581C72.1425 316.002 74.8953 313.194 78.4739 311.212C81.9974 309.23 86.0164 308.184 90.531 308.184C96.0365 308.184 100.771 309.615 104.68 312.533C108.589 315.452 111.232 319.416 112.553 324.426H100.111C99.1747 322.499 97.8533 321.013 96.2017 320.022C94.495 319.03 92.568 318.48 90.4209 318.48C86.9524 318.48 84.1446 319.691 81.9423 322.114C79.7952 324.536 78.6941 327.785 78.6941 331.804C78.6941 335.824 79.7952 339.072 81.9423 341.495C84.0895 343.918 86.8973 345.129 90.4209 345.129C92.568 345.129 94.495 344.633 96.2017 343.587C97.9084 342.596 99.2297 341.11 100.111 339.183H112.553C111.232 344.193 108.589 348.157 104.68 351.02C100.771 353.884 96.0365 355.37 90.531 355.37C86.0164 355.37 81.9974 354.379 78.4739 352.342C74.9503 350.36 72.1425 347.552 70.1605 343.973C68.1785 340.394 67.1875 336.319 67.1875 331.749C67.1875 327.179 68.1785 323.105 70.1605 319.471V319.581Z" fill="#343433"/>
<path d="M154.009 335.328C155.661 337.421 156.432 339.788 156.432 342.486C156.432 346.341 155.055 349.424 152.358 351.681C149.66 353.939 145.861 355.095 141.016 355.095H119.435V308.734H140.301C145.035 308.734 148.724 309.836 151.367 311.983C154.009 314.13 155.386 317.048 155.386 320.793C155.386 323.546 154.67 325.803 153.239 327.62C151.807 329.437 149.88 330.703 147.513 331.364C150.211 331.915 152.358 333.291 154.009 335.384V335.328ZM130.721 327.51H138.098C139.97 327.51 141.347 327.124 142.338 326.299C143.329 325.473 143.824 324.261 143.824 322.72C143.824 321.178 143.329 319.912 142.338 319.086C141.347 318.26 139.915 317.819 138.098 317.819H130.721V327.51ZM143.439 344.689C144.485 343.808 144.98 342.596 144.98 340.945C144.98 339.293 144.43 338.026 143.384 337.09C142.338 336.154 140.796 335.714 138.924 335.714H130.721V345.955H139.034C140.906 345.955 142.393 345.515 143.439 344.689Z" fill="#343433"/>
<path d="M193.154 308.734V317.764H174.27V327.565H188.419V336.375H174.27V355.15H162.983V308.734H193.154Z" fill="#343433"/>
<path d="M206.808 353.939C204.11 352.838 201.963 351.186 200.367 349.039C198.77 346.892 197.889 344.304 197.834 341.22H209.836C210.001 342.927 210.607 344.249 211.598 345.13C212.589 346.011 213.91 346.506 215.562 346.506C217.213 346.506 218.535 346.121 219.526 345.35C220.517 344.579 220.957 343.533 220.957 342.157C220.957 341 220.572 340.064 219.801 339.293C219.03 338.523 218.094 337.917 216.938 337.421C215.837 336.926 214.24 336.375 212.148 335.77C209.175 334.833 206.698 333.897 204.826 333.017C202.954 332.136 201.302 330.704 199.926 328.942C198.55 327.125 197.889 324.757 197.889 321.894C197.889 317.6 199.431 314.186 202.569 311.763C205.707 309.341 209.781 308.074 214.791 308.074C219.801 308.074 224.04 309.286 227.123 311.763C230.207 314.241 231.913 317.6 232.133 321.949H219.911C219.801 320.463 219.251 319.251 218.26 318.426C217.269 317.545 215.947 317.159 214.351 317.159C212.974 317.159 211.873 317.545 211.047 318.26C210.221 318.976 209.781 320.022 209.781 321.399C209.781 322.885 210.497 324.042 211.873 324.923C213.305 325.749 215.507 326.685 218.48 327.621C221.453 328.612 223.93 329.603 225.802 330.539C227.674 331.475 229.271 332.796 230.647 334.558C232.023 336.32 232.684 338.578 232.684 341.386C232.684 344.194 232.023 346.451 230.647 348.599C229.326 350.746 227.344 352.453 224.811 353.774C222.279 355.041 219.251 355.701 215.782 355.701C212.314 355.701 209.341 355.151 206.643 354.05L206.808 353.939Z" fill="#343433"/>
</g>
<defs>
<clipPath id="clip0_902_1982">
<rect width="300" height="366" fill="white"/>
</clipPath>
</defs>
</svg>
