<svg width="982" height="178" viewBox="0 0 982 178" fill="none" xmlns="http://www.w3.org/2000/svg">
<path d="M206.955 61.2979C211.426 53.2062 217.651 46.9016 225.647 42.3841C233.644 37.8666 242.717 35.5996 252.85 35.5996C265.267 35.5996 275.896 38.876 284.737 45.4289C293.578 51.9817 299.489 60.9174 302.469 72.2359H274.456C272.37 67.8673 269.406 64.5413 265.598 62.2577C261.774 59.9741 257.419 58.8324 252.552 58.8324C244.704 58.8324 238.346 61.5627 233.479 67.0234C228.611 72.4841 226.177 79.7816 226.177 88.9158C226.177 98.05 228.611 105.348 233.479 110.808C238.346 116.269 244.704 118.999 252.552 118.999C257.419 118.999 261.757 117.857 265.598 115.574C269.423 113.29 272.37 109.964 274.456 105.596H302.469C299.489 116.914 293.578 125.833 284.737 132.337C275.896 138.84 265.267 142.1 252.85 142.1C242.717 142.1 233.644 139.849 225.647 135.315C217.651 130.798 211.426 124.526 206.955 116.484C202.485 108.425 200.25 99.2415 200.25 88.9158C200.25 78.5901 202.485 69.3897 206.955 61.2979Z" fill="#1D3366"/>
<path d="M370.993 122.87H331.953L325.695 141.337H299.022L336.87 36.79H366.374L404.222 141.337H377.251L370.993 122.87ZM364.437 103.212L351.473 64.9374L338.658 103.212H364.437Z" fill="#1D3366"/>
<path d="M405.844 61.298C410.314 53.2063 416.539 46.9016 424.536 42.3842C432.533 37.8667 441.606 35.6162 451.738 35.6162C464.156 35.6162 474.785 38.8926 483.626 45.4455C492.467 51.9983 498.378 60.934 501.358 72.2525H473.344C471.258 67.8839 468.295 64.5579 464.487 62.2743C460.662 59.9907 456.308 58.849 451.44 58.849C443.593 58.849 437.235 61.5793 432.367 67.04C427.5 72.5007 425.066 79.7982 425.066 88.9324C425.066 98.0667 427.5 105.364 432.367 110.825C437.235 116.285 443.593 119.016 451.44 119.016C456.308 119.016 460.646 117.874 464.487 115.59C468.311 113.307 471.258 109.981 473.344 105.612H501.358C498.378 116.931 492.467 125.85 483.626 132.353C474.785 138.856 464.156 142.116 451.738 142.116C441.606 142.116 432.533 139.866 424.536 135.332C416.539 130.814 410.314 124.543 405.844 116.501C401.374 108.459 399.139 99.2746 399.139 88.9489C399.139 78.6233 401.374 69.4228 405.844 61.3311V61.298Z" fill="#1D3366"/>
<path d="M601.479 36.79V141.337H575.999V98.2973H536.363V141.337H510.883V36.79H536.363V77.7452H575.999V36.79H601.479Z" fill="#1D3366"/>
<path d="M645.288 57.1932V78.3409H679.411V97.9994H645.288V120.934H683.881V141.337H619.808V36.79H683.881V57.1932H645.288Z" fill="#1D3366"/>
<path d="M772.742 97.0589C776.418 101.775 778.256 107.17 778.256 113.227C778.256 121.964 775.193 128.898 769.083 134.012C762.973 139.125 754.446 141.674 743.518 141.674H694.79V37.1201H741.879C752.509 37.1201 760.821 39.5527 766.848 44.418C772.858 49.2833 775.855 55.8861 775.855 64.2266C775.855 70.3827 774.232 75.4961 771.02 79.5671C767.791 83.638 763.487 86.4678 758.122 88.0565C764.182 89.3473 769.05 92.3591 772.726 97.0589H772.742ZM720.288 79.4181H736.978C741.151 79.4181 744.363 78.508 746.598 76.6545C748.833 74.8177 749.943 72.1202 749.943 68.5458C749.943 64.9713 748.833 62.2408 746.598 60.3542C744.363 58.4677 741.151 57.5244 736.978 57.5244H720.288V79.4181ZM748.966 118.224C751.3 116.288 752.476 113.492 752.476 109.818C752.476 106.144 751.251 103.265 748.817 101.179C746.383 99.0943 743.022 98.0518 738.75 98.0518H720.272V121.137H739.048C743.32 121.137 746.615 120.177 748.949 118.241L748.966 118.224Z" fill="#1D3366"/>
<path d="M951.695 141.674L930.385 109.652L911.609 141.674H882.7L916.229 88.5033L881.955 37.1201H911.609L932.621 68.6947L951.099 37.1201H980.008L946.777 89.8437L981.349 141.674H951.695Z" fill="#1D3366"/>
<path d="M846.882 136.032C821.652 136.032 801.202 115.654 801.202 90.516C801.202 65.3776 821.652 45.0005 846.882 45.0005C859.606 45.0005 871.108 50.1867 879.391 58.5541C869.849 45.5652 854.437 37.1201 837.039 37.1201C808.06 37.1201 784.567 60.5229 784.567 89.3969C784.567 118.271 808.06 141.674 837.033 141.674C850.106 141.674 862.055 136.897 871.248 129.011C864.192 133.457 855.841 136.037 846.882 136.037" fill="#1D3366"/>
<path d="M862.585 52.3174C873.567 58.7263 880.951 70.6013 880.951 84.1964C880.951 104.589 864.358 121.117 843.897 121.122C824.856 121.122 809.178 106.812 807.088 88.3982C807.051 89.1235 807.025 89.8489 807.025 90.5794C807.025 113.169 825.407 131.479 848.073 131.479C870.739 131.479 889.12 113.164 889.12 90.5794C889.12 73.083 878.091 58.1616 862.585 52.3174Z" fill="#1D3366"/>
<path d="M842.796 55.1465C829.022 55.1465 817.39 64.2755 813.651 76.7929C817.827 67.5085 827.181 61.0425 838.054 61.0425C852.821 61.0425 864.791 72.9693 864.791 87.6835C864.791 102.398 852.821 114.324 838.054 114.324C835.641 114.324 833.301 113.998 831.076 113.402C834.679 114.905 838.642 115.734 842.796 115.739C859.592 115.739 873.2 102.17 873.2 85.4401C873.2 68.7053 859.586 55.1465 842.796 55.1465Z" fill="#1D3366"/>
<g clip-path="url(#clip0_677_3859)">
<g opacity="0.95">
<path fill-rule="evenodd" clip-rule="evenodd" d="M89 49.8789C128.323 49.8789 160.199 71.2085 160.199 88.9985C160.199 106.789 128.323 128.118 89 128.118C138.153 128.118 178 110.602 178 88.9985C178 67.3948 138.153 49.8789 89 49.8789ZM17.8007 89.002C17.8007 71.2119 49.6775 49.8823 89 49.8823C39.8468 49.8823 0 67.3983 0 89.002C0 110.606 39.8468 128.122 89 128.122C49.6775 128.122 17.8007 106.789 17.8007 89.002Z" fill="#1D3366"/>
<path fill-rule="evenodd" clip-rule="evenodd" d="M89.0003 17.8003C106.791 17.8003 128.121 49.6765 128.121 88.9983C128.121 39.846 110.608 0 89.0003 0C67.3927 0 49.8799 39.846 49.8799 88.9983C49.8799 49.6765 71.2099 17.8003 89.0003 17.8003ZM89.0003 160.2C71.2099 160.2 49.8799 128.324 49.8799 89.0017C49.8799 138.154 67.3927 178 89.0003 178C110.608 178 128.121 138.154 128.121 89.0017C128.121 128.324 106.791 160.2 89.0003 160.2Z" fill="#1D3366"/>
<path fill-rule="evenodd" clip-rule="evenodd" d="M45.3497 89.0021C45.3497 78.1883 64.7232 65.2261 88.6265 65.2261C58.7508 65.2261 34.5322 75.872 34.5322 89.0021C34.5322 102.132 58.7508 112.778 88.6265 112.778C64.7266 112.778 45.3497 99.8125 45.3497 89.0021ZM88.6265 65.2227C112.526 65.2227 131.9 78.1883 131.9 88.9987C131.9 99.8091 112.526 112.775 88.6265 112.775C118.502 112.775 142.721 102.129 142.721 88.9987C142.721 75.8686 118.502 65.2227 88.6265 65.2227Z" fill="#1D3366"/>
<path fill-rule="evenodd" clip-rule="evenodd" d="M88.6261 45.726C99.4367 45.726 112.403 65.099 112.403 88.9984C112.403 59.1233 101.756 34.9053 88.6261 34.9053C75.4958 34.9053 64.8496 59.1233 64.8496 88.9984C64.8496 65.099 77.8155 45.726 88.6261 45.726ZM88.6261 132.274C77.8121 132.274 64.8496 112.901 64.8496 88.9984C64.8496 118.874 75.4958 143.092 88.6261 143.092C101.756 143.092 112.403 118.874 112.403 88.9984C112.403 112.898 99.4367 132.274 88.6261 132.274Z" fill="#1D3366"/>
<path fill-rule="evenodd" clip-rule="evenodd" d="M87.9747 92.9563C87.9747 91.6679 87.0667 90.0746 85.9599 89.4133L76.2287 83.6364C75.1185 82.9785 74.2139 83.4959 74.2139 84.7842V95.9852C74.2139 97.2736 75.1287 98.8566 76.2458 99.5008L85.9496 105.103C87.0667 105.747 87.9816 105.219 87.9816 103.931V92.9528L87.9747 92.9563Z" fill="#1D3366"/>
<path fill-rule="evenodd" clip-rule="evenodd" d="M87.0841 87.4639C88.1942 88.1217 90.0069 88.1217 91.1171 87.4639L100.835 81.6835C101.941 81.0256 101.935 79.9566 100.817 79.3124L91.1308 73.7204C90.0137 73.0763 88.1874 73.0763 87.0704 73.7204L77.3665 79.3227C76.2495 79.9668 76.2426 81.0325 77.3528 81.6903L87.0841 87.4673V87.4639Z" fill="#1D3366"/>
<path fill-rule="evenodd" clip-rule="evenodd" d="M92.2453 89.4141C91.1385 90.072 90.2305 91.6687 90.2305 92.9571V103.932C90.2305 105.22 91.1454 105.748 92.2624 105.104L101.963 99.505C103.08 98.8608 103.995 97.2778 103.995 95.9895V84.7713C103.995 83.4829 103.087 82.9656 101.98 83.6269L92.2487 89.4175H92.2453V89.4141Z" fill="#1D3366"/>
</g>
</g>
<defs>
<clipPath id="clip0_677_3859">
<rect width="178" height="178" fill="white"/>
</clipPath>
</defs>
</svg>
