<svg width="75" height="75" viewBox="0 0 75 75" fill="none" xmlns="http://www.w3.org/2000/svg">
<g clip-path="url(#clip0_677_4215)">
<g opacity="0.95">
<path fill-rule="evenodd" clip-rule="evenodd" d="M37.5 21.0166C54.0685 21.0166 67.4997 30.0038 67.4997 37.4996C67.4997 44.9954 54.0685 53.9826 37.5 53.9826C58.2106 53.9826 75 46.6023 75 37.4996C75 28.3969 58.2106 21.0166 37.5 21.0166ZM7.50029 37.501C7.50029 30.0052 20.9315 21.018 37.5 21.018C16.7894 21.018 0 28.3984 0 37.501C0 46.6037 16.7894 53.984 37.5 53.984C20.9315 53.984 7.50029 44.9954 7.50029 37.501Z" fill="white"/>
<path fill-rule="evenodd" clip-rule="evenodd" d="M37.4999 7.50014C44.9959 7.50014 53.9832 20.9311 53.9832 37.4993C53.9832 16.7891 46.6042 0 37.4999 0C28.3956 0 21.0166 16.7891 21.0166 37.4993C21.0166 20.9311 30.004 7.50014 37.4999 7.50014ZM37.4999 67.4999C30.004 67.4999 21.0166 54.0689 21.0166 37.5007C21.0166 58.2109 28.3956 75 37.4999 75C46.6042 75 53.9832 58.2109 53.9832 37.5007C53.9832 54.0689 44.9959 67.4999 37.4999 67.4999Z" fill="white"/>
<path fill-rule="evenodd" clip-rule="evenodd" d="M19.108 37.5009C19.108 32.9445 27.2709 27.4829 37.3426 27.4829C24.7545 27.4829 14.55 31.9685 14.55 37.5009C14.55 43.0332 24.7545 47.5189 37.3426 47.5189C27.2724 47.5189 19.108 42.0558 19.108 37.5009ZM37.3426 27.4814C47.4127 27.4814 55.5757 32.9445 55.5757 37.4994C55.5757 42.0544 47.4127 47.5174 37.3426 47.5174C49.9306 47.5174 60.1351 43.0318 60.1351 37.4994C60.1351 31.9671 49.9306 27.4814 37.3426 27.4814Z" fill="white"/>
<path fill-rule="evenodd" clip-rule="evenodd" d="M37.3427 19.2663C41.8977 19.2663 47.3609 27.4291 47.3609 37.4991C47.3609 24.9113 42.8751 14.707 37.3427 14.707C31.8102 14.707 27.3245 24.9113 27.3245 37.4991C27.3245 27.4291 32.7876 19.2663 37.3427 19.2663ZM37.3427 55.7333C32.7862 55.7333 27.3245 47.5705 27.3245 37.4991C27.3245 50.0869 31.8102 60.2912 37.3427 60.2912C42.8751 60.2912 47.3609 50.0869 47.3609 37.4991C47.3609 47.5691 41.8977 55.7333 37.3427 55.7333Z" fill="white"/>
<path fill-rule="evenodd" clip-rule="evenodd" d="M37.0681 39.1675C37.0681 38.6246 36.6855 37.9533 36.2192 37.6746L32.1189 35.2405C31.6512 34.9633 31.27 35.1813 31.27 35.7242V40.4437C31.27 40.9865 31.6555 41.6535 32.1262 41.925L36.2149 44.2855C36.6855 44.5569 37.071 44.3345 37.071 43.7917V39.166L37.0681 39.1675Z" fill="white"/>
<path fill-rule="evenodd" clip-rule="evenodd" d="M36.6927 36.8527C37.1605 37.1299 37.9242 37.1299 38.392 36.8527L42.4865 34.4172C42.9528 34.14 42.9499 33.6895 42.4793 33.4181L38.3978 31.062C37.9271 30.7905 37.1576 30.7905 36.6869 31.062L32.5982 33.4225C32.1276 33.6939 32.1247 34.1429 32.5924 34.4201L36.6927 36.8542V36.8527Z" fill="white"/>
<path fill-rule="evenodd" clip-rule="evenodd" d="M38.8675 37.6741C38.4011 37.9513 38.0186 38.624 38.0186 39.1669V43.7911C38.0186 44.334 38.404 44.5563 38.8747 44.2849L42.962 41.9258C43.4326 41.6544 43.8181 40.9874 43.8181 40.4446V35.7178C43.8181 35.175 43.4355 34.957 42.9692 35.2356L38.8689 37.6755H38.8675V37.6741Z" fill="white"/>
</g>
</g>
<defs>
<clipPath id="clip0_677_4215">
<rect width="75" height="75" fill="white"/>
</clipPath>
</defs>
</svg>
