<svg width="552" height="100" viewBox="0 0 552 100" fill="none" xmlns="http://www.w3.org/2000/svg">
<path d="M116.267 34.4373C118.779 29.8913 122.276 26.3494 126.768 23.8115C131.261 21.2736 136.358 20 142.05 20C149.026 20 154.998 21.8407 159.965 25.522C164.932 29.2034 168.252 34.2235 169.927 40.5822H154.189C153.017 38.1279 151.352 36.2594 149.213 34.9765C147.064 33.6936 144.618 33.0521 141.883 33.0521C137.474 33.0521 133.902 34.586 131.168 37.6538C128.433 40.7216 127.066 44.8213 127.066 49.9529C127.066 55.0845 128.433 59.1842 131.168 62.252C133.902 65.3198 137.474 66.8537 141.883 66.8537C144.618 66.8537 147.055 66.2123 149.213 64.9294C151.361 63.6465 153.017 61.7779 154.189 59.3237H169.927C168.252 65.6824 164.932 70.6931 159.965 74.3466C154.998 78.0001 149.026 79.8315 142.05 79.8315C136.358 79.8315 131.261 78.5672 126.768 76.02C122.276 73.482 118.779 69.9587 116.267 65.4407C113.756 60.9133 112.5 55.7539 112.5 49.9529C112.5 44.152 113.756 38.9832 116.267 34.4373Z" fill="#1D3366"/>
<path d="M208.423 69.0287H186.49L182.975 79.4034H167.99L189.253 20.6689H205.828L227.091 79.4034H211.939L208.423 69.0287ZM204.74 57.9846L197.457 36.4821L190.258 57.9846H204.74Z" fill="#1D3366"/>
<path d="M228.002 34.4373C230.514 29.8913 234.011 26.3494 238.504 23.8115C242.996 21.2736 248.093 20.0093 253.786 20.0093C260.762 20.0093 266.733 21.85 271.7 25.5313C276.667 29.2127 279.988 34.2327 281.662 40.5914H265.924C264.752 38.1372 263.087 36.2686 260.948 34.9857C258.799 33.7028 256.353 33.0614 253.618 33.0614C249.209 33.0614 245.638 34.5953 242.903 37.6631C240.169 40.7309 238.801 44.8306 238.801 49.9622C238.801 55.0938 240.169 59.1935 242.903 62.2613C245.638 65.3291 249.209 66.863 253.618 66.863C256.353 66.863 258.79 66.2216 260.948 64.9387C263.096 63.6558 264.752 61.7872 265.924 59.3329H281.662C279.988 65.6917 276.667 70.7024 271.7 74.3559C266.733 78.0094 260.762 79.8407 253.786 79.8407C248.093 79.8407 242.996 78.5764 238.504 76.0292C234.011 73.4913 230.514 69.968 228.002 65.45C225.491 60.9319 224.235 55.7724 224.235 49.9715C224.235 44.1706 225.491 39.0018 228.002 34.4558V34.4373Z" fill="#1D3366"/>
<path d="M337.91 20.6689V79.4034H323.595V55.2236H301.327V79.4034H287.013V20.6689H301.327V43.6775H323.595V20.6689H337.91Z" fill="#1D3366"/>
<path d="M362.521 32.1314V44.0121H381.691V55.0562H362.521V67.941H384.203V79.4034H348.207V20.6689H384.203V32.1314H362.521Z" fill="#1D3366"/>
<path d="M434.125 54.528C436.19 57.1776 437.222 60.2084 437.222 63.611C437.222 68.5198 435.501 72.4152 432.069 75.288C428.637 78.1607 423.846 79.5925 417.707 79.5925H390.332V20.8545H416.786C422.758 20.8545 427.427 22.2211 430.813 24.9544C434.19 27.6877 435.874 31.3972 435.874 36.0829C435.874 39.5413 434.962 42.4141 433.157 44.7011C431.344 46.9881 428.925 48.5779 425.911 49.4704C429.316 50.1956 432.051 51.8876 434.116 54.528H434.125ZM404.656 44.6174H414.033C416.377 44.6174 418.181 44.1061 419.437 43.0648C420.693 42.0329 421.316 40.5175 421.316 38.5094C421.316 36.5012 420.693 34.9672 419.437 33.9074C418.181 32.8475 416.377 32.3176 414.033 32.3176H404.656V44.6174ZM420.767 66.4187C422.079 65.331 422.739 63.7598 422.739 61.6959C422.739 59.632 422.051 58.0143 420.684 56.8429C419.316 55.6715 417.428 55.0858 415.028 55.0858H404.647V68.055H415.195C417.595 68.055 419.446 67.5158 420.758 66.428L420.767 66.4187Z" fill="#1D3366"/>
<path d="M534.66 79.5925L522.688 61.6029L512.14 79.5925H495.899L514.735 49.7214L495.48 20.8545H512.14L523.944 38.593L534.325 20.8545H550.566L531.897 50.4745L551.32 79.5925H534.66Z" fill="#1D3366"/>
<path d="M475.777 76.4227C461.603 76.4227 450.114 64.9749 450.114 50.8522C450.114 36.7295 461.603 25.2817 475.777 25.2817C482.925 25.2817 489.387 28.1953 494.04 32.8961C488.68 25.5989 480.021 20.8545 470.247 20.8545C453.967 20.8545 440.769 34.0021 440.769 50.2235C440.769 66.4448 453.967 79.5925 470.244 79.5925C477.588 79.5925 484.301 76.9088 489.466 72.4787C485.501 74.9761 480.81 76.4256 475.777 76.4256" fill="#1D3366"/>
<path d="M484.599 29.3921C490.768 32.9926 494.916 39.664 494.916 47.3016C494.916 58.7582 485.595 68.0433 474.1 68.0462C463.402 68.0462 454.595 60.0068 453.42 49.6622C453.4 50.0697 453.385 50.4772 453.385 50.8876C453.385 63.5783 463.712 73.8647 476.446 73.8647C489.179 73.8647 499.506 63.5754 499.506 50.8876C499.506 41.0582 493.31 32.6754 484.599 29.3921Z" fill="#1D3366"/>
<path d="M473.482 30.9814C465.743 30.9814 459.209 36.1101 457.108 43.1424C459.454 37.9264 464.709 34.2938 470.818 34.2938C479.114 34.2938 485.839 40.9943 485.839 49.2607C485.839 57.5271 479.114 64.2275 470.818 64.2275C469.462 64.2275 468.148 64.0441 466.897 63.7094C468.922 64.5535 471.148 65.0192 473.482 65.0221C482.917 65.0221 490.562 57.399 490.562 48.0003C490.562 38.5988 482.914 30.9814 473.482 30.9814Z" fill="#1D3366"/>
<g clip-path="url(#clip0_677_3886)">
<g opacity="0.95">
<path fill-rule="evenodd" clip-rule="evenodd" d="M50 28.0215C72.0913 28.0215 89.9996 40.0044 89.9996 49.9988C89.9996 59.9932 72.0913 71.9761 50 71.9761C77.6142 71.9761 100 62.1357 100 49.9988C100 37.8619 77.6142 28.0215 50 28.0215ZM10.0004 50.0007C10.0004 40.0063 27.9087 28.0234 50 28.0234C22.3859 28.0234 0 37.8638 0 50.0007C0 62.1376 22.3859 71.9781 50 71.9781C27.9087 71.9781 10.0004 59.9932 10.0004 50.0007Z" fill="#1D3366"/>
<path fill-rule="evenodd" clip-rule="evenodd" d="M50 10.0002C59.9946 10.0002 71.9777 27.9081 71.9777 49.999C71.9777 22.3854 62.139 0 50 0C37.8609 0 28.0222 22.3854 28.0222 49.999C28.0222 27.9081 40.0054 10.0002 50 10.0002ZM50 89.9998C40.0054 89.9998 28.0222 72.0919 28.0222 50.001C28.0222 77.6146 37.8609 100 50 100C62.139 100 71.9777 77.6146 71.9777 50.001C71.9777 72.0919 59.9946 89.9998 50 89.9998Z" fill="#1D3366"/>
<path fill-rule="evenodd" clip-rule="evenodd" d="M25.4774 50.0009C25.4774 43.9257 36.3613 36.6435 49.7902 36.6435C33.0061 36.6435 19.4001 42.6244 19.4001 50.0009C19.4001 57.3773 33.0061 63.3582 49.7902 63.3582C36.3633 63.3582 25.4774 56.0741 25.4774 50.0009ZM49.7902 36.6416C63.2171 36.6416 74.101 43.9257 74.101 49.9989C74.101 56.0722 63.2171 63.3563 49.7902 63.3563C66.5743 63.3563 80.1802 57.3754 80.1802 49.9989C80.1802 42.6225 66.5743 36.6416 49.7902 36.6416Z" fill="#1D3366"/>
<path fill-rule="evenodd" clip-rule="evenodd" d="M49.7902 25.6884C55.8636 25.6884 63.1478 36.5722 63.1478 49.9988C63.1478 33.215 57.1668 19.6094 49.7902 19.6094C42.4136 19.6094 36.4326 33.215 36.4326 49.9988C36.4326 36.5722 43.7168 25.6884 49.7902 25.6884ZM49.7902 74.3111C43.7149 74.3111 36.4326 63.4274 36.4326 49.9988C36.4326 66.7826 42.4136 80.3882 49.7902 80.3882C57.1668 80.3882 63.1478 66.7826 63.1478 49.9988C63.1478 63.4254 55.8636 74.3111 49.7902 74.3111Z" fill="#1D3366"/>
<path fill-rule="evenodd" clip-rule="evenodd" d="M49.4242 52.2226C49.4242 51.4988 48.914 50.6037 48.2923 50.2322L42.8253 46.9867C42.2016 46.6171 41.6934 46.9078 41.6934 47.6316V53.9243C41.6934 54.6481 42.2073 55.5374 42.8349 55.8993L48.2865 59.0466C48.914 59.4085 49.428 59.1121 49.428 58.3883V52.2207L49.4242 52.2226Z" fill="#1D3366"/>
<path fill-rule="evenodd" clip-rule="evenodd" d="M48.9236 49.137C49.5473 49.5066 50.5656 49.5066 51.1893 49.137L56.6486 45.8896C57.2704 45.52 57.2666 44.9194 56.639 44.5575L51.197 41.416C50.5695 41.0541 49.5434 41.0541 48.9159 41.416L43.4643 44.5633C42.8367 44.9252 42.8329 45.5238 43.4566 45.8934L48.9236 49.1389V49.137Z" fill="#1D3366"/>
<path fill-rule="evenodd" clip-rule="evenodd" d="M51.8233 50.2324C51.2015 50.602 50.6914 51.499 50.6914 52.2228V58.3885C50.6914 59.1123 51.2054 59.4087 51.8329 59.0468L57.2826 55.9014C57.9102 55.5395 58.4241 54.6502 58.4241 53.9264V47.6241C58.4241 46.9003 57.914 46.6096 57.2922 46.9811L51.8252 50.2343H51.8233V50.2324Z" fill="#1D3366"/>
</g>
</g>
<defs>
<clipPath id="clip0_677_3886">
<rect width="100" height="100" fill="white"/>
</clipPath>
</defs>
</svg>
