<svg width="518" height="600" viewBox="0 0 518 600" fill="none" xmlns="http://www.w3.org/2000/svg">
<path d="M4.44362 546.44C7.40603 541.078 11.5315 536.9 16.8309 533.906C22.1303 530.912 28.1429 529.41 34.8577 529.41C43.0866 529.41 50.1306 531.581 55.9896 535.924C61.8486 540.266 65.7656 546.188 67.7405 553.689H49.176C47.7936 550.794 45.8296 548.59 43.3061 547.076C40.7716 545.563 37.886 544.806 34.6602 544.806C29.4595 544.806 25.2463 546.616 22.0206 550.235C18.7949 553.853 17.182 558.689 17.182 564.743C17.182 570.796 18.7949 575.632 22.0206 579.251C25.2463 582.869 29.4595 584.679 34.6602 584.679C37.886 584.679 40.7606 583.922 43.3061 582.409C45.8406 580.895 47.7936 578.691 49.176 575.796H67.7405C65.7656 583.297 61.8486 589.208 55.9896 593.517C50.1306 597.827 43.0866 599.987 34.8577 599.987C28.1429 599.987 22.1303 598.496 16.8309 595.491C11.5315 592.498 7.40603 588.341 4.44362 583.012C1.48121 577.671 0 571.585 0 564.743C0 557.9 1.48121 551.803 4.44362 546.44Z" fill="white"/>
<path d="M113.153 587.242H87.2811L83.1337 599.48H65.458L90.5398 530.197H110.092L135.173 599.48H117.3L113.153 587.242ZM108.808 574.215L100.217 548.85L91.7247 574.215H108.808Z" fill="white"/>
<path d="M136.246 546.442C139.209 541.08 143.334 536.902 148.634 533.908C153.933 530.914 159.946 529.423 166.66 529.423C174.889 529.423 181.933 531.594 187.792 535.937C193.651 540.279 197.568 546.201 199.543 553.702H180.979C179.596 550.807 177.632 548.602 175.109 547.089C172.574 545.576 169.689 544.819 166.463 544.819C161.262 544.819 157.049 546.628 153.823 550.247C150.598 553.866 148.985 558.702 148.985 564.755C148.985 570.809 150.598 575.645 153.823 579.263C157.049 582.882 161.262 584.691 166.463 584.691C169.689 584.691 172.563 583.935 175.109 582.421C177.643 580.908 179.596 578.704 180.979 575.809H199.543C197.568 583.31 193.651 589.22 187.792 593.53C181.933 597.84 174.889 600 166.66 600C159.946 600 153.933 598.509 148.634 595.504C143.334 592.51 139.209 588.354 136.246 583.025C133.284 577.695 131.803 571.609 131.803 564.766C131.803 557.923 133.284 551.826 136.246 546.464V546.442Z" fill="white"/>
<path d="M265.896 530.197V599.48H249.01V570.958H222.743V599.48H205.857V530.197H222.743V557.338H249.01V530.197H265.896Z" fill="white"/>
<path d="M294.927 543.718V557.733H317.54V570.76H294.927V585.959H320.502V599.48H278.041V530.197H320.502V543.718H294.927Z" fill="white"/>
<path d="M379.391 570.14C381.827 573.266 383.045 576.841 383.045 580.855C383.045 586.645 381.015 591.24 376.966 594.629C372.917 598.017 367.266 599.706 360.025 599.706H327.732V530.419H358.938C365.983 530.419 371.491 532.031 375.485 535.255C379.468 538.479 381.454 542.855 381.454 548.382C381.454 552.462 380.379 555.851 378.25 558.548C376.11 561.246 373.258 563.121 369.702 564.174C373.718 565.03 376.944 567.026 379.38 570.14H379.391ZM344.63 558.45H355.69C358.456 558.45 360.584 557.847 362.065 556.618C363.547 555.401 364.282 553.613 364.282 551.245C364.282 548.876 363.547 547.066 362.065 545.816C360.584 544.566 358.456 543.941 355.69 543.941H344.63V558.45ZM363.635 584.166C365.182 582.883 365.961 581.03 365.961 578.595C365.961 576.161 365.149 574.253 363.536 572.871C361.923 571.489 359.695 570.798 356.865 570.798H344.619V586.097H357.062C359.893 586.097 362.076 585.461 363.624 584.177L363.635 584.166Z" fill="white"/>
<path d="M497.98 599.706L483.858 578.486L471.416 599.706H452.257L474.477 564.47L451.764 530.419H471.416L485.34 551.343L497.585 530.419H516.743L494.721 565.359L517.632 599.706H497.98Z" fill="white"/>
<path d="M428.526 595.967C411.807 595.967 398.254 582.463 398.254 565.804C398.254 549.145 411.807 535.641 428.526 535.641C436.958 535.641 444.581 539.078 450.07 544.623C443.747 536.015 433.533 530.419 422.003 530.419C402.799 530.419 387.23 545.928 387.23 565.063C387.23 584.197 402.799 599.706 422 599.706C430.663 599.706 438.581 596.541 444.674 591.315C439.998 594.261 434.463 595.971 428.526 595.971" fill="white"/>
<path d="M438.933 540.488C446.211 544.735 451.104 552.605 451.104 561.614C451.104 575.128 440.108 586.081 426.548 586.085C413.929 586.085 403.54 576.601 402.155 564.399C402.131 564.88 402.113 565.36 402.113 565.844C402.113 580.814 414.295 592.948 429.315 592.948C444.336 592.948 456.517 580.811 456.517 565.844C456.517 554.25 449.208 544.361 438.933 540.488Z" fill="white"/>
<path d="M425.818 542.363C416.69 542.363 408.982 548.413 406.504 556.708C409.271 550.556 415.47 546.271 422.676 546.271C432.462 546.271 440.394 554.174 440.394 563.925C440.394 573.676 432.462 581.58 422.676 581.58C421.077 581.58 419.526 581.364 418.051 580.969C420.439 581.965 423.065 582.514 425.818 582.518C436.948 582.518 445.966 573.525 445.966 562.439C445.966 551.349 436.945 542.363 425.818 542.363Z" fill="white"/>
<g clip-path="url(#clip0_1162_4947)">
<g opacity="0.95">
<path fill-rule="evenodd" clip-rule="evenodd" d="M258.826 137.361C367.117 137.361 454.904 196.101 454.904 245.093C454.904 294.085 367.117 352.825 258.826 352.825C394.19 352.825 503.925 304.588 503.925 245.093C503.925 185.599 394.19 137.361 258.826 137.361ZM62.7492 245.103C62.7492 196.11 150.535 137.371 258.826 137.371C123.462 137.371 13.7275 185.608 13.7275 245.103C13.7275 304.597 123.462 352.834 258.826 352.834C150.535 352.834 62.7492 294.085 62.7492 245.103Z" fill="#0D87C5"/>
<path fill-rule="evenodd" clip-rule="evenodd" d="M258.826 49.0205C307.82 49.0205 366.561 136.804 366.561 245.093C366.561 109.732 318.332 0 258.826 0C199.321 0 151.092 109.732 151.092 245.093C151.092 136.804 209.833 49.0205 258.826 49.0205ZM258.826 441.175C209.833 441.175 151.092 353.391 151.092 245.102C151.092 380.463 199.321 490.195 258.826 490.195C318.332 490.195 366.561 380.463 366.561 245.102C366.561 353.391 307.82 441.175 258.826 441.175Z" fill="#33CFFF"/>
<path fill-rule="evenodd" clip-rule="evenodd" d="M138.618 245.103C138.618 215.322 191.971 179.626 257.798 179.626C175.523 179.626 108.827 208.944 108.827 245.103C108.827 281.262 175.523 310.58 257.798 310.58C191.98 310.58 138.618 274.874 138.618 245.103ZM257.798 179.616C323.617 179.616 376.97 215.322 376.97 245.093C376.97 274.864 323.617 310.57 257.798 310.57C340.074 310.57 406.769 281.252 406.769 245.093C406.769 208.934 340.074 179.616 257.798 179.616Z" fill="#0D87C5"/>
<path fill-rule="evenodd" clip-rule="evenodd" d="M257.799 125.924C287.571 125.924 323.279 179.276 323.279 245.093C323.279 162.819 293.96 96.125 257.799 96.125C221.639 96.125 192.319 162.819 192.319 245.093C192.319 179.276 228.027 125.924 257.799 125.924ZM257.799 364.27C228.018 364.27 192.319 310.919 192.319 245.093C192.319 327.366 221.639 394.06 257.799 394.06C293.96 394.06 323.279 327.366 323.279 245.093C323.279 310.909 287.571 364.27 257.799 364.27Z" fill="#33CFFF"/>
<path fill-rule="evenodd" clip-rule="evenodd" d="M256.004 255.992C256.004 252.444 253.504 248.056 250.456 246.235L223.656 230.326C220.599 228.514 218.107 229.939 218.107 233.487V264.334C218.107 267.882 220.627 272.241 223.703 274.015L250.427 289.443C253.504 291.217 256.023 289.764 256.023 286.216V255.983L256.004 255.992Z" fill="url(#paint0_linear_1162_4947)"/>
<path fill-rule="evenodd" clip-rule="evenodd" d="M253.551 240.867C256.608 242.679 261.6 242.679 264.657 240.867L291.419 224.948C294.467 223.137 294.448 220.193 291.372 218.419L264.695 203.019C261.619 201.245 256.589 201.245 253.513 203.019L226.789 218.447C223.712 220.221 223.694 223.156 226.751 224.967L253.551 240.877V240.867Z" fill="url(#paint1_linear_1162_4947)"/>
<path fill-rule="evenodd" clip-rule="evenodd" d="M267.764 246.237C264.716 248.048 262.216 252.445 262.216 255.993V286.217C262.216 289.765 264.735 291.218 267.812 289.444L294.526 274.026C297.603 272.252 300.122 267.892 300.122 264.344V233.451C300.122 229.903 297.622 228.478 294.574 230.299L267.774 246.246H267.764V246.237Z" fill="url(#paint2_linear_1162_4947)"/>
</g>
</g>
<defs>
<linearGradient id="paint0_linear_1162_4947" x1="248.183" y1="243.811" x2="212.303" y2="270.181" gradientUnits="userSpaceOnUse">
<stop offset="0.278846" stop-color="#33CFFF"/>
<stop offset="1" stop-color="#0D87C5"/>
</linearGradient>
<linearGradient id="paint1_linear_1162_4947" x1="279.379" y1="211.226" x2="259.327" y2="251.487" gradientUnits="userSpaceOnUse">
<stop offset="0.278846" stop-color="#33CFFF"/>
<stop offset="1" stop-color="#0D87C5"/>
</linearGradient>
<linearGradient id="paint2_linear_1162_4947" x1="292.284" y1="243.786" x2="256.392" y2="270.143" gradientUnits="userSpaceOnUse">
<stop offset="0.278846" stop-color="#33CFFF"/>
<stop offset="1" stop-color="#0D87C5"/>
</linearGradient>
<clipPath id="clip0_1162_4947">
<rect width="490.198" height="490.195" fill="white" transform="translate(13.7275)"/>
</clipPath>
</defs>
</svg>
