<svg width="276" height="50" viewBox="0 0 276 50" fill="none" xmlns="http://www.w3.org/2000/svg">
<path d="M58.1336 17.2186C59.3893 14.9457 61.1379 13.1747 63.3842 11.9058C65.6305 10.6368 68.179 10 71.0252 10C74.5132 10 77.499 10.9203 79.9824 12.761C82.4659 14.6017 84.1262 17.1117 84.9633 20.2911H77.0944C76.5084 19.064 75.6759 18.1297 74.6063 17.4882C73.5319 16.8468 72.3088 16.5261 70.9415 16.5261C68.7371 16.5261 66.9513 17.293 65.584 18.8269C64.2167 20.3608 63.533 22.4107 63.533 24.9765C63.533 27.5423 64.2167 29.5921 65.584 31.126C66.9513 32.6599 68.7371 33.4269 70.9415 33.4269C72.3088 33.4269 73.5273 33.1061 74.6063 32.4647C75.6806 31.8232 76.5084 30.889 77.0944 29.6618H84.9633C84.1262 32.8412 82.4659 35.3466 79.9824 37.1733C77.499 39 74.5132 39.9157 71.0252 39.9157C68.179 39.9157 65.6305 39.2836 63.3842 38.01C61.1379 36.741 59.3893 34.9794 58.1336 32.7203C56.8779 30.4567 56.2501 27.8769 56.2501 24.9765C56.2501 22.076 56.8779 19.4916 58.1336 17.2186Z" fill="white"/>
<path d="M104.212 34.5139H93.2452L91.4873 39.7012H83.9951L94.6265 10.334H102.914L113.545 39.7012H105.969L104.212 34.5139ZM102.37 28.9918L98.7284 18.2406L95.1288 28.9918H102.37Z" fill="white"/>
<path d="M114.001 17.2189C115.257 14.9459 117.006 13.1749 119.252 11.906C121.498 10.637 124.047 10.0049 126.893 10.0049C130.381 10.0049 133.367 10.9252 135.85 12.7659C138.333 14.6066 139.994 17.1166 140.831 20.296H132.962C132.376 19.0688 131.544 18.1346 130.474 17.4931C129.4 16.8517 128.176 16.5309 126.809 16.5309C124.605 16.5309 122.819 17.2979 121.452 18.8318C120.084 20.3657 119.401 22.4155 119.401 24.9813C119.401 27.5471 120.084 29.597 121.452 31.1309C122.819 32.6648 124.605 33.4317 126.809 33.4317C128.176 33.4317 129.395 33.111 130.474 32.4696C131.548 31.8281 132.376 30.8938 132.962 29.6667H140.831C139.994 32.8461 138.333 35.3514 135.85 37.1782C133.367 39.0049 130.381 39.9206 126.893 39.9206C124.047 39.9206 121.498 39.2885 119.252 38.0149C117.006 36.7459 115.257 34.9842 114.001 32.7252C112.746 30.4662 112.118 27.8865 112.118 24.986C112.118 22.0855 112.746 19.5011 114.001 17.2282V17.2189Z" fill="white"/>
<path d="M168.955 10.334V39.7012H161.797V27.6113H150.664V39.7012H143.506V10.334H150.664V21.8382H161.797V10.334H168.955Z" fill="white"/>
<path d="M181.261 16.0652V22.0056H190.846V27.5276H181.261V33.97H192.101V39.7012H174.103V10.334H192.101V16.0652H181.261Z" fill="white"/>
<path d="M217.062 27.2635C218.095 28.5883 218.611 30.1037 218.611 31.805C218.611 34.2594 217.751 36.2071 216.035 37.6435C214.318 39.0799 211.923 39.7957 208.853 39.7957H195.166V10.4268H208.393C211.379 10.4268 213.714 11.1101 215.407 12.4767C217.095 13.8434 217.937 15.6981 217.937 18.0409C217.937 19.7702 217.481 21.2065 216.579 22.3501C215.672 23.4936 214.463 24.2885 212.956 24.7347C214.658 25.0973 216.025 25.9433 217.058 27.2635H217.062ZM202.328 22.3082H207.016C208.188 22.3082 209.091 22.0526 209.719 21.5319C210.346 21.016 210.658 20.2583 210.658 19.2542C210.658 18.2501 210.346 17.4831 209.719 16.9532C209.091 16.4233 208.188 16.1583 207.016 16.1583H202.328V22.3082ZM210.384 33.2089C211.039 32.665 211.37 31.8794 211.37 30.8475C211.37 29.8155 211.025 29.0067 210.342 28.421C209.658 27.8352 208.714 27.5424 207.514 27.5424H202.324V34.027H207.598C208.798 34.027 209.723 33.7574 210.379 33.2135L210.384 33.2089Z" fill="white"/>
<path d="M267.33 39.7957L261.344 30.801L256.07 39.7957H247.95L257.368 24.8602L247.74 10.4268H256.07L261.972 19.296L267.163 10.4268H275.283L265.949 25.2368L275.66 39.7957H267.33Z" fill="white"/>
<path d="M237.888 38.2109C230.801 38.2109 225.057 32.487 225.057 25.4256C225.057 18.3642 230.801 12.6403 237.888 12.6403C241.462 12.6403 244.693 14.0972 247.02 16.4475C244.34 12.799 240.011 10.4268 235.123 10.4268C226.983 10.4268 220.384 17.0006 220.384 25.1112C220.384 33.2219 226.983 39.7957 235.122 39.7957C238.794 39.7957 242.15 38.4539 244.733 36.2389C242.751 37.4876 240.405 38.2123 237.888 38.2123" fill="white"/>
<path d="M242.299 14.6953C245.384 16.4956 247.458 19.8312 247.458 23.6501C247.458 29.3783 242.797 34.0209 237.05 34.0224C231.701 34.0224 227.297 30.0027 226.71 24.8304C226.7 25.0341 226.693 25.2379 226.693 25.4431C226.693 31.7884 231.856 36.9316 238.223 36.9316C244.59 36.9316 249.753 31.7869 249.753 25.4431C249.753 20.5284 246.655 16.3369 242.299 14.6953Z" fill="white"/>
<path d="M236.741 15.4902C232.872 15.4902 229.604 18.0546 228.554 21.5707C229.727 18.9627 232.355 17.1464 235.409 17.1464C239.557 17.1464 242.919 20.4966 242.919 24.6298C242.919 28.763 239.557 32.1133 235.409 32.1133C234.731 32.1133 234.074 32.0216 233.449 31.8542C234.461 32.2763 235.574 32.5091 236.741 32.5106C241.459 32.5106 245.281 28.699 245.281 23.9997C245.281 19.2989 241.457 15.4902 236.741 15.4902Z" fill="white"/>
<g clip-path="url(#clip0_677_4048)">
<g opacity="0.95">
<path fill-rule="evenodd" clip-rule="evenodd" d="M25 14.0107C36.0457 14.0107 44.9998 20.0022 44.9998 24.9994C44.9998 29.9966 36.0457 35.9881 25 35.9881C38.8071 35.9881 50 31.0679 50 24.9994C50 18.9309 38.8071 14.0107 25 14.0107ZM5.00019 25.0004C5.00019 20.0032 13.9543 14.0117 25 14.0117C11.1929 14.0117 0 18.9319 0 25.0004C0 31.0688 11.1929 35.989 25 35.989C13.9543 35.989 5.00019 29.9966 5.00019 25.0004Z" fill="#0D87C5"/>
<path fill-rule="evenodd" clip-rule="evenodd" d="M25 5.0001C29.9973 5.0001 35.9889 13.9541 35.9889 24.9995C35.9889 11.1927 31.0695 0 25 0C18.9305 0 14.0111 11.1927 14.0111 24.9995C14.0111 13.9541 20.0027 5.0001 25 5.0001ZM25 44.9999C20.0027 44.9999 14.0111 36.0459 14.0111 25.0005C14.0111 38.8073 18.9305 50 25 50C31.0695 50 35.9889 38.8073 35.9889 25.0005C35.9889 36.0459 29.9973 44.9999 25 44.9999Z" fill="#33CFFF"/>
<path fill-rule="evenodd" clip-rule="evenodd" d="M12.7387 25.0009C12.7387 21.9633 18.1807 18.3223 24.8951 18.3223C16.503 18.3223 9.70007 21.3127 9.70007 25.0009C9.70007 28.6892 16.503 31.6796 24.8951 31.6796C18.1816 31.6796 12.7387 28.0375 12.7387 25.0009ZM24.8951 18.3213C31.6085 18.3213 37.0505 21.9633 37.0505 25C37.0505 28.0366 31.6085 31.6786 24.8951 31.6786C33.2871 31.6786 40.0901 28.6882 40.0901 25C40.0901 21.3117 33.2871 18.3213 24.8951 18.3213Z" fill="#0D87C5"/>
<path fill-rule="evenodd" clip-rule="evenodd" d="M24.8951 12.8442C27.9318 12.8442 31.5739 18.2861 31.5739 24.9994C31.5739 16.6075 28.5834 9.80469 24.8951 9.80469C21.2068 9.80469 18.2163 16.6075 18.2163 24.9994C18.2163 18.2861 21.8584 12.8442 24.8951 12.8442ZM24.8951 37.1556C21.8575 37.1556 18.2163 31.7137 18.2163 24.9994C18.2163 33.3913 21.2068 40.1941 24.8951 40.1941C28.5834 40.1941 31.5739 33.3913 31.5739 24.9994C31.5739 31.7127 27.9318 37.1556 24.8951 37.1556Z" fill="#33CFFF"/>
<path fill-rule="evenodd" clip-rule="evenodd" d="M24.7121 26.1113C24.7121 25.7494 24.457 25.3019 24.1461 25.1161L21.4126 23.4934C21.1008 23.3086 20.8467 23.4539 20.8467 23.8158V26.9621C20.8467 27.324 21.1037 27.7687 21.4174 27.9497L24.1432 29.5233C24.457 29.7043 24.714 29.556 24.714 29.1941V26.1103L24.7121 26.1113Z" fill="url(#paint0_linear_677_4048)"/>
<path fill-rule="evenodd" clip-rule="evenodd" d="M24.4618 24.5685C24.7736 24.7533 25.2828 24.7533 25.5947 24.5685L28.3243 22.9448C28.6352 22.76 28.6333 22.4597 28.3195 22.2787L25.5985 20.708C25.2847 20.527 24.7717 20.527 24.4579 20.708L21.7321 22.2816C21.4184 22.4626 21.4164 22.7619 21.7283 22.9467L24.4618 24.5695V24.5685Z" fill="url(#paint1_linear_677_4048)"/>
<path fill-rule="evenodd" clip-rule="evenodd" d="M25.9117 25.1167C25.6008 25.3015 25.3457 25.75 25.3457 26.1119V29.1947C25.3457 29.5566 25.6027 29.7048 25.9165 29.5239L28.6413 27.9512C28.9551 27.7703 29.2121 27.3256 29.2121 26.9637V23.8125C29.2121 23.4506 28.957 23.3053 28.6461 23.4911L25.9126 25.1176H25.9117V25.1167Z" fill="url(#paint2_linear_677_4048)"/>
</g>
</g>
<defs>
<linearGradient id="paint0_linear_677_4048" x1="23.9143" y1="24.8688" x2="20.2545" y2="27.5585" gradientUnits="userSpaceOnUse">
<stop offset="0.278846" stop-color="#33CFFF"/>
<stop offset="1" stop-color="#0D87C5"/>
</linearGradient>
<linearGradient id="paint1_linear_677_4048" x1="27.0962" y1="21.5451" x2="25.0509" y2="25.6517" gradientUnits="userSpaceOnUse">
<stop offset="0.278846" stop-color="#33CFFF"/>
<stop offset="1" stop-color="#0D87C5"/>
</linearGradient>
<linearGradient id="paint2_linear_677_4048" x1="28.4126" y1="24.8667" x2="24.7516" y2="27.5551" gradientUnits="userSpaceOnUse">
<stop offset="0.278846" stop-color="#33CFFF"/>
<stop offset="1" stop-color="#0D87C5"/>
</linearGradient>
<clipPath id="clip0_677_4048">
<rect width="50" height="50" fill="white"/>
</clipPath>
</defs>
</svg>
