<svg width="250" height="250" viewBox="0 0 250 250" fill="none" xmlns="http://www.w3.org/2000/svg">
<g clip-path="url(#clip0_677_4117)">
<g opacity="0.95">
<path fill-rule="evenodd" clip-rule="evenodd" d="M125 70.0542C180.228 70.0542 224.999 100.011 224.999 124.997C224.999 149.984 180.228 179.941 125 179.941C194.035 179.941 250 155.34 250 124.997C250 94.6552 194.035 70.0542 125 70.0542ZM25.001 125.002C25.001 100.016 69.7717 70.059 125 70.059C55.9646 70.059 0 94.6601 0 125.002C0 155.345 55.9646 179.946 125 179.946C69.7717 179.946 25.001 149.984 25.001 125.002Z" fill="#0D87C5"/>
<path fill-rule="evenodd" clip-rule="evenodd" d="M125 25.0005C149.987 25.0005 179.944 69.7703 179.944 124.998C179.944 55.9635 155.348 0 125 0C94.6524 0 70.0557 55.9635 70.0557 124.998C70.0557 69.7703 100.013 25.0005 125 25.0005ZM125 225C100.013 225 70.0557 180.23 70.0557 125.002C70.0557 194.036 94.6524 250 125 250C155.348 250 179.944 194.036 179.944 125.002C179.944 180.23 149.987 225 125 225Z" fill="#33CFFF"/>
<path fill-rule="evenodd" clip-rule="evenodd" d="M63.6936 125.003C63.6936 109.815 90.9035 91.6093 124.476 91.6093C82.5153 91.6093 48.5005 106.561 48.5005 125.003C48.5005 143.444 82.5153 158.396 124.476 158.396C90.9083 158.396 63.6936 140.186 63.6936 125.003ZM124.476 91.6045C158.043 91.6045 185.253 109.815 185.253 124.998C185.253 140.181 158.043 158.391 124.476 158.391C166.436 158.391 200.451 143.439 200.451 124.998C200.451 106.557 166.436 91.6045 124.476 91.6045Z" fill="#0D87C5"/>
<path fill-rule="evenodd" clip-rule="evenodd" d="M124.476 64.2215C139.659 64.2215 157.87 91.4309 157.87 124.997C157.87 83.0381 142.917 49.0239 124.476 49.0239C106.034 49.0239 91.0815 83.0381 91.0815 124.997C91.0815 91.4309 109.292 64.2215 124.476 64.2215ZM124.476 185.778C109.287 185.778 91.0815 158.569 91.0815 124.997C91.0815 166.957 106.034 200.971 124.476 200.971C142.917 200.971 157.87 166.957 157.87 124.997C157.87 158.564 139.659 185.778 124.476 185.778Z" fill="#33CFFF"/>
<path fill-rule="evenodd" clip-rule="evenodd" d="M123.56 130.557C123.56 128.747 122.285 126.509 120.731 125.581L107.063 117.467C105.504 116.543 104.233 117.269 104.233 119.079V134.811C104.233 136.62 105.518 138.844 107.087 139.748L120.716 147.617C122.285 148.521 123.57 147.78 123.57 145.971V130.552L123.56 130.557Z" fill="url(#paint0_linear_677_4117)"/>
<path fill-rule="evenodd" clip-rule="evenodd" d="M122.309 122.842C123.868 123.766 126.414 123.766 127.973 122.842L141.622 114.724C143.176 113.8 143.166 112.298 141.598 111.394L127.993 103.54C126.424 102.635 123.859 102.635 122.29 103.54L108.661 111.408C107.092 112.313 107.082 113.81 108.641 114.734L122.309 122.847V122.842Z" fill="url(#paint1_linear_677_4117)"/>
<path fill-rule="evenodd" clip-rule="evenodd" d="M129.558 125.581C128.004 126.505 126.729 128.748 126.729 130.557V145.971C126.729 147.781 128.013 148.522 129.582 147.617L143.207 139.754C144.775 138.849 146.06 136.625 146.06 134.816V119.06C146.06 117.251 144.785 116.524 143.231 117.453L129.563 125.586H129.558V125.581Z" fill="url(#paint2_linear_677_4117)"/>
</g>
</g>
<defs>
<linearGradient id="paint0_linear_677_4117" x1="119.572" y1="124.344" x2="101.273" y2="137.793" gradientUnits="userSpaceOnUse">
<stop offset="0.278846" stop-color="#33CFFF"/>
<stop offset="1" stop-color="#0D87C5"/>
</linearGradient>
<linearGradient id="paint1_linear_677_4117" x1="135.481" y1="107.725" x2="125.255" y2="128.258" gradientUnits="userSpaceOnUse">
<stop offset="0.278846" stop-color="#33CFFF"/>
<stop offset="1" stop-color="#0D87C5"/>
</linearGradient>
<linearGradient id="paint2_linear_677_4117" x1="142.063" y1="124.331" x2="123.758" y2="137.773" gradientUnits="userSpaceOnUse">
<stop offset="0.278846" stop-color="#33CFFF"/>
<stop offset="1" stop-color="#0D87C5"/>
</linearGradient>
<clipPath id="clip0_677_4117">
<rect width="250" height="250" fill="white"/>
</clipPath>
</defs>
</svg>
