<svg width="195" height="200" viewBox="0 0 195 200" fill="none" xmlns="http://www.w3.org/2000/svg">
<g clip-path="url(#clip0_1054_8558)">
<path d="M183.604 85.9524C183.604 38.4822 145.052 0 97.4963 0C49.9404 0 11.3887 38.4822 11.3887 85.9524C11.3887 133.423 49.9404 171.905 97.4963 171.905C145.052 171.905 183.604 133.423 183.604 85.9524Z" fill="url(#paint0_linear_1054_8558)"/>
<g opacity="0.4">
<path d="M83.4271 32.9164L97.1669 21.4062H97.2043C97.691 21.481 98.1702 21.5632 98.6569 21.6529C128.158 27.5201 147.267 56.1833 141.381 85.5865C135.556 114.751 107.358 133.727 78.2082 128.383C84.4978 126.956 90.5403 124.071 95.8266 119.661C113.52 104.84 115.841 78.4936 100.978 60.8173C92.4572 50.6899 80.1625 45.6224 67.8828 45.9214L83.4271 32.9014V32.9164Z" fill="url(#paint1_linear_1054_8558)"/>
<path d="M113.663 160.991C88.9085 165.954 64.5363 158.495 47.0303 142.926C48.0486 142.486 49.0295 141.91 49.928 141.148C51.755 139.615 52.9979 137.62 53.6044 135.49C57.4306 137.687 61.4889 139.556 65.7568 141.021C102.192 153.525 141.846 134.152 154.335 97.7978C166.862 61.4287 147.454 21.8457 111.034 9.37891C142.752 14.5884 167.91 38.8419 174.17 70.2407C182.571 111.984 155.481 152.598 113.663 160.984V160.991Z" fill="url(#paint2_linear_1054_8558)"/>
</g>
<path d="M97.4963 33.6328C68.5941 33.6328 45.083 57.0268 45.083 85.9517C45.083 114.877 68.5193 138.271 97.4963 138.271C126.473 138.271 149.91 114.877 149.91 85.9517C149.91 57.0268 126.399 33.6328 97.4963 33.6328Z" fill="#ED2226"/>
<path d="M132.807 95.5948C132.807 98.7564 130.988 101.522 127.424 102.157C121.247 103.263 108.263 103.899 97.4135 103.899C86.5639 103.899 73.5804 103.263 67.4031 102.157C63.839 101.522 62.0195 98.7564 62.0195 95.5948V75.2054C62.0195 72.0438 64.4755 69.1215 67.4031 68.6431C69.2226 68.3292 73.498 68.0078 76.8225 68.0078C78.088 68.0078 79.1212 68.957 79.1212 70.4593V84.7648L97.4884 84.3687L115.855 84.7648V70.4593C115.855 68.957 116.881 68.0078 118.154 68.0078C121.479 68.0078 125.754 68.3217 127.574 68.6431C130.584 69.114 132.957 72.0438 132.957 75.2054C132.8 81.9246 132.8 88.8008 132.8 95.5948H132.807Z" fill="white"/>
<path d="M179.785 169.507H173.75V163.475C173.75 162.645 173.076 161.973 172.245 161.973C171.414 161.973 170.74 162.653 170.74 163.475V169.507H164.705C163.874 169.507 163.2 170.187 163.2 171.009C163.2 171.831 163.874 172.511 164.705 172.511H170.74V178.543C170.74 179.372 171.414 180.045 172.245 180.045C173.076 180.045 173.75 179.365 173.75 178.543V172.511H179.785C180.616 172.511 181.29 171.831 181.29 171.009C181.29 170.187 180.616 169.507 179.785 169.507Z" fill="#00DBFF"/>
<path d="M193.487 162.772H187.452V156.741C187.452 155.911 186.779 155.238 185.947 155.238C185.116 155.238 184.442 155.918 184.442 156.741V162.772H178.407C177.576 162.772 176.902 163.452 176.902 164.274C176.902 165.097 177.576 165.777 178.407 165.777H184.442V171.808C184.442 172.638 185.116 173.311 185.947 173.311C186.779 173.311 187.452 172.631 187.452 171.808V165.777H193.487C194.319 165.777 194.992 165.097 194.992 164.274C194.992 163.452 194.319 162.772 193.487 162.772Z" fill="#00FF78"/>
<path d="M12.5268 192.677C13.1183 193.432 13.4103 194.299 13.4103 195.271C13.4103 196.676 12.9161 197.782 11.9353 198.604C10.9544 199.427 9.58415 199.838 7.82456 199.838H0V183.051H7.56998C9.27716 183.051 10.6174 183.439 11.5833 184.224C12.5492 185.009 13.0359 186.063 13.0359 187.401C13.0359 188.387 12.7739 189.209 12.2572 189.86C11.7406 190.517 11.0442 190.966 10.1832 191.22C11.1565 191.429 11.9427 191.908 12.5268 192.67V192.677ZM4.09573 189.837H6.77629C7.45018 189.837 7.95934 189.688 8.31874 189.396C8.67815 189.105 8.85785 188.664 8.85785 188.096C8.85785 187.528 8.67815 187.087 8.31874 186.78C7.95934 186.481 7.44269 186.324 6.77629 186.324H4.09573V189.837ZM8.7081 196.071C9.08248 195.757 9.26967 195.308 9.26967 194.718C9.26967 194.127 9.07499 193.664 8.68564 193.328C8.29628 192.991 7.75717 192.827 7.06831 192.827H4.09573V196.534H7.11324C7.8021 196.534 8.33372 196.377 8.7081 196.071Z" fill="white"/>
<path d="M26.0869 199.838L22.6651 194.695L19.6475 199.838H14.9977L20.3888 191.302L14.8779 183.051H19.6475L23.0245 188.118L25.997 183.051H30.6468L25.3082 191.511L30.864 199.83H26.0944L26.0869 199.838Z" fill="white"/>
<path d="M43.2109 189.75V193.143H32.6758V189.75H43.2109Z" fill="white"/>
<path d="M47.1866 186.981C47.9054 185.681 48.9088 184.672 50.1966 183.947C51.4845 183.222 52.9371 182.855 54.5694 182.855C56.5686 182.855 58.2758 183.379 59.6984 184.433C61.1211 185.486 62.072 186.921 62.5512 188.738H58.0511C57.7142 188.035 57.2425 187.504 56.6285 187.138C56.0145 186.772 55.3182 186.593 54.532 186.593C53.274 186.593 52.2482 187.034 51.4695 187.908C50.6908 188.782 50.294 189.956 50.294 191.421C50.294 192.886 50.6833 194.059 51.4695 194.934C52.2557 195.808 53.274 196.249 54.532 196.249C55.3182 196.249 56.0145 196.07 56.6285 195.696C57.2425 195.33 57.7217 194.799 58.0511 194.097H62.5512C62.072 195.913 61.1211 197.348 59.6984 198.387C58.2758 199.433 56.5686 199.956 54.5694 199.956C52.9371 199.956 51.4845 199.59 50.1966 198.865C48.9088 198.14 47.9054 197.131 47.1866 195.838C46.4678 194.545 46.1084 193.073 46.1084 191.413C46.1084 189.754 46.4678 188.274 47.1866 186.981Z" fill="white"/>
<path d="M68.6612 198.905C67.3434 198.172 66.2951 197.148 65.5239 195.833C64.7526 194.517 64.3633 193.037 64.3633 191.401C64.3633 189.764 64.7526 188.284 65.5239 186.976C66.2951 185.668 67.3434 184.651 68.6612 183.919C69.979 183.187 71.4241 182.82 73.0115 182.82C74.5989 182.82 76.044 183.187 77.3618 183.919C78.6796 184.651 79.7204 185.675 80.4766 186.976C81.2329 188.284 81.6148 189.756 81.6148 191.401C81.6148 193.045 81.2329 194.517 80.4617 195.833C79.6904 197.148 78.6571 198.172 77.3468 198.905C76.0365 199.637 74.5914 200.003 73.0115 200.003C71.4316 200.003 69.979 199.637 68.6612 198.905ZM76.2312 194.936C77.0398 194.046 77.4441 192.866 77.4441 191.401C77.4441 189.936 77.0398 188.732 76.2312 187.85C75.4225 186.968 74.3518 186.52 73.0115 186.52C71.6712 186.52 70.5705 186.961 69.7693 187.835C68.9607 188.71 68.5563 189.898 68.5563 191.401C68.5563 192.903 68.9607 194.069 69.7693 194.951C70.578 195.833 71.6562 196.281 73.0115 196.281C74.3667 196.281 75.43 195.833 76.2312 194.943V194.936Z" fill="white"/>
<path d="M87.905 183.051V193.096C87.905 194.098 88.1521 194.875 88.6462 195.413C89.1404 195.959 89.8667 196.228 90.8251 196.228C91.7836 196.228 92.5173 195.959 93.0265 195.413C93.5357 194.867 93.7902 194.098 93.7902 193.096V183.051H97.886V193.066C97.886 194.568 97.564 195.832 96.9275 196.87C96.2911 197.909 95.43 198.687 94.3518 199.21C93.2736 199.733 92.0756 200.002 90.7503 200.002C89.425 200.002 88.2419 199.74 87.1936 199.225C86.1454 198.709 85.3217 197.924 84.7152 196.885C84.1088 195.839 83.8018 194.568 83.8018 193.074V183.058H87.8975L87.905 183.051Z" fill="white"/>
<path d="M101.15 186.981C101.869 185.681 102.873 184.672 104.161 183.947C105.448 183.222 106.901 182.855 108.533 182.855C110.532 182.855 112.24 183.379 113.662 184.433C115.085 185.486 116.036 186.921 116.515 188.738H112.015C111.678 188.035 111.206 187.504 110.592 187.138C109.978 186.772 109.282 186.593 108.496 186.593C107.238 186.593 106.212 187.034 105.433 187.908C104.655 188.782 104.258 189.956 104.258 191.421C104.258 192.886 104.647 194.059 105.433 194.934C106.22 195.808 107.238 196.249 108.496 196.249C109.282 196.249 109.978 196.07 110.592 195.696C111.206 195.33 111.686 194.799 112.015 194.097H116.515C116.036 195.913 115.085 197.348 113.662 198.387C112.24 199.433 110.532 199.956 108.533 199.956C106.901 199.956 105.448 199.59 104.161 198.865C102.873 198.14 101.869 197.131 101.15 195.838C100.432 194.545 100.072 193.073 100.072 191.413C100.072 189.754 100.432 188.274 101.15 186.981Z" fill="white"/>
<path d="M133.579 183.051V199.838H129.483V192.924H123.111V199.838H119.016V183.051H123.111V189.628H129.483V183.051H133.579Z" fill="white"/>
<path d="M149.056 192.677C149.647 193.432 149.939 194.299 149.939 195.271C149.939 196.676 149.445 197.782 148.464 198.604C147.483 199.427 146.113 199.838 144.354 199.838H136.521V183.051H144.091C145.799 183.051 147.139 183.439 148.105 184.224C149.071 185.009 149.557 186.063 149.557 187.401C149.557 188.387 149.295 189.209 148.779 189.86C148.262 190.517 147.566 190.966 146.705 191.22C147.678 191.429 148.464 191.908 149.048 192.67L149.056 192.677ZM140.625 189.837H143.305C143.979 189.837 144.488 189.688 144.848 189.396C145.207 189.105 145.387 188.664 145.387 188.096C145.387 187.528 145.207 187.087 144.848 186.78C144.488 186.481 143.972 186.324 143.305 186.324H140.625V189.837ZM145.237 196.071C145.611 195.757 145.799 195.308 145.799 194.718C145.799 194.127 145.604 193.664 145.215 193.328C144.825 192.991 144.286 192.827 143.597 192.827H140.625V196.534H143.642C144.331 196.534 144.863 196.377 145.237 196.071Z" fill="white"/>
<path d="M162.781 196.87H156.507L155.503 199.838H151.213L157.3 183.051H162.04L168.127 199.838H163.792L162.789 196.87H162.781ZM161.726 193.716L159.644 187.573L157.585 193.716H161.726Z" fill="white"/>
<path d="M172.746 199.405C171.773 199.009 170.994 198.418 170.41 197.633C169.826 196.849 169.519 195.914 169.489 194.808H173.847C173.907 195.428 174.124 195.907 174.491 196.228C174.858 196.557 175.337 196.722 175.929 196.722C176.52 196.722 177.014 196.58 177.366 196.303C177.718 196.026 177.89 195.638 177.89 195.144C177.89 194.733 177.748 194.39 177.471 194.113C177.194 193.844 176.85 193.62 176.438 193.44C176.026 193.261 175.449 193.067 174.701 192.842C173.615 192.506 172.731 192.17 172.043 191.841C171.354 191.505 170.762 191.011 170.268 190.361C169.774 189.711 169.527 188.851 169.527 187.805C169.527 186.243 170.096 185.017 171.226 184.135C172.357 183.253 173.84 182.805 175.659 182.805C177.479 182.805 179.006 183.246 180.137 184.135C181.267 185.025 181.874 186.25 181.956 187.827H177.523C177.494 187.289 177.291 186.863 176.924 186.549C176.558 186.235 176.086 186.086 175.509 186.086C175.015 186.086 174.618 186.22 174.311 186.482C174.004 186.744 173.855 187.125 173.855 187.618C173.855 188.164 174.109 188.582 174.618 188.881C175.127 189.188 175.929 189.509 177.014 189.86C178.1 190.226 178.984 190.578 179.657 190.914C180.339 191.25 180.923 191.736 181.417 192.372C181.911 193.007 182.158 193.829 182.158 194.831C182.158 195.832 181.911 196.654 181.425 197.439C180.938 198.216 180.234 198.844 179.306 199.3C178.377 199.763 177.284 199.995 176.026 199.995C174.768 199.995 173.697 199.793 172.724 199.397L172.746 199.405Z" fill="white"/>
<path d="M188.793 186.324V189.717H194.281V192.871H188.793V196.556H195V199.83H184.697V183.043H195V186.317H188.793V186.324Z" fill="white"/>
</g>
<defs>
<linearGradient id="paint0_linear_1054_8558" x1="11.3887" y1="85.9524" x2="183.604" y2="85.9524" gradientUnits="userSpaceOnUse">
<stop stop-color="#003A44"/>
<stop offset="0.67" stop-color="#19857C"/>
<stop offset="1" stop-color="#01634E"/>
</linearGradient>
<linearGradient id="paint1_linear_1054_8558" x1="67.8903" y1="75.3395" x2="142.452" y2="75.3395" gradientUnits="userSpaceOnUse">
<stop stop-color="#003A44" stop-opacity="0"/>
<stop offset="0.47" stop-color="#00FF78"/>
</linearGradient>
<linearGradient id="paint2_linear_1054_8558" x1="47.0378" y1="85.9513" x2="175.697" y2="85.9513" gradientUnits="userSpaceOnUse">
<stop stop-color="#003A44" stop-opacity="0"/>
<stop offset="0.47" stop-color="#00FF78"/>
</linearGradient>
<clipPath id="clip0_1054_8558">
<rect width="195" height="200" fill="white"/>
</clipPath>
</defs>
</svg>
