<svg width="356" height="366" viewBox="0 0 356 366" fill="none" xmlns="http://www.w3.org/2000/svg">
<g clip-path="url(#clip0_1054_8609)">
<path d="M177.994 8.20658C217.622 8.20658 254.995 23.7581 283.223 52.0024C311.451 80.2467 326.993 117.641 326.993 157.293C326.993 196.944 311.451 234.339 283.223 262.583C254.995 290.828 217.622 306.379 177.994 306.379C138.365 306.379 101.006 290.828 72.7642 262.583C44.5226 234.339 28.9938 196.944 28.9938 157.293C28.9938 117.641 44.5363 80.2467 72.7642 52.0024C100.992 23.7581 138.379 8.20658 177.994 8.20658ZM177.994 0C91.5327 0 20.792 70.7818 20.792 157.293C20.792 243.804 91.5327 314.586 177.994 314.586C264.454 314.586 335.195 243.804 335.195 157.293C335.195 70.7818 264.454 0 177.994 0Z" fill="white"/>
<g opacity="0.2">
<path d="M152.308 60.2354L177.392 39.1719H177.46C178.349 39.3087 179.224 39.4591 180.112 39.6232C233.971 50.3602 268.856 102.814 258.111 156.622C247.476 209.992 195.996 244.719 142.78 234.94C154.263 232.328 165.294 227.048 174.945 218.978C207.247 191.855 211.484 143.642 184.35 111.294C168.794 92.7609 146.348 83.4874 123.93 84.0345L152.308 60.2081V60.2354Z" fill="url(#paint0_linear_1054_8609)"/>
<path d="M207.506 294.615C162.314 303.697 117.819 290.047 85.8594 261.556C87.7185 260.749 89.5092 259.696 91.1495 258.301C94.485 255.497 96.7541 251.845 97.8614 247.947C104.847 251.968 112.256 255.388 120.047 258.068C186.564 280.951 258.959 245.499 281.76 178.971C304.629 112.415 269.197 39.9784 202.708 17.1641C260.613 26.6974 306.543 71.0813 317.971 128.541C333.308 204.931 283.851 279.255 207.506 294.601V294.615Z" fill="url(#paint1_linear_1054_8609)"/>
</g>
<path d="M177.994 61.5508C125.229 61.5508 82.3057 104.362 82.3057 157.294C82.3057 210.227 125.092 253.038 177.994 253.038C230.895 253.038 273.681 210.227 273.681 157.294C273.681 104.362 230.745 61.5508 177.994 61.5508ZM242.46 174.938C242.46 180.724 239.138 185.785 232.631 186.947C221.354 188.972 197.651 190.134 177.843 190.134C158.036 190.134 134.333 188.972 123.055 186.947C116.548 185.785 113.227 180.724 113.227 174.938V137.626C113.227 131.84 117.71 126.492 123.055 125.617C126.377 125.042 134.182 124.454 140.252 124.454C142.562 124.454 144.448 126.191 144.448 128.941V155.12L177.98 154.395L211.512 155.12V128.941C211.512 126.191 213.384 124.454 215.708 124.454C221.778 124.454 229.583 125.029 232.905 125.617C238.4 126.479 242.733 131.84 242.733 137.626C242.446 149.922 242.446 162.505 242.446 174.938H242.46Z" fill="white"/>
<path d="M328.223 310.197H317.205V299.159C317.205 297.641 315.975 296.41 314.457 296.41C312.94 296.41 311.71 297.655 311.71 299.159V310.197H300.692C299.175 310.197 297.944 311.442 297.944 312.946C297.944 314.451 299.175 315.696 300.692 315.696H311.71V326.733C311.71 328.252 312.94 329.483 314.457 329.483C315.975 329.483 317.205 328.238 317.205 326.733V315.696H328.223C329.74 315.696 330.97 314.451 330.97 312.946C330.97 311.442 329.74 310.197 328.223 310.197Z" fill="white"/>
<path d="M353.238 297.873H342.221V286.835C342.221 285.317 340.99 284.086 339.473 284.086C337.956 284.086 336.725 285.331 336.725 286.835V297.873H325.708C324.19 297.873 322.96 299.118 322.96 300.622C322.96 302.127 324.19 303.371 325.708 303.371H336.725V314.409C336.725 315.927 337.956 317.158 339.473 317.158C340.99 317.158 342.221 315.914 342.221 314.409V303.371H353.238C354.756 303.371 355.986 302.127 355.986 300.622C355.986 299.118 354.756 297.873 353.238 297.873Z" fill="white"/>
<path d="M22.8694 352.597C23.9493 353.979 24.4824 355.565 24.4824 357.343C24.4824 359.915 23.5802 361.939 21.7895 363.444C19.9988 364.948 17.4972 365.7 14.2848 365.7H0V334.98H13.8201C16.9368 334.98 19.3836 335.692 21.147 337.128C22.9104 338.564 23.7989 340.493 23.7989 342.941C23.7989 344.746 23.3205 346.251 22.3773 347.441C21.4341 348.644 20.1628 349.465 18.5908 349.93C20.3679 350.313 21.8032 351.188 22.8694 352.584V352.597ZM7.47733 347.4H12.3711C13.6014 347.4 14.5309 347.126 15.187 346.593C15.8432 346.059 16.1713 345.252 16.1713 344.213C16.1713 343.173 15.8432 342.366 15.187 341.806C14.5309 341.258 13.5877 340.971 12.3711 340.971H7.47733V347.4ZM15.8979 358.807C16.5813 358.232 16.9231 357.412 16.9231 356.331C16.9231 355.251 16.5677 354.403 15.8569 353.787C15.146 353.172 14.1618 352.871 12.9042 352.871H7.47733V359.655H12.9862C14.2438 359.655 15.2144 359.368 15.8979 358.807Z" fill="white"/>
<path d="M47.6257 365.7L41.3786 356.29L35.8697 365.7H27.3808L37.223 350.081L27.1621 334.98H35.8697L42.0347 344.254L47.4616 334.98H55.9505L46.204 350.464L56.3469 365.687H47.6393L47.6257 365.7Z" fill="white"/>
<path d="M78.8876 347.234V353.444H59.6543V347.234H78.8876Z" fill="white"/>
<path d="M86.1462 342.175C87.4585 339.795 89.2902 337.949 91.6414 336.622C93.9926 335.295 96.6445 334.625 99.6245 334.625C103.274 334.625 106.391 335.582 108.988 337.511C111.585 339.44 113.322 342.066 114.196 345.389H105.981C105.366 344.104 104.505 343.133 103.384 342.462C102.263 341.792 100.991 341.464 99.5561 341.464C97.2596 341.464 95.3869 342.271 93.9652 343.871C92.5436 345.471 91.8191 347.619 91.8191 350.3C91.8191 352.98 92.5299 355.128 93.9652 356.728C95.4006 358.328 97.2596 359.135 99.5561 359.135C100.991 359.135 102.263 358.807 103.384 358.123C104.505 357.453 105.379 356.482 105.981 355.196H114.196C113.322 358.52 111.585 361.146 108.988 363.047C106.391 364.962 103.274 365.919 99.6245 365.919C96.6445 365.919 93.9926 365.249 91.6414 363.923C89.2902 362.596 87.4585 360.749 86.1462 358.383C84.8339 356.017 84.1777 353.322 84.1777 350.286C84.1777 347.249 84.8339 344.541 86.1462 342.175Z" fill="white"/>
<path d="M125.351 363.989C122.945 362.649 121.032 360.775 119.624 358.367C118.216 355.96 117.505 353.252 117.505 350.257C117.505 347.261 118.216 344.553 119.624 342.159C121.032 339.766 122.945 337.906 125.351 336.565C127.757 335.225 130.395 334.555 133.293 334.555C136.191 334.555 138.83 335.225 141.235 336.565C143.641 337.906 145.541 339.78 146.922 342.159C148.303 344.553 149 347.248 149 350.257C149 353.266 148.303 355.96 146.895 358.367C145.487 360.775 143.6 362.649 141.208 363.989C138.816 365.329 136.178 366 133.293 366C130.409 366 127.757 365.329 125.351 363.989ZM139.171 356.726C140.648 355.098 141.386 352.937 141.386 350.257C141.386 347.576 140.648 345.374 139.171 343.76C137.695 342.146 135.74 341.325 133.293 341.325C130.847 341.325 128.837 342.132 127.374 343.732C125.898 345.333 125.16 347.507 125.16 350.257C125.16 353.006 125.898 355.14 127.374 356.753C128.851 358.367 130.819 359.188 133.293 359.188C135.768 359.188 137.709 358.367 139.171 356.74V356.726Z" fill="white"/>
<path d="M160.482 334.98V353.363C160.482 355.196 160.933 356.619 161.836 357.603C162.738 358.602 164.064 359.094 165.813 359.094C167.563 359.094 168.903 358.602 169.832 357.603C170.762 356.605 171.227 355.196 171.227 353.363V334.98H178.704V353.308C178.704 356.058 178.116 358.369 176.954 360.27C175.792 362.172 174.22 363.594 172.252 364.552C170.283 365.509 168.096 366.001 165.677 366.001C163.257 366.001 161.097 365.523 159.184 364.579C157.27 363.635 155.766 362.199 154.659 360.298C153.552 358.383 152.991 356.058 152.991 353.322V334.994H160.469L160.482 334.98Z" fill="white"/>
<path d="M184.664 342.175C185.976 339.795 187.808 337.949 190.159 336.622C192.51 335.295 195.162 334.625 198.142 334.625C201.792 334.625 204.909 335.582 207.506 337.511C210.103 339.44 211.839 342.066 212.714 345.389H204.499C203.883 344.104 203.022 343.133 201.901 342.462C200.78 341.792 199.509 341.464 198.074 341.464C195.777 341.464 193.904 342.271 192.483 343.871C191.061 345.471 190.337 347.619 190.337 350.3C190.337 352.98 191.048 355.128 192.483 356.728C193.918 358.328 195.777 359.135 198.074 359.135C199.509 359.135 200.78 358.807 201.901 358.123C203.022 357.453 203.897 356.482 204.499 355.196H212.714C211.839 358.52 210.103 361.146 207.506 363.047C204.909 364.962 201.792 365.919 198.142 365.919C195.162 365.919 192.51 365.249 190.159 363.923C187.808 362.596 185.976 360.749 184.664 358.383C183.351 356.017 182.695 353.322 182.695 350.286C182.695 347.249 183.351 344.541 184.664 342.175Z" fill="white"/>
<path d="M243.868 334.98V365.7H236.391V353.049H224.758V365.7H217.28V334.98H224.758V347.017H236.391V334.98H243.868Z" fill="white"/>
<path d="M272.122 352.597C273.202 353.979 273.735 355.565 273.735 357.343C273.735 359.915 272.833 361.939 271.042 363.444C269.252 364.948 266.75 365.7 263.538 365.7H249.239V334.98H263.059C266.176 334.98 268.623 335.692 270.386 337.128C272.15 338.564 273.038 340.493 273.038 342.941C273.038 344.746 272.56 346.251 271.617 347.441C270.673 348.644 269.402 349.465 267.83 349.93C269.607 350.313 271.042 351.188 272.109 352.584L272.122 352.597ZM256.73 347.4H261.624C262.854 347.4 263.784 347.126 264.44 346.593C265.096 346.059 265.424 345.252 265.424 344.213C265.424 343.173 265.096 342.366 264.44 341.806C263.784 341.258 262.841 340.971 261.624 340.971H256.73V347.4ZM265.151 358.807C265.834 358.232 266.176 357.412 266.176 356.331C266.176 355.251 265.821 354.403 265.11 353.787C264.399 353.172 263.415 352.871 262.157 352.871H256.73V359.655H262.239C263.497 359.655 264.467 359.368 265.151 358.807Z" fill="white"/>
<path d="M297.179 360.27H285.724L283.892 365.7H276.06L287.173 334.98H295.826L306.939 365.7H299.025L297.193 360.27H297.179ZM295.252 354.498L291.452 343.255L287.692 354.498H295.252Z" fill="white"/>
<path d="M315.374 364.905C313.597 364.18 312.175 363.1 311.109 361.664C310.043 360.228 309.482 358.518 309.428 356.494H317.383C317.493 357.629 317.889 358.504 318.559 359.092C319.229 359.694 320.104 359.995 321.184 359.995C322.264 359.995 323.166 359.735 323.808 359.229C324.451 358.723 324.765 358.012 324.765 357.109C324.765 356.357 324.505 355.728 324 355.222C323.494 354.729 322.865 354.319 322.113 353.991C321.361 353.662 320.309 353.307 318.942 352.896C316.96 352.281 315.347 351.665 314.089 351.064C312.831 350.448 311.752 349.545 310.849 348.355C309.947 347.165 309.496 345.593 309.496 343.678C309.496 340.819 310.535 338.576 312.599 336.962C314.663 335.348 317.37 334.527 320.692 334.527C324.013 334.527 326.802 335.334 328.866 336.962C330.93 338.59 332.037 340.833 332.188 343.719H324.095C324.041 342.734 323.672 341.954 323.002 341.38C322.332 340.805 321.471 340.532 320.418 340.532C319.516 340.532 318.791 340.778 318.231 341.257C317.671 341.735 317.397 342.433 317.397 343.336C317.397 344.334 317.862 345.1 318.791 345.647C319.721 346.208 321.184 346.796 323.166 347.439C325.148 348.109 326.761 348.752 327.991 349.368C329.235 349.983 330.301 350.872 331.204 352.035C332.106 353.197 332.557 354.702 332.557 356.535C332.557 358.367 332.106 359.872 331.217 361.308C330.329 362.731 329.044 363.88 327.349 364.714C325.654 365.562 323.658 365.986 321.361 365.986C319.065 365.986 317.11 365.617 315.333 364.892L315.374 364.905Z" fill="white"/>
<path d="M344.668 340.969V347.179H354.688V352.951H344.668V359.694H356V365.685H337.19V334.965H356V340.956H344.668V340.969Z" fill="white"/>
</g>
<defs>
<linearGradient id="paint0_linear_1054_8609" x1="123.943" y1="137.87" x2="260.066" y2="137.87" gradientUnits="userSpaceOnUse">
<stop stop-color="white" stop-opacity="0"/>
<stop offset="0.52" stop-color="white"/>
</linearGradient>
<linearGradient id="paint1_linear_1054_8609" x1="85.873" y1="157.291" x2="320.759" y2="157.291" gradientUnits="userSpaceOnUse">
<stop stop-color="white" stop-opacity="0"/>
<stop offset="0.52" stop-color="white"/>
</linearGradient>
<clipPath id="clip0_1054_8609">
<rect width="356" height="366" fill="white"/>
</clipPath>
</defs>
</svg>
