<svg width="584" height="600" viewBox="0 0 584 600" fill="none" xmlns="http://www.w3.org/2000/svg">
<g clip-path="url(#clip0_1054_8585)">
<path d="M291.989 13.4534C356.997 13.4534 418.306 38.9476 464.612 85.2498C510.919 131.552 536.415 192.855 536.415 257.857C536.415 322.86 510.919 384.162 464.612 430.465C418.306 476.767 356.997 502.261 291.989 502.261C226.98 502.261 165.694 476.767 119.365 430.465C73.0363 384.162 47.5621 322.86 47.5621 257.857C47.5621 192.855 73.0587 131.552 119.365 85.2498C165.672 38.9476 227.003 13.4534 291.989 13.4534ZM291.989 0C150.154 0 34.1074 116.036 34.1074 257.857C34.1074 399.679 150.154 515.714 291.989 515.714C433.823 515.714 549.87 399.679 549.87 257.857C549.87 116.036 433.823 0 291.989 0Z" fill="white"/>
<g opacity="0.2">
<path d="M249.853 98.7492L291.002 64.2188H291.114C292.572 64.443 294.007 64.6896 295.464 64.9587C383.817 82.5602 441.044 168.55 423.418 256.76C405.972 344.252 321.522 401.182 234.223 385.15C253.06 380.867 271.156 372.212 286.988 358.983C339.977 314.52 346.928 235.481 302.416 182.452C276.897 152.07 240.076 136.867 203.3 137.764L249.853 98.7043V98.7492Z" fill="url(#paint0_linear_1054_8585)"/>
<path d="M340.403 482.978C266.268 497.867 193.276 475.489 140.848 428.783C143.897 427.46 146.835 425.734 149.526 423.447C154.997 418.85 158.72 412.864 160.536 406.473C171.995 413.065 184.149 418.671 196.931 423.066C306.049 460.578 424.808 402.46 462.212 293.397C499.729 184.29 441.604 65.5411 332.532 28.1406C427.522 43.769 502.868 116.53 521.615 210.726C546.775 335.955 465.643 457.798 340.403 482.956V482.978Z" fill="url(#paint1_linear_1054_8585)"/>
</g>
<path d="M291.989 100.902C205.43 100.902 135.018 171.084 135.018 257.859C135.018 344.633 205.206 414.815 291.989 414.815C378.771 414.815 448.96 344.633 448.96 257.859C448.96 171.084 378.525 100.902 291.989 100.902ZM397.742 286.784C397.742 296.268 392.293 304.565 381.619 306.471C363.119 309.789 324.235 311.695 291.742 311.695C259.249 311.695 220.365 309.789 201.865 306.471C191.191 304.565 185.742 296.268 185.742 286.784V225.616C185.742 216.131 193.097 207.364 201.865 205.929C207.314 204.987 220.118 204.023 230.075 204.023C233.865 204.023 236.959 206.87 236.959 211.377V254.294L291.966 253.105L346.973 254.294V211.377C346.973 206.87 350.046 204.023 353.858 204.023C363.814 204.023 376.619 204.965 382.068 205.929C391.082 207.341 398.191 216.131 398.191 225.616C397.72 245.773 397.72 266.402 397.72 286.784H397.742Z" fill="white"/>
<path d="M538.434 508.516H520.36V490.421C520.36 487.932 518.341 485.914 515.852 485.914C513.363 485.914 511.345 487.954 511.345 490.421V508.516H493.271C490.782 508.516 488.764 510.556 488.764 513.023C488.764 515.489 490.782 517.53 493.271 517.53H511.345V535.624C511.345 538.113 513.363 540.131 515.852 540.131C518.341 540.131 520.36 538.091 520.36 535.624V517.53H538.434C540.923 517.53 542.941 515.489 542.941 513.023C542.941 510.556 540.923 508.516 538.434 508.516Z" fill="white"/>
<path d="M579.471 488.313H561.397V470.218C561.397 467.729 559.379 465.711 556.89 465.711C554.4 465.711 552.382 467.751 552.382 470.218V488.313H534.308C531.819 488.313 529.801 490.353 529.801 492.82C529.801 495.286 531.819 497.326 534.308 497.326H552.382V515.421C552.382 517.91 554.4 519.928 556.89 519.928C559.379 519.928 561.397 517.888 561.397 515.421V497.326H579.471C581.96 497.326 583.978 495.286 583.978 492.82C583.978 490.353 581.96 488.313 579.471 488.313Z" fill="white"/>
<path d="M37.5161 578.025C39.2876 580.289 40.1622 582.89 40.1622 585.805C40.1622 590.021 38.6822 593.339 35.7446 595.805C32.807 598.272 28.7033 599.505 23.4336 599.505H0V549.145H22.6711C27.7839 549.145 31.7979 550.31 34.6906 552.665C37.5834 555.019 39.041 558.181 39.041 562.194C39.041 565.154 38.2561 567.621 36.7088 569.571C35.1615 571.544 33.0761 572.89 30.4973 573.652C33.4124 574.28 35.767 575.715 37.5161 578.002V578.025ZM12.2662 569.504H20.2941C22.3123 569.504 23.8372 569.056 24.9136 568.181C25.9899 567.307 26.5281 565.984 26.5281 564.28C26.5281 562.576 25.9899 561.253 24.9136 560.333C23.8372 559.436 22.2899 558.966 20.2941 558.966H12.2662V569.504ZM26.0796 588.204C27.2009 587.263 27.7615 585.917 27.7615 584.146C27.7615 582.374 27.1784 580.984 26.0124 579.975C24.8463 578.966 23.2317 578.473 21.1687 578.473H12.2662V589.594H21.3032C23.3663 589.594 24.9584 589.124 26.0796 588.204Z" fill="white"/>
<path d="M78.127 599.505L67.879 584.079L58.842 599.505H44.9164L61.062 573.899L44.5576 549.145H58.842L68.9554 564.347L77.8579 549.145H91.7835L75.7949 574.527L92.4338 599.483H78.1494L78.127 599.505Z" fill="white"/>
<path d="M129.412 569.238V579.418H97.8604V569.238H129.412Z" fill="white"/>
<path d="M141.319 560.94C143.472 557.038 146.477 554.011 150.334 551.836C154.191 549.661 158.541 548.562 163.429 548.562C169.417 548.562 174.53 550.132 178.79 553.294C183.051 556.455 185.899 560.76 187.334 566.209H173.857C172.848 564.101 171.435 562.509 169.596 561.411C167.757 560.312 165.672 559.774 163.317 559.774C159.55 559.774 156.478 561.097 154.146 563.72C151.814 566.343 150.625 569.864 150.625 574.259C150.625 578.653 151.791 582.174 154.146 584.797C156.5 587.42 159.55 588.743 163.317 588.743C165.672 588.743 167.757 588.205 169.596 587.084C171.435 585.985 172.87 584.393 173.857 582.286H187.334C185.899 587.734 183.051 592.039 178.79 595.156C174.53 598.295 169.417 599.865 163.429 599.865C158.541 599.865 154.191 598.766 150.334 596.591C146.477 594.416 143.472 591.389 141.319 587.51C139.166 583.631 138.09 579.214 138.09 574.236C138.09 569.258 139.166 564.819 141.319 560.94Z" fill="white"/>
<path d="M205.632 596.702C201.686 594.505 198.546 591.433 196.237 587.487C193.927 583.54 192.761 579.101 192.761 574.19C192.761 569.28 193.927 564.84 196.237 560.916C198.546 556.992 201.686 553.943 205.632 551.745C209.579 549.548 213.907 548.449 218.661 548.449C223.415 548.449 227.743 549.548 231.69 551.745C235.636 553.943 238.753 557.015 241.018 560.916C243.283 564.84 244.427 569.257 244.427 574.19C244.427 579.123 243.283 583.54 240.973 587.487C238.664 591.433 235.569 594.505 231.645 596.702C227.72 598.9 223.393 599.998 218.661 599.998C213.929 599.998 209.579 598.9 205.632 596.702ZM228.303 584.796C230.725 582.128 231.936 578.585 231.936 574.19C231.936 569.795 230.725 566.185 228.303 563.539C225.882 560.894 222.675 559.548 218.661 559.548C214.647 559.548 211.351 560.871 208.951 563.495C206.529 566.118 205.318 569.683 205.318 574.19C205.318 578.697 206.529 582.195 208.951 584.841C211.373 587.487 214.602 588.832 218.661 588.832C222.72 588.832 225.904 587.487 228.303 584.818V584.796Z" fill="white"/>
<path d="M263.263 549.145V579.28C263.263 582.285 264.003 584.617 265.483 586.231C266.963 587.868 269.138 588.675 272.009 588.675C274.879 588.675 277.077 587.868 278.602 586.231C280.126 584.594 280.889 582.285 280.889 579.28V549.145H293.155V579.19C293.155 583.697 292.191 587.487 290.285 590.603C288.379 593.72 285.8 596.052 282.571 597.622C279.342 599.191 275.754 599.998 271.784 599.998C267.815 599.998 264.272 599.214 261.133 597.666C257.993 596.119 255.527 593.765 253.71 590.648C251.894 587.509 250.975 583.697 250.975 579.213V549.167H263.241L263.263 549.145Z" fill="white"/>
<path d="M302.932 560.94C305.085 557.038 308.09 554.011 311.947 551.836C315.804 549.661 320.154 548.562 325.043 548.562C331.03 548.562 336.143 550.132 340.404 553.294C344.664 556.455 347.512 560.76 348.947 566.209H335.47C334.461 564.101 333.048 562.509 331.209 561.411C329.371 560.312 327.285 559.774 324.931 559.774C321.163 559.774 318.091 561.097 315.759 563.72C313.427 566.343 312.238 569.864 312.238 574.259C312.238 578.653 313.404 582.174 315.759 584.797C318.114 587.42 321.163 588.743 324.931 588.743C327.285 588.743 329.371 588.205 331.209 587.084C333.048 585.985 334.483 584.393 335.47 582.286H348.947C347.512 587.734 344.664 592.039 340.404 595.156C336.143 598.295 331.03 599.865 325.043 599.865C320.154 599.865 315.804 598.766 311.947 596.591C308.09 594.416 305.085 591.389 302.932 587.51C300.78 583.631 299.703 579.214 299.703 574.236C299.703 569.258 300.78 564.819 302.932 560.94Z" fill="white"/>
<path d="M400.052 549.145V599.505H387.786V578.764H368.703V599.505H356.437V549.145H368.703V568.876H387.786V549.145H400.052Z" fill="white"/>
<path d="M446.404 578.025C448.175 580.289 449.05 582.89 449.05 585.805C449.05 590.021 447.57 593.339 444.632 595.805C441.695 598.272 437.591 599.505 432.321 599.505H408.865V549.145H431.536C436.649 549.145 440.663 550.31 443.556 552.665C446.449 555.019 447.906 558.181 447.906 562.194C447.906 565.154 447.121 567.621 445.574 569.571C444.027 571.544 441.941 572.89 439.362 573.652C442.278 574.28 444.632 575.715 446.381 578.002L446.404 578.025ZM421.154 569.504H429.182C431.2 569.504 432.725 569.056 433.801 568.181C434.878 567.307 435.416 565.984 435.416 564.28C435.416 562.576 434.878 561.253 433.801 560.333C432.725 559.436 431.178 558.966 429.182 558.966H421.154V569.504ZM434.967 588.204C436.089 587.263 436.649 585.917 436.649 584.146C436.649 582.374 436.066 580.984 434.9 579.975C433.734 578.966 432.119 578.473 430.056 578.473H421.154V589.594H430.191C432.254 589.594 433.846 589.124 434.967 588.204Z" fill="white"/>
<path d="M487.507 590.603H468.715L465.711 599.505H452.861L471.092 549.145H485.287L503.518 599.505H490.534L487.53 590.603H487.507ZM484.345 581.141L478.111 562.71L471.945 581.141H484.345Z" fill="white"/>
<path d="M517.354 598.206C514.439 597.018 512.107 595.247 510.358 592.892C508.609 590.538 507.689 587.735 507.6 584.417H520.651C520.83 586.278 521.48 587.713 522.579 588.677C523.678 589.663 525.113 590.157 526.885 590.157C528.656 590.157 530.136 589.731 531.19 588.901C532.244 588.071 532.76 586.905 532.76 585.426C532.76 584.192 532.334 583.161 531.504 582.331C530.674 581.524 529.643 580.851 528.409 580.313C527.176 579.775 525.449 579.192 523.207 578.52C519.955 577.51 517.309 576.501 515.246 575.515C513.183 574.506 511.412 573.026 509.932 571.075C508.452 569.125 507.712 566.546 507.712 563.407C507.712 558.721 509.416 555.043 512.802 552.397C516.188 549.752 520.628 548.406 526.077 548.406C531.527 548.406 536.101 549.729 539.487 552.397C542.873 555.066 544.69 558.743 544.936 563.474H531.661C531.571 561.86 530.966 560.582 529.867 559.64C528.768 558.698 527.356 558.25 525.629 558.25C524.149 558.25 522.96 558.653 522.041 559.438C521.122 560.223 520.673 561.366 520.673 562.846C520.673 564.483 521.436 565.739 522.96 566.636C524.485 567.555 526.885 568.519 530.136 569.573C533.388 570.672 536.034 571.725 538.052 572.734C540.093 573.744 541.842 575.201 543.322 577.107C544.802 579.013 545.542 581.479 545.542 584.484C545.542 587.488 544.802 589.955 543.344 592.309C541.887 594.641 539.779 596.525 536.998 597.892C534.217 599.283 530.943 599.978 527.176 599.978C523.409 599.978 520.202 599.372 517.287 598.184L517.354 598.206Z" fill="white"/>
<path d="M565.41 558.968V569.148H581.847V578.61H565.41V589.665H584V599.486H553.144V549.125H584V558.946H565.41V558.968Z" fill="white"/>
</g>
<defs>
<linearGradient id="paint0_linear_1054_8585" x1="203.322" y1="226.019" x2="426.625" y2="226.019" gradientUnits="userSpaceOnUse">
<stop stop-color="white" stop-opacity="0"/>
<stop offset="0.52" stop-color="white"/>
</linearGradient>
<linearGradient id="paint1_linear_1054_8585" x1="140.87" y1="257.858" x2="526.189" y2="257.858" gradientUnits="userSpaceOnUse">
<stop stop-color="white" stop-opacity="0"/>
<stop offset="0.52" stop-color="white"/>
</linearGradient>
<clipPath id="clip0_1054_8585">
<rect width="584" height="600" fill="white"/>
</clipPath>
</defs>
</svg>
