<svg width="300" height="41" viewBox="0 0 300 41" fill="none" xmlns="http://www.w3.org/2000/svg">
<g clip-path="url(#clip0_978_188114)">
<path d="M62.3405 11.0864C63.923 8.17879 66.128 5.91814 68.9555 4.29695C71.783 2.67576 74.993 1.86328 78.578 1.86328C82.973 1.86328 86.7343 3.04062 89.8618 5.39154C92.9893 7.74622 95.0818 10.9547 96.1355 15.0171H86.2243C85.4893 13.4486 84.4393 12.2525 83.0893 11.4362C81.7355 10.6162 80.198 10.2062 78.4768 10.2062C75.7018 10.2062 73.4518 11.188 71.7268 13.1477C70.0055 15.1074 69.143 17.7292 69.143 21.0092C69.143 24.2892 70.0055 26.9109 71.7268 28.8706C73.448 30.8303 75.698 31.8121 78.4768 31.8121C80.198 31.8121 81.7393 31.4021 83.0893 30.5821C84.4393 29.7621 85.4893 28.5697 86.2243 27.0012H96.1355C95.0818 31.0636 92.9893 34.2646 89.8618 36.6004C86.7343 38.9363 82.973 40.1024 78.578 40.1024C74.993 40.1024 71.7868 39.2937 68.9555 37.6687C66.1243 36.0475 63.9193 33.7906 62.3405 30.9056C60.758 28.0168 59.9668 24.7217 59.9668 21.0129C59.9668 17.3041 60.758 13.9978 62.3405 11.0939V11.0864Z" fill="#0E1F3D"/>
<path d="M125.76 2.28906V9.6164H110.681V17.5305H121.965V24.6435H110.681V39.8285H101.666V2.28906H125.76Z" fill="#0E1F3D"/>
<path d="M131.347 11.0864C132.93 8.17879 135.135 5.91814 137.962 4.29695C140.79 2.67576 144 1.86328 147.585 1.86328C151.976 1.86328 155.741 3.04062 158.869 5.39154C161.996 7.74622 164.089 10.9547 165.142 15.0171H155.231C154.496 13.4486 153.446 12.2525 152.096 11.4362C150.742 10.6162 149.205 10.2062 147.484 10.2062C144.709 10.2062 142.459 11.188 140.734 13.1477C139.012 15.1074 138.15 17.7292 138.15 21.0092C138.15 24.2892 139.012 26.9109 140.734 28.8706C142.455 30.8303 144.705 31.8121 147.484 31.8121C149.205 31.8121 150.746 31.4021 152.096 30.5821C153.446 29.7621 154.496 28.5697 155.231 27.0012H165.142C164.089 31.0636 161.996 34.2646 158.869 36.6004C155.741 38.9363 151.98 40.1024 147.585 40.1024C144 40.1024 140.794 39.2937 137.962 37.6687C135.131 36.0475 132.926 33.7906 131.347 30.9056C129.765 28.0168 128.974 24.7217 128.974 21.0129C128.974 17.3041 129.765 13.9978 131.347 11.0939V11.0864Z" fill="#0E1F3D"/>
<path d="M193.717 33.197H179.906L177.69 39.8285H168.255L181.642 2.28906H192.079L205.47 39.8285H195.93L193.714 33.197H193.717ZM191.396 26.1368L186.81 12.3924L182.276 26.1368H191.396Z" fill="#0E1F3D"/>
<path d="M215.648 38.8685C213.503 37.977 211.793 36.6605 210.506 34.9114C209.224 33.1661 208.545 31.0596 208.478 28.5996H218.074C218.216 29.9914 218.689 31.0484 219.499 31.7818C220.305 32.5116 221.363 32.8764 222.664 32.8764C223.965 32.8764 225.053 32.5642 225.825 31.9398C226.598 31.3154 226.984 30.4503 226.984 29.3482C226.984 28.4229 226.676 27.6555 226.061 27.0499C225.446 26.4443 224.693 25.9441 223.796 25.5529C222.9 25.1617 221.625 24.7141 219.975 24.2138C217.583 23.4652 215.633 22.7167 214.121 21.9682C212.61 21.2196 211.309 20.1138 210.218 18.6543C209.13 17.1911 208.583 15.2878 208.583 12.9331C208.583 9.43873 209.828 6.70414 212.325 4.72561C214.819 2.74708 218.074 1.75781 222.079 1.75781C226.084 1.75781 229.444 2.74708 231.938 4.72561C234.431 6.70414 235.766 9.45754 235.943 12.9896H226.189C226.118 11.7784 225.679 10.8229 224.869 10.1308C224.059 9.43497 223.024 9.08891 221.756 9.08891C220.669 9.08891 219.788 9.38231 219.12 9.9691C218.453 10.5559 218.119 11.406 218.119 12.5081C218.119 13.7193 218.681 14.6634 219.806 15.3442C220.931 16.0213 222.686 16.7548 225.079 17.5372C227.468 18.3572 229.41 19.1433 230.903 19.8918C232.395 20.6404 233.685 21.7274 234.776 23.153C235.864 24.5786 236.411 26.4142 236.411 28.6598C236.411 30.9054 235.875 32.741 234.803 34.4901C233.73 36.2354 232.174 37.6272 230.138 38.6616C228.098 39.696 225.69 40.2151 222.915 40.2151C220.14 40.2151 217.781 39.7712 215.64 38.876L215.648 38.8685Z" fill="#0E1F3D"/>
<path d="M268.583 2.28906V9.6164H258.776V39.8323H249.761V9.61264H239.955V2.28906H268.583Z" fill="#0E1F3D"/>
<path d="M279.229 38.8685C277.084 37.977 275.374 36.6605 274.087 34.9114C272.805 33.1661 272.126 31.0596 272.059 28.5996H281.655C281.797 29.9914 282.27 31.0484 283.08 31.7818C283.886 32.5116 284.944 32.8764 286.241 32.8764C287.539 32.8764 288.63 32.5642 289.402 31.9398C290.175 31.3154 290.561 30.4503 290.561 29.3482C290.561 28.4229 290.254 27.6555 289.639 27.0499C289.024 26.4443 288.266 25.9441 287.374 25.5529C286.477 25.1617 285.202 24.7141 283.552 24.2138C281.16 23.4652 279.21 22.7167 277.699 21.9682C276.187 21.2196 274.886 20.1138 273.795 18.6543C272.707 17.1911 272.16 15.2878 272.16 12.9331C272.16 9.43873 273.405 6.70414 275.902 4.72561C278.396 2.74708 281.651 1.75781 285.656 1.75781C289.661 1.75781 293.021 2.74708 295.515 4.72561C298.009 6.70414 299.344 9.45754 299.52 12.9896H289.766C289.695 11.7784 289.256 10.8229 288.446 10.1308C287.636 9.43497 286.601 9.08891 285.334 9.08891C284.246 9.08891 283.365 9.38231 282.697 9.9691C282.03 10.5559 281.696 11.406 281.696 12.5081C281.696 13.7193 282.259 14.6634 283.384 15.3442C284.509 16.0213 286.264 16.7548 288.656 17.5372C291.045 18.3572 292.987 19.1433 294.484 19.8918C295.976 20.6404 297.266 21.7274 298.357 23.153C299.445 24.5786 299.992 26.4142 299.992 28.6598C299.992 30.9054 299.456 32.741 298.384 34.4901C297.311 36.2354 295.755 37.6272 293.719 38.6616C291.679 39.696 289.271 40.2151 286.496 40.2151C283.721 40.2151 281.366 39.7712 279.221 38.876L279.229 38.8685Z" fill="#0E1F3D"/>
<path d="M47.2388 0H9.195C4.1175 0 0 4.17523 0 9.32844V31.6716C0 36.8248 4.1175 41 9.195 41H47.2388C52.3163 41 56.4338 36.8248 56.4338 31.6716V9.32844C56.4375 4.17523 52.32 0 47.2388 0ZM31.0687 15.5988C31.1212 15.5461 31.2225 15.4446 31.3237 15.3919C31.425 15.343 31.4775 15.2904 31.5787 15.2377C31.68 15.185 31.7812 15.185 31.8862 15.1361C32.0887 15.0835 32.295 15.0835 32.4975 15.1361C32.5988 15.1361 32.7 15.1888 32.805 15.2377C32.91 15.2866 33.0075 15.3393 33.06 15.3919C33.1613 15.4446 33.2137 15.4935 33.315 15.5988C33.57 15.911 33.7725 16.2721 33.7725 16.6859C33.7725 17.0996 33.6187 17.5134 33.315 17.7729C33.2625 17.8256 33.1613 17.9272 33.06 17.9798C32.9588 18.0287 32.9063 18.0814 32.805 18.134C32.7038 18.1867 32.6025 18.1867 32.4975 18.2356C32.3925 18.2845 32.295 18.2883 32.1937 18.2883C32.0925 18.2883 31.9913 18.2883 31.89 18.2356C31.7888 18.2356 31.6875 18.1829 31.5825 18.134C31.4775 18.0851 31.38 18.0325 31.3275 17.9798C31.2263 17.9272 31.1738 17.8783 31.0725 17.7729C30.765 17.4607 30.615 17.0996 30.615 16.6859C30.615 16.2721 30.7688 15.8583 31.0725 15.5988H31.0687ZM36.8775 23.0917L22.815 32.1869C22.305 32.4953 21.7463 32.6495 21.1875 32.6495C20.6775 32.6495 20.1675 32.548 19.71 32.2884C18.7425 31.7242 18.1312 30.6898 18.1312 29.5539V11.4161C18.1312 10.2763 18.7425 9.24569 19.71 8.72661C20.6775 8.21128 21.8512 8.21128 22.7662 8.82816L29.85 13.4284C30.5625 13.8422 30.765 14.8239 30.3075 15.5461C29.8987 16.2683 28.9312 16.4752 28.2188 16.0088L21.1875 11.5139V29.4974L35.1975 20.5075L34.6875 20.1464C33.975 19.7327 33.7725 18.7509 34.23 18.0287C34.6387 17.3065 35.6062 17.0996 36.3187 17.5661L36.8812 17.9272C37.8 18.4951 38.3063 19.4769 38.3063 20.5113C38.3063 21.5457 37.7437 22.5237 36.8812 23.0954L36.8775 23.0917Z" fill="#0E1F3D"/>
</g>
<defs>
<clipPath id="clip0_978_188114">
<rect width="300" height="41" fill="white"/>
</clipPath>
</defs>
</svg>
