<svg width="500" height="362" viewBox="0 0 500 362" fill="none" xmlns="http://www.w3.org/2000/svg">
<g clip-path="url(#clip0_978_188123)">
<path d="M418.505 0H81.4618C36.4784 0 0 36.8642 0 82.3633V279.637C0 325.136 36.4784 362 81.4618 362H418.505C463.488 362 499.967 325.136 499.967 279.637V82.3633C499.967 36.8642 463.488 0 418.505 0ZM275.249 137.726C275.714 137.261 276.611 136.364 277.508 135.899C278.405 135.468 278.87 135.003 279.767 134.538C280.664 134.073 281.561 134.073 282.492 133.641C284.286 133.176 286.113 133.176 287.907 133.641C288.804 133.641 289.701 134.106 290.631 134.538C291.561 134.97 292.425 135.434 292.89 135.899C293.787 136.364 294.252 136.796 295.149 137.726C297.409 140.483 299.203 143.671 299.203 147.324C299.203 150.977 297.841 154.63 295.149 156.922C294.684 157.387 293.787 158.284 292.89 158.749C291.993 159.18 291.528 159.645 290.631 160.11C289.734 160.575 288.837 160.575 287.907 161.007C286.977 161.439 286.113 161.472 285.216 161.472C284.319 161.472 283.422 161.472 282.525 161.007C281.628 161.007 280.731 160.542 279.801 160.11C278.87 159.679 278.007 159.214 277.542 158.749C276.645 158.284 276.179 157.852 275.282 156.922C272.558 154.166 271.229 150.977 271.229 147.324C271.229 143.671 272.591 140.018 275.282 137.726H275.249ZM326.711 203.882L202.126 284.187C197.608 286.91 192.658 288.272 187.708 288.272C183.189 288.272 178.671 287.375 174.618 285.083C166.047 280.102 160.631 270.969 160.631 260.939V100.795C160.631 90.7325 166.047 81.6327 174.618 77.0495C183.189 72.4996 193.588 72.4996 201.694 77.9462L264.452 118.563C270.764 122.217 272.558 130.885 268.505 137.261C264.884 143.638 256.312 145.464 250 141.346L187.708 101.659V260.441L311.827 181.066L307.309 177.878C300.997 174.225 299.203 165.557 303.256 159.18C306.877 152.804 315.449 150.977 321.761 155.095L326.744 158.284C334.884 163.299 339.369 171.967 339.369 181.1C339.369 190.233 334.385 198.868 326.744 203.916L326.711 203.882Z" fill="#0E1F3D"/>
</g>
<defs>
<clipPath id="clip0_978_188123">
<rect width="500" height="362" fill="white"/>
</clipPath>
</defs>
</svg>
