<svg width="500" height="361" viewBox="0 0 500 361" fill="none" xmlns="http://www.w3.org/2000/svg">
<path d="M418.528 0H81.4717C36.4761 0 0 36.7192 0 82.0147V278.484C0 323.78 36.4761 360.499 81.4717 360.499H418.528C463.524 360.499 500 323.78 500 278.484V82.0147C500 36.7192 463.524 0 418.528 0Z" fill="#00C3FF"/>
<path d="M174.627 283.913C178.68 286.184 183.211 287.089 187.723 287.089C192.693 287.089 197.645 285.723 202.157 283.009L326.731 203.043C334.397 198.04 339.368 189.417 339.368 180.333C339.368 171.249 334.856 162.608 326.731 157.623L321.76 154.447C315.432 150.367 306.867 152.176 303.254 158.528C299.201 164.898 300.998 173.52 307.307 177.158L311.819 180.333L187.704 259.394V101.254L249.991 140.784C256.319 144.865 264.884 143.055 268.497 136.704C272.551 130.334 270.753 121.712 264.444 118.074L201.699 77.6394C193.573 72.1927 183.192 72.1927 174.609 76.7347C166.025 81.2767 160.614 90.3607 160.614 100.368V259.855C160.614 269.844 166.025 278.947 174.609 283.932L174.627 283.913Z" fill="#0E1F3D"/>
<path d="M285.206 160.783C284.308 160.783 283.409 160.783 282.492 160.321C281.593 160.321 280.694 159.859 279.777 159.416C278.86 158.973 277.98 158.511 277.521 158.05C276.623 157.588 276.164 157.145 275.265 156.241C272.551 153.508 271.212 150.332 271.212 146.695C271.212 143.058 272.569 139.42 275.265 137.149C275.724 136.688 276.623 135.783 277.521 135.34C278.42 134.897 278.879 134.435 279.777 133.974C280.676 133.512 281.575 133.512 282.492 133.069C284.289 132.607 286.105 132.607 287.902 133.069C288.801 133.069 289.7 133.53 290.617 133.974C291.534 134.417 292.414 134.878 292.873 135.34C293.772 135.801 294.23 136.245 295.129 137.149C297.385 139.882 299.182 143.058 299.182 146.695C299.182 150.332 297.825 153.969 295.129 156.241C294.67 156.702 293.772 157.607 292.873 158.05C291.974 158.493 291.516 158.955 290.617 159.416C289.718 159.878 288.819 159.878 287.902 160.321C286.985 160.764 286.105 160.783 285.188 160.783H285.206Z" fill="white"/>
</svg>
