<svg width="200" height="176" viewBox="0 0 200 176" fill="none" xmlns="http://www.w3.org/2000/svg">
<g clip-path="url(#clip0_955_121492)">
<path d="M67.7414 0C34.0774 0 0 7.75717 0 22.5879V22.9242C10.2623 33.0906 33.6861 38.7252 67.7414 38.7252C101.797 38.7252 125.22 33.0906 135.483 22.9242V22.5879C135.483 7.75717 101.405 0 67.7414 0Z" fill="#33CFFF"/>
<path d="M168.591 22.3898H176.67C178.032 22.3898 179.134 21.2871 179.134 19.9254C179.134 18.5636 178.032 17.4609 176.67 17.4609H168.591C167.229 17.4609 166.127 18.5636 166.127 19.9254C166.127 21.2871 167.229 22.3898 168.591 22.3898Z" fill="#33CFFF"/>
<path d="M168.591 32.257H188.322C189.683 32.257 190.785 31.1543 190.785 29.7926C190.785 28.4308 189.683 27.3281 188.322 27.3281H168.591C167.229 27.3281 166.127 28.4308 166.127 29.7926C166.127 31.1543 167.229 32.257 168.591 32.257Z" fill="#33CFFF"/>
<path d="M168.591 42.1281H182.893C184.254 42.1281 185.356 41.0254 185.356 39.6636C185.356 38.3019 184.254 37.1992 182.893 37.1992H168.591C167.229 37.1992 166.127 38.3019 166.127 39.6636C166.127 41.0254 167.229 42.1281 168.591 42.1281Z" fill="#33CFFF"/>
<path d="M168.591 84.3898H176.67C178.032 84.3898 179.134 83.2871 179.134 81.9254C179.134 80.5636 178.032 79.4609 176.67 79.4609H168.591C167.229 79.4609 166.127 80.5636 166.127 81.9254C166.127 83.2871 167.229 84.3898 168.591 84.3898Z" fill="#33CFFF"/>
<path d="M168.591 94.2609H188.322C189.683 94.2609 190.785 93.1582 190.785 91.7965C190.785 90.4347 189.683 89.332 188.322 89.332H168.591C167.229 89.332 166.127 90.4347 166.127 91.7965C166.127 93.1582 167.229 94.2609 168.591 94.2609Z" fill="#33CFFF"/>
<path d="M168.591 104.128H182.893C184.254 104.128 185.356 103.025 185.356 101.664C185.356 100.302 184.254 99.1992 182.893 99.1992H168.591C167.229 99.1992 166.127 100.302 166.127 101.664C166.127 103.025 167.229 104.128 168.591 104.128Z" fill="#33CFFF"/>
<path d="M167.14 146.155H175.22C176.582 146.155 177.684 145.053 177.684 143.691C177.684 142.329 176.582 141.227 175.22 141.227H167.14C165.779 141.227 164.677 142.329 164.677 143.691C164.677 145.053 165.779 146.155 167.14 146.155Z" fill="#33CFFF"/>
<path d="M167.14 156.027H186.871C188.233 156.027 189.335 154.924 189.335 153.562C189.335 152.2 188.233 151.098 186.871 151.098H167.14C165.779 151.098 164.677 152.2 164.677 153.562C164.677 154.924 165.779 156.027 167.14 156.027Z" fill="#33CFFF"/>
<path d="M181.443 160.961H167.14C165.779 160.961 164.677 162.064 164.677 163.425C164.677 164.787 165.779 165.89 167.14 165.89H181.443C182.804 165.89 183.906 164.787 183.906 163.425C183.906 162.064 182.804 160.961 181.443 160.961Z" fill="#33CFFF"/>
<path d="M194.246 131.59H161.365C158.19 131.59 155.611 134.17 155.611 137.346V151.327H146.776C143.635 151.327 140.57 150.23 138.14 148.245L132.926 143.978V150.351L135.015 152.061C138.322 154.768 142.499 156.262 146.776 156.262H155.611V170.243C155.611 173.419 158.19 175.999 161.365 175.999H173.986C175.348 175.999 176.45 174.897 176.45 173.535C176.45 172.173 175.348 171.07 173.986 171.07H161.365C160.913 171.07 160.544 170.701 160.544 170.249V137.357C160.544 136.905 160.913 136.535 161.365 136.535H194.246C194.698 136.535 195.068 136.905 195.068 137.357V170.249C195.068 170.701 194.698 171.07 194.246 171.07H185.682C184.32 171.07 183.218 172.173 183.218 173.535C183.218 174.897 184.32 175.999 185.682 175.999H194.246C197.421 175.999 200 173.419 200 170.243V137.351C200 134.176 197.421 131.595 194.246 131.595V131.59Z" fill="#33CFFF"/>
<path d="M194.246 69.5898H161.365C158.19 69.5898 155.611 72.1701 155.611 75.3457V89.3273H132.92V94.2617H155.611V108.243C155.611 111.419 158.19 113.999 161.365 113.999H194.246C197.421 113.999 200 111.419 200 108.243V75.3512C200 72.1756 197.421 69.5954 194.246 69.5954V69.5898ZM195.067 108.243C195.067 108.695 194.698 109.065 194.246 109.065H161.365C160.913 109.065 160.543 108.695 160.543 108.243V75.3512C160.543 74.8991 160.913 74.5297 161.365 74.5297H194.246C194.698 74.5297 195.067 74.8991 195.067 75.3512V108.243Z" fill="#33CFFF"/>
<path d="M194.246 7.58594H161.365C158.19 7.58594 155.611 10.1661 155.611 13.3418V27.3234H147.559C142.703 27.3234 138.107 29.1869 134.623 32.5721L132.926 34.2205V41.0956L138.057 36.1116C140.614 33.6251 143.993 32.2578 147.559 32.2578H155.611V46.2394C155.611 49.4151 158.19 51.9953 161.365 51.9953H194.246C197.421 51.9953 200 49.4151 200 46.2394V13.3473C200 10.1717 197.421 7.59145 194.246 7.59145V7.58594ZM195.068 46.2394C195.068 46.6915 194.698 47.0609 194.246 47.0609H161.365C160.913 47.0609 160.544 46.6915 160.544 46.2394V13.3473C160.544 12.8952 160.913 12.5258 161.365 12.5258H194.246C194.698 12.5258 195.068 12.8952 195.068 13.3473V46.2394Z" fill="#33CFFF"/>
<path d="M49.4104 106.07C49.3663 106.17 49.3167 106.269 49.2726 106.374C48.986 107.041 48.9364 107.691 49.4269 108.298C49.9284 108.915 50.6119 109.026 51.3173 108.827C52.9818 108.353 54.3652 107.394 55.6438 106.252C57.5343 104.576 58.9727 102.547 60.312 100.43C61.6403 98.3353 62.7261 96.119 63.6685 93.8365C64.6771 91.4051 65.5479 88.9187 66.1321 86.3495C66.5179 84.6569 66.8872 82.9588 67.1407 81.2387C67.3447 79.8824 67.4108 78.5041 67.4494 77.1313C67.488 75.8743 67.4714 74.6117 67.3667 73.3657C67.2069 71.4747 66.8486 69.6112 65.9668 67.9021C65.5479 67.0916 65.0574 66.3363 64.1976 65.9008C63.5473 65.57 62.919 65.5534 62.2906 65.9504C62.1639 66.0276 62.0261 66.0827 61.8608 66.1709C61.8497 66.0662 61.8222 66.0055 61.8387 65.9614C62.3733 64.6217 63.0623 63.3867 64.2748 62.5267C65.818 61.4295 67.4769 61.1208 69.3123 61.7438C71.7869 62.5873 73.4955 64.2413 74.5978 66.5734C75.3969 68.2605 75.8489 70.0412 75.9922 71.8937C76.0914 73.2169 76.2291 74.5456 76.1795 75.8688C76.1134 77.5558 75.9591 79.2484 75.7 80.9134C75.3804 82.9368 75.0001 84.9601 74.493 86.9504C73.2695 91.7525 71.4893 96.3506 69.1855 100.739C67.6257 103.716 65.8566 106.567 63.7236 109.174C62.1363 111.115 60.3782 112.879 58.2618 114.252C56.8894 115.14 55.4289 115.823 53.7975 116.105C52.7007 116.292 51.6205 116.182 50.5347 116.005C49.2119 115.796 48.049 115.256 47.2003 114.197C46.1255 112.857 45.883 111.358 46.4507 109.726C46.9302 108.336 47.8396 107.256 48.8757 106.263C48.997 106.148 49.1734 106.087 49.3222 106.004C49.3497 106.032 49.3773 106.059 49.4048 106.087L49.4104 106.07Z" fill="white"/>
<path d="M79.3819 112.586C79.0733 112.31 78.8143 112.056 78.5387 111.83C77.0451 110.584 75.32 109.812 73.4516 109.344C72.173 109.024 70.8722 108.859 69.5495 108.82C68.0063 108.776 66.4741 108.853 64.964 109.189C64.9419 109.189 64.9199 109.184 64.8262 109.162C64.8758 109.035 64.8868 108.892 64.964 108.804C66.441 107.039 67.6205 105.071 68.7669 103.086C69.0094 102.667 69.2133 102.232 69.4723 101.829C69.566 101.691 69.7865 101.532 69.9298 101.548C71.1644 101.68 72.4044 101.824 73.6335 102.017C75.2153 102.259 76.7695 102.629 78.2466 103.241C79.7788 103.875 80.6882 105.071 81.0795 106.653C81.3495 107.762 80.8976 108.754 80.4953 109.746C80.1425 110.617 79.8229 111.494 79.4867 112.371C79.4646 112.426 79.4371 112.475 79.3875 112.591L79.3819 112.586Z" fill="white"/>
<path d="M80.9686 104.4C81.167 104.472 81.2552 104.494 81.3324 104.538C83.1291 105.552 84.8873 106.627 86.3754 108.077C87.406 109.081 88.2989 110.178 88.7728 111.562C89.2689 113.017 89.0319 114.379 88.1666 115.62C86.1935 118.431 81.9386 118.062 80.4009 114.98C79.9325 114.037 79.9545 113.122 80.3238 112.185C80.671 111.297 81.1009 110.443 81.4095 109.544C81.6575 108.827 81.867 108.077 81.9276 107.328C81.9937 106.434 81.6906 105.591 81.178 104.836C81.1064 104.731 81.0678 104.604 80.9741 104.395L80.9686 104.4Z" fill="white"/>
<path d="M66.6947 77.9297C66.2042 77.5713 65.7743 77.2736 65.3609 76.9538C64.0878 75.9725 63.0902 74.7651 62.4178 73.3041C61.7344 71.8265 61.4753 70.2718 61.5635 68.6398C61.6076 67.7632 62.0099 67.1623 62.6438 66.644C63.0075 66.3463 63.4043 66.3684 63.8012 66.5613C64.446 66.8811 64.8208 67.449 65.157 68.0499C66.0499 69.6377 66.4412 71.3799 66.5845 73.1717C66.7002 74.6328 66.6947 76.1103 66.7388 77.5768C66.7388 77.654 66.7222 77.7367 66.7002 77.9297H66.6947Z" fill="white"/>
<path d="M50.8485 108.133C50.121 108.122 49.7076 107.587 49.8399 107.014C50.1045 105.856 50.832 104.991 51.7689 104.362C52.5075 103.866 53.3562 103.491 54.1995 103.199C55.3844 102.791 56.6135 102.51 57.826 102.184C57.9197 102.162 58.0355 102.223 58.1402 102.24C58.1126 102.322 58.1071 102.422 58.052 102.482C57.1536 103.48 56.2938 104.511 55.3459 105.454C54.2877 106.507 53.0476 107.323 51.6532 107.885C51.3501 108.006 51.0304 108.078 50.854 108.133H50.8485Z" fill="white"/>
<path d="M93.9319 121.378C86.9599 127.471 77.8439 131.17 67.8572 131.17C57.8704 131.17 48.782 127.482 41.81 121.406C21.1916 119.289 8.15697 114.603 0 109.051V138.756C0 153.587 34.0774 161.344 67.7414 161.344C101.405 161.344 135.483 153.587 135.483 138.756V109.051C127.359 114.581 114.401 119.25 93.9264 121.384L93.9319 121.378Z" fill="#33CFFF"/>
<path d="M28.1856 91.4896C28.1856 87.8509 28.6817 84.3334 29.6021 80.9924C15.8455 78.5224 6.41534 74.6907 0 70.3242V100.366C6.56966 106.872 18.5295 111.514 35.2072 114.022C30.787 107.621 28.1856 99.8588 28.1856 91.4896Z" fill="#33CFFF"/>
<path d="M106.101 80.9499C107.021 84.3075 107.528 87.836 107.528 91.4857C107.528 99.8383 104.943 107.584 100.534 113.98C117.08 111.466 128.951 106.835 135.488 100.362V70.3203C129.106 74.6648 119.742 78.4799 106.101 80.9444V80.9499Z" fill="#33CFFF"/>
<path d="M67.7414 45.1752C31.4043 45.1752 11.1552 39.1988 0 31.6016V61.6433C6.12324 67.7079 16.9312 72.1572 31.8838 74.7649C38.1944 61.2078 51.9235 51.8077 67.8571 51.8077C83.7908 51.8077 97.4978 61.1913 103.814 74.7263C118.656 72.1186 129.393 67.6804 135.488 61.6433V31.6016C124.333 39.1988 104.084 45.1752 67.7469 45.1752H67.7414Z" fill="#33CFFF"/>
<path d="M67.8574 131.17C89.7643 131.17 107.523 113.406 107.523 91.4915C107.523 69.5774 89.7643 51.8125 67.8574 51.8125C45.9505 51.8125 28.1914 69.5774 28.1914 91.4915C28.1914 113.406 45.9505 131.17 67.8574 131.17Z" stroke="white" stroke-width="8.25" stroke-miterlimit="10"/>
</g>
<defs>
<clipPath id="clip0_955_121492">
<rect width="200" height="176" fill="white"/>
</clipPath>
</defs>
</svg>
