<svg width="539" height="366" viewBox="0 0 539 366" fill="none" xmlns="http://www.w3.org/2000/svg">
<path d="M156.152 4.35938H382.221C400.546 4.35938 415.424 19.2231 415.424 37.5312V263.384C415.424 281.692 400.546 296.556 382.221 296.556H156.152C137.826 296.556 122.948 281.692 122.948 263.384V37.5312C122.948 19.2231 137.826 4.35938 156.152 4.35938Z" fill="#343433"/>
<path d="M382.221 8.72004C398.082 8.72004 411.06 21.6852 411.06 37.5319V263.385C411.06 279.232 398.082 292.197 382.221 292.197H156.152C140.29 292.197 127.312 279.232 127.312 263.385V37.5319C127.312 21.6852 140.29 8.72004 156.152 8.72004H382.221ZM382.221 0H156.152C135.438 0 118.584 16.8376 118.584 37.5319V263.385C118.584 284.079 135.438 300.917 156.152 300.917H382.221C402.935 300.917 419.788 284.079 419.788 263.385V37.5319C419.788 16.8376 402.935 0 382.221 0Z" fill="white"/>
<path d="M291.124 249.928C236.38 249.928 192 205.528 192 150.758C192 95.9892 236.38 51.5883 291.124 51.5883C318.734 51.5883 343.699 62.8935 361.673 81.1135C340.962 52.804 307.519 34.4062 269.763 34.4062C206.889 34.4062 155.916 85.4029 155.916 148.307C155.916 211.21 206.889 262.207 269.763 262.207C298.136 262.207 324.067 251.799 344.002 234.621C328.697 244.302 310.571 249.924 291.124 249.924V249.928Z" fill="#3F4546"/>
<path d="M325.204 67.5431C349.04 81.502 365.059 107.372 365.059 136.998C365.059 181.427 329.06 217.443 284.651 217.443C243.339 217.443 209.318 186.266 204.777 146.147C204.692 147.722 204.647 149.305 204.647 150.9C204.647 200.116 244.526 240.009 293.715 240.009C342.903 240.009 382.782 200.112 382.782 150.9C382.782 112.78 358.85 80.2701 325.204 67.5391V67.5431Z" fill="#3F4546"/>
<path d="M282.253 73.6953C252.362 73.6953 227.126 93.5875 219.02 120.859C228.091 100.636 248.378 86.5434 271.967 86.5434C304.009 86.5434 329.988 112.531 329.988 144.592C329.988 176.654 304.013 202.641 271.967 202.641C266.73 202.641 261.66 201.934 256.831 200.634C264.655 203.905 273.242 205.719 282.253 205.719C318.692 205.719 348.232 176.165 348.232 139.709C348.232 103.253 318.692 73.6994 282.253 73.6994V73.6953Z" fill="#3F4546"/>
<path d="M243.578 77.9961C216.683 77.9961 189.456 84.196 189.456 96.0465V96.3131C197.655 104.436 216.368 108.935 243.578 108.935C270.788 108.935 289.496 104.431 297.7 96.3131V96.0465C297.7 84.196 270.473 77.9961 243.578 77.9961Z" fill="#33CFFF"/>
<path d="M324.144 95.8835H330.599C331.689 95.8835 332.569 94.9989 332.569 93.9125C332.569 92.826 331.685 91.9414 330.599 91.9414H324.144C323.054 91.9414 322.174 92.826 322.174 93.9125C322.174 94.9989 323.058 95.8835 324.144 95.8835Z" fill="#33CFFF"/>
<path d="M324.144 103.774H339.905C340.995 103.774 341.875 102.89 341.875 101.803C341.875 100.717 340.991 99.832 339.905 99.832H324.144C323.054 99.832 322.174 100.717 322.174 101.803C322.174 102.89 323.058 103.774 324.144 103.774Z" fill="#33CFFF"/>
<path d="M324.144 111.653H335.569C336.659 111.653 337.539 110.768 337.539 109.682C337.539 108.595 336.655 107.711 335.569 107.711H324.144C323.054 107.711 322.174 108.595 322.174 109.682C322.174 110.768 323.058 111.653 324.144 111.653Z" fill="#33CFFF"/>
<path d="M324.144 145.423H330.599C331.689 145.423 332.569 144.538 332.569 143.452C332.569 142.365 331.685 141.48 330.599 141.48H324.144C323.054 141.48 322.174 142.365 322.174 143.452C322.174 144.538 323.058 145.423 324.144 145.423Z" fill="#33CFFF"/>
<path d="M324.144 153.305H339.905C340.995 153.305 341.875 152.421 341.875 151.334C341.875 150.248 340.991 149.363 339.905 149.363H324.144C323.054 149.363 322.174 150.248 322.174 151.334C322.174 152.421 323.058 153.305 324.144 153.305Z" fill="#33CFFF"/>
<path d="M324.144 161.192H335.569C336.659 161.192 337.539 160.308 337.539 159.221C337.539 158.135 336.655 157.25 335.569 157.25H324.144C323.054 157.25 322.174 158.135 322.174 159.221C322.174 160.308 323.058 161.192 324.144 161.192Z" fill="#33CFFF"/>
<path d="M322.985 194.778H329.44C330.53 194.778 331.41 193.893 331.41 192.807C331.41 191.72 330.526 190.836 329.44 190.836H322.985C321.895 190.836 321.015 191.72 321.015 192.807C321.015 193.893 321.899 194.778 322.985 194.778Z" fill="#33CFFF"/>
<path d="M322.985 202.661H338.746C339.836 202.661 340.716 201.776 340.716 200.69C340.716 199.603 339.832 198.719 338.746 198.719H322.985C321.895 198.719 321.015 199.603 321.015 200.69C321.015 201.776 321.899 202.661 322.985 202.661Z" fill="#33CFFF"/>
<path d="M334.41 206.605H322.985C321.895 206.605 321.015 207.49 321.015 208.577C321.015 209.663 321.899 210.548 322.985 210.548H334.41C335.5 210.548 336.38 209.663 336.38 208.577C336.38 207.49 335.496 206.605 334.41 206.605Z" fill="#33CFFF"/>
<path d="M344.644 183.141H318.374C315.839 183.141 313.776 185.205 313.776 187.741V198.909H306.715C304.208 198.909 301.758 198.033 299.816 196.445L295.649 193.036V198.13L297.321 199.495C299.965 201.66 303.3 202.851 306.715 202.851H313.776V214.019C313.776 216.556 315.839 218.62 318.374 218.62H328.455C329.545 218.62 330.425 217.735 330.425 216.648C330.425 215.562 329.545 214.677 328.455 214.677H318.374C318.011 214.677 317.716 214.383 317.716 214.019V187.737C317.716 187.374 318.011 187.079 318.374 187.079H344.644C345.007 187.079 345.302 187.374 345.302 187.737V214.019C345.302 214.383 345.007 214.677 344.644 214.677H337.801C336.711 214.677 335.831 215.558 335.831 216.648C335.831 217.739 336.711 218.62 337.801 218.62H344.644C347.179 218.62 349.242 216.556 349.242 214.019V187.737C349.242 185.201 347.179 183.137 344.644 183.137V183.141Z" fill="#33CFFF"/>
<path d="M344.644 133.598H318.374C315.839 133.598 313.776 135.662 313.776 138.198V149.366H295.649V153.308H313.776V164.476C313.776 167.013 315.839 169.077 318.374 169.077H344.644C347.179 169.077 349.242 167.013 349.242 164.476V138.194C349.242 135.658 347.179 133.594 344.644 133.594V133.598ZM345.298 164.48C345.298 164.844 345.003 165.138 344.64 165.138H318.37C318.007 165.138 317.712 164.844 317.712 164.48V138.198C317.712 137.835 318.007 137.54 318.37 137.54H344.64C345.003 137.54 345.298 137.835 345.298 138.198V164.48Z" fill="#33CFFF"/>
<path d="M344.644 84.0587H318.374C315.839 84.0587 313.776 86.1227 313.776 88.6592V99.8271H307.341C303.461 99.8271 299.792 101.317 297.006 104.02L295.649 105.336V110.829L299.751 106.847C301.798 104.86 304.491 103.769 307.341 103.769H313.776V114.937C313.776 117.474 315.839 119.537 318.374 119.537H344.644C347.179 119.537 349.242 117.474 349.242 114.937V88.6551C349.242 86.1186 347.179 84.0547 344.644 84.0547V84.0587ZM345.298 114.937C345.298 115.301 345.003 115.595 344.64 115.595H318.37C318.007 115.595 317.712 115.301 317.712 114.937V88.6551C317.712 88.2916 318.007 87.9968 318.37 87.9968H344.64C345.003 87.9968 345.298 88.2916 345.298 88.6551V114.937Z" fill="#33CFFF"/>
<path d="M228.931 162.745C228.895 162.826 228.859 162.907 228.822 162.987C228.592 163.521 228.552 164.042 228.943 164.522C229.347 165.015 229.888 165.104 230.453 164.942C231.781 164.563 232.888 163.795 233.913 162.886C235.423 161.55 236.574 159.926 237.643 158.238C238.705 156.565 239.569 154.792 240.328 152.967C241.136 151.024 241.83 149.037 242.298 146.985C242.605 145.632 242.9 144.275 243.106 142.901C243.267 141.819 243.32 140.716 243.352 139.618C243.38 138.616 243.372 137.606 243.287 136.609C243.158 135.098 242.872 133.612 242.165 132.246C241.83 131.6 241.438 130.994 240.748 130.647C240.227 130.384 239.727 130.368 239.222 130.683C239.121 130.744 239.012 130.792 238.879 130.857C238.867 130.772 238.846 130.724 238.863 130.687C239.291 129.617 239.84 128.628 240.809 127.941C242.044 127.064 243.364 126.818 244.834 127.319C246.812 127.993 248.176 129.314 249.056 131.176C249.694 132.525 250.058 133.947 250.171 135.425C250.251 136.483 250.36 137.546 250.32 138.6C250.268 139.945 250.146 141.298 249.937 142.631C249.682 144.25 249.375 145.866 248.972 147.453C247.995 151.29 246.57 154.962 244.733 158.472C243.485 160.851 242.072 163.125 240.368 165.209C239.101 166.76 237.696 168.17 236.004 169.264C234.906 169.975 233.744 170.52 232.44 170.746C231.563 170.896 230.7 170.807 229.836 170.67C228.778 170.5 227.853 170.072 227.171 169.224C226.311 168.153 226.121 166.958 226.574 165.649C226.957 164.538 227.684 163.678 228.511 162.882C228.608 162.79 228.75 162.741 228.871 162.676C228.891 162.701 228.915 162.721 228.935 162.745H228.931Z" fill="white"/>
<path d="M252.876 167.955C252.63 167.733 252.42 167.535 252.202 167.349C251.011 166.355 249.63 165.737 248.136 165.362C247.115 165.103 246.073 164.974 245.02 164.946C243.784 164.909 242.565 164.974 241.358 165.241C241.342 165.241 241.322 165.233 241.249 165.22C241.285 165.119 241.297 165.006 241.358 164.934C242.541 163.524 243.482 161.953 244.398 160.366C244.592 160.034 244.753 159.683 244.963 159.36C245.036 159.247 245.213 159.122 245.331 159.134C246.32 159.239 247.305 159.356 248.286 159.505C249.549 159.699 250.789 159.994 251.972 160.483C253.195 160.988 253.922 161.945 254.232 163.209C254.45 164.094 254.087 164.885 253.768 165.681C253.486 166.376 253.231 167.078 252.961 167.777C252.945 167.822 252.924 167.862 252.88 167.955H252.876Z" fill="white"/>
<path d="M254.143 161.41C254.3 161.467 254.373 161.483 254.433 161.519C255.867 162.331 257.272 163.187 258.462 164.347C259.282 165.146 260.001 166.023 260.376 167.134C260.772 168.297 260.586 169.383 259.892 170.373C258.313 172.623 254.914 172.328 253.691 169.86C253.315 169.109 253.335 168.378 253.626 167.63C253.905 166.924 254.248 166.241 254.494 165.522C254.692 164.948 254.861 164.351 254.906 163.749C254.958 163.038 254.716 162.359 254.308 161.758C254.252 161.677 254.223 161.576 254.147 161.406L254.143 161.41Z" fill="white"/>
<path d="M242.738 140.259C242.347 139.972 242.004 139.734 241.673 139.48C240.655 138.696 239.86 137.731 239.323 136.563C238.778 135.384 238.572 134.14 238.641 132.835C238.677 132.137 239 131.652 239.505 131.24C239.795 131.002 240.114 131.018 240.429 131.175C240.942 131.43 241.241 131.886 241.515 132.367C242.23 133.639 242.541 135.028 242.654 136.458C242.746 137.626 242.738 138.805 242.775 139.976C242.775 140.041 242.763 140.102 242.742 140.259H242.738Z" fill="white"/>
<path d="M230.083 164.396C229.501 164.388 229.174 163.959 229.279 163.499C229.493 162.574 230.071 161.883 230.817 161.383C231.407 160.987 232.085 160.684 232.759 160.45C233.704 160.122 234.685 159.9 235.654 159.638C235.727 159.617 235.819 159.666 235.904 159.682C235.88 159.747 235.876 159.827 235.836 159.876C235.121 160.672 234.431 161.496 233.672 162.251C232.828 163.091 231.835 163.745 230.725 164.194C230.482 164.291 230.228 164.347 230.083 164.392V164.396Z" fill="white"/>
<path d="M264.498 174.984C258.927 179.851 251.644 182.808 243.667 182.808C235.689 182.808 228.427 179.859 222.859 175.004C206.384 173.312 195.972 169.568 189.456 165.129V188.866C189.456 200.717 216.683 206.913 243.578 206.913C270.473 206.913 297.7 200.713 297.7 188.866V165.129C291.208 169.548 280.857 173.28 264.502 174.984H264.498Z" fill="#33CFFF"/>
<path d="M211.975 151.099C211.975 148.195 212.375 145.384 213.106 142.71C202.117 140.739 194.579 137.677 189.456 134.188V158.191C194.704 163.39 204.26 167.097 217.583 169.101C214.05 163.987 211.975 157.788 211.975 151.099Z" fill="#33CFFF"/>
<path d="M274.22 142.678C274.959 145.359 275.359 148.183 275.359 151.099C275.359 157.771 273.292 163.963 269.771 169.073C282.989 167.065 292.476 163.365 297.696 158.191V134.188C292.597 137.661 285.117 140.706 274.22 142.678Z" fill="#33CFFF"/>
<path d="M243.578 114.091C214.551 114.091 198.37 109.317 189.456 103.246V127.25C194.349 132.097 202.985 135.651 214.926 137.731C219.969 126.903 230.938 119.39 243.667 119.39C256.396 119.39 267.345 126.886 272.391 137.703C284.252 135.619 292.823 132.073 297.696 127.25V103.246C288.786 109.317 272.605 114.091 243.574 114.091H243.578Z" fill="#33CFFF"/>
<path d="M243.666 182.807C261.169 182.807 275.358 168.612 275.358 151.101C275.358 133.59 261.169 119.395 243.666 119.395C226.163 119.395 211.975 133.59 211.975 151.101C211.975 168.612 226.163 182.807 243.666 182.807Z" stroke="white" stroke-width="9" stroke-miterlimit="10"/>
<path d="M0 315.981C0 305.2 8.6221 296.461 19.258 296.461H518.762C529.398 296.461 538.02 305.2 538.02 315.981V346.481C538.02 357.262 529.398 366.001 518.762 366.001H19.258C8.62211 366.001 0 357.262 0 346.481V315.981Z" fill="white"/>
<g clip-path="url(#clip0_958_122448)">
<path d="M31.457 351.774C27.8738 349.775 25.0274 346.987 22.9235 343.404C20.8195 339.82 19.7646 335.788 19.7646 331.314C19.7646 326.841 20.8195 322.821 22.9235 319.261C25.0274 315.7 27.8738 312.918 31.457 310.92C35.0401 308.928 38.9827 307.926 43.2789 307.926C47.5751 307.926 51.5178 308.928 55.1009 310.92C58.684 312.918 61.5069 315.7 63.5696 319.261C65.6322 322.821 66.6635 326.841 66.6635 331.314C66.6635 335.788 65.6204 339.82 63.5342 343.404C61.448 346.987 58.6251 349.781 55.0655 351.774C51.506 353.772 47.5751 354.768 43.273 354.768C38.9709 354.768 35.0342 353.772 31.4511 351.774H31.457ZM52.0423 340.958C54.2346 338.523 55.3307 335.311 55.3307 331.314C55.3307 327.318 54.2346 324.053 52.0423 321.642C49.85 319.231 46.9269 318.029 43.2789 318.029C39.631 318.029 36.6431 319.225 34.4508 321.612C32.2584 324 31.1623 327.236 31.1623 331.32C31.1623 335.405 32.2584 338.588 34.4508 340.999C36.6431 343.41 39.5838 344.612 43.2789 344.612C46.974 344.612 49.85 343.398 52.0423 340.963V340.958Z" fill="#333333"/>
<path d="M93.8969 354.314L84.3852 337.05H81.7155V354.314H70.5771V308.574H89.2707C92.8774 308.574 95.9478 309.205 98.4878 310.466C101.028 311.728 102.925 313.455 104.187 315.647C105.448 317.84 106.078 320.286 106.078 322.98C106.078 326.021 105.218 328.739 103.503 331.126C101.788 333.513 99.2599 335.211 95.9125 336.207L106.467 354.32H93.8969V354.314ZM81.7155 329.169H88.6224C90.6615 329.169 92.1938 328.668 93.2133 327.672C94.2329 326.676 94.7456 325.261 94.7456 323.434C94.7456 321.607 94.2329 320.327 93.2133 319.331C92.1938 318.329 90.6615 317.834 88.6224 317.834H81.7155V329.169Z" fill="#333333"/>
<path d="M162.56 308.574V354.314H151.421V326.882L141.197 354.314H132.209L121.914 326.817V354.314H110.775V308.574H123.935L136.771 340.238L149.465 308.574H162.56Z" fill="#333333"/>
<path d="M190.96 317.504V326.758H205.876V335.358H190.96V345.39H207.832V354.314H179.821V308.574H207.832V317.498H190.96V317.504Z" fill="#333333"/>
<path d="M240.793 354.314L231.475 340.303L223.266 354.314H210.631L225.287 331.055L210.307 308.574H223.272L232.46 322.39L240.539 308.574H253.175L238.648 331.639L253.764 354.314H240.799H240.793Z" fill="#333333"/>
<path d="M289.978 308.574V317.498H277.861V354.314H266.723V317.504H254.606V308.574H289.978Z" fill="#333333"/>
<path d="M304.441 317.504V326.758H319.357V335.358H304.441V345.39H321.314V354.314H293.303V308.574H321.314V317.498H304.441V317.504Z" fill="#333333"/>
<path d="M367.175 354.314H356.037L337.408 326.104V354.314H326.27V308.574H337.408L356.037 336.914V308.574H367.175V354.314Z" fill="#333333"/>
<path d="M380.529 353.143C377.877 352.058 375.761 350.449 374.176 348.321C372.59 346.194 371.753 343.629 371.665 340.635H383.522C383.693 342.327 384.283 343.624 385.279 344.514C386.275 345.404 387.583 345.852 389.186 345.852C390.789 345.852 392.138 345.474 393.093 344.714C394.048 343.954 394.525 342.899 394.525 341.555C394.525 340.423 394.142 339.492 393.388 338.755C392.628 338.018 391.696 337.411 390.588 336.934C389.48 336.456 387.907 335.914 385.868 335.307C382.915 334.393 380.505 333.479 378.637 332.572C376.769 331.658 375.16 330.314 373.816 328.534C372.467 326.754 371.795 324.432 371.795 321.561C371.795 317.305 373.333 313.969 376.421 311.559C379.503 309.148 383.522 307.945 388.473 307.945C393.423 307.945 397.572 309.148 400.654 311.559C403.736 313.969 405.387 317.323 405.605 321.626H393.553C393.464 320.152 392.922 318.985 391.926 318.142C390.924 317.294 389.645 316.869 388.084 316.869C386.734 316.869 385.65 317.229 384.825 317.942C384 318.661 383.587 319.693 383.587 321.037C383.587 322.516 384.283 323.665 385.673 324.491C387.064 325.316 389.233 326.206 392.186 327.161C395.138 328.163 397.537 329.118 399.381 330.025C401.226 330.939 402.823 332.265 404.167 333.998C405.51 335.737 406.188 337.971 406.188 340.706C406.188 343.441 405.528 345.681 404.202 347.809C402.876 349.936 400.955 351.634 398.438 352.889C395.922 354.151 392.946 354.782 389.516 354.782C386.086 354.782 383.175 354.239 380.529 353.155V353.143Z" fill="#333333"/>
<path d="M421.894 308.574V354.314H410.756V308.574H421.894Z" fill="#333333"/>
<path d="M517.525 354.314H506.386L487.757 326.104V354.314H476.619V308.574H487.757L506.386 336.914V308.574H517.525V354.314Z" fill="#333333"/>
<path d="M454.048 352.267C442.809 352.288 433.658 343.191 433.636 331.937C433.615 320.683 442.698 311.517 453.937 311.496C459.402 311.475 464.643 313.677 468.485 317.568C460.89 307.113 446.274 304.799 435.811 312.406C425.349 320.013 423.063 334.65 430.658 345.126C438.256 355.602 452.87 357.894 463.332 350.287C463.842 349.909 464.355 349.509 464.82 349.109C461.622 351.2 457.867 352.291 454.048 352.267Z" fill="#343433"/>
<path d="M460.979 314.768C468.864 319.374 471.507 329.492 466.93 337.367C462.332 345.262 452.226 347.909 444.364 343.327C439.856 340.702 436.856 336.075 436.28 330.893V331.848C436.28 341.99 444.475 350.198 454.604 350.198C464.734 350.198 472.929 341.99 472.929 331.848C472.818 324.241 468.087 317.457 460.979 314.766V314.768Z" fill="#343433"/>
<path d="M452.204 316.035C446.184 316.014 440.899 319.995 439.21 325.778C441.942 319.773 449.027 317.126 455.024 319.862C461.02 322.599 463.662 329.695 460.933 335.701C459.001 339.973 454.736 342.686 450.071 342.686C449.027 342.665 447.984 342.53 446.961 342.286C448.626 342.998 450.404 343.353 452.225 343.332C459.754 343.287 465.795 337.125 465.753 329.584C465.663 322.133 459.646 316.104 452.204 316.038V316.035Z" fill="#343433"/>
</g>
<defs>
<clipPath id="clip0_958_122448">
<rect width="497.76" height="46.848" fill="white" transform="translate(19.7646 307.926)"/>
</clipPath>
</defs>
</svg>
