<svg width="294" height="200" viewBox="0 0 294 200" fill="none" xmlns="http://www.w3.org/2000/svg">
<path d="M85.3286 2.38281H208.863C218.877 2.38281 227.007 10.505 227.007 20.5094V143.926C227.007 153.931 218.877 162.053 208.863 162.053H85.3286C75.3146 162.053 67.1846 153.931 67.1846 143.926V20.5094C67.1846 10.505 75.3146 2.38281 85.3286 2.38281Z" fill="#343433"/>
<path d="M208.863 4.76504C217.531 4.76504 224.623 11.8498 224.623 20.5092V143.926C224.623 152.585 217.531 159.67 208.863 159.67H85.3286C76.6609 159.67 69.5694 152.585 69.5694 143.926V20.5092C69.5694 11.8498 76.6609 4.76504 85.3286 4.76504H208.863ZM208.863 0H85.3286C74.0095 0 64.7998 9.20086 64.7998 20.5092V143.926C64.7998 155.234 74.0095 164.435 85.3286 164.435H208.863C220.183 164.435 229.392 155.234 229.392 143.926V20.5092C229.392 9.20086 220.183 0 208.863 0Z" fill="white"/>
<path d="M159.084 136.572C129.17 136.572 104.918 112.309 104.918 82.381C104.918 52.4526 129.17 28.1898 159.084 28.1898C174.172 28.1898 187.814 34.3675 197.636 44.3238C186.318 28.8542 168.043 18.8008 147.412 18.8008C113.054 18.8008 85.2002 46.6678 85.2002 81.0413C85.2002 115.415 113.054 143.282 147.412 143.282C162.916 143.282 177.086 137.594 187.98 128.207C179.616 133.498 169.711 136.57 159.084 136.57V136.572Z" fill="#3F4546"/>
<path d="M177.707 36.9085C190.732 44.5362 199.486 58.6728 199.486 74.8619C199.486 99.1401 179.814 118.821 155.547 118.821C132.972 118.821 114.382 101.784 111.9 79.861C111.853 80.7218 111.829 81.587 111.829 82.4588C111.829 109.352 133.621 131.152 160.5 131.152C187.379 131.152 209.17 109.35 209.17 82.4588C209.17 61.6281 196.093 43.8631 177.707 36.9062V36.9085Z" fill="#3F4546"/>
<path d="M154.237 40.2695C137.903 40.2695 124.112 51.1395 119.683 66.042C124.64 54.991 135.725 47.2903 148.615 47.2903C166.125 47.2903 180.321 61.4909 180.321 79.0109C180.321 96.531 166.127 110.732 148.615 110.732C145.754 110.732 142.983 110.345 140.345 109.635C144.62 111.422 149.313 112.413 154.237 112.413C174.149 112.413 190.291 96.2639 190.291 76.3425C190.291 56.4212 174.149 40.2717 154.237 40.2717V40.2695Z" fill="#3F4546"/>
<path d="M133.103 42.6211C118.406 42.6211 103.528 46.009 103.528 52.4847V52.6303C108.009 57.0688 118.234 59.5276 133.103 59.5276C147.972 59.5276 158.195 57.0666 162.678 52.6303V52.4847C162.678 46.009 147.8 42.6211 133.103 42.6211Z" fill="#33CFFF"/>
<path d="M177.127 52.3963H180.655C181.251 52.3963 181.731 51.913 181.731 51.3193C181.731 50.7255 181.248 50.2422 180.655 50.2422H177.127C176.532 50.2422 176.051 50.7255 176.051 51.3193C176.051 51.913 176.534 52.3963 177.127 52.3963Z" fill="#33CFFF"/>
<path d="M177.127 56.7088H185.74C186.336 56.7088 186.816 56.2255 186.816 55.6318C186.816 55.038 186.333 54.5547 185.74 54.5547H177.127C176.532 54.5547 176.051 55.038 176.051 55.6318C176.051 56.2255 176.534 56.7088 177.127 56.7088Z" fill="#33CFFF"/>
<path d="M177.127 61.0135H183.371C183.966 61.0135 184.447 60.5302 184.447 59.9364C184.447 59.3427 183.964 58.8594 183.371 58.8594H177.127C176.532 58.8594 176.051 59.3427 176.051 59.9364C176.051 60.5302 176.534 61.0135 177.127 61.0135Z" fill="#33CFFF"/>
<path d="M177.127 79.4666H180.655C181.251 79.4666 181.731 78.9833 181.731 78.3896C181.731 77.7959 181.248 77.3125 180.655 77.3125H177.127C176.532 77.3125 176.051 77.7959 176.051 78.3896C176.051 78.9833 176.534 79.4666 177.127 79.4666Z" fill="#33CFFF"/>
<path d="M177.127 83.7713H185.74C186.336 83.7713 186.816 83.288 186.816 82.6943C186.816 82.1005 186.333 81.6172 185.74 81.6172H177.127C176.532 81.6172 176.051 82.1005 176.051 82.6943C176.051 83.288 176.534 83.7713 177.127 83.7713Z" fill="#33CFFF"/>
<path d="M177.127 88.0838H183.371C183.966 88.0838 184.447 87.6005 184.447 87.0068C184.447 86.413 183.964 85.9297 183.371 85.9297H177.127C176.532 85.9297 176.051 86.413 176.051 87.0068C176.051 87.6005 176.534 88.0838 177.127 88.0838Z" fill="#33CFFF"/>
<path d="M176.495 106.435H180.022C180.618 106.435 181.099 105.952 181.099 105.358C181.099 104.765 180.616 104.281 180.022 104.281H176.495C175.899 104.281 175.418 104.765 175.418 105.358C175.418 105.952 175.901 106.435 176.495 106.435Z" fill="#33CFFF"/>
<path d="M176.495 110.744H185.107C185.703 110.744 186.184 110.261 186.184 109.667C186.184 109.073 185.701 108.59 185.107 108.59H176.495C175.899 108.59 175.418 109.073 175.418 109.667C175.418 110.261 175.901 110.744 176.495 110.744Z" fill="#33CFFF"/>
<path d="M182.738 112.898H176.495C175.899 112.898 175.418 113.382 175.418 113.976C175.418 114.569 175.901 115.053 176.495 115.053H182.738C183.333 115.053 183.814 114.569 183.814 113.976C183.814 113.382 183.331 112.898 182.738 112.898Z" fill="#33CFFF"/>
<path d="M188.33 100.076H173.975C172.589 100.076 171.462 101.204 171.462 102.59V108.693H167.604C166.234 108.693 164.894 108.214 163.833 107.347L161.557 105.484V108.267L162.47 109.013C163.915 110.196 165.737 110.847 167.604 110.847H171.462V116.95C171.462 118.336 172.589 119.464 173.975 119.464H179.483C180.079 119.464 180.56 118.98 180.56 118.387C180.56 117.793 180.079 117.31 179.483 117.31H173.975C173.776 117.31 173.615 117.148 173.615 116.95V102.588C173.615 102.389 173.776 102.228 173.975 102.228H188.33C188.528 102.228 188.689 102.389 188.689 102.588V116.95C188.689 117.148 188.528 117.31 188.33 117.31H184.59C183.995 117.31 183.514 117.791 183.514 118.387C183.514 118.983 183.995 119.464 184.59 119.464H188.33C189.715 119.464 190.842 118.336 190.842 116.95V102.588C190.842 101.202 189.715 100.074 188.33 100.074V100.076Z" fill="#33CFFF"/>
<path d="M188.33 73.0022H173.975C172.589 73.0022 171.462 74.13 171.462 75.5161V81.6188H161.557V83.7729H171.462V89.8756C171.462 91.2616 172.589 92.3895 173.975 92.3895H188.33C189.715 92.3895 190.842 91.2616 190.842 89.8756V75.5139C190.842 74.1278 189.715 73 188.33 73V73.0022ZM188.687 89.8778C188.687 90.0764 188.526 90.2375 188.328 90.2375H173.972C173.774 90.2375 173.613 90.0764 173.613 89.8778V75.5161C173.613 75.3175 173.774 75.1563 173.972 75.1563H188.328C188.526 75.1563 188.687 75.3175 188.687 75.5161V89.8778Z" fill="#33CFFF"/>
<path d="M188.33 45.9319H173.975C172.589 45.9319 171.462 47.0597 171.462 48.4458V54.5485H167.945C165.825 54.5485 163.82 55.3629 162.298 56.8394L161.557 57.5589V60.5606L163.798 58.3844C164.917 57.2985 166.388 56.7026 167.945 56.7026H171.462V62.8053C171.462 64.1913 172.589 65.3191 173.975 65.3191H188.33C189.715 65.3191 190.842 64.1913 190.842 62.8053V48.4436C190.842 47.0575 189.715 45.9297 188.33 45.9297V45.9319ZM188.687 62.8053C188.687 63.0039 188.526 63.165 188.328 63.165H173.972C173.774 63.165 173.613 63.0039 173.613 62.8053V48.4436C173.613 48.2449 173.774 48.0838 173.972 48.0838H188.328C188.526 48.0838 188.687 48.2449 188.687 48.4436V62.8053Z" fill="#33CFFF"/>
<path d="M125.099 88.9322C125.079 88.9764 125.059 89.0205 125.039 89.0647C124.914 89.356 124.892 89.6407 125.106 89.9034C125.326 90.1726 125.622 90.2212 125.931 90.1329C126.656 89.9254 127.261 89.5061 127.821 89.0095C128.646 88.2789 129.275 87.3917 129.86 86.4691C130.44 85.5554 130.912 84.5864 131.327 83.5888C131.768 82.5272 132.147 81.4413 132.403 80.3201C132.571 79.5807 132.732 78.8391 132.844 78.0887C132.933 77.4972 132.961 76.8947 132.979 76.2943C132.994 75.747 132.99 75.1952 132.944 74.65C132.873 73.8246 132.716 73.0124 132.33 72.2664C132.147 71.9132 131.933 71.5822 131.556 71.3923C131.272 71.2489 130.998 71.24 130.722 71.4122C130.667 71.4453 130.607 71.4718 130.535 71.5071C130.528 71.4608 130.517 71.4343 130.526 71.4144C130.76 70.8295 131.06 70.2888 131.589 69.9136C132.264 69.4346 132.986 69.3 133.789 69.5737C134.87 69.9423 135.615 70.664 136.096 71.6815C136.445 72.4186 136.643 73.1956 136.705 74.0034C136.749 74.5816 136.809 75.1621 136.787 75.7381C136.758 76.4731 136.692 77.2125 136.577 77.9408C136.438 78.8259 136.271 79.7087 136.05 80.5761C135.516 82.6729 134.737 84.6791 133.734 86.5971C133.052 87.8971 132.28 89.1397 131.349 90.2786C130.656 91.1261 129.888 91.8964 128.964 92.4945C128.364 92.883 127.729 93.1809 127.016 93.3045C126.537 93.3862 126.065 93.3376 125.593 93.2626C125.015 93.1699 124.51 92.9359 124.137 92.4725C123.667 91.8876 123.563 91.2343 123.811 90.5192C124.02 89.9122 124.417 89.4421 124.869 89.0073C124.922 88.9565 125 88.93 125.066 88.8947C125.077 88.908 125.09 88.919 125.101 88.9322H125.099Z" fill="white"/>
<path d="M138.184 91.7778C138.049 91.6564 137.934 91.5483 137.815 91.4467C137.164 90.9038 136.41 90.5661 135.594 90.3608C135.036 90.2196 134.466 90.149 133.891 90.1335C133.215 90.1136 132.549 90.149 131.89 90.2946C131.881 90.2946 131.87 90.2902 131.83 90.2836C131.85 90.2284 131.857 90.1666 131.89 90.1269C132.536 89.3566 133.05 88.498 133.551 87.6306C133.657 87.4497 133.745 87.2576 133.86 87.0811C133.899 87.0193 133.996 86.9509 134.06 86.9575C134.601 87.0149 135.139 87.0789 135.675 87.1605C136.366 87.2665 137.043 87.4276 137.689 87.6947C138.358 87.9705 138.755 88.4936 138.925 89.1844C139.044 89.6678 138.845 90.1004 138.671 90.5352C138.517 90.9148 138.378 91.2989 138.23 91.6807C138.221 91.705 138.21 91.727 138.186 91.7778H138.184Z" fill="white"/>
<path d="M138.876 88.2014C138.962 88.2323 139.002 88.2412 139.035 88.261C139.818 88.7046 140.586 89.1726 141.237 89.806C141.684 90.243 142.077 90.7219 142.282 91.3289C142.498 91.9645 142.397 92.5583 142.017 93.099C141.155 94.3284 139.297 94.1672 138.629 92.8187C138.424 92.4082 138.435 92.0087 138.594 91.6004C138.746 91.2141 138.933 90.8411 139.068 90.4483C139.176 90.1349 139.269 89.8082 139.293 89.4793C139.322 89.0909 139.189 88.7201 138.966 88.3912C138.936 88.3471 138.92 88.2919 138.878 88.1992L138.876 88.2014Z" fill="white"/>
<path d="M132.644 76.6447C132.43 76.488 132.242 76.3578 132.061 76.2188C131.505 75.7906 131.071 75.2631 130.777 74.6252C130.479 73.9808 130.367 73.301 130.404 72.5881C130.424 72.2062 130.601 71.9414 130.877 71.7163C131.035 71.586 131.21 71.5949 131.382 71.6809C131.662 71.82 131.825 72.0694 131.975 72.332C132.366 73.0273 132.536 73.7865 132.597 74.5678C132.648 75.2057 132.644 75.8502 132.663 76.4902C132.663 76.5256 132.657 76.5587 132.646 76.6447H132.644Z" fill="white"/>
<path d="M125.728 89.8331C125.41 89.8287 125.232 89.5947 125.289 89.3431C125.406 88.8377 125.721 88.4603 126.129 88.1866C126.452 87.9703 126.822 87.8048 127.191 87.6767C127.707 87.498 128.243 87.3766 128.772 87.2331C128.812 87.2221 128.863 87.2486 128.909 87.2574C128.896 87.2927 128.894 87.3368 128.872 87.3633C128.481 87.7981 128.104 88.2484 127.689 88.6611C127.228 89.1202 126.685 89.4777 126.079 89.7227C125.946 89.7757 125.807 89.8066 125.728 89.8309V89.8331Z" fill="white"/>
<path d="M144.535 95.6197C141.491 98.2793 137.511 99.8949 133.152 99.8949C128.792 99.8949 124.824 98.2837 121.781 95.6308C112.778 94.706 107.089 92.66 103.528 90.2344V103.206C103.528 109.681 118.406 113.067 133.103 113.067C147.8 113.067 162.678 109.679 162.678 103.206V90.2344C159.131 92.649 153.474 94.6883 144.537 95.6197H144.535Z" fill="#33CFFF"/>
<path d="M115.834 82.5693C115.834 80.9824 116.052 79.4462 116.452 77.9851C110.447 76.9081 106.328 75.2351 103.528 73.3281V86.445C106.396 89.2855 111.618 91.3117 118.898 92.4064C116.968 89.6122 115.834 86.2243 115.834 82.5693Z" fill="#33CFFF"/>
<path d="M149.847 77.9675C150.251 79.433 150.469 80.9758 150.469 82.5693C150.469 86.2154 149.34 89.5989 147.416 92.3909C154.639 91.294 159.823 89.2723 162.676 86.445V73.3281C159.889 75.2262 155.801 76.8904 149.847 77.9675Z" fill="#33CFFF"/>
<path d="M133.103 62.3441C117.241 62.3441 108.399 59.7353 103.528 56.418V69.5348C106.202 72.1834 110.921 74.1256 117.447 75.2623C120.202 69.345 126.196 65.2398 133.152 65.2398C140.107 65.2398 146.09 69.3362 148.848 75.2468C155.329 74.108 160.013 72.1701 162.676 69.5348V56.418C157.807 59.7353 148.965 62.3441 133.101 62.3441H133.103Z" fill="#33CFFF"/>
<path d="M133.151 99.8938C142.715 99.8938 150.469 92.1368 150.469 82.568C150.469 72.9992 142.715 65.2422 133.151 65.2422C123.586 65.2422 115.833 72.9992 115.833 82.568C115.833 92.1368 123.586 99.8938 133.151 99.8938Z" stroke="white" stroke-width="9" stroke-miterlimit="10"/>
<path d="M0 172.667C0 166.776 4.71153 162 10.5235 162H283.477C289.288 162 294 166.776 294 172.667V189.333C294 195.224 289.288 200 283.477 200H10.5235C4.71153 200 0 195.224 0 189.333V172.667Z" fill="white"/>
<g clip-path="url(#clip0_958_122504)">
<path d="M17.19 192.226C15.232 191.134 13.6766 189.611 12.5269 187.652C11.3772 185.694 10.8008 183.491 10.8008 181.046C10.8008 178.602 11.3772 176.405 12.5269 174.459C13.6766 172.514 15.232 170.994 17.19 169.902C19.148 168.813 21.3025 168.266 23.6501 168.266C25.9978 168.266 28.1522 168.813 30.1102 169.902C32.0682 170.994 33.6108 172.514 34.7379 174.459C35.865 176.405 36.4286 178.602 36.4286 181.046C36.4286 183.491 35.8586 185.694 34.7186 187.652C33.5786 189.611 32.036 191.137 30.0909 192.226C28.1458 193.318 25.9978 193.862 23.6469 193.862C21.296 193.862 19.1448 193.318 17.1868 192.226H17.19ZM28.4388 186.316C29.6368 184.985 30.2358 183.23 30.2358 181.046C30.2358 178.862 29.6368 177.078 28.4388 175.761C27.2408 174.443 25.6435 173.786 23.6501 173.786C21.6567 173.786 20.024 174.44 18.826 175.745C17.628 177.049 17.029 178.817 17.029 181.049C17.029 183.282 17.628 185.021 18.826 186.338C20.024 187.656 21.6309 188.313 23.6501 188.313C25.6693 188.313 27.2408 187.649 28.4388 186.319V186.316Z" fill="#333333"/>
<path d="M51.3104 193.615L46.1127 184.181H44.6539V193.615H38.5674V168.621H48.7824C50.7533 168.621 52.4311 168.966 53.8191 169.655C55.2071 170.344 56.2441 171.288 56.9332 172.486C57.6224 173.684 57.967 175.021 57.967 176.493C57.967 178.155 57.4968 179.64 56.5597 180.944C55.6225 182.249 54.241 183.176 52.4118 183.721L58.1795 193.619H51.3104V193.615ZM44.6539 179.875H48.4282C49.5424 179.875 50.3797 179.601 50.9369 179.057C51.494 178.513 51.7742 177.74 51.7742 176.741C51.7742 175.743 51.494 175.044 50.9369 174.499C50.3797 173.952 49.5424 173.681 48.4282 173.681H44.6539V179.875Z" fill="#333333"/>
<path d="M88.8307 168.621V193.615H82.7442V178.625L77.1568 193.615H72.2457L66.6197 178.59V193.615H60.5332V168.621H67.7243L74.7383 185.924L81.675 168.621H88.8307Z" fill="#333333"/>
<path d="M104.349 173.501V178.558H112.5V183.257H104.349V188.739H113.569V193.615H98.2627V168.621H113.569V173.498H104.349V173.501Z" fill="#333333"/>
<path d="M131.581 193.615L126.489 185.959L122.003 193.615H115.099L123.108 180.906L114.922 168.621H122.007L127.027 176.171L131.442 168.621H138.347L130.409 181.225L138.669 193.615H131.584H131.581Z" fill="#333333"/>
<path d="M158.459 168.621V173.498H151.838V193.615H145.751V173.501H139.13V168.621H158.459Z" fill="#333333"/>
<path d="M166.361 173.501V178.558H174.512V183.257H166.361V188.739H175.581V193.615H160.274V168.621H175.581V173.498H166.361V173.501Z" fill="#333333"/>
<path d="M200.643 193.615H194.556L184.377 178.2V193.615H178.29V168.621H184.377L194.556 184.107V168.621H200.643V193.615Z" fill="#333333"/>
<path d="M207.94 192.972C206.491 192.379 205.335 191.5 204.469 190.337C203.602 189.174 203.145 187.773 203.097 186.137H209.576C209.669 187.061 209.992 187.77 210.536 188.256C211.08 188.742 211.795 188.987 212.671 188.987C213.547 188.987 214.284 188.781 214.806 188.366C215.328 187.95 215.589 187.374 215.589 186.639C215.589 186.021 215.379 185.512 214.967 185.109C214.552 184.707 214.043 184.375 213.437 184.114C212.832 183.853 211.972 183.557 210.858 183.225C209.244 182.726 207.927 182.226 206.906 181.73C205.886 181.231 205.006 180.497 204.272 179.524C203.535 178.551 203.168 177.282 203.168 175.714C203.168 173.388 204.008 171.565 205.696 170.248C207.38 168.931 209.576 168.273 212.281 168.273C214.986 168.273 217.253 168.931 218.938 170.248C220.622 171.565 221.524 173.398 221.643 175.749H215.057C215.009 174.944 214.713 174.306 214.168 173.846C213.621 173.382 212.922 173.15 212.069 173.15C211.331 173.15 210.739 173.346 210.288 173.736C209.837 174.129 209.612 174.693 209.612 175.427C209.612 176.236 209.992 176.864 210.752 177.315C211.512 177.766 212.697 178.252 214.31 178.774C215.923 179.321 217.234 179.843 218.242 180.339C219.25 180.838 220.123 181.563 220.857 182.51C221.591 183.46 221.962 184.681 221.962 186.175C221.962 187.67 221.601 188.894 220.876 190.057C220.152 191.219 219.102 192.147 217.727 192.833C216.352 193.522 214.725 193.867 212.851 193.867C210.977 193.867 209.386 193.571 207.94 192.978V192.972Z" fill="#333333"/>
<path d="M230.544 168.621V193.615H224.457V168.621H230.544Z" fill="#333333"/>
<path d="M282.801 193.615H276.714L266.535 178.2V193.615H260.448V168.621H266.535L276.714 184.107V168.621H282.801V193.615Z" fill="#333333"/>
<path d="M248.114 192.496C241.972 192.507 236.971 187.536 236.96 181.386C236.948 175.237 241.911 170.228 248.053 170.216C251.039 170.205 253.903 171.408 256.003 173.534C251.852 167.821 243.865 166.557 238.148 170.714C232.431 174.871 231.182 182.869 235.332 188.594C239.484 194.318 247.47 195.571 253.187 191.414C253.465 191.207 253.745 190.989 254 190.77C252.252 191.913 250.2 192.509 248.114 192.496Z" fill="#343433"/>
<path d="M251.901 172.005C256.21 174.522 257.654 180.051 255.153 184.354C252.64 188.669 247.118 190.115 242.822 187.611C240.358 186.176 238.719 183.648 238.404 180.816V181.339C238.404 186.881 242.882 191.366 248.418 191.366C253.953 191.366 258.431 186.881 258.431 181.339C258.37 177.182 255.785 173.475 251.901 172.004V172.005Z" fill="#343433"/>
<path d="M247.106 172.695C243.817 172.684 240.929 174.859 240.006 178.019C241.499 174.738 245.371 173.291 248.647 174.787C251.924 176.282 253.368 180.16 251.876 183.442C250.821 185.776 248.49 187.258 245.941 187.258C245.371 187.247 244.8 187.173 244.241 187.04C245.151 187.429 246.123 187.623 247.118 187.611C251.232 187.587 254.533 184.22 254.51 180.099C254.461 176.028 251.173 172.733 247.106 172.697V172.695Z" fill="#343433"/>
</g>
<defs>
<clipPath id="clip0_958_122504">
<rect width="272" height="25.5999" fill="white" transform="translate(10.8008 168.266)"/>
</clipPath>
</defs>
</svg>
