<svg width="501" height="440" viewBox="0 0 501 440" fill="none" xmlns="http://www.w3.org/2000/svg">
<g clip-path="url(#clip0_955_121606)">
<path d="M169.409 0C85.2213 0 0 19.3929 0 56.4696V57.3104C25.6643 82.7266 84.2427 96.8129 169.409 96.8129C254.575 96.8129 313.154 82.7266 338.818 57.3104V56.4696C338.818 19.3929 253.596 0 169.409 0Z" fill="white"/>
<path d="M421.613 55.9745H441.819C445.224 55.9745 447.98 53.2179 447.98 49.8134C447.98 46.409 445.224 43.6523 441.819 43.6523H421.613C418.209 43.6523 415.452 46.409 415.452 49.8134C415.452 53.2179 418.209 55.9745 421.613 55.9745Z" fill="white"/>
<path d="M421.613 80.6464H470.957C474.361 80.6464 477.118 77.8897 477.118 74.4853C477.118 71.0809 474.361 68.3242 470.957 68.3242H421.613C418.209 68.3242 415.452 71.0809 415.452 74.4853C415.452 77.8897 418.209 80.6464 421.613 80.6464Z" fill="white"/>
<path d="M421.613 105.318H457.381C460.785 105.318 463.542 102.562 463.542 99.1572C463.542 95.7527 460.785 92.9961 457.381 92.9961H421.613C418.209 92.9961 415.452 95.7527 415.452 99.1572C415.452 102.562 418.209 105.318 421.613 105.318Z" fill="white"/>
<path d="M421.613 210.978H441.819C445.224 210.978 447.98 208.222 447.98 204.817C447.98 201.413 445.224 198.656 441.819 198.656H421.613C418.209 198.656 415.452 201.413 415.452 204.817C415.452 208.222 418.209 210.978 421.613 210.978Z" fill="white"/>
<path d="M421.613 235.65H470.957C474.361 235.65 477.118 232.894 477.118 229.489C477.118 226.085 474.361 223.328 470.957 223.328H421.613C418.209 223.328 415.452 226.085 415.452 229.489C415.452 232.894 418.209 235.65 421.613 235.65Z" fill="white"/>
<path d="M421.613 260.322H457.381C460.785 260.322 463.542 257.566 463.542 254.161C463.542 250.757 460.785 248 457.381 248H421.613C418.209 248 415.452 250.757 415.452 254.161C415.452 257.566 418.209 260.322 421.613 260.322Z" fill="white"/>
<path d="M417.988 365.392H438.194C441.599 365.392 444.355 362.636 444.355 359.231C444.355 355.827 441.599 353.07 438.194 353.07H417.988C414.584 353.07 411.827 355.827 411.827 359.231C411.827 362.636 414.584 365.392 417.988 365.392Z" fill="white"/>
<path d="M417.988 390.064H467.332C470.736 390.064 473.493 387.308 473.493 383.903C473.493 380.499 470.736 377.742 467.332 377.742H417.988C414.584 377.742 411.827 380.499 411.827 383.903C411.827 387.308 414.584 390.064 417.988 390.064Z" fill="white"/>
<path d="M453.756 402.398H417.988C414.584 402.398 411.827 405.155 411.827 408.56C411.827 411.964 414.584 414.721 417.988 414.721H453.756C457.16 414.721 459.917 411.964 459.917 408.56C459.917 405.155 457.16 402.398 453.756 402.398Z" fill="white"/>
<path d="M485.773 328.977H403.543C395.604 328.977 389.153 335.427 389.153 343.366V378.32H367.059C359.203 378.32 351.539 375.577 345.461 370.616L332.422 359.947V375.881L337.646 380.153C345.916 386.921 356.363 390.656 367.059 390.656H389.153V425.61C389.153 433.549 395.604 440 403.543 440H435.106C438.511 440 441.268 437.243 441.268 433.839C441.268 430.434 438.511 427.678 435.106 427.678H403.543C402.413 427.678 401.489 426.754 401.489 425.624V343.394C401.489 342.264 402.413 341.34 403.543 341.34H485.773C486.904 341.34 487.827 342.264 487.827 343.394V425.624C487.827 426.754 486.904 427.678 485.773 427.678H464.354C460.95 427.678 458.193 430.434 458.193 433.839C458.193 437.243 460.95 440 464.354 440H485.773C493.712 440 500.163 433.549 500.163 425.61V343.38C500.163 335.441 493.712 328.99 485.773 328.99V328.977Z" fill="white"/>
<path d="M485.774 173.969H403.543C395.604 173.969 389.153 180.419 389.153 188.358V223.312H332.408V235.648H389.153V270.603C389.153 278.542 395.604 284.992 403.543 284.992H485.774C493.713 284.992 500.163 278.542 500.163 270.603V188.372C500.163 180.433 493.713 173.983 485.774 173.983V173.969ZM487.827 270.603C487.827 271.733 486.904 272.656 485.774 272.656H403.543C402.413 272.656 401.489 271.733 401.489 270.603V188.372C401.489 187.242 402.413 186.318 403.543 186.318H485.774C486.904 186.318 487.827 187.242 487.827 188.372V270.603Z" fill="white"/>
<path d="M485.773 18.9648H403.543C395.604 18.9648 389.153 25.4154 389.153 33.3545V68.3086H369.016C356.873 68.3086 345.378 72.9673 336.667 81.4301L332.422 85.5513V102.739L345.254 90.2789C351.649 84.0627 360.098 80.6445 369.016 80.6445H389.153V115.599C389.153 123.538 395.604 129.988 403.543 129.988H485.773C493.712 129.988 500.163 123.538 500.163 115.599V33.3682C500.163 25.4291 493.712 18.9786 485.773 18.9786V18.9648ZM487.827 115.599C487.827 116.729 486.904 117.652 485.773 117.652H403.543C402.413 117.652 401.489 116.729 401.489 115.599V33.3682C401.489 32.238 402.413 31.3146 403.543 31.3146H485.773C486.904 31.3146 487.827 32.238 487.827 33.3682V115.599Z" fill="white"/>
<path d="M123.566 265.174C123.456 265.422 123.332 265.67 123.222 265.932C122.505 267.6 122.381 269.226 123.608 270.743C124.862 272.286 126.571 272.562 128.335 272.066C132.498 270.88 135.957 268.482 139.155 265.629C143.883 261.439 147.48 256.367 150.829 251.074C154.151 245.836 156.866 240.296 159.223 234.589C161.746 228.511 163.923 222.295 165.384 215.872C166.349 211.64 167.273 207.395 167.907 203.095C168.417 199.704 168.582 196.258 168.678 192.826C168.775 189.684 168.734 186.527 168.472 183.412C168.072 178.685 167.176 174.026 164.971 169.753C163.923 167.727 162.697 165.839 160.546 164.75C158.92 163.923 157.349 163.882 155.777 164.874C155.46 165.067 155.116 165.205 154.702 165.425C154.675 165.163 154.606 165.012 154.647 164.902C155.984 161.552 157.707 158.465 160.739 156.315C164.599 153.572 168.747 152.8 173.337 154.357C179.526 156.466 183.799 160.601 186.555 166.432C188.554 170.649 189.684 175.101 190.042 179.732C190.29 183.04 190.635 186.362 190.511 189.67C190.346 193.888 189.96 198.119 189.312 202.282C188.512 207.34 187.561 212.398 186.293 217.374C183.233 229.379 178.782 240.874 173.02 251.846C169.12 259.289 164.695 266.415 159.361 272.934C155.391 277.786 150.995 282.196 145.702 285.628C142.27 287.847 138.617 289.557 134.538 290.259C131.795 290.728 129.093 290.452 126.378 290.011C123.07 289.488 120.162 288.137 118.039 285.491C115.351 282.141 114.745 278.392 116.165 274.312C117.364 270.839 119.638 268.138 122.229 265.657C122.532 265.367 122.973 265.215 123.346 265.009C123.415 265.078 123.483 265.147 123.552 265.215L123.566 265.174Z" fill="white"/>
<path d="M198.519 281.464C197.747 280.775 197.099 280.141 196.41 279.576C192.674 276.461 188.36 274.531 183.688 273.36C180.49 272.56 177.237 272.147 173.929 272.05C170.07 271.94 166.238 272.133 162.462 272.974C162.407 272.974 162.352 272.96 162.117 272.905C162.241 272.588 162.269 272.229 162.462 272.009C166.156 267.598 169.105 262.678 171.972 257.716C172.579 256.668 173.089 255.579 173.736 254.573C173.971 254.229 174.522 253.829 174.88 253.87C177.968 254.201 181.069 254.559 184.143 255.042C188.098 255.648 191.985 256.572 195.679 258.102C199.511 259.687 201.785 262.678 202.764 266.633C203.439 269.404 202.309 271.885 201.303 274.366C200.421 276.543 199.621 278.735 198.78 280.927C198.725 281.064 198.656 281.188 198.532 281.478L198.519 281.464Z" fill="white"/>
<path d="M202.488 260.998C202.984 261.177 203.205 261.232 203.398 261.343C207.891 263.879 212.288 266.567 216.009 270.192C218.587 272.7 220.82 275.443 222.005 278.902C223.246 282.541 222.653 285.946 220.489 289.047C215.555 296.076 204.914 295.153 201.069 287.448C199.897 285.091 199.952 282.803 200.876 280.46C201.744 278.241 202.819 276.105 203.591 273.858C204.211 272.066 204.735 270.192 204.886 268.317C205.052 266.084 204.294 263.975 203.012 262.087C202.833 261.825 202.736 261.508 202.502 260.984L202.488 260.998Z" fill="white"/>
<path d="M166.79 194.826C165.563 193.93 164.488 193.186 163.454 192.387C160.27 189.933 157.776 186.915 156.094 183.262C154.385 179.568 153.737 175.681 153.958 171.602C154.068 169.41 155.074 167.908 156.659 166.612C157.569 165.868 158.561 165.923 159.554 166.405C161.166 167.205 162.103 168.624 162.944 170.127C165.177 174.096 166.156 178.452 166.514 182.931C166.804 186.584 166.79 190.278 166.9 193.944C166.9 194.137 166.859 194.344 166.804 194.826H166.79Z" fill="white"/>
<path d="M127.164 270.329C125.344 270.302 124.31 268.965 124.641 267.531C125.303 264.637 127.122 262.473 129.465 260.902C131.312 259.661 133.435 258.724 135.544 257.993C138.507 256.973 141.581 256.27 144.613 255.457C144.847 255.402 145.137 255.554 145.399 255.595C145.33 255.802 145.316 256.05 145.178 256.202C142.932 258.696 140.781 261.274 138.411 263.631C135.764 266.263 132.663 268.303 129.176 269.709C128.418 270.012 127.618 270.191 127.177 270.329H127.164Z" fill="white"/>
<path d="M169.699 336.172C110.459 336.172 62.2588 287.973 62.2588 228.733C62.2588 169.493 110.459 121.293 169.699 121.293C228.939 121.293 277.138 169.493 277.138 228.733C277.138 287.973 228.939 336.172 169.699 336.172ZM169.699 137.764C119.542 137.764 78.7297 178.576 78.7297 228.733C78.7297 278.89 119.542 319.702 169.699 319.702C219.855 319.702 260.667 278.89 260.667 228.733C260.667 178.576 219.855 137.764 169.699 137.764Z" fill="white"/>
<path d="M169.409 112.94C78.5365 112.94 27.8971 97.9992 0 79.006V154.11C13.2043 167.177 35.1746 177.239 64.9325 183.937C82.3682 143.318 122.753 114.773 169.698 114.773C216.644 114.773 256.946 143.249 274.409 183.813C303.905 177.115 325.696 167.094 338.832 154.097V78.9922C310.934 97.9854 260.295 112.926 169.423 112.926L169.409 112.94Z" fill="white"/>
<path d="M258.2 300.39C237.291 326.165 205.397 342.677 169.698 342.677C134 342.677 102.175 326.206 81.2655 300.487C42.907 294.408 17.1325 284.292 0 272.617V346.881C0 383.958 85.2213 403.351 169.409 403.351C253.596 403.351 338.818 383.958 338.818 346.881V272.617C321.782 284.223 296.2 294.284 258.2 300.376V300.39Z" fill="white"/>
<path d="M55.7529 228.73C55.7529 218.641 57.0899 208.855 59.5571 199.523C32.8728 193.445 13.6729 185.134 0 175.816V250.921C13.7694 264.552 37.0629 274.904 68.8056 281.588C60.4805 265.779 55.7529 247.792 55.7529 228.73Z" fill="white"/>
<path d="M279.798 199.399C282.293 208.758 283.644 218.586 283.644 228.73C283.644 247.751 278.93 265.683 270.66 281.464C302.086 274.78 325.145 264.47 338.832 250.921V175.816C325.241 185.065 306.207 193.335 279.812 199.399H279.798Z" fill="white"/>
</g>
<defs>
<clipPath id="clip0_955_121606">
<rect width="500.164" height="440" fill="white"/>
</clipPath>
</defs>
</svg>
