<svg width="500" height="440" viewBox="0 0 500 440" fill="none" xmlns="http://www.w3.org/2000/svg">
<g clip-path="url(#clip0_955_121268)">
<path d="M169.354 0C85.1935 0 0 19.3929 0 56.4696V57.3104C25.6559 82.7266 84.2152 96.8129 169.354 96.8129C254.492 96.8129 313.051 82.7266 338.707 57.3104V56.4696C338.707 19.3929 253.514 0 169.354 0Z" fill="#33CFFF"/>
<path d="M421.475 55.9745H441.675C445.078 55.9745 447.834 53.2179 447.834 49.8134C447.834 46.409 445.078 43.6523 441.675 43.6523H421.475C418.072 43.6523 415.316 46.409 415.316 49.8134C415.316 53.2179 418.072 55.9745 421.475 55.9745Z" fill="#33CFFF"/>
<path d="M421.475 80.6464H470.803C474.206 80.6464 476.962 77.8897 476.962 74.4853C476.962 71.0809 474.206 68.3242 470.803 68.3242H421.475C418.072 68.3242 415.316 71.0809 415.316 74.4853C415.316 77.8897 418.072 80.6464 421.475 80.6464Z" fill="#33CFFF"/>
<path d="M421.475 105.318H457.231C460.634 105.318 463.39 102.562 463.39 99.1572C463.39 95.7527 460.634 92.9961 457.231 92.9961H421.475C418.072 92.9961 415.316 95.7527 415.316 99.1572C415.316 102.562 418.072 105.318 421.475 105.318Z" fill="#33CFFF"/>
<path d="M421.475 210.978H441.675C445.078 210.978 447.834 208.222 447.834 204.817C447.834 201.413 445.078 198.656 441.675 198.656H421.475C418.072 198.656 415.316 201.413 415.316 204.817C415.316 208.222 418.072 210.978 421.475 210.978Z" fill="#33CFFF"/>
<path d="M421.475 235.65H470.803C474.206 235.65 476.962 232.894 476.962 229.489C476.962 226.085 474.206 223.328 470.803 223.328H421.475C418.072 223.328 415.316 226.085 415.316 229.489C415.316 232.894 418.072 235.65 421.475 235.65Z" fill="#33CFFF"/>
<path d="M421.475 260.322H457.231C460.634 260.322 463.39 257.566 463.39 254.161C463.39 250.757 460.634 248 457.231 248H421.475C418.072 248 415.316 250.757 415.316 254.161C415.316 257.566 418.072 260.322 421.475 260.322Z" fill="#33CFFF"/>
<path d="M417.851 365.392H438.051C441.454 365.392 444.21 362.636 444.21 359.231C444.21 355.827 441.454 353.07 438.051 353.07H417.851C414.448 353.07 411.692 355.827 411.692 359.231C411.692 362.636 414.448 365.392 417.851 365.392Z" fill="#33CFFF"/>
<path d="M417.851 390.064H467.179C470.582 390.064 473.338 387.308 473.338 383.903C473.338 380.499 470.582 377.742 467.179 377.742H417.851C414.448 377.742 411.692 380.499 411.692 383.903C411.692 387.308 414.448 390.064 417.851 390.064Z" fill="#33CFFF"/>
<path d="M453.607 402.398H417.851C414.448 402.398 411.692 405.155 411.692 408.56C411.692 411.964 414.448 414.721 417.851 414.721H453.607C457.01 414.721 459.766 411.964 459.766 408.56C459.766 405.155 457.01 402.398 453.607 402.398Z" fill="#33CFFF"/>
<path d="M485.615 328.977H403.411C395.475 328.977 389.026 335.427 389.026 343.366V378.32H366.939C359.085 378.32 351.424 375.577 345.348 370.616L332.313 359.947V375.881L337.536 380.153C345.803 386.921 356.247 390.656 366.939 390.656H389.026V425.61C389.026 433.549 395.475 440 403.411 440H434.964C438.368 440 441.124 437.243 441.124 433.839C441.124 430.434 438.368 427.678 434.964 427.678H403.411C402.282 427.678 401.358 426.754 401.358 425.624V343.394C401.358 342.264 402.282 341.34 403.411 341.34H485.615C486.745 341.34 487.668 342.264 487.668 343.394V425.624C487.668 426.754 486.745 427.678 485.615 427.678H464.203C460.799 427.678 458.044 430.434 458.044 433.839C458.044 437.243 460.799 440 464.203 440H485.615C493.551 440 500 433.549 500 425.61V343.38C500 335.441 493.551 328.99 485.615 328.99V328.977Z" fill="#33CFFF"/>
<path d="M485.615 173.969H403.411C395.475 173.969 389.027 180.419 389.027 188.358V223.312H332.3V235.648H389.027V270.603C389.027 278.542 395.475 284.992 403.411 284.992H485.615C493.551 284.992 500 278.542 500 270.603V188.372C500 180.433 493.551 173.983 485.615 173.983V173.969ZM487.668 270.603C487.668 271.733 486.745 272.656 485.615 272.656H403.411C402.282 272.656 401.358 271.733 401.358 270.603V188.372C401.358 187.242 402.282 186.318 403.411 186.318H485.615C486.745 186.318 487.668 187.242 487.668 188.372V270.603Z" fill="#33CFFF"/>
<path d="M485.615 18.9648H403.411C395.475 18.9648 389.026 25.4154 389.026 33.3545V68.3086H368.896C356.757 68.3086 345.265 72.9673 336.557 81.4301L332.313 85.5513V102.739L345.141 90.2789C351.535 84.0627 359.981 80.6445 368.896 80.6445H389.026V115.599C389.026 123.538 395.475 129.988 403.411 129.988H485.615C493.551 129.988 500 123.538 500 115.599V33.3682C500 25.4291 493.551 18.9786 485.615 18.9786V18.9648ZM487.668 115.599C487.668 116.729 486.745 117.652 485.615 117.652H403.411C402.282 117.652 401.358 116.729 401.358 115.599V33.3682C401.358 32.238 402.282 31.3146 403.411 31.3146H485.615C486.745 31.3146 487.668 32.238 487.668 33.3682V115.599Z" fill="#33CFFF"/>
<path d="M123.525 265.174C123.415 265.422 123.291 265.67 123.181 265.932C122.464 267.6 122.34 269.226 123.567 270.743C124.821 272.286 126.529 272.562 128.293 272.066C132.454 270.88 135.912 268.482 139.109 265.629C143.835 261.439 147.431 256.367 150.78 251.074C154.1 245.836 156.815 240.296 159.171 234.589C161.692 228.511 163.869 222.295 165.33 215.872C166.294 211.64 167.218 207.395 167.851 203.095C168.361 199.704 168.527 196.258 168.623 192.826C168.719 189.684 168.678 186.527 168.416 183.412C168.017 178.685 167.121 174.026 164.917 169.753C163.869 167.727 162.643 165.839 160.494 164.75C158.868 163.923 157.297 163.882 155.726 164.874C155.409 165.067 155.065 165.205 154.651 165.425C154.624 165.163 154.555 165.012 154.596 164.902C155.933 161.552 157.655 158.465 160.686 156.315C164.544 153.572 168.692 152.8 173.28 154.357C179.467 156.466 183.738 160.601 186.494 166.432C188.492 170.649 189.622 175.101 189.98 179.732C190.228 183.04 190.572 186.362 190.448 189.67C190.283 193.888 189.897 198.119 189.25 202.282C188.45 207.34 187.5 212.398 186.232 217.374C183.173 229.379 178.723 240.874 172.963 251.846C169.064 259.289 164.641 266.415 159.309 272.934C155.34 277.786 150.945 282.196 145.654 285.628C142.223 287.847 138.572 289.557 134.493 290.259C131.751 290.728 129.051 290.452 126.336 290.011C123.029 289.488 120.122 288.137 118 285.491C115.313 282.141 114.707 278.392 116.126 274.312C117.325 270.839 119.598 268.138 122.189 265.657C122.492 265.367 122.933 265.215 123.305 265.009C123.374 265.078 123.443 265.147 123.512 265.215L123.525 265.174Z" fill="white"/>
<path d="M198.454 281.464C197.682 280.775 197.035 280.141 196.346 279.576C192.612 276.461 188.299 274.531 183.628 273.36C180.431 272.56 177.18 272.147 173.873 272.05C170.015 271.94 166.184 272.133 162.409 272.974C162.354 272.974 162.299 272.96 162.064 272.905C162.188 272.588 162.216 272.229 162.409 272.009C166.102 267.598 169.05 262.678 171.916 257.716C172.522 256.668 173.032 255.579 173.68 254.573C173.914 254.229 174.465 253.829 174.823 253.87C177.91 254.201 181.01 254.559 184.083 255.042C188.037 255.648 191.923 256.572 195.615 258.102C199.446 259.687 201.719 262.678 202.698 266.633C203.373 269.404 202.243 271.885 201.237 274.366C200.355 276.543 199.556 278.735 198.716 280.927C198.661 281.064 198.592 281.188 198.468 281.478L198.454 281.464Z" fill="white"/>
<path d="M202.422 260.998C202.918 261.177 203.138 261.232 203.331 261.343C207.823 263.879 212.219 266.567 215.939 270.192C218.515 272.7 220.748 275.443 221.933 278.902C223.173 282.541 222.58 285.946 220.417 289.047C215.484 296.076 204.847 295.153 201.003 287.448C199.832 285.091 199.887 282.803 200.81 280.46C201.678 278.241 202.753 276.105 203.524 273.858C204.144 272.066 204.668 270.192 204.819 268.317C204.985 266.084 204.227 263.975 202.946 262.087C202.766 261.825 202.67 261.508 202.436 260.984L202.422 260.998Z" fill="white"/>
<path d="M166.736 194.826C165.509 193.93 164.435 193.186 163.401 192.387C160.218 189.933 157.725 186.915 156.044 183.262C154.335 179.568 153.687 175.681 153.908 171.602C154.018 169.41 155.024 167.908 156.608 166.612C157.518 165.868 158.51 165.923 159.502 166.405C161.114 167.205 162.051 168.624 162.892 170.127C165.124 174.096 166.102 178.452 166.46 182.931C166.75 186.584 166.736 190.278 166.846 193.944C166.846 194.137 166.805 194.344 166.75 194.826H166.736Z" fill="white"/>
<path d="M127.122 270.329C125.303 270.302 124.27 268.965 124.6 267.531C125.262 264.637 127.08 262.473 129.423 260.902C131.269 259.661 133.391 258.724 135.499 257.993C138.462 256.973 141.534 256.27 144.566 255.457C144.8 255.402 145.089 255.554 145.351 255.595C145.282 255.802 145.268 256.05 145.13 256.202C142.885 258.696 140.735 261.274 138.365 263.631C135.72 266.263 132.619 268.303 129.133 269.709C128.376 270.012 127.576 270.191 127.136 270.329H127.122Z" fill="white"/>
<path d="M234.83 303.452C217.4 318.682 194.61 327.931 169.643 327.931C144.676 327.931 121.955 318.71 104.525 303.521C52.9789 298.228 20.3924 286.512 0 272.633V346.896C0 383.973 85.1935 403.366 169.354 403.366C253.514 403.366 338.707 383.973 338.707 346.896V272.633C318.397 286.457 286.004 298.132 234.816 303.466L234.83 303.452Z" fill="#33CFFF"/>
<path d="M70.4641 228.734C70.4641 219.637 71.7041 210.843 74.0052 202.491C39.6136 196.316 16.0384 186.737 0 175.82V250.925C16.4242 267.189 46.3239 278.794 88.0181 285.066C76.9676 269.063 70.4641 249.657 70.4641 228.734Z" fill="#33CFFF"/>
<path d="M265.253 202.379C267.554 210.773 268.822 219.594 268.822 228.718C268.822 249.6 262.36 268.965 251.337 284.954C292.7 278.668 322.38 267.091 338.721 250.909V175.805C322.765 186.666 299.356 196.204 265.253 202.365V202.379Z" fill="#33CFFF"/>
<path d="M169.353 112.938C78.5108 112.938 27.888 97.9971 0 79.0039V154.108C15.3081 169.27 42.328 180.393 79.7095 186.912C95.4861 153.02 129.809 129.519 169.643 129.519C209.477 129.519 243.744 152.978 259.535 186.816C296.641 180.296 323.482 169.201 338.721 154.108V79.0039C310.833 97.9971 260.21 112.938 169.367 112.938H169.353Z" fill="#33CFFF"/>
<path d="M169.643 327.93C224.41 327.93 268.808 283.518 268.808 228.733C268.808 173.947 224.41 129.535 169.643 129.535C114.875 129.535 70.4775 173.947 70.4775 228.733C70.4775 283.518 114.875 327.93 169.643 327.93Z" stroke="white" stroke-width="8.25" stroke-miterlimit="10"/>
</g>
<defs>
<clipPath id="clip0_955_121268">
<rect width="500" height="440" fill="white"/>
</clipPath>
</defs>
</svg>
