<svg width="894" height="600" viewBox="0 0 894 600" fill="none" xmlns="http://www.w3.org/2000/svg">
<path d="M643.895 6.625H250.128C228.307 6.625 210.617 24.3229 210.617 46.1544V440.105C210.617 461.936 228.307 479.634 250.128 479.634H643.895C665.716 479.634 683.406 461.936 683.406 440.105V46.1544C683.406 24.3229 665.716 6.625 643.895 6.625Z" fill="#343433"/>
<path d="M643.896 486.252H250.129C224.695 486.252 204 465.547 204 440.101V46.1508C204 20.705 224.689 0 250.129 0H643.896C669.33 0 690.025 20.705 690.025 46.1508V440.101C690.025 465.547 669.33 486.252 643.896 486.252ZM250.129 13.2427C231.989 13.2427 217.237 28.0083 217.237 46.1508V440.101C217.237 458.25 231.995 473.009 250.129 473.009H643.896C662.036 473.009 676.788 458.244 676.788 440.101V46.1508C676.788 28.0017 662.03 13.2427 643.896 13.2427H250.129Z" fill="white"/>
<path d="M483.652 409.721C393.909 409.721 321.154 336.933 321.154 247.147C321.154 157.362 393.909 84.5735 483.652 84.5735C528.914 84.5735 569.842 103.107 599.306 132.976C565.354 86.5665 510.529 56.4062 448.635 56.4062C345.562 56.4062 262 140.007 262 243.128C262 346.249 345.562 429.85 448.635 429.85C495.148 429.85 537.657 412.787 570.338 384.626C545.248 400.498 515.532 409.715 483.652 409.715V409.721Z" fill="#3F4546"/>
<path d="M539.523 110.725C578.597 133.609 604.859 176.018 604.859 224.586C604.859 297.421 545.844 356.463 473.043 356.463C405.318 356.463 349.546 305.353 342.1 239.583C341.961 242.166 341.889 244.761 341.889 247.377C341.889 328.058 407.264 393.457 487.901 393.457C568.538 393.457 633.913 328.051 633.913 247.377C633.913 184.884 594.68 131.589 539.523 110.719V110.725Z" fill="#3F4546"/>
<path d="M469.111 120.812C420.109 120.812 378.739 153.423 365.449 198.13C380.32 164.977 413.577 141.875 452.248 141.875C504.777 141.875 547.365 184.477 547.365 237.037C547.365 289.597 504.783 332.199 452.248 332.199C443.664 332.199 435.351 331.04 427.436 328.908C440.262 334.272 454.339 337.244 469.111 337.244C528.847 337.244 577.273 288.796 577.273 229.032C577.273 169.268 528.847 120.819 469.111 120.819V120.812Z" fill="#3F4546"/>
<path d="M405.709 127.859C361.618 127.859 316.984 138.023 316.984 157.45V157.887C330.426 171.203 361.102 178.579 405.709 178.579C450.316 178.579 480.985 171.196 494.433 157.887V157.45C494.433 138.023 449.8 127.859 405.709 127.859Z" fill="#33CFFF"/>
<path d="M537.782 157.189H548.365C550.152 157.189 551.595 155.739 551.595 153.958C551.595 152.177 550.145 150.727 548.365 150.727H537.782C535.996 150.727 534.553 152.177 534.553 153.958C534.553 155.739 536.002 157.189 537.782 157.189Z" fill="#33CFFF"/>
<path d="M537.782 170.119H563.62C565.407 170.119 566.85 168.669 566.85 166.887C566.85 165.106 565.4 163.656 563.62 163.656H537.782C535.996 163.656 534.553 165.106 534.553 166.887C534.553 168.669 536.002 170.119 537.782 170.119Z" fill="#33CFFF"/>
<path d="M537.782 183.041H556.512C558.299 183.041 559.742 181.59 559.742 179.809C559.742 178.028 558.292 176.578 556.512 176.578H537.782C535.996 176.578 534.553 178.028 534.553 179.809C534.553 181.59 536.002 183.041 537.782 183.041Z" fill="#33CFFF"/>
<path d="M537.782 238.4H548.365C550.152 238.4 551.595 236.95 551.595 235.169C551.595 233.388 550.145 231.938 548.365 231.938H537.782C535.996 231.938 534.553 233.388 534.553 235.169C534.553 236.95 536.002 238.4 537.782 238.4Z" fill="#33CFFF"/>
<path d="M537.782 251.322H563.62C565.407 251.322 566.85 249.872 566.85 248.091C566.85 246.309 565.4 244.859 563.62 244.859H537.782C535.996 244.859 534.553 246.309 534.553 248.091C534.553 249.872 536.002 251.322 537.782 251.322Z" fill="#33CFFF"/>
<path d="M537.782 264.252H556.512C558.299 264.252 559.742 262.801 559.742 261.02C559.742 259.239 558.292 257.789 556.512 257.789H537.782C535.996 257.789 534.553 259.239 534.553 261.02C534.553 262.801 536.002 264.252 537.782 264.252Z" fill="#33CFFF"/>
<path d="M535.882 319.306H546.465C548.252 319.306 549.694 317.856 549.694 316.075C549.694 314.294 548.245 312.844 546.465 312.844H535.882C534.095 312.844 532.652 314.294 532.652 316.075C532.652 317.856 534.102 319.306 535.882 319.306Z" fill="#33CFFF"/>
<path d="M535.882 332.228H561.72C563.507 332.228 564.949 330.778 564.949 328.997C564.949 327.216 563.5 325.766 561.72 325.766H535.882C534.095 325.766 532.652 327.216 532.652 328.997C532.652 330.778 534.102 332.228 535.882 332.228Z" fill="#33CFFF"/>
<path d="M554.612 338.695H535.882C534.095 338.695 532.652 340.145 532.652 341.927C532.652 343.708 534.102 345.158 535.882 345.158H554.612C556.399 345.158 557.841 343.708 557.841 341.927C557.841 340.145 556.392 338.695 554.612 338.695Z" fill="#33CFFF"/>
<path d="M571.39 300.233H528.325C524.168 300.233 520.786 303.617 520.786 307.775V326.083H509.211C505.101 326.083 501.084 324.646 497.9 322.044L491.07 316.455V324.805L493.81 327.043C498.145 330.592 503.612 332.545 509.211 332.545H520.786V350.853C520.786 355.012 524.168 358.395 528.325 358.395H544.85C546.637 358.395 548.08 356.945 548.08 355.164C548.08 353.383 546.637 351.933 544.85 351.933H528.325C527.729 351.933 527.246 351.449 527.246 350.853V307.768C527.246 307.172 527.729 306.689 528.325 306.689H571.39C571.985 306.689 572.468 307.172 572.468 307.768V350.853C572.468 351.449 571.985 351.933 571.39 351.933H560.172C558.385 351.933 556.942 353.376 556.942 355.164C556.942 356.952 558.385 358.395 560.172 358.395H571.39C575.546 358.395 578.928 355.012 578.928 350.853V307.768C578.928 303.61 575.546 300.227 571.39 300.227V300.233Z" fill="#33CFFF"/>
<path d="M571.39 219.014H528.325C524.168 219.014 520.786 222.398 520.786 226.556V244.864H491.07V251.327H520.786V269.635C520.786 273.793 524.168 277.176 528.325 277.176H571.39C575.546 277.176 578.928 273.793 578.928 269.635V226.55C578.928 222.391 575.546 219.008 571.39 219.008V219.014ZM572.462 269.641C572.462 270.237 571.979 270.721 571.383 270.721H528.318C527.722 270.721 527.239 270.237 527.239 269.641V226.556C527.239 225.96 527.722 225.477 528.318 225.477H571.383C571.979 225.477 572.462 225.96 572.462 226.556V269.641Z" fill="#33CFFF"/>
<path d="M571.39 137.803H528.325C524.168 137.803 520.786 141.187 520.786 145.345V163.653H510.237C503.877 163.653 497.861 166.097 493.294 170.526L491.07 172.685V181.69L497.794 175.161C501.15 171.903 505.564 170.116 510.237 170.116H520.786V188.424C520.786 192.582 524.168 195.965 528.325 195.965H571.39C575.546 195.965 578.928 192.582 578.928 188.424V145.339C578.928 141.18 575.546 137.797 571.39 137.797V137.803ZM572.462 188.424C572.462 189.02 571.979 189.503 571.383 189.503H528.318C527.722 189.503 527.239 189.02 527.239 188.424V145.339C527.239 144.743 527.722 144.259 528.318 144.259H571.383C571.979 144.259 572.462 144.743 572.462 145.339V188.424Z" fill="#33CFFF"/>
<path d="M381.698 266.793C381.638 266.925 381.579 267.058 381.519 267.19C381.142 268.064 381.076 268.918 381.718 269.706C382.38 270.514 383.267 270.66 384.193 270.395C386.37 269.773 388.184 268.515 389.865 267.025C392.34 264.833 394.226 262.171 395.98 259.404C397.721 256.662 399.137 253.756 400.381 250.763C401.705 247.578 402.843 244.32 403.611 240.956C404.114 238.738 404.597 236.514 404.935 234.262C405.199 232.488 405.285 230.68 405.338 228.879C405.385 227.237 405.372 225.582 405.233 223.946C405.021 221.47 404.551 219.033 403.393 216.795C402.843 215.736 402.201 214.743 401.07 214.173C400.216 213.743 399.395 213.716 398.568 214.233C398.402 214.332 398.224 214.412 398.005 214.517C397.986 214.378 397.952 214.299 397.979 214.239C398.68 212.485 399.581 210.862 401.169 209.737C403.194 208.3 405.358 207.896 407.767 208.717C411.01 209.823 413.247 211.988 414.69 215.041C415.736 217.252 416.331 219.583 416.517 222.006C416.649 223.741 416.828 225.482 416.762 227.211C416.676 229.415 416.477 231.634 416.133 233.819C415.716 236.474 415.213 239.122 414.551 241.725C412.949 248.015 410.613 254.034 407.602 259.788C405.557 263.688 403.24 267.415 400.448 270.832C398.369 273.375 396.066 275.685 393.293 277.48C391.493 278.645 389.587 279.539 387.449 279.91C386.013 280.155 384.597 280.009 383.181 279.784C381.447 279.506 379.931 278.804 378.812 277.414C377.403 275.659 377.092 273.699 377.833 271.554C378.462 269.733 379.653 268.323 381.01 267.018C381.169 266.866 381.4 266.786 381.599 266.68C381.632 266.72 381.672 266.753 381.705 266.793H381.698Z" fill="white"/>
<path d="M420.951 275.337C420.547 274.973 420.203 274.649 419.846 274.344C417.894 272.715 415.63 271.702 413.181 271.086C411.507 270.663 409.799 270.451 408.072 270.404C406.047 270.345 404.048 270.451 402.069 270.888C402.043 270.888 402.01 270.875 401.891 270.855C401.95 270.689 401.97 270.504 402.069 270.385C404.008 268.074 405.551 265.498 407.053 262.896C407.371 262.353 407.635 261.777 407.979 261.247C408.099 261.062 408.39 260.856 408.582 260.876C410.203 261.048 411.818 261.241 413.426 261.486C415.498 261.803 417.53 262.287 419.469 263.088C421.474 263.916 422.665 265.485 423.175 267.557C423.532 269.007 422.937 270.305 422.414 271.61C421.951 272.748 421.534 273.901 421.09 275.046C421.064 275.119 421.031 275.185 420.958 275.337H420.951Z" fill="white"/>
<path d="M423.028 264.608C423.286 264.701 423.406 264.727 423.505 264.787C425.854 266.118 428.158 267.522 430.11 269.422C431.453 270.733 432.631 272.17 433.247 273.991C433.896 275.898 433.591 277.679 432.453 279.301C429.865 282.989 424.292 282.506 422.287 278.46C421.672 277.228 421.705 276.03 422.181 274.805C422.638 273.646 423.2 272.527 423.604 271.349C423.928 270.408 424.206 269.429 424.279 268.442C424.365 267.277 423.968 266.164 423.3 265.178C423.207 265.045 423.161 264.88 423.035 264.602L423.028 264.608Z" fill="white"/>
<path d="M404.332 229.934C403.69 229.464 403.128 229.073 402.585 228.656C400.917 227.372 399.613 225.789 398.733 223.876C397.84 221.942 397.502 219.903 397.615 217.764C397.674 216.619 398.204 215.824 399.031 215.149C399.507 214.758 400.03 214.785 400.547 215.043C401.387 215.46 401.877 216.208 402.327 216.996C403.498 219.082 404.008 221.36 404.193 223.704C404.345 225.617 404.332 227.551 404.392 229.471C404.392 229.577 404.372 229.676 404.339 229.934H404.332Z" fill="white"/>
<path d="M383.585 269.503C382.632 269.49 382.096 268.788 382.268 268.033C382.619 266.517 383.565 265.385 384.79 264.564C385.756 263.915 386.868 263.418 387.973 263.034C389.522 262.498 391.13 262.134 392.718 261.703C392.838 261.67 392.99 261.75 393.129 261.776C393.089 261.882 393.082 262.014 393.016 262.094C391.845 263.398 390.713 264.749 389.469 265.987C388.086 267.365 386.458 268.437 384.638 269.172C384.24 269.331 383.824 269.424 383.585 269.497V269.503Z" fill="white"/>
<path d="M440.005 286.859C430.871 294.838 418.932 299.685 405.854 299.685C392.777 299.685 380.87 294.851 371.744 286.892C344.735 284.118 327.666 277.98 316.984 270.703V309.617C316.984 329.044 361.618 339.201 405.709 339.201C449.8 339.201 494.433 329.037 494.433 309.617V270.703C483.791 277.947 466.822 284.065 440.011 286.859H440.005Z" fill="#33CFFF"/>
<path d="M353.901 247.7C353.901 242.939 354.556 238.331 355.754 233.948C337.739 230.716 325.383 225.697 316.984 219.977V259.327C325.588 267.849 341.254 273.927 363.094 277.211C357.303 268.829 353.901 258.665 353.901 247.7Z" fill="#33CFFF"/>
<path d="M455.942 233.895C457.153 238.291 457.808 242.92 457.808 247.7C457.808 258.639 454.42 268.789 448.648 277.165C470.317 273.874 485.87 267.809 494.427 259.327V219.977C486.068 225.671 473.804 230.663 455.942 233.895Z" fill="#33CFFF"/>
<path d="M405.709 187.036C358.123 187.036 331.597 179.21 316.984 169.258V208.608C325.006 216.554 339.162 222.381 358.739 225.791C367.005 208.039 384.987 195.723 405.854 195.723C426.722 195.723 444.67 208.013 452.943 225.745C472.388 222.328 486.438 216.514 494.426 208.608V169.258C479.82 179.21 453.294 187.036 405.702 187.036H405.709Z" fill="#33CFFF"/>
<path d="M405.854 299.682C434.547 299.682 457.807 276.411 457.807 247.704C457.807 218.998 434.547 195.727 405.854 195.727C377.161 195.727 353.9 218.998 353.9 247.704C353.9 276.411 377.161 299.682 405.854 299.682Z" stroke="white" stroke-width="9" stroke-miterlimit="10"/>
<path d="M0 518C0 500.327 14.3269 486 32 486H862C879.673 486 894 500.327 894 518V568C894 585.673 879.673 600 862 600H32C14.3269 600 0 585.673 0 568V518Z" fill="white"/>
<g clip-path="url(#clip0_955_121326)">
<path d="M53.3907 578.705C47.4484 575.392 42.7278 570.769 39.2386 564.827C35.7495 558.885 34 552.199 34 544.781C34 537.363 35.7495 530.698 39.2386 524.794C42.7278 518.891 47.4484 514.278 53.3907 510.965C59.333 507.661 65.8715 506 72.9964 506C80.1213 506 86.6598 507.661 92.6021 510.965C98.5444 514.278 103.226 518.891 106.647 524.794C110.067 530.698 111.778 537.363 111.778 544.781C111.778 552.199 110.048 558.885 106.588 564.827C103.128 570.769 98.4466 575.402 92.5434 578.705C86.6402 582.018 80.1213 583.67 72.9866 583.67C65.8519 583.67 59.3232 582.018 53.3809 578.705H53.3907ZM87.5296 560.771C91.1654 556.734 92.9832 551.408 92.9832 544.781C92.9832 538.155 91.1654 532.74 87.5296 528.743C83.8939 524.746 79.0462 522.752 72.9964 522.752C66.9466 522.752 61.9914 524.736 58.3556 528.694C54.7199 532.652 52.902 538.018 52.902 544.791C52.902 551.564 54.7199 556.842 58.3556 560.839C61.9914 564.837 66.8684 566.83 72.9964 566.83C79.1244 566.83 83.8939 564.817 87.5296 560.781V560.771Z" fill="#333333"/>
<path d="M156.941 582.917L141.167 554.29H136.74V582.917H118.268V507.074H149.269C155.251 507.074 160.343 508.12 164.555 510.212C168.767 512.303 171.914 515.167 174.006 518.802C176.098 522.438 177.143 526.494 177.143 530.961C177.143 536.004 175.716 540.509 172.872 544.468C170.028 548.426 165.835 551.241 160.284 552.893L177.788 582.927H156.941V582.917ZM136.74 541.223H148.194C151.576 541.223 154.117 540.392 155.808 538.74C157.499 537.089 158.349 534.743 158.349 531.713C158.349 528.683 157.499 526.563 155.808 524.911C154.117 523.249 151.576 522.428 148.194 522.428H136.74V541.223Z" fill="#333333"/>
<path d="M270.813 507.074V582.917H252.341V537.431L235.384 582.917H220.479L203.405 537.323V582.917H184.933V507.074H206.757L228.044 559.578L249.096 507.074H270.813Z" fill="#333333"/>
<path d="M317.911 521.881V537.226H342.648V551.485H317.911V568.12H345.893V582.917H299.439V507.074H345.893V521.871H317.911V521.881Z" fill="#333333"/>
<path d="M400.556 582.917L385.105 559.685L371.49 582.917H350.536L374.842 544.35L349.998 507.074H371.5L386.737 529.983L400.136 507.074H421.091L396.999 545.318L422.068 582.917H400.566H400.556Z" fill="#333333"/>
<path d="M482.126 507.074V521.871H462.031V582.917H443.559V521.881H423.465V507.074H482.126Z" fill="#333333"/>
<path d="M506.111 521.881V537.226H530.847V551.485H506.111V568.12H534.092V582.917H487.639V507.074H534.092V521.871H506.111V521.881Z" fill="#333333"/>
<path d="M610.15 582.917H591.678L560.783 536.141V582.917H542.312V507.074H560.783L591.678 554.065V507.074H610.15V582.917Z" fill="#333333"/>
<path d="M632.296 580.975C627.898 579.176 624.389 576.508 621.76 572.98C619.131 569.452 617.743 565.2 617.597 560.235H637.261C637.544 563.04 638.522 565.19 640.174 566.666C641.825 568.142 643.995 568.885 646.653 568.885C649.312 568.885 651.55 568.259 653.133 566.999C654.717 565.738 655.508 563.988 655.508 561.76C655.508 559.883 654.873 558.339 653.622 557.117C652.361 555.896 650.817 554.889 648.979 554.097C647.142 553.306 644.532 552.407 641.151 551.4C636.254 549.885 632.257 548.37 629.159 546.865C626.061 545.35 623.392 543.122 621.164 540.17C618.926 537.219 617.812 533.368 617.812 528.608C617.812 521.552 620.363 516.02 625.484 512.022C630.595 508.025 637.261 506.031 645.471 506.031C653.681 506.031 660.561 508.025 665.673 512.022C670.784 516.02 673.521 521.581 673.882 528.716H653.896C653.749 526.272 652.85 524.337 651.198 522.939C649.537 521.532 647.416 520.828 644.826 520.828C642.588 520.828 640.789 521.425 639.421 522.607C638.053 523.8 637.369 525.51 637.369 527.738C637.369 530.191 638.522 532.097 640.828 533.466C643.135 534.834 646.732 536.31 651.628 537.893C656.525 539.554 660.502 541.138 663.562 542.643C666.621 544.158 669.269 546.357 671.498 549.23C673.726 552.113 674.85 555.818 674.85 560.353C674.85 564.887 673.755 568.601 671.556 572.13C669.357 575.658 666.171 578.473 661.998 580.554C657.825 582.646 652.889 583.692 647.201 583.692C641.512 583.692 636.684 582.793 632.296 580.994V580.975Z" fill="#333333"/>
<path d="M700.897 507.074V582.917H682.425V507.074H700.897Z" fill="#333333"/>
<path d="M859.491 582.917H841.019L810.125 536.141V582.917H791.653V507.074H810.125L841.019 554.065V507.074H859.491V582.917Z" fill="#333333"/>
<path d="M754.221 579.523C735.582 579.558 720.405 564.474 720.369 545.814C720.334 527.153 735.397 511.955 754.037 511.92C763.1 511.885 771.791 515.536 778.163 521.987C765.567 504.652 741.327 500.816 723.976 513.429C706.626 526.043 702.835 550.312 715.43 567.683C728.03 585.053 752.266 588.854 769.617 576.241C770.463 575.613 771.313 574.95 772.084 574.288C766.781 577.755 760.554 579.563 754.221 579.523Z" fill="#343433"/>
<path d="M765.714 517.348C778.792 524.984 783.174 541.763 775.583 554.819C767.958 567.911 751.199 572.299 738.16 564.702C730.684 560.349 725.709 552.677 724.754 544.084V545.669C724.754 562.486 738.344 576.095 755.143 576.095C771.941 576.095 785.532 562.486 785.532 545.669C785.348 533.055 777.503 521.807 765.714 517.344V517.348Z" fill="#343433"/>
<path d="M751.163 519.445C741.179 519.41 732.414 526.011 729.613 535.6C734.145 525.642 745.895 521.254 755.839 525.792C765.783 530.329 770.166 542.096 765.638 552.054C762.435 559.137 755.361 563.635 747.626 563.635C745.895 563.6 744.164 563.376 742.467 562.973C745.229 564.153 748.178 564.741 751.198 564.706C763.684 564.632 773.702 554.415 773.632 541.911C773.483 529.557 763.504 519.56 751.163 519.45V519.445Z" fill="#343433"/>
</g>
<defs>
<clipPath id="clip0_955_121326">
<rect width="825.492" height="77.68" fill="white" transform="translate(34 506)"/>
</clipPath>
</defs>
</svg>
