<svg width="298" height="200" viewBox="0 0 298 200" fill="none" xmlns="http://www.w3.org/2000/svg">
<path d="M214.632 2.21094H83.3764C76.1026 2.21094 70.2061 8.11023 70.2061 15.3874V146.704C70.2061 153.981 76.1026 159.88 83.3764 159.88H214.632C221.906 159.88 227.802 153.981 227.802 146.704V15.3874C227.802 8.11023 221.906 2.21094 214.632 2.21094Z" fill="#343433"/>
<path d="M214.632 162.084H83.3764C74.8984 162.084 68 155.182 68 146.7V15.3836C68 6.90163 74.8962 0 83.3764 0H214.632C223.11 0 230.008 6.90163 230.008 15.3836V146.7C230.008 155.182 223.11 162.084 214.632 162.084ZM83.3764 4.41422C77.3295 4.41422 72.4122 9.33608 72.4122 15.3836V146.7C72.4122 152.75 77.3317 157.669 83.3764 157.669H214.632C220.679 157.669 225.596 152.747 225.596 146.7V15.3836C225.596 9.33387 220.677 4.41422 214.632 4.41422H83.3764Z" fill="white"/>
<path d="M161.216 136.572C131.302 136.572 107.05 112.309 107.05 82.381C107.05 52.4526 131.302 28.1898 161.216 28.1898C176.303 28.1898 189.946 34.3675 199.767 44.3238C188.45 28.8542 170.175 18.8008 149.544 18.8008C115.186 18.8008 87.332 46.6678 87.332 81.0413C87.332 115.415 115.186 143.282 149.544 143.282C165.048 143.282 179.218 137.594 190.111 128.207C181.748 133.498 171.843 136.57 161.216 136.57V136.572Z" fill="#3F4546"/>
<path d="M179.84 36.9085C192.865 44.5362 201.619 58.6728 201.619 74.8619C201.619 99.1401 181.947 118.821 157.68 118.821C135.105 118.821 116.514 101.784 114.033 79.861C113.986 80.7218 113.962 81.587 113.962 82.4588C113.962 109.352 135.754 131.152 162.633 131.152C189.512 131.152 211.303 109.35 211.303 82.4588C211.303 61.6281 198.226 43.8631 179.84 36.9062V36.9085Z" fill="#3F4546"/>
<path d="M156.369 40.2695C140.035 40.2695 126.245 51.1395 121.815 66.042C126.773 54.991 137.858 47.2903 150.748 47.2903C168.258 47.2903 182.454 61.4909 182.454 79.0109C182.454 96.531 168.26 110.732 150.748 110.732C147.887 110.732 145.116 110.345 142.478 109.635C146.753 111.422 151.445 112.413 156.369 112.413C176.281 112.413 192.423 96.2639 192.423 76.3425C192.423 56.4212 176.281 40.2717 156.369 40.2717V40.2695Z" fill="#3F4546"/>
<path d="M135.235 42.6211C120.538 42.6211 105.66 46.009 105.66 52.4847V52.6303C110.141 57.0688 120.366 59.5276 135.235 59.5276C150.104 59.5276 160.327 57.0666 164.81 52.6303V52.4847C164.81 46.009 149.932 42.6211 135.235 42.6211Z" fill="#33CFFF"/>
<path d="M179.26 52.3963H182.788C183.383 52.3963 183.864 51.913 183.864 51.3193C183.864 50.7255 183.381 50.2422 182.788 50.2422H179.26C178.665 50.2422 178.184 50.7255 178.184 51.3193C178.184 51.913 178.667 52.3963 179.26 52.3963Z" fill="#33CFFF"/>
<path d="M179.26 56.7088H187.873C188.468 56.7088 188.949 56.2255 188.949 55.6318C188.949 55.038 188.466 54.5547 187.873 54.5547H179.26C178.665 54.5547 178.184 55.038 178.184 55.6318C178.184 56.2255 178.667 56.7088 179.26 56.7088Z" fill="#33CFFF"/>
<path d="M179.26 61.0135H185.503C186.099 61.0135 186.58 60.5302 186.58 59.9364C186.58 59.3427 186.097 58.8594 185.503 58.8594H179.26C178.665 58.8594 178.184 59.3427 178.184 59.9364C178.184 60.5302 178.667 61.0135 179.26 61.0135Z" fill="#33CFFF"/>
<path d="M179.26 79.4666H182.788C183.383 79.4666 183.864 78.9833 183.864 78.3896C183.864 77.7959 183.381 77.3125 182.788 77.3125H179.26C178.665 77.3125 178.184 77.7959 178.184 78.3896C178.184 78.9833 178.667 79.4666 179.26 79.4666Z" fill="#33CFFF"/>
<path d="M179.26 83.7713H187.873C188.468 83.7713 188.949 83.288 188.949 82.6943C188.949 82.1005 188.466 81.6172 187.873 81.6172H179.26C178.665 81.6172 178.184 82.1005 178.184 82.6943C178.184 83.288 178.667 83.7713 179.26 83.7713Z" fill="#33CFFF"/>
<path d="M179.26 88.0838H185.503C186.099 88.0838 186.58 87.6005 186.58 87.0068C186.58 86.413 186.097 85.9297 185.503 85.9297H179.26C178.665 85.9297 178.184 86.413 178.184 87.0068C178.184 87.6005 178.667 88.0838 179.26 88.0838Z" fill="#33CFFF"/>
<path d="M178.626 106.435H182.154C182.75 106.435 183.23 105.952 183.23 105.358C183.23 104.765 182.747 104.281 182.154 104.281H178.626C178.031 104.281 177.55 104.765 177.55 105.358C177.55 105.952 178.033 106.435 178.626 106.435Z" fill="#33CFFF"/>
<path d="M178.626 110.744H187.239C187.835 110.744 188.315 110.261 188.315 109.667C188.315 109.073 187.832 108.59 187.239 108.59H178.626C178.031 108.59 177.55 109.073 177.55 109.667C177.55 110.261 178.033 110.744 178.626 110.744Z" fill="#33CFFF"/>
<path d="M184.87 112.898H178.626C178.031 112.898 177.55 113.382 177.55 113.976C177.55 114.569 178.033 115.053 178.626 115.053H184.87C185.465 115.053 185.946 114.569 185.946 113.976C185.946 113.382 185.463 112.898 184.87 112.898Z" fill="#33CFFF"/>
<path d="M190.463 100.076H176.108C174.722 100.076 173.595 101.204 173.595 102.59V108.693H169.736C168.366 108.693 167.027 108.214 165.966 107.347L163.689 105.484V108.267L164.603 109.013C166.048 110.196 167.87 110.847 169.736 110.847H173.595V116.95C173.595 118.336 174.722 119.464 176.108 119.464H181.616C182.212 119.464 182.693 118.98 182.693 118.387C182.693 117.793 182.212 117.31 181.616 117.31H176.108C175.909 117.31 175.748 117.148 175.748 116.95V102.588C175.748 102.389 175.909 102.228 176.108 102.228H190.463C190.661 102.228 190.822 102.389 190.822 102.588V116.95C190.822 117.148 190.661 117.31 190.463 117.31H186.723C186.128 117.31 185.647 117.791 185.647 118.387C185.647 118.983 186.128 119.464 186.723 119.464H190.463C191.848 119.464 192.975 118.336 192.975 116.95V102.588C192.975 101.202 191.848 100.074 190.463 100.074V100.076Z" fill="#33CFFF"/>
<path d="M190.463 73.0022H176.108C174.722 73.0022 173.595 74.13 173.595 75.5161V81.6188H163.689V83.7729H173.595V89.8756C173.595 91.2616 174.722 92.3895 176.108 92.3895H190.463C191.848 92.3895 192.975 91.2616 192.975 89.8756V75.5139C192.975 74.1278 191.848 73 190.463 73V73.0022ZM190.82 89.8778C190.82 90.0764 190.659 90.2375 190.46 90.2375H176.105C175.907 90.2375 175.746 90.0764 175.746 89.8778V75.5161C175.746 75.3175 175.907 75.1563 176.105 75.1563H190.46C190.659 75.1563 190.82 75.3175 190.82 75.5161V89.8778Z" fill="#33CFFF"/>
<path d="M190.463 45.9319H176.108C174.722 45.9319 173.595 47.0597 173.595 48.4458V54.5485H170.078C167.958 54.5485 165.953 55.3629 164.431 56.8394L163.689 57.5589V60.5606L165.931 58.3844C167.049 57.2985 168.521 56.7026 170.078 56.7026H173.595V62.8053C173.595 64.1913 174.722 65.3191 176.108 65.3191H190.463C191.848 65.3191 192.975 64.1913 192.975 62.8053V48.4436C192.975 47.0575 191.848 45.9297 190.463 45.9297V45.9319ZM190.82 62.8053C190.82 63.0039 190.659 63.165 190.46 63.165H176.105C175.907 63.165 175.746 63.0039 175.746 62.8053V48.4436C175.746 48.2449 175.907 48.0838 176.105 48.0838H190.46C190.659 48.0838 190.82 48.2449 190.82 48.4436V62.8053Z" fill="#33CFFF"/>
<path d="M127.232 88.9322C127.212 88.9764 127.192 89.0205 127.172 89.0647C127.046 89.356 127.024 89.6407 127.238 89.9034C127.459 90.1726 127.755 90.2212 128.063 90.1329C128.789 89.9254 129.394 89.5061 129.954 89.0095C130.779 88.2789 131.408 87.3917 131.992 86.4691C132.573 85.5554 133.045 84.5864 133.459 83.5888C133.901 82.5272 134.28 81.4413 134.536 80.3201C134.704 79.5807 134.865 78.8391 134.977 78.0887C135.066 77.4972 135.094 76.8947 135.112 76.2943C135.127 75.747 135.123 75.1952 135.077 74.65C135.006 73.8246 134.849 73.0124 134.463 72.2664C134.28 71.9132 134.066 71.5822 133.689 71.3923C133.404 71.2489 133.131 71.24 132.855 71.4122C132.8 71.4453 132.74 71.4718 132.667 71.5071C132.661 71.4608 132.65 71.4343 132.659 71.4144C132.893 70.8295 133.193 70.2888 133.722 69.9136C134.397 69.4346 135.118 69.3 135.921 69.5737C137.002 69.9423 137.748 70.664 138.229 71.6815C138.578 72.4186 138.776 73.1956 138.838 74.0034C138.882 74.5816 138.942 75.1621 138.92 75.7381C138.891 76.4731 138.825 77.2125 138.71 77.9408C138.571 78.8259 138.403 79.7087 138.183 80.5761C137.649 82.6729 136.87 84.6791 135.866 86.5971C135.185 87.8971 134.413 89.1397 133.482 90.2786C132.789 91.1261 132.021 91.8964 131.097 92.4945C130.497 92.883 129.861 93.1809 129.149 93.3045C128.67 93.3862 128.198 93.3376 127.726 93.2626C127.148 93.1699 126.643 92.9359 126.27 92.4725C125.8 91.8876 125.696 91.2343 125.943 90.5192C126.153 89.9122 126.55 89.4421 127.002 89.0073C127.055 88.9565 127.132 88.93 127.199 88.8947C127.21 88.908 127.223 88.919 127.234 88.9322H127.232Z" fill="white"/>
<path d="M140.316 91.7778C140.182 91.6564 140.067 91.5483 139.948 91.4467C139.297 90.9038 138.543 90.5661 137.726 90.3608C137.168 90.2196 136.599 90.149 136.023 90.1335C135.348 90.1136 134.682 90.149 134.022 90.2946C134.014 90.2946 134.003 90.2902 133.963 90.2836C133.983 90.2284 133.989 90.1666 134.022 90.1269C134.669 89.3566 135.183 88.498 135.684 87.6306C135.79 87.4497 135.878 87.2576 135.992 87.0811C136.032 87.0193 136.129 86.9509 136.193 86.9575C136.734 87.0149 137.272 87.0789 137.808 87.1605C138.499 87.2665 139.176 87.4276 139.822 87.6947C140.491 87.9705 140.888 88.4936 141.058 89.1844C141.177 89.6678 140.978 90.1004 140.804 90.5352C140.65 90.9148 140.511 91.2989 140.363 91.6807C140.354 91.705 140.343 91.727 140.319 91.7778H140.316Z" fill="white"/>
<path d="M141.008 88.2014C141.094 88.2323 141.134 88.2412 141.167 88.261C141.95 88.7046 142.718 89.1726 143.368 89.806C143.816 90.243 144.209 90.7219 144.414 91.3289C144.63 91.9645 144.529 92.5583 144.149 93.099C143.287 94.3284 141.429 94.1672 140.761 92.8187C140.556 92.4082 140.567 92.0087 140.725 91.6004C140.878 91.2141 141.065 90.8411 141.2 90.4483C141.308 90.1349 141.401 89.8082 141.425 89.4793C141.453 89.0909 141.321 88.7201 141.098 88.3912C141.067 88.3471 141.052 88.2919 141.01 88.1992L141.008 88.2014Z" fill="white"/>
<path d="M134.776 76.6447C134.562 76.488 134.375 76.3578 134.194 76.2188C133.638 75.7906 133.203 75.2631 132.91 74.6252C132.612 73.9808 132.5 73.301 132.537 72.5881C132.557 72.2062 132.734 71.9414 133.009 71.7163C133.168 71.586 133.342 71.5949 133.515 71.6809C133.795 71.82 133.958 72.0694 134.108 72.332C134.498 73.0273 134.668 73.7865 134.73 74.5678C134.781 75.2057 134.776 75.8502 134.796 76.4902C134.796 76.5256 134.79 76.5587 134.779 76.6447H134.776Z" fill="white"/>
<path d="M127.861 89.8331C127.543 89.8287 127.364 89.5947 127.422 89.3431C127.539 88.8377 127.854 88.4603 128.262 88.1866C128.584 87.9703 128.955 87.8048 129.323 87.6767C129.84 87.498 130.376 87.3766 130.905 87.2331C130.945 87.2221 130.996 87.2486 131.042 87.2574C131.029 87.2927 131.027 87.3368 131.004 87.3633C130.614 87.7981 130.237 88.2484 129.822 88.6611C129.361 89.1202 128.818 89.4777 128.212 89.7227C128.079 89.7757 127.94 89.8066 127.861 89.8309V89.8331Z" fill="white"/>
<path d="M146.667 95.6197C143.622 98.2793 139.643 99.8949 135.283 99.8949C130.924 99.8949 126.955 98.2837 123.913 95.6308C114.91 94.706 109.221 92.66 105.66 90.2344V103.206C105.66 109.681 120.538 113.067 135.235 113.067C149.932 113.067 164.81 109.679 164.81 103.206V90.2344C161.262 92.649 155.606 94.6883 146.669 95.6197H146.667Z" fill="#33CFFF"/>
<path d="M117.966 82.5693C117.966 80.9824 118.184 79.4462 118.583 77.9851C112.578 76.9081 108.46 75.2351 105.66 73.3281V86.445C108.528 89.2855 113.75 91.3117 121.03 92.4064C119.1 89.6122 117.966 86.2243 117.966 82.5693Z" fill="#33CFFF"/>
<path d="M151.98 77.9675C152.384 79.433 152.602 80.9758 152.602 82.5693C152.602 86.2154 151.473 89.5989 149.549 92.3909C156.772 91.294 161.956 89.2723 164.808 86.445V73.3281C162.022 75.2262 157.934 76.8904 151.98 77.9675Z" fill="#33CFFF"/>
<path d="M135.235 62.3441C119.373 62.3441 110.531 59.7353 105.66 56.418V69.5348C108.334 72.1834 113.053 74.1256 119.578 75.2623C122.334 69.345 128.328 65.2398 135.283 65.2398C142.239 65.2398 148.222 69.3362 150.98 75.2468C157.461 74.108 162.145 72.1701 164.808 69.5348V56.418C159.939 59.7353 151.097 62.3441 135.233 62.3441H135.235Z" fill="#33CFFF"/>
<path d="M135.284 99.8938C144.848 99.8938 152.601 92.1368 152.601 82.568C152.601 72.9992 144.848 65.2422 135.284 65.2422C125.719 65.2422 117.966 72.9992 117.966 82.568C117.966 92.1368 125.719 99.8938 135.284 99.8938Z" stroke="white" stroke-width="9" stroke-miterlimit="10"/>
<path d="M0 172.667C0 166.776 4.77563 162 10.6667 162H287.333C293.224 162 298 166.776 298 172.667V189.333C298 195.224 293.224 200 287.333 200H10.6667C4.77563 200 0 195.224 0 189.333V172.667Z" fill="white"/>
<g clip-path="url(#clip0_955_121437)">
<path d="M17.7966 192.903C15.8158 191.799 14.2423 190.258 13.0792 188.277C11.9162 186.296 11.333 184.068 11.333 181.595C11.333 179.122 11.9162 176.901 13.0792 174.933C14.2423 172.965 15.8158 171.427 17.7966 170.323C19.7773 169.222 21.9568 168.668 24.3318 168.668C26.7068 168.668 28.8863 169.222 30.867 170.323C32.8478 171.427 34.4083 172.965 35.5485 174.933C36.6888 176.901 37.2589 179.122 37.2589 181.595C37.2589 184.068 36.6823 186.296 35.529 188.277C34.3757 190.258 32.8152 191.802 30.8475 192.903C28.8797 194.007 26.7068 194.558 24.3285 194.558C21.9503 194.558 19.7741 194.007 17.7933 192.903H17.7966ZM29.1762 186.925C30.3881 185.579 30.9941 183.804 30.9941 181.595C30.9941 179.386 30.3881 177.581 29.1762 176.249C27.9643 174.916 26.3484 174.252 24.3318 174.252C22.3152 174.252 20.6635 174.913 19.4515 176.233C18.2396 177.552 17.6337 179.341 17.6337 181.598C17.6337 183.856 18.2396 185.615 19.4515 186.948C20.6635 188.28 22.2891 188.945 24.3318 188.945C26.3745 188.945 27.9643 188.274 29.1762 186.928V186.925Z" fill="#333333"/>
<path d="M52.3132 194.308L47.055 184.766H45.5792V194.308H39.4219V169.027H49.7557C51.7495 169.027 53.4469 169.376 54.851 170.073C56.2551 170.77 57.3042 171.725 58.0013 172.937C58.6985 174.149 59.0471 175.501 59.0471 176.989C59.0471 178.671 58.5715 180.172 57.6234 181.492C56.6754 182.811 55.2778 183.749 53.4273 184.3L59.2621 194.311H52.3132V194.308ZM45.5792 180.41H49.3974C50.5246 180.41 51.3716 180.133 51.9352 179.583C52.4988 179.032 52.7823 178.25 52.7823 177.24C52.7823 176.23 52.4988 175.523 51.9352 174.973C51.3716 174.419 50.5246 174.145 49.3974 174.145H45.5792V180.41Z" fill="#333333"/>
<path d="M90.2702 169.027V194.308H84.1129V179.146L78.4605 194.308H73.4923L67.8009 179.11V194.308H61.6436V169.027H68.9183L76.0139 186.528L83.0313 169.027H90.2702Z" fill="#333333"/>
<path d="M105.97 173.963V179.078H114.215V183.831H105.97V189.376H115.297V194.308H99.8125V169.027H115.297V173.96H105.97V173.963Z" fill="#333333"/>
<path d="M133.519 194.308L128.368 186.564L123.83 194.308H116.845L124.947 181.453L116.666 169.027H123.833L128.912 176.664L133.379 169.027H140.364L132.333 181.775L140.689 194.308H133.522H133.519Z" fill="#333333"/>
<path d="M160.708 169.027V173.96H154.01V194.308H147.852V173.963H141.154V169.027H160.708Z" fill="#333333"/>
<path d="M168.703 173.963V179.078H176.949V183.831H168.703V189.376H178.03V194.308H162.546V169.027H178.03V173.96H168.703V173.963Z" fill="#333333"/>
<path d="M203.383 194.308H197.226L186.928 178.716V194.308H180.771V169.027H186.928L197.226 184.691V169.027H203.383V194.308Z" fill="#333333"/>
<path d="M210.765 193.661C209.299 193.061 208.129 192.172 207.253 190.996C206.377 189.82 205.914 188.403 205.865 186.748H212.42C212.514 187.683 212.84 188.399 213.391 188.891C213.941 189.383 214.665 189.631 215.551 189.631C216.437 189.631 217.183 189.422 217.711 189.002C218.239 188.582 218.502 187.999 218.502 187.256C218.502 186.63 218.291 186.116 217.874 185.708C217.453 185.301 216.939 184.966 216.326 184.702C215.714 184.438 214.844 184.138 213.717 183.803C212.084 183.298 210.752 182.793 209.719 182.291C208.687 181.786 207.797 181.043 207.054 180.059C206.308 179.075 205.937 177.792 205.937 176.205C205.937 173.853 206.787 172.009 208.494 170.677C210.198 169.344 212.42 168.68 215.157 168.68C217.893 168.68 220.187 169.344 221.891 170.677C223.594 172.009 224.507 173.863 224.627 176.241H217.965C217.916 175.427 217.616 174.782 217.066 174.316C216.512 173.847 215.805 173.612 214.942 173.612C214.196 173.612 213.596 173.811 213.14 174.205C212.684 174.602 212.456 175.173 212.456 175.915C212.456 176.733 212.84 177.368 213.609 177.824C214.378 178.281 215.577 178.772 217.209 179.3C218.841 179.854 220.167 180.382 221.187 180.884C222.207 181.388 223.089 182.122 223.832 183.079C224.575 184.04 224.95 185.275 224.95 186.787C224.95 188.298 224.585 189.536 223.852 190.712C223.119 191.888 222.057 192.827 220.666 193.521C219.275 194.218 217.629 194.566 215.733 194.566C213.837 194.566 212.228 194.267 210.765 193.667V193.661Z" fill="#333333"/>
<path d="M233.632 169.027V194.308H227.475V169.027H233.632Z" fill="#333333"/>
<path d="M286.496 194.308H280.339L270.041 178.716V194.308H263.884V169.027H270.041L280.339 184.691V169.027H286.496V194.308Z" fill="#333333"/>
<path d="M251.407 193.176C245.194 193.187 240.135 188.159 240.123 181.939C240.111 175.719 245.132 170.653 251.346 170.641C254.367 170.629 257.264 171.847 259.388 173.997C255.189 168.219 247.109 166.94 241.325 171.144C235.542 175.349 234.278 183.439 238.477 189.229C242.677 195.019 250.755 196.286 256.539 192.081C256.821 191.872 257.104 191.651 257.361 191.43C255.594 192.586 253.518 193.189 251.407 193.176Z" fill="#343433"/>
<path d="M255.238 172.451C259.597 174.996 261.058 180.589 258.528 184.941C255.986 189.305 250.4 190.768 246.054 188.235C243.562 186.784 241.903 184.227 241.585 181.363V181.891C241.585 187.497 246.115 192.033 251.715 192.033C257.314 192.033 261.844 187.497 261.844 181.891C261.783 177.686 259.168 173.937 255.238 172.449V172.451Z" fill="#343433"/>
<path d="M250.387 173.148C247.059 173.137 244.138 175.337 243.204 178.533C244.715 175.214 248.631 173.751 251.946 175.264C255.261 176.776 256.722 180.699 255.212 184.018C254.145 186.379 251.787 187.878 249.208 187.878C248.631 187.867 248.054 187.792 247.489 187.658C248.409 188.051 249.392 188.247 250.399 188.235C254.561 188.211 257.9 184.805 257.877 180.637C257.827 176.519 254.501 173.187 250.387 173.15V173.148Z" fill="#343433"/>
</g>
<defs>
<clipPath id="clip0_955_121437">
<rect width="275.164" height="25.8933" fill="white" transform="translate(11.333 168.668)"/>
</clipPath>
</defs>
</svg>
