<svg width="250" height="220" viewBox="0 0 250 220" fill="none" xmlns="http://www.w3.org/2000/svg">
<g clip-path="url(#clip0_955_121550)">
<path d="M84.6768 0C42.5967 0 0 9.69646 0 28.2348V28.6552C12.8279 41.3633 42.1076 48.4065 84.6768 48.4065C127.246 48.4065 156.526 41.3633 169.354 28.6552V28.2348C169.354 9.69646 126.757 0 84.6768 0Z" fill="#343433"/>
<path d="M210.738 27.9892H220.837C222.539 27.9892 223.917 26.6109 223.917 24.9087C223.917 23.2064 222.539 21.8281 220.837 21.8281H210.738C209.036 21.8281 207.658 23.2064 207.658 24.9087C207.658 26.6109 209.036 27.9892 210.738 27.9892Z" fill="#343433"/>
<path d="M210.738 40.3251H235.402C237.103 40.3251 238.481 38.9468 238.481 37.2446C238.481 35.5424 237.103 34.1641 235.402 34.1641H210.738C209.036 34.1641 207.658 35.5424 207.658 37.2446C207.658 38.9468 209.036 40.3251 210.738 40.3251Z" fill="#343433"/>
<path d="M210.738 52.6611H228.616C230.317 52.6611 231.695 51.2828 231.695 49.5805C231.695 47.8783 230.317 46.5 228.616 46.5H210.738C209.036 46.5 207.658 47.8783 207.658 49.5805C207.658 51.2828 209.036 52.6611 210.738 52.6611Z" fill="#343433"/>
<path d="M210.738 105.489H220.837C222.539 105.489 223.917 104.111 223.917 102.409C223.917 100.706 222.539 99.3281 220.837 99.3281H210.738C209.036 99.3281 207.658 100.706 207.658 102.409C207.658 104.111 209.036 105.489 210.738 105.489Z" fill="#343433"/>
<path d="M210.738 117.825H235.402C237.103 117.825 238.481 116.447 238.481 114.745C238.481 113.042 237.103 111.664 235.402 111.664H210.738C209.036 111.664 207.658 113.042 207.658 114.745C207.658 116.447 209.036 117.825 210.738 117.825Z" fill="#343433"/>
<path d="M210.738 130.161H228.616C230.317 130.161 231.695 128.783 231.695 127.081C231.695 125.378 230.317 124 228.616 124H210.738C209.036 124 207.658 125.378 207.658 127.081C207.658 128.783 209.036 130.161 210.738 130.161Z" fill="#343433"/>
<path d="M208.926 182.696H219.026C220.728 182.696 222.106 181.318 222.106 179.616C222.106 177.913 220.728 176.535 219.026 176.535H208.926C207.225 176.535 205.847 177.913 205.847 179.616C205.847 181.318 207.225 182.696 208.926 182.696Z" fill="#343433"/>
<path d="M208.926 195.032H233.59C235.292 195.032 236.67 193.654 236.67 191.952C236.67 190.249 235.292 188.871 233.59 188.871H208.926C207.225 188.871 205.847 190.249 205.847 191.952C205.847 193.654 207.225 195.032 208.926 195.032Z" fill="#343433"/>
<path d="M226.804 201.203H208.926C207.225 201.203 205.847 202.581 205.847 204.284C205.847 205.986 207.225 207.364 208.926 207.364H226.804C228.506 207.364 229.884 205.986 229.884 204.284C229.884 202.581 228.506 201.203 226.804 201.203Z" fill="#343433"/>
<path d="M242.808 164.488H201.706C197.738 164.488 194.514 167.714 194.514 171.683V189.16H183.47C179.543 189.16 175.713 187.789 172.675 185.308L166.157 179.974V187.94L168.768 190.077C172.902 193.46 178.124 195.328 183.47 195.328H194.514V212.805C194.514 216.775 197.738 220 201.706 220H217.483C219.184 220 220.562 218.622 220.562 216.919C220.562 215.217 219.184 213.839 217.483 213.839H201.706C201.141 213.839 200.68 213.377 200.68 212.812V171.697C200.68 171.132 201.141 170.67 201.706 170.67H242.808C243.373 170.67 243.834 171.132 243.834 171.697V212.812C243.834 213.377 243.373 213.839 242.808 213.839H232.102C230.4 213.839 229.022 215.217 229.022 216.919C229.022 218.622 230.4 220 232.102 220H242.808C246.776 220 250 216.775 250 212.805V171.69C250 167.72 246.776 164.495 242.808 164.495V164.488Z" fill="#343433"/>
<path d="M242.808 86.9883H201.706C197.738 86.9883 194.514 90.2135 194.514 94.1831V111.66H166.15V117.828H194.514V135.305C194.514 139.275 197.738 142.5 201.706 142.5H242.808C246.776 142.5 250 139.275 250 135.305V94.19C250 90.2204 246.776 86.9952 242.808 86.9952V86.9883ZM243.834 135.305C243.834 135.87 243.373 136.332 242.808 136.332H201.706C201.141 136.332 200.68 135.87 200.68 135.305V94.19C200.68 93.6249 201.141 93.1631 201.706 93.1631H242.808C243.373 93.1631 243.834 93.6249 243.834 94.19V135.305Z" fill="#343433"/>
<path d="M242.808 9.48438H201.706C197.738 9.48438 194.514 12.7096 194.514 16.6792V34.1562H184.448C178.379 34.1562 172.633 36.4856 168.279 40.717L166.157 42.7776V51.3714L172.571 45.1414C175.768 42.0333 179.991 40.3242 184.448 40.3242H194.514V57.8013C194.514 61.7708 197.738 64.9961 201.706 64.9961H242.808C246.776 64.9961 250 61.7708 250 57.8013V16.6861C250 12.7165 246.776 9.49127 242.808 9.49127V9.48438ZM243.834 57.8013C243.834 58.3664 243.373 58.8281 242.808 58.8281H201.706C201.141 58.8281 200.68 58.3664 200.68 57.8013V16.6861C200.68 16.121 201.141 15.6592 201.706 15.6592H242.808C243.373 15.6592 243.834 16.121 243.834 16.6861V57.8013Z" fill="#343433"/>
<path d="M61.7627 132.587C61.7076 132.711 61.6456 132.835 61.5905 132.966C61.2322 133.8 61.1702 134.613 61.7834 135.371C62.4103 136.143 63.2646 136.281 64.1464 136.033C66.227 135.44 67.9562 134.241 69.5545 132.814C71.9176 130.719 73.7157 128.183 75.3898 125.537C77.0501 122.918 78.4073 120.148 79.5854 117.295C80.8461 114.255 81.9347 111.147 82.6649 107.936C83.1472 105.82 83.6088 103.698 83.9257 101.547C84.1806 99.8521 84.2633 98.1292 84.3115 96.4131C84.3597 94.8419 84.339 93.2637 84.2081 91.7062C84.0083 89.3424 83.5605 87.013 82.4582 84.8766C81.9347 83.8636 81.3215 82.9194 80.2468 82.375C79.4338 81.9615 78.6484 81.9408 77.8631 82.437C77.7046 82.5335 77.5324 82.6024 77.3257 82.7127C77.3119 82.5817 77.2775 82.5059 77.2981 82.4508C77.9664 80.7762 78.8276 79.2324 80.3432 78.1574C82.2722 76.7859 84.3459 76.4 86.6401 77.1787C89.7334 78.2332 91.8691 80.3006 93.2469 83.2158C94.2459 85.3246 94.8108 87.5506 94.9899 89.8661C95.1139 91.5201 95.2862 93.181 95.2242 94.835C95.1415 96.9438 94.9486 99.0595 94.6248 101.141C94.2252 103.67 93.7499 106.199 93.116 108.687C91.5866 114.69 89.3614 120.437 86.4816 125.923C84.5319 129.644 82.3205 133.207 79.6543 136.467C77.6702 138.893 75.4725 141.098 72.827 142.814C71.1115 143.924 69.2859 144.778 67.2466 145.13C65.8756 145.364 64.5253 145.226 63.1681 145.006C61.5147 144.744 60.061 144.068 59.0001 142.745C57.6567 141.071 57.3535 139.196 58.0631 137.156C58.6625 135.42 59.7992 134.069 61.0944 132.828C61.246 132.684 61.4665 132.608 61.6525 132.504C61.6869 132.539 61.7214 132.573 61.7558 132.608L61.7627 132.587Z" fill="#343433"/>
<path d="M99.2269 140.732C98.8411 140.387 98.5173 140.07 98.1729 139.788C96.3059 138.23 94.1495 137.266 91.814 136.68C90.2157 136.28 88.5898 136.073 86.9364 136.025C85.0074 135.97 83.0921 136.066 81.2045 136.487C81.1769 136.487 81.1493 136.48 81.0322 136.452C81.0942 136.294 81.108 136.115 81.2045 136.004C83.0508 133.799 84.5251 131.339 85.9581 128.858C86.2612 128.334 86.5161 127.79 86.8399 127.287C86.9571 127.114 87.2326 126.914 87.4117 126.935C88.955 127.1 90.5051 127.28 92.0414 127.521C94.0186 127.824 95.9614 128.286 97.8077 129.051C99.723 129.843 100.86 131.339 101.349 133.317C101.686 134.702 101.122 135.942 100.619 137.183C100.178 138.272 99.7781 139.367 99.3578 140.463C99.3303 140.532 99.2958 140.594 99.2338 140.739L99.2269 140.732Z" fill="#343433"/>
<path d="M101.211 130.499C101.46 130.589 101.57 130.616 101.666 130.671C103.912 131.939 106.11 133.283 107.97 135.096C109.258 136.35 110.374 137.721 110.967 139.451C111.587 141.271 111.291 142.973 110.209 144.523C107.743 148.038 102.424 147.576 100.502 143.724C99.9163 142.546 99.9439 141.402 100.405 140.23C100.839 139.12 101.377 138.052 101.763 136.929C102.073 136.033 102.334 135.096 102.41 134.159C102.493 133.042 102.114 131.988 101.473 131.044C101.384 130.913 101.335 130.754 101.218 130.492L101.211 130.499Z" fill="#343433"/>
<path d="M83.3674 97.4131C82.7542 96.9651 82.2169 96.593 81.7002 96.1933C80.1087 94.9666 78.8618 93.4573 78.0213 91.6311C77.167 89.7841 76.8432 87.8407 76.9534 85.8008C77.0085 84.705 77.5115 83.9538 78.3037 83.306C78.7584 82.9339 79.2545 82.9614 79.7505 83.2026C80.5565 83.6024 81.025 84.3122 81.4453 85.0634C82.5613 87.0481 83.0505 89.2259 83.2296 91.4656C83.3743 93.2919 83.3674 95.1389 83.4225 96.972C83.4225 97.0685 83.4018 97.1719 83.3743 97.4131H83.3674Z" fill="#343433"/>
<path d="M63.5609 135.165C62.6515 135.151 62.1348 134.482 62.3001 133.766C62.6308 132.318 63.5402 131.236 64.7114 130.451C65.6346 129.831 66.6955 129.362 67.7496 128.997C69.2308 128.487 70.7671 128.135 72.2828 127.729C72.3999 127.701 72.5446 127.777 72.6755 127.798C72.641 127.901 72.6341 128.025 72.5652 128.101C71.4423 129.348 70.3675 130.637 69.1826 131.815C67.8598 133.132 66.3097 134.152 64.5667 134.855C64.1878 135.006 63.7882 135.096 63.5678 135.165H63.5609Z" fill="#343433"/>
<path d="M84.8215 168.084C55.2111 168.084 31.1191 143.984 31.1191 114.364C31.1191 84.7444 55.2111 60.6445 84.8215 60.6445C114.432 60.6445 138.524 84.7444 138.524 114.364C138.524 143.984 114.432 168.084 84.8215 168.084ZM84.8215 68.88C59.7512 68.88 39.3519 89.2859 39.3519 114.364C39.3519 139.443 59.7512 159.849 84.8215 159.849C109.892 159.849 130.291 139.443 130.291 114.364C130.291 89.2859 109.892 68.88 84.8215 68.88Z" fill="#343433"/>
<path d="M84.6768 56.4701C39.2554 56.4701 13.944 48.9996 0 39.503V77.0552C6.59998 83.5884 17.5816 88.6193 32.4556 91.9686C41.1706 71.6591 61.3564 57.3866 84.8214 57.3866C108.286 57.3866 128.431 71.6247 137.16 91.9066C151.903 88.5573 162.795 83.5471 169.36 77.0483V39.4961C155.416 48.9927 130.105 56.4632 84.6836 56.4632L84.6768 56.4701Z" fill="#343433"/>
<path d="M129.058 150.195C118.607 163.082 102.665 171.339 84.8214 171.339C66.9781 171.339 51.0706 163.103 40.6195 150.243C21.4465 147.204 8.56344 142.146 0 136.309V173.44C0 191.979 42.5967 201.675 84.6768 201.675C126.757 201.675 169.354 191.979 169.354 173.44V136.309C160.838 142.111 148.052 147.142 129.058 150.188V150.195Z" fill="#343433"/>
<path d="M27.8673 114.367C27.8673 109.322 28.5356 104.429 29.7688 99.7637C16.431 96.7245 6.83421 92.5689 0 87.9102V125.462C6.88244 132.278 18.5254 137.454 34.3915 140.796C30.2304 132.892 27.8673 123.898 27.8673 114.367Z" fill="#343433"/>
<path d="M139.854 99.7017C141.101 104.381 141.776 109.295 141.776 114.367C141.776 123.877 139.42 132.843 135.286 140.734C150.994 137.392 162.52 132.237 169.361 125.462V87.9102C162.568 92.5344 153.054 96.6694 139.861 99.7017H139.854Z" fill="#343433"/>
</g>
<defs>
<clipPath id="clip0_955_121550">
<rect width="250" height="220" fill="white"/>
</clipPath>
</defs>
</svg>
