<svg width="882" height="600" viewBox="0 0 882 600" fill="none" xmlns="http://www.w3.org/2000/svg">
<path d="M255.987 7.14844H626.591C656.633 7.14844 681.023 31.5152 681.023 61.5285V431.779C681.023 461.793 656.633 486.159 626.591 486.159H255.987C225.945 486.159 201.555 461.793 201.555 431.779V61.5285C201.555 31.5152 225.945 7.14844 255.987 7.14844Z" fill="#343433"/>
<path d="M626.591 14.2952C652.594 14.2952 673.869 35.5494 673.869 61.5276V431.779C673.869 457.757 652.594 479.011 626.591 479.011H255.987C229.984 479.011 208.709 457.757 208.709 431.779V61.5276C208.709 35.5494 229.984 14.2952 255.987 14.2952H626.591ZM626.591 0H255.987C222.029 0 194.4 27.6026 194.4 61.5276V431.779C194.4 465.704 222.029 493.306 255.987 493.306H626.591C660.549 493.306 688.178 465.704 688.178 431.779V61.5276C688.178 27.6026 660.549 0 626.591 0Z" fill="white"/>
<path d="M477.252 409.721C387.508 409.721 314.754 336.933 314.754 247.147C314.754 157.362 387.508 84.5735 477.252 84.5735C522.514 84.5735 563.441 103.107 592.906 132.976C558.954 86.5665 504.128 56.4062 442.234 56.4062C339.162 56.4062 255.6 140.007 255.6 243.128C255.6 346.249 339.162 429.85 442.234 429.85C488.748 429.85 531.257 412.787 563.938 384.626C538.848 400.498 509.132 409.715 477.252 409.715V409.721Z" fill="#3F4546"/>
<path d="M533.123 110.725C572.197 133.609 598.458 176.018 598.458 224.586C598.458 297.421 539.443 356.463 466.642 356.463C398.918 356.463 343.146 305.353 335.7 239.583C335.561 242.166 335.488 244.761 335.488 247.377C335.488 328.058 400.863 393.457 481.5 393.457C562.137 393.457 627.512 328.051 627.512 247.377C627.512 184.884 588.279 131.589 533.123 110.719V110.725Z" fill="#3F4546"/>
<path d="M462.711 120.812C413.709 120.812 372.338 153.423 359.049 198.13C373.92 164.977 407.177 141.875 445.847 141.875C498.376 141.875 540.965 184.477 540.965 237.037C540.965 289.597 498.383 332.199 445.847 332.199C437.263 332.199 428.951 331.04 421.035 328.908C433.862 334.272 447.939 337.244 462.711 337.244C522.447 337.244 570.873 288.796 570.873 229.032C570.873 169.268 522.447 120.819 462.711 120.819V120.812Z" fill="#3F4546"/>
<path d="M399.308 127.859C355.218 127.859 310.584 138.023 310.584 157.45V157.887C324.026 171.203 354.701 178.579 399.308 178.579C443.915 178.579 474.584 171.196 488.033 157.887V157.45C488.033 138.023 443.399 127.859 399.308 127.859Z" fill="#33CFFF"/>
<path d="M531.384 157.189H541.967C543.754 157.189 545.196 155.739 545.196 153.958C545.196 152.177 543.747 150.727 541.967 150.727H531.384C529.597 150.727 528.154 152.177 528.154 153.958C528.154 155.739 529.604 157.189 531.384 157.189Z" fill="#33CFFF"/>
<path d="M531.384 170.119H557.222C559.009 170.119 560.451 168.669 560.451 166.887C560.451 165.106 559.002 163.656 557.222 163.656H531.384C529.597 163.656 528.154 165.106 528.154 166.887C528.154 168.669 529.604 170.119 531.384 170.119Z" fill="#33CFFF"/>
<path d="M531.384 183.041H550.114C551.901 183.041 553.343 181.59 553.343 179.809C553.343 178.028 551.894 176.578 550.114 176.578H531.384C529.597 176.578 528.154 178.028 528.154 179.809C528.154 181.59 529.604 183.041 531.384 183.041Z" fill="#33CFFF"/>
<path d="M531.384 238.4H541.967C543.754 238.4 545.196 236.95 545.196 235.169C545.196 233.388 543.747 231.938 541.967 231.938H531.384C529.597 231.938 528.154 233.388 528.154 235.169C528.154 236.95 529.604 238.4 531.384 238.4Z" fill="#33CFFF"/>
<path d="M531.384 251.322H557.222C559.009 251.322 560.451 249.872 560.451 248.091C560.451 246.309 559.002 244.859 557.222 244.859H531.384C529.597 244.859 528.154 246.309 528.154 248.091C528.154 249.872 529.604 251.322 531.384 251.322Z" fill="#33CFFF"/>
<path d="M531.384 264.252H550.114C551.901 264.252 553.343 262.801 553.343 261.02C553.343 259.239 551.894 257.789 550.114 257.789H531.384C529.597 257.789 528.154 259.239 528.154 261.02C528.154 262.801 529.604 264.252 531.384 264.252Z" fill="#33CFFF"/>
<path d="M529.484 319.306H540.066C541.853 319.306 543.296 317.856 543.296 316.075C543.296 314.294 541.847 312.844 540.066 312.844H529.484C527.697 312.844 526.254 314.294 526.254 316.075C526.254 317.856 527.703 319.306 529.484 319.306Z" fill="#33CFFF"/>
<path d="M529.484 332.228H555.321C557.108 332.228 558.551 330.778 558.551 328.997C558.551 327.216 557.102 325.766 555.321 325.766H529.484C527.697 325.766 526.254 327.216 526.254 328.997C526.254 330.778 527.703 332.228 529.484 332.228Z" fill="#33CFFF"/>
<path d="M548.213 338.695H529.484C527.697 338.695 526.254 340.145 526.254 341.927C526.254 343.708 527.703 345.158 529.484 345.158H548.213C550 345.158 551.443 343.708 551.443 341.927C551.443 340.145 549.994 338.695 548.213 338.695Z" fill="#33CFFF"/>
<path d="M564.991 300.233H521.926C517.77 300.233 514.388 303.617 514.388 307.775V326.083H502.813C498.703 326.083 494.685 324.646 491.502 322.044L484.672 316.455V324.805L487.412 327.043C491.747 330.592 497.213 332.545 502.813 332.545H514.388V350.853C514.388 355.012 517.77 358.395 521.926 358.395H538.452C540.239 358.395 541.682 356.945 541.682 355.164C541.682 353.383 540.239 351.933 538.452 351.933H521.926C521.33 351.933 520.847 351.449 520.847 350.853V307.768C520.847 307.172 521.33 306.689 521.926 306.689H564.991C565.587 306.689 566.07 307.172 566.07 307.768V350.853C566.07 351.449 565.587 351.933 564.991 351.933H553.773C551.986 351.933 550.543 353.376 550.543 355.164C550.543 356.952 551.986 358.395 553.773 358.395H564.991C569.147 358.395 572.529 355.012 572.529 350.853V307.768C572.529 303.61 569.147 300.227 564.991 300.227V300.233Z" fill="#33CFFF"/>
<path d="M564.991 219.014H521.926C517.77 219.014 514.388 222.398 514.388 226.556V244.864H484.672V251.327H514.388V269.635C514.388 273.793 517.77 277.176 521.926 277.176H564.991C569.147 277.176 572.529 273.793 572.529 269.635V226.55C572.529 222.391 569.147 219.008 564.991 219.008V219.014ZM566.063 269.641C566.063 270.237 565.58 270.721 564.984 270.721H521.919C521.324 270.721 520.841 270.237 520.841 269.641V226.556C520.841 225.96 521.324 225.477 521.919 225.477H564.984C565.58 225.477 566.063 225.96 566.063 226.556V269.641Z" fill="#33CFFF"/>
<path d="M564.991 137.803H521.926C517.77 137.803 514.388 141.187 514.388 145.345V163.653H503.838C497.478 163.653 491.462 166.097 486.896 170.526L484.672 172.685V181.69L491.396 175.161C494.752 171.903 499.166 170.116 503.838 170.116H514.388V188.424C514.388 192.582 517.77 195.965 521.926 195.965H564.991C569.147 195.965 572.529 192.582 572.529 188.424V145.339C572.529 141.18 569.147 137.797 564.991 137.797V137.803ZM566.063 188.424C566.063 189.02 565.58 189.503 564.984 189.503H521.919C521.324 189.503 520.841 189.02 520.841 188.424V145.339C520.841 144.743 521.324 144.259 521.919 144.259H564.984C565.58 144.259 566.063 144.743 566.063 145.339V188.424Z" fill="#33CFFF"/>
<path d="M375.298 266.793C375.238 266.925 375.179 267.058 375.119 267.19C374.742 268.064 374.676 268.918 375.317 269.706C375.979 270.514 376.866 270.66 377.793 270.395C379.97 269.773 381.784 268.515 383.465 267.025C385.94 264.833 387.826 262.171 389.58 259.404C391.32 256.662 392.737 253.756 393.981 250.763C395.305 247.578 396.443 244.32 397.211 240.956C397.714 238.738 398.197 236.514 398.534 234.262C398.799 232.488 398.885 230.68 398.938 228.879C398.984 227.237 398.971 225.582 398.832 223.946C398.62 221.47 398.15 219.033 396.992 216.795C396.443 215.736 395.801 214.743 394.669 214.173C393.816 213.743 392.995 213.716 392.168 214.233C392.002 214.332 391.823 214.412 391.605 214.517C391.585 214.378 391.552 214.299 391.579 214.239C392.28 212.485 393.18 210.862 394.769 209.737C396.794 208.3 398.958 207.896 401.367 208.717C404.61 209.823 406.847 211.988 408.29 215.041C409.335 217.252 409.931 219.583 410.116 222.006C410.249 223.741 410.427 225.482 410.361 227.211C410.275 229.415 410.077 231.634 409.732 233.819C409.315 236.474 408.812 239.122 408.151 241.725C406.549 248.015 404.213 254.034 401.201 259.788C399.156 263.688 396.84 267.415 394.047 270.832C391.969 273.375 389.666 275.685 386.893 277.48C385.093 278.645 383.187 279.539 381.049 279.91C379.613 280.155 378.196 280.009 376.78 279.784C375.046 279.506 373.531 278.804 372.412 277.414C371.002 275.659 370.691 273.699 371.433 271.554C372.061 269.733 373.253 268.323 374.609 267.018C374.768 266.866 375 266.786 375.198 266.68C375.231 266.72 375.271 266.753 375.304 266.793H375.298Z" fill="white"/>
<path d="M414.551 275.337C414.147 274.973 413.803 274.649 413.446 274.344C411.493 272.715 409.23 271.702 406.781 271.086C405.107 270.663 403.399 270.451 401.672 270.404C399.646 270.345 397.648 270.451 395.669 270.888C395.642 270.888 395.609 270.875 395.49 270.855C395.55 270.689 395.57 270.504 395.669 270.385C397.608 268.074 399.15 265.498 400.652 262.896C400.97 262.353 401.235 261.777 401.579 261.247C401.698 261.062 401.989 260.856 402.181 260.876C403.803 261.048 405.418 261.241 407.026 261.486C409.097 261.803 411.129 262.287 413.068 263.088C415.074 263.916 416.265 265.485 416.775 267.557C417.132 269.007 416.536 270.305 416.013 271.61C415.55 272.748 415.133 273.901 414.69 275.046C414.663 275.119 414.63 275.185 414.557 275.337H414.551Z" fill="white"/>
<path d="M416.628 264.608C416.886 264.701 417.005 264.727 417.105 264.787C419.454 266.118 421.757 267.522 423.71 269.422C425.053 270.733 426.231 272.17 426.847 273.991C427.495 275.898 427.191 277.679 426.052 279.301C423.465 282.989 417.892 282.506 415.887 278.46C415.271 277.228 415.304 276.03 415.781 274.805C416.238 273.646 416.8 272.527 417.204 271.349C417.528 270.408 417.806 269.429 417.879 268.442C417.965 267.277 417.568 266.164 416.899 265.178C416.807 265.045 416.76 264.88 416.635 264.602L416.628 264.608Z" fill="white"/>
<path d="M397.932 229.934C397.29 229.464 396.727 229.073 396.185 228.656C394.517 227.372 393.213 225.789 392.333 223.876C391.439 221.942 391.102 219.903 391.214 217.764C391.274 216.619 391.803 215.824 392.631 215.149C393.107 214.758 393.63 214.785 394.146 215.043C394.987 215.46 395.476 216.208 395.926 216.996C397.098 219.082 397.607 221.36 397.793 223.704C397.945 225.617 397.932 227.551 397.991 229.471C397.991 229.577 397.971 229.676 397.938 229.934H397.932Z" fill="white"/>
<path d="M377.185 269.503C376.232 269.49 375.696 268.788 375.868 268.033C376.219 266.517 377.165 265.385 378.389 264.564C379.356 263.915 380.468 263.418 381.573 263.034C383.121 262.498 384.73 262.134 386.318 261.703C386.437 261.67 386.589 261.75 386.728 261.776C386.689 261.882 386.682 262.014 386.616 262.094C385.444 263.398 384.313 264.749 383.068 265.987C381.685 267.365 380.057 268.437 378.237 269.172C377.84 269.331 377.423 269.424 377.185 269.497V269.503Z" fill="white"/>
<path d="M433.604 286.859C424.471 294.838 412.532 299.685 399.454 299.685C386.376 299.685 374.47 294.851 365.343 286.892C338.334 284.118 321.266 277.98 310.584 270.703V309.617C310.584 329.044 355.218 339.201 399.308 339.201C443.399 339.201 488.033 329.037 488.033 309.617V270.703C477.391 277.947 460.421 284.065 433.611 286.859H433.604Z" fill="#33CFFF"/>
<path d="M347.501 247.7C347.501 242.939 348.156 238.331 349.354 233.948C331.339 230.716 318.983 225.697 310.584 219.977V259.327C319.188 267.849 334.853 273.927 356.693 277.211C350.902 268.829 347.501 258.665 347.501 247.7Z" fill="#33CFFF"/>
<path d="M449.541 233.895C450.753 238.291 451.408 242.92 451.408 247.7C451.408 258.639 448.019 268.789 442.248 277.165C463.916 273.874 479.469 267.809 488.027 259.327V219.977C479.668 225.671 467.404 230.663 449.541 233.895Z" fill="#33CFFF"/>
<path d="M399.308 187.036C351.723 187.036 325.197 179.21 310.584 169.258V208.608C318.605 216.554 332.762 222.381 352.339 225.791C360.605 208.039 378.587 195.723 399.454 195.723C420.321 195.723 438.27 208.013 446.543 225.745C465.987 222.328 480.038 216.514 488.026 208.608V169.258C473.42 179.21 446.894 187.036 399.302 187.036H399.308Z" fill="#33CFFF"/>
<path d="M399.453 299.682C428.146 299.682 451.407 276.411 451.407 247.704C451.407 218.998 428.146 195.727 399.453 195.727C370.76 195.727 347.5 218.998 347.5 247.704C347.5 276.411 370.76 299.682 399.453 299.682Z" stroke="white" stroke-width="9" stroke-miterlimit="10"/>
<path d="M0 518C0 500.327 14.1346 486 31.5705 486H850.43C867.865 486 882 500.327 882 518V568C882 585.673 867.865 600 850.43 600H31.5705C14.1346 600 0 585.673 0 568V518Z" fill="white"/>
<g clip-path="url(#clip0_958_122391)">
<path d="M51.5681 576.679C45.6941 573.403 41.0278 568.832 37.5788 562.957C34.1297 557.082 32.4004 550.473 32.4004 543.139C32.4004 535.805 34.1297 529.215 37.5788 523.378C41.0278 517.542 45.6941 512.981 51.5681 509.706C57.4421 506.44 63.9054 504.797 70.9484 504.797C77.9914 504.797 84.4547 506.44 90.3286 509.706C96.2026 512.981 100.83 517.542 104.212 523.378C107.593 529.215 109.284 535.805 109.284 543.139C109.284 550.473 107.574 557.082 104.154 562.957C100.734 568.832 96.106 573.412 90.2707 576.679C84.4353 579.954 77.9914 581.587 70.9387 581.587C63.8861 581.587 57.4324 579.954 51.5585 576.679H51.5681ZM85.3145 558.947C88.9085 554.957 90.7054 549.69 90.7054 543.139C90.7054 536.588 88.9085 531.234 85.3145 527.282C81.7206 523.33 76.9286 521.359 70.9484 521.359C64.9681 521.359 60.0699 523.32 56.476 527.234C52.882 531.147 51.0851 536.452 51.0851 543.149C51.0851 549.845 52.882 555.063 56.476 559.015C60.0699 562.967 64.8908 564.938 70.9484 564.938C77.0059 564.938 81.7206 562.948 85.3145 558.957V558.947Z" fill="#333333"/>
<path d="M153.928 580.843L138.335 552.54H133.959V580.843H115.699V505.859H146.344C152.257 505.859 157.29 506.893 161.454 508.961C165.618 511.029 168.729 513.86 170.797 517.455C172.864 521.049 173.898 525.059 173.898 529.475C173.898 534.461 172.487 538.916 169.676 542.829C166.865 546.743 162.72 549.526 157.233 551.159L174.536 580.852H153.928V580.843ZM133.959 539.621H145.282C148.624 539.621 151.136 538.8 152.808 537.167C154.479 535.534 155.32 533.215 155.32 530.219C155.32 527.224 154.479 525.127 152.808 523.494C151.136 521.851 148.624 521.04 145.282 521.04H133.959V539.621Z" fill="#333333"/>
<path d="M266.49 505.859V580.843H248.231V535.872L231.469 580.843H216.735L199.857 535.766V580.843H181.598V505.859H203.171L224.213 557.768L245.023 505.859H266.49Z" fill="#333333"/>
<path d="M313.047 520.499V535.669H337.499V549.767H313.047V566.213H340.707V580.843H294.787V505.859H340.707V520.489H313.047V520.499Z" fill="#333333"/>
<path d="M394.742 580.843L379.467 557.874L366.01 580.843H345.296L369.323 542.713L344.765 505.859H366.019L381.081 528.509L394.326 505.859H415.04L391.225 543.67L416.006 580.843H394.751H394.742Z" fill="#333333"/>
<path d="M475.374 505.859V520.489H455.511V580.843H437.251V520.499H417.388V505.859H475.374Z" fill="#333333"/>
<path d="M499.082 520.499V535.669H523.534V549.767H499.082V566.213H526.742V580.843H480.822V505.859H526.742V520.489H499.082V520.499Z" fill="#333333"/>
<path d="M601.925 580.843H583.666L553.127 534.597V580.843H534.867V505.859H553.127L583.666 552.318V505.859H601.925V580.843Z" fill="#333333"/>
<path d="M623.817 578.919C619.47 577.141 616.002 574.503 613.403 571.014C610.804 567.526 609.432 563.323 609.287 558.414H628.725C629.006 561.187 629.972 563.313 631.604 564.772C633.237 566.231 635.382 566.966 638.01 566.966C640.638 566.966 642.85 566.347 644.415 565.101C645.98 563.854 646.763 562.125 646.763 559.922C646.763 558.066 646.135 556.54 644.898 555.332C643.652 554.124 642.125 553.129 640.309 552.346C638.493 551.563 635.913 550.674 632.57 549.679C627.73 548.181 623.779 546.684 620.716 545.195C617.654 543.698 615.016 541.495 612.813 538.576C610.601 535.658 609.5 531.851 609.5 527.145C609.5 520.169 612.021 514.7 617.084 510.748C622.136 506.795 628.725 504.824 636.841 504.824C644.956 504.824 651.758 506.795 656.81 510.748C661.863 514.7 664.568 520.198 664.926 527.252H645.169C645.024 524.836 644.135 522.923 642.502 521.541C640.86 520.149 638.763 519.454 636.203 519.454C633.991 519.454 632.213 520.043 630.86 521.212C629.508 522.391 628.832 524.082 628.832 526.285C628.832 528.711 629.972 530.595 632.252 531.948C634.532 533.301 638.087 534.76 642.927 536.325C647.767 537.968 651.7 539.533 654.724 541.021C657.747 542.519 660.366 544.693 662.568 547.534C664.771 550.384 665.882 554.047 665.882 558.53C665.882 563.014 664.8 566.686 662.626 570.174C660.453 573.662 657.303 576.445 653.178 578.503C649.052 580.571 644.174 581.605 638.551 581.605C632.928 581.605 628.155 580.716 623.817 578.938V578.919Z" fill="#333333"/>
<path d="M691.629 505.859V580.843H673.369V505.859H691.629Z" fill="#333333"/>
<path d="M848.401 580.843H830.141L799.602 534.597V580.843H781.343V505.859H799.602L830.141 552.318V505.859H848.401V580.843Z" fill="#333333"/>
<path d="M744.34 577.487C725.915 577.522 710.912 562.609 710.878 544.16C710.843 525.71 725.733 510.684 744.158 510.649C753.117 510.615 761.708 514.225 768.007 520.603C755.556 503.464 731.594 499.672 714.443 512.142C697.292 524.612 693.544 548.607 705.995 565.781C718.45 582.954 742.408 586.712 759.559 574.242C760.395 573.621 761.235 572.966 761.998 572.311C756.756 575.739 750.6 577.526 744.34 577.487Z" fill="#343433"/>
<path d="M755.701 516.016C768.628 523.566 772.96 540.154 765.457 553.062C757.919 566.006 741.353 570.345 728.464 562.834C721.073 558.53 716.156 550.945 715.212 542.449V544.016C715.212 560.643 728.646 574.098 745.252 574.098C761.857 574.098 775.291 560.643 775.291 544.016C775.109 531.545 767.355 520.424 755.701 516.012V516.016Z" fill="#343433"/>
<path d="M741.317 518.09C731.448 518.055 722.784 524.581 720.016 534.062C724.495 524.217 736.11 519.878 745.94 524.364C755.769 528.851 760.102 540.484 755.627 550.329C752.46 557.332 745.467 561.779 737.821 561.779C736.11 561.745 734.399 561.523 732.722 561.124C735.451 562.291 738.367 562.873 741.352 562.838C753.694 562.764 763.598 552.663 763.528 540.301C763.381 528.087 753.517 518.203 741.317 518.094V518.09Z" fill="#343433"/>
</g>
<defs>
<clipPath id="clip0_958_122391">
<rect width="816" height="76.8" fill="white" transform="translate(32.4004 504.797)"/>
</clipPath>
</defs>
</svg>
