<svg width="546" height="366" viewBox="0 0 546 366" fill="none" xmlns="http://www.w3.org/2000/svg">
<path d="M392.776 4.04297H152.578C139.267 4.04297 128.477 14.8387 128.477 28.1559V268.466C128.477 281.783 139.267 292.579 152.578 292.579H392.776C406.087 292.579 416.878 281.783 416.878 268.466V28.1559C416.878 14.8387 406.087 4.04297 392.776 4.04297Z" fill="#343433"/>
<path d="M392.777 296.614H152.579C137.065 296.614 124.44 283.984 124.44 268.462V28.152C124.44 12.63 137.061 0 152.579 0H392.777C408.292 0 420.916 12.63 420.916 28.152V268.462C420.916 283.984 408.292 296.614 392.777 296.614ZM152.579 8.07804C141.513 8.07804 132.515 17.0851 132.515 28.152V268.462C132.515 279.533 141.518 288.536 152.579 288.536H392.777C403.843 288.536 412.841 279.529 412.841 268.462V28.152C412.841 17.081 403.839 8.07804 392.777 8.07804H152.579Z" fill="white"/>
<path d="M295.028 249.928C240.284 249.928 195.904 205.528 195.904 150.758C195.904 95.9892 240.284 51.5883 295.028 51.5883C322.638 51.5883 347.604 62.8935 365.577 81.1135C344.867 52.804 311.423 34.4062 273.668 34.4062C210.793 34.4062 159.82 85.4029 159.82 148.307C159.82 211.21 210.793 262.207 273.668 262.207C302.041 262.207 327.971 251.799 347.906 234.621C332.602 244.302 314.475 249.924 295.028 249.924V249.928Z" fill="#3F4546"/>
<path d="M329.109 67.5431C352.944 81.502 368.963 107.372 368.963 136.998C368.963 181.427 332.964 217.443 288.556 217.443C247.244 217.443 213.223 186.266 208.681 146.147C208.596 147.722 208.552 149.305 208.552 150.9C208.552 200.116 248.431 240.009 297.619 240.009C346.808 240.009 386.686 200.112 386.686 150.9C386.686 112.78 362.754 80.2701 329.109 67.5391V67.5431Z" fill="#3F4546"/>
<path d="M286.157 73.6953C256.267 73.6953 231.03 93.5875 222.924 120.859C231.995 100.636 252.282 86.5434 275.871 86.5434C307.914 86.5434 333.893 112.531 333.893 144.592C333.893 176.654 307.918 202.641 275.871 202.641C270.635 202.641 265.564 201.934 260.736 200.634C268.56 203.905 277.147 205.719 286.157 205.719C322.597 205.719 352.136 176.165 352.136 139.709C352.136 103.253 322.597 73.6994 286.157 73.6994V73.6953Z" fill="#3F4546"/>
<path d="M247.482 77.9961C220.587 77.9961 193.36 84.196 193.36 96.0465V96.3131C201.56 104.436 220.272 108.935 247.482 108.935C274.693 108.935 293.401 104.431 301.604 96.3131V96.0465C301.604 84.196 274.378 77.9961 247.482 77.9961Z" fill="#33CFFF"/>
<path d="M328.047 95.8835H334.503C335.593 95.8835 336.473 94.9989 336.473 93.9125C336.473 92.826 335.589 91.9414 334.503 91.9414H328.047C326.957 91.9414 326.077 92.826 326.077 93.9125C326.077 94.9989 326.961 95.8835 328.047 95.8835Z" fill="#33CFFF"/>
<path d="M328.047 103.774H343.808C344.898 103.774 345.778 102.89 345.778 101.803C345.778 100.717 344.894 99.832 343.808 99.832H328.047C326.957 99.832 326.077 100.717 326.077 101.803C326.077 102.89 326.961 103.774 328.047 103.774Z" fill="#33CFFF"/>
<path d="M328.047 111.653H339.472C340.562 111.653 341.442 110.768 341.442 109.682C341.442 108.595 340.558 107.711 339.472 107.711H328.047C326.957 107.711 326.077 108.595 326.077 109.682C326.077 110.768 326.961 111.653 328.047 111.653Z" fill="#33CFFF"/>
<path d="M328.047 145.423H334.503C335.593 145.423 336.473 144.538 336.473 143.452C336.473 142.365 335.589 141.48 334.503 141.48H328.047C326.957 141.48 326.077 142.365 326.077 143.452C326.077 144.538 326.961 145.423 328.047 145.423Z" fill="#33CFFF"/>
<path d="M328.047 153.305H343.808C344.898 153.305 345.778 152.421 345.778 151.334C345.778 150.248 344.894 149.363 343.808 149.363H328.047C326.957 149.363 326.077 150.248 326.077 151.334C326.077 152.421 326.961 153.305 328.047 153.305Z" fill="#33CFFF"/>
<path d="M328.047 161.192H339.472C340.562 161.192 341.442 160.308 341.442 159.221C341.442 158.135 340.558 157.25 339.472 157.25H328.047C326.957 157.25 326.077 158.135 326.077 159.221C326.077 160.308 326.961 161.192 328.047 161.192Z" fill="#33CFFF"/>
<path d="M326.888 194.778H333.343C334.433 194.778 335.314 193.893 335.314 192.807C335.314 191.72 334.429 190.836 333.343 190.836H326.888C325.798 190.836 324.918 191.72 324.918 192.807C324.918 193.893 325.802 194.778 326.888 194.778Z" fill="#33CFFF"/>
<path d="M326.888 202.661H342.649C343.739 202.661 344.619 201.776 344.619 200.69C344.619 199.603 343.735 198.719 342.649 198.719H326.888C325.798 198.719 324.918 199.603 324.918 200.69C324.918 201.776 325.802 202.661 326.888 202.661Z" fill="#33CFFF"/>
<path d="M338.313 206.605H326.888C325.798 206.605 324.918 207.49 324.918 208.577C324.918 209.663 325.802 210.548 326.888 210.548H338.313C339.403 210.548 340.283 209.663 340.283 208.577C340.283 207.49 339.399 206.605 338.313 206.605Z" fill="#33CFFF"/>
<path d="M348.547 183.141H322.278C319.742 183.141 317.679 185.205 317.679 187.741V198.909H310.619C308.111 198.909 305.661 198.033 303.719 196.445L299.553 193.036V198.13L301.224 199.495C303.868 201.66 307.203 202.851 310.619 202.851H317.679V214.019C317.679 216.556 319.742 218.62 322.278 218.62H332.359C333.449 218.62 334.329 217.735 334.329 216.648C334.329 215.562 333.449 214.677 332.359 214.677H322.278C321.914 214.677 321.62 214.383 321.62 214.019V187.737C321.62 187.374 321.914 187.079 322.278 187.079H348.547C348.911 187.079 349.206 187.374 349.206 187.737V214.019C349.206 214.383 348.911 214.677 348.547 214.677H341.704C340.614 214.677 339.734 215.558 339.734 216.648C339.734 217.739 340.614 218.62 341.704 218.62H348.547C351.083 218.62 353.146 216.556 353.146 214.019V187.737C353.146 185.201 351.083 183.137 348.547 183.137V183.141Z" fill="#33CFFF"/>
<path d="M348.547 133.598H322.278C319.742 133.598 317.679 135.662 317.679 138.198V149.366H299.553V153.308H317.679V164.476C317.679 167.013 319.742 169.077 322.278 169.077H348.547C351.083 169.077 353.146 167.013 353.146 164.476V138.194C353.146 135.658 351.083 133.594 348.547 133.594V133.598ZM349.201 164.48C349.201 164.844 348.907 165.138 348.543 165.138H322.274C321.91 165.138 321.616 164.844 321.616 164.48V138.198C321.616 137.835 321.91 137.54 322.274 137.54H348.543C348.907 137.54 349.201 137.835 349.201 138.198V164.48Z" fill="#33CFFF"/>
<path d="M348.547 84.0587H322.278C319.742 84.0587 317.679 86.1227 317.679 88.6592V99.8271H311.244C307.365 99.8271 303.695 101.317 300.909 104.02L299.553 105.336V110.829L303.654 106.847C305.701 104.86 308.394 103.769 311.244 103.769H317.679V114.937C317.679 117.474 319.742 119.537 322.278 119.537H348.547C351.083 119.537 353.146 117.474 353.146 114.937V88.6551C353.146 86.1186 351.083 84.0547 348.547 84.0547V84.0587ZM349.201 114.937C349.201 115.301 348.907 115.595 348.543 115.595H322.274C321.91 115.595 321.616 115.301 321.616 114.937V88.6551C321.616 88.2916 321.91 87.9968 322.274 87.9968H348.543C348.907 87.9968 349.201 88.2916 349.201 88.6551V114.937Z" fill="#33CFFF"/>
<path d="M232.836 162.745C232.799 162.826 232.763 162.907 232.727 162.987C232.496 163.521 232.456 164.042 232.848 164.522C233.251 165.015 233.792 165.104 234.358 164.942C235.686 164.563 236.792 163.795 237.817 162.886C239.327 161.55 240.478 159.926 241.548 158.238C242.609 156.565 243.473 154.792 244.232 152.967C245.04 151.024 245.734 149.037 246.203 146.985C246.509 145.632 246.804 144.275 247.01 142.901C247.171 141.819 247.224 140.716 247.256 139.618C247.284 138.616 247.276 137.606 247.192 136.609C247.062 135.098 246.776 133.612 246.069 132.246C245.734 131.6 245.343 130.994 244.652 130.647C244.131 130.384 243.631 130.368 243.126 130.683C243.025 130.744 242.916 130.792 242.783 130.857C242.771 130.772 242.751 130.724 242.767 130.687C243.195 129.617 243.744 128.628 244.713 127.941C245.948 127.064 247.268 126.818 248.738 127.319C250.716 127.993 252.081 129.314 252.961 131.176C253.599 132.525 253.962 133.947 254.075 135.425C254.156 136.483 254.265 137.546 254.224 138.6C254.172 139.945 254.051 141.298 253.841 142.631C253.586 144.25 253.28 145.866 252.876 147.453C251.899 151.29 250.474 154.962 248.637 158.472C247.389 160.851 245.976 163.125 244.273 165.209C243.005 166.76 241.6 168.17 239.909 169.264C238.811 169.975 237.648 170.52 236.344 170.746C235.468 170.896 234.604 170.807 233.74 170.67C232.682 170.5 231.758 170.072 231.075 169.224C230.215 168.153 230.026 166.958 230.478 165.649C230.861 164.538 231.588 163.678 232.416 162.882C232.513 162.79 232.654 162.741 232.775 162.676C232.795 162.701 232.819 162.721 232.84 162.745H232.836Z" fill="white"/>
<path d="M256.78 167.955C256.534 167.733 256.324 167.535 256.106 167.349C254.915 166.355 253.534 165.737 252.041 165.362C251.019 165.103 249.978 164.974 248.924 164.946C247.689 164.909 246.469 164.974 245.262 165.241C245.246 165.241 245.226 165.233 245.153 165.22C245.19 165.119 245.202 165.006 245.262 164.934C246.445 163.524 247.386 161.953 248.302 160.366C248.496 160.034 248.658 159.683 248.867 159.36C248.94 159.247 249.118 159.122 249.235 159.134C250.224 159.239 251.209 159.356 252.19 159.505C253.454 159.699 254.693 159.994 255.876 160.483C257.099 160.988 257.826 161.945 258.137 163.209C258.355 164.094 257.991 164.885 257.672 165.681C257.39 166.376 257.136 167.078 256.865 167.777C256.849 167.822 256.829 167.862 256.784 167.955H256.78Z" fill="white"/>
<path d="M258.047 161.41C258.204 161.467 258.277 161.483 258.338 161.519C259.771 162.331 261.176 163.187 262.367 164.347C263.186 165.146 263.905 166.023 264.28 167.134C264.676 168.297 264.49 169.383 263.796 170.373C262.217 172.623 258.818 172.328 257.595 169.86C257.219 169.109 257.24 168.378 257.53 167.63C257.809 166.924 258.152 166.241 258.398 165.522C258.596 164.948 258.766 164.351 258.81 163.749C258.863 163.038 258.62 162.359 258.213 161.758C258.156 161.677 258.128 161.576 258.051 161.406L258.047 161.41Z" fill="white"/>
<path d="M246.643 140.259C246.251 139.972 245.908 139.734 245.577 139.48C244.56 138.696 243.764 137.731 243.227 136.563C242.682 135.384 242.476 134.14 242.545 132.835C242.581 132.137 242.904 131.652 243.409 131.24C243.7 131.002 244.019 131.018 244.333 131.175C244.846 131.43 245.145 131.886 245.419 132.367C246.134 133.639 246.445 135.028 246.558 136.458C246.651 137.626 246.643 138.805 246.679 139.976C246.679 140.041 246.667 140.102 246.647 140.259H246.643Z" fill="white"/>
<path d="M233.987 164.396C233.406 164.388 233.079 163.959 233.184 163.499C233.397 162.574 233.975 161.883 234.722 161.383C235.311 160.987 235.989 160.684 236.664 160.45C237.608 160.122 238.589 159.9 239.558 159.638C239.631 159.617 239.724 159.666 239.808 159.682C239.784 159.747 239.78 159.827 239.74 159.876C239.025 160.672 238.335 161.496 237.576 162.251C236.732 163.091 235.739 163.745 234.629 164.194C234.387 164.291 234.132 164.347 233.987 164.392V164.396Z" fill="white"/>
<path d="M268.403 174.984C262.831 179.851 255.548 182.808 247.571 182.808C239.594 182.808 232.331 179.859 226.764 175.004C210.288 173.312 199.876 169.568 193.36 165.129V188.866C193.36 200.717 220.587 206.913 247.482 206.913C274.378 206.913 301.604 200.713 301.604 188.866V165.129C295.112 169.548 284.761 173.28 268.407 174.984H268.403Z" fill="#33CFFF"/>
<path d="M215.879 151.099C215.879 148.195 216.279 145.384 217.01 142.71C206.021 140.739 198.483 137.677 193.36 134.188V158.191C198.609 163.39 208.165 167.097 221.487 169.101C217.955 163.987 215.879 157.788 215.879 151.099Z" fill="#33CFFF"/>
<path d="M278.125 142.678C278.863 145.359 279.263 148.183 279.263 151.099C279.263 157.771 277.196 163.963 273.676 169.073C286.893 167.065 296.381 163.365 301.601 158.191V134.188C296.502 137.661 289.021 140.706 278.125 142.678Z" fill="#33CFFF"/>
<path d="M247.482 114.091C218.455 114.091 202.274 109.317 193.36 103.246V127.25C198.253 132.097 206.889 135.651 218.831 137.731C223.873 126.903 234.842 119.39 247.571 119.39C260.3 119.39 271.249 126.886 276.295 137.703C288.156 135.619 296.727 132.073 301.6 127.25V103.246C292.69 109.317 276.509 114.091 247.478 114.091H247.482Z" fill="#33CFFF"/>
<path d="M247.57 182.807C265.073 182.807 279.262 168.612 279.262 151.101C279.262 133.59 265.073 119.395 247.57 119.395C230.068 119.395 215.879 133.59 215.879 151.101C215.879 168.612 230.068 182.807 247.57 182.807Z" stroke="white" stroke-width="9" stroke-miterlimit="10"/>
<path d="M0 315.981C0 305.2 8.7394 296.461 19.52 296.461H525.82C536.601 296.461 545.34 305.2 545.34 315.981V346.481C545.34 357.262 536.601 366.001 525.82 366.001H19.52C8.73941 366.001 0 357.262 0 346.481V315.981Z" fill="white"/>
<g clip-path="url(#clip0_955_121382)">
<path d="M32.5685 353.01C28.9437 350.989 26.0642 348.169 23.9358 344.545C21.8074 340.92 20.7402 336.842 20.7402 332.317C20.7402 327.792 21.8074 323.726 23.9358 320.125C26.0642 316.524 28.9437 313.71 32.5685 311.689C36.1934 309.674 40.1818 308.66 44.528 308.66C48.8742 308.66 52.8627 309.674 56.4875 311.689C60.1123 313.71 62.968 316.524 65.0547 320.125C67.1413 323.726 68.1846 327.792 68.1846 332.317C68.1846 336.842 67.1294 340.92 65.0189 344.545C62.9084 348.169 60.0527 350.995 56.4517 353.01C52.8508 355.031 48.8742 356.039 44.5221 356.039C40.1699 356.039 36.1874 355.031 32.5626 353.01H32.5685ZM53.3933 342.07C55.6111 339.608 56.72 336.359 56.72 332.317C56.72 328.275 55.6111 324.972 53.3933 322.533C51.1755 320.095 48.2184 318.879 44.528 318.879C40.8376 318.879 37.815 320.089 35.5972 322.504C33.3794 324.918 32.2705 328.191 32.2705 332.323C32.2705 336.454 33.3794 339.674 35.5972 342.112C37.815 344.55 40.7899 345.767 44.528 345.767C48.2661 345.767 51.1755 344.539 53.3933 342.076V342.07Z" fill="#333333"/>
<path d="M95.7346 355.58L86.1122 338.118H83.4115V355.58H72.1436V309.316H91.0545C94.7032 309.316 97.8093 309.954 100.379 311.23C102.948 312.506 104.868 314.253 106.144 316.471C107.42 318.688 108.058 321.163 108.058 323.887C108.058 326.963 107.187 329.712 105.452 332.126C103.718 334.541 101.16 336.258 97.7736 337.266L108.451 355.586H95.7346V355.58ZM83.4115 330.147H90.3987C92.4615 330.147 94.0116 329.64 95.043 328.633C96.0744 327.625 96.5931 326.194 96.5931 324.346C96.5931 322.498 96.0744 321.204 95.043 320.197C94.0116 319.183 92.4615 318.682 90.3987 318.682H83.4115V330.147Z" fill="#333333"/>
<path d="M165.196 309.316V355.58H153.928V327.834L143.585 355.58H134.493L124.077 327.768V355.58H112.81V309.316H126.122L139.107 341.343L151.949 309.316H165.196Z" fill="#333333"/>
<path d="M193.926 318.349V327.709H209.016V336.407H193.926V346.554H210.995V355.58H182.658V309.316H210.995V318.343H193.926V318.349Z" fill="#333333"/>
<path d="M244.34 355.58L234.914 341.409L226.609 355.58H213.827L228.654 332.055L213.499 309.316H226.615L235.91 323.291L244.083 309.316H256.866L242.17 332.645L257.462 355.58H244.346H244.34Z" fill="#333333"/>
<path d="M294.097 309.316V318.343H281.84V355.58H270.572V318.349H258.314V309.316H294.097Z" fill="#333333"/>
<path d="M308.728 318.349V327.709H323.817V336.407H308.728V346.554H325.797V355.58H297.46V309.316H325.797V318.343H308.728V318.349Z" fill="#333333"/>
<path d="M372.192 355.58H360.924L342.078 327.047V355.58H330.811V309.316H342.078L360.924 337.981V309.316H372.192V355.58Z" fill="#333333"/>
<path d="M385.701 354.395C383.018 353.298 380.878 351.671 379.274 349.518C377.67 347.366 376.824 344.773 376.734 341.744H388.73C388.903 343.455 389.499 344.767 390.506 345.667C391.514 346.567 392.837 347.02 394.459 347.02C396.081 347.02 397.446 346.639 398.412 345.87C399.377 345.101 399.86 344.033 399.86 342.674C399.86 341.529 399.473 340.588 398.71 339.842C397.941 339.097 396.999 338.483 395.878 338C394.757 337.517 393.165 336.969 391.102 336.355C388.116 335.431 385.677 334.506 383.787 333.588C381.897 332.664 380.27 331.305 378.91 329.504C377.545 327.704 376.866 325.355 376.866 322.452C376.866 318.147 378.422 314.773 381.546 312.334C384.664 309.896 388.73 308.68 393.738 308.68C398.746 308.68 402.943 309.896 406.061 312.334C409.179 314.773 410.848 318.165 411.069 322.517H398.877C398.787 321.027 398.239 319.846 397.231 318.994C396.218 318.135 394.924 317.706 393.344 317.706C391.979 317.706 390.882 318.07 390.047 318.791C389.213 319.518 388.795 320.562 388.795 321.921C388.795 323.417 389.499 324.58 390.906 325.415C392.313 326.249 394.507 327.15 397.494 328.115C400.48 329.129 402.907 330.095 404.773 331.013C406.639 331.937 408.255 333.278 409.614 335.031C410.973 336.79 411.659 339.049 411.659 341.816C411.659 344.582 410.991 346.847 409.65 349C408.308 351.152 406.365 352.869 403.819 354.139C401.273 355.415 398.263 356.053 394.793 356.053C391.323 356.053 388.378 355.504 385.701 354.407V354.395Z" fill="#333333"/>
<path d="M427.547 309.316V355.58H416.279V309.316H427.547Z" fill="#333333"/>
<path d="M524.29 355.58H513.022L494.177 327.047V355.58H482.909V309.316H494.177L513.022 337.981V309.316H524.29V355.58Z" fill="#333333"/>
<path d="M460.075 353.509C448.705 353.531 439.447 344.33 439.425 332.946C439.404 321.563 448.592 312.293 459.962 312.271C465.491 312.25 470.792 314.477 474.679 318.412C466.996 307.838 452.209 305.498 441.625 313.192C431.042 320.886 428.729 335.691 436.412 346.287C444.098 356.883 458.882 359.201 469.466 351.507C469.982 351.124 470.501 350.72 470.971 350.316C467.737 352.431 463.938 353.534 460.075 353.509Z" fill="#343433"/>
<path d="M467.085 315.581C475.063 320.239 477.736 330.474 473.106 338.438C468.454 346.424 458.231 349.101 450.278 344.467C445.717 341.811 442.682 337.132 442.1 331.89V332.856C442.1 343.115 450.39 351.417 460.637 351.417C470.884 351.417 479.174 343.115 479.174 332.856C479.062 325.162 474.277 318.301 467.085 315.578V315.581Z" fill="#343433"/>
<path d="M458.21 316.863C452.12 316.842 446.773 320.868 445.064 326.718C447.829 320.643 454.996 317.966 461.062 320.734C467.128 323.503 469.801 330.68 467.04 336.754C465.086 341.075 460.771 343.819 456.052 343.819C454.996 343.798 453.94 343.661 452.906 343.415C454.59 344.135 456.389 344.494 458.231 344.472C465.847 344.427 471.959 338.195 471.916 330.568C471.825 323.031 465.738 316.933 458.21 316.866V316.863Z" fill="#343433"/>
</g>
<defs>
<clipPath id="clip0_955_121382">
<rect width="503.55" height="47.3848" fill="white" transform="translate(20.7402 308.66)"/>
</clipPath>
</defs>
</svg>
