<svg width="75" height="66" viewBox="0 0 75 66" fill="none" xmlns="http://www.w3.org/2000/svg">
<g clip-path="url(#clip0_955_121521)">
<path d="M25.403 0C12.779 0 0 2.90894 0 8.47044V8.59656C3.84838 12.409 12.6323 14.5219 25.403 14.5219C38.1738 14.5219 46.9577 12.409 50.8061 8.59656V8.47044C50.8061 2.90894 38.027 0 25.403 0Z" fill="#33CFFF"/>
<path d="M63.2207 8.3952H66.2507C66.7612 8.3952 67.1745 7.9817 67.1745 7.47104C67.1745 6.96037 66.7612 6.54688 66.2507 6.54688H63.2207C62.7102 6.54688 62.2969 6.96037 62.2969 7.47104C62.2969 7.9817 62.7102 8.3952 63.2207 8.3952Z" fill="#33CFFF"/>
<path d="M63.2207 12.0944H70.6199C71.1304 12.0944 71.5437 11.6809 71.5437 11.1703C71.5437 10.6596 71.1304 10.2461 70.6199 10.2461H63.2207C62.7102 10.2461 62.2969 10.6596 62.2969 11.1703C62.2969 11.6809 62.7102 12.0944 63.2207 12.0944Z" fill="#33CFFF"/>
<path d="M63.2207 15.7975H68.5841C69.0946 15.7975 69.5079 15.384 69.5079 14.8734C69.5079 14.3627 69.0946 13.9492 68.5841 13.9492H63.2207C62.7102 13.9492 62.2969 14.3627 62.2969 14.8734C62.2969 15.384 62.7102 15.7975 63.2207 15.7975Z" fill="#33CFFF"/>
<path d="M63.2207 31.6452H66.2507C66.7612 31.6452 67.1745 31.2317 67.1745 30.721C67.1745 30.2104 66.7612 29.7969 66.2507 29.7969H63.2207C62.7102 29.7969 62.2969 30.2104 62.2969 30.721C62.2969 31.2317 62.7102 31.6452 63.2207 31.6452Z" fill="#33CFFF"/>
<path d="M63.2207 35.3483H70.6199C71.1304 35.3483 71.5437 34.9348 71.5437 34.4242C71.5437 33.9135 71.1304 33.5 70.6199 33.5H63.2207C62.7102 33.5 62.2969 33.9135 62.2969 34.4242C62.2969 34.9348 62.7102 35.3483 63.2207 35.3483Z" fill="#33CFFF"/>
<path d="M63.2207 39.0475H68.5841C69.0946 39.0475 69.5079 38.634 69.5079 38.1234C69.5079 37.6127 69.0946 37.1992 68.5841 37.1992H63.2207C62.7102 37.1992 62.2969 37.6127 62.2969 38.1234C62.2969 38.634 62.7102 39.0475 63.2207 39.0475Z" fill="#33CFFF"/>
<path d="M62.6778 54.8093H65.7077C66.2182 54.8093 66.6316 54.3958 66.6316 53.8851C66.6316 53.3744 66.2182 52.9609 65.7077 52.9609H62.6778C62.1673 52.9609 61.7539 53.3744 61.7539 53.8851C61.7539 54.3958 62.1673 54.8093 62.6778 54.8093Z" fill="#33CFFF"/>
<path d="M62.6778 58.5085H70.0769C70.5874 58.5085 71.0008 58.095 71.0008 57.5843C71.0008 57.0737 70.5874 56.6602 70.0769 56.6602H62.6778C62.1673 56.6602 61.7539 57.0737 61.7539 57.5843C61.7539 58.095 62.1673 58.5085 62.6778 58.5085Z" fill="#33CFFF"/>
<path d="M68.0411 60.3594H62.6778C62.1673 60.3594 61.7539 60.7729 61.7539 61.2835C61.7539 61.7942 62.1673 62.2077 62.6778 62.2077H68.0411C68.5516 62.2077 68.965 61.7942 68.965 61.2835C68.965 60.7729 68.5516 60.3594 68.0411 60.3594Z" fill="#33CFFF"/>
<path d="M72.8419 49.3438H60.5114C59.3209 49.3438 58.3536 50.3113 58.3536 51.5022V56.7453H55.0405C53.8625 56.7453 52.7133 56.3339 51.8019 55.5896L49.8467 53.9894V56.3794L50.63 57.0203C51.8701 58.0354 53.4367 58.5957 55.0405 58.5957H58.3536V63.8388C58.3536 65.0297 59.3209 65.9973 60.5114 65.9973H65.2443C65.7548 65.9973 66.1682 65.5838 66.1682 65.0731C66.1682 64.5624 65.7548 64.1489 65.2443 64.1489H60.5114C60.3419 64.1489 60.2034 64.0104 60.2034 63.8409V51.5063C60.2034 51.3368 60.3419 51.1983 60.5114 51.1983H72.8419C73.0114 51.1983 73.1498 51.3368 73.1498 51.5063V63.8409C73.1498 64.0104 73.0114 64.1489 72.8419 64.1489H69.6301C69.1196 64.1489 68.7062 64.5624 68.7062 65.0731C68.7062 65.5838 69.1196 65.9973 69.6301 65.9973H72.8419C74.0324 65.9973 74.9996 65.0297 74.9996 63.8388V51.5043C74.9996 50.3134 74.0324 49.3458 72.8419 49.3458V49.3438Z" fill="#33CFFF"/>
<path d="M72.842 26.0938H60.5115C59.321 26.0938 58.3537 27.0613 58.3537 28.2522V33.4953H49.8447V35.3457H58.3537V40.5888C58.3537 41.7797 59.321 42.7473 60.5115 42.7473H72.842C74.0325 42.7473 74.9997 41.7797 74.9997 40.5888V28.2543C74.9997 27.0634 74.0325 26.0958 72.842 26.0958V26.0938ZM73.15 40.5888C73.15 40.7583 73.0115 40.8969 72.842 40.8969H60.5115C60.342 40.8969 60.2035 40.7583 60.2035 40.5888V28.2543C60.2035 28.0847 60.342 27.9462 60.5115 27.9462H72.842C73.0115 27.9462 73.15 28.0847 73.15 28.2543V40.5888Z" fill="#33CFFF"/>
<path d="M72.8419 2.84375H60.5114C59.3209 2.84375 58.3536 3.81133 58.3536 5.00219V10.2453H55.334C53.5132 10.2453 51.7895 10.9441 50.4833 12.2135L49.8467 12.8317V15.4099L51.7709 13.5409C52.7299 12.6084 53.9968 12.0957 55.334 12.0957H58.3536V17.3388C58.3536 18.5297 59.3209 19.4973 60.5114 19.4973H72.8419C74.0324 19.4973 74.9996 18.5297 74.9996 17.3388V5.00426C74.9996 3.8134 74.0324 2.84582 72.8419 2.84582V2.84375ZM73.1498 17.3388C73.1498 17.5083 73.0114 17.6469 72.8419 17.6469H60.5114C60.3419 17.6469 60.2034 17.5083 60.2034 17.3388V5.00426C60.2034 4.83473 60.3419 4.69621 60.5114 4.69621H72.8419C73.0114 4.69621 73.1498 4.83473 73.1498 5.00426V17.3388Z" fill="#33CFFF"/>
<path d="M18.529 39.7769C18.5125 39.8141 18.4939 39.8513 18.4773 39.8906C18.3699 40.1408 18.3513 40.3847 18.5352 40.6122C18.7233 40.8437 18.9796 40.8851 19.2441 40.8106C19.8683 40.6328 20.3871 40.2731 20.8666 39.8451C21.5755 39.2166 22.1149 38.4558 22.6171 37.6619C23.1152 36.8762 23.5224 36.0451 23.8758 35.1892C24.254 34.2774 24.5806 33.345 24.7997 32.3815C24.9443 31.7468 25.0828 31.11 25.1779 30.465C25.2544 29.9564 25.2792 29.4395 25.2936 28.9247C25.3081 28.4533 25.3019 27.9799 25.2626 27.5126C25.2027 26.8035 25.0684 26.1047 24.7377 25.4638C24.5806 25.1599 24.3966 24.8766 24.0742 24.7133C23.8303 24.5892 23.5947 24.583 23.3591 24.7319C23.3116 24.7608 23.2599 24.7815 23.1979 24.8146C23.1938 24.7753 23.1834 24.7526 23.1896 24.736C23.3901 24.2336 23.6485 23.7705 24.1032 23.448C24.6819 23.0366 25.304 22.9208 25.9922 23.1544C26.9202 23.4707 27.5609 24.091 27.9743 24.9655C28.274 25.5982 28.4434 26.266 28.4972 26.9606C28.5344 27.4568 28.5861 27.9551 28.5674 28.4513C28.5426 29.0839 28.4848 29.7186 28.3876 30.343C28.2678 31.1018 28.1252 31.8605 27.935 32.6069C27.4762 34.4077 26.8086 36.1319 25.9447 37.7777C25.3598 38.8941 24.6963 39.963 23.8965 40.9409C23.3012 41.6686 22.6419 42.3302 21.8483 42.845C21.3337 43.1779 20.786 43.4343 20.1742 43.5397C19.7629 43.61 19.3578 43.5687 18.9506 43.5025C18.4546 43.4239 18.0185 43.2213 17.7002 42.8244C17.2972 42.322 17.2063 41.7596 17.4191 41.1476C17.5989 40.6266 17.94 40.2214 18.3285 39.8493C18.374 39.8058 18.4401 39.7831 18.4959 39.7521C18.5063 39.7624 18.5166 39.7728 18.5269 39.7831L18.529 39.7769Z" fill="white"/>
<path d="M29.768 42.2216C29.6522 42.1182 29.5551 42.0231 29.4518 41.9383C28.8917 41.4711 28.2448 41.1816 27.5441 41.0059C27.0646 40.886 26.5768 40.8239 26.0808 40.8095C25.5021 40.7929 24.9275 40.8219 24.3612 40.948C24.353 40.948 24.3447 40.9459 24.3096 40.9377C24.3282 40.8901 24.3323 40.8364 24.3612 40.8033C24.9151 40.1417 25.3574 39.4036 25.7873 38.6593C25.8783 38.5022 25.9547 38.3388 26.0519 38.1879C26.087 38.1362 26.1697 38.0763 26.2234 38.0825C26.6864 38.1321 27.1514 38.1858 27.6123 38.2582C28.2055 38.3492 28.7883 38.4877 29.3422 38.7172C29.9168 38.9549 30.2578 39.4036 30.4046 39.997C30.5058 40.4125 30.3364 40.7847 30.1855 41.1568C30.0532 41.4835 29.9333 41.8122 29.8073 42.1409C29.799 42.1616 29.7887 42.1802 29.7701 42.2236L29.768 42.2216Z" fill="white"/>
<path d="M30.3638 39.1505C30.4382 39.1774 30.4713 39.1857 30.5002 39.2022C31.174 39.5826 31.8333 39.9858 32.3914 40.5295C32.7779 40.9058 33.1127 41.3172 33.2904 41.8362C33.4764 42.382 33.3876 42.8926 33.0631 43.3578C32.3232 44.4122 30.7276 44.2737 30.151 43.118C29.9753 42.7645 29.9835 42.4212 30.122 42.0698C30.2522 41.7369 30.4134 41.4165 30.5292 41.0795C30.6222 40.8107 30.7007 40.5295 30.7235 40.2483C30.7483 39.9134 30.6346 39.5971 30.4424 39.3138C30.4155 39.2746 30.401 39.227 30.3659 39.1484L30.3638 39.1505Z" fill="white"/>
<path d="M25.0105 29.2231C24.8266 29.0888 24.6654 28.9771 24.5103 28.8572C24.0329 28.4892 23.6588 28.0364 23.4067 27.4885C23.1504 26.9345 23.0533 26.3514 23.0863 25.7394C23.1029 25.4107 23.2537 25.1854 23.4914 24.991C23.6278 24.8794 23.7766 24.8877 23.9254 24.96C24.1673 25.0799 24.3078 25.2929 24.4339 25.5182C24.7687 26.1137 24.9154 26.767 24.9692 27.4389C25.0126 27.9868 25.0105 28.5409 25.027 29.0908C25.027 29.1198 25.0208 29.1508 25.0126 29.2231H25.0105Z" fill="white"/>
<path d="M19.0681 40.549C18.7953 40.5449 18.6402 40.3443 18.6898 40.1293C18.7891 39.6951 19.0619 39.3705 19.4132 39.1348C19.6902 38.9488 20.0085 38.8082 20.3247 38.6986C20.769 38.5456 21.2299 38.4402 21.6846 38.3182C21.7198 38.3099 21.7632 38.3327 21.8024 38.3389C21.7921 38.3699 21.79 38.4071 21.7694 38.4298C21.4325 38.8041 21.1101 39.1907 20.7546 39.5442C20.3577 39.9391 19.8927 40.2451 19.3698 40.456C19.2561 40.5014 19.1363 40.5283 19.0701 40.549H19.0681Z" fill="white"/>
<path d="M35.2245 45.5174C32.61 47.802 29.1915 49.1892 25.4464 49.1892C21.7014 49.1892 18.2932 47.8061 15.6787 45.5277C7.94684 44.7338 3.05886 42.9765 0 40.8945V52.0341C0 57.5956 12.779 60.5045 25.403 60.5045C38.027 60.5045 50.8061 57.5956 50.8061 52.0341V40.8945C47.7596 42.9682 42.9005 44.7194 35.2224 45.5195L35.2245 45.5174Z" fill="#33CFFF"/>
<path d="M10.5696 34.312C10.5696 32.9475 10.7556 31.6285 11.1008 30.3756C5.94205 29.4493 2.40575 28.0124 0 26.375V37.6407C2.46362 40.0803 6.94858 41.8211 13.2027 42.7618C11.5451 40.3615 10.5696 37.4505 10.5696 34.312Z" fill="#33CFFF"/>
<path d="M39.7877 30.3572C40.1328 31.6163 40.323 32.9395 40.323 34.3081C40.323 37.4404 39.3536 40.3452 37.7002 42.7434C43.9047 41.8007 48.3566 40.064 50.8078 37.6368V26.3711C48.4145 28.0003 44.903 29.431 39.7877 30.3551V30.3572Z" fill="#33CFFF"/>
<path d="M25.403 16.9417C11.7766 16.9417 4.1832 14.7005 0 11.8516V23.1172C2.29621 25.3915 6.34921 27.0599 11.9564 28.0378C14.3229 22.9539 19.4713 19.4289 25.4464 19.4289C31.4215 19.4289 36.5617 22.9477 38.9302 28.0233C44.4961 27.0454 48.5222 25.3811 50.8081 23.1172V11.8516C46.6249 14.7005 39.0315 16.9417 25.4051 16.9417H25.403Z" fill="#33CFFF"/>
<path d="M25.446 49.1889C33.6611 49.1889 40.3208 42.5271 40.3208 34.3093C40.3208 26.0915 33.6611 19.4297 25.446 19.4297C17.2309 19.4297 10.5713 26.0915 10.5713 34.3093C10.5713 42.5271 17.2309 49.1889 25.446 49.1889Z" stroke="white" stroke-width="8.25" stroke-miterlimit="10"/>
</g>
<defs>
<clipPath id="clip0_955_121521">
<rect width="75" height="66" fill="white"/>
</clipPath>
</defs>
</svg>
