<svg width="631" height="143" viewBox="0 0 631 143" fill="none" xmlns="http://www.w3.org/2000/svg">
<path d="M56.759 47.6239C62.1901 48.7824 66.5528 51.5006 69.847 55.7783C73.1413 59.967 74.7884 64.7794 74.7884 70.2157C74.7884 78.0583 72.0283 84.2967 66.5082 88.9309C61.0772 93.476 53.4648 95.7486 43.6711 95.7486H0V1.90538H42.202C51.7286 1.90538 59.163 4.08881 64.505 8.45568C69.936 12.8226 72.6516 18.749 72.6516 26.2351C72.6516 31.7605 71.1825 36.3502 68.2444 40.0041C65.3953 43.658 61.5669 46.1979 56.759 47.6239ZM22.8372 39.8704H37.7948C41.5343 39.8704 44.3833 39.0684 46.3421 37.4642C48.3899 35.7709 49.4137 33.3201 49.4137 30.1118C49.4137 26.9035 48.3899 24.4527 46.3421 22.7594C44.3833 21.0661 41.5343 20.2195 37.7948 20.2195H22.8372V39.8704ZM39.6646 77.3008C43.493 77.3008 46.4311 76.4541 48.4789 74.7609C50.6157 72.9785 51.6841 70.4385 51.6841 67.1411C51.6841 63.8437 50.5712 61.2592 48.3453 59.3877C46.2085 57.5162 43.2259 56.5804 39.3975 56.5804H22.8372V77.3008H39.6646Z" fill="white"/>
<path d="M229.723 95.7486L210.625 67.0074L193.797 95.7486H167.889L197.937 48.0249L167.221 1.90538H193.797L212.628 30.2455L229.188 1.90538H255.097L225.315 49.228L256.299 95.7486H229.723Z" fill="white"/>
<path d="M290.601 78.1029H320.516V95.7486H267.764V1.90538H290.601V78.1029Z" fill="white"/>
<path d="M389.77 79.1723H354.78L349.171 95.7486H325.265L359.187 1.90538H385.63L419.552 95.7486H395.38L389.77 79.1723ZM383.894 61.5266L372.275 27.1709L360.79 61.5266H383.894Z" fill="white"/>
<path d="M513.746 95.7486H490.909L452.714 37.8652V95.7486H429.876V1.90538H452.714L490.909 60.0561V1.90538H513.746V95.7486Z" fill="white"/>
<path d="M592.535 31.5823C590.843 28.4631 588.395 26.1014 585.19 24.4973C582.073 22.804 578.378 21.9573 574.105 21.9573C566.715 21.9573 560.794 24.4081 556.343 29.3097C551.891 34.1222 549.665 40.5834 549.665 48.6933C549.665 57.3379 551.98 64.111 556.61 69.0126C561.328 73.8251 567.783 76.2313 575.974 76.2313C581.584 76.2313 586.302 74.8054 590.131 71.9536C594.048 69.1017 596.897 65.0022 598.678 59.655H569.698V42.8114H619.378V64.0665C617.687 69.7701 614.793 75.0728 610.698 79.9744C606.691 84.876 601.572 88.8418 595.339 91.8719C589.107 94.9019 582.073 96.417 574.238 96.417C564.979 96.417 556.699 94.4118 549.398 90.4014C542.186 86.3019 536.533 80.6428 532.437 73.4241C528.431 66.2053 526.427 57.9618 526.427 48.6933C526.427 39.4248 528.431 31.1812 532.437 23.9625C536.533 16.6547 542.186 10.9956 549.398 6.98521C556.61 2.88569 564.845 0.835938 574.105 0.835938C585.323 0.835938 594.761 3.55409 602.418 8.9904C610.164 14.4267 615.283 21.9573 617.776 31.5823H592.535Z" fill="white"/>
<path d="M114.125 14.4764L122.876 7.21578L122.885 7.20703L122.903 7.22016C123.213 7.2683 123.518 7.31644 123.828 7.37334C142.629 11.0758 154.803 29.1594 151.053 47.7157C147.344 66.1143 129.375 78.0884 110.804 74.7229C114.811 73.8257 118.662 72.0051 122.026 69.2173C133.302 59.8604 134.776 43.2385 125.311 32.0917C119.888 25.702 112.048 22.5028 104.222 22.691L114.129 14.472L114.125 14.4764Z" fill="url(#paint0_linear_707_1431)"/>
<path d="M84.0724 80.6409C82.3274 78.4399 82.6004 75.1541 84.6782 73.3056C86.7561 71.4571 89.8579 71.7463 91.6029 73.9474C93.3479 76.1484 93.0749 79.4342 90.9971 81.2827C88.9192 83.1312 85.8174 82.842 84.0724 80.6409Z" fill="url(#paint1_linear_707_1431)"/>
<path d="M133.14 95.159C117.216 98.2756 101.551 93.5919 90.2959 83.8196C90.9527 83.5454 91.5827 83.1798 92.1546 82.7053C93.3342 81.7389 94.1294 80.494 94.5182 79.1533C96.9845 80.5332 99.5894 81.7085 102.333 82.6226C125.763 90.4709 151.262 78.3132 159.291 55.4909C167.347 32.6642 154.868 7.82218 131.442 0C151.843 3.27339 168.013 18.4868 172.047 38.2011C177.445 64.4013 160.033 89.8919 133.14 95.1546V95.159Z" fill="url(#paint2_linear_707_1431)"/>
<path d="M625.911 0C627.232 0 628.463 0.491081 629.335 1.42818C629.759 1.85167 630.096 2.38779 630.342 2.96897C630.812 4.15161 630.812 5.4694 630.342 6.62951C630.119 7.21069 629.759 7.74682 629.29 8.17032C628.82 8.63886 628.327 8.9745 627.7 9.22004C627.117 9.44305 626.514 9.57821 625.886 9.57821C625.258 9.57821 624.61 9.46558 624.027 9.19977C623.444 8.93396 622.906 8.57354 622.437 8.12752C621.542 7.23547 621.05 6.05058 621.05 4.82289C621.05 3.5952 621.095 3.97365 621.206 3.55016C621.316 3.12666 621.52 2.70091 621.698 2.36752C622.66 0.894299 624.228 0 625.906 0M625.933 0.804193C625.441 0.804193 624.881 0.871772 624.433 1.07226C623.964 1.27274 623.539 1.5408 623.157 1.92149C622.775 2.30219 622.464 2.77074 622.263 3.23929C621.635 4.68999 621.949 6.43128 623.114 7.54859C623.494 7.92703 623.921 8.24014 624.436 8.44062C624.905 8.64111 625.443 8.75374 625.981 8.75374C626.518 8.75374 627.033 8.64111 627.48 8.44062C627.973 8.24014 628.397 7.94956 628.802 7.59139C629.206 7.23322 629.45 6.83224 629.653 6.31864C629.854 5.85009 629.967 5.35902 629.967 4.82289C629.967 4.28676 629.9 3.75064 629.653 3.23704C629.452 2.74596 629.161 2.32246 628.802 1.96429C628.422 1.58585 627.995 1.27274 627.48 1.07226C626.988 0.939352 626.45 0.804193 625.935 0.804193M623.941 2.0544H626.024C626.606 2.00935 627.209 2.12198 627.724 2.43284C628.104 2.70091 628.307 3.12441 628.307 3.59296C628.307 4.06151 628.194 4.23946 627.993 4.48499C627.77 4.75306 627.456 4.9085 627.142 4.97608L628.327 7.36387H626.895L625.888 5.22161H625.24V7.40892H623.964V2.04989H623.941V2.0544ZM625.217 2.90365V4.44445H625.865C626.134 4.4895 626.448 4.3994 626.717 4.24397C626.918 4.13134 626.986 3.8858 626.986 3.66279C626.986 3.43978 626.918 3.19423 626.717 3.03655C626.448 2.88112 626.134 2.81355 625.823 2.83608L625.217 2.90365Z" fill="white"/>
<path d="M498.334 113.749C498.334 105.971 504.639 99.666 512.417 99.666H605.059C612.837 99.666 619.142 105.971 619.142 113.749V128.916C619.142 136.694 612.837 142.999 605.059 142.999H512.417C504.639 142.999 498.334 136.694 498.334 128.916V113.749Z" fill="url(#paint3_linear_707_1431)"/>
<path d="M539.293 107.791V113.076H532.128V134.874H525.54V113.076H518.375V107.791H539.293Z" fill="#303446"/>
<path d="M561.014 134.874L555.389 124.651H553.81V134.874H547.222V107.791H558.278C560.41 107.791 562.221 108.164 563.71 108.91C565.225 109.656 566.356 110.685 567.1 111.996C567.845 113.282 568.217 114.723 568.217 116.317C568.217 118.118 567.704 119.725 566.677 121.14C565.675 122.554 564.185 123.557 562.208 124.149L568.449 134.874H561.014ZM553.81 119.982H557.893C559.1 119.982 559.999 119.687 560.59 119.095C561.206 118.503 561.514 117.668 561.514 116.587C561.514 115.558 561.206 114.748 560.59 114.157C559.999 113.565 559.1 113.269 557.893 113.269H553.81V119.982Z" fill="#303446"/>
<path d="M600.167 107.791L590.805 125.924V134.874H584.218V125.924L574.857 107.791H582.33L587.57 119.134L592.77 107.791H600.167Z" fill="#303446"/>
<defs>
<linearGradient id="paint0_linear_707_1431" x1="104.222" y1="41.248" x2="151.731" y2="41.248" gradientUnits="userSpaceOnUse">
<stop stop-color="#00DBFF"/>
<stop offset="1" stop-color="#00FF75"/>
</linearGradient>
<linearGradient id="paint1_linear_707_1431" x1="82.9229" y1="77.2942" x2="92.7525" y2="77.2942" gradientUnits="userSpaceOnUse">
<stop stop-color="#00DBFF"/>
<stop offset="1" stop-color="#00FF75"/>
</linearGradient>
<linearGradient id="paint2_linear_707_1431" x1="90.2959" y1="48.0579" x2="173.028" y2="48.0579" gradientUnits="userSpaceOnUse">
<stop stop-color="#00DBFF"/>
<stop offset="1" stop-color="#00FF75"/>
</linearGradient>
<linearGradient id="paint3_linear_707_1431" x1="498.334" y1="121.333" x2="619.142" y2="121.333" gradientUnits="userSpaceOnUse">
<stop stop-color="#00DBFF"/>
<stop offset="1" stop-color="#00FF75"/>
</linearGradient>
</defs>
</svg>
