<svg width="1116" height="253" viewBox="0 0 1116 253" fill="none" xmlns="http://www.w3.org/2000/svg">
<path d="M100.42 84.2574C110.029 86.3071 117.747 91.1162 123.575 98.6845C129.404 106.095 132.318 114.61 132.318 124.228C132.318 138.103 127.435 149.14 117.668 157.339C108.06 165.381 94.5915 169.401 77.2642 169.401H0V3.37061H74.6651C91.5198 3.37061 104.673 7.23362 114.124 14.9596C123.733 22.6857 128.537 33.171 128.537 46.4156C128.537 56.1914 125.938 64.3116 120.74 70.7762C115.699 77.2409 108.926 81.7346 100.42 84.2574ZM40.4042 70.5397H66.8678C73.4837 70.5397 78.5243 69.1207 81.9898 66.2825C85.6128 63.2867 87.4243 58.9507 87.4243 53.2744C87.4243 47.5982 85.6128 43.2621 81.9898 40.2663C78.5243 37.2705 73.4837 35.7726 66.8678 35.7726H40.4042V70.5397ZM70.1757 136.763C76.9491 136.763 82.1473 135.265 85.7703 132.269C89.5508 129.116 91.4411 124.622 91.4411 118.788C91.4411 112.954 89.4721 108.381 85.534 105.07C81.7535 101.759 76.4766 100.104 69.7032 100.104H40.4042V136.763H70.1757Z" fill="#303446"/>
<path d="M406.432 169.401L372.644 118.551L342.872 169.401H297.033L350.197 84.9669L295.852 3.37061H342.872L376.188 53.5109L405.487 3.37061H451.326L398.635 87.0955L453.452 169.401H406.432Z" fill="#303446"/>
<path d="M514.14 138.182H567.067V169.401H473.735V3.37061H514.14V138.182Z" fill="#303446"/>
<path d="M689.594 140.074H627.688L617.764 169.401H575.469L635.485 3.37061H682.269L742.284 169.401H699.517L689.594 140.074ZM679.197 108.855L658.641 48.0712L638.32 108.855H679.197Z" fill="#303446"/>
<path d="M908.935 169.401H868.531L800.954 66.9921V169.401H760.55V3.37061H800.954L868.531 106.253V3.37061H908.935V169.401Z" fill="#303446"/>
<path d="M1048.33 55.876C1045.34 50.3574 1041.01 46.1791 1035.33 43.341C1029.82 40.3451 1023.28 38.8472 1015.72 38.8472C1002.65 38.8472 992.174 43.1833 984.298 51.8554C976.422 60.3698 972.484 71.8011 972.484 86.1494C972.484 101.444 976.579 113.427 984.771 122.099C993.119 130.614 1004.54 134.871 1019.03 134.871C1028.96 134.871 1037.3 132.348 1044.08 127.302C1051.01 122.257 1056.05 115.004 1059.2 105.543H1007.93V75.743H1095.82V113.348C1092.83 123.439 1087.71 132.821 1080.46 141.493C1073.38 150.165 1064.32 157.182 1053.29 162.542C1042.27 167.903 1029.82 170.584 1015.96 170.584C999.578 170.584 984.928 167.036 972.011 159.941C959.252 152.688 949.25 142.676 942.004 129.904C934.915 117.132 931.371 102.548 931.371 86.1494C931.371 69.7514 934.915 55.1665 942.004 42.3949C949.25 29.4657 959.252 19.4534 972.011 12.358C984.77 5.10502 999.341 1.47852 1015.72 1.47852C1035.57 1.47852 1052.27 6.28757 1065.82 15.9057C1079.52 25.5238 1088.58 38.8473 1092.99 55.876H1048.33Z" fill="#303446"/>
<path d="M201.912 25.6131L217.396 12.7674L217.412 12.752L217.443 12.7752C217.991 12.8604 218.532 12.9455 219.08 13.0462C252.343 19.5968 273.881 51.5909 267.247 84.4212C260.684 116.973 228.894 138.158 196.038 132.203C203.126 130.616 209.94 127.395 215.892 122.463C235.841 105.908 238.449 76.5001 221.704 56.7787C212.109 45.4739 198.239 39.8138 184.392 40.1467L201.92 25.6053L201.912 25.6131Z" fill="url(#paint0_linear_704_452)"/>
<path d="M148.743 142.671C145.655 138.777 146.139 132.964 149.815 129.693C153.491 126.423 158.979 126.935 162.066 130.829C165.153 134.723 164.67 140.536 160.994 143.807C157.318 147.077 151.83 146.566 148.743 142.671Z" fill="url(#paint1_linear_704_452)"/>
<path d="M235.554 168.359C207.381 173.873 179.666 165.586 159.754 148.297C160.916 147.811 162.031 147.165 163.042 146.325C165.129 144.615 166.536 142.413 167.224 140.041C171.588 142.482 176.196 144.562 181.05 146.179C222.503 160.064 267.617 138.554 281.822 98.1764C296.075 57.7907 273.996 13.8393 232.551 0C268.645 5.79139 297.253 32.7075 304.391 67.5868C313.94 113.941 283.134 159.04 235.554 168.351V168.359Z" fill="url(#paint2_linear_704_452)"/>
<path d="M1107.38 0C1109.72 0 1111.89 0.868838 1113.44 2.52678C1114.19 3.27605 1114.78 4.22457 1115.22 5.25281C1116.05 7.34517 1116.05 9.67666 1115.22 11.7292C1114.82 12.7574 1114.19 13.7059 1113.36 14.4552C1112.53 15.2842 1111.66 15.878 1110.54 16.3124C1109.51 16.707 1108.45 16.9461 1107.34 16.9461C1106.22 16.9461 1105.08 16.7468 1104.05 16.2766C1103.02 15.8063 1102.06 15.1686 1101.23 14.3795C1099.65 12.8013 1098.78 10.7049 1098.78 8.53282C1098.78 6.36076 1098.86 7.03033 1099.06 6.28106C1099.25 5.5318 1099.61 4.77855 1099.93 4.18871C1101.63 1.58223 1104.4 0 1107.37 0M1107.42 1.42281C1106.55 1.42281 1105.56 1.54237 1104.77 1.89708C1103.93 2.25178 1103.18 2.72603 1102.51 3.39957C1101.83 4.07311 1101.28 4.9021 1100.93 5.73107C1099.81 8.2977 1100.37 11.3784 1102.43 13.3552C1103.1 14.0248 1103.86 14.5787 1104.77 14.9334C1105.6 15.2882 1106.55 15.4874 1107.5 15.4874C1108.45 15.4874 1109.37 15.2882 1110.16 14.9334C1111.03 14.5787 1111.78 14.0646 1112.49 13.431C1113.21 12.7973 1113.64 12.0878 1114 11.1792C1114.36 10.3502 1114.56 9.48136 1114.56 8.53282C1114.56 7.58429 1114.44 6.63576 1114 5.72708C1113.65 4.85825 1113.13 4.10898 1112.49 3.4753C1111.82 2.80574 1111.07 2.25178 1110.16 1.89708C1109.29 1.66193 1108.33 1.42281 1107.42 1.42281M1103.89 3.63472H1107.58C1108.61 3.55501 1109.68 3.75428 1110.59 4.30427C1111.26 4.77854 1111.62 5.52782 1111.62 6.35679C1111.62 7.18576 1111.42 7.50059 1111.06 7.93501C1110.67 8.40928 1110.11 8.68429 1109.56 8.80386L1111.66 13.0284H1109.12L1107.34 9.23826H1106.19V13.1081H1103.93V3.62674H1103.89V3.63472ZM1106.15 5.13724V7.86327H1107.3C1107.77 7.94298 1108.33 7.78358 1108.81 7.50859C1109.16 7.30932 1109.28 6.87489 1109.28 6.48034C1109.28 6.08578 1109.16 5.65135 1108.81 5.37237C1108.33 5.09738 1107.77 4.97783 1107.22 5.01768L1106.15 5.13724Z" fill="#303446"/>
<path d="M881.667 201.251C881.667 187.49 892.823 176.334 906.584 176.334H1070.49C1084.25 176.334 1095.4 187.49 1095.4 201.251V228.084C1095.4 241.845 1084.25 253.001 1070.49 253.001H906.584C892.823 253.001 881.667 241.845 881.667 228.084V201.251Z" fill="url(#paint3_linear_704_452)"/>
<path d="M954.134 190.709V200.06H941.457V238.626H929.802V200.06H917.125V190.709H954.134Z" fill="#303446"/>
<path d="M992.562 238.626L982.612 220.537H979.817V238.626H968.162V190.709H987.723C991.495 190.709 994.698 191.369 997.333 192.688C1000.01 194.008 1002.01 195.828 1003.33 198.149C1004.65 200.424 1005.31 202.973 1005.31 205.794C1005.31 208.979 1004.4 211.823 1002.58 214.326C1000.81 216.829 998.174 218.603 994.675 219.65L1005.72 238.626H992.562ZM979.817 212.278H987.042C989.177 212.278 990.768 211.755 991.813 210.708C992.903 209.662 993.449 208.183 993.449 206.272C993.449 204.451 992.903 203.018 991.813 201.971C990.768 200.925 989.177 200.402 987.042 200.402H979.817V212.278Z" fill="#303446"/>
<path d="M1061.83 190.709L1045.27 222.79V238.626H1033.62V222.79L1017.05 190.709H1030.28L1039.55 210.777L1048.75 190.709H1061.83Z" fill="#303446"/>
<defs>
<linearGradient id="paint0_linear_704_452" x1="184.392" y1="72.9785" x2="268.447" y2="72.9785" gradientUnits="userSpaceOnUse">
<stop stop-color="#00DBFF"/>
<stop offset="1" stop-color="#00FF75"/>
</linearGradient>
<linearGradient id="paint1_linear_704_452" x1="146.709" y1="136.75" x2="164.1" y2="136.75" gradientUnits="userSpaceOnUse">
<stop stop-color="#00DBFF"/>
<stop offset="1" stop-color="#00FF75"/>
</linearGradient>
<linearGradient id="paint2_linear_704_452" x1="159.754" y1="85.0257" x2="306.127" y2="85.0257" gradientUnits="userSpaceOnUse">
<stop stop-color="#00DBFF"/>
<stop offset="1" stop-color="#00FF75"/>
</linearGradient>
<linearGradient id="paint3_linear_704_452" x1="881.667" y1="214.667" x2="1095.4" y2="214.667" gradientUnits="userSpaceOnUse">
<stop stop-color="#00DBFF"/>
<stop offset="1" stop-color="#00FF75"/>
</linearGradient>
</defs>
</svg>
