<svg width="318" height="72" viewBox="0 0 318 72" fill="none" xmlns="http://www.w3.org/2000/svg">
<path d="M28.578 23.9776C31.3125 24.5609 33.5091 25.9295 35.1677 28.0834C36.8263 30.1923 37.6557 32.6154 37.6557 35.3526C37.6557 39.3013 36.266 42.4423 33.4866 44.7757C30.7521 47.0641 26.9193 48.2084 21.9882 48.2084H0V0.958384H21.2486C26.0452 0.958384 29.7883 2.05774 32.478 4.25646C35.2125 6.45518 36.5798 9.43915 36.5798 13.2084C36.5798 15.9904 35.8401 18.3013 34.3608 20.1411C32.9263 21.9808 30.9987 23.2597 28.578 23.9776ZM11.4984 20.0738H19.0296C20.9123 20.0738 22.3468 19.6699 23.3331 18.8622C24.3641 18.0097 24.8796 16.7757 24.8796 15.1603C24.8796 13.5449 24.3641 12.3109 23.3331 11.4584C22.3468 10.6058 20.9123 10.1795 19.0296 10.1795H11.4984V20.0738ZM19.971 38.9199C21.8986 38.9199 23.3779 38.4936 24.4089 37.6411C25.4848 36.7436 26.0228 35.4648 26.0228 33.8045C26.0228 32.1443 25.4624 30.843 24.3417 29.9007C23.2658 28.9584 21.7641 28.4872 19.8365 28.4872H11.4984V38.9199H19.971Z" fill="#303446"/>
<path d="M115.664 48.2084L106.049 33.7372L97.5762 48.2084H84.5312L99.6608 24.1795L84.195 0.958384H97.5762L107.057 15.2276L115.395 0.958384H128.44L113.445 24.7853L129.046 48.2084H115.664Z" fill="#303446"/>
<path d="M146.316 39.3238H161.379V48.2084H134.818V0.958384H146.316V39.3238Z" fill="#303446"/>
<path d="M196.248 39.8622H178.63L175.806 48.2084H163.77L180.849 0.958384H194.163L211.243 48.2084H199.072L196.248 39.8622ZM193.289 30.9776L187.439 13.6795L181.656 30.9776H193.289Z" fill="#303446"/>
<path d="M258.669 48.2084H247.171L227.94 19.0641V48.2084H216.441V0.958384H227.94L247.171 30.2372V0.958384H258.669V48.2084Z" fill="#303446"/>
<path d="M298.339 15.9007C297.487 14.3302 296.255 13.1411 294.641 12.3334C293.072 11.4808 291.211 11.0545 289.06 11.0545C285.339 11.0545 282.358 12.2885 280.116 14.7565C277.875 17.1795 276.754 20.4327 276.754 24.5161C276.754 28.8686 277.92 32.2789 280.251 34.7468C282.627 37.1699 285.877 38.3814 290.001 38.3814C292.825 38.3814 295.201 37.6635 297.129 36.2276C299.101 34.7917 300.536 32.7276 301.432 30.0353H286.841V21.5545H311.855V32.2564C311.003 35.1282 309.546 37.7981 307.484 40.2661C305.467 42.734 302.889 44.7308 299.751 46.2564C296.613 47.7821 293.072 48.5449 289.127 48.5449C284.465 48.5449 280.296 47.5353 276.62 45.5161C272.989 43.452 270.142 40.6026 268.08 36.968C266.063 33.3334 265.054 29.1827 265.054 24.5161C265.054 19.8494 266.063 15.6988 268.08 12.0641C270.142 8.38466 272.989 5.5353 276.62 3.51607C280.251 1.45197 284.397 0.419922 289.06 0.419922C294.708 0.419922 299.46 1.78851 303.315 4.52569C307.215 7.26287 309.793 11.0545 311.048 15.9007H298.339Z" fill="#303446"/>
<path d="M57.4616 7.289L61.8682 3.63331L61.8726 3.62891L61.8815 3.63552C62.0376 3.65976 62.1913 3.68399 62.3474 3.71264C71.8135 5.57684 77.943 14.6819 76.0551 24.025C74.1873 33.2887 65.1402 39.3176 55.79 37.6231C57.8071 37.1713 59.7463 36.2547 61.4402 34.851C67.1172 30.1398 67.8594 21.7707 63.0941 16.1583C60.3637 12.9411 56.4163 11.3303 52.4756 11.4251L57.4639 7.2868L57.4616 7.289Z" fill="#303446"/>
<path d="M42.3307 40.6033C41.4521 39.4951 41.5896 37.8407 42.6358 36.91C43.682 35.9793 45.2437 36.1249 46.1223 37.2331C47.0009 38.3414 46.8635 39.9957 45.8173 40.9265C44.7711 41.8572 43.2094 41.7115 42.3307 40.6033Z" fill="#303446"/>
<path d="M67.0361 47.9125C59.0184 49.4817 51.1312 47.1235 45.4644 42.2031C45.7951 42.065 46.1122 41.8809 46.4002 41.642C46.9941 41.1555 47.3945 40.5287 47.5903 39.8536C48.832 40.5484 50.1436 41.1401 51.5249 41.6004C63.3219 45.552 76.1605 39.4306 80.2031 27.9396C84.2592 16.4464 77.976 3.93846 66.1812 0C76.453 1.64815 84.5944 9.30809 86.6258 19.2342C89.3434 32.426 80.5766 45.2605 67.0361 47.9103V47.9125Z" fill="#303446"/>
<path d="M315.144 0C315.809 0 316.429 0.247259 316.868 0.719086C317.082 0.932316 317.251 1.20225 317.375 1.49488C317.612 2.09033 317.612 2.75384 317.375 3.33795C317.262 3.63058 317.082 3.90052 316.845 4.11375C316.608 4.34966 316.361 4.51865 316.044 4.64228C315.751 4.75457 315.447 4.82262 315.131 4.82262C314.815 4.82262 314.489 4.76591 314.195 4.63208C313.902 4.49824 313.631 4.31677 313.395 4.0922C312.944 3.64305 312.696 3.04646 312.696 2.42832C312.696 1.81018 312.719 2.00073 312.775 1.7875C312.83 1.57427 312.933 1.35991 313.023 1.19205C313.507 0.450279 314.296 0 315.141 0M315.155 0.40491C314.907 0.40491 314.625 0.438937 314.4 0.539881C314.163 0.640824 313.95 0.77579 313.757 0.96747C313.565 1.15915 313.408 1.39507 313.307 1.63098C312.991 2.36141 313.149 3.23814 313.736 3.80071C313.927 3.99125 314.142 4.1489 314.401 4.24985C314.638 4.35079 314.908 4.4075 315.179 4.4075C315.45 4.4075 315.709 4.35079 315.934 4.24985C316.182 4.1489 316.396 4.0026 316.599 3.82226C316.803 3.64192 316.926 3.44003 317.028 3.18143C317.129 2.94552 317.186 2.69826 317.186 2.42832C317.186 2.15838 317.152 1.88844 317.028 1.62985C316.927 1.38259 316.78 1.16936 316.599 0.98902C316.408 0.798474 316.193 0.640824 315.934 0.539881C315.686 0.472963 315.415 0.40491 315.156 0.40491M314.152 1.03439H315.201C315.494 1.01171 315.798 1.06842 316.057 1.22494C316.248 1.35991 316.35 1.57314 316.35 1.80905C316.35 2.04497 316.293 2.13456 316.192 2.25819C316.08 2.39316 315.922 2.47143 315.763 2.50545L316.361 3.7077H315.64L315.132 2.62908H314.806V3.73039H314.163V1.03212H314.152V1.03439ZM314.795 1.46199V2.23778H315.121C315.256 2.26046 315.414 2.2151 315.55 2.13684C315.651 2.08013 315.685 1.9565 315.685 1.84421C315.685 1.73193 315.651 1.60829 315.55 1.5289C315.414 1.45064 315.256 1.41662 315.099 1.42796L314.795 1.46199Z" fill="#303446"/>
<path d="M304.645 50.1816C308.561 50.1816 311.735 53.3563 311.735 57.2725V64.9092C311.735 68.8253 308.561 72 304.645 72H258C254.084 72 250.909 68.8253 250.909 64.9092V57.2725C250.909 53.3563 254.084 50.1817 258 50.1816H304.645ZM261 54.2734V56.9346H264.607V67.9102H267.925V56.9346H271.532V54.2734H261ZM275.524 54.2734V67.9102H278.841V62.7617H279.637L282.469 67.9102H286.212L283.069 62.5098C284.065 62.2119 284.815 61.7064 285.319 60.9941C285.837 60.2819 286.096 59.4729 286.096 58.5664C286.096 57.7635 285.908 57.0381 285.533 56.3906C285.158 55.7302 284.589 55.2125 283.826 54.8369C283.076 54.4614 282.164 54.2734 281.091 54.2734H275.524ZM289.438 54.2734L294.151 63.4033V67.9102H297.469V63.4033L302.182 54.2734H298.458L295.839 59.9844L293.201 54.2734H289.438ZM280.897 57.0322C281.505 57.0323 281.958 57.1808 282.255 57.4785C282.565 57.7763 282.721 58.1842 282.721 58.7021C282.721 59.246 282.565 59.667 282.255 59.9648C281.958 60.2627 281.505 60.4121 280.897 60.4121H278.841V57.0322H280.897Z" fill="#303446"/>
</svg>
