<svg width="234" height="200" viewBox="0 0 234 200" fill="none" xmlns="http://www.w3.org/2000/svg">
<path d="M55.1958 2.38281H178.731C188.745 2.38281 196.875 10.505 196.875 20.5094V143.926C196.875 153.931 188.745 162.053 178.731 162.053H55.1958C45.1818 162.053 37.0518 153.931 37.0518 143.926V20.5094C37.0518 10.505 45.1818 2.38281 55.1958 2.38281Z" fill="#343433"/>
<path d="M178.731 4.76504C187.398 4.76504 194.49 11.8498 194.49 20.5092V143.926C194.49 152.585 187.398 159.67 178.731 159.67H55.1958C46.5281 159.67 39.4366 152.585 39.4366 143.926V20.5092C39.4366 11.8498 46.5281 4.76504 55.1958 4.76504H178.731ZM178.731 0H55.1958C43.8767 0 34.667 9.20086 34.667 20.5092V143.926C34.667 155.234 43.8767 164.435 55.1958 164.435H178.731C190.05 164.435 199.259 155.234 199.259 143.926V20.5092C199.259 9.20086 190.05 0 178.731 0Z" fill="white"/>
<g clip-path="url(#clip0_940_1516)">
<path d="M116.863 80.8825L65.9541 51.4878L115.587 22.8008L115.58 53.1234L94.3228 65.3521L116.863 78.3664L139.407 65.3419L118.137 53.1133V22.8008L167.762 51.4776L116.863 80.8825ZM70.3091 51.4878L92.1453 64.0957L113.406 51.867V26.5767L70.3091 51.4878ZM120.314 51.8569L141.588 64.0855L163.411 51.4776L120.318 26.5767V51.8569H120.314Z" fill="#0D87C5"/>
<path d="M116.856 54.9297L135.001 65.3499L116.86 75.8345L98.7148 65.3567L116.856 54.9297Z" fill="#33CFFF"/>
<path d="M118.129 142.121L118.119 83.3349L169.018 53.9062L169.049 111.223L142.803 96.0715L142.834 71.56L120.297 84.5913V110.616L141.567 98.3133L167.789 113.444L118.129 142.124V142.121ZM120.3 113.129V138.348L163.431 113.444L141.564 100.826L120.297 113.133L120.3 113.129ZM144.981 94.8151L166.868 107.45L166.841 57.6788L145.011 70.3003L144.981 94.8151Z" fill="#0D87C5"/>
<path d="M140.602 96.2767L122.508 106.788L122.494 85.8361L140.636 75.3516L140.602 96.2767Z" fill="#33CFFF"/>
<path d="M115.59 142.121L65.9268 113.468L92.1518 98.3368L113.419 110.643V84.5978L90.8853 71.5767L90.9158 96.0983L64.667 111.246L64.6975 53.9297L115.6 83.338L115.593 142.121H115.59ZM70.2852 113.468L113.416 138.352V113.159L92.1518 100.853L70.2886 113.471L70.2852 113.468ZM66.8716 57.7022L66.8445 107.474L88.7315 94.8385L88.701 70.3135L66.8716 57.7022Z" fill="#0D87C5"/>
<path d="M93.1139 96.3001L111.208 106.812L111.222 85.8596L93.0801 75.375L93.1139 96.3001Z" fill="#33CFFF"/>
</g>
<path d="M222.667 162C228.558 162 233.333 166.776 233.333 172.667V189.333C233.333 195.224 228.558 200 222.667 200H10.6667C4.77563 200 0 195.224 0 189.333V172.667C0 166.776 4.77563 162 10.6667 162H222.667Z" fill="white"/>
<path d="M57.7756 193.53C55.5909 192.311 53.8564 190.61 52.572 188.425C51.2877 186.241 50.6455 183.785 50.6455 181.057C50.6455 178.329 51.2877 175.88 52.572 173.708C53.8564 171.537 55.5909 169.842 57.7756 168.624C59.9603 167.406 62.3634 166.797 64.9851 166.797C67.6067 166.797 70.0099 167.406 72.1946 168.624C74.3793 169.842 76.1006 171.537 77.3584 173.708C78.6163 175.88 79.2452 178.329 79.2452 181.057C79.2452 183.785 78.6097 186.241 77.3386 188.425C76.0675 190.61 74.3462 192.311 72.1747 193.53C70.0033 194.748 67.6067 195.357 64.9851 195.357C62.3634 195.357 59.9603 194.748 57.7756 193.53ZM70.3277 186.936C71.665 185.453 72.3336 183.493 72.3336 181.057C72.3336 178.621 71.665 176.628 70.3277 175.158C68.9904 173.689 67.2095 172.954 64.9851 172.954C62.7607 172.954 60.9401 173.682 59.6028 175.138C58.2655 176.595 57.5968 178.568 57.5968 181.057C57.5968 183.546 58.2655 185.486 59.6028 186.956C60.9401 188.425 62.7342 189.16 64.9851 189.16C67.236 189.16 68.9904 188.419 70.3277 186.936Z" fill="#343433"/>
<path d="M83.6547 173.649C84.8463 171.491 86.508 169.809 88.6398 168.604C90.7715 167.399 93.1879 166.797 95.889 166.797C99.1991 166.797 102.033 167.671 104.389 169.419C106.746 171.166 108.322 173.55 109.116 176.568H101.649C101.093 175.403 100.305 174.516 99.2852 173.907C98.2657 173.298 97.1071 172.993 95.8095 172.993C93.7175 172.993 92.0227 173.722 90.7252 175.178C89.4276 176.635 88.7788 178.581 88.7788 181.017C88.7788 183.454 89.4276 185.4 90.7252 186.856C92.0227 188.313 93.7175 189.041 95.8095 189.041C97.1071 189.041 98.2657 188.737 99.2852 188.127C100.305 187.518 101.093 186.631 101.649 185.466H109.116C108.322 188.485 106.746 190.862 104.389 192.596C102.033 194.331 99.1991 195.198 95.889 195.198C93.1879 195.198 90.7715 194.595 88.6398 193.391C86.508 192.186 84.8463 190.511 83.6547 188.366C82.463 186.221 81.8672 183.771 81.8672 181.017C81.8672 178.263 82.463 175.807 83.6547 173.649Z" fill="#343433"/>
<path d="M46.9119 167.199V195.084H40.1194V178.361L33.8831 195.084H28.4015L22.1254 178.321V195.084H15.333V167.199H23.3568L31.182 186.504L38.9278 167.199H46.9119Z" fill="#343433"/>
<path d="M129.454 195.084L120.08 182.77V195.084H113.287V167.199H120.08V179.434L129.374 167.199H137.359L126.554 180.863L137.756 195.084H129.454Z" fill="#343433"/>
<path d="M181.965 193.441C175.21 193.454 169.71 187.987 169.697 181.225C169.685 174.462 175.143 168.955 181.898 168.942C185.183 168.929 188.332 170.253 190.641 172.591C186.077 166.308 177.292 164.918 171.005 169.489C164.717 174.06 163.343 182.855 167.908 189.15C172.474 195.445 181.256 196.822 187.544 192.251C187.851 192.024 188.159 191.784 188.438 191.544C186.517 192.8 184.26 193.455 181.965 193.441Z" fill="#343433"/>
<path d="M186.13 170.908C190.869 173.675 192.457 179.755 189.706 184.487C186.943 189.231 180.869 190.822 176.144 188.068C173.435 186.491 171.632 183.711 171.286 180.597V181.171C171.286 187.265 176.211 192.197 182.299 192.197C188.386 192.197 193.311 187.265 193.311 181.171C193.245 176.6 190.402 172.524 186.13 170.906V170.908Z" fill="#343433"/>
<path d="M180.857 171.672C177.239 171.659 174.063 174.051 173.048 177.526C174.69 173.918 178.948 172.327 182.552 173.972C186.155 175.616 187.744 179.88 186.103 183.489C184.942 186.056 182.379 187.686 179.575 187.686C178.948 187.673 178.321 187.592 177.706 187.446C178.707 187.874 179.776 188.087 180.87 188.074C185.395 188.047 189.025 184.344 189 179.813C188.946 175.336 185.33 171.713 180.857 171.674V171.672Z" fill="#343433"/>
<path d="M161.636 183.186C162.615 184.446 163.105 185.879 163.105 187.498C163.105 189.828 162.289 191.674 160.661 193.038C159.033 194.403 156.762 195.083 153.846 195.083H140.856V167.199H153.411C156.245 167.199 158.462 167.848 160.067 169.144C161.667 170.441 162.47 172.205 162.47 174.426C162.47 176.068 162.039 177.432 161.178 178.516C160.316 179.604 159.174 180.357 157.741 180.778C159.355 181.123 160.652 181.926 161.636 183.181V183.186ZM147.653 178.48H152.101C153.212 178.48 154.068 178.235 154.662 177.745C155.256 177.256 155.556 176.535 155.556 175.578C155.556 174.621 155.256 173.896 154.662 173.393C154.068 172.889 153.212 172.64 152.101 172.64H147.653V178.48ZM155.302 188.826C155.923 188.309 156.236 187.561 156.236 186.582C156.236 185.603 155.909 184.832 155.261 184.279C154.613 183.721 153.719 183.444 152.581 183.444H147.657V189.602H152.663C153.801 189.602 154.681 189.343 155.306 188.826H155.302Z" fill="#343433"/>
<path d="M210.963 195.079L205.283 186.538L200.278 195.079H192.572L201.507 180.899L192.372 167.199H200.278L205.877 175.622L210.8 167.199H218.506L209.648 181.261L218.864 195.083H210.958L210.963 195.079Z" fill="#343433"/>
<defs>
<clipPath id="clip0_940_1516">
<rect width="104.382" height="119.32" fill="white" transform="translate(64.667 22.8008)"/>
</clipPath>
</defs>
</svg>
