<svg width="219" height="250" viewBox="0 0 219 250" fill="none" xmlns="http://www.w3.org/2000/svg">
<g clip-path="url(#clip0_940_1545)">
<path d="M109.511 121.694L2.7002 60.1053L106.832 0L106.818 63.5324L62.2195 89.1539L109.511 116.422L156.809 89.1327L112.182 63.5111V0L216.3 60.084L109.511 121.694ZM11.8373 60.1053L57.6509 86.5215L102.257 60.9V7.91139L11.8373 60.1053ZM116.751 60.8787L161.385 86.5003L207.17 60.084L116.758 7.91139V60.8787H116.751Z" fill="#0D87C5"/>
<path d="M109.497 67.3125L147.566 89.1451L109.504 111.113L71.4346 89.1593L109.497 67.3125Z" fill="#33CFFF"/>
<path d="M112.168 250L112.146 126.831L218.936 65.1719L219 185.262L163.935 153.517L163.999 102.16L116.715 129.463V183.992L161.342 158.214L216.357 189.916L112.168 250.008V250ZM116.722 189.257V242.096L207.213 189.916L161.335 163.479L116.715 189.264L116.722 189.257ZM168.504 150.885L214.424 177.358L214.367 73.0762L168.568 99.5208L168.504 150.885Z" fill="#0D87C5"/>
<path d="M159.317 153.948L121.355 175.972L121.326 132.073L159.388 110.105L159.317 153.948Z" fill="#33CFFF"/>
<path d="M106.839 250.002L2.64309 189.967L57.6649 158.265L102.285 184.05V129.479L55.0076 102.197L55.0715 153.575L0 185.313L0.0639457 65.2227L106.86 126.839L106.846 250.002H106.839ZM11.7873 189.967L102.278 242.104V189.322L57.6649 163.537L11.7944 189.974L11.7873 189.967ZM4.62541 73.127L4.56857 177.408L50.4887 150.935L50.4248 99.5503L4.62541 73.127Z" fill="#0D87C5"/>
<path d="M59.6824 153.999L97.6448 176.023L97.6733 132.124L59.6113 110.156L59.6824 153.999Z" fill="#33CFFF"/>
</g>
<defs>
<clipPath id="clip0_940_1545">
<rect width="219" height="250" fill="white"/>
</clipPath>
</defs>
</svg>
