<svg width="437" height="500" viewBox="0 0 437 500" fill="none" xmlns="http://www.w3.org/2000/svg">
<g clip-path="url(#clip0_940_1464)">
<path d="M218.521 243.387L5.3877 120.211L213.176 0L213.148 127.065L124.154 178.308L218.521 232.843L312.903 178.265L223.852 127.022V0L431.613 120.168L218.521 243.387ZM23.6202 120.211L115.038 173.043L204.046 121.8V15.8228L23.6202 120.211ZM232.969 121.757L322.033 173.001L413.394 120.168L232.983 15.8228V121.757H232.969Z" fill="#0D87C5"/>
<path d="M218.493 134.629L294.457 178.294L218.507 222.229L142.543 178.322L218.493 134.629Z" fill="#33CFFF"/>
<path d="M223.824 499.997L223.781 253.658L436.872 130.34L437 370.52L327.123 307.03L327.25 204.317L232.898 258.923V367.98L321.948 316.424L431.726 379.829L223.824 500.011V499.997ZM232.912 378.509V484.188L413.479 379.829L321.934 326.954L232.898 378.523L232.912 378.509ZM336.239 301.765L427.87 354.711L427.756 146.148L336.367 199.038L336.239 301.765Z" fill="#0D87C5"/>
<path d="M317.907 307.896L242.155 351.945L242.099 264.146L318.049 220.211L317.907 307.896Z" fill="#33CFFF"/>
<path d="M213.19 499.999L5.27411 379.931L115.066 316.526L204.103 368.095V258.954L109.764 204.39L109.892 307.146L0 370.621L0.1276 130.441L213.233 253.675L213.205 499.999H213.19ZM23.5208 379.931L204.088 484.205V378.639L115.066 327.07L23.535 379.945L23.5208 379.931ZM9.2297 146.25L9.11628 354.813L100.747 301.867L100.619 199.097L9.2297 146.25Z" fill="#0D87C5"/>
<path d="M119.093 307.998L194.845 352.046L194.901 264.247L118.951 220.312L119.093 307.998Z" fill="#33CFFF"/>
</g>
<defs>
<clipPath id="clip0_940_1464">
<rect width="437" height="500" fill="white"/>
</clipPath>
</defs>
</svg>
