<svg width="700" height="600" viewBox="0 0 700 600" fill="none" xmlns="http://www.w3.org/2000/svg">
<path d="M165.586 7.14844H536.191C566.233 7.14844 590.623 31.5152 590.623 61.5285V431.779C590.623 461.793 566.233 486.159 536.191 486.159H165.586C135.544 486.159 111.154 461.793 111.154 431.779V61.5285C111.154 31.5152 135.544 7.14844 165.586 7.14844Z" fill="#343433"/>
<path d="M536.191 14.2952C562.194 14.2952 583.469 35.5494 583.469 61.5276V431.779C583.469 457.757 562.194 479.011 536.191 479.011H165.586C139.583 479.011 118.309 457.757 118.309 431.779V61.5276C118.309 35.5494 139.583 14.2952 165.586 14.2952H536.191ZM536.191 0H165.586C131.629 0 104 27.6026 104 61.5276V431.779C104 465.704 131.629 493.306 165.586 493.306H536.191C570.148 493.306 597.777 465.704 597.777 431.779V61.5276C597.777 27.6026 570.148 0 536.191 0Z" fill="white"/>
<g clip-path="url(#clip0_940_1435)">
<path d="M350.588 242.644L197.86 154.46L346.758 68.3984L346.738 159.367L282.967 196.053L350.588 235.096L418.22 196.022L354.408 159.336V68.3984L503.286 154.429L350.588 242.644ZM210.925 154.46L276.434 192.283L340.215 155.597V79.7263L210.925 154.46ZM360.941 155.567L424.763 192.253L490.231 154.429L360.951 79.7263V155.567H360.941Z" fill="#0D87C5"/>
<path d="M350.568 164.781L405.003 196.042L350.578 227.496L296.144 196.062L350.568 164.781Z" fill="#33CFFF"/>
<path d="M354.388 426.356L354.357 249.997L507.055 161.711L507.146 333.661L428.41 288.207L428.501 214.672L360.89 253.766V331.842L424.702 294.933L503.367 340.325L354.388 426.366V426.356ZM360.9 339.38V415.038L490.292 340.325L424.692 302.471L360.89 339.39L360.9 339.38ZM434.943 284.438L500.603 322.343L500.522 173.029L435.034 210.893L434.943 284.438Z" fill="#0D87C5"/>
<path d="M421.806 288.826L367.524 320.361L367.483 257.505L421.908 226.051L421.806 288.826Z" fill="#33CFFF"/>
<path d="M346.768 426.359L197.779 340.399L276.455 295.007L340.256 331.926V253.79L272.655 214.726L272.746 288.291L194 333.735L194.091 161.785L346.799 250.01L346.779 426.359H346.768ZM210.855 340.399L340.246 415.051V339.475L276.455 302.555L210.865 340.41L210.855 340.399ZM200.614 173.103L200.533 322.417L266.193 284.512L266.102 210.937L200.614 173.103Z" fill="#0D87C5"/>
<path d="M279.34 288.901L333.622 320.436L333.663 257.579L279.238 226.125L279.34 288.901Z" fill="#33CFFF"/>
</g>
<path d="M668 486C685.673 486 700 500.327 700 518V568C700 585.673 685.673 600 668 600H32C14.3269 600 0 585.673 0 568V518C0 500.327 14.3269 486 32 486H668Z" fill="white"/>
<path d="M173.328 580.597C166.774 576.942 161.57 571.838 157.717 565.284C153.864 558.73 151.938 551.362 151.938 543.179C151.938 534.996 153.864 527.648 157.717 521.133C161.57 514.619 166.774 509.534 173.328 505.88C179.882 502.226 187.091 500.398 194.956 500.398C202.821 500.398 210.031 502.226 216.585 505.88C223.139 509.534 228.303 514.619 232.076 521.133C235.85 527.648 237.737 534.996 237.737 543.179C237.737 551.362 235.83 558.73 232.017 565.284C228.203 571.838 223.04 576.942 216.525 580.597C210.011 584.251 202.821 586.078 194.956 586.078C187.091 586.078 179.882 584.251 173.328 580.597ZM210.984 560.815C214.996 556.367 217.002 550.488 217.002 543.179C217.002 535.87 214.996 529.892 210.984 525.483C206.972 521.074 201.63 518.869 194.956 518.869C188.283 518.869 182.821 521.054 178.809 525.423C174.797 529.793 172.791 535.711 172.791 543.179C172.791 550.647 174.797 556.466 178.809 560.875C182.821 565.284 188.204 567.489 194.956 567.489C201.709 567.489 206.972 565.264 210.984 560.815Z" fill="#343433"/>
<path d="M250.965 520.954C254.54 514.48 259.525 509.435 265.92 505.82C272.315 502.206 279.565 500.398 287.668 500.398C297.598 500.398 306.099 503.02 313.169 508.263C320.24 513.507 324.967 520.657 327.35 529.713H304.947C303.279 526.218 300.915 523.556 297.857 521.729C294.798 519.902 291.322 518.988 287.43 518.988C281.154 518.988 276.069 521.173 272.176 525.542C268.284 529.912 266.337 535.751 266.337 543.06C266.337 550.369 268.284 556.208 272.176 560.577C276.069 564.946 281.154 567.131 287.43 567.131C291.322 567.131 294.798 566.218 297.857 564.39C300.915 562.563 303.279 559.902 304.947 556.406H327.35C324.967 565.463 320.24 572.593 313.169 577.796C306.099 583 297.598 585.602 287.668 585.602C279.565 585.602 272.315 583.794 265.92 580.18C259.525 576.565 254.54 571.54 250.965 565.105C247.39 558.67 245.603 551.322 245.603 543.06C245.603 534.798 247.39 527.429 250.965 520.954Z" fill="#343433"/>
<path d="M140.737 501.602V585.256H120.359V535.087L101.65 585.256H85.2054L66.3773 534.968V585.256H46V501.602H70.0714L93.547 559.516L116.784 501.602H140.737Z" fill="#343433"/>
<path d="M388.363 585.256L360.24 548.314V585.256H339.862V501.602H360.24V538.305L388.124 501.602H412.077L379.664 542.594L413.268 585.256H388.363Z" fill="#343433"/>
<path d="M545.894 580.331C525.63 580.369 509.13 563.97 509.092 543.683C509.054 523.395 525.43 506.872 545.694 506.834C555.548 506.796 564.996 510.766 571.924 517.779C558.23 498.933 531.877 494.763 513.014 508.475C494.15 522.188 490.029 548.573 503.723 567.458C517.421 586.343 543.769 590.475 562.633 576.762C563.552 576.08 564.476 575.359 565.315 574.639C559.55 578.408 552.779 580.374 545.894 580.331Z" fill="#343433"/>
<path d="M558.39 512.731C572.607 521.033 577.372 539.274 569.12 553.468C560.829 567.701 542.609 572.472 528.434 564.213C520.306 559.48 514.898 551.14 513.859 541.798V543.52C513.859 561.804 528.635 576.6 546.897 576.6C565.16 576.6 579.935 561.804 579.935 543.52C579.735 529.808 571.207 517.579 558.39 512.727V512.731Z" fill="#343433"/>
<path d="M542.569 515.016C531.716 514.978 522.186 522.154 519.142 532.579C524.068 521.753 536.842 516.982 547.653 521.915C558.464 526.849 563.229 539.64 558.307 550.466C554.824 558.167 547.134 563.058 538.724 563.058C536.842 563.02 534.96 562.776 533.116 562.337C536.118 563.621 539.325 564.26 542.607 564.222C556.182 564.141 567.074 553.033 566.998 539.44C566.836 526.009 555.987 515.14 542.569 515.021V515.016Z" fill="#343433"/>
<path d="M484.906 549.562C487.844 553.343 489.313 557.642 489.313 562.498C489.313 569.489 486.865 575.025 481.982 579.119C477.099 583.213 470.284 585.254 461.538 585.254H422.568V501.602H460.232C468.733 501.602 475.385 503.547 480.2 507.437C485.001 511.327 487.409 516.618 487.409 523.283C487.409 528.207 486.117 532.301 483.532 535.552C480.948 538.817 477.52 541.074 473.222 542.339C478.064 543.373 481.954 545.781 484.906 549.548V549.562ZM442.958 535.443H456.301C459.634 535.443 462.204 534.709 463.986 533.24C465.768 531.771 466.666 529.608 466.666 526.738C466.666 523.868 465.768 521.692 463.986 520.182C462.204 518.672 459.634 517.924 456.301 517.924H442.958V535.443ZM465.904 566.483C467.768 564.932 468.706 562.688 468.706 559.75C468.706 556.812 467.727 554.5 465.782 552.84C463.837 551.167 461.157 550.337 457.743 550.337H442.971V568.809H457.988C461.402 568.809 464.041 568.033 465.918 566.483H465.904Z" fill="#343433"/>
<path d="M632.889 585.24L615.848 559.618L600.834 585.24H577.715L604.52 542.7L577.116 501.602H600.834L617.63 526.87L632.399 501.602H655.519L628.945 543.788L656.593 585.254H632.875L632.889 585.24Z" fill="#343433"/>
<defs>
<clipPath id="clip0_940_1435">
<rect width="313.146" height="357.96" fill="white" transform="translate(194 68.3984)"/>
</clipPath>
</defs>
</svg>
