<svg width="427" height="366" viewBox="0 0 427 366" fill="none" xmlns="http://www.w3.org/2000/svg">
<path d="M101.008 4.35938H327.077C345.402 4.35938 360.28 19.2231 360.28 37.5312V263.384C360.28 281.692 345.402 296.556 327.077 296.556H101.008C82.6821 296.556 67.8042 281.692 67.8042 263.384V37.5312C67.8042 19.2231 82.6821 4.35938 101.008 4.35938Z" fill="#343433"/>
<path d="M327.076 8.72004C342.938 8.72004 355.916 21.6852 355.916 37.5319V263.385C355.916 279.232 342.938 292.197 327.076 292.197H101.008C85.1458 292.197 72.1683 279.232 72.1683 263.385V37.5319C72.1683 21.6852 85.1458 8.72004 101.008 8.72004H327.076ZM327.076 0H101.008C80.2936 0 63.4399 16.8376 63.4399 37.5319V263.385C63.4399 284.079 80.2936 300.917 101.008 300.917H327.076C347.79 300.917 364.644 284.079 364.644 263.385V37.5319C364.644 16.8376 347.79 0 327.076 0Z" fill="white"/>
<g clip-path="url(#clip0_940_1487)">
<path d="M213.859 148.013L120.695 94.22L211.522 41.7227L211.51 97.2133L172.61 119.592L213.859 143.408L255.114 119.573L216.189 97.1947V41.7227L307.004 94.2014L213.859 148.013ZM128.665 94.22L168.625 117.293L207.531 94.9141V48.6326L128.665 94.22ZM220.174 94.8955L259.105 117.274L299.041 94.2014L220.18 48.6326V94.8955H220.174Z" fill="#0D87C5"/>
<path d="M213.846 100.516L247.051 119.585L213.853 138.772L180.647 119.597L213.846 100.516Z" fill="#33CFFF"/>
<path d="M216.177 260.078L216.158 152.499L309.304 98.6445L309.359 203.534L261.33 175.807L261.386 130.951L220.143 154.798V202.424L259.068 179.91L307.054 207.599L216.177 260.084V260.078ZM220.149 207.023V253.174L299.078 207.599L259.062 184.508L220.143 207.029L220.149 207.023ZM265.315 173.508L305.368 196.63L305.319 105.548L265.371 128.646L265.315 173.508Z" fill="#0D87C5"/>
<path d="M257.302 176.184L224.19 195.42L224.165 157.077L257.364 137.891L257.302 176.184Z" fill="#33CFFF"/>
<path d="M211.529 260.078L120.645 207.642L168.637 179.953L207.556 202.474V154.81L166.319 130.982L166.375 175.856L118.34 203.577L118.396 98.6875L211.547 152.505L211.535 260.078H211.529ZM128.621 207.642L207.55 253.18V207.078L168.637 184.557L128.627 207.648L128.621 207.642ZM122.374 105.591L122.325 196.673L162.378 173.551L162.322 128.67L122.374 105.591Z" fill="#0D87C5"/>
<path d="M170.397 176.227L203.509 195.463L203.534 157.12L170.335 137.934L170.397 176.227Z" fill="#33CFFF"/>
</g>
<path d="M407.48 296.461C418.261 296.461 427 305.2 427 315.981V346.481C427 357.262 418.261 366.001 407.48 366.001H19.52C8.7394 366.001 0 357.262 0 346.481V315.981C0 305.2 8.7394 296.461 19.52 296.461H407.48Z" fill="white"/>
<path d="M105.73 354.163C101.732 351.934 98.5575 348.82 96.2072 344.822C93.8568 340.824 92.6816 336.33 92.6816 331.338C92.6816 326.347 93.8568 321.864 96.2072 317.89C98.5575 313.917 101.732 310.815 105.73 308.586C109.728 306.357 114.125 305.242 118.923 305.242C123.721 305.242 128.118 306.357 132.116 308.586C136.114 310.815 139.264 313.917 141.566 317.89C143.868 321.864 145.019 326.347 145.019 331.338C145.019 336.33 143.856 340.824 141.53 344.822C139.204 348.82 136.054 351.934 132.08 354.163C128.106 356.392 123.721 357.507 118.923 357.507C114.125 357.507 109.728 356.392 105.73 354.163ZM128.7 342.097C131.147 339.383 132.371 335.797 132.371 331.338C132.371 326.88 131.147 323.233 128.7 320.544C126.253 317.854 122.994 316.509 118.923 316.509C114.852 316.509 111.521 317.842 109.073 320.507C106.626 323.173 105.403 326.783 105.403 331.338C105.403 335.894 106.626 339.443 109.073 342.133C111.521 344.822 114.804 346.167 118.923 346.167C123.042 346.167 126.253 344.81 128.7 342.097Z" fill="#343433"/>
<path d="M153.088 317.781C155.269 313.832 158.31 310.755 162.211 308.55C166.112 306.345 170.534 305.242 175.477 305.242C181.535 305.242 186.72 306.841 191.033 310.04C195.346 313.238 198.23 317.6 199.683 323.124H186.017C185 320.992 183.558 319.368 181.692 318.254C179.827 317.139 177.706 316.582 175.332 316.582C171.504 316.582 168.402 317.915 166.027 320.58C163.653 323.245 162.466 326.807 162.466 331.266C162.466 335.724 163.653 339.286 166.027 341.951C168.402 344.616 171.504 345.949 175.332 345.949C177.706 345.949 179.827 345.392 181.692 344.277C183.558 343.163 185 341.539 186.017 339.407H199.683C198.23 344.931 195.346 349.281 191.033 352.455C186.72 355.629 181.535 357.216 175.477 357.216C170.534 357.216 166.112 356.114 162.211 353.909C158.31 351.704 155.269 348.639 153.088 344.713C150.908 340.788 149.817 336.305 149.817 331.266C149.817 326.226 150.908 321.731 153.088 317.781Z" fill="#343433"/>
<path d="M85.8494 305.977V357.006H73.4192V326.403L62.0067 357.006H51.9754L40.4902 326.33V357.006H28.0601V305.977H42.7436L57.0637 341.304L71.2385 305.977H85.8494Z" fill="#343433"/>
<path d="M236.902 357.006L219.747 334.471V357.006H207.316V305.977H219.747V328.365L236.756 305.977H251.367L231.595 330.982L252.094 357.006H236.902Z" fill="#343433"/>
<path d="M332.995 354.001C320.634 354.024 310.569 344.021 310.546 331.646C310.523 319.27 320.512 309.191 332.873 309.168C338.884 309.145 344.647 311.566 348.873 315.845C340.52 304.348 324.444 301.804 312.938 310.169C301.431 318.534 298.917 334.629 307.27 346.148C315.626 357.668 331.699 360.189 343.205 351.824C343.766 351.408 344.33 350.968 344.842 350.529C341.325 352.828 337.195 354.027 332.995 354.001Z" fill="#343433"/>
<path d="M340.618 312.765C349.29 317.829 352.197 328.956 347.163 337.614C342.106 346.296 330.992 349.207 322.345 344.169C317.387 341.281 314.088 336.194 313.454 330.495V331.546C313.454 342.699 322.467 351.724 333.607 351.724C344.748 351.724 353.761 342.699 353.761 331.546C353.638 323.181 348.436 315.722 340.618 312.762V312.765Z" fill="#343433"/>
<path d="M330.968 314.16C324.347 314.137 318.534 318.514 316.677 324.874C319.682 318.27 327.474 315.359 334.069 318.369C340.664 321.378 343.57 329.181 340.568 335.785C338.443 340.483 333.752 343.466 328.622 343.466C327.474 343.443 326.326 343.294 325.201 343.026C327.032 343.809 328.988 344.199 330.991 344.176C339.271 344.127 345.915 337.351 345.869 329.059C345.77 320.866 339.152 314.236 330.968 314.163V314.16Z" fill="#343433"/>
<path d="M295.793 335.232C297.585 337.539 298.481 340.161 298.481 343.123C298.481 347.388 296.987 350.765 294.009 353.262C291.03 355.76 286.873 357.004 281.538 357.004H257.767V305.977H280.742C285.927 305.977 289.985 307.163 292.922 309.536C295.851 311.909 297.319 315.137 297.319 319.202C297.319 322.206 296.531 324.703 294.955 326.686C293.378 328.678 291.287 330.055 288.665 330.827C291.619 331.457 293.992 332.926 295.793 335.224V335.232ZM270.204 326.62H278.344C280.376 326.62 281.945 326.172 283.032 325.276C284.118 324.38 284.666 323.06 284.666 321.31C284.666 319.559 284.118 318.232 283.032 317.311C281.945 316.39 280.376 315.933 278.344 315.933H270.204V326.62ZM284.201 345.554C285.338 344.608 285.911 343.239 285.911 341.447C285.911 339.655 285.313 338.244 284.127 337.232C282.94 336.212 281.306 335.705 279.223 335.705H270.212V346.973H279.372C281.455 346.973 283.065 346.5 284.21 345.554H284.201Z" fill="#343433"/>
<path d="M386.062 356.996L375.668 341.367L366.509 356.996H352.406L368.757 331.047L352.041 305.977H366.509L376.754 321.39L385.764 305.977H399.867L383.656 331.71L400.522 357.004H386.054L386.062 356.996Z" fill="#343433"/>
<defs>
<clipPath id="clip0_940_1487">
<rect width="191.019" height="218.356" fill="white" transform="translate(118.34 41.7227)"/>
</clipPath>
</defs>
</svg>
