<svg width="66" height="75" viewBox="0 0 66 75" fill="none" xmlns="http://www.w3.org/2000/svg">
<g clip-path="url(#clip0_940_1556)">
<path d="M33.003 36.5081L0.813477 18.0316L32.1958 0L32.1915 19.0597L18.7508 26.7462L33.003 34.9265L47.2574 26.7398L33.8081 19.0533V0L65.1861 18.0252L33.003 36.5081ZM3.56713 18.0316L17.374 25.9565L30.8168 18.27V2.37342L3.56713 18.0316ZM35.185 18.2636L48.6363 25.9501L62.4346 18.0252L35.1871 2.37342V18.2636H35.185Z" fill="#0D87C5"/>
<path d="M32.999 20.1953L44.4719 26.7451L33.0012 33.3353L21.5283 26.7494L32.999 20.1953Z" fill="#33CFFF"/>
<path d="M33.8043 74.9993L33.7979 38.0485L65.981 19.5508L66.0002 55.5778L49.4055 46.0543L49.4248 30.6473L35.1747 38.8383V55.1967L48.6239 47.4635L65.2037 56.9741L33.8043 75.0015V74.9993ZM35.1768 56.7762V72.6281L62.4479 56.9741L48.6218 49.0429L35.1747 56.7783L35.1768 56.7762ZM50.7823 45.2646L64.6213 53.2065L64.6041 21.9221L50.8016 29.8555L50.7823 45.2646Z" fill="#0D87C5"/>
<path d="M48.0138 46.184L36.573 52.7913L36.5645 39.6215L48.0352 33.0312L48.0138 46.184Z" fill="#33CFFF"/>
<path d="M32.1981 75.0001L0.796548 56.9898L17.3784 47.4791L30.8255 55.2145V38.8432L16.5776 30.6587L16.5969 46.0721L0 55.5934L0.0192713 19.5664L32.2045 38.0514L32.2002 75.0001H32.1981ZM3.55235 56.9898L30.8234 72.6309V56.7961L17.3784 49.0606L3.55449 56.9919L3.55235 56.9898ZM1.39396 21.9377L1.37683 53.2221L15.2158 45.2802L15.1965 29.8647L1.39396 21.9377Z" fill="#0D87C5"/>
<path d="M17.9863 46.1997L29.427 52.8069L29.4356 39.6371L17.9648 33.0469L17.9863 46.1997Z" fill="#33CFFF"/>
</g>
<defs>
<clipPath id="clip0_940_1556">
<rect width="66" height="75" fill="white"/>
</clipPath>
</defs>
</svg>
