<svg width="1160" height="263" viewBox="0 0 1160 263" fill="none" xmlns="http://www.w3.org/2000/svg">
<path d="M104.389 87.5875C114.378 89.7183 122.401 94.7174 128.46 102.585C134.519 110.288 137.548 119.139 137.548 129.138C137.548 143.561 132.472 155.035 122.319 163.558C112.331 171.917 98.3304 176.096 80.3181 176.096H0V3.50398H77.6163C95.1373 3.50398 108.81 7.51966 118.635 15.551C128.624 23.5824 133.618 34.4821 133.618 48.2502C133.618 58.4123 130.916 66.8535 125.512 73.5736C120.272 80.2937 113.231 84.965 104.389 87.5875ZM42.0012 73.3277H69.5108C76.3882 73.3277 81.6281 71.8526 85.2305 68.9023C88.9967 65.7881 90.8798 61.2807 90.8798 55.3801C90.8798 49.4795 88.9967 44.9721 85.2305 41.8579C81.6281 38.7437 76.3882 37.1866 69.5108 37.1866H42.0012V73.3277ZM72.9495 142.168C79.9906 142.168 85.3943 140.611 89.1605 137.497C93.0904 134.219 95.0554 129.547 95.0554 123.483C95.0554 117.418 93.0085 112.665 88.9149 109.223C84.9849 105.781 79.4994 104.06 72.4583 104.06H42.0012V142.168H72.9495Z" fill="#303446"/>
<path d="M422.497 176.096L387.373 123.237L356.425 176.096H308.774L364.039 88.3251L307.546 3.50398H356.425L391.057 55.6259L421.514 3.50398H469.165L414.391 90.5378L471.375 176.096H422.497Z" fill="#303446"/>
<path d="M534.461 143.643H589.481V176.096H492.46V3.50398H534.461V143.643Z" fill="#303446"/>
<path d="M716.851 145.61H652.498L642.182 176.096H598.216L660.603 3.50398H709.236L771.624 176.096H727.167L716.851 145.61ZM706.043 113.157L684.674 49.9712L663.551 113.157H706.043Z" fill="#303446"/>
<path d="M944.862 176.096H902.861L832.613 69.6399V176.096H790.612V3.50398H832.613L902.861 110.452V3.50398H944.862V176.096Z" fill="#303446"/>
<path d="M1089.77 58.0845C1086.66 52.3478 1082.15 48.0043 1076.26 45.054C1070.53 41.9398 1063.73 40.3827 1055.87 40.3827C1042.28 40.3827 1031.39 44.8901 1023.2 53.9049C1015.02 62.7558 1010.92 74.639 1010.92 89.5544C1010.92 105.453 1015.18 117.91 1023.69 126.925C1032.37 135.776 1044.24 140.201 1059.31 140.201C1069.63 140.201 1078.3 137.579 1085.35 132.334C1092.55 127.089 1097.79 119.549 1101.07 109.715H1047.77V78.7366H1139.14V117.828C1136.03 128.318 1130.7 138.07 1123.17 147.085C1115.8 156.1 1106.39 163.394 1094.92 168.967C1083.46 174.539 1070.53 177.326 1056.12 177.326C1039.09 177.326 1023.86 173.638 1010.43 166.262C997.168 158.723 986.77 148.315 979.237 135.038C971.869 121.762 968.184 106.601 968.184 89.5544C968.184 72.5082 971.869 57.3469 979.237 44.0706C986.77 30.6303 997.168 20.2223 1010.43 12.8466C1023.69 5.30694 1038.84 1.53711 1055.87 1.53711C1076.5 1.53711 1093.86 6.53623 1107.94 16.5345C1122.19 26.5327 1131.6 40.3827 1136.19 58.0845H1089.77Z" fill="#303446"/>
<path d="M209.892 26.6253L225.988 13.272L226.005 13.2559L226.037 13.28C226.607 13.3685 227.169 13.4571 227.739 13.5617C262.316 20.3712 284.706 53.6298 277.81 87.7576C270.987 121.596 237.94 143.618 203.786 137.428C211.154 135.778 218.237 132.43 224.425 127.302C245.162 110.094 247.873 79.5235 230.466 59.0226C220.493 47.271 206.074 41.3872 191.679 41.7333L209.9 26.6172L209.892 26.6253Z" fill="#303446"/>
<path d="M154.622 148.31C151.413 144.262 151.915 138.219 155.736 134.82C159.558 131.42 165.262 131.952 168.472 136C171.681 140.048 171.179 146.091 167.358 149.491C163.536 152.891 157.831 152.359 154.622 148.31Z" fill="#303446"/>
<path d="M244.865 175.012C215.578 180.744 186.768 172.13 166.068 154.158C167.276 153.653 168.434 152.981 169.486 152.108C171.656 150.331 173.118 148.041 173.833 145.575C178.369 148.113 183.16 150.275 188.206 151.956C231.298 166.39 278.194 144.03 292.961 102.057C307.777 60.0747 284.826 14.3862 241.742 0C279.263 6.02028 309.001 34.0002 316.422 70.2579C326.348 118.444 294.325 165.326 244.865 175.004V175.012Z" fill="#303446"/>
<path d="M1151.15 0C1153.58 0 1155.84 0.903175 1157.45 2.62664C1158.23 3.40552 1158.85 4.39153 1159.3 5.46041C1160.16 7.63546 1160.16 10.0591 1159.3 12.1927C1158.89 13.2616 1158.23 14.2476 1157.36 15.0265C1156.5 15.8882 1155.6 16.5055 1154.44 16.9571C1153.37 17.3673 1152.26 17.6159 1151.1 17.6159C1149.95 17.6159 1148.76 17.4087 1147.69 16.9198C1146.61 16.431 1145.63 15.7681 1144.76 14.9478C1143.12 13.3072 1142.21 11.128 1142.21 8.87006C1142.21 6.61215 1142.29 7.30818 1142.5 6.5293C1142.7 5.75043 1143.07 4.96741 1143.4 4.35425C1145.17 1.64476 1148.06 0 1151.14 0M1151.19 1.47904C1150.29 1.47904 1149.26 1.60333 1148.43 1.97205C1147.57 2.34077 1146.79 2.83377 1146.09 3.53393C1145.38 4.23409 1144.81 5.09584 1144.44 5.95757C1143.29 8.62564 1143.86 11.8281 1146.01 13.883C1146.71 14.5791 1147.49 15.1549 1148.44 15.5236C1149.3 15.8924 1150.29 16.0995 1151.28 16.0995C1152.27 16.0995 1153.21 15.8924 1154.04 15.5236C1154.94 15.1549 1155.72 14.6205 1156.47 13.9618C1157.21 13.303 1157.66 12.5656 1158.03 11.621C1158.4 10.7592 1158.61 9.85608 1158.61 8.87006C1158.61 7.88403 1158.49 6.89802 1158.03 5.95342C1157.66 5.05026 1157.13 4.27137 1156.47 3.61264C1155.77 2.91663 1154.98 2.34077 1154.04 1.97205C1153.13 1.72762 1152.14 1.47904 1151.2 1.47904M1147.53 3.77837H1151.36C1152.43 3.69551 1153.54 3.90266 1154.49 4.47439C1155.18 4.9674 1155.56 5.74628 1155.56 6.60802C1155.56 7.46975 1155.35 7.79703 1154.98 8.24861C1154.57 8.74162 1153.99 9.02751 1153.41 9.1518L1155.6 13.5433H1152.96L1151.11 9.60337H1149.92V13.6262H1147.57V3.77008H1147.53V3.77837ZM1149.87 5.34028V8.17404H1151.07C1151.56 8.2569 1152.14 8.0912 1152.63 7.80534C1153 7.59819 1153.13 7.1466 1153.13 6.73645C1153.13 6.3263 1153 5.8747 1152.63 5.5847C1152.14 5.29883 1151.56 5.17456 1150.99 5.21599L1149.87 5.34028Z" fill="#303446"/>
<path d="M1112.8 183.303C1127.1 183.303 1138.7 194.899 1138.7 209.204V237.099C1138.7 251.403 1127.1 263 1112.8 263H942.417C928.112 263 916.515 251.403 916.515 237.099V209.204C916.515 194.899 928.112 183.303 942.417 183.303H1112.8ZM951.382 198.246V248.057H970.126C975.353 248.057 979.939 247.016 983.882 244.935C987.873 242.853 990.938 239.92 993.076 236.136C995.261 232.352 996.354 228.024 996.354 223.151C996.354 218.232 995.261 213.904 993.076 210.167C990.938 206.383 987.897 203.45 983.954 201.368C980.01 199.287 975.4 198.246 970.126 198.246H951.382ZM1011.72 198.246V248.057H1042.36V238.336H1023.9V227.408H1040.23V218.043H1023.9V207.967H1042.36V198.246H1011.72ZM1055.05 198.246L1072.8 248.057H1088.05L1105.8 198.246H1092.9L1080.42 235.853L1068.02 198.246H1055.05ZM969.342 208.605C973.951 208.605 977.539 209.883 980.105 212.438C982.67 214.992 983.954 218.563 983.954 223.151C983.954 227.74 982.671 231.288 980.105 233.795C977.539 236.302 973.951 237.556 969.342 237.556H963.57V208.605H969.342Z" fill="#303446"/>
</svg>
