<svg width="1160" height="263" viewBox="0 0 1160 263" fill="none" xmlns="http://www.w3.org/2000/svg">
<path d="M104.389 87.5876C114.378 89.7184 122.401 94.7175 128.46 102.585C134.519 110.289 137.548 119.139 137.548 129.138C137.548 143.561 132.472 155.035 122.319 163.558C112.331 171.917 98.3304 176.097 80.3181 176.097H0V3.50398H77.6163C95.1373 3.50398 108.81 7.51967 118.635 15.551C128.624 23.5824 133.618 34.4822 133.618 48.2502C133.618 58.4124 130.916 66.8535 125.512 73.5737C120.272 80.2938 113.231 84.9651 104.389 87.5876ZM42.0012 73.3278H69.5108C76.3882 73.3278 81.6281 71.8527 85.2305 68.9024C88.9967 65.7882 90.8798 61.2808 90.8798 55.3801C90.8798 49.4795 88.9967 44.9721 85.2305 41.8579C81.6281 38.7437 76.3882 37.1866 69.5108 37.1866H42.0012V73.3278ZM72.9495 142.168C79.9906 142.168 85.3943 140.611 89.1605 137.497C93.0904 134.219 95.0554 129.548 95.0554 123.483C95.0554 117.418 93.0085 112.665 88.9149 109.223C84.9849 105.781 79.4994 104.06 72.4583 104.06H42.0012V142.168H72.9495Z" fill="white"/>
<path d="M422.497 176.097L387.373 123.237L356.425 176.097H308.774L364.039 88.3252L307.546 3.50398H356.425L391.057 55.626L421.514 3.50398H469.165L414.391 90.5379L471.375 176.097H422.497Z" fill="white"/>
<path d="M534.461 143.643H589.481V176.097H492.46V3.50398H534.461V143.643Z" fill="white"/>
<path d="M716.851 145.61H652.498L642.182 176.097H598.216L660.603 3.50398H709.236L771.624 176.097H727.167L716.851 145.61ZM706.043 113.157L684.674 49.9713L663.551 113.157H706.043Z" fill="white"/>
<path d="M944.862 176.097H902.861L832.613 69.64V176.097H790.612V3.50398H832.613L902.861 110.452V3.50398H944.862V176.097Z" fill="white"/>
<path d="M1089.77 58.0846C1086.66 52.3479 1082.15 48.0044 1076.26 45.0541C1070.53 41.9399 1063.73 40.3828 1055.87 40.3828C1042.28 40.3828 1031.39 44.8902 1023.2 53.905C1015.02 62.7559 1010.92 74.6391 1010.92 89.5545C1010.92 105.453 1015.18 117.91 1023.69 126.925C1032.37 135.776 1044.24 140.201 1059.31 140.201C1069.63 140.201 1078.3 137.579 1085.35 132.334C1092.55 127.089 1097.79 119.549 1101.07 109.715H1047.77V78.7367H1139.14V117.828C1136.03 128.318 1130.7 138.071 1123.17 147.085C1115.8 156.1 1106.39 163.394 1094.92 168.967C1083.46 174.54 1070.53 177.326 1056.12 177.326C1039.09 177.326 1023.86 173.638 1010.43 166.262C997.168 158.723 986.77 148.315 979.237 135.038C971.869 121.762 968.184 106.601 968.184 89.5545C968.184 72.5083 971.869 57.347 979.237 44.0707C986.77 30.6304 997.168 20.2224 1010.43 12.8466C1023.69 5.30694 1038.84 1.53711 1055.87 1.53711C1076.5 1.53711 1093.86 6.53624 1107.94 16.5345C1122.19 26.5327 1131.6 40.3828 1136.19 58.0846H1089.77Z" fill="white"/>
<path d="M209.893 26.6253L225.989 13.272L226.005 13.2559L226.038 13.28C226.607 13.3685 227.169 13.4571 227.739 13.5617C262.317 20.3712 284.706 53.6298 277.81 87.7577C270.988 121.596 237.941 143.618 203.786 137.428C211.155 135.778 218.238 132.43 224.426 127.303C245.162 110.094 247.874 79.5236 230.467 59.0227C220.493 47.2711 206.074 41.3872 191.68 41.7333L209.901 26.6173L209.893 26.6253Z" fill="url(#paint0_linear_706_1103)"/>
<path d="M154.622 148.31C151.413 144.262 151.915 138.219 155.736 134.82C159.558 131.42 165.262 131.952 168.472 136C171.681 140.048 171.179 146.091 167.358 149.491C163.536 152.891 157.831 152.359 154.622 148.31Z" fill="url(#paint1_linear_706_1103)"/>
<path d="M244.865 175.013C215.578 180.745 186.768 172.131 166.068 154.158C167.276 153.653 168.435 152.981 169.487 152.108C171.656 150.331 173.119 148.041 173.834 145.576C178.37 148.113 183.161 150.275 188.206 151.956C231.298 166.39 278.195 144.031 292.961 102.057C307.777 60.0748 284.826 14.3862 241.742 0C279.263 6.02029 309.002 34.0002 316.422 70.258C326.349 118.444 294.326 165.326 244.865 175.005V175.013Z" fill="url(#paint2_linear_706_1103)"/>
<path d="M1151.15 0C1153.58 0 1155.84 0.903177 1157.45 2.62665C1158.23 3.40552 1158.85 4.39154 1159.3 5.46042C1160.16 7.63547 1160.16 10.0591 1159.3 12.1927C1158.89 13.2616 1158.23 14.2476 1157.36 15.0265C1156.5 15.8883 1155.59 16.5056 1154.44 16.9571C1153.37 17.3673 1152.26 17.6159 1151.1 17.6159C1149.95 17.6159 1148.76 17.4087 1147.69 16.9199C1146.61 16.431 1145.62 15.7681 1144.76 14.9478C1143.12 13.3072 1142.21 11.128 1142.21 8.87007C1142.21 6.61215 1142.29 7.30819 1142.5 6.52931C1142.7 5.75043 1143.07 4.96741 1143.4 4.35426C1145.17 1.64476 1148.05 0 1151.14 0M1151.19 1.47904C1150.29 1.47904 1149.26 1.60333 1148.43 1.97205C1147.57 2.34078 1146.79 2.83377 1146.09 3.53393C1145.38 4.23409 1144.81 5.09584 1144.44 5.95758C1143.29 8.62565 1143.86 11.8282 1146.01 13.8831C1146.7 14.5791 1147.49 15.1549 1148.44 15.5237C1149.3 15.8924 1150.29 16.0995 1151.28 16.0995C1152.27 16.0995 1153.21 15.8924 1154.04 15.5237C1154.94 15.1549 1155.72 14.6205 1156.47 13.9618C1157.21 13.3031 1157.66 12.5656 1158.03 11.621C1158.4 10.7593 1158.61 9.85609 1158.61 8.87007C1158.61 7.88404 1158.49 6.89803 1158.03 5.95343C1157.66 5.05027 1157.13 4.27138 1156.47 3.61265C1155.77 2.91663 1154.98 2.34078 1154.04 1.97205C1153.13 1.72762 1152.14 1.47904 1151.2 1.47904M1147.53 3.77838H1151.36C1152.43 3.69552 1153.54 3.90266 1154.49 4.47439C1155.18 4.9674 1155.56 5.74629 1155.56 6.60803C1155.56 7.46976 1155.35 7.79704 1154.98 8.24862C1154.57 8.74164 1153.99 9.02752 1153.41 9.15181L1155.59 13.5433H1152.96L1151.11 9.60338H1149.92V13.6262H1147.57V3.77008H1147.53V3.77838ZM1149.87 5.34028V8.17405H1151.07C1151.56 8.25691 1152.14 8.09121 1152.63 7.80535C1153 7.5982 1153.13 7.14661 1153.13 6.73646C1153.13 6.3263 1153 5.87471 1152.63 5.5847C1152.14 5.29884 1151.56 5.17457 1150.99 5.216L1149.87 5.34028Z" fill="white"/>
<path d="M916.516 209.204C916.516 194.899 928.112 183.303 942.417 183.303H1112.8C1127.1 183.303 1138.7 194.899 1138.7 209.204V237.098C1138.7 251.403 1127.1 262.999 1112.8 262.999H942.417C928.112 262.999 916.516 251.403 916.516 237.098V209.204Z" fill="url(#paint3_linear_706_1103)"/>
<path d="M970.127 198.246C975.401 198.246 980.01 199.287 983.953 201.368C987.897 203.449 990.938 206.382 993.076 210.167C995.262 213.904 996.354 218.232 996.354 223.151C996.354 228.024 995.262 232.352 993.076 236.136C990.938 239.92 987.873 242.853 983.882 244.935C979.938 247.016 975.353 248.057 970.127 248.057H951.383V198.246H970.127ZM969.343 237.555C973.952 237.555 977.539 236.302 980.105 233.795C982.671 231.288 983.953 227.74 983.953 223.151C983.953 218.563 982.671 214.991 980.105 212.437C977.539 209.883 973.952 208.606 969.343 208.606H963.57V237.555H969.343Z" fill="#303446"/>
<path d="M1023.9 207.967V218.043H1040.23V227.409H1023.9V238.336H1042.36V248.057H1011.72V198.246H1042.36V207.967H1023.9Z" fill="#303446"/>
<path d="M1105.8 198.246L1088.05 248.057H1072.8L1055.05 198.246H1068.02L1080.42 235.852L1092.9 198.246H1105.8Z" fill="#303446"/>
<defs>
<linearGradient id="paint0_linear_706_1103" x1="191.68" y1="75.8627" x2="279.058" y2="75.8627" gradientUnits="userSpaceOnUse">
<stop stop-color="#00DBFF"/>
<stop offset="1" stop-color="#00FF75"/>
</linearGradient>
<linearGradient id="paint1_linear_706_1103" x1="152.508" y1="142.155" x2="170.586" y2="142.155" gradientUnits="userSpaceOnUse">
<stop stop-color="#00DBFF"/>
<stop offset="1" stop-color="#00FF75"/>
</linearGradient>
<linearGradient id="paint2_linear_706_1103" x1="166.068" y1="88.3862" x2="318.227" y2="88.3862" gradientUnits="userSpaceOnUse">
<stop stop-color="#00DBFF"/>
<stop offset="1" stop-color="#00FF75"/>
</linearGradient>
<linearGradient id="paint3_linear_706_1103" x1="916.516" y1="223.151" x2="1138.7" y2="223.151" gradientUnits="userSpaceOnUse">
<stop stop-color="#00DBFF"/>
<stop offset="1" stop-color="#00FF75"/>
</linearGradient>
</defs>
</svg>
