<svg width="500" height="500" viewBox="0 0 500 500" fill="none" xmlns="http://www.w3.org/2000/svg">
<g clip-path="url(#clip0_737_8125)">
<path d="M471.496 0H264.809C251.103 0 239.991 11.2471 239.991 25.121V36.1478C239.991 50.0217 251.103 61.2688 264.809 61.2688H471.496C485.203 61.2688 496.315 50.0217 496.315 36.1478V25.121C496.315 11.2471 485.203 0 471.496 0Z" fill="#0D87C5"/>
<path d="M475.182 77.4189H271.771C286.302 85.1625 300.095 95.3933 312.611 108.476C321.85 118.143 329.746 128.241 336.397 138.688H475.182C488.828 138.688 500 127.379 500 113.567V102.523C500 88.711 488.828 77.4023 475.182 77.4023V77.4189Z" fill="#0D87C5"/>
<path d="M475.182 154.837H345.521C355.137 174.353 360.511 194.914 361.674 216.106H475.182C488.828 216.106 500 204.797 500 190.985V179.941C500 166.129 488.828 154.82 475.182 154.82V154.837Z" fill="#0D87C5"/>
<path d="M354.908 441.269C335.856 416.347 344.686 424.389 325.552 399.533C317.558 389.137 299.898 367.166 301.618 364.762C361.952 280.03 360.838 192.015 296.507 124.761C229.261 54.4713 124.664 66.1613 71.0961 105.741C1.71995 156.995 -19.8383 252.322 19.5595 328.697C53.0272 393.564 138.916 449.925 243.005 408.421C246.232 407.128 255.848 424.688 260.795 432.066C281.633 463.09 278.094 458.547 299.669 489.074C308.925 502.157 319.72 502.986 332.137 494.214C337.609 490.35 342.867 486.155 348.421 482.424C365.425 471.033 367.931 458.315 354.891 441.252L354.908 441.269ZM173.023 376.535C103.827 376.535 47.7196 319.759 47.7196 249.702C47.7196 179.645 103.81 122.87 173.023 122.87C242.235 122.87 298.326 179.645 298.326 249.702C298.326 319.759 242.235 376.535 173.023 376.535Z" fill="#33CFFF"/>
<path d="M191.797 338.397C144.732 338.397 106.563 299.812 106.563 252.173C106.563 204.534 144.683 165.899 191.747 165.899C214.567 165.899 236.404 175.151 252.458 191.584C234.045 166.048 204.689 150.926 173.433 150.926C119.357 150.926 75.5361 195.281 75.5361 250.017C75.5361 304.753 119.357 349.108 173.433 349.108C196.858 349.158 219.531 340.619 237.239 325.115C223.659 333.804 207.883 338.447 191.797 338.397Z" fill="url(#paint0_linear_737_8125)"/>
<path d="M221.054 179.727C254.03 199.21 265.153 242.073 245.872 275.435C226.624 308.814 184.277 320.073 151.317 300.556C132.495 289.43 119.963 269.997 117.506 248.076C117.407 249.435 117.407 250.845 117.407 252.205C117.407 295.018 151.678 329.707 193.975 329.707C236.272 329.707 270.543 295.018 270.543 252.205C270.592 220.003 250.885 191.135 221.054 179.727Z" fill="url(#paint1_linear_737_8125)"/>
<path d="M184.146 185.082C159.05 185.082 136.934 201.746 129.792 226.105C141.063 200.669 170.549 189.261 195.695 200.669C220.825 212.077 232.095 241.924 220.825 267.376C210.816 290.043 185.997 301.932 162.293 295.449C191.19 307.653 224.429 293.857 236.502 264.557C248.559 235.308 234.929 201.664 205.983 189.443C199.07 186.574 191.649 185.082 184.146 185.082Z" fill="url(#paint2_linear_737_8125)"/>
</g>
<defs>
<linearGradient id="paint0_linear_737_8125" x1="215.874" y1="197.554" x2="93.1918" y2="326.331" gradientUnits="userSpaceOnUse">
<stop offset="0.278846" stop-color="#33CFFF"/>
<stop offset="1" stop-color="#0D87C5"/>
</linearGradient>
<linearGradient id="paint1_linear_737_8125" x1="238.878" y1="215.014" x2="147.457" y2="324.77" gradientUnits="userSpaceOnUse">
<stop offset="0.278846" stop-color="#33CFFF"/>
<stop offset="1" stop-color="#0D87C5"/>
</linearGradient>
<linearGradient id="paint2_linear_737_8125" x1="217.918" y1="212.094" x2="147.352" y2="292.385" gradientUnits="userSpaceOnUse">
<stop offset="0.278846" stop-color="#33CFFF"/>
<stop offset="1" stop-color="#0D87C5"/>
</linearGradient>
<clipPath id="clip0_737_8125">
<rect width="500" height="500" fill="white"/>
</clipPath>
</defs>
</svg>
