<svg width="403" height="178" viewBox="0 0 403 178" fill="none" xmlns="http://www.w3.org/2000/svg">
<g clip-path="url(#clip0_737_8206)">
<path d="M167.858 0H94.275C89.3953 0 85.4395 4.00396 85.4395 8.94309V12.8686C85.4395 17.8077 89.3953 21.8117 94.275 21.8117H167.858C172.738 21.8117 176.694 17.8077 176.694 12.8686V8.94309C176.694 4.00396 172.738 0 167.858 0Z" fill="#1D3366"/>
<path d="M169.171 27.5606H96.7539C101.927 30.3173 106.838 33.9595 111.293 38.617C114.583 42.0584 117.394 45.6534 119.761 49.3723H169.171C174.029 49.3723 178.006 45.3464 178.006 40.4292V36.4978C178.006 31.5806 174.029 27.5547 169.171 27.5547V27.5606Z" fill="#1D3366"/>
<path d="M169.17 55.1231H123.01C126.433 62.071 128.346 69.3907 128.76 76.9348H169.17C174.029 76.9348 178.006 72.9089 178.006 67.9917V64.0603C178.006 59.1431 174.029 55.1172 169.17 55.1172V55.1231Z" fill="#1D3366"/>
<path d="M126.352 157.09C119.569 148.218 122.713 151.081 115.901 142.232C113.055 138.531 106.768 130.709 107.38 129.854C128.86 99.6891 128.463 68.3558 105.561 44.4131C81.62 19.3902 44.3824 23.5518 25.3116 37.6423C0.612804 55.8886 -7.06218 89.8251 6.96391 117.014C18.8788 140.107 49.4563 160.172 86.5131 145.396C87.6621 144.936 91.0855 151.187 92.8467 153.814C100.265 164.859 99.0054 163.241 106.686 174.109C109.981 178.766 113.825 179.061 118.245 175.939C120.193 174.563 122.065 173.07 124.042 171.741C130.096 167.686 130.988 163.158 126.346 157.084L126.352 157.09ZM61.5986 134.045C36.964 134.045 16.9892 113.833 16.9892 88.8924C16.9892 63.9521 36.9582 43.7402 61.5986 43.7402C86.239 43.7402 106.208 63.9521 106.208 88.8924C106.208 113.833 86.239 134.045 61.5986 134.045Z" fill="#1D3366"/>
<path d="M68.2817 120.47C51.5262 120.47 37.9375 106.734 37.9375 89.7744C37.9375 72.815 51.5087 59.0609 68.2642 59.0609C76.3883 59.0609 84.1624 62.3548 89.8778 68.2047C83.3226 59.114 72.8715 53.7305 61.744 53.7305C42.4923 53.7305 26.8916 69.5211 26.8916 89.007C26.8916 108.493 42.4923 124.284 61.744 124.284C70.0838 124.301 78.1554 121.261 84.4598 115.742C79.625 118.835 74.0088 120.488 68.2817 120.47Z" fill="#1D3366"/>
<path d="M78.6973 63.9844C90.4372 70.9204 94.3972 86.1798 87.5328 98.0567C80.6802 109.939 65.6043 113.948 53.8702 107C47.1692 103.039 42.7077 96.1205 41.8328 88.3167C41.7979 88.8007 41.7979 89.3025 41.7979 89.7865C41.7979 105.028 53.9985 117.377 69.0569 117.377C84.1152 117.377 96.3159 105.028 96.3159 89.7865C96.3334 78.3228 89.3174 68.0457 78.6973 63.9844Z" fill="#1D3366"/>
<path d="M65.5578 65.8906C56.6231 65.8906 48.7498 71.8232 46.207 80.4947C50.2195 71.4395 60.7172 67.3782 69.6694 71.4395C78.6158 75.5008 82.6282 86.1262 78.6158 95.1874C75.0524 103.257 66.2168 107.489 57.7778 105.181C68.0656 109.526 79.8988 104.615 84.197 94.1838C88.4894 83.7709 83.6372 71.7937 73.3319 67.4431C70.8708 66.4219 68.2289 65.8906 65.5578 65.8906Z" fill="#1D3366"/>
</g>
<g clip-path="url(#clip1_737_8206)">
<path d="M275.112 161.087L261.626 142.985C257.643 143.787 253.732 144.189 249.931 144.189C240.027 144.189 230.964 141.89 222.704 137.291C214.445 132.692 207.903 126.306 203.042 118.057C198.182 109.809 195.77 100.575 195.77 90.2832C195.77 79.9911 198.182 70.7574 203.042 62.5821C207.903 54.4069 214.445 48.0199 222.704 43.4213C230.964 38.8227 240.027 36.5234 249.931 36.5234C259.835 36.5234 268.899 38.8227 277.158 43.4213C285.418 48.0199 291.886 54.4069 296.637 62.5821C301.389 70.7574 303.764 79.9911 303.764 90.2832C303.764 99.2614 301.937 107.473 298.282 114.919C294.627 122.364 289.547 128.532 283.079 133.422L306.176 161.123H275.148L275.112 161.087ZM229.611 112.473C234.655 118.021 241.416 120.795 249.931 120.795C258.447 120.795 265.061 117.984 270.105 112.4C275.148 106.816 277.67 99.4439 277.67 90.2467C277.67 81.0495 275.148 73.5677 270.105 68.0202C265.061 62.4726 258.337 59.6989 249.931 59.6989C241.526 59.6989 234.655 62.4362 229.611 67.9472C224.568 73.4217 222.046 80.867 222.046 90.2467C222.046 99.6264 224.568 106.962 229.611 112.473Z" fill="#1D3366"/>
<path d="M396.738 98.2406C400.429 102.985 402.293 108.387 402.293 114.482C402.293 123.277 399.223 130.248 393.083 135.358C386.944 140.504 378.355 143.059 367.355 143.059H318.31V37.9844H365.674C376.382 37.9844 384.751 40.4297 390.781 45.3202C396.811 50.2108 399.844 56.8532 399.844 65.2475C399.844 71.4519 398.236 76.5615 394.984 80.6856C391.731 84.7733 387.419 87.62 382.01 89.2259C388.113 90.5397 393.01 93.5325 396.702 98.2771L396.738 98.2406ZM343.965 80.5031H360.776C364.979 80.5031 368.195 79.5907 370.461 77.7294C372.727 75.868 373.823 73.1673 373.823 69.5541C373.823 65.9409 372.691 63.2037 370.461 61.3058C368.195 59.408 364.979 58.4591 360.776 58.4591H343.965V80.4666V80.5031ZM372.8 119.518C375.139 117.584 376.309 114.737 376.309 111.051C376.309 107.365 375.066 104.482 372.617 102.365C370.169 100.284 366.807 99.226 362.494 99.226H343.892V122.438H362.786C367.099 122.438 370.388 121.453 372.764 119.518H372.8Z" fill="#1D3366"/>
</g>
<defs>
<clipPath id="clip0_737_8206">
<rect width="178.006" height="178" fill="white"/>
</clipPath>
<clipPath id="clip1_737_8206">
<rect width="206.487" height="124.6" fill="white" transform="translate(195.807 36.4883)"/>
</clipPath>
</defs>
</svg>
