<svg width="153" height="50" viewBox="0 0 153 50" fill="none" xmlns="http://www.w3.org/2000/svg">
<path d="M37.8663 15.6893L21.424 26.052C20.8554 26.4431 20.4966 27.0701 20.4492 27.7578V46.1066C20.4492 46.6764 20.8858 46.909 21.3901 46.5752L37.5312 36.4485C38.0863 36.0608 38.4417 35.4506 38.506 34.7764L38.7733 16.2253C38.8072 15.5578 38.3706 15.3556 37.8663 15.6893ZM32.2614 31.702C32.2242 32.2953 31.9162 32.838 31.422 33.1718L27.6618 35.545C27.1913 35.845 26.8224 35.6462 26.8224 35.1439L26.8562 30.8997C26.8935 30.3063 27.2015 29.7636 27.6956 29.4299L31.4863 27.0566C31.9568 26.7566 32.3257 26.9555 32.3257 27.4915L32.258 31.7053L32.2614 31.702Z" fill="#0C0F1C"/>
<path d="M1.98973 15.6888L18.4354 26.0515C19.004 26.4425 19.3628 27.0696 19.4102 27.7573V46.1061C19.4102 46.6758 18.9736 46.9084 18.4693 46.5747L2.32818 36.4446C1.77311 36.0569 1.41773 35.4467 1.35342 34.7725L1.08604 16.2214C1.01835 15.5539 1.45496 15.3517 1.99311 15.6854M7.59459 31.6981C7.63182 32.2914 7.93982 32.8341 8.43397 33.1679L12.1942 35.5411C12.6647 35.8411 13.0336 35.6422 13.0336 35.14L12.9998 30.8958C12.9625 30.3024 12.6545 29.7597 12.1604 29.426L8.36966 27.0527C7.8992 26.7527 7.53029 26.9516 7.53029 27.4876L7.59798 31.6981H7.59459Z" fill="#272A38"/>
<path d="M19.0039 3.49067L2.32804 13.5163C1.78989 13.85 1.75604 14.386 2.26034 14.7198L18.838 25.2477C19.454 25.5814 20.202 25.5814 20.818 25.2477L37.4972 14.7198C38.0354 14.386 38.0015 13.85 37.4634 13.5163L20.8857 3.52438C20.3069 3.19738 19.5962 3.1839 19.0073 3.49067M24.6087 13.5837C25.0792 13.8837 25.0792 14.3523 24.6087 14.6186L20.7503 17.0256C20.2189 17.3256 19.5691 17.3256 19.0377 17.0256L15.2131 14.6523C14.7427 14.3523 14.7427 13.8837 15.2131 13.6174L19.0716 11.2442C19.5894 10.9441 20.2325 10.9441 20.7503 11.2442L24.6087 13.5837Z" fill="#323648"/>
<path d="M19.0377 17.0295C19.5691 17.3295 20.2189 17.3295 20.7503 17.0295L20.818 16.9958V11.0458L18.6045 9.80859L18.6722 16.8272L19.0411 17.0295H19.0377Z" fill="#41FFBC"/>
<path d="M13.0001 31.9023L7.46289 35.6139L9.6121 36.9522L13.0339 34.5453L13.0001 31.9057V31.9023Z" fill="#41FFBC"/>
<path d="M9.57499 36.9504L7.42578 35.6121V16.4609L9.57499 17.9644V36.9504Z" fill="#A9DD2F"/>
<path d="M20.8184 11.0106L18.6049 9.77344L7.46289 16.4583L9.6121 17.9618L20.8218 11.0073L20.8184 11.0106Z" fill="#A9DD2F"/>
<path d="M29.544 43.5004L32.0283 41.9969L30.3834 40.8945L27.8652 42.4655L29.544 43.5004Z" fill="#41FFBC"/>
<path d="M29.5439 43.4972L32.0282 41.9937V32.8008L29.5439 34.4054V43.4972Z" fill="#A9DD2F"/>
<path d="M27.093 30.0312C26.9373 30.2841 26.8561 30.5706 26.8595 30.8673V32.8394L29.5773 34.4103L32.0616 32.8057L27.0964 30.0312H27.093Z" fill="#A9DD2F"/>
<path d="M46.3959 34.5149H41.9316L42.6458 29.9336H57.6361L56.9219 34.5149H52.4577L50.7891 44.9316H44.7578L46.3925 34.5149H46.3959Z" fill="white"/>
<path d="M58.932 29.9336H64.9634L64.1443 35.0239H69.0858L69.9048 29.9336H75.9362L73.5534 44.9316H67.5221L68.4089 39.2985H63.4674L62.5806 44.9316H56.5459L58.932 29.9336Z" fill="white"/>
<path d="M77.8421 29.9331H90.9235L90.2771 33.9986H83.0544L82.7836 35.5931H89.194L88.6153 39.0552H82.2455L81.9409 40.852H89.4039L88.7574 44.9176H75.5L77.8523 29.9297L77.8421 29.9331Z" fill="white"/>
<path d="M43.265 11.1992H49.2964L46.9136 26.1972H40.8789L43.265 11.1992Z" fill="white"/>
<path d="M51.1342 11.1992H58.1876L62.3439 19.9539H62.3778L63.7756 11.1992H69.3635L66.9808 26.1972H59.9273L55.7711 17.3751H55.7372L54.3394 26.1972H48.748L51.1342 11.1992Z" fill="white"/>
<path d="M74.3354 15.8157H69.8711L70.5852 11.2344H85.5756L84.8614 15.8157H80.3971L78.7285 26.2324H72.6972L74.332 15.8157H74.3354Z" fill="white"/>
<path d="M84.3164 19.6149C84.3164 14.0155 89.2579 10.25 95.252 10.25C100.633 10.25 103.906 12.8289 103.906 16.9012C103.906 22.5005 98.9649 26.266 92.9708 26.266C87.5893 26.266 84.3164 23.6535 84.3164 19.6149ZM97.7735 17.545C97.7735 15.8494 96.5821 14.8347 94.5717 14.8347C92.3379 14.774 90.4797 16.527 90.4188 18.7519C90.4188 18.7553 90.4188 18.762 90.4188 18.7654V18.9676C90.4188 20.6633 91.6102 21.678 93.6206 21.678C95.868 21.7252 97.7295 19.9486 97.7769 17.7068V17.545H97.7735Z" fill="white"/>
<path d="M106.354 10.1836H106.012V25.5895H106.354V10.1836Z" fill="white"/>
<path d="M94.5857 29.9375H104.8C108.175 29.9375 110.25 31.4309 110.25 33.6659C110.202 35.4155 108.967 36.9123 107.251 37.2966V37.3303C108.622 37.6236 109.583 38.854 109.535 40.2497C109.535 42.96 106.777 44.9321 103.098 44.9321H92.2334L94.5857 29.9409V29.9375ZM101.846 41.4093C102.868 41.4093 103.582 40.8666 103.582 39.9833C103.582 39.3058 103.071 38.8979 102.289 38.8979H99.2564L98.8807 41.3756L101.842 41.4093H101.846ZM102.526 35.874C103.338 35.9751 104.083 35.402 104.184 34.593C104.188 34.5559 104.191 34.5188 104.195 34.4817C104.195 33.8716 103.717 33.4974 102.935 33.4974H100.143L99.7675 35.9077L102.526 35.874Z" fill="#A9DD2F"/>
<path d="M110.869 38.796C110.869 33.1966 115.811 29.4648 121.805 29.4648C127.186 29.4648 130.459 32.0437 130.459 36.116C130.459 41.7154 125.518 45.4809 119.524 45.4809C114.142 45.4472 110.869 42.8683 110.869 38.796ZM124.367 36.7599C124.367 35.0642 123.175 34.0495 121.165 34.0495C118.931 33.9855 117.073 35.7384 117.009 37.96C117.009 37.9667 117.009 37.9768 117.009 37.9836V38.1859C117.009 39.8815 118.2 40.8962 120.211 40.8962C122.458 40.9434 124.319 39.1668 124.367 36.9251V36.7565V36.7599Z" fill="#A9DD2F"/>
<path d="M136.183 37.0977L131.173 29.9375H137.577L140.132 33.6356L143.744 29.9375H150.279L142.82 37.4045L147.9 44.9388H141.361L138.806 41.1059L135.198 44.9388H128.757L136.186 37.0977H136.183Z" fill="#A9DD2F"/>
<path d="M113.782 17.6818C114.842 16.9165 115.437 16.2322 115.566 15.6288C115.59 15.4906 115.6 15.3996 115.6 15.3591C115.6 15.0422 115.434 14.8838 115.106 14.8838C114.869 14.8838 114.686 14.9714 114.551 15.1434C114.415 15.3187 114.293 15.6423 114.189 16.1176H110.391C110.733 14.7591 111.417 13.7511 112.449 13.0937C113.478 12.4397 114.659 12.1094 115.989 12.1094C117.319 12.1094 118.226 12.3454 118.815 12.8173C119.404 13.2893 119.699 13.8961 119.699 14.6411C119.699 14.7793 119.675 14.9984 119.628 15.2951C119.428 16.239 118.869 17.1256 117.959 17.9616C117.045 18.7942 115.962 19.5157 114.7 20.1191H118.744L118.179 22.7856H109.051L109.562 20.2978C111.315 19.3134 112.723 18.4403 113.782 17.6784V17.6818Z" fill="#A9DD2F"/>
<path d="M122.329 13.646C123.402 12.6818 124.83 12.2031 126.621 12.2031C128.103 12.2031 129.203 12.5369 129.914 13.2077C130.625 13.8786 130.983 14.8022 130.983 15.9855C130.983 16.4912 130.926 17.0069 130.807 17.5328C130.465 19.1611 129.758 20.4589 128.689 21.4264C127.616 22.3939 126.187 22.8794 124.397 22.8794C122.914 22.8794 121.814 22.5456 121.104 21.8748C120.393 21.2039 120.034 20.2735 120.034 19.0835C120.034 18.6655 120.092 18.1497 120.21 17.5362C120.552 15.908 121.256 14.6135 122.329 13.6493V13.646ZM127.077 16.4608C127.077 15.7057 126.709 15.3281 125.964 15.3281C125.375 15.3281 124.949 15.5203 124.685 15.9012C124.421 16.2821 124.211 16.8283 124.058 17.5328C123.964 17.9508 123.916 18.3082 123.916 18.6048C123.916 18.9723 124.001 19.2554 124.174 19.4543C124.343 19.6532 124.637 19.751 125.047 19.751C125.622 19.751 126.045 19.5588 126.309 19.1712C126.573 18.7835 126.783 18.2374 126.935 17.5328C127.03 17.135 127.077 16.7777 127.077 16.4608Z" fill="#A9DD2F"/>
<path d="M135.464 17.6818C136.523 16.9165 137.119 16.2322 137.248 15.6288C137.271 15.4906 137.282 15.3996 137.282 15.3591C137.282 15.0422 137.116 14.8838 136.787 14.8838C136.551 14.8838 136.368 14.9714 136.232 15.1434C136.097 15.3187 135.975 15.6423 135.87 16.1176H132.073C132.415 14.7591 133.098 13.7511 134.131 13.0937C135.159 12.4397 136.341 12.1094 137.671 12.1094C139.001 12.1094 139.908 12.3454 140.497 12.8173C141.086 13.2893 141.38 13.8961 141.38 14.6411C141.38 14.7793 141.357 14.9984 141.309 15.2951C141.11 16.239 140.551 17.1256 139.641 17.9616C138.727 18.7942 137.644 19.5157 136.381 20.1191H140.426L139.861 22.7856H130.732L131.243 20.2978C132.997 19.3134 134.405 18.4403 135.464 17.6784V17.6818Z" fill="#A9DD2F"/>
<path d="M148.065 14.7007C147.953 14.5625 147.757 14.4917 147.473 14.4917C147.026 14.4917 146.688 14.6838 146.457 15.0647C146.227 15.4457 146.031 16.039 145.865 16.8447C146.146 16.5683 146.505 16.3491 146.935 16.1907C147.365 16.0322 147.832 15.9513 148.339 15.9513C149.304 15.9513 150.062 16.1671 150.617 16.5986C151.169 17.0301 151.446 17.6571 151.446 18.483C151.446 18.7595 151.413 19.0595 151.341 19.3764C151.105 20.4989 150.512 21.3889 149.558 22.0496C148.603 22.7104 147.425 23.0407 146.028 23.0407C144.63 23.0407 143.547 22.7441 142.927 22.1474C142.308 21.5507 142 20.7079 142 19.6157C142 19.0089 142.081 18.3313 142.247 17.5762C142.528 16.2278 142.921 15.1355 143.422 14.2995C143.922 13.4668 144.569 12.8499 145.364 12.4522C146.16 12.0544 147.128 11.8555 148.268 11.8555C149.527 11.8555 150.451 12.1319 151.04 12.6814C151.629 13.2309 151.924 13.9354 151.924 14.7883C151.924 15.0378 151.91 15.2266 151.89 15.3547H148.234C148.234 15.058 148.177 14.8389 148.065 14.7007ZM145.953 18.7662C145.716 18.955 145.601 19.2179 145.601 19.555C145.601 19.7742 145.679 19.936 145.831 20.0472C145.984 20.1551 146.204 20.2124 146.485 20.2124C146.813 20.2124 147.084 20.1416 147.297 19.9966C147.51 19.8517 147.645 19.6326 147.703 19.3325C147.713 19.2921 147.72 19.2348 147.72 19.1539C147.72 18.9348 147.642 18.7696 147.483 18.655C147.324 18.5403 147.111 18.483 146.84 18.483C146.488 18.483 146.193 18.5774 145.957 18.7662H145.953Z" fill="#A9DD2F"/>
</svg>
