<svg width="902" height="296" viewBox="0 0 902 296" fill="none" xmlns="http://www.w3.org/2000/svg">
<path d="M223.241 92.9005L126.306 154.248C122.954 156.563 120.839 160.275 120.56 164.346V272.971C120.56 276.344 123.134 277.721 126.107 275.745L221.265 215.795C224.538 213.5 226.633 209.888 227.012 205.896L228.588 96.0737C228.788 92.1222 226.214 90.9248 223.241 92.9005ZM190.197 187.696C189.978 191.208 188.162 194.421 185.249 196.397L163.081 210.446C160.307 212.223 158.132 211.045 158.132 208.071L158.332 182.946C158.551 179.433 160.367 176.22 163.28 174.245L185.628 160.195C188.402 158.419 190.577 159.596 190.577 162.769L190.177 187.716L190.197 187.696Z" fill="#0C0F1C"/>
<path d="M11.7328 92.9009L108.687 154.248C112.039 156.563 114.154 160.275 114.434 164.346V272.972C114.434 276.344 111.86 277.721 108.887 275.746L13.7281 215.775C10.4558 213.48 8.36063 209.868 7.98151 205.877L6.40518 96.0541C6.00611 92.1027 8.58012 90.9053 11.7527 92.881M44.7758 187.676C44.9953 191.188 46.8111 194.401 49.7243 196.377L71.8927 210.427C74.6663 212.203 76.8412 211.026 76.8412 208.052L76.6417 182.926C76.4222 179.414 74.6064 176.201 71.6932 174.225L49.3452 160.175C46.5717 158.399 44.3967 159.577 44.3967 162.75L44.7958 187.676H44.7758Z" fill="#272A38"/>
<path d="M112.039 20.6763L13.7279 80.028C10.5553 82.0037 10.3557 85.1768 13.3288 87.1526L111.061 149.478C114.693 151.454 119.103 151.454 122.734 149.478L221.065 87.1526C224.238 85.1768 224.038 82.0037 220.866 80.028L123.133 20.8759C119.721 18.9401 115.531 18.8602 112.059 20.6763M145.082 80.4271C147.856 82.2033 147.856 84.9773 145.082 86.5539L122.335 100.803C119.202 102.579 115.371 102.579 112.239 100.803L89.6911 86.7534C86.9175 84.9773 86.9175 82.2033 89.6911 80.6267L112.438 66.5771C115.491 64.8009 119.282 64.8009 122.335 66.5771L145.082 80.4271Z" fill="#323648"/>
<path d="M112.239 100.822C115.371 102.598 119.202 102.598 122.335 100.822L122.734 100.622V65.3984L109.685 58.0742L110.084 99.6244L112.259 100.822H112.239Z" fill="#41FFBC"/>
<path d="M76.6416 188.871L43.9976 210.844L56.6681 218.766L76.8411 204.517L76.6416 188.891V188.871Z" fill="#41FFBC"/>
<path d="M56.4488 218.747L43.7783 210.824V97.4492L56.4488 106.35V218.747Z" fill="#A9DD2F"/>
<path d="M122.734 65.1992L109.685 57.875L43.9976 97.4494L56.6681 106.35L122.754 65.1792L122.734 65.1992Z" fill="#A9DD2F"/>
<path d="M174.175 257.544L188.821 248.643L179.123 242.117L164.278 251.417L174.175 257.544Z" fill="#41FFBC"/>
<path d="M174.175 257.522L188.821 248.622V194.199L174.175 203.699V257.522Z" fill="#A9DD2F"/>
<path d="M159.728 177.797C158.81 179.294 158.331 180.99 158.351 182.746V194.421L174.374 203.721L189.02 194.221L159.748 177.797H159.728Z" fill="#A9DD2F"/>
<path d="M273.523 204.317H247.205L251.415 177.195H339.789L335.579 204.317H309.26L299.423 265.983H263.866L273.503 204.317H273.523Z" fill="#272A38"/>
<path d="M347.431 177.195H382.988L378.159 207.33H407.292L412.12 177.195H447.678L433.63 265.983H398.073L403.301 232.635H374.169L368.941 265.983H333.364L347.431 177.195Z" fill="#272A38"/>
<path d="M458.911 177.196H536.032L532.221 201.264H489.64L488.044 210.703H525.836L522.424 231.199H484.871L483.075 241.836H527.073L523.262 265.904H445.104L458.971 177.176L458.911 177.196Z" fill="#272A38"/>
<path d="M255.066 66.2969H290.623L276.576 155.085H240.999L255.066 66.2969Z" fill="#272A38"/>
<path d="M301.458 66.2969H343.042L367.545 118.125H367.744L375.985 66.2969H408.928L394.881 155.085H353.298L328.795 102.858H328.595L320.354 155.085H287.391L301.458 66.2969Z" fill="#272A38"/>
<path d="M438.24 93.6175H411.921L416.131 66.4961H504.505L500.295 93.6175H473.976L464.139 155.284H428.582L438.22 93.6175H438.24Z" fill="#272A38"/>
<path d="M497.083 116.128C497.083 82.9793 526.215 60.6875 561.553 60.6875C593.279 60.6875 612.574 75.9545 612.574 100.062C612.574 133.211 583.442 155.502 548.104 155.502C516.378 155.502 497.083 140.036 497.083 116.128ZM576.418 103.874C576.418 93.8358 569.395 87.8288 557.542 87.8288C544.373 87.4696 533.418 97.8472 533.059 111.019C533.059 111.039 533.059 111.079 533.059 111.098V112.296C533.059 122.334 540.083 128.341 551.935 128.341C565.184 128.621 576.159 118.103 576.438 104.832V103.874H576.418Z" fill="#272A38"/>
<path d="M627.001 60.2891H624.985V151.492H627.001V60.2891Z" fill="#272A38"/>
<path d="M557.622 177.215H617.841C637.735 177.215 649.967 186.056 649.967 199.287C649.687 209.645 642.404 218.506 632.288 220.781V220.98C640.369 222.716 646.036 230.001 645.756 238.263C645.756 254.308 629.494 265.983 607.805 265.983H543.754L557.622 177.235V177.215ZM600.422 245.128C606.448 245.128 610.658 241.915 610.658 236.686C610.658 232.675 607.645 230.26 603.036 230.26H585.158L582.943 244.928L600.402 245.128H600.422ZM604.433 212.359C609.221 212.958 613.611 209.565 614.21 204.775C614.23 204.556 614.25 204.336 614.27 204.117C614.27 200.504 611.456 198.289 606.847 198.289H590.385L588.17 212.558L604.433 212.359Z" fill="#A9DD2F"/>
<path d="M653.618 229.662C653.618 196.514 682.75 174.422 718.088 174.422C749.814 174.422 769.109 189.689 769.109 213.797C769.109 246.945 739.977 269.237 704.639 269.237C672.913 269.037 653.618 253.77 653.618 229.662ZM733.193 217.608C733.193 207.57 726.169 201.563 714.317 201.563C701.147 201.184 690.193 211.562 689.814 224.713C689.814 224.753 689.814 224.813 689.814 224.853V226.05C689.814 236.089 696.838 242.096 708.69 242.096C721.939 242.375 732.914 231.858 733.193 218.586V217.589V217.608Z" fill="#A9DD2F"/>
<path d="M802.85 219.603L773.319 177.215H811.071L826.136 199.107L847.427 177.215H885.957L841.979 221.419L871.93 266.023H833.379L818.314 243.332L797.044 266.023H759.072L802.87 219.603H802.85Z" fill="#A9DD2F"/>
<path d="M670.798 104.672C677.044 100.142 680.556 96.0908 681.314 92.5185C681.454 91.7003 681.513 91.1615 681.513 90.922C681.513 89.0461 680.536 88.1081 678.6 88.1081C677.203 88.1081 676.126 88.627 675.328 89.6448C674.53 90.6825 673.811 92.5984 673.193 95.4123H650.805C652.82 87.3697 656.851 81.4026 662.937 77.511C669.003 73.6394 675.966 71.6836 683.808 71.6836C691.65 71.6836 696.997 73.0806 700.469 75.8745C703.941 78.6685 705.677 82.2607 705.677 86.6712C705.677 87.4894 705.538 88.7866 705.258 90.5428C704.081 96.1307 700.789 101.379 695.421 106.329C690.034 111.258 683.648 115.529 676.206 119.101H700.05L696.718 134.887H642.903L645.916 120.159C656.252 114.331 664.553 109.163 670.798 104.652V104.672Z" fill="#A9DD2F"/>
<path d="M721.181 80.7837C727.506 75.0761 735.927 72.2422 746.482 72.2422C755.222 72.2422 761.707 74.2179 765.897 78.1893C770.087 82.1607 772.202 87.6289 772.202 94.6338C772.202 97.6273 771.863 100.681 771.165 103.794C769.149 113.433 764.979 121.117 758.674 126.844C752.348 132.572 743.928 135.446 733.372 135.446C724.633 135.446 718.148 133.47 713.958 129.498C709.767 125.527 707.652 120.019 707.652 112.974C707.652 110.499 707.992 107.446 708.69 103.814C710.705 94.1748 714.856 86.5113 721.181 80.8037V80.7837ZM749.176 97.4477C749.176 92.9774 747.001 90.7422 742.611 90.7422C739.139 90.7422 736.625 91.8797 735.069 94.1348C733.512 96.39 732.275 99.623 731.377 103.794C730.818 106.269 730.539 108.384 730.539 110.14C730.539 112.316 731.038 113.992 732.056 115.169C733.053 116.347 734.789 116.926 737.204 116.926C740.596 116.926 743.09 115.788 744.646 113.493C746.203 111.198 747.44 107.965 748.338 103.794C748.896 101.439 749.176 99.3236 749.176 97.4477Z" fill="#A9DD2F"/>
<path d="M798.621 104.672C804.866 100.142 808.378 96.0908 809.136 92.5185C809.276 91.7003 809.336 91.1615 809.336 90.922C809.336 89.0461 808.358 88.1081 806.422 88.1081C805.026 88.1081 803.948 88.627 803.15 89.6448C802.352 90.6825 801.634 92.5984 801.015 95.4123H778.627C780.642 87.3697 784.673 81.4026 790.759 77.511C796.825 73.6394 803.789 71.6836 811.63 71.6836C819.472 71.6836 824.82 73.0806 828.292 75.8745C831.763 78.6685 833.499 82.2607 833.499 86.6712C833.499 87.4894 833.36 88.7866 833.08 90.5428C831.903 96.1307 828.611 101.379 823.243 106.329C817.856 111.258 811.471 115.529 804.028 119.101H827.873L824.54 134.887H770.726L773.739 120.159C784.074 114.331 792.375 109.163 798.621 104.652V104.672Z" fill="#A9DD2F"/>
<path d="M872.908 87.0311C872.25 86.2129 871.092 85.7938 869.416 85.7938C866.782 85.7938 864.787 86.9313 863.43 89.1864C862.073 91.4415 860.916 94.954 859.938 99.7236C861.594 98.0872 863.71 96.79 866.244 95.852C868.778 94.914 871.531 94.4351 874.524 94.4351C880.211 94.4351 884.681 95.7123 887.953 98.2668C891.206 100.821 892.842 104.533 892.842 109.423C892.842 111.059 892.642 112.835 892.223 114.711C890.826 121.357 887.335 126.625 881.708 130.537C876.081 134.449 869.137 136.404 860.896 136.404C852.655 136.404 846.27 134.648 842.619 131.116C838.967 127.583 837.151 122.594 837.151 116.128C837.151 112.536 837.63 108.525 838.608 104.054C840.264 96.0715 842.579 89.6055 845.532 84.6562C848.485 79.7269 852.296 76.0748 856.985 73.7199C861.674 71.365 867.381 70.1875 874.105 70.1875C881.528 70.1875 886.975 71.824 890.447 75.0769C893.919 78.3299 895.655 82.5009 895.655 87.55C895.655 89.0268 895.575 90.1443 895.456 90.9027H873.906C873.906 89.1465 873.567 87.8493 872.908 87.0311ZM860.457 111.099C859.06 112.217 858.382 113.773 858.382 115.769C858.382 117.066 858.841 118.024 859.739 118.683C860.637 119.321 861.934 119.661 863.59 119.661C865.525 119.661 867.122 119.241 868.379 118.383C869.636 117.525 870.434 116.228 870.773 114.452C870.833 114.212 870.873 113.873 870.873 113.394C870.873 112.097 870.414 111.119 869.476 110.44C868.538 109.762 867.281 109.423 865.685 109.423C863.61 109.423 861.874 109.981 860.477 111.099H860.457Z" fill="#A9DD2F"/>
</svg>
