<svg width="250" height="250" viewBox="0 0 250 250" fill="none" xmlns="http://www.w3.org/2000/svg">
<path d="M227.873 71.4482L133.584 131.057C130.323 133.306 128.266 136.913 127.994 140.869V246.416C127.994 249.693 130.498 251.031 133.39 249.111L225.952 190.86C229.135 188.63 231.173 185.12 231.541 181.242L233.075 74.5314C233.269 70.692 230.765 69.5285 227.873 71.4482ZM195.732 163.557C195.518 166.97 193.752 170.092 190.918 172.011L169.355 185.663C166.657 187.389 164.541 186.245 164.541 183.355L164.735 158.942C164.949 155.529 166.715 152.407 169.549 150.487L191.287 136.836C193.985 135.11 196.1 136.254 196.1 139.337L195.712 163.576L195.732 163.557Z" fill="#0C0F1C"/>
<path d="M22.1371 71.452L116.446 131.061C119.706 133.31 121.764 136.917 122.035 140.873V246.42C122.035 249.697 119.532 251.035 116.64 249.115L24.078 190.844C20.8949 188.614 18.8569 185.104 18.4882 181.226L16.9548 74.5158C16.5667 70.6763 19.0704 69.5129 22.1565 71.4326M54.2784 163.541C54.4919 166.954 56.2582 170.076 59.0919 171.996L80.6553 185.647C83.3532 187.373 85.4688 186.229 85.4688 183.34L85.2747 158.926C85.0612 155.513 83.295 152.391 80.4612 150.471L58.7231 136.82C56.0252 135.094 53.9097 136.238 53.9097 139.321L54.2978 163.541H54.2784Z" fill="#272A38"/>
<path d="M119.706 1.27203L24.0779 58.9421C20.9918 60.8619 20.7977 63.9451 23.6897 65.8649L118.755 126.424C122.288 128.344 126.577 128.344 130.11 126.424L225.758 65.8649C228.844 63.9451 228.65 60.8619 225.564 58.9421L130.498 1.46595C127.179 -0.41502 123.103 -0.492587 119.726 1.27203M151.848 59.33C154.546 61.0558 154.546 63.7512 151.848 65.2831L129.722 79.1286C126.674 80.8545 122.948 80.8545 119.901 79.1286L97.9683 65.4771C95.2704 63.7512 95.2704 61.0558 97.9683 59.5239L120.095 45.8723C123.064 44.1465 126.752 44.1465 129.722 45.8723L151.848 59.33Z" fill="#323648"/>
<path d="M119.9 79.1458C122.948 80.8717 126.674 80.8717 129.721 79.1458L130.11 78.9519V44.726L117.416 37.6094L117.804 77.9823L119.92 79.1458H119.9Z" fill="#41FFBC"/>
<path d="M85.2757 164.707L53.5225 186.057L65.8472 193.755L85.4698 179.91L85.2757 164.726V164.707Z" fill="#41FFBC"/>
<path d="M65.6334 193.736L53.3086 186.038V75.875L65.6334 84.5236V193.736Z" fill="#A9DD2F"/>
<path d="M130.111 44.5385L117.417 37.4219L53.5225 75.8751L65.8472 84.5237L130.13 44.5191L130.111 44.5385Z" fill="#A9DD2F"/>
<path d="M180.147 231.435L194.394 222.786L184.961 216.445L170.521 225.482L180.147 231.435Z" fill="#41FFBC"/>
<path d="M180.146 231.416L194.393 222.767V169.887L180.146 179.117V231.416Z" fill="#A9DD2F"/>
<path d="M166.094 153.945C165.201 155.4 164.735 157.048 164.754 158.754V170.098L180.34 179.135L194.586 169.904L166.113 153.945H166.094Z" fill="#A9DD2F"/>
</svg>
