<svg width="75" height="75" viewBox="0 0 75 75" fill="none" xmlns="http://www.w3.org/2000/svg">
<path d="M68.3621 21.4329L40.0754 39.3155C39.0972 39.9903 38.48 41.0724 38.3984 42.2591V73.9231C38.3984 74.9062 39.1496 75.3076 40.0172 74.7317L67.7856 57.2563C68.7406 56.5873 69.3519 55.5343 69.4626 54.3709L69.9226 22.3579C69.9808 21.206 69.2297 20.857 68.3621 21.4329ZM58.7197 49.0654C58.6556 50.0893 58.1258 51.0259 57.2757 51.6018L50.8066 55.6972C49.9973 56.215 49.3626 55.8717 49.3626 55.005L49.4208 47.6809C49.4849 46.657 50.0147 45.7204 50.8649 45.1445L57.3863 41.0491C58.1956 40.5313 58.8303 40.8746 58.8303 41.7995L58.7139 49.0712L58.7197 49.0654Z" fill="#0C0F1C"/>
<path d="M6.6418 21.4348L34.9343 39.3174C35.9125 39.9922 36.5297 41.0743 36.6113 42.261V73.925C36.6113 74.9081 35.8601 75.3095 34.9926 74.7336L7.22407 57.2524C6.26915 56.5834 5.65776 55.5304 5.54713 54.367L5.08714 22.354C4.97068 21.2021 5.72181 20.8531 6.64762 21.429M16.2842 49.0615C16.3483 50.0854 16.8781 51.022 17.7282 51.5979L24.1973 55.6933C25.0066 56.2111 25.6413 55.8678 25.6413 55.0011L25.5831 47.677C25.519 46.6531 24.9891 45.7165 24.139 45.1406L17.6176 41.0452C16.8082 40.5274 16.1736 40.8707 16.1736 41.7956L16.29 49.0615H16.2842Z" fill="#272A38"/>
<path d="M35.9121 0.381609L7.22356 17.6826C6.29774 18.2585 6.23952 19.1835 7.1071 19.7594L35.6268 37.9272C36.6865 38.5031 37.9733 38.5031 39.0331 37.9272L67.7274 19.7594C68.6532 19.1835 68.595 18.2585 67.6692 17.6826L39.1495 0.439784C38.1538 -0.124506 36.9311 -0.147776 35.9179 0.381609M45.5545 17.799C46.3639 18.3167 46.3639 19.1253 45.5545 19.5849L38.9166 23.7385C38.0025 24.2563 36.8845 24.2563 35.9703 23.7385L29.3906 19.6431C28.5813 19.1253 28.5813 18.3167 29.3906 17.8571L36.0285 13.7617C36.9194 13.2439 38.0257 13.2439 38.9166 13.7617L45.5545 17.799Z" fill="#323648"/>
<path d="M35.9709 23.7422C36.8851 24.2599 38.003 24.2599 38.9172 23.7422L39.0336 23.684V13.4162L35.2256 11.2812L35.342 23.3931L35.9767 23.7422H35.9709Z" fill="#41FFBC"/>
<path d="M25.5836 49.4102L16.0576 55.8151L19.755 58.1246L25.6418 53.971L25.5836 49.416V49.4102Z" fill="#41FFBC"/>
<path d="M19.6906 58.12L15.9932 55.8105V22.7617L19.6906 25.3563V58.12Z" fill="#A9DD2F"/>
<path d="M39.0341 13.3616L35.226 11.2266L16.0576 22.7625L19.755 25.3571L39.0399 13.3557L39.0341 13.3616Z" fill="#A9DD2F"/>
<path d="M54.0453 69.4305L58.3192 66.8359L55.4893 64.9336L51.1572 67.6445L54.0453 69.4305Z" fill="#41FFBC"/>
<path d="M54.0449 69.4235L58.3188 66.8289V50.9648L54.0449 53.7339V69.4235Z" fill="#A9DD2F"/>
<path d="M49.8287 46.1836C49.5609 46.6199 49.4211 47.1144 49.4269 47.6263V51.0295L54.1026 53.7404L58.3765 50.9713L49.8345 46.1836H49.8287Z" fill="#A9DD2F"/>
</svg>
