<svg width="305" height="100" viewBox="0 0 305 100" fill="none" xmlns="http://www.w3.org/2000/svg">
<path d="M75.4859 31.3864L42.7088 52.1119C41.5753 52.894 40.8601 54.148 40.7656 55.5234V92.2211C40.7656 93.3605 41.636 93.8257 42.6413 93.1583L74.8179 72.9048C75.9245 72.1294 76.6329 70.9091 76.7611 69.5606L77.2941 32.4584C77.3616 31.1235 76.4912 30.7189 75.4859 31.3864ZM64.3128 63.4118C64.2386 64.5984 63.6246 65.6839 62.6395 66.3514L55.1436 71.0979C54.2057 71.6979 53.4703 71.3001 53.4703 70.2955L53.5378 61.8071C53.612 60.6205 54.226 59.535 55.211 58.8675L62.7677 54.121C63.7056 53.521 64.441 53.9188 64.441 54.9908L64.3061 63.4185L64.3128 63.4118Z" fill="#0C0F1C"/>
<path d="M3.96715 31.3853L36.751 52.1108C37.8845 52.8929 38.5997 54.1469 38.6942 55.5224V92.22C38.6942 93.3595 37.8238 93.8247 36.8185 93.1572L4.64186 72.8969C3.53534 72.1216 2.8269 70.9013 2.69871 69.5528L2.16569 32.4506C2.03075 31.1157 2.90112 30.7111 3.9739 31.3786M15.1403 63.404C15.2145 64.5906 15.8285 65.6761 16.8135 66.3436L24.3095 71.09C25.2473 71.6901 25.9827 71.2923 25.9827 70.2877L25.9153 61.7993C25.8411 60.6127 25.2271 59.5272 24.242 58.8597L16.6853 54.1132C15.7475 53.5132 15.0121 53.911 15.0121 54.983L15.147 63.404H15.1403Z" fill="#272A38"/>
<path d="M37.8847 6.98524L4.64206 27.0365C3.56928 27.704 3.50181 28.776 4.50712 29.4434L37.5541 50.4993C38.7821 51.1667 40.2732 51.1667 41.5011 50.4993L74.7506 29.4434C75.8233 28.776 75.7559 27.704 74.6831 27.0365L41.6361 7.05266C40.4823 6.39867 39.0655 6.3717 37.8915 6.98524M49.0578 27.1713C49.9957 27.7714 49.9957 28.7085 49.0578 29.2412L41.3662 34.0551C40.3069 34.6551 39.0115 34.6551 37.9522 34.0551L30.328 29.3086C29.3902 28.7085 29.3902 27.7714 30.328 27.2387L38.0197 22.4923C39.052 21.8922 40.3339 21.8922 41.3662 22.4923L49.0578 27.1713Z" fill="#323648"/>
<path d="M37.9515 34.0628C39.0108 34.6629 40.3062 34.6629 41.3655 34.0628L41.5005 33.9954V22.0955L37.0879 19.6211L37.2228 33.6583L37.9583 34.0628H37.9515Z" fill="#41FFBC"/>
<path d="M25.9151 63.8086L14.877 71.2317L19.1613 73.9084L25.9826 69.0945L25.9151 63.8153V63.8086Z" fill="#41FFBC"/>
<path d="M19.0871 73.9008L14.8027 71.2242V32.9219L19.0871 35.9289V73.9008Z" fill="#A9DD2F"/>
<path d="M41.5008 22.0252L37.0882 19.5508L14.877 32.9205L19.1613 35.9275L41.5075 22.0184L41.5008 22.0252Z" fill="#A9DD2F"/>
<path d="M58.8944 87.0086L63.8467 84.0016L60.5676 81.7969L55.5479 84.9387L58.8944 87.0086Z" fill="#41FFBC"/>
<path d="M58.8945 87.0023L63.8469 83.9953V65.6094L58.8945 68.8187V87.0023Z" fill="#A9DD2F"/>
<path d="M54.0097 60.0664C53.6993 60.5721 53.5374 61.1452 53.5441 61.7385V65.6826L58.962 68.8245L63.9144 65.6152L54.0164 60.0664H54.0097Z" fill="#A9DD2F"/>
<path d="M92.4882 69.0259H83.5889L85.0125 59.8633H114.895L113.472 69.0259H104.572L101.246 89.8592H89.2227L92.4815 69.0259H92.4882Z" fill="white"/>
<path d="M117.479 59.8633H129.503L127.87 70.044H137.72L139.353 59.8633H151.376L146.627 89.8592H134.603L136.371 78.5931H126.52L124.753 89.8592H112.723L117.479 59.8633Z" fill="white"/>
<path d="M155.175 59.8622H181.252L179.963 67.9933H165.565L165.025 71.1823H177.804L176.651 78.1065H163.953L163.345 81.7001H178.223L176.934 89.8312H150.506L155.195 59.8555L155.175 59.8622Z" fill="white"/>
<path d="M86.2479 22.3984H98.2711L93.5212 52.3944H81.4912L86.2479 22.3984Z" fill="white"/>
<path d="M101.934 22.3984H115.995L124.281 39.9079H124.348L127.135 22.3984H138.274L133.524 52.3944H119.463L111.178 34.7501H111.11L108.324 52.3944H97.1777L101.934 22.3984Z" fill="white"/>
<path d="M148.185 31.6275H139.286L140.71 22.4648H170.592L169.169 31.6275H160.269L156.943 52.4608H144.92L148.179 31.6275H148.185Z" fill="white"/>
<path d="M168.082 39.2337C168.082 28.0349 177.933 20.5039 189.882 20.5039C200.61 20.5039 207.134 25.6617 207.134 33.8062C207.134 45.005 197.283 52.536 185.334 52.536C174.606 52.536 168.082 47.3108 168.082 39.2337ZM194.908 35.094C194.908 31.7027 192.533 29.6733 188.526 29.6733C184.073 29.5519 180.368 33.0578 180.247 37.5077C180.247 37.5144 180.247 37.5279 180.247 37.5346V37.9392C180.247 41.3305 182.622 43.3599 186.63 43.3599C191.11 43.4543 194.821 39.9012 194.915 35.4176V35.094H194.908Z" fill="white"/>
<path d="M212.013 20.3672H211.331V51.1789H212.013V20.3672Z" fill="white"/>
<path d="M188.552 59.8711H208.915C215.642 59.8711 219.778 62.8579 219.778 67.3279C219.683 70.8271 217.221 73.8207 213.8 74.5893V74.6567C216.532 75.2433 218.449 77.7042 218.354 80.4954C218.354 85.9161 212.855 89.8603 205.521 89.8603H183.863L188.552 59.8778V59.8711ZM203.025 82.8147C205.062 82.8147 206.486 81.7292 206.486 79.9628C206.486 78.6076 205.467 77.7918 203.909 77.7918H197.863L197.114 82.7473L203.018 82.8147H203.025ZM204.381 71.7441C206 71.9463 207.485 70.8002 207.687 69.182C207.694 69.1079 207.701 69.0337 207.707 68.9595C207.707 67.7392 206.756 66.9908 205.197 66.9908H199.631L198.882 71.8115L204.381 71.7441Z" fill="#A9DD2F"/>
<path d="M221.013 77.5881C221.013 66.3894 230.863 58.9258 242.812 58.9258C253.54 58.9258 260.065 64.0835 260.065 72.2281C260.065 83.4269 250.214 90.9579 238.265 90.9579C227.537 90.8905 221.013 85.7327 221.013 77.5881ZM247.92 73.5159C247.92 70.1245 245.545 68.0951 241.537 68.0951C237.084 67.967 233.38 71.473 233.252 75.9161C233.252 75.9296 233.252 75.9498 233.252 75.9633V76.3678C233.252 79.7591 235.627 81.7885 239.635 81.7885C244.115 81.8829 247.825 78.3298 247.92 73.8462V73.5091V73.5159Z" fill="#A9DD2F"/>
<path d="M271.474 74.1915L261.488 59.8711H274.254L279.348 67.2673L286.547 59.8711H299.575L284.705 74.805L294.832 89.8738H281.797L276.703 82.2079L269.511 89.8738H256.671L271.481 74.1915H271.474Z" fill="#A9DD2F"/>
<path d="M226.822 35.3597C228.934 33.8292 230.121 32.4605 230.378 31.2537C230.425 30.9773 230.445 30.7952 230.445 30.7143C230.445 30.0805 230.115 29.7637 229.46 29.7637C228.988 29.7637 228.623 29.939 228.354 30.2828C228.084 30.6334 227.841 31.2806 227.632 32.2313H220.061C220.743 29.5142 222.106 27.4983 224.164 26.1836C226.215 24.8756 228.569 24.2148 231.221 24.2148C233.873 24.2148 235.681 24.6868 236.855 25.6307C238.029 26.5746 238.616 27.7882 238.616 29.2782C238.616 29.5547 238.569 29.9929 238.474 30.5862C238.076 32.474 236.963 34.2472 235.148 35.9193C233.326 37.5846 231.167 39.0274 228.65 40.2343H236.713L235.586 45.5673H217.39L218.408 40.5916C221.903 38.6229 224.71 36.8767 226.822 35.3529V35.3597Z" fill="#A9DD2F"/>
<path d="M243.859 27.2919C245.997 25.3636 248.845 24.4062 252.414 24.4062C255.369 24.4062 257.562 25.0737 258.979 26.4154C260.396 27.7571 261.111 29.6045 261.111 31.971C261.111 32.9823 260.996 34.0139 260.76 35.0656C260.079 38.3221 258.668 40.9178 256.536 42.8529C254.398 44.7879 251.55 45.7587 247.981 45.7587C245.026 45.7587 242.833 45.0913 241.416 43.7496C239.999 42.4079 239.284 40.547 239.284 38.167C239.284 37.331 239.399 36.2995 239.635 35.0724C240.316 31.8159 241.72 29.2269 243.859 27.2986V27.2919ZM253.325 32.9216C253.325 31.4114 252.589 30.6563 251.105 30.6563C249.931 30.6563 249.081 31.0406 248.555 31.8024C248.028 32.5643 247.61 33.6565 247.306 35.0656C247.118 35.9017 247.023 36.6163 247.023 37.2096C247.023 37.9445 247.192 38.5109 247.536 38.9087C247.873 39.3065 248.46 39.502 249.277 39.502C250.424 39.502 251.267 39.1177 251.793 38.3423C252.319 37.567 252.738 36.4747 253.041 35.0656C253.23 34.2701 253.325 33.5554 253.325 32.9216Z" fill="#A9DD2F"/>
<path d="M270.044 35.3597C272.156 33.8292 273.343 32.4605 273.599 31.2537C273.647 30.9773 273.667 30.7952 273.667 30.7143C273.667 30.0805 273.336 29.7637 272.682 29.7637C272.209 29.7637 271.845 29.939 271.575 30.2828C271.305 30.6334 271.062 31.2806 270.853 32.2313H263.283C263.965 29.5142 265.327 27.4983 267.385 26.1836C269.436 24.8756 271.791 24.2148 274.443 24.2148C277.094 24.2148 278.903 24.6868 280.077 25.6307C281.251 26.5746 281.838 27.7882 281.838 29.2782C281.838 29.5547 281.79 29.9929 281.696 30.5862C281.298 32.474 280.184 34.2472 278.37 35.9193C276.548 37.5846 274.389 39.0274 271.872 40.2343H279.935L278.808 45.5673H260.611L261.63 40.5916C265.125 38.6229 267.932 36.8767 270.044 35.3529V35.3597Z" fill="#A9DD2F"/>
<path d="M295.163 29.4013C294.94 29.1249 294.549 28.9833 293.982 28.9833C293.092 28.9833 292.417 29.3676 291.958 30.1295C291.499 30.8914 291.108 32.078 290.777 33.6894C291.337 33.1365 292.053 32.6983 292.909 32.3814C293.766 32.0645 294.697 31.9027 295.709 31.9027C297.632 31.9027 299.144 32.3342 300.25 33.1972C301.35 34.0602 301.903 35.3142 301.903 36.9661C301.903 37.5189 301.836 38.119 301.694 38.7527C301.222 40.9979 300.041 42.7778 298.138 44.0993C296.236 45.4208 293.888 46.0815 291.101 46.0815C288.315 46.0815 286.156 45.4882 284.921 44.2948C283.686 43.1014 283.072 41.4159 283.072 39.2314C283.072 38.0178 283.234 36.6627 283.565 35.1524C284.125 32.4555 284.907 30.2711 285.906 28.599C286.905 26.9337 288.193 25.6999 289.779 24.9043C291.364 24.1087 293.294 23.7109 295.568 23.7109C298.078 23.7109 299.92 24.2638 301.094 25.3628C302.268 26.4617 302.855 27.8709 302.855 29.5766C302.855 30.0756 302.828 30.4531 302.787 30.7093H295.5C295.5 30.116 295.386 29.6778 295.163 29.4013ZM290.953 37.5324C290.481 37.91 290.251 38.4359 290.251 39.1101C290.251 39.5483 290.406 39.8719 290.71 40.0944C291.014 40.3102 291.452 40.4248 292.012 40.4248C292.667 40.4248 293.206 40.2832 293.631 39.9933C294.056 39.7034 294.326 39.2651 294.441 38.6651C294.461 38.5842 294.475 38.4696 294.475 38.3078C294.475 37.8695 294.32 37.5391 294.002 37.3099C293.685 37.0807 293.26 36.9661 292.721 36.9661C292.019 36.9661 291.432 37.1548 290.96 37.5324H290.953Z" fill="#A9DD2F"/>
</svg>
