<svg width="543" height="178" viewBox="0 0 543 178" fill="none" xmlns="http://www.w3.org/2000/svg">
<path d="M134.39 55.8635L76.0356 92.7548C74.0176 94.1469 72.7443 96.3791 72.5762 98.8273V164.149C72.5762 166.177 74.1257 167.005 75.9155 165.817L133.2 129.766C135.17 128.386 136.432 126.214 136.66 123.814L137.609 57.7716C137.729 55.3954 136.179 54.6753 134.39 55.8635ZM114.498 112.869C114.366 114.981 113.273 116.913 111.519 118.101L98.1736 126.55C96.504 127.618 95.1947 126.91 95.1947 125.122L95.3148 110.012C95.4469 107.9 96.54 105.968 98.2938 104.78L111.747 96.3311C113.417 95.263 114.726 95.9711 114.726 97.8792L114.486 112.881L114.498 112.869Z" fill="#0C0F1C"/>
<path d="M7.06288 55.8637L65.4289 92.7551C67.4469 94.1472 68.7202 96.3794 68.8884 98.8276V164.149C68.8884 166.178 67.3388 167.006 65.549 165.818L8.26407 129.754C6.29412 128.374 5.03286 126.202 4.80463 123.802L3.85569 57.7599C3.61545 55.3837 5.16499 54.6636 7.07489 55.8517M26.9547 112.857C27.0868 114.969 28.1799 116.901 29.9336 118.089L43.2789 126.538C44.9486 127.606 46.2579 126.898 46.2579 125.11L46.1377 110.001C46.0056 107.888 44.9125 105.956 43.1588 104.768L29.7054 96.3194C28.0357 95.2513 26.7264 95.9593 26.7264 97.8675L26.9667 112.857H26.9547Z" fill="#272A38"/>
<path d="M67.4471 12.4318L8.26421 48.123C6.35431 49.3111 6.23419 51.2193 8.02397 52.4074L66.8585 89.8867C69.0447 91.0748 71.6993 91.0748 73.8855 89.8867L133.08 52.4074C134.99 51.2193 134.87 49.3111 132.96 48.123L74.1257 12.5518C72.0717 11.3877 69.5492 11.3397 67.4591 12.4318M87.3389 48.363C89.0085 49.4311 89.0085 51.0992 87.3389 52.0473L73.6452 60.6161C71.7594 61.6842 69.4531 61.6842 67.5672 60.6161L53.9937 52.1673C52.324 51.0993 52.324 49.4311 53.9937 48.483L67.6873 40.0343C69.5251 38.9662 71.8074 38.9662 73.6452 40.0343L87.3389 48.363Z" fill="#323648"/>
<path d="M67.5668 60.6282C69.4527 61.6963 71.759 61.6963 73.6449 60.6282L73.8851 60.5082V39.3263L66.0293 34.9219L66.2695 59.9081L67.5788 60.6282H67.5668Z" fill="#41FFBC"/>
<path d="M46.1379 113.578L26.4863 126.791L34.1139 131.556L46.258 122.987L46.1379 113.59V113.578Z" fill="#41FFBC"/>
<path d="M33.9816 131.544L26.354 126.78V58.6016L33.9816 63.954V131.544Z" fill="#A9DD2F"/>
<path d="M73.8855 39.2052L66.0297 34.8008L26.4863 58.5989L34.1139 63.9514L73.8975 39.1932L73.8855 39.2052Z" fill="#A9DD2F"/>
<path d="M104.852 154.874L113.669 149.522L107.831 145.598L98.894 151.19L104.852 154.874Z" fill="#41FFBC"/>
<path d="M104.852 154.861L113.669 149.508V116.781L104.852 122.494V154.861Z" fill="#A9DD2F"/>
<path d="M96.1554 106.918C95.6028 107.818 95.3145 108.838 95.3265 109.894V116.915L104.972 122.507L113.789 116.795L96.1674 106.918H96.1554Z" fill="#A9DD2F"/>
<path d="M164.66 122.868H148.816L151.35 106.559H204.551L202.017 122.868H186.173L180.251 159.951H158.846L164.648 122.868H164.66Z" fill="white"/>
<path d="M209.152 106.559H230.557L227.65 124.68H245.188L248.095 106.559H269.5L261.044 159.951H239.638L242.785 139.898H225.248L222.101 159.951H200.684L209.152 106.559Z" fill="white"/>
<path d="M276.263 106.559H322.689L320.395 121.032H294.761L293.8 126.709H316.551L314.497 139.034H291.89L290.809 145.43H317.296L315.001 159.904H267.951L276.299 106.547L276.263 106.559Z" fill="white"/>
<path d="M153.549 39.8672H174.954L166.497 93.26H145.08L153.549 39.8672Z" fill="white"/>
<path d="M181.476 39.8672H206.509L221.26 71.034H221.38L226.341 39.8672H246.173L237.716 93.26H212.683L197.933 61.8532H197.812L192.852 93.26H173.008L181.476 39.8672Z" fill="white"/>
<path d="M263.818 56.2977H247.975L250.509 39.9883H303.71L301.176 56.2977H285.332L279.41 93.3811H258.005L263.806 56.2977H263.818Z" fill="white"/>
<path d="M299.242 69.8351C299.242 49.9013 316.779 36.4961 338.052 36.4961C357.151 36.4961 368.767 45.6769 368.767 60.1742C368.767 80.108 351.229 93.5132 329.956 93.5132C310.857 93.5132 299.242 84.2124 299.242 69.8351ZM347.001 62.4664C347.001 56.4299 342.773 52.8176 335.638 52.8176C327.71 52.6015 321.115 58.8421 320.899 66.7628C320.899 66.7748 320.899 66.7988 320.899 66.8108V67.5309C320.899 73.5674 325.127 77.1797 332.263 77.1797C340.238 77.3478 346.845 71.0232 347.013 63.0425V62.4664H347.001Z" fill="white"/>
<path d="M377.451 36.2539H376.238V91.0988H377.451V36.2539Z" fill="white"/>
<path d="M335.686 106.57H371.938C383.914 106.57 391.277 111.887 391.277 119.844C391.109 126.072 386.724 131.401 380.634 132.769V132.889C385.499 133.933 388.911 138.313 388.742 143.282C388.742 152.93 378.953 159.951 365.896 159.951H327.337L335.686 106.582V106.57ZM361.451 147.41C365.079 147.41 367.613 145.478 367.613 142.334C367.613 139.921 365.8 138.469 363.025 138.469H352.262L350.929 147.29L361.439 147.41H361.451ZM363.866 127.704C366.749 128.064 369.391 126.024 369.752 123.144C369.764 123.012 369.776 122.88 369.788 122.748C369.788 120.576 368.094 119.243 365.319 119.243H355.409L354.076 127.824L363.866 127.704Z" fill="#A9DD2F"/>
<path d="M393.475 138.11C393.475 118.176 411.013 104.891 432.286 104.891C451.385 104.891 463 114.071 463 128.569C463 148.503 445.463 161.908 424.19 161.908C405.091 161.788 393.475 152.607 393.475 138.11ZM441.379 130.861C441.379 124.824 437.151 121.212 430.015 121.212C422.088 120.984 415.493 127.225 415.265 135.133C415.265 135.157 415.265 135.193 415.265 135.217V135.937C415.265 141.974 419.493 145.586 426.628 145.586C434.604 145.754 441.211 139.43 441.379 131.449V130.849V130.861Z" fill="#A9DD2F"/>
<path d="M483.313 132.061L465.535 106.57H488.262L497.331 119.735L510.147 106.57H533.342L506.868 133.153L524.898 159.975H501.691L492.622 146.33L479.817 159.975H456.958L483.325 132.061H483.313Z" fill="#A9DD2F"/>
<path d="M403.818 62.9433C407.577 60.219 409.691 57.7828 410.148 55.6346C410.232 55.1426 410.268 54.8185 410.268 54.6745C410.268 53.5464 409.679 52.9824 408.514 52.9824C407.673 52.9824 407.025 53.2944 406.544 53.9064C406.064 54.5305 405.631 55.6826 405.259 57.3748H391.782C392.995 52.5383 395.421 48.95 399.085 46.6098C402.737 44.2816 406.929 43.1055 411.649 43.1055C416.37 43.1055 419.589 43.9455 421.679 45.6257C423.769 47.3058 424.814 49.466 424.814 52.1183C424.814 52.6103 424.73 53.3904 424.562 54.4465C423.854 57.8068 421.872 60.9631 418.64 63.9393C415.397 66.9036 411.553 69.4718 407.073 71.62H421.427L419.421 81.1129H387.025L388.839 72.2561C395.061 68.7518 400.058 65.6435 403.818 62.9312V62.9433Z" fill="#A9DD2F"/>
<path d="M434.148 48.5779C437.955 45.1456 443.024 43.4414 449.379 43.4414C454.64 43.4414 458.544 44.6295 461.066 47.0177C463.589 49.4059 464.862 52.6942 464.862 56.9066C464.862 58.7068 464.658 60.5429 464.237 62.4151C463.024 68.2116 460.514 72.8321 456.718 76.2764C452.91 79.7207 447.841 81.4488 441.487 81.4488C436.226 81.4488 432.322 80.2607 429.799 77.8725C427.277 75.4843 426.003 72.172 426.003 67.9356C426.003 66.4475 426.208 64.6113 426.628 62.4271C427.841 56.6306 430.34 52.0222 434.148 48.5899V48.5779ZM451 58.5988C451 55.9105 449.691 54.5664 447.048 54.5664C444.958 54.5664 443.445 55.2505 442.508 56.6066C441.571 57.9627 440.826 59.9069 440.286 62.4151C439.949 63.9032 439.781 65.1754 439.781 66.2315C439.781 67.5396 440.081 68.5477 440.694 69.2557C441.295 69.9638 442.34 70.3118 443.793 70.3118C445.835 70.3118 447.337 69.6278 448.274 68.2476C449.211 66.8675 449.955 64.9233 450.496 62.4151C450.832 60.999 451 59.7269 451 58.5988Z" fill="#A9DD2F"/>
<path d="M480.766 62.9433C484.526 60.219 486.64 57.7828 487.097 55.6346C487.181 55.1426 487.217 54.8185 487.217 54.6745C487.217 53.5464 486.628 52.9824 485.463 52.9824C484.622 52.9824 483.974 53.2944 483.493 53.9064C483.013 54.5305 482.58 55.6826 482.208 57.3748H468.73C469.944 52.5383 472.37 48.95 476.034 46.6098C479.685 44.2816 483.877 43.1055 488.598 43.1055C493.319 43.1055 496.538 43.9455 498.628 45.6257C500.718 47.3058 501.763 49.466 501.763 52.1183C501.763 52.6103 501.679 53.3904 501.511 54.4465C500.802 57.8068 498.82 60.9631 495.589 63.9393C492.346 66.9036 488.502 69.4718 484.022 71.62H498.376L496.37 81.1129H463.974L465.787 72.2561C472.01 68.7518 477.007 65.6435 480.766 62.9312V62.9433Z" fill="#A9DD2F"/>
<path d="M525.486 52.3359C525.09 51.8439 524.393 51.5919 523.384 51.5919C521.799 51.5919 520.597 52.2759 519.781 53.6321C518.964 54.9882 518.267 57.1004 517.679 59.9686C518.676 58.9845 519.949 58.2045 521.474 57.6404C523 57.0764 524.658 56.7883 526.459 56.7883C529.883 56.7883 532.573 57.5564 534.543 59.0926C536.501 60.6287 537.486 62.8609 537.486 65.8012C537.486 66.7852 537.366 67.8533 537.114 68.9814C536.273 72.9778 534.171 76.1461 530.784 78.4983C527.396 80.8505 523.216 82.0266 518.255 82.0266C513.294 82.0266 509.45 80.9705 507.252 78.8463C505.054 76.7221 503.961 73.7219 503.961 69.8335C503.961 67.6733 504.249 65.2611 504.838 62.5729C505.835 57.7724 507.228 53.8841 509.006 50.9078C510.784 47.9435 513.078 45.7473 515.901 44.3312C518.724 42.9151 522.159 42.207 526.207 42.207C530.676 42.207 533.955 43.1911 536.045 45.1473C538.135 47.1035 539.18 49.6117 539.18 52.648C539.18 53.536 539.132 54.2081 539.06 54.6642H526.087C526.087 53.6081 525.883 52.828 525.486 52.3359ZM517.991 66.8092C517.15 67.4813 516.742 68.4174 516.742 69.6175C516.742 70.3976 517.018 70.9736 517.558 71.3697C518.099 71.7537 518.88 71.9577 519.877 71.9577C521.042 71.9577 522.003 71.7057 522.76 71.1896C523.516 70.6736 523.997 69.8935 524.201 68.8254C524.237 68.6814 524.261 68.4774 524.261 68.1894C524.261 67.4093 523.985 66.8212 523.42 66.4132C522.856 66.0052 522.099 65.8012 521.138 65.8012C519.889 65.8012 518.844 66.1372 518.003 66.8092H517.991Z" fill="#A9DD2F"/>
</svg>
