<svg width="500" height="500" viewBox="0 0 500 500" fill="none" xmlns="http://www.w3.org/2000/svg">
<path d="M455.746 142.896L267.167 262.115C260.645 266.614 256.531 273.827 255.987 281.739V492.834C255.987 499.388 260.995 502.064 266.779 498.225L451.903 381.721C458.269 377.261 462.345 370.241 463.082 362.485L466.149 149.063C466.537 141.384 461.529 139.057 455.746 142.896ZM391.463 327.115C391.036 333.941 387.503 340.185 381.836 344.024L338.709 371.327C333.313 374.779 329.082 372.491 329.082 366.712L329.47 317.885C329.897 311.059 333.43 304.815 339.097 300.975L382.573 273.672C387.969 270.221 392.2 272.509 392.2 278.675L391.424 327.154L391.463 327.115Z" fill="#0C0F1C"/>
<path d="M44.2741 142.9L232.892 262.119C239.413 266.617 243.528 273.831 244.071 281.743V492.838C244.071 499.392 239.064 502.068 233.28 498.228L48.156 381.686C41.7898 377.226 37.7139 370.206 36.9763 362.45L33.9097 149.028C33.1333 141.349 38.1409 139.022 44.313 142.861M108.557 327.08C108.984 333.906 112.516 340.15 118.184 343.989L161.311 371.292C166.707 374.744 170.938 372.456 170.938 366.677L170.55 317.849C170.123 311.024 166.59 304.78 160.923 300.94L117.446 273.637C112.051 270.185 107.819 272.474 107.819 278.64L108.596 327.08H108.557Z" fill="#272A38"/>
<path d="M239.413 2.54407L48.1557 117.884C41.9837 121.724 41.5955 127.89 47.3794 131.73L237.511 252.848C244.576 256.688 253.154 256.688 260.219 252.848L451.515 131.73C457.687 127.89 457.299 121.724 451.127 117.884L260.996 2.9319C254.358 -0.83004 246.206 -0.985173 239.452 2.54407M303.696 118.66C309.091 122.112 309.091 127.502 303.696 130.566L259.443 158.257C253.349 161.709 245.895 161.709 239.801 158.257L195.937 130.954C190.541 127.502 190.541 122.112 195.937 119.048L240.189 91.7446C246.128 88.2929 253.504 88.2929 259.443 91.7446L303.696 118.66Z" fill="#323648"/>
<path d="M239.801 158.292C245.895 161.743 253.348 161.743 259.443 158.292L260.219 157.904V89.4521L234.832 75.2188L235.608 155.965L239.84 158.292H239.801Z" fill="#41FFBC"/>
<path d="M170.55 329.414L107.044 372.114L131.693 387.511L170.939 359.82L170.55 329.453V329.414Z" fill="#41FFBC"/>
<path d="M131.267 387.472L106.617 372.075V151.75L131.267 169.047V387.472Z" fill="#A9DD2F"/>
<path d="M260.22 89.0731L234.833 74.8398L107.044 151.746L131.693 169.043L260.259 89.0344L260.22 89.0731Z" fill="#A9DD2F"/>
<path d="M360.294 462.866L388.786 445.569L369.921 432.887L341.04 450.96L360.294 462.866Z" fill="#41FFBC"/>
<path d="M360.293 462.827L388.785 445.53V339.77L360.293 358.23V462.827Z" fill="#A9DD2F"/>
<path d="M332.187 307.887C330.402 310.795 329.47 314.092 329.509 317.505V340.193L360.68 358.266L389.173 339.805L332.226 307.887H332.187Z" fill="#A9DD2F"/>
</svg>
