<svg width="223" height="250" viewBox="0 0 223 250" fill="none" xmlns="http://www.w3.org/2000/svg">
<g clip-path="url(#clip0_913_2823)">
<path d="M41.9919 131.373C41.9919 117.886 46.0869 105.351 53.1068 94.9658L0 64.2188L0.194999 184.099L103.66 244.33L103.697 196.335C69.3344 194.668 41.9858 166.223 41.9858 131.367L41.9919 131.373Z" fill="white"/>
<path d="M106.89 66.3235C127.426 66.3235 145.725 75.8847 157.62 90.8003L211.349 59.693L107.572 0L3.83887 59.7297L56.6045 90.2508C68.5055 75.6466 86.61 66.3235 106.89 66.3235Z" fill="white"/>
<path d="M76.4824 132.439L98.2371 154.235C99.1877 155.188 100.723 155.188 101.674 154.235L137.383 118.457C138.334 117.505 138.334 115.966 137.383 115.014L130.881 108.499C129.931 107.547 128.395 107.547 127.444 108.499L101.467 134.521C100.516 135.473 98.9805 135.473 98.0299 134.521L86.3908 122.86C85.4585 121.925 83.9594 121.907 83.0027 122.811L76.5251 128.947C75.5318 129.887 75.5074 131.468 76.4763 132.439H76.4824Z" fill="white"/>
<path d="M161.807 166.033L212.616 181.303C212.951 181.4 213.268 181.529 213.579 181.663L213.774 65.4883L161.276 95.8751C167.919 106.083 171.782 118.27 171.782 131.36C171.782 144.45 168.12 155.983 161.807 166.021V166.033Z" fill="white"/>
<path d="M138.961 187.92C130.369 192.829 120.552 195.827 110.077 196.333L110.114 245.598L149.388 222.733L138.961 187.914V187.92Z" fill="white"/>
<path d="M141.539 164.933C141.869 164.933 142.198 164.981 142.521 165.079L211.288 185.746C212.562 186.131 213.506 187.218 213.701 188.536C213.896 189.855 213.317 191.174 212.208 191.913L195.067 203.36L212.732 221.06C214.073 222.409 214.073 224.583 212.732 225.932L198.979 239.712C198.309 240.384 197.425 240.72 196.548 240.72C195.67 240.72 194.786 240.384 194.116 239.712L176.45 222.013L165.025 239.187C164.379 240.158 163.3 240.726 162.161 240.726C161.99 240.726 161.825 240.714 161.649 240.689C160.332 240.494 159.248 239.547 158.864 238.271L138.237 169.371C137.871 168.156 138.206 166.844 139.102 165.946C139.76 165.293 140.644 164.939 141.539 164.939M141.539 155.652C138.2 155.652 134.928 157.008 132.563 159.377C129.248 162.698 128.03 167.546 129.37 172.033L150.004 240.933C151.405 245.628 155.439 249.133 160.284 249.859H160.308L160.332 249.866C160.936 249.951 161.557 250 162.167 250C166.42 250 170.375 247.881 172.733 244.334L177.895 236.58L187.571 246.276C189.966 248.681 193.159 250 196.548 250C199.936 250 203.129 248.675 205.53 246.276L219.283 232.496C221.684 230.096 223 226.897 223 223.496C223 220.095 221.678 216.902 219.283 214.497L209.606 204.801L217.345 199.63C221.422 196.907 223.585 192.016 222.86 187.163C222.129 182.303 218.631 178.261 213.945 176.857L145.177 156.19C144.013 155.836 142.783 155.652 141.533 155.652H141.539Z" fill="white"/>
<path d="M141.539 164.933C141.869 164.933 142.198 164.981 142.521 165.079L211.288 185.746C212.562 186.131 213.506 187.218 213.701 188.536C213.896 189.855 213.317 191.174 212.208 191.913L195.067 203.36L212.732 221.06C214.073 222.409 214.073 224.583 212.732 225.932L198.979 239.712C198.309 240.384 197.425 240.72 196.548 240.72C195.67 240.72 194.786 240.384 194.116 239.712L176.45 222.013L165.025 239.187C164.379 240.158 163.3 240.726 162.161 240.726C161.99 240.726 161.825 240.714 161.649 240.689C160.332 240.494 159.248 239.547 158.864 238.271L138.237 169.371C137.871 168.156 138.206 166.844 139.102 165.946C139.76 165.293 140.644 164.939 141.539 164.939M141.539 155.652C138.2 155.652 134.928 157.008 132.563 159.377C129.248 162.698 128.03 167.546 129.37 172.033L150.004 240.933C151.405 245.628 155.439 249.133 160.284 249.859H160.308L160.332 249.866C160.936 249.951 161.557 250 162.167 250C166.42 250 170.375 247.881 172.733 244.334L177.895 236.58L187.571 246.276C189.966 248.681 193.159 250 196.548 250C199.936 250 203.129 248.675 205.53 246.276L219.283 232.496C221.684 230.096 223 226.897 223 223.496C223 220.095 221.678 216.902 219.283 214.497L209.606 204.801L217.345 199.63C221.422 196.907 223.585 192.016 222.86 187.163C222.129 182.303 218.631 178.261 213.945 176.857L145.177 156.19C144.013 155.836 142.783 155.652 141.533 155.652H141.539Z" fill="white"/>
<path d="M130.181 174.736C123.246 178.491 115.312 180.628 106.89 180.628C79.7915 180.628 57.7383 158.526 57.7383 131.363C57.7383 104.2 79.7854 82.0984 106.89 82.0984C133.995 82.0984 156.042 104.2 156.042 131.363C156.042 140.851 153.349 149.71 148.693 157.238L157.828 159.986C162.581 151.517 165.299 141.755 165.299 131.363C165.299 99.0838 139.096 72.8242 106.884 72.8242C74.6728 72.8242 48.4697 99.0838 48.4697 131.363C48.4697 163.643 74.6728 189.902 106.884 189.902C116.22 189.902 125.05 187.692 132.88 183.773L130.174 174.73L130.181 174.736Z" fill="white"/>
</g>
<defs>
<clipPath id="clip0_913_2823">
<rect width="223" height="250" fill="white"/>
</clipPath>
</defs>
</svg>
