<svg width="446" height="300" viewBox="0 0 446 300" fill="none" xmlns="http://www.w3.org/2000/svg">
<path d="M0 259C0 250.163 7.16344 243 16 243H430C438.837 243 446 250.163 446 259V284C446 292.837 438.837 300 430 300H16C7.16344 300 0 292.837 0 284V259Z" fill="white"/>
<g clip-path="url(#clip0_913_2663)">
<path d="M19.4569 261.419C21.0965 258.45 23.3811 256.141 26.3107 254.482C29.2404 252.827 32.5639 252 36.2813 252C40.8308 252 44.7304 253.201 47.9702 255.604C51.21 258.007 53.3764 261.286 54.4695 265.437H44.2035C43.4404 263.837 42.3571 262.616 40.9539 261.779C39.5506 260.941 37.9603 260.523 36.173 260.523C33.2975 260.523 30.9637 261.527 29.1813 263.526C27.3989 265.53 26.5028 268.204 26.5028 271.557C26.5028 274.91 27.394 277.584 29.1813 279.588C30.9637 281.592 33.2975 282.591 36.173 282.591C37.9553 282.591 39.5506 282.173 40.9539 281.336C42.3571 280.498 43.4404 279.277 44.2035 277.677H54.4695C53.3764 281.828 51.21 285.097 47.9702 287.48C44.7304 289.863 40.8357 291.06 36.2813 291.06C32.5688 291.06 29.2453 290.233 26.3157 288.573C23.3861 286.919 21.1015 284.615 19.4619 281.665C17.8173 278.706 17 275.338 17 271.552C17 267.766 17.8173 264.388 19.4569 261.419Z" fill="#343433"/>
<path d="M86.8525 274.417C88.1967 276.145 88.8712 278.125 88.8712 280.345C88.8712 283.55 87.7536 286.091 85.5133 287.962C83.273 289.838 80.1513 290.774 76.1484 290.774H58.29V252.438H75.5477C79.4423 252.438 82.4901 253.329 84.6959 255.111C86.8968 256.893 87.9997 259.316 87.9997 262.374C87.9997 264.634 87.4089 266.505 86.2272 268.001C85.0455 269.493 83.4699 270.532 81.5054 271.113C83.726 271.586 85.5084 272.689 86.8575 274.417H86.8525ZM67.6303 267.947H73.7456C75.2769 267.947 76.4487 267.612 77.266 266.938C78.0834 266.263 78.497 265.274 78.497 263.959C78.497 262.644 78.0883 261.645 77.266 260.956C76.4487 260.266 75.2719 259.917 73.7456 259.917H67.6303V267.947ZM78.1425 282.177C78.9992 281.468 79.4276 280.439 79.4276 279.09C79.4276 277.74 78.9795 276.687 78.0883 275.924C77.1971 275.16 75.9662 274.776 74.4004 274.776H67.6303V283.24H74.5137C76.0794 283.24 77.2907 282.886 78.1474 282.177H78.1425Z" fill="#343433"/>
<path d="M120.058 270.867C119.039 272.708 117.473 274.19 115.361 275.318C113.249 276.446 110.629 277.012 107.498 277.012H101.707V290.774H92.3672V252.438H107.498C110.555 252.438 113.14 252.964 115.253 254.023C117.365 255.082 118.945 256.534 120.004 258.39C121.058 260.247 121.589 262.378 121.589 264.781C121.589 267.002 121.077 269.03 120.058 270.872V270.867ZM110.777 268.331C111.648 267.494 112.087 266.313 112.087 264.781C112.087 263.25 111.648 262.068 110.777 261.231C109.905 260.394 108.571 259.976 106.789 259.976H101.707V269.587H106.789C108.571 269.587 109.901 269.168 110.777 268.331Z" fill="#343433"/>
<path d="M133.879 283.565H146.115V290.774H124.544V252.438H133.884V283.57L133.879 283.565Z" fill="#343433"/>
<path d="M172.545 284.003H158.237L155.943 290.774H146.164L160.039 252.438H170.852L184.722 290.778H174.835L172.54 284.008L172.545 284.003ZM170.143 276.795L165.391 262.758L160.694 276.795H170.143Z" fill="#343433"/>
<path d="M219.897 252.438L206.627 278.105V290.774H197.287V278.105L184.013 252.438H194.609L202.038 268.494L209.409 252.438H219.897Z" fill="#343433"/>
<path d="M274.511 252.438L264.516 290.778H253.211L247.096 265.544L240.759 290.778H229.454L219.729 252.438H229.725L235.239 280.345L242.068 252.438H252.334L258.888 280.345L264.461 252.438H274.511Z" fill="#343433"/>
<path d="M296.849 290.778L288.877 276.308H286.637V290.778H277.297V252.438H292.969C295.992 252.438 298.567 252.964 300.699 254.023C302.831 255.082 304.422 256.524 305.48 258.366C306.534 260.202 307.066 262.25 307.066 264.51C307.066 267.061 306.347 269.336 304.909 271.34C303.471 273.344 301.349 274.762 298.548 275.599L307.396 290.783H296.854L296.849 290.778ZM286.632 269.695H292.423C294.136 269.695 295.416 269.277 296.273 268.44C297.13 267.603 297.558 266.421 297.558 264.89C297.558 263.358 297.13 262.285 296.273 261.448C295.416 260.611 294.131 260.192 292.423 260.192H286.632V269.695Z" fill="#343433"/>
<path d="M320.331 252.438V290.778H310.99V252.438H320.331Z" fill="#343433"/>
<path d="M350.646 264.56C349.951 263.284 348.962 262.309 347.667 261.64C346.372 260.965 344.855 260.63 343.107 260.63C340.084 260.63 337.662 261.625 335.845 263.604C334.023 265.589 333.112 268.238 333.112 271.551C333.112 275.082 334.067 277.844 335.978 279.823C337.888 281.807 340.517 282.797 343.871 282.797C346.165 282.797 348.105 282.216 349.685 281.049C351.271 279.882 352.423 278.208 353.152 276.022H341.3V269.139H361.616V277.824C360.921 280.153 359.75 282.319 358.095 284.323C356.436 286.327 354.333 287.947 351.788 289.183C349.237 290.419 346.362 291.039 343.157 291.039C339.37 291.039 335.993 290.212 333.024 288.553C330.055 286.898 327.745 284.594 326.086 281.645C324.427 278.696 323.6 275.328 323.6 271.541C323.6 267.755 324.427 264.377 326.086 261.408C327.74 258.439 330.045 256.13 332.994 254.471C335.943 252.816 339.311 251.984 343.098 251.984C347.686 251.984 351.552 253.097 354.703 255.318C357.854 257.538 359.937 260.616 360.956 264.55H350.636L350.646 264.56Z" fill="#343433"/>
<path d="M398.106 252.438V290.778H388.766V274.993H374.236V290.778H364.896V252.438H374.236V267.455H388.766V252.438H398.106Z" fill="#343433"/>
<path d="M430.493 252.438V259.922H420.336V290.778H410.996V259.917H400.838V252.438H430.493Z" fill="#343433"/>
</g>
<path d="M322.231 2.47656H124.334C113.366 2.47656 104.476 11.3804 104.476 22.3637V220.551C104.476 231.535 113.366 240.439 124.334 240.439H322.231C333.199 240.439 342.089 231.535 342.089 220.551V22.3637C342.089 11.3804 333.199 2.47656 322.231 2.47656Z" fill="#343433"/>
<path d="M322.228 242.92H124.333C112.02 242.92 102 232.885 102 220.554V22.3661C102 10.0345 112.017 0 124.333 0H322.231C334.545 0 344.564 10.0345 344.564 22.3661V220.554C344.564 232.885 334.545 242.92 322.231 242.92H322.228ZM124.333 4.95775C114.749 4.95775 106.95 12.7679 106.95 22.3661V220.554C106.95 230.152 114.749 237.962 124.333 237.962H322.231C331.815 237.962 339.614 230.152 339.614 220.554V22.3661C339.614 12.7679 331.815 4.95775 322.231 4.95775H124.333Z" fill="white"/>
<path d="M332.158 46.6844V23.4855C332.158 17.404 327.191 12.4297 321.119 12.4297H125.442C119.369 12.4297 114.402 17.404 114.402 23.4855V46.6844H332.158Z" fill="white"/>
<path d="M272.954 25.2617C269.809 25.2617 267.261 27.8133 267.261 30.9631C267.261 34.113 269.809 36.6645 272.954 36.6645C276.099 36.6645 278.647 34.113 278.647 30.9631C278.647 27.8133 276.099 25.2617 272.954 25.2617Z" fill="#33CFFF" stroke="white" stroke-width="0.14" stroke-miterlimit="10"/>
<path d="M293.957 25.2617C290.812 25.2617 288.264 27.8133 288.264 30.9631C288.264 34.113 290.812 36.6645 293.957 36.6645C297.102 36.6645 299.65 34.113 299.65 30.9631C299.65 27.8133 297.102 25.2617 293.957 25.2617Z" fill="#33CFFF" stroke="white" stroke-width="0.14" stroke-miterlimit="10"/>
<path d="M314.964 25.2617C311.818 25.2617 309.271 27.8133 309.271 30.9631C309.271 34.113 311.818 36.6645 314.964 36.6645C318.109 36.6645 320.657 34.113 320.657 30.9631C320.657 27.8133 318.109 25.2617 314.964 25.2617Z" fill="#33CFFF" stroke="white" stroke-width="0.14" stroke-miterlimit="10"/>
<path d="M221.178 25.1875H131.67C128.482 25.1875 125.904 27.7721 125.904 30.9616C125.904 34.1511 128.485 36.7358 131.67 36.7358H221.178C224.366 36.7358 226.944 34.1511 226.944 30.9616C226.944 27.7721 224.363 25.1875 221.178 25.1875Z" fill="#0D87C5"/>
<path d="M276.286 173.142L223.286 203.982L223.24 142.516L276.389 111.762L276.286 173.142Z" fill="#0D87C5"/>
<path d="M221.768 206.627L221.719 141.638L277.91 109.125L277.801 174.019L221.765 206.624L221.768 206.627ZM224.758 143.393L224.801 201.342L274.768 172.267L274.864 114.4L224.758 143.393Z" fill="white"/>
<path d="M163.756 172.454L216.759 203.295L216.802 141.825L163.653 111.074L163.756 172.454Z" fill="#0D87C5"/>
<path d="M218.274 205.937L162.237 173.331L162.132 108.438L218.323 140.95L218.277 205.937H218.274ZM165.274 171.579L215.241 200.655L215.284 142.705L165.178 113.713L165.274 171.579Z" fill="white"/>
<path d="M220.393 75.4258L273.551 105.992L220.409 136.747L167.251 106.008L220.393 75.4258Z" fill="#33CFFF"/>
<path d="M220.409 138.503L164.208 106.006L220.39 73.6719L276.591 105.986L220.406 138.503H220.409ZM170.294 106.013L220.409 134.989L270.508 105.996L220.393 77.182L170.294 106.016V106.013Z" fill="white"/>
<path d="M220.019 173.968C236.107 173.968 249.148 160.903 249.148 144.787C249.148 128.67 236.107 115.605 220.019 115.605C203.932 115.605 190.891 128.67 190.891 144.787C190.891 160.903 203.932 173.968 220.019 173.968Z" fill="#343433"/>
<path d="M220.02 176.478C202.578 176.478 188.383 162.262 188.383 144.788C188.383 127.313 202.574 113.098 220.02 113.098C237.465 113.098 251.657 127.313 251.657 144.788C251.657 162.262 237.465 176.478 220.02 176.478ZM220.02 118.118C205.343 118.118 193.399 130.083 193.399 144.788C193.399 159.492 205.34 171.457 220.02 171.457C234.7 171.457 246.64 159.492 246.64 144.788C246.64 130.083 234.7 118.118 220.02 118.118Z" fill="white"/>
<path d="M203.555 145.366L215.337 157.165C215.852 157.681 216.683 157.681 217.198 157.165L236.538 137.797C237.053 137.281 237.053 136.448 236.538 135.933L233.017 132.406C232.502 131.891 231.67 131.891 231.155 132.406L217.086 146.493C216.571 147.008 215.74 147.008 215.225 146.493L208.921 140.18C208.416 139.674 207.604 139.664 207.086 140.154L203.578 143.475C203.04 143.984 203.027 144.84 203.551 145.366H203.555Z" fill="white"/>
<path d="M249.957 206.496C249.743 206.496 249.528 206.479 249.32 206.449C247.644 206.198 246.258 204.992 245.772 203.376L234.601 166.077C234.139 164.533 234.558 162.864 235.696 161.724C236.512 160.907 237.64 160.441 238.789 160.441C239.218 160.441 239.64 160.504 240.05 160.63L277.287 171.818C278.898 172.3 280.102 173.692 280.353 175.361C280.604 177.033 279.858 178.716 278.456 179.654L271.72 184.153L279.122 191.569C279.947 192.396 280.403 193.496 280.403 194.663C280.403 195.83 279.947 196.93 279.122 197.757L271.673 205.216C270.848 206.043 269.749 206.499 268.584 206.499C267.419 206.499 266.32 206.043 265.495 205.216L258.092 197.803L253.601 204.549C252.789 205.768 251.429 206.499 249.964 206.499L249.957 206.496Z" fill="#343433"/>
<path d="M238.789 162.957C238.967 162.957 239.145 162.984 239.32 163.037L276.564 174.225C277.254 174.433 277.766 175.021 277.871 175.735C277.977 176.449 277.663 177.163 277.063 177.563L267.779 183.76L277.347 193.342C278.073 194.072 278.073 195.249 277.347 195.979L269.898 203.439C269.535 203.803 269.056 203.984 268.581 203.984C268.106 203.984 267.627 203.803 267.264 203.439L257.696 193.857L251.508 203.155C251.159 203.68 250.574 203.988 249.957 203.988C249.865 203.988 249.776 203.981 249.68 203.968C248.967 203.862 248.38 203.35 248.172 202.659L237 165.36C236.802 164.703 236.984 163.992 237.469 163.506C237.825 163.152 238.304 162.961 238.789 162.961M238.789 157.934C236.98 157.934 235.208 158.667 233.927 159.95C232.132 161.748 231.472 164.372 232.198 166.801L243.373 204.1C244.132 206.642 246.317 208.539 248.941 208.932H248.954L248.967 208.936C249.294 208.982 249.63 209.008 249.96 209.008C252.264 209.008 254.406 207.861 255.683 205.941L258.479 201.744L263.72 206.992C265.017 208.294 266.746 209.008 268.581 209.008C270.416 209.008 272.145 208.291 273.446 206.992L280.895 199.532C282.195 198.233 282.908 196.502 282.908 194.661C282.908 192.82 282.192 191.091 280.895 189.789L275.654 184.54L279.845 181.741C282.053 180.267 283.225 177.619 282.832 174.992C282.436 172.361 280.541 170.173 278.003 169.412L240.759 158.224C240.129 158.033 239.462 157.934 238.786 157.934H238.789Z" fill="white"/>
<defs>
<clipPath id="clip0_913_2663">
<rect width="413.494" height="39.05" fill="white" transform="translate(17 252)"/>
</clipPath>
</defs>
</svg>
