<svg width="447" height="500" viewBox="0 0 447 500" fill="none" xmlns="http://www.w3.org/2000/svg">
<g clip-path="url(#clip0_913_2632)">
<path d="M422.497 367.499L226.34 481.439L226.169 254.353L422.876 140.73L422.497 367.499Z" fill="#33CFFF"/>
<path d="M220.721 491.21L220.538 251.119L428.507 131L428.104 370.749L220.709 491.21H220.721ZM231.788 257.59L231.947 471.684L416.879 364.265L417.233 150.476L231.788 257.59Z" fill="white"/>
<path d="M6.01 364.96L202.179 478.9L202.338 251.802L5.64355 138.191L6.01 364.96Z" fill="#33CFFF"/>
<path d="M207.798 488.655L0.390873 368.194L0 128.445L207.969 248.564L207.798 488.667V488.655ZM11.6285 361.722L196.56 469.142L196.719 255.048L11.2742 147.934L11.6285 361.722Z" fill="white"/>
<path d="M215.627 6.48438L412.383 119.411L215.688 233.033L18.957 119.472L215.627 6.48438Z" fill="#33CFFF"/>
<path d="M215.701 239.517L7.69531 119.459L215.628 0L423.633 119.386L215.689 239.517H215.701ZM30.2194 119.484L215.701 226.537L401.121 119.423L215.628 12.968L30.2194 119.484Z" fill="white"/>
<path d="M214.26 370.554C273.8 370.554 322.068 322.286 322.068 262.744C322.068 203.202 273.8 154.934 214.26 154.934C154.719 154.934 106.452 203.202 106.452 262.744C106.452 322.286 154.719 370.554 214.26 370.554Z" fill="#343433"/>
<path d="M214.26 379.82C149.705 379.82 97.1689 327.301 97.1689 262.742C97.1689 198.183 149.693 145.664 214.26 145.664C278.827 145.664 331.351 198.183 331.351 262.742C331.351 327.301 278.827 379.82 214.26 379.82ZM214.26 164.212C159.941 164.212 115.735 208.416 115.735 262.742C115.735 317.069 159.928 361.272 214.26 361.272C268.591 361.272 312.784 317.069 312.784 262.742C312.784 208.416 268.591 164.212 214.26 164.212Z" fill="white"/>
<path d="M153.308 264.878L196.915 308.471C198.82 310.376 201.898 310.376 203.804 308.471L275.382 236.915C277.288 235.01 277.288 231.933 275.382 230.028L262.349 216.999C260.444 215.094 257.366 215.094 255.46 216.999L203.389 269.042C201.483 270.947 198.405 270.947 196.499 269.042L173.169 245.719C171.3 243.851 168.295 243.814 166.378 245.621L153.393 257.893C151.402 259.774 151.354 262.936 153.296 264.878H153.308Z" fill="white"/>
<path d="M325.06 490.721C324.266 490.721 323.472 490.66 322.703 490.55C316.498 489.622 311.367 485.165 309.572 479.194L268.225 341.394C266.515 335.691 268.066 329.525 272.28 325.312C275.297 322.296 279.475 320.574 283.725 320.574C285.313 320.574 286.877 320.806 288.391 321.27L426.211 362.604C432.172 364.387 436.63 369.528 437.558 375.694C438.487 381.873 435.726 388.088 430.535 391.556L405.604 408.175L433.002 435.577C436.056 438.629 437.741 442.696 437.741 447.006C437.741 451.316 436.056 455.383 433.002 458.435L405.433 485.995C402.38 489.048 398.312 490.733 394 490.733C389.689 490.733 385.621 489.048 382.567 485.995L355.17 458.606L338.545 483.529C335.54 488.035 330.508 490.733 325.085 490.733L325.06 490.721Z" fill="#343433"/>
<path d="M283.713 329.865C284.373 329.865 285.032 329.963 285.68 330.158L423.523 371.492C426.076 372.262 427.97 374.435 428.36 377.073C428.751 379.71 427.591 382.348 425.368 383.825L391.008 406.721L426.418 442.12C429.106 444.819 429.106 449.166 426.418 451.864L398.85 479.424C397.506 480.768 395.735 481.439 393.976 481.439C392.217 481.439 390.446 480.768 389.102 479.424L353.691 444.025L330.789 478.374C329.494 480.316 327.332 481.451 325.048 481.451C324.706 481.451 324.376 481.427 324.022 481.378C321.383 480.987 319.209 479.095 318.44 476.543L277.093 338.743C276.36 336.313 277.032 333.687 278.827 331.892C280.146 330.586 281.917 329.877 283.713 329.877M283.713 311.305C277.019 311.305 270.46 314.016 265.721 318.753C259.076 325.396 256.633 335.092 259.32 344.067L300.679 481.867C303.489 491.257 311.575 498.266 321.286 499.719H321.335L321.383 499.731C322.593 499.902 323.839 500 325.06 500C333.586 500 341.513 495.763 346.24 488.668L356.586 473.16L375.983 492.551C380.784 497.362 387.184 500 393.976 500C400.767 500 407.168 497.35 411.98 492.551L439.549 464.991C444.362 460.192 447 453.794 447 446.992C447 440.191 444.35 433.805 439.549 428.993L420.152 409.602L435.665 399.26C443.837 393.814 448.173 384.033 446.719 374.325C445.254 364.605 438.242 356.522 428.849 353.713L291.005 312.379C288.672 311.671 286.205 311.305 283.701 311.305H283.713Z" fill="white"/>
</g>
<defs>
<clipPath id="clip0_913_2632">
<rect width="447" height="500" fill="white"/>
</clipPath>
</defs>
</svg>
