<svg width="298" height="200" viewBox="0 0 298 200" fill="none" xmlns="http://www.w3.org/2000/svg">
<path d="M0 172.667C0 166.776 4.77563 162 10.6667 162H286.667C292.558 162 297.333 166.776 297.333 172.667V189.333C297.333 195.224 292.558 200 286.667 200H10.6667C4.77563 200 0 195.224 0 189.333V172.667Z" fill="white"/>
<g clip-path="url(#clip0_913_2708)">
<path d="M12.971 174.279C14.064 172.3 15.5871 170.761 17.5402 169.654C19.4932 168.551 21.7089 168 24.1872 168C27.2202 168 29.8199 168.801 31.9798 170.403C34.1397 172.005 35.584 174.191 36.3127 176.958H29.4687C28.9599 175.891 28.2378 175.077 27.3023 174.519C26.3668 173.961 25.3065 173.682 24.115 173.682C22.198 173.682 20.6421 174.352 19.4539 175.684C18.2656 177.02 17.6682 178.803 17.6682 181.038C17.6682 183.273 18.2623 185.056 19.4539 186.392C20.6421 187.728 22.198 188.394 24.115 188.394C25.3032 188.394 26.3668 188.115 27.3023 187.557C28.2378 186.999 28.9599 186.185 29.4687 185.118H36.3127C35.584 187.885 34.1397 190.065 31.9798 191.654C29.8199 193.242 27.2235 194.04 24.1872 194.04C21.7122 194.04 19.4965 193.488 17.5435 192.382C15.5904 191.279 14.0673 189.743 12.9742 187.777C11.8779 185.804 11.333 183.559 11.333 181.035C11.333 178.51 11.8779 176.259 12.971 174.279Z" fill="#343433"/>
<path d="M57.902 182.946C58.7981 184.098 59.2478 185.418 59.2478 186.898C59.2478 189.035 58.5027 190.729 57.0092 191.976C55.5156 193.227 53.4346 193.85 50.7659 193.85H38.8604V168.293H50.3654C52.9619 168.293 54.9937 168.887 56.4643 170.075C57.9316 171.264 58.6668 172.879 58.6668 174.917C58.6668 176.424 58.2729 177.671 57.4851 178.669C56.6973 179.663 55.6469 180.356 54.3372 180.743C55.8176 181.059 57.0059 181.794 57.9053 182.946H57.902ZM45.0872 178.633H49.1641C50.1849 178.633 50.9661 178.41 51.511 177.96C52.0559 177.51 52.3316 176.85 52.3316 175.974C52.3316 175.098 52.0592 174.431 51.511 173.972C50.9661 173.512 50.1816 173.279 49.1641 173.279H45.0872V178.633ZM52.0953 188.119C52.6665 187.646 52.952 186.96 52.952 186.061C52.952 185.162 52.6533 184.459 52.0592 183.95C51.4651 183.442 50.6444 183.186 49.6006 183.186H45.0872V188.828H49.6761C50.7199 188.828 51.5274 188.592 52.0986 188.119H52.0953Z" fill="#343433"/>
<path d="M80.0388 180.579C79.3593 181.807 78.3155 182.795 76.9073 183.547C75.4991 184.298 73.7528 184.676 71.6652 184.676H67.805V193.85H61.5781V168.293H71.6652C73.7036 168.293 75.4269 168.644 76.8351 169.35C78.2433 170.056 79.2969 171.024 80.0027 172.261C80.7051 173.499 81.0596 174.92 81.0596 176.522C81.0596 178.003 80.7183 179.355 80.0388 180.583V180.579ZM73.8513 178.889C74.4323 178.331 74.7244 177.543 74.7244 176.522C74.7244 175.501 74.4323 174.713 73.8513 174.155C73.2703 173.597 72.3808 173.318 71.1925 173.318H67.805V179.726H71.1925C72.3808 179.726 73.267 179.447 73.8513 178.889Z" fill="#343433"/>
<path d="M89.2529 189.045H97.4098V193.85H83.0293V168.293H89.2562V189.048L89.2529 189.045Z" fill="#343433"/>
<path d="M115.03 189.337H105.491L103.961 193.85H97.4424L106.692 168.293H113.901L123.147 193.854H116.556L115.027 189.34L115.03 189.337ZM113.428 184.531L110.26 175.173L107.129 184.531H113.428Z" fill="#343433"/>
<path d="M146.597 168.293L137.751 185.405V193.85H131.524V185.405L122.675 168.293H129.739L134.692 178.997L139.606 168.293H146.597Z" fill="#343433"/>
<path d="M183.006 168.293L176.343 193.854H168.806L164.729 177.031L160.505 193.854H152.968L146.485 168.293H153.149L156.825 186.898L161.378 168.293H168.222L172.591 186.898L176.307 168.293H183.006Z" fill="#343433"/>
<path d="M197.899 193.854L192.585 184.206H191.091V193.854H184.864V168.293H195.312C197.328 168.293 199.045 168.644 200.466 169.35C201.887 170.056 202.947 171.017 203.653 172.245C204.356 173.469 204.71 174.835 204.71 176.342C204.71 178.042 204.231 179.558 203.272 180.894C202.314 182.23 200.899 183.176 199.031 183.734L204.93 193.857H197.902L197.899 193.854ZM191.088 179.798H194.948C196.09 179.798 196.944 179.519 197.515 178.961C198.086 178.403 198.372 177.615 198.372 176.594C198.372 175.574 198.086 174.858 197.515 174.3C196.944 173.742 196.087 173.463 194.948 173.463H191.088V179.798Z" fill="#343433"/>
<path d="M213.553 168.293V193.854H207.326V168.293H213.553Z" fill="#343433"/>
<path d="M233.764 176.372C233.301 175.522 232.641 174.872 231.778 174.425C230.915 173.976 229.904 173.752 228.739 173.752C226.723 173.752 225.108 174.415 223.897 175.735C222.682 177.058 222.075 178.824 222.075 181.033C222.075 183.386 222.712 185.228 223.986 186.547C225.259 187.87 227.012 188.53 229.247 188.53C230.777 188.53 232.07 188.143 233.124 187.365C234.181 186.587 234.949 185.471 235.435 184.013H227.534V179.424H241.077V185.215C240.615 186.767 239.833 188.212 238.73 189.548C237.624 190.884 236.223 191.963 234.526 192.787C232.825 193.611 230.908 194.025 228.771 194.025C226.247 194.025 223.995 193.473 222.016 192.367C220.037 191.264 218.497 189.728 217.391 187.762C216.285 185.796 215.733 183.551 215.733 181.026C215.733 178.502 216.285 176.25 217.391 174.271C218.494 172.292 220.03 170.752 221.996 169.646C223.963 168.543 226.208 167.988 228.732 167.988C231.791 167.988 234.368 168.73 236.469 170.211C238.57 171.691 239.958 173.742 240.638 176.365H233.757L233.764 176.372Z" fill="#343433"/>
<path d="M265.403 168.293V193.854H259.176V183.33H249.49V193.854H243.263V168.293H249.49V178.305H259.176V168.293H265.403Z" fill="#343433"/>
<path d="M286.996 168.293V173.282H280.224V193.854H273.997V173.279H267.226V168.293H286.996Z" fill="#343433"/>
</g>
<path d="M214.821 1.65234H82.8891C75.5776 1.65234 69.6504 7.58821 69.6504 14.9105V147.036C69.6504 154.358 75.5776 160.294 82.8891 160.294H214.821C222.132 160.294 228.06 154.358 228.06 147.036V14.9105C228.06 7.58821 222.132 1.65234 214.821 1.65234Z" fill="#343433"/>
<path d="M214.818 161.947H82.8889C74.6799 161.947 68 155.257 68 147.036V14.9107C68 6.68966 74.6777 0 82.8889 0H214.821C223.03 0 229.71 6.68966 229.71 14.9107V147.036C229.71 155.257 223.03 161.947 214.821 161.947H214.818ZM82.8889 3.30517C76.4995 3.30517 71.3003 8.5119 71.3003 14.9107V147.036C71.3003 153.435 76.4995 158.641 82.8889 158.641H214.821C221.21 158.641 226.409 153.435 226.409 147.036V14.9107C226.409 8.5119 221.21 3.30517 214.821 3.30517H82.8889Z" fill="white"/>
<path d="M221.439 31.1217V15.6557C221.439 11.6013 218.128 8.28516 214.079 8.28516H83.6283C79.5799 8.28516 76.2686 11.6013 76.2686 15.6557V31.1217H221.439Z" fill="white"/>
<path d="M181.969 16.8398C179.872 16.8398 178.174 18.5409 178.174 20.6408C178.174 22.7407 179.872 24.4417 181.969 24.4417C184.066 24.4417 185.765 22.7407 185.765 20.6408C185.765 18.5409 184.066 16.8398 181.969 16.8398Z" fill="#33CFFF" stroke="white" stroke-width="0.14" stroke-miterlimit="10"/>
<path d="M195.971 16.8398C193.874 16.8398 192.176 18.5409 192.176 20.6408C192.176 22.7407 193.874 24.4417 195.971 24.4417C198.068 24.4417 199.767 22.7407 199.767 20.6408C199.767 18.5409 198.068 16.8398 195.971 16.8398Z" fill="#33CFFF" stroke="white" stroke-width="0.14" stroke-miterlimit="10"/>
<path d="M209.976 16.8398C207.879 16.8398 206.181 18.5409 206.181 20.6408C206.181 22.7407 207.879 24.4417 209.976 24.4417C212.073 24.4417 213.771 22.7407 213.771 20.6408C213.771 18.5409 212.073 16.8398 209.976 16.8398Z" fill="#33CFFF" stroke="white" stroke-width="0.14" stroke-miterlimit="10"/>
<path d="M147.452 16.793H87.7803C85.6549 16.793 83.9365 18.5161 83.9365 20.6424C83.9365 22.7687 85.6571 24.4918 87.7803 24.4918H147.452C149.578 24.4918 151.296 22.7687 151.296 20.6424C151.296 18.5161 149.576 16.793 147.452 16.793Z" fill="#0D87C5"/>
<path d="M184.191 115.428L148.858 135.988L148.827 95.0109L184.259 74.5078L184.191 115.428Z" fill="#0D87C5"/>
<path d="M147.846 137.752L147.812 94.4253L185.273 72.75L185.201 116.012L147.843 137.749L147.846 137.752ZM149.839 95.5953L149.868 134.228L183.179 114.845L183.243 76.2667L149.839 95.5953Z" fill="white"/>
<path d="M109.171 114.971L144.506 135.531L144.535 94.5516L109.103 74.0508L109.171 114.971Z" fill="#0D87C5"/>
<path d="M145.516 137.292L108.158 115.555L108.088 72.293L145.549 93.9682L145.518 137.292H145.516ZM110.183 114.388L143.494 133.771L143.522 95.1383L110.119 75.8097L110.183 114.388Z" fill="white"/>
<path d="M146.929 50.2852L182.368 70.6626L146.94 91.1656L111.501 70.6736L146.929 50.2852Z" fill="#33CFFF"/>
<path d="M146.939 92.3338L109.472 70.6696L146.926 49.1133L184.394 70.6564L146.937 92.3338H146.939ZM113.529 70.674L146.939 89.9916L180.339 70.663L146.928 51.4533L113.529 70.6762V70.674Z" fill="white"/>
<path d="M146.68 115.979C157.405 115.979 166.099 107.269 166.099 96.5245C166.099 85.7803 157.405 77.0703 146.68 77.0703C135.955 77.0703 127.261 85.7803 127.261 96.5245C127.261 107.269 135.955 115.979 146.68 115.979Z" fill="#343433"/>
<path d="M146.68 117.652C135.052 117.652 125.589 108.175 125.589 96.5251C125.589 84.8755 135.05 75.3984 146.68 75.3984C158.311 75.3984 167.771 84.8755 167.771 96.5251C167.771 108.175 158.311 117.652 146.68 117.652ZM146.68 78.7455C136.896 78.7455 128.933 86.7219 128.933 96.5251C128.933 106.328 136.894 114.305 146.68 114.305C156.467 114.305 164.427 106.328 164.427 96.5251C164.427 86.7219 156.467 78.7455 146.68 78.7455Z" fill="white"/>
<path d="M135.704 96.9092L143.558 104.776C143.902 105.119 144.456 105.119 144.799 104.776L157.693 91.8633C158.036 91.5196 158.036 90.9643 157.693 90.6206L155.345 88.2695C155.002 87.9258 154.447 87.9258 154.104 88.2695L144.724 97.6606C144.381 98.0043 143.827 98.0043 143.483 97.6606L139.281 93.452C138.944 93.1149 138.403 93.1083 138.058 93.4344L135.719 95.6489C135.36 95.9882 135.351 96.5589 135.701 96.9092H135.704Z" fill="white"/>
<path d="M166.638 137.664C166.495 137.664 166.352 137.653 166.213 137.633C165.096 137.465 164.172 136.661 163.848 135.584L156.4 110.718C156.092 109.689 156.372 108.576 157.131 107.816C157.674 107.272 158.427 106.961 159.193 106.961C159.479 106.961 159.76 107.003 160.033 107.087L184.858 114.545C185.932 114.867 186.735 115.795 186.902 116.907C187.069 118.022 186.572 119.144 185.637 119.77L181.146 122.768L186.081 127.713C186.632 128.264 186.935 128.998 186.935 129.775C186.935 130.553 186.632 131.287 186.081 131.838L181.116 136.811C180.566 137.362 179.833 137.666 179.056 137.666C178.279 137.666 177.547 137.362 176.997 136.811L172.062 131.869L169.067 136.366C168.526 137.179 167.619 137.666 166.643 137.666L166.638 137.664Z" fill="#343433"/>
<path d="M159.193 108.638C159.311 108.638 159.43 108.656 159.547 108.691L184.376 116.15C184.836 116.289 185.177 116.681 185.248 117.157C185.318 117.633 185.109 118.109 184.709 118.375L178.519 122.507L184.898 128.895C185.382 129.382 185.382 130.166 184.898 130.653L179.932 135.626C179.69 135.868 179.371 135.99 179.054 135.99C178.737 135.99 178.418 135.868 178.176 135.626L171.798 129.238L167.672 135.437C167.439 135.787 167.05 135.992 166.638 135.992C166.577 135.992 166.517 135.987 166.453 135.979C165.978 135.908 165.586 135.567 165.448 135.106L158 110.24C157.868 109.802 157.989 109.328 158.312 109.004C158.55 108.768 158.869 108.64 159.193 108.64M159.193 105.289C157.987 105.289 156.805 105.778 155.952 106.633C154.755 107.832 154.315 109.581 154.799 111.201L162.249 136.067C162.755 137.761 164.211 139.026 165.96 139.288H165.969L165.978 139.29C166.196 139.321 166.42 139.339 166.64 139.339C168.176 139.339 169.604 138.574 170.456 137.294L172.319 134.496L175.813 137.995C176.678 138.863 177.831 139.339 179.054 139.339C180.277 139.339 181.43 138.861 182.297 137.995L187.263 133.022C188.13 132.156 188.605 131.001 188.605 129.774C188.605 128.546 188.128 127.394 187.263 126.526L183.769 123.027L186.563 121.16C188.035 120.178 188.816 118.413 188.555 116.661C188.291 114.907 187.028 113.448 185.336 112.942L160.506 105.483C160.086 105.355 159.641 105.289 159.19 105.289H159.193Z" fill="white"/>
<defs>
<clipPath id="clip0_913_2708">
<rect width="275.663" height="26.0333" fill="white" transform="translate(11.333 168)"/>
</clipPath>
</defs>
</svg>
