<svg width="447" height="500" viewBox="0 0 447 500" fill="none" xmlns="http://www.w3.org/2000/svg">
<g clip-path="url(#clip0_913_2813)">
<path d="M84.1721 262.741C84.1721 235.767 92.3804 210.698 106.452 189.928L0 128.434L0.390873 368.195L207.786 488.655L207.859 392.665C138.98 389.332 84.1599 332.441 84.1599 262.729L84.1721 262.741Z" fill="white"/>
<path d="M214.26 132.647C255.423 132.647 292.104 151.769 315.948 181.601L423.645 119.386L215.628 0L7.69531 119.459L113.463 180.502C137.319 151.293 173.609 132.647 214.26 132.647Z" fill="white"/>
<path d="M153.308 264.878L196.915 308.471C198.82 310.376 201.898 310.376 203.804 308.471L275.382 236.915C277.288 235.01 277.288 231.933 275.382 230.028L262.349 216.999C260.444 215.094 257.366 215.094 255.46 216.999L203.389 269.042C201.483 270.947 198.405 270.947 196.499 269.042L173.169 245.719C171.3 243.851 168.295 243.814 166.378 245.621L153.393 257.893C151.402 259.774 151.354 262.936 153.296 264.878H153.308Z" fill="white"/>
<path d="M324.339 332.062L426.186 362.601C426.858 362.797 427.493 363.053 428.116 363.322L428.507 130.973L323.276 191.746C336.59 212.163 344.335 236.536 344.335 262.716C344.335 288.896 336.994 311.963 324.339 332.037V332.062Z" fill="white"/>
<path d="M278.546 375.836C261.323 385.654 241.645 391.65 220.647 392.663L220.721 491.193L299.445 445.463L278.546 375.824V375.836Z" fill="white"/>
<path d="M283.713 329.865C284.373 329.865 285.032 329.963 285.68 330.158L423.523 371.492C426.076 372.262 427.97 374.435 428.36 377.073C428.751 379.71 427.591 382.348 425.368 383.825L391.008 406.721L426.418 442.12C429.106 444.819 429.106 449.166 426.418 451.864L398.85 479.424C397.506 480.768 395.735 481.439 393.976 481.439C392.217 481.439 390.446 480.768 389.102 479.424L353.691 444.025L330.789 478.374C329.494 480.316 327.332 481.451 325.048 481.451C324.706 481.451 324.376 481.427 324.022 481.378C321.383 480.987 319.209 479.095 318.44 476.543L277.093 338.743C276.36 336.313 277.032 333.687 278.827 331.892C280.146 330.586 281.917 329.877 283.713 329.877M283.713 311.305C277.019 311.305 270.46 314.016 265.721 318.753C259.076 325.396 256.633 335.092 259.32 344.067L300.679 481.867C303.489 491.257 311.575 498.266 321.286 499.719H321.335L321.383 499.731C322.593 499.902 323.839 500 325.06 500C333.586 500 341.513 495.763 346.24 488.668L356.586 473.16L375.983 492.551C380.784 497.362 387.184 500 393.976 500C400.767 500 407.168 497.35 411.98 492.551L439.549 464.991C444.362 460.192 447 453.794 447 446.992C447 440.191 444.35 433.805 439.549 428.993L420.152 409.602L435.665 399.26C443.837 393.814 448.173 384.033 446.719 374.325C445.254 364.605 438.242 356.522 428.849 353.713L291.005 312.379C288.672 311.671 286.205 311.305 283.701 311.305H283.713Z" fill="white"/>
<path d="M283.713 329.865C284.373 329.865 285.032 329.963 285.68 330.158L423.523 371.492C426.076 372.262 427.97 374.435 428.36 377.073C428.751 379.71 427.591 382.348 425.368 383.825L391.008 406.721L426.418 442.12C429.106 444.819 429.106 449.166 426.418 451.864L398.85 479.424C397.506 480.768 395.735 481.439 393.976 481.439C392.217 481.439 390.446 480.768 389.102 479.424L353.691 444.025L330.789 478.374C329.494 480.316 327.332 481.451 325.048 481.451C324.706 481.451 324.376 481.427 324.022 481.378C321.383 480.987 319.209 479.095 318.44 476.543L277.093 338.743C276.36 336.313 277.032 333.687 278.827 331.892C280.146 330.586 281.917 329.877 283.713 329.877M283.713 311.305C277.019 311.305 270.46 314.016 265.721 318.753C259.076 325.396 256.633 335.092 259.32 344.067L300.679 481.867C303.489 491.257 311.575 498.266 321.286 499.719H321.335L321.383 499.731C322.593 499.902 323.839 500 325.06 500C333.586 500 341.513 495.763 346.24 488.668L356.586 473.16L375.983 492.551C380.784 497.362 387.184 500 393.976 500C400.767 500 407.168 497.35 411.98 492.551L439.549 464.991C444.362 460.192 447 453.794 447 446.992C447 440.191 444.35 433.805 439.549 428.993L420.152 409.602L435.665 399.26C443.837 393.814 448.173 384.033 446.719 374.325C445.254 364.605 438.242 356.522 428.849 353.713L291.005 312.379C288.672 311.671 286.205 311.305 283.701 311.305H283.713Z" fill="white"/>
<path d="M260.944 349.477C247.044 356.987 231.14 361.26 214.259 361.26C159.94 361.26 115.735 317.057 115.735 262.731C115.735 208.404 159.928 164.201 214.259 164.201C268.591 164.201 312.784 208.404 312.784 262.731C312.784 281.706 307.385 299.424 298.053 314.48L316.363 319.975C325.89 303.039 331.338 283.513 331.338 262.731C331.338 198.171 278.815 145.652 214.247 145.652C149.68 145.652 97.1562 198.171 97.1562 262.731C97.1562 327.29 149.68 379.809 214.247 379.809C232.96 379.809 250.659 375.388 266.355 367.549L260.932 349.465L260.944 349.477Z" fill="white"/>
</g>
<defs>
<clipPath id="clip0_913_2813">
<rect width="447" height="500" fill="white"/>
</clipPath>
</defs>
</svg>
