<svg width="223" height="250" viewBox="0 0 223 250" fill="none" xmlns="http://www.w3.org/2000/svg">
<g clip-path="url(#clip0_913_2753)">
<path d="M210.777 183.752L112.917 240.722L112.832 127.178L210.965 70.3672L210.777 183.752Z" fill="#33CFFF"/>
<path d="M110.114 245.605L110.022 125.559L213.774 65.5L213.573 185.374L110.108 245.605H110.114ZM115.635 128.795L115.714 235.842L207.973 182.132L208.15 75.2382L115.635 128.795Z" fill="white"/>
<path d="M2.99824 182.478L100.864 239.448L100.943 125.899L2.81543 69.0938L2.99824 182.478Z" fill="#33CFFF"/>
<path d="M103.667 244.327L0.194999 184.097L0 64.2227L103.752 124.282L103.667 244.334V244.327ZM5.80123 180.861L98.0603 234.571L98.1395 127.524L5.62451 73.967L5.80123 180.861Z" fill="white"/>
<path d="M107.572 3.24219L205.73 59.7054L107.603 116.517L9.45703 59.7359L107.572 3.24219Z" fill="#33CFFF"/>
<path d="M107.609 119.758L3.83887 59.7297L107.572 0L211.343 59.693L107.603 119.758H107.609ZM15.0757 59.7419L107.609 113.268L200.112 59.7113L107.572 6.48399L15.0757 59.7419Z" fill="white"/>
<path d="M106.89 185.275C136.593 185.275 160.673 161.141 160.673 131.37C160.673 101.599 136.593 77.4648 106.89 77.4648C77.186 77.4648 53.1064 101.599 53.1064 131.37C53.1064 161.141 77.186 185.275 106.89 185.275Z" fill="#343433"/>
<path d="M106.89 189.91C74.6847 189.91 48.4756 163.651 48.4756 131.371C48.4756 99.0916 74.6786 72.832 106.89 72.832C139.102 72.832 165.305 99.0916 165.305 131.371C165.305 163.651 139.102 189.91 106.89 189.91ZM106.89 82.1062C79.7913 82.1062 57.7381 104.208 57.7381 131.371C57.7381 158.534 79.7852 180.636 106.89 180.636C133.995 180.636 156.042 158.534 156.042 131.371C156.042 104.208 133.995 82.1062 106.89 82.1062Z" fill="white"/>
<path d="M76.4824 132.439L98.2371 154.235C99.1877 155.188 100.723 155.188 101.674 154.235L137.383 118.457C138.334 117.505 138.334 115.966 137.383 115.014L130.881 108.499C129.931 107.547 128.395 107.547 127.444 108.499L101.467 134.521C100.516 135.473 98.9805 135.473 98.0299 134.521L86.3908 122.86C85.4585 121.925 83.9594 121.907 83.0027 122.811L76.5251 128.947C75.5318 129.887 75.5074 131.468 76.4763 132.439H76.4824Z" fill="white"/>
<path d="M162.167 245.359C161.771 245.359 161.375 245.328 160.991 245.273C157.895 244.809 155.336 242.581 154.44 239.595L133.813 170.695C132.96 167.844 133.734 164.76 135.836 162.654C137.341 161.146 139.425 160.285 141.546 160.285C142.338 160.285 143.118 160.401 143.874 160.633L212.629 181.3C215.603 182.192 217.827 184.762 218.29 187.845C218.753 190.935 217.376 194.042 214.786 195.776L202.349 204.086L216.017 217.786C217.541 219.313 218.382 221.346 218.382 223.501C218.382 225.656 217.541 227.689 216.017 229.216L202.264 242.996C200.74 244.522 198.711 245.365 196.56 245.365C194.409 245.365 192.38 244.522 190.856 242.996L177.188 229.301L168.894 241.762C167.395 244.015 164.885 245.365 162.179 245.365L162.167 245.359Z" fill="#343433"/>
<path d="M141.539 164.933C141.869 164.933 142.198 164.981 142.521 165.079L211.288 185.746C212.562 186.131 213.506 187.218 213.701 188.536C213.896 189.855 213.317 191.174 212.208 191.913L195.067 203.36L212.732 221.06C214.073 222.409 214.073 224.583 212.732 225.932L198.979 239.712C198.309 240.384 197.425 240.72 196.548 240.72C195.67 240.72 194.786 240.384 194.116 239.712L176.45 222.013L165.025 239.187C164.379 240.158 163.3 240.726 162.161 240.726C161.99 240.726 161.825 240.714 161.649 240.689C160.332 240.494 159.248 239.547 158.864 238.271L138.237 169.371C137.871 168.156 138.206 166.844 139.102 165.946C139.76 165.293 140.644 164.939 141.539 164.939M141.539 155.652C138.2 155.652 134.928 157.008 132.563 159.377C129.248 162.698 128.03 167.546 129.37 172.033L150.004 240.933C151.405 245.628 155.439 249.133 160.284 249.859H160.308L160.332 249.866C160.936 249.951 161.557 250 162.167 250C166.42 250 170.375 247.881 172.733 244.334L177.895 236.58L187.571 246.276C189.966 248.681 193.159 250 196.548 250C199.936 250 203.129 248.675 205.53 246.276L219.283 232.496C221.684 230.096 223 226.897 223 223.496C223 220.095 221.678 216.902 219.283 214.497L209.606 204.801L217.345 199.63C221.422 196.907 223.585 192.016 222.86 187.163C222.129 182.303 218.631 178.261 213.945 176.857L145.177 156.19C144.013 155.836 142.783 155.652 141.533 155.652H141.539Z" fill="white"/>
</g>
<defs>
<clipPath id="clip0_913_2753">
<rect width="223" height="250" fill="white"/>
</clipPath>
</defs>
</svg>
