<svg width="892" height="600" viewBox="0 0 892 600" fill="none" xmlns="http://www.w3.org/2000/svg">
<path d="M0 518C0 500.327 14.3269 486 32 486H860C877.673 486 892 500.327 892 518V568C892 585.673 877.673 600 860 600H32C14.3269 600 0 585.673 0 568V518Z" fill="white"/>
<g clip-path="url(#clip0_913_2587)">
<path d="M38.9139 522.838C42.1931 516.9 46.7623 512.282 52.6215 508.963C58.4807 505.654 65.1277 504 72.5626 504C81.6616 504 89.4608 506.403 95.9404 511.208C102.42 516.014 106.753 522.572 108.939 530.874H88.4071C86.8807 527.673 84.7143 525.231 81.9078 523.557C79.1013 521.883 75.9205 521.046 72.3459 521.046C66.595 521.046 61.9273 523.055 58.3626 527.053C54.7978 531.061 53.0055 536.408 53.0055 543.114C53.0055 549.82 54.7879 555.167 58.3626 559.175C61.9273 563.183 66.595 565.182 72.3459 565.182C75.9107 565.182 79.1013 564.345 81.9078 562.671C84.7143 560.997 86.8807 558.555 88.4071 555.354H108.939C106.753 563.656 102.42 570.194 95.9404 574.961C89.4608 579.727 81.6714 582.12 72.5626 582.12C65.1376 582.12 58.4906 580.465 52.6313 577.147C46.7721 573.838 42.2029 569.229 38.9237 563.331C35.6347 557.412 34 550.677 34 543.104C34 535.531 35.6347 528.776 38.9139 522.838Z" fill="#343433"/>
<path d="M173.706 548.834C176.394 552.29 177.743 556.249 177.743 560.69C177.743 567.101 175.508 572.182 171.028 575.924C166.547 579.676 160.304 581.547 152.298 581.547H116.581V504.875H151.096C158.886 504.875 164.981 506.657 169.393 510.222C173.795 513.787 176 518.632 176 524.747C176 529.267 174.819 533.009 172.455 536.003C170.092 538.987 166.941 541.064 163.012 542.226C167.453 543.172 171.018 545.377 173.716 548.834H173.706ZM135.262 535.894H147.492C150.555 535.894 152.898 535.225 154.533 533.876C156.168 532.527 156.995 530.547 156.995 527.918C156.995 525.289 156.178 523.29 154.533 521.911C152.898 520.532 150.545 519.833 147.492 519.833H135.262V535.894ZM156.286 564.354C157.999 562.935 158.856 560.877 158.856 558.179C158.856 555.481 157.96 553.374 156.178 551.847C154.395 550.321 151.933 549.553 148.802 549.553H135.262V566.481H149.028C152.16 566.481 154.582 565.772 156.296 564.354H156.286Z" fill="#343433"/>
<path d="M240.116 541.734C238.078 545.417 234.946 548.381 230.722 550.636C226.497 552.891 221.259 554.024 214.996 554.024H203.415V581.547H184.734V504.875H214.996C221.111 504.875 226.281 505.929 230.505 508.046C234.73 510.163 237.891 513.068 240.008 516.781C242.115 520.493 243.179 524.757 243.179 529.563C243.179 534.004 242.155 538.061 240.116 541.744V541.734ZM221.554 536.663C223.297 534.988 224.173 532.625 224.173 529.563C224.173 526.5 223.297 524.137 221.554 522.463C219.811 520.788 217.142 519.951 213.578 519.951H203.415V539.174H213.578C217.142 539.174 219.801 538.337 221.554 536.663Z" fill="#343433"/>
<path d="M267.759 567.13H292.23V581.547H249.088V504.875H267.768V567.14L267.759 567.13Z" fill="#343433"/>
<path d="M345.091 568.007H316.474L311.885 581.547H292.328L320.078 504.875H341.703L369.443 581.557H349.67L345.081 568.017L345.091 568.007ZM340.285 553.59L330.782 525.515L321.388 553.59H340.285Z" fill="#343433"/>
<path d="M439.793 504.875L413.255 556.21V581.547H394.574V556.21L368.025 504.875H389.217L404.077 536.987L418.818 504.875H439.793Z" fill="#343433"/>
<path d="M549.021 504.875L529.03 581.557H506.421L494.19 531.089L481.516 581.557H458.907L439.458 504.875H459.448L470.477 560.69L484.136 504.875H504.668L517.775 560.69L528.922 504.875H549.021Z" fill="#343433"/>
<path d="M593.699 581.557L577.756 552.615H573.275V581.557H554.595V504.875H585.939C591.985 504.875 597.136 505.929 601.4 508.046C605.664 510.163 608.844 513.048 610.961 516.731C613.069 520.404 614.132 524.501 614.132 529.021C614.132 534.122 612.695 538.671 609.819 542.679C606.944 546.687 602.699 549.523 597.096 551.197L614.792 581.567H593.709L593.699 581.557ZM573.265 539.39H584.846C588.273 539.39 590.833 538.553 592.547 536.879C594.26 535.205 595.117 532.842 595.117 529.779C595.117 526.717 594.26 524.57 592.547 522.896C590.833 521.222 588.263 520.385 584.846 520.385H573.265V539.39Z" fill="#343433"/>
<path d="M640.661 504.875V581.557H621.98V504.875H640.661Z" fill="#343433"/>
<path d="M701.292 529.119C699.904 526.569 697.924 524.619 695.334 523.28C692.745 521.93 689.712 521.261 686.216 521.261C680.169 521.261 675.324 523.25 671.691 527.209C668.047 531.177 666.225 536.475 666.225 543.102C666.225 550.163 668.136 555.687 671.957 559.646C675.777 563.615 681.036 565.594 687.742 565.594C692.331 565.594 696.211 564.432 699.372 562.098C702.543 559.764 704.847 556.416 706.304 552.044H682.602V538.277H723.232V555.648C721.844 560.306 719.5 564.639 716.191 568.647C712.873 572.655 708.668 575.894 703.577 578.366C698.476 580.838 692.725 582.079 686.314 582.079C678.741 582.079 671.986 580.424 666.048 577.106C660.11 573.797 655.492 569.188 652.173 563.29C648.855 557.391 647.2 550.655 647.2 543.083C647.2 535.51 648.855 528.755 652.173 522.817C655.482 516.879 660.091 512.26 665.989 508.942C671.888 505.633 678.623 503.969 686.196 503.969C695.374 503.969 703.104 506.194 709.406 510.635C715.709 515.077 719.874 521.231 721.913 529.099H701.272L701.292 529.119Z" fill="#343433"/>
<path d="M796.211 504.875V581.557H777.53V549.986H748.471V581.557H729.79V504.875H748.471V534.91H777.53V504.875H796.211Z" fill="#343433"/>
<path d="M860.988 504.875V519.843H840.673V581.557H821.992V519.833H801.677V504.875H860.988Z" fill="#343433"/>
</g>
<path d="M644.463 4.95312H248.667C226.733 4.95312 208.951 22.7607 208.951 44.7275V441.103C208.951 463.07 226.733 480.877 248.667 480.877H644.463C666.397 480.877 684.179 463.07 684.179 441.103V44.7275C684.179 22.7607 666.397 4.95312 644.463 4.95312Z" fill="#343433"/>
<path d="M644.455 485.84H248.667C224.04 485.84 204 465.771 204 441.107V44.7321C204 20.069 224.033 0 248.667 0H644.462C669.089 0 689.129 20.069 689.129 44.7321V441.107C689.129 465.771 669.089 485.84 644.462 485.84H644.455ZM248.667 9.9155C229.498 9.9155 213.901 25.5357 213.901 44.7321V441.107C213.901 460.304 229.498 475.924 248.667 475.924H644.462C663.63 475.924 679.228 460.304 679.228 441.107V44.7321C679.228 25.5357 663.63 9.9155 644.462 9.9155H248.667Z" fill="white"/>
<path d="M664.316 93.3689V46.9709C664.316 34.8079 654.382 24.8594 642.237 24.8594H250.884C238.739 24.8594 228.805 34.8079 228.805 46.9709V93.3689H664.316Z" fill="white"/>
<path d="M545.908 50.5234C539.617 50.5234 534.521 55.6266 534.521 61.9263C534.521 68.2259 539.617 73.3291 545.908 73.3291C552.198 73.3291 557.294 68.2259 557.294 61.9263C557.294 55.6266 552.198 50.5234 545.908 50.5234Z" fill="#33CFFF" stroke="white" stroke-width="0.14" stroke-miterlimit="10"/>
<path d="M587.913 50.5234C581.623 50.5234 576.527 55.6266 576.527 61.9263C576.527 68.2259 581.623 73.3291 587.913 73.3291C594.204 73.3291 599.3 68.2259 599.3 61.9263C599.3 55.6266 594.204 50.5234 587.913 50.5234Z" fill="#33CFFF" stroke="white" stroke-width="0.14" stroke-miterlimit="10"/>
<path d="M629.927 50.5234C623.637 50.5234 618.541 55.6266 618.541 61.9263C618.541 68.2259 623.637 73.3291 629.927 73.3291C636.218 73.3291 641.313 68.2259 641.313 61.9263C641.313 55.6266 636.218 50.5234 629.927 50.5234Z" fill="#33CFFF" stroke="white" stroke-width="0.14" stroke-miterlimit="10"/>
<path d="M442.356 50.375H263.34C256.964 50.375 251.809 55.5443 251.809 61.9233C251.809 68.3022 256.97 73.4715 263.34 73.4715H442.356C448.733 73.4715 453.888 68.3022 453.888 61.9233C453.888 55.5443 448.726 50.375 442.356 50.375Z" fill="#0D87C5"/>
<path d="M552.573 346.284L446.573 407.965L446.48 285.033L552.778 223.523L552.573 346.284Z" fill="#0D87C5"/>
<path d="M443.537 413.255L443.438 283.276L555.82 218.25L555.602 348.037L443.53 413.248L443.537 413.255ZM449.517 286.786L449.603 402.685L549.537 344.534L549.728 228.8L449.517 286.786Z" fill="white"/>
<path d="M327.511 344.909L433.518 406.59L433.604 283.651L327.307 222.148L327.511 344.909Z" fill="#0D87C5"/>
<path d="M436.548 411.873L324.475 346.662L324.264 216.875L436.647 281.901L436.554 411.873H436.548ZM330.548 343.159L430.482 401.31L430.567 285.411L330.356 227.425L330.548 343.159Z" fill="white"/>
<path d="M440.786 150.852L547.103 211.984L440.819 273.493L334.502 212.017L440.786 150.852Z" fill="#33CFFF"/>
<path d="M440.819 277.005L328.416 212.013L440.779 147.344L553.182 211.973L440.812 277.005H440.819ZM340.588 212.026L440.819 269.979L541.017 211.993L440.786 154.364L340.588 212.032V212.026Z" fill="white"/>
<path d="M440.039 347.936C472.213 347.936 498.296 321.806 498.296 289.574C498.296 257.341 472.213 231.211 440.039 231.211C407.864 231.211 381.781 257.341 381.781 289.574C381.781 321.806 407.864 347.936 440.039 347.936Z" fill="#343433"/>
<path d="M440.04 352.955C405.155 352.955 376.766 324.524 376.766 289.575C376.766 254.626 405.148 226.195 440.04 226.195C474.931 226.195 503.313 254.626 503.313 289.575C503.313 324.524 474.931 352.955 440.04 352.955ZM440.04 236.236C410.686 236.236 386.799 260.166 386.799 289.575C386.799 318.985 410.68 342.914 440.04 342.914C469.399 342.914 493.28 318.985 493.28 289.575C493.28 260.166 469.399 236.236 440.04 236.236Z" fill="white"/>
<path d="M407.11 290.732L430.674 314.33C431.704 315.362 433.367 315.362 434.397 314.33L473.077 275.594C474.106 274.563 474.106 272.897 473.077 271.866L466.034 264.812C465.004 263.781 463.341 263.781 462.311 264.812L434.172 292.986C433.143 294.017 431.479 294.017 430.449 292.986L417.842 280.36C416.832 279.349 415.209 279.329 414.172 280.307L407.156 286.95C406.08 287.968 406.053 289.681 407.103 290.732H407.11Z" fill="white"/>
<path d="M499.914 412.991C499.485 412.991 499.056 412.958 498.64 412.899C495.287 412.396 492.515 409.983 491.545 406.751L469.201 332.153C468.277 329.066 469.116 325.728 471.393 323.448C473.023 321.815 475.281 320.883 477.578 320.883C478.436 320.883 479.281 321.008 480.099 321.26L554.574 343.636C557.796 344.601 560.205 347.384 560.706 350.722C561.208 354.067 559.716 357.431 556.911 359.309L543.439 368.305L558.244 383.139C559.895 384.791 560.805 386.993 560.805 389.326C560.805 391.66 559.895 393.861 558.244 395.513L543.347 410.433C541.697 412.086 539.499 412.998 537.168 412.998C534.838 412.998 532.64 412.086 530.99 410.433L516.185 395.606L507.201 409.098C505.578 411.537 502.858 412.998 499.928 412.998L499.914 412.991Z" fill="#343433"/>
<path d="M477.578 325.915C477.934 325.915 478.291 325.968 478.64 326.074L553.129 348.45C554.508 348.866 555.532 350.043 555.743 351.47C555.954 352.898 555.327 354.326 554.126 355.126L535.558 367.52L554.693 386.684C556.145 388.145 556.145 390.498 554.693 391.959L539.796 406.878C539.07 407.605 538.112 407.969 537.162 407.969C536.211 407.969 535.254 407.605 534.528 406.878L515.393 387.715L503.017 406.31C502.317 407.361 501.149 407.976 499.914 407.976C499.73 407.976 499.551 407.962 499.36 407.936C497.934 407.724 496.759 406.7 496.343 405.318L474 330.721C473.604 329.405 473.967 327.984 474.937 327.012C475.65 326.305 476.607 325.921 477.578 325.921M477.578 315.867C473.961 315.867 470.416 317.335 467.855 319.899C464.264 323.496 462.944 328.744 464.396 333.603L486.746 408.2C488.264 413.284 492.634 417.078 497.881 417.865H497.908L497.934 417.871C498.588 417.964 499.261 418.017 499.921 418.017C504.528 418.017 508.812 415.723 511.367 411.882L516.957 403.487L527.439 413.984C530.033 416.589 533.492 418.017 537.162 418.017C540.832 418.017 544.291 416.582 546.891 413.984L561.789 399.065C564.39 396.467 565.815 393.003 565.815 389.321C565.815 385.639 564.383 382.182 561.789 379.578L551.307 369.08L559.69 363.481C564.106 360.533 566.449 355.238 565.664 349.983C564.872 344.721 561.083 340.345 556.007 338.825L481.518 316.449C480.258 316.066 478.924 315.867 477.571 315.867H477.578Z" fill="white"/>
<defs>
<clipPath id="clip0_913_2587">
<rect width="826.988" height="78.1" fill="white" transform="translate(34 504)"/>
</clipPath>
</defs>
</svg>
