<svg width="67" height="75" viewBox="0 0 67 75" fill="none" xmlns="http://www.w3.org/2000/svg">
<g clip-path="url(#clip0_913_2773)">
<path d="M63.3267 55.1247L33.925 72.2157L33.8994 38.1527L63.3834 21.1094L63.3267 55.1247Z" fill="#33CFFF"/>
<path d="M33.0831 73.6799L33.0557 37.6662L64.2277 19.6484L64.1673 55.6108L33.0813 73.6799H33.0831ZM34.7419 38.637L34.7657 70.7511L62.4848 54.6382L62.5379 22.5699L34.7419 38.637Z" fill="white"/>
<path d="M0.900629 54.7419L30.3041 71.8329L30.3279 37.7681L0.845703 20.7266L0.900629 54.7419Z" fill="#33CFFF"/>
<path d="M31.1464 73.2971L0.0585872 55.228L0 19.2656L31.1721 37.2834L31.1464 73.2989V73.2971ZM1.74297 54.2572L29.4621 70.3701L29.4859 38.256L1.68988 22.1889L1.74297 54.2572Z" fill="white"/>
<path d="M32.3203 0.972656L61.8117 17.9116L32.3295 34.955L2.8418 17.9208L32.3203 0.972656Z" fill="#33CFFF"/>
<path d="M32.3309 35.9275L1.15332 17.9189L32.3199 0L63.4975 17.9079L32.3291 35.9275H32.3309ZM4.52941 17.9226L32.3309 33.9805L60.1232 17.9134L32.3199 1.9452L4.52941 17.9226Z" fill="white"/>
<path d="M32.1151 55.5813C41.0396 55.5813 48.2742 48.3411 48.2742 39.4098C48.2742 30.4785 41.0396 23.2383 32.1151 23.2383C23.1907 23.2383 15.9561 30.4785 15.9561 39.4098C15.9561 48.3411 23.1907 55.5813 32.1151 55.5813Z" fill="#343433"/>
<path d="M32.115 56.9711C22.4389 56.9711 14.5645 49.0932 14.5645 39.4094C14.5645 29.7255 22.4371 21.8477 32.115 21.8477C41.7929 21.8477 49.6655 29.7255 49.6655 39.4094C49.6655 49.0932 41.7929 56.9711 32.115 56.9711ZM32.115 24.6299C23.9732 24.6299 17.3473 31.2604 17.3473 39.4094C17.3473 47.5583 23.9714 54.1888 32.115 54.1888C40.2586 54.1888 46.8826 47.5583 46.8826 39.4094C46.8826 31.2604 40.2586 24.6299 32.115 24.6299Z" fill="white"/>
<path d="M22.9793 39.7282L29.5155 46.2671C29.8011 46.5529 30.2625 46.5529 30.5481 46.2671L41.2769 35.5337C41.5625 35.248 41.5625 34.7864 41.2769 34.5007L39.3233 32.5463C39.0377 32.2606 38.5764 32.2606 38.2907 32.5463L30.4858 40.3528C30.2002 40.6385 29.7388 40.6385 29.4532 40.3528L25.9563 36.8543C25.6762 36.5741 25.2258 36.5686 24.9383 36.8397L22.9921 38.6805C22.6937 38.9626 22.6864 39.4369 22.9775 39.7282H22.9793Z" fill="white"/>
<path d="M48.722 73.608C48.603 73.608 48.484 73.5988 48.3687 73.5823C47.4386 73.4431 46.6696 72.7746 46.4005 71.8789L40.2031 51.2089C39.9467 50.3535 40.1793 49.4285 40.8109 48.7966C41.2631 48.3442 41.8893 48.0859 42.5264 48.0859C42.7644 48.0859 42.9988 48.1207 43.2258 48.1903L63.8833 54.3904C64.7767 54.6578 65.445 55.429 65.5842 56.3539C65.7233 57.2808 65.3095 58.2131 64.5314 58.7332L60.7946 61.2261L64.9012 65.3363C65.359 65.7942 65.6116 66.4041 65.6116 67.0507C65.6116 67.6973 65.359 68.3072 64.9012 68.7651L60.769 72.8991C60.3113 73.357 59.7016 73.6098 59.0553 73.6098C58.409 73.6098 57.7994 73.357 57.3417 72.8991L53.2351 68.7908L50.7433 72.5291C50.2929 73.205 49.5386 73.6098 48.7257 73.6098L48.722 73.608Z" fill="#343433"/>
<path d="M42.525 49.4794C42.6239 49.4794 42.7228 49.4941 42.8198 49.5234L63.481 55.7234C63.8636 55.8388 64.1474 56.1649 64.206 56.5605C64.2646 56.9561 64.0906 57.3518 63.7574 57.5734L58.6072 61.0077L63.9149 66.3176C64.3177 66.7224 64.3177 67.3745 63.9149 67.7793L59.7827 71.9133C59.5813 72.1148 59.3158 72.2155 59.0521 72.2155C58.7885 72.2155 58.523 72.1148 58.3216 71.9133L53.014 66.6034L49.5811 71.7558C49.3871 72.047 49.063 72.2173 48.7206 72.2173C48.6694 72.2173 48.6199 72.2137 48.5669 72.2063C48.1714 72.1477 47.8455 71.8638 47.7302 71.481L41.5327 50.811C41.4229 50.4465 41.5236 50.0527 41.7927 49.7834C41.9904 49.5875 42.2559 49.4812 42.525 49.4812M42.525 46.6953C41.5217 46.6953 40.5386 47.1019 39.8282 47.8126C38.8322 48.809 38.4661 50.2633 38.8688 51.6096L45.0681 72.2796C45.4892 73.6881 46.7012 74.7395 48.1567 74.9575H48.1641L48.1714 74.9593C48.3526 74.9849 48.5394 74.9996 48.7225 74.9996C50.0004 74.9996 51.1886 74.364 51.8972 73.2998L53.4479 70.9736L56.3553 73.8823C57.0748 74.6039 58.0342 74.9996 59.0521 74.9996C60.0701 74.9996 61.0295 74.6021 61.7508 73.8823L65.883 69.7483C66.6044 69.0284 66.9999 68.0687 66.9999 67.0485C66.9999 66.0282 66.6026 65.0703 65.883 64.3486L62.9757 61.44L65.3008 59.8886C66.5257 59.0717 67.1756 57.6045 66.9578 56.1484C66.7381 54.6904 65.6871 53.4779 64.2792 53.0566L43.6181 46.8565C43.2684 46.7503 42.8985 46.6953 42.5232 46.6953H42.525Z" fill="white"/>
</g>
<defs>
<clipPath id="clip0_913_2773">
<rect width="67" height="75" fill="white"/>
</clipPath>
</defs>
</svg>
