<svg width="67" height="75" viewBox="0 0 67 75" fill="none" xmlns="http://www.w3.org/2000/svg">
<g clip-path="url(#clip0_913_2803)">
<path d="M12.6164 39.4118C12.6164 35.3657 13.8467 31.6054 15.9559 28.4897L0 19.2656L0.0585872 55.2298L31.1446 73.2989L31.1556 58.9004C20.8314 58.4004 12.6146 49.8668 12.6146 39.41L12.6164 39.4118Z" fill="#343433"/>
<path d="M32.1148 19.8971C38.2848 19.8971 43.7829 22.7654 47.3567 27.2401L63.4993 17.9079L32.3199 0L1.15332 17.9189L17.0067 27.0752C20.5823 22.694 26.0218 19.8971 32.1148 19.8971Z" fill="#343433"/>
<path d="M22.9793 39.7321L29.5155 46.271C29.8011 46.5568 30.2625 46.5568 30.5481 46.271L41.2769 35.5376C41.5625 35.2519 41.5625 34.7903 41.2769 34.5046L39.3233 32.5502C39.0377 32.2645 38.5764 32.2645 38.2907 32.5502L30.4858 40.3567C30.2002 40.6424 29.7388 40.6424 29.4532 40.3567L25.9563 36.8582C25.6762 36.578 25.2258 36.5725 24.9383 36.8436L22.9921 38.6844C22.6937 38.9665 22.6864 39.4409 22.9775 39.7321H22.9793Z" fill="#343433"/>
<path d="M48.6144 49.8079L63.88 54.3888C63.9807 54.4181 64.0759 54.4566 64.1693 54.4969L64.2279 19.6445L48.4551 28.7606C50.4507 31.8231 51.6115 35.479 51.6115 39.4061C51.6115 43.3331 50.5111 46.793 48.6144 49.8043V49.8079Z" fill="#343433"/>
<path d="M41.7505 56.3729C39.169 57.8456 36.2195 58.7449 33.0723 58.8969L33.0833 73.6764L44.8831 66.8169L41.7505 56.3711V56.3729Z" fill="#343433"/>
<path d="M42.525 49.4794C42.6239 49.4794 42.7228 49.4941 42.8198 49.5234L63.481 55.7234C63.8636 55.8388 64.1474 56.1649 64.206 56.5605C64.2646 56.9561 64.0906 57.3518 63.7574 57.5734L58.6072 61.0077L63.9149 66.3176C64.3177 66.7224 64.3177 67.3745 63.9149 67.7793L59.7827 71.9133C59.5813 72.1148 59.3158 72.2155 59.0521 72.2155C58.7885 72.2155 58.523 72.1148 58.3216 71.9133L53.014 66.6034L49.5811 71.7558C49.3871 72.047 49.063 72.2173 48.7206 72.2173C48.6694 72.2173 48.6199 72.2137 48.5669 72.2063C48.1714 72.1477 47.8455 71.8638 47.7302 71.481L41.5327 50.811C41.4229 50.4465 41.5236 50.0527 41.7927 49.7834C41.9904 49.5875 42.2559 49.4812 42.525 49.4812M42.525 46.6953C41.5217 46.6953 40.5386 47.1019 39.8282 47.8126C38.8322 48.809 38.4661 50.2633 38.8688 51.6096L45.0681 72.2796C45.4892 73.6881 46.7012 74.7395 48.1567 74.9575H48.1641L48.1714 74.9593C48.3526 74.9849 48.5394 74.9996 48.7225 74.9996C50.0004 74.9996 51.1886 74.364 51.8972 73.2998L53.4479 70.9736L56.3553 73.8823C57.0748 74.6039 58.0342 74.9996 59.0521 74.9996C60.0701 74.9996 61.0295 74.6021 61.7508 73.8823L65.883 69.7483C66.6044 69.0284 66.9999 68.0687 66.9999 67.0485C66.9999 66.0282 66.6026 65.0703 65.883 64.3486L62.9757 61.44L65.3008 59.8886C66.5257 59.0717 67.1756 57.6045 66.9578 56.1484C66.7381 54.6904 65.6871 53.4779 64.2792 53.0566L43.6181 46.8565C43.2684 46.7503 42.8985 46.6953 42.5232 46.6953H42.525Z" fill="#343433"/>
<path d="M42.525 49.4794C42.6239 49.4794 42.7228 49.4941 42.8198 49.5234L63.481 55.7234C63.8636 55.8388 64.1474 56.1649 64.206 56.5605C64.2646 56.9561 64.0906 57.3518 63.7574 57.5734L58.6072 61.0077L63.9149 66.3176C64.3177 66.7224 64.3177 67.3745 63.9149 67.7793L59.7827 71.9133C59.5813 72.1148 59.3158 72.2155 59.0521 72.2155C58.7885 72.2155 58.523 72.1148 58.3216 71.9133L53.014 66.6034L49.5811 71.7558C49.3871 72.047 49.063 72.2173 48.7206 72.2173C48.6694 72.2173 48.6199 72.2137 48.5669 72.2063C48.1714 72.1477 47.8455 71.8638 47.7302 71.481L41.5327 50.811C41.4229 50.4465 41.5236 50.0527 41.7927 49.7834C41.9904 49.5875 42.2559 49.4812 42.525 49.4812M42.525 46.6953C41.5217 46.6953 40.5386 47.1019 39.8282 47.8126C38.8322 48.809 38.4661 50.2633 38.8688 51.6096L45.0681 72.2796C45.4892 73.6881 46.7012 74.7395 48.1567 74.9575H48.1641L48.1714 74.9593C48.3526 74.9849 48.5394 74.9996 48.7225 74.9996C50.0004 74.9996 51.1886 74.364 51.8972 73.2998L53.4479 70.9736L56.3553 73.8823C57.0748 74.6039 58.0342 74.9996 59.0521 74.9996C60.0701 74.9996 61.0295 74.6021 61.7508 73.8823L65.883 69.7483C66.6044 69.0284 66.9999 68.0687 66.9999 67.0485C66.9999 66.0282 66.6026 65.0703 65.883 64.3486L62.9757 61.44L65.3008 59.8886C66.5257 59.0717 67.1756 57.6045 66.9578 56.1484C66.7381 54.6904 65.6871 53.4779 64.2792 53.0566L43.6181 46.8565C43.2684 46.7503 42.8985 46.6953 42.5232 46.6953H42.525Z" fill="#343433"/>
<path d="M39.1124 52.4213C37.0289 53.5478 34.6451 54.1889 32.1149 54.1889C23.9731 54.1889 17.3472 47.5583 17.3472 39.4094C17.3472 31.2604 23.9712 24.6299 32.1149 24.6299C40.2585 24.6299 46.8825 31.2604 46.8825 39.4094C46.8825 42.2557 46.0733 44.9135 44.6745 47.1719L47.419 47.9961C48.847 45.4556 49.6636 42.5268 49.6636 39.4094C49.6636 29.7255 41.7909 21.8477 32.113 21.8477C22.4352 21.8477 14.5625 29.7255 14.5625 39.4094C14.5625 49.0932 22.4352 56.9711 32.113 56.9711C34.9179 56.9711 37.5708 56.3081 39.9234 55.1321L39.1105 52.4195L39.1124 52.4213Z" fill="#343433"/>
</g>
<defs>
<clipPath id="clip0_913_2803">
<rect width="67" height="75" fill="white"/>
</clipPath>
</defs>
</svg>
