<svg width="75" height="75" viewBox="0 0 75 75" fill="none" xmlns="http://www.w3.org/2000/svg">
<g clip-path="url(#clip0_737_8143)">
<path d="M70.7248 0H39.7217C37.6657 0 35.999 1.68706 35.999 3.76816V5.42217C35.999 7.50326 37.6657 9.19032 39.7217 9.19032H70.7248C72.7808 9.19032 74.4475 7.50326 74.4475 5.42217V3.76816C74.4475 1.68706 72.7808 0 70.7248 0Z" fill="#0D87C5"/>
<path d="M71.2772 11.6119H40.7656C42.9452 12.7734 45.0142 14.308 46.8915 16.2704C48.2774 17.7205 49.4618 19.2352 50.4595 20.8022H71.2772C73.3241 20.8022 74.9999 19.1059 74.9999 17.034V15.3775C74.9999 13.3057 73.3241 11.6094 71.2772 11.6094V11.6119Z" fill="#0D87C5"/>
<path d="M71.2772 23.2251H51.8281C53.2705 26.1526 54.0765 29.2368 54.251 32.4155H71.2772C73.3241 32.4155 74.9999 30.7192 74.9999 28.6473V26.9908C74.9999 24.9189 73.3241 23.2227 71.2772 23.2227V23.2251Z" fill="#0D87C5"/>
<path d="M53.2362 66.1913C50.3784 62.453 51.7029 63.6593 48.8328 59.931C47.6337 58.3715 44.9848 55.0759 45.2428 54.7152C54.2928 42.0055 54.1257 28.8033 44.4761 18.7151C34.3892 8.17168 18.6997 9.92518 10.6645 15.8622C0.258042 23.5502 -2.97569 37.8493 2.93398 49.3055C7.95413 59.0356 20.8375 67.4897 36.4508 61.2641C36.9349 61.0701 38.3773 63.7041 39.1194 64.8109C42.245 69.4645 41.7142 68.783 44.9504 73.362C46.3387 75.3245 47.9581 75.4488 49.8207 74.1331C50.6414 73.5535 51.4301 72.9243 52.2632 72.3646C54.8138 70.6559 55.1897 68.7482 53.2338 66.1888L53.2362 66.1913ZM25.9534 56.4812C15.574 56.4812 7.15798 47.9649 7.15798 37.4563C7.15798 26.9478 15.5716 18.4315 25.9534 18.4315C36.3353 18.4315 44.7489 26.9478 44.7489 37.4563C44.7489 47.9649 36.3353 56.4812 25.9534 56.4812Z" fill="#33CFFF"/>
<path d="M28.7691 50.7613C21.7095 50.7613 15.9841 44.9735 15.9841 37.8277C15.9841 30.6818 21.7021 24.8866 28.7618 24.8866C32.1847 24.8866 35.4602 26.2745 37.8683 28.7393C35.1064 24.909 30.703 22.6406 26.0146 22.6406C17.9032 22.6406 11.3301 29.294 11.3301 37.5043C11.3301 45.7147 17.9032 52.368 26.0146 52.368C29.5284 52.3755 32.9293 51.0946 35.5855 48.769C33.5485 50.0723 31.1822 50.7687 28.7691 50.7613Z" fill="url(#paint0_linear_737_8143)"/>
<path d="M33.1573 26.9609C38.1038 29.8834 39.7722 36.3129 36.8801 41.3172C33.9928 46.324 27.6408 48.0129 22.6968 45.0854C19.8735 43.4165 17.9937 40.5014 17.6251 37.2133C17.6104 37.4173 17.6104 37.6287 17.6104 37.8326C17.6104 44.2547 22.7509 49.458 29.0955 49.458C35.4401 49.458 40.5807 44.2547 40.5807 37.8326C40.588 33.0024 37.632 28.6722 33.1573 26.9609Z" fill="url(#paint1_linear_737_8143)"/>
<path d="M27.6219 27.7656C23.8574 27.7656 20.5401 30.2653 19.4688 33.919C21.1593 30.1036 25.5824 28.3924 29.3542 30.1036C33.1237 31.8148 34.8142 36.2919 33.1237 40.1098C31.6223 43.5098 27.8996 45.2931 24.3439 44.3206C28.6785 46.1512 33.6642 44.0819 35.4752 39.6869C37.2838 35.2994 35.2393 30.2529 30.8974 28.4198C29.8604 27.9895 28.7473 27.7656 27.6219 27.7656Z" fill="url(#paint2_linear_737_8143)"/>
</g>
<defs>
<linearGradient id="paint0_linear_737_8143" x1="32.3808" y1="29.6348" x2="13.9784" y2="48.9514" gradientUnits="userSpaceOnUse">
<stop offset="0.278846" stop-color="#33CFFF"/>
<stop offset="1" stop-color="#0D87C5"/>
</linearGradient>
<linearGradient id="paint1_linear_737_8143" x1="35.8309" y1="32.254" x2="22.1178" y2="48.7174" gradientUnits="userSpaceOnUse">
<stop offset="0.278846" stop-color="#33CFFF"/>
<stop offset="1" stop-color="#0D87C5"/>
</linearGradient>
<linearGradient id="paint2_linear_737_8143" x1="32.6877" y1="31.8174" x2="22.1028" y2="43.8611" gradientUnits="userSpaceOnUse">
<stop offset="0.278846" stop-color="#33CFFF"/>
<stop offset="1" stop-color="#0D87C5"/>
</linearGradient>
<clipPath id="clip0_737_8143">
<rect width="75" height="75" fill="white"/>
</clipPath>
</defs>
</svg>
