<svg width="250" height="250" viewBox="0 0 250 250" fill="none" xmlns="http://www.w3.org/2000/svg">
<g clip-path="url(#clip0_737_8188)">
<path d="M235.748 0H132.404C125.551 0 119.995 5.62354 119.995 12.5605V18.0739C119.995 25.0109 125.551 30.6344 132.404 30.6344H235.748C242.601 30.6344 248.157 25.0109 248.157 18.0739V12.5605C248.157 5.62354 242.601 0 235.748 0Z" fill="white"/>
<path d="M237.591 38.7114H135.886C143.151 42.5832 150.048 47.6986 156.305 54.24C160.925 59.0736 164.873 64.1226 168.199 69.3458H237.591C244.414 69.3458 250 63.6915 250 56.7853V51.2636C250 44.3574 244.414 38.7031 237.591 38.7031V38.7114Z" fill="white"/>
<path d="M237.591 77.4184H172.761C177.569 87.1767 180.255 97.4572 180.837 108.053H237.591C244.414 108.053 250 102.399 250 95.4923V89.9707C250 83.0645 244.414 77.4102 237.591 77.4102V77.4184Z" fill="white"/>
<path d="M177.454 220.633C167.928 208.172 172.343 212.193 162.776 199.765C158.779 194.566 149.95 183.581 150.81 182.379C180.976 140.013 180.419 96.0057 148.254 62.3783C114.631 27.2337 62.3325 33.0787 35.5486 52.8688C0.860464 78.4956 -9.91865 126.159 9.78026 164.347C26.5141 196.78 69.4585 224.96 121.503 204.209C123.117 203.562 127.925 212.342 130.398 216.031C140.817 231.543 139.048 229.272 149.835 244.535C154.463 251.076 159.861 251.491 166.069 247.105C168.805 245.173 171.434 243.076 174.211 241.21C182.713 235.515 183.966 229.155 177.446 220.624L177.454 220.633ZM86.5118 188.265C51.9138 188.265 23.8603 159.878 23.8603 124.849C23.8603 89.8208 51.9056 61.4332 86.5118 61.4332C121.118 61.4332 149.163 89.8208 149.163 124.849C149.163 159.878 121.118 188.265 86.5118 188.265Z" fill="white"/>
<path d="M95.8978 169.196C72.3656 169.196 53.281 149.904 53.281 126.084C53.281 102.265 72.341 82.9475 95.8732 82.9475C107.283 82.9475 118.201 87.5738 126.228 95.7899C117.022 83.0221 102.344 75.4609 86.7159 75.4609C59.678 75.4609 37.7676 97.6388 37.7676 125.007C37.7676 152.374 59.678 174.552 86.7159 174.552C98.4287 174.577 109.765 170.307 118.619 162.556C111.829 166.9 103.941 169.221 95.8978 169.196Z" fill="white"/>
<path d="M110.526 89.8633C127.015 99.6049 132.576 121.037 122.935 137.718C113.311 154.407 92.138 160.036 75.6581 150.278C66.2469 144.715 59.9809 134.998 58.7523 124.038C58.7031 124.718 58.7031 125.422 58.7031 126.102C58.7031 147.509 75.8383 164.853 96.987 164.853C118.136 164.853 135.271 147.509 135.271 126.102C135.295 110.002 125.442 95.5673 110.526 89.8633Z" fill="white"/>
<path d="M92.0726 92.5391C79.5243 92.5391 68.4667 100.871 64.8955 113.05C70.5308 100.332 85.2742 94.6283 97.8471 100.332C110.412 106.036 116.047 120.96 110.412 133.686C105.407 145.02 92.9982 150.964 81.1461 147.722C95.5947 153.824 112.214 146.927 118.25 132.277C124.279 117.652 117.464 100.83 102.991 94.7195C99.5344 93.2852 95.824 92.5391 92.0726 92.5391Z" fill="white"/>
</g>
<defs>
<clipPath id="clip0_737_8188">
<rect width="250" height="250" fill="white"/>
</clipPath>
</defs>
</svg>
