<svg width="403" height="178" viewBox="0 0 403 178" fill="none" xmlns="http://www.w3.org/2000/svg">
<g clip-path="url(#clip0_737_8086)">
<path d="M167.858 0H94.275C89.3953 0 85.4395 4.00396 85.4395 8.94309V12.8686C85.4395 17.8077 89.3953 21.8117 94.275 21.8117H167.858C172.738 21.8117 176.694 17.8077 176.694 12.8686V8.94309C176.694 4.00396 172.738 0 167.858 0Z" fill="#0D87C5"/>
<path d="M169.171 27.5606H96.7539C101.927 30.3173 106.838 33.9595 111.293 38.617C114.583 42.0584 117.394 45.6534 119.761 49.3723H169.171C174.029 49.3723 178.006 45.3464 178.006 40.4292V36.4978C178.006 31.5806 174.029 27.5547 169.171 27.5547V27.5606Z" fill="#0D87C5"/>
<path d="M169.17 55.1231H123.01C126.433 62.071 128.346 69.3907 128.76 76.9348H169.17C174.029 76.9348 178.006 72.9089 178.006 67.9917V64.0603C178.006 59.1431 174.029 55.1172 169.17 55.1172V55.1231Z" fill="#0D87C5"/>
<path d="M126.351 157.09C119.569 148.218 122.712 151.081 115.9 142.232C113.054 138.531 106.767 130.709 107.38 129.854C128.859 99.6891 128.463 68.3558 105.56 44.4131C81.6196 19.3902 44.3819 23.5518 25.3111 37.6423C0.612316 55.8886 -7.06267 89.8251 6.96342 117.014C18.8783 140.107 49.4558 160.172 86.5126 145.396C87.6616 144.936 91.085 151.187 92.8463 153.814C100.265 164.859 99.0049 163.241 106.686 174.109C109.981 178.766 113.824 179.061 118.245 175.939C120.193 174.563 122.065 173.07 124.042 171.741C130.096 167.686 130.988 163.158 126.346 157.084L126.351 157.09ZM61.5981 134.045C36.9635 134.045 16.9887 113.833 16.9887 88.8924C16.9887 63.9521 36.9577 43.7402 61.5981 43.7402C86.2385 43.7402 106.208 63.9521 106.208 88.8924C106.208 113.833 86.2385 134.045 61.5981 134.045Z" fill="#33CFFF"/>
<path d="M68.2817 120.47C51.5262 120.47 37.9375 106.734 37.9375 89.7744C37.9375 72.815 51.5087 59.0609 68.2642 59.0609C76.3883 59.0609 84.1624 62.3548 89.8778 68.2047C83.3226 59.114 72.8715 53.7305 61.744 53.7305C42.4923 53.7305 26.8916 69.5211 26.8916 89.007C26.8916 108.493 42.4923 124.284 61.744 124.284C70.0838 124.301 78.1554 121.261 84.4598 115.742C79.625 118.835 74.0088 120.488 68.2817 120.47Z" fill="url(#paint0_linear_737_8086)"/>
<path d="M78.6978 63.9844C90.4377 70.9204 94.3976 86.1798 87.5333 98.0567C80.6806 109.939 65.6048 113.948 53.8707 107C47.1697 103.039 42.7081 96.1205 41.8333 88.3167C41.7983 88.8007 41.7983 89.3025 41.7983 89.7865C41.7983 105.028 53.999 117.377 69.0574 117.377C84.1157 117.377 96.3164 105.028 96.3164 89.7865C96.3339 78.3228 89.3179 68.0457 78.6978 63.9844Z" fill="url(#paint1_linear_737_8086)"/>
<path d="M65.5583 65.8906C56.6236 65.8906 48.7503 71.8232 46.2075 80.4947C50.22 71.4395 60.7177 67.3782 69.6699 71.4395C78.6162 75.5008 82.6287 86.1262 78.6162 95.1874C75.0529 103.257 66.2173 107.489 57.7783 105.181C68.0661 109.526 79.8993 104.615 84.1975 94.1838C88.4899 83.7709 83.6376 71.7937 73.3324 67.4431C70.8713 66.4219 68.2294 65.8906 65.5583 65.8906Z" fill="url(#paint2_linear_737_8086)"/>
</g>
<g clip-path="url(#clip1_737_8086)">
<path d="M275.112 161.087L261.627 142.985C257.643 143.787 253.733 144.189 249.932 144.189C240.028 144.189 230.964 141.89 222.705 137.291C214.445 132.692 207.903 126.306 203.043 118.057C198.182 109.809 195.77 100.575 195.77 90.2832C195.77 79.9911 198.182 70.7574 203.043 62.5821C207.903 54.4069 214.445 48.0199 222.705 43.4213C230.964 38.8227 240.028 36.5234 249.932 36.5234C259.836 36.5234 268.899 38.8227 277.159 43.4213C285.418 48.0199 291.887 54.4069 296.638 62.5821C301.389 70.7574 303.765 79.9911 303.765 90.2832C303.765 99.2614 301.937 107.473 298.283 114.919C294.628 122.364 289.548 128.532 283.079 133.422L306.177 161.123H275.149L275.112 161.087ZM229.612 112.473C234.655 118.021 241.416 120.795 249.932 120.795C258.447 120.795 265.062 117.984 270.105 112.4C275.149 106.816 277.67 99.4439 277.67 90.2467C277.67 81.0495 275.149 73.5677 270.105 68.0202C265.062 62.4726 258.337 59.6989 249.932 59.6989C241.526 59.6989 234.655 62.4362 229.612 67.9472C224.569 73.4217 222.047 80.867 222.047 90.2467C222.047 99.6264 224.569 106.962 229.612 112.473Z" fill="white"/>
<path d="M396.739 98.2406C400.43 102.985 402.294 108.387 402.294 114.482C402.294 123.277 399.224 130.248 393.084 135.358C386.945 140.504 378.356 143.059 367.356 143.059H318.311V37.9844H365.675C376.383 37.9844 384.752 40.4297 390.782 45.3202C396.812 50.2108 399.845 56.8532 399.845 65.2475C399.845 71.4519 398.237 76.5615 394.985 80.6856C391.732 84.7733 387.42 87.62 382.011 89.2259C388.114 90.5397 393.011 93.5325 396.702 98.2771L396.739 98.2406ZM343.966 80.5031H360.777C364.98 80.5031 368.196 79.5907 370.462 77.7294C372.728 75.868 373.824 73.1673 373.824 69.5541C373.824 65.9409 372.692 63.2037 370.462 61.3058C368.196 59.408 364.98 58.4591 360.777 58.4591H343.966V80.4666V80.5031ZM372.801 119.518C375.14 117.584 376.31 114.737 376.31 111.051C376.31 107.365 375.067 104.482 372.618 102.365C370.17 100.284 366.808 99.226 362.495 99.226H343.893V122.438H362.787C367.1 122.438 370.389 121.453 372.765 119.518H372.801Z" fill="white"/>
</g>
<defs>
<linearGradient id="paint0_linear_737_8086" x1="76.8536" y1="70.3301" x2="33.1788" y2="116.176" gradientUnits="userSpaceOnUse">
<stop offset="0.278846" stop-color="#33CFFF"/>
<stop offset="1" stop-color="#0D87C5"/>
</linearGradient>
<linearGradient id="paint1_linear_737_8086" x1="85.0433" y1="76.5465" x2="52.4977" y2="115.621" gradientUnits="userSpaceOnUse">
<stop offset="0.278846" stop-color="#33CFFF"/>
<stop offset="1" stop-color="#0D87C5"/>
</linearGradient>
<linearGradient id="paint2_linear_737_8086" x1="77.5815" y1="75.5069" x2="52.4602" y2="104.091" gradientUnits="userSpaceOnUse">
<stop offset="0.278846" stop-color="#33CFFF"/>
<stop offset="1" stop-color="#0D87C5"/>
</linearGradient>
<clipPath id="clip0_737_8086">
<rect width="178.006" height="178" fill="white"/>
</clipPath>
<clipPath id="clip1_737_8086">
<rect width="206.487" height="124.6" fill="white" transform="translate(195.807 36.4883)"/>
</clipPath>
</defs>
</svg>
