<svg width="226" height="100" viewBox="0 0 226 100" fill="none" xmlns="http://www.w3.org/2000/svg">
<g clip-path="url(#clip0_737_8099)">
<path d="M94.3026 0H52.9638C50.2224 0 48 2.24941 48 5.02421V7.22955C48 10.0043 50.2224 12.2538 52.9638 12.2538H94.3026C97.044 12.2538 99.2664 10.0043 99.2664 7.22955V5.02421C99.2664 2.24941 97.044 0 94.3026 0Z" fill="#0D87C5"/>
<path d="M95.0394 15.4838H54.356C57.2622 17.0325 60.0209 19.0787 62.5241 21.6952C64.372 23.6286 65.9513 25.6483 67.2815 27.7375H95.0394C97.7687 27.7375 100.003 25.4758 100.003 22.7133V20.5047C100.003 17.7422 97.7687 15.4805 95.0394 15.4805V15.4838Z" fill="#0D87C5"/>
<path d="M95.0394 30.9682H69.1064C71.0297 34.8715 72.1044 38.9837 72.337 43.2219H95.0394C97.7687 43.2219 100.003 40.9602 100.003 38.1977V35.9891C100.003 33.2266 97.7687 30.9648 95.0394 30.9648V30.9682Z" fill="#0D87C5"/>
<path d="M70.9838 88.2538C67.1733 83.2694 68.9393 84.8778 65.1125 79.9067C63.5136 77.8273 59.9816 73.4332 60.3256 72.9524C72.3927 56.006 72.1699 38.4031 59.3033 24.9521C45.8536 10.8943 24.9335 13.2323 14.2196 21.1483C0.343904 31.399 -3.96788 50.4645 3.91194 65.7394C10.6057 78.7128 27.784 89.9849 48.6025 81.6842C49.248 81.4255 51.1712 84.9375 52.1607 86.4133C56.3283 92.6181 55.6206 91.7094 59.9357 97.8147C61.7869 100.431 63.946 100.597 66.4296 98.8428C67.5239 98.0701 68.5756 97.2311 69.6864 96.4849C73.0873 94.2066 73.5886 91.663 70.9805 88.2505L70.9838 88.2538ZM34.6056 75.3069C20.7659 75.3069 9.54413 63.9519 9.54413 49.9405C9.54413 35.9291 20.7626 24.574 34.6056 24.574C48.4485 24.574 59.667 35.9291 59.667 49.9405C59.667 63.9519 48.4485 75.3069 34.6056 75.3069Z" fill="#33CFFF"/>
<path d="M38.3603 67.6778C28.9471 67.6778 21.313 59.9607 21.313 50.433C21.313 40.9052 28.9373 33.1782 38.3504 33.1782C42.9145 33.1782 47.282 35.0287 50.4929 38.3152C46.8102 33.2081 40.9388 30.1836 34.6874 30.1836C23.8719 30.1836 15.1074 39.0547 15.1074 50.0019C15.1074 60.949 23.8719 69.8201 34.6874 69.8201C39.3727 69.8301 43.9073 68.1222 47.4491 65.0214C44.7329 66.7592 41.5777 67.6877 38.3603 67.6778Z" fill="url(#paint0_linear_737_8099)"/>
<path d="M44.2119 35.9453C50.8074 39.842 53.0321 48.4146 49.1757 55.0871C45.3259 61.7628 36.8563 64.0146 30.2642 60.1113C26.4995 57.886 23.9931 53.9993 23.5016 49.6151C23.4819 49.8871 23.4819 50.169 23.4819 50.4409C23.4819 59.0036 30.3362 65.9413 38.796 65.9413C47.2557 65.9413 54.11 59.0036 54.11 50.4409C54.1199 44.0006 50.1783 38.2269 44.2119 35.9453Z" fill="url(#paint1_linear_737_8099)"/>
<path d="M36.8302 37.0156C31.8107 37.0156 27.3875 40.3485 25.959 45.2202C28.2132 40.133 34.1108 37.8513 39.1401 40.133C44.1661 42.4146 46.4203 48.3839 44.1661 53.4745C42.1642 58.0079 37.2004 60.3857 32.4594 59.089C38.2391 61.5298 44.8869 58.7706 47.3017 52.9107C49.7131 47.0607 46.9871 40.3319 41.1977 37.8878C39.815 37.3141 38.3308 37.0156 36.8302 37.0156Z" fill="url(#paint2_linear_737_8099)"/>
</g>
<g clip-path="url(#clip1_737_8099)">
<path d="M154.557 90.499L146.981 80.3291C144.743 80.7802 142.546 81.0058 140.411 81.0058C134.847 81.0058 129.755 79.714 125.115 77.1306C120.475 74.5471 116.799 70.9589 114.069 66.325C111.338 61.6912 109.983 56.5037 109.983 50.7216C109.983 44.9396 111.338 39.7521 114.069 35.1593C116.799 30.5664 120.475 26.9782 125.115 24.3948C129.755 21.8113 134.847 20.5195 140.411 20.5195C145.975 20.5195 151.067 21.8113 155.707 24.3948C160.347 26.9782 163.981 30.5664 166.65 35.1593C169.319 39.7521 170.654 44.9396 170.654 50.7216C170.654 55.7656 169.627 60.3789 167.574 64.5617C165.521 68.7445 162.667 72.2096 159.033 74.9571L172.009 90.5195H154.578L154.557 90.499ZM128.995 63.188C131.829 66.3045 135.627 67.8628 140.411 67.8628C145.195 67.8628 148.911 66.284 151.744 63.1469C154.578 60.0099 155.994 55.8681 155.994 50.7011C155.994 45.5342 154.578 41.3309 151.744 38.2143C148.911 35.0977 145.133 33.5395 140.411 33.5395C135.689 33.5395 131.829 35.0772 128.995 38.1733C126.162 41.2489 124.745 45.4317 124.745 50.7011C124.745 55.9706 126.162 60.0919 128.995 63.188Z" fill="white"/>
<path d="M222.887 55.1916C224.961 57.8571 226.008 60.8917 226.008 64.3158C226.008 69.2573 224.283 73.1735 220.834 76.044C217.385 78.9351 212.56 80.3703 206.38 80.3703H178.826V21.3398H205.435C211.451 21.3398 216.153 22.7136 219.54 25.4611C222.928 28.2086 224.632 31.9403 224.632 36.6562C224.632 40.1418 223.729 43.0124 221.902 45.3293C220.074 47.6257 217.652 49.225 214.613 50.1272C218.042 50.8653 220.793 52.5466 222.867 55.2121L222.887 55.1916ZM193.239 45.2268H202.684C205.045 45.2268 206.852 44.7142 208.125 43.6685C209.398 42.6228 210.014 41.1055 210.014 39.0756C210.014 37.0458 209.377 35.508 208.125 34.4418C206.852 33.3756 205.045 32.8425 202.684 32.8425H193.239V45.2063V45.2268ZM209.439 67.1454C210.753 66.0587 211.41 64.4594 211.41 62.3885C211.41 60.3176 210.712 58.6978 209.336 57.5086C207.961 56.3398 206.072 55.7452 203.649 55.7452H193.198V68.7857H203.813C206.236 68.7857 208.084 68.2321 209.418 67.1454H209.439Z" fill="white"/>
</g>
<defs>
<linearGradient id="paint0_linear_737_8099" x1="43.176" y1="39.5092" x2="18.6395" y2="65.2654" gradientUnits="userSpaceOnUse">
<stop offset="0.278846" stop-color="#33CFFF"/>
<stop offset="1" stop-color="#0D87C5"/>
</linearGradient>
<linearGradient id="paint1_linear_737_8099" x1="47.7768" y1="43.0027" x2="29.4928" y2="64.9545" gradientUnits="userSpaceOnUse">
<stop offset="0.278846" stop-color="#33CFFF"/>
<stop offset="1" stop-color="#0D87C5"/>
</linearGradient>
<linearGradient id="paint2_linear_737_8099" x1="43.5848" y1="42.418" x2="29.4717" y2="58.4768" gradientUnits="userSpaceOnUse">
<stop offset="0.278846" stop-color="#33CFFF"/>
<stop offset="1" stop-color="#0D87C5"/>
</linearGradient>
<clipPath id="clip0_737_8099">
<rect width="100.003" height="100" fill="white"/>
</clipPath>
<clipPath id="clip1_737_8099">
<rect width="116.004" height="70" fill="white" transform="translate(110.004 20.5)"/>
</clipPath>
</defs>
</svg>
