<svg width="113" height="50" viewBox="0 0 113 50" fill="none" xmlns="http://www.w3.org/2000/svg">
<g clip-path="url(#clip0_737_8232)">
<path d="M47.1513 0H26.4819C25.1112 0 24 1.12471 24 2.5121V3.61478C24 5.00217 25.1112 6.12688 26.4819 6.12688H47.1513C48.522 6.12688 49.6332 5.00217 49.6332 3.61478V2.5121C49.6332 1.12471 48.522 0 47.1513 0Z" fill="#1D3366"/>
<path d="M47.5195 7.74385H27.1777C28.6308 8.5182 30.0102 9.54129 31.2618 10.8496C32.1858 11.8163 32.9754 12.8261 33.6405 13.8707H47.5195C48.8841 13.8707 50.0014 12.7399 50.0014 11.3586V10.2543C50.0014 8.87305 48.8841 7.74219 47.5195 7.74219V7.74385Z" fill="#1D3366"/>
<path d="M47.5202 15.4821H34.5537C35.5153 17.4338 36.0527 19.4899 36.169 21.609H47.5202C48.8848 21.609 50.0021 20.4781 50.0021 19.0969V17.9926C50.0021 16.6113 48.8848 15.4805 47.5202 15.4805V15.4821Z" fill="#1D3366"/>
<path d="M35.4917 44.125C33.5864 41.6327 34.4694 42.437 32.556 39.9514C31.7565 38.9117 29.9905 36.7147 30.1625 36.4742C36.1961 28.0011 36.0847 19.1996 29.6514 12.4741C22.9265 5.44518 12.4665 6.61418 7.10956 10.5722C0.171708 15.6976 -1.98419 25.2303 1.95573 32.8677C5.3026 39.3544 13.8918 44.9905 24.301 40.8401C24.6237 40.7108 25.5854 42.4668 26.0801 43.2047C28.1639 46.3071 27.8101 45.8528 29.9676 48.9054C30.8932 50.2137 31.9728 50.2966 33.2145 49.4194C33.7617 49.0331 34.2876 48.6136 34.8429 48.2405C36.5434 47.1013 36.794 45.8295 35.49 44.1233L35.4917 44.125ZM17.3025 37.6515C10.3827 37.6515 4.77182 31.974 4.77182 24.9683C4.77182 17.9626 10.3811 12.2851 17.3025 12.2851C24.224 12.2851 29.8333 17.9626 29.8333 24.9683C29.8333 31.974 24.224 37.6515 17.3025 37.6515Z" fill="#1D3366"/>
<path d="M19.1801 33.8408C14.4735 33.8408 10.6565 29.9823 10.6565 25.2184C10.6565 20.4546 14.4686 16.5911 19.1752 16.5911C21.4573 16.5911 23.641 17.5163 25.2465 19.1595C23.4051 16.606 20.4694 15.0938 17.3437 15.0938C11.9359 15.0938 7.55371 19.5293 7.55371 25.0029C7.55371 30.4765 11.9359 34.912 17.3437 34.912C19.6863 34.917 21.9536 34.063 23.7246 32.5127C22.3665 33.3815 20.7889 33.8458 19.1801 33.8408Z" fill="#1D3366"/>
<path d="M22.1062 17.9727C25.4039 19.921 26.5163 24.2073 24.5881 27.5435C22.6632 30.8814 18.4284 32.0073 15.1323 30.0556C13.25 28.943 11.9968 26.9997 11.751 24.8076C11.7412 24.9435 11.7412 25.0845 11.7412 25.2205C11.7412 29.5018 15.1684 32.9707 19.3982 32.9707C23.6281 32.9707 27.0553 29.5018 27.0553 25.2205C27.0602 22.0003 25.0894 19.1135 22.1062 17.9727Z" fill="#1D3366"/>
<path d="M18.4151 18.5078C15.9053 18.5078 13.6938 20.1743 12.9795 22.6101C14.1066 20.0665 17.0554 18.9257 19.57 20.0665C22.0831 21.2073 23.2102 24.192 22.0831 26.7372C21.0821 29.0039 18.6002 30.1928 16.2297 29.5445C19.1195 30.7649 22.4435 29.3853 23.6508 26.4553C24.8566 23.5304 23.4936 20.166 20.5988 18.9439C19.9075 18.657 19.1654 18.5078 18.4151 18.5078Z" fill="#1D3366"/>
</g>
<g clip-path="url(#clip1_737_8232)">
<path d="M77.2783 45.2515L73.4902 40.1665C72.3713 40.3921 71.2728 40.5048 70.2052 40.5048C67.4231 40.5048 64.8772 39.859 62.5571 38.5672C60.237 37.2755 58.3995 35.4814 57.0341 33.1645C55.6688 30.8475 54.9912 28.2538 54.9912 25.3628C54.9912 22.4717 55.6688 19.878 57.0341 17.5816C58.3995 15.2852 60.237 13.4911 62.5571 12.1993C64.8772 10.9076 67.4231 10.2617 70.2052 10.2617C72.9872 10.2617 75.5331 10.9076 77.8532 12.1993C80.1733 13.4911 81.9903 15.2852 83.3249 17.5816C84.6595 19.878 85.3267 22.4717 85.3267 25.3628C85.3267 27.8847 84.8134 30.1914 83.7869 32.2828C82.7603 34.3742 81.3333 36.1068 79.5163 37.4805L86.0043 45.2617H77.2886L77.2783 45.2515ZM64.4974 31.5959C65.9141 33.1542 67.8132 33.9334 70.2052 33.9334C72.5971 33.9334 74.4552 33.144 75.8719 31.5754C77.2886 30.0069 77.9969 27.936 77.9969 25.3525C77.9969 22.769 77.2886 20.6674 75.8719 19.1091C74.4552 17.5508 72.5663 16.7717 70.2052 16.7717C67.844 16.7717 65.9141 17.5406 64.4974 19.0886C63.0807 20.6264 62.3723 22.7178 62.3723 25.3525C62.3723 27.9873 63.0807 30.0479 64.4974 31.5959Z" fill="#1D3366"/>
<path d="M111.444 27.5978C112.48 28.9305 113.004 30.4478 113.004 32.1599C113.004 34.6306 112.142 36.5887 110.417 38.024C108.692 39.4695 106.28 40.1871 103.19 40.1871H89.4131V10.6719H102.718C105.725 10.6719 108.076 11.3588 109.77 12.7325C111.464 14.1063 112.316 15.9721 112.316 18.33C112.316 20.0729 111.864 21.5081 110.951 22.6666C110.037 23.8148 108.826 24.6145 107.306 25.0656C109.021 25.4346 110.396 26.2753 111.433 27.608L111.444 27.5978ZM96.6197 22.6153H101.342C102.523 22.6153 103.426 22.359 104.062 21.8362C104.699 21.3134 105.007 20.5547 105.007 19.5398C105.007 18.5248 104.689 17.7559 104.062 17.2228C103.426 16.6897 102.523 16.4232 101.342 16.4232H96.6197V22.6051V22.6153ZM104.719 33.5746C105.376 33.0313 105.705 32.2316 105.705 31.1962C105.705 30.1607 105.356 29.3508 104.668 28.7562C103.98 28.1719 103.036 27.8746 101.824 27.8746H96.5992V34.3948H101.907C103.118 34.3948 104.042 34.118 104.709 33.5746H104.719Z" fill="#1D3366"/>
</g>
<defs>
<clipPath id="clip0_737_8232">
<rect width="50.0017" height="50" fill="white"/>
</clipPath>
<clipPath id="clip1_737_8232">
<rect width="58.0019" height="35" fill="white" transform="translate(55.002 10.25)"/>
</clipPath>
</defs>
</svg>
