<svg width="113" height="50" viewBox="0 0 113 50" fill="none" xmlns="http://www.w3.org/2000/svg">
<g clip-path="url(#clip0_737_8112)">
<path d="M47.1513 0H26.4819C25.1112 0 24 1.12471 24 2.5121V3.61478C24 5.00217 25.1112 6.12688 26.4819 6.12688H47.1513C48.522 6.12688 49.6332 5.00217 49.6332 3.61478V2.5121C49.6332 1.12471 48.522 0 47.1513 0Z" fill="#0D87C5"/>
<path d="M47.52 7.74385H27.1782C28.6313 8.5182 30.0107 9.54129 31.2623 10.8496C32.1863 11.8163 32.9759 12.8261 33.641 13.8707H47.52C48.8846 13.8707 50.0019 12.7399 50.0019 11.3586V10.2543C50.0019 8.87305 48.8846 7.74219 47.52 7.74219V7.74385Z" fill="#0D87C5"/>
<path d="M47.5197 15.4821H34.5532C35.5149 17.4338 36.0522 19.4899 36.1685 21.609H47.5197C48.8843 21.609 50.0016 20.4781 50.0016 19.0969V17.9926C50.0016 16.6113 48.8843 15.4805 47.5197 15.4805V15.4821Z" fill="#0D87C5"/>
<path d="M35.4922 44.125C33.5869 41.6327 34.4699 42.437 32.5565 39.9514C31.757 38.9117 29.991 36.7147 30.163 36.4742C36.1966 28.0011 36.0852 19.1996 29.6519 12.4741C22.927 5.44518 12.467 6.61418 7.11005 10.5722C0.172196 15.6976 -1.9837 25.2303 1.95621 32.8677C5.30309 39.3544 13.8923 44.9905 24.3015 40.8401C24.6242 40.7108 25.5859 42.4668 26.0806 43.2047C28.1644 46.3071 27.8106 45.8528 29.9681 48.9054C30.8937 50.2137 31.9733 50.2966 33.215 49.4194C33.7622 49.0331 34.2881 48.6136 34.8434 48.2405C36.5439 47.1013 36.7945 45.8295 35.4905 44.1233L35.4922 44.125ZM17.303 37.6515C10.3832 37.6515 4.77231 31.974 4.77231 24.9683C4.77231 17.9626 10.3816 12.2851 17.303 12.2851C24.2245 12.2851 29.8338 17.9626 29.8338 24.9683C29.8338 31.974 24.2245 37.6515 17.303 37.6515Z" fill="#33CFFF"/>
<path d="M19.1801 33.8408C14.4735 33.8408 10.6565 29.9823 10.6565 25.2184C10.6565 20.4546 14.4686 16.5911 19.1752 16.5911C21.4573 16.5911 23.641 17.5163 25.2465 19.1595C23.4051 16.606 20.4694 15.0938 17.3437 15.0938C11.9359 15.0938 7.55371 19.5293 7.55371 25.0029C7.55371 30.4765 11.9359 34.912 17.3437 34.912C19.6863 34.917 21.9536 34.063 23.7246 32.5127C22.3665 33.3815 20.7889 33.8458 19.1801 33.8408Z" fill="url(#paint0_linear_737_8112)"/>
<path d="M22.1062 17.9727C25.4039 19.921 26.5163 24.2073 24.5881 27.5435C22.6632 30.8814 18.4284 32.0073 15.1323 30.0556C13.25 28.943 11.9968 26.9997 11.751 24.8076C11.7412 24.9435 11.7412 25.0845 11.7412 25.2205C11.7412 29.5018 15.1684 32.9707 19.3982 32.9707C23.6281 32.9707 27.0553 29.5018 27.0553 25.2205C27.0602 22.0003 25.0894 19.1135 22.1062 17.9727Z" fill="url(#paint1_linear_737_8112)"/>
<path d="M18.4151 18.5078C15.9053 18.5078 13.6938 20.1743 12.9795 22.6101C14.1066 20.0665 17.0554 18.9257 19.57 20.0665C22.0831 21.2073 23.2102 24.192 22.0831 26.7372C21.0821 29.0039 18.6002 30.1928 16.2297 29.5445C19.1195 30.7649 22.4435 29.3853 23.6508 26.4553C24.8566 23.5304 23.4936 20.166 20.5988 18.9439C19.9075 18.657 19.1654 18.5078 18.4151 18.5078Z" fill="url(#paint2_linear_737_8112)"/>
</g>
<g clip-path="url(#clip1_737_8112)">
<path d="M77.2788 45.2515L73.4907 40.1665C72.3717 40.3921 71.2733 40.5048 70.2057 40.5048C67.4236 40.5048 64.8777 39.859 62.5576 38.5672C60.2375 37.2755 58.4 35.4814 57.0346 33.1645C55.6692 30.8475 54.9917 28.2538 54.9917 25.3628C54.9917 22.4717 55.6692 19.878 57.0346 17.5816C58.4 15.2852 60.2375 13.4911 62.5576 12.1993C64.8777 10.9076 67.4236 10.2617 70.2057 10.2617C72.9877 10.2617 75.5336 10.9076 77.8537 12.1993C80.1738 13.4911 81.9908 15.2852 83.3254 17.5816C84.6599 19.878 85.3272 22.4717 85.3272 25.3628C85.3272 27.8847 84.8139 30.1914 83.7873 32.2828C82.7608 34.3742 81.3338 36.1068 79.5168 37.4805L86.0048 45.2617H77.2891L77.2788 45.2515ZM64.4979 31.5959C65.9145 33.1542 67.8137 33.9334 70.2057 33.9334C72.5976 33.9334 74.4557 33.144 75.8724 31.5754C77.2891 30.0069 77.9974 27.936 77.9974 25.3525C77.9974 22.769 77.2891 20.6674 75.8724 19.1091C74.4557 17.5508 72.5668 16.7717 70.2057 16.7717C67.8445 16.7717 65.9145 17.5406 64.4979 19.0886C63.0812 20.6264 62.3728 22.7178 62.3728 25.3525C62.3728 27.9873 63.0812 30.0479 64.4979 31.5959Z" fill="white"/>
<path d="M111.444 27.5978C112.48 28.9305 113.004 30.4478 113.004 32.1599C113.004 34.6306 112.142 36.5887 110.417 38.024C108.692 39.4695 106.28 40.1871 103.19 40.1871H89.4131V10.6719H102.718C105.725 10.6719 108.076 11.3588 109.77 12.7325C111.464 14.1063 112.316 15.9721 112.316 18.33C112.316 20.0729 111.864 21.5081 110.951 22.6666C110.037 23.8148 108.826 24.6145 107.306 25.0656C109.021 25.4346 110.396 26.2753 111.433 27.608L111.444 27.5978ZM96.6197 22.6153H101.342C102.523 22.6153 103.426 22.359 104.062 21.8362C104.699 21.3134 105.007 20.5547 105.007 19.5398C105.007 18.5248 104.689 17.7559 104.062 17.2228C103.426 16.6897 102.523 16.4232 101.342 16.4232H96.6197V22.6051V22.6153ZM104.719 33.5746C105.376 33.0313 105.705 32.2316 105.705 31.1962C105.705 30.1607 105.356 29.3508 104.668 28.7562C103.98 28.1719 103.036 27.8746 101.824 27.8746H96.5992V34.3948H101.907C103.118 34.3948 104.042 34.118 104.709 33.5746H104.719Z" fill="white"/>
</g>
<defs>
<linearGradient id="paint0_linear_737_8112" x1="21.588" y1="19.7566" x2="9.31977" y2="32.6347" gradientUnits="userSpaceOnUse">
<stop offset="0.278846" stop-color="#33CFFF"/>
<stop offset="1" stop-color="#0D87C5"/>
</linearGradient>
<linearGradient id="paint1_linear_737_8112" x1="23.8887" y1="21.5014" x2="14.7466" y2="32.4773" gradientUnits="userSpaceOnUse">
<stop offset="0.278846" stop-color="#33CFFF"/>
<stop offset="1" stop-color="#0D87C5"/>
</linearGradient>
<linearGradient id="paint2_linear_737_8112" x1="21.7924" y1="21.209" x2="14.7359" y2="29.2384" gradientUnits="userSpaceOnUse">
<stop offset="0.278846" stop-color="#33CFFF"/>
<stop offset="1" stop-color="#0D87C5"/>
</linearGradient>
<clipPath id="clip0_737_8112">
<rect width="50.0017" height="50" fill="white"/>
</clipPath>
<clipPath id="clip1_737_8112">
<rect width="58.0019" height="35" fill="white" transform="translate(55.002 10.25)"/>
</clipPath>
</defs>
</svg>
