<svg width="490" height="612" viewBox="0 0 490 612" fill="none" xmlns="http://www.w3.org/2000/svg">
<g clip-path="url(#clip0_1191_6732)">
<path d="M461.984 0H259.467C246.037 0 235.149 11.0202 235.149 24.6143V35.4186C235.149 49.0127 246.037 60.0329 259.467 60.0329H461.984C475.415 60.0329 486.302 49.0127 486.302 35.4186V24.6143C486.302 11.0202 475.415 0 461.984 0Z" fill="white"/>
<path d="M465.596 75.8561H266.289C280.526 83.4435 294.042 93.4679 306.305 106.287C315.357 115.759 323.094 125.653 329.611 135.889H465.596C478.967 135.889 489.914 124.808 489.914 111.275V100.454C489.914 86.9203 478.967 75.8398 465.596 75.8398V75.8561Z" fill="white"/>
<path d="M465.596 151.715H338.551C347.973 170.838 353.238 190.985 354.377 211.748H465.596C478.966 211.748 489.913 200.668 489.913 187.134V176.313C489.913 162.78 478.966 151.699 465.596 151.699V151.715Z" fill="white"/>
<path d="M347.748 432.368C329.081 407.949 337.732 415.829 318.984 391.474C311.151 381.287 293.848 359.76 295.534 357.404C354.65 274.382 353.559 188.142 290.526 122.244C224.636 53.3732 122.149 64.8273 69.6618 103.609C1.68512 153.829 -19.4382 247.233 19.1648 322.067C51.9573 385.625 136.114 440.849 238.103 400.183C241.265 398.915 250.687 416.121 255.534 423.351C275.951 453.749 272.484 449.298 293.624 479.208C302.693 492.027 313.27 492.84 325.437 484.245C330.798 480.459 335.951 476.349 341.392 472.693C358.053 461.532 360.509 449.07 347.732 432.352L347.748 432.368ZM169.532 368.94C101.732 368.94 46.7568 313.31 46.7568 244.666C46.7568 176.022 101.716 120.392 169.532 120.392C237.348 120.392 292.307 176.022 292.307 244.666C292.307 313.31 237.348 368.94 169.532 368.94Z" fill="white"/>
<path d="M187.927 331.568C141.812 331.568 104.413 293.761 104.413 247.083C104.413 200.406 141.764 162.55 187.879 162.55C210.238 162.55 231.634 171.616 247.364 187.717C229.323 162.696 200.559 147.879 169.933 147.879C116.949 147.879 74.0117 191.34 74.0117 244.971C74.0117 298.603 116.949 342.064 169.933 342.064C192.887 342.112 215.101 333.745 232.453 318.554C219.146 327.068 203.689 331.617 187.927 331.568Z" fill="white"/>
<path d="M216.594 176.102C248.905 195.192 259.804 237.19 240.911 269.88C222.051 302.585 180.559 313.617 148.264 294.494C129.821 283.592 117.542 264.551 115.134 243.072C115.038 244.404 115.038 245.785 115.038 247.117C115.038 289.067 148.617 323.056 190.061 323.056C231.505 323.056 265.084 289.067 265.084 247.117C265.132 215.566 245.823 187.28 216.594 176.102Z" fill="white"/>
<path d="M180.431 181.348C155.84 181.348 134.171 197.676 127.173 221.543C138.216 196.62 167.108 185.442 191.747 196.62C216.369 207.798 227.412 237.043 216.369 261.982C206.562 284.191 182.244 295.841 159.018 289.488C187.333 301.446 219.9 287.928 231.73 259.22C243.544 230.56 230.189 197.595 201.827 185.621C195.053 182.81 187.782 181.348 180.431 181.348Z" fill="white"/>
</g>
<g clip-path="url(#clip1_1191_6732)">
<path d="M229.058 611.998L220.098 599.955C217.451 600.489 214.853 600.756 212.328 600.756C205.748 600.756 199.727 599.226 194.239 596.167C188.752 593.108 184.406 588.859 181.177 583.371C177.947 577.884 176.345 571.741 176.345 564.894C176.345 558.047 177.947 551.904 181.177 546.465C184.406 541.026 188.752 536.777 194.239 533.718C199.727 530.659 205.748 529.129 212.328 529.129C218.908 529.129 224.93 530.659 230.417 533.718C235.905 536.777 240.202 541.026 243.359 546.465C246.515 551.904 248.093 558.047 248.093 564.894C248.093 570.867 246.879 576.33 244.451 581.283C242.023 586.236 238.648 590.34 234.351 593.593L249.696 612.022H229.082L229.058 611.998ZM198.828 579.656C202.179 583.347 206.671 585.192 212.328 585.192C217.986 585.192 222.38 583.323 225.731 579.608C229.082 575.893 230.757 570.988 230.757 564.87C230.757 558.751 229.082 553.774 225.731 550.083C222.38 546.392 217.913 544.547 212.328 544.547C206.744 544.547 202.179 546.368 198.828 550.034C195.478 553.676 193.802 558.63 193.802 564.87C193.802 571.11 195.478 575.99 198.828 579.656Z" fill="white"/>
<path d="M309.863 570.189C312.315 573.345 313.553 576.939 313.553 580.993C313.553 586.845 311.514 591.482 307.435 594.882C303.355 598.305 297.65 600.005 290.341 600.005H257.757V530.102H289.224C296.338 530.102 301.899 531.728 305.905 534.982C309.911 538.236 311.926 542.655 311.926 548.239C311.926 552.367 310.858 555.766 308.697 558.51C306.536 561.229 303.671 563.123 300.078 564.191C304.132 565.065 307.386 567.056 309.838 570.213L309.863 570.189ZM274.802 558.388H285.971C288.763 558.388 290.9 557.781 292.405 556.543C293.91 555.305 294.639 553.508 294.639 551.104C294.639 548.7 293.886 546.879 292.405 545.617C290.9 544.354 288.763 543.723 285.971 543.723H274.802V558.364V558.388ZM293.959 584.344C295.513 583.057 296.29 581.163 296.29 578.711C296.29 576.259 295.464 574.341 293.838 572.932C292.211 571.548 289.977 570.844 287.112 570.844H274.753V586.286H287.306C290.171 586.286 292.356 585.631 293.935 584.344H293.959Z" fill="white"/>
</g>
<defs>
<clipPath id="clip0_1191_6732">
<rect width="489.914" height="489.914" fill="white"/>
</clipPath>
<clipPath id="clip1_1191_6732">
<rect width="137.184" height="82.8934" fill="white" transform="translate(176.369 529.105)"/>
</clipPath>
</defs>
</svg>
