<svg width="75" height="75" viewBox="0 0 75 75" fill="none" xmlns="http://www.w3.org/2000/svg">
<path d="M62.2888 24.1273C67.5532 27.2095 71.0854 32.9164 71.0854 39.4632C71.0854 49.2723 63.1287 57.2215 53.3197 57.2215C44.1931 57.2215 36.6788 50.3372 35.6739 41.4805C35.6589 41.8255 35.6439 42.178 35.6439 42.5304C35.6439 53.3968 44.4556 62.201 55.322 62.201C66.1884 62.201 75 53.3893 75 42.5304C75 34.1163 69.713 26.9395 62.2813 24.1273H62.2888Z" fill="white"/>
<path d="M50.5225 53.9518C49.3676 53.9518 48.2427 53.7943 47.1778 53.5093C48.9026 54.2293 50.8074 54.6342 52.7947 54.6342C60.8489 54.6342 67.3733 48.1099 67.3733 40.0557C67.3733 32.009 60.8489 25.4846 52.7947 25.4846C46.1879 25.4846 40.6159 29.8792 38.8236 35.9011C40.8259 31.439 45.3105 28.3269 50.5225 28.3269C57.6017 28.3269 63.3387 34.0638 63.3387 41.1431C63.3387 48.2224 57.6017 53.9593 50.5225 53.9593V53.9518Z" fill="white"/>
<path d="M32.8542 42.4929C32.8542 30.4041 42.6557 20.5951 54.752 20.5951C60.459 20.5951 65.6559 22.7849 69.5555 26.3621C69.6155 26.437 69.683 26.5195 69.743 26.602C69.743 26.5795 69.728 26.5495 69.7205 26.527C69.9305 26.722 70.133 26.917 70.3355 27.1195C70.1105 26.812 69.8705 26.512 69.638 26.2196C68.4382 21.93 65.9634 15.0457 62.1088 13.7783C62.1088 13.7783 64.4861 17.8429 62.1763 18.8403C62.1763 18.8403 60.3165 18.8628 59.3491 16.1706C59.3491 16.1706 57.4818 6.30906 50.9349 8.08638C48.4827 8.9338 47.6727 10.3737 45.9929 11.6935C44.3131 13.0134 42.0408 14.5207 38.4262 12.2035C38.4262 12.2035 41.1409 16.613 45.048 15.3832C45.048 15.3832 49.7425 13.6583 49.6375 16.0206C49.6375 16.0206 49.6 16.3881 49.3301 16.838C47.2453 16.898 45.2205 17.2055 43.2857 17.7379C41.0734 16.0356 33.1242 9.20377 28.9546 15.2482C27.6572 17.7529 26.8773 19.2603 22.6252 19.2903C22.6252 19.2903 18.5681 18.8553 17.8782 22.335C17.8782 22.335 21.3204 21.4575 21.8828 23.3923C21.8828 23.3923 22.6927 27.007 17.1283 25.6046C15.4485 25.1622 13.4837 23.3624 11.3839 28.1769C11.3839 28.1769 9.38156 32.7814 6.56934 31.2966C6.56934 31.2966 8.60914 35.1587 11.1739 32.6914C11.1739 32.6914 13.9036 29.7742 15.6584 30.1342C18.1257 30.6366 18.8081 34.7987 22.3478 33.3814C24.0501 32.7664 25.9999 32.5264 26.3224 33.5538C26.1124 34.1463 25.9249 34.7462 25.7599 35.3537C24.0201 37.6484 21.5603 34.2738 18.6281 34.5137C15.0435 34.8062 15.1035 38.1209 10.9114 36.5385C8.54165 35.4211 3.93711 33.9963 0 40.4231C0 40.4231 3.64464 37.131 7.46925 39.7932C7.46925 39.7932 10.3415 42.358 11.5563 43.6478C11.5563 43.6478 13.7161 45.7101 16.1459 44.1953C18.4482 43.0629 21.0729 42.148 21.9203 44.0453C22.7977 46.0101 21.3054 49.3773 16.0334 46.4C15.246 45.9576 12.5013 44.5252 9.93651 49.1373C9.93651 49.1373 12.8612 48.0049 14.1961 50.7496C14.1961 50.7496 15.8234 54.0043 18.6206 53.6068C20.0155 53.4268 24.4776 50.2847 25.4375 53.4043C25.9699 56.3441 21.3429 52.9244 19.7005 54.9417C19.2506 55.7891 19.0556 56.2391 18.5306 57.0115C18.5306 57.0115 16.8283 58.7663 13.9936 55.5791C13.9936 55.5791 15.2835 60.4386 19.2656 60.2362C21.2079 60.2362 22.1528 56.584 25.325 59.1863L28.6321 62.5459C28.6321 62.5459 32.1343 65.9056 35.2765 62.4634C35.2765 62.4634 35.2915 62.4259 35.314 62.3734C39.4536 65.3656 44.5305 67.128 50.0275 67.128C56.2969 67.128 62.0263 64.8257 66.4284 61.0386C63.0462 63.1759 59.0416 64.4207 54.7445 64.4207C42.6482 64.4207 32.8467 54.6192 32.8467 42.5229L32.8542 42.4929ZM65.521 20.7226C65.8584 21.42 66.1734 22.17 66.4659 22.9274C67.4558 23.7448 68.2582 24.5472 68.8356 25.2747C67.5457 23.8198 66.0909 22.5149 64.4936 21.39C64.8685 21.2101 65.221 20.9851 65.521 20.7151V20.7226ZM53.0947 10.8686C55.5844 10.8686 57.5343 16.703 58.0592 18.1279C56.5444 17.6179 54.977 17.243 53.3497 17.033C53.4247 16.763 53.4847 16.5005 53.5071 16.2681C53.5821 14.6932 52.9672 13.7183 52.4423 13.1709C52.1048 12.8184 51.5948 12.4209 50.8524 12.1585C51.8123 11.401 52.1948 10.8611 53.0947 10.8611V10.8686ZM18.8081 50.7571C18.7181 50.7046 18.5906 50.5846 18.4482 50.4271L18.5981 50.4871C18.5981 50.4871 19.1456 50.5546 19.2431 50.5621L18.8006 50.7571H18.8081ZM20.068 39.6207C17.7807 39.5682 15.8084 40.9406 15.441 41.2031C15.441 41.2031 14.931 41.6605 14.916 41.6755C14.796 41.6455 13.6411 40.6181 13.1462 40.1532C13.3112 40.1682 13.4837 40.1682 13.6486 40.1682C16.0259 40.1682 17.8632 38.6008 18.4407 37.8284L18.9281 38.0534C20.6304 38.8558 22.2578 39.2608 23.7426 39.2608C24.2001 39.2608 24.635 39.2233 25.04 39.1483C24.935 40.0707 24.8825 41.0006 24.8825 41.953C24.8825 42.3055 24.8975 42.6579 24.9125 43.0104C24.1251 41.1881 22.5427 39.6732 20.0755 39.6207H20.068ZM24.2301 49.1298C24.4776 48.8823 24.665 48.6348 24.8 48.4323C25.07 48.0274 25.2575 47.5174 25.3625 46.955C25.5424 47.8324 25.7674 48.7023 26.0299 49.5422C25.4675 49.3098 24.8675 49.1598 24.2151 49.1298H24.2301ZM26.2024 29.8792C24.5225 29.8792 22.5652 30.5541 22.3478 30.6366L21.8978 30.7941L21.5378 31.0716C21.3879 30.9741 21.0954 30.7266 20.9604 30.5616L20.8479 30.4266L19.3706 28.8143C19.753 28.8593 20.1205 28.8893 20.4655 28.8893C22.7752 28.8893 23.9976 27.8244 24.74 27.0445C26.5398 25.1547 25.5424 22.26 25.4375 22.035C29.2921 21.3451 31.3319 18.0679 32.1943 17.153C34.624 14.5957 38.4637 17.7829 39.7685 19.0128C34.6615 21.3001 30.4545 25.2372 27.8297 30.1492C27.3723 29.9992 26.8398 29.8942 26.2024 29.8942V29.8792ZM33.0792 61.0836C32.5317 61.0836 31.8343 60.6186 31.5868 60.4011L28.3697 57.1315C28.2197 56.9965 28.0772 56.8615 27.9272 56.7415C28.0697 56.6065 28.2047 56.464 28.3322 56.3066C28.5421 56.0291 28.6996 55.7516 28.8196 55.4666C30.1245 57.5139 31.7218 59.3587 33.5516 60.9486C33.3192 61.0836 33.1617 61.0911 33.0792 61.0911V61.0836Z" fill="white"/>
</svg>
