<svg width="675" height="178" viewBox="0 0 675 178" fill="none" xmlns="http://www.w3.org/2000/svg">
<g clip-path="url(#clip0_670_2772)">
<path d="M275.075 159.308L261.596 141.206C257.614 142.009 253.706 142.411 249.907 142.411C240.007 142.411 230.948 140.111 222.692 135.513C214.437 130.914 207.898 124.527 203.04 116.279C198.181 108.031 195.77 98.7972 195.77 88.5052C195.77 78.2132 198.181 68.9796 203.04 60.8044C207.898 52.6291 214.437 46.2423 222.692 41.6437C230.948 37.0451 240.007 34.7458 249.907 34.7458C259.806 34.7458 268.865 37.0451 277.121 41.6437C285.376 46.2423 291.842 52.6291 296.591 60.8044C301.34 68.9796 303.714 78.2132 303.714 88.5052C303.714 97.4834 301.888 105.695 298.235 113.14C294.582 120.586 289.504 126.754 283.039 131.644L306.125 159.345H275.112L275.075 159.308ZM229.596 110.695C234.637 116.243 241.395 119.016 249.907 119.016C258.418 119.016 265.03 116.206 270.071 110.622C275.112 105.038 277.632 97.6658 277.632 88.4687C277.632 79.2716 275.112 71.7898 270.071 66.2423C265.03 60.6949 258.308 57.9211 249.907 57.9211C241.505 57.9211 234.637 60.6584 229.596 66.1693C224.555 71.6438 222.035 79.0891 222.035 88.4687C222.035 97.8483 224.555 105.184 229.596 110.695Z" fill="#1D3366"/>
<path d="M343.421 36.2056V99.0891C343.421 105.366 344.955 110.221 348.06 113.615C351.165 117.009 355.695 118.688 361.686 118.688C367.677 118.688 372.279 117.009 375.457 113.615C378.672 110.221 380.243 105.366 380.243 99.0891V36.2056H405.886V98.9431C405.886 108.323 403.877 116.279 399.895 122.739C395.914 129.235 390.544 134.126 383.786 137.41C377.028 140.695 369.54 142.337 361.247 142.337C352.955 142.337 345.54 140.732 339.001 137.483C332.462 134.235 327.275 129.345 323.476 122.812C319.677 116.279 317.778 108.323 317.778 98.9431V36.2056H343.421Z" fill="#1D3366"/>
<path d="M449.538 36.2056V141.316H423.895V36.2056H449.538Z" fill="#1D3366"/>
<path d="M470.506 60.8408C474.999 52.702 481.282 46.3516 489.318 41.8261C497.355 37.3005 506.487 35.0012 516.679 35.0012C529.172 35.0012 539.875 38.2859 548.751 44.8918C557.628 51.4976 563.582 60.4758 566.578 71.8627H538.414C536.331 67.4831 533.336 64.1254 529.501 61.8262C525.665 59.5269 521.281 58.3955 516.387 58.3955C508.496 58.3955 502.104 61.1327 497.209 66.6437C492.314 72.1182 489.866 79.4905 489.866 88.6511C489.866 97.8117 492.314 105.184 497.209 110.659C502.104 116.133 508.496 118.907 516.387 118.907C521.281 118.907 525.665 117.775 529.501 115.476C533.336 113.177 536.331 109.856 538.414 105.44H566.578C563.582 116.826 557.628 125.768 548.751 132.301C539.838 138.834 529.172 142.119 516.679 142.119C506.487 142.119 497.355 139.856 489.318 135.294C481.282 130.768 474.999 124.454 470.506 116.352C466.013 108.25 463.748 99.0161 463.748 88.6511C463.748 78.2861 466.013 69.016 470.506 60.8773V60.8408Z" fill="#1D3366"/>
<path d="M643.325 141.316L607.965 94.892V141.316H582.322V36.2056H607.965V82.3372L643.033 36.2056H673.17L632.403 87.7022L674.667 141.316H643.325Z" fill="#1D3366"/>
</g>
<path d="M147.832 57.2619C160.326 64.577 168.709 78.1214 168.709 93.6593C168.709 116.939 149.825 135.805 126.545 135.805C104.885 135.805 87.0511 119.467 84.6662 98.447C84.6306 99.2657 84.595 100.102 84.595 100.939C84.595 126.728 105.508 147.623 131.298 147.623C157.087 147.623 178 126.711 178 100.939C178 80.9691 165.452 63.9362 147.814 57.2619H147.832Z" fill="#1D3366"/>
<path d="M119.907 128.045C117.166 128.045 114.496 127.672 111.969 126.995C116.062 128.704 120.583 129.665 125.3 129.665C144.415 129.665 159.899 114.181 159.899 95.0653C159.899 75.9678 144.415 60.4834 125.3 60.4834C109.619 60.4834 96.3952 70.9131 92.1414 85.2051C96.8935 74.6152 107.537 67.2289 119.907 67.2289C136.708 67.2289 150.324 80.8445 150.324 97.6461C150.324 114.448 136.708 128.063 119.907 128.063V128.045Z" fill="#1D3366"/>
<path d="M77.974 100.85C77.974 72.159 101.236 48.8789 129.945 48.8789C143.489 48.8789 155.823 54.076 165.079 62.5658C165.221 62.7437 165.381 62.9395 165.524 63.1353C165.524 63.0819 165.488 63.0107 165.47 62.9573C165.968 63.4201 166.449 63.8828 166.93 64.3634C166.396 63.6337 165.826 62.9217 165.274 62.2276C162.427 52.047 156.553 35.7082 147.405 32.7003C147.405 32.7003 153.047 42.347 147.565 44.7141C147.565 44.7141 143.151 44.7675 140.855 38.378C140.855 38.378 136.423 14.9733 120.886 19.1915C115.066 21.2027 113.143 24.62 109.157 27.7524C105.17 30.8849 99.7769 34.4624 91.1981 28.9627C91.1981 28.9627 97.6411 39.4281 106.914 36.5092C106.914 36.5092 118.056 32.4156 117.806 38.022C117.806 38.022 117.717 38.8941 117.077 39.962C112.129 40.1044 107.323 40.8341 102.731 42.0978C97.4809 38.0576 78.6148 21.8434 68.7189 36.1888C65.6399 42.1334 63.7888 45.7108 53.6972 45.782C53.6972 45.782 44.0684 44.7497 42.431 53.0081C42.431 53.0081 50.6004 50.9257 51.9352 55.5177C51.9352 55.5177 53.8574 64.0964 40.6511 60.7681C36.6643 59.7181 32.0012 55.4465 27.0177 66.8729C27.0177 66.8729 22.2656 77.801 15.5912 74.277C15.5912 74.277 20.4324 83.4431 26.5194 77.5875C26.5194 77.5875 32.9979 70.664 37.1627 71.5183C43.0183 72.7108 44.638 82.5888 53.0387 79.2249C57.0789 77.7655 61.7064 77.1959 62.4718 79.6343C61.9734 81.0403 61.5285 82.4642 61.1369 83.9058C57.0077 89.3521 51.1699 81.3429 44.2108 81.9124C35.7032 82.6066 35.8456 90.4734 25.8964 86.718C20.2722 84.066 9.34407 80.6844 0 95.9374C0 95.9374 8.64994 88.124 17.727 94.4424C17.727 94.4424 24.5438 100.529 27.4271 103.591C27.4271 103.591 32.553 108.485 38.3196 104.89C43.7836 102.202 50.013 100.031 52.0242 104.534C54.1066 109.197 50.5648 117.189 38.0526 110.123C36.1838 109.073 29.6696 105.673 23.5826 116.619C23.5826 116.619 30.524 113.931 33.692 120.446C33.692 120.446 37.5543 128.17 44.193 127.227C47.5035 126.8 58.0934 119.342 60.3716 126.746C61.6353 133.723 50.6538 125.607 46.7559 130.395C45.688 132.406 45.2253 133.474 43.9794 135.307C43.9794 135.307 39.9392 139.472 33.2115 131.908C33.2115 131.908 36.2728 143.441 45.7236 142.96C50.3334 142.96 52.576 134.293 60.1046 140.469L67.9536 148.442C67.9536 148.442 76.2654 156.416 83.7228 148.246C83.7228 148.246 83.7585 148.157 83.8118 148.033C93.6365 155.134 105.686 159.317 118.732 159.317C133.611 159.317 147.209 153.853 157.657 144.865C149.63 149.937 140.125 152.892 129.927 152.892C101.219 152.892 77.9562 129.629 77.9562 100.921L77.974 100.85ZM155.503 49.1815C156.304 50.8367 157.052 52.6166 157.746 54.4142C160.095 56.3542 161.999 58.2586 163.37 59.985C160.309 56.5322 156.856 53.4353 153.065 50.7655C153.955 50.3384 154.791 49.8044 155.503 49.1637V49.1815ZM126.011 25.7946C131.92 25.7946 136.548 39.6417 137.794 43.0233C134.199 41.813 130.479 40.9231 126.617 40.4248C126.795 39.784 126.937 39.1611 126.99 38.6094C127.168 34.8717 125.709 32.558 124.463 31.2587C123.662 30.4222 122.452 29.4789 120.69 28.8559C122.968 27.0583 123.876 25.7768 126.011 25.7768V25.7946ZM44.638 120.463C44.4244 120.339 44.1218 120.054 43.7836 119.68L44.1396 119.823C44.1396 119.823 45.4389 119.983 45.6702 120.001L44.6202 120.463H44.638ZM47.6281 94.033C42.1996 93.9084 37.5187 97.1655 36.6465 97.7885C36.6465 97.7885 35.4363 98.8742 35.4007 98.9098C35.1159 98.8386 32.375 96.4002 31.2003 95.2967C31.5919 95.3323 32.0012 95.3323 32.3928 95.3323C38.0348 95.3323 42.3954 91.6125 43.7658 89.7793L44.9227 90.3132C48.9629 92.2176 52.8251 93.1787 56.3492 93.1787C57.4349 93.1787 58.4672 93.0897 59.4283 92.9117C59.1791 95.1009 59.0545 97.3079 59.0545 99.5683C59.0545 100.405 59.0901 101.241 59.1257 102.078C57.2569 97.7529 53.5015 94.1576 47.6459 94.033H47.6281ZM57.5061 116.601C58.0934 116.014 58.5384 115.427 58.8587 114.946C59.4995 113.985 59.9444 112.775 60.1936 111.44C60.6208 113.522 61.1547 115.587 61.7776 117.58C60.4428 117.028 59.0189 116.672 57.4705 116.601H57.5061ZM62.187 70.9131C58.2002 70.9131 53.5549 72.515 53.0387 72.7108L51.9708 73.0845L51.1165 73.7431C50.7605 73.5117 50.0664 72.9243 49.746 72.5328L49.4791 72.2124L45.9728 68.3858C46.8805 68.4926 47.7526 68.5638 48.5714 68.5638C54.0532 68.5638 56.9543 66.0364 58.7163 64.1854C62.9879 59.7003 60.6208 52.8301 60.3716 52.2962C69.5199 50.6588 74.361 42.8809 76.4078 40.7095C82.1744 34.6404 91.2871 42.2046 94.384 45.1235C82.2634 50.552 72.2786 59.896 66.0492 71.5539C64.9635 71.1979 63.6998 70.9487 62.187 70.9487V70.9131ZM78.508 144.972C77.2087 144.972 75.5535 143.868 74.9661 143.352L67.3307 135.592C66.9747 135.272 66.6366 134.951 66.2806 134.666C66.6188 134.346 66.9391 134.008 67.2417 133.634C67.74 132.976 68.1138 132.317 68.3986 131.641C71.4955 136.5 75.2865 140.878 79.6293 144.651C79.0775 144.972 78.7037 144.989 78.508 144.989V144.972Z" fill="#1D3366"/>
<defs>
<clipPath id="clip0_670_2772">
<rect width="478.824" height="124.601" fill="white" transform="translate(195.807 34.7092)"/>
</clipPath>
</defs>
</svg>
