<svg width="675" height="178" viewBox="0 0 675 178" fill="none" xmlns="http://www.w3.org/2000/svg">
<g clip-path="url(#clip0_670_2628)">
<path d="M106.906 36.5303C106.906 36.5303 118.054 32.4337 117.808 38.0393C117.808 38.0393 117.672 39.4757 116.415 40.8783C140.747 39.495 160.354 54.2657 164.867 62.1928C164.76 62.1057 164.649 62.0235 164.543 61.9413C164.876 62.3475 165.205 62.7538 165.52 63.1746C162.782 53.0808 156.809 35.829 147.388 32.7191C147.388 32.7191 153.032 42.3679 147.542 44.7426C147.542 44.7426 143.127 44.8007 140.834 38.402C140.834 38.402 136.394 14.9885 120.869 19.2156C115.051 21.2324 113.126 24.6373 109.145 27.7714C105.165 30.9054 99.7674 34.4796 91.1778 28.9902C91.1778 28.9902 97.62 39.4515 106.892 36.5351H106.896L106.906 36.5303Z" fill="#0D87C5"/>
<path d="M62.2506 89.6838C66.2166 70.2604 80.4456 54.6627 88.5225 49.8794C93.7605 46.6776 98.9597 44.4383 104.038 42.9873C102.423 42.6778 79.8604 20.0526 68.7219 36.1969C65.641 42.1361 63.7983 45.7248 53.6997 45.7828C53.6997 45.7828 44.0654 44.7527 42.4355 53.0134C42.4355 53.0134 50.614 50.9289 51.9344 55.5284C51.9344 55.5284 53.8642 64.1084 40.6412 60.7808C36.6607 59.7313 31.9983 55.451 26.9974 66.8845C26.9974 66.8845 22.2479 77.8198 15.5784 74.2844C15.5784 74.2844 20.4246 83.4495 26.504 77.6022C26.504 77.6022 32.9801 70.686 37.154 71.5324C43.011 72.7222 44.6216 82.608 53.0274 79.2418C57.9607 77.4668 63.7983 76.9831 62.3667 81.7616C58.2025 91.1251 51.8812 81.2876 44.2153 81.9164C35.6982 82.608 35.853 90.4867 25.8946 86.7142C20.265 84.0541 9.33445 80.6831 0 95.9374C0 95.9374 8.65734 88.1313 17.7258 94.4429C17.7258 94.4429 24.5501 100.537 27.4278 103.589C27.4278 103.589 32.5594 108.483 38.3148 104.895C43.7752 102.215 50.0046 100.034 52.0263 104.542C54.1108 109.199 50.5753 117.194 38.0488 110.123C36.1819 109.068 29.672 105.668 23.5828 116.613C23.5828 116.613 30.528 113.929 33.6911 120.439C33.6911 120.439 37.5603 128.168 44.1863 127.225C47.4993 126.804 58.0816 119.341 60.3644 126.741C61.6364 133.71 50.6382 125.605 46.7497 130.397C45.6856 132.414 45.2116 133.469 43.9735 135.302C43.9735 135.302 39.9253 139.476 33.2026 131.897C33.2026 131.897 36.269 143.437 45.7243 142.943C50.3287 142.953 52.5825 134.281 60.1129 140.453L67.9577 148.428C67.9577 148.428 76.262 156.399 83.7296 148.225C83.7296 148.225 83.7731 148.109 83.8553 147.901C63.837 131.79 58.5894 108.551 62.2555 89.6935V89.679L62.2506 89.6838Z" fill="#0D87C5"/>
<path d="M62.2506 89.6838C62.4489 88.7262 62.6763 87.773 62.9181 86.8299C61.3269 87.8262 59.165 88.484 56.3259 88.6146C49.2018 88.9483 47.8475 84.431 44.4281 84.7018C39.4707 85.0888 37.6232 90.6121 32.3611 90.7765C26.5331 90.9603 20.8453 86.53 17.808 86.53C15.1721 86.53 12.5507 87.6666 10.0309 89.8721C10.8193 89.7463 11.6366 89.6738 12.483 89.6738C15.6122 89.6738 18.5915 90.6362 21.329 92.5515L21.4402 92.6289L21.5418 92.7208C21.8223 92.9723 28.4677 98.9163 31.2245 101.852C31.2438 101.867 33.2897 103.472 35.5096 103.569C39.2192 103.733 43.4657 98.66 47.596 98.66C50.8704 98.66 53.453 100.271 55.1458 103.482C55.378 104.024 57.3561 108.88 55.0152 112.439C54.0721 113.866 51.6829 115.462 47.9298 115.573C43.7655 115.786 40.675 112.405 35.7563 111.08C33.7249 110.534 31.8871 112.26 30.4748 113.837C33.812 114.243 36.4721 116.192 38.0488 119.447C38.0778 119.505 39.5529 125.183 44.7715 125.14C48.7133 125.14 54.4542 121.537 56.887 121.213C63.1599 120.386 64.3594 126.518 64.3594 126.518C64.3594 126.518 64.8043 129.038 63.6 130.823C60.3306 135.664 55.6633 130.475 52.2923 131.471C48.2296 132.665 48.9503 139.727 43.1223 138.745C42.2082 138.59 45.1584 140.675 47.3155 140.675C49.4726 140.675 50.88 135.166 56.8144 135.563C62.9471 135.964 71.6238 150.831 78.5013 149.608C80.2424 149.298 81.8917 148.935 83.4345 147.557C63.7645 131.456 58.6136 108.416 62.2555 89.6935L62.2506 89.6838Z" fill="#33CFFF"/>
<path d="M27.0989 76.0542C27.7325 75.3577 36.5011 65.6509 40.4767 69.2492C43.7123 72.3736 45.9565 78.1 51.2524 78.4531C54.6622 78.6804 58.9135 75.5367 62.1733 75.5367C64.0692 75.5367 65.4911 76.0348 66.4052 77.007C72.4218 63.6776 82.298 53.5644 88.5177 49.8742C92.6819 47.3253 96.822 45.3907 100.899 43.9736C100.672 43.9011 80.7019 26.7944 72.8523 37.6523C67.803 45.9614 62.0379 49.2067 48.5972 50.2321H48.6601C54.2656 50.2321 55.9439 53.1437 56.4759 55.0154C56.5581 55.3878 57.2207 58.7201 55.1265 61.327C53.7094 63.0923 52.0166 64.0935 48.5585 63.9919C44.0025 63.8565 39.6738 61.2496 36.0223 62.5216C33.1833 63.5083 32.7335 64.7271 31.3986 67.7886C31.0359 68.6205 28.1291 74.995 23.1765 76.799C23.6553 77.0698 24.1535 77.244 24.6565 77.244C25.4497 77.244 26.3057 76.8038 27.0989 76.0493V76.0542Z" fill="#33CFFF"/>
<path d="M108.41 34.3683C108.584 34.3006 112.763 32.782 116.274 32.782C118.417 32.782 120.057 33.3478 121.125 34.4699C121.754 35.1277 122.484 36.2933 122.393 38.2327C122.33 38.963 122.069 39.882 121.561 40.8154C143.475 41.5699 160.678 54.8219 164.872 62.1831C164.765 62.1009 164.654 62.009 164.543 61.9267C164.838 62.2846 165.133 62.6522 165.418 63.0198C163.174 54.9815 159.397 44.6121 154.391 38.8518C154.613 40.3027 155.373 46.9142 150.319 47.0255C146.561 47.1029 143.199 45.3666 140.979 39.1613L140.921 39.0017L140.887 38.8373C140.849 38.6583 136.278 20.5263 126.001 21.2227C119.641 21.8515 111.926 34.7988 101.305 33.4301C102.679 34.2039 104.232 34.7359 105.924 34.7359C106.776 34.7359 107.641 34.6005 108.401 34.3635H108.405L108.41 34.3683Z" fill="#33CFFF"/>
<path d="M158.048 55.1904C157.264 53.1249 156.413 51.1029 155.504 49.2213C154.686 49.9468 153.743 50.5515 152.698 51.0159C154.56 52.2977 156.345 53.6909 158.053 55.1953L158.048 55.1904Z" fill="#D7F0F7"/>
<path d="M57.502 116.638C59.8429 116.74 61.9856 117.446 63.8041 118.655C61.0859 109.794 60.5829 100.721 61.8114 92.3726C60.2008 92.895 58.3774 93.219 56.3315 93.219C52.7959 93.219 48.9459 92.2565 44.8977 90.3557L43.7466 89.8189C42.3729 91.6471 38.0055 95.3762 32.3708 95.3762C31.9838 95.3762 31.5824 95.3617 31.1858 95.3326C32.3563 96.4402 35.0986 98.8731 35.3792 98.9504C35.4227 98.9118 36.6318 97.8283 36.6318 97.8283C37.5121 97.1996 42.194 93.9494 47.6207 94.0751C59.5575 94.3556 62.8755 109.006 58.8756 114.974C58.5467 115.468 58.1017 116.048 57.5165 116.638H57.502Z" fill="#D7F0F7"/>
<path d="M68.8379 130.363C68.5622 131.432 68.0689 132.564 67.2274 133.652C66.9324 134.024 66.6132 134.373 66.2698 134.692C66.6228 134.982 66.9711 135.287 67.3241 135.615L74.9606 143.383C75.5506 143.91 77.1998 145.008 78.5007 145.008C78.7329 145.008 79.2068 145.008 79.9371 144.48C75.333 140.128 71.6671 135.359 68.8427 130.368L68.8379 130.363Z" fill="#D7F0F7"/>
<path d="M68.5001 72.7664C74.5314 61.5453 82.9749 53.1634 88.5225 49.8794C90.8393 48.4622 93.1525 47.2337 95.445 46.1793C95.445 46.1793 83.4308 33.309 76.408 40.7139C74.3524 42.8856 69.5158 50.6774 60.3648 52.3073C60.6067 52.8539 62.9815 59.7268 58.7107 64.2055C56.9405 66.0628 54.0433 68.5923 48.5586 68.5923C47.7363 68.5923 46.8609 68.5343 45.9516 68.423L49.463 72.2488L49.7339 72.5777C50.0386 72.9647 50.7447 73.5596 51.0978 73.7869L51.9491 73.1194L53.018 72.747C53.5355 72.5632 58.1932 70.9526 62.1737 70.9526C65.0564 70.9526 67.0926 71.7748 68.4952 72.776L68.5001 72.7664Z" fill="#D7F0F7"/>
<path d="M126.968 38.6432C126.905 39.3928 126.711 40.2682 126.387 41.1919C130.503 41.6852 134.415 42.5944 138.067 43.7842C137.516 42.8121 132.539 25.8222 126 25.8222C123.858 25.8222 122.954 27.1039 120.676 28.8981C122.426 29.522 123.635 30.4554 124.443 31.2969C125.691 32.5979 127.142 34.8999 126.968 38.6432Z" fill="#D7F0F7"/>
<path d="M43.7752 119.733C44.1136 120.105 44.4182 120.395 44.6309 120.511L45.6801 120.057C45.448 120.032 44.1426 119.873 44.1426 119.873L43.7704 119.733H43.7752Z" fill="#D7F0F7"/>
<path d="M129.938 152.862C101.233 152.862 77.9598 129.594 77.9598 100.894C77.9598 72.1942 101.233 48.9258 129.938 48.9258C144.413 48.9258 157.501 54.8505 166.927 64.3977C156.065 49.569 138.532 39.925 118.736 39.9299C85.7611 39.9299 59.0346 66.6515 59.0346 99.6123C59.0346 132.573 85.7659 159.295 118.736 159.295C133.613 159.295 147.209 153.839 157.661 144.838C149.632 149.912 140.128 152.862 129.933 152.862H129.938Z" fill="url(#paint0_linear_670_2628)"/>
<path d="M147.813 57.2887C160.311 64.6015 168.712 78.1583 168.712 93.6883C168.712 116.971 149.83 135.838 126.547 135.838C104.88 135.838 87.0474 119.501 84.663 98.4813C84.6195 99.3035 84.5905 100.14 84.5905 100.972C84.5905 126.765 105.504 147.664 131.297 147.664C157.09 147.664 178.003 126.755 178.003 100.972C178.003 80.9973 165.452 63.9631 147.808 57.2887" fill="url(#paint1_linear_670_2628)"/>
<path d="M125.295 60.5191C109.62 60.5191 96.3821 70.9418 92.1356 85.2337C96.8899 74.6369 107.53 67.2467 119.902 67.2467C136.704 67.2467 150.328 80.8615 150.328 97.6635C150.328 114.466 136.709 128.08 119.902 128.08C117.155 128.08 114.495 127.713 111.96 127.026C116.062 128.738 120.569 129.691 125.295 129.696C144.404 129.696 159.89 114.204 159.895 95.1001C159.895 75.9959 144.409 60.5095 125.295 60.5095" fill="url(#paint2_linear_670_2628)"/>
</g>
<g clip-path="url(#clip1_670_2628)">
<path d="M275.072 161.089L261.592 142.987C257.611 143.79 253.702 144.191 249.903 144.191C240.004 144.191 230.944 141.892 222.689 137.293C214.433 132.695 207.895 126.308 203.036 118.06C198.178 109.811 195.767 100.578 195.767 90.2857C195.767 79.9937 198.178 70.7601 203.036 62.5849C207.895 54.4097 214.433 48.0228 222.689 43.4242C230.944 38.8256 240.004 36.5264 249.903 36.5264C259.802 36.5264 268.862 38.8256 277.117 43.4242C285.373 48.0228 291.838 54.4097 296.587 62.5849C301.336 70.7601 303.71 79.9937 303.71 90.2857C303.71 99.2639 301.884 107.476 298.231 114.921C294.578 122.366 289.501 128.534 283.035 133.425L306.121 161.125H275.108L275.072 161.089ZM229.593 112.476C234.634 118.023 241.392 120.797 249.903 120.797C258.414 120.797 265.026 117.987 270.067 112.403C275.108 106.819 277.629 99.4464 277.629 90.2492C277.629 81.0521 275.108 73.5703 270.067 68.0229C265.026 62.4754 258.305 59.7017 249.903 59.7017C241.501 59.7017 234.634 62.4389 229.593 67.9499C224.552 73.4243 222.031 80.8696 222.031 90.2492C222.031 99.6288 224.552 106.965 229.593 112.476Z" fill="#1D3366"/>
<path d="M343.419 37.9861V100.87C343.419 107.147 344.953 112.001 348.058 115.395C351.163 118.789 355.692 120.468 361.683 120.468C367.674 120.468 372.277 118.789 375.455 115.395C378.669 112.001 380.24 107.147 380.24 100.87V37.9861H405.883V100.724C405.883 110.103 403.874 118.059 399.893 124.519C395.911 131.016 390.541 135.906 383.783 139.191C377.025 142.476 369.537 144.118 361.245 144.118C352.953 144.118 345.537 142.512 338.999 139.264C332.46 136.016 327.273 131.125 323.474 124.592C319.675 118.059 317.775 110.103 317.775 100.724V37.9861H343.419Z" fill="#1D3366"/>
<path d="M449.536 37.9861V143.096H423.893V37.9861H449.536Z" fill="#1D3366"/>
<path d="M470.504 62.6213C474.997 54.4825 481.281 48.1322 489.317 43.6066C497.353 39.081 506.486 36.7817 516.677 36.7817C529.17 36.7817 539.873 40.0664 548.75 46.6723C557.626 53.2782 563.581 62.2563 566.576 73.6432H538.412C536.33 69.2636 533.335 65.906 529.499 63.6067C525.663 61.3074 521.28 60.176 516.385 60.176C508.495 60.176 502.102 62.9132 497.207 68.4242C492.312 73.8987 489.865 81.271 489.865 90.4316C489.865 99.5922 492.312 106.965 497.207 112.439C502.102 117.913 508.495 120.687 516.385 120.687C521.28 120.687 525.663 119.556 529.499 117.257C533.335 114.957 536.33 111.636 538.412 107.22H566.576C563.581 118.607 557.626 127.549 548.75 134.081C539.837 140.614 529.17 143.899 516.677 143.899C506.486 143.899 497.353 141.636 489.317 137.074C481.281 132.549 474.997 126.235 470.504 118.132C466.011 110.03 463.747 100.797 463.747 90.4316C463.747 80.0666 466.011 70.7965 470.504 62.6578V62.6213Z" fill="#1D3366"/>
<path d="M643.325 143.096L607.964 96.6725V143.096H582.321V37.9861H607.964V84.1177L643.032 37.9861H673.169L632.402 89.4827L674.667 143.096H643.325Z" fill="#1D3366"/>
</g>
<defs>
<linearGradient id="paint0_linear_670_2628" x1="141.196" y1="51.7827" x2="60.534" y2="171.866" gradientUnits="userSpaceOnUse">
<stop offset="0.278846" stop-color="#33CFFF"/>
<stop offset="1" stop-color="#0D87C5"/>
</linearGradient>
<linearGradient id="paint1_linear_670_2628" x1="141.196" y1="51.7827" x2="60.534" y2="171.866" gradientUnits="userSpaceOnUse">
<stop offset="0.278846" stop-color="#33CFFF"/>
<stop offset="1" stop-color="#0D87C5"/>
</linearGradient>
<linearGradient id="paint2_linear_670_2628" x1="141.196" y1="51.7827" x2="60.534" y2="171.866" gradientUnits="userSpaceOnUse">
<stop offset="0.278846" stop-color="#33CFFF"/>
<stop offset="1" stop-color="#0D87C5"/>
</linearGradient>
<clipPath id="clip0_670_2628">
<rect width="178.003" height="178" fill="white"/>
</clipPath>
<clipPath id="clip1_670_2628">
<rect width="478.827" height="124.6" fill="white" transform="translate(195.803 36.4897)"/>
</clipPath>
</defs>
</svg>
