<svg width="500" height="500" viewBox="0 0 500 500" fill="none" xmlns="http://www.w3.org/2000/svg">
<path d="M481.25 120H281.25C276.277 120 271.507 118.025 267.992 114.508C264.475 110.992 262.5 106.223 262.5 101.25C262.5 96.2773 264.475 91.508 267.992 87.9917C271.507 84.4755 276.277 82.5 281.25 82.5H481.25C486.222 82.5 490.992 84.4755 494.507 87.9917C498.025 91.508 500 96.2773 500 101.25C500 106.223 498.025 110.992 494.507 114.508C490.992 118.025 486.222 120 481.25 120Z" fill="#1D3366"/>
<path d="M481.25 270H281.25C276.277 270 271.507 268.025 267.992 264.508C264.475 260.993 262.5 256.222 262.5 251.25C262.5 246.278 264.475 241.507 267.992 237.992C271.507 234.475 276.277 232.5 281.25 232.5H481.25C486.222 232.5 490.992 234.475 494.507 237.992C498.025 241.507 500 246.278 500 251.25C500 256.222 498.025 260.993 494.507 264.508C490.992 268.025 486.222 270 481.25 270Z" fill="#1D3366"/>
<path d="M481.25 420H281.25C276.277 420 271.507 418.025 267.992 414.508C264.475 410.993 262.5 406.222 262.5 401.25C262.5 396.278 264.475 391.507 267.992 387.992C271.507 384.475 276.277 382.5 281.25 382.5H481.25C486.222 382.5 490.992 384.475 494.507 387.992C498.025 391.507 500 396.278 500 401.25C500 406.222 498.025 410.993 494.507 414.508C490.992 418.025 486.222 420 481.25 420Z" fill="#1D3366"/>
<path d="M168.75 232.5H43.75C32.167 232.435 21.0772 227.805 12.8865 219.612C4.696 211.422 0.06575 200.333 0 188.75V63.75C0.06575 52.167 4.696 41.0773 12.8865 32.8865C21.0772 24.696 32.167 20.0658 43.75 20H168.75C180.333 20.0658 191.422 24.696 199.612 32.8865C207.805 41.0773 212.435 52.167 212.5 63.75V188.75C212.435 200.333 207.805 211.422 199.612 219.612C191.422 227.805 180.333 232.435 168.75 232.5ZM43.75 57.5C42.0925 57.5 40.5027 58.1585 39.3305 59.3305C38.1585 60.5027 37.5 62.0925 37.5 63.75V188.75C37.5 190.407 38.1585 191.997 39.3305 193.169C40.5027 194.341 42.0925 195 43.75 195H168.75C170.407 195 171.997 194.341 173.169 193.169C174.341 191.997 175 190.407 175 188.75V63.75C175 62.0925 174.341 60.5027 173.169 59.3305C171.997 58.1585 170.407 57.5 168.75 57.5H43.75Z" fill="#1D3366"/>
<path d="M168.75 482.5H43.75C32.167 482.435 21.0772 477.805 12.8865 469.613C4.696 461.423 0.06575 450.332 0 438.75V313.75C0.06575 302.168 4.696 291.078 12.8865 282.888C21.0772 274.695 32.167 270.065 43.75 270H168.75C180.333 270.065 191.422 274.695 199.612 282.888C207.805 291.078 212.435 302.168 212.5 313.75V438.75C212.435 450.332 207.805 461.423 199.612 469.613C191.422 477.805 180.333 482.435 168.75 482.5ZM43.75 307.5C42.0925 307.5 40.5027 308.158 39.3305 309.33C38.1585 310.503 37.5 312.093 37.5 313.75V438.75C37.5 440.407 38.1585 441.997 39.3305 443.17C40.5027 444.342 42.0925 445 43.75 445H168.75C170.407 445 171.997 444.342 173.169 443.17C174.341 441.997 175 440.407 175 438.75V313.75C175 312.093 174.341 310.503 173.169 309.33C171.997 308.158 170.407 307.5 168.75 307.5H43.75Z" fill="#1D3366"/>
<path d="M93.7499 170.001C89.0341 169.829 84.5626 167.861 81.2499 164.501L56.2499 139.501C53.9652 135.977 52.9297 131.788 53.3092 127.605C53.6889 123.423 55.4619 119.489 58.3439 116.434C61.2259 113.379 65.0499 111.38 69.2034 110.757C73.3569 110.135 77.5989 110.925 81.2499 113.001L92.9999 124.751L131.25 88.0009C132.795 85.6174 134.862 83.6164 137.293 82.1487C139.725 80.6809 142.459 79.7847 145.287 79.5279C148.116 79.2712 150.966 79.6604 153.623 80.6664C156.279 81.6722 158.672 83.2684 160.621 85.3344C162.57 87.4007 164.024 89.8827 164.874 92.5929C165.724 95.3032 165.946 98.1712 165.525 100.98C165.104 103.789 164.051 106.466 162.444 108.808C160.837 111.15 158.719 113.097 156.25 114.501L106.25 164.501C102.937 167.861 98.4654 169.829 93.7499 170.001Z" fill="#1D3366"/>
</svg>
