<svg width="364" height="50" viewBox="0 0 364 50" fill="none" xmlns="http://www.w3.org/2000/svg">
<g clip-path="url(#clip0_737_7279)">
<path d="M48.1248 12H28.125C27.6277 12 27.1507 11.8025 26.7992 11.4508C26.4475 11.0992 26.25 10.6223 26.25 10.125C26.25 9.62773 26.4475 9.1508 26.7992 8.79917C27.1507 8.44755 27.6277 8.25 28.125 8.25H48.1248C48.6221 8.25 49.0991 8.44755 49.4506 8.79917C49.8023 9.1508 49.9998 9.62773 49.9998 10.125C49.9998 10.6223 49.8023 11.0992 49.4506 11.4508C49.0991 11.8025 48.6221 12 48.1248 12Z" fill="#0D87C5"/>
<path d="M48.1248 27H28.125C27.6277 27 27.1507 26.8025 26.7992 26.4508C26.4475 26.0993 26.25 25.6222 26.25 25.125C26.25 24.6278 26.4475 24.1507 26.7992 23.7992C27.1507 23.4475 27.6277 23.25 28.125 23.25H48.1248C48.6221 23.25 49.0991 23.4475 49.4506 23.7992C49.8023 24.1507 49.9998 24.6278 49.9998 25.125C49.9998 25.6222 49.8023 26.0993 49.4506 26.4508C49.0991 26.8025 48.6221 27 48.1248 27Z" fill="#0D87C5"/>
<path d="M48.1248 42H28.125C27.6277 42 27.1507 41.8025 26.7992 41.4508C26.4475 41.0993 26.25 40.6222 26.25 40.125C26.25 39.6278 26.4475 39.1507 26.7992 38.7992C27.1507 38.4475 27.6277 38.25 28.125 38.25H48.1248C48.6221 38.25 49.0991 38.4475 49.4506 38.7992C49.8023 39.1507 49.9998 39.6278 49.9998 40.125C49.9998 40.6222 49.8023 41.0993 49.4506 41.4508C49.0991 41.8025 48.6221 42 48.1248 42Z" fill="#0D87C5"/>
<path d="M16.8749 23.25H4.37497C3.21668 23.2435 2.10771 22.7805 1.28864 21.9612C0.469597 21.1422 0.00657495 20.0333 0 18.875V6.375C0.00657495 5.2167 0.469597 4.10773 1.28864 3.28865C2.10771 2.4696 3.21668 2.00658 4.37497 2H16.8749C18.0332 2.00658 19.1421 2.4696 19.9611 3.28865C20.7803 4.10773 21.2433 5.2167 21.2498 6.375V18.875C21.2433 20.0333 20.7803 21.1422 19.9611 21.9612C19.1421 22.7805 18.0332 23.2435 16.8749 23.25ZM4.37497 5.75C4.20922 5.75 4.05025 5.81585 3.93302 5.93305C3.81582 6.05027 3.74997 6.20925 3.74997 6.375V18.875C3.74997 19.0407 3.81582 19.1997 3.93302 19.3169C4.05025 19.4341 4.20922 19.5 4.37497 19.5H16.8749C17.0406 19.5 17.1996 19.4341 17.3168 19.3169C17.434 19.1997 17.4999 19.0407 17.4999 18.875V6.375C17.4999 6.20925 17.434 6.05027 17.3168 5.93305C17.1996 5.81585 17.0406 5.75 16.8749 5.75H4.37497Z" fill="url(#paint0_linear_737_7279)"/>
<path d="M16.8749 48.25H4.37497C3.21668 48.2435 2.10771 47.7805 1.28864 46.9613C0.469597 46.1423 0.00657495 45.0332 0 43.875V31.375C0.00657495 30.2168 0.469597 29.1078 1.28864 28.2888C2.10771 27.4695 3.21668 27.0065 4.37497 27H16.8749C18.0332 27.0065 19.1421 27.4695 19.9611 28.2888C20.7803 29.1078 21.2433 30.2168 21.2498 31.375V43.875C21.2433 45.0332 20.7803 46.1423 19.9611 46.9613C19.1421 47.7805 18.0332 48.2435 16.8749 48.25ZM4.37497 30.75C4.20922 30.75 4.05025 30.8158 3.93302 30.933C3.81582 31.0503 3.74997 31.2093 3.74997 31.375V43.875C3.74997 44.0407 3.81582 44.1997 3.93302 44.317C4.05025 44.4342 4.20922 44.5 4.37497 44.5H16.8749C17.0406 44.5 17.1996 44.4342 17.3168 44.317C17.434 44.1997 17.4999 44.0407 17.4999 43.875V31.375C17.4999 31.2093 17.434 31.0503 17.3168 30.933C17.1996 30.8158 17.0406 30.75 16.8749 30.75H4.37497Z" fill="#33CFFF"/>
<path d="M9.37496 17.0003C8.90339 16.9831 8.45624 16.7863 8.12497 16.4503L5.62499 13.9503C5.39652 13.5979 5.29297 13.179 5.33092 12.7607C5.36889 12.3425 5.54619 11.9491 5.83439 11.6436C6.12259 11.3381 6.50498 11.1382 6.92033 11.0759C7.33568 11.0137 7.75987 11.0927 8.12497 11.3003L9.29996 12.4753L13.1249 8.80029C13.2795 8.56194 13.4861 8.36184 13.7293 8.21506C13.9725 8.06829 14.2458 7.97866 14.5287 7.95299C14.8115 7.92731 15.0966 7.96624 15.3622 8.06684C15.6278 8.16741 15.8671 8.32704 16.062 8.53364C16.2569 8.74026 16.4024 8.98846 16.4873 9.25949C16.5723 9.53051 16.5946 9.81731 16.5525 10.0982C16.5104 10.3791 16.405 10.6468 16.2443 10.881C16.0836 11.1152 15.8718 11.3099 15.6249 11.4503L10.625 16.4503C10.2937 16.7863 9.84651 16.9831 9.37496 17.0003Z" fill="url(#paint1_linear_737_7279)"/>
</g>
<path d="M56.8778 17.423C58.1199 15.1711 59.8568 13.414 62.0784 12.1618C64.3 10.8995 66.8144 10.2734 69.6319 10.2734C73.0855 10.2734 76.0341 11.1823 78.4981 13.0101C80.952 14.8379 82.598 17.3221 83.4261 20.4727H75.6403C75.0647 19.2609 74.2367 18.3319 73.1763 17.6957C72.116 17.0595 70.9042 16.7465 69.5511 16.7465C67.3699 16.7465 65.6027 17.5038 64.2495 19.0287C62.8963 20.5434 62.2198 22.5833 62.2198 25.1179C62.2198 27.6526 62.8963 29.6925 64.2495 31.2072C65.6027 32.722 67.3699 33.4894 69.5511 33.4894C70.9042 33.4894 72.116 33.1764 73.1763 32.5402C74.2367 31.904 75.0647 30.9851 75.6403 29.7632H83.4261C82.598 32.9138 80.952 35.3879 78.4981 37.1955C76.0341 39.0031 73.0855 39.912 69.6319 39.912C66.8144 39.912 64.2899 39.2859 62.0683 38.0236C59.8467 36.7714 58.1098 35.0244 56.8677 32.7826C55.6256 30.5407 54.9995 27.9859 54.9995 25.1179C54.9995 22.25 55.6256 19.6851 56.8677 17.4331L56.8778 17.423Z" fill="#1D3366"/>
<path d="M109.449 27.2797C110.469 28.5925 110.984 30.0871 110.984 31.7735C110.984 34.2072 110.136 36.1359 108.439 37.5497C106.743 38.9736 104.37 39.6804 101.33 39.6804H87.7783V10.6074H100.866C103.824 10.6074 106.137 11.284 107.803 12.6372C109.469 13.9904 110.307 15.8282 110.307 18.1509C110.307 19.8676 109.853 21.2813 108.964 22.4224C108.066 23.5534 106.874 24.3411 105.38 24.7854C107.066 25.149 108.419 25.977 109.439 27.2898L109.449 27.2797ZM94.8673 22.3719H99.5024C100.664 22.3719 101.552 22.1195 102.178 21.6045C102.804 21.0895 103.107 20.3422 103.107 19.3425C103.107 18.3427 102.794 17.5854 102.178 17.0602C101.562 16.5351 100.664 16.2726 99.5024 16.2726H94.8673V22.3619V22.3719ZM102.845 33.167C103.491 32.6318 103.814 31.8442 103.814 30.8242C103.814 29.8043 103.471 29.0065 102.794 28.4208C102.118 27.8452 101.189 27.5524 99.9972 27.5524H94.8572V33.9749H100.078C101.259 33.9749 102.178 33.7022 102.835 33.167H102.845Z" fill="#1D3366"/>
<path d="M142.39 10.6074L132.069 39.6905H123.203L112.893 10.6074H120.436L127.646 32.5712L134.887 10.6074H142.39Z" fill="#1D3366"/>
<path d="M163.434 34.5505H152.579L150.842 39.6905H143.43L153.952 10.6074H162.152L172.674 39.6905H165.171L163.434 34.5505ZM161.617 29.0873L158.012 18.4437L154.447 29.0873H161.617Z" fill="#1D3366"/>
<path d="M182.954 34.2274H192.234V39.7006H175.865V10.6074H182.954V34.2274Z" fill="#1D3366"/>
<path d="M202.716 10.6074V39.6905H195.627V10.6074H202.716Z" fill="#1D3366"/>
<path d="M226.781 12.4251C229.073 13.6369 230.85 15.3435 232.103 17.545C233.355 19.7363 233.991 22.271 233.991 25.149C233.991 28.027 233.365 30.5213 232.103 32.7328C230.84 34.9443 229.063 36.651 226.761 37.8728C224.458 39.0846 221.782 39.7006 218.743 39.7006H207.847V10.6074H218.743C221.813 10.6074 224.489 11.2133 226.781 12.4251ZM224.549 31.3594C226.044 29.8952 226.791 27.825 226.791 25.149C226.791 22.4729 226.044 20.3826 224.549 18.888C223.055 17.3935 220.974 16.6563 218.288 16.6563H214.936V33.5609H218.288C220.964 33.5609 223.055 32.8338 224.549 31.3695V31.3594Z" fill="#1D3366"/>
<path d="M256.075 34.5505H245.22L243.483 39.6905H236.071L246.583 10.6074H254.783L265.305 39.6905H257.802L256.065 34.5505H256.075ZM254.248 29.0873L250.643 18.4437L247.078 29.0873H254.248Z" fill="#1D3366"/>
<path d="M289.43 10.6074V16.2827H281.725V39.6905H274.636V16.2827H266.931V10.6074H289.43Z" fill="#1D3366"/>
<path d="M300.073 10.6074V39.6905H292.984V10.6074H300.073Z" fill="#1D3366"/>
<path d="M363.793 39.6905H356.704L344.859 21.7459V39.6905H337.77V10.6074H344.859L356.704 28.6329V10.6074H363.793V39.6905Z" fill="#1D3366"/>
<path d="M321.512 37.872C314.425 37.872 308.68 32.1481 308.68 25.0867C308.68 18.0254 314.425 12.3015 321.512 12.3015C325.086 12.3015 328.317 13.7583 330.643 16.1087C327.963 12.4601 323.634 10.0879 318.747 10.0879C310.607 10.0879 304.008 16.6617 304.008 24.7724C304.008 32.883 310.607 39.4569 318.745 39.4569C322.417 39.4569 325.774 38.115 328.356 35.9C326.374 37.1487 324.028 37.8734 321.512 37.8734" fill="#1D3366"/>
<path d="M325.923 14.3574C329.008 16.1577 331.082 19.4934 331.082 23.3122C331.082 29.0405 326.421 33.683 320.674 33.6845C315.325 33.6845 310.921 29.6648 310.334 24.4925C310.324 24.6962 310.316 24.9 310.316 25.1052C310.316 31.4505 315.48 36.5937 321.846 36.5937C328.213 36.5937 333.376 31.4491 333.376 25.1052C333.376 20.1905 330.279 15.9991 325.923 14.3574Z" fill="#1D3366"/>
<path d="M320.364 15.1523C316.495 15.1523 313.228 17.7167 312.178 21.2328C313.351 18.6248 315.978 16.8085 319.032 16.8085C323.181 16.8085 326.543 20.1588 326.543 24.2919C326.543 28.4251 323.181 31.7754 319.032 31.7754C318.355 31.7754 317.697 31.6837 317.072 31.5163C318.084 31.9384 319.197 32.1712 320.364 32.1727C325.082 32.1727 328.905 28.3611 328.905 23.6618C328.905 18.961 325.081 15.1523 320.364 15.1523Z" fill="#1D3366"/>
<defs>
<linearGradient id="paint0_linear_737_7279" x1="16.8558" y1="6.99965" x2="3.85673" y2="22.2842" gradientUnits="userSpaceOnUse">
<stop offset="0.278846" stop-color="#33CFFF"/>
<stop offset="1" stop-color="#0D87C5"/>
</linearGradient>
<linearGradient id="paint1_linear_737_7279" x1="14.2469" y1="10.0757" x2="9.01527" y2="17.7184" gradientUnits="userSpaceOnUse">
<stop offset="0.278846" stop-color="#33CFFF"/>
<stop offset="1" stop-color="#0D87C5"/>
</linearGradient>
<clipPath id="clip0_737_7279">
<rect width="49.9997" height="50" fill="white"/>
</clipPath>
</defs>
</svg>
