<svg width="250" height="250" viewBox="0 0 250 250" fill="none" xmlns="http://www.w3.org/2000/svg">
<g clip-path="url(#clip0_737_7147)">
<path d="M240.625 60H140.625C138.139 60 135.754 59.0123 133.996 57.2541C132.237 55.496 131.25 53.1114 131.25 50.625C131.25 48.1386 132.237 45.754 133.996 43.9959C135.754 42.2377 138.139 41.25 140.625 41.25H240.625C243.111 41.25 245.496 42.2377 247.254 43.9959C249.012 45.754 250 48.1386 250 50.625C250 53.1114 249.012 55.496 247.254 57.2541C245.496 59.0123 243.111 60 240.625 60Z" fill="white"/>
<path d="M240.625 135H140.625C138.139 135 135.754 134.013 133.996 132.254C132.237 130.496 131.25 128.111 131.25 125.625C131.25 123.139 132.237 120.754 133.996 118.996C135.754 117.237 138.139 116.25 140.625 116.25H240.625C243.111 116.25 245.496 117.237 247.254 118.996C249.012 120.754 250 123.139 250 125.625C250 128.111 249.012 130.496 247.254 132.254C245.496 134.013 243.111 135 240.625 135Z" fill="white"/>
<path d="M240.625 210H140.625C138.139 210 135.754 209.013 133.996 207.254C132.237 205.496 131.25 203.111 131.25 200.625C131.25 198.139 132.237 195.754 133.996 193.996C135.754 192.237 138.139 191.25 140.625 191.25H240.625C243.111 191.25 245.496 192.237 247.254 193.996C249.012 195.754 250 198.139 250 200.625C250 203.111 249.012 205.496 247.254 207.254C245.496 209.013 243.111 210 240.625 210Z" fill="white"/>
<path d="M84.375 116.25H21.875C16.0835 116.217 10.5386 113.902 6.44325 109.806C2.348 105.711 0.032875 100.166 0 94.375V31.875C0.032875 26.0835 2.348 20.5386 6.44325 16.4433C10.5386 12.348 16.0835 10.0329 21.875 10H84.375C90.1665 10.0329 95.7112 12.348 99.8062 16.4433C103.902 20.5386 106.217 26.0835 106.25 31.875V94.375C106.217 100.166 103.902 105.711 99.8062 109.806C95.7112 113.902 90.1665 116.217 84.375 116.25ZM21.875 28.75C21.0462 28.75 20.2514 29.0792 19.6652 29.6652C19.0792 30.2514 18.75 31.0463 18.75 31.875V94.375C18.75 95.2037 19.0792 95.9986 19.6652 96.5847C20.2514 97.1707 21.0462 97.5 21.875 97.5H84.375C85.2037 97.5 85.9986 97.1707 86.5847 96.5847C87.1707 95.9986 87.5 95.2037 87.5 94.375V31.875C87.5 31.0463 87.1707 30.2514 86.5847 29.6652C85.9986 29.0792 85.2037 28.75 84.375 28.75H21.875Z" fill="white"/>
<path d="M84.375 241.25H21.875C16.0835 241.217 10.5386 238.903 6.44325 234.806C2.348 230.711 0.032875 225.166 0 219.375V156.875C0.032875 151.084 2.348 145.539 6.44325 141.444C10.5386 137.348 16.0835 135.033 21.875 135H84.375C90.1665 135.033 95.7112 137.348 99.8062 141.444C103.902 145.539 106.217 151.084 106.25 156.875V219.375C106.217 225.166 103.902 230.711 99.8062 234.806C95.7112 238.903 90.1665 241.217 84.375 241.25ZM21.875 153.75C21.0462 153.75 20.2514 154.079 19.6652 154.665C19.0792 155.251 18.75 156.046 18.75 156.875V219.375C18.75 220.204 19.0792 220.999 19.6652 221.585C20.2514 222.171 21.0462 222.5 21.875 222.5H84.375C85.2037 222.5 85.9986 222.171 86.5847 221.585C87.1707 220.999 87.5 220.204 87.5 219.375V156.875C87.5 156.046 87.1707 155.251 86.5847 154.665C85.9986 154.079 85.2037 153.75 84.375 153.75H21.875Z" fill="white"/>
<path d="M46.8749 84.9995C44.5171 84.9134 42.2813 83.9296 40.6249 82.2495L28.125 69.7495C26.9826 67.9875 26.4648 65.893 26.6546 63.8017C26.8445 61.7104 27.731 59.7434 29.172 58.216C30.613 56.6885 32.525 55.689 34.6017 55.3777C36.6784 55.0666 38.7995 55.4615 40.6249 56.4995L46.4999 62.3745L65.6249 43.9995C66.3976 42.8077 67.4308 41.8072 68.6467 41.0734C69.8626 40.3395 71.2293 39.8914 72.6437 39.763C74.0581 39.6346 75.4832 39.8292 76.8113 40.3322C78.1394 40.8351 79.3359 41.6332 80.3105 42.6662C81.285 43.6994 82.0122 44.9404 82.4371 46.2955C82.8618 47.6506 82.9732 49.0846 82.7627 50.4891C82.5522 51.8936 82.0253 53.232 81.2219 54.4031C80.4186 55.5742 79.3596 56.5475 78.1249 57.2495L53.1249 82.2495C51.4686 83.9296 49.2327 84.9134 46.8749 84.9995Z" fill="white"/>
</g>
<defs>
<clipPath id="clip0_737_7147">
<rect width="250" height="250" fill="white"/>
</clipPath>
</defs>
</svg>
