<svg width="451" height="500" viewBox="0 0 451 500" fill="none" xmlns="http://www.w3.org/2000/svg">
<g clip-path="url(#clip0_914_4503)">
<path d="M428.531 48.9158L426.165 40.9144L416.848 39.8498C399.144 37.855 381.788 14.6464 377.135 6.64494L373.2 -0.0117188H78.0234L74.144 6.65614C69.4799 14.6352 52.2695 37.8326 34.4202 39.8386L25.0806 40.9032L22.7261 48.9046C-83.7873 408.779 218.587 498.139 221.693 498.946L225.707 499.988L229.743 498.924C232.804 498.083 534.259 406.055 428.531 48.9158ZM225.64 474.213C189.19 461.819 -39.758 370.565 47.6502 62.1619C70.5562 55.3371 87.1275 35.2551 94.6731 24.4745H356.617C364.163 35.2663 380.723 55.3596 403.64 62.1619C491.037 370.576 262.056 461.819 225.651 474.213H225.64Z" fill="#343433"/>
<path d="M177.922 178.217V141.493C177.922 115.27 199.27 93.9331 225.506 93.9331C251.742 93.9331 273.089 115.27 273.089 141.493V178.217C283.931 182.756 293.999 188.785 303.025 196.058V141.493C303.025 98.7743 268.246 64.0117 225.506 64.0117C182.766 64.0117 147.986 98.7743 147.986 141.493V196.058C157.012 188.785 167.08 182.744 177.922 178.217Z" fill="#343433"/>
<path d="M225.505 177.254C161.9 177.254 110.336 228.793 110.336 292.367C110.336 355.941 161.9 407.48 225.505 407.48C289.11 407.48 340.674 355.941 340.674 292.367C340.674 228.793 289.11 177.254 225.505 177.254ZM225.696 396.677C167.483 396.677 120.292 349.509 120.292 291.325C120.292 233.141 167.483 185.973 225.696 185.973C259.343 185.95 290.96 202.009 310.794 229.174C293.573 211.68 270.039 201.83 245.473 201.863C194.784 201.863 153.692 242.935 153.692 293.6C153.692 344.264 194.784 385.336 245.473 385.336C262.807 385.358 279.782 380.45 294.436 371.182C275.342 387.667 250.934 396.733 225.707 396.699L225.696 396.677ZM202.711 270.156C202.711 257.571 212.914 247.373 225.505 247.373C238.096 247.373 248.299 257.571 248.299 270.156C248.299 279.076 243.164 286.797 235.697 290.529V327.174C235.697 332.8 231.133 337.35 225.516 337.35C219.888 337.35 215.336 332.789 215.336 327.174V290.529C207.857 286.786 202.733 279.076 202.733 270.156H202.711ZM276.743 309.849C288.875 282.797 276.766 251.026 249.7 238.901C222.635 226.775 190.849 238.878 178.718 265.931C186.431 240.055 210.245 222.304 237.266 222.304C245.339 222.304 253.344 223.907 260.8 227.022C291.936 240.01 306.646 275.77 293.64 306.891C280.645 338.011 244.868 352.714 213.732 339.714C239.228 346.595 265.958 333.932 276.755 309.838L276.743 309.849ZM247.862 376.147C202.319 376.147 165.398 339.244 165.398 293.723C165.398 292.244 165.443 290.787 165.521 289.319C169.726 326.424 201.22 355.269 239.475 355.269C265.935 355.269 290.422 341.227 303.764 318.388C324.495 282.909 312.532 237.332 277.024 216.611C309.101 228.737 330.325 259.442 330.336 293.723C330.336 339.244 293.416 376.147 247.873 376.147H247.862Z" fill="#343433"/>
</g>
<defs>
<clipPath id="clip0_914_4503">
<rect width="451" height="500" fill="white"/>
</clipPath>
</defs>
</svg>
