<svg width="373" height="300" viewBox="0 0 373 300" fill="none" xmlns="http://www.w3.org/2000/svg">
<path d="M93.7932 3.57422H279.095C294.116 3.57422 306.312 15.7557 306.312 30.7601V215.858C306.312 230.862 294.116 243.043 279.095 243.043H93.7932C78.7722 243.043 66.5771 230.862 66.5771 215.858V30.7601C66.5771 15.7557 78.7722 3.57422 93.7932 3.57422Z" fill="#343433"/>
<path d="M279.096 7.14649C292.097 7.14649 302.734 17.772 302.734 30.7592V215.857C302.734 228.844 292.097 239.469 279.096 239.469H93.7932C80.7917 239.469 70.1544 228.844 70.1544 215.857V30.7592C70.1544 17.772 80.7917 7.14649 93.7932 7.14649H279.096ZM279.096 0H93.7932C76.8145 0 63 13.7992 63 30.7592V215.857C63 232.816 76.8145 246.616 93.7932 246.616H279.096C296.074 246.616 309.889 232.816 309.889 215.857V30.7592C309.889 13.7992 296.074 0 279.096 0Z" fill="white"/>
<path d="M259.387 53.4753L258.545 50.633L255.231 50.2529C248.939 49.5415 242.766 41.2938 241.108 38.4547L239.709 36.0898H134.748L133.369 38.4612C131.71 41.297 125.59 49.5382 119.242 50.2561L115.919 50.6362L115.08 53.4786C77.2036 181.368 184.728 213.125 185.833 213.414L187.261 213.784L188.695 213.404C189.785 213.105 296.977 180.4 259.384 53.4818L259.387 53.4753ZM187.242 204.611C174.282 200.206 92.8685 167.774 123.948 58.179C132.091 55.7557 137.984 48.6189 140.666 44.7858H233.814C236.496 48.6189 242.386 55.7622 250.535 58.179C281.615 167.78 200.191 200.206 187.242 204.611Z" fill="#33CFFF"/>
<path d="M187.193 99.082C164.575 99.082 146.237 117.397 146.237 139.992C146.237 162.588 164.572 180.903 187.193 180.903C209.814 180.903 228.149 162.588 228.149 139.992C228.149 117.397 209.814 99.082 187.193 99.082ZM190.813 139.336V152.362C190.813 154.36 189.19 155.978 187.193 155.978C185.193 155.978 183.574 154.357 183.574 152.362V139.336C180.917 138.008 179.089 135.266 179.089 132.096C179.089 127.626 182.718 124.001 187.193 124.001C191.668 124.001 195.297 127.626 195.297 132.096C195.297 135.266 193.473 138.008 190.813 139.336Z" fill="#0D87C5"/>
<path d="M170.272 99.4215V86.3727C170.272 77.053 177.863 69.4712 187.193 69.4712C196.523 69.4712 204.113 77.053 204.113 86.3727V99.4215C207.97 101.033 211.547 103.177 214.757 105.762V86.3727C214.757 71.1896 202.389 58.8359 187.189 58.8359C171.989 58.8359 159.622 71.1896 159.622 86.3727V105.762C162.832 103.177 166.412 101.033 170.266 99.4215H170.272Z" fill="#0D87C5"/>
<path d="M194.292 173.021C176.269 173.021 161.658 158.426 161.658 140.423C161.658 122.421 176.269 107.825 194.292 107.825C203.024 107.816 211.394 111.314 217.518 117.532C210.468 107.877 199.222 102.17 187.258 102.18C166.556 102.18 149.775 118.941 149.775 139.621C149.775 160.3 166.556 177.062 187.258 177.062C196.23 177.072 204.91 173.853 211.7 167.992C206.494 171.286 200.455 173.031 194.292 173.024" fill="#33CFFF"/>
<path d="M205.511 113.07C218.136 120.434 222.392 136.627 215.02 149.237C210.276 157.355 201.57 162.345 192.159 162.345C178.555 162.345 167.356 152.096 165.86 138.907C165.834 139.424 165.817 139.947 165.817 140.47C165.817 156.647 178.946 169.761 195.141 169.761C211.336 169.761 224.464 156.647 224.464 140.47C224.464 128.288 216.916 117.377 205.508 113.066" fill="#33CFFF"/>
<path d="M191.372 115.094C181.766 115.094 173.297 121.399 170.553 130.598C174.868 120.983 186.169 116.682 195.795 120.99C205.421 125.3 209.726 136.588 205.414 146.204C201.574 154.763 192.071 159.266 183.005 156.82C194.078 161.436 206.8 156.212 211.421 145.154C216.042 134.094 210.813 121.386 199.743 116.77C197.092 115.665 194.247 115.094 191.375 115.094" fill="#33CFFF"/>
<rect y="243" width="373" height="57" rx="16" fill="white"/>
<g clip-path="url(#clip0_914_4509)">
<path d="M20.444 261.369C22.0734 258.418 24.3454 256.119 27.2601 254.471C30.1748 252.824 33.4788 252 37.172 252C41.6979 252 45.5722 253.195 48.7946 255.585C52.0171 257.974 54.1715 261.233 55.2577 265.361H45.0471C44.2868 263.768 43.2096 262.555 41.8156 261.722C40.4216 260.889 38.8375 260.473 37.0634 260.473C34.2029 260.473 31.8857 261.468 30.1115 263.46C28.3373 265.451 27.4502 268.112 27.4502 271.444C27.4502 274.775 28.3373 277.436 30.1115 279.427C31.8857 281.419 34.2029 282.414 37.0634 282.414C38.8375 282.414 40.4216 281.998 41.8156 281.165C43.2096 280.333 44.2868 279.12 45.0471 277.526H55.2577C54.1715 281.654 52.0171 284.904 48.7946 287.275C45.5722 289.647 41.6979 290.833 37.172 290.833C33.4788 290.833 30.1748 290.009 27.2601 288.362C24.3454 286.714 22.0734 284.424 20.444 281.491C18.8147 278.558 18 275.209 18 271.444C18 267.678 18.8147 264.32 20.444 261.369Z" fill="#343433"/>
<path d="M89.3649 273.86C90.7046 275.58 91.3744 277.545 91.3744 279.753C91.3744 282.939 90.261 285.465 88.0343 287.33C85.8075 289.194 82.7027 290.127 78.7198 290.127H60.96V252H78.1224C81.9966 252 85.029 252.887 87.2196 254.661C89.4102 256.435 90.5054 258.843 90.5054 261.885C90.5054 264.13 89.9171 265.994 88.7403 267.479C87.5636 268.963 85.9976 269.995 84.0424 270.575C86.251 271.045 88.0252 272.141 89.3649 273.86ZM70.2472 267.424H76.3301C77.8509 267.424 79.0185 267.09 79.8332 266.42C80.6479 265.75 81.0552 264.763 81.0552 263.46C81.0552 262.156 80.6479 261.161 79.8332 260.473C79.0185 259.785 77.8509 259.441 76.3301 259.441H70.2472V267.424ZM80.7022 281.573C81.5531 280.867 81.9785 279.844 81.9785 278.504C81.9785 277.164 81.535 276.114 80.6479 275.354C79.7608 274.594 78.5388 274.213 76.9819 274.213H70.2472V282.632H77.0905C78.6474 282.632 79.8513 282.279 80.7022 281.573Z" fill="#343433"/>
<path d="M103.051 289.692C100.843 288.787 99.0776 287.447 97.756 285.673C96.4345 283.899 95.7375 281.763 95.665 279.264H105.55C105.695 280.676 106.183 281.754 107.016 282.496C107.849 283.238 108.935 283.609 110.275 283.609C111.615 283.609 112.737 283.292 113.534 282.659C114.33 282.025 114.728 281.147 114.728 280.025C114.728 279.083 114.412 278.305 113.778 277.689C113.144 277.074 112.366 276.567 111.443 276.169C110.519 275.77 109.207 275.318 107.505 274.811C105.043 274.05 103.033 273.29 101.476 272.53C99.9194 271.769 98.5798 270.647 97.4573 269.162C96.3349 267.678 95.7737 265.741 95.7737 263.351C95.7737 259.803 97.059 257.024 99.6298 255.014C102.201 253.005 105.55 252 109.677 252C113.805 252 117.263 253.005 119.834 255.014C122.404 257.024 123.78 259.821 123.961 263.405H113.914C113.841 262.174 113.389 261.206 112.556 260.5C111.723 259.794 110.655 259.441 109.352 259.441C108.229 259.441 107.324 259.739 106.636 260.337C105.948 260.934 105.604 261.794 105.604 262.917C105.604 264.148 106.183 265.107 107.342 265.795C108.501 266.483 110.311 267.225 112.773 268.022C115.235 268.855 117.236 269.651 118.775 270.412C120.313 271.172 121.644 272.276 122.766 273.725C123.889 275.173 124.45 277.038 124.45 279.319C124.45 281.6 123.898 283.464 122.794 285.239C121.689 287.013 120.087 288.425 117.987 289.475C115.887 290.525 113.407 291.05 110.546 291.05C107.686 291.05 105.26 290.597 103.051 289.692Z" fill="#343433"/>
<path d="M139.441 259.441V267.153H151.878V274.322H139.441V282.686H153.507V290.127H130.153V252H153.507V259.441H139.441Z" fill="#343433"/>
<path d="M160.403 261.369C162.032 258.418 164.304 256.119 167.219 254.471C170.134 252.824 173.438 252 177.131 252C181.657 252 185.531 253.195 188.754 255.585C191.976 257.974 194.13 261.233 195.217 265.361H185.006C184.246 263.768 183.169 262.555 181.775 261.722C180.381 260.889 178.797 260.473 177.022 260.473C174.162 260.473 171.845 261.468 170.07 263.46C168.296 265.451 167.409 268.112 167.409 271.444C167.409 274.775 168.296 277.436 170.07 279.427C171.845 281.419 174.162 282.414 177.022 282.414C178.797 282.414 180.381 281.998 181.775 281.165C183.169 280.333 184.246 279.12 185.006 277.526H195.217C194.13 281.654 191.976 284.904 188.754 287.275C185.531 289.647 181.657 290.833 177.131 290.833C173.438 290.833 170.134 290.009 167.219 288.362C164.304 286.714 162.032 284.424 160.403 281.491C158.774 278.558 157.959 275.209 157.959 271.444C157.959 267.678 158.774 264.32 160.403 261.369Z" fill="#343433"/>
<path d="M210.043 252V274.811C210.043 277.092 210.604 278.848 211.727 280.079C212.849 281.31 214.497 281.926 216.669 281.926C218.842 281.926 220.507 281.31 221.666 280.079C222.824 278.848 223.404 277.092 223.404 274.811V252H232.691V274.757C232.691 278.16 231.967 281.039 230.519 283.392C229.07 285.746 227.124 287.52 224.68 288.715C222.236 289.909 219.511 290.507 216.506 290.507C213.501 290.507 210.813 289.919 208.441 288.742C206.069 287.565 204.196 285.791 202.82 283.419C201.444 281.048 200.756 278.16 200.756 274.757V252H210.043Z" fill="#343433"/>
<path d="M258.653 290.127L250.723 275.734H248.496V290.127H239.209V252H254.796C257.802 252 260.363 252.525 262.481 253.575C264.6 254.625 266.184 256.064 267.234 257.893C268.284 259.721 268.809 261.758 268.809 264.003C268.809 266.537 268.094 268.8 266.663 270.792C265.233 272.783 263.124 274.195 260.336 275.028L269.135 290.127H258.653ZM248.496 269.162H254.253C255.955 269.162 257.231 268.746 258.082 267.913C258.933 267.081 259.359 265.904 259.359 264.383C259.359 262.862 258.933 261.794 258.082 260.961C257.231 260.129 255.955 259.712 254.253 259.712H248.496V269.162Z" fill="#343433"/>
<path d="M283.907 252V290.127H274.62V252H283.907Z" fill="#343433"/>
<path d="M318.069 252V259.441H307.967V290.127H298.68V259.441H288.578V252H318.069Z" fill="#343433"/>
<path d="M355.433 252L342.235 277.526V290.127H332.948V277.526L319.75 252H330.286L337.673 267.968L345.005 252H355.433Z" fill="#343433"/>
</g>
<defs>
<clipPath id="clip0_914_4509">
<rect width="337.433" height="39.05" fill="white" transform="translate(18 252)"/>
</clipPath>
</defs>
</svg>
