<svg width="249" height="200" viewBox="0 0 249 200" fill="none" xmlns="http://www.w3.org/2000/svg">
<path d="M62.5288 2.38281H186.064C196.078 2.38281 204.208 10.5041 204.208 20.5075V143.911C204.208 153.914 196.078 162.035 186.064 162.035H62.5288C52.5148 162.035 44.3848 153.914 44.3848 143.911V20.5075C44.3848 10.5041 52.5148 2.38281 62.5288 2.38281Z" fill="#343433"/>
<path d="M186.066 4.76451C194.733 4.76451 201.825 11.8485 201.825 20.5069V143.91C201.825 152.568 194.733 159.652 186.066 159.652H62.5308C53.8631 159.652 46.7716 152.568 46.7716 143.91V20.5069C46.7716 11.8485 53.8631 4.76451 62.5308 4.76451H186.066ZM186.066 0H62.5308C51.2116 0 42.002 9.19984 42.002 20.5069V143.91C42.002 155.217 51.2116 164.417 62.5308 164.417H186.066C197.385 164.417 206.594 155.217 206.594 143.91V20.5069C206.594 9.19984 197.385 0 186.066 0Z" fill="white"/>
<path d="M172.929 35.6533L172.368 33.7583L170.159 33.5049C165.964 33.0306 161.849 27.5319 160.743 25.6391L159.811 24.0625H89.8364L88.9172 25.6435C87.8115 27.5341 83.7313 33.0285 79.4994 33.5071L77.2837 33.7605L76.7243 35.6554C51.4736 120.919 123.156 142.09 123.894 142.283L124.845 142.53L125.801 142.277C126.528 142.077 197.989 120.273 172.927 35.6576L172.929 35.6533ZM124.832 136.414C116.193 133.477 61.9169 111.855 82.6365 38.7892C88.0651 37.1736 91.9936 32.4156 93.7822 29.86H155.88C157.669 32.4156 161.595 37.1779 167.028 38.7892C187.748 111.86 133.465 133.477 124.832 136.414Z" fill="#33CFFF"/>
<path d="M124.794 66.0586C109.716 66.0586 97.4902 78.2687 97.4902 93.3333C97.4902 108.398 109.713 120.608 124.794 120.608C139.875 120.608 152.098 108.398 152.098 93.3333C152.098 78.2687 139.875 66.0586 124.794 66.0586ZM127.207 92.8958V101.58C127.207 102.912 126.125 103.991 124.794 103.991C123.461 103.991 122.381 102.91 122.381 101.58V92.8958C120.61 92.01 119.391 90.1822 119.391 88.0685C119.391 85.0885 121.811 82.6716 124.794 82.6716C127.777 82.6716 130.197 85.0885 130.197 88.0685C130.197 90.1822 128.98 92.01 127.207 92.8958Z" fill="#0D87C5"/>
<path d="M113.516 66.2769V57.5773C113.516 51.3639 118.576 46.3092 124.796 46.3092C131.016 46.3092 136.076 51.3639 136.076 57.5773V66.2769C138.648 67.351 141.032 68.7804 143.172 70.5043V57.5773C143.172 47.4549 134.927 39.2188 124.794 39.2188C114.661 39.2188 106.416 47.4549 106.416 57.5773V70.5043C108.556 68.7804 110.943 67.351 113.512 66.2769H113.516Z" fill="#0D87C5"/>
<path d="M129.531 115.358C117.516 115.358 107.775 105.628 107.775 93.6256C107.775 81.6233 117.516 71.8929 129.531 71.8929C135.352 71.8864 140.933 74.2188 145.015 78.364C140.315 71.9275 132.818 68.1224 124.842 68.1289C111.04 68.1289 99.8535 79.3039 99.8535 93.0906C99.8535 106.877 111.04 118.052 124.842 118.052C130.823 118.059 136.61 115.913 141.137 112.006C137.666 114.202 133.64 115.365 129.531 115.36" fill="#33CFFF"/>
<path d="M137.009 75.3967C145.426 80.3063 148.264 91.1023 143.349 99.5095C140.186 104.922 134.382 108.248 128.108 108.248C119.039 108.248 111.572 101.415 110.575 92.6226C110.558 92.9669 110.547 93.3156 110.547 93.6643C110.547 104.449 119.299 113.192 130.096 113.192C140.892 113.192 149.645 104.449 149.645 93.6643C149.645 85.5429 144.613 78.2684 137.007 75.3945" fill="#33CFFF"/>
<path d="M127.581 76.7227C121.176 76.7227 115.531 80.9263 113.701 87.0595C116.578 80.6491 124.112 77.7817 130.529 80.6534C136.946 83.5273 139.817 91.053 136.942 97.4635C134.382 103.17 128.047 106.172 122.002 104.541C129.384 107.618 137.866 104.136 140.946 96.7639C144.027 89.3898 140.541 80.9176 133.161 77.8402C131.394 77.1038 129.497 76.7227 127.583 76.7227" fill="#33CFFF"/>
<rect y="162" width="248.667" height="38.0015" rx="16" fill="white"/>
<g clip-path="url(#clip0_914_4536)">
<path d="M13.6313 174.266C14.7175 172.298 16.2322 170.765 18.1754 169.667C20.1185 168.569 22.3211 168.02 24.7833 168.02C27.8006 168.02 30.3834 168.816 32.5317 170.409C34.68 172.003 36.1163 174.175 36.8404 176.927H30.0334C29.5265 175.865 28.8084 175.056 27.879 174.501C26.9497 173.946 25.8936 173.668 24.7109 173.668C22.8039 173.668 21.2591 174.332 20.0763 175.66C18.8935 176.987 18.3021 178.762 18.3021 180.982C18.3021 183.203 18.8935 184.977 20.0763 186.305C21.2591 187.633 22.8039 188.297 24.7109 188.297C25.8936 188.297 26.9497 188.019 27.879 187.464C28.8084 186.909 29.5265 186.1 30.0334 185.038H36.8404C36.1163 187.79 34.68 189.956 32.5317 191.537C30.3834 193.118 27.8006 193.909 24.7833 193.909C22.3211 193.909 20.1185 193.36 18.1754 192.262C16.2322 191.163 14.7175 189.636 13.6313 187.681C12.5451 185.726 12.002 183.493 12.002 180.982C12.002 178.472 12.5451 176.233 13.6313 174.266Z" fill="#343433"/>
<path d="M59.5792 182.59C60.4723 183.736 60.9189 185.046 60.9189 186.518C60.9189 188.643 60.1766 190.326 58.6921 191.57C57.2076 192.813 55.1377 193.434 52.4825 193.434H40.6426V168.016H52.0842C54.667 168.016 56.6886 168.607 58.149 169.79C59.6094 170.973 60.3396 172.578 60.3396 174.606C60.3396 176.102 59.9473 177.346 59.1628 178.335C58.3783 179.325 57.3343 180.013 56.0309 180.399C57.5033 180.713 58.6861 181.443 59.5792 182.59ZM46.8341 178.299H50.8894C51.9032 178.299 52.6816 178.076 53.2248 177.629C53.7679 177.183 54.0394 176.525 54.0394 175.656C54.0394 174.787 53.7679 174.123 53.2248 173.664C52.6816 173.206 51.9032 172.976 50.8894 172.976H46.8341V178.299ZM53.8041 187.731C54.3713 187.261 54.655 186.579 54.655 185.686C54.655 184.793 54.3593 184.092 53.7679 183.586C53.1765 183.079 52.3618 182.825 51.3239 182.825H46.8341V188.438H51.3963C52.4342 188.438 53.2368 188.202 53.8041 187.731Z" fill="#343433"/>
<path d="M68.7035 193.145C67.2311 192.541 66.0543 191.648 65.1733 190.465C64.2922 189.282 63.8276 187.858 63.7793 186.193H70.3691C70.4657 187.134 70.7915 187.852 71.3467 188.347C71.9019 188.842 72.626 189.089 73.5192 189.089C74.4123 189.089 75.1606 188.878 75.6916 188.456C76.2227 188.033 76.4882 187.448 76.4882 186.7C76.4882 186.072 76.277 185.553 75.8546 185.143C75.4321 184.732 74.9132 184.394 74.2976 184.129C73.6821 183.863 72.8071 183.561 71.6726 183.223C70.0312 182.717 68.6915 182.21 67.6535 181.703C66.6156 181.196 65.7224 180.447 64.9741 179.458C64.2259 178.468 63.8517 177.177 63.8517 175.583C63.8517 173.218 64.7086 171.365 66.4225 170.025C68.1363 168.685 70.3691 168.016 73.1209 168.016C75.8727 168.016 78.1779 168.685 79.8917 170.025C81.6056 171.365 82.5228 173.23 82.6435 175.62H75.9451C75.8968 174.799 75.5951 174.153 75.0399 173.682C74.4847 173.212 73.7726 172.976 72.9036 172.976C72.1553 172.976 71.5519 173.175 71.0932 173.574C70.6346 173.972 70.4053 174.545 70.4053 175.294C70.4053 176.114 70.7915 176.754 71.5639 177.213C72.3364 177.671 73.5433 178.166 75.1847 178.697C76.8261 179.253 78.1598 179.784 79.1857 180.291C80.2116 180.797 81.0986 181.534 81.8469 182.499C82.5952 183.465 82.9694 184.708 82.9694 186.229C82.9694 187.75 82.6013 188.993 81.865 190.176C81.1288 191.358 80.0607 192.3 78.6607 193C77.2606 193.7 75.6071 194.05 73.7002 194.05C71.7933 194.05 70.176 193.748 68.7035 193.145Z" fill="#343433"/>
<path d="M92.962 172.976V178.118H101.254V182.898H92.962V188.474H102.34V193.434H86.7705V168.016H102.34V172.976H92.962Z" fill="#343433"/>
<path d="M106.937 174.262C108.023 172.294 109.538 170.761 111.481 169.663C113.424 168.565 115.627 168.016 118.089 168.016C121.106 168.016 123.689 168.812 125.837 170.405C127.986 171.999 129.422 174.171 130.146 176.923H123.339C122.832 175.861 122.114 175.052 121.185 174.497C120.255 173.942 119.199 173.664 118.017 173.664C116.11 173.664 114.565 174.328 113.382 175.656C112.199 176.983 111.608 178.758 111.608 180.978C111.608 183.199 112.199 184.974 113.382 186.301C114.565 187.629 116.11 188.293 118.017 188.293C119.199 188.293 120.255 188.015 121.185 187.46C122.114 186.905 122.832 186.096 123.339 185.034H130.146C129.422 187.786 127.986 189.952 125.837 191.533C123.689 193.115 121.106 193.905 118.089 193.905C115.627 193.905 113.424 193.356 111.481 192.258C109.538 191.159 108.023 189.632 106.937 187.677C105.851 185.722 105.308 183.489 105.308 180.978C105.308 178.468 105.851 176.229 106.937 174.262Z" fill="#343433"/>
<path d="M140.031 168.016V183.223C140.031 184.744 140.406 185.915 141.154 186.736C141.902 187.556 143 187.967 144.449 187.967C145.897 187.967 147.007 187.556 147.78 186.736C148.552 185.915 148.938 184.744 148.938 183.223V168.016H155.13V183.187C155.13 185.456 154.647 187.375 153.682 188.944C152.716 190.514 151.419 191.696 149.789 192.493C148.16 193.29 146.344 193.688 144.34 193.688C142.337 193.688 140.544 193.296 138.963 192.511C137.382 191.727 136.133 190.544 135.216 188.963C134.298 187.381 133.84 185.456 133.84 183.187V168.016H140.031Z" fill="#343433"/>
<path d="M172.437 193.434L167.151 183.839H165.666V193.434H159.475V168.016H169.866C171.87 168.016 173.578 168.366 174.99 169.066C176.402 169.766 177.458 170.725 178.158 171.944C178.858 173.163 179.208 174.521 179.208 176.018C179.208 177.708 178.731 179.216 177.778 180.544C176.824 181.872 175.418 182.813 173.559 183.368L179.425 193.434H172.437ZM165.666 179.458H169.504C170.639 179.458 171.49 179.18 172.057 178.625C172.624 178.07 172.908 177.285 172.908 176.271C172.908 175.257 172.624 174.545 172.057 173.99C171.49 173.435 170.639 173.157 169.504 173.157H165.666V179.458Z" fill="#343433"/>
<path d="M189.274 168.016V193.434H183.082V168.016H189.274Z" fill="#343433"/>
<path d="M212.048 168.016V172.976H205.314V193.434H199.122V172.976H192.388V168.016H212.048Z" fill="#343433"/>
<path d="M236.957 168.016L228.159 185.034V193.434H221.967V185.034L213.169 168.016H220.193L225.117 178.661L230.006 168.016H236.957Z" fill="#343433"/>
</g>
<defs>
<clipPath id="clip0_914_4536">
<rect width="224.955" height="26.0343" fill="white" transform="translate(12.002 168.016)"/>
</clipPath>
</defs>
</svg>
