<svg width="225" height="250" viewBox="0 0 225 250" fill="none" xmlns="http://www.w3.org/2000/svg">
<g clip-path="url(#clip0_914_4563)">
<path d="M213.79 24.4599L212.61 20.4591L207.961 19.9268C199.129 18.9295 190.47 7.32514 188.149 3.32442L186.186 -0.00390625H38.9247L36.9893 3.33002C34.6624 7.31954 26.0763 18.9183 17.1714 19.9212L12.512 20.4535L11.3374 24.4543C-41.8012 204.391 109.051 249.072 110.6 249.475L112.603 249.996L114.616 249.464C116.143 249.044 266.537 203.03 213.79 24.4599ZM112.569 237.109C94.3846 230.911 -19.8354 185.284 23.7718 31.0829C35.1994 27.6705 43.4667 17.6295 47.2311 12.2392H177.913C181.677 17.6351 189.939 27.6817 201.372 31.0829C244.974 185.29 130.737 230.911 112.575 237.109H112.569Z" fill="#343433"/>
<path d="M88.7648 89.1066V70.7447C88.7648 57.6332 99.4149 46.9646 112.504 46.9646C125.593 46.9646 136.243 57.6332 136.243 70.7447V89.1066C141.652 91.3759 146.675 94.3904 151.177 98.0269V70.7447C151.177 49.3852 133.826 32.0039 112.504 32.0039C91.1812 32.0039 73.8301 49.3852 73.8301 70.7447V98.0269C78.3329 94.3904 83.3559 91.3703 88.7648 89.1066Z" fill="#343433"/>
<path d="M112.504 88.625C80.7716 88.625 55.0469 114.394 55.0469 146.182C55.0469 177.969 80.7716 203.738 112.504 203.738C144.236 203.738 169.96 177.969 169.96 146.182C169.96 114.394 144.236 88.625 112.504 88.625ZM112.599 198.337C83.5571 198.337 60.0139 174.752 60.0139 145.66C60.0139 116.568 83.5571 92.9843 112.599 92.9843C129.385 92.9731 145.159 101.003 155.054 114.585C146.462 105.838 134.721 100.913 122.466 100.93C97.1774 100.93 76.6771 121.466 76.6771 146.798C76.6771 172.13 97.1774 192.666 122.466 192.666C131.113 192.677 139.582 190.223 146.893 185.589C137.367 193.832 125.19 198.365 112.604 198.348L112.599 198.337ZM101.132 135.076C101.132 128.783 106.222 123.685 112.504 123.685C118.785 123.685 123.875 128.783 123.875 135.076C123.875 139.536 121.314 143.397 117.588 145.263V163.585C117.588 166.398 115.312 168.673 112.509 168.673C109.701 168.673 107.43 166.392 107.43 163.585V145.263C103.699 143.391 101.143 139.536 101.143 135.076H101.132ZM138.066 154.923C144.118 141.396 138.077 125.511 124.575 119.448C111.072 113.386 95.2141 119.437 89.1618 132.963C93.0102 120.026 104.891 111.15 118.371 111.15C122.399 111.15 126.392 111.951 130.112 113.509C145.645 120.003 152.984 137.883 146.496 153.443C140.013 169.004 122.164 176.355 106.63 169.855C119.35 173.296 132.685 166.964 138.072 154.917L138.066 154.923ZM123.657 188.071C100.936 188.071 82.5167 169.62 82.5167 146.86C82.5167 146.12 82.5391 145.391 82.5783 144.657C84.6758 163.21 100.388 177.633 119.473 177.633C132.674 177.633 144.89 170.612 151.547 159.192C161.889 141.452 155.921 118.664 138.206 108.304C154.209 114.366 164.798 129.719 164.803 146.86C164.803 169.62 146.384 188.071 123.663 188.071H123.657Z" fill="#343433"/>
</g>
<defs>
<clipPath id="clip0_914_4563">
<rect width="225" height="250" fill="white"/>
</clipPath>
</defs>
</svg>
