<svg width="68" height="75" viewBox="0 0 68 75" fill="none" xmlns="http://www.w3.org/2000/svg">
<g clip-path="url(#clip0_914_4603)">
<path d="M64.6114 7.33913L64.2548 6.13892L62.85 5.97922C60.1807 5.68001 57.5638 2.19871 56.8622 0.998498L56.2689 0H11.7633L11.1784 1.00018C10.4752 2.19703 7.88026 5.67665 5.189 5.97754L3.78082 6.13723L3.42582 7.33745C-12.6338 61.3186 32.957 74.7226 33.4253 74.8437L34.0305 75L34.639 74.8403C35.1005 74.7142 80.5528 60.9101 64.6114 7.33913ZM34.0203 71.1338C28.5245 69.2746 -5.99529 55.5864 7.18378 9.32604C10.6375 8.30233 13.136 5.29002 14.2737 3.67293H53.7686C54.9063 5.29171 57.4032 8.30569 60.8586 9.32604C74.0359 55.5881 39.511 69.2746 34.022 71.1338H34.0203Z" fill="white"/>
<path d="M26.8261 26.7324V21.2238C26.8261 17.2903 30.0448 14.0898 34.0006 14.0898C37.9563 14.0898 41.175 17.2903 41.175 21.2238V26.7324C42.8097 27.4132 44.3278 28.3175 45.6886 29.4085V21.2238C45.6886 14.8159 40.4447 9.60156 34.0006 9.60156C27.5564 9.60156 22.3125 14.8159 22.3125 21.2238V29.4085C23.6733 28.3175 25.1914 27.4115 26.8261 26.7324Z" fill="white"/>
<path d="M34.0014 26.5859C24.4113 26.5859 16.6367 34.3167 16.6367 43.8529C16.6367 53.3891 24.4113 61.1199 34.0014 61.1199C43.5916 61.1199 51.3662 53.3891 51.3662 43.8529C51.3662 34.3167 43.5916 26.5859 34.0014 26.5859ZM34.0302 59.4994C25.2532 59.4994 18.1379 52.4242 18.1379 43.6966C18.1379 34.969 25.2532 27.8937 34.0302 27.8937C39.1033 27.8904 43.8705 30.2992 46.861 34.3739C44.2644 31.7499 40.7161 30.2723 37.0122 30.2774C29.3695 30.2774 23.1738 36.4381 23.1738 44.0378C23.1738 51.6375 29.3695 57.7983 37.0122 57.7983C39.6257 57.8016 42.1851 57.0654 44.3946 55.6752C41.5157 58.1479 37.8355 59.5078 34.0319 59.5028L34.0302 59.4994ZM30.5647 40.5212C30.5647 38.6335 32.103 37.1038 34.0014 37.1038C35.8999 37.1038 37.4382 38.6335 37.4382 40.5212C37.4382 41.8593 36.664 43.0175 35.5381 43.5772V49.074C35.5381 49.9179 34.8501 50.6003 34.0031 50.6003C33.1545 50.6003 32.4682 49.9162 32.4682 49.074V43.5772C31.3406 43.0158 30.5681 41.8593 30.5681 40.5212H30.5647ZM41.727 46.4752C43.5561 42.4173 41.7304 37.6518 37.6495 35.833C33.5687 34.0142 28.7761 35.8296 26.947 39.8875C28.1101 36.0061 31.7007 33.3435 35.7748 33.3435C36.9919 33.3435 38.1989 33.5838 39.3231 34.0511C44.0176 35.9994 46.2355 41.3634 44.2746 46.0314C42.3153 50.6995 36.9209 52.9049 32.2264 50.955C36.0706 51.9871 40.1007 50.0876 41.7287 46.4735L41.727 46.4752ZM37.3723 56.4199C30.5055 56.4199 24.9387 50.8844 24.9387 44.0563C24.9387 43.8344 24.9455 43.6159 24.9573 43.3957C25.5912 48.9614 30.3398 53.2882 36.1078 53.2882C40.0974 53.2882 43.7894 51.1819 45.8011 47.7561C48.9268 42.4342 47.123 35.5976 41.7692 32.4895C46.6057 34.3083 49.8058 38.9142 49.8075 44.0563C49.8075 50.8844 44.2407 56.4199 37.374 56.4199H37.3723Z" fill="white"/>
</g>
<defs>
<clipPath id="clip0_914_4603">
<rect width="68" height="75" fill="white"/>
</clipPath>
</defs>
</svg>
