<svg width="746" height="600" viewBox="0 0 746 600" fill="none" xmlns="http://www.w3.org/2000/svg">
<path d="M187.586 7.14844H558.191C588.233 7.14844 612.623 31.5115 612.623 61.5202V431.715C612.623 461.724 588.233 486.087 558.191 486.087H187.586C157.544 486.087 133.154 461.724 133.154 431.715V61.5202C133.154 31.5115 157.544 7.14844 187.586 7.14844Z" fill="#343433"/>
<path d="M558.191 14.293C584.194 14.293 605.469 35.5441 605.469 61.5183V431.713C605.469 457.687 584.194 478.938 558.191 478.938H187.586C161.583 478.938 140.309 457.687 140.309 431.713V61.5183C140.309 35.5441 161.583 14.293 187.586 14.293H558.191ZM558.191 0H187.586C153.629 0 126 27.5985 126 61.5183V431.713C126 465.633 153.629 493.231 187.586 493.231H558.191C592.149 493.231 619.778 465.633 619.778 431.713V61.5183C619.778 27.5985 592.149 0 558.191 0Z" fill="white"/>
<path d="M518.775 106.951L517.09 101.266L510.462 100.506C497.877 99.083 485.533 82.5876 482.215 76.9094L479.419 72.1797H269.496L266.738 76.9224C263.421 82.5941 251.18 99.0765 238.484 100.512L231.837 101.272L230.159 106.957C154.407 362.737 369.456 426.249 371.667 426.828L374.522 427.568L377.39 426.808C379.569 426.21 593.954 360.801 518.768 106.964L518.775 106.951ZM374.483 409.221C348.565 400.412 185.737 335.547 247.896 116.358C264.182 111.511 275.967 97.2379 281.333 89.5716H467.627C472.993 97.2379 484.772 111.524 501.071 116.358C563.229 335.56 400.382 400.412 374.483 409.221Z" fill="#33CFFF"/>
<path d="M374.386 198.164C329.151 198.164 292.475 234.793 292.475 279.985C292.475 325.177 329.144 361.806 374.386 361.806C419.628 361.806 456.298 325.177 456.298 279.985C456.298 234.793 419.628 198.164 374.386 198.164ZM381.625 278.673V304.725C381.625 308.72 378.38 311.956 374.386 311.956C370.386 311.956 367.147 308.714 367.147 304.725V278.673C361.833 276.015 358.178 270.532 358.178 264.191C358.178 255.252 365.437 248.001 374.386 248.001C383.336 248.001 390.594 255.252 390.594 264.191C390.594 270.532 386.945 276.015 381.625 278.673Z" fill="#0D87C5"/>
<path d="M340.545 198.843V172.745C340.545 154.106 355.725 138.942 374.385 138.942C393.045 138.942 408.225 154.106 408.225 172.745V198.843C415.939 202.065 423.094 206.353 429.513 211.525V172.745C429.513 142.379 404.778 117.672 374.379 117.672C343.979 117.672 319.244 142.379 319.244 172.745V211.525C325.664 206.353 332.825 202.065 340.532 198.843H340.545Z" fill="#0D87C5"/>
<path d="M388.584 346.042C352.539 346.042 323.316 316.852 323.316 280.846C323.316 244.841 352.539 215.651 388.584 215.651C406.047 215.631 422.789 222.628 435.036 235.063C420.935 215.755 398.444 204.34 374.516 204.359C333.111 204.359 299.551 237.883 299.551 279.242C299.551 320.6 333.111 354.124 374.516 354.124C392.46 354.143 409.82 347.705 423.4 335.985C412.987 342.573 400.909 346.061 388.584 346.048" fill="#33CFFF"/>
<path d="M411.023 226.139C436.271 240.868 444.785 273.254 430.04 298.475C420.551 314.71 403.14 324.689 384.317 324.689C357.111 324.689 334.711 304.192 331.719 277.815C331.667 278.848 331.635 279.894 331.635 280.94C331.635 313.294 357.891 339.522 390.281 339.522C422.671 339.522 448.928 313.294 448.928 280.94C448.928 256.577 433.832 234.754 411.016 226.133" fill="#33CFFF"/>
<path d="M382.744 230.188C363.531 230.188 346.595 242.798 341.105 261.197C349.736 241.966 372.338 233.364 391.59 241.979C410.841 250.6 419.453 273.177 410.828 292.407C403.147 309.527 384.142 318.531 366.009 313.639C388.155 322.871 413.599 312.424 422.841 290.309C432.083 268.187 421.625 242.772 399.485 233.54C394.185 231.331 388.494 230.188 382.751 230.188" fill="#33CFFF"/>
<rect y="486" width="746" height="114" rx="16" fill="white"/>
<g clip-path="url(#clip0_914_4466)">
<path d="M40.888 522.737C44.1467 516.836 48.6908 512.237 54.5202 508.942C60.3497 505.647 66.9576 504 74.344 504C83.3959 504 91.1443 506.39 97.5893 511.169C104.034 515.949 108.343 522.466 110.515 530.721H90.0943C88.5736 527.535 86.4192 525.109 83.6312 523.444C80.8432 521.778 77.6751 520.945 74.1267 520.945C68.4059 520.945 63.7713 522.937 60.2229 526.919C56.6746 530.902 54.9004 536.225 54.9004 542.887C54.9004 549.549 56.6746 554.872 60.2229 558.855C63.7713 562.838 68.4059 564.829 74.1267 564.829C77.6751 564.829 80.8432 563.996 83.6312 562.331C86.4192 560.665 88.5736 558.239 90.0943 555.053H110.515C108.343 563.308 104.034 569.807 97.5893 574.551C91.1443 579.294 83.3959 581.666 74.344 581.666C66.9576 581.666 60.3497 580.018 54.5202 576.723C48.6908 573.428 44.1467 568.848 40.888 562.982C37.6293 557.117 36 550.418 36 542.887C36 535.356 37.6293 528.639 40.888 522.737Z" fill="#343433"/>
<path d="M178.731 547.721C181.41 551.161 182.75 555.089 182.75 559.506C182.75 565.879 180.523 570.93 176.07 574.659C171.616 578.389 165.406 580.253 157.441 580.253H121.921V504H156.246C163.994 504 170.059 505.774 174.44 509.323C178.821 512.871 181.012 517.687 181.012 523.769C181.012 528.259 179.835 531.989 177.482 534.958C175.128 537.927 171.996 539.99 168.086 541.149C172.503 542.09 176.051 544.281 178.731 547.721ZM140.495 534.849H152.661C155.703 534.849 158.038 534.179 159.667 532.839C161.297 531.5 162.111 529.526 162.111 526.919C162.111 524.313 161.297 522.321 159.667 520.945C158.038 519.569 155.703 518.881 152.661 518.881H140.495V534.849ZM161.405 563.145C163.107 561.733 163.958 559.687 163.958 557.008C163.958 554.329 163.071 552.229 161.297 550.708C159.523 549.187 157.079 548.427 153.965 548.427H140.495V565.263H154.182C157.296 565.263 159.704 564.557 161.405 563.145Z" fill="#343433"/>
<path d="M206.104 579.384C201.686 577.574 198.156 574.895 195.513 571.346C192.87 567.798 191.476 563.525 191.331 558.529H211.1C211.39 561.353 212.368 563.507 214.033 564.992C215.699 566.476 217.871 567.219 220.551 567.219C223.23 567.219 225.475 566.585 227.068 565.318C228.661 564.05 229.458 562.294 229.458 560.05C229.458 558.167 228.824 556.61 227.557 555.379C226.29 554.148 224.733 553.134 222.886 552.337C221.039 551.541 218.414 550.636 215.011 549.622C210.087 548.101 206.068 546.58 202.954 545.06C199.84 543.539 197.16 541.294 194.916 538.325C192.671 535.356 191.548 531.482 191.548 526.702C191.548 519.606 194.119 514.048 199.261 510.029C204.402 506.01 211.1 504 219.356 504C227.611 504 234.527 506.01 239.668 510.029C244.81 514.048 247.562 519.642 247.924 526.811H227.828C227.684 524.349 226.778 522.412 225.113 521C223.447 519.587 221.311 518.881 218.704 518.881C216.459 518.881 214.649 519.479 213.273 520.674C211.897 521.868 211.209 523.588 211.209 525.833C211.209 528.295 212.368 530.214 214.685 531.59C217.002 532.966 220.623 534.451 225.547 536.044C230.472 537.709 234.473 539.303 237.55 540.823C240.628 542.344 243.289 544.553 245.534 547.449C247.779 550.346 248.901 554.075 248.901 558.637C248.901 563.2 247.797 566.929 245.588 570.477C243.38 574.026 240.175 576.85 235.975 578.95C231.775 581.05 226.815 582.1 221.094 582.1C215.373 582.1 210.521 581.195 206.104 579.384Z" fill="#343433"/>
<path d="M278.881 518.881V534.306H303.756V548.644H278.881V565.372H307.015V580.253H260.307V504H307.015V518.881H278.881Z" fill="#343433"/>
<path d="M320.805 522.737C324.064 516.836 328.608 512.237 334.437 508.942C340.267 505.647 346.875 504 354.261 504C363.313 504 371.061 506.39 377.506 511.169C383.951 515.949 388.26 522.466 390.432 530.721H370.011C368.491 527.535 366.336 525.109 363.548 523.444C360.76 521.778 357.592 520.945 354.044 520.945C348.323 520.945 343.688 522.937 340.14 526.919C336.592 530.902 334.817 536.225 334.817 542.887C334.817 549.549 336.592 554.872 340.14 558.855C343.688 562.838 348.323 564.829 354.044 564.829C357.592 564.829 360.76 563.996 363.548 562.331C366.336 560.665 368.491 558.239 370.011 555.053H390.432C388.26 563.308 383.951 569.807 377.506 574.551C371.061 579.294 363.313 581.666 354.261 581.666C346.875 581.666 340.267 580.018 334.437 576.723C328.608 573.428 324.064 568.848 320.805 562.982C317.546 557.117 315.917 550.418 315.917 542.887C315.917 535.356 317.546 528.639 320.805 522.737Z" fill="#343433"/>
<path d="M420.086 504V549.622C420.086 554.184 421.209 557.696 423.454 560.158C425.698 562.62 428.993 563.851 433.338 563.851C437.683 563.851 441.014 562.62 443.332 560.158C445.649 557.696 446.808 554.184 446.808 549.622V504H465.382V549.513C465.382 556.32 463.934 562.077 461.037 566.784C458.141 571.491 454.248 575.039 449.36 577.429C444.472 579.819 439.023 581.014 433.012 581.014C427.002 581.014 421.625 579.837 416.882 577.484C412.139 575.13 408.391 571.582 405.639 566.838C402.888 562.095 401.512 556.32 401.512 549.513V504H420.086Z" fill="#343433"/>
<path d="M517.304 580.253L501.445 551.468H496.992V580.253H478.417V504H509.592C515.602 504 520.726 505.05 524.962 507.15C529.198 509.25 532.366 512.129 534.466 515.786C536.567 519.443 537.617 523.516 537.617 528.006C537.617 533.075 536.186 537.601 533.326 541.584C530.466 545.566 526.247 548.391 520.671 550.056L538.268 580.253H517.304ZM496.992 538.325H508.506C511.909 538.325 514.462 537.492 516.164 535.827C517.865 534.161 518.716 531.808 518.716 528.766C518.716 525.725 517.865 523.588 516.164 521.923C514.462 520.257 511.909 519.424 508.506 519.424H496.992V538.325Z" fill="#343433"/>
<path d="M567.814 504V580.253H549.239V504H567.814Z" fill="#343433"/>
<path d="M636.139 504V518.881H615.935V580.253H597.36V518.881H577.156V504H636.139Z" fill="#343433"/>
<path d="M710.866 504L684.471 555.053V580.253H665.896V555.053L639.501 504H660.574L675.347 535.935L690.011 504H710.866Z" fill="#343433"/>
</g>
<defs>
<clipPath id="clip0_914_4466">
<rect width="674.866" height="78.1" fill="white" transform="translate(36 504)"/>
</clipPath>
</defs>
</svg>
