<svg width="68" height="75" viewBox="0 0 68 75" fill="none" xmlns="http://www.w3.org/2000/svg">
<g clip-path="url(#clip0_914_4583)">
<path d="M64.6115 7.33913L64.2548 6.13892L62.85 5.97922C60.1807 5.68001 57.5638 2.19871 56.8622 0.998498L56.2689 0H11.7633L11.1784 1.00018C10.4752 2.19703 7.88026 5.67665 5.189 5.97754L3.78082 6.13723L3.42582 7.33745C-12.6338 61.3186 32.957 74.7226 33.4253 74.8437L34.0305 75L34.639 74.8403C35.1005 74.7142 80.5528 60.9101 64.6115 7.33913ZM34.0203 71.1338C28.5245 69.2746 -5.99529 55.5864 7.18378 9.32604C10.6375 8.30233 13.136 5.29002 14.2737 3.67293H53.7686C54.9063 5.29171 57.4032 8.30569 60.8586 9.32604C74.0359 55.5881 39.511 69.2746 34.022 71.1338H34.0203Z" fill="#33CFFF"/>
<path d="M34.0014 26.5859C24.4113 26.5859 16.6367 34.3167 16.6367 43.8529C16.6367 53.3891 24.4113 61.1199 34.0014 61.1199C43.5916 61.1199 51.3662 53.3891 51.3662 43.8529C51.3662 34.3167 43.5916 26.5859 34.0014 26.5859ZM35.5364 43.5772V49.074C35.5364 49.9179 34.8484 50.6003 34.0014 50.6003C33.1528 50.6003 32.4665 49.9162 32.4665 49.074V43.5772C31.3389 43.0158 30.5664 41.8593 30.5664 40.5212C30.5664 38.6335 32.1047 37.1038 34.0031 37.1038C35.9016 37.1038 37.4399 38.6335 37.4399 40.5212C37.4399 41.8593 36.6657 43.0175 35.5398 43.5772H35.5364Z" fill="#0D87C5"/>
<path d="M26.8261 26.7324V21.2238C26.8261 17.2903 30.0448 14.0898 34.0006 14.0898C37.9563 14.0898 41.175 17.2903 41.175 21.2238V26.7324C42.8097 27.4132 44.3278 28.3175 45.6886 29.4085V21.2238C45.6886 14.8159 40.4447 9.60156 34.0006 9.60156C27.5564 9.60156 22.3125 14.8159 22.3125 21.2238V29.4085C23.6733 28.3175 25.1914 27.4115 26.8261 26.7324Z" fill="#0D87C5"/>
<path d="M37.013 57.7991C29.3703 57.7991 23.1746 51.6383 23.1746 44.0386C23.1746 36.4389 29.3703 30.2782 37.013 30.2782C40.7152 30.2731 44.2652 31.7507 46.8618 34.3747C43.873 30.3 39.1041 27.8912 34.031 27.8945C25.2539 27.8945 18.1387 34.9698 18.1387 43.6974C18.1387 52.425 25.2539 59.5002 34.031 59.5002C37.8363 59.5052 41.5148 58.1453 44.3937 55.6726C42.1859 57.0628 39.6248 57.7991 37.0113 57.7957" fill="#33CFFF"/>
<path d="M41.77 32.4922C47.1221 35.6003 48.9275 42.4351 45.8018 47.7588C43.7901 51.1846 40.0998 53.2909 36.1085 53.2909C30.3406 53.2909 25.592 48.9657 24.958 43.3983C24.9462 43.6169 24.9395 43.8371 24.9395 44.059C24.9395 50.8871 30.5062 56.4225 37.373 56.4225C44.2398 56.4225 49.8066 50.8871 49.8066 44.059C49.8066 38.9169 46.6065 34.311 41.7683 32.4922" fill="#33CFFF"/>
<path d="M35.7731 33.3477C31.699 33.3477 28.1101 36.0086 26.9453 39.8917C28.7744 35.8338 33.567 34.0167 37.6478 35.8372C41.7287 37.656 43.5561 42.4216 41.7253 46.4794C40.0973 50.0935 36.0672 51.993 32.223 50.9609C36.9175 52.9091 42.3119 50.7054 44.2712 46.0373C46.2304 41.3693 44.0142 36.0053 39.3197 34.057C38.1955 33.5897 36.9902 33.351 35.7714 33.3493" fill="#33CFFF"/>
</g>
<defs>
<clipPath id="clip0_914_4583">
<rect width="68" height="75" fill="white"/>
</clipPath>
</defs>
</svg>
