<svg width="451" height="500" viewBox="0 0 451 500" fill="none" xmlns="http://www.w3.org/2000/svg">
<g clip-path="url(#clip0_914_4493)">
<path d="M428.531 48.9158L426.165 40.9144L416.848 39.8498C399.144 37.855 381.788 14.6464 377.135 6.64494L373.2 -0.0117188H78.0234L74.144 6.65614C69.4799 14.6352 52.2695 37.8326 34.4202 39.8386L25.0806 40.9032L22.7261 48.9046C-83.7873 408.779 218.587 498.139 221.693 498.946L225.707 499.988L229.743 498.924C232.804 498.083 534.259 406.055 428.531 48.9158ZM225.64 474.213C189.19 461.819 -39.758 370.565 47.6502 62.1619C70.5562 55.3371 87.1275 35.2551 94.6731 24.4745H356.617C364.163 35.2663 380.723 55.3596 403.64 62.1619C491.037 370.576 262.056 461.819 225.651 474.213H225.64Z" fill="#33CFFF"/>
<path d="M225.505 177.254C161.9 177.254 110.336 228.793 110.336 292.367C110.336 355.941 161.9 407.48 225.505 407.48C289.11 407.48 340.674 355.941 340.674 292.367C340.674 228.793 289.11 177.254 225.505 177.254ZM235.685 290.529V327.174C235.685 332.8 231.122 337.35 225.505 337.35C219.877 337.35 215.324 332.789 215.324 327.174V290.529C207.846 286.786 202.722 279.076 202.722 270.156C202.722 257.571 212.925 247.373 225.516 247.373C238.107 247.373 248.31 257.571 248.31 270.156C248.31 279.076 243.175 286.797 235.708 290.529H235.685Z" fill="#0D87C5"/>
<path d="M177.922 178.217V141.493C177.922 115.27 199.27 93.9331 225.506 93.9331C251.742 93.9331 273.089 115.27 273.089 141.493V178.217C283.931 182.756 293.999 188.785 303.025 196.058V141.493C303.025 98.7743 268.246 64.0117 225.506 64.0117C182.766 64.0117 147.986 98.7743 147.986 141.493V196.058C157.012 188.785 167.08 182.744 177.922 178.217Z" fill="#0D87C5"/>
<path d="M245.474 385.324C194.785 385.324 153.693 344.253 153.693 293.588C153.693 242.924 194.785 201.852 245.474 201.852C270.028 201.818 293.573 211.669 310.795 229.162C290.972 201.997 259.343 185.939 225.696 185.961C167.484 185.961 120.293 233.129 120.293 291.313C120.293 349.497 167.484 396.665 225.696 396.665C250.934 396.699 275.332 387.633 294.426 371.148C279.783 380.416 262.797 385.324 245.463 385.302" fill="#33CFFF"/>
<path d="M277.024 216.609C312.521 237.33 324.496 282.896 303.765 318.387C290.423 341.226 265.947 355.267 239.476 355.267C201.221 355.267 169.726 326.433 165.522 289.317C165.443 290.774 165.398 292.242 165.398 293.721C165.398 339.242 202.319 376.145 247.862 376.145C293.405 376.145 330.326 339.242 330.326 293.721C330.326 259.441 309.102 228.735 277.013 216.609" fill="#33CFFF"/>
<path d="M237.256 222.305C210.235 222.305 186.432 240.045 178.707 265.932C190.838 238.879 222.624 226.765 249.69 238.901C276.755 251.027 288.875 282.797 276.733 309.85C265.936 333.944 239.207 346.607 213.711 339.726C244.846 352.715 280.624 338.023 293.618 306.902C306.613 275.782 291.914 240.022 260.778 227.034C253.322 223.918 245.328 222.327 237.245 222.316" fill="#33CFFF"/>
</g>
<defs>
<clipPath id="clip0_914_4493">
<rect width="451" height="500" fill="white"/>
</clipPath>
</defs>
</svg>
