<svg width="250" height="250" viewBox="0 0 250 250" fill="none" xmlns="http://www.w3.org/2000/svg">
<path d="M88.9702 37.6576L111.735 18.7727L111.758 18.7499L111.804 18.7841C112.61 18.9093 113.405 19.0345 114.211 19.1825C163.114 28.8128 194.78 75.8487 185.027 124.114C175.377 171.97 128.639 203.114 80.3341 194.361C90.755 192.027 100.773 187.292 109.524 180.04C138.852 155.703 142.687 112.469 118.068 83.4755C103.963 66.8559 83.5698 58.5347 63.2116 59.0241L88.9818 37.6462L88.9702 37.6576Z" fill="url(#paint0_linear_700_218)"/>
<path d="M10.8021 209.747C6.26309 204.022 6.97334 195.476 12.378 190.668C17.7827 185.86 25.851 186.612 30.39 192.337C34.9291 198.062 34.2188 206.608 28.8141 211.417C23.4094 216.225 15.3412 215.472 10.8021 209.747Z" fill="url(#paint1_linear_700_218)"/>
<path d="M138.432 247.511C97.0113 255.618 56.2649 243.435 26.9892 218.017C28.6977 217.304 30.3364 216.353 31.824 215.119C34.8922 212.605 36.9608 209.367 37.9719 205.88C44.3872 209.469 51.1629 212.526 58.2987 214.904C119.244 235.317 185.57 203.695 206.455 144.333C227.409 84.9607 194.949 20.3457 134.016 0C187.081 8.51418 229.141 48.0848 239.636 99.3623C253.675 167.51 208.384 233.812 138.432 247.5V247.511Z" fill="url(#paint2_linear_700_218)"/>
<defs>
<linearGradient id="paint0_linear_700_218" x1="7.81201" y1="125" x2="242.188" y2="125" gradientUnits="userSpaceOnUse">
<stop stop-color="#00DBFF"/>
<stop offset="1" stop-color="#00FF75"/>
</linearGradient>
<linearGradient id="paint1_linear_700_218" x1="7.81201" y1="125" x2="242.188" y2="125" gradientUnits="userSpaceOnUse">
<stop stop-color="#00DBFF"/>
<stop offset="1" stop-color="#00FF75"/>
</linearGradient>
<linearGradient id="paint2_linear_700_218" x1="7.81201" y1="125" x2="242.188" y2="125" gradientUnits="userSpaceOnUse">
<stop stop-color="#00DBFF"/>
<stop offset="1" stop-color="#00FF75"/>
</linearGradient>
</defs>
</svg>
