<svg width="328" height="50" viewBox="0 0 328 50" fill="none" xmlns="http://www.w3.org/2000/svg">
<path d="M29.4354 24.6969C32.252 25.2977 34.5145 26.7073 36.2229 28.9256C37.9313 31.0978 38.7855 33.5934 38.7855 36.4126C38.7855 40.4795 37.3541 43.7147 34.4914 46.1179C31.6748 48.4749 27.727 49.6534 22.6479 49.6534H0V0.988184H21.8861C26.8266 0.988184 30.6821 2.12047 33.4525 4.38504C36.269 6.64961 37.6773 9.72296 37.6773 13.6051C37.6773 16.4705 36.9155 18.8506 35.3917 20.7454C33.9142 22.6403 31.9287 23.9574 29.4354 24.6969ZM11.8434 20.6761H19.6005C21.5398 20.6761 23.0173 20.2602 24.0331 19.4283C25.0951 18.5502 25.6261 17.2792 25.6261 15.6155C25.6261 13.9517 25.0951 12.6808 24.0331 11.8027C23.0173 10.9246 21.5398 10.4855 19.6005 10.4855H11.8434V20.6761ZM20.5702 40.0867C22.5556 40.0867 24.0793 39.6477 25.1413 38.7696C26.2495 37.8453 26.8035 36.5281 26.8035 34.8181C26.8035 33.1081 26.2264 31.7679 25.072 30.7973C23.9639 29.8268 22.4171 29.3416 20.4316 29.3416H11.8434V40.0867H20.5702Z" fill="#303446"/>
<path d="M119.135 49.6534L109.231 34.7488L100.504 49.6534H87.0675L102.651 24.9048L86.7212 0.988184H100.504L110.27 15.6848L118.858 0.988184H132.294L116.849 25.5288L132.917 49.6534H119.135Z" fill="#303446"/>
<path d="M150.706 40.5027H166.221V49.6534H138.863V0.988184H150.706V40.5027Z" fill="#303446"/>
<path d="M202.136 41.0572H183.99L181.081 49.6534H168.684L186.276 0.988184H199.989L217.581 49.6534H205.045L202.136 41.0572ZM199.089 31.9065L193.063 14.0904L187.107 31.9065H199.089Z" fill="#303446"/>
<path d="M266.43 49.6534H254.587L234.779 19.6362V49.6534H222.935V0.988184H234.779L254.587 31.144V0.988184H266.43V49.6534Z" fill="#303446"/>
<path d="M307.29 16.378C306.413 14.7605 305.143 13.5358 303.481 12.7039C301.865 11.8258 299.949 11.3867 297.732 11.3867C293.9 11.3867 290.83 12.6577 288.521 15.1995C286.212 17.6952 285.058 21.0458 285.058 25.2515C285.058 29.7344 286.258 33.2468 288.659 35.7887C291.107 38.2843 294.454 39.5321 298.702 39.5321C301.611 39.5321 304.058 38.7927 306.044 37.3138C308.075 35.8349 309.553 33.7089 310.476 30.936H295.447V22.2012H321.211V33.2237C320.334 36.1815 318.834 38.9313 316.71 41.4732C314.632 44.0151 311.977 46.0717 308.745 47.643C305.513 49.2143 301.865 50 297.802 50C293 50 288.706 48.9601 284.919 46.8804C281.179 44.7545 278.247 41.8198 276.123 38.0763C274.046 34.3329 273.007 30.0579 273.007 25.2515C273.007 20.445 274.046 16.1701 276.123 12.4266C278.247 8.63689 281.179 5.70219 284.919 3.62248C288.659 1.49656 292.93 0.433594 297.732 0.433594C303.55 0.433594 308.445 1.84317 312.415 4.66234C316.433 7.4815 319.088 11.3867 320.38 16.378H307.29Z" fill="#303446"/>
<path d="M59.185 7.508L63.7237 3.74282L63.7283 3.73828L63.7375 3.74509C63.8982 3.77005 64.0566 3.79502 64.2173 3.82452C73.9674 5.74456 80.2808 15.1223 78.3363 24.7452C76.4124 34.2864 67.0939 40.4959 57.4631 38.7506C59.5408 38.2854 61.5381 37.3412 63.2829 35.8955C69.1303 31.0432 69.8947 22.4235 64.9864 16.6429C62.1741 13.3294 58.1082 11.6704 54.0493 11.7679L59.1873 7.50573L59.185 7.508Z" fill="#303446"/>
<path d="M43.6001 41.8182C42.6951 40.6768 42.8367 38.9729 43.9143 38.0143C44.9918 37.0557 46.6004 37.2057 47.5054 38.3471C48.4104 39.4885 48.2688 41.1925 47.1912 42.1511C46.1136 43.1097 44.505 42.9597 43.6001 41.8182Z" fill="#303446"/>
<path d="M69.0466 49.3475C60.7883 50.9638 52.6645 48.5349 46.8276 43.4672C47.1683 43.325 47.495 43.1353 47.7916 42.8893C48.4033 42.3882 48.8157 41.7426 49.0173 41.0473C50.2964 41.7629 51.6473 42.3724 53.07 42.8464C65.221 46.9164 78.4448 40.6116 82.6087 28.7765C86.7865 16.939 80.3148 4.05642 68.1661 0C78.7461 1.69751 87.1317 9.58689 89.2241 19.8103C92.0232 33.3972 82.9933 46.6162 69.0466 49.3453V49.3475Z" fill="#303446"/>
<path d="M324.599 0C325.284 0 325.923 0.254665 326.375 0.740624C326.595 0.96024 326.77 1.23826 326.897 1.53965C327.141 2.15294 327.141 2.83632 326.897 3.43793C326.781 3.73932 326.595 4.01735 326.351 4.23696C326.108 4.47994 325.852 4.654 325.527 4.78133C325.224 4.89698 324.912 4.96707 324.586 4.96707C324.26 4.96707 323.924 4.90866 323.622 4.77082C323.32 4.63297 323.041 4.44606 322.797 4.21477C322.333 3.75217 322.078 3.13771 322.078 2.50105C322.078 1.8644 322.102 2.06066 322.159 1.84104C322.216 1.62142 322.322 1.40064 322.414 1.22775C322.913 0.463765 323.726 0 324.597 0M324.611 0.417038C324.355 0.417038 324.065 0.452084 323.833 0.556051C323.589 0.660018 323.369 0.799026 323.171 0.996447C322.973 1.19387 322.811 1.43685 322.707 1.67983C322.382 2.43213 322.544 3.33513 323.149 3.91455C323.346 4.1108 323.567 4.27317 323.834 4.37714C324.078 4.4811 324.356 4.53951 324.635 4.53951C324.914 4.53951 325.181 4.4811 325.413 4.37714C325.668 4.27317 325.889 4.12248 326.098 3.93674C326.308 3.751 326.435 3.54306 326.54 3.27672C326.644 3.03374 326.703 2.77908 326.703 2.50105C326.703 2.22303 326.668 1.94501 326.54 1.67866C326.436 1.424 326.285 1.20438 326.098 1.01864C325.902 0.82239 325.68 0.660018 325.413 0.556051C325.158 0.487129 324.879 0.417038 324.612 0.417038M323.577 1.06537H324.658C324.96 1.04201 325.272 1.10042 325.54 1.26162C325.736 1.40064 325.842 1.62026 325.842 1.86324C325.842 2.10622 325.783 2.1985 325.679 2.32583C325.563 2.46484 325.4 2.54545 325.237 2.58049L325.852 3.81875H325.11L324.587 2.70782H324.251V3.84212H323.589V1.06303H323.577V1.06537ZM324.239 1.50578V2.3048H324.576C324.715 2.32816 324.878 2.28144 325.017 2.20084C325.121 2.14243 325.157 2.0151 325.157 1.89945C325.157 1.7838 325.121 1.65647 325.017 1.57469C324.878 1.49409 324.715 1.45905 324.553 1.47073L324.239 1.50578Z" fill="#303446"/>
</svg>
