<svg width="655" height="100" viewBox="0 0 655 100" fill="none" xmlns="http://www.w3.org/2000/svg">
<path d="M58.8708 49.3939C64.5039 50.5955 69.0289 53.4147 72.4457 57.8514C75.8625 62.1957 77.571 67.187 77.571 72.8254C77.571 80.9594 74.7082 87.4296 68.9827 92.2361C63.3496 96.9501 55.454 99.3071 45.2959 99.3071H0V1.97637H43.7722C53.6532 1.97637 61.3642 4.24095 66.9049 8.77011C72.5381 13.2993 75.3546 19.446 75.3546 27.2103C75.3546 32.941 73.8309 37.7013 70.7835 41.491C67.8284 45.2807 63.8575 47.915 58.8708 49.3939ZM23.6868 41.3523H39.201C43.0796 41.3523 46.0347 40.5204 48.0663 38.8567C50.1903 37.1005 51.2522 34.5586 51.2522 31.231C51.2522 27.9035 50.1903 25.3616 48.0663 23.6054C46.0347 21.8492 43.0796 20.9711 39.201 20.9711H23.6868V41.3523ZM41.1403 80.1737C45.1112 80.1737 48.1586 79.2956 50.2826 77.5394C52.4989 75.6908 53.6071 73.0565 53.6071 69.6365C53.6071 66.2165 52.4527 63.536 50.1441 61.5949C47.9278 59.6538 44.8342 58.6833 40.8633 58.6833H23.6868V80.1737H41.1403Z" fill="#303446"/>
<path d="M238.27 99.3071L218.461 69.4978L201.008 99.3071H174.135L205.302 49.8098L173.442 1.97637H201.008L220.539 31.3697L237.715 1.97637H264.588L233.698 51.0577L265.835 99.3071H238.27Z" fill="#303446"/>
<path d="M301.413 81.0056H332.441V99.3071H277.726V1.97637H301.413V81.0056Z" fill="#303446"/>
<path d="M404.272 82.1148H367.98L362.162 99.3071H337.367L372.551 1.97637H399.978L435.162 99.3071H410.09L404.272 82.1148ZM398.177 63.8133L386.126 28.1808L374.214 63.8133H398.177Z" fill="#303446"/>
<path d="M532.861 99.3071H509.174L469.557 39.2726V99.3071H445.87V1.97637H469.557L509.174 62.2881V1.97637H532.861V99.3071Z" fill="#303446"/>
<path d="M614.581 32.7562C612.826 29.5211 610.286 27.0716 606.962 25.4078C603.73 23.6516 599.898 22.7735 595.465 22.7735C587.8 22.7735 581.659 25.3154 577.042 30.3992C572.424 35.3905 570.116 42.0918 570.116 50.5031C570.116 59.469 572.517 66.4938 577.319 71.5775C582.213 76.5689 588.908 79.0645 597.404 79.0645C603.222 79.0645 608.116 77.5856 612.087 74.6278C616.15 71.67 619.106 67.4181 620.952 61.8722H590.894V44.4026H642.423V66.4476C640.668 72.3632 637.667 77.8629 633.419 82.9467C629.264 88.0304 623.954 92.1436 617.49 95.2863C611.025 98.429 603.73 100 595.603 100C585.999 100 577.411 97.9206 569.839 93.7612C562.359 89.5093 556.495 83.6399 552.247 76.1529C548.091 68.6659 546.013 60.116 546.013 50.5031C546.013 40.8902 548.091 32.3402 552.247 24.8533C556.495 17.2738 562.359 11.4044 569.839 7.24498C577.319 2.99312 585.861 0.867188 595.465 0.867188C607.101 0.867188 616.889 3.68636 624.831 9.3247C632.865 14.963 638.175 22.7735 640.761 32.7562H614.581Z" fill="#303446"/>
<path d="M118.369 15.016L127.447 7.48564L127.456 7.47656L127.474 7.49018C127.796 7.54011 128.113 7.59004 128.434 7.64905C147.934 11.4891 160.561 30.2448 156.672 49.4906C152.824 68.5731 134.187 80.9921 114.926 77.5015C119.081 76.571 123.076 74.6827 126.565 71.7913C138.26 62.0867 139.789 44.8471 129.972 33.286C124.348 26.6589 116.216 23.3408 108.098 23.536L118.374 15.0115L118.369 15.016Z" fill="#303446"/>
<path d="M87.2001 83.6375C85.3902 81.3547 85.6734 77.9468 87.8285 76.0296C89.9837 74.1124 93.2009 74.4124 95.0108 76.6952C96.8208 78.9781 96.5376 82.3859 94.3824 84.3031C92.2273 86.2203 89.0101 85.9203 87.2001 83.6375Z" fill="#303446"/>
<path d="M138.093 98.6954C121.577 101.928 105.329 97.0701 93.6553 86.9346C94.3365 86.6502 94.9899 86.271 95.5831 85.7789C96.8066 84.7766 97.6315 83.4854 98.0346 82.0949C100.593 83.5261 103.295 84.745 106.14 85.6931C130.442 93.8331 156.89 81.2236 165.217 57.5531C173.573 33.8781 160.63 8.11288 136.332 0C157.492 3.39504 174.263 19.1738 178.448 39.6208C184.046 66.7947 165.987 93.2326 138.093 98.6909V98.6954Z" fill="#303446"/>
<path d="M649.198 0C650.568 0 651.845 0.509331 652.75 1.48125C653.19 1.92049 653.539 2.47653 653.794 3.07931C654.282 4.30589 654.282 5.67266 653.794 6.87588C653.562 7.47866 653.19 8.03472 652.703 8.47395C652.215 8.95991 651.705 9.30802 651.053 9.56269C650.449 9.79399 649.823 9.93417 649.172 9.93417C648.521 9.93417 647.848 9.81736 647.244 9.54167C646.64 9.26598 646.082 8.89216 645.595 8.42956C644.667 7.50437 644.156 6.27543 644.156 5.00212C644.156 3.72881 644.203 4.12133 644.318 3.68209C644.433 3.24286 644.644 2.80129 644.829 2.45551C645.827 0.927534 647.453 0 649.193 0M649.221 0.834079C648.711 0.834079 648.13 0.90417 647.666 1.11211C647.178 1.32004 646.738 1.59806 646.342 1.9929C645.946 2.38774 645.623 2.87371 645.414 3.35968C644.763 4.86429 645.089 6.67029 646.298 7.82912C646.691 8.22162 647.134 8.54637 647.668 8.7543C648.155 8.96224 648.713 9.07906 649.271 9.07906C649.828 9.07906 650.362 8.96224 650.826 8.7543C651.337 8.54637 651.777 8.24499 652.197 7.87351C652.616 7.50203 652.869 7.08615 653.08 6.55346C653.288 6.0675 653.405 5.55818 653.405 5.00212C653.405 4.44607 653.335 3.89002 653.08 3.35734C652.871 2.84801 652.569 2.40877 652.197 2.03729C651.803 1.64478 651.36 1.32004 650.826 1.11211C650.315 0.974261 649.758 0.834079 649.224 0.834079M647.155 2.13075H649.315C649.919 2.08402 650.545 2.20084 651.079 2.52326C651.473 2.80128 651.684 3.24052 651.684 3.72648C651.684 4.21245 651.566 4.39701 651.358 4.65167C651.126 4.9297 650.8 5.09092 650.475 5.16101L651.705 7.63753H650.219L649.174 5.41566H648.502V7.68426H647.178V2.12607H647.155V2.13075ZM648.479 3.01156V4.60962H649.151C649.43 4.65634 649.755 4.5629 650.034 4.40169C650.243 4.28488 650.313 4.03021 650.313 3.79891C650.313 3.56761 650.243 3.31294 650.034 3.1494C649.755 2.98819 649.43 2.91811 649.107 2.94147L648.479 3.01156Z" fill="#303446"/>
</svg>
