<svg width="746" height="100" viewBox="0 0 746 100" fill="none" xmlns="http://www.w3.org/2000/svg">
<path d="M113.739 34.2334C116.212 29.7503 119.67 26.2523 124.093 23.7594C128.515 21.2464 133.521 20 139.13 20C146.006 20 151.876 21.8093 156.781 25.4481C161.666 29.0869 164.943 34.0324 166.592 40.3047H151.092C149.946 37.8923 148.298 36.0428 146.187 34.7762C144.076 33.5097 141.663 32.8865 138.969 32.8865C134.627 32.8865 131.109 34.3943 128.415 37.4299C125.721 40.4455 124.374 44.5064 124.374 49.5524C124.374 54.5985 125.721 58.6594 128.415 61.675C131.109 64.6905 134.627 66.2184 138.969 66.2184C141.663 66.2184 144.076 65.5952 146.187 64.3287C148.298 63.0621 149.946 61.2327 151.092 58.8002H166.592C164.943 65.0725 161.666 69.9979 156.781 73.5965C151.876 77.195 146.006 79.0044 139.13 79.0044C133.521 79.0044 128.495 77.758 124.073 75.245C119.65 72.7521 116.192 69.2742 113.719 64.8112C111.246 60.3481 110 55.2619 110 49.5524C110 43.843 111.246 38.7367 113.719 34.2535L113.739 34.2334Z" fill="white"/>
<path d="M187.681 75.5063C183.137 72.9733 179.539 69.4551 176.865 64.9117C174.191 60.3682 172.864 55.282 172.864 49.6128C172.864 43.9435 174.191 38.8573 176.865 34.354C179.539 29.8508 183.137 26.3327 187.681 23.7996C192.224 21.2665 197.21 20 202.658 20C208.106 20 213.092 21.2665 217.635 23.7996C222.179 26.3327 225.737 29.8508 228.35 34.354C230.964 38.8573 232.271 43.9435 232.271 49.6128C232.271 55.282 230.944 60.3682 228.31 64.9117C225.677 69.4551 222.098 72.9733 217.595 75.5063C213.092 78.0394 208.106 79.3059 202.658 79.3059C197.21 79.3059 192.224 78.0394 187.681 75.5063ZM213.735 61.8157C216.509 58.7398 217.897 54.6789 217.897 49.6128C217.897 44.5466 216.509 40.4254 213.735 37.3696C210.961 34.3138 207.262 32.786 202.638 32.786C198.014 32.786 194.234 34.2937 191.46 37.3294C188.686 40.345 187.299 44.4461 187.299 49.6128C187.299 54.7794 188.686 58.8203 191.46 61.8559C194.234 64.9117 197.954 66.4396 202.638 66.4396C207.322 66.4396 210.961 64.8916 213.735 61.8157Z" fill="white"/>
<path d="M305.669 20.8281V78.7268H291.556V44.0077L278.609 78.7268H267.231L254.204 43.9273V78.7268H240.091V20.8281H256.757L273.001 60.9149L289.084 20.8281H305.669Z" fill="white"/>
<path d="M381.38 20.8281V78.7268H367.267V44.0077L354.32 78.7268H342.942L329.915 43.9273V78.7268H315.802V20.8281H332.468L348.712 60.9149L364.815 20.8281H381.4H381.38Z" fill="white"/>
<path d="M427.577 68.494H405.966L402.508 78.7268H387.752L408.68 20.8281H425.004L445.952 78.7268H431.015L427.557 68.494H427.577ZM423.939 57.6179L416.762 36.4286L409.665 57.6179H423.939Z" fill="white"/>
<path d="M504.113 78.7268H490L466.418 43.0025V78.7268H452.306V20.8281H466.418L490 56.7132V20.8281H504.113V78.7268Z" fill="white"/>
<path d="M552.039 24.4468C556.603 26.8592 560.141 30.2568 562.634 34.6394C565.127 39.022 566.393 44.0479 566.393 49.7775C566.393 55.507 565.147 60.4726 562.634 64.8753C560.121 69.2781 556.583 72.6756 551.999 75.1081C547.415 77.5206 542.088 78.7469 536.037 78.7469H514.345V20.8281H536.037C542.148 20.8281 547.476 22.0343 552.039 24.4468ZM547.596 62.1412C550.572 59.2262 552.059 55.1049 552.059 49.7775C552.059 44.45 550.572 40.2885 547.596 37.3132C544.621 34.3378 540.48 32.8702 535.132 32.8702H528.458V66.5239H535.132C540.459 66.5239 544.621 65.0764 547.596 62.1613V62.1412Z" fill="white"/>
<path d="M617.457 54.0193C619.487 56.6328 620.513 59.6082 620.513 62.9655C620.513 67.8105 618.824 71.6503 615.447 74.4648C612.069 77.2994 607.345 78.7067 601.294 78.7067H574.314V20.8281H600.369C606.259 20.8281 610.863 22.1751 614.18 24.869C617.497 27.5629 619.166 31.2217 619.166 35.8456C619.166 39.2632 618.261 42.0777 616.492 44.3495C614.703 46.6011 612.331 48.1692 609.355 49.0537C612.713 49.7775 615.406 51.426 617.437 54.0395L617.457 54.0193ZM588.407 44.2489H597.635C599.947 44.2489 601.716 43.7464 602.962 42.7211C604.209 41.6958 604.812 40.2081 604.812 38.2178C604.812 36.2276 604.189 34.7198 602.962 33.6744C601.736 32.629 599.947 32.1063 597.635 32.1063H588.407V44.2288V44.2489ZM604.289 65.7398C605.576 64.6743 606.219 63.1062 606.219 61.0757C606.219 59.0453 605.535 57.4571 604.189 56.2911C602.842 55.1452 600.992 54.5621 598.62 54.5621H588.387V67.3481H598.781C601.133 67.3481 602.962 66.8053 604.269 65.7398H604.289Z" fill="white"/>
<path d="M728.973 78.7268L717.172 60.9953L706.778 78.7268H690.776L709.331 49.2749L690.354 20.8281H706.778L718.418 38.3183L728.651 20.8281H744.654L726.259 50.0187L745.397 78.7268H728.973Z" fill="white"/>
<path d="M663.215 76.8126C648.904 76.8126 637.304 65.2541 637.304 50.9948C637.304 36.7355 648.904 25.177 663.215 25.177C670.433 25.177 676.957 28.1188 681.656 32.865C676.243 25.4974 667.501 20.707 657.632 20.707C641.194 20.707 627.868 33.9818 627.868 50.36C627.868 66.7382 641.194 80.013 657.629 80.013C665.044 80.013 671.822 77.3034 677.037 72.8304C673.034 75.352 668.297 76.8155 663.215 76.8155" fill="white"/>
<path d="M672.122 29.3242C678.351 32.9596 682.54 39.6954 682.54 47.4069C682.54 58.9742 673.128 68.3492 661.522 68.3521C650.72 68.3521 641.828 60.235 640.642 49.7903C640.621 50.2018 640.606 50.6132 640.606 51.0276C640.606 63.841 651.033 74.2269 663.89 74.2269C676.747 74.2269 687.174 63.838 687.174 51.0276C687.174 41.1031 680.918 32.6392 672.122 29.3242Z" fill="white"/>
<path d="M660.896 30.9336C653.083 30.9336 646.485 36.1118 644.364 43.2121C646.733 37.9457 652.039 34.278 658.206 34.278C666.583 34.278 673.373 41.0432 673.373 49.3896C673.373 57.7359 666.583 64.5011 658.206 64.5011C656.838 64.5011 655.511 64.316 654.248 63.978C656.292 64.8303 658.54 65.3005 660.896 65.3034C670.423 65.3034 678.142 57.6066 678.142 48.117C678.142 38.6246 670.42 30.9336 660.896 30.9336Z" fill="white"/>
<path d="M0 21.4336L23.3589 45.6543V55.7019L0 80.0876V69.0315L17.7117 50.6781L0 32.4713V21.4336Z" fill="url(#paint0_linear_710_2785)"/>
<path d="M70.2423 82.9309C52.5306 82.9675 38.1009 68.6478 38.0642 50.9361C38.0276 33.2244 52.3473 18.7946 70.059 18.758C78.6765 18.7213 86.9273 22.1866 92.9962 28.3106C81.0234 11.8456 57.9762 8.21527 41.4929 20.1881C25.0096 32.1609 21.3976 55.2082 33.3705 71.6914C45.3433 88.1564 68.3905 91.7867 84.8737 79.8139C85.6805 79.2272 86.4872 78.5854 87.2206 77.962C82.1785 81.244 76.2562 83.0042 70.2423 82.9309Z" fill="url(#paint1_linear_710_2785)"/>
<path d="M81.1698 23.8914C93.5643 31.1338 97.763 47.067 90.5574 59.4616C83.315 71.8561 67.3818 76.0548 54.9873 68.8491C47.8732 64.7237 43.1611 57.463 42.2444 49.2672V50.7707C42.2444 66.7406 55.1706 79.6485 71.1221 79.6485C87.0737 79.6485 99.9999 66.7223 99.9999 50.7707C99.8349 38.8162 92.3725 28.1269 81.1698 23.8914Z" fill="url(#paint2_linear_710_2785)"/>
<path d="M67.3259 25.9259C57.8283 25.8892 49.5042 32.1598 46.8456 41.2541C51.1543 31.7931 62.3204 27.6311 71.7813 31.9398C81.2422 36.2486 85.4043 47.4147 81.0955 56.8756C78.0519 63.6046 71.3229 67.8766 63.9706 67.8766C62.3204 67.84 60.6703 67.6383 59.0751 67.2533C61.697 68.3717 64.5023 68.9401 67.3809 68.9034C79.2437 68.8301 88.8146 59.1675 88.7413 47.3046C88.6313 35.4785 79.097 25.9626 67.3259 25.9259Z" fill="url(#paint3_linear_710_2785)"/>
<defs>
<linearGradient id="paint0_linear_710_2785" x1="0" y1="50.001" x2="99.9999" y2="50.001" gradientUnits="userSpaceOnUse">
<stop stop-color="#00DBFF"/>
<stop offset="1" stop-color="#00FF75"/>
</linearGradient>
<linearGradient id="paint1_linear_710_2785" x1="0" y1="50.001" x2="99.9999" y2="50.001" gradientUnits="userSpaceOnUse">
<stop stop-color="#00DBFF"/>
<stop offset="1" stop-color="#00FF75"/>
</linearGradient>
<linearGradient id="paint2_linear_710_2785" x1="0" y1="50.001" x2="99.9999" y2="50.001" gradientUnits="userSpaceOnUse">
<stop stop-color="#00DBFF"/>
<stop offset="1" stop-color="#00FF75"/>
</linearGradient>
<linearGradient id="paint3_linear_710_2785" x1="0" y1="50.001" x2="99.9999" y2="50.001" gradientUnits="userSpaceOnUse">
<stop stop-color="#00DBFF"/>
<stop offset="1" stop-color="#00FF75"/>
</linearGradient>
</defs>
</svg>
