<svg width="75" height="75" viewBox="0 0 75 75" fill="none" xmlns="http://www.w3.org/2000/svg">
<path d="M0 16.0732L17.5192 34.2388V41.7745L0 60.0638V51.7717L13.2838 38.0066L0 24.3515V16.0732Z" fill="white"/>
<path d="M52.6818 62.1962C39.398 62.2237 28.5757 51.4839 28.5482 38.2001C28.5207 24.9163 39.2605 14.094 52.5443 14.0665C59.0074 14.039 65.1955 16.638 69.7472 21.231C60.7676 8.88226 43.4821 6.1595 31.1197 15.1391C18.7572 24.1188 16.0482 41.4042 25.0279 53.7667C34.0075 66.1154 51.2929 68.8381 63.6554 59.8585C64.2604 59.4185 64.8655 58.9372 65.4155 58.4696C61.6339 60.9311 57.1922 62.2512 52.6818 62.1962Z" fill="white"/>
<path d="M60.8774 17.9166C70.1733 23.3484 73.3223 35.2983 67.9181 44.5942C62.4863 53.8901 50.5364 57.0392 41.2405 51.6349C35.905 48.5409 32.3709 43.0953 31.6833 36.9485V38.0761C31.6833 50.0535 41.378 59.7345 53.3417 59.7345C65.3053 59.7345 75 50.0398 75 38.0761C74.8762 29.1102 69.2794 21.0932 60.8774 17.9166Z" fill="white"/>
<path d="M50.4945 19.4425C43.3713 19.415 37.1282 24.1179 35.1342 30.9386C38.3658 23.8429 46.7403 20.7214 53.836 23.9529C60.9317 27.1845 64.0533 35.5591 60.8217 42.6548C58.539 47.7015 53.4922 50.9056 47.978 50.9056C46.7403 50.8781 45.5027 50.7268 44.3064 50.438C46.2728 51.2768 48.3768 51.7031 50.5357 51.6756C59.4328 51.6206 66.611 44.3737 66.556 35.4766C66.4735 26.6069 59.3228 19.47 50.4945 19.4425Z" fill="white"/>
</svg>
