<svg width="516" height="600" viewBox="0 0 516 600" fill="none" xmlns="http://www.w3.org/2000/svg">
<g clip-path="url(#clip0_1054_9867)">
<path d="M516 257.857C516 115.447 400.489 0 258 0C115.511 0 0 115.447 0 257.857C0 400.268 115.511 515.714 258 515.714C400.489 515.714 516 400.268 516 257.857Z" fill="url(#paint0_linear_1054_9867)"/>
<g opacity="0.4">
<path d="M215.845 98.7492L257.013 64.2188H257.125C258.583 64.443 260.019 64.6896 261.477 64.9587C349.871 82.5602 407.124 168.55 389.49 256.76C372.036 344.252 287.547 401.182 200.208 385.15C219.053 380.867 237.158 372.212 252.997 358.983C306.011 314.52 312.965 235.481 268.432 182.452C242.901 152.07 206.064 136.867 169.271 137.764L215.845 98.7043V98.7492Z" fill="url(#paint1_linear_1054_9867)"/>
<path d="M306.437 482.978C232.268 497.867 159.243 475.489 106.79 428.783C109.841 427.46 112.78 425.734 115.472 423.447C120.946 418.85 124.671 412.864 126.488 406.473C137.952 413.065 150.112 418.671 162.899 423.066C272.067 460.578 390.882 402.46 428.303 293.397C465.836 184.29 407.685 65.5411 298.563 28.1406C393.596 43.769 468.977 116.53 487.733 210.726C512.904 335.955 431.735 457.798 306.437 482.956V482.978Z" fill="url(#paint2_linear_1054_9867)"/>
</g>
<path d="M450.984 508.516H432.902V490.421C432.902 487.932 430.882 485.914 428.392 485.914C425.902 485.914 423.883 487.954 423.883 490.421V508.516H405.8C403.31 508.516 401.291 510.556 401.291 513.023C401.291 515.489 403.31 517.53 405.8 517.53H423.883V535.624C423.883 538.113 425.902 540.131 428.392 540.131C430.882 540.131 432.902 538.091 432.902 535.624V517.53H450.984C453.474 517.53 455.493 515.489 455.493 513.023C455.493 510.556 453.474 508.516 450.984 508.516Z" fill="#00DBFF"/>
<path d="M492.04 488.313H473.957V470.218C473.957 467.729 471.938 465.711 469.448 465.711C466.958 465.711 464.939 467.751 464.939 470.218V488.313H446.856C444.366 488.313 442.347 490.353 442.347 492.82C442.347 495.286 444.366 497.326 446.856 497.326H464.939V515.421C464.939 517.91 466.958 519.928 469.448 519.928C471.938 519.928 473.957 517.888 473.957 515.421V497.326H492.04C494.53 497.326 496.549 495.286 496.549 492.82C496.549 490.353 494.53 488.313 492.04 488.313Z" fill="#00FF78"/>
<path d="M77.1754 596.705C73.2269 594.508 70.086 591.436 67.7752 587.489C65.4645 583.543 64.2979 579.104 64.2979 574.171C64.2979 569.238 65.4645 564.82 67.7752 560.897C70.1085 556.973 73.2269 553.923 77.1754 551.726C81.1239 549.528 85.4538 548.43 90.21 548.43C94.9662 548.43 99.2961 549.528 103.245 551.726C107.193 553.923 110.289 556.995 112.578 560.897C114.866 564.798 115.988 569.238 115.988 574.171C115.988 579.104 114.843 583.543 112.533 587.489C110.222 591.436 107.126 594.508 103.2 596.705C99.2737 598.902 94.9438 600.001 90.21 600.001C85.4763 600.001 81.1239 598.902 77.1754 596.705ZM99.857 584.799C102.28 582.131 103.491 578.588 103.491 574.171C103.491 569.753 102.28 566.166 99.857 563.52C97.434 560.874 94.2259 559.529 90.21 559.529C86.1942 559.529 82.8963 560.852 80.4958 563.475C78.0728 566.099 76.8838 569.664 76.8838 574.171C76.8838 578.677 78.0952 582.175 80.4958 584.821C82.9187 587.467 86.1493 588.812 90.21 588.812C94.2707 588.812 97.4565 587.467 99.857 584.799Z" fill="white"/>
<path d="M148.473 599.509L137.996 580.495H135.057V599.509H122.785V549.148H143.38C147.351 549.148 150.739 549.844 153.521 551.234C156.325 552.624 158.412 554.53 159.803 556.929C161.194 559.351 161.889 562.041 161.889 565.001C161.889 568.342 160.947 571.347 159.04 573.97C157.155 576.593 154.373 578.477 150.672 579.576L162.293 599.509H148.451H148.473ZM135.057 571.817H142.662C144.906 571.817 146.588 571.279 147.71 570.158C148.832 569.059 149.393 567.512 149.393 565.494C149.393 563.588 148.832 562.086 147.71 560.987C146.588 559.889 144.906 559.351 142.662 559.351H135.057V571.84V571.817Z" fill="white"/>
<path d="M205.817 549.148V558.969H192.468V599.487H180.196V558.969H166.848V549.148H205.817Z" fill="white"/>
<path d="M224.056 549.148V579.284C224.056 582.289 224.796 584.621 226.277 586.235C227.758 587.849 229.934 588.679 232.806 588.679C235.677 588.679 237.876 587.872 239.401 586.235C240.927 584.598 241.69 582.289 241.69 579.284V549.148H253.962V579.194C253.962 583.701 252.997 587.491 251.09 590.607C249.183 593.724 246.603 596.056 243.372 597.648C240.142 599.218 236.53 600.002 232.581 600.002C228.633 600.002 225.043 599.218 221.925 597.67C218.784 596.123 216.316 593.769 214.499 590.63C212.682 587.491 211.762 583.679 211.762 579.194V549.148H224.034H224.056Z" fill="white"/>
<path d="M270.922 598.207C268.006 597.019 265.672 595.248 263.923 592.893C262.173 590.539 261.253 587.736 261.163 584.44H274.22C274.4 586.301 275.05 587.736 276.15 588.7C277.249 589.687 278.685 590.18 280.457 590.18C282.229 590.18 283.71 589.754 284.764 588.924C285.819 588.095 286.335 586.929 286.335 585.449C286.335 584.216 285.909 583.184 285.079 582.355C284.248 581.548 283.216 580.875 282.005 580.337C280.794 579.799 279.044 579.216 276.8 578.543C273.547 577.534 270.9 576.525 268.836 575.538C266.772 574.552 264.999 573.049 263.519 571.099C262.038 569.148 261.298 566.592 261.298 563.43C261.298 558.744 262.98 555.067 266.39 552.421C269.8 549.775 274.22 548.43 279.672 548.43C285.123 548.43 289.7 549.753 293.088 552.421C296.475 555.089 298.293 558.766 298.539 563.498H285.258C285.168 561.883 284.563 560.605 283.463 559.663C282.364 558.722 280.951 558.273 279.223 558.273C277.742 558.273 276.553 558.677 275.634 559.461C274.736 560.246 274.265 561.39 274.265 562.87C274.265 564.484 275.028 565.762 276.553 566.659C278.079 567.578 280.479 568.543 283.732 569.596C286.986 570.695 289.633 571.749 291.674 572.758C293.716 573.767 295.466 575.224 296.947 577.13C298.427 579.036 299.168 581.503 299.168 584.53C299.168 587.557 298.427 590.001 296.969 592.355C295.511 594.709 293.379 596.57 290.62 597.961C287.838 599.351 284.563 600.046 280.794 600.046C277.024 600.046 273.816 599.441 270.877 598.252L270.922 598.207Z" fill="white"/>
<path d="M358.328 573.365C356.982 575.786 354.918 577.737 352.158 579.217C349.376 580.697 345.944 581.437 341.816 581.437H334.21V599.509H321.938V549.148H341.816C345.832 549.148 349.219 549.844 352.001 551.234C354.783 552.624 356.847 554.53 358.238 556.974C359.629 559.418 360.324 562.221 360.324 565.36C360.324 568.275 359.651 570.943 358.305 573.365H358.328ZM346.123 570.024C347.267 568.925 347.851 567.378 347.851 565.36C347.851 563.342 347.267 561.795 346.123 560.696C344.979 559.597 343.229 559.059 340.873 559.059H334.188V571.683H340.873C343.207 571.683 344.957 571.145 346.123 570.046V570.024Z" fill="white"/>
<path d="M399.518 552.309C403.489 554.417 406.563 557.376 408.739 561.166C410.915 564.955 412.015 569.35 412.015 574.328C412.015 579.306 410.915 583.633 408.739 587.445C406.563 591.279 403.467 594.239 399.474 596.324C395.48 598.432 390.859 599.486 385.586 599.486H366.719V549.125H385.586C390.903 549.125 395.525 550.179 399.496 552.287L399.518 552.309ZM395.637 585.09C398.217 582.557 399.518 578.969 399.518 574.328C399.518 569.686 398.217 566.076 395.637 563.498C393.057 560.919 389.445 559.619 384.801 559.619H378.991V588.88H384.801C389.445 588.88 393.057 587.624 395.637 585.09Z" fill="white"/>
<path d="M451.702 549.148V558.969H431.174V569.598H446.542V579.127H431.174V599.509H418.902V549.148H451.702Z" fill="white"/>
<mask id="mask0_1054_9867" style="mask-type:luminance" maskUnits="userSpaceOnUse" x="126" y="101" width="264" height="314">
<path d="M389.804 101.598H126.173V414.121H389.804V101.598Z" fill="white"/>
</mask>
<g mask="url(#mask0_1054_9867)">
<path d="M159.893 110.477H303.363L380.606 181.869V380.105C380.606 381.63 380.292 383.469 380 385.016C379.395 388.088 378.161 390.846 376.321 393.604C373.562 397.595 370.196 400.353 365.889 402.191C364.363 402.797 362.815 403.425 361.29 403.716C359.764 404.008 357.924 404.322 356.376 404.322H159.87C158.345 404.322 156.505 404.008 154.957 403.716C151.883 403.111 149.124 401.878 146.364 400.039C142.371 397.281 139.612 393.918 137.772 389.613C137.166 388.088 136.538 386.541 136.246 385.016C135.955 383.491 135.641 381.944 135.641 380.105V134.693C135.641 133.168 135.955 131.329 136.246 129.782C136.852 126.71 138.086 123.952 139.926 121.194C142.685 117.203 146.364 114.154 150.649 112.315C152.175 111.71 153.723 111.082 155.249 110.79C156.774 110.79 158.322 110.477 159.848 110.477" fill="white"/>
<path d="M159.892 120.298C158.972 120.298 158.053 120.298 157.133 120.612C156.213 120.926 155.293 121.218 154.373 121.531C153.454 121.845 152.848 122.137 151.928 122.765C150.402 123.684 149.169 125.209 148.249 126.756C147.643 127.361 147.329 128.281 146.723 129.2C146.409 129.805 146.117 130.725 146.117 131.644C145.803 132.563 145.803 133.483 145.803 134.402V379.815C145.803 380.734 145.803 381.653 146.117 382.573C146.431 383.492 146.723 384.411 147.037 385.331C147.351 386.25 147.957 386.855 148.271 387.775C149.191 389.299 150.717 390.533 152.265 391.766C152.87 392.371 153.79 392.685 154.71 392.999C155.63 393.313 156.55 393.604 157.469 393.918C158.389 394.232 159.309 394.232 160.229 394.232H357.049C357.969 394.232 358.889 394.232 359.809 393.918C360.728 393.604 361.648 393.313 362.568 392.999C363.488 392.685 364.094 392.08 365.014 391.766C366.539 390.846 367.773 389.322 369.007 387.775C369.613 387.169 369.927 386.25 370.241 385.331C370.555 384.411 370.847 383.492 371.161 382.573C371.475 381.653 371.475 380.734 371.475 379.815V186.175L299.751 120.298H159.96H159.892ZM159.892 100.679H307.356L390.746 177.587V380.106C390.746 382.259 390.432 384.703 390.14 386.855C389.221 391.138 387.381 395.129 384.936 398.806C381.256 404.322 376.051 408.605 370.218 411.071C368.065 411.991 365.933 412.596 363.78 412.91C361.626 413.224 359.18 413.516 357.027 413.516H159.915C157.761 413.516 155.316 413.202 153.162 412.91C148.877 411.991 144.883 410.152 141.204 407.708C135.685 404.031 131.4 398.829 128.932 392.999C128.013 390.846 127.407 388.716 127.093 386.564C126.487 384.725 126.173 382.573 126.173 380.129V134.693C126.173 132.541 126.487 130.097 126.779 127.944C127.698 123.348 129.538 119.357 131.983 115.679C135.663 110.163 140.868 105.881 146.701 103.414C148.854 102.495 150.986 101.889 153.139 101.576C155.293 100.97 157.739 100.656 159.892 100.656" fill="#BB3232"/>
<path d="M341.389 194.134C322.679 194.134 307.67 179.111 307.67 160.433V144.199L361.94 194.134H341.389Z" fill="#BB3232"/>
<path d="M351.799 326.18H229.799V343.961H351.799V326.18Z" fill="#BB3232"/>
<path d="M193.612 356.83C181.654 356.83 172.142 347.323 172.142 335.372C172.142 323.421 181.654 313.914 193.612 313.914C205.569 313.914 215.082 323.421 215.082 335.372C215.082 347.009 205.569 356.83 193.612 356.83Z" fill="#CECECF"/>
<path d="M351.799 263.375H229.799V281.156H351.799V263.375Z" fill="#BB3232"/>
<path d="M193.612 293.713C181.654 293.713 172.142 284.206 172.142 272.255C172.142 260.304 181.654 250.797 193.612 250.797C205.569 250.797 215.082 260.304 215.082 272.255C215.082 284.206 205.569 293.713 193.612 293.713Z" fill="#BB3232"/>
<path d="M351.799 202.41H229.799V220.191H351.799V202.41Z" fill="#BB3232"/>
<path d="M193.612 233.037C181.654 233.037 172.142 223.53 172.142 211.579C172.142 199.628 181.654 190.121 193.612 190.121C205.569 190.121 215.082 199.628 215.082 211.579C215.082 223.217 205.569 233.037 193.612 233.037Z" fill="#CECECF"/>
</g>
</g>
<defs>
<linearGradient id="paint0_linear_1054_9867" x1="0" y1="257.857" x2="516" y2="257.857" gradientUnits="userSpaceOnUse">
<stop stop-color="#003A44"/>
<stop offset="0.67" stop-color="#19857C"/>
<stop offset="1" stop-color="#01634E"/>
</linearGradient>
<linearGradient id="paint1_linear_1054_9867" x1="169.271" y1="226.019" x2="392.699" y2="226.019" gradientUnits="userSpaceOnUse">
<stop stop-color="#003A44" stop-opacity="0"/>
<stop offset="0.47" stop-color="#00FF78"/>
</linearGradient>
<linearGradient id="paint2_linear_1054_9867" x1="106.79" y1="257.858" x2="492.309" y2="257.858" gradientUnits="userSpaceOnUse">
<stop stop-color="#003A44" stop-opacity="0"/>
<stop offset="0.47" stop-color="#00FF78"/>
</linearGradient>
<clipPath id="clip0_1054_9867">
<rect width="516" height="600" fill="white"/>
</clipPath>
</defs>
</svg>
