<svg width="315" height="366" viewBox="0 0 315 366" fill="none" xmlns="http://www.w3.org/2000/svg">
<g clip-path="url(#clip0_1054_9693)">
<path d="M157.5 8.20658C197.204 8.20658 234.648 23.7581 262.929 52.0024C291.211 80.2467 306.783 117.641 306.783 157.293C306.783 196.944 291.211 234.339 262.929 262.583C234.648 290.828 197.204 306.379 157.5 306.379C117.796 306.379 80.3524 290.828 52.0709 262.583C23.7893 234.339 8.21739 196.944 8.21739 157.293C8.21739 117.641 23.7893 80.2467 52.0709 52.0024C80.3524 23.7581 117.796 8.20658 157.5 8.20658ZM157.5 0C70.875 0 0 70.7818 0 157.293C0 243.804 70.875 314.586 157.5 314.586C244.125 314.586 315 243.804 315 157.293C315 70.7818 244.125 0 157.5 0Z" fill="#303446"/>
<g opacity="0.2">
<path d="M131.766 60.2354L156.898 39.1719H156.966C157.856 39.3087 158.733 39.4591 159.623 39.6232C213.584 50.3602 248.535 102.814 237.771 156.622C227.115 209.992 175.537 244.719 122.22 234.94C133.725 232.328 144.777 227.048 154.446 218.978C186.809 191.855 191.055 143.642 163.869 111.294C148.283 92.7609 125.795 83.4874 103.334 84.0345L131.766 60.2081V60.2354Z" fill="url(#paint0_linear_1054_9693)"/>
<path d="M187.069 294.615C141.791 303.697 97.2118 290.047 65.1914 261.556C67.054 260.749 68.8481 259.696 70.4916 258.301C73.8334 255.497 76.1068 251.845 77.2162 247.947C84.2147 251.968 91.6377 255.388 99.4442 258.068C166.087 280.951 238.619 245.499 261.464 178.971C284.377 112.415 248.878 39.9784 182.262 17.1641C240.277 26.6974 286.294 71.0813 297.744 128.541C313.11 204.931 263.559 279.255 187.069 294.601V294.615Z" fill="url(#paint1_linear_1054_9693)"/>
</g>
<path d="M275.31 310.197H264.272V299.159C264.272 297.641 263.039 296.41 261.519 296.41C259.999 296.41 258.766 297.655 258.766 299.159V310.197H247.727C246.207 310.197 244.975 311.442 244.975 312.946C244.975 314.451 246.207 315.696 247.727 315.696H258.766V326.733C258.766 328.252 259.999 329.483 261.519 329.483C263.039 329.483 264.272 328.238 264.272 326.733V315.696H275.31C276.831 315.696 278.063 314.451 278.063 312.946C278.063 311.442 276.831 310.197 275.31 310.197Z" fill="#303446"/>
<path d="M300.374 297.873H289.335V286.835C289.335 285.317 288.103 284.086 286.582 284.086C285.062 284.086 283.83 285.331 283.83 286.835V297.873H272.791C271.271 297.873 270.038 299.118 270.038 300.622C270.038 302.127 271.271 303.371 272.791 303.371H283.83V314.409C283.83 315.927 285.062 317.158 286.582 317.158C288.103 317.158 289.335 315.914 289.335 314.409V303.371H300.374C301.894 303.371 303.127 302.127 303.127 300.622C303.127 299.118 301.894 297.873 300.374 297.873Z" fill="#303446"/>
<path d="M47.1133 363.991C44.7028 362.651 42.7854 360.777 41.3748 358.369C39.9641 355.962 39.252 353.254 39.252 350.245C39.252 347.236 39.9641 344.541 41.3748 342.148C42.7991 339.754 44.7028 337.894 47.1133 336.554C49.5237 335.213 52.167 334.543 55.0704 334.543C57.9739 334.543 60.6172 335.213 63.0276 336.554C65.438 337.894 67.328 339.768 68.725 342.148C70.122 344.528 70.8067 347.236 70.8067 350.245C70.8067 353.254 70.1083 355.962 68.6976 358.369C67.287 360.777 65.397 362.651 63.0002 363.991C60.6035 365.331 57.9602 366.002 55.0704 366.002C52.1806 366.002 49.5237 365.331 47.1133 363.991ZM60.9596 356.728C62.4387 355.1 63.1783 352.939 63.1783 350.245C63.1783 347.55 62.4387 345.362 60.9596 343.748C59.4804 342.134 57.522 341.313 55.0704 341.313C52.6189 341.313 50.6057 342.12 49.1402 343.721C47.6611 345.321 46.9352 347.496 46.9352 350.245C46.9352 352.994 47.6748 355.128 49.1402 356.742C50.6193 358.356 52.5915 359.176 55.0704 359.176C57.5493 359.176 59.4941 358.356 60.9596 356.728Z" fill="#303446"/>
<path d="M90.6381 365.7L84.2422 354.102H82.4481V365.7H74.9565V334.98H87.5292C89.9533 334.98 92.0213 335.404 93.7196 336.252C95.4315 337.1 96.7052 338.263 97.5544 339.727C98.4035 341.204 98.8281 342.845 98.8281 344.651C98.8281 346.689 98.2528 348.521 97.0887 350.122C95.9383 351.722 94.24 352.871 91.9802 353.541L99.0746 365.7H90.6244H90.6381ZM82.4481 348.809H87.0909C88.4605 348.809 89.4876 348.48 90.1724 347.796C90.8572 347.126 91.1996 346.182 91.1996 344.951C91.1996 343.789 90.8572 342.872 90.1724 342.202C89.4876 341.532 88.4605 341.204 87.0909 341.204H82.4481V348.822V348.809Z" fill="#303446"/>
<path d="M125.644 334.98V340.971H117.495V365.687H110.004V340.971H101.855V334.98H125.644Z" fill="#303446"/>
<path d="M136.779 334.98V353.363C136.779 355.196 137.231 356.619 138.135 357.603C139.038 358.588 140.367 359.094 142.12 359.094C143.873 359.094 145.215 358.602 146.146 357.603C147.078 356.605 147.543 355.196 147.543 353.363V334.98H155.035V353.308C155.035 356.058 154.446 358.369 153.282 360.27C152.118 362.172 150.543 363.594 148.571 364.565C146.598 365.523 144.393 366.001 141.983 366.001C139.573 366.001 137.381 365.523 135.478 364.579C133.56 363.635 132.054 362.199 130.944 360.284C129.835 358.369 129.273 356.044 129.273 353.308V334.98H136.765H136.779Z" fill="#303446"/>
<path d="M165.389 364.907C163.608 364.182 162.184 363.102 161.116 361.666C160.047 360.23 159.486 358.52 159.431 356.509H167.402C167.512 357.645 167.909 358.52 168.58 359.108C169.251 359.71 170.127 360.011 171.209 360.011C172.291 360.011 173.195 359.751 173.839 359.245C174.483 358.739 174.798 358.027 174.798 357.125C174.798 356.372 174.537 355.743 174.031 355.237C173.524 354.745 172.894 354.335 172.154 354.006C171.415 353.678 170.347 353.322 168.977 352.912C166.991 352.297 165.375 351.681 164.115 351.079C162.855 350.477 161.773 349.561 160.869 348.371C159.965 347.181 159.513 345.622 159.513 343.693C159.513 340.835 160.54 338.592 162.622 336.978C164.704 335.364 167.402 334.543 170.73 334.543C174.058 334.543 176.852 335.35 178.92 336.978C180.988 338.605 182.097 340.848 182.248 343.734H174.14C174.085 342.75 173.716 341.97 173.045 341.395C172.374 340.821 171.511 340.547 170.456 340.547C169.552 340.547 168.826 340.794 168.265 341.272C167.717 341.751 167.429 342.449 167.429 343.351C167.429 344.336 167.895 345.116 168.826 345.663C169.758 346.224 171.223 346.812 173.209 347.455C175.195 348.125 176.811 348.768 178.057 349.383C179.304 349.999 180.372 350.888 181.276 352.05C182.18 353.213 182.632 354.717 182.632 356.564C182.632 358.41 182.18 359.901 181.289 361.337C180.399 362.774 179.098 363.909 177.414 364.757C175.715 365.605 173.716 366.029 171.415 366.029C169.114 366.029 167.155 365.66 165.361 364.935L165.389 364.907Z" fill="#303446"/>
<path d="M218.747 349.752C217.925 351.23 216.665 352.419 214.981 353.322C213.282 354.225 211.187 354.676 208.667 354.676H204.024V365.7H196.533V334.98H208.667C211.119 334.98 213.187 335.404 214.885 336.252C216.583 337.1 217.843 338.263 218.692 339.754C219.541 341.245 219.966 342.955 219.966 344.869C219.966 346.647 219.555 348.275 218.733 349.752H218.747ZM211.297 347.714C211.995 347.044 212.351 346.1 212.351 344.869C212.351 343.638 211.995 342.695 211.297 342.024C210.598 341.354 209.53 341.026 208.092 341.026H204.011V348.727H208.092C209.516 348.727 210.584 348.398 211.297 347.728V347.714Z" fill="#303446"/>
<path d="M243.892 336.911C246.316 338.197 248.193 340.002 249.521 342.314C250.85 344.625 251.521 347.306 251.521 350.342C251.521 353.379 250.85 356.019 249.521 358.344C248.193 360.683 246.303 362.488 243.865 363.76C241.427 365.046 238.606 365.689 235.387 365.689H223.869V334.969H235.387C238.633 334.969 241.454 335.612 243.878 336.897L243.892 336.911ZM241.523 356.908C243.098 355.362 243.892 353.174 243.892 350.342C243.892 347.511 243.098 345.309 241.523 343.736C239.948 342.163 237.743 341.37 234.908 341.37H231.361V359.219H234.908C237.743 359.219 239.948 358.453 241.523 356.908Z" fill="#303446"/>
<path d="M275.749 334.98V340.971H263.217V347.454H272.599V353.267H263.217V365.7H255.726V334.98H275.749Z" fill="#303446"/>
<path d="M187.343 61.8789H97.3214C96.0066 61.8789 94.5138 62.0704 93.199 62.4397C91.8842 62.6312 90.5831 63.0005 89.2683 63.5613C85.7075 65.0521 82.5301 67.6782 80.284 71.0429C78.7912 73.2861 77.6681 75.7207 77.1066 78.5246C76.9149 79.8376 76.7368 81.3285 76.7368 82.6416V232.343C76.7368 233.834 76.9286 235.147 77.2983 236.269C77.4901 237.582 77.8599 238.881 78.4214 240.194C79.9142 243.751 82.5438 246.924 85.9129 249.167C88.159 250.658 90.5968 251.779 93.2127 252.34C94.5275 252.532 96.0203 252.709 97.3351 252.709H217.665C218.98 252.709 220.473 252.518 221.787 252.34C223.102 252.162 224.403 251.779 225.718 251.218C229.279 249.728 232.456 247.102 234.702 243.737C236.195 241.494 237.318 239.059 237.88 236.447C238.072 235.134 238.25 233.643 238.25 232.33V108.793L187.343 61.8789ZM117.92 218.132C110.62 218.132 104.813 212.333 104.813 205.043C104.813 197.753 110.62 191.953 117.92 191.953C125.219 191.953 131.026 197.753 131.026 205.043C131.026 212.333 125.219 218.132 117.92 218.132ZM117.92 179.63C110.62 179.63 104.813 173.83 104.813 166.54C104.813 159.25 110.62 153.451 117.92 153.451C125.219 153.451 131.026 159.25 131.026 166.54C131.026 173.83 125.219 179.63 117.92 179.63ZM117.92 142.618C110.62 142.618 104.813 136.819 104.813 129.529C104.813 122.238 110.62 116.439 117.92 116.439C125.219 116.439 131.026 122.238 131.026 129.529C131.026 136.819 125.219 142.618 117.92 142.618ZM214.488 210.281H140.011V199.435H214.488V210.281ZM214.488 171.97H140.011V161.124H214.488V171.97ZM214.488 134.767H140.011V123.921H214.488V134.767ZM208.119 118.887C196.697 118.887 187.535 109.723 187.535 98.3298V88.4272L220.664 118.887H208.119Z" fill="#303446"/>
</g>
<defs>
<linearGradient id="paint0_linear_1054_9693" x1="103.334" y1="137.87" x2="239.729" y2="137.87" gradientUnits="userSpaceOnUse">
<stop stop-color="#303446" stop-opacity="0"/>
<stop offset="0.52" stop-color="#303446"/>
</linearGradient>
<linearGradient id="paint1_linear_1054_9693" x1="65.1914" y1="157.291" x2="300.537" y2="157.291" gradientUnits="userSpaceOnUse">
<stop stop-color="#303446" stop-opacity="0"/>
<stop offset="0.52" stop-color="#303446"/>
</linearGradient>
<clipPath id="clip0_1054_9693">
<rect width="315" height="366" fill="white"/>
</clipPath>
</defs>
</svg>
