<svg width="172" height="200" viewBox="0 0 172 200" fill="none" xmlns="http://www.w3.org/2000/svg">
<g clip-path="url(#clip0_1054_9746)">
<path d="M86 4.48447C107.679 4.48447 128.125 12.9825 143.568 28.4166C159.01 43.8507 167.513 64.2849 167.513 85.9524C167.513 107.62 159.01 128.054 143.568 143.488C128.125 158.922 107.679 167.42 86 167.42C64.3205 167.42 43.875 158.922 28.4323 143.488C12.9897 128.054 4.48696 107.62 4.48696 85.9524C4.48696 64.2849 12.9897 43.8507 28.4323 28.4166C43.875 12.9825 64.3205 4.48447 86 4.48447ZM86 0C38.7 0 0 38.6786 0 85.9524C0 133.226 38.7 171.905 86 171.905C133.3 171.905 172 133.226 172 85.9524C172 38.6786 133.3 0 86 0Z" fill="#303446"/>
<g opacity="0.2">
<path d="M71.9487 32.9164L85.6713 21.4062H85.7087C86.1948 21.481 86.6734 21.5632 87.1595 21.6529C116.624 27.5201 135.708 56.1833 129.83 85.5865C124.012 114.751 95.8492 133.727 66.7363 128.383C73.0181 126.956 79.053 124.071 84.3327 119.661C102.004 104.84 104.322 78.4936 89.4777 60.8173C80.9675 50.6899 68.6882 45.6224 56.4238 45.9214L71.9487 32.9014V32.9164Z" fill="url(#paint0_linear_1054_9746)"/>
<path d="M102.146 160.991C77.4226 165.954 53.0809 158.495 35.5967 142.926C36.6137 142.486 37.5934 141.91 38.4908 141.148C40.3155 139.615 41.5569 137.62 42.1626 135.49C45.984 137.687 50.0372 139.556 54.2998 141.021C90.689 153.525 130.294 134.152 142.768 97.7978C155.279 61.4287 135.895 21.8457 99.5209 9.37891C131.199 14.5884 156.326 38.8419 162.578 70.2407C170.968 111.984 143.912 152.598 102.146 160.984V160.991Z" fill="url(#paint1_linear_1054_9746)"/>
</g>
<path d="M150.328 169.507H144.301V163.475C144.301 162.645 143.627 161.973 142.797 161.973C141.967 161.973 141.294 162.653 141.294 163.475V169.507H135.267C134.437 169.507 133.764 170.187 133.764 171.009C133.764 171.831 134.437 172.511 135.267 172.511H141.294V178.543C141.294 179.372 141.967 180.045 142.797 180.045C143.627 180.045 144.301 179.365 144.301 178.543V172.511H150.328C151.158 172.511 151.831 171.831 151.831 171.009C151.831 170.187 151.158 169.507 150.328 169.507Z" fill="#303446"/>
<path d="M164.014 162.772H157.986V156.741C157.986 155.911 157.313 155.238 156.483 155.238C155.653 155.238 154.98 155.918 154.98 156.741V162.772H148.952C148.122 162.772 147.449 163.452 147.449 164.274C147.449 165.097 148.122 165.777 148.952 165.777H154.98V171.808C154.98 172.638 155.653 173.311 156.483 173.311C157.313 173.311 157.986 172.631 157.986 171.808V165.777H164.014C164.844 165.777 165.517 165.097 165.517 164.274C165.517 163.452 164.844 162.772 164.014 162.772Z" fill="#303446"/>
<path d="M25.7251 198.9C24.409 198.168 23.362 197.144 22.5917 195.829C21.8215 194.513 21.4326 193.033 21.4326 191.389C21.4326 189.745 21.8215 188.272 22.5917 186.964C23.3695 185.656 24.409 184.64 25.7251 183.907C27.0413 183.175 28.4846 182.809 30.07 182.809C31.6554 182.809 33.0987 183.175 34.4149 183.907C35.7311 184.64 36.7631 185.664 37.5258 186.964C38.2886 188.265 38.6625 189.745 38.6625 191.389C38.6625 193.033 38.2811 194.513 37.5109 195.829C36.7406 197.144 35.7086 198.168 34.3999 198.9C33.0912 199.633 31.6479 199.999 30.07 199.999C28.4921 199.999 27.0413 199.633 25.7251 198.9ZM33.2857 194.932C34.0933 194.042 34.4971 192.861 34.4971 191.389C34.4971 189.916 34.0933 188.721 33.2857 187.839C32.478 186.957 31.4086 186.508 30.07 186.508C28.7314 186.508 27.6321 186.949 26.8319 187.824C26.0243 188.698 25.6279 189.887 25.6279 191.389C25.6279 192.891 26.0317 194.057 26.8319 194.939C27.6396 195.821 28.7164 196.269 30.07 196.269C31.4236 196.269 32.4855 195.821 33.2857 194.932Z" fill="#303446"/>
<path d="M49.4913 199.834L45.999 193.496H45.0193V199.834H40.9287V183.047H47.7938C49.1174 183.047 50.2466 183.279 51.1739 183.742C52.1087 184.205 52.8042 184.841 53.2678 185.64C53.7315 186.448 53.9633 187.344 53.9633 188.331C53.9633 189.445 53.6492 190.446 53.0136 191.321C52.3854 192.195 51.4581 192.823 50.2242 193.189L54.0979 199.834H49.4838H49.4913ZM45.0193 190.603H47.5545C48.3023 190.603 48.8631 190.424 49.2371 190.05C49.611 189.684 49.7979 189.168 49.7979 188.496C49.7979 187.86 49.611 187.359 49.2371 186.993C48.8631 186.627 48.3023 186.448 47.5545 186.448H45.0193V190.611V190.603Z" fill="#303446"/>
<path d="M68.6059 183.047V186.321H64.1564V199.826H60.0658V186.321H55.6162V183.047H68.6059Z" fill="#303446"/>
<path d="M74.685 183.047V193.092C74.685 194.094 74.9318 194.871 75.4253 195.409C75.9189 195.947 76.6443 196.224 77.6015 196.224C78.5587 196.224 79.2916 195.955 79.8001 195.409C80.3087 194.863 80.5629 194.094 80.5629 193.092V183.047H84.6535V193.062C84.6535 194.564 84.332 195.828 83.6963 196.867C83.0607 197.905 82.2007 198.683 81.1238 199.213C80.0469 199.737 78.8429 199.998 77.5267 199.998C76.2106 199.998 75.014 199.737 73.9746 199.221C72.9276 198.705 72.105 197.92 71.4993 196.874C70.8935 195.828 70.5869 194.557 70.5869 193.062V183.047H74.6775H74.685Z" fill="#303446"/>
<path d="M90.3077 199.401C89.3356 199.005 88.5578 198.415 87.9745 197.63C87.3912 196.845 87.0846 195.911 87.0547 194.812H91.407C91.4669 195.432 91.6837 195.911 92.0502 196.232C92.4166 196.561 92.8952 196.725 93.486 196.725C94.0768 196.725 94.5703 196.583 94.9218 196.307C95.2733 196.03 95.4453 195.642 95.4453 195.148C95.4453 194.737 95.3032 194.393 95.0265 194.117C94.7498 193.848 94.4058 193.624 94.002 193.444C93.5982 193.265 93.0149 193.071 92.267 192.846C91.1827 192.51 90.3003 192.174 89.6123 191.845C88.9243 191.516 88.3335 191.015 87.8399 190.365C87.3463 189.715 87.0996 188.863 87.0996 187.809C87.0996 186.247 87.6604 185.021 88.7971 184.139C89.9338 183.257 91.407 182.809 93.2243 182.809C95.0415 182.809 96.567 183.25 97.6963 184.139C98.8255 185.028 99.4312 186.254 99.5135 187.831H95.0863C95.0564 187.293 94.8545 186.867 94.4881 186.553C94.1216 186.239 93.6505 186.09 93.0747 186.09C92.5811 186.09 92.1848 186.224 91.8782 186.486C91.579 186.747 91.422 187.129 91.422 187.622C91.422 188.16 91.6762 188.586 92.1848 188.885C92.6933 189.191 93.4935 189.513 94.5778 189.864C95.6622 190.23 96.5446 190.582 97.2251 190.918C97.9056 191.254 98.4889 191.74 98.9825 192.375C99.4761 193.011 99.7229 193.833 99.7229 194.842C99.7229 195.851 99.4761 196.666 98.99 197.45C98.5039 198.235 97.7935 198.856 96.8736 199.319C95.9463 199.782 94.8545 200.014 93.5982 200.014C92.3418 200.014 91.2724 199.812 90.2928 199.416L90.3077 199.401Z" fill="#303446"/>
<path d="M119.442 191.119C118.994 191.926 118.306 192.576 117.386 193.07C116.458 193.563 115.314 193.81 113.938 193.81H111.403V199.834H107.312V183.047H113.938C115.277 183.047 116.406 183.279 117.333 183.742C118.261 184.205 118.949 184.841 119.412 185.655C119.876 186.47 120.108 187.404 120.108 188.451C120.108 189.422 119.883 190.312 119.435 191.119H119.442ZM115.374 190.005C115.755 189.639 115.95 189.123 115.95 188.451C115.95 187.778 115.755 187.262 115.374 186.896C114.993 186.53 114.409 186.35 113.624 186.35H111.396V190.558H113.624C114.402 190.558 114.985 190.379 115.374 190.013V190.005Z" fill="#303446"/>
<path d="M133.172 184.1C134.496 184.803 135.521 185.79 136.246 187.053C136.971 188.316 137.338 189.781 137.338 191.44C137.338 193.099 136.971 194.542 136.246 195.812C135.521 197.09 134.489 198.077 133.158 198.772C131.826 199.475 130.286 199.826 128.528 199.826H122.239V183.039H128.528C130.301 183.039 131.841 183.39 133.165 184.093L133.172 184.1ZM131.879 195.028C132.739 194.183 133.172 192.987 133.172 191.44C133.172 189.893 132.739 188.69 131.879 187.83C131.019 186.97 129.815 186.537 128.267 186.537H126.33V196.291H128.267C129.815 196.291 131.019 195.872 131.879 195.028Z" fill="#303446"/>
<path d="M150.567 183.047V186.321H143.724V189.863H148.847V193.04H143.724V199.834H139.634V183.047H150.567Z" fill="#303446"/>
<path d="M102.295 33.8125H53.1402C52.4223 33.8125 51.6072 33.9171 50.8893 34.1189C50.1713 34.2236 49.4609 34.4254 48.743 34.7318C46.7987 35.5465 45.0637 36.9815 43.8373 38.8202C43.0221 40.0459 42.4089 41.3763 42.1023 42.9085C41.9976 43.626 41.9004 44.4407 41.9004 45.1582V126.962C41.9004 127.777 42.0051 128.495 42.207 129.108C42.3117 129.825 42.5136 130.535 42.8202 131.253C43.6353 133.196 45.0712 134.93 46.9108 136.156C48.1373 136.97 49.4684 137.583 50.8967 137.89C51.6146 137.994 52.4298 138.091 53.1477 138.091H118.852C119.57 138.091 120.385 137.987 121.103 137.89C121.821 137.792 122.531 137.583 123.249 137.277C125.193 136.462 126.928 135.027 128.155 133.188C128.97 131.963 129.583 130.632 129.89 129.205C129.994 128.487 130.092 127.673 130.092 126.955V59.4487L102.295 33.8125ZM64.3875 119.197C60.4016 119.197 57.2308 116.028 57.2308 112.044C57.2308 108.06 60.4016 104.891 64.3875 104.891C68.3734 104.891 71.5442 108.06 71.5442 112.044C71.5442 116.028 68.3734 119.197 64.3875 119.197ZM64.3875 98.1572C60.4016 98.1572 57.2308 94.9882 57.2308 91.0045C57.2308 87.0208 60.4016 83.8517 64.3875 83.8517C68.3734 83.8517 71.5442 87.0208 71.5442 91.0045C71.5442 94.9882 68.3734 98.1572 64.3875 98.1572ZM64.3875 77.9322C60.4016 77.9322 57.2308 74.7632 57.2308 70.7795C57.2308 66.7958 60.4016 63.6268 64.3875 63.6268C68.3734 63.6268 71.5442 66.7958 71.5442 70.7795C71.5442 74.7632 68.3734 77.9322 64.3875 77.9322ZM117.117 114.907H76.45V108.98H117.117V114.907ZM117.117 93.9717H76.45V88.0447H117.117V93.9717ZM117.117 73.6421H76.45V67.7151H117.117V73.6421ZM113.639 64.9646C107.402 64.9646 102.4 59.957 102.4 53.731V48.3198L120.489 64.9646H113.639Z" fill="#303446"/>
</g>
<defs>
<linearGradient id="paint0_linear_1054_9746" x1="56.4238" y1="75.3395" x2="130.9" y2="75.3395" gradientUnits="userSpaceOnUse">
<stop stop-color="#303446" stop-opacity="0"/>
<stop offset="0.52" stop-color="#303446"/>
</linearGradient>
<linearGradient id="paint1_linear_1054_9746" x1="35.5967" y1="85.9513" x2="164.103" y2="85.9513" gradientUnits="userSpaceOnUse">
<stop stop-color="#303446" stop-opacity="0"/>
<stop offset="0.52" stop-color="#303446"/>
</linearGradient>
<clipPath id="clip0_1054_9746">
<rect width="172" height="200" fill="white"/>
</clipPath>
</defs>
</svg>
