<svg width="172" height="200" viewBox="0 0 172 200" fill="none" xmlns="http://www.w3.org/2000/svg">
<g clip-path="url(#clip0_1054_9935)">
<path d="M172 85.9524C172 38.4822 133.496 0 86 0C38.5035 0 0 38.4822 0 85.9524C0 133.423 38.5035 171.905 86 171.905C133.496 171.905 172 133.423 172 85.9524Z" fill="url(#paint0_linear_1054_9935)"/>
<g opacity="0.4">
<path d="M71.9487 32.9164L85.6713 21.4062H85.7087C86.1948 21.481 86.6734 21.5632 87.1595 21.6529C116.624 27.5201 135.708 56.1833 129.83 85.5865C124.012 114.751 95.8492 133.727 66.7363 128.383C73.0181 126.956 79.053 124.071 84.3327 119.661C102.004 104.84 104.322 78.4936 89.4777 60.8173C80.9675 50.6899 68.6882 45.6224 56.4238 45.9214L71.9487 32.9014V32.9164Z" fill="url(#paint1_linear_1054_9935)"/>
<path d="M102.146 160.991C77.4226 165.954 53.0809 158.495 35.5967 142.926C36.6137 142.486 37.5934 141.91 38.4908 141.148C40.3155 139.615 41.5569 137.62 42.1626 135.49C45.984 137.687 50.0372 139.556 54.2998 141.021C90.689 153.525 130.294 134.152 142.768 97.7978C155.279 61.4287 135.895 21.8457 99.5209 9.37891C131.199 14.5884 156.326 38.8419 162.578 70.2407C170.968 111.984 143.912 152.598 102.146 160.984V160.991Z" fill="url(#paint2_linear_1054_9935)"/>
</g>
<path d="M150.328 169.507H144.301V163.475C144.301 162.645 143.627 161.973 142.797 161.973C141.967 161.973 141.294 162.653 141.294 163.475V169.507H135.267C134.437 169.507 133.764 170.187 133.764 171.009C133.764 171.831 134.437 172.511 135.267 172.511H141.294V178.543C141.294 179.372 141.967 180.045 142.797 180.045C143.627 180.045 144.301 179.365 144.301 178.543V172.511H150.328C151.158 172.511 151.831 171.831 151.831 171.009C151.831 170.187 151.158 169.507 150.328 169.507Z" fill="#00DBFF"/>
<path d="M164.014 162.772H157.986V156.741C157.986 155.911 157.313 155.238 156.483 155.238C155.653 155.238 154.98 155.918 154.98 156.741V162.772H148.952C148.122 162.772 147.449 163.452 147.449 164.274C147.449 165.097 148.122 165.777 148.952 165.777H154.98V171.808C154.98 172.638 155.653 173.311 156.483 173.311C157.313 173.311 157.986 172.631 157.986 171.808V165.777H164.014C164.844 165.777 165.517 165.097 165.517 164.274C165.517 163.452 164.844 162.772 164.014 162.772Z" fill="#00FF78"/>
<path d="M25.7251 198.9C24.409 198.168 23.362 197.144 22.5917 195.829C21.8215 194.513 21.4326 193.033 21.4326 191.389C21.4326 189.745 21.8215 188.272 22.5917 186.964C23.3695 185.656 24.409 184.64 25.7251 183.907C27.0413 183.175 28.4846 182.809 30.07 182.809C31.6554 182.809 33.0987 183.175 34.4149 183.907C35.7311 184.64 36.7631 185.664 37.5258 186.964C38.2886 188.265 38.6625 189.745 38.6625 191.389C38.6625 193.033 38.2811 194.513 37.5109 195.829C36.7406 197.144 35.7086 198.168 34.3999 198.9C33.0912 199.633 31.6479 199.999 30.07 199.999C28.4921 199.999 27.0413 199.633 25.7251 198.9ZM33.2857 194.932C34.0933 194.042 34.4971 192.861 34.4971 191.389C34.4971 189.916 34.0933 188.721 33.2857 187.839C32.478 186.957 31.4086 186.508 30.07 186.508C28.7314 186.508 27.6321 186.949 26.8319 187.824C26.0243 188.698 25.6279 189.887 25.6279 191.389C25.6279 192.891 26.0317 194.057 26.8319 194.939C27.6396 195.821 28.7164 196.269 30.07 196.269C31.4236 196.269 32.4855 195.821 33.2857 194.932Z" fill="white"/>
<path d="M49.4913 199.834L45.999 193.496H45.0193V199.834H40.9287V183.047H47.7938C49.1174 183.047 50.2466 183.279 51.1739 183.742C52.1087 184.205 52.8042 184.841 53.2678 185.64C53.7315 186.448 53.9633 187.344 53.9633 188.331C53.9633 189.445 53.6492 190.446 53.0136 191.321C52.3854 192.195 51.4581 192.823 50.2242 193.189L54.0979 199.834H49.4838H49.4913ZM45.0193 190.603H47.5545C48.3023 190.603 48.8631 190.424 49.2371 190.05C49.611 189.684 49.7979 189.168 49.7979 188.496C49.7979 187.86 49.611 187.359 49.2371 186.993C48.8631 186.627 48.3023 186.448 47.5545 186.448H45.0193V190.611V190.603Z" fill="white"/>
<path d="M68.6059 183.047V186.321H64.1564V199.826H60.0658V186.321H55.6162V183.047H68.6059Z" fill="white"/>
<path d="M74.685 183.047V193.092C74.685 194.094 74.9318 194.871 75.4253 195.409C75.9189 195.947 76.6443 196.224 77.6015 196.224C78.5587 196.224 79.2916 195.955 79.8001 195.409C80.3087 194.863 80.5629 194.094 80.5629 193.092V183.047H84.6535V193.062C84.6535 194.564 84.332 195.828 83.6963 196.867C83.0607 197.905 82.2007 198.683 81.1238 199.213C80.0469 199.737 78.8429 199.998 77.5267 199.998C76.2106 199.998 75.014 199.737 73.9746 199.221C72.9276 198.705 72.105 197.92 71.4993 196.874C70.8935 195.828 70.5869 194.557 70.5869 193.062V183.047H74.6775H74.685Z" fill="white"/>
<path d="M90.3077 199.401C89.3356 199.005 88.5578 198.415 87.9745 197.63C87.3912 196.845 87.0846 195.911 87.0547 194.812H91.407C91.4669 195.432 91.6837 195.911 92.0502 196.232C92.4166 196.561 92.8952 196.725 93.486 196.725C94.0768 196.725 94.5703 196.583 94.9218 196.307C95.2733 196.03 95.4453 195.642 95.4453 195.148C95.4453 194.737 95.3032 194.393 95.0265 194.117C94.7498 193.848 94.4058 193.624 94.002 193.444C93.5982 193.265 93.0149 193.071 92.267 192.846C91.1827 192.51 90.3003 192.174 89.6123 191.845C88.9243 191.516 88.3335 191.015 87.8399 190.365C87.3463 189.715 87.0996 188.863 87.0996 187.809C87.0996 186.247 87.6604 185.021 88.7971 184.139C89.9338 183.257 91.407 182.809 93.2243 182.809C95.0415 182.809 96.567 183.25 97.6963 184.139C98.8255 185.028 99.4312 186.254 99.5135 187.831H95.0863C95.0564 187.293 94.8545 186.867 94.4881 186.553C94.1216 186.239 93.6505 186.09 93.0747 186.09C92.5811 186.09 92.1848 186.224 91.8782 186.486C91.579 186.747 91.422 187.129 91.422 187.622C91.422 188.16 91.6762 188.586 92.1848 188.885C92.6933 189.191 93.4935 189.513 94.5778 189.864C95.6622 190.23 96.5446 190.582 97.2251 190.918C97.9056 191.254 98.4889 191.74 98.9825 192.375C99.4761 193.011 99.7229 193.833 99.7229 194.842C99.7229 195.851 99.4761 196.666 98.99 197.45C98.5039 198.235 97.7935 198.856 96.8736 199.319C95.9463 199.782 94.8545 200.014 93.5982 200.014C92.3418 200.014 91.2724 199.812 90.2928 199.416L90.3077 199.401Z" fill="white"/>
<path d="M119.442 191.119C118.994 191.926 118.306 192.576 117.386 193.07C116.458 193.563 115.314 193.81 113.938 193.81H111.403V199.834H107.312V183.047H113.938C115.277 183.047 116.406 183.279 117.333 183.742C118.261 184.205 118.949 184.841 119.412 185.655C119.876 186.47 120.108 187.404 120.108 188.451C120.108 189.422 119.883 190.312 119.435 191.119H119.442ZM115.374 190.005C115.755 189.639 115.95 189.123 115.95 188.451C115.95 187.778 115.755 187.262 115.374 186.896C114.993 186.53 114.409 186.35 113.624 186.35H111.396V190.558H113.624C114.402 190.558 114.985 190.379 115.374 190.013V190.005Z" fill="white"/>
<path d="M133.172 184.1C134.496 184.803 135.521 185.79 136.246 187.053C136.971 188.316 137.338 189.781 137.338 191.44C137.338 193.099 136.971 194.542 136.246 195.812C135.521 197.09 134.489 198.077 133.158 198.772C131.826 199.475 130.286 199.826 128.528 199.826H122.239V183.039H128.528C130.301 183.039 131.841 183.39 133.165 184.093L133.172 184.1ZM131.879 195.028C132.739 194.183 133.172 192.987 133.172 191.44C133.172 189.893 132.739 188.69 131.879 187.83C131.019 186.97 129.815 186.537 128.267 186.537H126.33V196.291H128.267C129.815 196.291 131.019 195.872 131.879 195.028Z" fill="white"/>
<path d="M150.567 183.047V186.321H143.724V189.863H148.847V193.04H143.724V199.834H139.634V183.047H150.567Z" fill="white"/>
<mask id="mask0_1054_9935" style="mask-type:luminance" maskUnits="userSpaceOnUse" x="42" y="33" width="88" height="106">
<path d="M129.935 33.8672H42.0576V138.041H129.935V33.8672Z" fill="white"/>
</mask>
<g mask="url(#mask0_1054_9935)">
<path d="M53.2979 36.8281H101.121L126.869 60.6257V126.704C126.869 127.213 126.764 127.826 126.667 128.341C126.465 129.365 126.054 130.285 125.441 131.204C124.521 132.534 123.399 133.454 121.963 134.066C121.455 134.268 120.939 134.478 120.43 134.575C119.922 134.672 119.308 134.776 118.792 134.776H53.2904C52.7819 134.776 52.1687 134.672 51.6527 134.575C50.6281 134.373 49.7083 133.962 48.7885 133.349C47.4573 132.43 46.5375 131.308 45.9243 129.873C45.7224 129.365 45.513 128.849 45.4158 128.341C45.3186 127.833 45.2139 127.317 45.2139 126.704V44.9002C45.2139 44.3919 45.3186 43.7791 45.4158 43.2633C45.6177 42.2394 46.029 41.3201 46.6422 40.4008C47.562 39.0704 48.7885 38.0539 50.2168 37.441C50.7253 37.2392 51.2413 37.0299 51.7499 36.9328C52.2584 36.9328 52.7744 36.8281 53.2829 36.8281" fill="white"/>
<path d="M53.2974 40.102C52.9908 40.102 52.6842 40.102 52.3776 40.2067C52.071 40.3113 51.7644 40.4085 51.4578 40.5131C51.1512 40.6177 50.9493 40.7149 50.6427 40.9242C50.1341 41.2306 49.7228 41.7388 49.4162 42.2546C49.2143 42.4564 49.1096 42.7628 48.9077 43.0692C48.803 43.271 48.7058 43.5775 48.7058 43.8839C48.6011 44.1904 48.6011 44.4968 48.6011 44.8032V126.607C48.6011 126.914 48.6011 127.22 48.7058 127.527C48.8105 127.833 48.9077 128.14 49.0124 128.446C49.1171 128.753 49.319 128.954 49.4237 129.261C49.7303 129.769 50.2388 130.18 50.7548 130.591C50.9567 130.793 51.2634 130.898 51.57 131.002C51.8766 131.107 52.1832 131.204 52.4898 131.309C52.7964 131.413 53.103 131.413 53.4096 131.413H119.016C119.323 131.413 119.63 131.413 119.936 131.309C120.243 131.204 120.549 131.107 120.856 131.002C121.163 130.898 121.365 130.696 121.671 130.591C122.18 130.285 122.591 129.777 123.002 129.261C123.204 129.059 123.309 128.753 123.414 128.446C123.518 128.14 123.616 127.833 123.72 127.527C123.825 127.22 123.825 126.914 123.825 126.607V62.061L99.9169 40.102H53.3199H53.2974ZM53.2974 33.5622H102.452L130.249 59.1984V126.705C130.249 127.422 130.144 128.237 130.047 128.954C129.74 130.382 129.127 131.712 128.312 132.938C127.085 134.777 125.35 136.204 123.406 137.026C122.688 137.333 121.978 137.535 121.26 137.639C120.542 137.744 119.727 137.841 119.009 137.841H53.3049C52.587 137.841 51.7719 137.736 51.054 137.639C49.6256 137.333 48.2945 136.72 47.068 135.905C45.2284 134.68 43.8001 132.946 42.9774 131.002C42.6708 130.285 42.4689 129.575 42.3642 128.857C42.1623 128.244 42.0576 127.527 42.0576 126.712V44.9004C42.0576 44.1829 42.1623 43.3682 42.2595 42.6507C42.5661 41.1185 43.1794 39.7881 43.9945 38.5623C45.2209 36.7237 46.9559 35.2962 48.9002 34.474C49.6181 34.1676 50.3286 33.9658 51.0465 33.8611C51.7644 33.6593 52.5795 33.5547 53.2974 33.5547" fill="#BB3232"/>
<path d="M113.796 64.7152C107.56 64.7152 102.557 59.7075 102.557 53.4816V48.0703L120.647 64.7152H113.796Z" fill="#BB3232"/>
<path d="M117.266 108.73H76.5996V114.657H117.266V108.73Z" fill="#BB3232"/>
<path d="M64.5376 118.946C60.5516 118.946 57.3809 115.777 57.3809 111.793C57.3809 107.81 60.5516 104.641 64.5376 104.641C68.5235 104.641 71.6943 107.81 71.6943 111.793C71.6943 115.672 68.5235 118.946 64.5376 118.946Z" fill="#CECECF"/>
<path d="M117.266 87.793H76.5996V93.7199H117.266V87.793Z" fill="#BB3232"/>
<path d="M64.5376 97.907C60.5516 97.907 57.3809 94.738 57.3809 90.7543C57.3809 86.7706 60.5516 83.6016 64.5376 83.6016C68.5235 83.6016 71.6943 86.7706 71.6943 90.7543C71.6943 94.738 68.5235 97.907 64.5376 97.907Z" fill="#BB3232"/>
<path d="M117.266 67.4727H76.5996V73.3996H117.266V67.4727Z" fill="#BB3232"/>
<path d="M64.5376 77.6805C60.5516 77.6805 57.3809 74.5114 57.3809 70.5277C57.3809 66.544 60.5516 63.375 64.5376 63.375C68.5235 63.375 71.6943 66.544 71.6943 70.5277C71.6943 74.4068 68.5235 77.6805 64.5376 77.6805Z" fill="#CECECF"/>
</g>
</g>
<defs>
<linearGradient id="paint0_linear_1054_9935" x1="0" y1="85.9524" x2="172" y2="85.9524" gradientUnits="userSpaceOnUse">
<stop stop-color="#003A44"/>
<stop offset="0.67" stop-color="#19857C"/>
<stop offset="1" stop-color="#01634E"/>
</linearGradient>
<linearGradient id="paint1_linear_1054_9935" x1="56.4238" y1="75.3395" x2="130.9" y2="75.3395" gradientUnits="userSpaceOnUse">
<stop stop-color="#003A44" stop-opacity="0"/>
<stop offset="0.47" stop-color="#00FF78"/>
</linearGradient>
<linearGradient id="paint2_linear_1054_9935" x1="35.5967" y1="85.9513" x2="164.103" y2="85.9513" gradientUnits="userSpaceOnUse">
<stop stop-color="#003A44" stop-opacity="0"/>
<stop offset="0.47" stop-color="#00FF78"/>
</linearGradient>
<clipPath id="clip0_1054_9935">
<rect width="172" height="200" fill="white"/>
</clipPath>
</defs>
</svg>
