<svg width="516" height="600" viewBox="0 0 516 600" fill="none" xmlns="http://www.w3.org/2000/svg">
<g clip-path="url(#clip0_1054_9969)">
<path d="M258 13.4534C323.038 13.4534 384.375 38.9476 430.703 85.2498C477.031 131.552 502.539 192.855 502.539 257.857C502.539 322.86 477.031 384.162 430.703 430.465C384.375 476.767 323.038 502.261 258 502.261C192.962 502.261 131.625 476.767 85.297 430.465C38.9692 384.162 13.4609 322.86 13.4609 257.857C13.4609 192.855 38.9692 131.552 85.297 85.2498C131.625 38.9476 192.962 13.4534 258 13.4534ZM258 0C116.1 0 0 116.036 0 257.857C0 399.679 116.1 515.714 258 515.714C399.9 515.714 516 399.679 516 257.857C516 116.036 399.9 0 258 0Z" fill="white"/>
<g opacity="0.2">
<path d="M215.845 98.7492L257.013 64.2188H257.125C258.583 64.443 260.019 64.6896 261.477 64.9587C349.871 82.5602 407.124 168.55 389.49 256.76C372.036 344.252 287.547 401.182 200.208 385.15C219.053 380.867 237.158 372.212 252.997 358.983C306.011 314.52 312.965 235.481 268.432 182.452C242.901 152.07 206.064 136.867 169.271 137.764L215.845 98.7043V98.7492Z" fill="url(#paint0_linear_1054_9969)"/>
<path d="M306.437 482.978C232.268 497.867 159.243 475.489 106.79 428.783C109.841 427.46 112.78 425.734 115.472 423.447C120.946 418.85 124.671 412.864 126.488 406.473C137.952 413.065 150.112 418.671 162.899 423.066C272.067 460.578 390.882 402.46 428.303 293.397C465.836 184.29 407.685 65.5411 298.563 28.1406C393.596 43.769 468.977 116.53 487.733 210.726C512.904 335.955 431.735 457.798 306.437 482.956V482.978Z" fill="url(#paint1_linear_1054_9969)"/>
</g>
<path d="M450.984 508.516H432.902V490.421C432.902 487.932 430.882 485.914 428.392 485.914C425.902 485.914 423.883 487.954 423.883 490.421V508.516H405.8C403.31 508.516 401.291 510.556 401.291 513.023C401.291 515.489 403.31 517.53 405.8 517.53H423.883V535.624C423.883 538.113 425.902 540.131 428.392 540.131C430.882 540.131 432.902 538.091 432.902 535.624V517.53H450.984C453.474 517.53 455.493 515.489 455.493 513.023C455.493 510.556 453.474 508.516 450.984 508.516Z" fill="white"/>
<path d="M492.04 488.313H473.957V470.218C473.957 467.729 471.938 465.711 469.448 465.711C466.958 465.711 464.939 467.751 464.939 470.218V488.313H446.856C444.366 488.313 442.347 490.353 442.347 492.82C442.347 495.286 444.366 497.326 446.856 497.326H464.939V515.421C464.939 517.91 466.958 519.928 469.448 519.928C471.938 519.928 473.957 517.888 473.957 515.421V497.326H492.04C494.53 497.326 496.549 495.286 496.549 492.82C496.549 490.353 494.53 488.313 492.04 488.313Z" fill="white"/>
<path d="M77.1754 596.705C73.2269 594.508 70.086 591.436 67.7752 587.489C65.4645 583.543 64.2979 579.104 64.2979 574.171C64.2979 569.238 65.4645 564.82 67.7752 560.897C70.1085 556.973 73.2269 553.923 77.1754 551.726C81.1239 549.528 85.4539 548.43 90.21 548.43C94.9662 548.43 99.2961 549.528 103.245 551.726C107.193 553.923 110.289 556.995 112.578 560.897C114.866 564.798 115.988 569.238 115.988 574.171C115.988 579.104 114.843 583.543 112.533 587.489C110.222 591.436 107.126 594.508 103.2 596.705C99.2737 598.902 94.9438 600.001 90.21 600.001C85.4763 600.001 81.1239 598.902 77.1754 596.705ZM99.857 584.799C102.28 582.131 103.491 578.588 103.491 574.171C103.491 569.753 102.28 566.166 99.857 563.52C97.434 560.874 94.2259 559.529 90.21 559.529C86.1942 559.529 82.8963 560.852 80.4958 563.475C78.0728 566.099 76.8838 569.664 76.8838 574.171C76.8838 578.677 78.0952 582.175 80.4958 584.821C82.9187 587.467 86.1493 588.812 90.21 588.812C94.2707 588.812 97.4565 587.467 99.857 584.799Z" fill="white"/>
<path d="M148.473 599.509L137.996 580.495H135.057V599.509H122.785V549.148H143.38C147.351 549.148 150.739 549.844 153.521 551.234C156.325 552.624 158.412 554.53 159.803 556.929C161.194 559.351 161.889 562.041 161.889 565.001C161.889 568.342 160.947 571.347 159.04 573.97C157.155 576.593 154.373 578.477 150.672 579.576L162.293 599.509H148.451H148.473ZM135.057 571.817H142.662C144.906 571.817 146.588 571.279 147.71 570.158C148.832 569.059 149.393 567.512 149.393 565.494C149.393 563.588 148.832 562.086 147.71 560.987C146.588 559.889 144.906 559.351 142.662 559.351H135.057V571.84V571.817Z" fill="white"/>
<path d="M205.817 549.148V558.969H192.468V599.487H180.196V558.969H166.848V549.148H205.817Z" fill="white"/>
<path d="M224.056 549.148V579.284C224.056 582.289 224.796 584.621 226.277 586.235C227.758 587.849 229.934 588.679 232.806 588.679C235.677 588.679 237.876 587.872 239.401 586.235C240.927 584.598 241.69 582.289 241.69 579.284V549.148H253.962V579.194C253.962 583.701 252.997 587.491 251.09 590.607C249.183 593.724 246.603 596.056 243.372 597.648C240.142 599.218 236.53 600.002 232.581 600.002C228.633 600.002 225.043 599.218 221.925 597.67C218.784 596.123 216.316 593.769 214.499 590.63C212.682 587.491 211.762 583.679 211.762 579.194V549.148H224.034H224.056Z" fill="white"/>
<path d="M270.922 598.207C268.006 597.019 265.672 595.248 263.923 592.893C262.173 590.539 261.253 587.736 261.163 584.44H274.22C274.4 586.301 275.05 587.736 276.15 588.7C277.249 589.687 278.685 590.18 280.457 590.18C282.229 590.18 283.71 589.754 284.764 588.924C285.819 588.095 286.335 586.929 286.335 585.449C286.335 584.216 285.909 583.184 285.079 582.355C284.248 581.548 283.216 580.875 282.005 580.337C280.794 579.799 279.044 579.216 276.8 578.543C273.547 577.534 270.9 576.525 268.836 575.538C266.772 574.552 264.999 573.049 263.519 571.099C262.038 569.148 261.298 566.592 261.298 563.43C261.298 558.744 262.98 555.067 266.39 552.421C269.8 549.775 274.22 548.43 279.672 548.43C285.123 548.43 289.7 549.753 293.088 552.421C296.475 555.089 298.293 558.766 298.539 563.498H285.258C285.168 561.883 284.563 560.605 283.463 559.663C282.364 558.722 280.951 558.273 279.223 558.273C277.742 558.273 276.553 558.677 275.634 559.461C274.736 560.246 274.265 561.39 274.265 562.87C274.265 564.484 275.028 565.762 276.553 566.659C278.079 567.578 280.479 568.543 283.732 569.596C286.986 570.695 289.633 571.749 291.674 572.758C293.716 573.767 295.466 575.224 296.947 577.13C298.427 579.036 299.168 581.503 299.168 584.53C299.168 587.557 298.427 590.001 296.969 592.355C295.511 594.709 293.379 596.57 290.62 597.961C287.838 599.351 284.563 600.046 280.794 600.046C277.024 600.046 273.816 599.441 270.877 598.252L270.922 598.207Z" fill="white"/>
<path d="M358.328 573.365C356.982 575.786 354.918 577.737 352.158 579.217C349.376 580.697 345.944 581.437 341.816 581.437H334.21V599.509H321.938V549.148H341.816C345.832 549.148 349.219 549.844 352.001 551.234C354.783 552.624 356.847 554.53 358.238 556.974C359.629 559.418 360.324 562.221 360.324 565.36C360.324 568.275 359.651 570.943 358.305 573.365H358.328ZM346.123 570.024C347.267 568.925 347.851 567.378 347.851 565.36C347.851 563.342 347.267 561.795 346.123 560.696C344.979 559.597 343.229 559.059 340.873 559.059H334.188V571.683H340.873C343.207 571.683 344.957 571.145 346.123 570.046V570.024Z" fill="white"/>
<path d="M399.518 552.309C403.489 554.417 406.563 557.376 408.739 561.166C410.915 564.955 412.015 569.35 412.015 574.328C412.015 579.306 410.915 583.633 408.739 587.445C406.563 591.279 403.467 594.239 399.474 596.324C395.48 598.432 390.859 599.486 385.586 599.486H366.719V549.125H385.586C390.903 549.125 395.525 550.179 399.496 552.287L399.518 552.309ZM395.637 585.09C398.217 582.557 399.518 578.969 399.518 574.328C399.518 569.686 398.217 566.076 395.637 563.498C393.057 560.919 389.445 559.619 384.801 559.619H378.991V588.88H384.801C389.445 588.88 393.057 587.624 395.637 585.09Z" fill="white"/>
<path d="M451.702 549.148V558.969H431.174V569.598H446.542V579.127H431.174V599.509H418.902V549.148H451.702Z" fill="white"/>
<path d="M306.885 101.438H159.422C157.268 101.438 154.823 101.751 152.669 102.357C150.515 102.671 148.384 103.276 146.23 104.195C140.397 106.639 135.192 110.945 131.513 116.46C129.067 120.138 127.228 124.129 126.308 128.726C125.994 130.878 125.702 133.322 125.702 135.475V380.887C125.702 383.331 126.016 385.484 126.622 387.323C126.936 389.475 127.542 391.605 128.462 393.758C130.907 399.588 135.214 404.79 140.733 408.467C144.413 410.911 148.406 412.75 152.691 413.669C154.845 413.983 157.29 414.274 159.444 414.274H356.556C358.71 414.274 361.155 413.96 363.309 413.669C365.463 413.377 367.594 412.75 369.748 411.83C375.581 409.386 380.786 405.081 384.465 399.565C386.91 395.888 388.75 391.897 389.67 387.614C389.984 385.462 390.276 383.018 390.276 380.865V178.346L306.885 101.438ZM193.164 357.591C181.206 357.591 171.693 348.083 171.693 336.132C171.693 324.181 181.206 314.674 193.164 314.674C205.121 314.674 214.634 324.181 214.634 336.132C214.634 348.083 205.121 357.591 193.164 357.591ZM193.164 294.472C181.206 294.472 171.693 284.965 171.693 273.013C171.693 261.062 181.206 251.555 193.164 251.555C205.121 251.555 214.634 261.062 214.634 273.013C214.634 284.965 205.121 294.472 193.164 294.472ZM193.164 233.797C181.206 233.797 171.693 224.29 171.693 212.339C171.693 200.387 181.206 190.88 193.164 190.88C205.121 190.88 214.634 200.387 214.634 212.339C214.634 224.29 205.121 233.797 193.164 233.797ZM351.351 344.72H229.351V326.939H351.351V344.72ZM351.351 281.915H229.351V264.134H351.351V281.915ZM351.351 220.926H229.351V203.145H351.351V220.926ZM340.919 194.894C322.208 194.894 307.2 179.871 307.2 161.193V144.959L361.469 194.894H340.919Z" fill="white"/>
</g>
<defs>
<linearGradient id="paint0_linear_1054_9969" x1="169.271" y1="226.019" x2="392.699" y2="226.019" gradientUnits="userSpaceOnUse">
<stop stop-color="white" stop-opacity="0"/>
<stop offset="0.52" stop-color="white"/>
</linearGradient>
<linearGradient id="paint1_linear_1054_9969" x1="106.79" y1="257.858" x2="492.309" y2="257.858" gradientUnits="userSpaceOnUse">
<stop stop-color="white" stop-opacity="0"/>
<stop offset="0.52" stop-color="white"/>
</linearGradient>
<clipPath id="clip0_1054_9969">
<rect width="516" height="600" fill="white"/>
</clipPath>
</defs>
</svg>
