<svg width="315" height="366" viewBox="0 0 315 366" fill="none" xmlns="http://www.w3.org/2000/svg">
<g clip-path="url(#clip0_1054_9901)">
<path d="M315 157.293C315 70.4224 244.485 0 157.5 0C70.5152 0 0 70.4224 0 157.293C0 244.163 70.5152 314.586 157.5 314.586C244.485 314.586 315 244.163 315 157.293Z" fill="url(#paint0_linear_1054_9901)"/>
<g opacity="0.4">
<path d="M131.765 60.2354L156.897 39.1719H156.965C157.855 39.3087 158.732 39.4591 159.622 39.6232C213.583 50.3602 248.534 102.814 237.77 156.622C227.114 209.992 175.536 244.719 122.219 234.94C133.724 232.328 144.776 227.048 154.445 218.978C186.808 191.855 191.054 143.642 163.868 111.294C148.282 92.7609 125.794 83.4874 103.333 84.0345L131.765 60.2081V60.2354Z" fill="url(#paint1_linear_1054_9901)"/>
<path d="M187.069 294.615C141.791 303.697 97.2118 290.047 65.1914 261.556C67.054 260.749 68.8481 259.696 70.4916 258.301C73.8334 255.497 76.1068 251.845 77.2162 247.947C84.2147 251.968 91.6377 255.388 99.4442 258.068C166.087 280.951 238.619 245.499 261.464 178.971C284.377 112.415 248.878 39.9784 182.262 17.1641C240.277 26.6974 286.294 71.0813 297.744 128.541C313.11 204.931 263.559 279.255 187.069 294.601V294.615Z" fill="url(#paint2_linear_1054_9901)"/>
</g>
<path d="M275.31 310.197H264.272V299.159C264.272 297.641 263.039 296.41 261.519 296.41C259.999 296.41 258.766 297.655 258.766 299.159V310.197H247.727C246.207 310.197 244.975 311.442 244.975 312.946C244.975 314.451 246.207 315.696 247.727 315.696H258.766V326.733C258.766 328.252 259.999 329.483 261.519 329.483C263.039 329.483 264.272 328.238 264.272 326.733V315.696H275.31C276.831 315.696 278.063 314.451 278.063 312.946C278.063 311.442 276.831 310.197 275.31 310.197Z" fill="#00DBFF"/>
<path d="M300.374 297.873H289.335V286.835C289.335 285.317 288.103 284.086 286.582 284.086C285.062 284.086 283.83 285.331 283.83 286.835V297.873H272.791C271.271 297.873 270.038 299.118 270.038 300.622C270.038 302.127 271.271 303.371 272.791 303.371H283.83V314.409C283.83 315.927 285.062 317.158 286.582 317.158C288.103 317.158 289.335 315.914 289.335 314.409V303.371H300.374C301.894 303.371 303.127 302.127 303.127 300.622C303.127 299.118 301.894 297.873 300.374 297.873Z" fill="#00FF78"/>
<path d="M47.1133 363.991C44.7028 362.651 42.7854 360.777 41.3748 358.369C39.9641 355.962 39.252 353.254 39.252 350.245C39.252 347.236 39.9641 344.541 41.3748 342.148C42.7991 339.754 44.7028 337.894 47.1133 336.554C49.5237 335.213 52.167 334.543 55.0704 334.543C57.9739 334.543 60.6172 335.213 63.0276 336.554C65.438 337.894 67.328 339.768 68.725 342.148C70.122 344.528 70.8067 347.236 70.8067 350.245C70.8067 353.254 70.1083 355.962 68.6976 358.369C67.287 360.777 65.397 362.651 63.0002 363.991C60.6035 365.331 57.9602 366.002 55.0704 366.002C52.1806 366.002 49.5237 365.331 47.1133 363.991ZM60.9596 356.728C62.4387 355.1 63.1783 352.939 63.1783 350.245C63.1783 347.55 62.4387 345.362 60.9596 343.748C59.4804 342.134 57.522 341.313 55.0704 341.313C52.6189 341.313 50.6057 342.12 49.1402 343.721C47.6611 345.321 46.9352 347.496 46.9352 350.245C46.9352 352.994 47.6748 355.128 49.1402 356.742C50.6193 358.356 52.5915 359.176 55.0704 359.176C57.5493 359.176 59.4941 358.356 60.9596 356.728Z" fill="white"/>
<path d="M90.6376 365.7L84.2417 354.102H82.4476V365.7H74.9561V334.98H87.5287C89.9528 334.98 92.0208 335.404 93.7191 336.252C95.4311 337.1 96.7048 338.263 97.5539 339.727C98.403 341.204 98.8276 342.845 98.8276 344.651C98.8276 346.689 98.2524 348.521 97.0882 350.122C95.9378 351.722 94.2395 352.871 91.9798 353.541L99.0741 365.7H90.6239H90.6376ZM82.4476 348.809H87.0904C88.46 348.809 89.4871 348.48 90.1719 347.796C90.8567 347.126 91.1991 346.182 91.1991 344.951C91.1991 343.789 90.8567 342.872 90.1719 342.202C89.4871 341.532 88.46 341.204 87.0904 341.204H82.4476V348.822V348.809Z" fill="white"/>
<path d="M125.644 334.98V340.971H117.495V365.687H110.003V340.971H101.854V334.98H125.644Z" fill="white"/>
<path d="M136.779 334.98V353.363C136.779 355.196 137.231 356.619 138.135 357.603C139.038 358.588 140.367 359.094 142.12 359.094C143.873 359.094 145.215 358.602 146.146 357.603C147.078 356.605 147.543 355.196 147.543 353.363V334.98H155.035V353.308C155.035 356.058 154.446 358.369 153.282 360.27C152.118 362.172 150.543 363.594 148.571 364.565C146.598 365.523 144.393 366.001 141.983 366.001C139.573 366.001 137.381 365.523 135.478 364.579C133.56 363.635 132.054 362.199 130.944 360.284C129.835 358.369 129.273 356.044 129.273 353.308V334.98H136.765H136.779Z" fill="white"/>
<path d="M165.389 364.907C163.609 364.182 162.184 363.102 161.116 361.666C160.048 360.23 159.486 358.52 159.432 356.509H167.403C167.512 357.645 167.909 358.52 168.58 359.108C169.251 359.71 170.128 360.011 171.21 360.011C172.292 360.011 173.196 359.751 173.839 359.245C174.483 358.739 174.798 358.027 174.798 357.125C174.798 356.372 174.538 355.743 174.031 355.237C173.524 354.745 172.894 354.335 172.155 354.006C171.415 353.678 170.347 353.322 168.978 352.912C166.992 352.297 165.376 351.681 164.116 351.079C162.856 350.477 161.774 349.561 160.87 348.371C159.966 347.181 159.514 345.622 159.514 343.693C159.514 340.835 160.541 338.592 162.623 336.978C164.704 335.364 167.403 334.543 170.731 334.543C174.059 334.543 176.853 335.35 178.921 336.978C180.989 338.605 182.098 340.848 182.249 343.734H174.141C174.086 342.75 173.716 341.97 173.045 341.395C172.374 340.821 171.511 340.547 170.457 340.547C169.553 340.547 168.827 340.794 168.265 341.272C167.718 341.751 167.43 342.449 167.43 343.351C167.43 344.336 167.896 345.116 168.827 345.663C169.758 346.224 171.224 346.812 173.209 347.455C175.195 348.125 176.811 348.768 178.058 349.383C179.304 349.999 180.372 350.888 181.276 352.05C182.18 353.213 182.632 354.717 182.632 356.564C182.632 358.41 182.18 359.901 181.29 361.337C180.4 362.774 179.099 363.909 177.414 364.757C175.716 365.605 173.716 366.029 171.415 366.029C169.114 366.029 167.156 365.66 165.362 364.935L165.389 364.907Z" fill="white"/>
<path d="M218.748 349.752C217.926 351.23 216.666 352.419 214.981 353.322C213.283 354.225 211.188 354.676 208.668 354.676H204.025V365.7H196.533V334.98H208.668C211.119 334.98 213.187 335.404 214.885 336.252C216.584 337.1 217.844 338.263 218.693 339.754C219.542 341.245 219.966 342.955 219.966 344.869C219.966 346.647 219.556 348.275 218.734 349.752H218.748ZM211.297 347.714C211.996 347.044 212.352 346.1 212.352 344.869C212.352 343.638 211.996 342.695 211.297 342.024C210.599 341.354 209.53 341.026 208.092 341.026H204.011V348.727H208.092C209.517 348.727 210.585 348.398 211.297 347.728V347.714Z" fill="white"/>
<path d="M243.892 336.911C246.316 338.197 248.193 340.002 249.521 342.314C250.85 344.625 251.521 347.306 251.521 350.342C251.521 353.379 250.85 356.019 249.521 358.344C248.193 360.683 246.303 362.488 243.865 363.76C241.427 365.046 238.606 365.689 235.387 365.689H223.869V334.969H235.387C238.633 334.969 241.454 335.612 243.878 336.897L243.892 336.911ZM241.523 356.908C243.098 355.362 243.892 353.174 243.892 350.342C243.892 347.511 243.098 345.309 241.523 343.736C239.948 342.163 237.743 341.37 234.908 341.37H231.361V359.219H234.908C237.743 359.219 239.948 358.453 241.523 356.908Z" fill="white"/>
<path d="M275.749 334.98V340.971H263.217V347.454H272.599V353.267H263.217V365.7H255.726V334.98H275.749Z" fill="white"/>
<mask id="mask0_1054_9901" style="mask-type:luminance" maskUnits="userSpaceOnUse" x="77" y="61" width="161" height="192">
<path d="M237.962 61.9727H77.0244V252.612H237.962V61.9727Z" fill="white"/>
</mask>
<g mask="url(#mask0_1054_9901)">
<path d="M97.6087 67.3906H185.192L232.347 110.94V231.864C232.347 232.794 232.155 233.916 231.977 234.86C231.607 236.733 230.854 238.416 229.731 240.098C228.046 242.533 225.992 244.215 223.362 245.337C222.431 245.706 221.486 246.089 220.555 246.267C219.623 246.445 218.5 246.636 217.555 246.636H97.595C96.6637 246.636 95.5407 246.445 94.5957 246.267C92.7194 245.898 91.0348 245.145 89.3502 244.024C86.9124 242.341 85.2278 240.29 84.1048 237.664C83.735 236.733 83.3515 235.79 83.1735 234.86C82.9955 233.93 82.8037 232.986 82.8037 231.864V82.1625C82.8037 81.2324 82.9955 80.1108 83.1735 79.1671C83.5433 77.2932 84.2965 75.6109 85.4196 73.9285C87.1041 71.4939 89.3502 69.6338 91.9661 68.5122C92.8974 68.1429 93.8424 67.7599 94.7737 67.5821C95.705 67.5821 96.65 67.3906 97.5813 67.3906" fill="white"/>
<path d="M97.609 73.3801C97.0474 73.3801 96.4859 73.3801 95.9244 73.5715C95.3629 73.763 94.8014 73.9408 94.2398 74.1323C93.6783 74.3238 93.3085 74.5016 92.747 74.8846C91.8157 75.4454 91.0625 76.3755 90.5009 77.3192C90.1312 77.6885 89.9394 78.2493 89.5696 78.8101C89.3779 79.1794 89.1998 79.7402 89.1998 80.3009C89.0081 80.8617 89.0081 81.4225 89.0081 81.9833V231.685C89.0081 232.246 89.0081 232.807 89.1998 233.367C89.3916 233.928 89.5696 234.489 89.7614 235.05C89.9531 235.611 90.3229 235.98 90.5146 236.541C91.0761 237.471 92.0075 238.223 92.9525 238.975C93.3222 239.345 93.8838 239.536 94.4453 239.728C95.0068 239.919 95.5683 240.097 96.1298 240.288C96.6914 240.48 97.2529 240.48 97.8144 240.48H217.966C218.528 240.48 219.089 240.48 219.651 240.288C220.212 240.097 220.774 239.919 221.335 239.728C221.897 239.536 222.267 239.167 222.828 238.975C223.76 238.414 224.513 237.484 225.266 236.541C225.636 236.171 225.828 235.611 226.019 235.05C226.211 234.489 226.389 233.928 226.581 233.367C226.773 232.807 226.773 232.246 226.773 231.685V113.565L182.988 73.3801H97.6501H97.609ZM97.609 61.4121H187.63L238.537 108.326V231.863C238.537 233.176 238.345 234.667 238.167 235.98C237.606 238.592 236.483 241.027 234.99 243.27C232.744 246.635 229.567 249.247 226.006 250.752C224.691 251.312 223.39 251.682 222.075 251.873C220.76 252.065 219.267 252.243 217.953 252.243H97.6227C96.3079 252.243 94.8151 252.051 93.5003 251.873C90.8844 251.312 88.4466 250.191 86.2005 248.7C82.8314 246.457 80.2155 243.284 78.709 239.728C78.1475 238.414 77.7777 237.115 77.5859 235.802C77.2162 234.68 77.0244 233.367 77.0244 231.877V82.1611C77.0244 80.848 77.2161 79.3572 77.3942 78.0441C77.9557 75.2402 79.0788 72.8056 80.5716 70.5625C82.8177 67.1978 85.9951 64.5853 89.5559 63.0808C90.8707 62.52 92.1718 62.1507 93.4866 61.9592C94.8014 61.5899 96.2942 61.3984 97.609 61.3984" fill="#BB3232"/>
<path d="M208.407 118.421C196.985 118.421 187.822 109.257 187.822 97.8636V87.9609L220.952 118.421H208.407Z" fill="#BB3232"/>
<path d="M214.761 198.969H140.284V209.815H214.761V198.969Z" fill="#BB3232"/>
<path d="M118.194 217.667C110.894 217.667 105.087 211.868 105.087 204.578C105.087 197.288 110.894 191.488 118.194 191.488C125.493 191.488 131.3 197.288 131.3 204.578C131.3 211.676 125.493 217.667 118.194 217.667Z" fill="#CECECF"/>
<path d="M214.761 160.656H140.284V171.503H214.761V160.656Z" fill="#BB3232"/>
<path d="M118.194 179.163C110.894 179.163 105.087 173.364 105.087 166.074C105.087 158.784 110.894 152.984 118.194 152.984C125.493 152.984 131.3 158.784 131.3 166.074C131.3 173.364 125.493 179.163 118.194 179.163Z" fill="#BB3232"/>
<path d="M214.761 123.469H140.284V134.315H214.761V123.469Z" fill="#BB3232"/>
<path d="M118.194 142.152C110.894 142.152 105.087 136.352 105.087 129.062C105.087 121.772 110.894 115.973 118.194 115.973C125.493 115.973 131.3 121.772 131.3 129.062C131.3 136.161 125.493 142.152 118.194 142.152Z" fill="#CECECF"/>
</g>
</g>
<defs>
<linearGradient id="paint0_linear_1054_9901" x1="0" y1="157.293" x2="315" y2="157.293" gradientUnits="userSpaceOnUse">
<stop stop-color="#003A44"/>
<stop offset="0.67" stop-color="#19857C"/>
<stop offset="1" stop-color="#01634E"/>
</linearGradient>
<linearGradient id="paint1_linear_1054_9901" x1="103.333" y1="137.87" x2="239.728" y2="137.87" gradientUnits="userSpaceOnUse">
<stop stop-color="#003A44" stop-opacity="0"/>
<stop offset="0.47" stop-color="#00FF78"/>
</linearGradient>
<linearGradient id="paint2_linear_1054_9901" x1="65.1914" y1="157.291" x2="300.537" y2="157.291" gradientUnits="userSpaceOnUse">
<stop stop-color="#003A44" stop-opacity="0"/>
<stop offset="0.47" stop-color="#00FF78"/>
</linearGradient>
<clipPath id="clip0_1054_9901">
<rect width="315" height="366" fill="white"/>
</clipPath>
</defs>
</svg>
